<svg width="24" height="25" viewBox="0 0 24 25" fill="none" xmlns="http://www.w3.org/2000/svg">
<path d="M1.5 19V5.00002H2.99995V14.5H11.25V7.00002H18.9999C19.9624 7.00002 20.7864 7.34273 21.4718 8.02815C22.1572 8.71357 22.4999 9.53752 22.4999 10.5V19H20.9999V16H2.99995V19H1.5ZM6.99882 13.0577C6.28804 13.0577 5.68426 12.8089 5.18748 12.3114C4.69069 11.8138 4.4423 11.2096 4.4423 10.4989C4.4423 9.78809 4.69107 9.18431 5.1886 8.68752C5.68615 8.19074 6.29031 7.94235 7.00108 7.94235C7.71186 7.94235 8.31564 8.19112 8.81243 8.68865C9.30921 9.1862 9.5576 9.79036 9.5576 10.5011C9.5576 11.2119 9.30883 11.8157 8.8113 12.3125C8.31375 12.8093 7.70959 13.0577 6.99882 13.0577ZM12.7499 14.5H20.9999V10.5C20.9999 9.95 20.8041 9.47917 20.4124 9.0875C20.0208 8.69583 19.5499 8.5 18.9999 8.5H12.7499V14.5ZM6.99995 11.5577C7.2961 11.5577 7.54643 11.4555 7.75093 11.251C7.95541 11.0465 8.05765 10.7962 8.05765 10.5C8.05765 10.2039 7.95541 9.95353 7.75093 9.74903C7.54643 9.54454 7.2961 9.4423 6.99995 9.4423C6.7038 9.4423 6.45348 9.54454 6.24898 9.74903C6.04449 9.95353 5.94225 10.2039 5.94225 10.5C5.94225 10.7962 6.04449 11.0465 6.24898 11.251C6.45348 11.4555 6.7038 11.5577 6.99995 11.5577Z" fill="#2F945A"/>
</svg>
