<svg width="18" height="19" viewBox="0 0 18 19" fill="none" xmlns="http://www.w3.org/2000/svg">
<g clip-path="url(#clip0_6441_58630)">
<path d="M4.31369 13.2506V7.62563H5.43869V13.2506H4.31369ZM8.43869 13.2506V7.62563H9.56369V13.2506H8.43869ZM2.07812 6.12563V5.05838L9.00119 1.66895L15.9242 5.05838V6.12563H2.07812ZM2.07812 15.8756V14.7506L10.1262 14.7506C10.1262 14.7506 10.0226 15.19 10.1262 15.5006C10.1917 15.6971 10.3164 15.8756 10.3164 15.8756H2.07812ZM12.5637 11.0006V7.62563H13.6887V9.50064L12.5637 11.0006Z" fill="#1F212C"/>
<path d="M14.2162 16.3875C13.8612 16.8278 13.4035 17.0781 12.843 17.1384C12.2826 17.1987 11.7822 17.0514 11.3419 16.6965C10.9015 16.3416 10.6512 15.8839 10.591 15.3234C10.5306 14.7628 10.6779 14.2623 11.0328 13.8219L11.8862 12.763C11.9462 12.6885 12.0218 12.6464 12.1128 12.6366C12.2039 12.6268 12.2868 12.652 12.3614 12.7121C12.4359 12.7722 12.478 12.8477 12.4877 12.9388C12.4975 13.0297 12.4723 13.1125 12.4122 13.187L11.5585 14.2463C11.3214 14.5405 11.223 14.8754 11.2634 15.2509C11.3038 15.6265 11.4712 15.933 11.7657 16.1703C12.0601 16.4076 12.3952 16.5061 12.7707 16.4658C13.1463 16.4255 13.4526 16.2582 13.6897 15.9639L14.5435 14.9046C14.6035 14.8301 14.6791 14.788 14.7701 14.7783C14.8612 14.7685 14.9441 14.7936 15.0186 14.8537C15.0932 14.9138 15.1353 14.9893 15.145 15.0803C15.1547 15.1713 15.1296 15.2541 15.0695 15.3286L14.2162 16.3875ZM13.4419 14.6288C13.3819 14.7033 13.3063 14.7454 13.2152 14.7551C13.1241 14.7649 13.0413 14.7398 12.9668 14.6797C12.8922 14.6196 12.8501 14.5441 12.8404 14.4531C12.8307 14.3621 12.8558 14.2793 12.9159 14.2048L14.6117 12.1005C14.6718 12.026 14.7474 11.9839 14.8384 11.9742C14.9295 11.9644 15.0123 11.9895 15.0868 12.0496C15.1614 12.1097 15.2036 12.1852 15.2132 12.2762C15.223 12.3672 15.1979 12.45 15.1378 12.5245L13.4419 14.6288ZM16.1675 13.9663C16.1074 14.0408 16.0319 14.0829 15.9408 14.0927C15.8497 14.1025 15.7669 14.0773 15.6923 14.0172C15.6178 13.9571 15.5756 13.8816 15.5659 13.7905C15.5562 13.6996 15.5814 13.6168 15.6414 13.5423L16.4952 12.483C16.7323 12.1888 16.8307 11.8539 16.7903 11.4784C16.7499 11.1028 16.5825 10.7963 16.288 10.559C15.9935 10.3217 15.6585 10.2232 15.2829 10.2635C14.9074 10.3038 14.6011 10.4711 14.3639 10.7654L13.5102 11.8247C13.4501 11.8992 13.3746 11.9413 13.2835 11.9511C13.1924 11.9608 13.1096 11.9357 13.0351 11.8756C12.9605 11.8155 12.9184 11.74 12.9087 11.649C12.8989 11.558 12.9241 11.4752 12.9841 11.4007L13.8375 10.3418C14.1924 9.90146 14.6501 9.65116 15.2106 9.59092C15.7711 9.53064 16.2715 9.67793 16.7118 10.0328C17.1521 10.3877 17.4024 10.8454 17.4627 11.4059C17.5231 11.9666 17.3758 12.467 17.0209 12.9074L16.1675 13.9663Z" fill="#1F212C"/>
</g>
<defs>
<clipPath id="clip0_6441_58630">
<rect width="18" height="18" fill="white" transform="translate(0 0.5)"/>
</clipPath>
</defs>
</svg>
