<svg width="120" height="41" viewBox="0 0 120 41" fill="none" xmlns="http://www.w3.org/2000/svg">
<path d="M110.471 0.50013H9.87062C9.50392 0.50013 9.14162 0.50013 8.77589 0.50213C8.46974 0.50413 8.16603 0.50994 7.85694 0.51483C7.18545 0.522732 6.51554 0.581806 5.85304 0.69154C5.19146 0.803663 4.55061 1.01505 3.95216 1.31854C3.35444 1.6246 2.80828 2.0223 2.33351 2.4972C1.85624 2.97077 1.4584 3.51815 1.15529 4.11829C0.851338 4.71724 0.640578 5.35907 0.530288 6.02161C0.418948 6.68332 0.359036 7.35265 0.351088 8.02361C0.341808 8.33021 0.340827 8.63783 0.335938 8.94447V32.0587C0.340827 32.3692 0.341808 32.67 0.351088 32.9806C0.359038 33.6516 0.418951 34.3209 0.530288 34.9825C0.640273 35.6455 0.851046 36.2877 1.15529 36.8868C1.45826 37.485 1.85616 38.0302 2.33351 38.5011C2.80648 38.9781 3.35299 39.3761 3.95216 39.6798C4.55061 39.9841 5.19139 40.1968 5.85304 40.3106C6.51566 40.4195 7.18549 40.4786 7.85694 40.4874C8.16603 40.4942 8.46974 40.4981 8.77589 40.4981C9.14161 40.5001 9.50394 40.5001 9.87062 40.5001H110.471C110.83 40.5001 111.195 40.5001 111.555 40.4981C111.859 40.4981 112.172 40.4942 112.477 40.4874C113.147 40.4791 113.815 40.42 114.477 40.3106C115.14 40.196 115.783 39.9834 116.385 39.6798C116.983 39.3759 117.529 38.978 118.002 38.5011C118.478 38.0284 118.877 37.4836 119.184 36.8868C119.486 36.2872 119.694 35.6451 119.803 34.9825C119.914 34.3208 119.976 33.6516 119.988 32.9806C119.992 32.67 119.992 32.3692 119.992 32.0587C120 31.6954 120 31.3341 120 30.9649V10.0363C120 9.67005 120 9.30677 119.992 8.94447C119.992 8.63783 119.992 8.33021 119.988 8.02357C119.976 7.35255 119.914 6.68337 119.803 6.02157C119.694 5.35941 119.485 4.71763 119.184 4.11825C118.566 2.91533 117.588 1.93616 116.385 1.31845C115.783 1.0157 115.14 0.80437 114.477 0.69145C113.815 0.581233 113.147 0.522138 112.477 0.51469C112.172 0.50981 111.859 0.50395 111.555 0.502C111.195 0.5 110.83 0.5 110.471 0.5V0.50013Z" fill="#A6A6A6"/>
<path d="M8.7808 39.625C8.47612 39.625 8.1788 39.6211 7.87651 39.6143C7.2503 39.6061 6.62554 39.5516 6.00737 39.4512C5.43096 39.3519 4.87258 39.1673 4.35063 38.9033C3.83348 38.6415 3.36179 38.2983 2.95363 37.8867C2.53957 37.48 2.19485 37.0082 1.93312 36.4902C1.66851 35.9688 1.48539 35.4099 1.39012 34.833C1.28725 34.2131 1.23159 33.5863 1.22362 32.958C1.21728 32.7471 1.20898 32.0449 1.20898 32.0449V8.94434C1.20898 8.94434 1.21782 8.25293 1.22367 8.0498C1.2313 7.42248 1.28664 6.79665 1.3892 6.17773C1.48464 5.59925 1.66791 5.03875 1.93266 4.51563C2.19343 3.99794 2.53624 3.52586 2.9478 3.11768C3.35891 2.70562 3.83211 2.3606 4.35014 2.09521C4.87089 1.83209 5.42822 1.64873 6.00346 1.55127C6.62366 1.44984 7.25059 1.395 7.87897 1.38721L8.78129 1.375H111.55L112.463 1.3877C113.086 1.3951 113.707 1.44945 114.321 1.55029C114.902 1.64898 115.466 1.83362 115.992 2.09814C117.03 2.63299 117.875 3.47916 118.407 4.51807C118.668 5.03758 118.848 5.59351 118.942 6.16699C119.046 6.79099 119.104 7.42174 119.116 8.0542C119.119 8.3374 119.119 8.6416 119.119 8.94434C119.127 9.31934 119.127 9.67627 119.127 10.0361V30.9648C119.127 31.3281 119.127 31.6826 119.119 32.04C119.119 32.3652 119.119 32.6631 119.115 32.9697C119.104 33.5909 119.046 34.2104 118.944 34.8232C118.851 35.4043 118.669 35.9675 118.404 36.4932C118.141 37.0056 117.798 37.4733 117.389 37.8789C116.98 38.2927 116.508 38.6379 115.989 38.9014C115.464 39.1674 114.902 39.3527 114.321 39.4512C113.703 39.5522 113.078 39.6067 112.452 39.6143C112.159 39.6211 111.853 39.625 111.555 39.625L110.471 39.627L8.7808 39.625Z" fill="black"/>
<path d="M25.1049 20.8013C25.1157 19.9666 25.3374 19.1483 25.7494 18.4223C26.1614 17.6964 26.7504 17.0864 27.4615 16.6492C27.0098 16.0041 26.4138 15.4731 25.721 15.0986C25.0282 14.724 24.2575 14.5162 23.4703 14.4916C21.7911 14.3153 20.1631 15.4964 19.3074 15.4964C18.4352 15.4964 17.1177 14.5091 15.6989 14.5383C14.7813 14.5679 13.8869 14.8348 13.103 15.3128C12.3192 15.7909 11.6725 16.4638 11.226 17.2661C9.29201 20.6145 10.7346 25.5356 12.5872 28.2422C13.5141 29.5676 14.5974 31.048 16.0148 30.9955C17.4019 30.938 17.9199 30.111 19.5942 30.111C21.253 30.111 21.739 30.9955 23.1852 30.9621C24.6736 30.938 25.6114 29.6309 26.5058 28.293C27.1717 27.3486 27.6842 26.3049 28.0242 25.2005C27.1595 24.8347 26.4215 24.2226 25.9024 23.4403C25.3833 22.658 25.1059 21.7402 25.1049 20.8013Z" fill="white"/>
<path d="M22.3735 12.7113C23.185 11.7371 23.5848 10.4849 23.488 9.2207C22.2482 9.35092 21.1029 9.94348 20.2804 10.8803C19.8783 11.338 19.5703 11.8704 19.3741 12.4472C19.1778 13.024 19.0972 13.6337 19.1367 14.2417C19.7569 14.2481 20.3704 14.1137 20.931 13.8486C21.4917 13.5835 21.9849 13.1946 22.3735 12.7113Z" fill="white"/>
<path d="M42.6382 27.6397H37.9048L36.7681 30.9961H34.7632L39.2466 18.5781H41.3296L45.813 30.9961H43.7739L42.6382 27.6397ZM38.395 26.0908H42.147L40.2974 20.6436H40.2456L38.395 26.0908Z" fill="white"/>
<path d="M55.4956 26.4695C55.4956 29.2829 53.9898 31.0905 51.7173 31.0905C51.1417 31.1207 50.5692 30.9881 50.0654 30.7079C49.5616 30.4278 49.1469 30.0114 48.8687 29.5065H48.8257V33.9909H46.9673V21.9421H48.7661V23.448H48.8003C49.0913 22.9455 49.513 22.5313 50.0206 22.2495C50.5283 21.9676 51.1028 21.8287 51.6831 21.8474C53.9809 21.8474 55.4956 23.6638 55.4956 26.4695ZM53.5855 26.4695C53.5855 24.6365 52.6382 23.4314 51.1929 23.4314C49.773 23.4314 48.8179 24.6618 48.8179 26.4695C48.8179 28.2937 49.773 29.5154 51.1929 29.5154C52.6382 29.5154 53.5855 28.3191 53.5855 26.4695Z" fill="white"/>
<path d="M65.4605 26.4694C65.4605 29.2829 63.9546 31.0905 61.6822 31.0905C61.1065 31.1206 60.534 30.988 60.0302 30.7079C59.5264 30.4278 59.1117 30.0114 58.8335 29.5065H58.7905V33.9909H56.9321V21.9421H58.7309V23.448H58.7651C59.0561 22.9455 59.4778 22.5313 59.9854 22.2495C60.4931 21.9676 61.0676 21.8287 61.6479 21.8474C63.9458 21.8474 65.4605 23.6638 65.4605 26.4694ZM63.5503 26.4694C63.5503 24.6364 62.603 23.4314 61.1577 23.4314C59.7378 23.4314 58.7827 24.6618 58.7827 26.4694C58.7827 28.2937 59.7378 29.5153 61.1577 29.5153C62.6031 29.5153 63.5503 28.3191 63.5503 26.4694H63.5503Z" fill="white"/>
<path d="M72.0464 27.5362C72.1841 28.7676 73.3804 29.5762 75.0152 29.5762C76.5816 29.5762 77.7085 28.7676 77.7085 27.6572C77.7085 26.6934 77.0288 26.1162 75.4195 25.7207L73.8101 25.333C71.5298 24.7822 70.4712 23.7158 70.4712 21.9854C70.4712 19.8428 72.3384 18.3711 74.9898 18.3711C77.6138 18.3711 79.4126 19.8428 79.4732 21.9854H77.5972C77.4849 20.7461 76.4605 19.9981 74.9634 19.9981C73.4663 19.9981 72.4419 20.7549 72.4419 21.8565C72.4419 22.7344 73.0962 23.251 74.6968 23.6465L76.0649 23.9824C78.6128 24.5849 79.6714 25.6084 79.6714 27.4248C79.6714 29.748 77.8208 31.2031 74.8774 31.2031C72.1235 31.2031 70.2642 29.7822 70.144 27.5361L72.0464 27.5362Z" fill="white"/>
<path d="M83.6821 19.7998V21.9424H85.4038V23.4141H83.6821V28.4053C83.6821 29.1807 84.0269 29.542 84.7837 29.542C84.9881 29.5384 85.1921 29.5241 85.395 29.499V30.9619C85.0547 31.0255 84.7089 31.0543 84.3628 31.0478C82.5298 31.0478 81.8149 30.3593 81.8149 28.6035V23.4141H80.4985V21.9424H81.8149V19.7998H83.6821Z" fill="white"/>
<path d="M86.4009 26.4697C86.4009 23.6211 88.0786 21.8311 90.6948 21.8311C93.3198 21.8311 94.9897 23.6211 94.9897 26.4697C94.9897 29.3262 93.3286 31.1084 90.6948 31.1084C88.062 31.1084 86.4009 29.3262 86.4009 26.4697ZM93.0962 26.4697C93.0962 24.5156 92.2007 23.3623 90.6948 23.3623C89.189 23.3623 88.2944 24.5244 88.2944 26.4697C88.2944 28.4316 89.189 29.5762 90.6948 29.5762C92.2007 29.5762 93.0961 28.4316 93.0961 26.4697H93.0962Z" fill="white"/>
<path d="M96.522 21.942H98.2944V23.483H98.3374C98.4574 23.0017 98.7393 22.5764 99.1359 22.2785C99.5325 21.9806 100.02 21.8284 100.515 21.8473C100.729 21.8465 100.943 21.8698 101.152 21.9166V23.6549C100.882 23.5723 100.599 23.5343 100.317 23.5426C100.047 23.5316 99.7778 23.5792 99.5279 23.6821C99.2781 23.785 99.0535 23.9408 98.8695 24.1386C98.6855 24.3365 98.5465 24.5719 98.4621 24.8286C98.3777 25.0852 98.3498 25.3571 98.3804 25.6256V30.9957H96.522L96.522 21.942Z" fill="white"/>
<path d="M109.72 28.3369C109.47 29.9805 107.87 31.1084 105.822 31.1084C103.188 31.1084 101.553 29.3437 101.553 26.5127C101.553 23.6729 103.197 21.8311 105.744 21.8311C108.249 21.8311 109.824 23.5518 109.824 26.2969V26.9336H103.429V27.0459C103.4 27.3791 103.441 27.7148 103.552 28.0306C103.662 28.3464 103.838 28.6352 104.068 28.8778C104.299 29.1203 104.578 29.3111 104.888 29.4374C105.197 29.5637 105.53 29.6226 105.865 29.6103C106.304 29.6515 106.745 29.5498 107.121 29.3203C107.498 29.0909 107.791 28.746 107.956 28.3369L109.72 28.3369ZM103.438 25.6348H107.964C107.981 25.3352 107.936 25.0354 107.831 24.7541C107.726 24.4729 107.565 24.2164 107.356 24.0006C107.148 23.7849 106.897 23.6145 106.619 23.5003C106.342 23.3861 106.044 23.3305 105.744 23.3369C105.441 23.3351 105.141 23.3933 104.861 23.508C104.581 23.6227 104.326 23.7918 104.112 24.0054C103.898 24.2191 103.728 24.473 103.612 24.7527C103.496 25.0323 103.437 25.3321 103.438 25.6348V25.6348Z" fill="white"/>
<path d="M38.1621 9.2304C38.5517 9.20244 38.9427 9.2613 39.3068 9.40274C39.6709 9.54417 39.9991 9.76465 40.2677 10.0483C40.5363 10.3319 40.7386 10.6716 40.86 11.0429C40.9814 11.4141 41.0188 11.8077 40.9697 12.1952C40.9697 14.1015 39.9395 15.1972 38.1621 15.1972H36.0068V9.2304H38.1621ZM36.9336 14.3534H38.0586C38.337 14.37 38.6156 14.3244 38.8741 14.2198C39.1327 14.1152 39.3646 13.9542 39.5531 13.7487C39.7416 13.5431 39.8819 13.2981 39.9638 13.0315C40.0456 12.7648 40.067 12.4833 40.0264 12.2074C40.0641 11.9326 40.0405 11.6528 39.9574 11.3881C39.8743 11.1235 39.7336 10.8805 39.5456 10.6765C39.3575 10.4726 39.1267 10.3128 38.8696 10.2086C38.6125 10.1043 38.3356 10.0582 38.0586 10.0736H36.9336V14.3534Z" fill="white"/>
<path d="M42.0164 12.9438C41.9881 12.6479 42.0219 12.3493 42.1158 12.0672C42.2096 11.7852 42.3614 11.5258 42.5613 11.3059C42.7613 11.0859 43.005 10.9101 43.2768 10.7898C43.5487 10.6696 43.8427 10.6074 44.1399 10.6074C44.4372 10.6074 44.7312 10.6696 45.003 10.7898C45.2749 10.9101 45.5186 11.0859 45.7185 11.3059C45.9185 11.5258 46.0702 11.7852 46.1641 12.0672C46.2579 12.3493 46.2918 12.6479 46.2635 12.9438C46.2923 13.24 46.2589 13.539 46.1653 13.8215C46.0717 14.1041 45.92 14.3639 45.72 14.5843C45.52 14.8047 45.2761 14.9808 45.004 15.1014C44.7319 15.2219 44.4376 15.2842 44.1399 15.2842C43.8423 15.2842 43.548 15.2219 43.2758 15.1014C43.0037 14.9808 42.7598 14.8047 42.5598 14.5843C42.3598 14.3639 42.2082 14.1041 42.1146 13.8215C42.021 13.539 41.9875 13.24 42.0164 12.9438ZM45.3494 12.9438C45.3494 11.9677 44.9109 11.3969 44.1414 11.3969C43.3689 11.3969 42.9344 11.9677 42.9344 12.9438C42.9344 13.9277 43.369 14.4941 44.1414 14.4941C44.9109 14.4941 45.3494 13.9238 45.3494 12.9438H45.3494Z" fill="white"/>
<path d="M51.9092 15.1973H50.9873L50.0566 11.8809H49.9863L49.0596 15.1973H48.1465L46.9053 10.6943H47.8066L48.6133 14.1303H48.6797L49.6055 10.6943H50.458L51.3838 14.1303H51.4541L52.2568 10.6943H53.1455L51.9092 15.1973Z" fill="white"/>
<path d="M54.1895 10.6939H55.0449V11.4092H55.1113C55.224 11.1523 55.414 10.9369 55.6549 10.7931C55.8957 10.6493 56.1755 10.5842 56.4551 10.607C56.6742 10.5905 56.8942 10.6235 57.0988 10.7036C57.3034 10.7837 57.4873 10.9088 57.637 11.0697C57.7867 11.2305 57.8983 11.423 57.9635 11.6328C58.0287 11.8426 58.0458 12.0644 58.0137 12.2818V15.1968H57.125V12.5049C57.125 11.7813 56.8106 11.4214 56.1533 11.4214C56.0046 11.4145 55.8561 11.4398 55.718 11.4957C55.58 11.5515 55.4556 11.6365 55.3535 11.7449C55.2514 11.8533 55.1739 11.9825 55.1263 12.1236C55.0788 12.2647 55.0624 12.4145 55.0781 12.5625V15.1968H54.1895L54.1895 10.6939Z" fill="white"/>
<path d="M59.4297 8.93652H60.3184V15.1973H59.4297V8.93652Z" fill="white"/>
<path d="M61.5535 12.9439C61.5252 12.6479 61.5591 12.3494 61.6529 12.0673C61.7468 11.7852 61.8986 11.5259 62.0985 11.3059C62.2985 11.0859 62.5422 10.9101 62.8141 10.7898C63.086 10.6696 63.38 10.6074 63.6773 10.6074C63.9745 10.6074 64.2686 10.6696 64.5404 10.7898C64.8123 10.9101 65.056 11.0859 65.256 11.3059C65.4559 11.5259 65.6077 11.7852 65.7016 12.0673C65.7954 12.3494 65.8293 12.6479 65.801 12.9439C65.8298 13.2401 65.7964 13.5391 65.7027 13.8216C65.6091 14.1042 65.4574 14.364 65.2574 14.5844C65.0574 14.8048 64.8135 14.9809 64.5414 15.1014C64.2692 15.222 63.9749 15.2842 63.6773 15.2842C63.3796 15.2842 63.0853 15.222 62.8132 15.1014C62.541 14.9809 62.2971 14.8048 62.0971 14.5844C61.8971 14.364 61.7454 14.1042 61.6518 13.8216C61.5581 13.5391 61.5247 13.2401 61.5535 12.9439ZM64.8865 12.9439C64.8865 11.9678 64.448 11.397 63.6785 11.397C62.906 11.397 62.4715 11.9678 62.4715 12.9439C62.4715 13.9278 62.906 14.4942 63.6785 14.4942C64.448 14.4942 64.8865 13.9239 64.8865 12.9439H64.8865Z" fill="white"/>
<path d="M66.7368 13.9238C66.7368 13.1133 67.3403 12.646 68.4116 12.5796L69.6313 12.5093V12.1206C69.6313 11.645 69.3169 11.3765 68.7095 11.3765C68.2134 11.3765 67.8696 11.5586 67.771 11.877H66.9106C67.0015 11.1035 67.729 10.6074 68.7505 10.6074C69.8794 10.6074 70.5161 11.1694 70.5161 12.1206V15.1973H69.6606V14.5645H69.5903C69.4476 14.7914 69.2472 14.9765 69.0096 15.1007C68.772 15.2249 68.5056 15.2838 68.2378 15.2715C68.0488 15.2911 67.8577 15.2709 67.6769 15.2122C67.4962 15.1536 67.3297 15.0576 67.1883 14.9307C67.0469 14.8037 66.9337 14.6485 66.8559 14.4751C66.7781 14.3017 66.7376 14.1139 66.7368 13.9238ZM69.6313 13.5391V13.1626L68.5317 13.2329C67.9116 13.2744 67.6304 13.4853 67.6304 13.8823C67.6304 14.2876 67.9819 14.5234 68.4654 14.5234C68.607 14.5378 68.7501 14.5235 68.8861 14.4814C69.0221 14.4393 69.1482 14.3703 69.257 14.2784C69.3658 14.1866 69.455 14.0738 69.5193 13.9468C69.5836 13.8198 69.6217 13.6811 69.6313 13.5391Z" fill="white"/>
<path d="M71.6841 12.9439C71.6841 11.521 72.4155 10.6196 73.5532 10.6196C73.8346 10.6067 74.1139 10.6741 74.3585 10.814C74.603 10.9539 74.8026 11.1605 74.9341 11.4096H75.0005V8.93652H75.8892V15.1973H75.0376V14.4858H74.9673C74.8257 14.7333 74.6191 14.9374 74.3698 15.0758C74.1206 15.2143 73.8382 15.282 73.5532 15.2715C72.4077 15.2715 71.6841 14.3701 71.6841 12.9439ZM72.6021 12.9439C72.6021 13.8989 73.0523 14.4737 73.8052 14.4737C74.5542 14.4737 75.0171 13.8907 75.0171 12.9478C75.0171 12.0093 74.5494 11.418 73.8052 11.418C73.0571 11.418 72.6021 11.9966 72.6021 12.9439H72.6021Z" fill="white"/>
<path d="M79.5657 12.9438C79.5374 12.6479 79.5712 12.3493 79.6651 12.0672C79.7589 11.7852 79.9107 11.5258 80.1106 11.3059C80.3106 11.0859 80.5543 10.9101 80.8261 10.7898C81.098 10.6696 81.392 10.6074 81.6892 10.6074C81.9865 10.6074 82.2805 10.6696 82.5524 10.7898C82.8242 10.9101 83.0679 11.0859 83.2679 11.3059C83.4678 11.5258 83.6196 11.7852 83.7134 12.0672C83.8072 12.3493 83.8411 12.6479 83.8128 12.9438C83.8416 13.24 83.8082 13.539 83.7146 13.8215C83.621 14.1041 83.4693 14.3639 83.2693 14.5843C83.0693 14.8047 82.8254 14.9808 82.5533 15.1014C82.2812 15.2219 81.9869 15.2842 81.6892 15.2842C81.3916 15.2842 81.0973 15.2219 80.8252 15.1014C80.553 14.9808 80.3091 14.8047 80.1092 14.5843C79.9092 14.3639 79.7575 14.1041 79.6639 13.8215C79.5703 13.539 79.5369 13.24 79.5657 12.9438ZM82.8987 12.9438C82.8987 11.9677 82.4602 11.3969 81.6907 11.3969C80.9182 11.3969 80.4837 11.9677 80.4837 12.9438C80.4837 13.9277 80.9183 14.4941 81.6907 14.4941C82.4602 14.4941 82.8987 13.9238 82.8987 12.9438Z" fill="white"/>
<path d="M85.0054 10.6939H85.8608V11.4092H85.9273C86.0399 11.1523 86.2299 10.9369 86.4708 10.7931C86.7117 10.6493 86.9914 10.5842 87.271 10.607C87.4901 10.5905 87.7101 10.6235 87.9147 10.7036C88.1193 10.7837 88.3033 10.9088 88.4529 11.0697C88.6026 11.2305 88.7142 11.423 88.7794 11.6328C88.8446 11.8426 88.8617 12.0644 88.8296 12.2818V15.1968H87.9409V12.5049C87.9409 11.7813 87.6265 11.4214 86.9692 11.4214C86.8205 11.4145 86.672 11.4398 86.5339 11.4957C86.3959 11.5515 86.2715 11.6365 86.1694 11.7449C86.0673 11.8533 85.9898 11.9825 85.9423 12.1236C85.8947 12.2647 85.8783 12.4145 85.894 12.5625V15.1968H85.0054V10.6939Z" fill="white"/>
<path d="M93.8511 9.57324V10.7148H94.8267V11.4634H93.8511V13.7788C93.8511 14.2505 94.0454 14.457 94.4878 14.457C94.601 14.4567 94.7142 14.4498 94.8267 14.4365V15.1768C94.6671 15.2053 94.5054 15.2205 94.3433 15.2222C93.355 15.2222 92.9614 14.8745 92.9614 14.0063V11.4633H92.2466V10.7148H92.9614V9.57324H93.8511Z" fill="white"/>
<path d="M96.0405 8.93652H96.9214V11.418H96.9917C97.1098 11.1587 97.305 10.9421 97.5507 10.7977C97.7964 10.6534 98.0807 10.5883 98.3647 10.6113C98.5827 10.5995 98.8005 10.6359 99.0028 10.7179C99.2051 10.7999 99.3868 10.9256 99.5349 11.086C99.683 11.2463 99.7939 11.4373 99.8597 11.6455C99.9255 11.8536 99.9445 12.0737 99.9155 12.29V15.1973H99.0259V12.5093C99.0259 11.79 98.6909 11.4258 98.063 11.4258C97.9103 11.4132 97.7567 11.4342 97.6129 11.4873C97.4691 11.5404 97.3387 11.6242 97.2307 11.7329C97.1227 11.8417 97.0397 11.9727 96.9877 12.1168C96.9356 12.261 96.9157 12.4147 96.9292 12.5674V15.1973H96.0406L96.0405 8.93652Z" fill="white"/>
<path d="M105.097 13.9815C104.977 14.3931 104.715 14.749 104.358 14.9872C104.002 15.2253 103.573 15.3305 103.146 15.2842C102.849 15.2921 102.555 15.2353 102.282 15.1177C102.01 15.0002 101.766 14.8248 101.568 14.6036C101.37 14.3825 101.223 14.1209 101.136 13.8371C101.049 13.5533 101.026 13.254 101.066 12.96C101.027 12.6652 101.051 12.3652 101.137 12.0805C101.224 11.7959 101.371 11.5331 101.567 11.31C101.764 11.087 102.007 10.9088 102.278 10.7876C102.55 10.6664 102.845 10.605 103.142 10.6075C104.395 10.6075 105.151 11.4635 105.151 12.8775V13.1876H101.971V13.2374C101.957 13.4026 101.978 13.569 102.032 13.7257C102.086 13.8825 102.173 14.0262 102.286 14.1476C102.399 14.2691 102.536 14.3656 102.688 14.431C102.84 14.4964 103.005 14.5292 103.171 14.5274C103.383 14.5529 103.598 14.5146 103.789 14.4174C103.98 14.3202 104.138 14.1685 104.242 13.9815L105.097 13.9815ZM101.971 12.5303H104.246C104.257 12.3792 104.236 12.2274 104.185 12.0847C104.134 11.942 104.054 11.8115 103.95 11.7016C103.845 11.5918 103.719 11.505 103.579 11.4468C103.439 11.3886 103.289 11.3604 103.137 11.3638C102.984 11.3619 102.831 11.3908 102.689 11.4487C102.546 11.5067 102.417 11.5925 102.308 11.7012C102.2 11.8099 102.114 11.9393 102.056 12.0817C101.998 12.2241 101.969 12.3766 101.971 12.5303H101.971Z" fill="white"/>
</svg>
