<svg width="24" height="25" viewBox="0 0 24 25" fill="none" xmlns="http://www.w3.org/2000/svg">
<path d="M12 18.0961L15.6538 14.4423L14.6 13.3885L12.75 15.2385V10.7885H11.25V15.2385L9.39998 13.3885L8.34615 14.4423L12 18.0961ZM4.99997 8.40386V19.1923C4.99997 19.282 5.02883 19.3558 5.08653 19.4135C5.14423 19.4712 5.21795 19.5 5.3077 19.5H18.6923C18.782 19.5 18.8557 19.4712 18.9134 19.4135C18.9711 19.3558 19 19.282 19 19.1923V8.40386H4.99997ZM5.38463 21C4.88591 21 4.44712 20.8106 4.06827 20.4317C3.68942 20.0529 3.5 19.6141 3.5 19.1154V7.50581C3.5 7.29171 3.5343 7.08754 3.6029 6.89331C3.67148 6.69909 3.77437 6.51993 3.91155 6.35583L5.3154 4.65773C5.4795 4.44363 5.68462 4.28049 5.93077 4.16831C6.17692 4.05612 6.43718 4.00003 6.71155 4.00003H17.2692C17.5435 4.00003 17.8054 4.05612 18.0547 4.16831C18.3041 4.28049 18.5108 4.44363 18.6749 4.65773L20.0884 6.37506C20.2256 6.53916 20.3285 6.71992 20.3971 6.91736C20.4657 7.11479 20.5 7.32056 20.5 7.53466V19.1154C20.5 19.6141 20.3105 20.0529 19.9317 20.4317C19.5528 20.8106 19.114 21 18.6153 21H5.38463ZM5.39035 6.90388H18.6L17.5096 5.60578C17.4775 5.57373 17.4407 5.54809 17.399 5.52886C17.3573 5.50962 17.314 5.50001 17.2692 5.50001H6.72117C6.67629 5.50001 6.63302 5.50962 6.59135 5.52886C6.54968 5.54809 6.51282 5.57373 6.48075 5.60578L5.39035 6.90388Z" fill="#ACAEBA"/>
</svg>
