<svg width="45" height="44" viewBox="0 0 45 44" fill="none" xmlns="http://www.w3.org/2000/svg">
<rect x="1" y="0.5" width="43" height="43" rx="21.5" fill="white"/>
<rect x="1" y="0.5" width="43" height="43" rx="21.5" stroke="#BFDECC"/>
<path d="M20.5 23.75H24.2402V22.25H20.5V23.75ZM20.5 20.75H27.9808V19.25H20.5V20.75ZM20.5 17.75H27.9808V16.25H20.5V17.75ZM18.5578 27.5C18.0526 27.5 17.625 27.325 17.275 26.975C16.925 26.625 16.75 26.1974 16.75 25.6923V14.3077C16.75 13.8026 16.925 13.375 17.275 13.025C17.625 12.675 18.0526 12.5 18.5578 12.5H29.9423C30.4474 12.5 30.875 12.675 31.225 13.025C31.575 13.375 31.75 13.8026 31.75 14.3077V25.6923C31.75 26.1974 31.575 26.625 31.225 26.975C30.875 27.325 30.4474 27.5 29.9423 27.5H18.5578ZM18.5578 26H29.9423C30.0193 26 30.0898 25.9679 30.1538 25.9038C30.2179 25.8398 30.25 25.7692 30.25 25.6923V14.3077C30.25 14.2307 30.2179 14.1602 30.1538 14.0962C30.0898 14.0321 30.0193 14 29.9423 14H18.5578C18.4808 14 18.4103 14.0321 18.3463 14.0962C18.2821 14.1602 18.25 14.2307 18.25 14.3077V25.6923C18.25 25.7692 18.2821 25.8398 18.3463 25.9038C18.4103 25.9679 18.4808 26 18.5578 26ZM15.0577 31C14.5526 31 14.125 30.825 13.775 30.475C13.425 30.125 13.25 29.6974 13.25 29.1923V16.3077H14.75V29.1923C14.75 29.2693 14.7821 29.3398 14.8463 29.4038C14.9103 29.4679 14.9807 29.5 15.0577 29.5H27.9423V31H15.0577Z" fill="#2F945A"/>
</svg>
