<svg width="25" height="24" viewBox="0 0 25 24" fill="none" xmlns="http://www.w3.org/2000/svg">
<path d="M19.7133 20.5C17.8287 20.5 15.9354 20.0618 14.0335 19.1855C12.1316 18.3092 10.3842 17.073 8.79122 15.4769C7.19827 13.8807 5.96366 12.1333 5.08737 10.2346C4.21109 8.33588 3.77295 6.44423 3.77295 4.55963C3.77295 4.25688 3.87295 4.00458 4.07295 3.80275C4.27295 3.60092 4.52295 3.5 4.82295 3.5H8.08445C8.33702 3.5 8.55977 3.58238 8.75272 3.74713C8.94567 3.91188 9.06842 4.1154 9.12097 4.3577L9.69405 7.29998C9.7338 7.57306 9.72547 7.80768 9.66905 8.00383C9.61265 8.19998 9.51137 8.36472 9.3652 8.49805L7.0556 10.7461C7.4274 11.4269 7.85208 12.0708 8.32965 12.6779C8.80722 13.2849 9.3242 13.8647 9.8806 14.4173C10.4293 14.966 11.0127 15.4756 11.6306 15.9462C12.2486 16.4167 12.9159 16.8545 13.6326 17.2596L15.8768 14.9962C16.0332 14.8333 16.2226 14.7192 16.4451 14.6539C16.6675 14.5885 16.8986 14.5724 17.1383 14.6058L19.9152 15.1712C20.1678 15.2378 20.3739 15.3667 20.5335 15.5577C20.6931 15.7487 20.7729 15.9654 20.7729 16.2077V19.45C20.7729 19.75 20.672 20 20.4701 20.2C20.2683 20.4 20.016 20.5 19.7133 20.5ZM6.346 9.32693L8.13062 7.61923C8.16267 7.59358 8.18351 7.55832 8.19312 7.51345C8.20274 7.46857 8.20114 7.4269 8.18832 7.38845L7.7537 5.15383C7.74088 5.10254 7.71845 5.06408 7.6864 5.03845C7.65435 5.0128 7.61268 4.99998 7.5614 4.99998H5.42292C5.38447 4.99998 5.35242 5.0128 5.32677 5.03845C5.30112 5.06408 5.2883 5.09613 5.2883 5.1346C5.33958 5.81793 5.45144 6.51217 5.62387 7.2173C5.79632 7.92243 6.03703 8.62564 6.346 9.32693ZM15.046 17.9692C15.7088 18.2782 16.4002 18.5144 17.12 18.6779C17.8399 18.8413 18.5127 18.9384 19.1383 18.9692C19.1768 18.9692 19.2088 18.9564 19.2344 18.9308C19.2601 18.9051 19.2729 18.873 19.2729 18.8346V16.7308C19.2729 16.6795 19.2601 16.6378 19.2344 16.6057C19.2088 16.5737 19.1704 16.5512 19.1191 16.5384L17.0191 16.1115C16.9806 16.0987 16.947 16.0971 16.9181 16.1067C16.8893 16.1163 16.8588 16.1372 16.8268 16.1692L15.046 17.9692Z" fill="#2F945A"/>
</svg>
