<svg width="24" height="24" viewBox="0 0 24 24" fill="none" xmlns="http://www.w3.org/2000/svg">
<path d="M13.6384 20.5L7.25 13.8462V12.1923H10.5C11.4474 12.1923 12.2884 11.8888 13.0231 11.2818C13.7577 10.6747 14.1628 9.86282 14.2385 8.84616H6.25V7.34618H14.0346C13.7898 6.66028 13.3481 6.09777 12.7096 5.65866C12.0712 5.21956 11.3346 5.00001 10.5 5.00001H6.25V3.50003H17.75V5.00001H14.1538C14.5089 5.28334 14.8198 5.62853 15.0865 6.03558C15.3532 6.44265 15.5333 6.87951 15.6269 7.34618H17.75V8.84616H15.7538C15.6846 10.2628 15.1397 11.4247 14.1192 12.3317C13.0987 13.2388 11.8923 13.6923 10.5 13.6923H9.1884L15.7211 20.5H13.6384Z" fill="#4A4E69"/>
</svg>
