<svg width="24" height="24" viewBox="0 0 24 24" fill="none" xmlns="http://www.w3.org/2000/svg">
<path d="M10.7057 15.2537L16.3287 9.65565L15.3999 8.7269L10.7057 13.3962L8.58065 11.2962L7.6519 12.2249L10.7057 15.2537ZM12.0017 21.0999C10.7543 21.0999 9.57757 20.8631 8.4714 20.3894C7.36524 19.9157 6.39707 19.264 5.5669 18.4342C4.73674 17.6043 4.08465 16.6366 3.61065 15.5309C3.13682 14.4252 2.8999 13.2488 2.8999 12.0017C2.8999 10.7377 3.13674 9.55674 3.6104 8.4589C4.08407 7.36107 4.73582 6.39707 5.56565 5.5669C6.39549 4.73674 7.36324 4.08465 8.4689 3.61065C9.57457 3.13682 10.751 2.8999 11.9982 2.8999C13.2622 2.8999 14.4431 3.13674 15.5409 3.6104C16.6387 4.08407 17.6027 4.73582 18.4329 5.56565C19.2631 6.39549 19.9152 7.35907 20.3892 8.4564C20.863 9.55374 21.0999 10.7343 21.0999 11.9982C21.0999 13.2455 20.8631 14.4222 20.3894 15.5284C19.9157 16.6346 19.264 17.6027 18.4342 18.4329C17.6043 19.2631 16.6407 19.9152 15.5434 20.3892C14.4461 20.863 13.2655 21.0999 12.0017 21.0999ZM11.9999 19.7999C14.1666 19.7999 16.0082 19.0416 17.5249 17.5249C19.0416 16.0082 19.7999 14.1666 19.7999 11.9999C19.7999 9.83324 19.0416 7.99157 17.5249 6.4749C16.0082 4.95824 14.1666 4.1999 11.9999 4.1999C9.83324 4.1999 7.99157 4.95824 6.4749 6.4749C4.95824 7.99157 4.1999 9.83324 4.1999 11.9999C4.1999 14.1666 4.95824 16.0082 6.4749 17.5249C7.99157 19.0416 9.83324 19.7999 11.9999 19.7999Z" fill="#2F945A"/>
</svg>
