<svg width="20" height="16" viewBox="0 0 20 16" fill="none" xmlns="http://www.w3.org/2000/svg">
<path d="M5.77767 11.6109H14.2219C15.2482 11.6109 16.1204 11.2517 16.8388 10.5333C17.5571 9.815 17.9163 8.94272 17.9163 7.9165C17.9163 6.89029 17.5571 6.01801 16.8388 5.29966C16.1204 4.58131 15.2482 4.22214 14.2219 4.22214H5.77767C4.75146 4.22214 3.87917 4.58131 3.16082 5.29966C2.44248 6.01801 2.0833 6.89029 2.0833 7.9165C2.0833 8.94272 2.44248 9.815 3.16082 10.5333C3.87917 11.2517 4.75146 11.6109 5.77767 11.6109ZM8.4165 2.63883H11.5831V1.5833H8.4165V2.63883ZM5.77767 15.3052V13.1942C4.31165 13.1942 3.06553 12.6811 2.03932 11.6549C1.01311 10.6286 0.5 9.38252 0.5 7.9165C0.5 6.45048 1.01311 5.20437 2.03932 4.17815C3.06553 3.15194 4.31165 2.63883 5.77767 2.63883H6.8332V1.5833C6.8332 1.14789 6.98845 0.775158 7.29896 0.465095C7.60931 0.155032 7.98249 0 8.41848 0H11.5888C12.0248 0 12.3967 0.155032 12.7046 0.465095C13.0125 0.775158 13.1664 1.14789 13.1664 1.5833V2.63883H14.2219C15.688 2.63883 16.9341 3.15194 17.9603 4.17815C18.9865 5.20437 19.4996 6.45048 19.4996 7.9165C19.4996 9.38252 18.9865 10.6286 17.9603 11.6549C16.9341 12.6811 15.688 13.1942 14.2219 13.1942V15.3052H12.6386V13.1942H7.36097V15.3052H5.77767Z" fill="#2F945A"/>
</svg>
