<svg width="175" height="166" viewBox="0 0 175 166" fill="none" xmlns="http://www.w3.org/2000/svg">
<path d="M85.6299 52.4189H79.5754V59.4647H85.6299V52.4189Z" fill="white" stroke="#263238" stroke-width="0.54276" stroke-linecap="round" stroke-linejoin="round"/>
<path d="M92.6666 52.4189H86.6121V59.4647H92.6666V52.4189Z" fill="white" stroke="#263238" stroke-width="0.54276" stroke-linecap="round" stroke-linejoin="round"/>
<path d="M99.7029 52.4189H93.6484V59.4647H99.7029V52.4189Z" fill="white" stroke="#263238" stroke-width="0.54276" stroke-linecap="round" stroke-linejoin="round"/>
<path d="M85.6299 52.4189H79.5754V54.9648H85.6299V52.4189Z" fill="white" stroke="#263238" stroke-width="0.54276" stroke-linecap="round" stroke-linejoin="round"/>
<path d="M92.6666 52.4189H86.6121V54.9648H92.6666V52.4189Z" fill="white" stroke="#263238" stroke-width="0.54276" stroke-linecap="round" stroke-linejoin="round"/>
<path d="M99.7029 52.4189H93.6484V54.9648H99.7029V52.4189Z" fill="white" stroke="#263238" stroke-width="0.54276" stroke-linecap="round" stroke-linejoin="round"/>
<path d="M93.8731 78.4019H87.8186V85.4476H93.8731V78.4019Z" fill="white" stroke="#263238" stroke-width="0.54276" stroke-linecap="round" stroke-linejoin="round"/>
<path d="M100.912 78.4019H94.8574V85.4476H100.912V78.4019Z" fill="white" stroke="#263238" stroke-width="0.54276" stroke-linecap="round" stroke-linejoin="round"/>
<path d="M107.946 78.4019H101.892V85.4476H107.946V78.4019Z" fill="white" stroke="#263238" stroke-width="0.54276" stroke-linecap="round" stroke-linejoin="round"/>
<path d="M93.8731 78.4019H87.8186V80.9477H93.8731V78.4019Z" fill="white" stroke="#263238" stroke-width="0.54276" stroke-linecap="round" stroke-linejoin="round"/>
<path d="M100.912 78.4019H94.8574V80.9477H100.912V78.4019Z" fill="white" stroke="#263238" stroke-width="0.54276" stroke-linecap="round" stroke-linejoin="round"/>
<path d="M107.946 78.4019H101.892V80.9477H107.946V78.4019Z" fill="white" stroke="#263238" stroke-width="0.54276" stroke-linecap="round" stroke-linejoin="round"/>
<path d="M111.78 52.4189H105.726V59.4647H111.78V52.4189Z" fill="white" stroke="#263238" stroke-width="0.54276" stroke-linecap="round" stroke-linejoin="round"/>
<path d="M118.819 52.4189H112.765V59.4647H118.819V52.4189Z" fill="white" stroke="#263238" stroke-width="0.54276" stroke-linecap="round" stroke-linejoin="round"/>
<path d="M125.853 52.4189H119.799V59.4647H125.853V52.4189Z" fill="white" stroke="#263238" stroke-width="0.54276" stroke-linecap="round" stroke-linejoin="round"/>
<path d="M111.78 52.4189H105.726V54.9648H111.78V52.4189Z" fill="white" stroke="#263238" stroke-width="0.54276" stroke-linecap="round" stroke-linejoin="round"/>
<path d="M118.819 52.4189H112.765V54.9648H118.819V52.4189Z" fill="white" stroke="#263238" stroke-width="0.54276" stroke-linecap="round" stroke-linejoin="round"/>
<path d="M125.853 52.4189H119.799V54.9648H125.853V52.4189Z" fill="white" stroke="#263238" stroke-width="0.54276" stroke-linecap="round" stroke-linejoin="round"/>
<path d="M138.474 52.4189H132.42V59.4647H138.474V52.4189Z" fill="white" stroke="#263238" stroke-width="0.54276" stroke-linecap="round" stroke-linejoin="round"/>
<path d="M145.514 52.4189H139.459V59.4647H145.514V52.4189Z" fill="white" stroke="#263238" stroke-width="0.54276" stroke-linecap="round" stroke-linejoin="round"/>
<path d="M152.549 52.4189H146.494V59.4647H152.549V52.4189Z" fill="white" stroke="#263238" stroke-width="0.54276" stroke-linecap="round" stroke-linejoin="round"/>
<path d="M138.474 52.4189H132.42V54.9648H138.474V52.4189Z" fill="white" stroke="#263238" stroke-width="0.54276" stroke-linecap="round" stroke-linejoin="round"/>
<path d="M145.514 52.4189H139.459V54.9648H145.514V52.4189Z" fill="white" stroke="#263238" stroke-width="0.54276" stroke-linecap="round" stroke-linejoin="round"/>
<path d="M152.549 52.4189H146.494V54.9648H152.549V52.4189Z" fill="white" stroke="#263238" stroke-width="0.54276" stroke-linecap="round" stroke-linejoin="round"/>
<path d="M149.391 71.513V65.6938H147.087V71.513L145.18 74.4297V85.9718H151.298V74.4297L149.391 71.513Z" fill="white" stroke="#263238" stroke-width="0.54276" stroke-linecap="round" stroke-linejoin="round"/>
<path d="M149.388 65.6938H147.088V68.7318H149.388V65.6938Z" fill="white" stroke="#263238" stroke-width="0.54276" stroke-linecap="round" stroke-linejoin="round"/>
<path d="M149.908 77.3501H145.18V82.2172H149.908V77.3501Z" fill="white" stroke="#263238" stroke-width="0.54276" stroke-linecap="round" stroke-linejoin="round"/>
<path d="M141.463 71.513V65.6938H139.163V71.513L137.256 74.4297V85.9718H143.371V74.4297L141.463 71.513Z" fill="#FD7E50" stroke="#263238" stroke-width="0.54276" stroke-linecap="round" stroke-linejoin="round"/>
<path d="M141.464 65.6938H139.164V68.7318H141.464V65.6938Z" fill="white" stroke="#263238" stroke-width="0.54276" stroke-linecap="round" stroke-linejoin="round"/>
<path d="M141.984 77.3501H137.256V82.2172H141.984V77.3501Z" fill="#FD7E50" stroke="#263238" stroke-width="0.54276" stroke-linecap="round" stroke-linejoin="round"/>
<path d="M84.6838 71.513V65.6938H82.3839V71.513L80.4763 74.4297V85.9718H86.595V74.4297L84.6838 71.513Z" fill="white" stroke="#263238" stroke-width="0.54276" stroke-linecap="round" stroke-linejoin="round"/>
<path d="M84.6844 65.6938H82.3845V68.7318H84.6844V65.6938Z" fill="white" stroke="#263238" stroke-width="0.54276" stroke-linecap="round" stroke-linejoin="round"/>
<path d="M85.2044 77.3501H80.4763V82.2172H85.2044V77.3501Z" fill="#FD7E50" stroke="#263238" stroke-width="0.54276" stroke-linecap="round" stroke-linejoin="round"/>
<path d="M76.9612 59.7285H155.006" stroke="#263238" stroke-width="2.17104" stroke-linecap="round" stroke-linejoin="round"/>
<path d="M102.74 34.0381V86.2465" stroke="#263238" stroke-width="2.17104" stroke-linecap="round" stroke-linejoin="round"/>
<path d="M129.747 34.0381V86.2465" stroke="#263238" stroke-width="2.17104" stroke-linecap="round" stroke-linejoin="round"/>
<path d="M155.555 33.3569H76.8467V86.2928H155.555V33.3569Z" stroke="#263238" stroke-width="2.17104" stroke-linecap="round" stroke-linejoin="round"/>
<path d="M64.5524 64.8022H17.1719V100.227H64.5524V64.8022Z" fill="white" stroke="#263238" stroke-width="0.54276" stroke-linecap="round" stroke-linejoin="round"/>
<path d="M64.5524 75.8379H17.1719V77.4531H64.5524V75.8379Z" fill="white" stroke="#263238" stroke-width="0.54276" stroke-linecap="round" stroke-linejoin="round"/>
<path d="M19.1153 86.3422C19.1153 86.3422 21.5756 83.2187 25.177 83.4077C28.7783 83.5966 29.4557 86.4385 29.4557 86.4385H17.9814L19.1153 86.3422Z" fill="white" stroke="#263238" stroke-width="0.54276" stroke-linecap="round" stroke-linejoin="round"/>
<path d="M22.239 86.7205C22.239 86.7205 22.9022 83.4009 25.1736 83.4009" stroke="#263238" stroke-width="0.54276" stroke-linecap="round" stroke-linejoin="round"/>
<path d="M25.7395 86.5316C25.7395 86.5316 26.0248 83.9786 28.0144 84.3565" stroke="#263238" stroke-width="0.54276" stroke-linecap="round" stroke-linejoin="round"/>
<path d="M35.4929 86.3422C35.4929 86.3422 37.9532 83.2187 41.5545 83.4077C45.1559 83.5966 45.8333 86.4385 45.8333 86.4385H34.3555L35.4929 86.3422Z" fill="white" stroke="#263238" stroke-width="0.54276" stroke-linecap="round" stroke-linejoin="round"/>
<path d="M38.6152 86.7202C38.6152 86.7202 39.2749 83.4077 41.5462 83.4077" stroke="#263238" stroke-width="0.54276" stroke-linecap="round" stroke-linejoin="round"/>
<path d="M42.1172 86.5316C42.1172 86.5316 42.3989 83.9786 44.3885 84.3565" stroke="#263238" stroke-width="0.54276" stroke-linecap="round" stroke-linejoin="round"/>
<path d="M51.865 86.3422C51.865 86.3422 54.3253 83.2187 57.9266 83.4077C61.5279 83.5966 62.184 86.4385 62.184 86.4385H50.7275L51.865 86.3422Z" fill="white" stroke="#263238" stroke-width="0.54276" stroke-linecap="round" stroke-linejoin="round"/>
<path d="M54.989 86.7202C54.989 86.7202 55.6522 83.4077 57.9236 83.4077" stroke="#263238" stroke-width="0.54276" stroke-linecap="round" stroke-linejoin="round"/>
<path d="M58.4912 86.5316C58.4912 86.5316 58.7765 83.9786 60.7625 84.3565" stroke="#263238" stroke-width="0.54276" stroke-linecap="round" stroke-linejoin="round"/>
<path d="M64.5524 86.4424H17.1719V88.0576H64.5524V86.4424Z" fill="white" stroke="#263238" stroke-width="0.54276" stroke-linecap="round" stroke-linejoin="round"/>
<path d="M64.5524 64.8022H17.1719V66.4104H64.5524V64.8022Z" fill="white" stroke="#263238" stroke-width="0.54276" stroke-linecap="round" stroke-linejoin="round"/>
<path d="M64.5524 95.5312H17.1719V100.224H64.5524V95.5312Z" fill="white" stroke="#263238" stroke-width="0.54276" stroke-linecap="round" stroke-linejoin="round"/>
<path d="M26.2136 70.2505H19.7776V75.9306H26.2136V70.2505Z" fill="white" stroke="#263238" stroke-width="0.54276" stroke-linecap="round" stroke-linejoin="round"/>
<path d="M26.2136 70.2505H19.7776V71.0849H26.2136V70.2505Z" fill="white" stroke="#263238" stroke-width="0.54276" stroke-linecap="round" stroke-linejoin="round"/>
<path d="M51.7698 70.2505H31.9875V75.9306H51.7698V70.2505Z" fill="white" stroke="#263238" stroke-width="0.54276" stroke-linecap="round" stroke-linejoin="round"/>
<path d="M51.7698 70.2505H31.9875V71.0849H51.7698V70.2505Z" fill="white" stroke="#263238" stroke-width="0.54276" stroke-linecap="round" stroke-linejoin="round"/>
<path d="M46.5626 70.2505H41.1677V75.9306H46.5626V70.2505Z" fill="white" stroke="#263238" stroke-width="0.54276" stroke-linecap="round" stroke-linejoin="round"/>
<path d="M46.5626 70.2505H41.1677V71.0849H46.5626V70.2505Z" fill="white" stroke="#263238" stroke-width="0.54276" stroke-linecap="round" stroke-linejoin="round"/>
<path d="M105.06 125.18L110.13 159.378L109.478 160.359V162.077C109.478 162.077 106.269 164.93 106.204 165.286C106.16 165.584 106.16 165.887 106.204 166.185H115.614C115.614 166.185 115.614 164.876 115.532 164.138C115.45 163.4 115.204 163.568 115.286 162.666C115.368 161.764 115.778 160.213 115.696 159.396C115.614 158.579 115.122 158.576 115.04 157.185C114.958 155.795 113.97 124.952 113.97 124.952L105.06 125.18Z" fill="#263238" stroke="#263238" stroke-width="0.54276" stroke-linecap="round" stroke-linejoin="round"/>
<path d="M124.713 125.18L119.64 159.378L120.296 160.359V162.077C120.296 162.077 123.483 164.93 123.565 165.286C123.61 165.584 123.61 165.887 123.565 166.185H114.159C114.159 166.185 114.159 164.876 114.241 164.138C114.323 163.4 114.566 163.568 114.487 162.666C114.409 161.764 113.995 160.213 114.077 159.396C114.159 158.579 114.648 158.576 114.73 157.185C114.812 155.795 115.799 124.952 115.799 124.952L124.713 125.18Z" fill="#263238" stroke="#263238" stroke-width="0.54276" stroke-linecap="round" stroke-linejoin="round"/>
<path d="M129.566 90.7568L130.689 99.4464C130.689 99.4464 129.501 100.445 128.378 99.8849C127.255 99.3251 125.44 97.2606 125.315 96.9468C125.191 96.633 124.752 91.2453 124.752 91.2453L129.566 90.7568Z" fill="#B5B5B5" stroke="#263238" stroke-width="0.54276" stroke-linecap="round" stroke-linejoin="round"/>
<path d="M129.566 90.7568L124.752 91.256C124.752 91.256 124.823 92.1082 124.916 93.153H129.876L129.566 90.7568Z" fill="#263238" stroke="#263238" stroke-width="0.54276" stroke-linecap="round" stroke-linejoin="round"/>
<path d="M99.949 90.6323L99.2002 99.0651C99.2002 99.0651 98.9506 101.875 98.9506 103.187C98.9506 104.499 98.9791 115.959 98.9791 115.959C98.9791 115.959 98.5405 119.083 98.8543 119.525C99.1681 119.967 100.477 121.711 100.477 121.711C100.477 121.711 101.789 122.085 101.978 122.149C102.167 122.213 102.727 121.4 102.413 121.272C102.107 121.168 101.795 121.085 101.479 121.022L100.477 118.962L101.229 116.961C101.229 116.961 101.789 119.525 101.789 119.774C101.789 120.024 102.103 120.587 102.288 119.835C102.473 119.083 102.227 118.462 102.413 117.525C102.598 116.587 102.227 115.849 101.849 115.136C101.472 114.422 101.286 114.137 101.286 114.137C101.286 114.137 103.572 101.301 103.757 100.741C103.943 100.181 104.702 90.6929 104.702 90.6929L99.949 90.6323Z" fill="#B5B5B5" stroke="#263238" stroke-width="0.54276" stroke-linecap="round" stroke-linejoin="round"/>
<path d="M99.7297 93.1533H104.501C104.618 91.727 104.7 90.6929 104.7 90.6929L99.9508 90.6323L99.7297 93.1533Z" fill="#263238" stroke="#263238" stroke-width="0.54276" stroke-linecap="round" stroke-linejoin="round"/>
<path d="M124.646 91.6342L132.255 91.1422C132.255 91.1422 129.145 79.5252 129.145 79.2008C129.145 78.8763 119.818 71.7556 119.818 71.7556L119.244 71.6736L114.744 72.3475L110.244 71.6665L109.673 71.7485C109.673 71.7485 100.346 78.8798 100.346 79.1936C100.346 79.5074 97.2363 91.135 97.2363 91.135L104.845 91.6271L104.193 100.541C104.193 100.541 103.209 106.514 103.537 110.197C103.865 113.88 103.433 126.478 103.433 126.478H126.054C126.054 126.478 125.954 113.549 125.954 110.197C125.954 106.499 125.134 100.541 125.134 100.541L124.646 91.6342Z" fill="white" stroke="#263238" stroke-width="0.54276" stroke-linecap="round" stroke-linejoin="round"/>
<path d="M122.271 73.7168L121.932 73.3602L121.248 72.8325L122.927 81.3901H106.728L108.119 73.1285L107.22 73.781C107.22 73.781 105.256 80.9123 105.174 81.8002C105.092 82.688 104.846 91.6164 104.846 91.6164L104.193 100.531C104.193 100.531 103.209 106.503 103.537 110.186C103.865 113.87 103.434 126.467 103.434 126.467H126.054C126.054 126.467 125.954 113.538 125.954 110.186C125.954 106.489 125.134 100.531 125.134 100.531L124.646 91.6164L124.974 82.4527L122.271 73.7168Z" fill="#FD7E50" stroke="#263238" stroke-width="0.54276" stroke-linecap="round" stroke-linejoin="round"/>
<path d="M110.304 68.4253C109.8 68.8957 109.439 69.4988 109.263 70.1654C108.906 71.3492 107.733 78.0098 108.218 77.9563C108.703 77.9029 112.044 75.6601 112.394 75.4604C112.743 75.2607 114.965 77.1291 114.965 77.1291C114.965 77.1291 116.915 75.3213 117.4 75.1823C117.885 75.0432 121.504 77.6782 121.575 77.0614C121.647 76.4445 119.489 69.8266 118.651 68.8603C117.813 67.894 115.731 67.8156 115.731 67.8156C115.731 67.8156 112.672 66.8243 110.304 68.4253Z" fill="white" stroke="#263238" stroke-width="0.54276" stroke-linecap="round" stroke-linejoin="round"/>
<path d="M109.747 66.3356C109.747 66.3356 110.581 71.5521 110.721 72.1797C110.86 72.8072 114.686 77.1894 114.964 77.1181C115.242 77.0468 117.677 71.4844 117.748 71.1349C117.82 70.7855 118.166 66.2856 118.166 66.2856L109.747 66.3356Z" fill="#FFBE9D" stroke="#263238" stroke-width="0.54276" stroke-linecap="round" stroke-linejoin="round"/>
<path d="M115.498 66.2856L109.747 66.332C109.747 66.332 110.357 70.1259 110.621 71.6306L114.418 70.2043L115.498 66.2856Z" fill="#263238" stroke="#263238" stroke-width="0.54276" stroke-linecap="round" stroke-linejoin="round"/>
<path d="M108.217 60.7021C108.217 60.7021 106.688 59.9355 106.688 61.7469C106.704 62.335 106.857 62.9112 107.135 63.4298C107.413 63.9485 107.808 64.3953 108.288 64.7349C108.495 64.8775 108.217 60.7021 108.217 60.7021Z" fill="#FFBE9D" stroke="#263238" stroke-width="0.54276" stroke-linecap="round" stroke-linejoin="round"/>
<path d="M118.609 60.7021C118.609 60.7021 120.139 59.9355 120.139 61.7469C120.122 62.3345 119.968 62.9102 119.691 63.4287C119.414 63.9472 119.02 64.3943 118.541 64.7349C118.313 64.8775 118.609 60.7021 118.609 60.7021Z" fill="#FFBE9D" stroke="#263238" stroke-width="0.54276" stroke-linecap="round" stroke-linejoin="round"/>
<path d="M110.166 52.0766C110.166 52.0766 106.957 54.3016 107.106 55.9703C107.256 57.639 108.29 65.4336 108.707 66.0576C109.125 66.6816 112.394 70.5788 112.811 70.6501C113.229 70.7215 115.536 70.8142 115.664 70.536C115.792 70.2579 118.784 66.5461 118.923 65.6404C119.062 64.7347 119.201 55.7635 118.923 54.8578C118.645 53.9521 116.081 49.5699 110.166 52.0766Z" fill="#FFBE9D" stroke="#263238" stroke-width="0.54276" stroke-linecap="round" stroke-linejoin="round"/>
<path d="M110.166 52.0767C110.166 52.0767 106.957 54.3017 107.106 55.9704C107.188 56.9367 107.57 59.9497 107.959 62.4421C108.215 62.0213 108.95 60.7199 108.775 59.7964C108.632 58.6431 108.563 57.4819 108.568 56.3198C109.942 56.7751 111.368 57.0554 112.811 57.1542C115.108 57.2933 117.957 56.1808 117.957 56.1808C117.957 56.1808 117.818 59.5895 118.096 60.0067C118.303 60.3169 118.809 61.3973 119.069 61.9286C119.116 59.0226 119.105 55.4142 118.934 54.8579C118.652 53.9558 116.081 49.57 110.166 52.0767Z" fill="#263238" stroke="#263238" stroke-width="0.54276" stroke-linecap="round" stroke-linejoin="round"/>
<path d="M112.671 66.1288C112.671 66.1288 113.851 66.546 114.408 66.407C114.78 66.3025 115.133 66.1375 115.452 65.9185" stroke="#263238" stroke-width="0.54276" stroke-linecap="round" stroke-linejoin="round"/>
<path d="M112.044 66.9633C112.608 67.378 113.291 67.5971 113.991 67.5873C114.796 67.4745 115.574 67.2159 116.287 66.8242" stroke="#263238" stroke-width="0.54276" stroke-linecap="round" stroke-linejoin="round"/>
<path d="M110.305 62.998C110.652 63.1971 111.044 63.3074 111.444 63.3192C111.845 63.331 112.242 63.244 112.601 63.0658" stroke="#263238" stroke-width="0.54276" stroke-linecap="round" stroke-linejoin="round"/>
<path d="M115.453 63.0768C115.453 63.0768 116.776 63.3549 117.539 62.7202" stroke="#263238" stroke-width="0.54276" stroke-linecap="round" stroke-linejoin="round"/>
<path d="M112.672 61.8858C112.672 61.8858 111.278 61.3974 110.305 61.9536" stroke="#263238" stroke-width="0.54276" stroke-linecap="round" stroke-linejoin="round"/>
<path d="M115.399 62.025C115.399 62.025 116.651 61.2584 117.539 61.9537" stroke="#263238" stroke-width="0.54276" stroke-linecap="round" stroke-linejoin="round"/>
<path d="M126.19 95.6274C126.19 95.6274 128.754 96.6294 129.877 97.6278C131.001 98.6262 130.754 100.626 130.234 101.55C129.713 102.474 127.674 102.923 126.986 102.737C126.297 102.552 125.624 101.275 125.117 100.537C124.611 99.7993 123.113 96.4261 123.113 96.4261L126.19 95.6274Z" fill="#B5B5B5" stroke="#263238" stroke-width="0.54276" stroke-linecap="round" stroke-linejoin="round"/>
<path d="M122.505 94.4546C122.087 94.6401 121.646 94.7673 121.193 94.8325C120.569 94.8932 119.318 94.394 119.257 95.018C119.197 95.642 120.067 96.1411 120.63 96.2695C121.17 96.3364 121.716 96.3364 122.256 96.2695C122.984 96.982 123.756 97.6489 124.566 98.2663C125.255 98.7049 127.127 98.2057 127.062 97.3285C126.998 96.4514 125.561 95.2069 124.812 94.8325C124.064 94.4582 122.505 94.4546 122.505 94.4546Z" fill="#B5B5B5" stroke="#263238" stroke-width="0.54276" stroke-linecap="round" stroke-linejoin="round"/>
<path d="M122.816 93.0033C122.816 93.0033 121.943 95.8772 122.256 96.2552C122.57 96.6331 122.88 96.6296 123.13 96.4406C123.38 96.2516 124.253 94.4403 124.442 93.7556C124.631 93.071 123.569 91.8801 122.816 93.0033Z" fill="#B5B5B5" stroke="#263238" stroke-width="0.54276" stroke-linecap="round" stroke-linejoin="round"/>
<path d="M124.442 93.7412C124.442 93.7412 125.629 93.9908 125.69 94.5506C125.751 95.1104 124.692 96.7399 124.068 97.1143C123.444 97.4887 123.13 96.4262 123.13 96.4262L124.442 93.7412Z" fill="#B5B5B5" stroke="#263238" stroke-width="0.54276" stroke-linecap="round" stroke-linejoin="round"/>
<path d="M125.69 94.5649C125.69 94.5649 126.692 95.1283 126.692 95.6917C126.692 96.2551 125.69 97.2535 125.13 97.5637C124.57 97.8739 124.061 97.1287 124.061 97.1287L125.69 94.5649Z" fill="#B5B5B5" stroke="#263238" stroke-width="0.54276" stroke-linecap="round" stroke-linejoin="round"/>
<path d="M126.693 95.6919C126.693 95.6919 127.317 97.0647 127.067 97.3143C126.818 97.5639 125.441 98.441 125.131 98.3162C124.821 98.1914 125.131 97.5639 125.131 97.5639C125.131 97.5639 126.454 96.2553 126.693 95.6919Z" fill="#B5B5B5" stroke="#263238" stroke-width="0.54276" stroke-linecap="round" stroke-linejoin="round"/>
<path d="M76.1151 98.1066H76.0799C75.5084 98.0556 74.9531 97.8899 74.4471 97.6196C73.941 97.3493 73.4945 96.9799 73.1344 96.5333C72.9251 96.2539 72.7763 95.9339 72.6976 95.5938C72.6188 95.2537 72.6118 94.9009 72.6769 94.5579C72.7038 94.2985 72.7945 94.0498 72.941 93.834C73.0875 93.6182 73.2852 93.4421 73.5164 93.3214C73.8147 93.2207 74.1314 93.1856 74.4445 93.2186C74.7577 93.2515 75.0601 93.3517 75.3309 93.5124C75.4383 93.5724 75.5173 93.6725 75.5508 93.7908C75.5843 93.9091 75.5694 94.0359 75.5094 94.1432C75.4494 94.2505 75.3492 94.3296 75.2309 94.3631C75.1126 94.3965 74.9859 94.3816 74.8786 94.3216C74.5867 94.1485 74.2399 94.0928 73.9084 94.1658C73.8115 94.2265 73.7302 94.3091 73.6708 94.4068C73.6115 94.5046 73.5758 94.6148 73.5666 94.7288C73.5237 94.947 73.5274 95.1717 73.5777 95.3884C73.6279 95.605 73.7235 95.8085 73.8582 95.9854C74.4421 96.6729 75.2722 97.1041 76.1704 97.1868C76.293 97.1941 76.4077 97.2498 76.4893 97.3417C76.5708 97.4337 76.6125 97.5542 76.6052 97.6768C76.5978 97.7995 76.5421 97.9142 76.4502 97.9957C76.3583 98.0773 76.2377 98.119 76.1151 98.1116V98.1066Z" fill="#FD7E50" stroke="#263238" stroke-width="0.765126" stroke-linecap="round" stroke-linejoin="round"/>
<path d="M78.0886 99.0411C77.3962 99.0409 76.7286 98.7837 76.2151 98.3194C75.7016 97.8551 75.3786 97.2167 75.3089 96.5279L74.9219 92.7178H81.2402L80.8632 96.5228C80.7936 97.2113 80.4716 97.8495 79.9593 98.3146C79.4469 98.7796 78.7805 99.0384 78.0886 99.0411Z" fill="#FD7E50" stroke="#263238" stroke-width="0.765126" stroke-linecap="round" stroke-linejoin="round"/>
<path d="M85 98.9912H71.5742L72.6951 99.9211H83.8841L85 98.9912Z" fill="#2F945A" stroke="#263238" stroke-width="0.765126" stroke-linecap="round" stroke-linejoin="round"/>
<path d="M76.4307 91.8885C76.4307 91.8885 76.7624 90.3806 77.627 89.702C78.4915 89.0234 79.6376 88.6364 79.6376 87.7769" fill="#2F945A"/>
<path d="M76.4307 91.8885C76.4307 91.8885 76.7624 90.3806 77.627 89.702C78.4915 89.0234 79.6376 88.6364 79.6376 87.7769" stroke="#263238" stroke-width="0.765126" stroke-linecap="round" stroke-linejoin="round"/>
<path d="M78.8179 91.8888C78.8179 91.8888 78.5515 91.0293 79.8232 90.4312L78.8179 91.8888Z" fill="#2F945A"/>
<path d="M78.8179 91.8888C78.8179 91.8888 78.5515 91.0293 79.8232 90.4312" stroke="#263238" stroke-width="0.765126" stroke-linecap="round" stroke-linejoin="round"/>
<path d="M150.339 131.809C150.97 132.083 152.521 132.047 152.521 132.047C152.521 132.047 152.19 131.035 152.165 130.978C151.826 130.265 150.738 129.091 149.876 129.195C149.731 129.219 149.593 129.273 149.47 129.353C149.348 129.434 149.244 129.539 149.165 129.662C149.086 129.786 149.034 129.925 149.012 130.069C148.99 130.214 148.999 130.362 149.038 130.503C149.18 131.12 149.801 131.57 150.339 131.809Z" fill="#263238"/>
<path d="M150.877 136.294C151.533 136.39 152.917 135.991 153.016 135.959C153.245 136.749 153.526 137.524 153.858 138.277C154.047 138.719 154.254 139.157 154.464 139.592C154.336 139.407 154.222 139.236 154.204 139.236C153.69 138.64 152.342 137.792 151.53 138.138C151.396 138.199 151.277 138.287 151.18 138.397C151.084 138.507 151.011 138.636 150.967 138.776C150.923 138.916 150.91 139.063 150.927 139.209C150.944 139.354 150.991 139.495 151.066 139.621C151.365 140.166 152.086 140.437 152.667 140.523C153.248 140.609 154.45 140.291 154.756 140.202C154.842 140.366 154.92 140.534 155.006 140.701C155.405 141.5 155.808 142.291 156.179 143.083C156.311 143.361 156.429 143.639 156.536 143.921L156.311 143.6C155.794 143.005 154.446 142.156 153.637 142.498C153.503 142.559 153.384 142.648 153.286 142.758C153.189 142.868 153.116 142.998 153.073 143.138C153.029 143.278 153.015 143.426 153.033 143.572C153.05 143.718 153.098 143.859 153.173 143.985C153.473 144.531 154.189 144.798 154.774 144.884C155.359 144.969 156.436 144.684 156.807 144.581C156.921 144.869 157.035 145.158 157.135 145.444C157.195 145.64 157.27 145.825 157.32 146.025C157.37 146.224 157.431 146.421 157.484 146.613C157.573 146.991 157.67 147.38 157.748 147.751C157.805 148.007 157.855 148.253 157.905 148.499C157.78 148.221 157.52 147.679 157.491 147.636C157.074 146.97 155.869 145.928 155.013 146.146C154.872 146.186 154.741 146.256 154.629 146.35C154.516 146.444 154.425 146.561 154.361 146.693C154.297 146.825 154.261 146.969 154.256 147.115C154.251 147.262 154.277 147.408 154.332 147.544C154.546 148.128 155.216 148.503 155.78 148.674C156.343 148.845 157.769 148.692 157.941 148.674C158.023 149.084 158.101 149.483 158.165 149.861C158.315 150.696 158.426 151.445 158.522 152.076H159.11C159.007 151.423 158.875 150.649 158.7 149.765C158.618 149.348 158.525 148.906 158.422 148.449C158.835 148.285 159.237 148.096 159.627 147.882C160.161 148.337 160.755 148.716 161.392 149.009C161.235 149.398 161.078 149.772 160.921 150.125C160.604 150.86 160.297 151.516 160.03 152.069H160.658C160.886 151.559 161.139 150.974 161.406 150.329C161.567 149.936 161.731 149.512 161.898 149.077C162.062 149.113 163.421 149.387 164.056 149.245C164.63 149.113 165.325 148.788 165.582 148.221C165.647 148.09 165.683 147.946 165.689 147.799C165.695 147.653 165.67 147.506 165.615 147.37C165.561 147.234 165.478 147.111 165.373 147.009C165.268 146.906 165.142 146.828 165.004 146.777C164.17 146.495 162.89 147.447 162.423 148.082C162.394 148.118 162.141 148.556 161.984 148.838C162.052 148.66 162.12 148.481 162.184 148.303C162.319 147.947 162.44 147.572 162.572 147.176C162.633 146.984 162.69 146.788 162.751 146.592C162.811 146.396 162.854 146.185 162.908 145.982C163.022 145.504 163.111 145.012 163.193 144.516C163.514 144.634 164.651 145.03 165.243 144.987C165.835 144.944 166.566 144.73 166.905 144.21C166.989 144.089 167.047 143.953 167.074 143.808C167.102 143.664 167.099 143.515 167.065 143.372C167.031 143.229 166.968 143.095 166.879 142.978C166.79 142.861 166.677 142.765 166.548 142.694C165.764 142.292 164.355 143.051 163.799 143.593C163.763 143.629 163.407 144.071 163.218 144.306C163.264 144.007 163.31 143.711 163.35 143.408C163.457 142.53 163.539 141.643 163.628 140.755C163.653 140.484 163.681 140.213 163.71 139.942C163.824 139.985 165.168 140.484 165.828 140.437C166.416 140.398 167.151 140.181 167.493 139.66C167.577 139.54 167.635 139.403 167.662 139.258C167.69 139.114 167.687 138.966 167.653 138.823C167.62 138.68 167.556 138.545 167.467 138.429C167.378 138.312 167.265 138.215 167.136 138.145C166.352 137.738 164.947 138.501 164.387 139.043C164.345 139.082 163.835 139.724 163.713 139.892C163.774 139.296 163.845 138.701 163.934 138.109C164.054 137.321 164.224 136.543 164.444 135.777C164.498 135.798 165.896 136.326 166.584 136.28C167.172 136.237 167.907 136.023 168.249 135.499C168.333 135.378 168.391 135.242 168.418 135.097C168.446 134.953 168.443 134.805 168.409 134.662C168.376 134.519 168.312 134.384 168.223 134.267C168.134 134.151 168.021 134.054 167.892 133.983C167.108 133.581 165.703 134.34 165.143 134.882C165.1 134.925 164.551 135.613 164.459 135.745C164.459 135.702 164.48 135.656 164.494 135.609C164.737 134.849 165.046 134.112 165.418 133.406C165.617 133.014 165.831 132.646 166.049 132.297C166.298 132.422 167.45 132.982 168.063 133.01C168.677 133.039 169.408 132.9 169.804 132.418C169.901 132.308 169.974 132.179 170.018 132.039C170.062 131.899 170.076 131.751 170.059 131.605C170.042 131.46 169.994 131.319 169.918 131.193C169.843 131.067 169.742 130.958 169.622 130.874C168.887 130.386 167.407 130.974 166.791 131.466C166.755 131.491 166.434 131.801 166.224 132.03C166.323 131.873 166.423 131.709 166.523 131.562C166.88 131.006 167.265 130.518 167.593 130.09C167.785 129.851 167.949 129.633 168.131 129.434C168.441 129.434 169.689 129.391 170.235 129.134C170.781 128.877 171.38 128.421 171.508 127.808C171.539 127.667 171.54 127.522 171.513 127.381C171.485 127.24 171.429 127.106 171.347 126.988C171.266 126.869 171.161 126.769 171.039 126.693C170.916 126.617 170.78 126.567 170.638 126.546C169.761 126.453 168.716 127.654 168.395 128.375C168.37 128.439 168.039 129.462 168.063 129.462H168.081C167.914 129.648 167.725 129.854 167.554 130.079C167.197 130.503 166.84 130.981 166.441 131.53C166.023 132.121 165.639 132.734 165.289 133.367C164.897 134.074 164.569 134.815 164.309 135.581V135.606C164.309 135.349 164.309 134.625 164.309 134.568C164.209 133.787 163.553 132.336 162.686 132.176C162.541 132.153 162.393 132.161 162.252 132.2C162.11 132.238 161.978 132.306 161.864 132.399C161.75 132.492 161.658 132.607 161.592 132.738C161.526 132.87 161.488 133.013 161.481 133.16C161.431 133.78 161.881 134.401 162.319 134.793C162.815 135.235 164.188 135.663 164.298 135.699C164.051 136.483 163.857 137.284 163.717 138.095C163.635 138.569 163.564 139.047 163.499 139.521C163.499 139.296 163.499 139.097 163.499 139.068C163.396 138.287 162.744 136.836 161.873 136.676C161.729 136.653 161.581 136.662 161.439 136.701C161.298 136.739 161.166 136.807 161.052 136.9C160.939 136.993 160.846 137.108 160.78 137.239C160.714 137.37 160.676 137.513 160.668 137.66C160.618 138.28 161.068 138.901 161.506 139.293C161.945 139.685 163.118 140.081 163.428 140.177C163.403 140.362 163.378 140.534 163.357 140.733C163.253 141.618 163.15 142.516 163.025 143.368C162.979 143.671 162.925 143.971 162.872 144.267C162.872 144.071 162.872 143.91 162.872 143.878C162.768 143.094 162.112 141.646 161.246 141.486C161.101 141.463 160.953 141.471 160.812 141.509C160.67 141.547 160.539 141.615 160.425 141.707C160.311 141.8 160.218 141.915 160.152 142.046C160.086 142.177 160.048 142.32 160.041 142.466C159.991 143.087 160.44 143.711 160.879 144.103C161.317 144.495 162.376 144.848 162.744 144.969C162.679 145.272 162.615 145.579 162.54 145.871C162.483 146.068 162.44 146.264 162.373 146.46C162.305 146.656 162.248 146.848 162.187 147.037C162.055 147.394 161.92 147.779 161.781 148.132C161.688 148.378 161.592 148.61 161.499 148.845C161.545 148.542 161.627 147.947 161.627 147.897C161.604 147.197 161.4 146.515 161.036 145.918C161.041 145.841 161.041 145.763 161.036 145.686C161.017 145.54 160.968 145.4 160.892 145.275C160.816 145.149 160.714 145.042 160.593 144.958C160.472 144.875 160.335 144.818 160.191 144.791C160.047 144.764 159.898 144.767 159.755 144.802C158.903 145.026 158.361 146.524 158.329 147.298C158.329 147.344 158.358 147.85 158.383 148.171C158.34 147.986 158.301 147.815 158.254 147.615C158.162 147.237 158.062 146.863 157.955 146.46C157.898 146.267 157.841 146.071 157.78 145.875C157.72 145.679 157.641 145.479 157.573 145.28C157.406 144.82 157.217 144.36 157.006 143.9C157.338 143.821 158.504 143.522 158.975 143.162C159.445 142.801 159.937 142.217 159.934 141.596C159.937 141.45 159.91 141.304 159.853 141.168C159.797 141.033 159.713 140.911 159.606 140.81C159.5 140.709 159.373 140.632 159.235 140.583C159.097 140.534 158.95 140.515 158.803 140.526C157.926 140.619 157.163 142.021 157.021 142.791C157.021 142.841 156.956 143.408 156.935 143.718C156.81 143.443 156.685 143.169 156.55 142.894C156.158 142.106 155.737 141.318 155.32 140.53L154.942 139.817C155.06 139.788 156.457 139.46 156.981 139.061C157.449 138.704 157.944 138.116 157.941 137.496C157.945 137.349 157.918 137.203 157.861 137.067C157.805 136.932 157.721 136.809 157.614 136.708C157.508 136.607 157.381 136.53 157.242 136.481C157.104 136.433 156.957 136.414 156.81 136.426C155.933 136.522 155.17 137.92 155.027 138.69C155.027 138.747 154.942 139.564 154.931 139.76C154.657 139.225 154.386 138.69 154.14 138.159C153.805 137.437 153.518 136.693 153.28 135.934C153.334 135.934 154.792 135.577 155.331 135.174C155.798 134.818 156.293 134.23 156.29 133.606C156.294 133.459 156.268 133.312 156.212 133.176C156.156 133.04 156.071 132.918 155.965 132.817C155.858 132.716 155.731 132.639 155.592 132.59C155.453 132.542 155.306 132.523 155.159 132.536C154.282 132.629 153.523 134.026 153.377 134.8C153.377 134.861 153.284 135.738 153.284 135.898C153.284 135.855 153.248 135.809 153.237 135.766C153.019 134.998 152.87 134.212 152.792 133.417C152.742 132.978 152.717 132.557 152.706 132.144C152.984 132.112 154.254 131.94 154.778 131.623C155.302 131.306 155.848 130.792 155.905 130.172C155.925 130.026 155.914 129.878 155.873 129.737C155.832 129.596 155.762 129.466 155.667 129.354C155.572 129.242 155.455 129.151 155.322 129.087C155.19 129.024 155.046 128.989 154.899 128.984C154.015 128.984 153.116 130.289 152.863 131.038C152.863 131.077 152.76 131.509 152.703 131.823C152.703 131.637 152.703 131.445 152.703 131.266C152.703 130.6 152.745 129.99 152.788 129.448C152.813 129.141 152.845 128.863 152.874 128.603C153.13 128.428 154.15 127.708 154.464 127.177C154.778 126.645 155.024 125.95 154.792 125.369C154.743 125.232 154.666 125.107 154.565 125.002C154.465 124.897 154.344 124.814 154.21 124.758C154.075 124.702 153.931 124.675 153.786 124.678C153.64 124.682 153.497 124.715 153.366 124.777C152.581 125.183 152.375 126.763 152.507 127.54C152.507 127.608 152.813 128.639 152.827 128.628C152.792 128.877 152.76 129.145 152.728 129.437C152.674 129.979 152.617 130.593 152.603 131.263C152.578 131.985 152.594 132.707 152.653 133.427C152.718 134.234 152.853 135.033 153.056 135.816C153.057 135.825 153.057 135.833 153.056 135.841C152.917 135.624 152.51 135.028 152.471 134.985C151.957 134.39 150.61 133.541 149.797 133.884C149.663 133.945 149.544 134.034 149.447 134.144C149.35 134.254 149.278 134.384 149.234 134.524C149.19 134.664 149.177 134.812 149.194 134.958C149.211 135.104 149.258 135.244 149.333 135.371C149.576 135.941 150.292 136.208 150.877 136.294Z" fill="#263238"/>
<path d="M166.027 132.147C166.027 132.147 166.309 131.117 166.32 131.049C166.427 130.272 166.177 128.699 165.382 128.314C165.248 128.252 165.103 128.22 164.955 128.219C164.808 128.218 164.662 128.248 164.528 128.307C164.393 128.366 164.272 128.453 164.173 128.563C164.075 128.672 164.001 128.801 163.956 128.942C163.742 129.53 164.013 130.247 164.312 130.724C164.701 131.32 166.027 132.147 166.027 132.147Z" fill="#263238"/>
<path d="M164.294 150.959H154.781L155.733 166.167H163.342L164.294 150.959Z" fill="#263238"/>
<path d="M152.796 85.897H132.6V99.9671H152.796V85.897Z" fill="white" stroke="#263238" stroke-width="0.54276" stroke-linecap="round" stroke-linejoin="round"/>
<path d="M151.768 87.7832H133.619V99.9671H151.768V87.7832Z" fill="white" stroke="#263238" stroke-width="0.54276" stroke-linecap="round" stroke-linejoin="round"/>
<path d="M145.645 93.8735H139.744V99.9637H145.645V93.8735Z" fill="white" stroke="#263238" stroke-width="0.54276" stroke-linecap="round" stroke-linejoin="round"/>
<path d="M133.619 87.7832L132.6 85.897H152.792L151.769 87.7832H133.619Z" fill="white" stroke="#263238" stroke-width="0.54276" stroke-linecap="round" stroke-linejoin="round"/>
<path d="M174.724 99.9741H24.6201V166.167H174.724V99.9741Z" fill="white" stroke="#263238" stroke-width="0.54276" stroke-linecap="round" stroke-linejoin="round"/>
<path d="M174.724 99.9741H24.6201V105.241H174.724V99.9741Z" fill="#263238" stroke="#263238" stroke-width="0.54276" stroke-linecap="round" stroke-linejoin="round"/>
<path d="M174.724 99.9741H24.6201V103.34H174.724V99.9741Z" fill="white" stroke="#263238" stroke-width="0.54276" stroke-linecap="round" stroke-linejoin="round"/>
<path d="M4.52654 131.809C5.15766 132.083 6.70872 132.047 6.70872 132.047C6.70872 132.047 6.37712 131.035 6.35216 130.978C6.01342 130.265 4.92589 129.091 4.063 129.195C3.91839 129.219 3.78039 129.273 3.65797 129.353C3.53555 129.434 3.43144 129.539 3.35242 129.662C3.27339 129.786 3.22121 129.925 3.19927 130.069C3.17733 130.214 3.18612 130.362 3.22507 130.503C3.3677 131.12 3.98812 131.57 4.52654 131.809Z" fill="#263238"/>
<path d="M5.0645 136.294C5.72058 136.39 7.10405 135.991 7.20389 135.959C7.43252 136.749 7.71365 137.524 8.04539 138.277C8.23437 138.719 8.44118 139.157 8.65155 139.592C8.52319 139.407 8.40909 139.236 8.39126 139.236C7.8778 138.64 6.52998 137.792 5.71701 138.138C5.58374 138.199 5.46479 138.287 5.3679 138.397C5.27101 138.507 5.19835 138.636 5.15463 138.776C5.11091 138.916 5.09712 139.063 5.11415 139.209C5.13118 139.354 5.17865 139.495 5.25348 139.621C5.55299 140.166 6.27326 140.437 6.85446 140.523C7.43566 140.609 8.63729 140.291 8.94394 140.202C9.02951 140.366 9.10796 140.534 9.19353 140.701C9.59289 141.5 9.99581 142.291 10.3666 143.083C10.4986 143.361 10.6162 143.639 10.7232 143.921L10.4986 143.6C9.98154 143.005 8.63372 142.156 7.82432 142.498C7.69055 142.559 7.57114 142.648 7.47391 142.758C7.37668 142.868 7.30381 142.998 7.26006 143.138C7.21631 143.278 7.20266 143.426 7.22002 143.572C7.23738 143.718 7.28534 143.859 7.36078 143.985C7.6603 144.531 8.377 144.798 8.96177 144.884C9.54653 144.969 10.6234 144.684 10.9942 144.581C11.1083 144.869 11.2224 145.158 11.3222 145.444C11.3828 145.64 11.4577 145.825 11.5076 146.025C11.5576 146.224 11.6182 146.421 11.6717 146.613C11.7608 146.991 11.8571 147.38 11.9355 147.751C11.9926 148.007 12.0425 148.253 12.0924 148.499C11.9676 148.221 11.7073 147.679 11.6788 147.636C11.2616 146.97 10.0564 145.928 9.20066 146.146C9.05964 146.186 8.92867 146.256 8.81628 146.35C8.7039 146.444 8.61262 146.561 8.54837 146.693C8.48413 146.825 8.44837 146.969 8.44342 147.115C8.43846 147.262 8.46443 147.408 8.51962 147.544C8.73356 148.128 9.40391 148.503 9.96728 148.674C10.5307 148.845 11.9569 148.692 12.1281 148.674C12.2101 149.084 12.2885 149.483 12.3527 149.861C12.5025 150.696 12.613 151.445 12.7093 152.076H13.2976C13.1942 151.423 13.0623 150.649 12.8876 149.765C12.8055 149.348 12.7128 148.906 12.6094 148.449C13.0222 148.285 13.4247 148.096 13.8146 147.882C14.3484 148.337 14.9424 148.716 15.5796 149.009C15.4227 149.398 15.2659 149.772 15.109 150.125C14.7916 150.86 14.485 151.516 14.2176 152.069H14.8451C15.0733 151.559 15.3265 150.974 15.5939 150.329C15.7544 149.936 15.9184 149.512 16.086 149.077C16.25 149.113 17.6085 149.387 18.2432 149.245C18.8173 149.113 19.5126 148.788 19.7693 148.221C19.8343 148.09 19.8709 147.946 19.8767 147.799C19.8824 147.653 19.8572 147.506 19.8027 147.37C19.7482 147.234 19.6657 147.111 19.5604 147.009C19.4551 146.906 19.3294 146.828 19.1917 146.777C18.3573 146.495 17.0772 147.447 16.6101 148.082C16.5816 148.118 16.3284 148.556 16.1715 148.838C16.2393 148.66 16.307 148.481 16.3712 148.303C16.5067 147.947 16.6279 147.572 16.7599 147.176C16.8205 146.984 16.8775 146.788 16.9382 146.592C16.9988 146.396 17.0416 146.185 17.095 145.982C17.2091 145.504 17.2983 145.012 17.3803 144.516C17.7012 144.634 18.8386 145.03 19.4305 144.987C20.0224 144.944 20.7534 144.73 21.0921 144.21C21.1763 144.089 21.234 143.953 21.2616 143.808C21.2893 143.664 21.2862 143.515 21.2525 143.372C21.2189 143.229 21.1554 143.095 21.0664 142.978C20.9773 142.861 20.8646 142.765 20.7356 142.694C19.9511 142.292 18.5427 143.051 17.9865 143.593C17.9508 143.629 17.5942 144.071 17.4053 144.306C17.4516 144.007 17.498 143.711 17.5372 143.408C17.6442 142.53 17.7262 141.643 17.8153 140.755C17.8403 140.484 17.8688 140.213 17.8973 139.942C18.0114 139.985 19.3557 140.484 20.0153 140.437C20.6037 140.398 21.3382 140.181 21.6805 139.66C21.7646 139.54 21.8223 139.403 21.85 139.258C21.8776 139.114 21.8745 138.966 21.8409 138.823C21.8072 138.68 21.7438 138.545 21.6547 138.429C21.5656 138.312 21.4529 138.215 21.3239 138.145C20.5395 137.738 19.1346 138.501 18.5748 139.043C18.532 139.082 18.0221 139.724 17.9009 139.892C17.9615 139.296 18.0328 138.701 18.122 138.109C18.2415 137.321 18.4119 136.543 18.6318 135.777C18.6853 135.798 20.0831 136.326 20.7712 136.28C21.3596 136.237 22.0941 136.023 22.4364 135.499C22.5205 135.378 22.5783 135.242 22.6059 135.097C22.6335 134.953 22.6304 134.805 22.5968 134.662C22.5631 134.519 22.4997 134.384 22.4106 134.267C22.3215 134.151 22.2088 134.054 22.0798 133.983C21.2954 133.581 19.8905 134.34 19.3307 134.882C19.2879 134.925 18.7388 135.613 18.6461 135.745C18.6461 135.702 18.6675 135.656 18.6818 135.609C18.9241 134.849 19.2331 134.112 19.6053 133.406C19.8049 133.014 20.0189 132.646 20.2364 132.297C20.486 132.422 21.6377 132.982 22.251 133.01C22.8643 133.039 23.5952 132.9 23.991 132.418C24.0885 132.308 24.1616 132.179 24.2055 132.039C24.2495 131.899 24.2634 131.751 24.2462 131.605C24.229 131.46 24.1812 131.319 24.1059 131.193C24.0306 131.067 23.9295 130.958 23.8092 130.874C23.0747 130.386 21.5949 130.974 20.978 131.466C20.9424 131.491 20.6215 131.801 20.4111 132.03C20.5109 131.873 20.6108 131.709 20.7106 131.562C21.0672 131.006 21.4523 130.518 21.7803 130.09C21.9729 129.851 22.1369 129.633 22.3187 129.434C22.629 129.434 23.8769 129.391 24.4225 129.134C24.968 128.877 25.5671 128.421 25.6954 127.808C25.7263 127.667 25.728 127.522 25.7004 127.381C25.6727 127.24 25.6163 127.106 25.5347 126.988C25.4531 126.869 25.3481 126.769 25.226 126.693C25.104 126.617 24.9676 126.567 24.8254 126.546C23.9482 126.453 22.9035 127.654 22.5826 128.375C22.5576 128.439 22.226 129.462 22.251 129.462H22.2688C22.1012 129.648 21.9123 129.854 21.7411 130.079C21.3845 130.503 21.028 130.981 20.6286 131.53C20.211 132.121 19.8265 132.734 19.4769 133.367C19.0844 134.074 18.7562 134.815 18.4963 135.581V135.606C18.4963 135.349 18.4963 134.625 18.4963 134.568C18.3965 133.787 17.7404 132.336 16.874 132.176C16.7289 132.153 16.5807 132.161 16.439 132.2C16.2973 132.238 16.1653 132.306 16.0516 132.399C15.9379 132.492 15.845 132.607 15.7791 132.738C15.7131 132.87 15.6755 133.013 15.6688 133.16C15.6189 133.78 16.0681 134.401 16.5067 134.793C17.0023 135.235 18.3751 135.663 18.4857 135.699C18.2385 136.483 18.0443 137.284 17.9044 138.095C17.8224 138.569 17.7511 139.047 17.6869 139.521C17.6869 139.296 17.6869 139.097 17.6869 139.068C17.5835 138.287 16.931 136.836 16.061 136.676C15.916 136.653 15.768 136.662 15.6266 136.701C15.4851 136.739 15.3534 136.807 15.2398 136.9C15.1262 136.993 15.0333 137.108 14.9672 137.239C14.901 137.37 14.8631 137.513 14.8558 137.66C14.8059 138.28 15.2552 138.901 15.6937 139.293C16.1323 139.685 17.3054 140.081 17.6156 140.177C17.5907 140.362 17.5657 140.534 17.5443 140.733C17.4409 141.618 17.3375 142.516 17.2127 143.368C17.1664 143.671 17.1129 143.971 17.0594 144.267C17.0594 144.071 17.0594 143.91 17.0594 143.878C16.956 143.094 16.2999 141.646 15.4334 141.486C15.2887 141.463 15.1408 141.471 14.9993 141.509C14.8579 141.547 14.726 141.615 14.6124 141.707C14.4987 141.8 14.4058 141.915 14.3396 142.046C14.2734 142.177 14.2355 142.32 14.2282 142.466C14.1783 143.087 14.6276 143.711 15.0662 144.103C15.5048 144.495 16.5638 144.848 16.931 144.969C16.8668 145.272 16.8027 145.579 16.7278 145.871C16.6707 146.068 16.6279 146.264 16.5602 146.46C16.4924 146.656 16.4354 146.848 16.3748 147.037C16.2428 147.394 16.1074 147.779 15.9683 148.132C15.8756 148.378 15.7793 148.61 15.6866 148.845C15.733 148.542 15.815 147.947 15.815 147.897C15.7918 147.197 15.5879 146.515 15.2231 145.918C15.2284 145.841 15.2284 145.763 15.2231 145.686C15.2046 145.54 15.1556 145.4 15.0793 145.275C15.0031 145.149 14.9012 145.042 14.7805 144.958C14.6597 144.875 14.5227 144.818 14.3784 144.791C14.2341 144.764 14.0857 144.767 13.943 144.802C13.0908 145.026 12.5488 146.524 12.5167 147.298C12.5167 147.344 12.5453 147.85 12.5702 148.171C12.5274 147.986 12.4882 147.815 12.4419 147.615C12.3491 147.237 12.2493 146.863 12.1423 146.46C12.0853 146.267 12.0282 146.071 11.9676 145.875C11.907 145.679 11.8286 145.479 11.7608 145.28C11.5932 144.82 11.4042 144.36 11.1939 143.9C11.5255 143.821 12.6914 143.522 13.1621 143.162C13.6328 142.801 14.1248 142.217 14.1213 141.596C14.1247 141.45 14.0974 141.304 14.041 141.168C13.9846 141.033 13.9004 140.911 13.7938 140.81C13.6873 140.709 13.5608 140.632 13.4225 140.583C13.2842 140.534 13.1372 140.515 12.991 140.526C12.1138 140.619 11.3508 142.021 11.2081 142.791C11.2081 142.841 11.1439 143.408 11.1226 143.718C10.9978 143.443 10.873 143.169 10.7375 142.894C10.3452 142.106 9.92449 141.318 9.50731 140.53L9.12935 139.817C9.24702 139.788 10.6448 139.46 11.1689 139.061C11.636 138.704 12.1316 138.116 12.1281 137.496C12.1321 137.349 12.1051 137.203 12.0489 137.067C11.9927 136.932 11.9085 136.809 11.8018 136.708C11.6952 136.607 11.5684 136.53 11.4299 136.481C11.2914 136.433 11.1441 136.414 10.9978 136.426C10.1206 136.522 9.35755 137.92 9.21493 138.69C9.21493 138.747 9.12935 139.564 9.11865 139.76C8.8441 139.225 8.57311 138.69 8.32708 138.159C7.99283 137.437 7.70579 136.693 7.46775 135.934C7.52124 135.934 8.97959 135.577 9.51801 135.174C9.98511 134.818 10.4807 134.23 10.4772 133.606C10.4817 133.459 10.4551 133.312 10.3991 133.176C10.3431 133.04 10.2589 132.918 10.1522 132.817C10.0454 132.716 9.91842 132.639 9.77962 132.59C9.64081 132.542 9.49333 132.523 9.34686 132.536C8.4697 132.629 7.71022 134.026 7.56403 134.8C7.56403 134.861 7.47132 135.738 7.47132 135.898C7.47132 135.855 7.43566 135.809 7.42496 135.766C7.20658 134.998 7.05741 134.212 6.97926 133.417C6.92934 132.978 6.90438 132.557 6.89368 132.144C7.1718 132.112 8.44118 131.94 8.96533 131.623C9.48948 131.306 10.035 130.792 10.0921 130.172C10.1122 130.026 10.1014 129.878 10.0605 129.737C10.0195 129.596 9.94932 129.466 9.85445 129.354C9.75957 129.242 9.64216 129.151 9.50985 129.087C9.37754 129.024 9.23331 128.989 9.08656 128.984C8.20228 128.984 7.30373 130.289 7.05057 131.038C7.05057 131.077 6.94717 131.509 6.89011 131.823C6.89011 131.637 6.89011 131.445 6.89011 131.266C6.89011 130.6 6.9329 129.99 6.97569 129.448C7.00065 129.141 7.03274 128.863 7.06127 128.603C7.31799 128.428 8.33777 127.708 8.65155 127.177C8.96533 126.645 9.21136 125.95 8.97959 125.369C8.93034 125.232 8.85309 125.107 8.7528 125.002C8.65251 124.897 8.53138 124.814 8.39714 124.758C8.26291 124.702 8.11853 124.675 7.97324 124.678C7.82794 124.682 7.68492 124.715 7.55333 124.777C6.76888 125.183 6.56207 126.763 6.694 127.54C6.694 127.608 7.00065 128.639 7.01491 128.628C6.97926 128.877 6.94717 129.145 6.91508 129.437C6.86159 129.979 6.80454 130.593 6.79028 131.263C6.76524 131.985 6.7819 132.707 6.8402 133.427C6.90549 134.234 7.0403 135.033 7.24312 135.816C7.24466 135.825 7.24466 135.833 7.24312 135.841C7.10406 135.624 6.69757 135.028 6.65835 134.985C6.14489 134.39 4.79707 133.541 3.9841 133.884C3.85072 133.945 3.73171 134.034 3.6348 134.144C3.53789 134.254 3.46523 134.384 3.42153 134.524C3.37783 134.664 3.36406 134.812 3.38112 134.958C3.39818 135.104 3.44569 135.244 3.52056 135.371C3.76303 135.941 4.47973 136.208 5.0645 136.294Z" fill="#263238"/>
<path d="M20.2147 132.147C20.2147 132.147 20.4964 131.117 20.5071 131.049C20.6141 130.272 20.3645 128.699 19.5693 128.314C19.4355 128.252 19.2902 128.22 19.1429 128.219C18.9957 128.218 18.8498 128.248 18.715 128.307C18.5802 128.366 18.4596 128.453 18.361 128.563C18.2624 128.672 18.1881 128.801 18.1431 128.942C17.9291 129.53 18.2001 130.247 18.4996 130.724C18.8883 131.32 20.2147 132.147 20.2147 132.147Z" fill="#263238"/>
<path d="M18.4819 150.959H8.96875L9.92078 166.167H17.5299L18.4819 150.959Z" fill="#263238"/>
<path d="M125.116 123.792H123.201V166.167H125.116V123.792Z" fill="white" stroke="#263238" stroke-width="0.54276" stroke-linecap="round" stroke-linejoin="round"/>
<path d="M130.321 139.934H118.312V140.765H130.321V139.934Z" fill="white" stroke="#263238" stroke-width="0.54276" stroke-linecap="round" stroke-linejoin="round"/>
<path d="M131.251 153.94H117.381V154.771H131.251V153.94Z" fill="white" stroke="#263238" stroke-width="0.54276" stroke-linecap="round" stroke-linejoin="round"/>
<path d="M117.047 166.167H115L118.559 123.318H120.602L117.047 166.167Z" fill="white" stroke="#263238" stroke-width="0.54276" stroke-linecap="round" stroke-linejoin="round"/>
<path d="M131.591 166.167H133.634L130.079 123.318H128.032L131.591 166.167Z" fill="white" stroke="#263238" stroke-width="0.54276" stroke-linecap="round" stroke-linejoin="round"/>
<path d="M131.12 120.708H117.192V124.388H131.12V120.708Z" fill="white" stroke="#263238" stroke-width="0.54276" stroke-linecap="round" stroke-linejoin="round"/>
<path d="M131.12 120.708H117.192V122.473H131.12V120.708Z" fill="#263238" stroke="#263238" stroke-width="0.54276" stroke-linecap="round" stroke-linejoin="round"/>
<path d="M132.207 119.995H116.108V121.539H132.207V119.995Z" fill="white" stroke="#263238" stroke-width="0.54276" stroke-linecap="round" stroke-linejoin="round"/>
<path d="M59.6767 11.0396H21.7559V61.9216H59.6767V11.0396Z" fill="#263238" stroke="#263238" stroke-width="0.54276" stroke-linecap="round" stroke-linejoin="round"/>
<path d="M26.0742 24.0005H39.4383" stroke="white" stroke-width="0.54276" stroke-linecap="round" stroke-linejoin="round"/>
<path d="M26.0742 29.7593H39.4383" stroke="white" stroke-width="0.54276" stroke-linecap="round" stroke-linejoin="round"/>
<path d="M26.0742 35.5215H39.4383" stroke="white" stroke-width="0.54276" stroke-linecap="round" stroke-linejoin="round"/>
<path d="M26.0742 41.2837H39.4383" stroke="white" stroke-width="0.54276" stroke-linecap="round" stroke-linejoin="round"/>
<path d="M26.0742 47.042H39.4383" stroke="white" stroke-width="0.54276" stroke-linecap="round" stroke-linejoin="round"/>
<path d="M26.0742 52.8042H39.4383" stroke="white" stroke-width="0.54276" stroke-linecap="round" stroke-linejoin="round"/>
<path d="M42.2344 24.0005H55.5985" stroke="white" stroke-width="0.54276" stroke-linecap="round" stroke-linejoin="round"/>
<path d="M42.2344 29.7593H55.5985" stroke="white" stroke-width="0.54276" stroke-linecap="round" stroke-linejoin="round"/>
<path d="M42.2344 35.5215H55.5985" stroke="white" stroke-width="0.54276" stroke-linecap="round" stroke-linejoin="round"/>
<path d="M42.2344 41.2837H55.5985" stroke="white" stroke-width="0.54276" stroke-linecap="round" stroke-linejoin="round"/>
<path d="M42.2344 47.042H55.5985" stroke="white" stroke-width="0.54276" stroke-linecap="round" stroke-linejoin="round"/>
<path d="M42.2344 52.8042H55.5985" stroke="white" stroke-width="0.54276" stroke-linecap="round" stroke-linejoin="round"/>
<path d="M34.3135 20.41C33.9909 20.4259 33.6705 20.3492 33.39 20.189C33.1647 20.0459 32.9959 19.8292 32.9122 19.5757C32.8147 19.2814 32.7677 18.9728 32.7732 18.6629V16.7695C32.7661 16.4513 32.8131 16.1342 32.9122 15.8317C32.9975 15.5759 33.1722 15.3594 33.4043 15.222C33.6861 15.0659 34.006 14.9918 34.3278 15.0081C34.6351 14.9934 34.941 15.0585 35.2156 15.197C35.4255 15.3149 35.5871 15.5031 35.672 15.7283C35.7652 15.9853 35.8099 16.2573 35.804 16.5306V16.9692H34.7664V16.4771C34.7674 16.3579 34.7603 16.2388 34.745 16.1206C34.7386 16.0245 34.7011 15.9331 34.638 15.8603C34.5977 15.8227 34.5497 15.7944 34.4974 15.7771C34.4451 15.7599 34.3896 15.7542 34.3349 15.7604C34.2789 15.7555 34.2224 15.7621 34.1691 15.7799C34.1157 15.7977 34.0666 15.8262 34.0247 15.8638C33.9574 15.9399 33.914 16.0342 33.8999 16.1348C33.8824 16.2529 33.8741 16.3721 33.8749 16.4914V18.8839C33.8728 19.0132 33.8848 19.1423 33.9106 19.269C33.9266 19.3661 33.9742 19.4551 34.0461 19.5222C34.1278 19.587 34.2309 19.6188 34.3349 19.6113C34.3886 19.6182 34.4431 19.6128 34.4944 19.5955C34.5457 19.5782 34.5923 19.5495 34.6309 19.5115C34.6949 19.4348 34.7336 19.3401 34.7414 19.2405C34.759 19.1225 34.7673 19.0033 34.7664 18.8839V18.3954H35.804V18.8305C35.8086 19.108 35.7652 19.3843 35.6756 19.647C35.5925 19.8785 35.4344 20.0756 35.2263 20.2068C34.9478 20.3605 34.631 20.4311 34.3135 20.41Z" fill="white"/>
<path d="M37.5808 20.4028C37.342 20.4089 37.105 20.3588 36.8891 20.2566C36.7045 20.1636 36.5537 20.0152 36.4576 19.8323C36.3546 19.6153 36.3045 19.377 36.3114 19.137V17.7927C36.3045 17.5526 36.3546 17.3144 36.4576 17.0974C36.5537 16.9144 36.7045 16.7661 36.8891 16.6731C37.1063 16.5767 37.3413 16.5269 37.579 16.5269C37.8167 16.5269 38.0517 16.5767 38.269 16.6731C38.4519 16.7612 38.6037 16.903 38.704 17.0796C38.81 17.2956 38.8614 17.5344 38.8537 17.7749V19.1298C38.8614 19.3704 38.81 19.6091 38.704 19.8251C38.6066 20.0083 38.4545 20.1566 38.269 20.2494C38.0548 20.3538 37.819 20.4063 37.5808 20.4028ZM37.5808 19.7396C37.6147 19.7421 37.6489 19.7374 37.6808 19.7257C37.7128 19.714 37.7419 19.6957 37.7662 19.6718C37.8142 19.6196 37.8442 19.5534 37.8518 19.4828C37.867 19.3921 37.8741 19.3002 37.8732 19.2083V17.7178C37.8743 17.6247 37.8671 17.5316 37.8518 17.4397C37.8426 17.3696 37.8128 17.3038 37.7662 17.2507C37.7422 17.2262 37.7133 17.2072 37.6813 17.1949C37.6493 17.1826 37.615 17.1773 37.5808 17.1794C37.546 17.177 37.5111 17.1821 37.4785 17.1945C37.4459 17.2068 37.4163 17.226 37.3918 17.2507C37.3535 17.3053 37.3313 17.3695 37.3276 17.4361C37.3123 17.528 37.3051 17.6211 37.3062 17.7143V19.219C37.3053 19.3109 37.3124 19.4028 37.3276 19.4935C37.3365 19.5644 37.3677 19.6306 37.4168 19.6825C37.4642 19.7232 37.5256 19.7436 37.5879 19.7396H37.5808Z" fill="white"/>
<path d="M39.6018 20.339V17.2511H39.2239V16.5808H39.6018V16.3205C39.5979 16.1234 39.6207 15.9267 39.6696 15.7357C39.7096 15.5784 39.8077 15.4421 39.9441 15.3542C40.1394 15.2482 40.3608 15.1999 40.5824 15.2151H40.8249C40.9033 15.2151 40.9889 15.2151 41.0816 15.2401V15.9532C41.0442 15.9421 41.0061 15.9338 40.9675 15.9283C40.9283 15.9248 40.889 15.9248 40.8498 15.9283C40.8119 15.9253 40.7738 15.9312 40.7386 15.9454C40.7033 15.9596 40.6718 15.9818 40.6466 16.0103C40.5974 16.0864 40.5748 16.1767 40.5824 16.267V16.5665H41.0816V17.2369H40.5824V20.3247L39.6018 20.339ZM41.4417 20.339V17.2511H41.0638V16.5808H41.4417V16.3205C41.4377 16.1234 41.4605 15.9267 41.5095 15.7357C41.5494 15.5784 41.6476 15.4421 41.784 15.3542C41.9792 15.2482 42.2006 15.1999 42.4223 15.2151H42.6647C42.7432 15.2151 42.8288 15.2151 42.9215 15.2401V15.9532C42.8841 15.9421 42.846 15.9338 42.8074 15.9283C42.7682 15.9248 42.7288 15.9248 42.6897 15.9283C42.6518 15.9253 42.6137 15.9312 42.5784 15.9454C42.5432 15.9596 42.5117 15.9818 42.4865 16.0103C42.4373 16.0864 42.4147 16.1767 42.4223 16.267V16.5665H42.9215V17.2369H42.4223V20.3247L41.4417 20.339Z" fill="white"/>
<path d="M44.516 20.4029C44.275 20.4114 44.0358 20.3587 43.8207 20.2496C43.6319 20.1507 43.4804 19.993 43.3893 19.8003C43.2891 19.5763 43.2403 19.3326 43.2466 19.0872V17.8285C43.2403 17.5832 43.2891 17.3395 43.3893 17.1154C43.4815 16.9252 43.6329 16.7701 43.8207 16.6733C44.0337 16.5654 44.2703 16.5126 44.5089 16.5199C44.7565 16.5052 45.0034 16.5596 45.222 16.6768C45.4003 16.7789 45.5387 16.9386 45.6142 17.1297C45.7038 17.3565 45.7474 17.5989 45.7426 17.8428V18.506H44.2343V19.2191C44.2314 19.3096 44.2435 19.4 44.27 19.4866C44.2871 19.5445 44.3221 19.5957 44.3698 19.6328C44.4201 19.6599 44.4767 19.6734 44.5338 19.672C44.5887 19.673 44.6428 19.6595 44.6907 19.6328C44.7398 19.6009 44.7764 19.553 44.7941 19.4973C44.8183 19.42 44.8292 19.3392 44.8262 19.2584V18.9018H45.7355V19.2191C45.7466 19.3777 45.7248 19.5369 45.6714 19.6866C45.618 19.8363 45.5342 19.9734 45.4253 20.0892C45.3018 20.1987 45.1579 20.2828 45.0019 20.3366C44.8459 20.3904 44.6808 20.413 44.516 20.4029ZM44.2236 18.0425H44.8155V17.6859C44.8182 17.598 44.8074 17.5102 44.7834 17.4256C44.7676 17.366 44.7309 17.3142 44.68 17.2794C44.6271 17.2523 44.5683 17.2388 44.5089 17.2402C44.4523 17.238 44.3964 17.2529 44.3484 17.283C44.3021 17.3259 44.2698 17.3818 44.2557 17.4434C44.231 17.5485 44.2202 17.6564 44.2236 17.7643V18.0425Z" fill="white"/>
<path d="M47.5059 20.4031C47.2589 20.4146 47.0131 20.3618 46.7927 20.2497C46.6076 20.1494 46.46 19.9918 46.372 19.8005C46.2701 19.5769 46.2213 19.3328 46.2294 19.0873V17.8286C46.2213 17.5831 46.2701 17.3391 46.372 17.1155C46.4639 16.9263 46.6138 16.7714 46.7999 16.6734C47.0139 16.5649 47.2518 16.5122 47.4916 16.52C47.7333 16.5086 47.9736 16.5629 48.1869 16.6769C48.3635 16.7811 48.5012 16.9401 48.5791 17.1298C48.6674 17.3569 48.7098 17.5993 48.7039 17.8429V18.5061H47.1992V19.2193C47.1963 19.3097 47.2084 19.4001 47.2349 19.4867C47.2506 19.5453 47.2858 19.5969 47.3347 19.6329C47.3838 19.66 47.4392 19.6736 47.4952 19.6721C47.5511 19.6726 47.6063 19.6591 47.6556 19.6329C47.7036 19.6006 47.7389 19.5527 47.7555 19.4974C47.7797 19.4201 47.7905 19.3394 47.7876 19.2585V18.9019H48.7004V19.2193C48.7108 19.3781 48.6883 19.5373 48.6343 19.687C48.5804 19.8367 48.496 19.9737 48.3866 20.0893C48.1452 20.3047 47.8291 20.4173 47.5059 20.4031ZM47.2135 18.0426H47.8018V17.686C47.8045 17.5981 47.7937 17.5103 47.7697 17.4257C47.7554 17.3664 47.7199 17.3144 47.6699 17.2795C47.617 17.2524 47.5582 17.2389 47.4987 17.2403C47.4421 17.2377 47.3861 17.2526 47.3383 17.2831C47.2908 17.3251 47.2583 17.3814 47.2456 17.4436C47.2209 17.5487 47.2101 17.6565 47.2135 17.7645V18.0426Z" fill="white"/>
<path d="M49.1989 123.792H47.2842V166.167H49.1989V123.792Z" fill="white" stroke="#263238" stroke-width="0.54276" stroke-linecap="round" stroke-linejoin="round"/>
<path d="M54.4066 139.935H42.3975V140.765H54.4066V139.935Z" fill="white" stroke="#263238" stroke-width="0.54276" stroke-linecap="round" stroke-linejoin="round"/>
<path d="M55.3392 153.94H41.4688V154.771H55.3392V153.94Z" fill="white" stroke="#263238" stroke-width="0.54276" stroke-linecap="round" stroke-linejoin="round"/>
<path d="M41.1291 166.167H39.0859L42.6445 123.318H44.6876L41.1291 166.167Z" fill="white" stroke="#263238" stroke-width="0.54276" stroke-linecap="round" stroke-linejoin="round"/>
<path d="M55.6767 166.167H57.7198L54.1613 123.318H52.1182L55.6767 166.167Z" fill="white" stroke="#263238" stroke-width="0.54276" stroke-linecap="round" stroke-linejoin="round"/>
<path d="M55.2058 120.708H41.2783V124.388H55.2058V120.708Z" fill="white" stroke="#263238" stroke-width="0.54276" stroke-linecap="round" stroke-linejoin="round"/>
<path d="M55.2058 120.708H41.2783V122.473H55.2058V120.708Z" fill="#263238" stroke="#263238" stroke-width="0.54276" stroke-linecap="round" stroke-linejoin="round"/>
<path d="M56.2943 119.995H40.1953V121.539H56.2943V119.995Z" fill="white" stroke="#263238" stroke-width="0.54276" stroke-linecap="round" stroke-linejoin="round"/>
<path d="M64.2499 155.784C64.2499 155.784 61.3403 158.237 61.6113 158.601C61.8823 158.964 64.7028 162.879 65.7047 163.874C66.7067 164.869 69.6269 166.327 70.1582 165.782C70.6895 165.236 68.6143 161.054 68.2506 160.145C67.9588 159.173 67.8654 158.154 67.976 157.146C68.0687 156.853 64.2499 155.784 64.2499 155.784Z" fill="#263238" stroke="#263238" stroke-width="0.54276" stroke-linecap="round" stroke-linejoin="round"/>
<path d="M65.7047 162.32C64.6849 161.097 63.0519 158.704 62.296 157.574C61.8431 158.044 61.5115 158.462 61.6113 158.594C61.8859 158.95 64.7028 162.872 65.7047 163.867C66.7067 164.862 69.627 166.32 70.1582 165.775C70.2006 165.712 70.23 165.641 70.2447 165.566C70.2594 165.491 70.2591 165.414 70.2438 165.34C68.9958 164.759 66.7209 163.539 65.7047 162.32Z" fill="white" stroke="#263238" stroke-width="0.54276" stroke-linecap="round" stroke-linejoin="round"/>
<path d="M54.34 156.048C54.34 156.048 51.4304 158.501 51.7014 158.865C51.9724 159.228 54.7928 163.144 55.7948 164.138C56.7967 165.133 59.717 166.595 60.2483 166.05C60.7796 165.504 58.7008 161.321 58.3371 160.412C58.0442 159.44 57.952 158.419 58.0661 157.41C58.1553 157.139 54.34 156.048 54.34 156.048Z" fill="#263238" stroke="#263238" stroke-width="0.54276" stroke-linecap="round" stroke-linejoin="round"/>
<path d="M55.795 162.594C54.7716 161.367 53.1421 158.975 52.3862 157.848C51.9298 158.319 51.6017 158.732 51.7016 158.864C51.9761 159.221 54.793 163.143 55.795 164.138C56.7969 165.133 59.7172 166.595 60.2485 166.049C60.2911 165.985 60.3203 165.914 60.3344 165.838C60.3485 165.763 60.3472 165.685 60.3305 165.611C59.0789 165.029 56.8076 163.813 55.795 162.594Z" fill="white" stroke="#263238" stroke-width="0.54276" stroke-linecap="round" stroke-linejoin="round"/>
<path d="M55.4733 106.221C55.4733 106.221 63.8312 113.042 63.9275 113.812C63.9691 114.454 63.9368 115.099 63.8312 115.734C63.8312 115.734 72.0002 131.394 72.289 133.509C72.5778 135.623 74.4997 158.301 74.4997 158.301L72.0037 158.205L72.4851 160.223C72.4851 160.223 68.3525 161.952 63.9275 160.608C59.5025 159.264 52.874 156.09 52.874 156.09L57.2954 139.849C57.2954 139.849 53.3732 139.656 53.0665 138.697C52.7599 137.738 41.5352 116.59 41.5352 116.59C41.5352 116.59 44.9938 105.251 45.8603 104.962C46.7268 104.673 55.4733 106.221 55.4733 106.221Z" fill="#BFDECC" stroke="#263238" stroke-width="0.54276" stroke-linecap="round" stroke-linejoin="round"/>
<path d="M60.3406 126.88C61.289 126.973 61.7169 126.973 61.7169 126.973" stroke="#263238" stroke-width="0.54276" stroke-linecap="round" stroke-linejoin="round"/>
<path d="M46.3438 121.015C46.3438 121.015 52.2057 125.626 56.1458 126.299C57.4258 126.517 58.4634 126.656 59.28 126.767" stroke="#263238" stroke-width="0.54276" stroke-linecap="round" stroke-linejoin="round"/>
<path d="M59.3184 119.771C59.3184 119.771 67.8759 134.183 67.9651 134.472C68.0542 134.761 72.0014 157.438 72.0014 157.438" stroke="#263238" stroke-width="0.54276" stroke-linecap="round" stroke-linejoin="round"/>
<path d="M59.9883 120.63L61.1436 118.323" stroke="#263238" stroke-width="0.54276" stroke-linecap="round" stroke-linejoin="round"/>
<path d="M60.5398 136.272C61.1636 136.509 61.8205 136.646 62.4866 136.679" stroke="#263238" stroke-width="0.54276" stroke-linecap="round" stroke-linejoin="round"/>
<path d="M48.5525 127.358C48.5525 127.358 57.5879 134.757 59.3172 135.716" stroke="#263238" stroke-width="0.54276" stroke-linecap="round" stroke-linejoin="round"/>
<path d="M57.2998 139.849L60.6622 143.115" stroke="#263238" stroke-width="0.54276" stroke-linecap="round" stroke-linejoin="round"/>
<path d="M60.2237 152.403C59.3975 153.166 58.3916 153.707 57.2998 153.976" stroke="#263238" stroke-width="0.54276" stroke-linecap="round" stroke-linejoin="round"/>
<path d="M66.0427 136.101C66.0427 136.101 62.1027 149.169 61.0508 151.284" stroke="#263238" stroke-width="0.54276" stroke-linecap="round" stroke-linejoin="round"/>
<path d="M64.0701 155.734C63.9411 156.341 63.7659 156.937 63.5459 157.517" stroke="#263238" stroke-width="0.54276" stroke-linecap="round" stroke-linejoin="round"/>
<path d="M66.1388 142.826C66.1388 142.826 65.1547 150.635 64.2205 155.039" stroke="#263238" stroke-width="0.54276" stroke-linecap="round" stroke-linejoin="round"/>
<path d="M66.6956 96.9967L64.7844 97.9772L63.7539 98.8579L62.8232 97.585L65.9111 94.7432L66.6956 96.9967Z" fill="#FFBE9D" stroke="#263238" stroke-width="0.54276" stroke-linecap="round" stroke-linejoin="round"/>
<path d="M67.3297 89.9902L62.7764 96.9468L65.5683 96.7044L70.0753 90.2363L67.3297 89.9902Z" fill="#263238" stroke="#263238" stroke-width="0.54276" stroke-linecap="round" stroke-linejoin="round"/>
<path d="M69.292 93.5667C69.292 93.5667 67.2846 93.0782 67.0884 93.5168C66.8923 93.9553 67.2346 94.155 67.7231 94.401C68.2116 94.6471 68.8998 94.8396 69.2421 94.3012C69.5844 93.7628 69.292 93.5667 69.292 93.5667Z" fill="#FFBE9D" stroke="#263238" stroke-width="0.54276" stroke-linecap="round" stroke-linejoin="round"/>
<path d="M68.3103 94.8108C68.3103 94.8108 66.0568 94.3687 65.9106 94.7609C65.7644 95.1531 64.5379 96.8682 64.8409 97.0643C65.144 97.2604 66.9803 97.4209 67.3369 97.0144C67.6935 96.6079 68.3103 94.8108 68.3103 94.8108Z" fill="#FFBE9D" stroke="#263238" stroke-width="0.54276" stroke-linecap="round" stroke-linejoin="round"/>
<path d="M58.3153 99.7387L62.776 96.9468L64.6372 99.3001L54.8887 108.264L54.5928 102.042L58.3153 99.7387Z" fill="#263238" stroke="#263238" stroke-width="0.54276" stroke-linecap="round" stroke-linejoin="round"/>
<path d="M54.9363 92.0476C54.9363 92.0476 55.6708 97.7313 55.7706 99.9848C55.8705 102.238 56.063 107.53 56.063 107.53L59.593 106.941C59.593 106.941 59.1509 100.231 58.4164 96.7508C57.9994 94.7158 57.2896 92.7521 56.3091 90.9209L54.9363 92.0476Z" fill="white" stroke="#263238" stroke-width="0.54276" stroke-linecap="round" stroke-linejoin="round"/>
<path d="M54.5442 91.263C55.2784 95.3617 55.7548 99.5025 55.9704 103.661C56.2628 110.125 53.9594 117.966 53.9594 117.966C53.9594 117.966 51.4135 119.336 45.6799 117.036C42.35 115.713 39.1246 114.141 36.0312 112.333C36.0312 112.333 36.6659 98.6618 38.8838 93.5665C41.1016 88.4711 42.2141 86.1214 44.4676 85.4831C46.7211 84.8449 54.5442 91.263 54.5442 91.263Z" fill="#263238" stroke="#263238" stroke-width="0.54276" stroke-linecap="round" stroke-linejoin="round"/>
<path d="M48.6671 88.7173L49.8081 95.8807L38.48 94.3689C38.48 94.3689 34.326 110.628 34.2761 112.554C34.2262 114.479 36.7721 117.107 41.8211 118.676C46.87 120.245 48.7277 121.172 50.3786 119.803C52.0295 118.434 54.1048 101.529 53.9443 99.7637C53.7839 97.9987 53.7018 97.2178 53.7018 97.2178L50.4678 95.845L49.2911 89.0703L48.6671 88.7173Z" fill="white" stroke="#263238" stroke-width="0.54276" stroke-linecap="round" stroke-linejoin="round"/>
<path d="M45.53 81.5644C45.53 81.5644 42.9342 82.545 42.8842 84.014C42.8343 85.4831 44.1108 86.8059 44.5494 87.002C44.988 87.1982 51.752 90.8708 52.4866 91.0669C53.2211 91.263 56.309 90.0899 56.309 89.1094C56.309 88.1288 48.7141 82.1028 47.8334 81.3683C46.9527 80.6338 45.53 81.5644 45.53 81.5644Z" fill="#2F945A" stroke="#263238" stroke-width="0.54276" stroke-linecap="round" stroke-linejoin="round"/>
<path d="M48.3811 78.7227C48.3811 78.7227 46.4699 77.9382 45.9315 78.8189C45.3931 79.6996 45.147 81.1723 45.5392 81.5645C45.9315 81.9567 50.7808 89.794 52.4958 91.067C54.2109 92.3399 54.6032 92.7357 55.4375 92.1367C56.2719 91.5377 57.445 90.5678 57.9834 89.2842C58.5218 88.0005 59.3063 87.8151 58.0832 86.1464C56.8602 84.4776 56.6106 84.3849 56.6106 84.3849L48.3811 78.7227Z" fill="#2F945A" stroke="#263238" stroke-width="0.54276" stroke-linecap="round" stroke-linejoin="round"/>
<path d="M61.5993 78.8188C61.5993 78.8188 60.765 80.6337 60.4227 81.026C60.0804 81.4182 59.5419 81.4182 59.5419 81.8104C59.5419 82.2026 59.8343 83.768 59.492 84.014C59.1497 84.26 57.6308 84.4561 57.6308 84.4561C57.6308 84.4561 56.258 86.5135 55.6696 86.7096C55.0813 86.9057 53.6122 86.0215 52.5354 85.3868C51.4586 84.7521 49.8897 82.3488 49.0553 81.026C48.221 79.7031 48.1746 78.9187 48.3707 78.7226C48.5668 78.5264 48.1746 75.8308 52.4356 75.0963C56.6965 74.3617 59.3458 75.1961 60.0804 76.0768C60.8149 76.9575 61.5993 78.8188 61.5993 78.8188Z" fill="#FFBE9D" stroke="#263238" stroke-width="0.54276" stroke-linecap="round" stroke-linejoin="round"/>
<path d="M58.3257 81.6178C58.1581 81.903 57.9299 82.0813 57.8158 82.0136C57.7017 81.9458 57.7445 81.657 57.9121 81.3753C58.0797 81.0936 58.3079 80.9118 58.422 80.9795C58.5361 81.0473 58.4933 81.329 58.3257 81.6178Z" fill="#263238"/>
<path d="M59.3354 80.8515C59.3354 80.8515 58.5367 80.331 57.9092 80.6519" stroke="#263238" stroke-width="0.54276" stroke-linecap="round" stroke-linejoin="round"/>
<path d="M56.8545 84.4493C56.6015 84.3158 56.3852 84.122 56.2248 83.885C56.0643 83.6481 55.9647 83.3754 55.9346 83.0908" stroke="#263238" stroke-width="0.54276" stroke-linecap="round" stroke-linejoin="round"/>
<path d="M50.0862 68.728C50.0862 68.728 47.7828 70.7854 47.4904 73.6772C47.198 76.5689 48.0252 78.2341 48.3818 78.7226C48.7384 79.2111 49.5085 79.015 50.1468 78.5265C50.785 78.038 51.9082 76.8613 52.9993 76.9112C54.0904 76.9611 54.8107 76.9112 54.8107 76.9112C54.3002 78.1452 53.6416 79.3126 52.8496 80.3877C52.4273 80.9567 51.9495 81.4822 51.4233 81.9566C51.4233 81.9566 54.2152 79.7031 55.1459 78.9686C56.0765 78.2341 56.6149 76.6652 56.6149 76.6652V77.7349L58.7222 78.6655L59.7919 77.0503L59.3533 79.0078C59.3533 79.0078 59.7919 79.1077 60.3802 79.3038C61.09 79.4608 61.8115 79.5586 62.5375 79.5962C62.5375 79.5962 63.1757 76.412 63.1757 74.4046C63.1757 72.3971 60.4729 69.1381 57.435 68.1397C54.3971 67.1413 51.3591 67.6013 50.0862 68.728Z" fill="#263238" stroke="#263238" stroke-width="0.54276" stroke-linecap="round" stroke-linejoin="round"/>
<path d="M50.0856 68.7281C49.0726 67.8976 47.8543 67.3556 46.5592 67.1592C44.4519 66.8668 42.883 68.942 42.3945 70.2471C42.0971 70.9422 42.0285 71.7139 42.1984 72.4507L45.9709 73.6273C45.9709 73.6273 46.6055 70.1009 47.7822 69.4626C48.4162 69.0868 49.1628 68.9479 49.8895 69.0704L50.0856 68.7281Z" fill="#263238" stroke="#263238" stroke-width="0.54276" stroke-linecap="round" stroke-linejoin="round"/>
<path d="M52.732 78.0846C52.732 78.0846 52.2435 75.7349 50.8708 75.8811C49.498 76.0273 49.744 79.8496 50.2325 80.1599C50.721 80.4701 51.6588 80.0636 51.6588 80.0636" fill="#FFBE9D"/>
<path d="M52.732 78.0846C52.732 78.0846 52.2435 75.7349 50.8708 75.8811C49.498 76.0273 49.744 79.8496 50.2325 80.1599C50.721 80.4701 51.6588 80.0636 51.6588 80.0636" stroke="#263238" stroke-width="0.54276" stroke-linecap="round" stroke-linejoin="round"/>
<path d="M59.2471 96.2122C59.2471 96.2122 60.2775 94.597 60.4237 94.2547C60.5699 93.9124 61.2581 89.7941 61.6004 89.4518C61.9427 89.1094 63.9502 88.5211 64.6847 88.2751C65.4192 88.0291 66.5959 87.7367 66.6458 87.9827C66.6957 88.2287 65.6189 88.6174 65.0769 89.0096C64.535 89.4018 63.7541 90.9707 63.3618 92.0975C62.9696 93.2242 62.9233 94.4508 62.3849 94.9892C61.8464 95.5276 60.3275 97.4388 60.3275 97.4388L59.2471 96.2122Z" fill="#FFBE9D" stroke="#263238" stroke-width="0.54276" stroke-linecap="round" stroke-linejoin="round"/>
<path d="M40.9727 93.3846C40.9727 93.3846 45.5296 108.36 46.2177 108.46C46.9059 108.56 60.7193 98.2696 60.7193 98.2696L59.4357 95.4777L50.5215 98.808C50.5215 98.808 49.0025 89.9901 48.5105 89.4018C48.0184 88.8134 44.7879 86.806 42.5843 89.0096" fill="#263238"/>
<path d="M40.9727 93.3846C40.9727 93.3846 45.5296 108.36 46.2177 108.46C46.9059 108.56 60.7193 98.2696 60.7193 98.2696L59.4357 95.4777L50.5215 98.808C50.5215 98.808 49.0025 89.9901 48.5105 89.4018C48.0184 88.8134 44.7879 86.806 42.5843 89.0096" stroke="#263238" stroke-width="0.54276" stroke-linecap="round" stroke-linejoin="round"/>
<path d="M94.9436 16.6196L92.5617 13.2144H83.2375L80.8521 16.6196C79.5882 18.422 78.9401 20.5844 79.0044 22.7849C79.0686 24.9854 79.8417 27.1063 81.2086 28.832L82.3104 30.2261H93.4709L94.5763 28.832C95.9453 27.1077 96.7207 24.9874 96.7869 22.7867C96.853 20.5861 96.2065 18.4229 94.9436 16.6196Z" fill="#263238" stroke="#5A6D76" stroke-width="0.54276" stroke-linecap="round" stroke-linejoin="round"/>
<path d="M80.8525 16.6196H85.2347" stroke="#5A6D76" stroke-width="0.54276" stroke-linecap="round" stroke-linejoin="round"/>
<path d="M90.0772 18.0137H86.3867" stroke="#5A6D76" stroke-width="0.54276" stroke-linecap="round" stroke-linejoin="round"/>
<path d="M96.6489 24.4712H88.0022" stroke="#5A6D76" stroke-width="0.54276" stroke-linecap="round" stroke-linejoin="round"/>
<path d="M80.8525 24.3569H84.1971" stroke="#5A6D76" stroke-width="0.54276" stroke-linecap="round" stroke-linejoin="round"/>
<path d="M92.3833 22.6279H89.7305" stroke="#5A6D76" stroke-width="0.54276" stroke-linecap="round" stroke-linejoin="round"/>
<path d="M84.3105 26.8921H86.6175" stroke="#5A6D76" stroke-width="0.54276" stroke-linecap="round" stroke-linejoin="round"/>
<path d="M93.0754 14.3232H91.1143" stroke="#5A6D76" stroke-width="0.54276" stroke-linecap="round" stroke-linejoin="round"/>
<path d="M87.8982 13.2001V0" stroke="#5A6D76" stroke-width="0.54276" stroke-linecap="round" stroke-linejoin="round"/>
<path d="M123.266 16.6196L120.885 13.2144H111.56L109.161 16.6196C107.897 18.422 107.249 20.5844 107.313 22.7849C107.377 24.9854 108.15 27.1063 109.517 28.832L110.619 30.2261H121.772L122.878 28.832C124.249 27.1098 125.028 24.9908 125.098 22.7902C125.168 20.5897 124.526 18.4254 123.266 16.6196Z" fill="#263238" stroke="#5A6D76" stroke-width="0.54276" stroke-linecap="round" stroke-linejoin="round"/>
<path d="M109.174 16.6196H113.556" stroke="#5A6D76" stroke-width="0.54276" stroke-linecap="round" stroke-linejoin="round"/>
<path d="M118.398 18.0137H114.708" stroke="#5A6D76" stroke-width="0.54276" stroke-linecap="round" stroke-linejoin="round"/>
<path d="M124.97 24.4712H116.323" stroke="#5A6D76" stroke-width="0.54276" stroke-linecap="round" stroke-linejoin="round"/>
<path d="M109.174 24.3569H112.519" stroke="#5A6D76" stroke-width="0.54276" stroke-linecap="round" stroke-linejoin="round"/>
<path d="M120.707 22.6279H118.054" stroke="#5A6D76" stroke-width="0.54276" stroke-linecap="round" stroke-linejoin="round"/>
<path d="M112.632 26.8921H114.939" stroke="#5A6D76" stroke-width="0.54276" stroke-linecap="round" stroke-linejoin="round"/>
<path d="M121.397 14.3232H119.436" stroke="#5A6D76" stroke-width="0.54276" stroke-linecap="round" stroke-linejoin="round"/>
<path d="M116.22 13.2001V0" stroke="#5A6D76" stroke-width="0.54276" stroke-linecap="round" stroke-linejoin="round"/>
<path d="M151.592 16.6196L149.21 13.2144H139.882L137.497 16.6196C136.233 18.422 135.585 20.5844 135.649 22.7849C135.713 24.9854 136.486 27.1063 137.853 28.832L138.955 30.2261H150.108L151.235 28.8462C152.605 27.1193 153.38 24.9957 153.445 22.7921C153.509 20.5886 152.859 18.4234 151.592 16.6196Z" fill="#263238" stroke="#5A6D76" stroke-width="0.54276" stroke-linecap="round" stroke-linejoin="round"/>
<path d="M137.497 16.6196H141.88" stroke="#5A6D76" stroke-width="0.54276" stroke-linecap="round" stroke-linejoin="round"/>
<path d="M146.722 18.0137H143.031" stroke="#5A6D76" stroke-width="0.54276" stroke-linecap="round" stroke-linejoin="round"/>
<path d="M153.293 24.4712H144.646" stroke="#5A6D76" stroke-width="0.54276" stroke-linecap="round" stroke-linejoin="round"/>
<path d="M137.497 24.3569H140.842" stroke="#5A6D76" stroke-width="0.54276" stroke-linecap="round" stroke-linejoin="round"/>
<path d="M149.023 22.6279H146.374" stroke="#5A6D76" stroke-width="0.54276" stroke-linecap="round" stroke-linejoin="round"/>
<path d="M140.955 26.8921H143.262" stroke="#5A6D76" stroke-width="0.54276" stroke-linecap="round" stroke-linejoin="round"/>
<path d="M149.72 14.3232H147.759" stroke="#5A6D76" stroke-width="0.54276" stroke-linecap="round" stroke-linejoin="round"/>
<path d="M144.543 13.2001V0" stroke="#5A6D76" stroke-width="0.54276" stroke-linecap="round" stroke-linejoin="round"/>
<path d="M0 166.167H172.04" stroke="#263238" stroke-width="0.54276" stroke-miterlimit="10"/>
<path d="M166.312 84.7041L171.264 101.952H166.312L164.008 93.3281L166.312 84.7041Z" fill="#263238" stroke="#263238" stroke-width="0.4" stroke-linecap="round" stroke-linejoin="round"/>
<path d="M166.692 82.8844L166.06 82.3164L149.672 101.952H163.164L166.692 82.8844Z" fill="white" stroke="#263238" stroke-width="0.4" stroke-linecap="round" stroke-linejoin="round"/>
<path d="M166.06 82.3164H152.568L149 101.952H162.488L166.06 82.3164Z" fill="white" stroke="#263238" stroke-width="0.4" stroke-linecap="round" stroke-linejoin="round"/>
<path d="M155.99 95.2996L156.162 94.4911H156.575L156.661 94.0844H156.25C156.278 93.9493 156.307 93.8135 156.336 93.6784H157.164L157.25 93.2745H157.663L157.578 93.6763H157.993L158.166 92.8643H159.409L159.324 93.2681H159.735L159.821 92.8643H159.408L159.495 92.4568H158.665L158.836 91.6519H157.592L157.506 92.0565H156.681L156.508 92.8678H156.919L156.833 93.2724H156.42L156.334 93.6777H155.92L156.006 93.2717H154.763L154.849 92.8678H156.092L156.782 89.6226H157.198C157.115 90.013 157.032 90.4035 156.949 90.7939L156.94 90.8378H157.354L157.526 90.0293H157.939L157.767 90.8392H158.183L158.097 91.2431H160.17L160.084 91.6476H160.499L160.412 92.0558H159.999L159.913 92.4625H160.324L160.152 93.2745H160.567L160.395 94.0851H159.984L159.812 94.8943H160.217L160.131 95.2996H160.959L160.873 95.7042H159.635L159.463 96.5141H159.049L159.135 96.1095H158.304L158.39 95.7042H157.976L158.062 95.2996H158.887L158.974 94.8943H156.906L156.82 95.2975H155.99L155.99 95.2996ZM158.735 94.083L158.82 93.6798H158.409L158.323 94.0823H158.736L158.65 94.4862H159.476L159.562 94.083H158.735ZM157.904 94.083H157.497L157.412 94.484H157.822L157.904 94.083ZM159.169 92.0508H159.579L159.664 91.6491H159.254L159.169 92.0508Z" fill="#2F945A"/>
<path d="M153.208 90.835L153.811 88H156.708L156.106 90.835H153.208ZM154.14 88.4067L153.71 90.4304H155.778L156.208 88.4067H154.14Z" fill="#2F945A"/>
<path d="M161.91 90.8367H159.013L159.615 88.0024H162.513L161.91 90.8367ZM162.013 88.4077H159.945L159.515 90.4307H161.583L162.013 88.4077Z" fill="#2F945A"/>
<path d="M152.604 93.6768H155.502L154.899 96.5117H152.001L152.604 93.6768ZM155.001 94.0835H152.932L152.502 96.1071H154.571L155.001 94.0835Z" fill="#2F945A"/>
<path d="M157.195 89.6215L157.368 88.8102H156.954L157.126 88.001H159.195L159.023 88.8087H158.617L158.531 89.2148H158.941L158.769 90.0239H158.356L158.442 89.6215H158.025L158.111 89.2169H157.698L157.612 89.6201H157.195L157.195 89.6215ZM157.784 88.8073H158.195L158.28 88.407H157.869L157.784 88.8073Z" fill="#2F945A"/>
<path d="M155.107 91.647L155.021 92.0523H155.849L155.763 92.4569H154.521L154.349 93.2675H152.693L152.864 92.4611H153.274L153.189 92.8622H154.02L154.279 91.647H155.107H155.107Z" fill="#2F945A"/>
<path d="M155.989 95.2979L155.903 95.7032H156.317L156.231 96.1077H156.644L156.558 96.513H155.318L155.576 95.2986H155.987L155.989 95.2979Z" fill="#2F945A"/>
<path d="M154.279 91.6476H153.45L153.365 92.0515H152.952L153.123 91.2451H154.363L154.278 91.6483L154.279 91.6476Z" fill="#2F945A"/>
<path d="M161.565 92.4582H161.154L161.326 91.6497H160.912L160.998 91.2451H161.822L161.565 92.4582Z" fill="#2F945A"/>
<path d="M155.106 91.649L155.192 91.2451H156.019L155.933 91.6476H155.106L155.106 91.649Z" fill="#2F945A"/>
<path d="M160.567 93.2716L160.653 92.8677H161.064L160.979 93.2701H160.563L160.567 93.2716Z" fill="#2F945A"/>
<path d="M160.896 93.6787H161.306L161.22 94.0805H160.81L160.896 93.6787Z" fill="#2F945A"/>
<path d="M158.181 90.8375L158.266 90.4336H158.679L158.593 90.8361H158.18L158.181 90.8375Z" fill="#2F945A"/>
<path d="M156.162 94.49H155.748L155.834 94.0854H156.245L156.159 94.49H156.162Z" fill="#2F945A"/>
<path d="M160.22 94.8939L160.306 94.4907H160.717L160.632 94.8932H160.22L160.22 94.8939Z" fill="#2F945A"/>
<path d="M160.408 92.0549H160.819L160.733 92.4594H160.322L160.408 92.0527L160.408 92.0549Z" fill="#2F945A"/>
<path d="M157.473 96.1081H157.062L157.147 95.707H157.558L157.473 96.1081Z" fill="#2F945A"/>
<path d="M158.304 96.1089L158.218 96.5128H157.807L157.892 96.1103H158.305L158.304 96.1089Z" fill="#2F945A"/>
<path d="M160.704 96.5141H160.294L160.379 96.1123H160.789L160.704 96.5141Z" fill="#2F945A"/>
<path d="M158.166 92.8634H157.756L157.842 92.4609H158.254L158.168 92.8634H158.166Z" fill="#2F945A"/>
<path d="M155.448 90.0244H154.208L154.466 88.812H155.705L155.448 90.0244Z" fill="#2F945A"/>
<path d="M160.014 90.0239L160.271 88.8115H161.51L161.253 90.0239H160.014Z" fill="#2F945A"/>
<path d="M153.001 95.7024L153.259 94.4907H154.498L154.241 95.7031L153.001 95.7024Z" fill="#2F945A"/>
</svg>
