<svg width="45" height="44" viewBox="0 0 45 44" fill="none" xmlns="http://www.w3.org/2000/svg">
<rect x="1" y="0.5" width="43" height="43" rx="21.5" fill="white"/>
<rect x="1" y="0.5" width="43" height="43" rx="21.5" stroke="#BFDECC"/>
<path d="M16.1153 28.5001V29.7501C16.1153 29.9626 16.0434 30.1407 15.8997 30.2845C15.756 30.4282 15.5779 30.5001 15.3654 30.5001H14.75C14.5375 30.5001 14.3594 30.4282 14.2156 30.2845C14.0719 30.1407 14 29.9626 14 29.7501V22.0771L16.0423 16.2502C16.1167 16.0207 16.2532 15.8383 16.4519 15.7031C16.6506 15.5678 16.8718 15.5002 17.1154 15.5002H19.9616V13.731H25.0769V15.5002H27.9231C28.1571 15.5002 28.3695 15.5689 28.5604 15.7064C28.7513 15.8439 28.8837 16.0252 28.9576 16.2502L31 22.0771V29.7501C31 29.9626 30.9281 30.1407 30.7843 30.2845C30.6406 30.4282 30.4625 30.5001 30.25 30.5001H29.6346C29.4221 30.5001 29.244 30.4282 29.1002 30.2845C28.9565 30.1407 28.8846 29.9626 28.8846 29.7501V28.5001H16.1153ZM16.1077 20.5771H28.8923L27.6308 17.0001H17.3692L16.1077 20.5771ZM17.9638 25.8463C18.3276 25.8463 18.6362 25.7189 18.8894 25.4642C19.1426 25.2095 19.2692 24.9002 19.2692 24.5363C19.2692 24.1725 19.1418 23.8639 18.8871 23.6107C18.6324 23.3575 18.3231 23.2309 17.9593 23.2309C17.5954 23.2309 17.2868 23.3583 17.0336 23.613C16.7804 23.8677 16.6538 24.177 16.6538 24.5409C16.6538 24.9047 16.7812 25.2133 17.0359 25.4665C17.2906 25.7197 17.5999 25.8463 17.9638 25.8463ZM27.0407 25.8463C27.4046 25.8463 27.7131 25.7189 27.9663 25.4642C28.2195 25.2095 28.3461 24.9002 28.3461 24.5363C28.3461 24.1725 28.2188 23.8639 27.9641 23.6107C27.7093 23.3575 27.4 23.2309 27.0362 23.2309C26.6723 23.2309 26.3638 23.3583 26.1106 23.613C25.8574 23.8677 25.7308 24.177 25.7308 24.5409C25.7308 24.9047 25.8581 25.2133 26.1128 25.4665C26.3675 25.7197 26.6768 25.8463 27.0407 25.8463ZM15.5 27.0001H29.5V22.0771H15.5V27.0001Z" fill="#2F945A"/>
</svg>
