<svg width="124" height="26" viewBox="0 0 124 26" fill="none" xmlns="http://www.w3.org/2000/svg">
<path fill-rule="evenodd" clip-rule="evenodd" d="M32.75 20.5C35.5114 20.5 37.75 18.2614 37.75 15.5C37.75 12.7386 35.5114 10.5 32.75 10.5C29.9886 10.5 27.75 12.7386 27.75 15.5C27.75 18.2614 29.9886 20.5 32.75 20.5ZM32.75 25.5C38.2728 25.5 42.75 21.0228 42.75 15.5C42.75 9.97715 38.2728 5.5 32.75 5.5C27.2272 5.5 22.75 9.97715 22.75 15.5C22.75 21.0228 27.2272 25.5 32.75 25.5Z" fill="#2F945A"/>
<path fill-rule="evenodd" clip-rule="evenodd" d="M64.375 20.25C67.0674 20.25 69.25 18.0674 69.25 15.375C69.25 12.6826 67.0674 10.5 64.375 10.5C61.6826 10.5 59.5 12.6826 59.5 15.375C59.5 18.0674 61.6826 20.25 64.375 20.25ZM64.375 25.25C69.8288 25.25 74.25 20.8288 74.25 15.375C74.25 9.92119 69.8288 5.5 64.375 5.5C58.9212 5.5 54.5 9.92119 54.5 15.375C54.5 20.8288 58.9212 25.25 64.375 25.25Z" fill="#2F945A"/>
<path fill-rule="evenodd" clip-rule="evenodd" d="M46.5 25.5V0.5H51V25.5H46.5Z" fill="#2F945A"/>
<path fill-rule="evenodd" clip-rule="evenodd" d="M121 25.25V0.5H123.5V25.25H121Z" fill="#4A4E69"/>
<path fill-rule="evenodd" clip-rule="evenodd" d="M54 9.5H44V5.5H54V9.5Z" fill="#2F945A"/>
<path fill-rule="evenodd" clip-rule="evenodd" d="M14.8311 18C13.9666 19.4945 12.3507 20.5 10.5 20.5C7.73858 20.5 5.5 18.2614 5.5 15.5C5.5 12.7386 7.73858 10.5 10.5 10.5C12.3507 10.5 13.9666 11.5055 14.8311 13H20.185C19.0749 8.68693 15.1596 5.5 10.5 5.5C4.97715 5.5 0.5 9.97715 0.5 15.5C0.5 21.0228 4.97715 25.5 10.5 25.5C15.1596 25.5 19.0749 22.3131 20.185 18H14.8311Z" fill="#2F945A"/>
<path d="M114.908 14.065C114.908 12.256 114.368 10.798 113.288 9.691C112.208 8.557 110.696 7.99 108.752 7.99C107.888 7.99 107.051 8.1655 106.241 8.5165C105.431 8.8405 104.716 9.286 104.095 9.853C103.501 10.42 103.015 11.068 102.637 11.797C102.286 12.526 102.11 13.282 102.11 14.065H114.908ZM102.029 16.252C102.11 17.197 102.34 18.088 102.718 18.925C103.096 19.762 103.595 20.491 104.216 21.112C104.837 21.706 105.553 22.1785 106.363 22.5295C107.173 22.8805 108.05 23.056 108.995 23.056C110.426 23.056 111.655 22.732 112.681 22.084C113.734 21.409 114.53 20.6395 115.07 19.7755L117.136 21.4765C116.002 22.9075 114.746 23.9335 113.369 24.5545C112.019 25.1755 110.561 25.486 108.995 25.486C107.591 25.486 106.282 25.243 105.067 24.757C103.879 24.244 102.853 23.542 101.989 22.651C101.125 21.76 100.436 20.707 99.9231 19.492C99.4371 18.277 99.1941 16.954 99.1941 15.523C99.1941 14.092 99.4371 12.769 99.9231 11.554C100.409 10.339 101.084 9.286 101.948 8.395C102.812 7.504 103.825 6.8155 104.986 6.3295C106.147 5.8165 107.402 5.56 108.752 5.56C110.183 5.56 111.466 5.8165 112.6 6.3295C113.734 6.8425 114.679 7.531 115.435 8.395C116.218 9.232 116.812 10.231 117.217 11.392C117.622 12.526 117.824 13.741 117.824 15.037V16.252H102.029Z" fill="#4A4E69"/>
<path fill-rule="evenodd" clip-rule="evenodd" d="M96.4992 15.5C96.4323 20.8962 92.0371 25.25 86.625 25.25C81.1712 25.25 76.75 20.8288 76.75 15.375C76.75 9.92119 81.1712 5.5 86.625 5.5C89.5575 5.5 92.1914 6.77821 94 8.80788V0.5H96.5V15.375V15.5H96.4992ZM94 15.375C94 19.4481 90.6981 22.75 86.625 22.75C82.5519 22.75 79.25 19.4481 79.25 15.375C79.25 11.3019 82.5519 8 86.625 8C90.6981 8 94 11.3019 94 15.375Z" fill="#4A4E69"/>
</svg>
