<svg width="131" height="28" viewBox="0 0 131 28" fill="none" xmlns="http://www.w3.org/2000/svg">
<path d="M71.9263 27.5202C69.7286 27.5202 67.7925 27.0885 66.1181 26.2251C64.4698 25.3356 63.1748 24.1059 62.2329 22.5361C61.3172 20.9402 60.8594 19.1088 60.8594 17.0419C60.8594 14.9751 61.3172 13.1698 62.2329 11.6262C63.1748 10.0826 64.4698 8.87914 66.1181 8.01576C67.7925 7.15239 69.7286 6.7207 71.9263 6.7207C74.1501 6.7207 76.0861 7.15239 77.7344 8.01576C79.4088 8.87914 80.7039 10.0826 81.6196 11.6262C82.5353 13.1698 82.9931 14.9751 82.9931 17.0419C82.9931 19.1088 82.5222 20.9402 81.5803 22.5361C80.6646 24.1059 79.3696 25.3356 77.6952 26.2251C76.0469 27.0885 74.1239 27.5202 71.9263 27.5202ZM71.9263 22.8893C72.842 22.8893 73.6661 22.6539 74.3986 22.1829C75.1574 21.712 75.7591 21.0449 76.2039 20.1815C76.6486 19.2919 76.871 18.2324 76.871 17.0027C76.871 15.1975 76.387 13.8108 75.419 12.8428C74.4771 11.8486 73.3129 11.3515 71.9263 11.3515C70.5396 11.3515 69.3623 11.8486 68.3943 12.8428C67.4524 13.837 66.9815 15.2236 66.9815 17.0027C66.9815 18.2324 67.2039 19.2919 67.6486 20.1815C68.0934 21.0449 68.6821 21.712 69.4146 22.1829C70.1733 22.6539 71.0106 22.8893 71.9263 22.8893Z" fill="#2F945A"/>
<path d="M56.0992 27.5592C53.5353 27.5592 51.6254 26.9444 50.3696 25.7147C49.1399 24.4589 48.5251 22.5621 48.5251 20.0243V2.63908L54.4117 0.441406V20.2205C54.4117 21.11 54.6603 21.7772 55.1574 22.222C55.6545 22.6667 56.4263 22.8891 57.4728 22.8891C57.8652 22.8891 58.2315 22.8499 58.5716 22.7714C58.9117 22.6929 59.2518 22.6013 59.592 22.4967V26.9705C59.2518 27.1537 58.7678 27.2976 58.1399 27.4022C57.5382 27.5069 56.8579 27.5592 56.0992 27.5592ZM44.7969 11.5868V7.11293H59.592V11.5868H44.7969Z" fill="#2F945A"/>
<path d="M32.9888 27.5202C30.7911 27.5202 28.855 27.0885 27.1806 26.2251C25.5323 25.3356 24.2373 24.1059 23.2954 22.5361C22.3797 20.9402 21.9219 19.1088 21.9219 17.0419C21.9219 14.9751 22.3797 13.1698 23.2954 11.6262C24.2373 10.0826 25.5323 8.87914 27.1806 8.01576C28.855 7.15239 30.7911 6.7207 32.9888 6.7207C35.2126 6.7207 37.1486 7.15239 38.7969 8.01576C40.4713 8.87914 41.7664 10.0826 42.6821 11.6262C43.5978 13.1698 44.0556 14.9751 44.0556 17.0419C44.0556 19.1088 43.5847 20.9402 42.6428 22.5361C41.7271 24.1059 40.4321 25.3356 38.7577 26.2251C37.1094 27.0885 35.1864 27.5202 32.9888 27.5202ZM32.9888 22.8893C33.9045 22.8893 34.7286 22.6539 35.4611 22.1829C36.2199 21.712 36.8216 21.0449 37.2664 20.1815C37.7111 19.2919 37.9335 18.2324 37.9335 17.0027C37.9335 15.1975 37.4495 13.8108 36.4815 12.8428C35.5396 11.8486 34.3754 11.3515 32.9888 11.3515C31.6021 11.3515 30.4248 11.8486 29.4568 12.8428C28.5149 13.837 28.044 15.2236 28.044 17.0027C28.044 18.2324 28.2664 19.2919 28.7111 20.1815C29.1559 21.0449 29.7446 21.712 30.4771 22.1829C31.2358 22.6539 32.0731 22.8893 32.9888 22.8893Z" fill="#2F945A"/>
<path d="M10.6352 27.5202C8.54217 27.5202 6.69769 27.0754 5.10175 26.1859C3.50582 25.2963 2.25 24.0667 1.3343 22.4969C0.444768 20.9271 0 19.135 0 17.1204C0 15.1059 0.444768 13.3137 1.3343 11.744C2.25 10.1742 3.50582 8.94454 5.10175 8.05501C6.69769 7.16547 8.54217 6.7207 10.6352 6.7207C12.3881 6.7207 13.9579 7.04774 15.3445 7.70181C16.7573 8.32972 17.9085 9.20617 18.798 10.3312C19.7137 11.4562 20.3024 12.7774 20.564 14.2948H14.8736C14.5858 13.3268 14.0625 12.5943 13.3038 12.0972C12.5712 11.6001 11.7079 11.3515 10.7137 11.3515C9.77182 11.3515 8.94769 11.587 8.24129 12.0579C7.56106 12.5289 7.0378 13.196 6.67152 14.0594C6.30524 14.9228 6.1221 15.9431 6.1221 17.1204C6.1221 18.2978 6.30524 19.3181 6.67152 20.1815C7.0378 21.0449 7.56106 21.712 8.24129 22.1829C8.94769 22.6539 9.77182 22.8893 10.7137 22.8893C11.7079 22.8893 12.5712 22.6408 13.3038 22.1437C14.0625 21.6466 14.5858 20.914 14.8736 19.946H20.564C20.3024 21.4635 19.7137 22.7847 18.798 23.9097C17.9085 25.0347 16.7573 25.9242 15.3445 26.5783C13.9579 27.2062 12.3881 27.5202 10.6352 27.5202Z" fill="#2F945A"/>
<path d="M128.672 1.56445H130.856V27.1269H128.672V1.56445Z" fill="#4A4E69"/>
<path d="M116.677 7.77344C122.004 7.77344 126.373 12.1424 126.373 17.4695H125.109H124.151H109.204C109.204 21.6086 112.538 24.9428 116.677 24.9428C119.705 24.9428 122.311 23.1415 123.461 20.5738L125.454 21.4936C123.921 24.8278 120.586 27.1273 116.677 27.1273C111.35 27.1273 107.02 22.7966 107.02 17.4695C107.02 12.1424 111.35 7.77344 116.677 7.77344ZM116.677 9.99626C113.305 9.99626 110.469 12.2191 109.549 15.2467H123.844C122.886 12.2191 120.05 9.99626 116.677 9.99626Z" fill="#4A4E69"/>
<path d="M102.494 1.56445H104.717V17.4691C104.717 22.7962 100.348 27.1269 95.021 27.1269C89.6939 27.1269 85.3633 22.7962 85.3633 17.4691C85.3633 12.142 89.6939 7.77302 95.021 7.77302C98.0487 7.77302 100.731 9.1527 102.494 11.3372V1.56445ZM95.021 9.99584C90.882 9.99584 87.5478 13.3301 87.5478 17.4691C87.5478 21.6081 90.882 24.9424 95.021 24.9424C99.1601 24.9424 102.494 21.6081 102.494 17.4691C102.494 13.3301 99.1601 9.99584 95.021 9.99584Z" fill="#4A4E69"/>
</svg>
