<svg width="198" height="40" viewBox="0 0 198 40" fill="none" xmlns="http://www.w3.org/2000/svg">
<path fill-rule="evenodd" clip-rule="evenodd" d="M52.2031 32C56.6214 32 60.2031 28.4183 60.2031 24C60.2031 19.5817 56.6214 16 52.2031 16C47.7848 16 44.2031 19.5817 44.2031 24C44.2031 28.4183 47.7848 32 52.2031 32ZM52.2031 40C61.0397 40 68.2031 32.8366 68.2031 24C68.2031 15.1634 61.0397 8 52.2031 8C43.3666 8 36.2031 15.1634 36.2031 24C36.2031 32.8366 43.3666 40 52.2031 40Z" fill="#2F945A"/>
<path fill-rule="evenodd" clip-rule="evenodd" d="M102.8 31.6C107.108 31.6 110.6 28.1078 110.6 23.8C110.6 19.4922 107.108 16 102.8 16C98.4922 16 95 19.4922 95 23.8C95 28.1078 98.4922 31.6 102.8 31.6ZM102.8 39.6C111.526 39.6 118.6 32.5261 118.6 23.8C118.6 15.0739 111.526 8 102.8 8C94.0739 8 87 15.0739 87 23.8C87 32.5261 94.0739 39.6 102.8 39.6Z" fill="#2F945A"/>
<path fill-rule="evenodd" clip-rule="evenodd" d="M74.2031 40V0H81.4031V40H74.2031Z" fill="#2F945A"/>
<path fill-rule="evenodd" clip-rule="evenodd" d="M193.398 39.6V0H197.398V39.6H193.398Z" fill="#4A4E69"/>
<path fill-rule="evenodd" clip-rule="evenodd" d="M86.2031 14.4H70.2031V8H86.2031V14.4Z" fill="#2F945A"/>
<path fill-rule="evenodd" clip-rule="evenodd" d="M23.5313 28C22.1481 30.3912 19.5627 32 16.6016 32C12.1833 32 8.60156 28.4183 8.60156 24C8.60156 19.5817 12.1833 16 16.6016 16C19.5627 16 22.1481 17.6088 23.5313 20H32.0975C30.3213 13.0991 24.0569 8 16.6016 8C7.76501 8 0.601562 15.1634 0.601562 24C0.601562 32.8366 7.76501 40 16.6016 40C24.0569 40 30.3213 34.9009 32.0975 28H23.5313Z" fill="#2F945A"/>
<path d="M183.658 21.7042C183.658 18.8098 182.794 16.477 181.066 14.7058C179.338 12.8914 176.919 11.9842 173.808 11.9842C172.426 11.9842 171.087 12.265 169.791 12.8266C168.495 13.345 167.35 14.0578 166.356 14.965C165.406 15.8722 164.628 16.909 164.024 18.0754C163.462 19.2418 163.181 20.4514 163.181 21.7042H183.658ZM163.052 25.2034C163.181 26.7154 163.548 28.141 164.153 29.4802C164.758 30.8194 165.557 31.9858 166.551 32.9794C167.544 33.9298 168.689 34.6858 169.985 35.2474C171.281 35.809 172.685 36.0898 174.197 36.0898C176.487 36.0898 178.452 35.5714 180.094 34.5346C181.779 33.4546 183.053 32.2234 183.917 30.841L187.222 33.5626C185.408 35.8522 183.399 37.4938 181.196 38.4874C179.036 39.481 176.703 39.9778 174.197 39.9778C171.951 39.9778 169.856 39.589 167.912 38.8114C166.011 37.9906 164.369 36.8674 162.987 35.4418C161.604 34.0162 160.503 32.3314 159.682 30.3874C158.904 28.4434 158.516 26.3266 158.516 24.037C158.516 21.7474 158.904 19.6306 159.682 17.6866C160.46 15.7426 161.54 14.0578 162.922 12.6322C164.304 11.2066 165.924 10.105 167.782 9.32739C169.64 8.50659 171.648 8.09619 173.808 8.09619C176.098 8.09619 178.15 8.50659 179.964 9.32739C181.779 10.1482 183.291 11.2498 184.5 12.6322C185.753 13.9714 186.704 15.5698 187.352 17.4274C188 19.2418 188.324 21.1858 188.324 23.2594V25.2034H163.052Z" fill="#4A4E69"/>
<path fill-rule="evenodd" clip-rule="evenodd" d="M154.2 24C154.093 32.6339 147.061 39.6 138.402 39.6C129.675 39.6 122.602 32.5261 122.602 23.8C122.602 15.0739 129.675 8 138.402 8C143.094 8 147.308 10.0451 150.202 13.2926L150.202 0H154.202V23.8L154.202 24H154.2ZM150.202 23.8C150.202 30.317 144.919 35.6 138.402 35.6C131.885 35.6 126.602 30.317 126.602 23.8C126.602 17.283 131.885 12 138.402 12C144.919 12 150.202 17.283 150.202 23.8Z" fill="#4A4E69"/>
</svg>
