<svg width="20" height="24" viewBox="0 0 20 24" fill="none" xmlns="http://www.w3.org/2000/svg">
<path d="M3.7436 23.3333C3.07864 23.3333 2.5107 23.0978 2.03977 22.6269C1.56881 22.1559 1.33333 21.588 1.33333 20.923V3.99999H0V2.00002H5.99997V0.820557H14V2.00002H19.9999V3.99999H18.6666V20.923C18.6666 21.5965 18.4333 22.1666 17.9666 22.6333C17.4999 23.1 16.9298 23.3333 16.2563 23.3333H3.7436ZM16.6666 3.99999H3.3333V20.923C3.3333 21.0427 3.37177 21.141 3.4487 21.2179C3.52563 21.2949 3.62393 21.3333 3.7436 21.3333H16.2563C16.3589 21.3333 16.4529 21.2906 16.5384 21.2051C16.6239 21.1196 16.6666 21.0256 16.6666 20.923V3.99999ZM6.53847 18.6667H8.53843V6.66666H6.53847V18.6667ZM11.4615 18.6667H13.4615V6.66666H11.4615V18.6667Z" fill="#367AFF"/>
</svg>
