<svg width="20" height="20" viewBox="0 0 20 20" fill="none" xmlns="http://www.w3.org/2000/svg">
<path d="M9.2923 16.8077H10.6577V15.5962C11.4333 15.491 12.1355 15.1997 12.7644 14.7221C13.3932 14.2446 13.7077 13.5205 13.7077 12.55C13.7077 11.85 13.5012 11.2308 13.0884 10.6923C12.6756 10.1539 11.8692 9.66797 10.6692 9.23463C9.6179 8.87565 8.91982 8.56475 8.57495 8.30193C8.23008 8.03912 8.05765 7.67181 8.05765 7.20001C8.05765 6.72821 8.23426 6.34487 8.58748 6.05001C8.94068 5.75512 9.42818 5.60768 10.05 5.60768C10.5705 5.60768 10.9904 5.73044 11.3096 5.97596C11.6288 6.22147 11.8743 6.52948 12.0461 6.89998L13.2807 6.40386C13.0717 5.87181 12.731 5.41636 12.2586 5.03751C11.7862 4.65867 11.2692 4.44746 10.7077 4.40386V3.19233H9.3423V4.40386C8.48973 4.56796 7.83493 4.91379 7.37788 5.44136C6.92083 5.96892 6.6923 6.55514 6.6923 7.20001C6.6923 7.95129 6.91987 8.55577 7.375 9.01346C7.83012 9.47116 8.57178 9.88462 9.6 10.2539C10.6628 10.6436 11.3888 10.9933 11.7779 11.3029C12.167 11.6125 12.3615 12.0282 12.3615 12.55C12.3615 13.1769 12.1352 13.6324 11.6827 13.9164C11.2301 14.2003 10.7192 14.3423 10.15 14.3423C9.58716 14.3423 9.08363 14.1731 8.6394 13.8346C8.19517 13.4962 7.85382 13.0013 7.61535 12.35L6.35 12.8654C6.60897 13.6077 6.98108 14.1974 7.46635 14.6346C7.9516 15.0718 8.56025 15.3756 9.2923 15.5462V16.8077ZM9.99998 19.5C8.68716 19.5 7.45287 19.2503 6.2971 18.7509C5.14133 18.2516 4.13589 17.5743 3.28078 16.7192C2.42564 15.8641 1.7484 14.8586 1.24905 13.7029C0.749683 12.5471 0.5 11.3128 0.5 10C0.5 8.68719 0.749683 7.4529 1.24905 6.29713C1.7484 5.14137 2.42564 4.13592 3.28078 3.28081C4.13589 2.42567 5.14133 1.74843 6.2971 1.24908C7.45287 0.749715 8.68716 0.500031 9.99998 0.500031C11.3128 0.500031 12.5471 0.749715 13.7029 1.24908C14.8586 1.74843 15.8641 2.42567 16.7192 3.28081C17.5743 4.13592 18.2516 5.14137 18.7509 6.29713C19.2503 7.4529 19.5 8.68719 19.5 10C19.5 11.3128 19.2503 12.5471 18.7509 13.7029C18.2516 14.8586 17.5743 15.8641 16.7192 16.7192C15.8641 17.5743 14.8586 18.2516 13.7029 18.7509C12.5471 19.2503 11.3128 19.5 9.99998 19.5ZM9.99998 18C12.2333 18 14.125 17.225 15.675 15.675C17.225 14.125 18 12.2333 18 10C18 7.76667 17.225 5.87501 15.675 4.32501C14.125 2.77501 12.2333 2.00001 9.99998 2.00001C7.76664 2.00001 5.87498 2.77501 4.32498 4.32501C2.77498 5.87501 1.99998 7.76667 1.99998 10C1.99998 12.2333 2.77498 14.125 4.32498 15.675C5.87498 17.225 7.76664 18 9.99998 18Z" fill="#4A4E69"/>
</svg>
