<svg width="20" height="20" viewBox="0 0 20 20" fill="none" xmlns="http://www.w3.org/2000/svg">
<path d="M10 15.0513L4.30767 9.359L5.713 7.913L9 11.2V0H11V11.2L14.287 7.913L15.6923 9.359L10 15.0513ZM2.41033 20C1.73678 20 1.16667 19.7667 0.7 19.3C0.233333 18.8333 0 18.2632 0 17.5897V13.9743H2V17.5897C2 17.6923 2.04278 17.7863 2.12833 17.8717C2.21367 17.9572 2.30767 18 2.41033 18H17.5897C17.6923 18 17.7863 17.9572 17.8717 17.8717C17.9572 17.7863 18 17.6923 18 17.5897V13.9743H20V17.5897C20 18.2632 19.7667 18.8333 19.3 19.3C18.8333 19.7667 18.2632 20 17.5897 20H2.41033Z" fill="#367AFF"/>
</svg>
