<svg width="91" height="34" viewBox="0 0 91 34" fill="none" xmlns="http://www.w3.org/2000/svg">
<g clip-path="url(#clip0_1058_9091)">
<mask id="mask0_1058_9091" style="mask-type:luminance" maskUnits="userSpaceOnUse" x="0" y="0" width="91" height="34">
<path d="M0.104492 0H90.8957V34H0.104492V0Z" fill="white"/>
</mask>
<g mask="url(#mask0_1058_9091)">
<path d="M14.7212 18.562C16.1197 20.2003 18.7089 23.2185 22.1358 27.2103H25.074C25.1207 27.2103 25.1439 27.1916 25.1439 27.1543V26.7747L17.8126 17.9664C17.2223 17.2827 16.9271 16.8938 16.9271 16.8V16.7716C18.1261 16.7716 19.3822 16.4577 20.6944 15.83C21.3972 15.5487 22.1328 14.9348 22.9014 13.9881C23.4824 13.051 23.8011 12.25 23.8571 11.5845H26.3597C26.3784 11.5845 26.8185 10.9374 27.6812 9.64391C27.6812 9.61626 27.6577 9.59758 27.611 9.58787H23.7589C23.5806 8.75393 23.2433 8.04666 22.7467 7.46492H26.3597C26.4628 7.38085 26.9123 6.72477 27.7092 5.49703V5.46901H14.1854C14.1574 5.46901 13.7121 6.1109 12.8501 7.39505V7.46492H16.4208C17.0201 7.46492 17.6949 7.5871 18.4452 7.8307C19.4943 8.24356 20.2019 8.81969 20.5677 9.55984V9.58787H15.0022C15.0735 9.73395 15.1255 9.88938 15.1531 10.0575C15.2364 10.5585 15.1808 11.0678 14.9928 11.5845H20.9189C20.9189 11.8842 20.8629 12.1749 20.7508 12.4558C20.029 14.3774 18.187 15.3376 15.2256 15.3376C14.5975 15.3376 14.0494 15.3051 13.5809 15.239L13.5529 15.3096V17.1796C13.5529 17.1874 13.8189 17.5031 14.3196 18.0912L14.7212 18.562Z" fill="#595959"/>
<path d="M5.94321 16.3498C7.26959 16.0345 8.33293 15.6407 9.13398 15.1665C10.1913 14.5336 10.958 13.8353 11.434 13.0735C11.9097 12.312 12.1107 11.6175 12.0356 10.9902C11.9896 10.6091 11.8323 10.3143 11.564 10.1065C11.2943 9.89954 10.9371 9.82257 10.4921 9.87562C9.56477 9.98659 8.64042 10.5971 7.71757 11.7068C6.79508 12.8168 6.20363 14.3644 5.94321 16.3498ZM5.9279 17.0291C5.91818 17.4905 5.93088 17.872 5.96713 18.1716C6.0639 18.9809 6.43266 19.6344 7.07269 20.1347C7.71308 20.6334 8.4424 20.8345 9.2599 20.7369C9.91411 20.6589 10.5272 20.4504 11.1 20.1093C11.6717 19.7696 12.4981 19.0691 13.5786 18.0087L13.9127 18.37C12.0146 20.7631 10.0879 22.076 8.13416 22.3095C6.80779 22.4683 5.7579 22.1691 4.98598 21.4136C4.21295 20.6581 3.76684 19.7756 3.64653 18.7672C3.48475 17.4132 3.73695 15.9773 4.40387 14.46C5.0708 12.9423 5.98805 11.7154 7.1575 10.7783C8.32695 9.84088 9.57972 9.29314 10.9151 9.1336C11.8779 9.01853 12.6147 9.12874 13.1251 9.46426C13.6351 9.79866 13.9224 10.2351 13.9859 10.7712C14.0767 11.5259 13.863 12.284 13.3459 13.0458C12.6621 14.0401 11.5861 14.9061 10.1166 15.644C9.14332 16.1387 7.74708 16.6002 5.9279 17.0291Z" fill="#595959"/>
<path d="M70.5412 20.2917H67.5439L71.7121 5.43823H74.7094L70.5412 20.2917Z" fill="#595959"/>
<path d="M68.9852 5.90613C68.7774 5.62479 68.4572 5.48169 68.0219 5.48169H51.5439L50.7272 8.39224H53.7244V8.3885H65.7178L64.8469 11.4986H52.8535V11.4911H49.8562L47.3701 20.3535H50.3673L52.0386 14.4054H65.5194C65.9379 14.4054 66.3361 14.2645 66.7086 13.9809C67.0808 13.6977 67.3233 13.3465 67.4421 12.9299L69.1107 6.98068C69.2336 6.54802 69.191 6.18934 68.9852 5.90613Z" fill="#595959"/>
<path d="M45.6237 19.3648C45.457 19.9536 44.916 20.3594 44.2951 20.3594H28.8344C28.4141 20.3594 28.1006 20.2185 27.8951 19.9353C27.6892 19.6495 27.6452 19.3009 27.7632 18.8843L31.5354 5.48008H34.5341L31.1647 17.4507H43.1637L46.5312 5.48008H49.5326L45.6237 19.3648Z" fill="#595959"/>
<path d="M79.8859 5.4657L83.6797 12.9117L75.7031 20.3558L79.8859 5.4657Z" fill="#008B44"/>
<path d="M77.225 5.4657L81.0173 12.9117L73.0366 20.3558L77.225 5.4657Z" fill="#F37920"/>
<path d="M27.7052 24.2481H28.0004C28.3788 24.2481 28.4364 24.062 28.4364 23.6002C28.4364 22.9781 28.2376 22.9781 27.8401 22.9781H27.7052V24.2481ZM26.5249 22.0672H27.7885C29.0842 22.0672 29.6167 22.2854 29.6167 23.626C29.6167 24.3762 29.4306 25.159 28.3721 25.159H27.7052V27.1923H26.5249V22.0672Z" fill="#595959"/>
<path d="M31.2716 24.107H31.5604C31.9643 24.107 31.9643 23.8376 31.9643 23.5039C31.9643 23.1449 31.9643 22.9394 31.5025 22.9394H31.2716V24.107ZM30.0913 22.067H31.6501C32.7018 22.067 33.1446 22.3816 33.1446 23.3052C33.1446 23.9082 33.0613 24.2994 32.4325 24.4918V24.5045C32.8494 24.5882 33.1192 24.8893 33.1192 25.3194V26.2236C33.1192 26.5636 33.1061 27.0257 33.241 27.1924H32.0734C31.9385 27.0257 31.9385 26.5636 31.9385 26.2236V25.4027C31.9385 25.1075 31.8234 24.9794 31.4898 24.9794H31.2716V27.1924H30.0913V22.067Z" fill="#595959"/>
<path d="M33.6577 22.0671H36.2813V23.055H34.838V24.075H36.1016V25.0628H34.838V26.2046H36.3389V27.1921H33.6577V22.0671Z" fill="#595959"/>
<path d="M38.045 24.2481H38.3402C38.7187 24.2481 38.7762 24.062 38.7762 23.6002C38.7762 22.9781 38.5774 22.9781 38.1799 22.9781H38.045V24.2481ZM36.8647 22.0672H38.1284C39.4241 22.0672 39.9565 22.2854 39.9565 23.626C39.9565 24.3762 39.7704 25.159 38.7123 25.159H38.045V27.1923H36.8647V22.0672Z" fill="#595959"/>
<path d="M41.336 25.3706H41.926L41.6502 22.8624H41.6375L41.336 25.3706ZM40.8615 22.067H42.4266L43.3887 27.1924H42.1505L42.0418 26.2815H41.2142L41.0924 27.1924H39.9121L40.8615 22.067Z" fill="#595959"/>
<path d="M43.7349 22.0671H44.9151V27.1921H43.7349V22.0671Z" fill="#595959"/>
<path d="M46.6598 26.32H46.8458C47.1601 26.32 47.3398 26.1851 47.3398 25.8839V23.3758C47.3398 23.0743 47.1601 22.9394 46.8458 22.9394H46.6598V26.32ZM45.4795 22.067H47.237C48.2443 22.067 48.5201 22.651 48.5201 23.4401V25.8772C48.5201 26.8139 47.8595 27.1924 47.237 27.1924H45.4795V22.067Z" fill="#595959"/>
<path d="M51.74 24.5495H52.2403V24.1004C52.2403 23.9596 52.2403 23.7668 51.9904 23.7668C51.74 23.7668 51.74 23.9596 51.74 24.1004V24.5495ZM50.6367 24.1774C50.6367 23.6965 50.887 23.0102 51.9904 23.0102C53.0933 23.0102 53.3436 23.6965 53.3436 24.1774V25.3065H51.74V26.1853C51.74 26.3265 51.74 26.5189 51.9904 26.5189C52.2403 26.5189 52.2403 26.3265 52.2403 26.1853V25.6723H53.3436V26.1083C53.3436 26.5895 53.0933 27.2755 51.9904 27.2755C50.887 27.2755 50.6367 26.5895 50.6367 26.1083V24.1774Z" fill="#595959"/>
<path d="M53.8184 24.5494H55.5053V25.4988H53.8184V24.5494Z" fill="#595959"/>
<path d="M55.7744 22.0671H56.9805L57.3011 25.7107H57.3138L57.7053 22.0671H58.892L58.0195 27.1921H56.5568L55.7744 22.0671Z" fill="#595959"/>
<path d="M60.38 25.8966C60.38 26.0315 60.38 26.3647 60.72 26.3647C61.06 26.3647 61.06 26.0315 61.06 25.8966V23.363C61.06 23.1897 61.06 22.8945 60.72 22.8945C60.38 22.8945 60.38 23.1897 60.38 23.363V25.8966ZM59.1997 23.4654C59.1997 22.4648 59.8412 21.9836 60.72 21.9836C61.5988 21.9836 62.2403 22.4648 62.2403 23.4654V25.7938C62.2403 26.7047 61.6563 27.2756 60.72 27.2756C59.7833 27.2756 59.1997 26.7047 59.1997 25.7938V23.4654Z" fill="#595959"/>
<path d="M62.7661 22.0672H63.9464V25.8068C63.9464 26.0825 63.9464 26.3265 64.2864 26.3265C64.6264 26.3265 64.6264 26.0825 64.6264 25.8068V22.0672H65.8067V25.7941C65.8067 26.705 65.2227 27.2759 64.2864 27.2759C63.3497 27.2759 62.7661 26.705 62.7661 25.7941V22.0672Z" fill="#595959"/>
<path d="M66.3325 23.4655C66.3325 22.4649 66.974 21.9837 67.8528 21.9837C68.7316 21.9837 69.3731 22.4649 69.3731 23.4655V23.9404H68.1928V23.3628C68.1928 23.1898 68.1928 22.8946 67.8528 22.8946C67.5128 22.8946 67.5128 23.1898 67.5128 23.3628V25.8967C67.5128 26.0312 67.5128 26.3649 67.8528 26.3649C68.1928 26.3649 68.1928 26.0312 68.1928 25.8967V25.1461H69.3731V25.794C69.3731 26.7049 68.7891 27.2758 67.8528 27.2758C66.9161 27.2758 66.3325 26.7049 66.3325 25.794V23.4655Z" fill="#595959"/>
<path d="M69.8989 22.0671H71.0792V23.9849H71.7592V22.0671H72.9395V27.1921H71.7592V25.0113H71.0792V27.1921H69.8989V22.0671Z" fill="#595959"/>
<path d="M73.4653 22.0671H76.0889V23.055H74.6456V24.075H75.9092V25.0628H74.6456V26.2046H76.1465V27.1921H73.4653V22.0671Z" fill="#595959"/>
<path d="M77.8531 24.107H78.142C78.5458 24.107 78.5458 23.8376 78.5458 23.5039C78.5458 23.1449 78.5458 22.9394 78.084 22.9394H77.8531V24.107ZM76.6729 22.067H78.2316C79.2834 22.067 79.7261 22.3816 79.7261 23.3052C79.7261 23.9082 79.6428 24.2994 79.014 24.4918V24.5045C79.431 24.5882 79.7003 24.8893 79.7003 25.3194V26.2236C79.7003 26.5636 79.6876 27.0257 79.8225 27.1924H78.6549C78.5201 27.0257 78.5201 26.5636 78.5201 26.2236V25.4027C78.5201 25.1075 78.405 24.9794 78.0713 24.9794H77.8531V27.1924H76.6729V22.067Z" fill="#595959"/>
</g>
</g>
<defs>
<clipPath id="clip0_1058_9091">
<rect width="90.7912" height="34" fill="white" transform="translate(0.104492)"/>
</clipPath>
</defs>
</svg>
