<svg width="65" height="24" viewBox="0 0 65 24" fill="none" xmlns="http://www.w3.org/2000/svg">
<g clip-path="url(#clip0_4681_56580)">
<mask id="mask0_4681_56580" style="mask-type:luminance" maskUnits="userSpaceOnUse" x="-1" y="0" width="66" height="25">
<path d="M-0.00390625 0.00292778H64.084V24.0029H-0.00390625V0.00292778Z" fill="white"/>
</mask>
<g mask="url(#mask0_4681_56580)">
<path d="M10.3254 13.1057C11.3126 14.2622 13.1403 16.3927 15.5593 19.2104H17.6333C17.6663 19.2104 17.6826 19.1973 17.6826 19.1709V18.9029L12.5076 12.6854C12.0909 12.2027 11.8825 11.9282 11.8825 11.862V11.8419C12.7289 11.8419 13.6155 11.6204 14.5418 11.1773C15.0379 10.9787 15.5572 10.5454 16.0997 9.87709C16.5098 9.21564 16.7347 8.65019 16.7743 8.18047H18.5408C18.554 8.18047 18.8647 7.72368 19.4736 6.81063C19.4736 6.79111 19.457 6.77792 19.4241 6.77107H16.7049C16.5791 6.18241 16.341 5.68315 15.9905 5.27252H18.5408C18.6136 5.21318 18.9309 4.75006 19.4934 3.88342V3.86364H9.94723C9.92745 3.86364 9.61308 4.31674 9.00464 5.2232V5.27252H11.5252C11.9482 5.27252 12.4245 5.35876 12.9541 5.53071C13.6947 5.82214 14.1942 6.22882 14.4524 6.75129V6.77107H10.5238C10.5741 6.87419 10.6108 6.9839 10.6303 7.10258C10.6891 7.45625 10.6498 7.81573 10.5172 8.18047H14.7003C14.7003 8.39199 14.6607 8.59718 14.5816 8.79551C14.0721 10.1519 12.7718 10.8297 10.6815 10.8297C10.2381 10.8297 9.85123 10.8068 9.52051 10.7601L9.50073 10.8099V12.1299C9.50073 12.1355 9.68851 12.3583 10.0419 12.7734L10.3254 13.1057Z" fill="#8E8E8E"/>
<path d="M4.14367 11.5433C5.07993 11.3207 5.83053 11.0427 6.39598 10.708C7.14235 10.2613 7.68354 9.76834 8.01954 9.23059C8.35527 8.69309 8.49716 8.20281 8.44415 7.75999C8.41171 7.49098 8.30068 7.28289 8.11132 7.13626C7.9209 6.99015 7.66877 6.93582 7.35466 6.97327C6.70006 7.0516 6.04758 7.48254 5.39615 8.26584C4.74499 9.0494 4.32749 10.1418 4.14367 11.5433ZM4.13285 12.0228C4.126 12.3485 4.13496 12.6178 4.16055 12.8293C4.22885 13.4005 4.48916 13.8618 4.94094 14.2149C5.39299 14.567 5.9078 14.7089 6.48485 14.6401C6.94666 14.585 7.37945 14.4378 7.78376 14.197C8.18727 13.9573 8.77066 13.4628 9.53338 12.7143L9.76916 12.9693C8.42938 14.6585 7.06929 15.5853 5.69022 15.7501C4.75395 15.8622 4.01285 15.651 3.46798 15.1177C2.9223 14.5844 2.6074 13.9615 2.52248 13.2497C2.40828 12.2939 2.5863 11.2803 3.05707 10.2093C3.52784 9.13802 4.17532 8.2719 5.00081 7.61045C5.82631 6.94874 6.71061 6.5621 7.65321 6.44949C8.33286 6.36826 8.85294 6.44606 9.21321 6.68289C9.57321 6.91894 9.77602 7.22698 9.82086 7.60544C9.88494 8.13819 9.73409 8.67331 9.36907 9.21107C8.88644 9.91287 8.12688 10.5242 7.0896 11.0451C6.40257 11.3943 5.41699 11.72 4.13285 12.0228Z" fill="#8E8E8E"/>
<path d="M49.7375 14.3262H47.6218L50.5641 3.84134H52.6798L49.7375 14.3262Z" fill="#8E8E8E"/>
<path d="M48.6295 4.17245C48.4829 3.97386 48.2568 3.87285 47.9496 3.87285H36.318L35.7415 5.92735H37.8572V5.92472H46.3231L45.7084 8.12006H37.2424V8.11478H35.1267L33.3718 14.3706H35.4875L36.6672 10.1719H46.1831C46.4785 10.1719 46.7596 10.0725 47.0226 9.87232C47.2852 9.67241 47.4564 9.4245 47.5403 9.13043L48.7181 4.93096C48.8049 4.62555 48.7748 4.37236 48.6295 4.17245Z" fill="#8E8E8E"/>
<path d="M32.1497 13.672C32.0321 14.0876 31.6502 14.374 31.2119 14.374H20.2985C20.0018 14.374 19.7805 14.2746 19.6354 14.0747C19.4901 13.8729 19.459 13.6269 19.5423 13.3328L22.205 3.87099H24.3218L21.9434 12.3208H30.4133L32.7903 3.87099H34.9089L32.1497 13.672Z" fill="#8E8E8E"/>
<path d="M56.3204 3.8609L58.9984 9.1169L53.3679 14.3716L56.3204 3.8609Z" fill="#008B44"/>
<path d="M54.4377 3.86041L57.1146 9.11641L51.4812 14.3711L54.4377 3.86041Z" fill="#F37920"/>
<path d="M19.4979 17.1195H19.7063C19.9735 17.1195 20.0141 16.9882 20.0141 16.6622C20.0141 16.2231 19.8738 16.2231 19.5931 16.2231H19.4979V17.1195ZM18.6648 15.5801H19.5568C20.4714 15.5801 20.8472 15.7341 20.8472 16.6804C20.8472 17.21 20.7159 17.7625 19.9687 17.7625H19.4979V19.1978H18.6648V15.5801Z" fill="#8E8E8E"/>
<path d="M22.0175 17.0198H22.2213C22.5064 17.0198 22.5064 16.8297 22.5064 16.5941C22.5064 16.3407 22.5064 16.1956 22.1805 16.1956H22.0175V17.0198ZM21.1843 15.5798H22.2846C23.0271 15.5798 23.3396 15.8019 23.3396 16.4538C23.3396 16.8795 23.2808 17.1556 22.8369 17.2915V17.3004C23.1312 17.3595 23.3216 17.5721 23.3216 17.8756V18.5139C23.3216 18.7539 23.3124 19.0801 23.4076 19.1978H22.5834C22.4882 19.0801 22.4882 18.7539 22.4882 18.5139V17.9345C22.4882 17.7261 22.407 17.6356 22.1715 17.6356H22.0175V19.1978H21.1843V15.5798Z" fill="#8E8E8E"/>
<path d="M23.7156 15.5801H25.5675V16.2774H24.5487V16.9974H25.4407V17.6947H24.5487V18.5007H25.6081V19.1978H23.7156V15.5801Z" fill="#8E8E8E"/>
<path d="M26.7987 17.1195H27.0071C27.2742 17.1195 27.3149 16.9882 27.3149 16.6622C27.3149 16.2231 27.1745 16.2231 26.8939 16.2231H26.7987V17.1195ZM25.9656 15.5801H26.8575C27.7722 15.5801 28.148 15.7341 28.148 16.6804C28.148 17.21 28.0167 17.7625 27.2698 17.7625H26.7987V19.1978H25.9656V15.5801Z" fill="#8E8E8E"/>
<path d="M29.1269 17.9118H29.5434L29.3487 16.1413H29.3398L29.1269 17.9118ZM28.792 15.5798H29.8968L30.5759 19.1978H29.7019L29.6251 18.5548H29.0409L28.955 19.1978H28.1218L28.792 15.5798Z" fill="#8E8E8E"/>
<path d="M30.8008 15.5801H31.6339V19.1978H30.8008V15.5801Z" fill="#8E8E8E"/>
<path d="M32.8925 18.5819H33.0238C33.2456 18.5819 33.3725 18.4867 33.3725 18.2741V16.5037C33.3725 16.2909 33.2456 16.1956 33.0238 16.1956H32.8925V18.5819ZM32.0593 15.5798H33.2999C34.011 15.5798 34.2056 15.992 34.2056 16.5491V18.2694C34.2056 18.9306 33.7393 19.1978 33.2999 19.1978H32.0593V15.5798Z" fill="#8E8E8E"/>
<path d="M36.467 17.3321H36.8202V17.0151C36.8202 16.9157 36.8202 16.7796 36.6437 16.7796C36.467 16.7796 36.467 16.9157 36.467 17.0151V17.3321ZM35.6882 17.0694C35.6882 16.73 35.8649 16.2455 36.6437 16.2455C37.4223 16.2455 37.599 16.73 37.599 17.0694V17.8665H36.467V18.4868C36.467 18.5865 36.467 18.7223 36.6437 18.7223C36.8202 18.7223 36.8202 18.5865 36.8202 18.4868V18.1247H37.599V18.4324C37.599 18.7721 37.4223 19.2563 36.6437 19.2563C35.8649 19.2563 35.6882 18.7721 35.6882 18.4324V17.0694Z" fill="#8E8E8E"/>
<path d="M37.9258 17.3323H39.1166V18.0024H37.9258V17.3323Z" fill="#8E8E8E"/>
<path d="M39.2937 15.5786H40.145L40.3713 18.1506H40.3803L40.6567 15.5786H41.4943L40.8785 19.1963H39.846L39.2937 15.5786Z" fill="#8E8E8E"/>
<path d="M42.5604 18.2829C42.5604 18.3781 42.5604 18.6134 42.8004 18.6134C43.0404 18.6134 43.0404 18.3781 43.0404 18.2829V16.4945C43.0404 16.3721 43.0404 16.1638 42.8004 16.1638C42.5604 16.1638 42.5604 16.3721 42.5604 16.4945V18.2829ZM41.7273 16.5668C41.7273 15.8605 42.1801 15.5208 42.8004 15.5208C43.4207 15.5208 43.8736 15.8605 43.8736 16.5668V18.2104C43.8736 18.8534 43.4614 19.2563 42.8004 19.2563C42.1393 19.2563 41.7273 18.8534 41.7273 18.2104V16.5668Z" fill="#8E8E8E"/>
<path d="M44.2468 15.5796H45.08V18.2193C45.08 18.414 45.08 18.5862 45.32 18.5862C45.56 18.5862 45.56 18.414 45.56 18.2193V15.5796H46.3931V18.2104C46.3931 18.8534 45.9809 19.2563 45.32 19.2563C44.6588 19.2563 44.2468 18.8534 44.2468 18.2104V15.5796Z" fill="#8E8E8E"/>
<path d="M46.7781 16.5668C46.7781 15.8605 47.2309 15.5208 47.8512 15.5208C48.4715 15.5208 48.9244 15.8605 48.9244 16.5668V16.902H48.0912V16.4942C48.0912 16.3721 48.0912 16.1638 47.8512 16.1638C47.6112 16.1638 47.6112 16.3721 47.6112 16.4942V18.2829C47.6112 18.3778 47.6112 18.6134 47.8512 18.6134C48.0912 18.6134 48.0912 18.3778 48.0912 18.2829V17.7531H48.9244V18.2104C48.9244 18.8534 48.5121 19.2563 47.8512 19.2563C47.19 19.2563 46.7781 18.8534 46.7781 18.2104V16.5668Z" fill="#8E8E8E"/>
<path d="M49.282 15.5801H50.1151V16.9338H50.5951V15.5801H51.4283V19.1978H50.5951V17.6583H50.1151V19.1978H49.282V15.5801Z" fill="#8E8E8E"/>
<path d="M51.8054 15.5786H53.6574V16.2759H52.6386V16.9959H53.5305V17.6933H52.6386V18.4992H53.698V19.1963H51.8054V15.5786Z" fill="#8E8E8E"/>
<path d="M54.8964 17.0198H55.1002C55.3853 17.0198 55.3853 16.8297 55.3853 16.5941C55.3853 16.3407 55.3853 16.1956 55.0594 16.1956H54.8964V17.0198ZM54.0632 15.5798H55.1635C55.906 15.5798 56.2185 15.8019 56.2185 16.4538C56.2185 16.8795 56.1597 17.1556 55.7158 17.2915V17.3004C56.0101 17.3595 56.2003 17.5721 56.2003 17.8756V18.5139C56.2003 18.7539 56.1913 19.0801 56.2865 19.1978H55.4624C55.3671 19.0801 55.3671 18.7539 55.3671 18.5139V17.9345C55.3671 17.7261 55.2859 17.6356 55.0504 17.6356H54.8964V19.1978H54.0632V15.5798Z" fill="#8E8E8E"/>
</g>
</g>
<defs>
<clipPath id="clip0_4681_56580">
<rect width="64.0879" height="24" fill="white"/>
</clipPath>
</defs>
</svg>
