<svg width="328" height="200" viewBox="0 0 328 200" fill="none" xmlns="http://www.w3.org/2000/svg">
<g clip-path="url(#clip0_4081_26871)">
<rect width="328" height="200" rx="10" fill="#EAF4EF"/>
<path d="M133.976 292.141C133.976 292.141 186.639 300.151 231.431 263.061C276.223 225.97 292.505 166.084 307.009 117.842C321.513 69.5997 302.338 26.9401 261.745 13.538C221.152 0.1359 200.317 35.186 148.008 46.5807C95.6981 57.9754 80.4396 53.2916 41.3092 90.7098C2.17875 128.128 4.84211 198.491 47.0623 242.954C89.2824 287.418 133.976 292.141 133.976 292.141Z" fill="#9FCEB3"/>
<path opacity="0.7" d="M133.976 292.141C133.976 292.141 186.639 300.151 231.431 263.061C276.223 225.97 292.505 166.084 307.009 117.842C321.513 69.5997 302.338 26.9401 261.745 13.538C221.152 0.1359 200.317 35.186 148.008 46.5807C95.6981 57.9754 80.4396 53.2916 41.3092 90.7098C2.17875 128.128 4.84211 198.491 47.0623 242.954C89.2824 287.418 133.976 292.141 133.976 292.141Z" fill="#EAF4EF"/>
<path d="M280.828 85.5276H16.5449V103.443H280.828V85.5276Z" fill="#1A5132"/>
<path d="M35.9492 -3.34729V90.6903" stroke="#BFDECC" stroke-width="1.312" stroke-miterlimit="10"/>
<path d="M73.5312 -3.34729V90.6903" stroke="#BFDECC" stroke-width="1.312" stroke-miterlimit="10"/>
<path d="M111.107 -3.34729V90.6903" stroke="#BFDECC" stroke-width="1.312" stroke-miterlimit="10"/>
<path d="M148.689 -3.34729V90.6903" stroke="#BFDECC" stroke-width="1.312" stroke-miterlimit="10"/>
<path d="M186.266 -3.34729V90.6903" stroke="#BFDECC" stroke-width="1.312" stroke-miterlimit="10"/>
<path d="M223.848 -3.34729V90.6903" stroke="#BFDECC" stroke-width="1.312" stroke-miterlimit="10"/>
<path d="M261.422 -3.34729V90.6903" stroke="#1A5132" stroke-width="1.312" stroke-miterlimit="10"/>
<path d="M17.1602 20.7672H280.21" stroke="#BFDECC" stroke-width="1.312" stroke-miterlimit="10"/>
<path d="M17.1602 56.5914H280.21" stroke="#BFDECC" stroke-width="1.312" stroke-miterlimit="10"/>
<path d="M320.53 -3.78687H253.611V103.436H320.53V-3.78687Z" fill="#1A5132"/>
<path d="M262.295 80.9355V61.636" stroke="#9FCEB3" stroke-width="0.656" stroke-linecap="round" stroke-linejoin="round"/>
<path d="M258.365 80.8699H266.145L264.197 102.144H260.307L258.365 80.8699Z" fill="#EAF4EF" stroke="#1A5132" stroke-width="0.656" stroke-linecap="round" stroke-linejoin="round"/>
<path d="M262.151 79.1839C261.524 78.3154 260.735 77.576 259.828 77.006C258.731 76.5308 257.548 76.2852 256.352 76.2844C256.352 76.2844 257.513 80.4959 262.151 79.1839Z" fill="#9FCEB3"/>
<path d="M262.295 79.1839C262.922 78.3154 263.71 77.576 264.617 77.006C265.717 76.5304 266.902 76.2849 268.101 76.2844C268.101 76.2844 266.939 80.4959 262.295 79.1839Z" fill="#9FCEB3"/>
<path d="M262.151 73.9689C261.524 73.1004 260.735 72.3609 259.828 71.7909C258.731 71.3157 257.548 71.0701 256.352 71.0693C256.352 71.0693 257.513 75.2481 262.151 73.9689Z" fill="#9FCEB3"/>
<path d="M262.295 73.9689C262.922 73.1004 263.71 72.3609 264.617 71.7909C265.717 71.3153 266.902 71.0698 268.101 71.0693C268.101 71.0693 266.939 75.2481 262.295 73.9689Z" fill="#9FCEB3"/>
<path d="M262.151 68.747C261.524 67.8785 260.735 67.139 259.828 66.5691C258.732 66.0896 257.548 65.8417 256.352 65.8409C256.352 65.8409 257.513 70.0525 262.151 68.747Z" fill="#9FCEB3"/>
<path d="M262.295 68.747C262.922 67.8785 263.71 67.139 264.617 66.5691C265.716 66.0895 266.902 65.8416 268.101 65.8409C268.101 65.8409 266.939 70.0525 262.295 68.747Z" fill="#9FCEB3"/>
<path d="M262.151 63.5252C261.526 62.6551 260.737 61.9153 259.828 61.3473C258.732 60.8678 257.548 60.6199 256.352 60.6191C256.352 60.6191 257.513 64.8307 262.151 63.5252Z" fill="#9FCEB3"/>
<path d="M262.295 63.5252C262.92 62.6551 263.709 61.9153 264.617 61.3473C265.716 60.8677 266.902 60.6198 268.101 60.6191C268.101 60.6191 266.939 64.8307 262.295 63.5252Z" fill="#9FCEB3"/>
<path d="M262.294 61.636C261.636 60.7366 261.216 59.6848 261.074 58.5791C261.147 57.3846 261.462 56.2174 261.999 55.1482C261.999 55.1482 265.555 58.0805 262.294 61.636Z" fill="#9FCEB3"/>
<path d="M283.398 0.306519H260.504V31.1648H283.398V0.306519Z" fill="#9FCEB3" stroke="#1A5132" stroke-width="0.656" stroke-linecap="round" stroke-linejoin="round"/>
<path d="M280.073 4.78699H263.824V26.6908H280.073V4.78699Z" fill="#EAF4EF" stroke="#1A5132" stroke-width="0.656" stroke-linecap="round" stroke-linejoin="round"/>
<path d="M310.951 12.3375H292.32V37.4492H310.951V12.3375Z" fill="#9FCEB3" stroke="#1A5132" stroke-width="0.656" stroke-linecap="round" stroke-linejoin="round"/>
<path d="M308.24 15.9784H295.021V33.7954H308.24V15.9784Z" fill="#EAF4EF" stroke="#1A5132" stroke-width="0.656" stroke-linecap="round" stroke-linejoin="round"/>
<path d="M291.336 40.0077H275.408V61.472H291.336V40.0077Z" fill="#9FCEB3" stroke="#1A5132" stroke-width="0.656" stroke-linecap="round" stroke-linejoin="round"/>
<path d="M289.027 43.1237H277.725V58.356H289.027V43.1237Z" fill="#EAF4EF" stroke="#1A5132" stroke-width="0.656" stroke-linecap="round" stroke-linejoin="round"/>
<path d="M143.501 52.7865H122.792C122.567 52.7882 122.351 52.8788 122.193 53.0386C122.034 53.1983 121.945 53.4143 121.945 53.6393C121.945 53.8637 122.034 54.079 122.193 54.2377C122.352 54.3964 122.567 54.4855 122.792 54.4855H144.321V53.6393C144.323 53.4182 144.239 53.2052 144.085 53.0458C143.932 52.8864 143.722 52.7933 143.501 52.7865Z" fill="#EAF4EF" stroke="#1A5132" stroke-width="0.656" stroke-linecap="round" stroke-linejoin="round"/>
<path d="M134.743 31.5387H108.378C107.846 31.5387 107.414 31.9704 107.414 32.503V50.1166C107.414 50.6492 107.846 51.0809 108.378 51.0809H134.743C135.276 51.0809 135.707 50.6492 135.707 50.1166V32.503C135.707 31.9704 135.276 31.5387 134.743 31.5387Z" fill="#1A5132" stroke="#1A5132" stroke-width="0.656" stroke-linecap="round" stroke-linejoin="round"/>
<path d="M130.087 36.7539H111.915C111.383 36.7539 110.951 37.1856 110.951 37.7182V50.1232C110.951 50.6558 111.383 51.0875 111.915 51.0875H130.087C130.619 51.0875 131.051 50.6558 131.051 50.1232V37.7182C131.051 37.1856 130.619 36.7539 130.087 36.7539Z" fill="#EAF4EF" stroke="#1A5132" stroke-width="0.656" stroke-linecap="round" stroke-linejoin="round"/>
<path d="M121.899 45.6886H119.917C119.385 45.6886 118.953 46.1203 118.953 46.6529V54.5905C118.953 55.1231 119.385 55.5548 119.917 55.5548H121.899C122.431 55.5548 122.863 55.1231 122.863 54.5905V46.6529C122.863 46.1203 122.431 45.6886 121.899 45.6886Z" fill="#EAF4EF" stroke="#1A5132" stroke-width="0.656" stroke-linecap="round" stroke-linejoin="round"/>
<path d="M162.512 55.9287L169.905 28.2521C170.16 27.3033 170.747 26.4777 171.56 25.9261C172.373 25.3745 173.357 25.1337 174.333 25.2476L185.262 25.6609C185.795 25.7243 186.311 25.8922 186.779 26.1551C187.248 26.4179 187.66 26.7705 187.992 27.1928C188.324 27.615 188.569 28.0985 188.714 28.6157C188.859 29.1329 188.901 29.6736 188.837 30.2069L185.649 56.073L162.512 55.9287Z" fill="#EAF4EF" stroke="#1A5132" stroke-width="0.656" stroke-linecap="round" stroke-linejoin="round"/>
<path d="M166.094 36.3077H159.108L147.602 41.6017L148.159 46.4495L157.632 44.757L157.855 56.4797H172.53L175.121 49.2637L178.401 55.8237C178.426 55.8751 178.463 55.9198 178.509 55.954C178.555 55.9883 178.608 56.0112 178.664 56.0208C178.721 56.0304 178.778 56.0265 178.833 56.0093C178.888 55.9922 178.937 55.9623 178.978 55.9221L190.242 44.534L188.661 43.0645L180.323 47.4597L176.262 38.1052L166.094 36.3077Z" fill="#9FCEB3" stroke="#1A5132" stroke-width="0.656" stroke-linecap="round" stroke-linejoin="round"/>
<path d="M163.162 36.3077C163.162 36.3077 160.459 42.2773 160.459 46.1084C160.459 49.9394 162.827 54.6757 162.827 54.6757L166.881 55.4629C168.853 52.8456 170.167 49.7925 170.712 46.561C171.123 43.4982 171.238 40.4028 171.053 37.318C171.053 37.318 168.233 36.1897 163.162 36.3077Z" fill="#9FCEB3" stroke="#1A5132" stroke-width="0.656" stroke-linecap="round" stroke-linejoin="round"/>
<path d="M164.742 37.1999C163.992 40.2359 163.502 43.3303 163.279 46.4495C163.049 50.8447 162.826 56.4798 162.826 56.4798H166.434C166.434 56.4798 168.232 43.4057 168.914 40.3619C169.596 37.318 168.232 35.291 164.742 37.1999Z" fill="#EAF4EF" stroke="#1A5132" stroke-width="0.656" stroke-linecap="round" stroke-linejoin="round"/>
<path d="M162.689 25.3395C162.689 25.3395 160.242 24.8803 159.967 22.8664C159.691 20.8524 162.67 18.5171 166.527 17.6512C170.384 16.7852 174.642 20.4129 175.206 23.7454C175.77 27.0779 177.023 31.2304 176.236 32.9294C175.448 34.6284 171.775 35.2451 167.865 35.783C163.955 36.3209 161.863 34.3267 161.791 32.9688C161.718 31.6108 162.689 25.3395 162.689 25.3395Z" fill="#1A5132" stroke="#1A5132" stroke-width="0.656" stroke-linecap="round" stroke-linejoin="round"/>
<path d="M166.093 35.7436C166.093 35.7436 164.964 35.7436 164.63 36.3078C164.295 36.8719 162.006 40.8998 162.006 40.8998L166.171 40.3356L170.796 42.0281C170.796 42.0281 170.908 37.6329 170.455 36.6161C170.002 35.5993 166.093 35.7436 166.093 35.7436Z" fill="#EAF4EF" stroke="#1A5132" stroke-width="0.656" stroke-linecap="round" stroke-linejoin="round"/>
<path d="M165.759 33.4871C165.759 33.4871 165.529 38.5579 165.529 39.6863C165.537 39.9779 165.641 40.2587 165.826 40.4843C166.011 40.71 166.265 40.8676 166.55 40.9323C166.834 40.997 167.132 40.9651 167.396 40.8416C167.661 40.7181 167.876 40.5101 168.009 40.2504C168.796 39.0106 169.472 33.4871 169.472 33.4871H165.759Z" fill="#EAF4EF" stroke="#1A5132" stroke-width="0.656" stroke-linecap="round" stroke-linejoin="round"/>
<path d="M156.176 24.6966L159.784 32.9228L163.28 31.5715L159.784 23.7979L156.176 24.6966Z" fill="#1A5132" stroke="#1A5132" stroke-width="0.656" stroke-linecap="round" stroke-linejoin="round"/>
<path d="M166.054 21.8102C166.323 22.0726 164.289 24.2439 162.715 24.6966C161.954 24.9131 162.715 28.4161 162.485 29.879C162.242 31.4731 165.562 34.8449 166.9 34.6612C169.813 34.2611 170.928 33.3492 171.315 32.0372C171.452 31.447 171.553 30.8489 171.617 30.2463C171.617 30.2463 173.079 31.2566 173.309 29.7937C173.539 28.3308 172.745 27.8782 172.745 27.8782C172.745 27.8782 166.316 26.7039 166.054 21.8102Z" fill="#EAF4EF" stroke="#1A5132" stroke-width="0.656" stroke-linecap="round" stroke-linejoin="round"/>
<path d="M188.635 43.0646L190.098 39.2336L192.623 38.1381L192.695 38.1118V39.1221L191.226 40.0273H193.817L195.287 38.4464L195.851 38.7875L194.493 42.3889L190.216 44.5341L188.635 43.0646Z" fill="#EAF4EF" stroke="#1A5132" stroke-width="0.656" stroke-linecap="round" stroke-linejoin="round"/>
<path d="M157.644 33.1524L155.952 28.4161L158.431 25.7134L159.087 26.1595C159.087 26.1595 158.523 28.5276 158.523 28.8687C159.022 30.0987 159.587 31.3009 160.216 32.4702L156.28 37.318L154.594 35.514L157.644 33.1524Z" fill="#EAF4EF" stroke="#1A5132" stroke-width="0.656" stroke-linecap="round" stroke-linejoin="round"/>
<path d="M154.6 35.514L146.196 41.418C145.806 41.6908 145.493 42.0603 145.288 42.4904C145.084 42.9205 144.994 43.3964 145.029 43.8715L145.075 44.5275C145.124 45.1749 145.401 45.7838 145.858 46.2453C146.315 46.7067 146.921 46.9908 147.567 47.0465C148.059 47.0886 148.553 46.9975 148.998 46.7828C149.442 46.5681 149.82 46.2378 150.093 45.8264L156.286 37.3705L154.6 35.514Z" fill="#9FCEB3" stroke="#1A5132" stroke-width="0.656" stroke-linecap="round" stroke-linejoin="round"/>
<path d="M104.352 54.3937H218.037V100.314H104.352C104.096 100.314 103.851 100.212 103.67 100.031C103.489 99.8504 103.388 99.6051 103.388 99.3494V55.3974C103.382 55.2674 103.403 55.1378 103.449 55.0162C103.495 54.8947 103.566 54.7836 103.656 54.6899C103.746 54.5961 103.854 54.5216 103.973 54.4707C104.093 54.4198 104.222 54.3936 104.352 54.3937Z" fill="#EAF4EF" stroke="#1A5132" stroke-width="0.656" stroke-linecap="round" stroke-linejoin="round"/>
<path d="M181.398 49.7427H192.97L191.324 54.479H179.752L181.398 49.7427Z" fill="#1A5132" stroke="#1A5132" stroke-width="0.656" stroke-linecap="round" stroke-linejoin="round"/>
<path d="M201.512 49.7427H181.701L183.348 54.479H203.159L201.512 49.7427Z" fill="#EAF4EF" stroke="#1A5132" stroke-width="0.656" stroke-linecap="round" stroke-linejoin="round"/>
<path d="M187.553 51.3761L187.69 51.7303C187.867 52.1698 187.749 52.3863 187.323 52.3863H187.12L187.533 53.4097H187.1L186.018 50.6873H186.674C186.874 50.6937 187.068 50.764 187.226 50.8879C187.384 51.0117 187.498 51.1827 187.553 51.3761ZM186.601 51.094L186.969 52.0189H187.172C187.303 52.0189 187.356 51.9533 187.277 51.7565L187.113 51.3498C187.034 51.153 186.936 51.094 186.798 51.094H186.601Z" fill="#1A5132"/>
<path d="M189.466 53.4294C189.39 53.3278 189.33 53.2149 189.289 53.0948L189.119 52.6684C189.02 52.4126 188.895 52.3208 188.699 52.3208H188.554L188.994 53.4294H188.567L187.479 50.707H188.135C188.335 50.699 188.532 50.7597 188.693 50.879C188.854 50.9983 188.969 51.1691 189.02 51.363L189.105 51.5795C189.215 51.855 189.195 52.0387 189.046 52.1305C189.169 52.1831 189.278 52.2621 189.367 52.3619C189.455 52.4617 189.521 52.5798 189.558 52.7078L189.729 53.1276C189.768 53.2487 189.827 53.362 189.906 53.4622L189.466 53.4294ZM188.062 51.094L188.397 51.9272H188.567C188.725 51.9272 188.797 51.8616 188.705 51.6451L188.6 51.3761C188.522 51.1793 188.423 51.094 188.272 51.094H188.062Z" fill="#1A5132"/>
<path d="M189.932 51.855H190.516L190.674 52.2421H190.09L190.405 53.0358H191.146L191.304 53.4294H190.136L189.047 50.707H190.241L190.392 51.0941H189.657L189.932 51.855Z" fill="#1A5132"/>
<path d="M191.043 50.6742C191.243 50.6769 191.437 50.7414 191.6 50.8588C191.762 50.9762 191.883 51.1409 191.948 51.3302V51.4155H191.555L191.509 51.304C191.437 51.1072 191.325 51.035 191.187 51.035C191.05 51.035 191.004 51.1072 191.082 51.304C191.305 51.8681 192.184 51.96 192.499 52.7472C192.67 53.1867 192.552 53.436 192.132 53.436C191.926 53.4333 191.727 53.3651 191.563 53.2412C191.399 53.1173 191.279 52.9442 191.22 52.7472L191.155 52.5832H191.555L191.627 52.7734C191.706 52.9702 191.824 53.0424 191.955 53.0424C192.086 53.0424 192.152 52.9702 192.073 52.7734C191.85 52.2158 190.971 52.1174 190.663 51.3302C190.512 50.9235 190.63 50.6742 191.043 50.6742Z" fill="#1A5132"/>
<path d="M191.934 50.707H192.36L193.449 53.4294H193.023L191.934 50.707Z" fill="#1A5132"/>
<path d="M192.674 50.707H193.33C193.531 50.7047 193.728 50.7673 193.891 50.8854C194.054 51.0035 194.175 51.171 194.235 51.363L194.786 52.7406C194.963 53.1801 194.845 53.3966 194.419 53.3966H193.763L192.674 50.707ZM193.258 51.094L194.032 53.062H194.274C194.412 53.062 194.465 52.9964 194.386 52.7996L193.822 51.3827C193.743 51.1924 193.632 51.1203 193.494 51.1203L193.258 51.094Z" fill="#1A5132"/>
<path d="M195.149 51.855H195.733L195.891 52.2421H195.307L195.622 53.0358H196.363L196.52 53.4294H195.353L194.264 50.707H195.431L195.582 51.0941H194.834L195.149 51.855Z" fill="#1A5132"/>
<path d="M196.375 51.4548L197.162 53.4228H196.801L195.719 50.7004H196.25L197.346 52.3273L196.69 50.7004H197.07L198.113 53.4294H197.674L196.375 51.4548Z" fill="#1A5132"/>
<path d="M197.229 50.707H198.541L198.698 51.0941H198.252L199.183 53.4294H198.77L197.832 51.0941H197.386L197.229 50.707Z" fill="#1A5132"/>
<path d="M102.429 54.3937H219.958V56.6962H102.429C102.173 56.6962 101.928 56.5946 101.747 56.4138C101.566 56.2329 101.465 55.9877 101.465 55.7319V55.358C101.465 55.1022 101.566 54.857 101.747 54.6761C101.928 54.4953 102.173 54.3937 102.429 54.3937Z" fill="#1A5132"/>
<path d="M208.731 168.813L226.214 173.077C226.399 173.135 226.57 173.233 226.713 173.365C226.855 173.496 226.967 173.658 227.04 173.838C227.113 174.019 227.145 174.213 227.134 174.407C227.122 174.601 227.068 174.79 226.975 174.96L212.484 201.915L218.611 207.052L212.097 205.667L206.96 203.575L207.721 200.341L216.977 177.997C217.023 177.876 217.038 177.746 217.023 177.618C217.007 177.489 216.96 177.367 216.887 177.26C216.813 177.154 216.715 177.067 216.6 177.007C216.486 176.947 216.359 176.915 216.229 176.915H196.799C196.799 176.915 192.863 173.248 196.667 168.269L208.731 168.813Z" fill="#1A5132" stroke="#1A5132" stroke-width="0.656" stroke-linecap="round" stroke-linejoin="round"/>
<path d="M202.933 202.046V184.406H200.447V182.045H206.863V184.406H204.376V201.81L216.427 204.946V205.864H215.115L204.376 203.844V205.864H202.933V204.014L193.106 205.864H191.801V204.946L202.933 202.046Z" fill="#1A5132"/>
<path d="M209.873 182.176H190.751L188.927 179.132C188.244 178.003 187.833 176.731 187.727 175.416C187.621 174.101 187.823 172.779 188.317 171.555L189.472 168.682" stroke="#1A5132" stroke-width="1.312" stroke-linecap="round" stroke-linejoin="round"/>
<path d="M210.529 151.127L214.465 156.172L224.678 157.09C224.678 157.09 228.929 155.122 229.848 155.122C230.766 155.122 233.292 159.144 233.292 159.144H224.2L213.638 160.869L208.816 157.648L210.529 151.127Z" fill="#EAF4EF" stroke="#1A5132" stroke-width="0.656" stroke-linecap="round" stroke-linejoin="round"/>
<path d="M210.267 148.772L212.707 163.86C212.904 165.074 212.996 168.59 211.592 169.259C211.323 169.365 211.034 169.409 210.746 169.391C208.81 169.391 206.941 168.833 205.038 168.833H197.868C197.426 168.833 196.992 168.705 196.621 168.464C196.249 168.223 195.956 167.879 195.776 167.475L195.644 167.18C195.442 166.724 195.394 166.215 195.507 165.73C196.353 162.115 200.027 148.202 200.84 146.706C201.752 145.007 204.901 143.826 204.901 143.826L210.267 148.772Z" fill="#9FCEB3" stroke="#1A5132" stroke-width="0.656" stroke-linecap="round" stroke-linejoin="round"/>
<path d="M213.002 143.4L210.909 144.331L209.394 147.611L205.202 143.538L206.363 140.861C206.363 140.861 204.848 138.644 205.202 136.663C205.556 134.682 209.276 132.589 211.257 134.452C213.238 136.315 213.002 143.4 213.002 143.4Z" fill="#EAF4EF" stroke="#1A5132" stroke-width="0.656" stroke-linecap="round" stroke-linejoin="round"/>
<path d="M213.783 134.288C213.783 134.288 215.167 133.98 215.016 132.753C214.865 131.526 213.783 132.904 213.783 131.526C213.783 130.149 215.016 129.683 214.249 128.902C213.481 128.122 211.021 127.675 210.411 128.751C209.801 129.827 209.945 130.437 209.486 130.437C209.027 130.437 207.8 129.361 206.862 130.746C205.924 132.13 206.252 132.589 206.252 132.589C206.252 132.589 202.723 133.967 202.723 136.269C202.723 138.572 206.35 140.809 206.35 140.809C206.35 140.809 208.705 141.025 209.781 139.956C210.857 138.887 211.165 137.037 211.467 136.269C211.769 135.502 213.783 134.288 213.783 134.288Z" fill="#1A5132" stroke="#1A5132" stroke-width="0.656" stroke-linecap="round" stroke-linejoin="round"/>
<path d="M213.238 133.271L214.281 136.413V137.227L215.777 138.722V138.762L214.629 140.139L214.74 143.17L212.116 143.36C211.495 143.405 210.876 143.248 210.351 142.914C209.825 142.58 209.421 142.085 209.197 141.504L208.574 139.903C208.253 139.772 207.98 139.545 207.793 139.252C207.606 138.96 207.515 138.616 207.531 138.27C207.531 136.958 207.413 136.525 208.108 136.525C208.621 136.542 209.129 136.619 209.624 136.754L210.326 136.407L210.208 135.239L211.257 134.426L211.375 133.265L213.238 133.271Z" fill="#EAF4EF" stroke="#1A5132" stroke-width="0.656" stroke-linecap="round" stroke-linejoin="round"/>
<path d="M205.55 141.832L211.71 147.854L210.529 151.128L203.982 143.793L205.55 141.832Z" fill="#9FCEB3" stroke="#1A5132" stroke-width="0.656" stroke-linecap="round" stroke-linejoin="round"/>
<path d="M195.205 181.527H215.246C216.115 181.527 216.82 180.822 216.82 179.952V178.122C216.82 177.252 216.115 176.548 215.246 176.548H195.205C194.336 176.548 193.631 177.252 193.631 178.122V179.952C193.631 180.822 194.336 181.527 195.205 181.527Z" fill="#EAF4EF" stroke="#1A5132" stroke-width="0.656" stroke-linecap="round" stroke-linejoin="round"/>
<path d="M191.177 174.516L193.252 174.246C193.827 174.172 194.233 173.645 194.158 173.071L192.288 158.654C192.214 158.079 191.687 157.674 191.112 157.748L189.037 158.018C188.462 158.092 188.057 158.619 188.131 159.194L190.001 173.61C190.075 174.185 190.602 174.59 191.177 174.516Z" fill="#EAF4EF" stroke="#1A5132" stroke-width="0.656" stroke-linecap="round" stroke-linejoin="round"/>
<path d="M205.55 147.067L211.559 157.747L222.843 157.287C222.843 157.287 227.69 156.238 228.478 156.107C229.265 155.975 231.489 158.599 231.489 158.599H223.617L209.322 162.857L200.434 152.046" fill="#9FCEB3"/>
<path d="M205.55 147.067L211.559 157.747L222.843 157.287C222.843 157.287 227.69 156.238 228.478 156.107C229.265 155.975 231.489 158.599 231.489 158.599H223.617L209.322 162.857L200.434 152.046" stroke="#1A5132" stroke-width="0.656" stroke-linecap="round" stroke-linejoin="round"/>
<path d="M222.863 158.776L222.574 157.281H222.843C222.843 157.281 227.691 156.231 228.478 156.1C229.265 155.969 231.489 158.593 231.489 158.593H223.617L222.863 158.776Z" fill="#EAF4EF" stroke="#1A5132" stroke-width="0.656" stroke-linecap="round" stroke-linejoin="round"/>
<path d="M285.063 176.272C285.063 176.272 297.206 198.74 297.586 199.639C297.951 200.667 298.138 201.749 298.137 202.84C298.137 202.84 297.999 203.116 297.442 203.116C296.884 203.116 291.183 205.621 289.655 205.621H286.874L288.96 203.811L291.321 201.187C291.321 201.187 292.633 201.489 292.633 198.983C292.633 196.477 277.834 176.567 277.276 175.039C276.719 173.51 279.782 172.539 280.753 172.677C281.724 172.815 284.512 173.235 284.512 173.235L285.063 176.272Z" fill="#EAF4EF" stroke="#1A5132" stroke-width="0.656" stroke-linecap="round" stroke-linejoin="round"/>
<path d="M295.777 167.573L274.956 173.53C274.765 173.585 274.59 173.683 274.443 173.816C274.296 173.949 274.18 174.113 274.106 174.297C274.031 174.48 274 174.679 274.013 174.876C274.026 175.074 274.083 175.267 274.182 175.439L290.608 200.544L283.956 206.507L288.548 207.078L292.163 205.766L294.203 204.073L293.442 200.839L284.179 178.47C284.133 178.349 284.117 178.219 284.133 178.091C284.149 177.963 284.196 177.84 284.269 177.734C284.343 177.628 284.441 177.542 284.556 177.483C284.67 177.423 284.798 177.393 284.927 177.394H306.903C306.903 177.394 311.816 172.69 308.018 167.711L295.777 167.573Z" fill="#EAF4EF" stroke="#1A5132" stroke-width="0.656" stroke-linecap="round" stroke-linejoin="round"/>
<path d="M288.167 143.4L290.26 144.331L291.775 147.611L295.967 143.538L294.806 140.848C294.806 140.848 296.314 138.631 295.967 136.65C295.619 134.668 291.893 132.576 289.912 134.439C287.931 136.302 288.167 143.4 288.167 143.4Z" fill="#EAF4EF" stroke="#1A5132" stroke-width="0.656" stroke-linecap="round" stroke-linejoin="round"/>
<path d="M287.931 133.271L286.888 136.413V137.227L285.393 138.722V138.762L286.541 140.139L286.429 143.17L289.053 143.36C289.674 143.406 290.294 143.25 290.821 142.917C291.347 142.584 291.753 142.091 291.979 141.51L292.595 139.91C292.918 139.78 293.192 139.553 293.38 139.26C293.568 138.968 293.661 138.624 293.645 138.276C293.645 136.964 293.763 136.531 293.061 136.531C292.551 136.549 292.045 136.626 291.552 136.761L290.851 136.413L290.969 135.246L289.919 134.432L289.801 133.271H287.931Z" fill="#EAF4EF" stroke="#1A5132" stroke-width="0.656" stroke-linecap="round" stroke-linejoin="round"/>
<path d="M291.743 150.688L286.692 157.117L272.109 156.769C272.109 156.769 267.746 154.932 267.058 155.28C266.369 155.628 264.873 158.147 264.873 158.147L268.324 157.576C269.09 157.916 269.901 158.148 270.731 158.265C271.321 158.238 271.902 158.12 272.456 157.917L290.136 161.479L295.305 156.31L291.743 150.688Z" fill="#EAF4EF" stroke="#1A5132" stroke-width="0.656" stroke-linecap="round" stroke-linejoin="round"/>
<path d="M291.046 149.179C291.046 149.179 290.213 157.241 291.046 158.363C291.879 159.485 295.356 160.725 295.5 161.145C295.645 161.564 295.5 166.707 295.776 167.127C296.534 167.815 297.428 168.336 298.4 168.656H307.157C307.157 168.656 308.555 167.541 308.555 166.57C308.555 165.599 305.531 161.978 305.531 161.978C305.531 161.978 304.1 150.996 302.71 148.202C301.319 145.407 295.586 143.695 295.113 143.518C294.641 143.341 291.046 149.179 291.046 149.179Z" fill="#9FCEB3" stroke="#1A5132" stroke-width="0.656" stroke-linecap="round" stroke-linejoin="round"/>
<path d="M295.612 141.832L289.459 147.854L290.64 151.128L297.187 143.793L295.612 141.832Z" fill="#9FCEB3" stroke="#1A5132" stroke-width="0.656" stroke-linecap="round" stroke-linejoin="round"/>
<path d="M295.612 147.067L289.61 157.747L278.32 157.287C278.32 157.287 273.479 156.238 272.691 156.107C271.904 155.975 269.674 158.599 269.674 158.599H277.546L291.84 162.857L300.729 152.046" fill="#9FCEB3"/>
<path d="M295.612 147.067L289.61 157.747L278.32 157.287C278.32 157.287 273.479 156.238 272.691 156.107C271.904 155.975 269.674 158.599 269.674 158.599H277.546L291.84 162.857L300.729 152.046" stroke="#1A5132" stroke-width="0.656" stroke-linecap="round" stroke-linejoin="round"/>
<path d="M278.307 158.776L278.595 157.281H278.32C278.32 157.281 273.479 156.231 272.691 156.1C271.904 155.969 269.674 158.593 269.674 158.593H277.546L278.307 158.776Z" fill="#EAF4EF" stroke="#1A5132" stroke-width="0.656" stroke-linecap="round" stroke-linejoin="round"/>
<path d="M286.016 133.186C286.016 133.186 292.831 141.169 295.475 141.248C300.198 141.386 299.227 134.157 297.699 132.346C296.754 131.198 286.875 127.203 286.016 133.186Z" fill="#1A5132" stroke="#1A5132" stroke-width="0.656" stroke-linecap="round" stroke-linejoin="round"/>
<path d="M293.133 136.256C293.133 136.256 293.829 139.595 292.72 141.957C291.611 144.318 289.794 144.043 290.214 144.463C290.634 144.882 293.271 147.244 295.777 145.991C298.283 144.738 299.136 139.72 299.136 137.634" fill="#1A5132"/>
<path d="M293.133 136.256C293.133 136.256 293.829 139.595 292.72 141.957C291.611 144.318 289.794 144.043 290.214 144.463C290.634 144.882 293.271 147.244 295.777 145.991C298.283 144.738 299.136 139.72 299.136 137.634" stroke="#1A5132" stroke-width="0.656" stroke-linecap="round" stroke-linejoin="round"/>
<path d="M308.017 167.259L295.776 167.121L276.752 172.566C278.274 173.392 281.764 175.721 284.224 177.394C284.348 177.131 287.819 177.709 288.16 177.709L306.902 176.928C306.902 176.928 311.815 172.238 308.017 167.259Z" fill="#1A5132"/>
<path d="M305.609 202.046V184.406H308.095V182.045H301.68V184.406H304.166V201.81L292.115 204.946V205.864H293.421L304.166 203.844V205.864H305.609V204.014L315.429 205.864H316.741V204.946L305.609 202.046Z" fill="#1A5132"/>
<path d="M298.664 182.176H317.793L319.643 179.132C320.329 178.005 320.742 176.732 320.849 175.417C320.956 174.101 320.754 172.779 320.26 171.555L319.098 168.682" stroke="#1A5132" stroke-width="1.312" stroke-linecap="round" stroke-linejoin="round"/>
<path d="M313.338 176.541H293.297C292.428 176.541 291.723 177.246 291.723 178.115V179.946C291.723 180.815 292.428 181.52 293.297 181.52H313.338C314.207 181.52 314.912 180.815 314.912 179.946V178.115C314.912 177.246 314.207 176.541 313.338 176.541Z" fill="#EAF4EF" stroke="#1A5132" stroke-width="0.656" stroke-linecap="round" stroke-linejoin="round"/>
<path d="M318.726 158.171L316.654 157.899C316.08 157.824 315.554 158.228 315.479 158.802L313.589 173.193C313.514 173.767 313.918 174.294 314.492 174.369L316.563 174.641C317.137 174.716 317.664 174.312 317.739 173.738L319.629 159.347C319.704 158.773 319.3 158.247 318.726 158.171Z" fill="#EAF4EF" stroke="#1A5132" stroke-width="0.655015" stroke-linecap="round" stroke-linejoin="round"/>
<path d="M245.709 159.432L243.604 148.123H242.528L244.634 159.432H240.475V160.207H244.778H245.854L245.709 159.432Z" fill="#EAF4EF" stroke="#1A5132" stroke-width="0.492" stroke-linecap="round" stroke-linejoin="round"/>
<path d="M239.525 155.083L240.7 155.306L242.694 139.766L241.52 139.536L239.525 155.083Z" fill="#EAF4EF" stroke="#1A5132" stroke-width="0.492" stroke-linecap="round" stroke-linejoin="round"/>
<path d="M242.527 140.579L243.603 142.37L241.931 154.578L240.697 155.306L242.527 140.579Z" fill="#EAF4EF" stroke="#1A5132" stroke-width="0.492" stroke-linecap="round" stroke-linejoin="round"/>
<path d="M237.787 159.564H227.789V160.141H237.787V159.564Z" fill="#EAF4EF" stroke="#1A5132" stroke-width="0.492" stroke-linecap="round" stroke-linejoin="round"/>
<path d="M258.523 159.432L260.635 148.123H261.711L259.605 159.432H263.764V160.207H259.461H258.385L258.523 159.432Z" fill="#EAF4EF" stroke="#1A5132" stroke-width="0.492" stroke-linecap="round" stroke-linejoin="round"/>
<path d="M264.715 155.083L263.541 155.306L261.547 139.766L262.721 139.536L264.715 155.083Z" fill="#EAF4EF" stroke="#1A5132" stroke-width="0.492" stroke-linecap="round" stroke-linejoin="round"/>
<path d="M261.711 140.579L260.635 142.37L262.308 154.578L263.541 155.306L261.711 140.579Z" fill="#EAF4EF" stroke="#1A5132" stroke-width="0.492" stroke-linecap="round" stroke-linejoin="round"/>
<path d="M266.452 160.141H276.449V159.564H266.452V160.141Z" fill="#EAF4EF" stroke="#1A5132" stroke-width="0.492" stroke-linecap="round" stroke-linejoin="round"/>
<path d="M286.579 162.607H223.406V207.071H286.579V162.607Z" fill="#EAF4EF" stroke="#1A5132" stroke-width="0.656" stroke-linecap="round" stroke-linejoin="round"/>
<path d="M250.768 176.692H220.172V207.078H250.768V176.692Z" fill="#EAF4EF" stroke="#1A5132" stroke-width="0.656" stroke-linecap="round" stroke-linejoin="round"/>
<path d="M290.627 176.692H260.031V207.078H290.627V176.692Z" fill="#EAF4EF" stroke="#1A5132" stroke-width="0.656" stroke-linecap="round" stroke-linejoin="round"/>
<path d="M287.793 159.905H222.193V162.817H287.793V159.905Z" fill="#EAF4EF" stroke="#1A5132" stroke-width="0.656" stroke-linecap="round" stroke-linejoin="round"/>
<path d="M115.757 157.786H102.847C101.397 157.786 100.223 158.961 100.223 160.41V171.706C100.223 173.155 101.397 174.33 102.847 174.33H115.757C117.206 174.33 118.381 173.155 118.381 171.706V160.41C118.381 158.961 117.206 157.786 115.757 157.786Z" fill="#EAF4EF" stroke="#1A5132" stroke-width="0.656" stroke-linecap="round" stroke-linejoin="round"/>
<path d="M111.06 134.019C111.06 134.019 113.684 132.11 115.757 134.314C117.83 136.518 116.341 137.83 116.196 139.739C116.052 141.648 119.719 142.672 118.984 145.309C118.249 147.946 115.461 148.248 115.612 149.415C115.763 150.583 117.075 150.727 115.461 152.039C113.848 153.351 110.036 153.214 108.127 150.727C106.218 148.241 108.862 146.181 109.439 143.833C110.017 141.484 108.127 138.847 107.97 136.938C107.813 135.029 111.06 134.019 111.06 134.019Z" fill="#1A5132" stroke="#1A5132" stroke-width="0.656" stroke-linecap="round" stroke-linejoin="round"/>
<path d="M117.076 165.612L115.384 150.124C115.384 150.124 107.4 147.218 105.052 147.218C104.461 147.218 97.2256 150.124 97.2256 150.124L93.998 159.537L94.1161 159.695C94.3791 160.037 94.7085 160.323 95.0845 160.534C95.4606 160.746 95.8755 160.879 96.3045 160.926C96.7334 160.974 97.1674 160.934 97.5805 160.809C97.9935 160.684 98.3771 160.477 98.7081 160.2L99.0361 159.931L100.971 165.73L111.953 165.52L113.219 165.612H117.076Z" fill="#EAF4EF" stroke="#1A5132" stroke-width="0.656" stroke-linecap="round" stroke-linejoin="round"/>
<path d="M98.8379 159.603L99.1856 153.378" stroke="#1A5132" stroke-width="0.656" stroke-linecap="round" stroke-linejoin="round"/>
<path d="M112.556 164.444L112.09 153.968" stroke="#1A5132" stroke-width="0.656" stroke-linecap="round" stroke-linejoin="round"/>
<path d="M105.787 144.725C105.787 144.725 103.438 145.309 102.848 146.339C102.258 147.369 101.09 152.794 101.09 152.794L106.226 150.589L110.333 153.968C110.333 153.968 111.356 149.271 110.622 147.362C109.887 145.453 107.25 144.128 105.787 144.725Z" fill="#EAF4EF" stroke="#1A5132" stroke-width="0.656" stroke-linecap="round" stroke-linejoin="round"/>
<path d="M105.195 143.551C105.195 143.551 104.611 152.938 105.635 152.354C106.658 151.77 109.453 143.826 109.453 143.826L105.195 143.551Z" fill="#EAF4EF" stroke="#1A5132" stroke-width="0.656" stroke-linecap="round" stroke-linejoin="round"/>
<path d="M102.44 137.994C102.44 137.994 101.029 136.682 100.793 138.617C100.557 140.553 102.761 140.973 102.761 140.973L102.44 137.994Z" fill="#EAF4EF" stroke="#1A5132" stroke-width="0.656" stroke-linecap="round" stroke-linejoin="round"/>
<path d="M111.349 137.994C111.349 137.994 112.759 136.682 112.995 138.617C113.232 140.553 111.027 140.973 111.027 140.973L111.349 137.994Z" fill="#EAF4EF" stroke="#1A5132" stroke-width="0.656" stroke-linecap="round" stroke-linejoin="round"/>
<path d="M111.768 137.738C111.768 141.018 109.63 145.164 106.992 145.164C104.355 145.164 102.217 141.032 102.217 137.738C102.217 134.445 104.355 131.762 106.992 131.762C109.63 131.762 111.768 134.439 111.768 137.738Z" fill="#EAF4EF" stroke="#1A5132" stroke-width="0.656" stroke-linecap="round" stroke-linejoin="round"/>
<path d="M110.516 133.724C110.21 134.122 110.027 134.602 109.99 135.103C109.952 135.604 110.062 136.105 110.306 136.545C110.434 136.884 110.628 137.194 110.877 137.458C111.126 137.721 111.424 137.933 111.756 138.08C111.756 137.968 111.756 137.85 111.756 137.738C111.776 136.303 111.342 134.898 110.516 133.724Z" fill="#1A5132" stroke="#1A5132" stroke-width="0.656" stroke-linecap="round" stroke-linejoin="round"/>
<path d="M110.502 133.698C110.113 133.119 109.591 132.642 108.981 132.306C108.371 131.969 107.689 131.783 106.992 131.762C104.368 131.762 102.217 134.439 102.217 137.738C105.003 137.066 107.627 135.842 109.931 134.137C110.122 133.999 110.312 133.848 110.502 133.698Z" fill="#1A5132" stroke="#1A5132" stroke-width="0.656" stroke-linecap="round" stroke-linejoin="round"/>
<path d="M96.0112 156.375C96.0112 156.375 93.5906 155.772 92.5803 156.579C91.8947 157.239 91.4064 158.077 91.1699 158.999H95.001L96.6147 158.396C96.6147 158.396 96.8181 159.4 98.0317 158.593C99.2453 157.786 96.0112 156.375 96.0112 156.375Z" fill="#EAF4EF" stroke="#1A5132" stroke-width="0.656" stroke-linecap="round" stroke-linejoin="round"/>
<path d="M107.072 203.037V185.39H109.558V181.789H103.136V185.39H105.629V202.801L93.5781 205.936V206.855H94.8836L105.629 204.834V206.855H107.072V205.005L116.892 206.855H118.204V205.936L107.072 203.037Z" fill="#1A5132"/>
<path d="M115.836 177.531H95.7951C94.9256 177.531 94.2207 178.236 94.2207 179.106V180.936C94.2207 181.806 94.9256 182.511 95.7951 182.511H115.836C116.705 182.511 117.41 181.806 117.41 180.936V179.106C117.41 178.236 116.705 177.531 115.836 177.531Z" fill="#EAF4EF" stroke="#1A5132" stroke-width="0.656" stroke-linecap="round" stroke-linejoin="round"/>
<path d="M100.945 165.73C100.945 165.73 98.7738 171.142 97.0092 171.417C89.1372 172.67 86.8609 176.088 86.8609 176.088C86.6318 176.915 86.7062 177.797 87.0708 178.574C87.7268 179.604 95.1462 201.981 95.1462 201.981L91.0068 206.946H92.6599C92.6599 206.946 95.9793 206.33 96.5959 205.293C97.2126 204.257 98.0457 203.43 98.2556 202.597C98.4655 201.764 98.8788 201.561 98.0457 200.734C97.5888 200.257 97.0208 199.901 96.3926 199.698L94.2212 179.106L102.192 201.147C102.192 201.147 105.334 206.133 105.629 206.855C105.924 207.576 108.404 206.533 106.941 203.844C106.245 202.411 105.258 201.139 104.042 200.111L100.519 178.365L112.95 177.538C113.523 177.307 114.01 176.905 114.344 176.385C114.677 175.866 114.841 175.255 114.813 174.638C114.813 172.356 111.914 165.52 111.914 165.52L100.945 165.73Z" fill="#1A5132" stroke="#1A5132" stroke-width="0.656" stroke-linecap="round" stroke-linejoin="round"/>
<path d="M112.557 164.464L103.275 170.112L99.4436 170.722L97.4297 172.336C97.4297 172.336 101.864 172.9 103.078 172.493C103.746 172.292 104.363 171.95 104.888 171.49L115.181 167.856C115.181 167.856 117.195 166.038 116.998 165.028C116.801 164.018 112.557 163.841 112.557 164.464Z" fill="#EAF4EF" stroke="#1A5132" stroke-width="0.656" stroke-linecap="round" stroke-linejoin="round"/>
<path d="M87.0701 178.575C87.7261 179.604 94.6469 199.822 94.6469 199.822L93.3349 204.959L91.0258 206.927H92.6789C92.6789 206.927 95.9983 206.31 96.6149 205.274C97.2316 204.237 98.0647 203.411 98.2746 202.578C98.4845 201.744 98.8978 201.541 98.0647 200.715C97.6078 200.238 97.0398 199.882 96.4116 199.678L94.2402 179.086L102.211 201.128C102.211 201.128 105.353 206.113 105.648 206.835C105.943 207.557 108.423 206.514 106.96 203.824C106.264 202.391 105.277 201.12 104.061 200.091L100.538 178.345L101.043 178.312C101.043 178.312 100.525 176.239 99.9212 176.069C90.5207 173.399 86.8668 176.069 86.8668 176.069C86.6307 176.901 86.7029 177.791 87.0701 178.575Z" fill="#EAF4EF" stroke="#1A5132" stroke-width="0.656" stroke-linecap="round" stroke-linejoin="round"/>
<path d="M94.2211 179.106C94.2211 179.106 92.6402 175.918 92.7648 175.294L94.2211 179.106Z" fill="#EAF4EF"/>
<path d="M94.2211 179.106C94.2211 179.106 92.6402 175.918 92.7648 175.294" stroke="#1A5132" stroke-width="0.656" stroke-linecap="round" stroke-linejoin="round"/>
<path d="M152.723 168.984L136.979 173.622C136.789 173.677 136.613 173.775 136.466 173.908C136.319 174.04 136.204 174.205 136.129 174.389C136.055 174.572 136.023 174.77 136.036 174.968C136.049 175.166 136.107 175.358 136.205 175.531L148.945 202.099L143.624 207.104L149.345 205.884L154.481 203.791L153.72 200.544L144.464 178.201C144.418 178.08 144.402 177.95 144.418 177.822C144.434 177.694 144.481 177.571 144.554 177.465C144.628 177.359 144.726 177.273 144.841 177.214C144.955 177.154 145.083 177.124 145.212 177.125H164.656C164.656 177.125 168.592 173.458 164.787 168.479L152.723 168.984Z" fill="#1A5132" stroke="#1A5132" stroke-width="0.656" stroke-linecap="round" stroke-linejoin="round"/>
<path d="M152.847 148.261L142.535 154.322L139.865 157.084L141.538 158.304L151.949 156.835L152.847 148.261Z" fill="#EAF4EF" stroke="#1A5132" stroke-width="0.492" stroke-linecap="round" stroke-linejoin="round"/>
<path d="M144.215 147.703C144.215 147.703 138.796 155.234 138.783 155.942C138.77 156.651 140.095 157.76 140.948 158.225C141.801 158.691 143.428 157.445 143.428 157.445L145.966 148.759L144.215 147.703Z" fill="#EAF4EF" stroke="#1A5132" stroke-width="0.492" stroke-linecap="round" stroke-linejoin="round"/>
<path d="M151.181 148.936L150.433 166.602C150.41 167.202 150.625 167.787 151.03 168.229C151.244 168.467 151.505 168.657 151.796 168.787C152.088 168.917 152.404 168.984 152.723 168.984H163.586C164.029 168.982 164.461 168.852 164.831 168.61C165.201 168.368 165.494 168.024 165.672 167.619L165.81 167.324C166.009 166.87 166.057 166.364 165.948 165.881C165.102 162.26 161.428 148.346 160.614 146.857C159.696 145.151 156.554 143.97 156.554 143.97L151.181 148.936Z" fill="#EAF4EF" stroke="#1A5132" stroke-width="0.656" stroke-linecap="round" stroke-linejoin="round"/>
<path d="M148.112 144.764L148.236 143.282L147.154 143.032L146.649 143.977L144.976 144.41L144.176 147.966L146.026 148.851L148.912 145.748L148.112 144.764Z" fill="#EAF4EF" stroke="#1A5132" stroke-width="0.492" stroke-linecap="round" stroke-linejoin="round"/>
<path d="M148.111 144.784L145.756 144.613L145.625 145.269L146.937 145.63C146.937 145.63 145.927 146.319 145.828 146.706" fill="#EAF4EF"/>
<path d="M148.111 144.784L145.756 144.613L145.625 145.269L146.937 145.63C146.937 145.63 145.927 146.319 145.828 146.706" stroke="#1A5132" stroke-width="0.492" stroke-linecap="round" stroke-linejoin="round"/>
<path d="M148.452 143.564L150.545 144.495L152.06 147.775L156.252 143.701L155.091 141.025C155.091 141.025 156.6 138.814 156.252 136.833C155.904 134.852 152.178 132.753 150.197 134.616C148.216 136.479 148.452 143.564 148.452 143.564Z" fill="#EAF4EF" stroke="#1A5132" stroke-width="0.656" stroke-linecap="round" stroke-linejoin="round"/>
<path d="M147.986 134.249C147.986 134.249 147.055 133.087 147.055 132.281C147.055 131.474 148.918 130.536 149.849 130.536C150.781 130.536 154.855 130.772 156.252 132.051C156.971 132.771 157.498 133.66 157.784 134.637C158.069 135.613 158.104 136.646 157.885 137.64C157.419 139.608 156.022 141.366 154.605 141.484C153.188 141.602 152.276 139.969 152.04 139.385C151.288 137.928 150.431 136.527 149.475 135.193C149.076 134.746 148.561 134.419 147.986 134.249Z" fill="#1A5132" stroke="#1A5132" stroke-width="0.656" stroke-linecap="round" stroke-linejoin="round"/>
<path d="M148.216 133.435L147.166 136.577V137.397L145.631 138.88L146.792 140.277L146.674 143.308L149.298 143.498C149.919 143.543 150.539 143.388 151.065 143.055C151.592 142.722 151.998 142.229 152.224 141.648L152.84 140.048C153.163 139.918 153.438 139.692 153.626 139.399C153.814 139.106 153.907 138.762 153.89 138.414C153.89 137.102 154.008 136.669 153.306 136.669C152.796 136.687 152.29 136.764 151.797 136.899L151.095 136.551L151.213 135.39L150.164 134.57L150.046 133.409L148.216 133.435Z" fill="#EAF4EF" stroke="#1A5132" stroke-width="0.656" stroke-linecap="round" stroke-linejoin="round"/>
<path d="M155.897 141.996L149.744 148.018L150.918 151.298L157.472 143.957L155.897 141.996Z" fill="#EAF4EF" stroke="#1A5132" stroke-width="0.656" stroke-linecap="round" stroke-linejoin="round"/>
<path d="M155.897 147.237L150.925 157.189L138.605 157.451C138.605 157.451 133.757 156.402 132.977 156.27C132.196 156.139 129.959 158.763 129.959 158.763H137.831L153.155 162.299L161.027 152.21" fill="#EAF4EF"/>
<path d="M155.897 147.237L150.925 157.189L138.605 157.451C138.605 157.451 133.757 156.402 132.977 156.27C132.196 156.139 129.959 158.763 129.959 158.763H137.831L153.155 162.299L161.027 152.21" stroke="#1A5132" stroke-width="0.656" stroke-linecap="round" stroke-linejoin="round"/>
<path d="M138.592 158.94L138.874 157.445H138.605C138.605 157.445 133.757 156.395 132.977 156.264C132.196 156.133 129.959 158.757 129.959 158.757H137.831L138.592 158.94Z" fill="#EAF4EF" stroke="#1A5132" stroke-width="0.656" stroke-linecap="round" stroke-linejoin="round"/>
<path d="M158.521 202.217V184.57H161.008V182.215H154.592V184.57H157.078V201.974L145.027 205.116V206.035H146.339L157.078 204.008V206.035H158.521V204.185L168.348 206.035H169.654V205.116L158.521 202.217Z" fill="#1A5132"/>
<path d="M151.574 182.34H170.703L172.553 179.296C173.239 178.169 173.652 176.896 173.759 175.581C173.866 174.265 173.664 172.943 173.17 171.719L172.015 168.853" stroke="#1A5132" stroke-width="1.312" stroke-linecap="round" stroke-linejoin="round"/>
<path d="M166.25 176.711H146.209C145.34 176.711 144.635 177.416 144.635 178.286V180.116C144.635 180.986 145.34 181.69 146.209 181.69H166.25C167.119 181.69 167.824 180.986 167.824 180.116V178.286C167.824 177.416 167.119 176.711 166.25 176.711Z" fill="#EAF4EF" stroke="#1A5132" stroke-width="0.656" stroke-linecap="round" stroke-linejoin="round"/>
<path d="M172.425 158.177L170.349 157.908C169.775 157.833 169.248 158.239 169.174 158.814L167.304 173.23C167.229 173.805 167.635 174.331 168.21 174.406L170.285 174.675C170.86 174.75 171.386 174.344 171.461 173.769L173.331 159.353C173.405 158.778 173 158.252 172.425 158.177Z" fill="#EAF4EF" stroke="#1A5132" stroke-width="0.656" stroke-linecap="round" stroke-linejoin="round"/>
<path d="M127.826 158.783H122.106L119.01 149.842H124.724L127.826 158.783Z" fill="#EAF4EF" stroke="#1A5132" stroke-width="0.492" stroke-linecap="round" stroke-linejoin="round"/>
<path d="M136.625 157.904H122.107V158.783H136.625V157.904Z" fill="#EAF4EF" stroke="#1A5132" stroke-width="0.492" stroke-linecap="round" stroke-linejoin="round"/>
<path d="M136.624 157.904H130.162V158.783H136.624V157.904Z" fill="#EAF4EF" stroke="#1A5132" stroke-width="0.492" stroke-linecap="round" stroke-linejoin="round"/>
<path d="M95.0273 149.776H79.8672V157.871H95.0273V149.776Z" fill="#EAF4EF" stroke="#1A5132" stroke-width="0.492" stroke-linecap="round" stroke-linejoin="round"/>
<path d="M103.798 157.983H79.8672V158.783H103.798V157.983Z" fill="#EAF4EF" stroke="#1A5132" stroke-width="0.492" stroke-linecap="round" stroke-linejoin="round"/>
<path d="M103.799 157.983H94.9102V158.783H103.799V157.983Z" fill="#EAF4EF" stroke="#1A5132" stroke-width="0.492" stroke-linecap="round" stroke-linejoin="round"/>
<path d="M141.946 207.071H143.415L144.15 163.624H141.211L141.946 207.071Z" fill="#EAF4EF" stroke="#1A5132" stroke-width="0.656" stroke-linecap="round" stroke-linejoin="round"/>
<path d="M74.0414 207.071H75.5108L76.239 163.624H73.3066L74.0414 207.071Z" fill="#EAF4EF" stroke="#1A5132" stroke-width="0.656" stroke-linecap="round" stroke-linejoin="round"/>
<path d="M146.059 159.813H71.4062V164.654H146.059V159.813Z" fill="#EAF4EF" stroke="#1A5132" stroke-width="0.656" stroke-linecap="round" stroke-linejoin="round"/>
<path d="M147.337 158.626H69.9355V160.403H147.337V158.626Z" fill="#1A5132" stroke="#1A5132" stroke-width="0.656" stroke-linecap="round" stroke-linejoin="round"/>
<path d="M55.9756 126.075L48.0117 129.394L51.9936 151.475H68.0984L69.4236 130.391L62.2207 126.147L55.9756 126.075Z" fill="#EAF4EF" stroke="#1A5132" stroke-width="0.656" stroke-linecap="round" stroke-linejoin="round"/>
<path d="M57.7395 130.673L59.1892 133.37L57.3262 144.358L59.3991 148.51L63.1318 143.531L60.4356 133.37L61.4721 130.883L59.3991 127.774L57.7395 130.673Z" fill="#9FCEB3" stroke="#1A5132" stroke-width="0.656" stroke-linecap="round" stroke-linejoin="round"/>
<path d="M57.4643 124.573C57.4643 124.573 56.2769 124.704 56.008 125.366C55.739 126.029 56.1457 132.385 56.1457 132.385L59.5832 130.417L62.8632 132.385C62.8632 132.385 62.463 128.148 61.5512 126.16C60.6393 124.172 57.4643 124.573 57.4643 124.573Z" fill="#EAF4EF" stroke="#1A5132" stroke-width="0.656" stroke-linecap="round" stroke-linejoin="round"/>
<path d="M56.9726 123.084C56.9726 123.084 56.8086 124.743 56.8086 125.74C56.8086 126.737 58.9668 131.054 59.6294 130.719C60.292 130.385 61.9516 127.728 61.9516 127.728L62.7848 126.731L64.4444 125.235C64.4444 125.235 60.5675 120.86 59.4654 120.591C58.3633 120.322 56.9726 123.084 56.9726 123.084Z" fill="#EAF4EF" stroke="#1A5132" stroke-width="0.656" stroke-linecap="round" stroke-linejoin="round"/>
<path d="M64.2881 116.136C64.2881 116.136 65.2196 114.969 65.2196 114.168C65.2196 113.368 63.3566 112.423 62.4251 112.423C61.4936 112.423 57.4198 112.653 56.0225 113.939C55.302 114.658 54.7745 115.547 54.4889 116.524C54.2034 117.501 54.1691 118.534 54.3891 119.528C54.8548 121.496 56.2521 123.254 57.6691 123.372C59.086 123.49 59.9979 121.857 60.234 121.273C60.9812 119.814 61.8364 118.413 62.7924 117.081C63.1924 116.632 63.7107 116.305 64.2881 116.136Z" fill="#1A5132" stroke="#1A5132" stroke-width="0.656" stroke-linecap="round" stroke-linejoin="round"/>
<path d="M64.0655 115.323L65.1151 118.465V119.279L66.6305 120.794L65.4628 122.191L65.5809 125.222L62.9569 125.412C62.3353 125.458 61.7153 125.304 61.1885 124.97C60.6617 124.637 60.2559 124.144 60.0311 123.562L59.3751 121.962C59.0636 121.822 58.8019 121.591 58.6249 121.3C58.448 121.008 58.3641 120.669 58.3845 120.328C58.3845 119.049 58.2665 118.583 58.9618 118.583C59.4741 118.601 59.9827 118.678 60.4772 118.813L61.1791 118.465L61.061 117.298L62.1106 116.484L62.2221 115.323H64.0655Z" fill="#EAF4EF" stroke="#1A5132" stroke-width="0.656" stroke-linecap="round" stroke-linejoin="round"/>
<path d="M51.9946 151.475L49.0098 201.108H52.1651L59.6304 163.257H61.1261L67.9288 201.108L71.0842 200.938L68.0994 151.475H51.9946Z" fill="#1A5132" stroke="#1A5132" stroke-width="0.656" stroke-linecap="round" stroke-linejoin="round"/>
<path d="M48.0114 129.394L44.4689 141.858L36.1509 135.6L34.5371 137.817L45.2758 148.313L50.5238 142.862C50.5238 142.862 48.733 132.648 48.0114 129.394Z" fill="#EAF4EF" stroke="#1A5132" stroke-width="0.656" stroke-linecap="round" stroke-linejoin="round"/>
<path d="M68.2224 129.381L61.177 142.324L49.1328 148.228L49.697 150.294L65.6509 147.126L70.6955 138.88C70.6955 138.88 72.8144 129.998 68.2224 129.381Z" fill="#EAF4EF" stroke="#1A5132" stroke-width="0.656" stroke-linecap="round" stroke-linejoin="round"/>
<path d="M36.1511 135.6L35.1474 132.976L32.5234 131.769L31.5131 132.169L32.7202 132.976L30.2995 132.169L28.8891 130.759L27.8789 130.955L29.696 134.996L34.5373 137.817L36.1511 135.6Z" fill="#EAF4EF" stroke="#1A5132" stroke-width="0.656" stroke-linecap="round" stroke-linejoin="round"/>
<path d="M49.1338 148.228L45.9128 147.205L43.4528 148.72L43.2364 149.783L44.5746 149.219L42.5672 150.793L40.6058 151.193L40.2188 152.144L44.5877 152.859L49.6127 150.38L49.1338 148.228Z" fill="#EAF4EF" stroke="#1A5132" stroke-width="0.656" stroke-linecap="round" stroke-linejoin="round"/>
<path d="M28.0036 113.217H25.0254V170.224H28.0036V113.217Z" fill="#1A5132" stroke="#1A5132" stroke-width="0.656" stroke-linecap="round" stroke-linejoin="round"/>
<path d="M30.2536 113.217H27.2754V170.224H30.2536V113.217Z" fill="#EAF4EF" stroke="#1A5132" stroke-width="0.656" stroke-linecap="round" stroke-linejoin="round"/>
<path d="M31.5467 170.224H23.3008V172.474H31.5467V170.224Z" fill="#1A5132" stroke="#1A5132" stroke-width="0.656" stroke-linecap="round" stroke-linejoin="round"/>
<path d="M25.052 145.23L12.0566 206.717H14.5494L26.5477 148.726L25.052 145.23Z" fill="#1A5132" stroke="#1A5132" stroke-width="0.656" stroke-linecap="round" stroke-linejoin="round"/>
<path d="M27.4258 171.345L34.2941 206.212H36.8L29.8005 171.47L27.4258 171.345Z" fill="#1A5132" stroke="#1A5132" stroke-width="0.656" stroke-linecap="round" stroke-linejoin="round"/>
<path d="M182.374 105.503H177.553V209.531H182.374V105.503Z" fill="#9FCEB3"/>
<path d="M323.408 100.294H9.18359V106.198H323.408V100.294Z" fill="#9FCEB3"/>
</g>
<defs>
<clipPath id="clip0_4081_26871">
<rect width="328" height="200" rx="10" fill="white"/>
</clipPath>
</defs>
</svg>
