<svg width="45" height="44" viewBox="0 0 45 44" fill="none" xmlns="http://www.w3.org/2000/svg">
<rect x="1" y="0.5" width="43" height="43" rx="21.5" fill="white"/>
<rect x="1" y="0.5" width="43" height="43" rx="21.5" stroke="#BFDECC"/>
<path d="M15.0306 28.5C14.3538 28.5 13.8285 28.2603 13.4546 27.7807C13.081 27.3012 12.9396 26.7359 13.0306 26.0848L14.0999 18.527C14.2307 17.6488 14.6189 16.9248 15.2644 16.3548C15.9099 15.7849 16.6717 15.5 17.5499 15.5H27.4499C28.3281 15.5 29.0899 15.7849 29.7354 16.3548C30.3809 16.9248 30.7691 17.6488 30.8999 18.527L31.9691 26.0848C32.0601 26.7359 31.9188 27.3012 31.5451 27.7807C31.1713 28.2603 30.646 28.5 29.9691 28.5C29.6833 28.5 29.4208 28.4519 29.1816 28.3558C28.9425 28.2596 28.7204 28.1089 28.5154 27.9038L26.1114 25.5H18.8884L16.4844 27.9038C16.2794 28.1089 16.0573 28.2596 15.8181 28.3558C15.579 28.4519 15.3165 28.5 15.0306 28.5ZM15.4306 26.85L18.2806 24H26.7191L29.5691 26.85C29.6025 26.8833 29.7294 26.9333 29.9499 27C30.1332 27 30.2791 26.9458 30.3874 26.8375C30.4957 26.7292 30.5332 26.5833 30.4999 26.4L29.3999 18.7C29.3332 18.2167 29.115 17.8125 28.7451 17.4875C28.3753 17.1625 27.9436 17 27.4499 17H17.5499C17.0562 17 16.6245 17.1625 16.2546 17.4875C15.8848 17.8125 15.6666 18.2167 15.5999 18.7L14.4999 26.4C14.4666 26.5833 14.5041 26.7292 14.6124 26.8375C14.7207 26.9458 14.8666 27 15.0499 27C15.0961 27 15.223 26.95 15.4306 26.85ZM27.4999 22.9037C27.7512 22.9037 27.9647 22.816 28.1404 22.6405C28.3159 22.4648 28.4036 22.2513 28.4036 22C28.4036 21.7487 28.3159 21.5352 28.1404 21.3595C27.9647 21.184 27.7512 21.0962 27.4999 21.0962C27.2486 21.0962 27.0351 21.184 26.8594 21.3595C26.6839 21.5352 26.5961 21.7487 26.5961 22C26.5961 22.2513 26.6839 22.4648 26.8594 22.6405C27.0351 22.816 27.2486 22.9037 27.4999 22.9037ZM25.4999 19.9038C25.7512 19.9038 25.9647 19.816 26.1404 19.6405C26.3159 19.4648 26.4036 19.2513 26.4036 19C26.4036 18.7487 26.3159 18.5352 26.1404 18.3595C25.9647 18.184 25.7512 18.0962 25.4999 18.0962C25.2486 18.0962 25.0351 18.184 24.8594 18.3595C24.6839 18.5352 24.5961 18.7487 24.5961 19C24.5961 19.2513 24.6839 19.4648 24.8594 19.6405C25.0351 19.816 25.2486 19.9038 25.4999 19.9038ZM18.4036 22.8463H19.5961V21.0962H21.3461V19.9038H19.5961V18.1538H18.4036V19.9038H16.6536V21.0962H18.4036V22.8463Z" fill="#2F945A"/>
</svg>
