<svg width="20" height="19" viewBox="0 0 20 19" fill="none" xmlns="http://www.w3.org/2000/svg">
<path d="M9.25 14.25H10.75V8.5H9.25V14.25ZM9.99998 6.78848C10.2288 6.78848 10.4207 6.71108 10.5755 6.55628C10.7303 6.40148 10.8077 6.20965 10.8077 5.9808C10.8077 5.75197 10.7303 5.56014 10.5755 5.40533C10.4207 5.25053 10.2288 5.17313 9.99998 5.17313C9.77113 5.17313 9.5793 5.25053 9.4245 5.40533C9.2697 5.56014 9.1923 5.75197 9.1923 5.9808C9.1923 6.20965 9.2697 6.40148 9.4245 6.55628C9.5793 6.71108 9.77113 6.78848 9.99998 6.78848ZM10.0016 19C8.68772 19 7.45268 18.7506 6.29655 18.252C5.1404 17.7533 4.13472 17.0766 3.2795 16.2217C2.42427 15.3669 1.74721 14.3616 1.24833 13.206C0.749442 12.0504 0.5 10.8156 0.5 9.50168C0.5 8.18774 0.749334 6.95271 1.248 5.79658C1.74667 4.64043 2.42342 3.63474 3.27825 2.77953C4.1331 1.92429 5.13834 1.24723 6.29398 0.748351C7.44959 0.249468 8.68437 2.47955e-05 9.9983 2.47955e-05C11.3122 2.47955e-05 12.5473 0.249359 13.7034 0.748026C14.8596 1.24669 15.8652 1.92344 16.7205 2.77828C17.5757 3.63313 18.2527 4.63837 18.7516 5.794C19.2505 6.94962 19.5 8.18439 19.5 9.49833C19.5 10.8123 19.2506 12.0473 18.752 13.2034C18.2533 14.3596 17.5765 15.3653 16.7217 16.2205C15.8669 17.0757 14.8616 17.7528 13.706 18.2517C12.5504 18.7505 11.3156 19 10.0016 19ZM9.99998 17.5C12.2333 17.5 14.125 16.725 15.675 15.175C17.225 13.625 18 11.7333 18 9.5C18 7.26667 17.225 5.375 15.675 3.825C14.125 2.275 12.2333 1.5 9.99998 1.5C7.76664 1.5 5.87498 2.275 4.32498 3.825C2.77498 5.375 1.99998 7.26667 1.99998 9.5C1.99998 11.7333 2.77498 13.625 4.32498 15.175C5.87498 16.725 7.76664 17.5 9.99998 17.5Z" fill="#86889B"/>
</svg>
