<svg width="24" height="24" viewBox="0 0 24 24" fill="none" xmlns="http://www.w3.org/2000/svg">
<path d="M6 18.75V17.625H17.25V18.75H6ZM8.67547 15.8365C7.93701 15.8365 7.30649 15.5788 6.7839 15.0634C6.2613 14.5481 6 13.9259 6 13.1971V6H17.3653C17.7461 6 18.0721 6.13246 18.3432 6.39737C18.6144 6.66227 18.75 6.98414 18.75 7.36298V9.32449C18.75 9.70334 18.6144 10.0252 18.3432 10.2901C18.0721 10.555 17.7461 10.6875 17.3653 10.6875H15.8653V13.1971C15.8653 13.9259 15.6041 14.5481 15.0815 15.0634C14.5589 15.5788 13.9283 15.8365 13.1899 15.8365H8.67547ZM8.67547 14.7115H13.1899C13.6163 14.7115 13.9813 14.563 14.2849 14.2658C14.5885 13.9687 14.7404 13.6115 14.7404 13.1942V7.12498H7.12498V13.1969C7.12498 13.6143 7.2768 13.9711 7.58044 14.2673C7.88407 14.5635 8.24909 14.7115 8.67547 14.7115ZM15.8653 9.5625H17.3653C17.4375 9.5625 17.4988 9.53966 17.5492 9.49399C17.5997 9.44831 17.625 9.39181 17.625 9.32449V7.36298C17.625 7.29566 17.5997 7.23917 17.5492 7.19349C17.4988 7.14782 17.4375 7.12498 17.3653 7.12498H15.8653V9.5625ZM8.67547 14.7115H7.12498H14.7404H8.67547Z" fill="white"/>
</svg>
