<svg width="25" height="24" viewBox="0 0 25 24" fill="none" xmlns="http://www.w3.org/2000/svg">
<path d="M4.45459 21V19.5H19.4545V21H4.45459ZM8.02189 17.1153C7.03727 17.1153 6.19657 16.7717 5.49979 16.0846C4.80299 15.3974 4.45459 14.5679 4.45459 13.5961V4H19.6084C20.1161 4 20.5507 4.17661 20.9122 4.52982C21.2738 4.88302 21.4545 5.31218 21.4545 5.8173V8.43265C21.4545 8.93778 21.2738 9.36695 20.9122 9.72015C20.5507 10.0734 20.1161 10.25 19.6084 10.25H17.6084V13.5961C17.6084 14.5679 17.26 15.3974 16.5632 16.0846C15.8664 16.7717 15.0257 17.1153 14.0411 17.1153H8.02189ZM8.02189 15.6154H14.0411C14.6096 15.6154 15.0963 15.4173 15.5011 15.0211C15.906 14.6249 16.1084 14.1486 16.1084 13.5923V5.49998H5.95456V13.5959C5.95456 14.1525 6.15699 14.6282 6.56184 15.0231C6.96669 15.4179 7.45337 15.6154 8.02189 15.6154ZM17.6084 8.75H19.6084C19.7045 8.75 19.7863 8.71955 19.8536 8.65865C19.9209 8.59775 19.9546 8.52242 19.9546 8.43265V5.8173C19.9546 5.72755 19.9209 5.65223 19.8536 5.59133C19.7863 5.53043 19.7045 5.49998 19.6084 5.49998H17.6084V8.75ZM8.02189 15.6154H5.95456H16.1084H8.02189Z" fill="#2F945A"/>
</svg>
