<svg width="24" height="24" viewBox="0 0 24 24" fill="none" xmlns="http://www.w3.org/2000/svg">
<path d="M4 21V19.5H19V21H4ZM7.5673 17.1153C6.58268 17.1153 5.74198 16.7717 5.0452 16.0846C4.3484 15.3974 4 14.5679 4 13.5961V4H19.1538C19.6615 4 20.0961 4.17661 20.4576 4.52982C20.8192 4.88302 21 5.31218 21 5.8173V8.43265C21 8.93778 20.8192 9.36695 20.4576 9.72015C20.0961 10.0734 19.6615 10.25 19.1538 10.25H17.1538V13.5961C17.1538 14.5679 16.8054 15.3974 16.1086 16.0846C15.4118 16.7717 14.5711 17.1153 13.5865 17.1153H7.5673ZM7.5673 15.6154H13.5865C14.155 15.6154 14.6417 15.4173 15.0465 15.0211C15.4514 14.6249 15.6538 14.1486 15.6538 13.5923V5.49998H5.49997V13.5959C5.49997 14.1525 5.7024 14.6282 6.10725 15.0231C6.5121 15.4179 6.99878 15.6154 7.5673 15.6154ZM17.1538 8.75H19.1538C19.25 8.75 19.3317 8.71955 19.399 8.65865C19.4663 8.59775 19.5 8.52242 19.5 8.43265V5.8173C19.5 5.72755 19.4663 5.65223 19.399 5.59133C19.3317 5.53043 19.25 5.49998 19.1538 5.49998H17.1538V8.75ZM7.5673 15.6154H5.49997H15.6538H7.5673Z" fill="black"/>
</svg>
