<svg width="25" height="24" viewBox="0 0 25 24" fill="none" xmlns="http://www.w3.org/2000/svg">
<path d="M5.40918 20.5V5.3077C5.40918 4.80257 5.58418 4.375 5.93418 4.025C6.28418 3.675 6.71175 3.5 7.21688 3.5H12.6014C13.1066 3.5 13.5341 3.675 13.8841 4.025C14.2341 4.375 14.4091 4.80257 14.4091 5.3077V11.8077H15.3707C15.8678 11.8077 16.2933 11.9847 16.6473 12.3387C17.0013 12.6927 17.1783 13.1182 17.1783 13.6153V18.1538C17.1783 18.4756 17.2902 18.7484 17.5139 18.9721C17.7376 19.1958 18.0104 19.3077 18.3322 19.3077C18.654 19.3077 18.9267 19.1958 19.1505 18.9721C19.3742 18.7484 19.4861 18.4756 19.4861 18.1538V11.1461C19.3361 11.2359 19.1777 11.298 19.0111 11.3327C18.8444 11.3673 18.6694 11.3846 18.4861 11.3846C17.8722 11.3846 17.3534 11.1727 16.9295 10.7488C16.5057 10.325 16.2938 9.80613 16.2938 9.1923C16.2938 8.69743 16.4348 8.25673 16.7168 7.8702C16.9989 7.48365 17.372 7.22436 17.8361 7.09233L15.5822 4.83845L16.4207 4L19.986 7.50385C20.2104 7.7282 20.3819 7.98813 20.5005 8.28363C20.619 8.57913 20.6783 8.88202 20.6783 9.1923V18.1538C20.6783 18.8107 20.4517 19.366 19.9985 19.8196C19.5453 20.2732 18.9905 20.5 18.3341 20.5C17.6777 20.5 17.1223 20.2732 16.6678 19.8196C16.2133 19.366 15.9861 18.8107 15.9861 18.1538V13.3077C15.9861 13.2179 15.9572 13.1442 15.8995 13.0865C15.8418 13.0288 15.7681 13 15.6783 13H14.4091V20.5H5.40918ZM6.90915 10.25H12.9092V5.3077C12.9092 5.23077 12.8771 5.16024 12.813 5.09613C12.7489 5.03203 12.6784 4.99998 12.6014 4.99998H7.21688C7.13995 4.99998 7.06942 5.03203 7.0053 5.09613C6.9412 5.16024 6.90915 5.23077 6.90915 5.3077V10.25ZM18.4861 10.1923C18.7694 10.1923 19.0069 10.0965 19.1986 9.9048C19.3902 9.71313 19.4861 9.47563 19.4861 9.1923C19.4861 8.90897 19.3902 8.67147 19.1986 8.4798C19.0069 8.28813 18.7694 8.1923 18.4861 8.1923C18.2027 8.1923 17.9652 8.28813 17.7736 8.4798C17.5819 8.67147 17.4861 8.90897 17.4861 9.1923C17.4861 9.47563 17.5819 9.71313 17.7736 9.9048C17.9652 10.0965 18.2027 10.1923 18.4861 10.1923ZM6.90915 19H12.9092V11.75H6.90915V19Z" fill="#2F945A"/>
</svg>
