<svg width="45" height="44" viewBox="0 0 45 44" fill="none" xmlns="http://www.w3.org/2000/svg">
<rect x="1" y="0.5" width="43" height="43" rx="21.5" fill="white"/>
<rect x="1" y="0.5" width="43" height="43" rx="21.5" stroke="#BFDECC"/>
<path d="M14.7114 15.25H22.7114V14.3077C22.7114 14.2307 22.6794 14.1602 22.6154 14.0962C22.5513 14.0321 22.4807 14 22.4037 14H15.0192C14.9423 14 14.8718 14.0321 14.8077 14.0962C14.7435 14.1602 14.7114 14.2307 14.7114 14.3077V15.25ZM15.0192 31.5C14.514 31.5 14.0864 31.325 13.7364 30.975C13.3864 30.625 13.2114 30.1974 13.2114 29.6923V14.3077C13.2114 13.8026 13.3864 13.375 13.7364 13.025C14.0864 12.675 14.514 12.5 15.0192 12.5H22.4037C22.9088 12.5 23.3364 12.675 23.6864 13.025C24.0364 13.375 24.2114 13.8026 24.2114 14.3077V18.0807C23.9243 18.2359 23.6573 18.4074 23.4104 18.5953C23.1638 18.7831 22.9308 18.9904 22.7114 19.2173V16.75H14.7114V27.25H21.0499C21.1576 27.527 21.2797 27.7888 21.4162 28.0355C21.5528 28.2823 21.7089 28.5205 21.8844 28.75H14.7114V29.6923C14.7114 29.7693 14.7435 29.8398 14.8077 29.9038C14.8718 29.9679 14.9423 30 15.0192 30H22.8462V29.7538C23 29.9283 23.1641 30.0872 23.3384 30.2307C23.5128 30.3744 23.7025 30.5026 23.9077 30.6152C23.7435 30.8832 23.53 31.0977 23.2672 31.2585C23.0043 31.4195 22.7005 31.5 22.3557 31.5H15.0192ZM27.7114 28C28.6973 28 29.5367 27.6535 30.2297 26.9605C30.9227 26.2677 31.2692 25.4283 31.2692 24.4423C31.2692 23.4564 30.9227 22.617 30.2297 21.924C29.5367 21.231 28.6973 20.8845 27.7114 20.8845C26.7256 20.8845 25.8862 21.231 25.1932 21.924C24.5002 22.617 24.1537 23.4564 24.1537 24.4423C24.1537 25.4283 24.5002 26.2677 25.1932 26.9605C25.8862 27.6535 26.7256 28 27.7114 28ZM25.4614 31.5V28.977C24.6191 28.5653 23.9406 27.9583 23.4259 27.1557C22.9111 26.3532 22.6537 25.4488 22.6537 24.4423C22.6537 23.4359 22.9111 22.5314 23.4259 21.7288C23.9406 20.9263 24.6191 20.3193 25.4614 19.9078V17.3848H29.9614V19.9078C30.8038 20.3193 31.4823 20.9263 31.9969 21.7288C32.5118 22.5314 32.7692 23.4359 32.7692 24.4423C32.7692 25.4488 32.5118 26.3532 31.9969 27.1557C31.4823 27.9583 30.8038 28.5653 29.9614 28.977V31.5H25.4614Z" fill="#2F945A"/>
</svg>
