<svg width="204" height="166" viewBox="0 0 204 166" fill="none" xmlns="http://www.w3.org/2000/svg">
<g clip-path="url(#clip0_4681_57538)">
<path d="M134.473 15.5264H193.383C193.509 15.5264 193.629 15.5762 193.718 15.6648C193.806 15.7535 193.856 15.8737 193.856 15.9991V160.214C193.856 160.422 193.773 160.622 193.626 160.77C193.478 160.917 193.278 161 193.07 161H134.786C134.578 161 134.378 160.917 134.23 160.77C134.083 160.622 134 160.422 134 160.214V15.9991C134 15.8737 134.05 15.7535 134.138 15.6648C134.227 15.5762 134.347 15.5264 134.473 15.5264Z" fill="#74B790" stroke="#263238" stroke-width="0.429722" stroke-miterlimit="10"/>
<path d="M163.93 88.8413V160.846" stroke="#263238" stroke-width="0.429722" stroke-miterlimit="10"/>
<path d="M163.93 15.376V86.2758" stroke="#263238" stroke-width="0.429722" stroke-miterlimit="10"/>
<path d="M137.966 88.7983H191.058C191.378 88.7983 191.685 88.6711 191.912 88.4447C192.138 88.2182 192.266 87.9111 192.266 87.5908C192.266 87.2706 192.138 86.9634 191.912 86.737C191.685 86.5105 191.378 86.3833 191.058 86.3833H137.966C137.808 86.3833 137.651 86.4146 137.504 86.4753C137.358 86.536 137.225 86.625 137.114 86.7372C137.002 86.8494 136.913 86.9826 136.853 87.129C136.793 87.2755 136.762 87.4324 136.763 87.5908C136.762 87.7492 136.793 87.9061 136.853 88.0526C136.913 88.1991 137.002 88.3322 137.114 88.4444C137.225 88.5566 137.358 88.6456 137.504 88.7063C137.651 88.7671 137.808 88.7983 137.966 88.7983Z" fill="white" stroke="#263238" stroke-width="0.429722" stroke-miterlimit="10"/>
<path d="M187.587 29.5054H170.535V62.5983H187.587V29.5054Z" fill="#263238" stroke="#263238" stroke-width="0.429722" stroke-miterlimit="10"/>
<path d="M186.25 32.1006H171.871V50.1876H186.25V32.1006Z" fill="white" stroke="#263238" stroke-width="0.429722" stroke-miterlimit="10"/>
<path d="M174.029 52.1899H171.983V54.2999H174.029V52.1899Z" fill="#78A6FF" stroke="#263238" stroke-width="0.429722" stroke-miterlimit="10"/>
<path d="M177.102 52.1899H175.057V54.2999H177.102V52.1899Z" fill="#78A6FF" stroke="#263238" stroke-width="0.429722" stroke-miterlimit="10"/>
<path d="M180.169 52.1899H178.124V54.2999H180.169V52.1899Z" fill="#78A6FF" stroke="#263238" stroke-width="0.429722" stroke-miterlimit="10"/>
<path d="M183.242 52.1899H181.197V54.2999H183.242V52.1899Z" fill="#78A6FF" stroke="#263238" stroke-width="0.429722" stroke-miterlimit="10"/>
<path d="M186.31 52.1899H184.265V54.2999H186.31V52.1899Z" fill="#78A6FF" stroke="#263238" stroke-width="0.429722" stroke-miterlimit="10"/>
<path d="M174.029 55.5801H171.983V57.69H174.029V55.5801Z" fill="#78A6FF" stroke="#263238" stroke-width="0.429722" stroke-miterlimit="10"/>
<path d="M177.102 55.5801H175.057V57.69H177.102V55.5801Z" fill="#78A6FF" stroke="#263238" stroke-width="0.429722" stroke-miterlimit="10"/>
<path d="M180.169 55.5801H178.124V57.69H180.169V55.5801Z" fill="#78A6FF" stroke="#263238" stroke-width="0.429722" stroke-miterlimit="10"/>
<path d="M183.242 55.5801H181.197V57.69H183.242V55.5801Z" fill="#78A6FF" stroke="#263238" stroke-width="0.429722" stroke-miterlimit="10"/>
<path d="M186.31 55.5801H184.265V57.69H186.31V55.5801Z" fill="#78A6FF" stroke="#263238" stroke-width="0.429722" stroke-miterlimit="10"/>
<path d="M155.676 54.3857H140.468V76.293H155.676V54.3857Z" fill="white" stroke="#263238" stroke-width="0.429722" stroke-miterlimit="10"/>
<path d="M152.917 54.3857H143.227V76.293H152.917V54.3857Z" fill="#263238" stroke="#263238" stroke-width="0.429722" stroke-miterlimit="10"/>
<path d="M152.917 54.3857H143.227V61.1668H152.917V54.3857Z" fill="white" stroke="#263238" stroke-width="0.429722" stroke-miterlimit="10"/>
<path d="M120.178 44.2734H-41.8796C-43.3222 44.2734 -44.7056 44.8465 -45.7257 45.8665C-46.7457 46.8866 -47.3188 48.2701 -47.3188 49.7126V156.521H125.612V49.7126C125.612 48.271 125.04 46.8883 124.021 45.8684C123.002 44.8485 121.62 44.2748 120.178 44.2734Z" fill="white" stroke="#263238" stroke-width="0.478714" stroke-miterlimit="10"/>
<path d="M-40.3029 53.0459H118.599V142.845H-40.3029V53.0459Z" fill="white"/>
<mask id="mask0_4681_57538" style="mask-type:luminance" maskUnits="userSpaceOnUse" x="-41" y="53" width="160" height="90">
<path d="M-40.3042 53.0464H118.597V142.845H-40.3042V53.0464Z" fill="white"/>
</mask>
<g mask="url(#mask0_4681_57538)">
<g style="mix-blend-mode:multiply" opacity="0.4">
<path d="M-40.3029 142.845V66.1914L91.1375 142.845H-40.3029Z" fill="white"/>
</g>
</g>
<path d="M-40.3029 53.0459H118.599V142.845H-40.3029V53.0459Z" stroke="#263238" stroke-width="0.359035" stroke-miterlimit="10"/>
<path d="M-20.6683 151.118H98.1777V156.973H-20.6683V151.118Z" fill="white" stroke="#263238" stroke-width="0.359678" stroke-miterlimit="10"/>
<path d="M-20.6683 153.941H98.1777V156.978H-20.6683V153.941Z" fill="white" stroke="#263238" stroke-width="0.359678" stroke-miterlimit="10"/>
<path d="M139.601 160.447C139.601 160.447 137.646 162.834 131.801 164.784H-54.2859C-54.2859 164.784 -58.6227 163.697 -60.5779 160.66L139.601 160.447Z" fill="white" stroke="#263238" stroke-width="0.478714" stroke-miterlimit="10"/>
<path d="M-59.5954 156.172H138.592C139.368 156.172 139.996 156.801 139.996 157.576V159.329C139.996 160.104 139.368 160.733 138.592 160.733H-59.5954C-60.3708 160.733 -60.9994 160.104 -60.9994 159.329V157.576C-60.9994 156.801 -60.3708 156.172 -59.5954 156.172Z" fill="white" stroke="#263238" stroke-width="0.478714" stroke-miterlimit="10"/>
<path d="M39.184 49.1872C38.3454 49.1872 37.6656 48.5074 37.6656 47.6688C37.6656 46.8302 38.3454 46.1504 39.184 46.1504C40.0226 46.1504 40.7024 46.8302 40.7024 47.6688C40.7024 48.5074 40.0226 49.1872 39.184 49.1872Z" fill="#263238"/>
<path d="M59.2456 46.1507H97.2056C97.3053 46.1507 97.4041 46.1311 97.4962 46.0929C97.5883 46.0548 97.672 45.9989 97.7425 45.9284C97.813 45.8579 97.8689 45.7742 97.9071 45.6821C97.9452 45.5899 97.9648 45.4912 97.9648 45.3915C97.9648 45.2918 97.9452 45.1931 97.9071 45.101C97.8689 45.0089 97.813 44.9252 97.7425 44.8547C97.672 44.7842 97.5883 44.7283 97.4962 44.6901C97.4041 44.652 97.3053 44.6323 97.2056 44.6323H59.2456C59.0447 44.6337 58.8524 44.7141 58.7103 44.8562C58.5682 44.9983 58.4878 45.1906 58.4864 45.3915C58.4864 45.5929 58.5664 45.786 58.7088 45.9284C58.8512 46.0707 59.0443 46.1507 59.2456 46.1507Z" fill="white" stroke="#263238" stroke-width="0.359678" stroke-miterlimit="10"/>
<path d="M-18.177 46.1507H19.783C19.9844 46.1507 20.1775 46.0707 20.3199 45.9284C20.4623 45.786 20.5422 45.5929 20.5422 45.3915C20.5409 45.1906 20.4605 44.9983 20.3184 44.8562C20.1763 44.7141 19.984 44.6337 19.783 44.6323H-18.177C-18.3783 44.6323 -18.5714 44.7123 -18.7138 44.8547C-18.8562 44.9971 -18.9362 45.1902 -18.9362 45.3915C-18.9362 45.5929 -18.8562 45.786 -18.7138 45.9284C-18.5714 46.0707 -18.3783 46.1507 -18.177 46.1507Z" fill="white" stroke="#263238" stroke-width="0.359678" stroke-miterlimit="10"/>
<path d="M123.984 75.8637C124.041 75.8637 124.097 75.8525 124.15 75.8308C124.202 75.8092 124.25 75.7774 124.29 75.7373C124.33 75.6972 124.361 75.6496 124.383 75.5973C124.405 75.5449 124.416 75.4888 124.416 75.4321V62.8533C124.416 62.7384 124.371 62.628 124.29 62.5463C124.209 62.4645 124.099 62.4179 123.984 62.4165C123.869 62.4179 123.759 62.4643 123.677 62.5459C123.595 62.6276 123.549 62.7379 123.548 62.8533V75.4321C123.549 75.547 123.596 75.6568 123.677 75.7376C123.759 75.8184 123.869 75.8637 123.984 75.8637Z" fill="white" stroke="#263238" stroke-width="0.359678" stroke-miterlimit="10"/>
<path d="M109.494 113.293C109.494 113.293 109.359 118.674 108.448 121.559C107.785 123.533 106.991 125.461 106.07 127.329C106.07 127.329 109.478 129.167 111.055 129.302C112.632 129.437 114.725 122.343 114.725 117.493C114.725 112.643 112.902 111.192 109.494 113.293Z" fill="#FFBE9D" stroke="#263238" stroke-width="0.384455" stroke-linecap="round" stroke-linejoin="round"/>
<path d="M118.997 99.1938C118.997 99.1938 113.449 98.9878 111.333 100.565C109.217 102.142 108.448 109.093 107.79 111.851L107.133 114.609C108.676 115.218 110.266 115.7 111.888 116.051C112.506 116.097 113.12 116.184 113.726 116.313C113.726 116.313 115.399 106.771 117.364 103.981C118.358 102.545 119.455 101.184 120.645 99.9071C120.645 99.9071 121.533 98.8451 118.997 99.1938Z" fill="#F7F7F7" stroke="#263238" stroke-width="0.384455" stroke-linecap="round" stroke-linejoin="round"/>
<path d="M123.531 90.7207C123.989 92.4767 124.697 94.1581 125.631 95.7137C127.216 98.337 127.866 100.168 132.717 100.303C137.567 100.437 140.064 104.392 142.14 116.177C144.216 127.962 145.421 140.976 141.878 149.242C138.336 157.508 127.874 156.7 121.043 154.227C114.211 151.754 112.642 143.995 112.515 135.602C112.388 127.209 112.38 113.95 113.696 107.253C115.011 100.556 118.808 99.1217 120.519 98.5986C122.231 98.0755 119.988 94.9212 119.988 94.9212L123.531 90.7207Z" fill="white"/>
<mask id="mask1_4681_57538" style="mask-type:luminance" maskUnits="userSpaceOnUse" x="112" y="90" width="33" height="66">
<path d="M123.529 90.7202C123.987 92.4762 124.695 94.1576 125.629 95.7132C127.214 98.3365 127.864 100.167 132.715 100.302C137.565 100.437 140.061 104.392 142.138 116.177C144.214 127.962 145.419 140.975 141.876 149.242C138.334 157.508 127.872 156.699 121.04 154.227C114.209 151.754 112.639 143.995 112.513 135.602C112.386 127.209 112.378 113.95 113.694 107.253C115.009 100.556 118.805 99.1212 120.517 98.5981C122.229 98.075 119.986 94.9207 119.986 94.9207L123.529 90.7202Z" fill="white"/>
</mask>
<g mask="url(#mask1_4681_57538)">
<g style="mix-blend-mode:multiply" opacity="0.4">
<path d="M137.382 116.471C137.382 116.471 138.539 119.641 136.486 122.106C134.434 124.571 129.354 123.39 130.336 124.539C131.319 125.688 135.718 127.107 136.486 128.256C136.712 128.546 136.844 128.897 136.867 129.263C136.89 129.629 136.801 129.994 136.613 130.309C136.613 130.309 140.655 131.03 140.941 130.349C141.226 129.667 138.563 120.117 138.563 120.117L137.382 116.471Z" fill="#74B790"/>
</g>
<g style="mix-blend-mode:multiply" opacity="0.4">
<path d="M136.146 133.898C136.146 133.898 138.96 136.974 138.833 137.861C138.706 138.749 136.146 136.712 136.654 137.988C137.161 139.264 139.348 141.325 139.99 142.347C140.632 143.369 143.16 145.184 143.16 145.184L144.064 138.249L144.238 137.037L136.146 133.898Z" fill="#74B790"/>
</g>
</g>
<path d="M123.531 90.7207C123.989 92.4767 124.697 94.1581 125.631 95.7137C127.216 98.337 127.866 100.168 132.717 100.303C137.567 100.437 140.064 104.392 142.14 116.177C144.216 127.962 145.421 140.976 141.878 149.242C138.336 157.508 127.874 156.7 121.043 154.227C114.211 151.754 112.642 143.995 112.515 135.602C112.388 127.209 112.38 113.95 113.696 107.253C115.011 100.556 118.808 99.1217 120.519 98.5986C122.231 98.0755 119.988 94.9212 119.988 94.9212L123.531 90.7207Z" stroke="#263238" stroke-width="0.384455" stroke-linecap="round" stroke-linejoin="round"/>
<path d="M118.995 99.193C119.485 98.9542 119.994 98.7555 120.517 98.5986C122.221 98.0755 119.986 94.9212 119.986 94.9212L123.528 90.7207C123.987 92.4767 124.694 94.1581 125.629 95.7137C126.968 97.9408 127.65 99.5972 130.804 100.128C129.803 101.57 129.073 103.181 128.648 104.883C127.856 108.299 126.16 113.807 123.005 112.5C120.01 111.256 117.735 104.067 118.995 99.193Z" fill="#FFBE9D"/>
<mask id="mask2_4681_57538" style="mask-type:luminance" maskUnits="userSpaceOnUse" x="118" y="90" width="13" height="23">
<path d="M118.998 99.1945C119.489 98.9557 119.998 98.7569 120.52 98.6C122.224 98.077 119.989 94.9226 119.989 94.9226L123.532 90.7222C123.99 92.4782 124.697 94.1596 125.632 95.7152C126.971 97.9422 127.653 99.5986 130.807 100.13C129.807 101.571 129.076 103.182 128.652 104.885C127.859 108.301 126.163 113.809 123.009 112.501C120.013 111.257 117.738 104.069 118.998 99.1945Z" fill="white"/>
</mask>
<g mask="url(#mask2_4681_57538)">
<g style="mix-blend-mode:multiply" opacity="0.4">
<path d="M127.179 100.066C128.01 100.656 128.938 101.096 129.921 101.366L130.714 100.01C130.714 100.01 127.44 100.415 124.167 92.8774C123.455 94.2731 122.45 95.498 121.219 96.4677L125.126 96.967" fill="white"/>
</g>
</g>
<path d="M118.995 99.193C119.485 98.9542 119.994 98.7555 120.517 98.5986C122.221 98.0755 119.986 94.9212 119.986 94.9212L123.528 90.7207C123.987 92.4767 124.694 94.1581 125.629 95.7137C126.968 97.9408 127.65 99.5972 130.804 100.128C129.803 101.57 129.073 103.181 128.648 104.883C127.856 108.299 126.16 113.807 123.005 112.5C120.01 111.256 117.735 104.067 118.995 99.193Z" stroke="#263238" stroke-width="0.384455" stroke-linecap="round" stroke-linejoin="round"/>
<path d="M137.059 115.25L133.286 111.898" stroke="#263238" stroke-width="0.384455" stroke-linecap="round" stroke-linejoin="round"/>
<path d="M132.717 100.303C132.717 100.303 131.607 101.824 130.767 106.231C129.927 110.638 127.415 114.624 124.894 115.456C122.374 116.288 121.122 115.456 121.122 115.456" stroke="#263238" stroke-width="0.384455" stroke-linecap="round" stroke-linejoin="round"/>
<path d="M145.183 114.87C145.183 114.87 147.149 132.306 147.284 135.334C147.418 138.361 146.237 137.569 144.264 137.045C142.291 136.522 131.013 131.498 128.413 130.61C125.814 129.722 125.393 129.429 123.293 129.691C121.455 129.966 119.603 130.143 117.745 130.222C116.43 130.222 117.88 127.202 119.846 126.679C121.811 126.156 121.684 126.283 123.911 126.806C126.138 127.329 129.689 128.906 133.493 129.691C137.297 130.475 140.579 130.745 140.967 130.348C141.355 129.952 138.589 118.54 138.589 118.54L145.183 114.87Z" fill="#FFBE9D" stroke="#263238" stroke-width="0.384455" stroke-linecap="round" stroke-linejoin="round"/>
<path d="M130.805 100.128C132.268 100.303 133.745 100.316 135.211 100.168C136.552 100.073 137.898 100.258 139.163 100.713C140.428 101.167 141.585 101.88 142.558 102.807C144.658 104.9 146.521 111.723 147.313 113.435C148.106 115.147 148.36 115.924 148.36 115.924L138.651 120.124L134.585 108.577" fill="white"/>
<mask id="mask3_4681_57538" style="mask-type:luminance" maskUnits="userSpaceOnUse" x="130" y="100" width="19" height="21">
<path d="M130.805 100.128C132.268 100.303 133.745 100.316 135.211 100.168C136.552 100.073 137.898 100.258 139.163 100.713C140.428 101.167 141.585 101.88 142.558 102.807C144.658 104.9 146.521 111.723 147.313 113.435C148.106 115.147 148.36 115.924 148.36 115.924L138.651 120.124L134.585 108.577" fill="white"/>
</mask>
<g mask="url(#mask3_4681_57538)">
<g style="mix-blend-mode:multiply" opacity="0.4">
<path d="M130.91 100.042C132.818 100.247 134.737 100.339 136.656 100.319C137.815 100.336 138.956 100.609 139.997 101.119C141.039 101.628 141.954 102.362 142.679 103.267C144.478 105.32 148.163 115.845 148.163 115.845L145.905 116.812C145.905 116.812 143.448 105.32 140.634 103.529C138.161 102.054 135.308 101.34 132.431 101.476C131.639 101.476 130.751 101.421 130.188 101.365L130.91 100.042Z" fill="#74B790"/>
</g>
</g>
<path d="M130.805 100.128C132.268 100.303 133.745 100.316 135.211 100.168C136.552 100.073 137.898 100.258 139.163 100.713C140.428 101.167 141.585 101.88 142.558 102.807C144.658 104.9 146.521 111.723 147.313 113.435C148.106 115.147 148.36 115.924 148.36 115.924L138.651 120.124L134.585 108.577" stroke="#263238" stroke-width="0.384455" stroke-linecap="round" stroke-linejoin="round"/>
<path d="M143.146 144.02C143.146 144.02 139.183 140.454 136.433 140.248" stroke="#263238" stroke-width="0.384455" stroke-linecap="round" stroke-linejoin="round"/>
<path d="M136.011 138.536C137.959 139.394 139.852 140.373 141.678 141.468" stroke="#263238" stroke-width="0.384455" stroke-linecap="round" stroke-linejoin="round"/>
<path d="M111.443 87.0669C109.895 80.9163 111.502 75.2097 115.034 74.3206C118.565 73.4316 122.683 77.6969 124.232 83.8474C125.78 89.9979 124.172 95.7046 120.641 96.5936C117.109 97.4827 112.991 93.2174 111.443 87.0669Z" fill="white"/>
<mask id="mask4_4681_57538" style="mask-type:luminance" maskUnits="userSpaceOnUse" x="110" y="74" width="15" height="23">
<path d="M111.441 87.0654C109.892 80.9149 111.5 75.2082 115.032 74.3192C118.563 73.4301 122.681 77.6954 124.229 83.8459C125.778 89.9964 124.17 95.7031 120.639 96.5922C117.107 97.4812 112.989 93.2159 111.441 87.0654Z" fill="white"/>
</mask>
<g mask="url(#mask4_4681_57538)">
<g style="mix-blend-mode:multiply" opacity="0.4">
<path d="M121.31 96.3555C121.754 95.4679 122.34 93.336 121.92 91.9887C121.278 89.9439 117.823 87.6455 117.823 87.6455C117.823 87.6455 119.408 88.0259 120.993 88.2716C122.578 88.5173 124.773 88.874 124.773 88.874L124.226 92.7099C123.489 94.4376 122.594 95.8483 121.31 96.3555Z" fill="#FFBE9D"/>
</g>
</g>
<path d="M111.443 87.0669C109.895 80.9163 111.502 75.2097 115.034 74.3206C118.565 73.4316 122.683 77.6969 124.232 83.8474C125.78 89.9979 124.172 95.7046 120.641 96.5936C117.109 97.4827 112.991 93.2174 111.443 87.0669Z" fill="#FFBE9D" stroke="#263238" stroke-width="0.384455" stroke-linecap="round" stroke-linejoin="round"/>
<g style="mix-blend-mode:multiply" opacity="0.4">
<path d="M124.18 93.0518C124.783 94.2406 126.653 97.9497 128.587 99.1702C129.133 99.5219 129.729 99.7891 130.354 99.9627" fill="white"/>
</g>
<g style="mix-blend-mode:multiply" opacity="0.4">
<path d="M121.027 112.5C121.027 112.5 120.512 119.8 121.027 121.599C121.542 123.398 123.587 123.263 122.564 124.286C121.451 125.213 120.248 126.028 118.974 126.719L117.183 128.518L116.779 125.791C116.779 125.791 118.063 126.18 119.347 121.694C120.166 118.683 120.728 115.607 121.027 112.5Z" fill="white"/>
</g>
<path d="M114.923 88.6528C115.34 89.2564 115.611 89.948 115.716 90.6738C115.716 90.9116 115.716 91.1256 115.716 91.2999C115.709 91.3833 115.72 91.4671 115.748 91.5458C115.777 91.6244 115.822 91.6959 115.881 91.7555C115.94 91.815 116.011 91.861 116.089 91.8905C116.167 91.9199 116.251 91.932 116.334 91.926L117.277 91.8547" stroke="#263238" stroke-width="0.384455" stroke-linecap="round" stroke-linejoin="round"/>
<path d="M118.956 93.7566C119.395 93.8054 119.835 93.6848 120.187 93.4196C120.539 93.1544 120.776 92.7646 120.851 92.3301" stroke="#263238" stroke-width="0.384455" stroke-linecap="round" stroke-linejoin="round"/>
<path d="M117.531 88.4146L118.006 89.3656C118.284 89.4982 118.598 89.5351 118.899 89.4706C119.2 89.4061 119.471 89.2438 119.671 89.009" stroke="#263238" stroke-width="0.384455" stroke-linecap="round" stroke-linejoin="round"/>
<path d="M113.743 89.8418L114.448 90.7928C114.448 90.7928 115.399 90.7928 115.399 90.0796" stroke="#263238" stroke-width="0.384455" stroke-linecap="round" stroke-linejoin="round"/>
<path d="M109.985 81.4091C108.4 76.741 112.26 71.8986 118.022 72.0016C123.784 72.1046 127.818 77.7396 129.728 81.5993C131.514 83.3893 133.049 85.4128 134.293 87.6147C136.67 91.6804 136.67 94.0422 138.493 96.6656C140.316 99.2889 145.705 99.4236 148.86 102.839C152.014 106.255 152.03 110.186 150.564 112.81C149.097 115.433 148.186 118.841 150.041 121.203C151.895 123.564 153.71 126.75 152.268 132.1C151.996 133.295 151.367 134.378 150.463 135.205C149.56 136.032 148.425 136.564 147.211 136.729C147.29 136.281 147.314 135.826 147.283 135.373C147.18 132.996 145.975 122.051 145.444 117.208L148.329 115.956C148.329 115.956 148.067 115.164 147.283 113.467C146.498 111.771 144.659 104.932 142.527 102.839C141.553 101.914 140.396 101.202 139.131 100.749C137.866 100.296 136.521 100.112 135.18 100.208C133.715 100.357 132.237 100.343 130.774 100.169C129.89 100.061 129.046 99.74 128.314 99.2333C127.582 98.7265 126.985 98.0493 126.573 97.26L126.367 96.9192V96.8795C126.145 96.515 125.924 96.1266 125.678 95.7224C125.109 94.7636 124.621 93.7588 124.22 92.7187C124.62 91.4785 124.833 90.1857 124.854 88.8828C122.27 88.7956 115.121 88.1616 111.507 83.9135C111.293 83.652 111.095 83.3905 110.921 83.121C110.972 84.4582 111.164 85.7863 111.491 87.0837C112.158 90.0638 113.662 92.7914 115.827 94.9457L116.207 95.2707L116.445 95.4609C116.564 95.5481 116.675 95.6353 116.793 95.7066C116.877 95.7677 116.964 95.8233 117.055 95.873C117.162 95.9449 117.273 96.011 117.388 96.0711L117.665 96.2138L117.998 96.3565L118.275 96.4595L118.608 96.5625L118.886 96.6338C119.478 96.7687 120.093 96.7687 120.685 96.6338L120.915 96.5546C121.167 97.0279 121.248 97.5738 121.144 98.1001C121.104 98.2327 121.029 98.3522 120.927 98.4468C120.826 98.5414 120.701 98.6077 120.566 98.639C120.057 98.7919 119.562 98.9853 119.084 99.2175C119.386 102.421 119.915 105.6 120.669 108.728C121.985 114.236 120.542 119.483 118.965 123.287C117.388 127.091 112.537 129.453 110.833 127.25C109.13 125.047 109.653 122.661 110.699 117.406C111.745 112.152 114.503 104.551 114.503 98.7737C114.503 92.9961 111.095 91.1653 109.383 87.7574C108.155 85.2926 109.248 82.693 109.985 81.4091Z" fill="#263238"/>
<path d="M111.588 79.6421C111.588 79.6421 117.643 84.9442 123.476 85.5148C129.309 86.0855 129.911 86.0776 129.911 86.0776" stroke="white" stroke-width="0.274208" stroke-linecap="round" stroke-linejoin="round"/>
<path d="M112.909 75.6626C112.909 75.6626 118.401 81.9158 122.943 83.4295C127.484 84.9433 129.378 84.9433 129.378 84.9433" stroke="white" stroke-width="0.274208" stroke-linecap="round" stroke-linejoin="round"/>
<path d="M116.128 73.3965C116.128 73.3965 117.641 78.1517 121.24 80.4026" stroke="white" stroke-width="0.274208" stroke-linecap="round" stroke-linejoin="round"/>
<path d="M126.542 91.1885C126.542 91.1885 126.733 97.2514 130.141 98.1946C133.548 99.1377 137.329 97.2514 141.688 99.5181C143.389 100.433 144.771 101.845 145.651 103.565C146.53 105.285 146.864 107.233 146.61 109.148" stroke="white" stroke-width="0.274208" stroke-linecap="round" stroke-linejoin="round"/>
<path d="M147.932 134.732C148.835 133.422 149.438 131.929 149.7 130.359C149.962 128.79 149.875 127.182 149.446 125.65C147.932 120.538 146.799 118.644 146.799 118.644" stroke="white" stroke-width="0.274208" stroke-linecap="round" stroke-linejoin="round"/>
<path d="M114.399 101.033C114.399 101.033 113.456 108.229 116.673 112.77C119.891 117.312 117.807 123.565 117.807 123.565" stroke="white" stroke-width="0.274208" stroke-linecap="round" stroke-linejoin="round"/>
<path d="M114.233 94.4062C114.233 94.4062 114.043 96.4906 116.698 101.793C119.353 107.095 120.106 108.799 120.296 112.587" stroke="white" stroke-width="0.274208" stroke-linecap="round" stroke-linejoin="round"/>
<path d="M96.0606 154.688C96.0606 154.688 91.8047 154.276 89.3399 155.369C86.8751 156.463 86.3203 158.246 85.7734 156.606C85.2266 154.965 85.2266 153.998 87.2793 152.905C89.3319 151.811 90.1641 152.492 90.9804 151.668C91.3812 151.238 91.8432 150.87 92.3515 150.574C92.3515 150.574 94.5469 150.297 94.6895 151.533C94.8322 152.77 96.877 153.174 96.877 153.174L96.0606 154.688Z" fill="#FFBE9D" stroke="#263238" stroke-width="0.384455" stroke-miterlimit="10"/>
<path d="M78.2667 122.479C79.7092 119.197 85.7246 121.448 92.6989 127.067C101.726 134.343 108.74 136.039 112.513 136.332V136.213C114.478 135.294 117.268 135.254 120.589 135.793C120.692 135.643 120.795 135.492 120.89 135.334C127.23 125.498 128.894 123.794 130.995 125.498C133.095 127.202 135.457 129.825 134.672 137.965C134.602 138.605 134.48 139.239 134.307 139.859C137.429 141.342 140.397 143.129 143.168 145.193C142.863 146.579 142.433 147.934 141.884 149.243C138.357 157.485 127.912 156.732 121.088 154.252C119.024 155.368 116.782 156.116 114.462 156.463C109.057 157.137 105.403 156.938 103.264 156.122L99.6337 159.086C93.92 154.751 89.0793 149.373 85.3679 143.235C83.5585 140.175 81.9541 136.998 80.5651 133.725C78.3064 128.613 77.5376 124.127 78.2667 122.479Z" fill="#263238"/>
<path d="M120.905 135.302C120.149 136.484 119.324 137.619 118.432 138.702L93.7921 134.28L101.551 128.066L123.528 131.284C122.775 132.441 121.896 133.789 120.905 135.302Z" fill="white" stroke="#263238" stroke-width="0.384455" stroke-linecap="round" stroke-linejoin="round"/>
<path opacity="0.5" d="M120.905 135.302C120.149 136.484 119.324 137.619 118.432 138.702L93.7921 134.28L101.551 128.066L123.528 131.284C122.775 132.441 121.896 133.789 120.905 135.302Z" fill="white" stroke="#263238" stroke-width="0.418661" stroke-linecap="round" stroke-linejoin="round"/>
<path d="M115.423 120.743L119.259 137.68C118.989 138.036 118.712 138.385 118.466 138.726L93.7944 134.28L88.9202 116.542L115.423 120.743Z" fill="white" stroke="#263238" stroke-width="0.384455" stroke-linecap="round" stroke-linejoin="round"/>
<path d="M102.867 130.594C103.344 130.73 103.851 130.721 104.323 130.57C104.795 130.419 105.213 130.132 105.522 129.745C105.832 129.358 106.021 128.888 106.065 128.394C106.109 127.9 106.007 127.404 105.77 126.968C105.534 126.532 105.174 126.176 104.736 125.943C104.298 125.711 103.801 125.613 103.307 125.662C102.814 125.71 102.346 125.904 101.961 126.217C101.577 126.531 101.294 126.95 101.147 127.424C100.96 128.073 101.035 128.769 101.357 129.362C101.679 129.955 102.221 130.398 102.867 130.594Z" fill="white"/>
<path d="M115.423 120.743L119.259 137.68C118.989 138.036 118.712 138.385 118.466 138.726L93.7944 134.28L88.9202 116.542L115.423 120.743Z" fill="#FD7E50" stroke="#263238" stroke-width="0.418661" stroke-linecap="round" stroke-linejoin="round"/>
<path d="M102.867 130.594C103.344 130.73 103.851 130.721 104.323 130.57C104.795 130.419 105.213 130.132 105.522 129.745C105.832 129.358 106.021 128.888 106.065 128.394C106.109 127.9 106.007 127.404 105.77 126.968C105.534 126.532 105.174 126.176 104.736 125.943C104.298 125.711 103.801 125.613 103.307 125.662C102.814 125.71 102.346 125.904 101.961 126.217C101.577 126.531 101.294 126.95 101.147 127.424C100.96 128.073 101.035 128.769 101.357 129.362C101.679 129.955 102.221 130.398 102.867 130.594Z" fill="white" stroke="#263238" stroke-width="0.418661" stroke-linecap="round" stroke-linejoin="round"/>
<path d="M104.097 154.744C104.097 154.744 107.489 157.264 109.399 158.31C111.309 159.356 111.919 159 113.75 160.743C115.581 162.487 117.134 163.7 117.57 164.397C118.006 165.094 118.529 165.784 118.79 164.223C118.897 163.422 118.793 162.606 118.487 161.858C118.181 161.11 117.684 160.455 117.047 159.959C115.834 159.087 114.178 158.738 114.178 157.581C114.218 157.076 114.059 156.575 113.734 156.186C113.41 155.796 112.946 155.549 112.442 155.497C111.483 155.497 110.857 156.448 109.05 155.497C107.808 154.73 106.789 153.65 106.094 152.366L104.097 154.744Z" fill="#FFBE9D" stroke="#263238" stroke-width="0.384455" stroke-miterlimit="10"/>
<path d="M134.103 140.731C134.103 140.731 130.354 149.695 121.715 153.768" stroke="white" stroke-width="0.274208" stroke-miterlimit="10"/>
<path d="M104.962 148.069C104.962 148.069 99.5964 145.383 91.7344 131.798" stroke="white" stroke-width="0.274208" stroke-miterlimit="10"/>
<path d="M119.347 137.958C119.347 137.958 113.664 146.287 107.038 149.124" stroke="white" stroke-width="0.274208" stroke-miterlimit="10"/>
<path d="M24.9889 89.2222H56.9169C59.1196 89.2222 60.9053 91.0078 60.9053 93.2106V160.613C60.9053 162.816 59.1196 164.601 56.9169 164.601H24.9889C22.7861 164.601 21.0005 162.816 21.0005 160.613V93.2106C21.0005 91.0078 22.7861 89.2222 24.9889 89.2222Z" fill="#263238"/>
<path d="M22.7734 97.501H59.1318V156.329H22.7734V97.501Z" fill="white"/>
<mask id="mask5_4681_57538" style="mask-type:luminance" maskUnits="userSpaceOnUse" x="22" y="97" width="38" height="60">
<path d="M22.7734 97.501H59.1318V156.329H22.7734V97.501Z" fill="white"/>
</mask>
<g mask="url(#mask5_4681_57538)">
<g style="mix-blend-mode:multiply" opacity="0.4">
<path d="M22.7734 136.558L56.667 156.323H22.7734V136.558Z" fill="white"/>
</g>
</g>
<path d="M22.7734 97.501H59.1318V156.329H22.7734V97.501Z" fill="#2A2929" stroke="#263238" stroke-width="0.27469" stroke-miterlimit="10"/>
<path d="M37.0008 93.3818H44.9048C45.0427 93.3818 45.175 93.327 45.2725 93.2295C45.37 93.132 45.4248 92.9997 45.4248 92.8618C45.4248 92.7239 45.37 92.5916 45.2725 92.4941C45.175 92.3966 45.0427 92.3418 44.9048 92.3418H37.0008C36.8629 92.3418 36.7306 92.3966 36.6331 92.4941C36.5356 92.5916 36.4808 92.7239 36.4808 92.8618C36.4808 92.9997 36.5356 93.132 36.6331 93.2295C36.7306 93.327 36.8629 93.3818 37.0008 93.3818Z" fill="white"/>
<path opacity="0.4" d="M37.0008 93.3818H44.9048C45.0427 93.3818 45.175 93.327 45.2725 93.2295C45.37 93.132 45.4248 92.9997 45.4248 92.8618C45.4248 92.7239 45.37 92.5916 45.2725 92.4941C45.175 92.3966 45.0427 92.3418 44.9048 92.3418H37.0008C36.8629 92.3418 36.7306 92.3966 36.6331 92.4941C36.5356 92.5916 36.4808 92.7239 36.4808 92.8618C36.4808 92.9997 36.5356 93.132 36.6331 93.2295C36.7306 93.327 36.8629 93.3818 37.0008 93.3818Z" fill="white"/>
<path d="M38.7944 159.646C38.7944 159.219 38.9209 158.802 39.158 158.447C39.3952 158.092 39.7322 157.816 40.1265 157.653C40.5208 157.489 40.9547 157.446 41.3734 157.53C41.792 157.613 42.1765 157.819 42.4783 158.12C42.7801 158.422 42.9856 158.807 43.0689 159.225C43.1522 159.644 43.1094 160.078 42.9461 160.472C42.7827 160.866 42.5061 161.203 42.1513 161.441C41.7964 161.678 41.3792 161.804 40.9523 161.804C40.38 161.804 39.8311 161.577 39.4264 161.172C39.0217 160.768 38.7944 160.219 38.7944 159.646Z" fill="white" stroke="#263238" stroke-width="0.366253" stroke-miterlimit="10"/>
<path d="M39.8612 158.554H42.0452V160.738H39.8612V158.554Z" fill="white" stroke="#263238" stroke-width="0.27469" stroke-linecap="round" stroke-linejoin="round"/>
<path opacity="0.6" d="M39.8612 158.554H42.0452V160.738H39.8612V158.554Z" fill="white" stroke="#263238" stroke-width="0.27469" stroke-linecap="round" stroke-linejoin="round"/>
<path d="M39.8612 158.554H42.0452V160.738H39.8612V158.554Z" stroke="#263238" stroke-width="0.27469" stroke-linecap="round" stroke-linejoin="round"/>
</g>
<defs>
<clipPath id="clip0_4681_57538">
<rect width="260" height="260" fill="white" transform="matrix(-1 0 0 1 204 -42)"/>
</clipPath>
</defs>
</svg>
