<svg width="20" height="20" viewBox="0 0 20 20" fill="none" xmlns="http://www.w3.org/2000/svg">
<path d="M5.20001 11.1438C5.20001 11.9817 5.4107 12.7628 5.83209 13.4871C6.25332 14.2114 6.82194 14.796 7.53795 15.2409C7.46933 15.1108 7.41633 14.9732 7.37895 14.8281C7.34171 14.6832 7.3231 14.5397 7.3231 14.3977C7.3231 14.0474 7.38971 13.7181 7.52295 13.4098C7.65602 13.1015 7.82964 12.8248 8.0438 12.5799L10.1847 10.1303L12.3343 12.5799C12.5486 12.8402 12.7208 13.1245 12.851 13.4328C12.9811 13.7412 13.0462 14.0628 13.0462 14.3977C13.0462 14.5397 13.0276 14.687 12.9904 14.8396C12.953 14.9924 12.9 15.1339 12.8314 15.264C13.5474 14.8652 14.116 14.296 14.5372 13.5563C14.9586 12.8166 15.1693 12.0124 15.1693 11.1438C15.1693 10.3592 15.0347 9.58612 14.7655 8.82458C14.4962 8.06304 14.1078 7.35919 13.6001 6.71303C13.3385 6.88226 13.0654 7.01303 12.7808 7.10534C12.4962 7.19765 12.1847 7.2438 11.8462 7.2438C11.0404 7.2438 10.3336 6.99765 9.72588 6.50534C9.11819 6.01303 8.74034 5.36864 8.59234 4.57217C8.03849 5.07402 7.55387 5.59033 7.13848 6.1211C6.72309 6.65188 6.36925 7.19711 6.07694 7.7568C5.78463 8.31665 5.56539 8.8812 5.41924 9.45043C5.27309 10.0197 5.20001 10.5841 5.20001 11.1438ZM10.1847 11.9746L8.96157 13.3592C8.82311 13.5285 8.71542 13.7015 8.63849 13.8785C8.56157 14.0554 8.52311 14.2515 8.52311 14.4669C8.52311 14.9285 8.68465 15.3208 9.00772 15.6439C9.3308 15.9669 9.72311 16.1285 10.1847 16.1285C10.6462 16.1285 11.0385 15.9669 11.3616 15.6439C11.6847 15.3208 11.8462 14.9285 11.8462 14.4669C11.8462 14.2515 11.8077 14.0515 11.7308 13.8669C11.6539 13.6823 11.5462 13.5131 11.4077 13.3592L10.1847 11.9746ZM9.72311 2V3.9207C9.72311 4.5124 9.92904 5.01417 10.3409 5.42602C10.7527 5.83787 11.2545 6.04379 11.8462 6.04379C12.1136 6.04379 12.3677 5.99441 12.6087 5.89564C12.8494 5.79687 13.0616 5.65925 13.2451 5.48279L13.6054 5.1191C14.4243 5.68002 15.0897 6.52203 15.6015 7.64511C16.1134 8.7682 16.3693 9.93443 16.3693 11.1438C16.3693 12.8598 15.7675 14.3196 14.564 15.5232C13.3604 16.7267 11.9007 17.3285 10.1847 17.3285C8.46864 17.3285 7.00887 16.7267 5.80532 15.5232C4.60177 14.3196 4 12.8598 4 11.1438C4 9.62197 4.50031 8.04827 5.50093 6.42272C6.50155 4.79732 7.90895 3.32309 9.72311 2Z" fill="#2F945A"/>
</svg>
