<svg width="44" height="44" viewBox="0 0 44 44" fill="none" xmlns="http://www.w3.org/2000/svg">
<rect x="0.5" y="0.5" width="43" height="43" rx="21.5" fill="white"/>
<rect x="0.5" y="0.5" width="43" height="43" rx="21.5" stroke="#BFDECC"/>
<path d="M26 31.5C24.4743 31.5 23.1763 30.9648 22.1058 29.8943C21.0353 28.8238 20.5 27.5257 20.5 26C20.5 24.4743 21.0353 23.1763 22.1058 22.1058C23.1763 21.0353 24.4743 20.5 26 20.5C27.5257 20.5 28.8238 21.0353 29.8943 22.1058C30.9648 23.1763 31.5 24.4743 31.5 26C31.5 27.5257 30.9648 28.8238 29.8943 29.8943C28.8238 30.9648 27.5257 31.5 26 31.5ZM26 30C27.1 30 28.0417 29.6083 28.825 28.825C29.6083 28.0417 30 27.1 30 26C30 24.9 29.6083 23.9583 28.825 23.175C28.0417 22.3917 27.1 22 26 22C24.9 22 23.9583 22.3917 23.175 23.175C22.3917 23.9583 22 24.9 22 26C22 27.1 22.3917 28.0417 23.175 28.825C23.9583 29.6083 24.9 30 26 30ZM14.3077 29.5C13.8026 29.5 13.375 29.325 13.025 28.975C12.675 28.625 12.5 28.1974 12.5 27.6923V20.4577C12.5 20.3244 12.5189 20.1814 12.5567 20.0288C12.5946 19.8763 12.6385 19.7333 12.6885 19.6L14.804 14.8077H14.327C14.0757 14.8077 13.8718 14.7295 13.7155 14.573C13.559 14.4167 13.4807 14.2128 13.4807 13.9615V13.3462C13.4807 13.0949 13.559 12.8911 13.7155 12.7348C13.8718 12.5783 14.0757 12.5 14.327 12.5H20.673C20.9243 12.5 21.1282 12.5783 21.2845 12.7348C21.441 12.8911 21.5192 13.0949 21.5192 13.3462V13.9615C21.5192 14.2128 21.441 14.4167 21.2845 14.573C21.1282 14.7295 20.9243 14.8077 20.673 14.8077H20.196L22.2692 19.5307C22.0422 19.6526 21.824 19.7859 21.6145 19.9307C21.4048 20.0756 21.2038 20.2391 21.0115 20.4212L18.5845 14.8077H16.4155L14 20.3712V27.6923C14 27.7821 14.0288 27.8558 14.0865 27.9135C14.1442 27.9712 14.2179 28 14.3077 28H18.7692C18.8334 28.2667 18.9187 28.5276 19.025 28.7828C19.1315 29.0378 19.2558 29.2768 19.398 29.5H14.3077ZM26 19.3078C25.4347 19.2501 24.96 19.0133 24.576 18.5973C24.192 18.1811 24 17.6807 24 17.0962C24 16.5116 24.192 16.0113 24.576 15.5952C24.96 15.1793 25.4347 14.9424 26 14.8848V19.3078C26.0577 18.7424 26.2945 18.2677 26.7105 17.8837C27.1265 17.4997 27.6268 17.3078 28.2115 17.3078C28.7962 17.3078 29.2965 17.4997 29.7125 17.8837C30.1285 18.2677 30.3653 18.7424 30.423 19.3078H26Z" fill="#2F945A"/>
</svg>
