<svg width="44" height="44" viewBox="0 0 44 44" fill="none" xmlns="http://www.w3.org/2000/svg">
<rect x="0.5" y="0.5" width="43" height="43" rx="21.5" fill="white"/>
<rect x="0.5" y="0.5" width="43" height="43" rx="21.5" stroke="#BFDECC"/>
<path d="M22.5 31.048C22.2705 31.048 22.0471 31.0051 21.8298 30.9192C21.6124 30.8334 21.4211 30.7046 21.2558 30.5328L14.748 24C14.1647 23.4167 13.7275 22.7548 13.4365 22.0145C13.1455 21.274 13 20.5083 13 19.7173C13 18.1418 13.5038 16.795 14.5115 15.677C15.5192 14.559 16.7666 14 18.2537 14C18.9961 14 19.7022 14.1503 20.372 14.451C21.042 14.7517 21.6392 15.1725 22.1635 15.7135L22.5 16.0692L22.8173 15.7327C23.3378 15.1789 23.9346 14.7517 24.6077 14.451C25.2808 14.1503 25.9852 14 26.7212 14C28.2084 14 29.46 14.559 30.476 15.677C31.492 16.795 32 18.1334 32 19.6923C32 20.4898 31.8519 21.2587 31.5557 21.999C31.2596 22.7395 30.825 23.4014 30.252 23.9847L23.7193 30.5328C23.5474 30.7046 23.3586 30.8334 23.1528 30.9192C22.9471 31.0051 22.7295 31.048 22.5 31.048ZM23.5 18.7885C23.6282 18.7885 23.748 18.8189 23.8595 18.8798C23.9712 18.9408 24.059 19.0219 24.123 19.1233L25.8903 21.7885H30.002C30.1763 21.4538 30.3071 21.1102 30.3943 20.7578C30.4814 20.4053 30.5218 20.0501 30.5155 19.6923C30.4885 18.5423 30.1147 17.5612 29.3943 16.749C28.6738 15.9368 27.7827 15.5307 26.7212 15.5307C26.1917 15.5307 25.6798 15.6356 25.1855 15.8453C24.6913 16.0549 24.2628 16.361 23.9 16.7635L23.1095 17.6135C23.0327 17.7072 22.9404 17.7767 22.8328 17.8222C22.7251 17.8677 22.6142 17.8905 22.5 17.8905C22.3858 17.8905 22.2733 17.8661 22.1625 17.8173C22.0517 17.7686 21.9527 17.7007 21.8655 17.6135L21.075 16.7635C20.7122 16.361 20.2862 16.0498 19.797 15.8298C19.308 15.6099 18.7936 15.5 18.2537 15.5C17.1922 15.5 16.3012 15.9112 15.5807 16.7337C14.8602 17.5561 14.5 18.5423 14.5 19.6923C14.5 20.0564 14.541 20.4132 14.623 20.7625C14.7052 21.1118 14.8302 21.4538 14.998 21.7885H19.5C19.6282 21.7885 19.7464 21.8189 19.8548 21.8797C19.9631 21.9407 20.0493 22.0219 20.1135 22.1233L21.277 23.8558L22.7905 19.3155C22.8443 19.1603 22.9347 19.0338 23.0615 18.9358C23.1885 18.8376 23.3347 18.7885 23.5 18.7885ZM23.723 21.2212L22.2095 25.7615C22.1557 25.9167 22.0612 26.0432 21.926 26.1412C21.7907 26.2394 21.6403 26.2885 21.475 26.2885C21.3468 26.2885 21.2286 26.2581 21.1202 26.1972C21.0119 26.1362 20.9257 26.0551 20.8615 25.9537L19.0848 23.2885H16.1595L22.325 29.4635C22.3583 29.4968 22.3875 29.5177 22.4125 29.526C22.4375 29.5343 22.4667 29.5385 22.5 29.5385C22.5333 29.5385 22.5625 29.5343 22.5875 29.526C22.6125 29.5177 22.6417 29.4968 22.675 29.4635L28.825 23.2885H25.5C25.3718 23.2885 25.252 23.2564 25.1405 23.1922C25.0288 23.1282 24.9358 23.0456 24.8615 22.9443L23.723 21.2212Z" fill="#2F945A"/>
</svg>
