<svg width="24" height="24" viewBox="0 0 24 24" fill="none" xmlns="http://www.w3.org/2000/svg">
<path d="M1.5 18.5V4.50003H2.99995V14H11.25V6.50003H19C19.9624 6.50003 20.7864 6.84274 21.4718 7.52816C22.1572 8.21357 22.4999 9.03752 22.4999 10V18.5H21V15.5H2.99995V18.5H1.5ZM6.99882 12.5577C6.28804 12.5577 5.68426 12.3089 5.18748 11.8114C4.69069 11.3138 4.4423 10.7096 4.4423 9.99888C4.4423 9.2881 4.69107 8.68431 5.1886 8.18753C5.68615 7.69075 6.29031 7.44236 7.00108 7.44236C7.71186 7.44236 8.31564 7.69112 8.81243 8.18866C9.30921 8.68621 9.5576 9.29036 9.5576 10.0011C9.5576 10.7119 9.30883 11.3157 8.8113 11.8125C8.31375 12.3093 7.70959 12.5577 6.99882 12.5577ZM12.7499 14H21V10C21 9.45001 20.8041 8.97917 20.4125 8.58751C20.0208 8.19584 19.5499 8.00001 19 8.00001H12.7499V14ZM6.99995 11.0577C7.2961 11.0577 7.54643 10.9555 7.75093 10.751C7.95541 10.5465 8.05765 10.2962 8.05765 10C8.05765 9.70386 7.95541 9.45353 7.75093 9.24903C7.54643 9.04455 7.2961 8.94231 6.99995 8.94231C6.7038 8.94231 6.45347 9.04455 6.24898 9.24903C6.04449 9.45353 5.94225 9.70386 5.94225 10C5.94225 10.2962 6.04449 10.5465 6.24898 10.751C6.45347 10.9555 6.7038 11.0577 6.99995 11.0577Z" fill="#4A4E69"/>
</svg>
