<svg width="48" height="48" viewBox="0 0 48 48" fill="none" xmlns="http://www.w3.org/2000/svg">
<path d="M31.1998 10.6L24.5998 12.9L23.1998 8.59999C22.5998 6.79999 23.4998 4.79999 25.3998 4.19999C27.1998 3.59999 29.1998 4.49999 29.7998 6.39999L31.1998 10.6ZM29.1998 26.6L35.7998 24.3L33.4998 17.2L26.8998 19.5L29.1998 26.6ZM32.5998 36.8C33.0998 38.2 34.4998 39.2 35.8998 39.2C36.2998 39.2 36.6998 39.1 36.9998 39C38.7998 38.4 39.7998 36.4 39.1998 34.6L37.9998 31L31.3998 33.3L32.5998 36.8Z" fill="#FFB300"/>
<path d="M17.1998 15.5L10.5998 17.8L9.19984 13.6C8.59984 11.8 9.49984 9.79999 11.3998 9.19999C13.1998 8.59999 15.1998 9.49999 15.7998 11.4L17.1998 15.5ZM18.5998 41.8C19.0998 43.2 20.4998 44.2 21.8998 44.2C22.2998 44.2 22.6998 44.1 22.9998 44C24.7998 43.4 25.7998 41.4 25.1998 39.6L23.9998 35.9L17.3998 38.2L18.5998 41.8ZM19.3998 22.2L12.7998 24.5L15.0998 31.6L21.6998 29.3L19.3998 22.2Z" fill="#00BFA5"/>
<path d="M33.3998 17.3L31.1998 10.7L35.2998 9.3C37.0998 8.7 39.0998 9.6 39.6998 11.5C40.2998 13.3 39.3998 15.3 37.4998 15.9L33.3998 17.3ZM26.7998 19.6L24.5998 13L17.1998 15.6L19.3998 22.2L26.7998 19.6ZM6.39982 19.3C4.59982 19.9 3.59982 21.9 4.19982 23.7C4.69982 25.2 6.09982 26.1 7.49982 26.1C7.89982 26.1 8.29982 26 8.59982 25.9L12.6998 24.5L10.4998 17.9L6.39982 19.3Z" fill="#00BCD4"/>
<path d="M15.0998 31.5L17.2998 38.1L12.5998 39.7C12.1998 39.8 11.7998 39.9 11.4998 39.9C9.99984 39.9 8.69984 39 8.19984 37.5C7.59984 35.7 8.49984 33.7 10.3998 33.1L15.0998 31.5ZM43.6998 25.3C43.0998 23.5 41.0998 22.5 39.2998 23.1L35.7998 24.3L37.9998 31L41.5998 29.8C43.3998 29.1 44.3998 27.1 43.6998 25.3ZM21.6998 29.2L23.8998 35.8L31.2998 33.2L29.0998 26.6L21.6998 29.2Z" fill="#E91E63"/>
<path d="M33.3996 17.3L31.1996 10.6L24.5996 12.9L26.7996 19.6L33.3996 17.3Z" fill="#388E3C"/>
<path d="M17.1996 15.5L10.5996 17.8L12.7996 24.5L19.3996 22.2L17.1996 15.5Z" fill="#00897B"/>
<path d="M29.1992 26.6L31.3992 33.3L37.9992 31L35.7992 24.3L29.1992 26.6Z" fill="#BF360C"/>
<path d="M15.0996 31.5L17.2996 38.2L23.8996 35.9L21.6996 29.2L15.0996 31.5Z" fill="#4E342E"/>
</svg>
