<svg width="49" height="49" viewBox="0 0 49 49" fill="none" xmlns="http://www.w3.org/2000/svg">
<path d="M15.659 22.134C13.9117 22.134 12.4204 21.5163 11.185 20.281C9.9497 19.046 9.33203 17.5546 9.33203 15.807C9.33203 14.0596 9.9497 12.5683 11.185 11.333C12.4204 10.098 13.9117 9.48047 15.659 9.48047C17.4064 9.48047 18.8977 10.098 20.133 11.333C21.3684 12.5683 21.986 14.0596 21.986 15.807C21.986 17.5546 21.3684 19.046 20.133 20.281C18.8977 21.5163 17.4064 22.134 15.659 22.134ZM15.658 19.134C16.5817 19.134 17.3672 18.8106 18.0145 18.164C18.6622 17.5173 18.986 16.7321 18.986 15.8085C18.986 14.8845 18.6627 14.0988 18.016 13.4515C17.3694 12.8041 16.584 12.4805 15.66 12.4805C14.7364 12.4805 13.9507 12.8038 13.303 13.4505C12.6557 14.0971 12.332 14.8823 12.332 15.806C12.332 16.73 12.6554 17.5156 13.302 18.163C13.9487 18.8103 14.734 19.134 15.658 19.134ZM33.0245 39.4995C31.2769 39.4995 29.7855 38.8818 28.5505 37.6465C27.3152 36.4111 26.6975 34.9198 26.6975 33.1725C26.6975 31.4251 27.3152 29.9338 28.5505 28.6985C29.7855 27.4631 31.2769 26.8455 33.0245 26.8455C34.7719 26.8455 36.2632 27.4631 37.4985 28.6985C38.7335 29.9338 39.351 31.4251 39.351 33.1725C39.351 34.9198 38.7335 36.4111 37.4985 37.6465C36.2632 38.8818 34.7719 39.4995 33.0245 39.4995ZM33.023 36.4995C33.947 36.4995 34.7327 36.1761 35.38 35.5295C36.0274 34.8828 36.351 34.0975 36.351 33.1735C36.351 32.2498 36.0277 31.4643 35.381 30.817C34.7344 30.1693 33.9492 29.8455 33.0255 29.8455C32.1015 29.8455 31.3159 30.1688 30.6685 30.8155C30.0212 31.4621 29.6975 32.2475 29.6975 33.1715C29.6975 34.0951 30.0209 34.8808 30.6675 35.5285C31.3142 36.1758 32.0994 36.4995 33.023 36.4995ZM11.613 39.307L9.52453 37.2185L37.0705 9.67247L39.159 11.761L11.613 39.307Z" fill="#143E26"/>
</svg>
