<svg width="30" height="30" viewBox="0 0 30 30" fill="none" xmlns="http://www.w3.org/2000/svg">
<path d="M12.9892 15L17.7922 19.803L16.6069 21.0259L10.5806 15L16.6069 8.97413L17.7922 10.197L12.9892 15ZM14.9974 29.25C16.9684 29.25 18.821 28.876 20.5553 28.128C22.2895 27.38 23.798 26.3586 25.0808 25.0639C26.3635 23.7691 27.3791 22.2574 28.1276 20.5286C28.8759 18.8001 29.25 16.9581 29.25 15.0026C29.25 13.0316 28.876 11.179 28.128 9.44475C27.38 7.7105 26.3649 6.202 25.0826 4.91925C23.8004 3.6365 22.2925 2.62087 20.559 1.87237C18.8255 1.12412 16.9734 0.75 15.0026 0.75C13.0316 0.75 11.1852 1.124 9.4635 1.872C7.74175 2.62 6.23325 3.63513 4.938 4.91738C3.64275 6.19963 2.62087 7.7075 1.87237 9.441C1.12412 11.1745 0.749999 13.0266 0.749999 14.9974C0.749999 16.9529 1.124 18.7954 1.872 20.5249C2.62 22.2544 3.64137 23.7668 4.93612 25.062C6.23087 26.3573 7.73875 27.3791 9.45975 28.1276C11.1807 28.8759 13.0266 29.25 14.9974 29.25Z" fill="#C7C8D1"/>
</svg>
