<svg width="20" height="20" viewBox="0 0 20 20" fill="none" xmlns="http://www.w3.org/2000/svg">
<path d="M8.70419 13.2537L14.3272 7.65565L13.3984 6.7269L8.70419 11.3962L6.57919 9.29615L5.65044 10.2249L8.70419 13.2537ZM10.0002 19.0999C8.75285 19.0999 7.5761 18.8631 6.46994 18.3894C5.36377 17.9157 4.3956 17.264 3.56544 16.4342C2.73527 15.6043 2.08319 14.6366 1.60919 13.5309C1.13535 12.4252 0.898438 11.2488 0.898438 10.0017C0.898438 8.73765 1.13527 7.55674 1.60894 6.4589C2.0826 5.36107 2.73435 4.39707 3.56419 3.5669C4.39402 2.73674 5.36177 2.08465 6.46744 1.61065C7.5731 1.13682 8.74952 0.899902 9.99669 0.899902C11.2607 0.899902 12.4416 1.13674 13.5394 1.6104C14.6373 2.08407 15.6013 2.73582 16.4314 3.56565C17.2616 4.39549 17.9137 5.35907 18.3877 6.4564C18.8615 7.55374 19.0984 8.73432 19.0984 9.99815C19.0984 11.2455 18.8616 12.4222 18.3879 13.5284C17.9143 14.6346 17.2625 15.6027 16.4327 16.4329C15.6029 17.2631 14.6393 17.9152 13.5419 18.3892C12.4446 18.863 11.264 19.0999 10.0002 19.0999ZM9.99844 17.7999C12.1651 17.7999 14.0068 17.0416 15.5234 15.5249C17.0401 14.0082 17.7984 12.1666 17.7984 9.9999C17.7984 7.83324 17.0401 5.99157 15.5234 4.4749C14.0068 2.95824 12.1651 2.1999 9.99844 2.1999C7.83177 2.1999 5.9901 2.95824 4.47344 4.4749C2.95677 5.99157 2.19844 7.83324 2.19844 9.9999C2.19844 12.1666 2.95677 14.0082 4.47344 15.5249C5.9901 17.0416 7.83177 17.7999 9.99844 17.7999Z" fill="white"/>
</svg>
