<svg width="44" height="44" viewBox="0 0 44 44" fill="none" xmlns="http://www.w3.org/2000/svg">
<rect x="0.5" y="0.5" width="43" height="43" rx="21.5" fill="white"/>
<rect x="0.5" y="0.5" width="43" height="43" rx="21.5" stroke="#BFDECC"/>
<path d="M14 31V29.5H29V31H14ZM17.5673 27.1153C16.5827 27.1153 15.742 26.7717 15.0452 26.0846C14.3484 25.3974 14 24.5679 14 23.5961V14H29.1538C29.6615 14 30.0961 14.1766 30.4576 14.5298C30.8192 14.883 31 15.3122 31 15.8173V18.4327C31 18.9378 30.8192 19.367 30.4576 19.7202C30.0961 20.0734 29.6615 20.25 29.1538 20.25H27.1538V23.5961C27.1538 24.5679 26.8054 25.3974 26.1086 26.0846C25.4118 26.7717 24.5711 27.1153 23.5865 27.1153H17.5673ZM17.5673 25.6154H23.5865C24.155 25.6154 24.6417 25.4173 25.0465 25.0211C25.4514 24.6249 25.6538 24.1486 25.6538 23.5923V15.5H15.5V23.5959C15.5 24.1525 15.7024 24.6282 16.1072 25.0231C16.5121 25.4179 16.9988 25.6154 17.5673 25.6154ZM27.1538 18.75H29.1538C29.25 18.75 29.3317 18.7196 29.399 18.6587C29.4663 18.5978 29.5 18.5224 29.5 18.4327V15.8173C29.5 15.7276 29.4663 15.6522 29.399 15.5913C29.3317 15.5304 29.25 15.5 29.1538 15.5H27.1538V18.75ZM17.5673 25.6154H15.5H25.6538H17.5673Z" fill="#2F945A"/>
</svg>
