<svg width="24" height="24" viewBox="0 0 24 24" fill="none" xmlns="http://www.w3.org/2000/svg">
<path d="M6 21.5002C5.30133 21.5002 4.71 21.2582 4.226 20.7742C3.742 20.2902 3.5 19.6989 3.5 19.0002V17.4042C3.5 17.1464 3.58625 16.9313 3.75875 16.759C3.93108 16.5865 4.14617 16.5002 4.404 16.5002H6.5V3.18671C6.5 3.08288 6.542 3.01338 6.626 2.97821C6.71 2.94288 6.79042 2.95729 6.86725 3.02146L7.602 3.63096C7.68917 3.70529 7.78342 3.74246 7.88475 3.74246C7.98592 3.74246 8.08008 3.70529 8.16725 3.63096L9.00575 2.94646C9.09292 2.87213 9.18717 2.83496 9.2885 2.83496C9.38983 2.83496 9.48408 2.87213 9.57125 2.94646L10.4098 3.63096C10.4969 3.70529 10.5911 3.74246 10.6923 3.74246C10.7936 3.74246 10.8878 3.70529 10.975 3.63096L11.8135 2.94646C11.9007 2.87213 11.9949 2.83496 12.0963 2.83496C12.1974 2.83496 12.2916 2.87213 12.3787 2.94646L13.2172 3.63096C13.3044 3.70529 13.3987 3.74246 13.5 3.74246C13.6013 3.74246 13.6956 3.70529 13.7828 3.63096L14.6212 2.94646C14.7084 2.87213 14.8026 2.83496 14.9038 2.83496C15.0051 2.83496 15.0993 2.87213 15.1865 2.94646L16.025 3.63096C16.1122 3.70529 16.2064 3.74246 16.3077 3.74246C16.4089 3.74246 16.5031 3.70529 16.5903 3.63096L17.4288 2.94646C17.5159 2.87213 17.6102 2.83496 17.7115 2.83496C17.8128 2.83496 17.9071 2.87213 17.9943 2.94646L18.8328 3.63096C18.9199 3.70529 19.0141 3.74246 19.1152 3.74246C19.2166 3.74246 19.3108 3.70529 19.398 3.63096L20.1327 3.02146C20.2096 2.95729 20.29 2.94288 20.374 2.97821C20.458 3.01338 20.5 3.08288 20.5 3.18671V19.0002C20.5 19.6989 20.258 20.2902 19.774 20.7742C19.29 21.2582 18.6987 21.5002 18 21.5002H6ZM18 20.0002C18.2833 20.0002 18.5208 19.9044 18.7125 19.7127C18.9042 19.521 19 19.2835 19 19.0002V5.00021H8V16.5002H16.0962C16.3539 16.5002 16.5689 16.5865 16.7413 16.759C16.9138 16.9313 17 17.1464 17 17.4042V19.0002C17 19.2835 17.0958 19.521 17.2875 19.7127C17.4792 19.9044 17.7167 20.0002 18 20.0002ZM9.94225 7.25021H14.1155C14.3282 7.25021 14.5063 7.32204 14.65 7.46571C14.7935 7.60921 14.8652 7.78738 14.8652 8.00021C14.8652 8.21304 14.7935 8.39121 14.65 8.53471C14.5063 8.67838 14.3282 8.75021 14.1155 8.75021H9.94225C9.72942 8.75021 9.55125 8.67838 9.40775 8.53471C9.26408 8.39121 9.19225 8.21304 9.19225 8.00021C9.19225 7.78738 9.26408 7.60921 9.40775 7.46571C9.55125 7.32204 9.72942 7.25021 9.94225 7.25021ZM9.94225 10.2502H14.1155C14.3282 10.2502 14.5063 10.322 14.65 10.4657C14.7935 10.6092 14.8652 10.7874 14.8652 11.0002C14.8652 11.213 14.7935 11.3912 14.65 11.5347C14.5063 11.6784 14.3282 11.7502 14.1155 11.7502H9.94225C9.72942 11.7502 9.55125 11.6784 9.40775 11.5347C9.26408 11.3912 9.19225 11.213 9.19225 11.0002C9.19225 10.7874 9.26408 10.6092 9.40775 10.4657C9.55125 10.322 9.72942 10.2502 9.94225 10.2502ZM16.9423 8.88471C16.6974 8.88471 16.4888 8.79854 16.3163 8.62621C16.1439 8.45371 16.0577 8.24504 16.0577 8.00021C16.0577 7.75538 16.1439 7.54671 16.3163 7.37421C16.4888 7.20188 16.6974 7.11571 16.9423 7.11571C17.1871 7.11571 17.3958 7.20188 17.5682 7.37421C17.7407 7.54671 17.827 7.75538 17.827 8.00021C17.827 8.24504 17.7407 8.45371 17.5682 8.62621C17.3958 8.79854 17.1871 8.88471 16.9423 8.88471ZM16.9423 11.8847C16.6974 11.8847 16.4888 11.7985 16.3163 11.6262C16.1439 11.4537 16.0577 11.245 16.0577 11.0002C16.0577 10.7554 16.1439 10.5467 16.3163 10.3742C16.4888 10.2019 16.6974 10.1157 16.9423 10.1157C17.1871 10.1157 17.3958 10.2019 17.5682 10.3742C17.7407 10.5467 17.827 10.7554 17.827 11.0002C17.827 11.245 17.7407 11.4537 17.5682 11.6262C17.3958 11.7985 17.1871 11.8847 16.9423 11.8847ZM6 20.0002H15.5V18.0002H5V19.0002C5 19.2835 5.09583 19.521 5.2875 19.7127C5.47917 19.9044 5.71667 20.0002 6 20.0002Z" fill="white"/>
</svg>
