<svg width="38" height="38" viewBox="0 0 38 38" fill="none" xmlns="http://www.w3.org/2000/svg">
<path d="M16.1615 27.5076L29.6076 14.0615L27.5 11.9539L16.1615 23.2923L10.4615 17.5923L8.35385 19.7L16.1615 27.5076ZM19.0033 37.9999C16.3754 37.9999 13.9054 37.5012 11.5931 36.5039C9.2808 35.5066 7.26943 34.1531 5.559 32.4434C3.84853 30.7337 2.49442 28.7232 1.49665 26.412C0.498884 24.1007 0 21.6312 0 19.0033C0 16.3754 0.498667 13.9054 1.496 11.5931C2.49333 9.2808 3.84683 7.26944 5.5565 5.559C7.2662 3.84854 9.27668 2.49442 11.588 1.49665C13.8992 0.498886 16.3687 0 18.9966 0C21.6245 0 24.0945 0.498669 26.4068 1.496C28.7191 2.49334 30.7305 3.84683 32.4409 5.5565C34.1514 7.2662 35.5055 9.27669 36.5033 11.588C37.501 13.8992 37.9999 16.3687 37.9999 18.9966C37.9999 21.6245 37.5012 24.0945 36.5039 26.4068C35.5066 28.7191 34.1531 30.7305 32.4434 32.4409C30.7337 34.1514 28.7232 35.5055 26.412 36.5033C24.1007 37.501 21.6312 37.9999 19.0033 37.9999ZM19 35C23.4666 35 27.25 33.45 30.35 30.35C33.45 27.25 35 23.4666 35 19C35 14.5333 33.45 10.75 30.35 7.64995C27.25 4.54995 23.4666 2.99995 19 2.99995C14.5333 2.99995 10.75 4.54995 7.64995 7.64995C4.54995 10.75 2.99995 14.5333 2.99995 19C2.99995 23.4666 4.54995 27.25 7.64995 30.35C10.75 33.45 14.5333 35 19 35Z" fill="#2F945A"/>
</svg>
