<svg width="277" height="179" viewBox="0 0 277 179" fill="none" xmlns="http://www.w3.org/2000/svg">
<path d="M256.243 175.098C259.106 175.098 265.412 155.057 266.135 152.988C272.579 134.516 275.221 114.932 273.901 95.4122C272.14 71.3411 268.89 45.1514 251.962 26.5487C217.685 -11.2006 153.903 -6.44792 121.493 30.786C111.924 41.773 101.86 53.0677 89.0335 60.3327C74.3961 68.6212 57.1677 67.4903 41.4567 72.6295C17.5861 80.4313 -0.952176 107.616 -0.322305 132.897C0.185886 153.375 15.7466 174.082 37.2194 175.578C57.7332 177.009 256.157 175.098 256.243 175.098Z" fill="#2F945A"/>
<path opacity="0.8" d="M256.243 175.098C259.106 175.098 265.412 155.057 266.135 152.988C272.579 134.516 275.221 114.932 273.901 95.4122C272.14 71.3411 268.89 45.1514 251.962 26.5487C217.685 -11.2006 153.903 -6.44792 121.493 30.786C111.924 41.773 101.86 53.0677 89.0335 60.3327C74.3961 68.6212 57.1677 67.4903 41.4567 72.6295C17.5861 80.4313 -0.952176 107.616 -0.322305 132.897C0.185886 153.375 15.7466 174.082 37.2194 175.578C57.7332 177.009 256.157 175.098 256.243 175.098Z" fill="white"/>
<path d="M183.392 0.716797C180.428 0.931526 177.48 1.28702 174.545 1.78328V175.749L183.392 175.692V0.716797Z" fill="#2F945A"/>
<path d="M222.601 6.41437C219.712 5.27642 216.761 4.3038 213.762 3.50122V175.463L222.601 175.392V6.41437Z" fill="#2F945A"/>
<path d="M261.799 40.8496C259.386 36.124 256.418 31.7028 252.959 27.6796V175.127L256.244 175.091C257.633 175.091 259.823 170.388 261.799 165.313V40.8496Z" fill="#2F945A"/>
<path d="M194.15 175.613L202.99 175.549V1.3181C200.06 0.912506 197.114 0.650055 194.15 0.530762V175.613Z" fill="#2F945A"/>
<path d="M135.344 175.978L144.183 175.928V12.4554C141.127 14.1678 138.175 16.0608 135.344 18.1243V175.978Z" fill="#2F945A"/>
<path d="M163.789 4.25269C160.797 5.12592 157.841 6.13515 154.949 7.30184V175.871L163.789 175.821V4.25269Z" fill="#2F945A"/>
<path d="M115.738 37.3066V176.057L124.578 176.021V27.4363C123.528 28.5242 122.5 29.6408 121.493 30.7861C119.603 32.962 117.685 35.145 115.738 37.3066Z" fill="#2F945A"/>
<path d="M65.7713 67.6692C62.8367 68.1774 59.8806 68.6355 56.9316 69.1007V176.014L65.7713 176.064V67.6692Z" fill="#2F945A"/>
<path d="M37.334 74.197V175.585C39.1019 175.706 42.1224 175.799 46.1736 175.871V71.248C44.5847 71.6489 43.01 72.0926 41.4568 72.6008C40.0825 73.0876 38.6868 73.6172 37.334 74.197Z" fill="#2F945A"/>
<path d="M242.201 17.5158C239.386 15.3376 236.426 13.355 233.34 11.5822V175.306L242.18 175.227L242.201 17.5158Z" fill="#2F945A"/>
<path d="M85.3768 62.1865C82.5188 63.47 79.5628 64.5232 76.5371 65.3359V176.1H85.3768V62.1865Z" fill="#2F945A"/>
<path d="M272.562 127.077C274.199 116.618 274.648 106.008 273.901 95.4479C273.55 90.6309 273.135 85.7279 272.562 80.8177V127.077Z" fill="#2F945A"/>
<path d="M96.1426 176.1H104.982V48.3436C102.182 50.9668 99.2303 53.4237 96.1426 55.7017V176.1Z" fill="#2F945A"/>
<g opacity="0.8">
<path opacity="0.8" d="M183.394 0.716797C180.43 0.931526 177.482 1.28702 174.547 1.78328V175.749L183.394 175.692V0.716797Z" fill="white"/>
<path opacity="0.8" d="M222.603 6.41425C219.714 5.2763 216.763 4.30368 213.764 3.5011V175.463L222.603 175.391V6.41425Z" fill="white"/>
<path opacity="0.8" d="M261.799 40.8496C259.386 36.124 256.418 31.7028 252.959 27.6796V175.127L256.244 175.091C257.633 175.091 259.823 170.388 261.799 165.313V40.8496Z" fill="white"/>
<path opacity="0.8" d="M194.152 175.613L202.992 175.549V1.31798C200.062 0.912384 197.116 0.649933 194.152 0.53064V175.613Z" fill="white"/>
<path opacity="0.8" d="M135.346 175.978L144.185 175.928V12.4552C141.129 14.1675 138.177 16.0605 135.346 18.124V175.978Z" fill="white"/>
<path opacity="0.8" d="M163.791 4.25256C160.799 5.12579 157.843 6.13503 154.951 7.30172V175.871L163.791 175.821V4.25256Z" fill="white"/>
<path opacity="0.8" d="M115.74 37.3065V176.057L124.58 176.021V27.4362C123.53 28.5241 122.502 29.6407 121.495 30.7859C119.605 32.9618 117.687 35.1449 115.74 37.3065Z" fill="white"/>
<path opacity="0.8" d="M65.7733 67.6692C62.8386 68.1774 59.8825 68.6355 56.9336 69.1007V176.014L65.7733 176.064V67.6692Z" fill="white"/>
<path opacity="0.8" d="M37.3359 74.197V175.585C39.1039 175.706 42.1244 175.799 46.1756 175.871V71.248C44.5866 71.6489 43.0119 72.0926 41.4587 72.6008C40.0845 73.0876 38.6887 73.6172 37.3359 74.197Z" fill="white"/>
<path opacity="0.8" d="M242.201 17.5156C239.386 15.3373 236.426 13.3548 233.34 11.5819V175.305L242.18 175.227L242.201 17.5156Z" fill="white"/>
<path opacity="0.8" d="M85.3768 62.1864C82.5188 63.4699 79.5628 64.5231 76.5371 65.3358V176.1H85.3768V62.1864Z" fill="white"/>
<path opacity="0.8" d="M272.564 127.077C274.201 116.618 274.65 106.008 273.903 95.4478C273.552 90.6307 273.137 85.7278 272.564 80.8176V127.077Z" fill="white"/>
<path opacity="0.8" d="M96.1426 176.1H104.982V48.3436C102.182 50.9668 99.2303 53.4237 96.1426 55.7017V176.1Z" fill="white"/>
</g>
<path d="M133.055 121.137C133.055 121.137 144.421 105.562 138.874 101.911C133.105 98.1034 130.392 109.627 129.175 115.289C126.57 127.364 127.307 129.926 129.054 127.271L133.055 121.137Z" fill="#2F945A"/>
<path d="M137.337 130.706C137.337 130.706 153.148 119.676 149.089 114.416C144.866 108.94 138.56 118.961 135.569 123.914C129.184 134.493 129.048 137.155 131.56 135.216L137.337 130.706Z" fill="#2F945A"/>
<path d="M137.657 143.54C137.657 143.54 151.342 137.392 149.002 132.803C146.568 128.008 140.291 134.75 137.285 138.107C130.843 145.265 130.385 147.291 132.589 146.167L137.657 143.54Z" fill="#2F945A"/>
<path d="M138.473 156.352C138.473 156.352 152.158 150.211 149.817 145.616C147.377 140.82 141.107 147.563 138.1 150.919C131.659 158.077 131.193 160.103 133.398 158.979L138.473 156.352Z" fill="#2F945A"/>
<path d="M122.397 127.643C122.397 127.643 107.366 115.568 103.458 120.943C99.3928 126.533 110.781 129.769 116.342 131.25C128.288 134.407 130.886 133.784 128.31 131.916L122.397 127.643Z" fill="#2F945A"/>
<path d="M122.876 137.721C122.876 137.721 105.741 128.881 102.978 134.922C100.115 141.207 111.911 142.116 117.694 142.452C130.027 143.168 132.446 142.051 129.554 140.727L122.876 137.721Z" fill="#2F945A"/>
<path d="M124.945 149.03C124.945 149.03 110.229 141.944 108.082 147.119C105.799 152.501 115.798 152.995 120.694 153.153C131.144 153.468 133.162 152.437 130.714 151.42L124.945 149.03Z" fill="#2F945A"/>
<path d="M125.646 158.163C125.646 158.163 111.789 149.574 109.055 154.47C106.192 159.58 116.105 161.133 120.958 161.806C131.315 163.238 133.434 162.45 131.079 161.141L125.646 158.163Z" fill="#2F945A"/>
<path d="M124.35 112.347C124.35 112.347 121.744 89.7361 113.212 92.048C104.337 94.453 111.781 105.898 115.517 111.417C123.527 123.184 126.468 124.486 125.839 120.807L124.35 112.347Z" fill="#2F945A"/>
<path opacity="0.5" d="M133.055 121.137C133.055 121.137 144.421 105.562 138.874 101.911C133.105 98.1034 130.392 109.627 129.175 115.289C126.57 127.364 127.307 129.926 129.054 127.271L133.055 121.137Z" fill="white"/>
<path opacity="0.5" d="M137.337 130.706C137.337 130.706 153.148 119.676 149.089 114.416C144.866 108.94 138.56 118.961 135.569 123.914C129.184 134.493 129.048 137.155 131.56 135.216L137.337 130.706Z" fill="white"/>
<path opacity="0.5" d="M137.657 143.54C137.657 143.54 151.342 137.392 149.002 132.803C146.568 128.008 140.291 134.75 137.285 138.107C130.843 145.265 130.385 147.291 132.589 146.167L137.657 143.54Z" fill="white"/>
<path opacity="0.5" d="M138.473 156.352C138.473 156.352 152.158 150.211 149.817 145.616C147.377 140.82 141.107 147.563 138.1 150.919C131.659 158.077 131.193 160.103 133.398 158.979L138.473 156.352Z" fill="white"/>
<path opacity="0.5" d="M122.397 127.643C122.397 127.643 107.366 115.568 103.458 120.943C99.3928 126.533 110.781 129.769 116.342 131.25C128.288 134.407 130.886 133.784 128.31 131.916L122.397 127.643Z" fill="white"/>
<path opacity="0.5" d="M122.876 137.721C122.876 137.721 105.741 128.881 102.978 134.922C100.115 141.207 111.911 142.116 117.694 142.452C130.027 143.168 132.446 142.051 129.554 140.727L122.876 137.721Z" fill="white"/>
<path opacity="0.5" d="M124.945 149.03C124.945 149.03 110.229 141.944 108.082 147.119C105.799 152.501 115.798 152.995 120.694 153.153C131.144 153.468 133.162 152.437 130.714 151.42L124.945 149.03Z" fill="white"/>
<path opacity="0.5" d="M125.646 158.163C125.646 158.163 111.789 149.574 109.055 154.47C106.192 159.58 116.105 161.133 120.958 161.806C131.315 163.238 133.434 162.45 131.079 161.141L125.646 158.163Z" fill="white"/>
<path opacity="0.5" d="M124.35 112.347C124.35 112.347 121.744 89.7361 113.212 92.048C104.337 94.453 111.781 105.898 115.517 111.417C123.527 123.184 126.468 124.486 125.839 120.807L124.35 112.347Z" fill="white"/>
<path d="M114.953 100.265C114.953 100.265 127.951 124.601 129.984 135.946C132.303 148.937 132.683 163.438 131.079 174.812" stroke="#143E26" stroke-width="0.536822" stroke-linecap="round" stroke-linejoin="round"/>
<path d="M127.916 128.423L134.286 108.919" stroke="#143E26" stroke-width="0.536822" stroke-linecap="round" stroke-linejoin="round"/>
<path d="M129.971 135.946L141.96 120.872" stroke="#143E26" stroke-width="0.536822" stroke-linecap="round" stroke-linejoin="round"/>
<path d="M129.205 133.204L111.848 125.911" stroke="#143E26" stroke-width="0.536822" stroke-linecap="round" stroke-linejoin="round"/>
<path d="M131.473 146.152L144.521 136.146" stroke="#143E26" stroke-width="0.536822" stroke-linecap="round" stroke-linejoin="round"/>
<path d="M130.778 141.858L117.143 139.023" stroke="#143E26" stroke-width="0.536822" stroke-linecap="round" stroke-linejoin="round"/>
<path d="M131.438 152.301L120.881 150.626" stroke="#143E26" stroke-width="0.536822" stroke-linecap="round" stroke-linejoin="round"/>
<path d="M132.324 159.058L139.425 152.702" stroke="#143E26" stroke-width="0.536822" stroke-linecap="round" stroke-linejoin="round"/>
<path d="M132.183 161.921L120.051 158.872" stroke="#143E26" stroke-width="0.536822" stroke-linecap="round" stroke-linejoin="round"/>
<path d="M155.938 148.135C155.938 148.135 155.265 135.445 159.645 135.423C164.205 135.423 161.549 142.738 160.182 146.303C157.269 153.911 155.938 155.064 155.93 152.967L155.938 148.135Z" fill="#2F945A"/>
<path d="M150.127 151.878C150.127 151.878 145.367 140.09 149.505 138.651C153.799 137.148 153.677 144.95 153.549 148.765C153.262 156.903 152.375 158.428 151.688 156.445L150.127 151.878Z" fill="#2F945A"/>
<path d="M145.337 158.829C145.337 158.829 139.998 150.504 142.947 148.808C146.017 147.04 147.055 153.024 147.506 155.966C148.465 162.228 148.007 163.517 147.198 162.107L145.337 158.829Z" fill="#2F945A"/>
<path d="M140.292 165.628C140.292 165.628 134.953 157.304 137.902 155.608C140.98 153.833 142.01 159.816 142.461 162.765C143.42 169.028 142.969 170.317 142.153 168.899L140.292 165.628Z" fill="#2F945A"/>
<path d="M159.459 155.558C159.459 155.558 172.107 154.305 172.343 158.678C172.572 163.231 165.121 160.919 161.499 159.716C153.762 157.154 152.552 155.88 154.65 155.772L159.459 155.558Z" fill="#2F945A"/>
<path d="M155.581 160.962C155.581 160.962 168.228 162.25 167.57 166.58C166.897 171.083 160.054 167.339 156.74 165.442C149.668 161.391 148.738 159.902 150.814 160.217L155.581 160.962Z" fill="#2F945A"/>
<path d="M150.362 166.444C150.362 166.444 161.027 167.826 160.383 171.455C159.703 175.248 154.005 171.92 151.242 170.245C145.359 166.666 144.607 165.371 146.354 165.686L150.362 166.444Z" fill="#2F945A"/>
<path d="M146.691 171.247C146.691 171.247 157.427 171.491 157.177 175.184C156.905 179.027 150.885 176.322 147.965 174.948C141.731 172.006 140.807 170.811 142.611 170.932L146.691 171.247Z" fill="#2F945A"/>
<path d="M163.913 146.403C163.913 146.403 173.497 134.858 177.376 139.245C181.406 143.769 173.189 147.412 169.131 149.109C160.463 152.723 158.394 152.38 160.041 150.576L163.913 146.403Z" fill="#2F945A"/>
<path opacity="0.5" d="M155.938 148.135C155.938 148.135 155.265 135.445 159.645 135.423C164.205 135.423 161.549 142.738 160.182 146.303C157.269 153.911 155.938 155.064 155.93 152.967L155.938 148.135Z" fill="white"/>
<path opacity="0.5" d="M150.127 151.878C150.127 151.878 145.367 140.09 149.505 138.651C153.799 137.148 153.677 144.95 153.549 148.765C153.262 156.903 152.375 158.428 151.688 156.445L150.127 151.878Z" fill="white"/>
<path opacity="0.5" d="M145.337 158.829C145.337 158.829 139.998 150.504 142.947 148.808C146.017 147.04 147.055 153.024 147.506 155.966C148.465 162.228 148.007 163.517 147.198 162.107L145.337 158.829Z" fill="white"/>
<path opacity="0.5" d="M140.292 165.628C140.292 165.628 134.953 157.304 137.902 155.608C140.98 153.833 142.01 159.816 142.461 162.765C143.42 169.028 142.969 170.317 142.153 168.899L140.292 165.628Z" fill="white"/>
<path opacity="0.5" d="M159.459 155.558C159.459 155.558 172.107 154.305 172.343 158.678C172.572 163.231 165.121 160.919 161.499 159.716C153.762 157.154 152.552 155.88 154.65 155.772L159.459 155.558Z" fill="white"/>
<path opacity="0.5" d="M155.581 160.962C155.581 160.962 168.228 162.25 167.57 166.58C166.897 171.083 160.054 167.339 156.74 165.442C149.668 161.391 148.738 159.902 150.814 160.217L155.581 160.962Z" fill="white"/>
<path opacity="0.5" d="M150.362 166.444C150.362 166.444 161.027 167.826 160.383 171.455C159.703 175.248 154.005 171.92 151.242 170.245C145.359 166.666 144.607 165.371 146.354 165.686L150.362 166.444Z" fill="white"/>
<path opacity="0.5" d="M146.691 171.247C146.691 171.247 157.427 171.491 157.177 175.184C156.905 179.027 150.885 176.322 147.965 174.948C141.731 172.006 140.807 170.811 142.611 170.932L146.691 171.247Z" fill="white"/>
<path opacity="0.5" d="M163.913 146.403C163.913 146.403 173.497 134.858 177.376 139.245C181.406 143.769 173.189 147.412 169.131 149.109C160.463 152.723 158.394 152.38 160.041 150.576L163.913 146.403Z" fill="white"/>
<path d="M173.446 143.132C173.446 143.132 157.492 151.907 152.303 157.447C146.412 163.701 141.49 170.801 137.701 178.512" stroke="#143E26" stroke-width="0.536822" stroke-linecap="round" stroke-linejoin="round"/>
<path d="M156.146 154.012L159.661 140.949" stroke="#143E26" stroke-width="0.536822" stroke-linecap="round" stroke-linejoin="round"/>
<path d="M152.301 157.419L151.113 144.785" stroke="#143E26" stroke-width="0.536822" stroke-linecap="round" stroke-linejoin="round"/>
<path d="M153.711 156.188L165.922 158.414" stroke="#143E26" stroke-width="0.536822" stroke-linecap="round" stroke-linejoin="round"/>
<path d="M147.801 162.515L144.193 152.294" stroke="#143E26" stroke-width="0.536822" stroke-linecap="round" stroke-linejoin="round"/>
<path d="M149.725 160.396L158.271 163.739" stroke="#143E26" stroke-width="0.536822" stroke-linecap="round" stroke-linejoin="round"/>
<path d="M145.604 165.929L152.038 168.806" stroke="#143E26" stroke-width="0.536822" stroke-linecap="round" stroke-linejoin="round"/>
<path d="M142.676 169.336L141.051 163.266" stroke="#143E26" stroke-width="0.536822" stroke-linecap="round" stroke-linejoin="round"/>
<path d="M141.723 170.968L149.517 173.652" stroke="#143E26" stroke-width="0.536822" stroke-linecap="round" stroke-linejoin="round"/>
<path d="M37.166 25.8615L34.7754 19.3266L36.0494 20.7581V18.5249L38.755 22.6692L36.3644 7.84574L39.5567 15.9768L39.8716 8.80486L40.3512 11.1955L40.9882 3.06445L42.1048 15.4972L43.7009 11.1955L43.3789 16.7713L47.6806 4.02357L45.612 19.9636L48.6397 17.7304L46.8861 20.6006L49.1193 19.0045L46.5711 26.3339L37.3235 26.4985" fill="#2F945A"/>
<path d="M47.3858 41.9518H37.4224L34.7383 24.6876H50.0699L47.3858 41.9518Z" fill="#143E26" stroke="#143E26" stroke-width="0.715762" stroke-linecap="round" stroke-linejoin="round"/>
<path d="M275.046 47.6991C277.538 33.1542 267.766 19.3436 253.221 16.8521C238.676 14.3607 224.866 24.132 222.374 38.6768C219.883 53.2217 229.654 67.0324 244.199 69.5238C258.744 72.0153 272.555 62.244 275.046 47.6991Z" fill="#143E26"/>
<path d="M248.713 64.6631C260.572 64.6631 270.186 55.0494 270.186 43.1903C270.186 31.3311 260.572 21.7174 248.713 21.7174C236.854 21.7174 227.24 31.3311 227.24 43.1903C227.24 55.0494 236.854 64.6631 248.713 64.6631Z" fill="white" stroke="#143E26" stroke-width="0.715762" stroke-linecap="round" stroke-linejoin="round"/>
<path d="M250.623 43.1903C250.623 43.5682 250.511 43.9377 250.301 44.252C250.091 44.5663 249.792 44.8112 249.443 44.9559C249.094 45.1005 248.71 45.1384 248.339 45.0646C247.968 44.9909 247.628 44.8089 247.361 44.5416C247.093 44.2743 246.911 43.9338 246.838 43.5631C246.764 43.1924 246.802 42.8081 246.946 42.4589C247.091 42.1097 247.336 41.8112 247.65 41.6012C247.964 41.3913 248.334 41.2792 248.712 41.2792C249.218 41.2811 249.703 41.483 250.061 41.841C250.419 42.199 250.621 42.684 250.623 43.1903Z" fill="#143E26"/>
<path d="M242.314 52.8817L248.713 43.1903L259.521 52.1302" stroke="#143E26" stroke-width="0.715762" stroke-linecap="round" stroke-linejoin="round"/>
<path d="M86.0202 41.8374H8.36719V175.649H86.0202V41.8374Z" fill="#143E26" stroke="#143E26" stroke-width="0.715762" stroke-linecap="round" stroke-linejoin="round"/>
<path d="M86.0206 41.8374H35.7168V175.649H86.0206V41.8374Z" fill="white" stroke="#143E26" stroke-width="0.715762" stroke-linecap="round" stroke-linejoin="round"/>
<path d="M82.5995 46.2322H38.6445V78.463H82.5995V46.2322Z" fill="white" stroke="#143E26" stroke-width="0.715762" stroke-linecap="round" stroke-linejoin="round"/>
<path d="M69.4072 59.4165H51.8281V65.2786H69.4072V59.4165Z" fill="#143E26"/>
<path d="M82.5995 83.8384H38.6445V116.069H82.5995V83.8384Z" fill="white" stroke="#143E26" stroke-width="0.715762" stroke-linecap="round" stroke-linejoin="round"/>
<path d="M69.4072 97.0227H51.8281V102.885H69.4072V97.0227Z" fill="#143E26"/>
<path d="M82.5995 121.444H38.6445V153.675H82.5995V121.444Z" fill="white" stroke="#143E26" stroke-width="0.715762" stroke-linecap="round" stroke-linejoin="round"/>
<path d="M69.4072 134.629H51.8281V140.491H69.4072V134.629Z" fill="#143E26"/>
<path d="M173.093 80.4241C173.093 80.4241 172.585 76.3443 168.161 69.3799C163.738 62.4155 167.997 60.2038 172.585 54.5994C177.173 48.995 184.302 50.1832 188.21 51.0206C192.118 51.8581 198.746 53.5687 200.27 58.8367C201.795 64.1047 202.31 75.6571 202.482 76.6807C202.654 77.7042 200.786 78.0335 199.934 77.8689C199.082 77.7042 197.214 68.1846 194.838 66.1447C192.461 64.1047 181.954 65.4647 179.034 69.0077C176.113 72.5507 177.001 77.6756 177.166 79.8873C177.33 82.099 176.321 82.7503 175.298 82.9436C174.274 83.1369 173.093 80.4241 173.093 80.4241Z" fill="#143E26" stroke="#143E26" stroke-width="0.715762" stroke-linecap="round" stroke-linejoin="round"/>
<path d="M187.944 92.1912C187.944 92.1912 172.198 95.77 167.366 97.2016C162.535 98.6331 158.061 99.7067 158.956 101.854C159.851 104.001 154.125 121.895 154.125 121.895L146.072 141.393L157.524 150.34L166.65 132.625L174.882 172.886H230.174C230.174 172.886 228.564 105.784 225.88 102.384C223.196 98.9838 201.902 91.6472 196.712 91.1104C193.745 90.7574 190.737 91.1282 187.944 92.1912Z" fill="#2F945A" stroke="#143E26" stroke-width="0.715762" stroke-linecap="round" stroke-linejoin="round"/>
<path d="M214.014 130.771C211.634 125.668 209.611 120.407 207.959 115.024" stroke="#143E26" stroke-width="0.715762" stroke-linecap="round" stroke-linejoin="round"/>
<path d="M208.844 129.311C210.664 131.558 213.247 133.056 216.102 133.519" stroke="#143E26" stroke-width="0.715762" stroke-linecap="round" stroke-linejoin="round"/>
<path d="M206.711 125.646C206.983 126.397 207.333 127.116 207.756 127.793" stroke="#143E26" stroke-width="0.715762" stroke-linecap="round" stroke-linejoin="round"/>
<path d="M163.589 115.969L166.653 132.632L161.062 115.962" stroke="#143E26" stroke-width="0.715762" stroke-linecap="round" stroke-linejoin="round"/>
<path d="M162.514 110.143L163.158 113.65" stroke="#143E26" stroke-width="0.715762" stroke-linecap="round" stroke-linejoin="round"/>
<path d="M175.471 82.2922C175.471 82.2922 173.775 78.2124 172.243 78.2124C170.711 78.2124 171.055 80.4241 171.735 82.9722C172.415 85.5203 174.455 88.4049 175.979 88.4049H177.511L175.471 82.2922Z" fill="white" stroke="#143E26" stroke-width="0.715762" stroke-linecap="round" stroke-linejoin="round"/>
<path d="M200.107 75.4925C200.107 75.4925 201.804 70.5681 202.656 73.1162C203.472 75.9404 203.531 78.9297 202.827 81.7841C202.147 84.4968 201.976 85.5204 201.296 85.3629C200.616 85.2054 200.107 75.4925 200.107 75.4925Z" fill="white" stroke="#143E26" stroke-width="0.715762" stroke-linecap="round" stroke-linejoin="round"/>
<path d="M183.716 116.806L184.275 117.422L185.57 118.839L188.448 125.088L186.758 164.125L192.334 172.743L197.23 161.928L189.965 124.923L191.49 118.159L193.007 113.6L191.998 112.755L190.301 116.134L185.234 115.969L182.872 114.108L181.855 116.305L183.716 116.806Z" fill="#143E26" stroke="#143E26" stroke-width="0.715762" stroke-linecap="round" stroke-linejoin="round"/>
<path d="M180.673 91.1248C180.673 91.1248 176.615 96.0278 176.278 100.759C175.942 105.49 179.857 119.848 179.857 119.848C179.857 119.848 185.097 115.962 188.446 115.962C191.796 115.962 199.598 122.554 199.598 122.554C199.598 122.554 204.837 105.655 202.132 95.6842C199.426 85.7137 187.766 83.1798 180.673 91.1248Z" fill="white" stroke="#143E26" stroke-width="0.715762" stroke-linecap="round" stroke-linejoin="round"/>
<path d="M181.012 92.8139C181.012 92.8139 182.365 99.0697 183.374 103.121C184.383 107.172 187.096 116.642 188.448 115.962C189.801 115.282 195.713 101.26 195.885 97.7169C196.057 94.1739 184.562 84.8475 181.012 92.8139Z" fill="#2F945A"/>
<mask id="mask0_4201_24480" style="mask-type:luminance" maskUnits="userSpaceOnUse" x="181" y="89" width="15" height="27">
<path d="M181.012 92.8139C181.012 92.8139 182.365 99.0697 183.374 103.121C184.383 107.172 187.096 116.642 188.448 115.962C189.801 115.282 195.713 101.26 195.885 97.7169C196.057 94.1739 184.562 84.8475 181.012 92.8139Z" fill="white"/>
</mask>
<g mask="url(#mask0_4201_24480)">
<path opacity="0.5" d="M181.012 92.8139C181.012 92.8139 182.365 99.0697 183.374 103.121C184.383 107.172 187.096 116.642 188.448 115.962C189.801 115.282 195.713 101.26 195.885 97.7169C196.057 94.1739 184.562 84.8475 181.012 92.8139Z" fill="white" stroke="#143E26" stroke-width="0.715762" stroke-linecap="round" stroke-linejoin="round"/>
</g>
<path d="M181.012 92.8139C181.012 92.8139 182.365 99.0697 183.374 103.121C184.383 107.172 187.096 116.642 188.448 115.962C189.801 115.282 195.713 101.26 195.885 97.7169C196.057 94.1739 184.562 84.8475 181.012 92.8139Z" stroke="#143E26" stroke-width="0.715762" stroke-linecap="round" stroke-linejoin="round"/>
<path d="M176.449 67.1181C176.449 67.1181 174.145 71.1336 174.495 74.2257C174.846 77.3177 175.261 83.4805 176.943 88.0613C178.625 92.6422 184.015 97.5022 188.045 101.417C192.074 105.333 195.696 102.806 196.985 100.945C198.273 99.0841 200.198 92.2629 201.15 87.0306C202.102 81.7984 200.155 69.1366 198.373 65.9228C196.591 62.709 185.174 57.713 176.449 67.1181Z" fill="white"/>
<mask id="mask1_4201_24480" style="mask-type:luminance" maskUnits="userSpaceOnUse" x="174" y="61" width="28" height="43">
<path d="M176.449 67.1181C176.449 67.1181 174.145 71.1336 174.495 74.2257C174.846 77.3177 175.261 83.4805 176.943 88.0613C178.625 92.6422 184.015 97.5022 188.045 101.417C192.074 105.333 195.696 102.806 196.985 100.945C198.273 99.0841 200.198 92.2629 201.15 87.0306C202.102 81.7984 200.155 69.1366 198.373 65.9228C196.591 62.709 185.174 57.713 176.449 67.1181Z" fill="white"/>
</mask>
<g mask="url(#mask1_4201_24480)">
<path d="M176.451 67.1182C175.832 68.257 175.33 69.4562 174.955 70.697C175.385 70.9189 179.844 73.2022 181.812 73.2022C183.78 73.2022 176.286 74.3545 178.591 77.1174C180.896 79.8802 191.933 77.3464 195.383 74.8126C198.833 72.2788 199.069 72.9731 199.069 72.9731C199.069 72.9731 200.68 84.4754 199.527 90.6882C198.375 96.9011 196.535 100.58 193.543 101.503C190.552 102.427 186.293 98.6403 183.652 95.7773C182.253 94.3193 180.703 93.0141 179.028 91.8836C181.447 95.2691 185.105 98.626 188.046 101.482C192.069 105.397 195.698 102.87 196.986 101.01C198.275 99.1485 200.2 92.3273 201.152 87.0951C202.104 81.8629 200.157 69.201 198.375 65.9873C196.593 62.7735 185.176 57.7131 176.451 67.1182Z" fill="#2F945A"/>
<path opacity="0.5" d="M176.451 67.1182C175.832 68.257 175.33 69.4562 174.955 70.697C175.385 70.9189 179.844 73.2022 181.812 73.2022C183.78 73.2022 176.286 74.3545 178.591 77.1174C180.896 79.8802 191.933 77.3464 195.383 74.8126C198.833 72.2788 199.069 72.9731 199.069 72.9731C199.069 72.9731 200.68 84.4754 199.527 90.6882C198.375 96.9011 196.535 100.58 193.543 101.503C190.552 102.427 186.293 98.6403 183.652 95.7773C182.253 94.3193 180.703 93.0141 179.028 91.8836C181.447 95.2691 185.105 98.626 188.046 101.482C192.069 105.397 195.698 102.87 196.986 101.01C198.275 99.1485 200.2 92.3273 201.152 87.0951C202.104 81.8629 200.157 69.201 198.375 65.9873C196.593 62.7735 185.176 57.7131 176.451 67.1182Z" fill="white"/>
<path d="M185.305 84.225C185.477 85.1841 185.227 86.0358 184.747 86.1217C184.268 86.2076 183.738 85.499 183.559 84.5399C183.38 83.5808 183.638 82.7218 184.117 82.636C184.597 82.5501 185.134 83.2587 185.305 84.225Z" fill="#143E26"/>
<path d="M194.044 82.2851C194.215 83.2443 193.972 84.096 193.485 84.1819C192.999 84.2678 192.476 83.5592 192.297 82.6001C192.118 81.6409 192.376 80.782 192.856 80.6961C193.335 80.6102 193.872 81.3189 194.044 82.2851Z" fill="#143E26"/>
<path d="M179.393 81.6552C179.393 81.6552 179.786 79.5079 185.498 79.5079" stroke="#143E26" stroke-width="0.715762" stroke-linecap="round" stroke-linejoin="round"/>
<path d="M190.395 78.6993C190.395 78.6993 192.17 74.5622 195.713 76.9313" stroke="#143E26" stroke-width="0.715762" stroke-linecap="round" stroke-linejoin="round"/>
<path d="M190.81 81.8485C190.81 81.8485 191.01 85.3915 192.585 86.9662C194.16 88.5409 193.959 89.1135 192.585 90.316C192.145 90.659 191.63 90.8914 191.082 90.9936C190.534 91.0957 189.969 91.0646 189.436 90.9029" stroke="#143E26" stroke-width="0.715762" stroke-linecap="round" stroke-linejoin="round"/>
<path d="M190.395 95.2333C190.395 95.2333 193.544 94.8396 194.925 93.6586" stroke="#143E26" stroke-width="0.715762" stroke-linecap="round" stroke-linejoin="round"/>
</g>
<path d="M176.449 67.1181C176.449 67.1181 174.145 71.1336 174.495 74.2257C174.846 77.3177 175.261 83.4805 176.943 88.0613C178.625 92.6422 184.015 97.5022 188.045 101.417C192.074 105.333 195.696 102.806 196.985 100.945C198.273 99.0841 200.198 92.2629 201.15 87.0306C202.102 81.7984 200.155 69.1366 198.373 65.9228C196.591 62.709 185.174 57.713 176.449 67.1181Z" stroke="#143E26" stroke-width="0.715762" stroke-linecap="round" stroke-linejoin="round"/>
<path d="M170.459 67.3757C170.459 67.3757 177.137 69.9954 180.329 69.9954C183.522 69.9954 181.761 70.5752 179.75 72.3145C177.738 74.0538 177.431 76.38 184.982 76.38C192.533 76.38 199.204 68.2489 201.53 61.2846C203.856 54.3202 205.016 55.4726 200.95 53.4112C196.885 51.3498 186.428 56.6035 186.428 56.6035" fill="#143E26"/>
<path d="M170.459 67.3757C170.459 67.3757 177.137 69.9954 180.329 69.9954C183.522 69.9954 181.761 70.5752 179.75 72.3145C177.738 74.0538 177.431 76.38 184.982 76.38C192.533 76.38 199.204 68.2489 201.53 61.2846C203.856 54.3202 205.016 55.4726 200.95 53.4112C196.885 51.3498 186.428 56.6035 186.428 56.6035" stroke="#143E26" stroke-width="0.715762" stroke-linecap="round" stroke-linejoin="round"/>
<path d="M197.93 58.7079C197.93 58.7079 199.748 69.6089 189.455 72.6366" stroke="white" stroke-width="0.715762" stroke-linecap="round" stroke-linejoin="round"/>
<path d="M195.81 58.7079C195.81 58.7079 191.559 65.4432 184.007 66.2807C176.456 67.1181 172.197 62.6446 172.197 62.6446" stroke="white" stroke-width="0.715762" stroke-linecap="round" stroke-linejoin="round"/>
<path d="M175.227 69.609C175.227 69.609 170.99 69.9096 168.871 67.4617" stroke="white" stroke-width="0.715762" stroke-linecap="round" stroke-linejoin="round"/>
<path d="M159.851 145.873C159.851 145.873 158.777 141.579 152.693 139.253C146.609 136.926 145.894 138 144.999 139.789C144.104 141.579 141.42 144.263 141.957 146.052C142.494 147.842 144.641 152.136 152.515 153.747C160.388 155.357 158.777 151.421 159.672 150.347C160.567 149.273 161.462 149.81 159.851 145.873Z" fill="white" stroke="#143E26" stroke-width="0.715762" stroke-linecap="round" stroke-linejoin="round"/>
<path d="M102.054 160.905C102.054 160.905 94.0014 163.589 94.3592 165.378C94.7171 167.167 102.233 163.231 102.233 163.231C102.233 163.231 103.485 165.557 105.811 164.662C108.138 163.768 106.169 160.189 104.917 160.368C103.664 160.547 102.054 160.905 102.054 160.905Z" fill="white" stroke="#143E26" stroke-width="0.715762" stroke-linecap="round" stroke-linejoin="round"/>
<path d="M145.177 159.473C145.177 159.473 156.093 153.561 156.093 150.698C156.093 147.835 147.861 144.077 145.714 144.256C143.567 144.435 142.672 145.15 141.062 147.835C139.451 150.519 126.388 162.687 126.388 162.687C126.388 162.687 117.799 156.603 115.294 156.603C112.789 156.603 107.063 163.223 106.705 165.908C106.347 168.592 118.515 169.844 123.346 169.844C129.294 169.851 145.177 159.473 145.177 159.473Z" fill="white"/>
<mask id="mask2_4201_24480" style="mask-type:luminance" maskUnits="userSpaceOnUse" x="106" y="144" width="51" height="26">
<path d="M145.179 159.473C145.179 159.473 156.095 153.561 156.095 150.698C156.095 147.834 147.863 144.077 145.716 144.256C143.569 144.435 142.674 145.15 141.064 147.834C139.453 150.519 126.39 162.687 126.39 162.687C126.39 162.687 117.801 156.603 115.296 156.603C112.791 156.603 107.065 163.223 106.707 165.907C106.349 168.592 118.517 169.844 123.348 169.844C129.296 169.851 145.179 159.473 145.179 159.473Z" fill="white"/>
</mask>
<g mask="url(#mask2_4201_24480)">
<path d="M156.095 150.698C156.095 147.834 147.863 144.077 145.716 144.256C145.16 144.259 144.61 144.372 144.098 144.588C143.586 144.805 143.122 145.12 142.731 145.515C145.14 145.188 147.589 145.669 149.696 146.883C154.098 149.524 150.354 153.267 147.491 155.243C144.628 157.218 128.574 167.568 125.052 168.005C121.53 168.441 118.202 165.979 116.012 163.581C113.822 161.183 112.29 159.423 109.649 160.962L109.484 161.083C108.534 162.193 107.726 163.417 107.079 164.726C106.928 165.237 106.818 165.759 106.75 166.287C107.523 168.706 118.753 169.866 123.349 169.866C129.297 169.866 145.179 159.487 145.179 159.487C145.179 159.487 156.095 153.561 156.095 150.698Z" fill="#2F945A"/>
<path opacity="0.5" d="M156.095 150.698C156.095 147.834 147.863 144.077 145.716 144.256C145.16 144.259 144.61 144.372 144.098 144.588C143.586 144.805 143.122 145.12 142.731 145.515C145.14 145.188 147.589 145.669 149.696 146.883C154.098 149.524 150.354 153.267 147.491 155.243C144.628 157.218 128.574 167.568 125.052 168.005C121.53 168.441 118.202 165.979 116.012 163.581C113.822 161.183 112.29 159.423 109.649 160.962L109.484 161.083C108.534 162.193 107.726 163.417 107.079 164.726C106.928 165.237 106.818 165.759 106.75 166.287C107.523 168.706 118.753 169.866 123.349 169.866C129.297 169.866 145.179 159.487 145.179 159.487C145.179 159.487 156.095 153.561 156.095 150.698Z" fill="white"/>
</g>
<path d="M145.177 159.473C145.177 159.473 156.093 153.561 156.093 150.698C156.093 147.835 147.861 144.077 145.714 144.256C143.567 144.435 142.672 145.15 141.062 147.835C139.451 150.519 126.388 162.687 126.388 162.687C126.388 162.687 117.799 156.603 115.294 156.603C112.789 156.603 107.063 163.223 106.705 165.908C106.347 168.592 118.515 169.844 123.346 169.844C129.294 169.851 145.177 159.473 145.177 159.473Z" stroke="#143E26" stroke-width="0.715762" stroke-linecap="round" stroke-linejoin="round"/>
<path d="M105.274 156.968C105.274 156.968 101.874 158.578 101.517 159.652C101.159 160.726 98.8324 166.988 100.443 167.704C102.053 168.42 104.201 161.083 104.916 160.368C105.632 159.652 106.706 158.041 105.274 156.968Z" fill="white" stroke="#143E26" stroke-width="0.715762" stroke-linecap="round" stroke-linejoin="round"/>
<path d="M108.854 156.789C108.854 156.789 106.707 154.999 105.275 156.968C103.844 158.936 102.77 165.915 103.486 167.346C104.201 168.778 105.991 167.346 106.707 165.915C107.422 164.483 108.854 156.789 108.854 156.789Z" fill="white" stroke="#143E26" stroke-width="0.715762" stroke-linecap="round" stroke-linejoin="round"/>
<path d="M116.369 157.683C116.369 157.683 112.969 154.82 111.001 154.642C109.032 154.463 108.317 155.894 108.138 157.505C107.959 159.115 105.454 166.452 106.169 166.809C106.885 167.167 108.317 166.988 109.211 165.378C110.222 163.159 111.117 160.889 111.895 158.578L113.327 159.652" fill="white"/>
<path d="M116.369 157.683C116.369 157.683 112.969 154.82 111.001 154.642C109.032 154.463 108.317 155.894 108.138 157.505C107.959 159.115 105.454 166.452 106.169 166.809C106.885 167.167 108.317 166.988 109.211 165.378C110.222 163.159 111.117 160.889 111.895 158.578L113.327 159.652" stroke="#143E26" stroke-width="0.715762" stroke-linecap="round" stroke-linejoin="round"/>
<path d="M125.674 166.444C125.674 166.444 126.39 162.15 125.137 160.361C123.885 158.571 120.843 158.75 118.516 156.066C116.19 153.382 114.401 154.992 114.938 157.319C115.474 159.645 120.664 161.076 120.664 161.076C120.664 161.076 116.369 161.434 116.011 163.581C115.653 165.729 120.428 166.688 120.428 166.688" fill="white"/>
<path d="M125.674 166.444C125.674 166.444 126.39 162.15 125.137 160.361C123.885 158.571 120.843 158.75 118.516 156.066C116.19 153.382 114.401 154.992 114.938 157.319C115.474 159.645 120.664 161.076 120.664 161.076C120.664 161.076 116.369 161.434 116.011 163.581C115.653 165.729 120.428 166.688 120.428 166.688" stroke="#143E26" stroke-width="0.715762" stroke-linecap="round" stroke-linejoin="round"/>
<path d="M113.482 151.177C116.038 151.418 118.512 152.209 120.733 153.496" stroke="#143E26" stroke-width="0.715762" stroke-linecap="round" stroke-linejoin="round"/>
<path d="M116.383 150.018C116.383 150.018 120.155 151.177 121.894 152.63" stroke="#143E26" stroke-width="0.715762" stroke-linecap="round" stroke-linejoin="round"/>
<path d="M216.217 110.085C215.123 111.983 214.166 113.956 213.354 115.99C212.638 118.138 214.607 144.621 214.607 144.621C216.981 143.877 219.507 143.754 221.943 144.263C225.701 145.158 233.216 149.273 233.216 149.273C233.216 149.273 233.932 141.579 232.68 135.853C231.427 130.127 229.101 107.043 227.49 104.717C225.88 102.391 226.417 101.138 223.017 102.391" fill="#2F945A"/>
<path d="M216.217 110.085C215.123 111.983 214.166 113.956 213.354 115.99C212.638 118.138 214.607 144.621 214.607 144.621C216.981 143.877 219.507 143.754 221.943 144.263C225.701 145.158 233.216 149.273 233.216 149.273C233.216 149.273 233.932 141.579 232.68 135.853C231.427 130.127 229.101 107.043 227.49 104.717C225.88 102.391 226.417 101.138 223.017 102.391" stroke="#143E26" stroke-width="0.715762" stroke-linecap="round" stroke-linejoin="round"/>
<path d="M235.723 144.8C235.723 144.8 230.891 140.684 227.134 139.789C223.376 138.895 216.218 139.789 215.144 140.147C214.071 140.505 213.355 141.758 213.176 143.547C212.997 145.337 211.745 146.589 212.639 147.663C213.534 148.737 218.544 152.136 222.66 153.21C226.776 154.284 233.039 153.926 233.933 151.242C234.828 148.558 236.617 146.768 235.723 144.8Z" fill="white" stroke="#143E26" stroke-width="0.715762" stroke-linecap="round" stroke-linejoin="round"/>
<path d="M139.896 159.287C139.896 159.287 134.17 161.756 132.28 162.372C130.391 162.987 129.804 164.691 131.457 165.235C133.11 165.779 140.626 162.973 141.335 163.181C142.043 163.388 149.773 165.857 152.243 166.044C153.87 166.095 155.465 165.59 156.766 164.612C156.766 164.612 145.035 157.211 139.896 159.287Z" fill="white" stroke="#143E26" stroke-width="0.715762" stroke-linecap="round" stroke-linejoin="round"/>
<path d="M228.036 156.266C228.971 155.953 229.797 155.378 230.414 154.609C231.032 153.839 231.414 152.908 231.517 151.927C231.62 150.946 231.438 149.956 230.993 149.076C230.548 148.195 229.86 147.461 229.009 146.961C227.748 146.247 226.394 145.71 224.986 145.365C220.713 144.349 216.237 144.597 212.103 146.081C210.313 146.797 170.145 159.094 167.26 159.502C164.376 159.91 145.451 153.539 142.566 153.332C138.751 153.06 134.342 163.138 133.104 165.829C132.87 166.255 132.74 166.731 132.725 167.217C132.723 167.46 132.8 167.697 132.944 167.892C133.089 168.087 133.293 168.23 133.526 168.298C134.077 168.391 134.55 167.94 134.893 167.504C137.442 164.333 138.837 160.196 142.051 157.698L137.599 166.287C137.324 166.736 137.149 167.239 137.084 167.761C137.055 168.023 137.109 168.287 137.237 168.516C137.365 168.746 137.562 168.93 137.799 169.043C138.515 169.3 139.231 168.678 139.625 168.062C140.533 166.566 141.344 165.011 142.051 163.41C142.769 161.796 143.986 160.457 145.522 159.587C143.769 162.595 142.348 165.785 141.285 169.1C141.195 169.353 141.199 169.631 141.298 169.881C141.397 170.131 141.583 170.337 141.822 170.46C142.538 170.768 143.039 170.088 143.375 169.508L148.164 161.133C146.897 163.997 145.759 166.945 144.742 169.916C144.653 170.113 144.626 170.333 144.664 170.546C144.697 170.649 144.754 170.743 144.83 170.822C144.905 170.9 144.998 170.96 145.1 170.997C145.372 171.092 145.666 171.109 145.948 171.044C146.229 170.98 146.486 170.837 146.689 170.632C147.089 170.221 147.403 169.734 147.613 169.2C148.471 167.318 149.08 165.306 149.967 163.474C152.437 164.004 154.498 166.337 157.197 166.724C159.895 167.11 164.805 165.9 164.805 165.9C164.805 165.9 213.906 159.158 220.348 157.905C222.937 157.488 225.502 156.941 228.036 156.266Z" fill="white"/>
<mask id="mask3_4201_24480" style="mask-type:luminance" maskUnits="userSpaceOnUse" x="132" y="144" width="100" height="28">
<path d="M228.038 156.266C228.973 155.953 229.799 155.378 230.416 154.609C231.033 153.839 231.416 152.908 231.519 151.927C231.622 150.946 231.44 149.956 230.995 149.076C230.55 148.195 229.862 147.461 229.011 146.961C227.75 146.247 226.396 145.71 224.988 145.365C220.715 144.349 216.239 144.597 212.105 146.081C210.315 146.797 170.147 159.094 167.262 159.502C164.378 159.91 145.453 153.539 142.568 153.332C138.753 153.06 134.344 163.138 133.106 165.829C132.872 166.255 132.742 166.731 132.727 167.217C132.725 167.46 132.802 167.697 132.946 167.892C133.091 168.087 133.295 168.23 133.528 168.298C134.079 168.391 134.552 167.94 134.895 167.504C137.443 164.333 138.839 160.196 142.053 157.698L137.601 166.287C137.326 166.736 137.151 167.239 137.086 167.761C137.057 168.023 137.111 168.287 137.239 168.516C137.367 168.746 137.564 168.93 137.801 169.043C138.517 169.3 139.233 168.678 139.627 168.062C140.535 166.566 141.346 165.011 142.053 163.41C142.771 161.796 143.988 160.457 145.524 159.587C143.771 162.595 142.35 165.785 141.287 169.1C141.197 169.353 141.201 169.631 141.3 169.881C141.399 170.131 141.585 170.337 141.824 170.46C142.54 170.768 143.041 170.088 143.377 169.508L148.166 161.133C146.899 163.997 145.761 166.945 144.744 169.916C144.655 170.113 144.628 170.333 144.666 170.546C144.699 170.649 144.756 170.743 144.832 170.822C144.907 170.9 145 170.96 145.102 170.997C145.374 171.092 145.668 171.109 145.95 171.044C146.231 170.98 146.488 170.837 146.691 170.632C147.091 170.221 147.405 169.734 147.614 169.2C148.473 167.318 149.082 165.306 149.969 163.474C152.439 164.004 154.5 166.337 157.199 166.724C159.897 167.11 164.807 165.9 164.807 165.9C164.807 165.9 213.908 159.158 220.35 157.905C222.939 157.488 225.504 156.941 228.038 156.266Z" fill="white"/>
</mask>
<g mask="url(#mask3_4201_24480)">
<path d="M227.148 149.309C226.046 152.172 197 159.215 184.46 161.413C171.92 163.61 164.877 166.036 160.038 164.276C155.2 162.515 150.798 160.096 149.696 161.635C148.801 162.88 147.183 167.897 146.604 170.689L146.675 170.632C147.075 170.221 147.389 169.734 147.598 169.2C148.457 167.318 149.066 165.306 149.953 163.474C152.423 164.004 154.484 166.337 157.182 166.724C159.881 167.11 164.791 165.9 164.791 165.9C164.791 165.9 213.892 159.158 220.334 157.905C222.927 157.503 225.497 156.97 228.036 156.309C228.971 155.996 229.797 155.421 230.414 154.651C231.032 153.882 231.415 152.951 231.517 151.97C231.62 150.989 231.438 149.999 230.993 149.119C230.549 148.238 229.86 147.504 229.009 147.004C227.748 146.29 226.395 145.753 224.987 145.408C224.987 145.408 228.251 146.453 227.148 149.309Z" fill="#2F945A"/>
<path opacity="0.5" d="M227.148 149.309C226.046 152.172 197 159.215 184.46 161.413C171.92 163.61 164.877 166.036 160.038 164.276C155.2 162.515 150.798 160.096 149.696 161.635C148.801 162.88 147.183 167.897 146.604 170.689L146.675 170.632C147.075 170.221 147.389 169.734 147.598 169.2C148.457 167.318 149.066 165.306 149.953 163.474C152.423 164.004 154.484 166.337 157.182 166.724C159.881 167.11 164.791 165.9 164.791 165.9C164.791 165.9 213.892 159.158 220.334 157.905C222.927 157.503 225.497 156.97 228.036 156.309C228.971 155.996 229.797 155.421 230.414 154.651C231.032 153.882 231.415 152.951 231.517 151.97C231.62 150.989 231.438 149.999 230.993 149.119C230.549 148.238 229.86 147.504 229.009 147.004C227.748 146.29 226.395 145.753 224.987 145.408C224.987 145.408 228.251 146.453 227.148 149.309Z" fill="white"/>
</g>
<path d="M228.036 156.266C228.971 155.953 229.797 155.378 230.414 154.609C231.032 153.839 231.414 152.908 231.517 151.927C231.62 150.946 231.438 149.956 230.993 149.076C230.548 148.195 229.86 147.461 229.009 146.961C227.748 146.247 226.394 145.71 224.986 145.365C220.713 144.349 216.237 144.597 212.103 146.081C210.313 146.797 170.145 159.094 167.26 159.502C164.376 159.91 145.451 153.539 142.566 153.332C138.751 153.06 134.342 163.138 133.104 165.829C132.87 166.255 132.74 166.731 132.725 167.217C132.723 167.46 132.8 167.697 132.944 167.892C133.089 168.087 133.293 168.23 133.526 168.298C134.077 168.391 134.55 167.94 134.893 167.504C137.442 164.333 138.837 160.196 142.051 157.698L137.599 166.287C137.324 166.736 137.149 167.239 137.084 167.761C137.055 168.023 137.109 168.287 137.237 168.516C137.365 168.746 137.562 168.93 137.799 169.043C138.515 169.3 139.231 168.678 139.625 168.062C140.533 166.566 141.344 165.011 142.051 163.41C142.769 161.796 143.986 160.457 145.522 159.587C143.769 162.595 142.348 165.785 141.285 169.1C141.195 169.353 141.199 169.631 141.298 169.881C141.397 170.131 141.583 170.337 141.822 170.46C142.538 170.768 143.039 170.088 143.375 169.508L148.164 161.133C146.897 163.997 145.759 166.945 144.742 169.916C144.653 170.113 144.626 170.333 144.664 170.546C144.697 170.649 144.754 170.743 144.83 170.822C144.905 170.9 144.998 170.96 145.1 170.997C145.372 171.092 145.666 171.109 145.948 171.044C146.229 170.98 146.486 170.837 146.689 170.632C147.089 170.221 147.403 169.734 147.613 169.2C148.471 167.318 149.08 165.306 149.967 163.474C152.437 164.004 154.498 166.337 157.197 166.724C159.895 167.11 164.805 165.9 164.805 165.9C164.805 165.9 213.906 159.158 220.348 157.905C222.937 157.488 225.502 156.941 228.036 156.266Z" stroke="#143E26" stroke-width="0.715762" stroke-linecap="round" stroke-linejoin="round"/>
<path d="M65.6381 172.485H97.3965V171.004H65.6381V172.485Z" fill="white" stroke="#143E26" stroke-width="0.715762" stroke-linecap="round" stroke-linejoin="round"/>
<path d="M41.2144 162.708H109.67V118.56H41.2144V162.708Z" fill="white" stroke="#143E26" stroke-width="0.715762" stroke-linecap="round" stroke-linejoin="round"/>
<path d="M41.2144 162.708H105.934V118.56H41.2144V162.708Z" fill="#143E26" stroke="#143E26" stroke-width="0.715762" stroke-linecap="round" stroke-linejoin="round"/>
<path d="M64.898 173.158H79.8789V139.074H64.898V173.158Z" fill="white" stroke="#143E26" stroke-width="0.715762" stroke-linecap="round" stroke-linejoin="round"/>
<path d="M63.5171 173.158H78.498V139.074H63.5171V173.158Z" fill="#143E26" stroke="#143E26" stroke-width="0.715762" stroke-linecap="round" stroke-linejoin="round"/>
<path d="M79.4945 139.482H63.168V162.816" stroke="white" stroke-width="0.715762" stroke-linecap="round" stroke-linejoin="round"/>
<path d="M110.143 172.614H156.002V170.216H110.143V172.614Z" fill="white" stroke="#143E26" stroke-width="0.715762" stroke-linecap="round" stroke-linejoin="round"/>
<path d="M86.7658 172.614H144.148V170.216H86.7658V172.614Z" fill="white" stroke="#143E26" stroke-width="0.715762" stroke-linecap="round" stroke-linejoin="round"/>
<path d="M197.236 172.636H220.606L220.241 169.329L197.236 170.603V172.636Z" fill="white" stroke="#143E26" stroke-width="0.715762" stroke-linecap="round" stroke-linejoin="round"/>
<path d="M180.852 172.808H204.221L203.856 169.501L180.852 170.775V172.808Z" fill="white" stroke="#143E26" stroke-width="0.715762" stroke-linecap="round" stroke-linejoin="round"/>
<path d="M241.263 170.603C241.263 170.603 235.759 170.882 233.834 170.882C231.908 170.882 223.376 168.957 219.798 169.501C217.521 169.933 215.391 170.935 213.606 172.414C211.822 170.935 209.692 169.933 207.415 169.501C203.836 168.957 195.304 170.882 193.379 170.882C191.453 170.882 185.949 170.603 185.949 170.603V172.807L213.606 172.535L241.263 172.807V170.603Z" fill="white" stroke="#143E26" stroke-width="0.715762" stroke-linecap="round" stroke-linejoin="round"/>
<path d="M185.95 170.603H162.58V172.636H185.95V170.603Z" fill="white" stroke="#143E26" stroke-width="0.715762" stroke-linecap="round" stroke-linejoin="round"/>
<path d="M24.9877 178.004L265.562 178.004V172.593L24.9877 172.593V178.004Z" fill="white" stroke="#143E26" stroke-width="0.715762" stroke-linecap="round" stroke-linejoin="round"/>
<path d="M4.97749 178.004L179.223 178.004V172.593L4.97749 172.593V178.004Z" fill="#143E26" stroke="#143E26" stroke-width="0.715762" stroke-linecap="round" stroke-linejoin="round"/>
</svg>
