<svg width="34" height="34" viewBox="0 0 34 34" fill="none" xmlns="http://www.w3.org/2000/svg">
<path d="M2.70605 17.0677V14.0989H7.08309V17.0677H2.70605ZM7.58201 25.0149L5.51399 22.876L8.57368 19.8079L10.721 21.8844L7.58201 25.0149ZM8.57368 11.3587L5.51399 8.29054L7.58201 6.1517L10.721 9.28221L8.57368 11.3587ZM26.0079 29.0193L19.1094 22.1377L17.2708 27.628L12.8429 12.8431L27.6194 17.271L22.1914 19.1804L29.0191 26.0081L26.0079 29.0193ZM14.0987 8.49996V4.12292H17.0675V8.49996H14.0987ZM22.5925 11.3587L20.4452 9.28221L23.5842 6.1517L25.6522 8.21971L22.5925 11.3587Z" fill="#595959"/>
</svg>
