<svg width="543" height="543" viewBox="0 0 543 543" fill="none" xmlns="http://www.w3.org/2000/svg">
<path d="M306.621 262.812C297.075 252.962 291.417 228.06 300.778 220.252H348.171C357.478 228.06 351.864 252.929 342.329 262.812L342.068 263.083L341.742 263.398C341.471 263.67 341.188 263.931 340.884 264.18L340.656 264.365C340.417 264.55 340.189 264.734 339.929 264.908C339.534 265.197 339.124 265.465 338.701 265.712C330.839 270.294 318.067 270.294 310.248 265.712C309.822 265.465 309.409 265.197 309.01 264.908L308.337 264.397L308.055 264.169C307.761 263.92 307.479 263.67 307.218 263.42L306.838 263.04C306.773 262.942 306.686 262.877 306.621 262.812Z" fill="#EBEBEB"/>
<path d="M344.054 217.081C354.859 223.39 354.859 233.631 344.054 239.941C333.248 246.25 315.709 246.25 304.892 239.941C294.076 233.631 294.032 223.39 304.892 217.081C315.752 210.771 333.237 210.771 344.054 217.081Z" fill="#FAFAFA"/>
<path d="M338.83 220.11C346.769 224.748 346.769 232.274 338.83 236.9C330.892 241.526 318.012 241.537 310.073 236.9C302.134 232.263 302.134 224.748 310.073 220.11C318.012 215.473 330.913 215.484 338.83 220.11Z" fill="#EBEBEB"/>
<path d="M310.098 228.06C318.037 223.423 330.917 223.423 338.856 228.06C340.781 229.114 342.416 230.629 343.612 232.469C342.419 234.312 340.784 235.828 338.856 236.878C330.917 241.516 318.037 241.516 310.098 236.878C308.171 235.828 306.535 234.312 305.342 232.469C306.539 230.629 308.173 229.114 310.098 228.06Z" fill="white"/>
<path d="M317.992 169.221C314.788 173.261 305.177 175.042 300.388 165.137C295.892 155.852 291.146 147.088 289.713 143.667C289.512 143.221 289.404 142.738 289.395 142.249C289.386 141.76 289.476 141.274 289.66 140.82C289.843 140.367 290.117 139.955 290.464 139.61C290.811 139.265 291.224 138.994 291.678 138.813C291.678 138.813 291.548 133.535 300.735 136.423C309.923 139.312 316.624 144.232 321.174 152.713C325.724 161.195 323.867 167.592 317.992 169.221Z" fill="#F0F0F0"/>
<path d="M322.879 182.448C322.584 180.672 322.189 178.913 321.696 177.181C320.692 173.747 319.444 170.39 317.96 167.135C314.927 160.51 310.959 154.355 306.177 148.858C303.512 145.726 300.559 142.85 297.358 140.268C297.261 140.192 297.196 140.398 297.272 140.463C302.675 145.343 307.402 150.924 311.324 157.057C315.106 163.097 318.089 169.602 320.197 176.41C320.783 178.321 321.348 180.233 321.848 182.166C322.347 184.099 322.727 186.119 323.216 188.084C323.216 188.28 323.574 188.378 323.574 188.084C323.483 186.191 323.251 184.307 322.879 182.448Z" fill="#E0E0E0"/>
<path opacity="0.1" d="M322.879 182.448C322.584 180.672 322.189 178.913 321.696 177.181C320.692 173.747 319.444 170.39 317.96 167.135C314.927 160.51 310.959 154.355 306.177 148.858C303.512 145.726 300.559 142.85 297.358 140.268C297.261 140.192 297.196 140.398 297.272 140.463C302.675 145.343 307.402 150.924 311.324 157.057C315.106 163.097 318.089 169.602 320.197 176.41C320.783 178.321 321.348 180.233 321.848 182.166C322.347 184.099 322.727 186.119 323.216 188.084C323.216 188.28 323.574 188.378 323.574 188.084C323.483 186.191 323.251 184.307 322.879 182.448Z" fill="#143E26"/>
<path d="M328.407 162.129C320.067 164.703 313.877 158.198 316.016 148.011C318.156 137.824 328.885 126.476 332.936 129.549C335.466 127.019 341.038 127.931 343.655 136.217C346.272 144.503 343.894 165.745 328.407 162.129Z" fill="#E0E0E0"/>
<path d="M333.306 135.75C330.937 141.691 329.08 147.824 327.756 154.082C326.323 160.422 325.236 166.835 324.498 173.293C323.149 185.789 322.59 198.357 322.826 210.923C322.826 214.398 322.869 217.873 322.956 221.349C323.032 224.921 322.956 228.538 323.282 232.089C323.402 233.457 325.335 233.099 325.367 231.839C325.487 225.595 325.139 219.318 325.074 213.062C325.009 206.807 325.074 200.693 325.193 194.513C325.411 181.92 326.539 169.358 328.571 156.927C329.168 153.463 329.82 150.009 330.634 146.588C331.481 142.994 332.524 139.453 333.469 135.88C333.545 135.75 333.404 135.511 333.306 135.75Z" fill="#E0E0E0"/>
<path opacity="0.1" d="M333.306 135.75C330.937 141.691 329.08 147.824 327.756 154.082C326.323 160.422 325.236 166.835 324.498 173.293C323.149 185.789 322.59 198.357 322.826 210.923C322.826 214.398 322.869 217.873 322.956 221.349C323.032 224.921 322.956 228.538 323.282 232.089C323.402 233.457 325.335 233.099 325.367 231.839C325.487 225.595 325.139 219.318 325.074 213.062C325.009 206.807 325.074 200.693 325.193 194.513C325.411 181.92 326.539 169.358 328.571 156.927C329.168 153.463 329.82 150.009 330.634 146.588C331.481 142.994 332.524 139.453 333.469 135.88C333.545 135.75 333.404 135.511 333.306 135.75Z" fill="#143E26"/>
<path d="M312.901 190.05C310.49 195.002 302.345 196.892 294.982 191.288C287.619 185.684 276.933 159.946 285.034 159.534C285.653 155.526 309.013 158.252 316.528 174.9C322.012 187.009 312.901 190.05 312.901 190.05Z" fill="#E0E0E0"/>
<path d="M322.673 200.91C321.978 199.335 321.18 197.807 320.283 196.338C318.502 193.312 316.567 190.379 314.484 187.552C310.206 181.809 305.352 176.518 299.997 171.762C297.074 169.033 293.98 166.494 290.733 164.16C290.646 164.105 290.636 164.301 290.733 164.355C293.361 166.527 296.011 168.699 298.487 171.121C301.051 173.606 303.486 176.219 305.785 178.951C310.242 184.173 314.284 189.736 317.873 195.589C318.882 197.25 319.816 198.966 320.848 200.617C321.88 202.267 323.129 203.972 324.106 205.732C324.247 205.992 324.627 205.992 324.486 205.634C323.856 204.168 323.346 202.485 322.673 200.91Z" fill="#E0E0E0"/>
<path opacity="0.1" d="M322.673 200.91C321.978 199.335 321.18 197.807 320.283 196.338C318.502 193.312 316.567 190.379 314.484 187.552C310.206 181.809 305.352 176.518 299.997 171.762C297.074 169.033 293.98 166.494 290.733 164.16C290.646 164.105 290.636 164.301 290.733 164.355C293.361 166.527 296.011 168.699 298.487 171.121C301.051 173.606 303.486 176.219 305.785 178.951C310.242 184.173 314.284 189.736 317.873 195.589C318.882 197.25 319.816 198.966 320.848 200.617C321.88 202.267 323.129 203.972 324.106 205.732C324.247 205.992 324.627 205.992 324.486 205.634C323.856 204.168 323.346 202.485 322.673 200.91Z" fill="#143E26"/>
<path d="M328.167 187.976C323.4 186.89 323.161 181.156 329.123 174.14C335.085 167.125 350.094 164.051 350.843 167.005C354.177 167.005 354.177 177.453 346.792 187.053C339.408 196.653 328.613 194.394 328.167 187.976Z" fill="#E0E0E0"/>
<path d="M337.506 177.757C331.192 182.14 326.377 188.357 323.714 195.567C323.551 195.969 324.257 196.566 324.43 196.121C327.131 188.993 331.65 182.695 337.538 177.854C337.538 177.854 337.571 177.713 337.506 177.757Z" fill="#E0E0E0"/>
<path opacity="0.1" d="M337.506 177.757C331.192 182.14 326.377 188.357 323.714 195.567C323.551 195.969 324.257 196.566 324.43 196.121C327.131 188.993 331.65 182.695 337.538 177.854C337.538 177.854 337.571 177.713 337.506 177.757Z" fill="#143E26"/>
<path d="M333.621 222.847C327.019 225.519 329.842 233.382 336.293 239.355C342.744 245.328 351.953 246.891 356.384 246.576C360.815 246.262 361.944 245.664 361.944 245.664C361.944 245.664 362.65 238.866 361.944 234.728C361.234 230.735 359.388 227.032 356.629 224.06C353.869 221.088 350.311 218.975 346.382 217.971C336.087 215.191 333.621 218.916 333.621 222.847Z" fill="#F0F0F0"/>
<path d="M351.866 234.456C348.912 230.915 345.513 227.768 341.755 225.095C337.997 222.63 332.98 220.512 328.473 222.054C326.725 222.652 324.01 224.389 324.335 226.561C324.335 226.768 324.748 227.311 325.009 227.007C325.706 226.006 326.503 225.078 327.387 224.237C328.423 223.475 329.647 223.01 330.927 222.891C334.156 222.664 337.378 223.397 340.191 224.997C344.654 227.365 348.26 231.036 351.811 234.554C351.866 234.576 351.92 234.489 351.866 234.456Z" fill="#E0E0E0"/>
<path opacity="0.1" d="M351.866 234.456C348.912 230.915 345.513 227.768 341.755 225.095C337.997 222.63 332.98 220.512 328.473 222.054C326.725 222.652 324.01 224.389 324.335 226.561C324.335 226.768 324.748 227.311 325.009 227.007C325.706 226.006 326.503 225.078 327.387 224.237C328.423 223.475 329.647 223.01 330.927 222.891C334.156 222.664 337.378 223.397 340.191 224.997C344.654 227.365 348.26 231.036 351.811 234.554C351.866 234.576 351.92 234.489 351.866 234.456Z" fill="#143E26"/>
<path d="M308.523 197.033C308.588 194.231 303.516 188.486 291.147 189.431C285.5 189.887 280.287 191.408 276.171 195.404C274.719 196.702 273.754 198.457 273.434 200.378C273.313 201.115 273.415 201.871 273.727 202.55C273.998 203.028 274.369 203.443 274.813 203.766C277.767 206.156 281.623 205.526 285.109 206.416C290.539 207.795 301.877 212.715 308.425 209.435C314.974 206.156 312.443 199.086 308.523 197.033Z" fill="#F0F0F0"/>
<path d="M319.48 204.744C312.41 195.1 298.618 194.285 287.834 196.327C284.287 196.981 280.836 198.075 277.561 199.585C277.561 199.585 277.561 199.726 277.561 199.705C283.195 197.655 289.118 196.508 295.11 196.305C301.022 196 306.922 197.117 312.313 199.563C314.958 200.893 317.31 202.74 319.23 204.993C319.469 205.254 319.621 204.939 319.48 204.744Z" fill="#E0E0E0"/>
<path opacity="0.1" d="M319.48 204.744C312.41 195.1 298.618 194.285 287.834 196.327C284.287 196.981 280.836 198.075 277.561 199.585C277.561 199.585 277.561 199.726 277.561 199.705C283.195 197.655 289.118 196.508 295.11 196.305C301.022 196 306.922 197.117 312.313 199.563C314.958 200.893 317.31 202.74 319.23 204.993C319.469 205.254 319.621 204.939 319.48 204.744Z" fill="#143E26"/>
<path d="M340.017 173.239C339.843 177.974 346.533 180.721 352.951 176.627C359.37 172.533 366.157 168.547 372.13 167.005C378.103 165.463 380.938 160.587 379.048 158.23C377.158 155.874 374.161 149.922 358.414 151.866C342.667 153.81 337.139 160.891 334.989 165.887C332.839 170.882 337.65 174.607 340.017 173.239Z" fill="#F0F0F0"/>
<path d="M365.582 158.209C363.309 157.992 361.016 158.232 358.837 158.915C356.855 159.427 354.925 160.121 353.071 160.989C349.387 162.712 346.069 165.127 343.297 168.102C342.515 168.94 341.789 169.829 341.125 170.763C340.436 171.594 339.87 172.519 339.441 173.51C339.344 173.825 339.789 174.336 340.071 174.01C340.842 173.119 341.429 172.023 342.156 171.078C342.942 170.065 343.787 169.101 344.687 168.189C346.501 166.359 348.533 164.758 350.736 163.421C352.859 162.116 355.108 161.024 357.447 160.163C358.73 159.707 360.035 159.315 361.357 158.991C362.74 158.571 364.18 158.369 365.625 158.393C365.614 158.393 365.647 158.219 365.582 158.209Z" fill="#E0E0E0"/>
<path opacity="0.1" d="M365.582 158.209C363.309 157.992 361.016 158.232 358.837 158.915C356.855 159.427 354.925 160.121 353.071 160.989C349.387 162.712 346.069 165.127 343.297 168.102C342.515 168.94 341.789 169.829 341.125 170.763C340.436 171.594 339.87 172.519 339.441 173.51C339.344 173.825 339.789 174.336 340.071 174.01C340.842 173.119 341.429 172.023 342.156 171.078C342.942 170.065 343.787 169.101 344.687 168.189C346.501 166.359 348.533 164.758 350.736 163.421C352.859 162.116 355.108 161.024 357.447 160.163C358.73 159.707 360.035 159.315 361.357 158.991C362.74 158.571 364.18 158.369 365.625 158.393C365.614 158.393 365.647 158.219 365.582 158.209Z" fill="#143E26"/>
<path d="M328.745 198.792C326.573 196.62 320.568 197.098 317.744 203.603C314.92 210.108 320.85 217.222 321.512 219.231C324.238 217.656 326.367 218.59 331.167 217.656C333.842 217.028 336.218 215.496 337.895 213.32C339.573 211.144 340.449 208.457 340.376 205.71C340.061 199.737 337.553 195.806 328.745 198.792Z" fill="#F0F0F0"/>
<path d="M328.657 198.141C327.463 198.9 326.466 199.931 325.747 201.149C324.964 202.28 324.329 203.506 323.857 204.798C322.83 207.433 322.54 210.298 323.021 213.084C323.021 213.193 323.129 213.084 323.129 213.03C322.905 210.227 323.383 207.413 324.519 204.841C325.051 203.683 325.714 202.59 326.496 201.583C326.909 201.046 327.355 200.534 327.832 200.052C328.285 199.658 328.696 199.217 329.059 198.738C329.244 198.51 328.994 197.978 328.657 198.141Z" fill="#E0E0E0"/>
<path opacity="0.1" d="M328.657 198.141C327.463 198.9 326.466 199.931 325.747 201.149C324.964 202.28 324.329 203.506 323.857 204.798C322.83 207.433 322.54 210.298 323.021 213.084C323.021 213.193 323.129 213.084 323.129 213.03C322.905 210.227 323.383 207.413 324.519 204.841C325.051 203.683 325.714 202.59 326.496 201.583C326.909 201.046 327.355 200.534 327.832 200.052C328.285 199.658 328.696 199.217 329.059 198.738C329.244 198.51 328.994 197.978 328.657 198.141Z" fill="#143E26"/>
<path d="M319.664 216.266C318.437 211.575 312.496 208.947 304.731 208.371C300.902 208.023 297.053 208.77 293.633 210.526C290.212 212.281 287.361 214.973 285.411 218.286C281.35 225.226 279.666 230.753 282.153 231.666C284.64 232.578 295.055 234.022 301.788 234.62C308.521 235.217 316.938 234.001 322.422 228.886C327.907 223.77 326.093 217.341 319.664 216.266Z" fill="#E0E0E0"/>
<path d="M319.957 215.647C317.215 214.942 314.358 214.809 311.562 215.256C308.865 215.575 306.21 216.187 303.645 217.081C300.937 218.035 298.314 219.216 295.804 220.61C294.49 221.327 293.198 222.087 291.938 222.902C290.72 223.611 289.558 224.413 288.463 225.302C288.463 225.302 288.463 225.497 288.463 225.464C289.734 224.889 290.928 224.085 292.144 223.401C293.361 222.717 294.783 221.935 296.13 221.229C298.633 219.95 301.229 218.861 303.895 217.971C306.567 217.074 309.332 216.48 312.138 216.201C314.76 216.063 317.389 216.132 320 216.407C320.587 216.429 320.272 215.756 319.957 215.647Z" fill="#E0E0E0"/>
<path opacity="0.1" d="M319.957 215.647C317.215 214.942 314.358 214.809 311.562 215.256C308.865 215.575 306.21 216.187 303.645 217.081C300.937 218.035 298.314 219.216 295.804 220.61C294.49 221.327 293.198 222.087 291.938 222.902C290.72 223.611 289.558 224.413 288.463 225.302C288.463 225.302 288.463 225.497 288.463 225.464C289.734 224.889 290.928 224.085 292.144 223.401C293.361 222.717 294.783 221.935 296.13 221.229C298.633 219.95 301.229 218.861 303.895 217.971C306.567 217.074 309.332 216.48 312.138 216.201C314.76 216.063 317.389 216.132 320 216.407C320.587 216.429 320.272 215.756 319.957 215.647Z" fill="#143E26"/>
<path d="M333.783 204.765C328.451 200.519 330.232 190.354 348.911 189.811C367.59 189.268 380.915 194.155 380.329 200.15C383.326 203.147 381.806 211.575 366.689 214.203C351.571 216.831 329.938 215.517 333.783 204.765Z" fill="#E0E0E0"/>
<path d="M371.544 200.215C366.033 199.309 360.443 198.982 354.863 199.238C349.674 199.206 344.5 199.8 339.453 201.008C338.165 201.361 336.911 201.83 335.706 202.409C335.144 202.668 334.597 202.958 334.067 203.277C333.643 203.538 333.165 203.766 332.981 204.255C332.967 204.333 332.971 204.413 332.993 204.488C333.016 204.564 333.055 204.634 333.109 204.691C333.162 204.749 333.229 204.794 333.303 204.822C333.377 204.85 333.456 204.86 333.534 204.852C334.668 204.414 335.758 203.872 336.792 203.234C337.851 202.77 338.939 202.378 340.05 202.061C342.183 201.454 344.363 201.026 346.566 200.78C351.796 200.127 357.065 199.836 362.335 199.911C365.398 199.911 368.46 200.182 371.512 200.432C371.599 200.432 371.631 200.226 371.544 200.215Z" fill="#E0E0E0"/>
<path opacity="0.1" d="M371.544 200.215C366.033 199.309 360.443 198.982 354.863 199.238C349.674 199.206 344.5 199.8 339.453 201.008C338.165 201.361 336.911 201.83 335.706 202.409C335.144 202.668 334.597 202.958 334.067 203.277C333.643 203.538 333.165 203.766 332.981 204.255C332.967 204.333 332.971 204.413 332.993 204.488C333.016 204.564 333.055 204.634 333.109 204.691C333.162 204.749 333.229 204.794 333.303 204.822C333.377 204.85 333.456 204.86 333.534 204.852C334.668 204.414 335.758 203.872 336.792 203.234C337.851 202.77 338.939 202.378 340.05 202.061C342.183 201.454 344.363 201.026 346.566 200.78C351.796 200.127 357.065 199.836 362.335 199.911C365.398 199.911 368.46 200.182 371.512 200.432C371.599 200.432 371.631 200.226 371.544 200.215Z" fill="#143E26"/>
<path d="M509.454 353.297L450.864 387.115L353.211 330.741L411.801 296.912L509.454 353.297Z" fill="#F5F5F5"/>
<path d="M450.864 387.115V391.633L353.211 335.248V330.741L450.864 387.115Z" fill="#EBEBEB"/>
<path d="M509.453 353.297L450.863 387.116V391.633L509.453 357.804V353.297Z" fill="#E0E0E0"/>
<path d="M445.998 334.531L450.863 337.333V391.633L445.998 388.82V334.531Z" fill="#EBEBEB"/>
<path d="M455.718 334.531L450.863 337.333V391.633L455.718 388.82V334.531Z" fill="#E0E0E0"/>
<path d="M406.979 245.458L411.844 248.26V302.56L406.979 299.758V245.458Z" fill="#F0F0F0"/>
<path d="M416.7 245.458L411.846 248.26V302.56L416.7 299.758V245.458Z" fill="#E0E0E0"/>
<path d="M509.455 303.515L504.59 306.328V360.617L509.455 357.815V303.515Z" fill="#E0E0E0"/>
<path d="M499.734 309.119L504.589 306.328V356.099L499.734 353.297V309.119Z" fill="#F0F0F0"/>
<path d="M353.221 280.959L358.075 283.772V338.072L353.221 335.259V280.959Z" fill="#EBEBEB"/>
<path d="M362.941 286.563L358.076 283.772V333.543L362.941 330.741V286.563Z" fill="#E0E0E0"/>
<path d="M509.454 299.008L450.864 332.826L353.211 276.452L411.801 242.623L509.454 299.008Z" fill="#F5F5F5"/>
<path d="M450.864 332.826V337.344L353.211 280.959V276.452L450.864 332.826Z" fill="#EBEBEB"/>
<path d="M509.453 299.008L450.863 332.826V337.344L509.453 303.515V299.008Z" fill="#E0E0E0"/>
<path d="M509.453 254.124L450.863 287.942L353.221 231.568L411.8 197.739L509.453 254.124Z" fill="#FAFAFA"/>
<path d="M411.81 199.129L507.063 254.124L450.863 286.563L355.61 231.568L411.81 199.129ZM411.81 197.739L353.221 231.568L450.863 287.942L509.453 254.124L411.81 197.739Z" fill="#E0E0E0"/>
<path d="M450.863 287.942V292.46L353.221 236.075V231.568L450.863 287.942Z" fill="#EBEBEB"/>
<path d="M509.453 254.124L450.863 287.942V292.46L509.453 258.631V254.124Z" fill="#E0E0E0"/>
<path d="M445.998 289.636L450.863 292.449V337.344L445.998 334.531V289.636Z" fill="#EBEBEB"/>
<path d="M455.718 289.636L450.863 292.449V337.344L455.718 334.531V289.636Z" fill="#E0E0E0"/>
<path d="M509.455 258.631L504.59 261.444V306.328L509.455 303.526V258.631Z" fill="#E0E0E0"/>
<path d="M499.734 264.235L504.589 261.444V301.81L499.734 299.008V264.235Z" fill="#F0F0F0"/>
<path d="M353.221 236.075L358.075 238.887V283.783L353.221 280.97V236.075Z" fill="#EBEBEB"/>
<path d="M362.941 241.678L358.076 238.887V279.254L362.941 276.452V241.678Z" fill="#E0E0E0"/>
<path d="M445.998 388.82L450.863 391.622V410.508L445.998 407.706V388.82Z" fill="#EBEBEB"/>
<path d="M455.718 388.82L450.863 391.622V410.508L455.718 407.706V388.82Z" fill="#E0E0E0"/>
<path d="M509.455 357.815L504.59 360.617V379.503L509.455 376.701V357.815Z" fill="#E0E0E0"/>
<path d="M499.734 363.408L504.589 360.617V379.503L499.734 376.701V363.408Z" fill="#F0F0F0"/>
<path d="M353.221 335.259L358.075 338.061V356.957L353.221 354.155V335.259Z" fill="#EBEBEB"/>
<path d="M362.941 340.863L358.076 338.061V356.957L362.941 354.145V340.863Z" fill="#E0E0E0"/>
<path d="M490.632 250.464L443.576 277.343C443.417 277.443 443.231 277.493 443.044 277.484C442.852 277.494 442.66 277.452 442.49 277.364L384.106 243.698C384.041 243.671 383.985 243.625 383.945 243.566C383.906 243.507 383.885 243.438 383.885 243.367C383.885 243.296 383.906 243.227 383.945 243.168C383.985 243.109 384.041 243.063 384.106 243.036L431.141 216.114L490.632 250.464Z" fill="#E0E0E0"/>
<path d="M387.582 242.906C387.601 243.073 387.659 243.234 387.752 243.376C387.844 243.517 387.968 243.635 388.114 243.72L442.621 275.214C442.772 275.291 442.939 275.33 443.109 275.33C443.279 275.33 443.446 275.291 443.598 275.214L486.137 250.866L486.082 249.78L430.588 217.743L388.027 242.08C387.896 242.176 387.788 242.3 387.711 242.442C387.634 242.585 387.59 242.744 387.582 242.906Z" fill="#2B8752"/>
<path d="M486.081 249.78L443.543 274.074C443.401 274.166 443.234 274.211 443.065 274.204C442.891 274.214 442.719 274.177 442.565 274.095L388.059 242.601C388.001 242.576 387.951 242.534 387.917 242.481C387.882 242.428 387.863 242.366 387.863 242.303C387.863 242.239 387.882 242.177 387.917 242.124C387.951 242.071 388.001 242.029 388.059 242.004L430.619 217.71L486.081 249.78Z" fill="#1A5132"/>
<path d="M486.081 249.78L486.136 250.866L443.597 275.16C443.451 275.242 443.287 275.287 443.119 275.29V274.258C443.288 274.266 443.455 274.22 443.597 274.128L486.081 249.78Z" fill="#143E26"/>
<path d="M485.442 250.247L429.926 218.221L429.23 204.635L484.747 236.824L485.442 250.247Z" fill="#2B8752"/>
<path d="M387.809 235.586C387.644 235.716 387.509 235.88 387.415 236.068C387.322 236.256 387.27 236.462 387.266 236.672L387.407 239.419C387.43 239.638 387.502 239.849 387.616 240.037C387.731 240.225 387.885 240.385 388.069 240.505L442.369 271.815C442.556 271.917 442.765 271.97 442.977 271.97C443.19 271.97 443.399 271.917 443.586 271.815L479.576 249.845L479.358 245.599L423.864 213.562L387.809 235.586Z" fill="#EBEBEB"/>
<path d="M423.822 213.605L387.81 235.586C387.738 235.619 387.678 235.672 387.635 235.738C387.593 235.805 387.57 235.882 387.57 235.961C387.57 236.039 387.593 236.117 387.635 236.183C387.678 236.249 387.738 236.302 387.81 236.335L442.11 267.645C442.297 267.743 442.506 267.795 442.718 267.795C442.93 267.795 443.139 267.743 443.326 267.645L479.316 245.664L423.822 213.605Z" fill="#FAFAFA"/>
<path d="M474.581 246.077C474.709 246.146 474.849 246.194 474.993 246.218C475.21 246.278 475.439 246.278 475.656 246.218C475.726 246.202 475.793 246.173 475.851 246.131C476.177 245.935 476.123 245.577 475.721 245.349C475.539 245.254 475.339 245.199 475.134 245.186C474.898 245.157 474.659 245.203 474.45 245.316C474.429 245.31 474.406 245.31 474.385 245.316C474.168 245.566 474.233 245.859 474.581 246.077Z" fill="#143E26"/>
<path d="M442.729 267.775L442.947 272.021C442.732 272.026 442.519 271.977 442.328 271.88L388.028 240.582C387.849 240.456 387.698 240.295 387.586 240.108C387.474 239.921 387.402 239.712 387.376 239.496L387.267 236.748C387.257 236.546 387.291 236.345 387.366 236.157C387.441 235.97 387.555 235.801 387.702 235.662C387.528 235.868 387.582 236.118 387.876 236.292L442.176 267.59C442.34 267.701 442.531 267.765 442.729 267.775Z" fill="#EAF4EF"/>
<path d="M480.802 240.082C480.41 239.868 479.964 239.772 479.518 239.807C479.073 239.841 478.647 240.005 478.293 240.277C476.613 241.641 475.489 243.573 475.133 245.707L475.969 245.827C476.289 243.936 477.275 242.222 478.749 240.994C479.052 240.787 479.404 240.663 479.77 240.636C479.999 240.632 480.225 240.692 480.422 240.81C480.833 241.183 481.151 241.647 481.349 242.166C481.547 242.685 481.62 243.244 481.562 243.796C481.627 246.609 480.27 249.823 478.543 250.953C478.185 251.213 477.746 251.337 477.305 251.3L476.436 251.865H476.49C476.816 252.066 477.193 252.168 477.576 252.158C478.091 252.133 478.587 251.964 479.01 251.67C480.986 250.377 482.485 246.913 482.409 243.774C482.344 242.026 481.768 240.658 480.802 240.082Z" fill="#143E26"/>
<path d="M387.146 234.283C387.166 234.448 387.223 234.606 387.314 234.745C387.404 234.884 387.525 235.001 387.668 235.086L442.185 266.58C442.334 266.66 442.5 266.702 442.668 266.702C442.837 266.702 443.003 266.66 443.152 266.58L485.44 237.334L485.386 236.303L429.891 204.266L387.592 233.49C387.465 233.582 387.359 233.701 387.282 233.837C387.205 233.974 387.159 234.126 387.146 234.283Z" fill="#1A5132"/>
<path d="M485.44 236.303L443.086 265.494C442.936 265.576 442.768 265.62 442.598 265.625C442.428 265.635 442.258 265.598 442.109 265.516L387.603 234.022C387.32 233.859 387.309 233.588 387.603 233.425L429.957 204.233L485.44 236.303Z" fill="#2B8752"/>
<path d="M485.441 236.303L485.495 237.334L443.217 266.526C443.068 266.61 442.899 266.651 442.728 266.645L442.674 265.625C442.845 265.62 443.012 265.576 443.163 265.494L485.441 236.303Z" fill="#143E26"/>
<path d="M486.08 249.823L485.396 236.324L484.744 236.824L485.439 250.247L486.08 249.823Z" fill="#143E26"/>
<path d="M483.8 236.129C483.929 236.064 484.036 235.965 484.111 235.842C484.186 235.719 484.225 235.578 484.224 235.434C484.224 235.184 484.224 234.348 484.224 234.348L430.586 204.016C430.243 203.829 429.859 203.73 429.468 203.73C429.077 203.73 428.692 203.829 428.349 204.016L386.527 231.318L442 263.344L483.8 236.129Z" fill="#2F945A"/>
<path opacity="0.2" d="M483.8 236.129C483.929 236.064 484.036 235.965 484.111 235.842C484.186 235.719 484.225 235.578 484.224 235.434C484.224 235.184 484.224 234.348 484.224 234.348L430.586 204.016C430.243 203.829 429.859 203.73 429.468 203.73C429.077 203.73 428.692 203.829 428.349 204.016L386.527 231.318L442 263.344L483.8 236.129Z" fill="#143E26"/>
<path d="M483.746 235.097C483.88 235.036 483.992 234.936 484.069 234.81C484.145 234.684 484.182 234.538 484.175 234.391C484.168 234.244 484.117 234.102 484.029 233.984C483.941 233.866 483.82 233.777 483.681 233.729L430.467 203.017C430.123 202.832 429.738 202.736 429.348 202.736C428.958 202.736 428.574 202.832 428.23 203.017L386.451 230.243L442 262.323L483.746 235.097Z" fill="#2F945A"/>
<path opacity="0.5" d="M483.746 235.097C483.88 235.036 483.992 234.936 484.069 234.81C484.145 234.684 484.182 234.538 484.175 234.391C484.168 234.244 484.117 234.102 484.029 233.984C483.941 233.866 483.82 233.777 483.681 233.729L430.467 203.017C430.123 202.832 429.738 202.736 429.348 202.736C428.958 202.736 428.574 202.832 428.23 203.017L386.451 230.243L442 262.323L483.746 235.097Z" fill="#143E26"/>
<path d="M396.05 223.195L426.979 203.082C427.323 202.898 427.708 202.801 428.098 202.801C428.488 202.801 428.873 202.898 429.217 203.082L478.597 231.6L482.626 228.95L482.887 234.174L482.811 234.228C482.889 234.397 482.897 234.59 482.834 234.765C482.771 234.939 482.642 235.082 482.474 235.162L447.06 258.24L391.543 226.214L391.25 220.501L396.05 223.195Z" fill="#EBEBEB"/>
<path d="M482.181 229.385C482.315 229.323 482.427 229.223 482.503 229.097C482.58 228.972 482.617 228.826 482.61 228.679C482.603 228.532 482.552 228.39 482.464 228.272C482.376 228.154 482.255 228.065 482.116 228.016L428.902 197.304C428.558 197.12 428.173 197.023 427.783 197.023C427.393 197.023 427.008 197.12 426.664 197.304L391.25 220.458L446.766 252.495L482.181 229.385Z" fill="#FAFAFA"/>
<path d="M446.766 252.462L447.049 258.164L391.543 226.138L391.25 220.425L446.766 252.462Z" fill="#EAF4EF"/>
<path d="M446.062 250.236C446.193 250.311 446.336 250.362 446.485 250.388C446.698 250.448 446.924 250.448 447.137 250.388C447.211 250.375 447.282 250.345 447.343 250.301C447.669 250.106 447.604 249.747 447.213 249.53C447.029 249.429 446.825 249.369 446.616 249.356C446.378 249.327 446.138 249.376 445.931 249.498C445.931 249.498 445.877 249.498 445.866 249.498C445.616 249.78 445.692 250.03 446.062 250.236Z" fill="#143E26"/>
<path d="M440.654 254.808C440.664 255.516 440.896 256.203 441.316 256.774C441.509 257.022 441.759 257.222 442.044 257.356C442.329 257.49 442.641 257.555 442.956 257.545C443.504 257.528 444.033 257.346 444.476 257.023L444.748 256.85L444.096 256.47C442.619 257.404 441.37 256.654 441.273 254.797C441.263 253.805 441.485 252.824 441.92 251.932C442.355 251.041 442.993 250.263 443.781 249.66C444.064 249.417 444.418 249.272 444.789 249.247C445.161 249.221 445.532 249.317 445.845 249.519C446.143 249.731 446.361 250.037 446.464 250.388C446.677 250.448 446.902 250.448 447.115 250.388C447.022 250.009 446.844 249.656 446.594 249.356C446.398 249.111 446.149 248.915 445.864 248.783C445.579 248.651 445.268 248.587 444.954 248.596C444.404 248.618 443.872 248.799 443.423 249.117C442.544 249.78 441.836 250.641 441.354 251.63C440.873 252.619 440.633 253.708 440.654 254.808Z" fill="#143E26"/>
<path d="M442 249.389L483.789 226.322V227.072C483.8 227.279 483.76 227.487 483.673 227.676C483.586 227.865 483.454 228.03 483.29 228.158L442.022 250.464L442 249.389Z" fill="#2F945A"/>
<path opacity="0.2" d="M442 249.389L483.789 226.322V227.072C483.8 227.279 483.76 227.487 483.673 227.676C483.586 227.865 483.454 228.03 483.29 228.158L442.022 250.464L442 249.389Z" fill="#143E26"/>
<path d="M483.332 226.974C483.466 226.912 483.578 226.812 483.655 226.686C483.731 226.561 483.769 226.415 483.762 226.268C483.755 226.121 483.704 225.979 483.616 225.861C483.528 225.743 483.406 225.654 483.267 225.606L430.053 194.937C429.71 194.75 429.325 194.651 428.935 194.651C428.544 194.651 428.159 194.75 427.816 194.937L385.82 217.743L441.348 249.78L483.332 226.974Z" fill="#74B790"/>
<path d="M442.046 263.344L386.53 231.318L385.846 217.732L441.351 249.78L442.046 263.344Z" fill="#2F945A"/>
<path opacity="0.1" d="M442.046 263.344L386.53 231.318L385.846 217.732L441.351 249.78L442.046 263.344Z" fill="#35374B"/>
<path d="M431.782 254.808C432.091 254.808 432.396 254.732 432.669 254.586C432.941 254.44 433.174 254.229 433.346 253.972C433.718 253.38 433.882 252.68 433.813 251.984C433.704 250.856 433.344 249.766 432.76 248.795C432.175 247.823 431.381 246.995 430.435 246.37C429.961 246.068 429.412 245.906 428.85 245.903C427.557 245.903 426.732 247.054 426.819 248.726C426.923 249.856 427.281 250.948 427.865 251.92C428.45 252.892 429.247 253.72 430.196 254.341C430.671 254.642 431.22 254.803 431.782 254.808Z" fill="#2B8752"/>
<path d="M433.172 252.006C433.27 253.874 432.086 254.656 430.49 253.744C429.643 253.184 428.932 252.442 428.41 251.572C427.888 250.702 427.566 249.726 427.47 248.716C427.373 246.837 428.556 246.055 430.142 246.967C430.989 247.53 431.7 248.274 432.224 249.146C432.748 250.017 433.072 250.994 433.172 252.006Z" fill="#F5F5F5"/>
<path d="M422.79 245.36L422.844 246.392C422.942 248.444 421.628 249.302 419.901 248.303L393.468 233.099C392.543 232.478 391.766 231.66 391.191 230.705C390.617 229.75 390.26 228.68 390.145 227.571V226.54C390.036 224.487 391.35 223.629 393.077 224.628L419.51 239.886C420.421 240.507 421.186 241.317 421.752 242.262C422.319 243.207 422.673 244.264 422.79 245.36Z" fill="#F5F5F5"/>
<path d="M442.685 262.931L442.001 249.432L441.35 249.78L442.045 263.344L442.685 262.931Z" fill="#2F945A"/>
<path opacity="0.2" d="M442.685 262.931L442.001 249.432L441.35 249.78L442.045 263.344L442.685 262.931Z" fill="#143E26"/>
<path fill-rule="evenodd" clip-rule="evenodd" d="M407.972 223.522C409.074 224.158 410.86 224.158 411.962 223.522C413.064 222.886 413.064 221.855 411.962 221.218C410.86 220.582 409.074 220.582 407.972 221.218C406.87 221.855 406.87 222.886 407.972 223.522ZM405.977 224.674C408.181 225.946 411.754 225.946 413.957 224.674C416.161 223.402 416.161 221.339 413.957 220.067C411.754 218.794 408.181 218.794 405.977 220.067C403.773 221.339 403.773 223.402 405.977 224.674Z" fill="#143E26"/>
<path fill-rule="evenodd" clip-rule="evenodd" d="M420.691 230.75C421.765 231.37 423.507 231.37 424.581 230.75C425.655 230.13 425.655 229.124 424.581 228.504C423.507 227.884 421.765 227.884 420.691 228.504C419.616 229.124 419.616 230.13 420.691 230.75ZM418.696 231.902C420.872 233.158 424.4 233.158 426.576 231.902C428.752 230.645 428.752 228.608 426.576 227.352C424.4 226.096 420.872 226.096 418.696 227.352C416.519 228.608 416.519 230.645 418.696 231.902Z" fill="#143E26"/>
<path fill-rule="evenodd" clip-rule="evenodd" d="M411.463 227.841L421.438 222.082L423.234 223.119L413.259 228.878L411.463 227.841Z" fill="#143E26"/>
<path fill-rule="evenodd" clip-rule="evenodd" d="M441.29 244.947L451.165 239.245L452.163 239.821L442.287 245.522L441.29 244.947Z" fill="#143E26"/>
<path fill-rule="evenodd" clip-rule="evenodd" d="M420.841 225.884L416.85 223.58L418.446 222.658L422.437 224.962L420.841 225.884Z" fill="#143E26"/>
<path fill-rule="evenodd" clip-rule="evenodd" d="M401.82 218.818C400.878 218.963 399.832 218.823 399.094 218.396C397.992 217.76 397.992 216.729 399.094 216.093C400.196 215.456 401.982 215.456 403.084 216.093C403.823 216.519 404.066 217.123 403.815 217.666L405.951 218.9C407.229 217.65 406.938 216.014 405.079 214.941C402.875 213.668 399.303 213.668 397.099 214.941C394.895 216.213 394.895 218.276 397.099 219.548C398.958 220.622 401.792 220.789 403.956 220.052L401.82 218.818Z" fill="#143E26"/>
<path d="M443.322 240.966C444.044 240.55 444.41 240.089 444.421 239.586C444.442 239.076 444.065 238.597 443.289 238.149C442.945 237.95 442.541 237.797 442.077 237.692C441.625 237.58 441.162 237.517 440.688 237.505C440.224 237.499 439.772 237.536 439.33 237.617C438.899 237.704 438.528 237.838 438.215 238.018L443.322 240.966ZM437.31 238.503C436.965 238.74 436.702 238.998 436.518 239.278C436.335 239.558 436.244 239.841 436.244 240.127C436.254 240.407 436.351 240.68 436.535 240.948C436.718 241.215 436.998 241.458 437.375 241.676C437.946 242.005 438.565 242.214 439.233 242.301C439.923 242.388 440.548 242.394 441.108 242.319L441.253 243.187C440.23 243.255 439.319 243.203 438.522 243.028C437.736 242.86 437.03 242.596 436.405 242.235C435.845 241.912 435.419 241.554 435.129 241.162C434.859 240.771 434.73 240.372 434.741 239.968C434.752 239.564 434.897 239.163 435.177 238.765C435.468 238.373 435.899 238.012 436.47 237.682C437.041 237.353 437.666 237.104 438.344 236.936C439.023 236.768 439.713 236.681 440.413 236.675C441.113 236.668 441.792 236.743 442.449 236.899C443.117 237.048 443.72 237.278 444.259 237.589C444.83 237.919 445.239 238.273 445.487 238.653C445.735 239.032 445.837 239.408 445.794 239.782C445.773 240.155 445.611 240.522 445.309 240.882C445.019 241.237 444.615 241.564 444.097 241.862L443.613 242.142L437.31 238.503Z" fill="#143E26"/>
<path fill-rule="evenodd" clip-rule="evenodd" d="M435.404 237.056C433.224 238.284 429.733 238.274 427.574 237.028C425.398 235.771 425.398 233.734 427.574 232.478C429.75 231.221 433.278 231.221 435.454 232.478C436.624 233.153 437.165 234.054 437.077 234.939L440.392 233.025L441.389 233.601L435.491 237.006C435.479 237.013 435.467 237.021 435.454 237.028C435.442 237.035 435.429 237.042 435.417 237.049L435.404 237.056ZM434.489 236.433C436.082 235.493 436.071 233.986 434.457 233.054C432.831 232.115 430.196 232.115 428.571 233.054C426.946 233.992 426.946 235.513 428.571 236.452C430.186 237.384 432.797 237.39 434.424 236.47L434.489 236.433Z" fill="#143E26"/>
<path d="M94.5561 385.313H98.0856V374.453C97.9881 372.373 97.394 370.348 96.3529 368.545C95.3118 366.743 93.8541 365.216 92.1018 364.092L73.1402 353.178C72.3863 352.597 71.4755 352.256 70.5255 352.198C69.5755 352.14 68.6301 352.369 67.8114 352.854C66.9927 353.34 66.3385 354.059 65.9332 354.92C65.528 355.782 65.3904 356.745 65.5382 357.685L65.8749 368.773L69.4044 368.697L69.0786 357.609C69.0786 356.74 69.2632 356.077 69.6216 355.871C69.9799 355.665 70.7076 355.795 71.4026 356.229L90.3424 367.176C91.5601 367.988 92.574 369.07 93.3048 370.337C94.0357 371.605 94.464 373.025 94.5561 374.485V385.313Z" fill="#1A5132"/>
<path d="M35.1411 425.136L38.9313 355.285C39.0278 354.376 39.3254 353.5 39.8025 352.72C40.2796 351.941 40.9243 351.277 41.6897 350.778L43.8617 349.518C44.137 349.318 44.4622 349.198 44.8014 349.171C45.1406 349.144 45.4806 349.212 45.7839 349.366L118.774 391.514L108.728 468.891L35.8362 426.798C35.5786 426.612 35.3775 426.358 35.2548 426.065C35.1322 425.772 35.0929 425.45 35.1411 425.136Z" fill="#1A5132"/>
<path d="M121.489 462.353L110.477 468.717C109.043 469.543 107.957 468.88 108.055 467.23L111.856 397.378C111.955 396.476 112.253 395.606 112.728 394.833C113.203 394.059 113.844 393.4 114.604 392.904L116.776 391.644C117.033 391.427 117.35 391.293 117.684 391.259C118.019 391.225 118.356 391.293 118.652 391.454C118.947 391.615 119.187 391.861 119.341 392.16C119.495 392.459 119.554 392.798 119.512 393.132L123.932 457.879C123.931 458.77 123.707 459.646 123.28 460.427C122.853 461.209 122.237 461.871 121.489 462.353Z" fill="#143E26"/>
<path d="M83.0772 447.692C83.3306 447.69 83.5739 447.593 83.7589 447.42C83.944 447.247 84.0573 447.011 84.0764 446.758L86.0094 414.026C86.0253 413.761 85.9352 413.501 85.759 413.302C85.5829 413.104 85.335 412.983 85.07 412.967C84.8051 412.952 84.5446 413.042 84.3461 413.218C84.1475 413.394 84.027 413.642 84.0112 413.907L82.0781 446.639C82.0663 446.773 82.0815 446.908 82.123 447.035C82.1645 447.163 82.2313 447.281 82.3196 447.383C82.4078 447.484 82.5155 447.567 82.6364 447.626C82.7572 447.684 82.8887 447.718 83.0229 447.725L83.0772 447.692Z" fill="#2F945A"/>
<path d="M55.1235 431.63C55.3768 431.628 55.6201 431.531 55.8052 431.358C55.9903 431.185 56.1035 430.949 56.1226 430.696L58.0448 397.964C58.0567 397.831 58.0418 397.697 58.001 397.57C57.9601 397.443 57.8942 397.325 57.8072 397.224C57.7201 397.123 57.6136 397.04 57.494 396.981C57.3744 396.921 57.2441 396.887 57.1109 396.878C56.8417 396.861 56.5765 396.95 56.373 397.127C56.1695 397.304 56.0444 397.554 56.0249 397.823L54.0918 430.544C54.0799 430.678 54.0952 430.813 54.1367 430.941C54.1782 431.069 54.245 431.187 54.3332 431.288C54.4214 431.39 54.5292 431.472 54.6501 431.531C54.7709 431.59 54.9024 431.624 55.0366 431.63H55.1235Z" fill="#2F945A"/>
<path d="M102.408 429.621C103.195 430.072 104.085 430.314 104.992 430.322C105.899 430.331 106.793 430.106 107.589 429.67C108.385 429.234 109.055 428.602 109.536 427.832C110.017 427.063 110.292 426.183 110.336 425.277L111.856 397.367C111.961 396.465 112.263 395.597 112.742 394.826C113.221 394.054 113.864 393.398 114.626 392.904L116.798 391.655C117.052 391.472 117.347 391.354 117.657 391.31C117.968 391.267 118.284 391.299 118.579 391.405L45.8166 349.388C45.5174 349.228 45.1789 349.156 44.8405 349.181C44.5021 349.206 44.1778 349.327 43.9053 349.529L41.7333 350.789C40.9741 351.289 40.3343 351.95 39.8594 352.725C39.3846 353.5 39.0862 354.37 38.9857 355.274L37.5087 382.869C37.3403 385.571 37.9266 388.266 39.2019 390.654C40.4773 393.041 42.3915 395.027 44.7306 396.39L102.408 429.621Z" fill="#2B8752"/>
<path d="M76.8666 411.692L66.289 405.599L65.8438 411.453L76.4431 417.567L76.8666 411.692Z" fill="#2F945A"/>
<path d="M281.906 387.876L267.331 303.809L258.111 303.342L277.268 387.865C277.304 388.038 277.377 388.202 277.482 388.344C277.587 388.487 277.722 388.605 277.877 388.69C278.37 388.968 278.921 389.127 279.486 389.155C280.052 389.183 280.616 389.08 281.135 388.853C281.338 388.78 281.514 388.648 281.642 388.474C281.77 388.3 281.842 388.092 281.851 387.876H281.906Z" fill="#143E26"/>
<path d="M144.808 289.962H135.577L113.857 377.287C113.856 377.503 113.92 377.715 114.04 377.895C114.16 378.075 114.331 378.215 114.531 378.297C115.035 378.554 115.594 378.687 116.16 378.687C116.726 378.687 117.284 378.554 117.789 378.297C117.949 378.22 118.09 378.11 118.202 377.973C118.315 377.836 118.396 377.676 118.44 377.504L144.808 289.962Z" fill="#1A5132"/>
<path d="M208.664 427.938L208.251 333.782L199.031 333.315L204.016 427.884C204.054 428.059 204.128 428.225 204.235 428.369C204.342 428.513 204.478 428.633 204.635 428.72C205.128 428.999 205.679 429.159 206.245 429.187C206.81 429.216 207.375 429.111 207.893 428.883C208.098 428.812 208.277 428.68 208.407 428.506C208.537 428.332 208.611 428.123 208.621 427.906L208.664 427.938Z" fill="#1A5132"/>
<path d="M195.199 260.705H185.968L171.188 353.482C171.186 353.698 171.25 353.91 171.37 354.09C171.49 354.27 171.661 354.41 171.861 354.492C172.366 354.749 172.924 354.882 173.49 354.882C174.056 354.882 174.614 354.749 175.119 354.492C175.279 354.416 175.42 354.305 175.532 354.168C175.645 354.031 175.726 353.871 175.77 353.699L195.199 260.705Z" fill="#143E26"/>
<path d="M118.236 188.019C116.148 193.192 114.901 198.666 114.543 204.233C113.457 216.657 117.704 256.893 120.223 274.877C123.883 304.938 128.357 304.992 134.873 310.031C146.081 318.719 178.313 335.65 188.945 339.842C208.233 347.444 224.001 335.726 235.752 329.916C246.531 324.464 256.933 318.296 266.887 311.454C269.831 309.282 271.351 307.11 271.318 304.884C271.318 303.982 271.318 300.29 271.318 299.334C271.318 296.435 268.755 293.318 263.358 289.821C253.399 283.359 217.398 262.356 203.443 254.634C203.44 254.606 203.427 254.579 203.408 254.558C203.388 254.536 203.363 254.521 203.335 254.515C192.594 247.999 186.132 203.701 178.704 180.135C178.541 179.635 178.389 179.147 178.226 178.68C178.063 178.213 177.966 177.93 177.835 177.594C177.407 176.393 176.917 175.215 176.369 174.064" fill="#2F945A"/>
<path d="M271.317 299.345C271.317 296.445 268.754 293.329 263.357 289.832C253.398 283.37 217.397 262.367 203.442 254.645C203.438 254.617 203.426 254.59 203.406 254.569C203.387 254.547 203.362 254.532 203.333 254.526C192.593 248.01 186.131 203.712 178.703 180.146C178.627 179.929 178.106 178.115 177.139 175.802L177.009 175.487C176.878 175.172 176.737 174.857 176.585 174.531C176.509 174.368 176.444 174.205 176.368 174.053C175.19 171.367 173.505 168.933 171.405 166.886C170.673 166.212 169.855 165.639 168.972 165.181C167.767 164.496 165.226 163.085 164.628 162.715C157.33 158.371 147.774 163.584 135.849 170.111C128.443 174.184 122.111 179.005 118.267 188.008C116.179 193.181 114.932 198.655 114.575 204.222C113.489 216.646 117.735 256.882 120.254 274.867C123.914 304.927 128.389 304.981 134.905 310.02C146.112 318.708 178.345 335.639 188.976 339.831C208.264 347.433 224.033 335.715 235.783 329.905C246.562 324.453 256.964 318.286 266.919 311.443C269.862 309.271 271.382 307.099 271.35 304.873C271.295 303.993 271.317 300.301 271.317 299.345Z" fill="#2F945A"/>
<path opacity="0.25" d="M271.317 299.345C271.317 296.445 268.754 293.329 263.357 289.832C253.398 283.37 217.397 262.367 203.442 254.645C203.438 254.617 203.426 254.59 203.406 254.569C203.387 254.547 203.362 254.532 203.333 254.526C192.593 248.01 186.131 203.712 178.703 180.146C178.627 179.929 178.106 178.115 177.139 175.802L177.009 175.487C176.878 175.172 176.737 174.857 176.585 174.531C176.509 174.368 176.444 174.205 176.368 174.053C175.19 171.367 173.505 168.933 171.405 166.886C170.673 166.212 169.855 165.639 168.972 165.181C167.767 164.496 165.226 163.085 164.628 162.715C157.33 158.371 147.774 163.584 135.849 170.111C128.443 174.184 122.111 179.005 118.267 188.008C116.179 193.181 114.932 198.655 114.575 204.222C113.489 216.646 117.735 256.882 120.254 274.867C123.914 304.927 128.389 304.981 134.905 310.02C146.112 318.708 178.345 335.639 188.976 339.831C208.264 347.433 224.033 335.715 235.783 329.905C246.562 324.453 256.964 318.286 266.919 311.443C269.862 309.271 271.382 307.099 271.35 304.873C271.295 303.993 271.317 300.301 271.317 299.345Z" fill="white"/>
<path d="M235.742 324.323C246.517 318.864 256.919 312.696 266.878 305.861C273.568 301.007 272.949 296.087 263.37 289.821C250.056 281.187 195.788 250.399 195.788 250.399C195.788 250.399 127.186 290.885 130.14 298.357C133.094 305.828 175.556 328.96 188.936 334.195C208.223 341.829 223.992 330.144 235.742 324.323Z" fill="#2F945A"/>
<path opacity="0.6" d="M235.742 324.323C246.517 318.864 256.919 312.696 266.878 305.861C273.568 301.007 272.949 296.087 263.37 289.821C250.056 281.187 195.788 250.399 195.788 250.399C195.788 250.399 127.186 290.885 130.14 298.357C133.094 305.828 175.556 328.96 188.936 334.195C208.223 341.829 223.992 330.144 235.742 324.323Z" fill="white"/>
<path d="M168.974 165.191C161.753 161.401 152.37 166.549 140.738 172.913C133.299 176.985 126.968 181.818 123.113 190.854L118.215 188.019C122.059 179.016 128.391 174.194 135.797 170.122C147.743 163.606 157.278 158.361 164.576 162.726C165.228 163.095 167.769 164.507 168.974 165.191Z" fill="#2F945A"/>
<path opacity="0.5" d="M168.974 165.191C161.753 161.401 152.37 166.549 140.738 172.913C133.299 176.985 126.968 181.818 123.113 190.854L118.215 188.019C122.059 179.016 128.391 174.194 135.797 170.122C147.743 163.606 157.278 158.361 164.576 162.726C165.228 163.095 167.769 164.507 168.974 165.191Z" fill="white"/>
<path d="M178.704 180.146C178.541 179.646 176.065 171.002 171.406 166.897C169.237 164.951 166.424 163.88 163.511 163.888C157.201 163.888 149.631 168.059 140.759 172.913C140.009 173.326 139.282 173.738 138.587 174.162L137.761 174.661C137.425 174.857 137.099 175.063 136.773 175.27C136.447 175.476 136.295 175.574 136.056 175.747C134.494 176.774 133.002 177.907 131.593 179.136C131.358 179.331 131.134 179.537 130.92 179.755C130.021 180.58 129.172 181.457 128.378 182.383L127.955 182.882C127.792 183.1 127.607 183.306 127.455 183.512C127.303 183.719 127.13 183.936 126.967 184.164C126.804 184.392 126.652 184.588 126.489 184.816C125.851 185.734 125.26 186.683 124.719 187.661C124.643 187.78 124.577 187.911 124.512 188.03C124.447 188.15 124.23 188.562 124.089 188.834L123.513 190.028C121.216 195.42 119.857 201.164 119.495 207.013C117.779 227.43 124.773 294.882 131.788 300.703C131.788 300.703 130.702 294.1 144.82 285.216C154.41 279.178 161.11 274.106 171.395 269.089C196.373 256.828 203.345 254.526 203.345 254.526C192.594 248.01 186.132 203.712 178.704 180.146Z" fill="#2F945A"/>
<path opacity="0.4" d="M178.704 180.146C178.541 179.646 176.065 171.002 171.406 166.897C169.237 164.951 166.424 163.88 163.511 163.888C157.201 163.888 149.631 168.059 140.759 172.913C140.009 173.326 139.282 173.738 138.587 174.162L137.761 174.661C137.425 174.857 137.099 175.063 136.773 175.27C136.447 175.476 136.295 175.574 136.056 175.747C134.494 176.774 133.002 177.907 131.593 179.136C131.358 179.331 131.134 179.537 130.92 179.755C130.021 180.58 129.172 181.457 128.378 182.383L127.955 182.882C127.792 183.1 127.607 183.306 127.455 183.512C127.303 183.719 127.13 183.936 126.967 184.164C126.804 184.392 126.652 184.588 126.489 184.816C125.851 185.734 125.26 186.683 124.719 187.661C124.643 187.78 124.577 187.911 124.512 188.03C124.447 188.15 124.23 188.562 124.089 188.834L123.513 190.028C121.216 195.42 119.857 201.164 119.495 207.013C117.779 227.43 124.773 294.882 131.788 300.703C131.788 300.703 130.702 294.1 144.82 285.216C154.41 279.178 161.11 274.106 171.395 269.089C196.373 256.828 203.345 254.526 203.345 254.526C192.594 248.01 186.132 203.712 178.704 180.146Z" fill="white"/>
<path d="M221.335 359.466C218.696 365.504 215.786 372.107 215.786 372.107C215.676 373.211 215.834 374.325 216.246 375.356C216.658 376.386 217.312 377.302 218.153 378.026L226.298 366.08L221.335 359.466Z" fill="#143E26"/>
<path d="M218.156 377.982L234.935 383.228L240.05 374.92L226.301 366.025L218.156 377.982Z" fill="#143E26"/>
<path d="M231.815 344.055C231.885 343.854 231.998 343.671 232.146 343.518C232.294 343.366 232.475 343.248 232.674 343.174C232.873 343.099 233.086 343.069 233.298 343.086C233.51 343.104 233.716 343.168 233.901 343.274L233.292 344.664C234.938 347.838 237.5 350.445 240.645 352.146C248.583 356.751 251.049 354.818 251.592 354.372C251.592 354.372 252.058 353.449 252.319 352.819C253.123 353.102 253.622 353.471 252.775 355.285C252.569 355.719 251.092 360.378 250.918 361.279C249.737 364.864 249.008 368.581 248.746 372.346C248.35 376.803 248.562 381.293 249.376 385.693C251.548 398.106 253.416 401.136 253.807 405.176C254.393 411.301 246.759 412.778 235.682 405.881C228.373 401.309 222.65 393.544 222.28 388.907C221.911 384.27 225.452 374.887 224.974 371.379C224.496 367.871 221.27 364.863 221.303 359.433C224.561 352.114 226.733 351.668 229.187 348.486C230.307 347.168 231.196 345.67 231.815 344.055Z" fill="#1A5132"/>
<path d="M252.321 352.819L258.305 337.615L237.606 326.984L233.903 343.274L233.295 344.664C233.295 344.664 232.328 349.8 238.844 354.068C245.36 358.336 250.942 355.502 251.594 354.372L252.321 352.819Z" fill="#EDBC9C"/>
<path d="M217.025 229.537C222.455 233.305 228.211 236.704 241.797 245.566C255.079 254.254 273.997 265.342 278.786 273.802C283.13 281.404 282.283 289.006 277.787 301.745C273.291 314.484 254.384 352.526 254.384 352.526C245.446 349.268 238.474 344.664 234.315 338.278C234.315 338.278 237.399 314.755 240.396 306.903C242.742 300.746 245.088 298.726 245.088 298.726L197.423 282.36L185.781 257.566C187.877 243.655 203.657 233.74 217.025 229.537Z" fill="#1A5132"/>
<path d="M254.384 352.559C245.565 349.399 238.669 344.805 234.314 338.31C234.314 338.31 237.399 314.788 240.396 306.936C241.143 304.884 242.108 302.918 243.274 301.072C247.618 305.839 250.192 308.478 253.461 321.032C254.938 326.712 256.892 335.769 258.576 343.969C254.395 352.591 254.384 352.559 254.384 352.559Z" fill="#143E26"/>
<path d="M215.678 247.217C218.61 260.249 214.526 269.827 214.526 269.827L240.666 297.238L197.422 282.36L215.678 247.217Z" fill="#143E26"/>
<path d="M236.01 254.841C242.048 257.86 256.144 268.253 259.315 270.74C262.684 273.244 265.824 276.043 268.698 279.102C269.792 280.264 270.73 281.564 271.489 282.968C271.836 283.608 272.071 284.302 272.184 285.021C272.25 285.797 272.25 286.578 272.184 287.355C271.88 290.64 271.258 293.888 270.327 297.053C269.469 300.311 268.449 303.472 267.406 306.664C265.234 313.043 262.993 319.4 260.684 325.735C263.804 319.745 266.578 313.58 268.992 307.273C270.208 304.116 271.294 300.905 272.25 297.64C273.275 294.343 273.949 290.946 274.259 287.507C274.314 286.602 274.289 285.693 274.183 284.792C274.032 283.841 273.72 282.923 273.26 282.077C272.411 280.509 271.339 279.071 270.078 277.809C267.124 274.755 263.896 271.977 260.434 269.512C254.863 265.244 242.363 257.143 236.01 254.841Z" fill="#143E26"/>
<path d="M296.15 437.908C295.129 436.822 287.462 430.067 286.257 428.763C280.544 422.78 273.496 408.575 271.053 401.451C269.771 397.715 268.066 391.676 265.123 381.186C265.123 381.186 248.833 317.948 245.152 308.532C241.47 299.117 206.566 271.88 206.566 271.88C206.566 271.88 215.623 258.685 213.983 232.512C189.907 241.58 166.753 245.414 144.349 244.1C143.39 255.587 145.02 267.143 149.117 277.918C153.374 289.028 165.874 297.672 181.838 305.98C195.055 312.865 212.865 322.422 216.59 324.442C219.848 326.18 221.922 328.428 222.704 335.498C223.508 342.817 223.899 355.046 237.691 377.472C242.545 386.344 247.671 401.222 249.365 406.218L249.735 408.824C249.846 410.502 250.546 412.087 251.711 413.299C252.917 414.645 254.187 415.905 255.534 417.143C259.107 420.401 265.959 427.927 270.673 433.303C277.46 441.046 285.486 442.447 292.729 441.926C299.973 441.404 297.052 438.852 296.15 437.908Z" fill="#EDBC9C"/>
<path d="M250.062 428.079C252.017 434.845 254.146 442.284 254.146 442.284C254.81 443.269 255.702 444.079 256.745 444.646C257.789 445.213 258.953 445.52 260.141 445.542L258.664 430.121L250.062 428.079Z" fill="#143E26"/>
<path d="M260.139 445.542L277.548 438.385L276.071 428.036L258.662 430.121L260.139 445.542Z" fill="#143E26"/>
<path d="M248.184 408.26C247.63 406.761 249.02 406.337 249.367 406.185L249.823 407.749C253.353 409.218 257.241 409.597 260.987 408.835C270.664 407.195 271.38 403.916 271.522 403.177C271.522 403.177 271.272 402.091 271.066 401.407C271.913 401.092 272.575 401.049 273.118 403.123C273.248 403.612 275.214 408.466 275.692 409.324C277.181 413.081 279.133 416.638 281.502 419.913C284.226 423.85 287.47 427.401 291.146 430.468C301.419 439.211 305.046 440.416 308.12 443.5C312.801 448.149 307.544 454.61 293.687 456.532C284.532 457.76 274.53 455.273 271.033 451.721C267.536 448.17 264.05 438.005 261.259 435.431C258.468 432.858 253.733 432.564 250.062 428.101C247.738 419.836 249.215 418.001 249.063 413.69C249.081 411.843 248.784 410.006 248.184 408.26Z" fill="#1A5132"/>
<path d="M142.157 242.558C140.713 247.239 138.454 258.12 139.594 267.254C140.734 276.387 141.907 286.802 160.836 299.258C176.572 309.608 212.606 330.85 214.474 334.075C216.342 337.301 220.664 356.686 224.769 364.19C232.371 378.123 246.098 398.008 246.098 398.008C255.362 399.257 263.615 396.922 268.47 392.089C268.47 392.089 259.293 356.664 255.568 341.688C249.182 316.069 247.879 308.022 242.21 302.038C236.541 296.054 234.608 294.208 234.608 294.208L208.696 270.609C208.696 270.609 213.127 263.279 215.212 250.855C216.204 244.456 216.248 237.946 215.342 231.535C215.342 231.535 170.654 247.988 142.157 242.558Z" fill="#1A5132"/>
<path d="M158.839 273.487L158.611 273.042C152.768 265.798 153.43 258.196 154.267 248.27C154.419 246.598 154.56 244.849 154.679 243.057L155.765 243.144C155.646 244.947 155.505 246.685 155.353 248.368C154.527 257.86 153.908 265.157 159.186 272.021C165.941 267.536 163.259 256.035 161.608 249.052C161.336 247.89 161.087 246.88 160.913 245.979L161.999 245.783C162.173 246.641 162.412 247.662 162.683 248.802C164.388 256.057 167.201 267.981 159.903 272.879C160.899 274.051 161.989 275.141 163.161 276.137C169.503 281.567 185.261 292.85 199.162 302.798C210.141 310.65 219.622 317.427 221.772 319.436C224.476 321.966 226.714 330.209 229.537 340.645C231.85 349.203 234.479 358.901 237.921 367.394C242.461 378.165 248.296 388.343 255.297 397.704C254.884 397.704 254.461 397.758 254.037 397.769C247.148 388.498 241.401 378.431 236.922 367.784C233.447 359.238 230.819 349.507 228.495 340.917C225.823 331.056 223.521 322.531 221.023 320.207C218.927 318.252 209.468 311.519 198.521 303.656C184.599 293.698 168.83 282.414 162.444 276.941C161.198 275.873 160.04 274.707 158.98 273.455L158.839 273.487Z" fill="#143E26"/>
<path d="M173.76 247.76C173.767 251.17 174.268 254.561 175.248 257.827C176.196 261.108 177.473 264.284 179.059 267.308C180.641 270.321 182.502 273.179 184.62 275.844C186.724 278.514 189.121 280.94 191.766 283.077C189.746 280.351 187.791 277.647 185.956 274.877C184.12 272.108 182.437 269.252 180.917 266.32C179.372 263.392 177.994 260.379 176.79 257.295C175.593 254.179 174.582 250.995 173.76 247.76Z" fill="#143E26"/>
<path d="M171.456 248.075C170.701 250.865 170.311 253.742 170.294 256.632C170.256 259.52 170.441 262.407 170.848 265.266C171.256 268.108 171.866 270.917 172.672 273.672C173.45 276.453 174.578 279.124 176.028 281.621C175.344 278.83 174.79 276.061 174.28 273.281C173.769 270.501 173.281 267.731 172.9 264.94C172.52 262.149 172.162 259.358 171.901 256.556C171.641 253.755 171.521 250.963 171.456 248.075Z" fill="#143E26"/>
<path d="M219.08 290.82C223.044 295.066 227.16 299.171 231.08 303.385C233.046 305.462 234.905 307.637 236.652 309.901C238.381 312.106 239.782 314.549 240.811 317.155C241.734 319.816 242.657 322.585 243.526 325.344L246.219 333.597C248 339.114 249.883 344.602 251.866 350.061C250.73 344.363 249.394 338.712 247.859 333.109C246.317 327.505 244.731 321.966 242.766 316.417C241.654 313.624 240.107 311.026 238.183 308.717C236.34 306.417 234.348 304.24 232.221 302.201C228.061 298.215 223.565 294.501 219.08 290.82Z" fill="#143E26"/>
<path d="M267.546 388.527C264.614 392.328 249.475 397.15 243.752 395.369L247.325 402.156C247.325 402.156 251.234 403.492 260.075 401.472C268.915 399.452 269.468 395.782 269.468 395.782L267.546 388.527Z" fill="#143E26"/>
<path d="M267.535 130.526C268.914 128.723 269.598 127.192 269.186 125.704C268.033 125.198 266.94 124.564 265.928 123.815C265.928 123.815 265.32 123.945 263.082 124.217C260.845 124.488 259.9 124.021 259.064 123.131C258.228 122.24 258.771 121.219 260.259 120.665C261.747 120.111 264.842 118.852 265.613 118.656C266.384 118.461 273.693 122.121 274.485 123.239C275.278 124.358 275.072 131.927 273.247 135.457C271.423 138.986 256.903 147.511 256.903 147.511C256.903 147.511 251.864 155.113 252.874 152.561C254.264 149.075 252.537 143.33 253.298 135.956C253.634 132.698 254.84 126.617 254.981 124.238C255.144 121.545 255.708 121.056 257.033 121.588C258.358 122.121 259.564 122.674 259.477 128.441C259.39 133.632 260.563 133.6 261.703 133.48C263.31 133.339 267.535 130.526 267.535 130.526Z" fill="#EDBC9C"/>
<path d="M273.301 122.316C273.225 123.771 272.639 128.767 271.705 130.874C272.237 127.838 272.412 124.751 272.226 121.675L273.301 122.316Z" fill="#D49A74"/>
<path d="M271.498 131.406C272.084 129.853 272.953 127.062 272.964 121.469C272.964 114.421 272.682 112.401 273.627 109.23C274.713 105.689 277.21 105.483 277.819 106.406C278.427 107.329 279.035 115.996 279.035 115.996C279.035 115.996 280.316 124.857 277.949 129.093C277.383 130.239 276.395 131.122 275.191 131.553C273.988 131.985 272.663 131.932 271.498 131.406Z" fill="#EDBC9C"/>
<path d="M278.99 114.997C278.99 114.997 278.784 112.423 278.61 110.87C276.992 112.075 276.286 115.214 275.993 119.558C275.721 123.587 275.993 128.246 273.332 132.785C273.332 132.785 274.418 134.067 276.09 128.007C277.394 123.359 277.915 117.918 278.99 114.997Z" fill="#D49A74"/>
<path d="M282.001 119.905C282.07 117.408 282.361 114.922 282.87 112.477C283.044 111.076 280.405 111.228 278.526 114.215C276.647 117.201 276.582 120.437 276.354 123.989C276.265 126.118 275.737 128.206 274.803 130.122C273.868 132.038 272.548 133.739 270.924 135.12C270.924 135.12 275.42 137.368 278.113 133.1C280.804 129.239 282.169 124.609 282.001 119.905Z" fill="#EDBC9C"/>
<path d="M281.998 120.014V119.905C281.966 119.053 282.002 118.199 282.107 117.353C280.109 117.95 278.773 120.893 278.436 123.869C278.1 126.845 278.208 128.213 277.676 129.505C277.144 130.798 273.332 135.174 273.332 135.174C274.838 134.762 276.232 134.02 277.415 133.002C278.773 131.59 281.053 122.729 281.053 122.729L281.998 120.014Z" fill="#D49A74"/>
<path d="M239.049 205.808C253.167 213.344 256.837 208.772 261.486 190.267C265.004 176.312 267.513 158.773 269.088 154.559C270.035 151.698 271.508 149.039 273.432 146.718C275.81 143.678 279.687 137.77 281.674 135.109C283.368 132.898 284.194 130.144 283.998 127.366C283.933 126.15 284.139 118.982 283.51 118.928C282.239 118.819 280.338 118.841 279.339 122.989C278.829 125.085 278.894 128.213 278.362 129.744C276.826 132.019 274.823 133.94 272.487 135.381C269.153 137.553 265.797 133.621 261.312 137.705C258.864 139.815 256.963 142.486 255.773 145.491C254.198 150.248 241.373 176.464 241.373 176.464C241.373 176.464 239.918 174.868 228.493 163.769C219.859 155.374 216.797 152.224 211.117 147.88C205.437 143.536 196.564 143.623 196.564 143.623L197.466 177.843C197.466 177.843 204.253 182.546 212.159 187.802C223.476 195.273 229.351 200.627 239.049 205.808Z" fill="#EDBC9C"/>
<path d="M241.319 176.464C238.77 182.969 237.658 189.949 238.061 196.924C238.061 196.924 233.717 187.324 239.147 174.194L241.319 176.464Z" fill="#D49A74"/>
<path d="M269.411 134.36L267.348 134.729C266.487 134.907 265.638 135.139 264.807 135.424C263.459 135.856 262.187 136.498 261.038 137.325C259.951 138.143 259.104 139.238 258.584 140.496C258.112 141.955 257.838 143.471 257.77 145.003C257.77 145.068 257.835 145.133 257.867 145.003C258.397 143.634 259.01 142.3 259.703 141.006C260.264 139.773 261.127 138.701 262.211 137.889C263.398 137.111 264.665 136.463 265.991 135.956C267.251 135.581 268.476 135.094 269.65 134.501C269.737 134.436 269.846 134.327 269.792 134.229L269.411 134.36Z" fill="#D49A74"/>
<path d="M140.718 193.417C137.633 178.354 139.501 161.923 146.397 150.4C152.642 148.521 160.733 146.056 160.733 146.056C160.733 146.056 174.058 144.014 185.026 143.569L196.603 143.667C203.456 149.575 219.225 163.888 222.874 175.009C224.227 179.516 224.1 184.338 222.511 188.767C220.921 193.196 217.954 196.999 214.044 199.618C213.758 205.245 214.027 210.887 214.848 216.461C214.848 216.461 220.832 223.933 221.494 232.056C219.051 244.545 207.376 255.72 177.381 257.849C152.403 259.63 140.783 248.314 140.783 248.314C137.09 243.97 144.54 226.713 144.041 217.667C143.575 209.508 142.464 201.4 140.718 193.417Z" fill="#F0F0F0"/>
<path d="M189.631 202.963C189.631 202.963 182.767 210.565 170.083 208.393C156.996 206.221 155.041 195.132 155.041 195.132C155.041 195.132 153.684 209.402 169.322 212.041C183.734 214.474 189.631 202.963 189.631 202.963Z" fill="#E0E0E0"/>
<path d="M150.77 83.7304C152.594 81.5764 155.054 80.0556 157.796 79.3864C160.425 78.7457 162.043 78.7891 164.551 77.7791C167.06 76.7692 168.993 75.1619 171.371 74.1628C176.606 71.9908 182.905 73.3808 187.379 76.856C189.366 78.3981 191.213 80.3855 193.689 80.7656C194.925 80.8578 196.167 80.8578 197.403 80.7656C201.312 80.7656 204.929 83.3286 206.981 86.6626C208.534 89.3145 209.459 92.2863 209.686 95.3506C209.99 98.3806 208.925 101.204 209.099 104.212C209.229 106.384 210.598 108.383 211.944 110.055C213.747 112.303 215.202 114.03 216.115 116.886C216.893 119.063 217.113 121.4 216.755 123.684C216.564 124.821 216.089 125.891 215.376 126.796C214.662 127.701 213.732 128.413 212.672 128.865C213.487 126.693 212.281 123.739 210.924 121.892C211.423 123.912 211.716 128.93 206.58 133.263C202.974 136.304 197.761 137.444 192.983 137.433C187.976 137.433 182.916 135.696 177.942 136.977C176.578 137.389 175.237 137.871 173.924 138.421C171.64 139.282 169.275 139.908 166.865 140.289C164.562 140.659 162.216 140.474 159.936 140.789C156.166 141.325 152.333 140.405 149.217 138.215C147.219 136.646 145.603 134.644 144.49 132.361C143.376 130.077 142.795 127.571 142.788 125.031C141.947 126.12 141.411 127.413 141.235 128.778C140.137 127.45 139.368 125.881 138.99 124.2C138.613 122.518 138.638 120.771 139.063 119.101C139.769 116.484 141.452 114.138 141.659 111.499C141.843 109.165 140.887 106.895 140.649 104.571C140.443 101.845 141.178 99.1312 142.731 96.8821C144.285 94.6329 146.562 92.9846 149.184 92.2121C148.865 90.7643 148.841 89.2671 149.114 87.8098C149.386 86.3526 149.95 84.9651 150.77 83.7304Z" fill="#143E26"/>
<path d="M151.465 112.401C154.658 111.076 157.438 112.194 159.262 115.539C160.859 118.45 163.997 117.31 163.107 112.748C170.176 105.613 161.597 101.443 167.396 94.5795C171.002 90.3007 179.017 91.1804 182.285 93.6999C183.115 92.1356 184.451 90.8992 186.074 90.193C187.698 89.4867 189.513 89.3524 191.223 89.812C194.611 90.898 196.805 92.8311 198.543 97.414C200.367 102.214 198.662 103.181 199.629 106.569C199.987 107.894 201.388 110.457 201.551 113.834C202.289 129.853 199.075 134.001 195.621 136.738C193.243 138.617 190.191 139.67 184.892 139.877L185.272 147.381C190.638 154.806 193.892 163.547 194.687 172.674C187.819 169.043 181.234 164.901 174.987 160.283C169.729 156.506 164.984 152.064 160.869 147.066L159.783 126.432C159.099 128.278 155.439 130.396 151.595 127.442C146.697 123.717 145.817 114.747 151.465 112.401Z" fill="#EDBC9C"/>
<path d="M196.762 104.191L191.561 102.247C191.669 101.902 191.846 101.582 192.083 101.308C192.319 101.034 192.609 100.811 192.934 100.654C193.26 100.496 193.614 100.407 193.976 100.391C194.337 100.376 194.698 100.434 195.036 100.563C195.733 100.833 196.3 101.358 196.622 102.033C196.943 102.708 196.993 103.48 196.762 104.191Z" fill="#143E26"/>
<path d="M177.922 103.387L173.035 106.004C172.848 105.695 172.726 105.35 172.677 104.992C172.628 104.633 172.652 104.268 172.749 103.92C172.845 103.571 173.012 103.246 173.239 102.964C173.465 102.682 173.747 102.449 174.066 102.279C174.729 101.934 175.498 101.857 176.215 102.063C176.933 102.269 177.544 102.743 177.922 103.387Z" fill="#143E26"/>
<path d="M187.074 125.607C186.597 125.335 185.988 125.498 185.413 125.466C184.973 125.418 184.538 125.338 184.11 125.227C183.322 125.01 182.584 124.641 181.938 124.141C181.839 124.054 181.718 123.999 181.589 123.982C181.459 123.964 181.327 123.986 181.21 124.043C181.118 124.091 181.048 124.173 181.014 124.271V124.39C181.008 124.426 181.008 124.463 181.014 124.499C181.014 124.499 181.014 124.499 181.014 124.597C181.032 124.686 181.073 124.768 181.134 124.836C181.236 124.961 181.353 125.074 181.481 125.172C181.681 125.319 181.891 125.45 182.111 125.563C182.576 125.806 183.063 126.002 183.567 126.15C184.707 126.491 185.923 126.491 187.064 126.15C187.109 126.126 187.149 126.093 187.179 126.051C187.209 126.01 187.229 125.961 187.237 125.911V125.976C187.252 125.905 187.244 125.831 187.215 125.765C187.186 125.699 187.137 125.644 187.074 125.607Z" fill="#AB7654"/>
<path d="M191.351 115.371C190.812 115.481 190.461 116.003 190.005 116.357C189.642 116.609 189.261 116.835 188.866 117.033C188.129 117.387 187.331 117.593 186.515 117.641C186.384 117.64 186.256 117.678 186.147 117.75C186.038 117.822 185.953 117.925 185.902 118.045C185.864 118.142 185.865 118.25 185.904 118.346L185.983 118.436C186.002 118.467 186.026 118.495 186.054 118.518C186.054 118.518 186.054 118.518 186.119 118.591C186.19 118.647 186.276 118.682 186.366 118.693C186.525 118.721 186.687 118.729 186.849 118.718C187.095 118.698 187.34 118.658 187.58 118.599C188.09 118.477 188.587 118.305 189.063 118.085C190.147 117.594 191.064 116.795 191.699 115.788C191.718 115.74 191.726 115.689 191.721 115.638C191.717 115.586 191.7 115.537 191.673 115.494L191.716 115.543C191.68 115.48 191.626 115.429 191.561 115.399C191.495 115.368 191.422 115.358 191.351 115.371Z" fill="#AB7654"/>
<path d="M183.871 127.735H183.697H183.48H183.23C183.071 127.712 182.914 127.672 182.763 127.616C182.611 127.616 182.47 127.485 182.329 127.42C182.243 127.362 182.147 127.318 182.047 127.29C181.829 127.29 181.829 127.507 181.905 127.648C181.996 127.768 182.111 127.868 182.242 127.941L182.459 128.072C182.618 128.146 182.781 128.211 182.948 128.267C183.097 128.314 183.25 128.35 183.404 128.376C183.505 128.392 183.607 128.392 183.708 128.376C183.804 128.403 183.905 128.403 184.001 128.376C184.186 128.148 184.023 127.789 183.871 127.735Z" fill="#D49A74"/>
<path d="M179.562 111.141C179.638 112.412 178.4 110.87 176.945 110.957C175.49 111.043 174.371 112.738 174.295 111.456C174.34 110.812 174.618 110.206 175.078 109.752C175.537 109.297 176.145 109.025 176.79 108.987C177.435 108.948 178.072 109.146 178.582 109.542C179.092 109.938 179.44 110.507 179.562 111.141Z" fill="#143E26"/>
<path d="M196.566 109.577C196.642 110.859 195.404 109.306 193.949 109.403C192.493 109.501 191.375 111.185 191.299 109.903C191.342 109.258 191.619 108.651 192.077 108.195C192.536 107.74 193.144 107.466 193.789 107.426C194.434 107.386 195.072 107.583 195.583 107.978C196.094 108.374 196.443 108.943 196.566 109.577Z" fill="#143E26"/>
<path d="M184.838 139.887C179.69 139.725 168.439 137.835 164.041 132.188C164.041 132.188 164.617 136.358 172.523 139.985C177.746 142.385 184.979 142.635 184.979 142.635L184.838 139.887Z" fill="#D49A74"/>
<path d="M93.2528 156.894C91.8953 155.07 91.2329 153.539 91.6781 152.051C92.8288 151.566 93.9216 150.954 94.9361 150.226C94.9361 150.226 95.5443 150.367 97.7815 150.682C100.019 150.997 100.963 150.53 101.821 149.683C102.679 148.836 102.147 147.772 100.67 147.185C99.1932 146.599 96.1199 145.307 95.3488 145.1C94.5778 144.894 87.2038 148.424 86.3893 149.52C85.5748 150.617 85.6617 158.208 87.4753 161.76C89.2889 165.311 103.602 174.097 103.602 174.097C103.602 174.097 108.511 181.764 107.512 179.19C106.187 175.682 108.012 169.97 107.382 162.574C107.099 159.316 106.002 153.213 105.894 150.834C105.774 148.13 105.221 147.631 103.885 148.152C102.549 148.673 101.333 149.238 101.333 154.961C101.333 160.152 100.247 160.098 99.0086 159.957C97.4231 159.794 93.2528 156.894 93.2528 156.894Z" fill="#EDBC9C"/>
<path d="M87.6172 148.597C87.6172 150.053 88.171 155.059 89.0616 157.188C88.584 154.142 88.4638 151.052 88.7032 147.978L87.6172 148.597Z" fill="#D49A74"/>
<path d="M89.236 157.676C88.6713 156.123 87.8568 153.332 87.9437 147.728C88.0414 140.68 88.3781 138.66 87.4767 135.468C86.4884 131.916 83.958 131.667 83.339 132.579C82.72 133.491 81.9707 142.146 81.9707 142.146C81.9707 142.146 80.5263 150.954 82.8177 155.298C83.3694 156.45 84.3476 157.342 85.5454 157.786C86.7432 158.23 88.0667 158.191 89.236 157.676Z" fill="#EDBC9C"/>
<path d="M82.0566 141.18C82.0566 141.18 82.3064 138.617 82.5019 137.053C84.1092 138.302 84.7499 141.397 84.9671 145.85C85.1735 149.89 84.7825 154.538 87.4106 159.121C87.4106 159.121 86.3246 160.38 84.7282 154.288C83.5119 149.564 83.0775 144.123 82.0566 141.18Z" fill="#D49A74"/>
<path d="M78.9596 146.034C78.9346 143.538 78.6874 141.048 78.2211 138.595C78.0691 137.183 80.7081 137.39 82.4782 140.398C84.2484 143.406 84.3136 146.664 84.4765 150.172C84.5223 152.3 85.007 154.396 85.9003 156.328C86.7935 158.26 88.076 159.987 89.6676 161.401C89.6676 161.401 85.1281 163.573 82.5108 159.229C79.9384 155.327 78.693 150.7 78.9596 146.034Z" fill="#EDBC9C"/>
<path d="M78.9597 146.143V146.034C79.0021 145.183 78.9803 144.33 78.8945 143.482C80.8819 144.112 82.1525 147.077 82.4566 150.063C82.7607 153.05 82.6087 154.353 83.1191 155.711C83.6295 157.068 87.3219 161.445 87.3219 161.445C85.8317 161.027 84.4521 160.285 83.282 159.273C81.9462 157.839 79.8176 148.945 79.8176 148.945L78.9597 146.143Z" fill="#D49A74"/>
<path d="M151.158 174.314C151.158 159.772 146.401 150.422 146.401 150.422C138.376 153.202 133.619 154.125 129.59 163.91C126.875 170.491 115.928 193.471 115.038 196.055C111.421 188.269 105.904 175.617 104.797 172.098C103.653 169.069 101.789 166.363 99.3666 164.214C94.9466 160.044 91.5257 163.931 88.2242 161.694C85.9453 160.195 84.0066 158.234 82.5336 155.939C82.034 154.396 82.1535 151.269 81.6865 149.162C80.7526 145.002 78.8521 144.948 77.5814 145.035C76.9516 145.035 77.0276 152.246 76.9407 153.462C76.6905 156.236 77.463 159.005 79.1127 161.249C81.0566 163.942 84.0649 169.318 86.3889 173.315C87.9673 176.099 89.2625 179.035 90.2551 182.079C91.7212 186.314 93.7411 201.018 97.477 214.908C101.452 229.754 106.002 234.739 109.423 236.389C116.406 239.821 123.704 232.523 128.059 225.964C133.869 217.211 138.528 210.499 143.741 201.757C148.506 193.388 151.058 183.943 151.158 174.314Z" fill="#EDBC9C"/>
<path d="M115.037 196.034C119.327 204.95 121.553 211.672 120.728 220.512C124.54 212.139 120.413 199.118 116.264 193.177L115.037 196.034Z" fill="#D49A74"/>
<path d="M91.2973 160.728L93.3499 161.14C94.2119 161.332 95.0607 161.579 95.8911 161.879C97.2293 162.332 98.4867 162.996 99.6161 163.845C100.694 164.698 101.526 165.822 102.027 167.103C102.474 168.569 102.722 170.088 102.765 171.62C102.765 171.686 102.7 171.751 102.668 171.62C102.151 170.246 101.56 168.901 100.898 167.591C100.357 166.349 99.5084 165.265 98.4323 164.442C97.2632 163.633 96.0063 162.959 94.6856 162.433C93.4338 162.035 92.2199 161.526 91.0584 160.912C90.9715 160.858 90.8629 160.739 90.9281 160.652L91.2973 160.728Z" fill="#D49A74"/>
<path d="M218.156 105.168C217.806 105.168 217.46 105.086 217.146 104.929C216.881 104.796 216.644 104.611 216.45 104.386C216.256 104.16 216.108 103.899 216.015 103.616C215.922 103.334 215.886 103.036 215.909 102.739C215.932 102.443 216.013 102.154 216.147 101.889C216.281 101.623 216.466 101.386 216.691 101.192C216.916 100.998 217.178 100.85 217.46 100.758C217.743 100.665 218.041 100.629 218.337 100.651C218.634 100.674 218.923 100.755 219.188 100.889C219.701 101.177 220.089 101.645 220.274 102.204C220.384 102.545 220.411 102.907 220.354 103.261C220.297 103.615 220.156 103.951 219.944 104.24C219.732 104.529 219.455 104.764 219.135 104.926C218.814 105.087 218.461 105.17 218.102 105.168H218.156ZM218.156 101.389C217.994 101.387 217.832 101.413 217.678 101.465C217.486 101.524 217.307 101.622 217.154 101.752C217.001 101.883 216.876 102.044 216.788 102.225C216.696 102.403 216.641 102.598 216.626 102.797C216.611 102.997 216.637 103.198 216.701 103.387C216.792 103.677 216.968 103.932 217.205 104.121C217.443 104.309 217.732 104.423 218.034 104.446C218.336 104.469 218.639 104.402 218.903 104.252C219.166 104.102 219.379 103.876 219.514 103.604C219.605 103.425 219.66 103.228 219.675 103.027C219.69 102.825 219.665 102.623 219.601 102.432C219.54 102.241 219.441 102.065 219.311 101.914C219.18 101.763 219.02 101.639 218.84 101.552C218.632 101.446 218.401 101.39 218.167 101.389H218.156Z" fill="#2B8752"/>
<path d="M228.539 106.428C227.478 106.437 226.451 106.058 225.651 105.361C224.851 104.665 224.333 103.7 224.195 102.649C224.108 102.076 224.138 101.493 224.284 100.933C224.429 100.372 224.687 99.8479 225.042 99.3906C225.388 98.9344 225.82 98.5511 226.314 98.2626C226.809 97.9741 227.355 97.786 227.922 97.7094C228.489 97.6327 229.066 97.6688 229.619 97.8157C230.172 97.9625 230.691 98.2173 231.145 98.5652C231.877 99.1139 232.417 99.8795 232.688 100.753C232.959 101.626 232.948 102.563 232.655 103.43C232.363 104.296 231.804 105.048 231.059 105.579C230.314 106.109 229.421 106.391 228.506 106.384L228.539 106.428ZM228.539 98.4458C228.376 98.435 228.213 98.435 228.05 98.4458C227.099 98.5754 226.238 99.0768 225.656 99.8402C225.074 100.604 224.818 101.567 224.944 102.518C225.003 102.991 225.156 103.448 225.395 103.86C225.633 104.273 225.953 104.632 226.334 104.918C227.102 105.409 228.026 105.592 228.922 105.431C229.818 105.27 230.621 104.777 231.17 104.05C231.718 103.323 231.972 102.416 231.881 101.51C231.79 100.604 231.361 99.7657 230.678 99.1625C230.061 98.7119 229.314 98.4721 228.55 98.4784L228.539 98.4458Z" fill="#2B8752"/>
<path d="M240.799 100.998C239.647 100.998 238.52 100.667 237.551 100.043C236.583 99.4193 235.815 98.5297 235.339 97.4808C234.863 96.4319 234.699 95.2681 234.867 94.1285C235.035 92.989 235.528 91.922 236.286 91.0552C237.045 90.1884 238.037 89.5585 239.145 89.2409C240.252 88.9233 241.427 88.9314 242.53 89.2643C243.632 89.5972 244.616 90.2407 245.363 91.1179C246.109 91.995 246.587 93.0687 246.74 94.2105C246.854 95.0573 246.786 95.919 246.54 96.7374C246.294 97.5558 245.876 98.312 245.313 98.955C244.75 99.5981 244.056 100.113 243.277 100.466C242.499 100.818 241.654 101 240.799 100.998ZM240.799 89.747C239.902 89.7443 239.019 89.9708 238.233 90.4052C237.448 90.8395 236.787 91.4673 236.312 92.2289C235.838 92.9905 235.566 93.8608 235.522 94.7571C235.478 95.6533 235.664 96.5459 236.062 97.3502C236.46 98.1544 237.057 98.8437 237.796 99.3525C238.535 99.8614 239.392 100.173 240.286 100.258C241.179 100.342 242.079 100.198 242.901 99.8367C243.722 99.4759 244.438 98.9112 244.98 98.1961C245.576 97.417 245.942 96.4867 246.037 95.5105C246.131 94.5343 245.951 93.5511 245.516 92.672C245.081 91.7929 244.409 91.0531 243.575 90.5362C242.741 90.0193 241.78 89.746 240.799 89.747Z" fill="#2B8752"/>
<path d="M273.38 97.1101C266.421 97.1101 259.619 95.047 253.834 91.1816C248.048 87.3163 243.538 81.8222 240.874 75.394C238.21 68.9658 237.512 61.8921 238.868 55.0672C240.224 48.2423 243.573 41.9726 248.492 37.0509C253.41 32.1291 259.678 28.7762 266.502 27.4161C273.326 26.0559 280.4 26.7497 286.83 29.4095C293.26 32.0693 298.757 36.5759 302.626 42.3594C306.495 48.1429 308.562 54.9437 308.566 61.902C308.563 71.2351 304.856 80.1855 298.258 86.7871C291.661 93.3886 282.713 97.1015 273.38 97.1101ZM273.38 27.4867C266.565 27.4867 259.904 29.5078 254.238 33.2945C248.573 37.0811 244.157 42.463 241.551 48.7595C238.945 55.0559 238.264 61.9839 239.596 68.667C240.928 75.3502 244.212 81.4881 249.033 86.3045C253.854 91.1208 259.995 94.3991 266.679 95.7246C273.364 97.0501 280.291 96.3632 286.585 93.751C292.879 91.1387 298.257 86.7183 302.038 81.0491C305.819 75.3799 307.834 68.7165 307.828 61.902C307.808 52.775 304.171 44.0281 297.714 37.5774C291.257 31.1267 282.507 27.4981 273.38 27.4867Z" fill="#2B8752"/>
<path d="M273.38 71.3285L273.109 71.1656C272.794 70.981 265.279 66.5501 264.616 57.7969C264.106 51.0094 267.114 44.9387 273.065 40.7141L273.38 40.4861L273.695 40.7141C279.657 44.9387 282.655 51.0094 282.144 57.7969C281.493 66.5501 273.978 70.981 273.652 71.1656L273.38 71.3285ZM273.38 41.8219C267.95 45.8183 265.235 51.4438 265.702 57.71C266.245 64.9971 272.045 69.1891 273.38 70.0579C274.716 69.1891 280.526 64.9862 281.069 57.71C281.536 51.4438 278.81 45.8183 273.38 41.8219Z" fill="#2F945A"/>
<path d="M267.884 72.0996C264.569 72.1442 261.326 71.1366 258.62 69.2217C253.364 65.4424 250.779 59.5454 251.344 52.6167V52.2366L251.713 52.1389C258.468 50.3796 264.723 51.9 269.328 56.472C275.312 62.3147 273.944 70.5032 273.878 70.8507L273.824 71.1548L273.531 71.2634C271.705 71.8426 269.799 72.125 267.884 72.0996ZM252.397 53.0946C251.995 59.4585 254.417 64.856 259.261 68.2986C264.843 72.3168 271.413 70.6878 272.89 70.2425C273.064 68.7113 273.531 61.9672 268.6 57.2105C264.332 53.0403 258.598 51.585 252.397 53.0946Z" fill="#2F945A"/>
<path d="M259.911 80.5268C257.731 80.494 255.579 80.0278 253.58 79.1552C251.581 78.2827 249.776 77.0212 248.27 75.4443L247.998 75.1728L248.161 74.8253C250.833 69.1889 255.491 65.768 261.28 65.1816C268.752 64.4323 273.595 70.112 273.791 70.3509L273.997 70.5899L273.888 70.8831C273.78 71.1763 271.173 78.1702 263.897 80.0164C262.596 80.3554 261.256 80.5269 259.911 80.5268ZM249.312 74.9339C251.137 76.7982 253.42 78.1505 255.932 78.8557C258.444 79.5609 261.097 79.5941 263.626 78.9521C269.512 77.4534 272.172 72.1211 272.748 70.7962C271.749 69.7102 267.448 65.6377 261.388 66.2567C258.793 66.5209 256.311 67.4612 254.192 68.9838C252.073 70.5063 250.391 72.5579 249.312 74.9339Z" fill="#2F945A"/>
<path d="M286.845 80.5268C285.504 80.527 284.168 80.3555 282.87 80.0164C275.594 78.1702 272.977 71.1764 272.868 70.8832L272.76 70.5899L272.966 70.351C273.172 70.1121 278.027 64.4432 285.488 65.1817C291.265 65.7681 295.924 69.189 298.607 74.8253L298.769 75.1729L298.487 75.4444C296.981 77.0222 295.176 78.2843 293.178 79.157C291.179 80.0296 289.026 80.4953 286.845 80.5268ZM274.009 70.7528C274.584 72.0778 277.267 77.41 283.131 78.9087C285.658 79.557 288.31 79.5312 290.824 78.8337C293.337 78.1362 295.624 76.7916 297.455 74.9339C296.377 72.5566 294.695 70.5034 292.576 68.979C290.457 67.4546 287.976 66.5122 285.379 66.2459C279.308 65.6486 275.008 69.7646 274.009 70.8071V70.7528Z" fill="#2F945A"/>
<path d="M278.875 72.0996C276.946 72.1109 275.028 71.8102 273.195 71.209L272.902 71.1005V70.7964C272.837 70.4489 271.468 62.2604 277.452 56.4177C282.09 51.9 288.312 50.3796 295.067 52.1389L295.447 52.2366V52.6167C296.001 59.5454 293.417 65.4424 288.16 69.2217C285.449 71.141 282.197 72.1488 278.875 72.0996ZM273.869 70.2859C275.356 70.7312 281.916 72.3602 287.509 68.342C289.881 66.6278 291.763 64.3222 292.967 61.6548C294.171 58.9873 294.656 56.0509 294.372 53.138C288.171 51.6285 282.426 53.138 278.158 57.2431C273.228 62.0106 273.673 68.7547 273.869 70.2859Z" fill="#2F945A"/>
<path d="M261.348 392.752L256.428 389.918L248.283 519.738L253.203 522.573L261.348 392.752Z" fill="#2B8752"/>
<path d="M261.348 392.752L268.7 388.506L258.112 519.738L253.203 522.572L261.348 392.752Z" fill="#1A5132"/>
<path d="M401.4 311.932L396.48 309.097L407.069 428.101L411.989 430.936L401.4 311.932Z" fill="#2B8752"/>
<path d="M401.398 311.932L408.751 307.686L416.896 428.101L411.976 430.936L401.398 311.932Z" fill="#1A5132"/>
<path d="M153.083 330.242L148.174 327.407L140.029 457.228L144.938 460.062L153.083 330.242Z" fill="#2B8752"/>
<path d="M153.082 330.242L160.435 325.996L149.846 457.228L144.938 460.062L153.082 330.242Z" fill="#1A5132"/>
<path d="M293.134 249.422L288.215 246.587L298.803 365.591L303.723 368.426L293.134 249.422Z" fill="#2B8752"/>
<path d="M293.135 249.422L300.487 245.176L308.632 365.591L303.723 368.426L293.135 249.422Z" fill="#1A5132"/>
<path d="M124.1 342.557V335.835C124.122 335.417 124.243 335.01 124.453 334.648C124.662 334.286 124.954 333.978 125.305 333.75L308.839 227.734C309.211 227.547 309.622 227.45 310.039 227.45C310.456 227.45 310.867 227.547 311.239 227.734L427.886 295.218C428.237 295.447 428.529 295.754 428.739 296.117C428.948 296.479 429.069 296.886 429.092 297.304V304.015C429.069 304.433 428.948 304.839 428.739 305.202C428.529 305.564 428.237 305.872 427.886 306.1L244.352 412.115C243.98 412.303 243.569 412.4 243.152 412.4C242.736 412.4 242.325 412.303 241.952 412.115L125.305 344.631C124.955 344.405 124.664 344.099 124.454 343.739C124.245 343.378 124.123 342.973 124.1 342.557Z" fill="#2F945A"/>
<path opacity="0.2" d="M124.1 342.557V335.835C124.122 335.417 124.243 335.01 124.453 334.648C124.662 334.286 124.954 333.978 125.305 333.75L308.839 227.734C309.211 227.547 309.622 227.45 310.039 227.45C310.456 227.45 310.867 227.547 311.239 227.734L427.886 295.218C428.237 295.447 428.529 295.754 428.739 296.117C428.948 296.479 429.069 296.886 429.092 297.304V304.015C429.069 304.433 428.948 304.839 428.739 305.202C428.529 305.564 428.237 305.872 427.886 306.1L244.352 412.115C243.98 412.303 243.569 412.4 243.152 412.4C242.736 412.4 242.325 412.303 241.952 412.115L125.305 344.631C124.955 344.405 124.664 344.099 124.454 343.739C124.245 343.378 124.123 342.973 124.1 342.557Z" fill="#143E26"/>
<path d="M243.136 402.906V412.398C242.717 412.404 242.303 412.307 241.931 412.115L125.305 344.631C124.955 344.405 124.664 344.099 124.454 343.739C124.245 343.378 124.123 342.973 124.1 342.557V335.835C124.119 335.464 124.216 335.101 124.384 334.77C124.552 334.439 124.788 334.147 125.077 333.913C124.643 334.282 124.719 334.792 125.305 335.14L241.931 402.624C242.303 402.815 242.717 402.912 243.136 402.906Z" fill="#2F945A"/>
<path opacity="0.4" d="M243.136 402.906V412.398C242.717 412.404 242.303 412.307 241.931 412.115L125.305 344.631C124.955 344.405 124.664 344.099 124.454 343.739C124.245 343.378 124.123 342.973 124.1 342.557V335.835C124.119 335.464 124.216 335.101 124.384 334.77C124.552 334.439 124.788 334.147 125.077 333.913C124.643 334.282 124.719 334.792 125.305 335.14L241.931 402.624C242.303 402.815 242.717 402.912 243.136 402.906Z" fill="#143E26"/>
<path d="M125.305 335.14L241.931 402.613C242.302 402.805 242.713 402.906 243.131 402.906C243.549 402.906 243.96 402.805 244.331 402.613L427.865 296.609C428.008 296.557 428.132 296.463 428.219 296.338C428.307 296.214 428.354 296.066 428.354 295.913C428.354 295.761 428.307 295.613 428.219 295.489C428.132 295.364 428.008 295.27 427.865 295.218L311.272 227.734C310.9 227.547 310.489 227.45 310.072 227.45C309.655 227.45 309.244 227.547 308.872 227.734L125.338 333.75C125.193 333.798 125.067 333.889 124.977 334.011C124.886 334.134 124.836 334.281 124.832 334.433C124.829 334.585 124.872 334.735 124.957 334.861C125.042 334.988 125.163 335.085 125.305 335.14Z" fill="#2F945A"/>
<path opacity="0.2" d="M217.329 361.269C231.784 361.269 243.501 354.505 243.501 346.162C243.501 337.819 231.784 331.056 217.329 331.056C202.874 331.056 191.156 337.819 191.156 346.162C191.156 354.505 202.874 361.269 217.329 361.269Z" fill="#143E26"/>
<path d="M235.107 333.456C225.333 327.787 209.358 327.787 199.541 333.456C194.632 336.302 192.178 339.972 192.178 343.73V344.816C192.178 348.53 194.632 352.244 199.541 355.079C209.315 360.747 225.29 360.747 235.107 355.079C240.016 352.244 242.47 348.563 242.47 344.816V343.73C242.481 340.016 240.005 336.302 235.107 333.456Z" fill="#F0F0F0"/>
<path opacity="0.1" d="M208.978 357.424V330.025C205.67 330.661 202.485 331.819 199.541 333.456C194.632 336.302 192.178 339.972 192.178 343.73V344.816C192.178 348.53 194.632 352.244 199.541 355.079C203.115 357.054 207.026 358.343 211.074 358.88C209.087 358.499 208.978 357.424 208.978 357.424Z" fill="#143E26"/>
<path d="M235.109 333.456C225.335 327.787 209.36 327.787 199.542 333.456C189.725 339.125 189.768 348.324 199.542 353.993C209.316 359.661 225.291 359.661 235.109 353.993C244.926 348.324 244.937 339.136 235.109 333.456Z" fill="white"/>
<path d="M230.351 336.736C223.162 332.577 211.498 332.577 204.287 336.736C197.076 340.895 197.098 347.596 204.287 351.777C211.476 355.958 223.151 355.926 230.351 351.777C237.551 347.629 237.54 340.885 230.351 336.736Z" fill="#F0F0F0"/>
<path d="M228.733 338.387C222.434 334.738 212.215 334.738 205.927 338.387C199.639 342.036 199.618 347.922 205.927 351.56C212.237 355.198 222.445 355.198 228.733 351.56C235.021 347.922 235.043 342.025 228.733 338.387Z" fill="white"/>
<path d="M199.391 353.156C201.482 354.254 203.699 355.093 205.993 355.654C208.278 356.216 210.607 356.579 212.955 356.74C215.297 356.914 217.65 356.914 219.992 356.74C222.331 356.57 224.652 356.206 226.932 355.654C229.189 355.093 231.375 354.277 233.448 353.221C235.544 352.2 237.419 350.776 238.964 349.03C239.711 348.144 240.309 347.142 240.735 346.065C241.153 344.983 241.328 343.822 241.245 342.666C241.162 341.499 240.844 340.361 240.311 339.321C240.044 338.798 239.731 338.301 239.377 337.833C239.051 337.349 238.688 336.892 238.291 336.464C238.727 336.869 239.133 337.305 239.507 337.768C239.881 338.231 240.215 338.725 240.507 339.245C241.1 340.29 241.47 341.448 241.593 342.644C241.713 343.851 241.568 345.071 241.169 346.217C240.755 347.355 240.153 348.416 239.388 349.355C238.627 350.29 237.756 351.129 236.792 351.853C235.838 352.58 234.824 353.227 233.763 353.786C231.633 354.875 229.385 355.713 227.062 356.284C222.425 357.419 217.63 357.765 212.879 357.305C210.511 357.087 208.169 356.643 205.885 355.98C204.744 355.647 203.624 355.248 202.529 354.785C201.446 354.318 200.397 353.773 199.391 353.156Z" fill="white"/>
<path d="M226.376 338.669C221.38 335.78 213.268 335.78 208.272 338.669C203.277 341.558 203.266 346.271 208.272 349.127C213.279 351.983 221.38 352.016 226.387 349.127C231.393 346.239 231.382 341.558 226.376 338.669Z" fill="#F0F0F0"/>
<path opacity="0.1" d="M226.352 347.325L209.866 338.191L192.219 343.762C192.219 347.466 194.684 351.169 199.582 353.993C202.521 355.639 205.709 356.798 209.019 357.424L226.352 347.325Z" fill="#143E26"/>
<path d="M232.891 342.47C234.081 342.543 235.273 342.377 236.398 341.981C237.951 341.406 239.309 339.733 240.536 336.866C241.622 334.444 243.24 329.134 242.067 326.397C240.579 322.922 236.366 322.803 233.575 322.716H232.608L232.456 326.039C232.793 326.039 233.314 326.158 233.673 326.169C235.247 326.169 238.712 326.756 239.103 327.646C240.406 329.818 237.083 338.083 235.627 338.973C233.838 339.364 231.986 339.364 230.197 338.973L229.111 341.753C230.327 342.183 231.602 342.424 232.891 342.47Z" fill="#E0E0E0"/>
<path d="M203.56 318.708C203.875 317.286 205.265 315.896 207.752 314.788C213.486 312.225 222.815 312.127 228.603 314.571C231.101 315.657 232.534 316.982 232.882 318.393H232.958C234.044 327.69 232.491 338.506 229.244 344.512L229.178 344.631C229.174 344.664 229.174 344.696 229.178 344.729C228.524 345.816 227.595 346.711 226.485 347.325C224.048 348.592 221.346 349.267 218.599 349.296C215.851 349.324 213.136 348.704 210.673 347.487C209.543 346.906 208.593 346.027 207.925 344.946C207.929 344.921 207.929 344.895 207.925 344.87L207.849 344.729C204.472 338.799 202.702 328.026 203.581 318.665L203.56 318.708Z" fill="#EBEBEB"/>
<path d="M211.074 345.674C206.99 342.329 206.589 331.208 206.73 324.649L208.5 314.495L207.772 314.788C205.285 315.874 203.895 317.286 203.58 318.708H203.494C202.614 328.026 204.384 338.799 207.762 344.772L207.838 344.914C207.841 344.939 207.841 344.964 207.838 344.99C208.506 346.071 209.455 346.949 210.585 347.531C214.69 349.844 221.13 349.931 225.507 347.835C223.113 348.714 220.536 348.977 218.014 348.599C215.492 348.222 213.105 347.216 211.074 345.674Z" fill="#E0E0E0"/>
<path d="M207.729 313.246C202.005 316.667 202.071 322.097 207.859 325.387C213.647 328.678 222.987 328.58 228.71 325.17C234.433 321.76 234.379 316.319 228.58 313.029C222.781 309.738 213.452 309.836 207.729 313.246Z" fill="#FAFAFA"/>
<path d="M208.99 314.538C203.951 317.231 203.994 321.488 209.098 324.073C214.203 326.658 222.413 326.56 227.452 323.878C232.491 321.195 232.458 316.927 227.354 314.343C222.25 311.758 214.04 311.856 208.99 314.538Z" fill="#E0E0E0"/>
<path d="M209.054 320.294C208.102 320.778 207.245 321.429 206.523 322.216C207.264 322.979 208.131 323.607 209.086 324.073C214.191 326.647 222.412 326.56 227.451 323.878C228.399 323.393 229.256 322.746 229.981 321.966C229.243 321.201 228.376 320.572 227.418 320.109C222.314 317.525 214.093 317.612 209.054 320.294Z" fill="#2F945A"/>
<path opacity="0.5" d="M209.054 320.294C208.102 320.778 207.245 321.429 206.523 322.216C207.264 322.979 208.131 323.607 209.086 324.073C214.191 326.647 222.412 326.56 227.451 323.878C228.399 323.393 229.256 322.746 229.981 321.966C229.243 321.201 228.376 320.572 227.418 320.109C222.314 317.525 214.093 317.612 209.054 320.294Z" fill="#143E26"/>
<path opacity="0.1" d="M219.838 359.738H219.773L196.566 346.716C196.913 346.223 197.119 345.645 197.163 345.044C197.163 345.044 197.163 344.946 197.163 344.903C197.163 344.153 196.587 343.339 195.371 342.503C192.83 340.754 186.987 339.245 184.511 340.657C184.141 340.837 183.847 341.141 183.678 341.516C183.51 341.891 183.478 342.313 183.588 342.709C183.909 343.955 184.575 345.084 185.51 345.967L185.749 346.206L186.042 346.488C186.703 347.116 187.453 347.643 188.268 348.052C188.509 348.167 188.756 348.268 189.007 348.356C189.4 348.495 189.803 348.604 190.212 348.682C190.836 348.795 191.468 348.849 192.102 348.845C193.171 348.848 194.22 348.555 195.132 347.998L217.2 361.301C217.895 361.703 219.86 360.682 219.86 360.096V359.748L219.838 359.738Z" fill="#143E26"/>
<path d="M192.11 347.998C194.869 347.998 197.139 346.086 197.139 344.023L183.553 341.851C183.976 343.347 184.848 344.678 186.051 345.663C186.849 346.444 187.798 347.054 188.84 347.455C189.882 347.856 190.995 348.041 192.11 347.998Z" fill="#EBEBEB"/>
<path opacity="0.15" d="M192.11 347.998C194.869 347.998 197.139 346.086 197.139 344.023L183.553 341.851C183.976 343.347 184.848 344.678 186.051 345.663C186.849 346.444 187.798 347.054 188.84 347.455C189.882 347.856 190.995 348.041 192.11 347.998Z" fill="#143E26"/>
<path opacity="0.15" d="M196.445 344.327C196.445 345.815 194.708 347.65 191.949 347.64C190.644 347.618 189.356 347.333 188.163 346.801C186.971 346.269 185.898 345.501 185.01 344.544C185.348 344.929 185.711 345.292 186.096 345.63C186.892 346.415 187.84 347.029 188.882 347.434C189.924 347.839 191.038 348.028 192.156 347.987C194.914 347.987 197.184 346.076 197.184 344.012L196.478 343.893C196.445 344.056 196.445 344.262 196.445 344.327Z" fill="#143E26"/>
<path d="M195.346 341.623C192.805 339.875 186.962 338.365 184.486 339.777C182.01 341.189 184.66 344.588 187.69 346.054C188.886 346.715 190.227 347.071 191.593 347.088C192.959 347.105 194.308 346.783 195.52 346.152C197.551 344.968 197.855 343.35 195.346 341.623Z" fill="#EAF4EF"/>
<path d="M187.182 339.353C190.037 339.432 192.822 340.256 195.261 341.742C196.442 342.561 197.017 343.353 196.988 344.121C196.988 344.794 196.423 345.457 195.435 346.021C194.358 346.639 193.136 346.957 191.895 346.944C190.449 346.921 189.027 346.572 187.735 345.924C185.498 344.838 183.696 342.85 183.641 341.406C183.63 341.094 183.711 340.786 183.873 340.52C184.035 340.254 184.272 340.041 184.553 339.907C185.366 339.497 186.272 339.306 187.182 339.353ZM187.182 339.212C186.247 339.172 185.318 339.366 184.477 339.777C181.99 341.21 184.651 344.588 187.681 346.054C188.984 346.734 190.426 347.105 191.895 347.14C193.161 347.153 194.409 346.83 195.511 346.206C197.553 345.022 197.857 343.404 195.348 341.677C192.881 340.179 190.067 339.349 187.182 339.266V339.212Z" fill="#E0E0E0"/>
<path d="M193.914 341.992C191.438 340.342 186.258 338.734 184.487 339.994C182.717 341.254 185.573 344.338 188.441 345.728C191.308 347.118 193.523 347.053 194.957 346.054C196.39 345.055 196.357 343.621 193.914 341.992Z" fill="#F0F0F0"/>
<path d="M191.134 341.384C189.386 340.222 185.704 339.114 184.445 339.972C183.185 340.83 185.259 343.046 187.257 344.045C189.256 345.044 190.863 344.979 191.895 344.273C192.926 343.567 192.872 342.546 191.134 341.384Z" fill="#FAFAFA"/>
<path d="M219.685 358.652L196.206 345.674C195.745 346.025 195.241 346.317 194.707 346.543V346.89L217.198 360.443C217.893 360.845 219.859 359.824 219.859 359.238V358.89C219.857 358.838 219.84 358.787 219.809 358.744C219.778 358.701 219.735 358.669 219.685 358.652Z" fill="#E0E0E0"/>
<path opacity="0.25" d="M219.685 358.652L196.206 345.674C195.746 346.028 195.242 346.32 194.707 346.543V346.89L217.198 360.443C217.893 360.845 219.859 359.824 219.859 359.238V358.89C219.857 358.838 219.84 358.787 219.809 358.744C219.778 358.701 219.735 358.669 219.685 358.652Z" fill="#143E26"/>
<path d="M217.198 360.096C218.002 360.563 220.51 359.119 219.707 358.652L196.206 345.674C195.743 346.022 195.239 346.314 194.707 346.543L217.198 360.096Z" fill="#F0F0F0"/>
<path d="M196.348 346.043L217.405 357.62C219.012 358.499 219.979 358.901 218.969 359.488C217.774 360.172 217.481 359.868 217.481 359.868C217.867 359.825 218.239 359.695 218.567 359.488C219.165 359.108 218.643 358.586 217.481 358.022C216.319 357.457 196.348 346.043 196.348 346.043Z" fill="#FAFAFA"/>
<path opacity="0.5" d="M223.542 296.098C221.881 290.668 215.658 287.128 215.658 287.128C215.658 287.128 219.481 292.08 219.318 296.359C219.155 300.637 215.734 303.646 214.398 308.055C213.584 310.516 213.519 313.163 214.211 315.661C214.903 318.159 216.321 320.395 218.286 322.086C218.286 322.086 215.691 315.309 218.514 310.27C220.143 307.338 225.193 301.593 223.542 296.098ZM226.084 297.586C226.475 299.757 226.155 301.997 225.171 303.971C223.816 306.56 222.177 308.989 220.284 311.215C218.112 314.017 218.406 319.099 220.545 322.075C220.692 319.022 221.636 316.06 223.282 313.485C224.542 311.584 228.115 308.153 228.712 304.319C228.983 303.059 228.879 301.748 228.411 300.547C227.944 299.346 227.135 298.309 226.084 297.564V297.586ZM216.375 300.627C214.278 301.689 212.445 303.207 211.01 305.068C209.044 307.892 209.859 311.172 212.335 314.723C211.032 309.412 213.139 304.634 216.375 300.627Z" fill="white"/>
<path opacity="0.2" d="M364.896 279.102L319.447 252.864C319.049 252.634 318.598 252.514 318.139 252.514C317.679 252.514 317.228 252.634 316.83 252.864L237.997 298.389C237.909 298.441 237.837 298.515 237.786 298.604C237.736 298.692 237.709 298.792 237.709 298.894C237.709 298.996 237.736 299.096 237.786 299.185C237.837 299.274 237.909 299.347 237.997 299.399L283.87 325.887L364.896 279.102Z" fill="#143E26"/>
<path d="M361.519 273.552V274.573C361.52 275.31 361.327 276.035 360.959 276.674C360.591 277.312 360.061 277.843 359.423 278.211L285.987 320.565C285.346 320.928 284.622 321.118 283.886 321.118C283.149 321.118 282.425 320.928 281.784 320.565L241.754 297.564C241.118 297.194 240.589 296.663 240.221 296.024C239.853 295.386 239.659 294.662 239.659 293.926V292.514C239.655 292.607 239.678 292.698 239.724 292.779C239.77 292.86 239.838 292.926 239.919 292.97L283.88 318.361L361.519 273.552Z" fill="#1A5132"/>
<path d="M361.53 273.552L317.982 248.412C317.602 248.192 317.171 248.077 316.733 248.077C316.294 248.077 315.863 248.192 315.484 248.412L239.931 292.036C239.848 292.086 239.779 292.157 239.731 292.242C239.683 292.327 239.658 292.422 239.658 292.519C239.658 292.617 239.683 292.712 239.731 292.797C239.779 292.882 239.848 292.952 239.931 293.003L283.892 318.383L361.53 273.552Z" fill="#2B8752"/>
<path d="M283.49 314.679L260 301.137L328.679 261.487L352.288 274.964L283.49 314.679Z" fill="#1A5132"/>
<path d="M352.277 274.964L351.387 275.475L328.668 262.519L260.901 301.658L260 301.137L328.668 261.487L352.277 274.964Z" fill="#143E26"/>
<path d="M271.945 276.995L272.38 277.245L283.891 283.891L304.362 272.076L304.786 271.837L292.84 264.941L271.945 276.995Z" fill="#143E26"/>
<path d="M272.381 277.245L283.892 283.891L304.364 272.076L292.841 265.429L272.381 277.245Z" fill="#1A5132"/>
<path d="M283.891 318.372V321.173C284.627 321.174 285.35 320.979 285.987 320.609L359.422 278.255C360.062 277.887 360.593 277.357 360.963 276.718C361.333 276.079 361.528 275.355 361.529 274.617V273.596L283.891 318.372Z" fill="#143E26"/>
<path d="M285.074 318.991C285.766 319.261 286.51 319.372 287.251 319.315C287.991 319.259 288.71 319.037 289.353 318.665L362.473 276.452C363.107 276.086 363.652 275.585 364.071 274.984C364.489 274.383 364.771 273.698 364.895 272.977L372.899 225.193C372.942 224.924 372.964 224.651 372.964 224.378C372.964 223.722 372.833 223.072 372.58 222.466C372.326 221.86 371.955 221.31 371.487 220.849L295.467 264.723C294.997 264.994 294.593 265.365 294.284 265.81C293.974 266.255 293.766 266.763 293.675 267.297L285.074 318.991Z" fill="#1A5132"/>
<path d="M283.891 318.383L284.39 318.665C284.607 318.795 284.836 318.904 285.074 318.991L293.762 267.341C293.853 266.806 294.061 266.298 294.371 265.853C294.68 265.408 295.084 265.037 295.554 264.767L371.574 220.892C371.274 220.591 370.934 220.331 370.564 220.121L294.305 264.072C293.838 264.344 293.436 264.716 293.129 265.161C292.821 265.605 292.615 266.112 292.524 266.646L283.891 318.383Z" fill="#2B8752"/>
<path d="M294.427 265.733L293.254 265.06C292.897 265.524 292.659 266.068 292.559 266.646L283.871 318.383L284.371 318.665C284.588 318.795 284.817 318.904 285.055 318.991L293.743 267.341C293.844 266.759 294.078 266.209 294.427 265.733Z" fill="#143E26"/>
<g clip-path="url(#clip0_4121_23258)">
<rect width="16" height="16" rx="8" transform="matrix(0.866025 -0.5 0 1 326 267)" fill="#2F945A"/>
<path fill-rule="evenodd" clip-rule="evenodd" d="M335.298 271.132C334.842 272.292 333.989 273.388 333.012 273.952C331.554 274.794 330.372 274.133 330.372 272.476C330.372 270.819 331.554 268.794 333.012 267.952C333.989 267.388 334.842 267.499 335.298 268.132L338.125 266.5C337.539 264.251 335.472 263.532 333.012 264.952C330.096 266.635 327.732 270.686 327.732 274C327.732 277.314 330.096 278.635 333.012 276.952C335.472 275.532 337.539 272.426 338.125 269.5L335.298 271.132Z" fill="white"/>
</g>
<defs>
<clipPath id="clip0_4121_23258">
<rect width="16" height="16" rx="8" transform="matrix(0.866025 -0.5 0 1 326 267)" fill="white"/>
</clipPath>
</defs>
</svg>
