<svg width="24" height="25" viewBox="0 0 24 25" fill="none" xmlns="http://www.w3.org/2000/svg">
<path d="M7.10469 17.4077L4.37584 15.8923L4.98161 15.2962L7.37969 15.6462L11.7854 11.2308L4.05469 7.02885L4.85854 6.2154L14.3566 8.66925L17.0854 5.9058C17.2969 5.69427 17.5447 5.5885 17.8287 5.5885C18.1126 5.5885 18.3604 5.69427 18.5719 5.9058C18.7835 6.12375 18.8892 6.37631 18.8892 6.66348C18.8892 6.95066 18.7835 7.20002 18.5719 7.41155L15.8623 10.1654L18.2969 19.6538L17.4931 20.4673L13.2816 12.7365L8.89504 17.1327L9.23544 19.5308L8.62006 20.1461L7.10469 17.4077Z" fill="#2F945A"/>
</svg>
