<svg width="15" height="15" viewBox="0 0 15 15" fill="none" xmlns="http://www.w3.org/2000/svg">
<path d="M3.10859 11.9076L0.379744 10.3922L0.985519 9.79603L3.38359 10.146L7.78934 5.73065L0.0585938 1.52873L0.862444 0.71528L10.3605 3.16913L13.0893 0.405679C13.3009 0.194146 13.5486 0.0883789 13.8326 0.0883789C14.1165 0.0883789 14.3643 0.194146 14.5758 0.405679C14.7874 0.623629 14.8931 0.876188 14.8931 1.16335C14.8931 1.45054 14.7874 1.6999 14.5758 1.91143L11.8662 4.66525L14.3008 14.1537L13.497 14.9672L9.28549 7.2364L4.89894 11.6326L5.23934 14.0306L4.62397 14.646L3.10859 11.9076Z" fill="white"/>
</svg>
