<svg width="24" height="24" viewBox="0 0 24 24" fill="none" xmlns="http://www.w3.org/2000/svg">
<path d="M12 20.9208C10.8899 20.9208 9.8498 20.7108 8.87977 20.2909C7.90957 19.871 7.06369 19.3003 6.34212 18.5787C5.62055 17.8571 5.0498 17.0112 4.62988 16.041C4.20996 15.071 4 14.0309 4 12.9208H5.41176C5.41176 14.7561 6.05098 16.313 7.32941 17.5914C8.60784 18.8698 10.1647 19.509 12 19.509C13.8353 19.509 15.3922 18.8698 16.6706 17.5914C17.949 16.313 18.5882 14.7561 18.5882 12.9208C18.5882 11.0855 17.949 9.52865 16.6706 8.25022C15.3922 6.97179 13.8353 6.33257 12 6.33257H11.7501L13.2452 7.82763L12.2534 8.84834L9.03176 5.61775L12.2715 2.38692L13.2633 3.40763L11.7501 4.92081H12C13.1101 4.92081 14.1502 5.13077 15.1202 5.55069C16.0904 5.97061 16.9363 6.54136 17.6579 7.26292C18.3795 7.98449 18.9502 8.83038 19.3701 9.80057C19.79 10.7706 20 11.8107 20 12.9208C20 14.0309 19.79 15.071 19.3701 16.041C18.9502 17.0112 18.3795 17.8571 17.6579 18.5787C16.9363 19.3003 16.0904 19.871 15.1202 20.2909C14.1502 20.7108 13.1101 20.9208 12 20.9208Z" fill="#367AFF"/>
</svg>
