<svg width="9" height="14" viewBox="0 0 9 14" fill="none" xmlns="http://www.w3.org/2000/svg">
<path d="M4.092 14L0.501 7.73V6.894H0.919C1.59033 6.894 2.154 6.83067 2.61 6.704C3.07867 6.57733 3.446 6.36833 3.712 6.077C3.978 5.78567 4.13633 5.38667 4.187 4.88H0.501V3.664H4.168C4.07933 3.19533 3.902 2.81533 3.636 2.524C3.37 2.22 3.009 1.99833 2.553 1.859C2.10967 1.71967 1.565 1.65 0.919 1.65H0.501V0.433999H8.367V1.65H4.776C5.06733 1.89067 5.308 2.17567 5.498 2.505C5.688 2.83433 5.80833 3.22067 5.859 3.664H8.367V4.88H5.897C5.80833 5.80467 5.45367 6.52667 4.833 7.046C4.225 7.55267 3.41433 7.87567 2.401 8.015L6.03 14H4.092Z" fill="#86889B"/>
</svg>
