<svg width="24" height="24" viewBox="0 0 24 24" fill="none" xmlns="http://www.w3.org/2000/svg">
<path d="M23.3346 5.61532V20.923C23.3346 21.5965 23.1013 22.1667 22.6346 22.6333C22.168 23.1 21.5979 23.3333 20.9243 23.3333H3.0783C2.40475 23.3333 1.83464 23.1 1.36797 22.6333C0.901302 22.1667 0.667969 21.5965 0.667969 20.923V3.07699C0.667969 2.40343 0.901302 1.83332 1.36797 1.36666C1.83464 0.89999 2.40475 0.666656 3.0783 0.666656H18.386L23.3346 5.61532ZM21.3346 6.46666L17.5346 2.66666H3.0783C2.95852 2.66666 2.86019 2.7051 2.7833 2.78199C2.70641 2.85888 2.66797 2.95721 2.66797 3.07699V20.923C2.66797 21.0428 2.70641 21.1411 2.7833 21.218C2.86019 21.2949 2.95852 21.3333 3.0783 21.3333H20.9243C21.0441 21.3333 21.1424 21.2949 21.2193 21.218C21.2962 21.1411 21.3346 21.0428 21.3346 20.923V6.46666ZM12.0013 19.0257C12.9244 19.0257 13.7107 18.7009 14.3603 18.0513C15.0099 17.4018 15.3346 16.6154 15.3346 15.6923C15.3346 14.7692 15.0099 13.9829 14.3603 13.3333C13.7107 12.6838 12.9244 12.359 12.0013 12.359C11.0782 12.359 10.2919 12.6838 9.6423 13.3333C8.99275 13.9829 8.66797 14.7692 8.66797 15.6923C8.66797 16.6154 8.99275 17.4018 9.6423 18.0513C10.2919 18.7009 11.0782 19.0257 12.0013 19.0257ZM4.5143 9.17932H15.4626V4.51299H4.5143V9.17932ZM2.66797 6.46666V21.3333V2.66666V6.46666Z" fill="#367AFF"/>
</svg>
