<svg width="18" height="18" viewBox="0 0 18 18" fill="none" xmlns="http://www.w3.org/2000/svg">
<path d="M16.5427 17.5769L10.2619 11.2961C9.76195 11.7089 9.18695 12.032 8.53695 12.2653C7.88695 12.4987 7.21451 12.6153 6.51965 12.6153C4.81048 12.6153 3.36396 12.0236 2.1801 10.84C0.99623 9.65643 0.404297 8.21029 0.404297 6.50157C0.404297 4.79284 0.99608 3.34616 2.17965 2.16154C3.36321 0.976943 4.80936 0.384644 6.5181 0.384644C8.22681 0.384644 9.67348 0.976578 10.8581 2.16044C12.0427 3.34431 12.635 4.79083 12.635 6.49999C12.635 7.21409 12.5151 7.89614 12.2754 8.54614C12.0356 9.19615 11.7158 9.76153 11.3158 10.2423L17.5965 16.5231L16.5427 17.5769ZM6.51965 11.1154C7.80811 11.1154 8.89946 10.6683 9.7937 9.77404C10.6879 8.87981 11.135 7.78846 11.135 6.49999C11.135 5.21153 10.6879 4.12018 9.7937 3.22594C8.89946 2.33171 7.80811 1.88459 6.51965 1.88459C5.23118 1.88459 4.13983 2.33171 3.2456 3.22594C2.35138 4.12018 1.90427 5.21153 1.90427 6.49999C1.90427 7.78846 2.35138 8.87981 3.2456 9.77404C4.13983 10.6683 5.23118 11.1154 6.51965 11.1154Z" fill="#4A4E69"/>
</svg>
