<svg width="49" height="49" viewBox="0 0 49 49" fill="none" xmlns="http://www.w3.org/2000/svg">
<path d="M41.668 23.749C40.7154 23.3328 39.7115 23.0116 38.668 22.7998V10.2998H10.668V38.6992H20.7158C20.7882 39.6145 20.9435 40.5065 21.1729 41.3682L18.9756 43.2686L16.1299 40.8066L13.2832 43.2686L10.4375 40.8066L7.66797 43.2686V5.73047L10.4375 8.19238L13.2832 5.73047L16.1299 8.19238L18.9756 5.73047L21.8223 8.19238L24.668 5.73047L27.5137 8.19238L30.3604 5.73047L33.2061 8.19238L36.0527 5.73047L38.8984 8.19238L41.668 5.73047V23.749ZM22.4609 30.3838C21.9513 31.3276 21.5397 32.332 21.2402 33.3838H13.168V30.3838H22.4609ZM31.8213 22.999C29.665 23.5695 27.6993 24.6076 26.0391 25.999H13.168V22.999H31.8213ZM36.168 15.6152V18.6152H13.168V15.6152H36.168Z" fill="#143E26"/>
<path d="M30.5525 42.269C30.0185 42.269 29.5708 42.0885 29.2095 41.7275C28.8485 41.3662 28.668 40.9185 28.668 40.3845V34.3845C28.668 33.8505 28.8596 33.403 29.243 33.042C29.6263 32.6807 30.1013 32.5 30.668 32.5V30.3845C30.668 29.3162 31.0483 28.4017 31.809 27.641C32.5696 26.8803 33.4841 26.5 34.5525 26.5C35.6208 26.5 36.5353 26.8803 37.296 27.641C38.0566 28.4017 38.437 29.3162 38.437 30.3845V32.5C39.0036 32.5 39.4786 32.6807 39.862 33.042C40.2453 33.403 40.437 33.8505 40.437 34.3845V40.3845C40.437 40.9185 40.2565 41.3662 39.8955 41.7275C39.5341 42.0885 39.0865 42.269 38.5525 42.269H30.5525ZM32.437 32.5H36.668V30.392C36.668 29.7947 36.4635 29.2915 36.0545 28.8825C35.6455 28.4735 35.1448 28.269 34.5525 28.269C33.9601 28.269 33.4595 28.4735 33.0505 28.8825C32.6415 29.2915 32.437 29.7947 32.437 30.392V32.5Z" fill="#143E26"/>
</svg>
