<svg width="49" height="49" viewBox="0 0 49 49" fill="none" xmlns="http://www.w3.org/2000/svg">
<path d="M23.7168 7.5C24.7269 7.50006 25.5823 7.84987 26.2822 8.5498C26.9822 9.24976 27.332 10.1051 27.332 11.1152V24.1152H29.2549C30.2491 24.1152 31.1006 24.4697 31.8086 25.1777C32.5163 25.8857 32.8701 26.7365 32.8701 27.7305V36.8076C32.8701 37.4511 33.0937 37.9969 33.541 38.4443C33.9884 38.8917 34.5343 39.1152 35.1777 39.1152C35.8213 39.1152 36.367 38.8917 36.8145 38.4443C37.2619 37.9969 37.4853 37.4512 37.4854 36.8076V22.792C37.1855 22.9713 36.8692 23.0958 36.5361 23.165C36.2028 23.2343 35.852 23.2695 35.4854 23.2695C34.258 23.2694 33.2206 22.8454 32.373 21.998C31.5254 21.1504 31.1016 20.1124 31.1016 18.8848C31.1016 17.895 31.3832 17.0133 31.9473 16.2402C32.5113 15.4672 33.2575 14.9486 34.1855 14.6846L29.6777 10.1768L31.3555 8.5L38.4854 15.5078C38.9341 15.9565 39.2774 16.4764 39.5146 17.0674C39.7518 17.6583 39.8701 18.2642 39.8701 18.8848V36.8076C39.8701 38.1213 39.417 39.2316 38.5107 40.1387C37.6043 41.0459 36.4944 41.5 35.1816 41.5C33.869 41.5 32.7585 41.0458 31.8496 40.1387C30.9407 39.2315 30.4854 38.1214 30.4854 36.8076V27.1152C30.4853 26.9358 30.4279 26.7882 30.3125 26.6729C30.1971 26.5576 30.0495 26.5 29.8701 26.5H27.332V41.5H18.332V38.5H24.332V24H12.332V24.5H9.33203V11.1152C9.33207 10.105 9.68187 9.24977 10.3818 8.5498C11.0818 7.84984 11.9371 7.50004 12.9473 7.5H23.7168ZM12.9473 10.5C12.7935 10.5 12.6526 10.5642 12.5244 10.6924C12.3963 10.8206 12.3321 10.9614 12.332 11.1152V21H24.332V11.1152C24.332 10.9615 24.2678 10.8206 24.1396 10.6924C24.0115 10.5643 23.8706 10.5001 23.7168 10.5H12.9473ZM35.4854 16.8848C34.9189 16.8849 34.4438 17.0767 34.0605 17.46C33.6774 17.8432 33.4854 18.3182 33.4854 18.8848C33.4854 19.4513 33.6773 19.9263 34.0605 20.3096C34.4438 20.6928 34.9189 20.8847 35.4854 20.8848C36.052 20.8848 36.5278 20.6929 36.9111 20.3096C37.2943 19.9263 37.4853 19.4513 37.4854 18.8848C37.4854 18.3183 37.2942 17.8432 36.9111 17.46C36.5278 17.0766 36.052 16.8848 35.4854 16.8848Z" fill="#143E26"/>
<path d="M6.29985 42.8266C5.77163 42.8266 5.31151 42.6308 4.91949 42.2392C4.52785 41.8475 4.33203 41.3876 4.33203 40.8594V33.9983C4.33203 33.4701 4.52785 33.01 4.91949 32.618C5.31151 32.2264 5.77163 32.0305 6.29985 32.0305H6.61735V29.7667C6.61735 28.5793 7.03182 27.5714 7.86075 26.7428C8.6893 25.9143 9.69707 25.5 10.8841 25.5C12.0711 25.5 13.0788 25.9143 13.9074 26.7428C14.7359 27.5714 15.1502 28.5793 15.1502 29.7667V32.0305H15.4683C15.9965 32.0305 16.4493 32.2264 16.8266 32.618C17.2039 33.01 17.3925 33.4701 17.3925 33.9983V40.8594C17.3925 41.3876 17.1965 41.8475 16.8045 42.2392C16.4129 42.6308 15.9529 42.8266 15.4247 42.8266H6.29985ZM8.62026 32.0305H13.1479V29.7667C13.1479 29.1253 12.9309 28.5877 12.497 28.1538C12.0631 27.7199 11.5255 27.5029 10.8841 27.5029C10.2427 27.5029 9.705 27.7199 9.2711 28.1538C8.8372 28.5877 8.62026 29.1253 8.62026 29.7667V32.0305Z" fill="#143E26"/>
</svg>
