<svg width="272" height="200" viewBox="0 0 272 200" fill="none" xmlns="http://www.w3.org/2000/svg">
<path d="M0 10C0 4.47715 4.47715 0 10 0H262C267.523 0 272 4.47715 272 10V176H0V10Z" fill="white"/>
<g clip-path="url(#clip0_4033_17369)">
<path d="M0 10C0 4.47716 4.47715 0 10 0H262C267.523 0 272 4.47715 272 10V200H0V10Z" fill="#EAF4EF"/>
<path d="M64.6802 90.1922L58.8613 86.4035" stroke="#123922" stroke-width="0.402" stroke-miterlimit="10" stroke-linecap="round" stroke-linejoin="round"/>
<path d="M94.176 107.46L66.6133 89.5146" stroke="#123922" stroke-width="0.402" stroke-miterlimit="10" stroke-linecap="round" stroke-linejoin="round"/>
<path d="M142.164 134.7L95.5898 104.377" stroke="#123922" stroke-width="0.402" stroke-miterlimit="10" stroke-linecap="round" stroke-linejoin="round"/>
<path d="M103.85 69.6996L94.0996 50.1696" stroke="#123922" stroke-width="0.402" stroke-miterlimit="10" stroke-linecap="round" stroke-linejoin="round"/>
<path d="M139.151 142.675L104.932 74.1366" stroke="#123922" stroke-width="0.402" stroke-miterlimit="10" stroke-linecap="round" stroke-linejoin="round"/>
<path d="M193.519 99.4532L220.949 76.4787" stroke="#123922" stroke-width="0.402" stroke-miterlimit="10" stroke-linecap="round" stroke-linejoin="round"/>
<path d="M137.684 146.661L191.076 101.941" stroke="#123922" stroke-width="0.402" stroke-miterlimit="10" stroke-linecap="round" stroke-linejoin="round"/>
<path d="M121.107 152.486L182.361 56.9224" stroke="#123922" stroke-width="0.402" stroke-miterlimit="10" stroke-linecap="round" stroke-linejoin="round"/>
<path d="M80.9162 164.017L76.5312 167.967" stroke="#123922" stroke-width="0.402" stroke-miterlimit="10" stroke-linecap="round" stroke-linejoin="round"/>
<path d="M80.9162 167.967L76.5312 164.017" stroke="#123922" stroke-width="0.402" stroke-miterlimit="10" stroke-linecap="round" stroke-linejoin="round"/>
<path d="M196.653 175.006L192.268 178.956" stroke="#123922" stroke-width="0.402" stroke-miterlimit="10" stroke-linecap="round" stroke-linejoin="round"/>
<path d="M196.653 178.956L192.268 175.006" stroke="#123922" stroke-width="0.402" stroke-miterlimit="10" stroke-linecap="round" stroke-linejoin="round"/>
<path d="M206.774 171.52C206.774 171.002 206.307 170.582 205.733 170.582C205.158 170.582 204.691 171.002 204.691 171.52C204.691 172.038 205.158 172.458 205.733 172.458C206.307 172.458 206.774 172.038 206.774 171.52Z" stroke="#123922" stroke-width="0.402" stroke-miterlimit="10" stroke-linecap="round" stroke-linejoin="round"/>
<path d="M47.4767 104.703L43.0918 108.652" stroke="#9FCEB3" stroke-width="0.402" stroke-miterlimit="10" stroke-linecap="round" stroke-linejoin="round"/>
<path d="M47.4767 108.652L43.0918 104.703" stroke="#9FCEB3" stroke-width="0.402" stroke-miterlimit="10" stroke-linecap="round" stroke-linejoin="round"/>
<path d="M227.897 117.118L223.512 121.068" stroke="#9FCEB3" stroke-width="0.402" stroke-miterlimit="10" stroke-linecap="round" stroke-linejoin="round"/>
<path d="M227.897 121.068L223.512 117.118" stroke="#9FCEB3" stroke-width="0.402" stroke-miterlimit="10" stroke-linecap="round" stroke-linejoin="round"/>
<path d="M168.987 62.9819L164.602 66.9316" stroke="#9FCEB3" stroke-width="0.402" stroke-miterlimit="10" stroke-linecap="round" stroke-linejoin="round"/>
<path d="M168.987 66.9316L164.602 62.9819" stroke="#9FCEB3" stroke-width="0.402" stroke-miterlimit="10" stroke-linecap="round" stroke-linejoin="round"/>
<path d="M66.1603 34.2148L61.7754 38.1645" stroke="#9FCEB3" stroke-width="0.402" stroke-miterlimit="10" stroke-linecap="round" stroke-linejoin="round"/>
<path d="M66.1603 38.1645L61.7754 34.2148" stroke="#9FCEB3" stroke-width="0.402" stroke-miterlimit="10" stroke-linecap="round" stroke-linejoin="round"/>
<path d="M227.897 33.7698L223.512 37.7194" stroke="#9FCEB3" stroke-width="0.402" stroke-miterlimit="10" stroke-linecap="round" stroke-linejoin="round"/>
<path d="M227.897 37.7194L223.512 33.7698" stroke="#9FCEB3" stroke-width="0.402" stroke-miterlimit="10" stroke-linecap="round" stroke-linejoin="round"/>
<path d="M68.2719 88.4402C68.2719 87.922 67.8055 87.5023 67.2307 87.5023C66.6554 87.5023 66.1895 87.9224 66.1895 88.4402C66.1895 88.958 66.6558 89.378 67.2307 89.378C67.8055 89.378 68.2719 88.9584 68.2719 88.4402Z" stroke="#9FCEB3" stroke-width="0.402" stroke-miterlimit="10" stroke-linecap="round" stroke-linejoin="round"/>
<path d="M205.733 107.066C205.733 106.548 205.266 106.128 204.692 106.128C204.116 106.128 203.65 106.548 203.65 107.066C203.65 107.584 204.117 108.004 204.692 108.004C205.266 108.004 205.733 107.584 205.733 107.066Z" stroke="#9FCEB3" stroke-width="0.402" stroke-miterlimit="10" stroke-linecap="round" stroke-linejoin="round"/>
<path d="M191.897 69.4122C191.897 68.8941 191.431 68.4744 190.856 68.4744C190.28 68.4744 189.814 68.8945 189.814 69.4122C189.814 69.9304 190.281 70.3501 190.856 70.3501C191.431 70.3501 191.897 69.93 191.897 69.4122Z" stroke="#9FCEB3" stroke-width="0.402" stroke-miterlimit="10" stroke-linecap="round" stroke-linejoin="round"/>
<path d="M121.678 36.4484C121.678 35.9302 121.212 35.5105 120.637 35.5105C120.062 35.5105 119.596 35.9306 119.596 36.4484C119.596 36.9665 120.062 37.3862 120.637 37.3862C121.212 37.3862 121.678 36.9661 121.678 36.4484Z" stroke="#9FCEB3" stroke-width="0.402" stroke-miterlimit="10" stroke-linecap="round" stroke-linejoin="round"/>
<path d="M177.319 19.7888C177.319 19.2706 176.852 18.851 176.278 18.851C175.702 18.851 175.236 19.271 175.236 19.7888C175.236 20.3066 175.703 20.7267 176.278 20.7267C176.852 20.7267 177.319 20.307 177.319 19.7888Z" stroke="#9FCEB3" stroke-width="0.402" stroke-miterlimit="10" stroke-linecap="round" stroke-linejoin="round"/>
<path d="M44.0219 156.78C44.0219 156.262 43.5555 155.842 42.9807 155.842C42.4054 155.842 41.9395 156.263 41.9395 156.78C41.9395 157.298 42.4058 157.718 42.9807 157.718C43.5555 157.718 44.0219 157.298 44.0219 156.78Z" stroke="#123922" stroke-width="0.402" stroke-miterlimit="10" stroke-linecap="round" stroke-linejoin="round"/>
<path d="M213.655 137.596C213.665 137.619 215.119 136.573 215.202 136.497C216.166 135.623 217.458 133.424 216.755 132.198C216.248 131.315 215.013 131.13 214.126 131.651C213.221 132.184 212.847 133.335 212.777 134.253C212.694 135.331 213.654 137.594 213.655 137.596Z" fill="#9FCEB3"/>
<path d="M192.261 122.466C192.852 123.407 195.039 124.817 195.04 124.818C195.063 124.832 195.634 123.237 195.658 123.133C195.927 121.925 195.658 119.448 194.32 118.775C193.357 118.29 192.214 118.75 191.793 119.626C191.363 120.52 191.757 121.666 192.261 122.466Z" fill="#9FCEB3"/>
<path d="M188.325 128.579C189.137 129.315 191.474 130.111 191.66 130.174C191.157 131.346 190.746 132.586 190.408 133.862C190.213 134.59 190.042 135.331 189.881 136.074C189.898 135.725 189.911 135.412 189.908 135.368C189.813 134.139 188.827 131.815 187.34 131.484C186.269 131.245 185.301 131.961 185.152 132.905C185 133.869 185.716 134.881 186.436 135.534C187.167 136.196 189.144 136.911 189.67 137.094C189.612 137.38 189.55 137.665 189.493 137.95C189.218 139.323 188.951 140.694 188.643 142.031C188.535 142.502 188.409 142.963 188.285 143.424C188.3 143.113 188.31 142.852 188.307 142.812C188.211 141.583 187.226 139.258 185.739 138.927C184.667 138.689 183.7 139.404 183.551 140.348C183.399 141.313 184.114 142.324 184.835 142.977C185.532 143.609 187.351 144.284 187.974 144.503C187.832 144.972 187.689 145.442 187.527 145.891C187.409 146.195 187.318 146.495 187.181 146.794C187.052 147.093 186.923 147.389 186.797 147.682C186.529 148.238 186.258 148.814 185.981 149.351C185.792 149.726 185.605 150.08 185.417 150.437C185.531 149.969 185.733 149.049 185.74 148.97C185.853 147.742 185.269 145.31 183.855 144.78C182.836 144.398 181.759 144.973 181.453 145.886C181.141 146.819 181.678 147.916 182.28 148.66C182.943 149.478 185.028 150.549 185.29 150.681C184.977 151.271 184.666 151.842 184.363 152.377C183.322 154.227 182.376 155.734 181.697 156.78L182.528 157.342C182.548 157.31 182.566 157.281 182.586 157.248C183.247 156.175 184.168 154.633 185.177 152.739C185.497 152.141 185.827 151.496 186.158 150.832C186.344 150.877 187.403 151.13 188.425 151.255C188.542 152.29 189.553 154.092 189.685 154.324C189.063 154.66 188.454 154.982 187.874 155.278C185.87 156.305 184.157 157.091 182.95 157.627L183.862 158.243C185.029 157.69 186.567 156.934 188.33 155.984C188.963 155.645 189.633 155.271 190.316 154.881C190.51 155.08 192.109 156.7 193.137 157.115C194.069 157.492 195.373 157.738 196.321 157.27C197.249 156.811 197.65 155.743 197.025 154.924C196.156 153.788 193.393 153.778 192.083 154.131C192.006 154.152 191.195 154.463 190.688 154.667C190.966 154.506 191.238 154.353 191.522 154.184C192.087 153.855 192.639 153.511 193.235 153.142C193.516 152.955 193.8 152.767 194.086 152.576C194.375 152.392 194.654 152.166 194.941 151.959C195.597 151.469 196.235 150.943 196.864 150.4C197.186 150.845 198.355 152.409 199.216 152.91C200.074 153.41 201.322 153.831 202.337 153.497C203.332 153.171 203.908 152.17 203.428 151.275C202.76 150.033 200.031 149.646 198.676 149.817C198.592 149.827 197.635 150.049 197.112 150.179C197.488 149.85 197.865 149.524 198.232 149.18C199.295 148.188 200.336 147.153 201.38 146.126C201.699 145.811 202.022 145.501 202.343 145.189C202.456 145.348 203.799 147.234 204.765 147.796C205.623 148.295 206.87 148.716 207.886 148.383C208.881 148.056 209.457 147.055 208.976 146.16C208.308 144.918 205.579 144.531 204.225 144.702C204.123 144.715 202.747 145.035 202.401 145.132C203.11 144.446 203.823 143.767 204.556 143.125C205.566 142.237 206.612 141.415 207.69 140.687C207.743 140.762 209.135 142.735 210.124 143.311C210.982 143.81 212.229 144.232 213.245 143.898C214.24 143.571 214.816 142.57 214.336 141.675C213.668 140.434 210.939 140.046 209.585 140.217C209.496 140.229 208.448 140.471 207.952 140.597C207.931 140.558 207.934 140.565 207.914 140.526C209.08 139.759 210.316 139.148 211.504 138.627C212.192 138.325 212.868 138.07 213.533 137.835C213.75 138.227 214.766 140.007 215.593 140.613C216.385 141.195 217.573 141.737 218.623 141.506C219.652 141.279 220.347 140.341 219.978 139.404C219.466 138.104 216.801 137.449 215.434 137.485C215.359 137.487 214.606 137.582 214.058 137.659C214.36 137.557 214.669 137.447 214.96 137.355C216.051 137.006 217.075 136.747 217.983 136.525C218.501 136.402 218.972 136.3 219.414 136.209C219.85 136.493 221.623 137.617 222.648 137.809C223.648 137.996 224.98 137.984 225.795 137.343C226.592 136.715 226.728 135.593 225.922 134.915C224.802 133.974 222.102 134.499 220.907 135.099C220.804 135.15 219.291 136.128 219.314 136.143C219.314 136.143 219.335 136.156 219.341 136.16C218.913 136.24 218.457 136.33 217.96 136.438C217.044 136.643 216.011 136.882 214.907 137.211C213.802 137.537 212.613 137.919 211.4 138.424C210.183 138.928 208.932 139.514 207.729 140.268C207.715 140.277 207.702 140.287 207.689 140.296C207.964 139.977 208.702 139.062 208.75 138.986C209.423 137.914 210.025 135.485 208.988 134.47C208.24 133.739 206.995 133.854 206.292 134.568C205.575 135.297 205.552 136.496 205.753 137.398C205.98 138.416 207.441 140.241 207.558 140.386C206.42 141.114 205.318 141.944 204.254 142.84C203.645 143.351 203.05 143.883 202.46 144.423C202.689 144.14 202.89 143.886 202.914 143.848C203.588 142.775 204.19 140.347 203.152 139.332C202.405 138.6 201.159 138.716 200.457 139.43C199.739 140.159 199.717 141.358 199.917 142.261C200.121 143.176 201.333 144.755 201.66 145.169C201.436 145.378 201.21 145.585 200.987 145.795C199.918 146.803 198.855 147.813 197.779 148.775C197.4 149.115 197.013 149.436 196.627 149.759C196.83 149.508 196.998 149.294 197.02 149.26C197.694 148.187 198.296 145.759 197.258 144.744C196.51 144.013 195.265 144.128 194.562 144.842C193.845 145.571 193.822 146.77 194.023 147.673C194.218 148.546 195.321 150.012 195.707 150.506C195.301 150.826 194.894 151.147 194.485 151.441C194.2 151.635 193.941 151.841 193.642 152.022C193.352 152.207 193.064 152.391 192.778 152.572C192.215 152.903 191.635 153.248 191.076 153.559C190.689 153.778 190.316 153.98 189.941 154.184C190.322 153.85 191.054 153.183 191.108 153.121C191.671 152.477 192.299 151.239 192.409 150.143C192.492 150.049 192.566 149.948 192.629 149.841C193.123 148.997 192.803 147.907 191.78 147.535C190.359 147.018 188.049 148.383 187.172 149.329C187.121 149.385 186.635 150.047 186.337 150.469C186.47 150.197 186.603 149.934 186.737 149.652C187.006 149.096 187.256 148.535 187.528 147.931C187.648 147.636 187.769 147.338 187.891 147.036C188.02 146.739 188.113 146.411 188.227 146.097C188.473 145.362 188.683 144.606 188.876 143.841C189.416 144.052 191.348 144.776 192.375 144.766C193.396 144.755 194.694 144.487 195.337 143.704C195.966 142.937 195.834 141.816 194.885 141.309C193.568 140.604 191.054 141.638 190.029 142.454C189.965 142.505 189.303 143.164 188.947 143.533C189.059 143.072 189.173 142.612 189.269 142.143C189.548 140.787 189.782 139.408 190.023 138.032C190.097 137.61 190.176 137.191 190.253 136.771C190.445 136.848 192.721 137.753 193.87 137.742C194.892 137.733 196.19 137.464 196.833 136.681C197.462 135.914 197.33 134.793 196.381 134.285C195.064 133.581 192.55 134.615 191.525 135.43C191.448 135.492 190.496 136.443 190.268 136.695C190.438 135.77 190.617 134.85 190.835 133.95C191.134 132.707 191.503 131.502 191.957 130.359C192.047 130.396 194.417 131.35 195.594 131.338C196.616 131.329 197.914 131.06 198.557 130.277C199.186 129.51 199.054 128.389 198.105 127.882C196.788 127.177 194.274 128.211 193.25 129.026C193.182 129.08 192.456 129.804 192.12 130.155C192.078 130.133 192.086 130.137 192.045 130.115C192.547 128.896 193.204 127.771 193.877 126.747C194.265 126.153 194.673 125.604 195.083 125.078C195.504 125.297 197.442 126.276 198.503 126.372C199.519 126.463 200.843 126.325 201.577 125.61C202.296 124.91 202.301 123.782 201.42 123.184C200.196 122.354 197.572 123.132 196.454 123.841C196.394 123.88 195.823 124.334 195.413 124.67C195.602 124.435 195.793 124.19 195.979 123.968C196.676 123.135 197.371 122.41 197.993 121.773C198.349 121.413 198.68 121.095 198.992 120.799C199.53 120.819 201.697 120.876 202.67 120.527C203.619 120.186 204.722 119.514 205.008 118.575C205.288 117.655 204.716 116.652 203.628 116.487C202.117 116.258 200.187 118.038 199.557 119.132C199.503 119.226 198.841 120.793 198.869 120.794C198.869 120.794 198.895 120.795 198.901 120.795C198.594 121.074 198.268 121.377 197.92 121.713C197.282 122.339 196.567 123.052 195.847 123.875C195.126 124.696 194.367 125.606 193.664 126.629C192.958 127.654 192.274 128.765 191.733 129.992C191.727 130.006 191.723 130.021 191.716 130.035C191.751 129.632 191.806 128.502 191.799 128.415C191.704 127.186 190.718 124.861 189.231 124.53C188.16 124.291 187.192 125.006 187.043 125.951C186.889 126.914 187.605 127.926 188.325 128.579Z" fill="#9FCEB3"/>
<path opacity="0.3" d="M192.261 122.466C192.852 123.407 195.039 124.817 195.04 124.818C195.063 124.832 195.634 123.237 195.658 123.133C195.927 121.925 195.658 119.448 194.32 118.775C193.357 118.29 192.214 118.75 191.793 119.626C191.363 120.52 191.757 121.666 192.261 122.466Z" fill="#9FCEB3"/>
<path opacity="0.3" d="M213.655 137.596C213.665 137.619 215.119 136.573 215.202 136.497C216.166 135.623 217.458 133.424 216.755 132.198C216.248 131.315 215.013 131.13 214.126 131.651C213.221 132.184 212.847 133.335 212.777 134.253C212.694 135.331 213.654 137.594 213.655 137.596Z" fill="#9FCEB3"/>
<path opacity="0.3" d="M188.325 128.579C189.137 129.315 191.474 130.111 191.66 130.174C191.157 131.346 190.746 132.586 190.408 133.862C190.213 134.59 190.042 135.331 189.881 136.074C189.898 135.725 189.911 135.412 189.908 135.368C189.813 134.139 188.827 131.815 187.34 131.484C186.269 131.245 185.301 131.961 185.152 132.905C185 133.869 185.716 134.881 186.436 135.534C187.167 136.196 189.144 136.911 189.67 137.094C189.612 137.38 189.55 137.665 189.493 137.95C189.218 139.323 188.951 140.694 188.643 142.031C188.535 142.502 188.409 142.963 188.285 143.424C188.3 143.113 188.31 142.852 188.307 142.812C188.211 141.583 187.226 139.258 185.739 138.927C184.667 138.689 183.7 139.404 183.551 140.348C183.399 141.313 184.114 142.324 184.835 142.977C185.532 143.609 187.351 144.284 187.974 144.503C187.832 144.972 187.689 145.442 187.527 145.891C187.409 146.195 187.318 146.495 187.181 146.794C187.052 147.093 186.923 147.389 186.797 147.682C186.529 148.238 186.258 148.814 185.981 149.351C185.792 149.726 185.605 150.08 185.417 150.437C185.531 149.969 185.733 149.049 185.74 148.97C185.853 147.742 185.269 145.31 183.855 144.78C182.836 144.398 181.759 144.973 181.453 145.886C181.141 146.819 181.678 147.916 182.28 148.66C182.943 149.478 185.028 150.549 185.29 150.681C184.977 151.271 184.666 151.842 184.363 152.377C183.322 154.227 182.376 155.734 181.697 156.78L182.528 157.342C182.548 157.31 182.566 157.281 182.586 157.248C183.247 156.175 184.168 154.633 185.177 152.739C185.497 152.141 185.827 151.496 186.158 150.832C186.344 150.877 187.403 151.13 188.425 151.255C188.542 152.29 189.553 154.092 189.685 154.324C189.063 154.66 188.454 154.982 187.874 155.278C185.87 156.305 184.157 157.091 182.95 157.627L183.862 158.243C185.029 157.69 186.567 156.934 188.33 155.984C188.963 155.645 189.633 155.271 190.316 154.881C190.51 155.08 192.109 156.7 193.137 157.115C194.069 157.492 195.373 157.738 196.321 157.27C197.249 156.811 197.65 155.743 197.025 154.924C196.156 153.788 193.393 153.778 192.083 154.131C192.006 154.152 191.195 154.463 190.688 154.667C190.966 154.506 191.238 154.353 191.522 154.184C192.087 153.855 192.639 153.511 193.235 153.142C193.516 152.955 193.8 152.767 194.086 152.576C194.375 152.392 194.654 152.166 194.941 151.959C195.597 151.469 196.235 150.943 196.864 150.4C197.186 150.845 198.355 152.409 199.216 152.91C200.074 153.41 201.322 153.831 202.337 153.497C203.332 153.171 203.908 152.17 203.428 151.275C202.76 150.033 200.031 149.646 198.676 149.817C198.592 149.827 197.635 150.049 197.112 150.179C197.488 149.85 197.865 149.524 198.232 149.18C199.295 148.188 200.336 147.153 201.38 146.126C201.699 145.811 202.022 145.501 202.343 145.189C202.456 145.348 203.799 147.234 204.765 147.796C205.623 148.295 206.87 148.716 207.886 148.383C208.881 148.056 209.457 147.055 208.976 146.16C208.308 144.918 205.579 144.531 204.225 144.702C204.123 144.715 202.747 145.035 202.401 145.132C203.11 144.446 203.823 143.767 204.556 143.125C205.566 142.237 206.612 141.415 207.69 140.687C207.743 140.762 209.135 142.735 210.124 143.311C210.982 143.81 212.229 144.232 213.245 143.898C214.24 143.571 214.816 142.57 214.336 141.675C213.668 140.434 210.939 140.046 209.585 140.217C209.496 140.229 208.448 140.471 207.952 140.597C207.931 140.558 207.934 140.565 207.914 140.526C209.08 139.759 210.316 139.148 211.504 138.627C212.192 138.325 212.868 138.07 213.533 137.835C213.75 138.227 214.766 140.007 215.593 140.613C216.385 141.195 217.573 141.737 218.623 141.506C219.652 141.279 220.347 140.341 219.978 139.404C219.466 138.104 216.801 137.449 215.434 137.485C215.359 137.487 214.606 137.582 214.058 137.659C214.36 137.557 214.669 137.447 214.96 137.355C216.051 137.006 217.075 136.747 217.983 136.525C218.501 136.402 218.972 136.3 219.414 136.209C219.85 136.493 221.623 137.617 222.648 137.809C223.648 137.996 224.98 137.984 225.795 137.343C226.592 136.715 226.728 135.593 225.922 134.915C224.802 133.974 222.102 134.499 220.907 135.099C220.804 135.15 219.291 136.128 219.314 136.143C219.314 136.143 219.335 136.156 219.341 136.16C218.913 136.24 218.457 136.33 217.96 136.438C217.044 136.643 216.011 136.882 214.907 137.211C213.802 137.537 212.613 137.919 211.4 138.424C210.183 138.928 208.932 139.514 207.729 140.268C207.715 140.277 207.702 140.287 207.689 140.296C207.964 139.977 208.702 139.062 208.75 138.986C209.423 137.914 210.025 135.485 208.988 134.47C208.24 133.739 206.995 133.854 206.292 134.568C205.575 135.297 205.552 136.496 205.753 137.398C205.98 138.416 207.441 140.241 207.558 140.386C206.42 141.114 205.318 141.944 204.254 142.84C203.645 143.351 203.05 143.883 202.46 144.423C202.689 144.14 202.89 143.886 202.914 143.848C203.588 142.775 204.19 140.347 203.152 139.332C202.405 138.6 201.159 138.716 200.457 139.43C199.739 140.159 199.717 141.358 199.917 142.261C200.121 143.176 201.333 144.755 201.66 145.169C201.436 145.378 201.21 145.585 200.987 145.795C199.918 146.803 198.855 147.813 197.779 148.775C197.4 149.115 197.013 149.436 196.627 149.759C196.83 149.508 196.998 149.294 197.02 149.26C197.694 148.187 198.296 145.759 197.258 144.744C196.51 144.013 195.265 144.128 194.562 144.842C193.845 145.571 193.822 146.77 194.023 147.673C194.218 148.546 195.321 150.012 195.707 150.506C195.301 150.826 194.894 151.147 194.485 151.441C194.2 151.635 193.941 151.841 193.642 152.022C193.352 152.207 193.064 152.391 192.778 152.572C192.215 152.903 191.635 153.248 191.076 153.559C190.689 153.778 190.316 153.98 189.941 154.184C190.322 153.85 191.054 153.183 191.108 153.121C191.671 152.477 192.299 151.239 192.409 150.143C192.492 150.049 192.566 149.948 192.629 149.841C193.123 148.997 192.803 147.907 191.78 147.535C190.359 147.018 188.049 148.383 187.172 149.329C187.121 149.385 186.635 150.047 186.337 150.469C186.47 150.197 186.603 149.934 186.737 149.652C187.006 149.096 187.256 148.535 187.528 147.931C187.648 147.636 187.769 147.338 187.891 147.036C188.02 146.739 188.113 146.411 188.227 146.097C188.473 145.362 188.683 144.606 188.876 143.841C189.416 144.052 191.348 144.776 192.375 144.766C193.396 144.755 194.694 144.487 195.337 143.704C195.966 142.937 195.834 141.816 194.885 141.309C193.568 140.604 191.054 141.638 190.029 142.454C189.965 142.505 189.303 143.164 188.947 143.533C189.059 143.072 189.173 142.612 189.269 142.143C189.548 140.787 189.782 139.408 190.023 138.032C190.097 137.61 190.176 137.191 190.253 136.771C190.445 136.848 192.721 137.753 193.87 137.742C194.892 137.733 196.19 137.464 196.833 136.681C197.462 135.914 197.33 134.793 196.381 134.285C195.064 133.581 192.55 134.615 191.525 135.43C191.448 135.492 190.496 136.443 190.268 136.695C190.438 135.77 190.617 134.85 190.835 133.95C191.134 132.707 191.503 131.502 191.957 130.359C192.047 130.396 194.417 131.35 195.594 131.338C196.616 131.329 197.914 131.06 198.557 130.277C199.186 129.51 199.054 128.389 198.105 127.882C196.788 127.177 194.274 128.211 193.25 129.026C193.182 129.08 192.456 129.804 192.12 130.155C192.078 130.133 192.086 130.137 192.045 130.115C192.547 128.896 193.204 127.771 193.877 126.747C194.265 126.153 194.673 125.604 195.083 125.078C195.504 125.297 197.442 126.276 198.503 126.372C199.519 126.463 200.843 126.325 201.577 125.61C202.296 124.91 202.301 123.782 201.42 123.184C200.196 122.354 197.572 123.132 196.454 123.841C196.394 123.88 195.823 124.334 195.413 124.67C195.602 124.435 195.793 124.19 195.979 123.968C196.676 123.135 197.371 122.41 197.993 121.773C198.349 121.413 198.68 121.095 198.992 120.799C199.53 120.819 201.697 120.876 202.67 120.527C203.619 120.186 204.722 119.514 205.008 118.575C205.288 117.655 204.716 116.652 203.628 116.487C202.117 116.258 200.187 118.038 199.557 119.132C199.503 119.226 198.841 120.793 198.869 120.794C198.869 120.794 198.895 120.795 198.901 120.795C198.594 121.074 198.268 121.377 197.92 121.713C197.282 122.339 196.567 123.052 195.847 123.875C195.126 124.696 194.367 125.606 193.664 126.629C192.958 127.654 192.274 128.765 191.733 129.992C191.727 130.006 191.723 130.021 191.716 130.035C191.751 129.632 191.806 128.502 191.799 128.415C191.704 127.186 190.718 124.861 189.231 124.53C188.16 124.291 187.192 125.006 187.043 125.951C186.889 126.914 187.605 127.926 188.325 128.579Z" fill="#9FCEB3"/>
<path d="M66.7015 137.596C66.6917 137.619 65.2376 136.573 65.1546 136.497C64.1906 135.623 62.8981 133.424 63.6015 132.198C64.1081 131.315 65.343 131.13 66.2298 131.651C67.1353 132.184 67.5089 133.335 67.5794 134.254C67.6629 135.331 66.7024 137.594 66.7015 137.596Z" fill="#9FCEB3"/>
<path d="M88.0983 122.467C87.5074 123.407 85.3205 124.817 85.3187 124.818C85.296 124.832 84.7247 123.238 84.7011 123.133C84.4324 121.925 84.7015 119.448 86.0386 118.775C87.0022 118.291 88.1452 118.75 88.566 119.626C88.9954 120.52 88.6017 121.666 88.0983 122.467Z" fill="#9FCEB3"/>
<path d="M92.0304 128.579C91.2181 129.315 88.8813 130.111 88.6952 130.174C89.1986 131.346 89.6092 132.586 89.948 133.862C90.1425 134.591 90.3139 135.331 90.4746 136.074C90.4572 135.725 90.4442 135.412 90.4478 135.368C90.5429 134.139 91.5283 131.815 93.0154 131.484C94.087 131.246 95.0545 131.961 95.2036 132.905C95.3558 133.869 94.6399 134.881 93.9196 135.534C93.189 136.196 91.2114 136.911 90.6852 137.094C90.7437 137.38 90.8057 137.665 90.8629 137.95C91.1373 139.323 91.4051 140.694 91.7131 142.031C91.8211 142.502 91.9469 142.963 92.071 143.424C92.0563 143.113 92.0465 142.852 92.0491 142.812C92.1442 141.583 93.1296 139.258 94.6167 138.927C95.6883 138.689 96.6559 139.404 96.8049 140.348C96.9571 141.313 96.2413 142.324 95.5209 142.977C94.8234 143.609 93.0051 144.284 92.3812 144.503C92.524 144.972 92.6664 145.442 92.8284 145.891C92.9467 146.195 93.0373 146.495 93.1747 146.794C93.3041 147.093 93.4322 147.389 93.559 147.682C93.8263 148.238 94.0981 148.814 94.3744 149.351C94.5627 149.726 94.7506 150.08 94.9385 150.437C94.8247 149.969 94.623 149.049 94.6158 148.97C94.5029 147.742 95.0862 145.31 96.5006 144.78C97.5195 144.398 98.5964 144.973 98.9026 145.886C99.215 146.819 98.6776 147.916 98.0756 148.66C97.4124 149.478 95.3272 150.549 95.0657 150.681C95.3786 151.271 95.6892 151.842 95.9922 152.377C97.0339 154.227 97.9801 155.734 98.6584 156.78L97.8274 157.342C97.8078 157.31 97.7895 157.281 97.7694 157.248C97.1084 156.176 96.1877 154.633 95.1786 152.739C94.8582 152.141 94.5288 151.496 94.1976 150.832C94.012 150.877 92.9529 151.13 91.9309 151.255C91.8135 152.29 90.8031 154.092 90.671 154.324C91.2931 154.66 91.9023 154.982 92.4821 155.278C94.486 156.305 96.1989 157.091 97.4057 157.627L96.4939 158.243C95.3263 157.69 93.7884 156.934 92.0255 155.984C91.3922 155.645 90.7227 155.271 90.0394 154.881C89.8453 155.08 88.2467 156.7 87.2193 157.115C86.2874 157.492 84.9833 157.738 84.0353 157.27C83.107 156.811 82.7058 155.743 83.3315 154.924C84.2 153.788 86.9626 153.778 88.273 154.131C88.3502 154.152 89.1607 154.463 89.6686 154.667C89.3901 154.506 89.1183 154.353 88.834 154.184C88.2694 153.855 87.7169 153.511 87.1211 153.142C86.8404 152.956 86.5565 152.767 86.27 152.576C85.9812 152.392 85.7023 152.166 85.4149 151.959C84.7592 151.469 84.1215 150.943 83.4917 150.4C83.17 150.845 82.0015 152.409 81.1397 152.91C80.2819 153.41 79.0345 153.831 78.0187 153.497C77.0239 153.171 76.4478 152.17 76.9284 151.275C77.5961 150.033 80.3252 149.646 81.6798 149.817C81.7641 149.828 82.721 150.049 83.244 150.179C82.8683 149.85 82.4916 149.524 82.1238 149.18C81.0612 148.188 80.0204 147.153 78.9765 146.126C78.657 145.811 78.3347 145.501 78.0129 145.189C77.9005 145.348 76.5567 147.234 75.5913 147.796C74.7331 148.295 73.4861 148.716 72.4703 148.383C71.4755 148.056 70.8993 147.055 71.38 146.16C72.0472 144.918 74.7768 144.531 76.1313 144.702C76.2335 144.715 77.6095 145.035 77.9549 145.132C77.2462 144.446 76.533 143.767 75.8002 143.125C74.7898 142.237 73.7441 141.415 72.6658 140.687C72.6136 140.762 71.2207 142.735 70.2321 143.311C69.3739 143.81 68.1269 144.232 67.1107 143.898C66.1159 143.571 65.5397 142.57 66.0204 141.675C66.688 140.434 69.4167 140.046 70.7712 140.217C70.8601 140.229 71.9084 140.471 72.4043 140.597C72.4252 140.558 72.4217 140.565 72.4422 140.526C71.2765 139.759 70.0402 139.148 68.8517 138.627C68.164 138.325 67.4878 138.07 66.8233 137.835C66.6059 138.227 65.5897 140.007 64.7636 140.613C63.9714 141.195 62.7833 141.737 61.7327 141.506C60.704 141.279 60.0091 140.341 60.3782 139.404C60.8901 138.104 63.5554 137.449 64.9225 137.485C64.997 137.487 65.7504 137.582 66.298 137.659C65.9967 137.557 65.6874 137.447 65.3964 137.355C64.3048 137.006 63.2814 136.747 62.3727 136.525C61.855 136.402 61.3842 136.3 60.9423 136.209C60.5063 136.493 58.7331 137.617 57.708 137.809C56.7078 137.996 55.3756 137.984 54.5616 137.343C53.7645 136.715 53.6279 135.594 54.4344 134.915C55.5541 133.974 58.2543 134.499 59.4495 135.099C59.5526 135.151 61.0646 136.128 61.0419 136.143C61.0419 136.143 61.0209 136.156 61.0155 136.16C61.4426 136.24 61.8992 136.33 62.3964 136.438C63.3122 136.643 64.3449 136.882 65.4491 137.211C66.5537 137.537 67.7435 137.92 68.9566 138.424C70.1732 138.928 71.4246 139.514 72.627 140.268C72.6408 140.277 72.6537 140.287 72.6671 140.296C72.3918 139.977 71.654 139.062 71.6063 138.986C70.9328 137.914 70.3307 135.485 71.3684 134.47C72.116 133.739 73.3616 133.854 74.0641 134.568C74.7813 135.297 74.804 136.496 74.6032 137.399C74.3765 138.416 72.9148 140.241 72.7979 140.386C73.936 141.114 75.0379 141.944 76.1019 142.84C76.7106 143.351 77.3064 143.883 77.896 144.423C77.6675 144.14 77.4658 143.886 77.4417 143.848C76.7682 142.775 76.1666 140.347 77.2038 139.332C77.9514 138.601 79.197 138.716 79.8995 139.43C80.6171 140.159 80.6394 141.358 80.4386 142.261C80.2346 143.176 79.0234 144.755 78.6962 145.169C78.9198 145.378 79.1461 145.585 79.3688 145.795C80.4382 146.803 81.5008 147.814 82.5768 148.776C82.9557 149.115 83.3431 149.436 83.7287 149.759C83.5261 149.508 83.3579 149.295 83.336 149.26C82.6625 148.187 82.0605 145.759 83.0986 144.744C83.8461 144.013 85.0913 144.128 85.7942 144.842C86.5114 145.571 86.5342 146.77 86.3329 147.673C86.1383 148.546 85.0346 150.012 84.649 150.506C85.0556 150.826 85.4617 151.147 85.8714 151.441C86.1562 151.635 86.4155 151.841 86.7136 152.022C87.0046 152.207 87.2925 152.391 87.5781 152.572C88.1418 152.903 88.7211 153.248 89.2803 153.559C89.6672 153.778 90.0403 153.98 90.4157 154.184C90.0341 153.85 89.3022 153.183 89.2481 153.121C88.6858 152.478 88.0574 151.239 87.9476 150.144C87.8642 150.049 87.7901 149.948 87.7272 149.841C87.234 148.997 87.5535 147.907 88.5769 147.535C89.9975 147.018 92.308 148.383 93.1841 149.329C93.2359 149.385 93.7214 150.047 94.02 150.469C93.8861 150.197 93.7531 149.934 93.6192 149.652C93.3506 149.096 93.1002 148.535 92.8284 147.931C92.7088 147.636 92.5878 147.338 92.4655 147.036C92.337 146.739 92.2437 146.411 92.1299 146.097C91.8836 145.362 91.6738 144.606 91.481 143.841C90.9401 144.052 89.0085 144.776 87.982 144.766C86.9604 144.756 85.6621 144.487 85.0194 143.704C84.3902 142.937 84.5223 141.816 85.4715 141.309C86.789 140.604 89.3022 141.638 90.3273 142.454C90.3911 142.505 91.0539 143.164 91.41 143.533C91.298 143.072 91.1838 142.612 91.0874 142.143C90.8089 140.787 90.5741 139.408 90.3327 138.032C90.259 137.61 90.18 137.191 90.1028 136.771C89.9114 136.848 87.6352 137.753 86.486 137.742C85.4644 137.733 84.1661 137.464 83.523 136.681C82.8937 135.914 83.0258 134.793 83.9751 134.285C85.2926 133.581 87.8057 134.615 88.8309 135.43C88.9081 135.492 89.8596 136.443 90.0885 136.695C89.9181 135.77 89.7386 134.85 89.5208 133.95C89.2223 132.707 88.8527 131.502 88.3988 130.36C88.31 130.396 85.9393 131.35 84.7619 131.338C83.7403 131.329 82.442 131.06 81.7989 130.277C81.1696 129.51 81.3017 128.389 82.251 127.882C83.5685 127.177 86.0816 128.211 87.1068 129.026C87.1742 129.08 87.9008 129.804 88.2368 130.155C88.2783 130.133 88.2708 130.137 88.3118 130.115C87.8093 128.896 87.1523 127.771 86.4797 126.747C86.0915 126.153 85.6835 125.604 85.2729 125.078C84.8516 125.297 82.9142 126.276 81.8534 126.372C80.8367 126.463 79.5134 126.325 78.7792 125.61C78.0603 124.91 78.0549 123.782 78.9363 123.184C80.1597 122.354 82.7839 123.132 83.9023 123.841C83.963 123.88 84.533 124.334 84.9431 124.67C84.7539 124.435 84.5633 124.19 84.3772 123.968C83.6805 123.135 82.9852 122.41 82.3635 121.773C82.0069 121.413 81.6762 121.095 81.3638 120.799C80.826 120.819 78.6587 120.876 77.6863 120.527C76.7374 120.186 75.6337 119.514 75.3476 118.575C75.0678 117.655 75.64 116.652 76.728 116.487C78.2388 116.259 80.169 118.038 80.7988 119.132C80.8532 119.227 81.5155 120.793 81.4874 120.794C81.4874 120.794 81.4611 120.796 81.4553 120.796C81.7623 121.075 82.0881 121.377 82.4367 121.713C83.0749 122.339 83.7894 123.052 84.5093 123.875C85.231 124.696 85.9893 125.606 86.6922 126.629C87.3982 127.654 88.0829 128.765 88.6238 129.992C88.6296 130.006 88.634 130.021 88.6403 130.035C88.6059 129.632 88.551 128.502 88.5577 128.415C88.6528 127.186 89.6382 124.861 91.1253 124.53C92.1969 124.291 93.1645 125.006 93.3135 125.951C93.4666 126.914 92.7507 127.926 92.0304 128.579Z" fill="#9FCEB3"/>
<path opacity="0.3" d="M88.0983 122.467C87.5074 123.407 85.3205 124.817 85.3187 124.818C85.296 124.832 84.7247 123.238 84.7011 123.133C84.4324 121.925 84.7015 119.448 86.0386 118.775C87.0022 118.291 88.1452 118.75 88.566 119.626C88.9954 120.52 88.6017 121.666 88.0983 122.467Z" fill="#9FCEB3"/>
<path opacity="0.3" d="M66.7015 137.596C66.6917 137.619 65.2376 136.573 65.1546 136.497C64.1906 135.623 62.8981 133.424 63.6015 132.198C64.1081 131.315 65.343 131.13 66.2298 131.651C67.1353 132.184 67.5089 133.335 67.5794 134.254C67.6629 135.331 66.7024 137.594 66.7015 137.596Z" fill="#9FCEB3"/>
<path opacity="0.3" d="M92.0304 128.579C91.2181 129.315 88.8813 130.111 88.6952 130.174C89.1986 131.346 89.6092 132.586 89.948 133.862C90.1425 134.591 90.3139 135.331 90.4746 136.074C90.4572 135.725 90.4442 135.412 90.4478 135.368C90.5429 134.139 91.5283 131.815 93.0154 131.484C94.087 131.246 95.0545 131.961 95.2036 132.905C95.3558 133.869 94.6399 134.881 93.9196 135.534C93.189 136.196 91.2114 136.911 90.6852 137.094C90.7437 137.38 90.8057 137.665 90.8629 137.95C91.1373 139.323 91.4051 140.694 91.7131 142.031C91.8211 142.502 91.9469 142.963 92.071 143.424C92.0563 143.113 92.0465 142.852 92.0491 142.812C92.1442 141.583 93.1296 139.258 94.6167 138.927C95.6883 138.689 96.6559 139.404 96.8049 140.348C96.9571 141.313 96.2413 142.324 95.5209 142.977C94.8234 143.609 93.0051 144.284 92.3812 144.503C92.524 144.972 92.6664 145.442 92.8284 145.891C92.9467 146.195 93.0373 146.495 93.1747 146.794C93.3041 147.093 93.4322 147.389 93.559 147.682C93.8263 148.238 94.0981 148.814 94.3744 149.351C94.5627 149.726 94.7506 150.08 94.9385 150.437C94.8247 149.969 94.623 149.049 94.6158 148.97C94.5029 147.742 95.0862 145.31 96.5006 144.78C97.5195 144.398 98.5964 144.973 98.9026 145.886C99.215 146.819 98.6776 147.916 98.0756 148.66C97.4124 149.478 95.3272 150.549 95.0657 150.681C95.3786 151.271 95.6892 151.842 95.9922 152.377C97.0339 154.227 97.9801 155.734 98.6584 156.78L97.8274 157.342C97.8078 157.31 97.7895 157.281 97.7694 157.248C97.1084 156.176 96.1877 154.633 95.1786 152.739C94.8582 152.141 94.5288 151.496 94.1976 150.832C94.012 150.877 92.9529 151.13 91.9309 151.255C91.8135 152.29 90.8031 154.092 90.671 154.324C91.2931 154.66 91.9023 154.982 92.4821 155.278C94.486 156.305 96.1989 157.091 97.4057 157.627L96.4939 158.243C95.3263 157.69 93.7884 156.934 92.0255 155.984C91.3922 155.645 90.7227 155.271 90.0394 154.881C89.8453 155.08 88.2467 156.7 87.2193 157.115C86.2874 157.492 84.9833 157.738 84.0353 157.27C83.107 156.811 82.7058 155.743 83.3315 154.924C84.2 153.788 86.9626 153.778 88.273 154.131C88.3502 154.152 89.1607 154.463 89.6686 154.667C89.3901 154.506 89.1183 154.353 88.834 154.184C88.2694 153.855 87.7169 153.511 87.1211 153.142C86.8404 152.956 86.5565 152.767 86.27 152.576C85.9812 152.392 85.7023 152.166 85.4149 151.959C84.7592 151.469 84.1215 150.943 83.4917 150.4C83.17 150.845 82.0015 152.409 81.1397 152.91C80.2819 153.41 79.0345 153.831 78.0187 153.497C77.0239 153.171 76.4478 152.17 76.9284 151.275C77.5961 150.033 80.3252 149.646 81.6798 149.817C81.7641 149.828 82.721 150.049 83.244 150.179C82.8683 149.85 82.4916 149.524 82.1238 149.18C81.0612 148.188 80.0204 147.153 78.9765 146.126C78.657 145.811 78.3347 145.501 78.0129 145.189C77.9005 145.348 76.5567 147.234 75.5913 147.796C74.7331 148.295 73.4861 148.716 72.4703 148.383C71.4755 148.056 70.8993 147.055 71.38 146.16C72.0472 144.918 74.7768 144.531 76.1313 144.702C76.2335 144.715 77.6095 145.035 77.9549 145.132C77.2462 144.446 76.533 143.767 75.8002 143.125C74.7898 142.237 73.7441 141.415 72.6658 140.687C72.6136 140.762 71.2207 142.735 70.2321 143.311C69.3739 143.81 68.1269 144.232 67.1107 143.898C66.1159 143.571 65.5397 142.57 66.0204 141.675C66.688 140.434 69.4167 140.046 70.7712 140.217C70.8601 140.229 71.9084 140.471 72.4043 140.597C72.4252 140.558 72.4217 140.565 72.4422 140.526C71.2765 139.759 70.0402 139.148 68.8517 138.627C68.164 138.325 67.4878 138.07 66.8233 137.835C66.6059 138.227 65.5897 140.007 64.7636 140.613C63.9714 141.195 62.7833 141.737 61.7327 141.506C60.704 141.279 60.0091 140.341 60.3782 139.404C60.8901 138.104 63.5554 137.449 64.9225 137.485C64.997 137.487 65.7504 137.582 66.298 137.659C65.9967 137.557 65.6874 137.447 65.3964 137.355C64.3048 137.006 63.2814 136.747 62.3727 136.525C61.855 136.402 61.3842 136.3 60.9423 136.209C60.5063 136.493 58.7331 137.617 57.708 137.809C56.7078 137.996 55.3756 137.984 54.5616 137.343C53.7645 136.715 53.6279 135.594 54.4344 134.915C55.5541 133.974 58.2543 134.499 59.4495 135.099C59.5526 135.151 61.0646 136.128 61.0419 136.143C61.0419 136.143 61.0209 136.156 61.0155 136.16C61.4426 136.24 61.8992 136.33 62.3964 136.438C63.3122 136.643 64.3449 136.882 65.4491 137.211C66.5537 137.537 67.7435 137.92 68.9566 138.424C70.1732 138.928 71.4246 139.514 72.627 140.268C72.6408 140.277 72.6537 140.287 72.6671 140.296C72.3918 139.977 71.654 139.062 71.6063 138.986C70.9328 137.914 70.3307 135.485 71.3684 134.47C72.116 133.739 73.3616 133.854 74.0641 134.568C74.7813 135.297 74.804 136.496 74.6032 137.399C74.3765 138.416 72.9148 140.241 72.7979 140.386C73.936 141.114 75.0379 141.944 76.1019 142.84C76.7106 143.351 77.3064 143.883 77.896 144.423C77.6675 144.14 77.4658 143.886 77.4417 143.848C76.7682 142.775 76.1666 140.347 77.2038 139.332C77.9514 138.601 79.197 138.716 79.8995 139.43C80.6171 140.159 80.6394 141.358 80.4386 142.261C80.2346 143.176 79.0234 144.755 78.6962 145.169C78.9198 145.378 79.1461 145.585 79.3688 145.795C80.4382 146.803 81.5008 147.814 82.5768 148.776C82.9557 149.115 83.3431 149.436 83.7287 149.759C83.5261 149.508 83.3579 149.295 83.336 149.26C82.6625 148.187 82.0605 145.759 83.0986 144.744C83.8461 144.013 85.0913 144.128 85.7942 144.842C86.5114 145.571 86.5342 146.77 86.3329 147.673C86.1383 148.546 85.0346 150.012 84.649 150.506C85.0556 150.826 85.4617 151.147 85.8714 151.441C86.1562 151.635 86.4155 151.841 86.7136 152.022C87.0046 152.207 87.2925 152.391 87.5781 152.572C88.1418 152.903 88.7211 153.248 89.2803 153.559C89.6672 153.778 90.0403 153.98 90.4157 154.184C90.0341 153.85 89.3022 153.183 89.2481 153.121C88.6858 152.478 88.0574 151.239 87.9476 150.144C87.8642 150.049 87.7901 149.948 87.7272 149.841C87.234 148.997 87.5535 147.907 88.5769 147.535C89.9975 147.018 92.308 148.383 93.1841 149.329C93.2359 149.385 93.7214 150.047 94.02 150.469C93.8861 150.197 93.7531 149.934 93.6192 149.652C93.3506 149.096 93.1002 148.535 92.8284 147.931C92.7088 147.636 92.5878 147.338 92.4655 147.036C92.337 146.739 92.2437 146.411 92.1299 146.097C91.8836 145.362 91.6738 144.606 91.481 143.841C90.9401 144.052 89.0085 144.776 87.982 144.766C86.9604 144.756 85.6621 144.487 85.0194 143.704C84.3902 142.937 84.5223 141.816 85.4715 141.309C86.789 140.604 89.3022 141.638 90.3273 142.454C90.3911 142.505 91.0539 143.164 91.41 143.533C91.298 143.072 91.1838 142.612 91.0874 142.143C90.8089 140.787 90.5741 139.408 90.3327 138.032C90.259 137.61 90.18 137.191 90.1028 136.771C89.9114 136.848 87.6352 137.753 86.486 137.742C85.4644 137.733 84.1661 137.464 83.523 136.681C82.8937 135.914 83.0258 134.793 83.9751 134.285C85.2926 133.581 87.8057 134.615 88.8309 135.43C88.9081 135.492 89.8596 136.443 90.0885 136.695C89.9181 135.77 89.7386 134.85 89.5208 133.95C89.2223 132.707 88.8527 131.502 88.3988 130.36C88.31 130.396 85.9393 131.35 84.7619 131.338C83.7403 131.329 82.442 131.06 81.7989 130.277C81.1696 129.51 81.3017 128.389 82.251 127.882C83.5685 127.177 86.0816 128.211 87.1068 129.026C87.1742 129.08 87.9008 129.804 88.2368 130.155C88.2783 130.133 88.2708 130.137 88.3118 130.115C87.8093 128.896 87.1523 127.771 86.4797 126.747C86.0915 126.153 85.6835 125.604 85.2729 125.078C84.8516 125.297 82.9142 126.276 81.8534 126.372C80.8367 126.463 79.5134 126.325 78.7792 125.61C78.0603 124.91 78.0549 123.782 78.9363 123.184C80.1597 122.354 82.7839 123.132 83.9023 123.841C83.963 123.88 84.533 124.334 84.9431 124.67C84.7539 124.435 84.5633 124.19 84.3772 123.968C83.6805 123.135 82.9852 122.41 82.3635 121.773C82.0069 121.413 81.6762 121.095 81.3638 120.799C80.826 120.819 78.6587 120.876 77.6863 120.527C76.7374 120.186 75.6337 119.514 75.3476 118.575C75.0678 117.655 75.64 116.652 76.728 116.487C78.2388 116.259 80.169 118.038 80.7988 119.132C80.8532 119.227 81.5155 120.793 81.4874 120.794C81.4874 120.794 81.4611 120.796 81.4553 120.796C81.7623 121.075 82.0881 121.377 82.4367 121.713C83.0749 122.339 83.7894 123.052 84.5093 123.875C85.231 124.696 85.9893 125.606 86.6922 126.629C87.3982 127.654 88.0829 128.765 88.6238 129.992C88.6296 130.006 88.634 130.021 88.6403 130.035C88.6059 129.632 88.551 128.502 88.5577 128.415C88.6528 127.186 89.6382 124.861 91.1253 124.53C92.1969 124.291 93.1645 125.006 93.3135 125.951C93.4666 126.914 92.7507 127.926 92.0304 128.579Z" fill="#9FCEB3"/>
<path d="M140.996 194.679C170.027 194.679 193.561 173.481 193.561 147.332C193.561 121.183 170.027 99.985 140.996 99.985C111.966 99.985 88.4316 121.183 88.4316 147.332C88.4316 173.481 111.966 194.679 140.996 194.679Z" fill="#123922" stroke="#123922" stroke-width="0.402" stroke-miterlimit="10" stroke-linecap="round" stroke-linejoin="round"/>
<path d="M140.996 189.217C166.678 189.217 187.497 170.465 187.497 147.332C187.497 124.199 166.678 105.446 140.996 105.446C115.314 105.446 94.4941 124.199 94.4941 147.332C94.4941 170.465 115.314 189.217 140.996 189.217Z" fill="#2B8752"/>
<path opacity="0.2" d="M183.824 130.989C150.871 165.485 113.824 171.006 103.324 171.888C111.774 182.387 125.499 189.218 140.996 189.218C166.678 189.218 187.498 170.465 187.498 147.332C187.498 141.533 186.189 136.01 183.824 130.989Z" fill="#123922"/>
<path d="M141.824 147.252H160.342" stroke="#123922" stroke-width="2.01" stroke-miterlimit="10" stroke-linecap="round" stroke-linejoin="round"/>
<path d="M140.998 147.332V179.053" stroke="#123922" stroke-width="2.01" stroke-miterlimit="10" stroke-linecap="round" stroke-linejoin="round"/>
<path d="M140.998 149.617C142.399 149.617 143.535 148.594 143.535 147.332C143.535 146.07 142.399 145.046 140.998 145.046C139.597 145.046 138.461 146.07 138.461 147.332C138.461 148.594 139.597 149.617 140.998 149.617Z" fill="white" stroke="#123922" stroke-width="0.402" stroke-miterlimit="10" stroke-linecap="round" stroke-linejoin="round"/>
<path opacity="0.2" d="M153.788 101.258C153.788 101.258 153.394 105.35 150.628 107.307C147.862 109.264 146.677 109.798 146.677 109.798C146.677 109.798 147.665 114.602 147.665 119.228C147.665 123.854 146.193 127.159 146.282 128.302C146.371 129.444 146.677 134.173 146.48 135.596C146.282 137.02 145.887 140.756 144.11 142.002C142.332 143.247 139.764 140.4 139.764 140.4C139.764 140.4 140.159 150.008 140.159 152.499C140.159 154.99 137.789 157.481 136.603 155.702C135.418 153.922 135.616 150.186 135.616 148.407C135.616 146.628 135.418 129.191 135.023 124.209C134.628 119.227 134.035 104.46 134.035 104.46L134.43 100.368C134.43 100.368 142.727 96.9876 153.788 101.258Z" fill="#123922"/>
<path d="M135.109 140.719C135.109 140.719 135.109 142.347 134.135 145.103C133.162 147.858 132.744 152.994 134.552 153.746C136.36 154.497 138.864 152.243 138.864 150.614C138.864 148.986 138.864 148.109 138.864 146.982C138.864 145.854 139.42 144.101 139.281 142.848C139.141 141.595 136.638 140.092 135.109 140.719Z" fill="#2F945A" stroke="#123922" stroke-width="0.402" stroke-miterlimit="10" stroke-linecap="round" stroke-linejoin="round"/>
<path d="M152.072 83.724C152.072 83.724 152.628 89.3609 153.324 90.7385C154.019 92.1166 159.86 101.26 159.86 101.26C159.86 101.26 159.582 103.265 159.999 103.64C160.416 104.016 162.502 106.02 162.502 106.02C162.502 106.02 162.92 106.521 163.337 106.271C163.754 106.02 163.893 105.268 163.893 105.268C163.893 105.268 164.728 105.519 165.84 105.394C166.952 105.268 166.813 102.638 166.396 102.262C165.979 101.886 161.529 99.6316 161.529 99.6316C161.529 99.6316 159.025 88.6083 158.33 87.4811C157.635 86.3539 157.356 84.475 157.356 84.475V83.0969L152.072 83.724Z" fill="white" stroke="#123922" stroke-width="0.402" stroke-miterlimit="10" stroke-linecap="round" stroke-linejoin="round"/>
<path d="M163.893 105.27L162.502 103.14" stroke="#123922" stroke-width="0.402" stroke-miterlimit="10" stroke-linecap="round" stroke-linejoin="round"/>
<path d="M129.265 89.2355C129.265 89.2355 122.729 95.4986 122.729 98.1289C122.729 100.759 123.841 102.889 126.761 107.524C129.682 112.158 131.489 116.543 131.489 116.543C131.489 116.543 129.959 122.054 129.681 125.937C129.403 129.821 135.383 142.847 135.383 142.847C135.383 142.847 137.191 144.35 137.747 142.472C138.303 140.593 138.582 122.805 138.72 121.052C138.86 119.298 139.276 115.039 139.276 115.039L139.833 104.141C139.833 104.141 148.315 104.642 150.819 104.517C153.322 104.392 154.573 99.632 154.852 99.1307C155.13 98.6294 155.13 98.0035 155.13 98.0035C155.13 98.0035 156.103 95.8741 156.381 94.1202C156.659 92.3667 153.044 91.114 152.626 90.8632C152.209 90.6127 150.123 89.736 150.123 89.736L129.265 89.2355Z" fill="white" stroke="#123922" stroke-width="0.402" stroke-miterlimit="10" stroke-linecap="round" stroke-linejoin="round"/>
<path d="M152.628 90.8642C152.21 90.6137 150.124 89.737 150.124 89.737L129.265 89.2361C129.265 89.2361 122.729 95.4992 122.729 98.1295C122.729 99.9739 123.279 101.575 124.612 103.963C126.752 102.025 131.965 98.3711 138.304 101.512C140.232 102.467 141.702 103.408 142.861 104.305C145.555 104.439 149.296 104.594 150.82 104.518C153.323 104.393 154.575 99.633 154.853 99.1317C155.131 98.6308 155.131 98.0045 155.131 98.0045C155.131 98.0045 156.104 95.8751 156.382 94.1212C156.66 92.3673 153.045 91.115 152.628 90.8642Z" fill="#2F945A" stroke="#123922" stroke-width="0.402" stroke-miterlimit="10" stroke-linecap="round" stroke-linejoin="round"/>
<path d="M126.625 96.1253C126.625 96.1253 132.048 94.6223 137.472 95.499" stroke="#123922" stroke-width="0.402" stroke-miterlimit="10" stroke-linecap="round" stroke-linejoin="round"/>
<path d="M130.381 96.6264C130.381 96.6264 133.301 96.501 136.222 97.7536" stroke="#123922" stroke-width="0.402" stroke-miterlimit="10" stroke-linecap="round" stroke-linejoin="round"/>
<path d="M141.365 94.622C141.365 94.622 145.815 92.6177 152.351 94.622" stroke="#123922" stroke-width="0.402" stroke-miterlimit="10" stroke-linecap="round" stroke-linejoin="round"/>
<path d="M136.672 65.4719C136.672 65.4719 126.303 65.9957 126.012 66.3446C125.721 66.694 115.934 72.4546 115.934 72.4546L117.581 81.2709L127.756 77.5174C127.756 77.5174 127.466 83.715 127.368 85.5478C127.271 87.3809 126.496 88.5157 127.078 88.9519C127.659 89.3885 130.373 90.2612 130.373 90.2612H150.045C150.045 90.2612 151.886 88.7774 151.983 88.2536C152.08 87.7298 151.208 85.8967 151.208 85.3733C151.208 84.8499 151.208 84.4129 151.208 84.4129C151.208 84.4129 153.34 85.635 155.666 85.3733C157.991 85.1116 159.251 83.9767 159.251 83.9767C159.251 83.9767 158.185 77.6919 157.991 75.8588C157.798 74.0256 158.67 68.4394 158.088 68.2646C157.507 68.0901 148.494 66.4315 146.168 65.8204C143.843 65.2098 136.672 65.4719 136.672 65.4719Z" fill="#2F945A" stroke="#123922" stroke-width="0.402" stroke-miterlimit="10" stroke-linecap="round" stroke-linejoin="round"/>
<path d="M139.725 72.0183C143.017 72.0183 145.685 69.8495 145.685 67.1738C145.685 66.6484 145.579 66.1435 145.389 65.6699C142.55 65.2571 136.673 65.4717 136.673 65.4717C136.673 65.4717 135.575 65.5272 134.087 65.6141C133.882 66.1041 133.766 66.6275 133.766 67.1742C133.766 69.8495 136.434 72.0183 139.725 72.0183Z" fill="white" stroke="#123922" stroke-width="0.402" stroke-miterlimit="10" stroke-linecap="round" stroke-linejoin="round"/>
<path d="M127.756 77.5179L125.721 70.9709" stroke="#123922" stroke-width="0.402" stroke-miterlimit="10" stroke-linecap="round" stroke-linejoin="round"/>
<path d="M127.658 76.7317L124.654 72.3676" stroke="#123922" stroke-width="0.402" stroke-miterlimit="10" stroke-linecap="round" stroke-linejoin="round"/>
<path d="M151.205 84.4134L152.949 79.3506L153.919 74.2006" stroke="#123922" stroke-width="0.402" stroke-miterlimit="10" stroke-linecap="round" stroke-linejoin="round"/>
<path d="M153.436 78.041C153.436 78.041 154.792 75.5096 155.664 73.5893" stroke="#123922" stroke-width="0.402" stroke-miterlimit="10" stroke-linecap="round" stroke-linejoin="round"/>
<path d="M139.094 90.1746C139.094 90.1746 142.389 89.4763 145.49 87.8177" stroke="#123922" stroke-width="0.402" stroke-miterlimit="10" stroke-linecap="round" stroke-linejoin="round"/>
<path d="M142.486 88.6037C142.486 88.6037 144.328 87.3816 146.557 85.7233" stroke="#123922" stroke-width="0.402" stroke-miterlimit="10" stroke-linecap="round" stroke-linejoin="round"/>
<path d="M135.413 67.4801C135.413 67.4801 135.606 66.869 135.606 65.9963C135.606 65.1236 134.734 62.1556 134.734 62.1556C134.734 62.1556 130.373 61.9811 130.082 61.4573C129.792 60.9335 130.664 56.2201 130.664 56.2201C130.664 56.2201 129.598 54.9107 129.598 54.4742C129.598 54.0376 130.858 53.9504 131.439 53.6014C132.021 53.2521 133.086 52.7287 133.086 52.2921C133.086 51.8555 134.734 50.7211 134.734 50.7211C134.734 50.7211 136.284 49.1501 139.87 49.6735C143.455 50.1973 145.975 52.9904 146.169 55.6962C146.363 58.4021 143.94 61.1956 143.746 62.2428C143.553 63.2904 143.843 65.7342 144.231 66.5201" fill="white"/>
<path d="M135.413 67.4801C135.413 67.4801 135.606 66.869 135.606 65.9963C135.606 65.1236 134.734 62.1556 134.734 62.1556C134.734 62.1556 130.373 61.9811 130.082 61.4573C129.792 60.9335 130.664 56.2201 130.664 56.2201C130.664 56.2201 129.598 54.9107 129.598 54.4742C129.598 54.0376 130.858 53.9504 131.439 53.6014C132.021 53.2521 133.086 52.7287 133.086 52.2921C133.086 51.8555 134.734 50.7211 134.734 50.7211C134.734 50.7211 136.284 49.1501 139.87 49.6735C143.455 50.1973 145.975 52.9904 146.169 55.6962C146.363 58.4021 143.94 61.1956 143.746 62.2428C143.553 63.2904 143.843 65.7342 144.231 66.5201" stroke="#123922" stroke-width="0.402" stroke-miterlimit="10" stroke-linecap="round" stroke-linejoin="round"/>
<path d="M134.736 62.1553L136.846 61.9921L135.096 63.4373L134.736 62.1553Z" fill="#123922" stroke="#123922" stroke-width="0.402" stroke-miterlimit="10" stroke-linecap="round" stroke-linejoin="round"/>
<path d="M134.154 51.157C134.154 51.157 132.603 47.8401 135.898 46.2687C139.192 44.6973 144.329 47.3163 148.011 50.3711C151.694 53.4263 153.922 60.0601 153.147 61.6311C152.372 63.2021 145.104 65.1225 143.263 65.6463C141.421 66.1701 138.902 66.9556 138.708 66.3446C138.514 65.7335 137.254 52.8149 136.867 52.0294C136.479 51.2443 136.576 49.8477 134.154 51.157Z" fill="#123922" stroke="#123922" stroke-width="0.402" stroke-miterlimit="10" stroke-linecap="round" stroke-linejoin="round"/>
<path d="M134.598 53.6971C134.414 54.0187 134.13 54.2164 133.964 54.1393C133.797 54.0621 133.811 53.7389 133.995 53.4173C134.179 53.0957 134.463 52.8979 134.629 52.9751C134.796 53.0523 134.782 53.3755 134.598 53.6971Z" fill="#123922"/>
<path d="M131.148 57.4415C131.148 57.4415 131.827 57.8781 132.796 57.3542" stroke="#123922" stroke-width="0.402" stroke-miterlimit="10" stroke-linecap="round" stroke-linejoin="round"/>
<path d="M134.248 52.1169C134.248 52.1169 135.314 51.3314 135.702 52.6407" stroke="#123922" stroke-width="0.402" stroke-miterlimit="10" stroke-linecap="round" stroke-linejoin="round"/>
<path d="M116.031 73.1534L110.507 56.8306C110.507 56.8306 109.538 54.4737 108.665 53.5137C107.793 52.5537 106.437 50.9823 105.758 50.6334C105.08 50.284 104.983 51.0699 105.274 51.4189C105.564 51.7682 106.146 52.5537 106.533 52.9899C106.921 53.4265 106.921 54.9102 106.921 54.9102C106.921 54.9102 104.886 57.0923 105.661 57.7906C106.437 58.4888 108.472 59.9726 108.472 59.9726C108.472 59.9726 110.894 76.5575 110.992 77.9541C111.088 79.3506 112.445 79.6127 112.445 79.6127L117 78.6528L116.031 73.1534Z" fill="white" stroke="#123922" stroke-width="0.402" stroke-miterlimit="10" stroke-linecap="round" stroke-linejoin="round"/>
<path d="M106.728 54.2115L105.371 54.6481C105.371 54.6481 104.311 56.7071 104.311 57.1437C104.311 57.5802 105.371 58.2271 105.952 58.2271C106.534 58.2271 107.019 56.1322 107.019 56.1322L106.728 54.2115Z" fill="white" stroke="#123922" stroke-width="0.402" stroke-miterlimit="10" stroke-linecap="round" stroke-linejoin="round"/>
<path d="M104.523 56.6137C104.523 56.6137 105.699 57.4322 106.501 57.4322" stroke="#123922" stroke-width="0.402" stroke-miterlimit="10" stroke-linecap="round" stroke-linejoin="round"/>
<path d="M105.059 55.5547C105.059 55.5547 105.486 56.4697 106.769 56.6623" stroke="#123922" stroke-width="0.402" stroke-miterlimit="10" stroke-linecap="round" stroke-linejoin="round"/>
<path d="M108.063 55.0819C108.063 55.0819 106.532 54.8226 106.048 55.0847C105.563 55.3464 104.109 56.0451 104.109 56.3068C104.109 56.5685 104.788 56.8306 105.272 56.5685C105.757 56.3064 106.048 56.2191 106.048 56.2191H106.629C106.629 56.2191 106.823 57.7902 108.761 57.965" fill="white"/>
<path d="M108.063 55.0819C108.063 55.0819 106.532 54.8226 106.048 55.0847C105.563 55.3464 104.109 56.0451 104.109 56.3068C104.109 56.5685 104.788 56.8306 105.272 56.5685C105.757 56.3064 106.048 56.2191 106.048 56.2191H106.629C106.629 56.2191 106.823 57.7902 108.761 57.965" stroke="#123922" stroke-width="0.402" stroke-miterlimit="10" stroke-linecap="round" stroke-linejoin="round"/>
<path d="M141.228 123.808C141.228 123.808 141.228 126.939 141.228 129.821C141.228 132.702 139.837 135.332 140.533 136.209C141.228 137.085 143.314 137.336 144.983 135.833C146.651 134.33 146.791 131.824 146.373 129.445C145.956 127.065 145.122 124.058 145.122 124.058C145.122 124.058 142.062 121.678 141.228 123.808Z" fill="#2F945A" stroke="#123922" stroke-width="0.402" stroke-miterlimit="10" stroke-linecap="round" stroke-linejoin="round"/>
<path d="M151.38 104.518C151.38 104.518 151.519 100.384 150.129 97.8787C148.738 95.3734 143.315 93.6199 139.281 93.244C135.249 92.8682 134.414 95.4989 134.136 97.3778C133.858 99.2568 134.831 107.023 135.944 109.152C137.056 111.282 141.089 122.18 141.229 123.808C141.368 125.437 142.202 126.814 143.593 126.438C144.983 126.063 145.122 124.184 145.122 122.054C145.122 119.925 145.539 116.793 145.957 112.534C146.374 108.276 146.096 106.021 146.096 106.021C146.096 106.021 148.877 106.773 151.38 104.518Z" fill="white" stroke="#123922" stroke-width="0.402" stroke-miterlimit="10" stroke-linecap="round" stroke-linejoin="round"/>
<path d="M146.093 106.021C146.093 106.021 145.259 100.134 142.061 97.2529" stroke="#123922" stroke-width="0.402" stroke-miterlimit="10" stroke-linecap="round" stroke-linejoin="round"/>
<path d="M212.48 74.3267L210.315 72.3807C208.955 71.1436 207.807 70.0615 206.872 69.1345C205.937 68.2076 205.18 67.3612 204.603 66.5952C204.025 65.8292 203.61 65.109 203.358 64.4345C203.106 63.7601 202.98 63.0653 202.98 62.35C202.98 60.9308 203.459 59.7452 204.416 58.7932C205.373 57.8414 206.561 57.3655 207.98 57.3655C208.853 57.3655 209.678 57.5696 210.455 57.978C211.232 58.3863 211.907 58.9719 212.48 59.7347C213.053 58.9719 213.728 58.3863 214.505 57.978C215.282 57.5696 216.107 57.3655 216.98 57.3655C218.234 57.3655 219.292 57.735 220.154 58.474C221.017 59.2131 221.576 60.1385 221.832 61.25H220.255C220.026 60.5065 219.607 59.9231 218.998 59.5C218.389 59.0768 217.716 58.8652 216.98 58.8652C216.15 58.8652 215.415 59.0944 214.776 59.5527C214.137 60.0111 213.534 60.6601 212.969 61.5H211.992C211.43 60.6538 210.819 60.0031 210.157 59.548C209.496 59.0928 208.77 58.8652 207.98 58.8652C207.018 58.8652 206.194 59.1961 205.508 59.8577C204.823 60.5192 204.48 61.35 204.48 62.35C204.48 62.9063 204.597 63.4711 204.83 64.0442C205.064 64.6172 205.48 65.2778 206.08 66.026C206.68 66.774 207.497 67.6502 208.53 68.6547C209.564 69.6592 210.88 70.8743 212.48 72.3C212.952 71.8781 213.457 71.4301 213.996 70.9557C214.534 70.4814 214.988 70.068 215.357 69.7155L215.525 69.8827L215.892 70.25L216.259 70.6172L216.426 70.7845C216.047 71.1371 215.595 71.5449 215.07 72.0077C214.545 72.4706 214.05 72.9128 213.584 73.3345L212.48 74.3267ZM219.346 70.75V67.75H216.346V66.25H219.346V63.25H220.846V66.25H223.846V67.75H220.846V70.75H219.346Z" fill="#2F945A"/>
<path d="M175.73 35.75H177.23V29.25H175.73V35.75ZM178.73 34.25H180.23V30.25H178.73V34.25ZM172.73 33.75H174.23V30.25H172.73V33.75ZM170.98 43.5V39.4693C170.03 38.6026 169.293 37.6093 168.768 36.4895C168.243 35.3695 167.98 34.204 167.98 32.993C167.98 30.6338 168.807 28.6286 170.46 26.9773C172.112 25.3258 174.119 24.5 176.48 24.5C178.423 24.5 180.16 25.0805 181.691 26.2415C183.222 27.4023 184.217 28.9084 184.675 30.7598L185.843 35.3743C185.918 35.6594 185.865 35.9183 185.684 36.151C185.504 36.3837 185.263 36.5 184.961 36.5H182.98V39.6923C182.98 40.1894 182.803 40.615 182.449 40.969C182.095 41.323 181.67 41.5 181.173 41.5H178.98V43.5H177.48V40H181.173C181.263 40 181.336 39.9712 181.394 39.9135C181.452 39.8558 181.48 39.7821 181.48 39.6923V35H184.18L183.23 31.125C182.847 29.602 182.027 28.3671 180.771 27.4202C179.514 26.4734 178.084 26 176.48 26C174.547 26 172.897 26.6759 171.53 28.0277C170.164 29.3796 169.48 31.0235 169.48 32.9595C169.48 33.958 169.685 34.9065 170.093 35.805C170.501 36.7035 171.08 37.5022 171.83 38.201L172.48 38.8V43.5H170.98Z" fill="#2F945A"/>
<path d="M76.7204 43.7501L76.3742 33.8751L72.1722 32.7501H65.4414V31.2501H71.5569L78.8934 26.0481L79.8664 27.1886L75.4377 30.3558L78.7012 30.7886L86.2222 26.3173L87.1144 27.3616L78.8644 33.7021L78.2394 43.7501H76.7204ZM70.5762 29.8463C70.0685 29.8463 69.6338 29.6655 69.2722 29.3038C68.9107 28.9423 68.7299 28.5078 68.7299 28.0001C68.7299 27.4924 68.9107 27.0578 69.2722 26.6963C69.6338 26.3347 70.0685 26.1538 70.5762 26.1538C71.0838 26.1538 71.5184 26.3347 71.8799 26.6963C72.2414 27.0578 72.4222 27.4924 72.4222 28.0001C72.4222 28.5078 72.2414 28.9423 71.8799 29.3038C71.5184 29.6655 71.0838 29.8463 70.5762 29.8463Z" fill="#2F945A"/>
<path d="M38.9763 83.65L37.8263 82.5L41.3763 78.95L32.5301 70.1037L28.9801 73.6537L27.8301 72.5037L29.2493 71.0537L28.0993 69.9037L30.1993 67.8037L28.7993 66.373L29.8531 65.3192L31.2838 66.7192L33.3838 64.6192L34.5338 65.7692L35.9838 64.35L37.1338 65.5L33.5838 69.05L42.4301 77.8962L45.9801 74.3462L47.1301 75.4962L45.7108 76.9462L46.8608 78.0962L44.7608 80.1962L46.1608 81.627L45.1071 82.6807L43.6763 81.2807L41.5763 83.3807L40.4263 82.2307L38.9763 83.65Z" fill="#2F945A"/>
</g>
<defs>
<clipPath id="clip0_4033_17369">
<path d="M0 10C0 4.47716 4.47715 0 10 0H262C267.523 0 272 4.47715 272 10V200H0V10Z" fill="white"/>
</clipPath>
</defs>
</svg>
