<svg width="272" height="176" viewBox="0 0 272 176" fill="none" xmlns="http://www.w3.org/2000/svg">
<path d="M0 10C0 4.47715 4.47715 0 10 0H262C267.523 0 272 4.47715 272 10V176H0V10Z" fill="white"/>
<g clip-path="url(#clip0_4044_5124)">
<path d="M0 10C0 4.47715 4.47715 0 10 0H262C267.523 0 272 4.47715 272 10V176H0V10Z" fill="#EAF4EF"/>
<path d="M122.654 85.949C122.069 84.571 121.48 83.1818 121.176 81.7158C120.872 80.2497 120.87 78.6837 121.437 77.2978C122.004 75.9119 123.203 74.7385 124.671 74.4484C125.578 74.2695 126.547 74.4219 127.415 74.1021C128.418 73.7319 129.09 72.81 129.871 72.0791C131.092 70.9374 132.691 70.2081 134.353 70.0358C135.226 69.9453 136.139 70.0114 136.922 70.4069C137.705 70.8019 138.335 71.5696 138.399 72.4444C139.422 72.101 140.46 71.7547 141.538 71.6882C142.615 71.6221 143.755 71.8675 144.563 72.584C145.371 73.3005 145.748 74.5484 145.263 75.5124C146.145 75.0029 147.382 75.3987 147.923 76.2619C148.464 77.1251 148.342 78.3081 147.753 79.1386C147.164 79.9692 145.794 80.7096 144.785 80.8472C143.776 80.9848 142.602 81.0827 141.637 80.758" fill="#1F212C"/>
<path d="M125.121 115.056L139.587 113.901C139.677 112.213 139.556 105.679 139.556 105.679C139.556 105.679 145.574 104.743 145.649 98.7254C145.723 92.708 144.68 78.8901 144.68 78.8901C137.714 75.8965 129.673 76.9072 123.665 81.5317L122.773 82.218L125.121 115.056Z" fill="#EDBC9C"/>
<path d="M139.57 105.592C139.57 105.592 135.767 105.901 131.725 103.362C131.725 103.362 133.579 107.693 139.584 107.151L139.57 105.592Z" fill="#D09E7E"/>
<path d="M123.495 88.4509C123.392 88.4067 119.36 87.2278 119.491 91.3421C119.623 95.4559 123.726 94.4754 123.73 94.3572C123.733 94.239 123.495 88.4509 123.495 88.4509Z" fill="#EDBC9C"/>
<path d="M122.444 92.8389C122.425 92.8261 122.373 92.8914 122.254 92.9509C122.138 93.0087 121.936 93.0525 121.719 92.979C121.279 92.8335 120.891 92.155 120.847 91.4142C120.825 91.0402 120.892 90.6811 121.015 90.3816C121.131 90.0766 121.319 89.8601 121.537 89.8143C121.753 89.7568 121.912 89.8828 121.966 89.9973C122.025 90.1105 122.001 90.1936 122.023 90.1998C122.035 90.2097 122.109 90.1283 122.071 89.9593C122.051 89.8783 122 89.7824 121.901 89.7068C121.799 89.6296 121.653 89.5932 121.501 89.6147C121.185 89.6469 120.909 89.9477 120.773 90.2766C120.62 90.6072 120.536 91.0113 120.561 91.4311C120.614 92.2592 121.063 93.0215 121.663 93.1744C121.955 93.2405 122.194 93.1459 122.315 93.0447C122.439 92.9385 122.458 92.8455 122.444 92.8389Z" fill="#D09E7E"/>
<path d="M142.734 88.2157C142.751 88.6694 142.379 89.057 141.906 89.0826C141.433 89.1078 141.036 88.7615 141.02 88.3078C141.004 87.8541 141.375 87.4657 141.848 87.4401C142.322 87.4145 142.719 87.7616 142.734 88.2157Z" fill="#1F212C"/>
<path d="M143.551 87.3553C143.444 87.4673 142.794 86.9855 141.869 86.988C140.945 86.9772 140.266 87.4528 140.166 87.3396C140.117 87.2896 140.225 87.0871 140.521 86.8718C140.812 86.6574 141.308 86.4491 141.884 86.4516C142.46 86.4549 142.944 86.6669 143.223 86.8838C143.507 87.1024 143.604 87.3053 143.551 87.3553Z" fill="#1F212C"/>
<path d="M133.611 88.2156C133.627 88.6693 133.256 89.0569 132.783 89.0825C132.31 89.1077 131.913 88.7615 131.897 88.3078C131.881 87.8541 132.252 87.4657 132.725 87.4401C133.199 87.4144 133.596 87.7615 133.611 88.2156Z" fill="#1F212C"/>
<path d="M134.448 87.5275C134.341 87.6395 133.689 87.1577 132.765 87.1602C131.842 87.1495 131.163 87.6251 131.062 87.5118C131.013 87.4618 131.121 87.2594 131.417 87.0445C131.708 86.8301 132.204 86.6218 132.78 86.6243C133.356 86.6276 133.841 86.8396 134.119 87.0565C134.403 87.2751 134.5 87.4776 134.448 87.5275Z" fill="#1F212C"/>
<path d="M137.783 94.3855C137.779 94.333 138.353 94.2339 139.285 94.1145C139.521 94.0901 139.744 94.043 139.784 93.8818C139.84 93.7112 139.741 93.4566 139.627 93.1819C139.405 92.6104 139.172 92.0117 138.928 91.3836C137.958 88.8234 137.256 86.7186 137.36 86.6801C137.463 86.6421 138.333 88.6862 139.303 91.246C139.536 91.8774 139.76 92.479 139.972 93.055C140.061 93.3232 140.215 93.6277 140.094 93.9818C140.031 94.1583 139.857 94.2864 139.706 94.3268C139.555 94.3731 139.422 94.3756 139.305 94.3826C138.368 94.4339 137.786 94.438 137.783 94.3855Z" fill="#1F212C"/>
<path d="M135.072 95.0254C135.222 95.0168 135.224 96.0204 136.084 96.7328C136.941 97.4476 138.011 97.3348 138.019 97.4753C138.033 97.5381 137.781 97.6703 137.329 97.6823C136.886 97.6976 136.239 97.5555 135.714 97.1195C135.189 96.6828 134.964 96.0998 134.93 95.6878C134.891 95.2684 135.003 95.0196 135.072 95.0254Z" fill="#1F212C"/>
<path d="M143.209 85.7272C143.046 85.9371 142.41 85.7194 141.644 85.709C140.878 85.6718 140.229 85.8503 140.08 85.6305C140.014 85.5239 140.116 85.3136 140.4 85.1148C140.679 84.9165 141.146 84.7549 141.672 84.7706C142.199 84.7876 142.655 84.9777 142.922 85.1929C143.192 85.4086 143.281 85.6247 143.209 85.7272Z" fill="#1F212C"/>
<path d="M133.246 84.1846C133.142 84.2974 132.905 84.252 132.598 84.1917C132.289 84.128 131.896 84.0561 131.456 84.0396C131.015 84.0276 130.619 84.0735 130.306 84.1169C129.996 84.157 129.756 84.1871 129.66 84.0677C129.57 83.9586 129.659 83.6938 129.981 83.4293C130.297 83.1661 130.858 82.9438 131.491 82.9645C132.125 82.9855 132.67 83.2438 132.968 83.5272C133.272 83.8119 133.343 84.0818 133.246 84.1846Z" fill="#1F212C"/>
<path d="M144.977 80.7382C144.977 80.7382 140.95 82.0926 136.199 80.2923C133.082 79.111 129.55 78.7366 128.847 79.4101C128.145 80.0841 128.293 83.1579 125.443 84.3475C125.443 84.3475 126.235 90.1612 123.887 90.1881C121.54 90.2149 122.081 81.0319 122.081 81.0319L127.491 77.678L133.583 75.8777L139.4 75.2901L144.977 76.4062V80.7382Z" fill="#1F212C"/>
<path d="M160.516 128.89C160.516 128.89 170.996 139.677 174.688 138.076C184.734 133.72 192.896 124.548 195.703 121.252C195.823 120.635 195.944 119.904 196.047 119.037C196.136 118.292 196.089 117.534 195.924 116.796C195.723 115.902 195.408 114.722 195.038 114.125C194.58 113.387 195.24 112.496 195.964 112.799C196.688 113.104 198.445 115.054 198.811 117.809C198.811 117.809 199.121 118.934 200.372 118.522C202.191 117.924 208.368 115.524 209.468 115.27C210.448 115.043 211.616 115.099 210.964 115.814C210.312 116.529 205.754 119.194 205.754 119.194C205.754 119.194 211.659 115.583 212.145 116.467C212.48 117.078 211.236 118.486 207.094 120.485C207.094 120.485 211.981 117.547 212.812 117.643C214.69 117.861 208.845 121.454 208.845 121.454C212.961 118.973 212.768 118.808 213.214 119.288C213.548 119.648 212.827 120.473 210.798 122.127C209.151 123.468 207.714 125.187 205.318 127.366C205.318 127.366 180.518 161.846 164.925 151.263C156.52 145.558 154.21 142.681 149.436 138.358" fill="#EDBC9C"/>
<path d="M206.41 123.005C206.47 123.109 207.765 122.4 209.302 121.421C210.839 120.441 212.028 119.567 211.959 119.468C211.889 119.37 210.594 120.079 209.067 121.052C207.54 122.026 206.35 122.9 206.41 123.005Z" fill="#D09E7E"/>
<path d="M205.283 121.524C205.342 121.629 206.764 120.951 208.459 120.01C210.154 119.068 211.481 118.22 211.422 118.114C211.363 118.009 209.942 118.686 208.246 119.628C206.551 120.569 205.224 121.418 205.283 121.524Z" fill="#D09E7E"/>
<path d="M204.135 119.98C204.192 120.087 205.548 119.468 207.164 118.598C208.78 117.729 210.043 116.937 209.986 116.831C209.929 116.725 208.573 117.343 206.957 118.213C205.341 119.083 204.077 119.874 204.135 119.98Z" fill="#D09E7E"/>
<path d="M98.4861 137.447C98.4861 137.447 93.205 151.528 89.1804 151.54C78.231 151.573 67.0779 146.438 63.1864 144.543C62.8294 144.025 62.4261 143.404 61.9839 142.65C61.6038 142.003 61.3431 141.29 61.1989 140.549C61.0245 139.648 60.841 138.441 60.941 137.746C61.065 136.886 60.1031 136.334 59.5605 136.902C59.0192 137.472 58.1903 139.962 58.9585 142.633C58.9585 142.633 59.1254 143.788 57.8139 143.912C55.9074 144.091 49.2875 144.368 48.1773 144.575C47.1885 144.759 46.1402 145.279 47.024 145.673C47.6665 145.959 50.611 146.363 52.1721 146.562C50.2751 146.345 46.2736 145.978 46.2038 146.744C46.1633 147.192 46.8649 147.68 48.5995 148.017C47.4186 147.937 46.3513 147.922 46.0641 148.089C44.4303 149.041 51.2254 149.992 51.2254 149.992C46.4596 149.367 46.5707 149.139 46.3546 149.758C46.1926 150.221 47.1831 150.688 49.7057 151.39C51.7519 151.96 53.7571 152.959 56.8251 153.996C56.8251 153.996 93.3595 175.654 103.408 159.712C108.824 151.118 109.789 147.556 112.431 141.683L98.4861 137.447Z" fill="#EDBC9C"/>
<path d="M54.0824 150.434C54.0696 150.553 52.599 150.423 50.7987 150.141C48.998 149.859 47.558 149.535 47.5823 149.416C47.6067 149.298 49.0769 149.429 50.8665 149.709C52.6552 149.989 54.0952 150.314 54.0824 150.434Z" fill="#D09E7E"/>
<path d="M54.5144 148.629C54.5029 148.749 52.9286 148.697 50.9985 148.514C49.0676 148.33 47.5119 148.084 47.5235 147.964C47.5351 147.843 49.109 147.895 51.0398 148.078C52.9699 148.262 54.526 148.509 54.5144 148.629Z" fill="#D09E7E"/>
<path d="M54.9529 146.752C54.943 146.872 53.4526 146.849 51.6238 146.699C49.7945 146.55 48.3202 146.331 48.3301 146.21C48.34 146.09 49.8305 146.114 51.6597 146.263C53.4881 146.413 54.9628 146.632 54.9529 146.752Z" fill="#D09E7E"/>
<path d="M172.877 138.106L155.593 118.819C150.782 114.089 148.212 112.675 141.511 111.883C140.417 111.754 139.548 111.672 138.922 111.593C133.78 113.176 128.639 113.173 123.498 111.584C121.114 111.685 119.14 112.419 117.112 112.807C110.726 114.031 106.13 118.682 104.854 122.977V122.977L90.4473 151.12L102.613 161.345L113.729 143.704L114.405 162.484L113.716 176.515L156.381 176.638L154.441 143.694L165.923 153.041L172.877 138.106Z" fill="#2F945A"/>
<path d="M113.924 131.905C113.945 131.905 113.964 132.128 113.98 132.531C113.996 132.934 114.01 133.517 114.02 134.238C114.041 135.679 114.048 137.669 114.038 139.867C114.028 142.066 114.002 144.056 113.968 145.497C113.951 146.217 113.932 146.8 113.911 147.202C113.892 147.605 113.871 147.827 113.849 147.827C113.828 147.827 113.81 147.604 113.793 147.201C113.777 146.799 113.764 146.216 113.753 145.495C113.733 144.054 113.725 142.064 113.735 139.865C113.745 137.667 113.771 135.677 113.806 134.236C113.823 133.516 113.842 132.933 113.862 132.53C113.882 132.128 113.903 131.905 113.924 131.905Z" fill="#1F212C"/>
<path d="M155.164 156.064C155.144 156.066 155.099 155.721 155.037 155.097C154.976 154.421 154.897 153.529 154.801 152.451C154.615 150.216 154.379 147.128 154.137 143.715C153.895 140.301 153.693 137.209 153.561 134.971C153.504 133.89 153.457 132.996 153.421 132.318C153.395 131.692 153.391 131.344 153.412 131.343C153.433 131.341 153.477 131.686 153.539 132.31C153.6 132.986 153.679 133.877 153.775 134.955C153.961 137.19 154.197 140.279 154.439 143.693C154.681 147.106 154.883 150.197 155.015 152.436C155.072 153.516 155.119 154.41 155.154 155.088C155.18 155.715 155.185 156.063 155.164 156.064Z" fill="#1F212C"/>
<g opacity="0.3">
<path d="M161.49 125.309C161.49 125.368 148.542 125.416 132.573 125.416C116.598 125.416 103.652 125.368 103.652 125.309C103.652 125.249 116.598 125.201 132.573 125.201C148.542 125.201 161.49 125.249 161.49 125.309Z" fill="#216940" fill-opacity="0.04"/>
</g>
<g opacity="0.3">
<path d="M165.973 142.451C165.973 142.51 150.198 142.558 130.743 142.558C111.281 142.558 95.5098 142.51 95.5098 142.451C95.5098 142.392 111.281 142.343 130.743 142.343C150.198 142.343 165.973 142.391 165.973 142.451Z" fill="#216940" fill-opacity="0.04"/>
</g>
<g opacity="0.3">
<path d="M155.518 161.995C155.518 162.055 146.356 162.103 135.057 162.103C123.754 162.103 114.594 162.054 114.594 161.995C114.594 161.936 123.754 161.888 135.057 161.888C146.356 161.887 155.518 161.936 155.518 161.995Z" fill="#216940" fill-opacity="0.04"/>
</g>
<g opacity="0.3">
<path d="M119.176 176.636C119.116 176.636 119.068 162.24 119.068 144.486C119.068 126.725 119.117 112.332 119.176 112.332C119.235 112.332 119.283 126.725 119.283 144.486C119.283 162.24 119.235 176.636 119.176 176.636Z" fill="#216940" fill-opacity="0.04"/>
</g>
<g opacity="0.3">
<path d="M143.899 176.637C143.895 176.637 143.891 176.581 143.887 176.471C143.885 176.35 143.881 176.189 143.876 175.982C143.871 175.541 143.863 174.91 143.854 174.104C143.841 172.46 143.823 170.103 143.8 167.194C143.747 161.35 143.675 153.296 143.595 144.4C143.511 135.496 143.458 127.435 143.453 121.601C143.459 118.692 143.464 116.334 143.468 114.691C143.475 113.885 143.482 113.254 143.486 112.813C143.49 112.606 143.494 112.445 143.496 112.325C143.499 112.215 143.503 112.158 143.507 112.158C143.511 112.158 143.514 112.215 143.518 112.325C143.521 112.445 143.525 112.607 143.529 112.813C143.535 113.254 143.542 113.885 143.551 114.691C143.564 116.334 143.583 118.692 143.606 121.6C143.658 127.444 143.73 135.499 143.811 144.398C143.895 153.299 143.948 161.359 143.952 167.194C143.946 170.102 143.942 172.46 143.938 174.104C143.93 174.91 143.924 175.541 143.92 175.982C143.915 176.189 143.912 176.35 143.909 176.471C143.906 176.581 143.902 176.637 143.899 176.637Z" fill="#216940" fill-opacity="0.04"/>
</g>
<g opacity="0.3">
<path d="M161.391 149.158C161.331 149.158 161.283 143.951 161.283 137.529C161.283 131.106 161.332 125.9 161.391 125.9C161.45 125.9 161.498 131.106 161.498 137.529C161.498 143.951 161.45 149.158 161.391 149.158Z" fill="#216940" fill-opacity="0.04"/>
</g>
<g opacity="0.3">
<path d="M99.8125 153.921C99.753 153.921 99.7051 149.01 99.7051 142.953C99.7051 136.894 99.7534 131.983 99.8125 131.983C99.872 131.983 99.9199 136.894 99.9199 142.953C99.9199 149.01 99.872 153.921 99.8125 153.921Z" fill="#216940" fill-opacity="0.04"/>
</g>
<path d="M121.91 112.158L124.265 107.21L131.977 112.645L139.589 107.531L142.267 111.878L134.642 116.835H129.54L121.91 112.733" fill="#2F945A"/>
<path d="M131.974 112.645C131.975 112.652 131.925 112.666 131.831 112.687C131.739 112.718 131.592 112.71 131.431 112.797C131.088 112.908 130.648 113.23 130.28 113.771C129.903 114.306 129.574 115.025 129.219 115.833C129.039 116.237 128.856 116.667 128.626 117.099C128.394 117.528 128.135 117.978 127.736 118.346L127.66 118.416L127.587 118.341C127.448 118.196 127.299 118.041 127.149 117.885C125.62 116.284 124.32 114.757 123.414 113.626C122.961 113.06 122.604 112.594 122.363 112.268C122.123 111.942 121.997 111.756 122.009 111.747C122.021 111.738 122.169 111.906 122.429 112.217C122.714 112.556 123.085 112.998 123.531 113.529C124.466 114.634 125.78 116.14 127.305 117.736C127.454 117.892 127.602 118.047 127.741 118.192L127.593 118.187C127.958 117.852 128.214 117.419 128.442 117.002C128.671 116.581 128.858 116.155 129.043 115.755C129.409 114.95 129.757 114.226 130.161 113.685C130.557 113.138 131.039 112.813 131.404 112.722C131.578 112.644 131.731 112.664 131.826 112.646C131.924 112.638 131.974 112.638 131.974 112.645Z" fill="#1F212C"/>
<path d="M142.129 111.973C142.141 111.983 142.007 112.16 141.752 112.47C141.494 112.777 141.112 113.215 140.615 113.732C139.622 114.767 138.155 116.117 136.364 117.383C136.029 117.62 135.695 117.846 135.373 118.057L135.225 118.154L135.208 117.973C135.124 117.049 134.86 116.18 134.582 115.435C134.292 114.688 133.939 114.06 133.559 113.607C133.179 113.156 132.777 112.879 132.465 112.782C132.159 112.679 131.972 112.668 131.975 112.645C131.975 112.639 132.02 112.639 132.108 112.646C132.193 112.662 132.331 112.646 132.489 112.71C132.821 112.788 133.257 113.06 133.665 113.515C134.073 113.973 134.449 114.61 134.755 115.366C135.051 116.127 135.327 116.989 135.42 117.963L135.256 117.88C135.574 117.669 135.906 117.444 136.238 117.209C138.018 115.951 139.49 114.629 140.506 113.627C141.015 113.125 141.413 112.705 141.689 112.415C141.963 112.122 142.118 111.963 142.129 111.973Z" fill="#1F212C"/>
<path d="M134.907 176.637C134.903 176.637 134.9 176.581 134.896 176.473C134.893 176.354 134.889 176.194 134.884 175.99C134.879 175.553 134.871 174.93 134.861 174.133C134.842 172.509 134.813 170.179 134.779 167.305C134.695 161.54 134.511 153.577 134.108 144.79C133.703 136 133.155 128.053 132.711 122.304C132.481 119.439 132.295 117.117 132.166 115.498C132.103 114.704 132.053 114.083 132.019 113.648C132.005 113.444 131.994 113.285 131.986 113.166C131.98 113.057 131.979 113.001 131.983 113.001C131.986 113 131.995 113.056 132.008 113.164C132.021 113.282 132.04 113.441 132.062 113.643C132.106 114.078 132.169 114.697 132.249 115.49C132.41 117.095 132.621 119.419 132.863 122.292C133.347 128.038 133.918 135.986 134.324 144.78C134.726 153.57 134.886 161.537 134.932 167.303C134.954 170.187 134.957 172.52 134.945 174.133C134.938 174.93 134.932 175.553 134.928 175.99C134.924 176.193 134.92 176.353 134.918 176.473C134.914 176.582 134.911 176.637 134.907 176.637Z" fill="#1F212C"/>
<g opacity="0.2">
<path d="M131.797 112.678C132.732 113.21 133.081 114.398 133.084 115.474C133.087 116.55 132.831 117.621 132.924 118.693C132.972 119.254 133.158 119.863 133.641 120.154C134.294 120.548 135.125 120.18 135.794 119.812C137.234 119.021 138.693 118.216 139.866 117.066C141.039 115.917 141.555 114.31 141.519 112.668C139.535 114.796 137.535 116.078 135.366 117.757C135.21 116.643 134.837 115.512 134.274 114.538C133.71 113.564 132.915 112.554 131.797 112.678Z" fill="#0A2616"/>
</g>
<g opacity="0.2">
<path d="M124.707 115.108C125.438 116.54 126.207 118.018 127.465 119.02C128.023 119.464 128.841 119.797 129.422 119.383C129.889 119.051 129.97 118.401 130.008 117.829C130.107 116.373 130.537 114.698 130.636 113.242C129.483 114.542 128.851 116.835 127.633 118.411C126.396 117.63 125.68 116.295 124.788 115.135" fill="#0A2616"/>
</g>
<g opacity="0.2">
<path d="M162.235 149.844C164.154 146.277 166.073 142.709 167.991 139.141C166.286 139.309 165.142 140.917 164.262 142.387C163.382 143.856 162.32 145.493 160.632 145.783C159.458 145.986 158.284 145.461 157.261 144.85C156.237 144.24 155.243 143.516 154.08 143.258L162.235 149.844Z" fill="#0A2616"/>
</g>
<g opacity="0.2">
<path d="M111.679 146.963C111.679 146.963 107.671 151.18 104.967 151.8C102.264 152.42 99.3019 151.807 97.0669 150.164C96.883 150.029 96.6933 149.883 96.4681 149.848C96.2425 149.814 95.974 149.942 95.9442 150.169C95.9182 150.369 96.0785 150.54 96.2264 150.677C98.9874 153.241 101.861 155.685 104.835 157.998L111.679 146.963Z" fill="#0A2616"/>
</g>
<g opacity="0.2">
<path d="M130.561 118.198C129.04 130.342 128.047 142.552 127.585 154.782C127.513 156.695 127.463 158.667 128.144 160.456C128.937 162.54 130.626 164.133 132.261 165.648C132.957 166.293 133.906 166.985 134.767 166.583C135.102 166.426 135.344 166.127 135.571 165.834C136.602 164.501 137.572 163.062 137.953 161.421C139.151 156.272 134.294 151.176 135.389 146.004" fill="#0A2616"/>
</g>
<path d="M130.171 113.97L133.821 113.878C134.123 114.488 134.508 115.263 134.795 115.841L133.626 119.121H130.647L129.068 116.182L130.171 113.97Z" fill="#143E26"/>
<path d="M130.648 119.121L128.939 160.876L133.9 166.27L138.482 159.758L133.627 119.121H130.648Z" fill="#143E26"/>
<path d="M133.457 119.178C133.448 119.238 132.834 119.19 132.079 119.178C131.324 119.164 130.709 119.192 130.701 119.131C130.693 119.074 131.31 118.948 132.083 118.963C132.855 118.975 133.467 119.122 133.457 119.178Z" fill="#1F212C"/>
<path d="M134.238 114.583C134.259 114.6 134.093 114.85 133.775 115.214C133.459 115.579 132.984 116.053 132.405 116.512C131.825 116.97 131.254 117.324 130.827 117.548C130.399 117.773 130.118 117.878 130.106 117.853C130.076 117.794 131.133 117.25 132.272 116.343C133.415 115.444 134.188 114.54 134.238 114.583Z" fill="#1F212C"/>
<path d="M134.081 123.197C134.123 123.239 133.324 124.098 132.298 125.116C131.271 126.133 130.405 126.924 130.363 126.882C130.321 126.84 131.119 125.981 132.147 124.963C133.173 123.945 134.04 123.154 134.081 123.197Z" fill="#1F212C"/>
<path d="M134.325 126.206C134.367 126.248 133.475 127.2 132.333 128.332C131.191 129.464 130.231 130.348 130.189 130.305C130.147 130.263 131.039 129.311 132.181 128.179C133.323 127.047 134.284 126.164 134.325 126.206Z" fill="#216940" fill-opacity="0.04"/>
<path d="M134.791 128.982C134.833 129.024 133.794 130.124 132.471 131.438C131.148 132.753 130.041 133.784 129.999 133.742C129.958 133.7 130.996 132.601 132.319 131.285C133.642 129.971 134.749 128.94 134.791 128.982Z" fill="#1F212C"/>
<path d="M135.13 131.91C135.171 131.952 134.038 133.146 132.599 134.577C131.158 136.007 129.957 137.133 129.915 137.091C129.873 137.049 131.006 135.855 132.447 134.424C133.886 132.993 135.088 131.868 135.13 131.91Z" fill="#216940" fill-opacity="0.04"/>
<path d="M135.438 134.854C135.48 134.896 134.256 136.181 132.704 137.723C131.151 139.266 129.86 140.482 129.817 140.44C129.776 140.398 131 139.113 132.552 137.571C134.104 136.028 135.396 134.811 135.438 134.854Z" fill="#1F212C"/>
<path d="M135.802 137.735C135.844 137.778 134.495 139.187 132.79 140.883C131.084 142.579 129.668 143.92 129.626 143.878C129.584 143.835 130.932 142.426 132.638 140.73C134.343 139.034 135.76 137.693 135.802 137.735Z" fill="#216940" fill-opacity="0.04"/>
<path d="M136.116 140.677C136.159 140.72 134.71 142.228 132.883 144.047C131.054 145.866 129.539 147.306 129.497 147.264C129.455 147.222 130.903 145.714 132.731 143.895C134.559 142.076 136.075 140.635 136.116 140.677Z" fill="#1F212C"/>
<path d="M136.48 143.568C136.522 143.61 134.975 145.218 133.024 147.159C131.074 149.101 129.459 150.64 129.417 150.598C129.375 150.556 130.922 148.948 132.873 147.007C134.823 145.066 136.438 143.526 136.48 143.568Z" fill="#216940" fill-opacity="0.04"/>
<path d="M136.707 146.593C136.749 146.635 135.104 148.34 133.034 150.401C130.964 152.463 129.251 154.099 129.21 154.057C129.168 154.015 130.812 152.31 132.883 150.249C134.952 148.188 136.665 146.552 136.707 146.593Z" fill="#1F212C"/>
<path d="M137.109 149.444C137.151 149.486 135.414 151.283 133.231 153.458C131.046 155.633 129.242 157.362 129.2 157.319C129.158 157.277 130.894 155.48 133.079 153.305C135.262 151.131 137.067 149.402 137.109 149.444Z" fill="#216940" fill-opacity="0.04"/>
<path d="M137.743 152.066C137.785 152.109 135.844 154.111 133.408 156.537C130.971 158.964 128.962 160.897 128.921 160.855C128.879 160.813 130.819 158.812 133.256 156.384C135.692 153.958 137.702 152.025 137.743 152.066Z" fill="#1F212C"/>
<path d="M130.497 162.567C130.455 162.525 132.098 160.807 134.165 158.73C136.234 156.652 137.944 155.002 137.987 155.044C138.029 155.086 136.386 156.803 134.318 158.881C132.25 160.959 130.539 162.609 130.497 162.567Z" fill="#216940" fill-opacity="0.04"/>
<path d="M132.394 164.47C132.351 164.429 133.639 163.007 135.271 161.293C136.903 159.578 138.261 158.222 138.304 158.263C138.347 158.304 137.059 159.727 135.427 161.441C133.795 163.154 132.437 164.511 132.394 164.47Z" fill="#1F212C"/>
<path d="M133.71 120.4C133.752 120.442 133.044 121.211 132.13 122.117C131.215 123.024 130.44 123.724 130.398 123.682C130.357 123.64 131.064 122.871 131.979 121.964C132.893 121.058 133.668 120.358 133.71 120.4Z" fill="#216940" fill-opacity="0.04"/>
<path d="M90.8067 151.054C90.2013 150.998 89.9732 150.18 90.1712 149.605C90.3691 149.03 90.817 148.567 91.0128 147.991C91.1244 147.662 91.1732 147.271 91.4595 147.074C91.7554 146.871 92.2169 146.885 92.4896 147.118C94.1726 148.557 95.4122 149.959 97.2468 151.514C99.0145 153.012 100.922 154.934 102.786 156.309C103.838 157.085 105.123 157.887 105.264 159.186C105.381 160.26 104.479 161.338 103.401 161.411C102.335 161.483 101.414 160.728 100.616 160.017C97.2873 157.049 93.9581 154.081 90.629 151.113" fill="#2F945A"/>
<path d="M104.577 157.805C104.566 157.817 104.389 157.679 104.065 157.435C103.742 157.191 103.266 156.849 102.674 156.428C102.086 156.005 101.373 155.498 100.666 154.844C99.9534 154.194 99.175 153.483 98.3576 152.738C96.7234 151.24 95.252 149.874 94.1946 148.879C93.6909 148.398 93.2724 147.998 92.9501 147.691C92.6596 147.407 92.5038 147.245 92.5142 147.234C92.5245 147.224 92.6997 147.365 93.0079 147.63C93.3422 147.925 93.7761 148.307 94.2988 148.767C95.3822 149.734 96.8685 151.081 98.5018 152.578C99.3146 153.328 100.089 154.042 100.798 154.695C101.494 155.354 102.186 155.865 102.764 156.305C103.344 156.741 103.809 157.104 104.117 157.369C104.427 157.635 104.586 157.795 104.577 157.805Z" fill="#1F212C"/>
<path d="M103.486 158.768C103.477 158.78 103.288 158.671 102.951 158.462C102.614 158.254 102.134 157.941 101.547 157.544C100.374 156.751 98.7854 155.606 97.0975 154.256C95.41 152.904 93.9456 151.603 92.9151 150.632C92.3994 150.147 91.9891 149.747 91.7126 149.464C91.4354 149.181 91.2871 149.02 91.2974 149.009C91.3077 148.998 91.4759 149.139 91.7705 149.403C92.0944 149.693 92.5138 150.069 93.0175 150.52C94.0724 151.461 95.5488 152.739 97.2318 154.088C98.9152 155.435 100.485 156.595 101.634 157.419C102.185 157.812 102.643 158.139 102.997 158.392C103.319 158.622 103.494 158.756 103.486 158.768Z" fill="#1F212C"/>
<g opacity="0.3">
<path d="M96.1185 150.566C96.1607 150.608 95.5702 151.265 94.8004 152.034C94.0302 152.803 93.3724 153.392 93.3302 153.35C93.2881 153.308 93.8782 152.651 94.6484 151.882C95.4186 151.113 96.0768 150.524 96.1185 150.566Z" fill="#216940" fill-opacity="0.04"/>
</g>
<g opacity="0.3">
<path d="M102.61 156.368C102.652 156.411 102.013 157.091 101.184 157.888C100.356 158.685 99.6506 159.296 99.6093 159.253C99.568 159.21 100.206 158.529 101.035 157.733C101.864 156.936 102.569 156.325 102.61 156.368Z" fill="#216940" fill-opacity="0.04"/>
</g>
<g opacity="0.5">
<path d="M127.253 109.541C127.303 109.573 126.674 110.64 125.847 111.923C125.021 113.206 124.311 114.22 124.261 114.188C124.211 114.156 124.84 113.09 125.666 111.806C126.493 110.523 127.203 109.509 127.253 109.541Z" fill="#216940" fill-opacity="0.04"/>
</g>
<g opacity="0.5">
<path d="M139.525 114.34C139.471 114.364 138.914 113.271 138.281 111.898C137.648 110.524 137.179 109.391 137.233 109.366C137.287 109.341 137.843 110.434 138.476 111.808C139.11 113.181 139.579 114.315 139.525 114.34Z" fill="#216940" fill-opacity="0.04"/>
</g>
<path d="M166.474 152.081C166.197 152.637 165.711 152.929 165.106 152.864C164.502 152.798 163.95 152.465 163.346 152.402C163 152.367 162.607 152.406 162.352 152.171C162.088 151.927 162.106 151.51 162.166 151.156C162.55 148.871 163.79 146.827 165.121 144.931C166.452 143.034 167.912 141.197 168.838 139.074C169.361 137.876 169.856 136.445 171.091 136.018C172.113 135.665 173.364 136.305 173.675 137.34C173.983 138.362 173.45 139.43 172.935 140.364C170.781 144.27 168.628 148.175 166.474 152.081Z" fill="#2F945A"/>
<path d="M170.605 138.15C170.619 138.156 170.549 138.362 170.412 138.73C170.275 139.098 170.066 139.626 169.8 140.276C169.267 141.575 168.495 143.356 167.579 145.292C166.662 147.229 165.775 148.956 165.107 150.191C164.774 150.808 164.497 151.305 164.3 151.644C164.102 151.984 163.987 152.168 163.974 152.161C163.961 152.154 164.051 151.956 164.226 151.604C164.42 151.218 164.671 150.719 164.972 150.12C165.604 148.868 166.468 147.134 167.384 145.2C168.299 143.266 169.093 141.498 169.66 140.216C169.932 139.602 170.159 139.092 170.334 138.697C170.495 138.34 170.591 138.145 170.605 138.15Z" fill="#1F212C"/>
<path d="M169.909 135.861C169.921 135.869 169.81 136.066 169.598 136.416C169.366 136.798 169.065 137.296 168.701 137.894C167.945 139.143 166.922 140.881 165.857 142.837C164.793 144.794 163.889 146.597 163.25 147.91C162.945 148.54 162.691 149.064 162.496 149.466C162.317 149.834 162.212 150.034 162.199 150.028C162.185 150.022 162.264 149.81 162.42 149.432C162.575 149.053 162.811 148.511 163.113 147.845C163.717 146.513 164.602 144.696 165.669 142.734C166.736 140.774 167.782 139.044 168.572 137.814C168.967 137.198 169.294 136.706 169.529 136.37C169.762 136.034 169.896 135.853 169.909 135.861Z" fill="#1F212C"/>
<g opacity="0.5">
<path d="M167.919 149.15C167.906 149.204 166.867 148.985 165.678 148.451C164.486 147.922 163.631 147.293 163.663 147.248C163.697 147.194 164.593 147.733 165.766 148.254C166.936 148.781 167.936 149.088 167.919 149.15Z" fill="#216940" fill-opacity="0.04"/>
</g>
<g opacity="0.5">
<path d="M172.984 140.612C172.951 140.662 171.985 140.076 170.794 139.357C169.603 138.636 168.636 138.054 168.665 138C168.692 137.949 169.71 138.449 170.905 139.173C172.101 139.895 173.017 140.563 172.984 140.612Z" fill="#216940" fill-opacity="0.04"/>
</g>
<path d="M66.9489 -1.01642L65.9874 0.74047L64.2305 1.70206L65.9874 2.66269L66.9489 4.41958L67.9105 2.66269L69.6674 1.70206L67.9105 0.74047L66.9489 -1.01642Z" fill="#143E26"/>
<path d="M209.554 49.1854L208.963 50.265L207.885 50.855L208.963 51.4464L209.554 52.5261L210.146 51.4464L211.225 50.855L210.146 50.265L209.554 49.1854Z" fill="#143E26"/>
<path d="M131.187 18.5374L130.596 19.6181L129.518 20.208L130.596 20.7985L131.187 21.8782L131.779 20.7985L132.857 20.208L131.779 19.6181L131.187 18.5374Z" fill="#143E26"/>
<path d="M97.5295 46.342L97.0041 47.3032L96.0449 47.828L97.0041 48.3529L97.5295 49.3126L98.0553 48.3529L99.014 47.828L98.0553 47.3032L97.5295 46.342Z" fill="#143E26"/>
<path d="M161.122 92.5822L160.596 93.5433L159.637 94.0677L160.596 94.5931L161.122 95.5528L161.648 94.5931L162.606 94.0677L161.648 93.5433L161.122 92.5822Z" fill="#143E26"/>
<path d="M68.6506 101.635L68.1247 102.596L67.166 103.121L68.1247 103.645L68.6506 104.605L69.1764 103.645L70.1351 103.121L69.1764 102.596L68.6506 101.635Z" fill="#143E26"/>
<path d="M46.9082 50.081C46.9082 50.081 49.8219 48.5512 53.0417 50.8629C55.0342 52.2944 59.2725 54.5077 60.5777 53.161L62.1852 47.9834C62.1852 47.9834 58.9707 47.4016 56.367 45.343C53.808 43.3191 48.7094 43.4319 48.7094 43.4319L46.9082 50.081Z" fill="#2F945A"/>
<g opacity="0.4">
<path d="M55.9542 46.0011C57.4812 46.8909 57.5824 48.8155 56.7095 49.8465C55.8366 50.877 53.8223 50.6056 52.7923 49.7332C51.7618 48.8593 51.6345 47.3165 52.5074 46.2859C53.3803 45.2549 54.7873 45.321 55.9542 46.0011Z" fill="white"/>
</g>
<path d="M55.9063 47.0324C55.8817 47.0657 55.7824 47.0353 55.6219 46.9697C55.4619 46.9071 55.2373 46.8044 54.9664 46.7615C54.8348 46.7413 54.6878 46.7413 54.5495 46.7755C54.4145 46.8078 54.2863 46.8844 54.2294 46.9804C54.1619 47.0801 54.1441 47.2324 54.1913 47.3414C54.2284 47.4436 54.3533 47.5438 54.5543 47.6407C54.6526 47.6899 54.7635 47.7385 54.8787 47.8017C54.9939 47.8653 55.1177 47.9439 55.2267 48.0605C55.2811 48.1203 55.3288 48.1873 55.3664 48.261C55.405 48.3357 55.4325 48.4186 55.444 48.5015C55.4691 48.6678 55.4373 48.8288 55.3746 48.9647C55.3105 49.1007 55.2151 49.2144 55.0984 49.2973C54.9779 49.3807 54.8584 49.4226 54.7398 49.4443C54.5041 49.4868 54.2988 49.4472 54.1282 49.3928C53.9556 49.3354 53.8216 49.2568 53.7108 49.1816C53.6014 49.1069 53.5156 49.0332 53.451 48.971C53.3199 48.8438 53.2635 48.757 53.2861 48.7247C53.3088 48.691 53.4105 48.7156 53.5739 48.7806C53.7358 48.8409 53.9638 48.9517 54.2289 48.9937C54.3605 49.0125 54.507 49.0129 54.6319 48.9739C54.7601 48.9325 54.8415 48.8621 54.883 48.7498C54.9023 48.6958 54.9066 48.6394 54.8955 48.5922C54.8907 48.5671 54.8811 48.5464 54.8681 48.5237C54.8536 48.4991 54.8358 48.4765 54.8126 48.4529C54.721 48.356 54.5249 48.2726 54.295 48.1613C54.1798 48.1034 54.0564 48.0364 53.9383 47.9362C53.8795 47.8851 53.8245 47.8272 53.7749 47.7612C53.7257 47.6937 53.6838 47.6185 53.6578 47.5404C53.5459 47.2238 53.6177 46.8974 53.7951 46.6656C53.9831 46.4212 54.2453 46.3277 54.468 46.2993C54.6936 46.2708 54.895 46.3056 55.0666 46.3605C55.4045 46.4776 55.6147 46.6545 55.7467 46.7798C55.8774 46.91 55.9294 47.0011 55.9063 47.0324Z" fill="#2F945A"/>
<path d="M54.9325 45.9139C55.0087 45.939 54.7956 46.7988 54.4553 47.8337C54.116 48.87 53.7791 49.6894 53.7029 49.6643C53.6268 49.6393 53.8398 48.7799 54.1792 47.7436C54.518 46.7077 54.8564 45.8888 54.9325 45.9139Z" fill="#2F945A"/>
<path d="M55.3197 46.1456C55.3964 46.1702 55.2079 46.9534 54.8994 47.8923C54.591 48.8327 54.2786 49.574 54.2025 49.5495C54.1263 49.5244 54.3143 48.7416 54.6233 47.8022C54.9313 46.8623 55.2436 46.1205 55.3197 46.1456Z" fill="#2F945A"/>
<g opacity="0.5">
<path d="M61.5379 48.3126L60.0577 53.0174L60.008 53.0276C57.692 53.4975 54.7528 51.4861 52.8074 50.1548C52.4725 49.9254 52.1558 49.7085 51.8791 49.5302C50.0268 48.3319 47.8303 49.2087 47.7074 49.3701L47.5488 49.3051L49.0628 44.2036L49.1168 44.1954C52.4074 43.6922 55.3934 45.0977 56.9498 46.454C58.4035 47.7203 61.4126 48.29 61.4425 48.2953L61.5379 48.3126ZM59.9237 52.868L61.3147 48.4462C60.7764 48.3372 58.1938 47.767 56.836 46.5837C55.3153 45.2592 52.4074 43.8869 49.1968 44.3573L47.7831 49.1214C47.9566 49.0376 48.1721 48.9706 48.2347 48.9518C48.7268 48.8043 50.45 48.3999 51.9731 49.3846C52.2512 49.5649 52.5689 49.7823 52.9053 50.0122C54.8116 51.3169 57.6862 53.2845 59.9237 52.868Z" fill="white"/>
</g>
<path d="M231.26 44.5309C231.26 44.5309 227.688 45.3209 224.91 41.9012C223.19 39.7837 219.291 36.1726 217.497 37.2359L214.262 42.32C214.262 42.32 217.54 43.8827 219.731 46.8508C221.885 49.7688 227.387 51.1363 227.387 51.1363L231.26 44.5309Z" fill="#2F945A"/>
<g opacity="0.4">
<path d="M220.351 46.2662C218.973 44.866 219.426 42.7717 220.664 41.9215C221.901 41.0708 223.982 41.9499 224.832 43.1867C225.682 44.425 225.368 46.1168 224.131 46.9675C222.894 47.8178 221.404 47.3363 220.351 46.2662Z" fill="white"/>
</g>
<path d="M220.717 45.1754C220.753 45.1465 220.851 45.2082 221.004 45.3258C221.157 45.44 221.368 45.6155 221.646 45.7408C221.781 45.8011 221.939 45.844 222.097 45.8473C222.251 45.8522 222.411 45.8073 222.5 45.7206C222.602 45.6333 222.665 45.4748 222.647 45.3441C222.637 45.2236 222.532 45.0795 222.344 44.9171C222.253 44.8356 222.149 44.7513 222.044 44.6496C221.939 44.5479 221.829 44.4274 221.746 44.2702C221.706 44.1902 221.674 44.1044 221.655 44.0143C221.635 43.9232 221.63 43.8263 221.642 43.7338C221.664 43.5482 221.745 43.3843 221.852 43.2576C221.96 43.1303 222.096 43.0363 222.245 42.9818C222.398 42.9274 222.539 42.9173 222.673 42.9288C222.938 42.952 223.147 43.0546 223.314 43.1626C223.483 43.2749 223.603 43.3978 223.7 43.5106C223.796 43.6224 223.866 43.7265 223.917 43.8123C224.021 43.9873 224.056 44.0967 224.022 44.1247C223.988 44.1546 223.886 44.0982 223.73 43.9806C223.574 43.8687 223.362 43.6836 223.09 43.5607C222.954 43.5019 222.797 43.459 222.652 43.4643C222.502 43.4711 222.394 43.5231 222.317 43.6316C222.28 43.6841 222.259 43.7429 222.257 43.7969C222.255 43.8253 222.26 43.8499 222.267 43.8784C222.275 43.9092 222.288 43.9386 222.305 43.9709C222.375 44.1011 222.561 44.2485 222.775 44.4346C222.882 44.53 222.995 44.638 223.092 44.7802C223.14 44.852 223.183 44.9301 223.216 45.0154C223.249 45.1022 223.273 45.1952 223.278 45.2863C223.305 45.6584 223.133 45.9876 222.875 46.1843C222.602 46.3915 222.293 46.4151 222.046 46.3804C221.795 46.3452 221.589 46.2493 221.421 46.1399C221.093 45.9158 220.92 45.6642 220.815 45.4916C220.712 45.3152 220.683 45.2019 220.717 45.1754Z" fill="#2F945A"/>
<path d="M221.433 46.6581C221.359 46.6089 221.839 45.749 222.505 44.7383C223.172 43.7261 223.772 42.9452 223.847 42.9944C223.921 43.0436 223.442 43.9034 222.775 44.9156C222.11 45.9274 221.508 46.7072 221.433 46.6581Z" fill="#2F945A"/>
<path d="M221.079 46.2956C221.004 46.2469 221.435 45.4617 222.039 44.545C222.645 43.6263 223.196 42.9221 223.271 42.9712C223.345 43.0204 222.915 43.8051 222.309 44.7223C221.704 45.6406 221.153 46.3443 221.079 46.2956Z" fill="#2F945A"/>
<g opacity="0.5">
<path d="M215.049 42.157L218.01 37.5428L218.067 37.5467C220.688 37.7188 223.253 40.7347 224.952 42.7306C225.244 43.0743 225.52 43.3991 225.765 43.6715C227.402 45.4973 230.014 45.1985 230.193 45.0611L230.344 45.1772L227.23 50.2074L227.17 50.2006C223.493 49.7794 220.702 47.4002 219.428 45.491C218.238 43.7086 215.178 42.2187 215.146 42.2043L215.049 42.157ZM218.11 37.7424L215.327 42.0794C215.873 42.3532 218.476 43.7192 219.587 45.3845C220.831 47.2494 223.55 49.5702 227.131 50.003L230.038 45.3059C229.827 45.3455 229.577 45.3541 229.504 45.3561C228.934 45.371 226.967 45.3016 225.621 43.8002C225.375 43.5254 225.098 43.2001 224.805 42.855C223.141 40.8985 220.632 37.9487 218.11 37.7424Z" fill="white"/>
</g>
<path d="M187.486 48.2319C187.486 48.2319 183.011 51.6305 176.935 48.6464C173.175 46.7979 165.413 44.2665 163.595 46.903L162.35 56.0769C162.35 56.0769 167.927 56.1497 172.893 58.8817C177.774 61.5679 186.33 59.9387 186.33 59.9387L187.486 48.2319Z" fill="#2F945A"/>
<g clip-path="url(#clip1_4044_5124)">
<path d="M174.606 56.9373L173.046 54.0733L173.233 53.3738L174.408 53.6885C174.669 53.7586 174.918 53.7381 175.154 53.627C175.389 53.5159 175.562 53.3439 175.671 53.1111L173.143 52.4336L173.338 51.7074L175.782 52.3623C175.743 52.1646 175.652 51.9885 175.508 51.8338C175.363 51.6792 175.186 51.5736 174.975 51.5172L173.495 51.1205L173.689 50.3943L177.608 51.4442L177.413 52.1704L176.397 51.8981C176.442 51.995 176.48 52.1018 176.51 52.2184C176.541 52.3351 176.556 52.4523 176.558 52.5702L177.256 52.7573L177.061 53.4835L176.411 53.3093C176.245 53.744 175.958 54.0673 175.551 54.2792C175.143 54.491 174.711 54.5385 174.254 54.4216L174.067 54.3713L175.614 57.2074L174.606 56.9373Z" fill="white"/>
</g>
<g opacity="0.5">
<path d="M163.354 55.3381L164.519 46.9966L164.599 46.9657C168.367 45.5202 173.886 48.0787 177.538 49.7714C178.167 50.063 178.761 50.3387 179.277 50.5614C182.735 52.0561 186.187 49.9594 186.348 49.6533L186.634 49.7184L185.524 58.7376L185.435 58.767C180.035 60.5432 174.61 59.0191 171.606 57.174C168.8 55.4518 163.572 55.3419 163.519 55.3414L163.354 55.3381ZM164.787 47.211L163.692 55.0513C164.629 55.0826 169.14 55.314 171.76 56.9234C174.695 58.7251 179.98 60.2149 185.255 58.5164L186.291 50.0939C186.022 50.2843 185.678 50.4578 185.579 50.507C184.792 50.8945 182.004 52.0619 179.161 50.8333C178.641 50.6082 178.045 50.332 177.414 50.0399C173.834 48.3799 168.437 45.8778 164.787 47.211Z" fill="white"/>
</g>
<path d="M182.835 110.712C182.835 110.712 178.382 109.745 177.019 104.429C176.176 101.138 173.644 95.0204 171.061 95.2898L164.752 99.3579C164.752 99.3579 167.647 102.833 168.581 107.334C169.499 111.757 175.012 116.17 175.012 116.17L182.835 110.712Z" fill="#2F945A"/>
<g opacity="0.4">
<path d="M169.608 107.003C168.777 104.7 170.381 102.568 172.224 102.249C174.068 101.931 175.964 104.01 176.282 105.852C176.6 107.696 175.363 109.447 173.52 109.765C171.677 110.083 170.242 108.763 169.608 107.003Z" fill="white"/>
</g>
<path d="M170.581 105.955C170.637 105.941 170.715 106.062 170.827 106.274C170.941 106.483 171.089 106.792 171.338 107.078C171.46 107.217 171.616 107.348 171.793 107.434C171.964 107.519 172.169 107.552 172.315 107.5C172.475 107.455 172.629 107.309 172.676 107.151C172.728 107.01 172.684 106.792 172.557 106.51C172.496 106.371 172.422 106.221 172.356 106.051C172.291 105.881 172.229 105.688 172.217 105.467C172.213 105.355 172.222 105.242 172.247 105.13C172.272 105.017 172.317 104.904 172.378 104.806C172.499 104.607 172.676 104.464 172.864 104.376C173.053 104.288 173.255 104.252 173.452 104.268C173.654 104.287 173.819 104.349 173.964 104.431C174.252 104.595 174.435 104.82 174.568 105.029C174.7 105.244 174.772 105.446 174.823 105.624C174.873 105.8 174.898 105.955 174.912 106.078C174.938 106.33 174.92 106.472 174.868 106.486C174.814 106.502 174.728 106.386 174.612 106.171C174.494 105.963 174.351 105.643 174.106 105.362C173.983 105.225 173.829 105.095 173.661 105.025C173.488 104.956 173.339 104.957 173.195 105.04C173.126 105.081 173.071 105.136 173.042 105.197C173.025 105.228 173.017 105.258 173.01 105.294C173.004 105.333 173.003 105.373 173.006 105.418C173.017 105.602 173.151 105.866 173.296 106.188C173.367 106.351 173.438 106.533 173.475 106.744C173.492 106.85 173.499 106.961 173.493 107.075C173.485 107.19 173.463 107.308 173.421 107.413C173.258 107.848 172.892 108.131 172.497 108.22C172.081 108.312 171.719 108.178 171.457 108.01C171.192 107.84 171.009 107.624 170.876 107.412C170.621 106.988 170.556 106.613 170.527 106.362C170.502 106.111 170.528 105.968 170.581 105.955Z" fill="#2F945A"/>
<path d="M170.62 108.004C170.561 107.91 171.551 107.186 172.833 106.39C174.114 105.592 175.2 105.021 175.259 105.116C175.318 105.21 174.327 105.933 173.046 106.731C171.765 107.529 170.678 108.098 170.62 108.004Z" fill="#2F945A"/>
<path d="M170.401 107.411C170.342 107.317 171.238 106.653 172.4 105.93C173.564 105.206 174.555 104.697 174.613 104.791C174.672 104.885 173.776 105.549 172.613 106.272C171.451 106.996 170.46 107.505 170.401 107.411Z" fill="#2F945A"/>
<g opacity="0.5">
<path d="M165.742 99.5879L171.496 95.9092L171.558 95.943C174.435 97.5027 175.767 102.251 176.649 105.395C176.801 105.936 176.944 106.447 177.079 106.883C177.98 109.801 181.092 110.823 181.366 110.762L181.476 110.972L175.333 115.042L175.269 115.003C171.328 112.611 169.408 108.465 168.961 105.641C168.543 103.005 165.855 99.7252 165.828 99.6925L165.742 99.5879ZM171.505 96.1869L166.097 99.6447C166.572 100.239 168.807 103.141 169.197 105.603C169.633 108.361 171.501 112.403 175.328 114.758L181.064 110.957C180.805 110.892 180.517 110.772 180.434 110.736C179.78 110.456 177.592 109.353 176.85 106.953C176.715 106.515 176.571 106.002 176.418 105.459C175.554 102.378 174.251 97.7336 171.505 96.1869Z" fill="white"/>
</g>
<path d="M55.6835 122.768C55.6835 122.768 52.1403 123.44 49.5047 119.987C47.8741 117.848 44.1396 114.173 42.3407 115.167L39 120.08C39 120.08 42.1831 121.718 44.2538 124.709C46.2883 127.648 51.6689 129.161 51.6689 129.161L55.6835 122.768Z" fill="#2F945A"/>
<g opacity="0.4">
<path d="M44.8925 124.151C43.5761 122.73 44.0861 120.68 45.3311 119.879C46.5756 119.078 48.6 120.007 49.4006 121.251C50.2012 122.497 49.8411 124.155 48.5966 124.956C47.3516 125.756 45.8984 125.238 44.8925 124.151Z" fill="white"/>
</g>
<path d="M45.2882 123.087C45.3243 123.06 45.4193 123.124 45.5663 123.244C45.7138 123.361 45.9167 123.54 46.1871 123.672C46.3187 123.736 46.4725 123.782 46.6281 123.791C46.7795 123.8 46.9386 123.76 47.0292 123.678C47.1318 123.595 47.1993 123.441 47.1849 123.311C47.1786 123.192 47.0798 123.047 46.9 122.881C46.8123 122.799 46.712 122.712 46.6113 122.609C46.511 122.505 46.4059 122.383 46.3293 122.226C46.2917 122.146 46.2628 122.06 46.2469 121.971C46.2305 121.881 46.2281 121.785 46.2425 121.694C46.2695 121.512 46.3544 121.353 46.4638 121.231C46.5742 121.109 46.711 121.02 46.8595 120.971C47.0123 120.922 47.1511 120.917 47.2827 120.932C47.5435 120.963 47.7459 121.07 47.9074 121.181C48.0703 121.297 48.185 121.422 48.2771 121.536C48.3682 121.649 48.4342 121.754 48.4819 121.84C48.5788 122.015 48.6096 122.124 48.5759 122.151C48.5412 122.179 48.4424 122.12 48.2925 122C48.1421 121.885 47.9387 121.696 47.6741 121.567C47.542 121.505 47.3892 121.458 47.2451 121.459C47.0976 121.462 46.9896 121.509 46.9101 121.614C46.8725 121.664 46.8499 121.722 46.8465 121.775C46.8436 121.803 46.8475 121.828 46.8537 121.856C46.861 121.886 46.872 121.916 46.8894 121.948C46.954 122.078 47.1333 122.229 47.3386 122.419C47.4408 122.517 47.5488 122.627 47.6403 122.769C47.6857 122.841 47.7252 122.92 47.7555 123.005C47.7849 123.092 47.8057 123.184 47.8081 123.274C47.824 123.641 47.6442 123.961 47.3844 124.147C47.1097 124.342 46.8046 124.357 46.5616 124.315C46.3163 124.273 46.1158 124.172 45.9538 124.059C45.6372 123.829 45.4738 123.576 45.3754 123.403C45.279 123.225 45.2535 123.113 45.2882 123.087Z" fill="#2F945A"/>
<path d="M45.9346 124.57C45.8628 124.519 46.3612 123.686 47.0485 122.71C47.7359 121.733 48.3509 120.981 48.4227 121.032C48.4945 121.083 47.9961 121.915 47.3093 122.893C46.6229 123.87 46.0064 124.62 45.9346 124.57Z" fill="#2F945A"/>
<path d="M45.6034 124.202C45.5311 124.152 45.9788 123.391 46.6025 122.506C47.2267 121.618 47.7912 120.941 47.863 120.992C47.9348 121.042 47.4875 121.802 46.8633 122.688C46.2396 123.575 45.6752 124.252 45.6034 124.202Z" fill="#2F945A"/>
<g opacity="0.5">
<path d="M39.793 119.943L42.8493 115.485L42.9048 115.491C45.4825 115.739 47.92 118.788 49.5337 120.806C49.8113 121.153 50.074 121.481 50.3068 121.757C51.8651 123.605 54.4482 123.389 54.6284 123.259L54.774 123.378L51.5552 128.241L51.4959 128.232C47.8857 127.707 45.2058 125.279 44.0081 123.359C42.8893 121.567 39.9178 120.007 39.8879 119.992L39.793 119.943ZM42.9419 115.685L40.0692 119.875C40.5984 120.162 43.1236 121.585 44.1681 123.26C45.3384 125.134 47.9474 127.503 51.4636 128.037L54.4694 123.496C54.2607 123.528 54.0134 123.529 53.9421 123.529C53.3791 123.526 51.4439 123.399 50.1622 121.879C49.9285 121.601 49.6648 121.272 49.3862 120.924C47.8043 118.946 45.4198 115.964 42.9419 115.685Z" fill="white"/>
</g>
<path d="M103.694 95.7321C103.694 95.7321 102.378 100.025 97.0444 100.925C93.7432 101.48 87.5273 103.461 87.5784 106.019L91.0517 112.551C91.0517 112.551 94.7034 109.995 99.1995 109.449C103.618 108.913 108.407 103.864 108.407 103.864L103.694 95.7321Z" fill="#2F945A"/>
<g opacity="0.4">
<path d="M98.9659 108.416C96.6364 109.041 94.6746 107.29 94.5141 105.454C94.3541 103.618 96.5515 101.927 98.387 101.767C100.224 101.607 101.841 102.966 102.001 104.802C102.161 106.638 100.746 107.938 98.9659 108.416Z" fill="white"/>
</g>
<path d="M98.0107 107.373C98.0016 107.317 98.1269 107.25 98.3443 107.158C98.5588 107.063 98.874 106.944 99.1762 106.723C99.3223 106.614 99.4635 106.472 99.5628 106.306C99.6611 106.144 99.7098 105.946 99.6712 105.799C99.6394 105.637 99.5088 105.474 99.3579 105.414C99.2235 105.352 99.0061 105.377 98.7188 105.478C98.5766 105.527 98.4233 105.587 98.2508 105.638C98.0787 105.689 97.8835 105.733 97.6656 105.727C97.5553 105.722 97.4449 105.704 97.3374 105.67C97.2285 105.636 97.1215 105.583 97.0299 105.514C96.8448 105.378 96.719 105.193 96.6481 105.001C96.5778 104.808 96.5594 104.607 96.5913 104.414C96.626 104.218 96.7002 104.061 96.7932 103.925C96.9788 103.656 97.214 103.495 97.4304 103.382C97.6521 103.269 97.8565 103.215 98.0358 103.18C98.2132 103.146 98.3669 103.134 98.4894 103.131C98.739 103.126 98.8769 103.155 98.8865 103.207C98.8976 103.262 98.7762 103.337 98.5559 103.432C98.3424 103.531 98.016 103.645 97.7201 103.862C97.5755 103.971 97.4343 104.112 97.3523 104.272C97.2689 104.435 97.2593 104.582 97.3287 104.73C97.3625 104.801 97.4126 104.86 97.4695 104.894C97.4984 104.913 97.5278 104.924 97.562 104.932C97.5996 104.942 97.6386 104.947 97.6839 104.947C97.8652 104.951 98.1351 104.841 98.4638 104.726C98.6301 104.669 98.8138 104.614 99.0244 104.596C99.1304 104.588 99.2394 104.59 99.3507 104.606C99.4635 104.623 99.5768 104.654 99.677 104.704C100.091 104.9 100.338 105.283 100.393 105.678C100.449 106.094 100.288 106.438 100.101 106.682C99.9122 106.927 99.6852 107.09 99.4664 107.203C99.0287 107.418 98.6552 107.451 98.4069 107.459C98.1568 107.463 98.0185 107.426 98.0107 107.373Z" fill="#2F945A"/>
<path d="M100.027 107.511C99.9293 107.56 99.3008 106.528 98.6245 105.204C97.9464 103.88 97.4759 102.766 97.5733 102.717C97.6707 102.666 98.2992 103.699 98.9769 105.023C99.6555 106.346 100.125 107.46 100.027 107.511Z" fill="#2F945A"/>
<path d="M99.4206 107.665C99.3233 107.716 98.7453 106.781 98.1318 105.58C97.5167 104.377 97.0983 103.363 97.1957 103.313C97.2931 103.263 97.871 104.197 98.4846 105.399C99.0996 106.6 99.518 107.615 99.4206 107.665Z" fill="#2F945A"/>
<g opacity="0.5">
<path d="M91.3576 111.603L88.2207 105.649L88.2588 105.591C90.0282 102.895 94.801 101.979 97.9595 101.372C98.5037 101.268 99.0175 101.169 99.4561 101.073C102.396 100.429 103.657 97.458 103.619 97.1842L103.834 97.0931L107.323 103.461L107.279 103.521C104.606 107.193 100.376 108.736 97.5662 108.942C94.9427 109.134 91.5002 111.503 91.466 111.527L91.3576 111.603ZM88.494 105.663L91.4429 111.259C92.0651 110.842 95.0993 108.887 97.5498 108.707C100.294 108.506 104.417 107.006 107.046 103.443L103.787 97.4965C103.702 97.7452 103.56 98.0185 103.518 98.0971C103.188 98.7155 101.925 100.774 99.5077 101.304C99.0657 101.4 98.5504 101.5 98.0043 101.604C94.9075 102.199 90.2393 103.095 88.494 105.663Z" fill="white"/>
</g>
<path d="M74.772 83.5878C74.772 83.5878 70.3598 87.0679 64.2307 84.1952C60.4373 82.4156 52.6299 80.0273 50.8605 82.6966L49.7832 91.8917C49.7832 91.8917 55.3614 91.8623 60.3766 94.5027C65.3055 97.0988 73.8297 95.313 73.8297 95.313L74.772 83.5878Z" fill="#2F945A"/>
<g opacity="0.4">
<path d="M60.8676 93.2685C58.0253 92.2529 57.2536 89.0534 58.3959 87.0502C59.5387 85.0465 63.0043 84.872 65.007 86.0139C67.0107 87.1581 67.7072 89.7084 66.5644 91.7121C65.422 93.7148 63.04 94.0445 60.8676 93.2685Z" fill="white"/>
</g>
<path d="M60.6374 91.5203C60.6678 91.4562 60.8447 91.4765 61.1343 91.5362C61.4226 91.5917 61.8323 91.6934 62.3003 91.6808C62.5278 91.6736 62.7746 91.6278 62.9953 91.5271C63.2113 91.4307 63.4026 91.2615 63.4682 91.0827C63.5501 90.8942 63.5328 90.6325 63.419 90.4643C63.3246 90.3047 63.0836 90.1751 62.7158 90.0753C62.535 90.0237 62.334 89.9765 62.1205 89.9066C61.9075 89.8362 61.6747 89.7427 61.4554 89.5808C61.3455 89.4974 61.2447 89.3995 61.158 89.2882C61.0702 89.1754 60.9979 89.0448 60.9526 88.9084C60.8586 88.637 60.8611 88.3565 60.9242 88.1092C60.9888 87.8605 61.1141 87.6397 61.2838 87.4648C61.4597 87.2869 61.6477 87.179 61.84 87.1052C62.2227 86.9601 62.5794 86.9625 62.8826 87.0001C63.1906 87.0425 63.4393 87.1322 63.6489 87.2238C63.8562 87.3149 64.0225 87.4118 64.1507 87.4956C64.411 87.6687 64.532 87.7964 64.505 87.8576C64.4775 87.9217 64.2992 87.9121 64.0047 87.8533C63.714 87.8031 63.2966 87.6884 62.8382 87.7005C62.6112 87.7101 62.3659 87.7549 62.1678 87.86C61.9653 87.9694 61.8506 88.1131 61.8164 88.315C61.8009 88.4119 61.8111 88.5078 61.8448 88.5835C61.8612 88.624 61.8834 88.6553 61.9128 88.6895C61.9446 88.7262 61.9817 88.7589 62.028 88.7912C62.2116 88.9248 62.5673 89.0043 62.9881 89.119C63.1992 89.1797 63.4277 89.2535 63.6571 89.3851C63.7718 89.4521 63.8827 89.5321 63.9859 89.6275C64.089 89.7258 64.184 89.8386 64.2519 89.9611C64.5387 90.4575 64.5204 91.0277 64.2953 91.4726C64.0567 91.9411 63.6456 92.1807 63.2802 92.2983C62.9105 92.4168 62.5611 92.4222 62.256 92.3826C61.6525 92.292 61.2442 92.0602 60.983 91.8915C60.7237 91.717 60.6075 91.5801 60.6374 91.5203Z" fill="#2F945A"/>
<path d="M62.6162 93.0955C62.4807 93.0772 62.569 91.5676 62.8157 89.7239C63.0611 87.8784 63.37 86.3972 63.506 86.415C63.6414 86.4328 63.5532 87.943 63.3079 89.7885C63.063 91.6332 62.7521 93.1139 62.6162 93.0955Z" fill="#2F945A"/>
<path d="M61.8799 92.8279C61.7435 92.8106 61.8144 91.4373 62.0385 89.7638C62.2617 88.0884 62.5543 86.746 62.6897 86.7643C62.8251 86.7822 62.7548 88.1554 62.5302 89.8289C62.3075 91.5034 62.0154 92.8457 61.8799 92.8279Z" fill="#2F945A"/>
<g opacity="0.5">
<path d="M50.7793 91.1344L51.7915 82.7732L51.872 82.7409C55.6128 81.2269 61.177 83.6832 64.8595 85.309C65.4938 85.589 66.0929 85.8536 66.613 86.0667C70.0974 87.4977 73.5104 85.3384 73.6661 85.0294L73.9529 85.0892L73.0087 94.1272L72.9209 94.158C67.5539 96.033 62.1024 94.6082 59.0644 92.819C56.2278 91.1489 50.9981 91.1344 50.9456 91.1349L50.7793 91.1344ZM52.0629 82.9824L51.1119 90.8409C52.0494 90.8549 56.5643 91.0038 59.2133 92.565C62.181 94.3123 67.4922 95.7057 72.7344 93.9108L73.616 85.4709C73.3509 85.6661 73.0101 85.8459 72.9113 85.897C72.1314 86.299 69.3657 87.5175 66.5007 86.3409C65.9772 86.1255 65.3762 85.8604 64.7395 85.5794C61.1302 83.9854 55.6885 81.5826 52.0629 82.9824Z" fill="white"/>
</g>
<path d="M110.157 24.5053C110.157 24.5053 110.776 29.4227 105.815 32.7427C102.743 34.7965 97.3829 39.6044 98.5927 42.1566L105.046 47.1588C105.046 47.1588 107.564 42.9327 111.843 40.3482C116.049 37.8085 118.584 30.5578 118.584 30.5578L110.157 24.5053Z" fill="#2F945A"/>
<g opacity="0.4">
<path d="M111.134 39.4163C109.072 41.1 106.304 40.2256 105.312 38.4499C104.319 36.6742 105.766 33.9775 107.541 32.985C109.318 31.9931 111.561 32.6288 112.553 34.4045C113.546 36.1802 112.709 38.1294 111.134 39.4163Z" fill="white"/>
</g>
<path d="M109.704 38.7965C109.67 38.7445 109.766 38.6196 109.943 38.4288C110.116 38.2365 110.379 37.9733 110.583 37.6142C110.681 37.4387 110.759 37.232 110.784 37.0194C110.809 36.8121 110.769 36.5909 110.664 36.4598C110.558 36.3118 110.353 36.2063 110.174 36.2154C110.011 36.214 109.803 36.3369 109.56 36.5692C109.439 36.6825 109.312 36.8126 109.162 36.9418C109.011 37.0705 108.835 37.204 108.613 37.2956C108.499 37.3404 108.38 37.3722 108.256 37.3867C108.131 37.4016 107.999 37.3968 107.876 37.3688C107.628 37.3163 107.417 37.1867 107.259 37.0261C107.101 36.8637 106.991 36.669 106.936 36.4612C106.882 36.2477 106.886 36.0564 106.918 35.8775C106.983 35.5228 107.147 35.2543 107.314 35.0422C107.486 34.8292 107.667 34.6817 107.832 34.5651C107.995 34.4499 108.144 34.3684 108.266 34.3101C108.515 34.1925 108.667 34.1592 108.7 34.2074C108.736 34.2571 108.648 34.3877 108.47 34.5834C108.299 34.78 108.023 35.0427 107.823 35.3946C107.726 35.57 107.649 35.7763 107.638 35.9735C107.628 36.1764 107.685 36.3282 107.822 36.4458C107.888 36.5012 107.965 36.5374 108.038 36.5466C108.076 36.5528 108.109 36.5499 108.148 36.5437C108.191 36.5364 108.232 36.5234 108.278 36.5027C108.462 36.4251 108.684 36.1923 108.963 35.9272C109.105 35.7951 109.264 35.6568 109.468 35.543C109.571 35.4866 109.682 35.4399 109.801 35.4052C109.923 35.3719 110.051 35.3517 110.174 35.3565C110.679 35.3661 111.102 35.6399 111.335 36.0125C111.581 36.4063 111.574 36.8256 111.496 37.1553C111.417 37.4884 111.262 37.7545 111.094 37.9675C110.75 38.382 110.389 38.5849 110.143 38.705C109.892 38.8206 109.737 38.8462 109.704 38.7965Z" fill="#2F945A"/>
<path d="M111.802 38.0225C111.727 38.1165 110.627 37.3622 109.347 36.336C108.065 35.3098 107.087 34.4017 107.162 34.3077C107.238 34.2133 108.337 34.9681 109.62 35.9938C110.901 37.019 111.878 37.928 111.802 38.0225Z" fill="#2F945A"/>
<path d="M111.253 38.4491C111.178 38.544 110.173 37.8649 109.012 36.9337C107.849 36.002 106.968 35.1695 107.044 35.0756C107.119 34.9811 108.124 35.6597 109.285 36.5919C110.448 37.5227 111.329 38.3546 111.253 38.4491Z" fill="#2F945A"/>
<g opacity="0.5">
<path d="M104.926 46.0652L99.0723 41.4919L99.0843 41.4168C99.6449 37.902 104.034 34.8191 106.94 32.7788C107.44 32.4275 107.913 32.0954 108.311 31.7999C110.98 29.8203 110.903 26.2593 110.741 26.0009L110.916 25.8115L117.311 30.6416L117.294 30.7221C116.265 35.6289 112.706 39.0974 109.971 40.5761C107.418 41.9576 105.025 45.8998 105.001 45.9398L104.926 46.0652ZM99.3542 41.3825L104.856 45.6805C105.293 44.9787 107.462 41.6375 109.848 40.3482C112.519 38.9031 115.991 35.5267 117.023 30.7501L111.051 26.2395C111.078 26.5287 111.059 26.8681 111.052 26.9659C111.001 27.7376 110.661 30.3814 108.467 32.0096C108.066 32.307 107.592 32.64 107.09 32.9924C104.242 34.9922 99.9485 38.0071 99.3542 41.3825Z" fill="white"/>
</g>
</g>
<defs>
<clipPath id="clip0_4044_5124">
<path d="M0 10C0 4.47715 4.47715 0 10 0H262C267.523 0 272 4.47715 272 10V176H0V10Z" fill="white"/>
</clipPath>
<clipPath id="clip1_4044_5124">
<rect width="7.93142" height="7.93142" fill="white" transform="translate(172.055 49) rotate(15)"/>
</clipPath>
</defs>
</svg>
