<svg width="272" height="200" viewBox="0 0 272 200" fill="none" xmlns="http://www.w3.org/2000/svg">
<path d="M0 10C0 4.47715 4.47715 0 10 0H262C267.523 0 272 4.47715 272 10V176H0V10Z" fill="white"/>
<path d="M0 10C0 4.47716 4.47715 0 10 0H262C267.523 0 272 4.47715 272 10V200H0V10Z" fill="#EAF4EF"/>
<path d="M131.711 11.9901C129.006 8.4769 121.401 10.1979 116.12 12.6798C116.12 12.6798 112.499 14.1604 111.138 14.9562C111.123 14.9595 111.11 14.9612 111.095 14.9645L99.1658 12.8357C98.1976 12.6632 97.1995 12.7843 96.2992 13.1855L95.2895 13.6348C94.7789 13.8619 94.7656 14.5815 95.268 14.8285L103.909 19.0712C103.911 19.121 103.911 19.1309 103.913 19.1806C99.0498 22.0224 94.8867 24.4563 94.8867 24.4563C94.8419 24.4828 94.7971 24.5093 94.7523 24.5358C93.0529 25.4991 91.0501 25.7942 89.1368 25.3482L84.5062 24.2673C84.2708 24.2125 84.0221 24.2092 83.7949 24.2888C82.9461 24.5856 82.7289 25.6699 83.3788 26.2717L88.5549 31.0814C89.3657 31.8342 90.5378 32.0547 91.5657 31.6452L94.1621 30.6106L107.308 25.1758L105.453 32.4012C105.383 32.6996 105.605 32.9864 105.912 32.9897L106.517 32.9997C107.346 33.013 108.124 32.5968 108.575 31.9005L114.262 22.3009L129.77 15.888C131.837 15.0656 132.648 13.3728 131.711 11.9901Z" fill="#2F945A"/>
<path d="M82.7734 12.2708C82.9959 9.30705 85.8436 7.06722 89.1339 7.26758C89.612 7.29665 90.0705 7.38101 90.5087 7.50413C92.0231 5.25689 94.8378 3.82704 97.9507 4.01685C102.397 4.28788 105.757 7.75407 105.457 11.7589H112.785" stroke="#143E26" stroke-width="0.285002" stroke-miterlimit="10"/>
<path d="M139.641 26.4106C139.876 23.2759 137.246 20.563 133.766 20.3509C131.329 20.2025 129.126 21.3217 127.941 23.0804C127.598 22.9841 127.239 22.9182 126.865 22.8954C124.29 22.7384 122.061 24.4917 121.886 26.8114H116.324" stroke="#143E26" stroke-width="0.285002" stroke-miterlimit="10"/>
<path d="M72.1662 22.874C72.4016 19.7392 69.7713 17.0263 66.2911 16.8143C63.8547 16.6658 61.6516 17.785 60.4663 19.5437C60.1233 19.4474 59.7645 19.3813 59.3902 19.3585C56.8149 19.2017 54.5861 20.9548 54.4118 23.2744H48.8496" stroke="#143E26" stroke-width="0.285002" stroke-miterlimit="10"/>
<path d="M135.602 130.116H13.3789V164.491H135.602V130.116Z" fill="#7EDEA7" stroke="#216940" stroke-width="0.411623" stroke-miterlimit="10"/>
<path d="M38.2627 130.814H13.5078V53.8584H39.6885L38.2627 130.814Z" fill="white" stroke="#216940" stroke-width="0.411623" stroke-miterlimit="10"/>
<path d="M135.604 53.8584H110.137V130.814H135.604V53.8584Z" fill="white" stroke="#216940" stroke-width="0.411623" stroke-miterlimit="10"/>
<path d="M9.40772 99.0183H139.575V100.053H9.40772V99.0183Z" fill="#2A6744" stroke="#216940" stroke-width="0.823246"/>
<path d="M9.40772 68.1277H139.575V69.1626H9.40772V68.1277Z" fill="#2A6744" stroke="#216940" stroke-width="0.823246"/>
<path d="M9.40772 53.1085H139.575V54.1433H9.40772V53.1085Z" fill="#2A6744" stroke="#216940" stroke-width="0.823246"/>
<path d="M137.149 47.5869H110.848" stroke="#216940" stroke-width="0.411623" stroke-miterlimit="10"/>
<path d="M112.912 47.8198V52.9289" stroke="#216940" stroke-width="0.411623" stroke-miterlimit="10"/>
<path d="M116.264 47.8198V52.9289" stroke="#216940" stroke-width="0.411623" stroke-miterlimit="10"/>
<path d="M119.617 47.8198V52.9289" stroke="#216940" stroke-width="0.411623" stroke-miterlimit="10"/>
<path d="M122.967 47.8198V52.9289" stroke="#216940" stroke-width="0.411623" stroke-miterlimit="10"/>
<path d="M126.318 47.8198V52.9289" stroke="#216940" stroke-width="0.411623" stroke-miterlimit="10"/>
<path d="M129.672 47.8198V52.9289" stroke="#216940" stroke-width="0.411623" stroke-miterlimit="10"/>
<path d="M133.023 47.8198V52.9289" stroke="#216940" stroke-width="0.411623" stroke-miterlimit="10"/>
<path d="M38.7353 47.4321H8.94531" stroke="#216940" stroke-width="0.411623" stroke-miterlimit="10"/>
<path d="M12.4336 47.6643V52.7742" stroke="#216940" stroke-width="0.411623" stroke-miterlimit="10"/>
<path d="M15.7871 47.6643V52.7742" stroke="#216940" stroke-width="0.411623" stroke-miterlimit="10"/>
<path d="M19.1387 47.6643V52.7742" stroke="#216940" stroke-width="0.411623" stroke-miterlimit="10"/>
<path d="M22.4902 47.6643V52.7742" stroke="#216940" stroke-width="0.411623" stroke-miterlimit="10"/>
<path d="M25.8418 47.6643V52.7742" stroke="#216940" stroke-width="0.411623" stroke-miterlimit="10"/>
<path d="M29.1934 47.6643V52.7742" stroke="#216940" stroke-width="0.411623" stroke-miterlimit="10"/>
<path d="M32.5449 47.6643V52.7742" stroke="#216940" stroke-width="0.411623" stroke-miterlimit="10"/>
<path d="M35.8984 47.6643V52.7742" stroke="#216940" stroke-width="0.411623" stroke-miterlimit="10"/>
<path d="M95.12 27.303H54.1211V130.813H95.12V27.303Z" fill="white" stroke="#216940" stroke-width="0.411623" stroke-miterlimit="10"/>
<path d="M95.2749 43.6633H110.439V130.402H95.2749V43.6633Z" fill="#32905A" stroke="#216940" stroke-width="0.823246"/>
<path d="M38.6304 43.6633H53.7943V130.402H38.6304V43.6633Z" fill="#32905A" stroke="#216940" stroke-width="0.823246"/>
<path d="M57.4976 59.0696H90.1951V60.1818H57.4976V59.0696Z" fill="#2A6744" stroke="#216940" stroke-width="0.823246"/>
<path d="M57.4976 53.3793H90.1951V54.4915H57.4976V53.3793Z" fill="#2A6744" stroke="#216940" stroke-width="0.823246"/>
<path d="M57.4976 47.689H90.1951V48.8012H57.4976V47.689Z" fill="#2A6744" stroke="#216940" stroke-width="0.823246"/>
<path d="M51.439 81.1342H98.0609V82.169H51.439V81.1342Z" fill="#2A6744" stroke="#216940" stroke-width="0.823246"/>
<mask id="path-37-inside-1_4033_17499" fill="white">
<path d="M41.9998 43.2517H41.3125V120.207H41.9998V43.2517Z"/>
</mask>
<path d="M41.9998 43.2517H41.3125V120.207H41.9998V43.2517Z" fill="#BFDECC"/>
<path d="M41.3125 43.2517V42.4285H40.4893V43.2517H41.3125ZM41.9998 43.2517H42.8231V42.4285H41.9998V43.2517ZM41.9998 120.207V121.03H42.8231V120.207H41.9998ZM41.3125 120.207H40.4893V121.03H41.3125V120.207ZM41.3125 44.075H41.9998V42.4285H41.3125V44.075ZM41.1766 43.2517V120.207H42.8231V43.2517H41.1766ZM41.9998 119.384H41.3125V121.03H41.9998V119.384ZM42.1357 120.207V43.2517H40.4893V120.207H42.1357Z" fill="#216940" mask="url(#path-37-inside-1_4033_17499)"/>
<mask id="path-39-inside-2_4033_17499" fill="white">
<path d="M44.5799 43.2517H43.8926V120.207H44.5799V43.2517Z"/>
</mask>
<path d="M44.5799 43.2517H43.8926V120.207H44.5799V43.2517Z" fill="#BFDECC"/>
<path d="M43.8926 43.2517V42.4285H43.0693V43.2517H43.8926ZM44.5799 43.2517H45.4031V42.4285H44.5799V43.2517ZM44.5799 120.207V121.03H45.4031V120.207H44.5799ZM43.8926 120.207H43.0693V121.03H43.8926V120.207ZM43.8926 44.075H44.5799V42.4285H43.8926V44.075ZM43.7566 43.2517V120.207H45.4031V43.2517H43.7566ZM44.5799 119.384H43.8926V121.03H44.5799V119.384ZM44.7158 120.207V43.2517H43.0693V120.207H44.7158Z" fill="#216940" mask="url(#path-39-inside-2_4033_17499)"/>
<mask id="path-41-inside-3_4033_17499" fill="white">
<path d="M47.158 43.2517H46.4707V120.207H47.158V43.2517Z"/>
</mask>
<path d="M47.158 43.2517H46.4707V120.207H47.158V43.2517Z" fill="#BFDECC"/>
<path d="M46.4707 43.2517V42.4285H45.6475V43.2517H46.4707ZM47.158 43.2517H47.9813V42.4285H47.158V43.2517ZM47.158 120.207V121.03H47.9813V120.207H47.158ZM46.4707 120.207H45.6475V121.03H46.4707V120.207ZM46.4707 44.075H47.158V42.4285H46.4707V44.075ZM46.3348 43.2517V120.207H47.9813V43.2517H46.3348ZM47.158 119.384H46.4707V121.03H47.158V119.384ZM47.2939 120.207V43.2517H45.6475V120.207H47.2939Z" fill="#216940" mask="url(#path-41-inside-3_4033_17499)"/>
<mask id="path-43-inside-4_4033_17499" fill="white">
<path d="M102.51 43.2517H101.822V120.207H102.51V43.2517Z"/>
</mask>
<path d="M102.51 43.2517H101.822V120.207H102.51V43.2517Z" fill="#BFDECC"/>
<path d="M101.822 43.2517V42.4285H100.999V43.2517H101.822ZM102.51 43.2517H103.333V42.4285H102.51V43.2517ZM102.51 120.207V121.03H103.333V120.207H102.51ZM101.822 120.207H100.999V121.03H101.822V120.207ZM101.822 44.075H102.51V42.4285H101.822V44.075ZM101.686 43.2517V120.207H103.333V43.2517H101.686ZM102.51 119.384H101.822V121.03H102.51V119.384ZM102.646 120.207V43.2517H100.999V120.207H102.646Z" fill="#216940" mask="url(#path-43-inside-4_4033_17499)"/>
<mask id="path-45-inside-5_4033_17499" fill="white">
<path d="M105.088 43.2517H104.4V120.207H105.088V43.2517Z"/>
</mask>
<path d="M105.088 43.2517H104.4V120.207H105.088V43.2517Z" fill="#BFDECC"/>
<path d="M104.4 43.2517V42.4285H103.577V43.2517H104.4ZM105.088 43.2517H105.911V42.4285H105.088V43.2517ZM105.088 120.207V121.03H105.911V120.207H105.088ZM104.4 120.207H103.577V121.03H104.4V120.207ZM104.4 44.075H105.088V42.4285H104.4V44.075ZM104.264 43.2517V120.207H105.911V43.2517H104.264ZM105.088 119.384H104.4V121.03H105.088V119.384ZM105.224 120.207V43.2517H103.577V120.207H105.224Z" fill="#216940" mask="url(#path-45-inside-5_4033_17499)"/>
<mask id="path-47-inside-6_4033_17499" fill="white">
<path d="M107.67 43.2517H106.982V120.207H107.67V43.2517Z"/>
</mask>
<path d="M107.67 43.2517H106.982V120.207H107.67V43.2517Z" fill="#BFDECC"/>
<path d="M106.982 43.2517V42.4285H106.159V43.2517H106.982ZM107.67 43.2517H108.493V42.4285H107.67V43.2517ZM107.67 120.207V121.03H108.493V120.207H107.67ZM106.982 120.207H106.159V121.03H106.982V120.207ZM106.982 44.075H107.67V42.4285H106.982V44.075ZM106.846 43.2517V120.207H108.493V43.2517H106.846ZM107.67 119.384H106.982V121.03H107.67V119.384ZM107.806 120.207V43.2517H106.159V120.207H107.806Z" fill="#216940" mask="url(#path-47-inside-6_4033_17499)"/>
<mask id="path-49-inside-7_4033_17499" fill="white">
<path d="M74.7498 131.046H74.1484V164.491H74.7498V131.046Z"/>
</mask>
<path d="M74.7498 131.046H74.1484V164.491H74.7498V131.046Z" fill="black"/>
<path d="M74.1484 131.046V130.223H73.3252V131.046H74.1484ZM74.7498 131.046H75.5731V130.223H74.7498V131.046ZM74.7498 164.491V165.314H75.5731V164.491H74.7498ZM74.1484 164.491H73.3252V165.314H74.1484V164.491ZM74.1484 131.869H74.7498V130.223H74.1484V131.869ZM73.9266 131.046V164.491H75.5731V131.046H73.9266ZM74.7498 163.668H74.1484V165.314H74.7498V163.668ZM74.9717 164.491V131.046H73.3252V164.491H74.9717Z" fill="#216940" mask="url(#path-49-inside-7_4033_17499)"/>
<mask id="path-51-inside-8_4033_17499" fill="white">
<path d="M113.363 131.046H112.762V164.491H113.363V131.046Z"/>
</mask>
<path d="M113.363 131.046H112.762V164.491H113.363V131.046Z" fill="black"/>
<path d="M112.762 131.046V130.223H111.938V131.046H112.762ZM113.363 131.046H114.186V130.223H113.363V131.046ZM113.363 164.491V165.314H114.186V164.491H113.363ZM112.762 164.491H111.938V165.314H112.762V164.491ZM112.762 131.869H113.363V130.223H112.762V131.869ZM112.54 131.046V164.491H114.186V131.046H112.54ZM113.363 163.668H112.762V165.314H113.363V163.668ZM113.585 164.491V131.046H111.938V164.491H113.585Z" fill="#216940" mask="url(#path-51-inside-8_4033_17499)"/>
<mask id="path-53-inside-9_4033_17499" fill="white">
<path d="M129.889 148.039V147.498H94.8205V148.039H129.889Z"/>
</mask>
<path d="M129.889 148.039V147.498H94.8205V148.039H129.889Z" fill="black"/>
<path d="M129.889 147.498H130.712V146.674H129.889V147.498ZM129.889 148.039V148.863H130.712V148.039H129.889ZM94.8205 148.039H93.9973V148.863H94.8205V148.039ZM94.8205 147.498V146.674H93.9973V147.498H94.8205ZM129.065 147.498V148.039H130.712V147.498H129.065ZM129.889 147.216H94.8205V148.863H129.889V147.216ZM95.6438 148.039V147.498H93.9973V148.039H95.6438ZM94.8205 148.321H129.889V146.674H94.8205V148.321Z" fill="#216940" mask="url(#path-53-inside-9_4033_17499)"/>
<mask id="path-55-inside-10_4033_17499" fill="white">
<path d="M36.2654 131.046H35.6641V164.491H36.2654V131.046Z"/>
</mask>
<path d="M36.2654 131.046H35.6641V164.491H36.2654V131.046Z" fill="black"/>
<path d="M35.6641 131.046V130.223H34.8408V131.046H35.6641ZM36.2654 131.046H37.0887V130.223H36.2654V131.046ZM36.2654 164.491V165.314H37.0887V164.491H36.2654ZM35.6641 164.491H34.8408V165.314H35.6641V164.491ZM35.6641 131.869H36.2654V130.223H35.6641V131.869ZM35.4422 131.046V164.491H37.0887V131.046H35.4422ZM36.2654 163.668H35.6641V165.314H36.2654V163.668ZM36.4873 164.491V131.046H34.8408V164.491H36.4873Z" fill="#216940" mask="url(#path-55-inside-10_4033_17499)"/>
<mask id="path-57-inside-11_4033_17499" fill="white">
<path d="M52.7871 148.039V147.497H18.7499V148.039H52.7871Z"/>
</mask>
<path d="M52.7871 148.039V147.497H18.7499V148.039H52.7871Z" fill="black"/>
<path d="M52.7871 147.497H53.6104V146.674H52.7871V147.497ZM52.7871 148.039V148.862H53.6104V148.039H52.7871ZM18.7499 148.039H17.9267V148.862H18.7499V148.039ZM18.7499 147.497V146.674H17.9267V147.497H18.7499ZM51.9639 147.497V148.039H53.6104V147.497H51.9639ZM52.7871 147.216H18.7499V148.862H52.7871V147.216ZM19.5732 148.039V147.497H17.9267V148.039H19.5732ZM18.7499 148.321H52.7871V146.674H18.7499V148.321Z" fill="#216940" mask="url(#path-57-inside-11_4033_17499)"/>
<path d="M95.1851 131.303H103.817V164.079H95.1851V131.303Z" fill="#2A6744" stroke="#216940" stroke-width="0.823246"/>
<path d="M121.66 131.303H130.291V164.079H121.66V131.303Z" fill="#2A6744" stroke="#216940" stroke-width="0.823246"/>
<path d="M18.519 131.303H27.1508V164.079H18.519V131.303Z" fill="#2A6744" stroke="#216940" stroke-width="0.823246"/>
<path d="M44.9917 131.303H53.6235V164.079H44.9917V131.303Z" fill="#2A6744" stroke="#216940" stroke-width="0.823246"/>
<path d="M70.7085 86.7619H59.8789V104.878H70.7085V86.7619Z" fill="#7EDEA7" stroke="#216940" stroke-width="0.411623" stroke-miterlimit="10"/>
<path d="M70.7085 86.7619H59.8789V104.878H70.7085V86.7619Z" fill="#7EDEA7" stroke="#216940" stroke-width="0.411623" stroke-miterlimit="10"/>
<path d="M70.7085 86.7619H59.8789V104.878H70.7085V86.7619Z" stroke="#216940" stroke-width="0.411623" stroke-miterlimit="10"/>
<path d="M65.1211 86.6162V104.723" stroke="#216940" stroke-width="0.411623" stroke-miterlimit="10"/>
<path d="M59.9668 95.9164H70.6575" stroke="#216940" stroke-width="0.411623" stroke-miterlimit="10"/>
<path d="M59.9668 91.1843H70.6575" stroke="#216940" stroke-width="0.411623" stroke-miterlimit="10"/>
<path d="M59.9668 100.823H70.6575" stroke="#216940" stroke-width="0.411623" stroke-miterlimit="10"/>
<path d="M89.2749 86.7619H78.4453V104.878H89.2749V86.7619Z" fill="#7EDEA7" stroke="#216940" stroke-width="0.411623" stroke-miterlimit="10"/>
<path d="M89.2749 86.7619H78.4453V104.878H89.2749V86.7619Z" fill="#7EDEA7" stroke="#216940" stroke-width="0.411623" stroke-miterlimit="10"/>
<path d="M89.2749 86.7619H78.4453V104.878H89.2749V86.7619Z" stroke="#216940" stroke-width="0.411623" stroke-miterlimit="10"/>
<path d="M83.6875 86.6162V104.723" stroke="#216940" stroke-width="0.411623" stroke-miterlimit="10"/>
<path d="M78.5332 95.9164H89.2239" stroke="#216940" stroke-width="0.411623" stroke-miterlimit="10"/>
<path d="M78.5332 91.1843H89.2239" stroke="#216940" stroke-width="0.411623" stroke-miterlimit="10"/>
<path d="M78.5332 100.823H89.2239" stroke="#216940" stroke-width="0.411623" stroke-miterlimit="10"/>
<path d="M132.078 103.02H121.248V121.136H132.078V103.02Z" fill="#7EDEA7" stroke="#216940" stroke-width="0.411623" stroke-miterlimit="10"/>
<path d="M132.078 103.02H121.248V121.136H132.078V103.02Z" fill="#7EDEA7" stroke="#216940" stroke-width="0.411623" stroke-miterlimit="10"/>
<path d="M132.078 103.02H121.248V121.136H132.078V103.02Z" stroke="#216940" stroke-width="0.411623" stroke-miterlimit="10"/>
<path d="M126.49 102.874V120.981" stroke="#216940" stroke-width="0.411623" stroke-miterlimit="10"/>
<path d="M121.336 112.175H132.027" stroke="#216940" stroke-width="0.411623" stroke-miterlimit="10"/>
<path d="M121.336 107.443H132.027" stroke="#216940" stroke-width="0.411623" stroke-miterlimit="10"/>
<path d="M121.336 117.081H132.027" stroke="#216940" stroke-width="0.411623" stroke-miterlimit="10"/>
<path d="M132.078 75.923H121.248V94.0394H132.078V75.923Z" fill="#7EDEA7" stroke="#216940" stroke-width="0.411623" stroke-miterlimit="10"/>
<path d="M132.078 75.923H121.248V94.0394H132.078V75.923Z" fill="#7EDEA7" stroke="#216940" stroke-width="0.411623" stroke-miterlimit="10"/>
<path d="M132.078 75.923H121.248V94.0394H132.078V75.923Z" stroke="#216940" stroke-width="0.411623" stroke-miterlimit="10"/>
<path d="M126.49 75.7773V93.8846" stroke="#216940" stroke-width="0.411623" stroke-miterlimit="10"/>
<path d="M121.336 85.0775H132.027" stroke="#216940" stroke-width="0.411623" stroke-miterlimit="10"/>
<path d="M121.336 80.3455H132.027" stroke="#216940" stroke-width="0.411623" stroke-miterlimit="10"/>
<path d="M121.336 89.984H132.027" stroke="#216940" stroke-width="0.411623" stroke-miterlimit="10"/>
<path d="M83.8672 74.9207V65.166H63.7543V74.9207H83.8672Z" fill="#7EDEA7" stroke="#216940" stroke-width="0.411623" stroke-miterlimit="10"/>
<path d="M83.8672 74.9207V65.166H63.7543V74.9207H83.8672Z" fill="#7EDEA7" stroke="#216940" stroke-width="0.411623" stroke-miterlimit="10"/>
<path d="M83.8672 74.9207V65.166H63.7543V74.9207H83.8672Z" stroke="#216940" stroke-width="0.411623" stroke-miterlimit="10"/>
<path d="M84.0276 69.8887H63.9258" stroke="#216940" stroke-width="0.411623" stroke-miterlimit="10"/>
<path d="M73.7012 65.2438V74.8725" stroke="#216940" stroke-width="0.411623" stroke-miterlimit="10"/>
<path d="M78.957 65.2438V74.8725" stroke="#216940" stroke-width="0.411623" stroke-miterlimit="10"/>
<path d="M68.2539 65.2438V74.8725" stroke="#216940" stroke-width="0.411623" stroke-miterlimit="10"/>
<path d="M70.7085 109.469H59.8789V120.903H70.7085V109.469Z" fill="#7EDEA7" stroke="#216940" stroke-width="0.411623" stroke-miterlimit="10"/>
<path d="M70.7085 109.469H59.8789V120.903H70.7085V109.469Z" fill="#7EDEA7" stroke="#216940" stroke-width="0.411623" stroke-miterlimit="10"/>
<path d="M70.7085 109.469H59.8789V120.903H70.7085V109.469Z" stroke="#216940" stroke-width="0.411623" stroke-miterlimit="10"/>
<path d="M65.1211 109.378V120.806" stroke="#216940" stroke-width="0.411623" stroke-miterlimit="10"/>
<path d="M59.9668 115.248H70.6575" stroke="#216940" stroke-width="0.411623" stroke-miterlimit="10"/>
<path d="M59.9668 112.261H70.6575" stroke="#216940" stroke-width="0.411623" stroke-miterlimit="10"/>
<path d="M59.9668 118.344H70.6575" stroke="#216940" stroke-width="0.411623" stroke-miterlimit="10"/>
<path d="M89.2749 109.469H78.4453V120.903H89.2749V109.469Z" fill="#7EDEA7" stroke="#216940" stroke-width="0.411623" stroke-miterlimit="10"/>
<path d="M89.2749 109.469H78.4453V120.903H89.2749V109.469Z" fill="#7EDEA7" stroke="#216940" stroke-width="0.411623" stroke-miterlimit="10"/>
<path d="M89.2749 109.469H78.4453V120.903H89.2749V109.469Z" stroke="#216940" stroke-width="0.411623" stroke-miterlimit="10"/>
<path d="M83.6875 109.378V120.806" stroke="#216940" stroke-width="0.411623" stroke-miterlimit="10"/>
<path d="M78.5332 115.248H89.2239" stroke="#216940" stroke-width="0.411623" stroke-miterlimit="10"/>
<path d="M78.5332 112.261H89.2239" stroke="#216940" stroke-width="0.411623" stroke-miterlimit="10"/>
<path d="M78.5332 118.344H89.2239" stroke="#216940" stroke-width="0.411623" stroke-miterlimit="10"/>
<path d="M132.102 65.6691V55.9144H119.407V65.6691H132.102Z" fill="#7EDEA7" stroke="#216940" stroke-width="0.411623" stroke-miterlimit="10"/>
<path d="M132.102 65.6691V55.9144H119.407V65.6691H132.102Z" fill="#7EDEA7" stroke="#216940" stroke-width="0.411623" stroke-miterlimit="10"/>
<path d="M132.102 65.6691V55.9144H119.407V65.6691H132.102Z" stroke="#216940" stroke-width="0.411623" stroke-miterlimit="10"/>
<path d="M132.205 60.637H119.518" stroke="#216940" stroke-width="0.411623" stroke-miterlimit="10"/>
<path d="M125.688 55.9922V65.6209" stroke="#216940" stroke-width="0.411623" stroke-miterlimit="10"/>
<path d="M129.004 55.9922V65.6209" stroke="#216940" stroke-width="0.411623" stroke-miterlimit="10"/>
<path d="M122.252 55.9922V65.6209" stroke="#216940" stroke-width="0.411623" stroke-miterlimit="10"/>
<path d="M71.9336 42.4436V32.689H59.2395V42.4436H71.9336Z" fill="#7EDEA7" stroke="#216940" stroke-width="0.411623" stroke-miterlimit="10"/>
<path d="M71.9336 42.4436V32.689H59.2395V42.4436H71.9336Z" fill="#7EDEA7" stroke="#216940" stroke-width="0.411623" stroke-miterlimit="10"/>
<path d="M71.9336 42.4436V32.689H59.2395V42.4436H71.9336Z" stroke="#216940" stroke-width="0.411623" stroke-miterlimit="10"/>
<path d="M72.0364 37.4116H59.3496" stroke="#216940" stroke-width="0.411623" stroke-miterlimit="10"/>
<path d="M65.5176 32.766V42.3955" stroke="#216940" stroke-width="0.411623" stroke-miterlimit="10"/>
<path d="M68.8359 32.766V42.3955" stroke="#216940" stroke-width="0.411623" stroke-miterlimit="10"/>
<path d="M62.084 32.766V42.3955" stroke="#216940" stroke-width="0.411623" stroke-miterlimit="10"/>
<path d="M88.9512 42.4432V32.6886H76.257V42.4432H88.9512Z" fill="#7EDEA7" stroke="#216940" stroke-width="0.411623" stroke-miterlimit="10"/>
<path d="M88.9512 42.4432V32.6886H76.257V42.4432H88.9512Z" fill="#7EDEA7" stroke="#216940" stroke-width="0.411623" stroke-miterlimit="10"/>
<path d="M88.9512 42.4432V32.6886H76.257V42.4432H88.9512Z" stroke="#216940" stroke-width="0.411623" stroke-miterlimit="10"/>
<path d="M89.0549 37.4116H76.3672" stroke="#216940" stroke-width="0.411623" stroke-miterlimit="10"/>
<path d="M82.5371 32.766V42.3955" stroke="#216940" stroke-width="0.411623" stroke-miterlimit="10"/>
<path d="M85.8535 32.766V42.3955" stroke="#216940" stroke-width="0.411623" stroke-miterlimit="10"/>
<path d="M79.0996 32.766V42.3955" stroke="#216940" stroke-width="0.411623" stroke-miterlimit="10"/>
<path d="M16.3891 121.136H27.2188L27.2188 103.019H16.3891V121.136Z" fill="#7EDEA7" stroke="#216940" stroke-width="0.411623" stroke-miterlimit="10"/>
<path d="M16.3891 121.136H27.2188L27.2188 103.019H16.3891V121.136Z" fill="#7EDEA7" stroke="#216940" stroke-width="0.411623" stroke-miterlimit="10"/>
<path d="M16.3891 121.136H27.2188L27.2188 103.019H16.3891V121.136Z" stroke="#216940" stroke-width="0.411623" stroke-miterlimit="10"/>
<path d="M21.9746 102.874V120.981" stroke="#216940" stroke-width="0.411623" stroke-miterlimit="10"/>
<path d="M27.1312 112.175H16.4414" stroke="#216940" stroke-width="0.411623" stroke-miterlimit="10"/>
<path d="M27.1312 107.443H16.4414" stroke="#216940" stroke-width="0.411623" stroke-miterlimit="10"/>
<path d="M27.1312 117.081H16.4414" stroke="#216940" stroke-width="0.411623" stroke-miterlimit="10"/>
<path d="M16.3891 94.0389H27.2188L27.2188 75.9226H16.3891V94.0389Z" fill="#7EDEA7" stroke="#216940" stroke-width="0.411623" stroke-miterlimit="10"/>
<path d="M16.3891 94.0389H27.2188L27.2188 75.9226H16.3891V94.0389Z" fill="#7EDEA7" stroke="#216940" stroke-width="0.411623" stroke-miterlimit="10"/>
<path d="M16.3891 94.0389H27.2188L27.2188 75.9226H16.3891V94.0389Z" stroke="#216940" stroke-width="0.411623" stroke-miterlimit="10"/>
<path d="M21.9746 75.7773V93.8846" stroke="#216940" stroke-width="0.411623" stroke-miterlimit="10"/>
<path d="M27.1312 85.0775H16.4414" stroke="#216940" stroke-width="0.411623" stroke-miterlimit="10"/>
<path d="M27.1312 80.3455H16.4414" stroke="#216940" stroke-width="0.411623" stroke-miterlimit="10"/>
<path d="M27.1312 89.984H16.4414" stroke="#216940" stroke-width="0.411623" stroke-miterlimit="10"/>
<path d="M29.0605 65.6694L29.0605 55.9148H16.3664V65.6694H29.0605Z" fill="#7EDEA7" stroke="#216940" stroke-width="0.411623" stroke-miterlimit="10"/>
<path d="M29.0605 65.6694L29.0605 55.9148H16.3664V65.6694H29.0605Z" fill="#7EDEA7" stroke="#216940" stroke-width="0.411623" stroke-miterlimit="10"/>
<path d="M29.0605 65.6694L29.0605 55.9148H16.3664V65.6694H29.0605Z" stroke="#216940" stroke-width="0.411623" stroke-miterlimit="10"/>
<path d="M16.2656 60.6371H28.9524" stroke="#216940" stroke-width="0.411623" stroke-miterlimit="10"/>
<path d="M22.7832 55.9924V65.6211" stroke="#216940" stroke-width="0.411623" stroke-miterlimit="10"/>
<path d="M19.4668 55.9924V65.6211" stroke="#216940" stroke-width="0.411623" stroke-miterlimit="10"/>
<path d="M26.2188 55.9924V65.6211" stroke="#216940" stroke-width="0.411623" stroke-miterlimit="10"/>
<path d="M9.40772 127.688H139.575V130.697H9.40772V127.688Z" fill="#2A6744" stroke="#216940" stroke-width="0.823246"/>
<path d="M9.40772 124.814H139.575V125.188H9.40772V124.814Z" fill="#2A6744" stroke="#216940" stroke-width="0.823246"/>
<path d="M71.4624 10.4116H76.1404V80.753H71.4624V10.4116Z" fill="#32905A" stroke="#216940" stroke-width="0.823246"/>
<path d="M166.169 149.265C167.953 147.368 168.19 144.323 167.928 141.848C167.665 139.374 167.028 136.883 167.462 134.428C167.718 132.973 168.345 131.584 168.557 130.124C168.769 128.664 168.469 127.012 167.212 126.069C165.768 124.986 163.494 125.241 161.992 126.259C160.49 127.276 159.62 128.874 158.984 130.467C157.587 133.967 157.074 137.847 158.221 141.42C159.369 144.992 162.062 148.186 166.014 149.265" fill="#35A967"/>
<path d="M156.686 153.575C156.393 152.66 155.764 151.775 154.793 151.398C153.782 151.005 152.612 151.229 151.577 151.567C150.543 151.905 149.528 152.359 148.429 152.42C147.331 152.481 146.091 152.011 145.763 151.065C145.453 150.176 146.049 149.228 146.794 148.582C148.36 147.224 150.713 146.648 152.826 147.105C154.94 147.563 156.746 149.038 157.457 150.888" fill="#35A967"/>
<g opacity="0.3">
<path d="M156.684 153.576C156.391 152.66 155.762 151.775 154.791 151.398C153.78 151.006 152.61 151.229 151.576 151.567C150.541 151.906 149.526 152.359 148.428 152.42C147.329 152.481 146.089 152.011 145.761 151.066C145.451 150.177 146.047 149.228 146.792 148.582C148.358 147.225 150.711 146.648 152.824 147.106C154.938 147.563 156.744 149.038 157.455 150.888" fill="black"/>
</g>
<path d="M165.394 157.549C167.005 156.17 166.925 153.77 166.121 151.903C165.317 150.037 163.563 148.604 161.603 147.659C157.805 145.828 153.056 145.69 149.134 147.295C151.061 147.353 152.925 148.338 153.919 149.826C154.802 151.147 154.999 152.75 155.728 154.145C156.541 155.699 158.032 156.955 159.809 157.581C161.584 158.206 163.627 158.195 165.394 157.549Z" fill="#35A967"/>
<path d="M167.027 164.829C167.034 164.829 167.038 164.753 167.039 164.61C167.038 164.467 167.042 164.255 167.03 163.983C167.01 163.438 166.955 162.651 166.821 161.684C166.688 160.717 166.477 159.57 166.141 158.317C165.809 157.06 165.241 155.72 164.436 154.416C162.811 151.799 160.526 149.933 158.719 148.873C158.272 148.596 157.84 148.386 157.468 148.191C157.087 148.012 156.754 147.866 156.481 147.749C156.216 147.651 156.003 147.571 155.837 147.509C155.689 147.456 155.61 147.431 155.607 147.437C155.605 147.443 155.678 147.479 155.821 147.542C155.983 147.612 156.191 147.701 156.448 147.811C156.714 147.938 157.04 148.093 157.414 148.279C157.779 148.48 158.203 148.696 158.641 148.978C160.414 150.056 162.657 151.916 164.264 154.503C165.901 157.083 166.353 159.797 166.683 161.701C166.833 162.662 166.91 163.445 166.953 163.987C166.972 164.243 166.987 164.451 166.999 164.612C167.011 164.754 167.02 164.829 167.027 164.829Z" fill="#123922"/>
<path d="M182.528 144.01C185.829 145.805 185.819 147.437 185.267 148.979C184.716 150.52 182.69 151.59 181.011 151.013C180.061 150.687 179.373 149.944 178.786 149.197C178.198 148.45 177.646 147.651 176.823 147.114C176 146.578 174.806 146.372 173.98 146.904" fill="#35A967"/>
<g opacity="0.3">
<path d="M182.528 144.01C185.829 145.805 185.819 147.437 185.267 148.979C184.716 150.52 182.69 151.59 181.011 151.013C180.061 150.687 179.373 149.944 178.786 149.197C178.198 148.45 177.646 147.651 176.823 147.114C176 146.578 174.806 146.372 173.98 146.904" fill="black"/>
</g>
<path d="M185.004 145.978C184.141 144.904 182.009 144.593 180.662 145.129C179.316 145.665 178.329 146.728 177.447 147.789C176.564 148.85 175.705 149.97 174.482 150.709C173.259 151.447 171.551 151.715 170.332 150.971C169.532 150.482 169.068 149.633 168.923 148.772C168.778 147.911 168.918 147.032 169.117 146.18C169.408 144.933 169.884 143.63 170.991 142.838C172.226 141.955 173.939 141.913 175.515 141.96C177.323 142.013 179.157 142.135 180.855 142.7C182.552 143.264 184.283 144.483 185.004 145.978Z" fill="#35A967"/>
<path d="M169.887 164.675C169.895 164.675 169.903 164.587 169.913 164.419C169.921 164.233 169.932 163.987 169.946 163.681C169.969 163.021 170.001 162.099 170.04 160.967C170.083 159.822 170.136 158.458 170.229 156.946C170.324 155.434 170.45 153.771 170.704 152.042C170.834 151.178 170.985 150.334 171.25 149.554C171.516 148.772 171.872 148.044 172.258 147.377C173.031 146.038 173.994 144.971 174.92 144.196C175.854 143.425 176.747 142.953 177.383 142.675C177.699 142.531 177.956 142.442 178.131 142.381C178.304 142.318 178.395 142.282 178.393 142.276C178.39 142.27 178.296 142.295 178.118 142.347C177.938 142.397 177.675 142.477 177.35 142.613C176.699 142.873 175.784 143.334 174.826 144.103C173.877 144.876 172.889 145.949 172.098 147.3C171.702 147.974 171.34 148.708 171.065 149.502C170.792 150.3 170.639 151.149 170.509 152.018C170.253 153.757 170.133 155.423 170.048 156.937C169.965 158.452 169.925 159.817 169.901 160.964C169.878 162.11 169.87 163.038 169.869 163.679C169.871 163.986 169.872 164.232 169.873 164.418C169.876 164.587 169.881 164.675 169.887 164.675Z" fill="#123922"/>
<path d="M168.419 164.675C168.422 164.676 168.434 164.648 168.454 164.592C168.477 164.526 168.504 164.444 168.539 164.343C168.617 164.124 168.702 163.794 168.797 163.366C168.972 162.51 169.128 161.247 169.053 159.686C168.981 158.13 168.717 156.273 168.062 154.292C167.4 152.318 166.459 150.217 165.628 147.97C164.777 145.726 164.285 143.505 164.086 141.46C163.881 139.417 163.896 137.563 163.947 136.01C164.001 134.457 164.089 133.201 164.144 132.333C164.17 131.909 164.19 131.575 164.204 131.333C164.209 131.227 164.213 131.142 164.216 131.073C164.217 131.014 164.216 130.984 164.213 130.983C164.209 130.983 164.204 131.013 164.195 131.071C164.187 131.14 164.177 131.225 164.165 131.331C164.141 131.573 164.108 131.906 164.067 132.329C163.989 133.196 163.879 134.451 163.807 136.007C163.738 137.561 163.708 139.42 163.905 141.476C164.094 143.529 164.585 145.774 165.44 148.026C166.274 150.281 167.219 152.378 167.887 154.34C168.546 156.302 168.824 158.146 168.913 159.692C169.005 161.242 168.871 162.499 168.72 163.354C168.637 163.781 168.565 164.113 168.5 164.333C168.473 164.436 168.451 164.52 168.434 164.587C168.421 164.645 168.416 164.675 168.419 164.675Z" fill="#123922"/>
<path d="M200.653 118.202H213.499C214.287 118.202 214.926 117.626 214.926 116.916C214.926 116.206 214.287 115.631 213.499 115.631H200.653C199.865 115.631 199.226 116.206 199.226 116.916C199.226 117.626 199.865 118.202 200.653 118.202Z" fill="#123922"/>
<path d="M198.588 160.207H220.917C222.967 160.207 224.629 158.71 224.629 156.864V120.847C224.629 119.001 222.967 117.504 220.917 117.504H198.588C196.538 117.504 194.877 119.001 194.877 120.847V156.864C194.877 158.71 196.539 160.207 198.588 160.207Z" fill="#35A967"/>
<g opacity="0.3">
<path d="M198.588 160.207H220.917C222.967 160.207 224.629 158.71 224.629 156.864V120.847C224.629 119.001 222.967 117.504 220.917 117.504H198.588C196.538 117.504 194.877 119.001 194.877 120.847V156.864C194.877 158.71 196.539 160.207 198.588 160.207Z" fill="black"/>
</g>
<path d="M191.524 160.207H213.853C215.903 160.207 217.564 158.71 217.564 156.864V120.847C217.564 119.001 215.902 117.504 213.853 117.504H191.524C189.474 117.504 187.812 119.001 187.812 120.847V156.864C187.812 158.71 189.474 160.207 191.524 160.207Z" fill="#35A967"/>
<path d="M188.06 153.069C188.06 153.122 194.69 153.165 202.867 153.165C211.046 153.165 217.674 153.122 217.674 153.069C217.674 153.015 211.046 152.972 202.867 152.972C194.69 152.971 188.06 153.015 188.06 153.069Z" fill="#123922"/>
<path d="M188.06 147.182C188.06 147.236 194.69 147.279 202.867 147.279C211.046 147.279 217.674 147.235 217.674 147.182C217.674 147.128 211.046 147.085 202.867 147.085C194.69 147.085 188.06 147.128 188.06 147.182Z" fill="#123922"/>
<path d="M188.06 141.296C188.06 141.35 194.69 141.393 202.867 141.393C211.046 141.393 217.674 141.35 217.674 141.296C217.674 141.243 211.046 141.2 202.867 141.2C194.69 141.2 188.06 141.243 188.06 141.296Z" fill="#123922"/>
<path d="M188.06 135.411C188.06 135.465 194.69 135.508 202.867 135.508C211.046 135.508 217.674 135.465 217.674 135.411C217.674 135.357 211.046 135.314 202.867 135.314C194.69 135.314 188.06 135.357 188.06 135.411Z" fill="#123922"/>
<path d="M188.06 129.525C188.06 129.579 194.69 129.622 202.867 129.622C211.046 129.622 217.674 129.578 217.674 129.525C217.674 129.471 211.046 129.428 202.867 129.428C194.69 129.428 188.06 129.471 188.06 129.525Z" fill="#123922"/>
<path d="M188.06 123.64C188.06 123.693 194.69 123.737 202.867 123.737C211.046 123.737 217.674 123.693 217.674 123.64C217.674 123.586 211.046 123.543 202.867 123.543C194.69 123.542 188.06 123.586 188.06 123.64Z" fill="#123922"/>
<path d="M192.749 162.518C192.749 163.794 193.898 164.829 195.315 164.829C196.732 164.829 197.881 163.794 197.881 162.518C197.881 161.241 196.732 160.206 195.315 160.206C193.898 160.206 192.749 161.241 192.749 162.518Z" fill="#123922"/>
<path d="M190.962 162.517C190.962 163.794 192.111 164.829 193.528 164.829C194.945 164.829 196.094 163.794 196.094 162.517C196.094 161.241 194.945 160.206 193.528 160.206C192.111 160.206 190.962 161.241 190.962 162.517Z" fill="#455A64"/>
<path d="M213.161 162.517C213.161 163.794 214.31 164.829 215.727 164.829C217.144 164.829 218.293 163.794 218.293 162.517C218.293 161.241 217.144 160.206 215.727 160.206C214.31 160.206 213.161 161.241 213.161 162.517Z" fill="#123922"/>
<path d="M211.374 162.517C211.374 163.794 212.523 164.829 213.94 164.829C215.357 164.829 216.506 163.794 216.506 162.517C216.506 161.241 215.357 160.206 213.94 160.206C212.523 160.206 211.374 161.241 211.374 162.517Z" fill="#455A64"/>
<path d="M221.293 144.78C222.172 144.78 222.885 144.138 222.885 143.346V130.959C222.885 130.167 222.172 129.525 221.293 129.525C220.414 129.525 219.701 130.166 219.701 130.959V143.346C219.701 144.138 220.414 144.78 221.293 144.78Z" fill="#123922"/>
<path d="M220.67 159.823C220.673 159.825 220.707 159.803 220.773 159.756C220.847 159.701 220.941 159.63 221.06 159.542C221.287 159.332 221.639 159.022 221.942 158.527C222.593 157.556 222.977 155.915 222.965 153.918C222.889 149.924 222.716 144.416 222.538 138.329C222.342 132.247 222.165 126.742 222.035 122.741C222.002 121.747 221.979 120.833 221.773 120.052C221.581 119.269 221.19 118.646 220.762 118.235C220.336 117.817 219.89 117.607 219.582 117.512C219.27 117.417 219.094 117.415 219.094 117.415C219.092 117.427 219.265 117.443 219.566 117.549C219.865 117.654 220.293 117.87 220.699 118.286C221.108 118.696 221.477 119.305 221.655 120.076C221.847 120.845 221.859 121.748 221.883 122.745C221.995 126.746 222.151 132.251 222.322 138.334C222.513 144.414 222.686 149.917 222.811 153.917C222.842 155.905 222.486 157.523 221.868 158.49C221.265 159.467 220.636 159.798 220.67 159.823Z" fill="#123922"/>
<path d="M169.687 88.9563L175.34 92.2577L175.854 97.4025C175.854 97.4025 174.19 98.1018 171.75 96.1039C169.311 94.106 166.133 90.0543 166.133 90.0543L169.687 88.9563Z" fill="#FFBE9D"/>
<path d="M169.934 91.0697L171.786 82.6093L176.727 84.3719L175.464 95.5145L169.934 91.0697Z" fill="#FFBE9D"/>
<path d="M156.545 80.3599C156.619 80.1797 156.792 80.0473 157.001 80.0108L160.553 79.3932C160.866 79.3436 161.188 79.4163 161.437 79.5934L172.162 87.1931L171.723 87.6317L167.93 88.6733L156.483 80.512L156.545 80.3599Z" fill="#123922"/>
<path d="M159.428 80.8924C159.377 80.9719 159.241 80.9864 159.124 80.9256C159.007 80.8645 158.952 80.7511 159.003 80.6716C159.054 80.5922 159.19 80.5777 159.308 80.6385C159.425 80.6993 159.479 80.8134 159.428 80.8924Z" fill="white"/>
<path d="M156.476 80.5114C156.479 80.5245 156.728 80.4939 157.176 80.4275C157.659 80.3511 158.297 80.2504 159.069 80.128C159.471 80.0613 159.908 79.9893 160.374 79.9121C160.594 79.8644 160.822 79.9054 161.003 80.03C161.202 80.172 161.407 80.3182 161.616 80.4678C162.462 81.0686 163.387 81.7258 164.358 82.4157C166.307 83.7938 168.079 85.0327 169.368 85.9218C169.994 86.3481 170.51 86.7002 170.902 86.9668C171.267 87.21 171.473 87.3398 171.482 87.329C171.491 87.3185 171.302 87.1686 170.953 86.9072C170.573 86.6282 170.07 86.2597 169.462 85.8137C168.197 84.897 166.44 83.6409 164.491 82.2628C163.516 81.5773 162.588 80.9239 161.739 80.3268C161.527 80.1788 161.319 80.0341 161.118 79.8931C160.893 79.7383 160.587 79.6954 160.345 79.7529C159.88 79.8383 159.444 79.9184 159.043 79.9923C158.275 80.1392 157.641 80.2608 157.16 80.3526C156.717 80.4428 156.473 80.4984 156.476 80.5114Z" fill="#0C6532"/>
<path d="M161.57 82.8473C161.57 82.8473 161.854 82.7056 162.301 83.4004C162.747 84.0952 164.087 86.0693 164.087 86.0693L165.385 84.8262L167.456 84.4522C167.456 84.4522 168.024 84.6797 167.78 84.9724C167.537 85.2648 166.36 85.85 166.36 85.85L165.887 87.3295L168.105 85.3663C168.105 85.3663 169.068 85.3032 168.993 85.869C168.917 86.4348 167.702 88.5039 167.702 88.5039L168.997 88.0068L170.251 86.6593C170.251 86.6593 170.743 86.5306 170.703 86.958C170.662 87.3854 169.526 89.2319 169.526 89.2319L167.861 90.7125C167.861 90.7125 166.745 90.9684 166.532 90.7125C166.319 90.4567 166.138 90.0543 166.138 90.0543C166.138 90.0543 165.508 90.0908 165.305 89.8715C165.102 89.6522 165.021 89.2319 165.021 89.2319C165.021 89.2319 164.168 89.6526 163.884 89.2319C163.6 88.8112 163.357 87.8859 163.316 87.5077C163.275 87.1296 161.57 84.0221 161.57 83.9121C161.57 83.8025 160.92 82.8059 161.57 82.8473Z" fill="#FFBE9D"/>
<path d="M166.46 90.7375C166.461 90.7606 166.683 90.7781 167.035 90.7241C167.385 90.6711 167.863 90.5305 168.328 90.2687C168.791 90.0054 169.139 89.6787 169.345 89.4169C169.552 89.1547 169.63 88.9678 169.608 88.9563C169.552 88.9216 169.107 89.6075 168.213 90.1042C167.329 90.6141 166.449 90.6778 166.46 90.7375Z" fill="#EB996E"/>
<path d="M166.687 89.9495C166.734 89.9816 167.024 89.7067 167.296 89.3125C167.568 88.9187 167.714 88.5629 167.661 88.5394C167.607 88.5148 167.38 88.8243 167.113 89.21C166.847 89.5963 166.639 89.9167 166.687 89.9495Z" fill="#EB996E"/>
<path d="M165.055 88.7222C165.1 88.7543 165.39 88.4846 165.632 88.0815C165.876 87.6791 165.969 87.3136 165.915 87.2968C165.857 87.2781 165.677 87.6015 165.443 87.989C165.209 88.3772 165.006 88.689 165.055 88.7222Z" fill="#EB996E"/>
<path d="M163.491 87.8115C163.553 87.8156 163.626 87.4173 163.804 86.9541C163.977 86.489 164.189 86.1336 164.136 86.1026C164.091 86.0724 163.784 86.3988 163.599 86.8914C163.411 87.383 163.434 87.8104 163.491 87.8115Z" fill="#EB996E"/>
<path d="M188.506 48.9557C187.992 47.1219 186.142 45.6551 184.057 45.4294C181.973 45.2038 179.789 46.2335 178.808 47.9058C177.883 49.4816 177.9 51.5764 176.366 52.7024C175.314 53.4744 173.786 53.5616 172.758 54.3601C170.582 56.0511 171.844 59.8089 169.538 61.3533C170.975 62.4092 172.692 63.1536 174.504 63.5064C174.634 62.9503 174.95 62.4308 175.399 62.0317C175.01 62.982 175.596 64.0792 176.494 64.6886C177.392 65.298 178.533 65.5237 179.639 65.7019C182.307 66.1312 185.066 66.3736 187.713 65.8478C190.359 65.3219 192.897 63.9297 194.146 61.7636C194.462 61.215 194.707 60.6074 195.216 60.1923C195.768 59.7411 196.537 59.5934 197.219 59.3211C199.091 58.5737 200.344 56.7213 200.222 54.88C198.469 54.7808 197.267 53.2595 196.561 51.8114C195.854 50.3628 195.285 48.7286 193.843 47.8242C192.887 47.2241 191.62 47.0466 190.506 47.3572C189.393 47.6675 188.458 48.4589 188.046 49.4409" fill="#123922"/>
<path d="M192.638 52.4197L192.713 51.0923L183.91 49.3279C181.189 48.9915 178.151 51.3739 177.894 53.8372C177.607 56.574 177.378 59.9257 177.668 61.9818C178.252 66.1163 181.734 66.7376 181.734 66.7376L181.613 71.7661L191.699 71.4417L192.638 52.4197Z" fill="#FFBE9D"/>
<path d="M179.117 56.892C179.096 57.1702 179.342 57.4156 179.664 57.4399C179.985 57.4645 180.263 57.2594 180.284 56.9812C180.305 56.7029 180.06 56.4575 179.738 56.4325C179.416 56.4079 179.137 56.6134 179.117 56.892Z" fill="#123922"/>
<path d="M178.791 55.6112C178.861 55.6821 179.315 55.3987 179.946 55.4177C180.576 55.4289 181.028 55.7336 181.099 55.6661C181.134 55.6362 181.064 55.5098 180.867 55.3722C180.673 55.2349 180.339 55.0977 179.947 55.0884C179.554 55.0794 179.219 55.2002 179.025 55.3282C178.826 55.4568 178.756 55.5792 178.791 55.6112Z" fill="#123922"/>
<path d="M184.973 57.135C184.952 57.4132 185.197 57.6586 185.519 57.6832C185.841 57.7078 186.119 57.5027 186.139 57.2245C186.16 56.9463 185.915 56.7009 185.594 56.6763C185.271 56.6513 184.993 56.8568 184.973 57.135Z" fill="#123922"/>
<path d="M184.992 55.8899C185.062 55.9607 185.517 55.6773 186.147 55.6963C186.776 55.7071 187.229 56.0122 187.3 55.9447C187.334 55.9148 187.266 55.7888 187.068 55.6508C186.874 55.5136 186.54 55.3763 186.148 55.367C185.755 55.358 185.42 55.4789 185.226 55.6068C185.027 55.7355 184.957 55.8582 184.992 55.8899Z" fill="#123922"/>
<path d="M182.564 60.0373C182.568 60.0052 182.178 59.9332 181.546 59.8422C181.386 59.8228 181.234 59.7896 181.21 59.69C181.176 59.5841 181.249 59.4297 181.333 59.2634C181.496 58.9165 181.667 58.5533 181.847 58.1729C182.562 56.6195 183.085 55.3403 183.015 55.315C182.946 55.2896 182.309 56.5282 181.594 58.0815C181.422 58.4645 181.257 58.83 181.1 59.1795C181.033 59.3425 180.922 59.5263 180.997 59.7464C181.037 59.856 181.152 59.9377 181.254 59.9657C181.357 59.9966 181.447 60.0011 181.526 60.0074C182.164 60.0555 182.56 60.0693 182.564 60.0373Z" fill="#123922"/>
<path d="M181.741 66.7477C181.741 66.7477 184.964 67.008 188.064 65.4449C188.064 65.4449 186.422 68.2827 181.708 67.7737L181.741 66.7477Z" fill="#EB996E"/>
<path d="M182.766 61.4142C183.002 61.1505 183.404 61.0133 183.798 61.0625C184.07 61.0968 184.342 61.2232 184.502 61.4284C184.661 61.6335 184.686 61.9195 184.528 62.1064C184.351 62.3171 183.994 62.3566 183.696 62.2716C183.398 62.1862 183.145 62.0005 182.905 61.8159C182.839 61.7648 182.771 61.7114 182.73 61.6428C182.69 61.5742 182.685 61.4858 182.739 61.4314" fill="#EB996E"/>
<path d="M184.419 60.4827C184.317 60.4745 184.294 61.0906 183.694 61.5117C183.094 61.9342 182.367 61.8447 182.359 61.9305C182.348 61.9689 182.517 62.0547 182.825 62.0707C183.127 62.0886 183.57 62.0137 183.938 61.7559C184.305 61.4975 184.471 61.1439 184.502 60.8918C184.537 60.6352 184.466 60.4804 184.419 60.4827Z" fill="#123922"/>
<path d="M184.921 54.2842C184.977 54.4405 185.609 54.3845 186.346 54.4856C187.085 54.5733 187.675 54.7851 187.778 54.6493C187.824 54.5844 187.725 54.4364 187.489 54.2801C187.255 54.1242 186.879 53.9717 186.436 53.9146C185.994 53.8587 185.585 53.9105 185.312 54.0019C185.037 54.0925 184.896 54.21 184.921 54.2842Z" fill="#123922"/>
<path d="M178.881 53.6643C178.987 53.7963 179.426 53.6747 179.949 53.6829C180.471 53.6747 180.91 53.7963 181.017 53.6646C181.063 53.6005 180.998 53.4692 180.809 53.3417C180.623 53.2145 180.308 53.1063 179.949 53.106C179.59 53.1063 179.275 53.2145 179.089 53.3413C178.9 53.4688 178.834 53.5997 178.881 53.6643Z" fill="#123922"/>
<path d="M184.05 49.5023C184.142 51.2272 185.516 52.8384 187.343 53.3631C188.072 53.5727 188.993 53.7264 189.229 54.3828C189.473 55.0627 188.77 55.6855 188.438 56.3348C188.031 57.1322 188.226 58.1473 188.907 58.775C189.295 59.1312 189.81 59.3624 190.175 59.7369C190.659 60.2333 190.823 60.9463 190.686 61.5956C190.548 62.2446 190.132 62.8294 189.596 63.2803C191.323 63.3694 193.218 62.5776 193.781 61.1041C194.116 60.2262 193.943 59.2662 193.807 58.3461C193.497 56.2494 193.402 54.1266 193.521 52.0142C193.541 51.6558 193.559 51.2675 193.334 50.9718C193.112 50.6805 192.712 50.5541 192.337 50.4493C189.902 49.7653 187.416 49.2275 184.901 48.8396" fill="#123922"/>
<path d="M185.064 48.905C184.585 49.6931 184.093 50.4949 183.367 51.1118C182.641 51.7286 181.629 52.1407 180.648 51.9778C180.824 51.7104 181.001 51.443 181.177 51.1756C179.789 52.4626 178.1 53.4849 176.253 54.1562C177.165 52.6118 178.108 51.032 179.567 49.8766C181.025 48.7215 183.132 48.064 184.95 48.6805" fill="#123922"/>
<path d="M181.058 70.1428L192.314 69.3629L190.424 74.7315L180.794 77.6227L179.517 75.6755L181.058 70.1428Z" fill="#FFBE9D"/>
<path d="M202.417 78.8615C205.105 78.0786 208.176 78.4434 210.547 79.827C212.918 81.2107 214.542 83.5856 214.848 86.1154C215.145 88.5765 214.26 91.0831 214.728 93.5229C215.072 95.3187 216.127 96.944 216.595 98.7174C217.603 102.54 215.582 106.76 212.023 109.033C208.465 111.306 203.629 111.686 199.521 110.366L195.299 104.388L198.096 81.4583L202.417 78.8615Z" fill="#0C6532"/>
<path d="M195.674 95.1C195.674 95.1 196.636 99.7574 196.058 100.462C195.481 101.166 194.519 101.253 194.519 101.253L175.854 99.9528L175.236 90.6995C175.236 90.6995 173.354 84.3549 174.22 81.6685C175.085 78.9821 178.799 70.75 178.799 70.75L181.658 69.9795C181.658 69.9795 181.655 72.6655 182.714 72.8385C183.772 73.0119 188.851 73.0406 191.344 70.1432L192.306 69.3633L197.629 72.8564L195.192 91.8075L195.674 95.1Z" fill="#35A967"/>
<path d="M204.088 78.5275C204.088 78.5275 200.61 73.8265 199.217 72.4988C197.026 70.4103 193.935 69.5592 193.193 69.9463C192.176 70.4759 187.094 75.24 186.687 78.4552C186.28 81.6704 186.687 89.6486 186.687 89.6486L190.981 90.8133L191.032 86.9585L191.742 77.4829C191.742 77.4829 193.504 73.0254 197.627 72.8561C197.627 72.8561 201.936 76.119 202.093 79.2604L204.088 78.5275Z" fill="#0C6532"/>
<path d="M194.077 96.2798L202.688 103.356L200.413 106.088C200.413 106.088 189.94 100.077 188.847 94.085L194.077 96.2798Z" fill="#0C6532"/>
<path d="M204.973 111.123C204.973 111.123 205.458 110.906 206.213 110.35C206.962 109.796 207.969 108.862 208.774 107.46C209.174 106.761 209.52 105.951 209.753 105.049C209.977 104.144 210.085 103.157 210.1 102.12C210.142 100.04 209.767 97.7759 209.322 95.4278C208.875 93.079 208.474 90.8331 208.455 88.7725C208.44 87.7435 208.522 86.7672 208.683 85.8646C208.847 84.9617 209.058 84.1241 209.164 83.3438C209.277 82.5659 209.284 81.8442 209.168 81.2255C209.053 80.6071 208.845 80.0921 208.601 79.7091C208.362 79.3231 208.102 79.0661 207.912 78.9117C207.722 78.7554 207.603 78.6954 207.603 78.6954C207.574 78.717 208.07 78.9755 208.527 79.7452C208.755 80.1256 208.947 80.634 209.048 81.2419C209.151 81.8505 209.134 82.5565 209.012 83.3259C208.898 84.0968 208.68 84.9293 208.506 85.8385C208.335 86.7489 208.245 87.7365 208.256 88.7744C208.264 90.8532 208.662 93.1122 209.109 95.4603C209.554 97.8073 209.931 100.058 209.901 102.117C209.892 103.145 209.791 104.122 209.578 105.013C209.356 105.903 209.023 106.705 208.638 107.398C207.861 108.788 206.884 109.725 206.158 110.292C205.98 110.439 205.81 110.557 205.663 110.66C205.518 110.765 205.391 110.849 205.285 110.913C205.19 110.974 205.112 111.024 205.049 111.065C204.997 111.101 204.971 111.12 204.973 111.123Z" fill="#123922"/>
<path d="M208.97 93.2733C208.97 93.327 210.302 93.3703 211.946 93.3703C213.589 93.3703 214.922 93.3266 214.922 93.2733C214.922 93.22 213.59 93.1763 211.946 93.1763C210.302 93.176 208.97 93.2196 208.97 93.2733Z" fill="#123922"/>
<path d="M178.803 70.7495C178.803 70.7495 175.45 72.1018 174.297 73.8121C173.144 75.5225 170.024 85.3076 170.024 85.3076L174.413 86.0904L178.803 70.7495Z" fill="#35A967"/>
<path d="M176.367 84.8725C176.367 84.8725 177.379 75.9298 177.801 75.3484C178.224 74.767 178.905 70.409 181.049 70.1428C181.049 70.1428 178.79 70.6108 177.487 71.3649C176.184 72.1187 174.763 76.1827 174.763 76.1827L173.941 83.2718L176.367 84.8725Z" fill="#0C6532"/>
<path d="M203.124 77.0392C203.159 77.0586 203.277 76.7379 203.742 76.4746C203.97 76.347 204.279 76.2411 204.632 76.2269C204.983 76.2116 205.375 76.3008 205.733 76.4809C206.465 76.8472 206.868 77.4715 207.094 77.919C207.319 78.3763 207.409 78.6817 207.443 78.6735C207.467 78.6686 207.43 78.3516 207.234 77.8664C207.039 77.3946 206.635 76.7114 205.838 76.3112C205.447 76.1151 205.013 76.0207 204.62 76.0483C204.227 76.0744 203.894 76.2061 203.657 76.3605C203.172 76.6823 203.103 77.0433 203.124 77.0392Z" fill="#123922"/>
<path d="M191.744 77.4833C191.756 77.487 191.849 77.308 192.011 76.9768C192.052 76.8918 192.098 76.8 192.146 76.7012C192.206 76.6028 192.27 76.4976 192.338 76.3857C192.407 76.2712 192.481 76.15 192.559 76.0217C192.651 75.899 192.747 75.7696 192.848 75.6342C193.264 75.0986 193.844 74.4937 194.652 73.9876C195.448 73.4823 196.487 73.0597 197.634 72.9504L197.644 72.9493C198.385 72.8658 199.192 73.1765 199.888 73.5669L199.867 73.5498C199.892 73.5766 199.919 73.6061 199.947 73.6352C201.884 75.6845 203.389 77.7186 204.385 79.2362C204.885 79.9944 205.268 80.6202 205.527 81.0547C205.649 81.2557 205.748 81.4209 205.829 81.5544C205.899 81.6682 205.94 81.7264 205.946 81.7234C205.953 81.7204 205.926 81.6562 205.868 81.5369C205.808 81.4179 205.723 81.2419 205.602 81.02C205.365 80.5739 205.001 79.9366 204.517 79.1668C203.551 77.6265 202.058 75.5686 200.111 73.5087C200.083 73.4793 200.056 73.4498 200.03 73.423L200.02 73.4125L200.009 73.4058C199.637 73.1906 199.253 73.0235 198.852 72.899C198.451 72.7793 198.028 72.7103 197.613 72.7628L197.623 72.7617C196.407 72.8829 195.364 73.3253 194.547 73.8541C193.725 74.3833 193.144 75.0121 192.737 75.566C192.638 75.7058 192.544 75.8397 192.455 75.9665C192.381 76.0985 192.31 76.2235 192.244 76.3417C192.18 76.4573 192.121 76.5658 192.064 76.6673C192.021 76.7691 191.981 76.8638 191.943 76.9511C191.803 77.2927 191.732 77.4796 191.744 77.4833Z" fill="#123922"/>
<path d="M195.377 99.7162C195.362 99.7348 195.724 100.012 196.363 100.395C197.001 100.778 197.925 101.254 199.004 101.668C200.084 102.08 201.107 102.349 201.856 102.498C202.605 102.647 203.078 102.69 203.082 102.667C203.088 102.637 202.626 102.546 201.892 102.364C201.159 102.184 200.156 101.897 199.089 101.489C198.022 101.08 197.098 100.628 196.444 100.278C195.789 99.9284 195.396 99.6916 195.377 99.7162Z" fill="#123922"/>
<path d="M145.771 138.821L148.391 161.728L156.394 161.63L156.969 137.424L145.771 138.821Z" fill="#FFBE9D"/>
<path d="M148.171 159.546L148.171 160.025C148.171 160.025 139.157 163.311 139.066 164.853L156.982 164.728L156.693 159.359C154.038 160.489 151.251 160.634 148.171 159.546Z" fill="#0C6532"/>
<g opacity="0.6">
<path d="M154.879 161.089C155.227 161.172 155.469 161.521 155.392 161.837C155.314 162.154 154.921 162.379 154.572 162.301C154.223 162.224 153.918 161.812 154.034 161.506C154.151 161.2 154.628 160.958 154.946 161.109" fill="white"/>
</g>
<g opacity="0.6">
<path d="M156.971 164.728L156.901 163.436L139.754 164.029C139.754 164.029 138.959 164.348 139.053 164.853L156.971 164.728Z" fill="white"/>
</g>
<path d="M148.102 160.071C148.105 160.149 148.543 160.182 148.976 160.432C149.416 160.673 149.64 161.012 149.721 160.981C149.801 160.965 149.667 160.495 149.137 160.2C148.611 159.901 148.082 159.998 148.102 160.071Z" fill="#123922"/>
<path d="M146.208 160.784C146.188 160.861 146.568 160.992 146.868 161.324C147.179 161.647 147.257 162.007 147.344 162.003C147.427 162.015 147.483 161.553 147.101 161.147C146.724 160.739 146.209 160.709 146.208 160.784Z" fill="#123922"/>
<path d="M145.175 162.818C145.254 162.835 145.373 162.44 145.145 162.01C144.92 161.578 144.506 161.411 144.469 161.477C144.42 161.542 144.688 161.772 144.87 162.127C145.06 162.479 145.088 162.811 145.175 162.818Z" fill="#123922"/>
<path d="M143.405 144.579L131.235 157.066L136.951 162.112L151.395 150.748L143.405 144.579Z" fill="#FFBE9D"/>
<path d="M132.797 155.38L132.419 155.718C132.419 155.718 123.48 152.271 122.2 153.3L134.922 164.664L138.947 160.696C136.187 159.795 134.109 158.116 132.797 155.38Z" fill="#0C6532"/>
<g opacity="0.6">
<path d="M136.314 160.764C136.494 161.044 136.389 161.445 136.086 161.618C135.782 161.792 135.328 161.699 135.143 161.422C134.958 161.144 135.067 160.658 135.391 160.517C135.714 160.376 136.241 160.511 136.346 160.82" fill="white"/>
</g>
<g opacity="0.6">
<path d="M134.911 164.663L135.879 163.708L123.331 153.166C123.331 153.166 122.52 152.882 122.188 153.299L134.911 164.663Z" fill="white"/>
</g>
<path d="M132.33 155.71C132.271 155.768 132.554 156.071 132.661 156.524C132.782 156.974 132.673 157.357 132.754 157.386C132.824 157.426 133.099 157.009 132.959 156.462C132.823 155.916 132.374 155.647 132.33 155.71Z" fill="#123922"/>
<path d="M130.442 155.015C130.369 155.056 130.533 155.392 130.483 155.817C130.448 156.243 130.219 156.547 130.284 156.599C130.333 156.66 130.736 156.371 130.787 155.841C130.842 155.312 130.502 154.963 130.442 155.015Z" fill="#123922"/>
<path d="M128.102 155.776C128.145 155.838 128.54 155.636 128.717 155.187C128.899 154.739 128.739 154.357 128.662 154.38C128.576 154.394 128.583 154.727 128.431 155.094C128.288 155.464 128.046 155.716 128.102 155.776Z" fill="#123922"/>
<path d="M195.238 73.1143C196.145 72.462 197.449 72.5224 198.27 73.2612C199.795 74.6326 202.006 76.9359 202.073 78.8059C202.175 81.6664 202.688 89.2325 202.688 89.2325L191.01 88.8633C191.01 88.8633 191.01 78.8059 192.034 76.4992C192.613 75.195 194.076 73.9501 195.238 73.1143Z" fill="#35A967"/>
<path d="M201.338 89.2323C201.338 89.2323 202.004 95.019 201.264 97.6737C200.498 100.42 198.989 100.379 197.714 100.461C196.44 100.543 176.374 91.0695 176.374 91.0695L178.601 87.5082L193.71 91.6073L193.569 88.9504L201.338 89.2323Z" fill="#FFBE9D"/>
<path d="M178.729 87.6152L175.106 83.5303L171.837 82.8481L167.851 83.2431C167.851 83.2431 167.692 83.7816 168.33 84.0688L166.935 84.1408C166.935 84.1408 166.656 84.7871 167.453 85.0743L166.456 85.2317C166.456 85.2317 166.894 86.1514 168.011 85.9716C169.127 85.7922 170.96 85.7922 170.96 85.7922L172.914 86.7615L170.004 86.6537L167.891 87.0129C167.891 87.0129 167.612 87.4996 168.09 87.6152C168.569 87.7308 170.402 87.6152 170.402 87.6152L173.193 88.2694C173.193 88.2694 173.791 89.885 174.149 90.2441C174.508 90.6033 176.501 91.0699 176.501 91.0699L178.729 87.6152Z" fill="#FFBE9D"/>
<path d="M166.941 84.1399C166.945 84.1667 167.359 84.1507 168.025 84.1037C168.692 84.0567 169.612 83.9784 170.626 83.8799C170.964 83.846 171.29 83.8128 171.599 83.7818L171.559 83.7789C172.314 83.9706 172.969 84.1294 173.438 84.235C173.907 84.3405 174.188 84.3931 174.195 84.3715C174.202 84.3502 173.933 84.2581 173.475 84.1212C173.016 83.984 172.368 83.8016 171.617 83.5991L171.598 83.5939L171.577 83.5957C171.268 83.6245 170.942 83.655 170.603 83.6867C169.589 83.7852 168.672 83.8851 168.009 83.9672C167.347 84.0492 166.939 84.1134 166.941 84.1399Z" fill="#EB996E"/>
<path d="M166.69 85.1933C166.694 85.2198 167.069 85.1948 167.672 85.1333C168.275 85.0714 169.106 84.9729 170.021 84.8521C170.339 84.8088 170.644 84.7674 170.933 84.7279L170.879 84.7223C172.189 85.1825 173.155 85.4909 173.174 85.4499C173.192 85.4089 172.257 85.0311 170.957 84.5492L170.931 84.5399L170.903 84.5437C170.613 84.5806 170.307 84.6197 169.99 84.6604C169.075 84.7812 168.248 84.9013 167.65 84.9979C167.052 85.0941 166.685 85.1669 166.69 85.1933Z" fill="#EB996E"/>
<path d="M176.501 91.0699C176.503 91.0639 176.393 91.0326 176.183 90.9725C175.972 90.9121 175.66 90.8241 175.262 90.695C175.064 90.629 174.844 90.5537 174.612 90.4545C174.495 90.4064 174.379 90.3475 174.269 90.2777C174.164 90.2102 174.094 90.0961 174.021 89.979C173.744 89.4997 173.507 88.9064 173.259 88.2492L173.247 88.2172L173.211 88.2086C172.382 88.0102 171.444 87.7857 170.424 87.5418L170.412 87.5388L170.397 87.5395C169.922 87.5652 169.419 87.5858 168.898 87.5854C168.641 87.582 168.365 87.5824 168.123 87.5362C168.008 87.5097 167.93 87.4522 167.911 87.3609C167.892 87.2691 167.926 87.1483 167.977 87.0524L167.909 87.0972C168.578 86.9849 169.29 86.8656 170.023 86.7429L170 86.7444C170.929 86.7802 171.905 86.8178 172.91 86.8563L173.356 86.8734L172.964 86.6787C172.344 86.3703 171.684 86.0417 171.012 85.7079L170.988 85.6956H170.96C170.222 85.7005 169.445 85.7236 168.655 85.7948C168.438 85.8154 168.221 85.8407 168.006 85.8739C167.804 85.903 167.604 85.9052 167.414 85.8601C167.035 85.7755 166.72 85.5006 166.554 85.1936L166.474 85.3264C166.809 85.2731 167.141 85.2205 167.47 85.1683L167.837 85.1101L167.491 84.9852C167.304 84.9177 167.141 84.8099 167.059 84.6618C166.974 84.5179 166.976 84.3265 167.032 84.1747L166.94 84.2348C167.413 84.2098 167.877 84.1852 168.335 84.1613L168.716 84.1412L168.375 83.986C168.22 83.9155 168.088 83.8148 168.013 83.6858C167.936 83.5609 167.918 83.3979 167.948 83.2666L167.862 83.3334C169.275 83.1898 170.609 83.0544 171.847 82.9287L171.817 82.9272C173.009 83.1711 174.102 83.3945 175.089 83.5963L175.047 83.5728C176.174 84.8229 177.085 85.8344 177.727 86.5467C178.038 86.8846 178.283 87.1513 178.462 87.3456C178.54 87.4284 178.604 87.4955 178.656 87.5499C178.701 87.5951 178.725 87.6175 178.728 87.6156C178.731 87.6137 178.712 87.5872 178.673 87.538C178.626 87.4802 178.567 87.4093 178.495 87.3217C178.324 87.1222 178.09 86.8481 177.792 86.5005C177.163 85.7788 176.269 84.7543 175.164 83.4885L175.149 83.4702L175.123 83.4646C174.138 83.255 173.047 83.0227 171.857 82.7695L171.843 82.7665L171.828 82.768C170.59 82.8877 169.254 83.0167 167.84 83.1532L167.768 83.1603L167.754 83.22C167.709 83.4113 167.734 83.5997 167.834 83.7712C167.931 83.9413 168.102 84.0692 168.283 84.1516L168.324 83.9767C167.866 83.9998 167.401 84.023 166.928 84.0468L166.857 84.0502L166.837 84.1069C166.759 84.3168 166.758 84.5429 166.871 84.7476C166.983 84.9509 167.198 85.0859 167.413 85.1634L167.434 84.9803C167.105 85.0322 166.773 85.0844 166.438 85.1373L166.298 85.1593L166.358 85.2705C166.555 85.6367 166.905 85.941 167.36 86.0484C167.584 86.1022 167.82 86.0988 168.043 86.066C168.252 86.0339 168.464 86.0093 168.678 85.9888C169.454 85.9187 170.231 85.8948 170.96 85.8892L170.908 85.8773C171.58 86.2103 172.241 86.5374 172.862 86.8451L172.917 86.6675C171.913 86.6317 170.936 86.5971 170.007 86.5642L169.996 86.5639L169.985 86.5657C169.252 86.6918 168.541 86.8145 167.873 86.9294L167.825 86.9376L167.806 86.9741C167.74 87.105 167.697 87.2385 167.725 87.3941C167.752 87.5567 167.929 87.6738 168.075 87.6984C168.367 87.7517 168.63 87.7454 168.897 87.7484C169.425 87.7458 169.928 87.7215 170.408 87.692L170.381 87.6898C171.403 87.9244 172.344 88.1407 173.175 88.3313L173.126 88.2903C173.385 88.9504 173.63 89.5389 173.925 90.0278C174.002 90.1468 174.079 90.2703 174.208 90.3523C174.33 90.4265 174.452 90.4847 174.572 90.5317C174.812 90.6283 175.035 90.6992 175.237 90.7607C175.641 90.8804 175.957 90.958 176.171 91.0076C176.27 91.0285 176.35 91.0456 176.416 91.0598C176.472 91.0691 176.501 91.0729 176.501 91.0699Z" fill="#EB996E"/>
<path d="M202.891 89.2326C202.891 89.227 202.824 89.2192 202.695 89.2103C202.546 89.2017 202.359 89.1909 202.129 89.1774C201.609 89.1551 200.897 89.1245 200.015 89.0868C198.188 89.0238 195.668 88.9369 192.775 88.8369L192.876 88.9283C192.849 88.0138 192.866 87.0393 192.923 86.0368C193.015 84.3817 193.175 82.8067 193.278 81.3701C193.334 80.6514 193.356 79.9674 193.42 79.3341C193.483 78.7001 193.58 78.1131 193.721 77.5887C193.996 76.5359 194.461 75.7512 194.851 75.263C195.245 74.7726 195.537 74.5563 195.52 74.5417C195.516 74.5372 195.441 74.588 195.309 74.6965C195.177 74.805 194.993 74.9762 194.784 75.2179C194.367 75.699 193.871 76.4896 193.573 77.5555C193.42 78.0862 193.313 78.68 193.242 79.3188C193.17 79.9588 193.141 80.6421 193.079 81.3578C192.966 82.791 192.799 84.366 192.707 86.0271C192.65 87.033 192.635 88.0131 192.666 88.9339L192.669 89.0227L192.767 89.0253C195.661 89.098 198.182 89.1614 200.01 89.2073C200.892 89.2218 201.605 89.2338 202.126 89.2423C202.356 89.2427 202.544 89.2431 202.694 89.2434C202.823 89.242 202.89 89.2386 202.891 89.2326Z" fill="#123922"/>
<path d="M194.512 101.253C194.512 101.253 199.799 107.75 199.799 110.347C199.799 112.945 199.688 116.84 196.25 119.637C192.813 122.434 150.751 155.158 150.751 155.158L140.5 147.014L178.618 112.345C178.618 112.345 176.844 109.448 177.62 108.25C178.396 107.051 179.616 106.652 179.616 106.652L179.727 100.224L194.512 101.253Z" fill="#123922"/>
<path d="M175.847 99.9526L174.953 106.801C174.953 106.801 147.88 119.438 145.696 123.172C144.706 124.864 143.747 140.181 143.747 140.181L157.096 140.455L158.823 128.316L165.986 124.828L178.793 113.106L183.154 100.461L175.847 99.9526Z" fill="#123922"/>
<path d="M188.062 100.996C188.049 100.993 188 101.137 187.941 101.402C187.882 101.667 187.814 102.056 187.785 102.542C187.76 103.026 187.776 103.612 187.922 104.246C188.064 104.879 188.356 105.558 188.834 106.174C189.315 106.788 189.943 107.268 190.607 107.536C191.27 107.807 191.937 107.878 192.48 107.842C193.026 107.803 193.45 107.666 193.718 107.538C193.851 107.473 193.951 107.418 194.014 107.373C194.078 107.331 194.109 107.306 194.105 107.3C194.088 107.256 193.535 107.664 192.472 107.705C191.95 107.722 191.315 107.639 190.69 107.374C190.066 107.111 189.471 106.651 189.01 106.063C188.073 104.869 187.921 103.487 187.937 102.546C187.961 101.589 188.102 101.001 188.062 100.996Z" fill="#123922"/>
<path d="M177.682 105.64C177.667 105.659 177.918 105.866 178.383 106.129C178.847 106.393 179.534 106.7 180.341 106.912C181.15 107.122 181.912 107.194 182.461 107.194C183.01 107.195 183.346 107.142 183.344 107.119C183.345 107.055 181.984 107.148 180.401 106.726C178.814 106.32 177.719 105.586 177.682 105.64Z" fill="#0C6532"/>
<path d="M178.504 101.049C178.516 101.03 178.249 100.966 177.929 101.183C177.778 101.289 177.626 101.487 177.635 101.736C177.639 101.974 177.787 102.249 178.087 102.37C178.394 102.486 178.724 102.384 178.906 102.203C179.104 102.016 179.093 101.744 179 101.591C178.912 101.428 178.77 101.341 178.666 101.313C178.562 101.283 178.501 101.298 178.501 101.309C178.488 101.336 178.744 101.365 178.86 101.645C178.915 101.777 178.905 101.955 178.761 102.08C178.627 102.205 178.375 102.271 178.172 102.192C177.968 102.111 177.844 101.908 177.833 101.728C177.816 101.545 177.915 101.387 178.029 101.286C178.269 101.079 178.51 101.081 178.504 101.049Z" fill="#0C6532"/>
<path d="M177.632 113.67C177.655 113.691 177.983 113.422 178.527 113.007C179.07 112.591 179.837 112.034 180.738 111.49C181.642 110.947 182.509 110.529 183.153 110.255C183.796 109.981 184.208 109.835 184.197 109.806C184.189 109.785 183.757 109.884 183.091 110.13C182.425 110.374 181.533 110.779 180.619 111.329C179.706 111.88 178.946 112.46 178.425 112.904C177.903 113.349 177.613 113.653 177.632 113.67Z" fill="#0C6532"/>
<path d="M175.92 109.075C175.974 109.078 175.998 108.479 175.644 107.833C175.297 107.183 174.759 106.83 174.728 106.871C174.684 106.913 175.126 107.308 175.45 107.918C175.783 108.523 175.855 109.08 175.92 109.075Z" fill="#0C6532"/>
<path d="M145.508 156.972C145.531 156.989 145.799 156.74 146.213 156.323C146.627 155.906 147.188 155.322 147.797 154.668C147.949 154.505 148.093 154.35 148.264 154.257C148.432 154.162 148.63 154.137 148.819 154.155C149.202 154.192 149.519 154.364 149.776 154.512C150.288 154.829 150.672 154.948 150.682 154.915C150.687 154.894 150.353 154.745 149.862 154.398C149.612 154.236 149.282 154.032 148.841 153.977C148.624 153.95 148.371 153.976 148.155 154.094C147.94 154.209 147.783 154.382 147.632 154.544C147.023 155.197 146.481 155.796 146.096 156.235C145.712 156.675 145.486 156.955 145.508 156.972Z" fill="#0C6532"/>
<path d="M150.759 155.158C150.759 155.158 150.702 155.104 150.585 155.006C150.46 154.904 150.286 154.761 150.061 154.576C149.59 154.196 148.908 153.645 148.033 152.939C146.259 151.52 143.706 149.477 140.56 146.96L140.564 147.065C145.64 142.507 152.445 136.398 159.906 129.698C164.94 125.162 169.674 120.897 173.799 117.182C174.314 116.717 174.819 116.261 175.315 115.814C175.562 115.59 175.807 115.369 176.05 115.15C176.291 114.929 176.53 114.713 176.785 114.518C177.278 114.122 177.826 113.726 178.067 113.151C178.196 112.874 178.216 112.554 178.145 112.271C178.071 111.98 177.934 111.737 177.848 111.475C177.658 110.959 177.513 110.446 177.438 109.941C177.369 109.439 177.362 108.93 177.559 108.498C177.788 108.088 178.144 107.727 178.491 107.423C178.848 107.121 179.24 106.865 179.644 106.702L179.682 106.686L179.682 106.652C179.705 104.7 179.724 103.155 179.736 102.088C179.739 101.566 179.741 101.161 179.742 100.878C179.741 100.747 179.74 100.645 179.74 100.567C179.738 100.498 179.736 100.462 179.733 100.462C179.731 100.462 179.727 100.497 179.724 100.567C179.72 100.644 179.716 100.746 179.71 100.878C179.701 101.16 179.689 101.565 179.673 102.087C179.647 103.153 179.61 104.698 179.563 106.65L179.601 106.601C179.167 106.772 178.773 107.029 178.402 107.337C178.039 107.653 177.686 107.997 177.431 108.447C177.214 108.916 177.223 109.443 177.289 109.957C177.363 110.475 177.508 110.996 177.698 111.519C177.783 111.782 177.922 112.042 177.985 112.3C178.048 112.565 178.03 112.839 177.911 113.096C177.69 113.62 177.169 114.003 176.669 114.399C176.411 114.595 176.169 114.812 175.928 115.031C175.684 115.249 175.439 115.47 175.19 115.692C174.693 116.138 174.186 116.593 173.67 117.056C169.539 120.768 164.798 125.027 159.756 129.558C152.309 136.272 145.517 142.395 140.45 146.963L140.39 147.017L140.454 147.068C143.62 149.565 146.189 151.591 147.974 152.999C148.861 153.692 149.553 154.234 150.03 154.607C150.262 154.785 150.441 154.923 150.569 155.022C150.692 155.114 150.759 155.158 150.759 155.158Z" fill="#0C6532"/>
<path d="M144.76 155.611C144.806 155.64 145.414 154.909 145.986 153.91C146.561 152.913 146.874 152.044 146.82 152.026C146.762 152.006 146.363 152.835 145.794 153.821C145.229 154.808 144.708 155.58 144.76 155.611Z" fill="#0C6532"/>
<path d="M142.12 153.926C142.153 153.965 143.005 153.361 143.824 152.418C144.649 151.478 145.1 150.591 145.051 150.57C144.994 150.542 144.466 151.375 143.655 152.298C142.85 153.224 142.076 153.883 142.12 153.926Z" fill="#0C6532"/>
<path d="M140.456 152.269C140.506 152.3 141.1 151.598 141.84 150.74C142.58 149.88 143.188 149.188 143.142 149.152C143.099 149.117 142.414 149.756 141.67 150.62C140.925 151.484 140.408 152.24 140.456 152.269Z" fill="#0C6532"/>
<path d="M138.717 149.523C138.751 149.567 139.374 149.232 140.108 148.774C140.843 148.316 141.411 147.91 141.377 147.865C141.344 147.821 140.72 148.156 139.985 148.614C139.251 149.072 138.683 149.479 138.717 149.523Z" fill="#0C6532"/>
<path d="M163.089 127.751C163.05 127.791 164.889 129.315 167.198 131.155C169.507 132.995 171.411 134.453 171.451 134.413C171.49 134.373 169.651 132.849 167.341 131.009C165.033 129.169 163.129 127.71 163.089 127.751Z" fill="#0C6532"/>
<path d="M163.451 128.398C163.427 128.412 163.602 128.697 163.933 129.131C164.263 129.564 164.756 130.141 165.359 130.732C165.964 131.322 166.561 131.813 167.013 132.145C167.466 132.477 167.767 132.657 167.784 132.637C167.825 132.592 166.711 131.773 165.518 130.6C164.319 129.433 163.505 128.365 163.451 128.398Z" fill="#0C6532"/>
<path d="M187.27 101.617C187.255 101.621 187.277 101.731 187.33 101.929C187.378 102.127 187.483 102.407 187.641 102.742C187.797 103.078 188.029 103.461 188.327 103.862C188.635 104.256 189.013 104.666 189.464 105.048C189.921 105.425 190.403 105.734 190.863 105.981C191.329 106.219 191.769 106.4 192.154 106.514C192.536 106.631 192.854 106.704 193.077 106.733C193.3 106.766 193.423 106.777 193.426 106.764C193.434 106.729 192.944 106.648 192.207 106.385C191.837 106.257 191.413 106.068 190.965 105.827C190.521 105.578 190.055 105.273 189.611 104.905C189.171 104.533 188.799 104.138 188.49 103.758C188.19 103.373 187.949 103.007 187.78 102.684C187.434 102.041 187.308 101.607 187.27 101.617Z" fill="#0C6532"/>
<path d="M155.284 123.711C155.238 123.759 156.413 124.539 157.423 125.848C158.449 127.149 158.865 128.409 158.931 128.386C158.955 128.38 158.884 128.057 158.678 127.561C158.473 127.066 158.117 126.401 157.6 125.737C157.082 125.074 156.509 124.546 156.06 124.205C155.611 123.862 155.299 123.693 155.284 123.711Z" fill="#0C6532"/>
<path d="M152.557 125.071C152.543 125.131 154.026 125.37 155.72 126.019C157.42 126.658 158.646 127.445 158.685 127.394C158.701 127.375 158.414 127.153 157.907 126.849C157.399 126.544 156.664 126.167 155.804 125.841C154.945 125.515 154.131 125.305 153.535 125.191C152.938 125.076 152.562 125.047 152.557 125.071Z" fill="#0C6532"/>
<path d="M195.302 33.871C195.058 32.2759 197.557 30.9634 199.435 30.8269C200.331 30.7621 201.261 30.8851 202.11 30.6188C203.949 30.0415 204.683 27.9023 206.477 27.2209C207.818 26.7114 209.362 27.1649 210.662 27.7542C211.962 28.3435 213.247 29.0853 214.699 29.1692C215.963 29.2419 217.335 28.8201 218.44 29.3758C219.264 29.7901 219.696 30.6449 220.455 31.1495C221.198 31.643 222.166 31.7474 223.088 31.7925C224.01 31.8376 224.964 31.8458 225.803 32.1923C226.642 32.5384 227.337 33.3377 227.162 34.154L195.302 33.871Z" fill="#40A76C"/>
</svg>
