<svg width="20" height="20" viewBox="0 0 20 20" fill="none" xmlns="http://www.w3.org/2000/svg">
<path d="M8.70565 13.2537L14.3287 7.65565L13.3999 6.7269L8.70565 11.3962L6.58065 9.29615L5.6519 10.2249L8.70565 13.2537ZM10.0017 19.0999C8.75432 19.0999 7.57757 18.8631 6.4714 18.3894C5.36524 17.9157 4.39707 17.264 3.5669 16.4342C2.73674 15.6043 2.08465 14.6366 1.61065 13.5309C1.13682 12.4252 0.899902 11.2488 0.899902 10.0017C0.899902 8.73765 1.13674 7.55674 1.6104 6.4589C2.08407 5.36107 2.73582 4.39707 3.56565 3.5669C4.39549 2.73674 5.36324 2.08465 6.4689 1.61065C7.57457 1.13682 8.75099 0.899902 9.99815 0.899902C11.2622 0.899902 12.4431 1.13674 13.5409 1.6104C14.6387 2.08407 15.6027 2.73582 16.4329 3.56565C17.2631 4.39549 17.9152 5.35907 18.3892 6.4564C18.863 7.55374 19.0999 8.73432 19.0999 9.99815C19.0999 11.2455 18.8631 12.4222 18.3894 13.5284C17.9157 14.6346 17.264 15.6027 16.4342 16.4329C15.6043 17.2631 14.6407 17.9152 13.5434 18.3892C12.4461 18.863 11.2655 19.0999 10.0017 19.0999ZM9.9999 17.7999C12.1666 17.7999 14.0082 17.0416 15.5249 15.5249C17.0416 14.0082 17.7999 12.1666 17.7999 9.9999C17.7999 7.83324 17.0416 5.99157 15.5249 4.4749C14.0082 2.95824 12.1666 2.1999 9.9999 2.1999C7.83324 2.1999 5.99157 2.95824 4.4749 4.4749C2.95824 5.99157 2.1999 7.83324 2.1999 9.9999C2.1999 12.1666 2.95824 14.0082 4.4749 15.5249C5.99157 17.0416 7.83324 17.7999 9.9999 17.7999Z" fill="#2F945A"/>
</svg>
