<svg width="34" height="34" viewBox="0 0 34 34" fill="none" xmlns="http://www.w3.org/2000/svg">
<path d="M5.76833 31.4547C4.87623 31.4547 4.11604 31.1405 3.48778 30.5123C2.85953 29.884 2.54541 29.1238 2.54541 28.2317V14.2684C2.54541 13.3763 2.85956 12.6161 3.48785 11.9878C4.11609 11.3595 4.87626 11.0454 5.76836 11.0454H28.2317C29.1238 11.0454 29.884 11.3595 30.5123 11.9878C31.1406 12.6161 31.4547 13.3763 31.4547 14.2684V28.2317C31.4547 29.1238 31.1406 29.884 30.5123 30.5123C29.884 31.1405 29.1238 31.4547 28.2317 31.4547H5.76833ZM5.76833 28.2317H28.2317V14.2684H5.76833V28.2317ZM5.66668 9.62874V6.79541H28.3334V9.62874H5.66668ZM9.91668 5.37874V2.54541H24.0833V5.37874H9.91668Z" fill="#595959"/>
</svg>
