<svg width="58" height="58" viewBox="0 0 58 58" fill="none" xmlns="http://www.w3.org/2000/svg">
<rect width="58" height="58" rx="6" fill="#FC8019"/>
<path d="M9.45484 35.6499C9.44434 35.6394 9.43384 35.6394 9.42333 35.6289C9.25529 35.4188 8.21553 34.1165 7.15477 32.4361C6.83969 31.9005 6.62964 31.4909 6.67165 31.3753C6.77667 31.0918 8.62514 30.9447 9.20278 31.1968C9.38132 31.2703 9.37082 31.3753 9.37082 31.4383C9.37082 31.6904 9.36032 32.3836 9.36032 32.3836C9.36032 32.5306 9.47585 32.6462 9.62288 32.6357C9.76992 32.6357 9.88545 32.5201 9.87495 32.3731V30.6612C9.87495 30.5141 9.71741 30.4721 9.6859 30.4721C9.39183 30.4721 8.78267 30.4721 8.13151 30.4721C6.70315 30.4721 6.37757 30.5351 6.13601 30.3671C5.61088 30.0205 4.74967 27.6994 4.72866 26.3866C4.69715 24.5381 5.78943 22.9417 7.33331 22.154C7.97397 21.8284 8.69865 21.6499 9.46535 21.6499C11.902 21.6499 13.908 23.4879 14.1705 25.851C14.1705 25.851 14.1705 25.851 14.1705 25.8615C14.223 26.4286 11.0722 26.5546 10.4421 26.3866C10.3476 26.3656 10.3266 26.2606 10.3266 26.2185C10.3266 25.7879 10.3266 24.5591 10.3266 24.5591C10.3266 24.4121 10.211 24.2966 10.064 24.3071C9.91696 24.3071 9.81193 24.4226 9.81193 24.5696V26.8277C9.81193 26.9747 9.93796 27.0062 9.96947 27.0167C10.3266 27.0167 11.1563 27.0167 11.923 27.0167C12.9627 27.0167 13.4038 27.1428 13.6979 27.3633C13.887 27.5104 13.971 27.7939 13.8975 28.1615C13.2988 31.4173 9.59138 35.4714 9.45484 35.6499ZM19.5059 28.004C20.4406 28.4031 21.0182 28.8547 21.0182 29.8314C21.0182 30.8292 20.262 31.4699 19.0963 31.4699C18.151 31.4699 17.3843 31.0393 17.0062 30.2936L16.9432 30.178L18.0565 29.5374L18.13 29.6529C18.3821 30.0625 18.6656 30.2411 19.0647 30.2411C19.4113 30.2411 19.6529 30.0835 19.6529 29.8525C19.6529 29.6004 19.4849 29.4954 18.9597 29.2643L18.6867 29.1488C17.9725 28.8442 17.3108 28.4241 17.3108 27.3948C17.3108 26.4706 18.0145 25.8299 19.0332 25.8299C19.7999 25.8299 20.3251 26.124 20.6821 26.7647L20.7452 26.8802L19.6634 27.5734L19.5899 27.4369C19.4113 27.1113 19.2433 27.0483 19.0227 27.0483C18.8022 27.0483 18.6551 27.1743 18.6551 27.3633C18.6551 27.5839 18.7602 27.6784 19.2328 27.8885L19.5059 28.004ZM27.3933 28.193L28.181 25.998H29.5359L27.5404 31.5539H27.2358L26.0175 28.9492C25.965 28.8337 25.902 28.6867 25.8494 28.5501C25.7969 28.6867 25.7339 28.8337 25.6814 28.9492L24.4211 31.5539H24.127L22.1 25.998H23.5389L24.3371 28.193C24.3896 28.3296 24.4421 28.5081 24.4841 28.6657C24.5366 28.4976 24.5996 28.3296 24.6731 28.1825L25.7129 25.956H26.007L27.0677 28.1825C27.1308 28.3296 27.2043 28.4976 27.2568 28.6657C27.2883 28.5081 27.3408 28.3296 27.3933 28.193ZM31.1008 31.3963V25.8825H32.4661V31.3963H31.1008ZM36.9297 29.5479V28.3191H39.4608V30.7872L39.4083 30.8292C39.1143 31.0708 38.3476 31.4699 37.3078 31.4699C35.5539 31.4699 34.3356 30.3041 34.3356 28.6447C34.3356 27.0167 35.5119 25.8299 37.1398 25.8299C38.0325 25.8299 38.6942 26.082 39.1458 26.5966L39.2298 26.7017L38.3056 27.6259L38.2005 27.5209C37.938 27.2583 37.6754 27.0903 37.1398 27.0903C36.3101 27.0903 35.7219 27.7309 35.7219 28.6552C35.7219 29.6109 36.3416 30.2305 37.3078 30.2305C37.6229 30.2305 37.959 30.178 38.19 30.0835V29.5479H36.9297ZM43.8299 29.5479V28.3191H46.3611V30.7872L46.3086 30.8292C46.0145 31.0708 45.2478 31.4699 44.208 31.4699C42.4541 31.4699 41.2358 30.3041 41.2358 28.6447C41.2358 27.0167 42.4121 25.8299 44.04 25.8299C44.9327 25.8299 45.5944 26.082 46.046 26.5966L46.13 26.7017L45.2058 27.6259L45.1008 27.5209C44.8382 27.2583 44.5756 27.0903 44.04 27.0903C43.2103 27.0903 42.6221 27.7309 42.6221 28.6552C42.6221 29.6109 43.2418 30.2305 44.208 30.2305C44.5231 30.2305 44.8592 30.178 45.0903 30.0835V29.5479H43.8299ZM51.3498 25.893H52.7782L50.8247 29.5584V31.4068H49.4593V29.6424L47.3798 25.893H48.8922L49.8584 27.6469C49.9635 27.8359 50.0685 28.088 50.1525 28.2981C50.226 28.0985 50.3311 27.8465 50.4361 27.6469L51.3498 25.893Z" fill="white"/>
</svg>
