<svg width="24" height="24" viewBox="0 0 24 24" fill="none" xmlns="http://www.w3.org/2000/svg">
<path d="M17.7307 20.5H7.21153V8.50005L13.8461 1.90393L14.6923 2.75005C14.7961 2.8539 14.8823 2.9914 14.9509 3.16255C15.0195 3.3337 15.0538 3.49492 15.0538 3.64621V3.90005L13.9923 8.50005H20.6923C21.1679 8.50005 21.5881 8.68243 21.9528 9.04718C22.3176 9.41191 22.5 9.83211 22.5 10.3078V11.9231C22.5 12.027 22.4865 12.1391 22.4596 12.2596C22.4326 12.3801 22.4025 12.4923 22.3692 12.5962L19.5038 19.3577C19.3602 19.6782 19.1198 19.9487 18.7827 20.1692C18.4455 20.3897 18.0948 20.5 17.7307 20.5ZM8.7115 19H17.7307C17.8012 19 17.8734 18.9808 17.9471 18.9423C18.0208 18.9039 18.0769 18.8398 18.1154 18.75L21 12V10.3078C21 10.218 20.9711 10.1443 20.9134 10.0866C20.8557 10.0289 20.782 10 20.6923 10H12.0961L13.35 4.51926L8.7115 9.13851V19ZM7.21153 8.50005V10H3.99998V19H7.21153V20.5H2.5V8.50005H7.21153Z" fill="#367AFF"/>
</svg>
