<svg width="24" height="24" viewBox="0 0 24 24" fill="none" xmlns="http://www.w3.org/2000/svg">
<path d="M11.25 15.7884V7.3884L8.78462 9.85378L7.7308 8.7692L12 4.5L16.2692 8.7692L15.2153 9.85378L12.7499 7.3884V15.7884H11.25ZM6.3077 19.5C5.80257 19.5 5.375 19.325 5.025 18.975C4.675 18.625 4.5 18.1974 4.5 17.6923V14.9808H5.99997V17.6923C5.99997 17.7692 6.03202 17.8397 6.09612 17.9038C6.16024 17.9679 6.23077 18 6.3077 18H17.6922C17.7692 18 17.8397 17.9679 17.9038 17.9038C17.9679 17.8397 18 17.7692 18 17.6923V14.9808H19.5V17.6923C19.5 18.1974 19.325 18.625 18.975 18.975C18.625 19.325 18.1974 19.5 17.6922 19.5H6.3077Z" fill="white"/>
</svg>
