<svg width="30" height="30" viewBox="0 0 30 30" fill="none" xmlns="http://www.w3.org/2000/svg">
<path d="M5.38469 24.375C4.76135 24.375 4.22885 24.1543 3.78719 23.7128C3.34573 23.2711 3.125 22.7386 3.125 22.1153V18.69C3.125 18.4848 3.18396 18.3029 3.30188 18.1444C3.41958 17.9856 3.57698 17.8774 3.77406 17.8197C4.32219 17.5649 4.76771 17.1867 5.11062 16.685C5.45354 16.1835 5.625 15.6219 5.625 15C5.625 14.3781 5.45354 13.8165 5.11062 13.315C4.76771 12.8133 4.32219 12.4351 3.77406 12.1803C3.57698 12.1226 3.41958 12.0144 3.30188 11.8556C3.18396 11.6971 3.125 11.5152 3.125 11.31V7.88469C3.125 7.26135 3.34573 6.72885 3.78719 6.28719C4.22885 5.84573 4.76135 5.625 5.38469 5.625H24.6153C25.2386 5.625 25.7711 5.84573 26.2128 6.28719C26.6543 6.72885 26.875 7.26135 26.875 7.88469V11.31C26.875 11.5152 26.816 11.6971 26.6981 11.8556C26.5804 12.0144 26.423 12.1226 26.2259 12.1803C25.6778 12.4351 25.2323 12.8133 24.8894 13.315C24.5465 13.8165 24.375 14.3781 24.375 15C24.375 15.6219 24.5465 16.1835 24.8894 16.685C25.2323 17.1867 25.6778 17.5649 26.2259 17.8197C26.423 17.8774 26.5804 17.9856 26.6981 18.1444C26.816 18.3029 26.875 18.4848 26.875 18.69V22.1153C26.875 22.7386 26.6543 23.2711 26.2128 23.7128C25.7711 24.1543 25.2386 24.375 24.6153 24.375H5.38469ZM5.38469 22.5H24.6153C24.7276 22.5 24.8198 22.464 24.8919 22.3919C24.964 22.3198 25 22.2276 25 22.1153V19.3125C24.2292 18.8542 23.6198 18.2448 23.1719 17.4844C22.724 16.724 22.5 15.8958 22.5 15C22.5 14.1042 22.724 13.276 23.1719 12.5156C23.6198 11.7552 24.2292 11.1458 25 10.6875V7.88469C25 7.7724 24.964 7.68021 24.8919 7.60813C24.8198 7.53604 24.7276 7.5 24.6153 7.5H5.38469C5.2724 7.5 5.18021 7.53604 5.10813 7.60813C5.03604 7.68021 5 7.7724 5 7.88469V10.6875C5.77083 11.1458 6.38021 11.7552 6.82812 12.5156C7.27604 13.276 7.5 14.1042 7.5 15C7.5 15.8958 7.27604 16.724 6.82812 17.4844C6.38021 18.2448 5.77083 18.8542 5 19.3125V22.1153C5 22.2276 5.03604 22.3198 5.10813 22.3919C5.18021 22.464 5.2724 22.5 5.38469 22.5Z" fill="#1F212C"/>
<path d="M19.6828 19.2547H9.93359V18.7473C9.93359 18.306 10.0555 17.9004 10.2992 17.5305C10.543 17.1606 10.8801 16.8724 11.3106 16.666C11.8703 16.42 12.4373 16.2356 13.0116 16.1128C13.5857 15.9898 14.1845 15.9283 14.8082 15.9283C15.4319 15.9283 16.0307 15.9898 16.6048 16.1128C17.1791 16.2356 17.7461 16.42 18.3058 16.666C18.7363 16.8724 19.0734 17.1606 19.3172 17.5305C19.5609 17.9004 19.6828 18.306 19.6828 18.7473V19.2547Z" fill="#1F212C"/>
<path d="M16.4386 13.9357C15.9885 14.3858 15.445 14.6109 14.8082 14.6109C14.1714 14.6109 13.6279 14.3858 13.1778 13.9357C12.7276 13.4855 12.5026 12.942 12.5026 12.3052C12.5026 11.6687 12.7276 11.1253 13.1778 10.6752C13.6279 10.2251 14.1714 10 14.8082 10C15.445 10 15.9885 10.2251 16.4386 10.6752C16.8888 11.1253 17.1138 11.6687 17.1138 12.3052C17.1138 12.942 16.8888 13.4855 16.4386 13.9357Z" fill="#1F212C"/>
</svg>
