<svg width="891" height="891" viewBox="0 0 891 891" fill="none" xmlns="http://www.w3.org/2000/svg">
<path d="M591.624 374.22C627.054 374.22 655.776 345.498 655.776 310.068C655.776 274.638 627.054 245.916 591.624 245.916C556.194 245.916 527.472 274.638 527.472 310.068C527.472 345.498 556.194 374.22 591.624 374.22Z" fill="#393939"/>
<path d="M285.12 645.084C320.55 645.084 349.272 616.362 349.272 580.932C349.272 545.502 320.55 516.78 285.12 516.78C249.69 516.78 220.968 545.502 220.968 580.932C220.968 616.362 249.69 645.084 285.12 645.084Z" fill="#95D0D5"/>
<path d="M591.624 791.208C627.054 791.208 655.776 762.486 655.776 727.056C655.776 691.626 627.054 662.904 591.624 662.904C556.194 662.904 527.472 691.626 527.472 727.056C527.472 762.486 556.194 791.208 591.624 791.208Z" fill="#FD7E50"/>
<path d="M399.168 228.096C399.168 211.247 402.487 194.563 408.934 178.996C415.382 163.43 424.833 149.285 436.747 137.371C448.661 125.457 462.806 116.006 478.372 109.559C493.939 103.111 510.623 99.792 527.472 99.792L527.472 228.096H399.168Z" fill="#FD7E50"/>
<path d="M527.472 99.792C544.321 99.792 561.005 103.111 576.572 109.559C592.138 116.006 606.282 125.457 618.197 137.371C630.111 149.285 639.561 163.43 646.009 178.996C652.457 194.563 655.776 211.247 655.776 228.096L527.472 228.096L527.472 99.792Z" fill="#95D0D5"/>
<path d="M235.224 99.792C269.252 99.792 301.887 113.31 325.949 137.371C350.01 161.433 363.528 194.068 363.528 228.096L235.224 228.096L235.224 99.792Z" fill="#71357C"/>
<path d="M399.168 244.134C416.017 244.134 432.701 247.453 448.268 253.901C463.834 260.348 477.978 269.799 489.893 281.713C501.807 293.628 511.258 307.772 517.705 323.338C524.153 338.905 527.472 355.589 527.472 372.438L399.168 372.438V244.134Z" fill="#F35D5D"/>
<path d="M655.776 534.6C672.625 534.6 689.309 537.919 704.876 544.367C720.442 550.814 734.587 560.265 746.501 572.179C758.415 584.093 767.866 598.238 774.314 613.804C780.761 629.371 784.08 646.055 784.08 662.904L655.776 662.904L655.776 534.6Z" fill="#95D0D5"/>
<path d="M367.092 791.208C350.243 791.208 333.559 787.889 317.992 781.441C302.426 774.994 288.282 765.543 276.367 753.629C264.453 741.714 255.003 727.57 248.555 712.004C242.107 696.437 238.788 679.753 238.788 662.904L367.092 662.904L367.092 791.208Z" fill="#F35D5D"/>
<path d="M399.168 520.344C399.168 503.495 402.487 486.811 408.934 471.244C415.382 455.678 424.833 441.534 436.747 429.619C448.661 417.705 462.806 408.254 478.372 401.807C493.939 395.359 510.623 392.04 527.472 392.04C544.321 392.04 561.005 395.359 576.572 401.807C592.138 408.254 606.282 417.705 618.197 429.619C630.111 441.534 639.561 455.678 646.009 471.244C652.457 486.811 655.776 503.495 655.776 520.344L527.472 520.344H399.168Z" fill="#71357C"/>
<path d="M367.092 534.6C383.941 534.6 400.625 537.919 416.192 544.367C431.758 550.814 445.903 560.265 457.817 572.179C469.731 584.093 479.182 598.238 485.629 613.804C492.077 629.371 495.396 646.055 495.396 662.904L367.092 662.904L367.092 534.6Z" fill="#393939"/>
</svg>
