<svg width="65" height="41" viewBox="0 0 65 41" fill="none" xmlns="http://www.w3.org/2000/svg">
<g clip-path="url(#clip0_4196_21396)">
<path d="M59.9658 16.037C59.6129 16.5524 59.489 17.173 59.3825 17.8175C59.2766 18.5957 59.091 19.361 58.8285 20.1013C58.4435 21.1447 57.7781 22.0617 56.9056 22.7513C55.8645 20.0179 54.3574 17.4858 52.4512 15.2673C53.5139 14.8707 54.6636 14.7663 55.7803 14.9651C56.5664 15.1135 57.3358 15.3392 58.0775 15.6389C58.706 15.8719 59.3132 16.0743 59.9524 16.0384L59.9658 16.037Z" fill="white"/>
<path d="M48.3259 4.69431C48.2872 5.30954 48.503 5.90879 48.736 6.52003C49.0421 7.24345 49.2737 7.99618 49.4271 8.76655C49.631 9.85749 49.5226 10.9838 49.1142 12.0158C46.8136 10.1488 44.2134 8.68502 41.4238 7.68657C42.1456 6.81922 43.0897 6.16462 44.1551 5.79294C44.9167 5.53967 45.7012 5.36127 46.4975 5.26027C47.1633 5.1564 47.7972 5.03256 48.3259 4.69165V4.69431Z" fill="white"/>
<path d="M58.1309 27.2019C59.2424 27.3749 60.2869 27.8435 61.1551 28.5589C61.7613 29.0712 62.3145 29.6431 62.8063 30.2661C63.2311 30.7734 63.6586 31.2488 64.2206 31.5245H58.5144C58.5119 30.0752 58.3836 28.629 58.1309 27.2019Z" fill="white"/>
<path d="M16.5284 4.69409C17.061 5.03766 17.6936 5.15884 18.3567 5.26138C19.1531 5.36178 19.9377 5.54019 20.6991 5.79405C21.7648 6.16439 22.7092 6.81869 23.4304 7.68635C20.6408 8.68555 18.0402 10.1493 15.7387 12.0156C15.3296 10.9838 15.222 9.85694 15.4284 8.76633C15.5806 7.99564 15.8122 7.24279 16.1195 6.51981C16.3526 5.91523 16.5683 5.31598 16.5284 4.69409Z" fill="white"/>
<path d="M4.89258 16.0387C5.52512 16.0773 6.14035 15.8669 6.7689 15.6392C7.51306 15.3385 8.28521 15.1123 9.07401 14.964C10.1908 14.7661 11.3403 14.8705 12.4032 15.2663C10.4987 17.4858 8.99374 20.0189 7.95541 22.7529C7.08232 22.0641 6.41718 21.1468 6.03382 20.1029C5.77028 19.3633 5.58418 18.5984 5.47851 17.8204C5.37331 17.1746 5.24547 16.5554 4.89524 16.04L4.89258 16.0387Z" fill="white"/>
<path d="M0.630859 31.5245C1.19815 31.2488 1.62561 30.7734 2.04376 30.2661C2.5352 29.6436 3.08796 29.0721 3.69369 28.5602C4.56017 27.8436 5.60412 27.3743 6.71524 27.2019C6.46338 28.629 6.33595 30.0753 6.33439 31.5245H0.630859Z" fill="white"/>
<path d="M32.4301 0.550049C32.7124 1.10269 33.1998 1.52083 33.7218 1.92699C34.3585 2.40208 34.9452 2.94062 35.473 3.53431C36.2078 4.37329 36.6923 5.40176 36.8712 6.5026C33.93 6.01122 30.9276 6.01122 27.9863 6.5026C28.1663 5.40183 28.6512 4.37353 29.3859 3.53431C29.9155 2.94472 30.5026 2.40941 31.1384 1.93631C31.6591 1.52882 32.1478 1.11068 32.4301 0.563365V0.550049Z" fill="white"/>
<path d="M27.1269 31.5382H29.0898C29.3468 29.9242 28.8421 28.6804 27.1655 28.9774C25.7526 29.2277 24.2359 30.5954 23.3184 31.5382L25.9058 31.5275C26.1948 31.3438 26.7581 31.128 26.9911 31.2892C27.0322 31.3166 27.0661 31.3535 27.0897 31.3969C27.1134 31.4403 27.1262 31.4888 27.1269 31.5382Z" fill="white"/>
<path d="M35.9496 31.5246H38.3998C38.5157 28.7095 38.0456 25.7985 36.7046 23.283C35.4822 20.9925 33.462 19.4371 30.8453 19.0602C27.0261 18.5116 23.1709 20.0936 19.9136 22.3401C16.3648 24.7944 13.4351 28.1262 10.877 31.5286H14.1116C17.0226 27.507 23.7222 21.408 28.6494 21.364C30.2194 21.352 31.8161 21.7076 32.9973 22.7396C33.8522 23.484 34.8882 24.9276 34.8376 26.0994C34.807 26.7879 34.1718 27.0076 33.5672 26.7879C33.0958 26.6148 32.7682 26.2006 32.4326 25.7545C31.9157 25.0497 31.2155 24.4999 30.4082 24.1649C29.6008 23.8299 28.7171 23.7225 27.853 23.8542C25.6651 24.1485 22.9538 25.8038 21.2054 27.3166C19.7087 28.6171 18.3065 30.0225 17.0093 31.522H20.4876C21.7633 30.0239 23.1096 28.7468 24.8395 27.6948C25.4481 27.3193 26.0955 27.0108 26.7704 26.7746C28.5575 26.1753 30.3366 26.3271 31.1263 28.4951C31.4379 29.3474 31.4792 30.0931 31.3926 31.4661V31.5206H33.7563V31.4514C33.7395 30.7851 33.7572 30.1184 33.8096 29.4539C33.8695 28.8134 34.0759 28.1489 34.6925 28.077C35.9922 27.8106 35.9296 30.6271 35.9549 31.53L35.9496 31.5246Z" fill="white"/>
<path d="M40.9783 31.5248H43.4512C43.5697 28.9121 43.3394 25.816 42.4725 23.1113C42.3043 22.5847 42.1073 22.0677 41.8825 21.5626C41.3483 20.4027 40.649 19.3262 39.8065 18.3666C38.8552 17.2597 37.7385 16.3065 36.4959 15.5408C36.1224 15.3127 35.7375 15.1038 35.3427 14.9149C34.944 14.7253 34.535 14.5581 34.1176 14.4142C29.3089 12.7523 24.4457 13.9348 20.3668 16.0961C19.5678 16.5169 18.8074 16.9763 18.071 17.4571C17.3346 17.9378 16.6568 18.4438 15.9963 18.9592C15.0438 19.7112 14.1408 20.5239 13.293 21.3922C13.1065 21.5866 12.9188 21.785 12.7377 21.9861C12.2529 22.5187 11.5005 23.2725 11.7269 24.0502C11.9027 24.6667 12.7177 24.4856 13.0027 24.2726C13.4734 24.0059 13.9167 23.6937 14.3263 23.3404C14.883 22.8823 15.4077 22.3896 15.9576 21.9248C18.0084 20.1642 20.307 18.7149 22.7798 17.6235C23.2778 17.4105 23.7754 17.2187 24.2726 17.0483C24.7679 16.8765 25.258 16.7327 25.7467 16.6101C29.9854 15.5355 34.609 16.2319 37.5653 19.6064C40.411 22.857 40.9304 27.2062 40.9743 31.5288L40.9783 31.5248ZM10.35 27.8494C10.6441 27.5687 10.917 27.2664 11.1663 26.9452C11.5658 26.4591 11.6018 25.9877 11.4459 25.6468C11.3881 25.5221 11.303 25.412 11.1969 25.3246C11.0935 25.241 10.9723 25.1823 10.8427 25.1528C10.5218 25.0809 10.1369 25.1927 9.81199 25.5789C9.44179 26.017 8.92777 26.7628 8.82922 27.4259C8.80934 27.5434 8.80531 27.663 8.81724 27.7815C8.82805 27.89 8.8597 27.9953 8.91045 28.0918C8.94954 28.1663 9.00863 28.2284 9.08108 28.2713C9.15352 28.3141 9.23647 28.3358 9.32061 28.3341C9.36224 28.3381 9.40415 28.3381 9.44578 28.3341C9.49343 28.3301 9.54065 28.3221 9.58694 28.3102C9.87605 28.2233 10.1385 28.0648 10.35 27.8494Z" fill="white"/>
<path d="M47.1475 31.526H47.1741C47.3678 31.5296 47.559 31.4823 47.7287 31.3888C47.8983 31.2954 48.0405 31.159 48.1409 30.9934C48.1972 30.9025 48.2419 30.805 48.2741 30.7031C48.3101 30.578 48.3324 30.4494 48.3407 30.3195V30.2902C48.5364 23.6119 46.4364 18.0815 42.8648 14.3249C41.4951 12.8728 39.8782 11.6756 38.0895 10.7893H38.0748C35.0579 9.31829 31.6972 8.69679 28.3537 8.99157C27.0536 9.0988 25.7672 9.33387 24.5131 9.69336C21.0761 10.6868 17.8841 12.6483 15.2767 15.2251C14.7747 15.7311 14.2913 16.2638 13.8318 16.7965C13.6037 17.0628 13.3817 17.3385 13.166 17.6234C14.9604 16.0997 16.9152 14.7758 18.9961 13.675C19.4568 13.4336 19.9202 13.2081 20.3863 12.9986C20.8524 12.789 21.3242 12.5928 21.8019 12.41C23.5306 11.7444 25.3372 11.3018 27.1778 11.0929C28.9696 10.9001 30.779 10.9449 32.5591 11.2261C33.8206 11.4135 35.0565 11.745 36.2425 12.2142C36.4635 12.303 36.6797 12.398 36.891 12.4992C37.1027 12.6004 37.3051 12.7029 37.5075 12.8148C41.5026 14.9455 44.2751 19.3133 45.4976 24.2485C45.9779 26.1873 46.2155 28.1783 46.2047 30.1757V30.2317C46.2246 30.7643 46.4124 31.2144 46.7373 31.4155C46.7968 31.4538 46.862 31.4826 46.9304 31.5007C47.0036 31.5213 47.0795 31.5307 47.1555 31.5287L47.1475 31.526Z" fill="white"/>
<path d="M40.0034 9.2644C49.867 12.4431 56.5427 21.4052 56.5853 31.5259H51.8339C52.1495 22.4612 48.0879 14.2781 39.998 9.2644H40.0034Z" fill="white"/>
<path d="M12.1335 38.8037H10.2119L9.7365 40.4349H8.20508L10.2319 34.1881H12.1748L14.2588 40.4349H12.6608L12.1335 38.8037ZM10.4316 37.7463H11.9044C11.52 36.5265 11.2692 35.6898 11.1521 35.2361H11.1334L10.8285 36.4213L10.429 37.7463H10.4316ZM19.1913 38.8037H17.2777L16.801 40.4349H15.2696L17.295 34.1881H19.2393L21.322 40.4349H19.7253L19.1913 38.8037ZM17.4881 37.7463H18.9636C18.5774 36.5265 18.3271 35.6898 18.2126 35.2361H18.1939L17.8903 36.4213L17.4908 37.7463H17.4881ZM22.7775 40.4096V34.272C23.4525 34.1777 24.1335 34.1332 24.815 34.1388C26.183 34.1388 27.164 34.4176 27.7579 34.9751C28.3519 35.5326 28.6462 36.2611 28.6408 37.1604C28.6408 38.2257 28.303 39.0487 27.6274 39.6293C26.9518 40.2099 25.9069 40.5002 24.4927 40.5002C23.9196 40.5037 23.3468 40.4726 22.7775 40.407V40.4096ZM24.253 35.2934V39.3616C24.4295 39.3857 24.6076 39.3951 24.7857 39.3896C25.5167 39.3896 26.0854 39.2018 26.4862 38.8263C26.887 38.4508 27.0868 37.9128 27.0868 37.2123C27.0868 36.5705 26.911 36.0804 26.5381 35.7475C26.1653 35.4146 25.6446 35.2441 24.9481 35.2441C24.7112 35.2403 24.4745 35.2586 24.241 35.2987L24.253 35.2934ZM30.2269 34.1908H31.7023V36.5997H34.2232V34.1881H35.6973V40.4349H34.2232V37.8369H31.7023V40.4403H30.2269V34.1908ZM41.044 38.8063H39.1171L38.6417 40.4376H37.1196L39.1437 34.1881H41.0866L43.1707 40.4349H41.582L41.0493 38.8037L41.044 38.8063ZM39.3408 37.749H40.8149C40.4287 36.5292 40.1784 35.6924 40.0639 35.2388H40.0492L39.7456 36.424L39.3461 37.749H39.3408ZM48.1018 38.8063H46.1749L45.6995 40.4376H44.1774L46.2029 34.1908H48.1471L50.2298 40.4376H48.6358L48.1031 38.8063H48.1018ZM46.3986 37.749H47.8741C47.487 36.5292 47.2367 35.6924 47.123 35.2388H47.1071L46.8034 36.424L46.4039 37.749H46.3986ZM51.6867 40.4376V34.272C52.3445 34.1724 53.0096 34.1279 53.6748 34.1388C54.6461 34.1388 55.3439 34.2946 55.7682 34.6062C55.9769 34.7591 56.1444 34.9614 56.2555 35.195C56.3666 35.4286 56.4179 35.6862 56.4048 35.9446C56.4073 36.2846 56.2946 36.6155 56.0852 36.8834C55.8738 37.1594 55.5843 37.3655 55.2542 37.4747V37.5106C55.6537 37.6571 55.9422 38.0402 56.1198 38.6598C56.4465 39.7784 56.624 40.3719 56.6524 40.4403H55.149C54.9462 39.9706 54.7949 39.4804 54.6976 38.9781C54.6527 38.6917 54.5307 38.4228 54.3447 38.2004C54.1389 38.0346 53.8767 37.9553 53.6136 37.9794H53.1555V40.4349L51.6867 40.4376ZM53.1422 35.2441V36.9646H53.7507C54.06 36.9821 54.3664 36.8964 54.6217 36.7209C54.7238 36.646 54.8062 36.5473 54.8616 36.4333C54.9171 36.3194 54.9439 36.1937 54.9399 36.0671C54.9467 35.9454 54.9242 35.8239 54.8744 35.7127C54.8246 35.6015 54.7489 35.5038 54.6536 35.4279C54.4136 35.2644 54.1258 35.1857 53.836 35.2042C53.6037 35.195 53.3711 35.2107 53.1422 35.2508V35.2441Z" fill="white"/>
</g>
<defs>
<clipPath id="clip0_4196_21396">
<rect width="63.5924" height="39.95" fill="white" transform="translate(0.642578 0.550049)"/>
</clipPath>
</defs>
</svg>
