<svg width="114" height="40" viewBox="0 0 114 40" fill="none" xmlns="http://www.w3.org/2000/svg">
<g clip-path="url(#clip0_8469_47611)">
<mask id="mask0_8469_47611" style="mask-type:luminance" maskUnits="userSpaceOnUse" x="10" y="0" width="40" height="40">
<path d="M49.5354 0.0253906H10.3789V39.9729H49.5354V0.0253906Z" fill="white"/>
</mask>
<g mask="url(#mask0_8469_47611)">
<path d="M44.9438 22.7953C44.2113 22.7953 43.533 23.0199 42.9642 23.3974C42.2022 19.0246 39.3169 15.3949 35.4106 13.621L34.8234 3.71253L32.2522 8.66946L28.9367 3.06641L27.4392 9.42613L23.798 6.94586L24.4388 13.7001C20.5967 15.51 17.7721 19.127 17.0377 23.4693C16.4504 23.0496 15.7373 22.7953 14.9618 22.7953C12.9797 22.7953 11.375 24.4119 11.375 26.4087C11.375 28.401 12.9788 30.0195 14.9618 30.0195C15.8578 30.0195 16.6673 29.6771 17.2947 29.1298C18.7958 34.7922 23.9104 38.9673 30.0059 38.9673C36.0782 38.9673 41.1732 34.8281 42.6984 29.2035C43.3135 29.7068 44.0879 30.0204 44.9438 30.0204C46.9277 30.0204 48.5315 28.4019 48.5315 26.4096C48.5315 24.4119 46.9277 22.7953 44.9438 22.7953Z" fill="#4A4E69"/>
<path d="M28.9402 3.06461L32.2557 8.66765L34.8268 3.71074L35.414 13.6192C39.3203 15.3931 42.2056 19.0218 42.9677 23.3956C43.5361 23.0181 44.2144 22.7935 44.9473 22.7935C46.9313 22.7935 48.5351 24.4101 48.5351 26.4069C48.5351 28.3992 46.9313 30.0177 44.9473 30.0177C44.0922 30.0177 43.3178 29.704 42.702 29.2008C41.1766 34.8263 36.0816 38.9664 30.0093 38.9664C23.9139 38.9664 18.7992 34.7913 17.2981 29.1289C16.6707 29.6762 15.8612 30.0186 14.9652 30.0186C12.9831 30.0186 11.3785 28.4001 11.3785 26.4078C11.3785 24.411 12.9822 22.7944 14.9652 22.7944C15.7399 22.7944 16.4529 23.0478 17.0411 23.4684C17.7756 19.1252 20.6011 15.509 24.4422 13.6992L23.8014 6.94497L27.4427 9.42523L28.9402 3.06461ZM35.6104 0.0253906L33.9406 3.24524L32.1985 6.60348L29.7996 2.54879L28.5368 0.414504L27.9674 2.83186L26.8036 7.7735L24.361 6.11011L22.6047 4.91401L22.8063 7.04112L23.382 13.107C19.9005 14.9663 17.3526 18.196 16.3378 22.0018C15.896 21.8607 15.4355 21.7879 14.9661 21.7879C12.436 21.787 10.3789 23.8602 10.3789 26.4078C10.3789 28.9537 12.436 31.0259 14.9652 31.0259C15.5739 31.0259 16.1745 30.8993 16.7323 30.6593C18.7689 36.2048 24.0531 39.9737 30.0093 39.9737C33.1802 39.9737 36.1762 38.9421 38.6742 36.9894C40.75 35.3664 42.352 33.1656 43.2711 30.6998C43.8015 30.9145 44.3663 31.0259 44.9473 31.0259C47.4775 31.0259 49.5354 28.9546 49.5354 26.4078C49.5354 23.8602 47.4775 21.7879 44.9473 21.7879C44.5142 21.7879 44.0871 21.8499 43.6765 21.9694C42.6312 18.0729 39.9852 14.7964 36.3779 12.9677L35.8264 3.65142L35.6104 0.0253906Z" fill="white"/>
<path d="M30.0434 37.3502C35.258 37.3502 38.1362 33.6828 38.1362 33.6828L35.1384 30.8781C35.1384 30.8781 40.2798 26.7821 39.8497 23.9774C39.4204 21.1754 36.212 20.5293 36.212 20.5293L29.9987 23.7626H30.022L23.8105 20.5293C23.8105 20.5293 20.6012 21.1754 20.1737 23.9774C19.7462 26.7821 24.8832 30.8781 24.8832 30.8781L21.8846 33.6828C21.8837 33.6828 24.835 37.3502 30.0434 37.3502Z" fill="white"/>
<path d="M26.9071 25.9221C26.9071 26.6374 26.3297 27.217 25.6211 27.217C24.9115 27.217 24.3359 26.6365 24.3359 25.9221C24.3359 25.2076 24.9115 24.6289 25.6211 24.6289C26.3297 24.628 26.9071 25.2076 26.9071 25.9221Z" fill="#4A4E69"/>
<path d="M36.7535 25.7071C36.7535 26.8394 35.8432 27.7542 34.7223 27.7542C33.5969 27.7542 32.6875 26.8394 32.6875 25.7071C32.6875 24.5748 33.5969 23.6582 34.7223 23.6582C35.8432 23.6591 36.7535 24.5748 36.7535 25.7071Z" fill="#4A4E69"/>
<path d="M16.8372 26.4076C16.8372 27.4491 15.9966 28.292 14.9631 28.292C13.9278 28.292 13.0898 27.4491 13.0898 26.4076C13.0898 25.3633 13.9278 24.5195 14.9631 24.5195C15.9966 24.5195 16.8372 25.3633 16.8372 26.4076Z" fill="white"/>
<path d="M46.8226 26.4076C46.8226 27.4491 45.9845 28.292 44.9466 28.292C43.9139 28.292 43.0742 27.4491 43.0742 26.4076C43.0742 25.3633 43.9139 24.5195 44.9466 24.5195C45.9845 24.5195 46.8226 25.3633 46.8226 26.4076Z" fill="white"/>
<path d="M29.686 31.4741C29.686 31.9792 29.2781 32.3881 28.7775 32.3881C28.2732 32.3881 27.8672 31.9792 27.8672 31.4741C27.8672 30.9673 28.2724 30.5566 28.7775 30.5566C29.2781 30.5566 29.686 30.9673 29.686 31.4741Z" fill="#4A4E69"/>
<path d="M32.1517 31.4741C32.1517 31.9792 31.7457 32.3881 31.2405 32.3881C30.7399 32.3881 30.332 31.9792 30.332 31.4741C30.332 30.9673 30.7399 30.5566 31.2405 30.5566C31.7457 30.5566 32.1517 30.9673 32.1517 31.4741Z" fill="#4A4E69"/>
</g>
<path d="M98.4807 20.691C101.566 20.691 104.097 23.2618 104.097 26.426C104.097 29.5902 101.605 32.161 98.4807 32.161C95.3956 32.161 92.9038 29.5902 92.9038 26.426C92.9038 23.2618 95.3956 20.691 98.4807 20.691ZM98.4807 19.3066C94.6441 19.3066 91.5195 22.4708 91.5195 26.426C91.5195 30.3416 94.6441 33.5454 98.4807 33.5454C102.317 33.5454 105.442 30.3416 105.442 26.426C105.442 22.4708 102.357 19.3066 98.4807 19.3066Z" fill="#4A4E69"/>
<path d="M101.605 28.2853V23.3809H100.26L99.4297 24.2115V24.8838H100.26V26.5055V28.2853H99.5483V29.6696H102.317V28.2853H101.605Z" fill="#4A4E69"/>
<path d="M96.7789 23.1836C95.4737 23.1836 94.4453 24.2515 94.4453 25.5963C94.4453 26.9015 95.5132 28.0089 96.7789 28.0089H96.8184L95.9483 29.7097H97.2931L98.6774 27.0201L98.7565 26.8224C98.9542 26.4664 99.0729 26.0709 99.0729 25.5963C99.1124 24.2515 98.0841 23.1836 96.7789 23.1836ZM96.7789 26.7433C96.146 26.7433 95.6319 26.2291 95.6319 25.5963C95.6319 24.9634 96.146 24.4493 96.7789 24.4493C97.4117 24.4493 97.9259 24.9634 97.9259 25.5963C97.9259 26.2291 97.4117 26.7433 96.7789 26.7433Z" fill="#4A4E69"/>
<path d="M63.5938 32.9516V19.8203H66.481V32.9516H63.5938Z" fill="#4A4E69"/>
<path d="M55.0143 19.8203C52.8389 19.8203 51.0986 21.6001 51.0986 23.8546C51.0986 24.8039 51.4151 25.7136 51.9688 26.3859C51.4151 27.0583 51.0195 27.968 51.0195 28.9173C51.0195 31.1322 52.7994 32.9516 54.9747 32.9516H61.0262V19.8203H55.0143ZM55.0143 22.7472H58.1389V24.9621H55.0143C54.4606 24.9621 53.9859 24.4479 53.9859 23.8546C53.9859 23.2613 54.421 22.7472 55.0143 22.7472ZM58.1389 29.9852H54.9747C54.3814 29.9852 53.9464 29.471 53.9464 28.8777C53.9464 28.2844 54.421 27.7703 54.9747 27.7703H58.1389V29.9852Z" fill="#4A4E69"/>
<path d="M87.9197 32.9516H90.8068L87.8406 19.8203H82.2242L79.2578 32.9516H82.1451L82.8966 29.5896H87.1682L87.9197 32.9516ZM83.569 26.7024L84.4391 22.7472H85.6257L86.4958 26.7024H83.569Z" fill="#4A4E69"/>
<path d="M78.9432 24.7248C78.9432 21.9957 76.8074 19.8203 74.1574 19.8203H71.9029H69.0156V32.9516H71.9029V29.5896H74.1574C74.1969 29.5896 74.1969 29.5896 74.2365 29.5896L74.988 32.9516H77.8753L76.926 28.7195C78.1521 27.8494 78.9432 26.3859 78.9432 24.7248ZM71.9029 22.7472H74.1574C74.6716 22.7472 75.1462 22.9449 75.5021 23.3404C75.8581 23.736 76.0559 24.2106 76.0559 24.7248C76.0559 25.3971 75.779 25.8322 75.5021 26.0695C75.1462 26.4255 74.6716 26.6232 74.1178 26.6232H71.8634V22.7472H71.9029Z" fill="#4A4E69"/>
</g>
<defs>
<clipPath id="clip0_8469_47611">
<rect width="112.652" height="39.9475" fill="white" transform="translate(0.816406 0.0253906)"/>
</clipPath>
</defs>
</svg>
