<svg width="114" height="40" viewBox="0 0 114 40" fill="none" xmlns="http://www.w3.org/2000/svg">
<g clip-path="url(#clip0_8469_47587)">
<path d="M0.289062 27.4928H12.5016L15.1267 21.5197H27.1109L24.4478 27.4928H36.8125L43.5845 12.541H31.1437L28.8991 17.601H16.9148L19.1975 12.541H7.09916L0.289062 27.4928Z" fill="#4A4E69"/>
<path fill-rule="evenodd" clip-rule="evenodd" d="M70.7106 17.6397H82.2764C82.2003 15.1287 79.7654 13.3787 74.9337 12.6938C65.3843 11.2862 55.036 11.8949 47.6933 15.9277C41.9104 19.1235 41.4539 23.9172 47.2367 26.276C52.1065 28.2543 62.3026 28.4446 69.6073 27.2271C74.3249 26.4282 77.9392 24.9064 79.9937 22.5856H68.1997C66.6778 23.765 64.6614 24.3357 62.3407 24.3737C55.7208 24.4118 54.8458 22.4334 55.9871 20.1127C57.3568 17.4114 60.2482 15.9277 64.6614 15.8135C68.0475 15.6994 69.7595 16.4603 70.7106 17.6397Z" fill="#4A4E69"/>
<path fill-rule="evenodd" clip-rule="evenodd" d="M100.765 12.541L95.5913 23.9165H112.978L111.38 27.4547H81.4766L88.2106 12.541H100.765Z" fill="#4A4E69"/>
</g>
<defs>
<clipPath id="clip0_8469_47587">
<rect width="112.652" height="39.9475" fill="white" transform="translate(0.515625 0.0253906)"/>
</clipPath>
</defs>
</svg>
