<svg width="52" height="40" viewBox="0 0 52 40" fill="none" xmlns="http://www.w3.org/2000/svg">
<path d="M10.8609 26.8121C15.8809 17.9306 20.9006 9.04898 25.9211 0.167969C24.9834 6.24875 24.0419 12.3287 23.1042 18.4095C23.0974 18.4732 23.0369 18.5088 23.0005 18.5555C16.5918 25.4894 10.1816 32.4219 3.77344 39.3564C6.13106 35.172 8.49961 30.9942 10.8609 26.8121Z" fill="#4A4E69"/>
<path d="M26.4219 0.164062C33.8132 13.2288 41.1973 26.2979 48.5878 39.3632C45.6428 36.1885 42.7051 33.0065 39.762 29.8295C36.265 26.0496 32.7673 22.2701 29.27 18.4905C29.2341 18.4421 29.2403 18.3764 29.2282 18.3204C28.2938 12.2682 27.3563 6.21626 26.4219 0.164062Z" fill="#4A4E69"/>
<path d="M15.6719 27.9899C15.8635 27.7801 16.0413 27.5568 16.2405 27.355C17.49 27.3488 18.7401 27.353 19.9899 27.3527C17.8278 31.3565 15.6545 35.354 13.4927 39.3578C10.8804 39.3578 8.26849 39.3589 5.65625 39.3575C8.99591 35.5691 12.3331 31.7788 15.6719 27.9899Z" fill="#4A4E69"/>
<path d="M21.2278 27.3519C23.4089 27.3525 25.5898 27.3505 27.7707 27.3525C27.9637 28.6842 28.1592 30.0154 28.3516 31.3472C27.6301 31.3477 26.9088 31.348 26.1873 31.3477C26.187 34.0178 26.1873 36.6878 26.187 39.3581C23.9019 39.3586 21.6168 39.3567 19.332 39.3592C19.6628 38.2089 20.0102 37.0634 20.3474 35.915C20.7967 34.4004 21.2426 32.885 21.6933 31.3709C20.9552 31.3715 20.2174 31.3709 19.4794 31.3715C20.0625 30.0318 20.6446 28.6916 21.2278 27.3519Z" fill="#4A4E69"/>
<path d="M29.9447 27.4149C30.1842 27.3149 30.4452 27.3616 30.6962 27.354C32.5073 27.3534 34.3185 27.3548 36.1299 27.3532C37.1976 28.5587 38.2592 29.7707 39.3264 30.9771C37.8492 30.9776 36.3716 30.9759 34.8944 30.9782C34.6019 30.985 34.3823 31.3377 34.5215 31.604C34.9697 32.4532 35.4266 33.2981 35.877 34.1464C36.0529 34.5401 36.4596 34.8096 36.887 34.8161C38.6329 34.8164 40.3788 34.8161 42.1244 34.8161C42.316 34.8192 42.5081 34.8098 42.6994 34.82C44.0299 36.3279 45.3528 37.8433 46.6794 39.3548C42.2667 39.3559 37.8542 39.3556 33.4415 39.3551C33.2462 39.35 33.049 39.3789 32.8558 39.3401C32.3846 39.2662 31.9608 38.9449 31.7578 38.5093C31.6578 38.3123 31.6289 38.0907 31.5715 37.8795C30.8105 34.7943 30.0455 31.7096 29.2864 28.6238C29.1713 28.1293 29.4699 27.5816 29.9447 27.4149Z" fill="#4A4E69"/>
</svg>
