<svg width="147" height="41" viewBox="0 0 147 41" fill="none" xmlns="http://www.w3.org/2000/svg">
<g clip-path="url(#clip0_4201_24761)">
<path d="M29.7273 16.051L11.5918 20.9191V16.3771L29.7273 11.509V16.051Z" fill="white"/>
<path d="M29.7273 24.676L11.5918 29.5441V25.0021L29.7273 20.134V24.676Z" fill="white"/>
<path d="M20.6509 40.4999C16.7037 40.4999 12.8451 39.3281 9.5631 37.1327C6.28109 34.9373 3.72309 31.8168 2.21255 28.166C0.702007 24.5152 0.306781 20.4979 1.07685 16.6222C1.84691 12.7465 3.74769 9.18646 6.5388 6.39224C9.32991 3.59801 12.886 1.69512 16.7574 0.924198C20.6288 0.153274 24.6416 0.54894 28.2883 2.06116C31.9351 3.57339 35.052 6.13424 37.245 9.4199C39.438 12.7056 40.6085 16.5685 40.6085 20.5201C40.6021 25.8171 38.4974 30.8953 34.756 34.6409C31.0146 38.3864 25.942 40.4935 20.6509 40.4999ZM20.6509 4.6353C17.5098 4.6353 14.4392 5.56794 11.8277 7.31525C9.2161 9.06255 7.18083 11.546 5.97933 14.4515C4.77783 17.357 4.46408 20.5539 5.07776 23.6379C5.69144 26.7219 7.20498 29.5545 9.42693 31.7772C11.6489 33.9999 14.4794 35.513 17.5604 36.125C20.6415 36.737 23.8346 36.4205 26.736 35.2155C29.6373 34.0104 32.1164 31.971 33.8598 29.3552C35.6032 26.7394 36.5325 23.6647 36.5301 20.5201C36.5237 16.307 34.8483 12.2686 31.8714 9.29064C28.8945 6.31271 24.8593 4.6385 20.6509 4.6353Z" fill="white"/>
<path d="M58.347 27.5502C56.6094 29.036 55.0167 29.0119 52.8206 29.0119H47.4512V12.1003H52.6638C54.6909 12.1003 56.6094 12.1003 58.0815 13.7432C58.756 14.513 59.1138 15.5101 59.083 16.5336C59.0854 17.2167 58.904 17.8879 58.558 18.4766C58.2119 19.0654 57.7139 19.55 57.1162 19.8797C57.9582 20.1221 58.6927 20.644 59.1992 21.3596C59.7057 22.0752 59.9541 22.942 59.9035 23.8176C59.9289 24.5154 59.8029 25.2105 59.5342 25.8548C59.2655 26.4992 58.8604 27.0776 58.347 27.5502ZM53.255 15.8813H51.5899V18.5146H53.2309C54.1721 18.5146 54.9443 18.2368 54.9443 17.1617C54.9443 16.0866 54.1479 15.8813 53.255 15.8813ZM53.798 22.1265H51.6261V25.2189H53.798C54.8719 25.2189 55.8251 24.8444 55.8251 23.5881C55.8251 22.3318 54.7633 22.1265 53.798 22.1265Z" fill="white"/>
<path d="M68.8794 29.0119V22.1023C68.8794 20.7373 68.4933 19.4569 66.8523 19.4569C65.2112 19.4569 64.7286 20.532 64.7286 21.9694V29.0119H60.9277V12.1003H64.7286V17.4637C65.0776 16.925 65.5661 16.4911 66.1419 16.2082C66.7177 15.9253 67.3593 15.8039 67.9985 15.8571C68.6395 15.8375 69.2774 15.952 69.8717 16.1933C70.4659 16.4346 71.0033 16.7973 71.4495 17.2584C72.6561 18.6475 72.6561 20.1575 72.6561 21.897V28.9877L68.8794 29.0119Z" fill="white"/>
<path d="M83.7548 29.0121V27.635C83.3502 28.2356 82.795 28.7192 82.1448 29.0373C81.4947 29.3553 80.7724 29.4966 80.0504 29.4469C76.1531 29.4469 73.6795 26.427 73.6795 22.6582C73.6321 21.7893 73.7614 20.9198 74.0597 20.1025C74.358 19.2851 74.8189 18.537 75.4147 17.9033C76.0104 17.2696 76.7285 16.7637 77.5253 16.4162C78.3222 16.0686 79.1813 15.8867 80.0504 15.8815C80.7686 15.8411 81.4852 15.9839 82.1331 16.2966C82.7811 16.6093 83.3391 17.0816 83.7548 17.6692V16.3163H87.5798V29.0121H83.7548ZM80.5572 19.4329C80.1333 19.4308 79.7134 19.515 79.3231 19.6805C78.9328 19.846 78.5802 20.0893 78.2867 20.3955C77.9932 20.7017 77.7651 21.0645 77.6161 21.4618C77.4671 21.8591 77.4004 22.2826 77.42 22.7065C77.3933 23.1393 77.4554 23.5731 77.6025 23.981C77.7496 24.389 77.9786 24.7624 78.2753 25.0784C78.5721 25.3944 78.9303 25.6462 79.3279 25.8183C79.7256 25.9904 80.1542 26.0792 80.5874 26.0792C81.0206 26.0792 81.4492 25.9904 81.8469 25.8183C82.2445 25.6462 82.6027 25.3944 82.8995 25.0784C83.1962 24.7624 83.4252 24.389 83.5723 23.981C83.7194 23.5731 83.7815 23.1393 83.7548 22.7065C83.7766 22.277 83.7094 21.8476 83.5574 21.4453C83.4054 21.0431 83.1718 20.6767 82.8715 20.3692C82.5711 20.0618 82.2105 19.8198 81.8122 19.6587C81.4139 19.4975 80.9866 19.4207 80.5572 19.4329Z" fill="white"/>
<path d="M92.9392 22.0427V29.0127H89.1504V16.3169H92.7703V17.6699C93.0533 17.0829 93.5093 16.5969 94.0766 16.2773C94.644 15.9576 95.2956 15.8197 95.9437 15.8821V19.6992C94.2665 19.7476 92.9392 20.0737 92.9392 22.0427Z" fill="white"/>
<path d="M106.235 29.0124V27.6353C105.833 28.2359 105.281 28.7197 104.632 29.0378C103.984 29.356 103.263 29.4972 102.543 29.4473C98.6335 29.4473 96.1599 26.4273 96.1599 22.6585C96.1125 21.7886 96.2422 20.9181 96.5412 20.1C96.8402 19.2819 97.3023 18.5331 97.8993 17.8993C98.4963 17.2655 99.2158 16.7598 100.014 16.4129C100.812 16.0661 101.673 15.8854 102.543 15.8818C103.259 15.8435 103.973 15.9873 104.619 16.2999C105.265 16.6126 105.821 17.0837 106.235 17.6696V16.3167H110.024V29.0124H106.235ZM103.038 19.4332C102.615 19.4328 102.196 19.5182 101.807 19.6844C101.418 19.8507 101.067 20.0942 100.775 20.4002C100.483 20.7063 100.256 21.0685 100.108 21.465C99.9593 21.8614 99.8929 22.2839 99.9125 22.7068C99.9125 23.1224 99.9943 23.534 100.153 23.918C100.312 24.3019 100.545 24.6508 100.838 24.9447C101.132 25.2386 101.481 25.4717 101.864 25.6308C102.248 25.7898 102.659 25.8717 103.074 25.8717C103.489 25.8717 103.9 25.7898 104.284 25.6308C104.667 25.4717 105.016 25.2386 105.309 24.9447C105.603 24.6508 105.836 24.3019 105.995 23.918C106.153 23.534 106.235 23.1224 106.235 22.7068C106.257 22.2773 106.19 21.8479 106.038 21.4457C105.886 21.0435 105.652 20.6771 105.352 20.3696C105.052 20.0621 104.691 19.8202 104.293 19.659C103.894 19.4979 103.467 19.421 103.038 19.4332Z" fill="white"/>
<path d="M116.88 19.2031V29.0118H113.091V19.2031H111.221V16.316H113.091V12.0881H116.88V16.316H118.714V19.2031H116.88Z" fill="white"/>
<path d="M131.453 22.2956C130.064 23.4131 128.291 23.9382 126.518 23.7572H124.648V29.0602H120.521V12.1487H126.048C127.785 12.1487 129.861 12.2212 131.248 13.3566C131.89 13.9105 132.401 14.5995 132.745 15.3742C133.089 16.149 133.258 16.9905 133.239 17.8382C133.256 18.6632 133.107 19.4832 132.8 20.2491C132.493 21.0149 132.035 21.711 131.453 22.2956ZM126.253 15.9296H124.648V19.8797H126.41C127.822 19.8797 129.101 19.5535 129.101 17.8382C129.101 16.1229 127.665 15.8813 126.253 15.8813V15.9296Z" fill="white"/>
<path d="M146.43 23.8176H136.922C137.029 24.5174 137.392 25.1524 137.941 25.5989C138.489 26.0455 139.184 26.2717 139.89 26.2336C140.345 26.2404 140.793 26.1334 141.196 25.9225C141.598 25.7115 141.942 25.4032 142.195 25.0256H146.08C145.601 26.2898 144.756 27.3821 143.653 28.1632C142.551 28.9442 141.241 29.3785 139.89 29.4105C138.539 29.4391 137.209 29.0617 136.074 28.3271C134.938 27.5925 134.048 26.5343 133.519 25.2888C132.99 24.0434 132.845 22.6678 133.103 21.3392C133.362 20.0107 134.012 18.7901 134.97 17.8348C135.928 16.8794 137.149 16.2331 138.477 15.9791C139.805 15.725 141.179 15.8749 142.421 16.4095C143.663 16.944 144.717 17.8387 145.446 18.9782C146.176 20.1177 146.548 21.4498 146.515 22.803C146.517 23.143 146.489 23.4827 146.43 23.8176ZM139.842 19.0824C139.185 19.0512 138.538 19.2517 138.013 19.649C137.488 20.0463 137.119 20.6152 136.97 21.2568H142.726C142.575 20.6142 142.203 20.045 141.677 19.6479C141.15 19.2507 140.501 19.0507 139.842 19.0824Z" fill="white"/>
</g>
<defs>
<clipPath id="clip0_4201_24761">
<rect width="145.808" height="39.9475" fill="white" transform="translate(0.705078 0.55249)"/>
</clipPath>
</defs>
</svg>
