<svg width="114" height="41" viewBox="0 0 114 41" fill="none" xmlns="http://www.w3.org/2000/svg">
<g clip-path="url(#clip0_4196_21334)">
<mask id="mask0_4196_21334" style="mask-type:luminance" maskUnits="userSpaceOnUse" x="10" y="0" width="40" height="41">
<path d="M49.5373 0.55249H10.3809V40.5H49.5373V0.55249Z" fill="white"/>
</mask>
<g mask="url(#mask0_4196_21334)">
<path d="M44.9457 23.3219C44.2132 23.3219 43.5349 23.5466 42.9662 23.924C42.2042 19.5512 39.3188 15.9215 35.4126 14.1476L34.8253 4.23914L32.2541 9.19607L28.9387 3.59302L27.4411 9.95274L23.7999 7.47247L24.4407 14.2267C20.5987 16.0366 17.7741 19.6536 17.0396 23.9959C16.4523 23.5762 15.7393 23.3219 14.9638 23.3219C12.9816 23.3219 11.377 24.9385 11.377 26.9353C11.377 28.9276 12.9807 30.5461 14.9638 30.5461C15.8598 30.5461 16.6692 30.2037 17.2966 29.6564C18.7977 35.3188 23.9124 39.4939 30.0079 39.4939C36.0801 39.4939 41.1751 35.3548 42.7004 29.7301C43.3154 30.2334 44.0898 30.547 44.9457 30.547C46.9297 30.547 48.5335 28.9285 48.5335 26.9362C48.5335 24.9385 46.9297 23.3219 44.9457 23.3219Z" fill="white"/>
<path d="M28.9421 3.59171L32.2576 9.19475L34.8288 4.23784L35.416 14.1463C39.3223 15.9202 42.2076 19.5489 42.9697 23.9227C43.5381 23.5452 44.2164 23.3206 44.9493 23.3206C46.9332 23.3206 48.537 24.9372 48.537 26.934C48.537 28.9263 46.9332 30.5448 44.9493 30.5448C44.0942 30.5448 43.3197 30.2311 42.7039 29.7279C41.1786 35.3534 36.0835 39.4935 30.0113 39.4935C23.9158 39.4935 18.8012 35.3184 17.3 29.656C16.6727 30.2033 15.8632 30.5457 14.9672 30.5457C12.985 30.5457 11.3804 28.9272 11.3804 26.9349C11.3804 24.9381 12.9841 23.3215 14.9672 23.3215C15.7419 23.3215 16.4549 23.5749 17.043 23.9955C17.7775 19.6523 20.603 16.0361 24.4442 14.2263L23.8034 7.47207L27.4446 9.95233L28.9421 3.59171ZM35.6123 0.55249L33.9426 3.77234L32.2005 7.13058L29.8015 3.07589L28.5387 0.941604L27.9693 3.35896L26.8056 8.3006L24.363 6.63721L22.6066 5.44111L22.8083 7.56822L23.3839 13.6341C19.9024 15.4934 17.3545 18.7231 16.3398 22.5289C15.898 22.3878 15.4375 22.315 14.9681 22.315C12.438 22.3141 10.3809 24.3873 10.3809 26.9349C10.3809 29.4808 12.438 31.553 14.9672 31.553C15.5759 31.553 16.1764 31.4264 16.7342 31.1864C18.7708 36.7319 24.055 40.5008 30.0113 40.5008C33.1822 40.5008 36.1782 39.4692 38.6761 37.5165C40.752 35.8935 42.354 33.6927 43.2731 31.2269C43.8035 31.4416 44.3683 31.553 44.9493 31.553C47.4794 31.553 49.5373 29.4817 49.5373 26.9349C49.5373 24.3873 47.4794 22.315 44.9493 22.315C44.5162 22.315 44.089 22.377 43.6785 22.4965C42.6331 18.6 39.9872 15.3235 36.3798 13.4948L35.8283 4.17852L35.6123 0.55249Z" fill="#2F945A"/>
<path d="M30.0453 37.8777C35.26 37.8777 38.1381 34.2104 38.1381 34.2104L35.1403 31.4057C35.1403 31.4057 40.2818 27.3097 39.8516 24.505C39.4224 21.703 36.214 21.0569 36.214 21.0569L30.0007 24.2902H30.0239L23.8124 21.0569C23.8124 21.0569 20.6031 21.703 20.1757 24.505C19.7482 27.3097 24.8852 31.4057 24.8852 31.4057L21.8865 34.2104C21.8856 34.2104 24.837 37.8777 30.0453 37.8777Z" fill="#2F945A"/>
<path d="M26.909 26.4482C26.909 27.1635 26.3316 27.7431 25.623 27.7431C24.9135 27.7431 24.3379 27.1626 24.3379 26.4482C24.3379 25.7338 24.9135 25.155 25.623 25.155C26.3316 25.1541 26.909 25.7338 26.909 26.4482Z" fill="white"/>
<path d="M36.7555 26.2337C36.7555 27.366 35.8452 28.2809 34.7243 28.2809C33.5989 28.2809 32.6895 27.366 32.6895 26.2337C32.6895 25.1014 33.5989 24.1848 34.7243 24.1848C35.8452 24.1857 36.7555 25.1014 36.7555 26.2337Z" fill="white"/>
<path d="M16.8392 26.9354C16.8392 27.9769 15.9985 28.8199 14.9651 28.8199C13.9298 28.8199 13.0918 27.9769 13.0918 26.9354C13.0918 25.8912 13.9298 25.0474 14.9651 25.0474C15.9985 25.0474 16.8392 25.8912 16.8392 26.9354Z" fill="#2F945A"/>
<path d="M46.8245 26.9354C46.8245 27.9769 45.9864 28.8199 44.9486 28.8199C43.9159 28.8199 43.0762 27.9769 43.0762 26.9354C43.0762 25.8912 43.9159 25.0474 44.9486 25.0474C45.9864 25.0474 46.8245 25.8912 46.8245 26.9354Z" fill="#2F945A"/>
<path d="M29.6879 32.0017C29.6879 32.5068 29.2801 32.9156 28.7794 32.9156C28.2752 32.9156 27.8691 32.5068 27.8691 32.0017C27.8691 31.4949 28.2743 31.0842 28.7794 31.0842C29.2801 31.0842 29.6879 31.4949 29.6879 32.0017Z" fill="white"/>
<path d="M32.1537 32.0017C32.1537 32.5068 31.7477 32.9156 31.2425 32.9156C30.7418 32.9156 30.334 32.5068 30.334 32.0017C30.334 31.4949 30.7418 31.0842 31.2425 31.0842C31.7477 31.0842 32.1537 31.4949 32.1537 32.0017Z" fill="white"/>
</g>
<path d="M98.4826 21.2183C101.568 21.2183 104.099 23.7892 104.099 26.9533C104.099 30.1175 101.607 32.6884 98.4826 32.6884C95.3976 32.6884 92.9058 30.1175 92.9058 26.9533C92.9058 23.7892 95.3976 21.2183 98.4826 21.2183ZM98.4826 19.834C94.6461 19.834 91.5215 22.9981 91.5215 26.9533C91.5215 30.869 94.6461 34.0727 98.4826 34.0727C102.319 34.0727 105.444 30.869 105.444 26.9533C105.444 22.9981 102.359 19.834 98.4826 19.834Z" fill="white"/>
<path d="M101.607 28.8122V23.9077H100.262L99.4316 24.7383V25.4107H100.262V27.0323V28.8122H99.5503V30.1965H102.319V28.8122H101.607Z" fill="white"/>
<path d="M96.7808 23.7109C95.4756 23.7109 94.4473 24.7788 94.4473 26.1236C94.4473 27.4288 95.5152 28.5363 96.7808 28.5363H96.8204L95.9502 30.237H97.295L98.6793 27.5475L98.7584 27.3497C98.9562 26.9937 99.0748 26.5982 99.0748 26.1236C99.1144 24.7788 98.086 23.7109 96.7808 23.7109ZM96.7808 27.2706C96.148 27.2706 95.6338 26.7564 95.6338 26.1236C95.6338 25.4908 96.148 24.9766 96.7808 24.9766C97.4137 24.9766 97.9278 25.4908 97.9278 26.1236C97.9278 26.7564 97.4137 27.2706 96.7808 27.2706Z" fill="white"/>
<path d="M63.5957 33.4794V20.3481H66.483V33.4794H63.5957Z" fill="white"/>
<path d="M55.0162 20.3481C52.8409 20.3481 51.1006 22.128 51.1006 24.3824C51.1006 25.3317 51.417 26.2414 51.9707 26.9138C51.417 27.5862 51.0215 28.4958 51.0215 29.4451C51.0215 31.66 52.8013 33.4794 54.9767 33.4794H61.0281V20.3481H55.0162ZM55.0162 23.275H58.1408V25.4899H55.0162C54.4625 25.4899 53.9879 24.9757 53.9879 24.3824C53.9879 23.7892 54.423 23.275 55.0162 23.275ZM58.1408 30.513H54.9767C54.3834 30.513 53.9483 29.9988 53.9483 29.4055C53.9483 28.8123 54.423 28.2981 54.9767 28.2981H58.1408V30.513Z" fill="white"/>
<path d="M87.9216 33.4794H90.8088L87.8425 20.3481H82.2262L79.2598 33.4794H82.1471L82.8985 30.1175H87.1702L87.9216 33.4794ZM83.5709 27.2302L84.4411 23.275H85.6276L86.4978 27.2302H83.5709Z" fill="white"/>
<path d="M78.9451 25.2526C78.9451 22.5235 76.8093 20.3481 74.1593 20.3481H71.9049H69.0176V33.4794H71.9049V30.1175H74.1593C74.1989 30.1175 74.1989 30.1175 74.2384 30.1175L74.9899 33.4794H77.8772L76.928 29.2473C78.1541 28.3772 78.9451 26.9138 78.9451 25.2526ZM71.9049 23.275H74.1593C74.6735 23.275 75.1481 23.4727 75.5041 23.8683C75.8601 24.2638 76.0578 24.7384 76.0578 25.2526C76.0578 25.925 75.781 26.36 75.5041 26.5974C75.1481 26.9533 74.6735 27.1511 74.1198 27.1511H71.8653V23.275H71.9049Z" fill="white"/>
</g>
<defs>
<clipPath id="clip0_4196_21334">
<rect width="112.652" height="39.9475" fill="white" transform="translate(0.818359 0.55249)"/>
</clipPath>
</defs>
</svg>
