<svg width="113" height="41" viewBox="0 0 113 41" fill="none" xmlns="http://www.w3.org/2000/svg">
<path d="M39.6582 8.55444H45.1552V12.8443H39.6582V8.55444Z" fill="white"/>
<path d="M24.1552 14.0778C25.6331 14.0778 26.9527 14.4474 28.1139 15.1862C29.2856 15.9145 30.2041 16.9489 30.8691 18.2892C31.513 19.5769 31.835 21.0917 31.835 22.8332C31.835 24.5219 31.513 26.0313 30.8691 27.3613C30.2252 28.691 29.3173 29.7308 28.1455 30.4802C26.9632 31.2402 25.6331 31.62 24.1552 31.62C23.0785 31.62 22.0651 31.3984 21.115 30.9552C20.1649 30.5116 19.3521 29.8891 18.6765 29.0868V31.2176H13.166V8.55249H18.6765V16.5953C19.3521 15.7931 20.1649 15.1757 21.115 14.743C22.0651 14.2994 23.0785 14.0778 24.1552 14.0778ZM22.5084 27.0446C23.2896 27.0446 23.9863 26.8652 24.5986 26.5062C25.2109 26.1472 25.6912 25.646 26.0395 25.0023C26.3879 24.3689 26.5621 23.6457 26.5621 22.8332C26.5621 22.0416 26.3879 21.3239 26.0395 20.6799C25.6912 20.0361 25.2109 19.5346 24.5986 19.1759C23.9863 18.8169 23.2896 18.6376 22.5084 18.6376C21.7695 18.6376 21.1097 18.8169 20.5291 19.1759C19.9485 19.5244 19.4946 20.015 19.1673 20.6482C18.8401 21.2922 18.6765 22.0204 18.6765 22.8332C18.6765 23.6457 18.8401 24.3743 19.1673 25.018C19.4946 25.6512 19.9485 26.1472 20.5291 26.5062C21.1097 26.8652 21.7695 27.0446 22.5084 27.0446Z" fill="white"/>
<path d="M32.5879 31.2176V8.55249H38.0983V31.2176H32.5879Z" fill="white"/>
<path d="M39.6621 31.2175V14.4534H45.141V31.2175H39.6621Z" fill="white"/>
<path d="M57.042 14.0779C58.2138 14.0779 59.2697 14.3523 60.209 14.9012C61.1486 15.4396 61.8874 16.1996 62.4257 17.1811C62.9433 18.1733 63.2017 19.2974 63.2017 20.5534V31.2176H57.9448V21.7883C57.9448 21.176 57.8234 20.6325 57.5804 20.1576C57.3482 19.6721 57.0157 19.2974 56.5828 19.0335C56.1607 18.7696 55.6646 18.6376 55.0946 18.6376C54.5562 18.6376 54.0598 18.7696 53.606 19.0335C53.1519 19.2868 52.7984 19.6352 52.545 20.0785C52.2812 20.5006 52.1492 20.9966 52.1492 21.5667L52.1175 31.2176H46.6387V14.458H52.1175V16.3738C52.6347 15.6561 53.3261 15.0966 54.1918 14.6953C55.0574 14.2838 56.0076 14.0779 57.042 14.0779Z" fill="white"/>
<path d="M75.3094 21.7882L81.5259 31.2176H75.3031L71.6675 25.287L69.9891 27.2345V31.2176H64.4785V8.55249H69.9891V21.0757L75.2867 14.4492L81.5053 14.4534L75.3094 21.7882Z" fill="white"/>
<path d="M82.3652 31.2187V14.4534H87.8622V31.2187H82.3652Z" fill="white"/>
<path d="M99.4736 26.4402L100.566 29.9707C100.07 30.446 99.4419 30.8309 98.6816 31.1265C97.9322 31.4221 97.1985 31.5701 96.4808 31.5701C95.4461 31.5701 94.5225 31.343 93.7097 30.8892C92.8969 30.4248 92.2635 29.7808 91.8094 28.9574C91.3556 28.1555 91.1285 27.2319 91.1285 26.1869V18.7899H88.9277V14.4536H91.1285V8.55444H96.3857V14.4536H99.8534V18.7899H96.3857V25.1736C96.3857 25.712 96.5283 26.1501 96.8133 26.4876C97.0983 26.8255 97.4624 26.9943 97.906 26.9943C98.2224 26.9943 98.518 26.9469 98.7924 26.8518C99.0669 26.757 99.2939 26.6196 99.4736 26.4402Z" fill="white"/>
<path d="M82.3652 8.55444H87.8622V12.8443H82.3652V8.55444Z" fill="white"/>
</svg>
