<svg width="114" height="41" viewBox="0 0 114 41" fill="none" xmlns="http://www.w3.org/2000/svg">
<g clip-path="url(#clip0_4196_21310)">
<path d="M0.287109 28.0209H12.4996L15.1247 22.0478H27.109L24.4458 28.0209H36.8105L43.5826 13.0691H31.1418L28.8971 18.1291H16.9129L19.1956 13.0691H7.0972L0.287109 28.0209Z" fill="white"/>
<path fill-rule="evenodd" clip-rule="evenodd" d="M70.7087 18.1673H82.2744C82.1983 15.6563 79.7634 13.9062 74.9317 13.2214C65.3823 11.8138 55.034 12.4225 47.6913 16.4553C41.9084 19.6511 41.4519 24.4448 47.2348 26.8036C52.1046 28.7819 62.3007 28.9722 69.6054 27.7547C74.323 26.9558 77.9373 25.4339 79.9917 23.1132H68.1977C66.6759 24.2926 64.6595 24.8633 62.3387 24.9013C55.7189 24.9394 54.8438 22.961 55.9852 20.6402C57.3548 17.939 60.2462 16.4553 64.6595 16.3411C68.0455 16.227 69.7576 16.9879 70.7087 18.1673Z" fill="white"/>
<path fill-rule="evenodd" clip-rule="evenodd" d="M100.764 13.0691L95.5894 24.4446H112.976L111.378 27.9828H81.4746L88.2086 13.0691H100.764Z" fill="white"/>
</g>
<defs>
<clipPath id="clip0_4196_21310">
<rect width="112.652" height="39.9475" fill="white" transform="translate(0.513672 0.55249)"/>
</clipPath>
</defs>
</svg>
