<svg width="44" height="40" viewBox="0 0 44 40" fill="none" xmlns="http://www.w3.org/2000/svg">
<path d="M21.9409 0H23.0609C24.7013 0.204909 26.2582 0.946819 27.457 2.08442C29.5261 4.00161 30.4234 6.8138 30.8804 9.52118C30.8957 9.70961 30.9051 9.89921 30.9239 10.0888C29.3506 10.0688 27.7761 10.1124 26.2028 10.0664C26.1793 10.0653 26.131 10.0605 26.1074 10.0582C25.7906 8.72039 25.276 7.40144 24.4599 6.28622C23.2893 4.67168 21.3097 3.74135 19.336 3.69307C17.9311 3.66598 16.5815 4.2548 15.4993 5.12154C14.1497 6.18141 13.0663 7.53569 12.0547 8.90999C13.0086 6.86797 14.2628 4.95078 15.8031 3.30091C17.4176 1.57803 19.5527 0.241415 21.9409 0Z" fill="white"/>
<path d="M15.554 15.5199C17.2839 15.5152 19.015 15.507 20.7438 15.5235C21.6989 15.9392 22.6009 16.5574 23.2416 17.3889C23.9175 18.2568 24.0612 19.4733 23.6702 20.4931C23.4418 21.0101 22.9601 21.3598 22.4891 21.6425C21.6023 22.1465 20.6213 22.4468 19.6545 22.7553C19.6309 22.9473 19.6086 23.1381 19.585 23.33C21.163 24.9234 22.8176 26.4378 24.4015 28.0253C24.126 28.0783 23.8457 28.0594 23.5678 28.0571C20.8945 28.0547 18.2213 28.0618 15.5481 28.0535C15.5363 23.8753 15.5339 19.6958 15.554 15.5199Z" fill="white"/>
<path d="M23.1364 15.5375C24.8134 15.4857 26.4915 15.5316 28.1696 15.5151C28.1991 19.6945 28.1767 23.8751 28.1802 28.0558C27.5455 28.0428 26.906 28.0911 26.2725 28.0346C24.7274 26.506 23.2189 24.9362 21.6797 23.4006C22.6983 23.0814 23.7617 22.6963 24.4754 21.8579C25.8497 20.3564 25.6731 17.8127 24.2352 16.4172C23.9196 16.0639 23.505 15.8284 23.1364 15.5375Z" fill="white"/>
<path d="M7.01668 19.4356L7.04848 19.4097C7.84103 20.8534 8.65477 22.2866 9.42141 23.7457C9.41435 23.7469 9.39904 23.7516 9.3908 23.754C9.18589 23.7846 9.04928 23.9483 8.91032 24.0837C8.053 24.9952 7.2369 25.9821 6.7576 27.1503C6.21707 28.4256 6.14876 29.8741 6.49734 31.2096C6.82002 32.6486 7.72326 33.9452 8.97745 34.726C10.7992 35.886 12.9826 36.2004 15.0705 36.5502C12.1783 36.6773 9.19413 36.4406 6.50205 35.2995C4.58015 34.4869 2.83607 33.0526 2.01879 31.093C1.25215 29.3748 1.31575 27.3764 1.934 25.6229C2.84432 23.038 4.87692 21.0525 7.01668 19.4356Z" fill="white"/>
<path d="M37.3679 19.7927C39.1579 22.4035 40.7277 25.3276 40.9985 28.5355V30.1229C40.9008 31.7128 40.2578 33.2661 39.1909 34.4519C37.9755 35.7638 36.2786 36.587 34.5204 36.859C32.0461 37.2276 29.5601 36.6282 27.2461 35.7803C27.2673 35.7332 27.3109 35.6378 27.3321 35.5907C28.021 34.2211 28.7864 32.8904 29.5154 31.5432L29.5696 31.5173C30.9851 31.9059 32.4925 32.0849 33.9492 31.8329C35.738 31.5078 37.3149 30.3467 38.2747 28.8181C38.8811 27.8501 39.1414 26.6866 39.0778 25.5502C39.0024 23.5152 38.111 21.6475 37.3679 19.7927Z" fill="white"/>
<path d="M30.8806 9.52124C30.9195 9.68846 30.9631 9.85333 31.0067 10.0194C32.2514 10.1112 33.4974 9.96756 34.7421 10.0076C34.7798 13.2803 34.5301 16.5611 33.8907 19.7726C33.0887 23.866 31.6237 27.8299 29.5664 31.4582C29.9103 30.2029 30.3731 28.9817 30.6816 27.7157C31.6932 23.793 32.1266 19.7019 31.7827 15.6603C31.6602 13.7819 31.3293 11.9248 30.9242 10.0889C30.9054 9.89926 30.896 9.70966 30.8806 9.52124Z" fill="white"/>
<path d="M18.1218 10.9155C20.7444 10.3655 23.4235 10.0064 26.1062 10.0582C26.1297 10.0605 26.178 10.0652 26.2016 10.0664C24.2809 10.4704 22.3554 10.8849 20.4959 11.5243C17.9793 12.344 15.5475 13.4345 13.277 14.7946C11.0195 16.0712 9.00692 17.7211 7.04969 19.4098L7.01789 19.4357C6.41259 18.3181 5.67656 17.2736 5.11719 16.1336C9.16237 13.7654 13.5396 11.9342 18.1218 10.9155Z" fill="white"/>
<path d="M9.39062 23.7543C9.39888 23.752 9.41421 23.7473 9.42128 23.7461L9.44251 23.785L9.39062 23.7543Z" fill="white"/>
<path d="M9.51562 23.8604C10.7557 25.1181 11.8815 26.4959 13.2264 27.6512C17.0984 31.2229 21.7642 33.8997 26.7574 35.5578C26.9435 35.6214 27.1437 35.665 27.3344 35.5908C27.3132 35.6379 27.2697 35.7333 27.2485 35.7804C26.675 36.8249 26.0685 37.8542 25.4797 38.8905C25.4008 39.0872 25.1982 38.9388 25.0781 38.8799C19.4666 35.6273 14.404 31.2912 10.7604 25.8918C10.3353 25.2205 9.85596 24.5799 9.51562 23.8604Z" fill="white"/>
<path d="M29.5156 31.5434C29.5286 31.5222 29.5545 31.4797 29.5675 31.4585L29.5699 31.5175L29.5156 31.5434Z" fill="white"/>
</svg>
