<svg width="51" height="41" viewBox="0 0 51 41" fill="none" xmlns="http://www.w3.org/2000/svg">
<g clip-path="url(#clip0_4196_21327)">
<path d="M10.2769 27.3104C15.2969 18.4288 20.3166 9.54727 25.3372 0.66626C24.3994 6.74704 23.458 12.827 22.5202 18.9078C22.5134 18.9715 22.4529 19.0071 22.4165 19.0538C16.0078 25.9877 9.59764 32.9202 3.18945 39.8547C5.54708 35.6703 7.91562 31.4925 10.2769 27.3104Z" fill="white"/>
<path d="M25.8379 0.66333C33.2292 13.7281 40.6133 26.7971 48.0038 39.8625C45.0588 36.6878 42.1211 33.5057 39.1781 30.3288C35.681 26.5489 32.1833 22.7693 28.686 18.9898C28.6501 18.9414 28.6563 18.8757 28.6442 18.8196C27.7098 12.7674 26.7723 6.71553 25.8379 0.66333Z" fill="white"/>
<path d="M15.0879 28.4901C15.2795 28.2804 15.4573 28.057 15.6565 27.8552C16.906 27.849 18.1561 27.8532 19.406 27.853C17.2438 31.8567 15.0705 35.8542 12.9087 39.858C10.2965 39.858 7.6845 39.8591 5.07227 39.8577C8.41193 36.0694 11.7491 32.279 15.0879 28.4901Z" fill="white"/>
<path d="M20.6438 27.8521C22.8249 27.8527 25.0058 27.8507 27.1867 27.8527C27.3797 29.1845 27.5752 30.5157 27.7676 31.8474C27.0461 31.848 26.3248 31.8483 25.6033 31.848C25.603 34.518 25.6033 37.188 25.603 39.8583C23.3179 39.8589 21.0328 39.8569 18.748 39.8594C19.0788 38.7091 19.4262 37.5636 19.7634 36.4153C20.2127 34.9007 20.6586 33.3852 21.1093 31.8712C20.3712 31.8718 19.6335 31.8712 18.8954 31.8718C19.4786 30.5321 20.0606 29.1918 20.6438 27.8521Z" fill="white"/>
<path d="M29.3607 27.9134C29.6002 27.8135 29.8612 27.8602 30.1122 27.8525C31.9233 27.852 33.7345 27.8534 35.5459 27.8517C36.6137 29.0572 37.6752 30.2692 38.7424 31.4756C37.2652 31.4762 35.7876 31.4745 34.3104 31.4767C34.0179 31.4835 33.7983 31.8362 33.9376 32.1025C34.3857 32.9517 34.8426 33.7966 35.293 34.6449C35.4689 35.0386 35.8756 35.3081 36.303 35.3146C38.0489 35.3149 39.7948 35.3146 41.5404 35.3146C41.732 35.3177 41.9241 35.3084 42.1154 35.3186C43.4459 36.8264 44.7688 38.3418 46.0954 39.8533C41.6827 39.8545 37.2702 39.8542 32.8575 39.8536C32.6623 39.8485 32.4651 39.8774 32.2718 39.8386C31.8007 39.7647 31.3769 39.4435 31.1738 39.0079C31.0738 38.8109 31.0449 38.5892 30.9875 38.3781C30.2265 35.2928 29.4615 32.2081 28.7024 29.1223C28.5873 28.6278 28.8859 28.0801 29.3607 27.9134Z" fill="white"/>
</g>
<defs>
<clipPath id="clip0_4196_21327">
<rect width="50" height="40" fill="white" transform="translate(0.818359 0.5)"/>
</clipPath>
</defs>
</svg>
