<svg width="97" height="41" viewBox="0 0 97 41" fill="none" xmlns="http://www.w3.org/2000/svg">
<mask id="mask0_4196_21357" style="mask-type:luminance" maskUnits="userSpaceOnUse" x="10" y="5" width="77" height="32">
<path d="M86.046 5H10.7637V36.3676H86.046V5Z" fill="white"/>
</mask>
<g mask="url(#mask0_4196_21357)">
<path d="M29.7087 8.63639C30.035 7.22441 29.2526 5.83821 27.9616 5.54024C26.6705 5.24227 25.3593 6.14536 25.033 7.55735C24.7068 8.96935 25.489 10.3555 26.7802 10.6535C28.0713 10.9515 29.3825 10.0484 29.7087 8.63639Z" fill="white"/>
<path d="M47.9156 8.63539C48.2417 7.22339 47.4594 5.83729 46.1683 5.53946C44.8771 5.24162 43.5661 6.14482 43.24 7.55681C42.9139 8.96881 43.6962 10.3549 44.9873 10.6527C46.2786 10.9506 47.5896 10.0474 47.9156 8.63539Z" fill="white"/>
<path d="M22.5907 25.3799C25.4473 29.4897 29.0075 31.6721 34.5462 31.6721C40.6899 31.6721 45.1505 28.8921 47.7449 25.2676C49.393 26.1485 49.9402 27.1401 49.9402 28.2204C49.9402 31.3309 44.1541 36.3678 35.3797 36.3678C27.8061 36.3678 22.5767 32.053 21.0919 28.0734C20.5564 26.6388 21.3663 25.4018 22.5907 25.3799Z" fill="white"/>
<path d="M86.046 24.1231C86.046 26.7067 83.7178 29.0064 80.9313 29.0064C77.8571 29.0064 76.1515 27.1482 76.1515 25.288C76.1515 23.4277 77.5227 22.1297 79.2047 22.7599C78.8156 23.0433 78.691 23.3995 78.691 23.7705C78.691 24.2952 79.0932 24.9508 79.941 24.9508C80.6446 24.9508 81.3068 24.3463 81.3068 23.2925C81.3068 21.7182 79.4363 20.1442 78.2516 18.1157C78.0497 19.2076 77.6139 20.2163 76.9302 21.1684C75.3943 23.3072 73.1794 25.0166 70.9026 25.0166C69.7958 25.0166 68.5445 24.1705 68.5445 22.6463C68.5445 22.4763 68.554 22.301 68.5704 22.1222C67.1763 23.8057 65.4083 25.0168 63.6838 25.0168C62.4101 25.0168 61.2585 24.1887 61.2585 22.6463C61.2585 20.7572 63.0326 17.115 63.0326 14.5557C63.0326 14.0573 62.8907 13.4897 62.569 13.1227C63.0883 12.4544 63.6686 11.8714 64.865 11.8714C66.0248 11.8714 67.1148 12.6795 67.1148 13.9977C67.1148 15.8766 65.8838 18.6406 65.8838 20.237C65.8838 20.7235 66.2006 21.0091 66.6562 21.0091C68.3551 21.0091 70.2853 16.9748 70.2853 14.5555C70.2853 14.0403 70.1214 13.4428 69.8327 12.9992C70.3519 12.3309 71.0681 11.8599 72.1288 11.8599C73.1526 11.8599 74.2665 12.6633 74.2665 13.8855C74.2665 15.8894 73.1252 18.9929 73.1252 20.235C73.1252 20.6644 73.3794 21.0091 73.9264 21.0091C75.393 21.0091 77.3005 17.7157 77.3005 14.9585C77.3005 14.9585 77.3014 14.9268 77.3022 14.9118C77.3267 12.6755 79.0822 11.3574 80.7864 11.3574C81.805 11.3574 82.4672 11.7983 82.7273 12.2808C81.7392 12.2808 81.2497 13.2344 81.2497 14.3061C81.2487 17.79 86.046 19.6917 86.046 24.1231ZM26.1448 11.8604C25.0841 11.8604 24.3254 12.3387 23.769 13.1264C24.1101 13.5568 24.3017 14.1194 24.3017 15.0041C24.3017 16.7387 22.5609 21.2088 22.5609 22.6608C22.5609 24.1131 23.8121 25.0168 24.919 25.0168C25.8728 25.0168 27.0585 24.4274 27.7431 23.3759C27.2706 22.8716 26.9843 22.0152 26.9843 21.0797C26.9843 19.6021 28.2825 15.9998 28.2825 13.9962C28.2825 12.7741 27.2848 11.8604 26.1448 11.8604ZM44.3628 11.8604C43.3021 11.8604 42.5431 12.3387 41.9867 13.1264C42.3278 13.5568 42.5195 14.1194 42.5195 15.0041C42.5195 16.7387 40.7789 21.2088 40.7789 22.6608C40.7789 24.1131 42.0301 25.0168 43.1369 25.0168C44.0908 25.0168 45.2765 24.4274 45.9611 23.3759C45.4886 22.8716 45.2023 22.0152 45.2023 21.0797C45.2023 19.6021 46.5006 15.9998 46.5006 13.9962C46.5003 12.7741 45.5028 11.8604 44.3628 11.8604ZM60.7409 17.0387C60.7409 21.2171 57.3259 25.0168 52.989 25.0168C49.9967 25.0168 47.2651 23.41 47.2651 19.8385C47.2651 15.6602 50.6813 11.8604 55.0169 11.8604C57.9972 11.8606 60.7409 13.4675 60.7409 17.0387ZM56.391 18.7259C56.7673 16.5933 56.1046 14.8273 54.7993 14.5972C53.4941 14.3672 51.9947 16.0185 51.6184 18.1511C51.2455 20.2659 52.0182 22.0698 53.3234 22.2997C54.6288 22.53 56.0148 20.8584 56.391 18.7259ZM36.652 16.5168C36.9702 16.9487 37.5033 17.2711 38.3118 17.2711C39.4803 17.2711 40.3723 16.1878 40.3723 14.5485C40.3723 13.2102 39.1553 11.8604 36.8369 11.8604C32.7488 11.8604 29.0475 15.7567 29.0475 20.0021C29.0475 23.0102 31.0289 25.0171 34.2558 25.0171C37.3811 25.0171 39.6758 23.0562 39.6758 21.152C39.6758 20.6475 39.2886 20.2782 38.6363 20.1954C37.9423 21.298 36.8037 21.8529 35.745 21.8529C34.4332 21.8529 33.3405 20.6687 33.3405 19.067C33.3405 16.9397 34.9901 14.5972 36.3766 14.5972C36.9125 14.5972 37.1798 14.9298 37.1798 15.435C37.1799 15.8572 37.0428 16.1926 36.652 16.5168ZM20.1895 19.8268C19.6117 20.5432 17.9462 20.8988 15.3843 20.5861C17.2122 16.019 18.4363 11.6684 18.4363 8.44858C18.4365 6.63969 17.5201 5.48389 15.8673 5.48389C14.8888 5.48389 13.8351 5.90581 13.1168 6.97583C13.5961 7.52818 13.759 8.54209 13.759 9.4211C13.759 15.831 10.7637 20.3345 10.7637 22.9696C10.7637 24.0558 11.3937 24.644 12.0676 25.0053C12.5496 24.6104 13.3867 24.3319 13.9758 24.3319C15.3289 24.3319 17.4078 25.2338 19.6094 25.1986C20.9955 25.1764 21.7445 23.7313 21.7268 22.6252C21.7115 21.6719 21.1564 20.4956 20.1895 19.8268Z" fill="white"/>
</g>
</svg>
