<svg width="44" height="41" viewBox="0 0 44 41" fill="none" xmlns="http://www.w3.org/2000/svg">
<path d="M9.5965 18.1679C9.85216 17.8324 10.2516 17.6166 10.699 17.6166H11.0026C11.3781 9.59468 17.9774 3.51429 25.4875 3.51429C26.9096 3.51429 28.6513 3.93776 30.4489 4.69681C30.5368 4.72877 30.6407 4.68882 30.6727 4.60093C30.7046 4.51304 30.6647 4.40917 30.5768 4.37721C28.5954 3.49831 26.3104 3.00293 23.7618 3.00293C15.4847 3.00293 8.74163 9.49081 8.41406 17.6166C8.89343 17.6166 9.31687 17.8324 9.5965 18.1679Z" fill="white"/>
<path d="M18.5311 32.1983C15.647 30.816 13.6176 28.419 12.3953 25.5506C12.1875 25.6145 11.9638 25.6545 11.7241 25.6545C11.1968 25.6545 10.7814 25.5027 10.4858 25.3269C10.4139 25.3669 10.326 25.4068 10.2461 25.4468C12.0038 28.6907 14.9119 31.2235 18.4193 32.5259C18.5072 32.5578 18.6031 32.5099 18.635 32.422C18.659 32.3341 18.619 32.2382 18.5311 32.1983Z" fill="white"/>
<path d="M16.5771 31.0155C15.6743 30.1686 13.9566 28.3069 12.7741 25.4865C12.7661 25.4625 12.7581 25.4385 12.7422 25.4146C12.6303 25.4705 12.5105 25.5184 12.3906 25.5504C13.3174 27.7237 14.7076 29.6253 16.5771 31.0155Z" fill="white"/>
<path d="M22.9002 3.75404C22.7084 3.79399 22.5247 3.82595 22.3329 3.87389C22.285 3.88188 22.2451 3.89786 22.1971 3.90585C22.0933 3.92982 21.9974 3.95379 21.8935 3.98575C15.9813 5.55978 11.3155 10.9131 11.0039 17.6167H11.5152C11.5152 17.6167 11.5312 17.377 11.5472 17.2491C11.7709 15.3156 12.2103 11.0809 16.7243 7.00597C18.6818 5.24018 22.7404 3.81796 22.9321 3.75404C22.9242 3.74605 22.9082 3.74605 22.9002 3.75404Z" fill="white"/>
<path d="M6.00932 14.9394L6.04128 14.9714C6.53663 15.4667 6.68843 16.1379 6.44075 16.7371C6.20906 17.2964 5.66578 17.656 5.05858 17.656C5.00265 17.656 4.94673 17.648 4.8908 17.648C4.8908 17.7119 4.88281 17.7678 4.88281 17.8318C5.22636 18.0555 5.57789 18.3032 5.92144 18.5828C6.09721 18.0155 6.62451 17.608 7.24769 17.608H7.50335C7.85489 8.94689 15.0374 2.02756 23.8577 2.02756C26.1747 2.02756 28.3878 2.37113 30.4091 3.07425C30.465 3.09023 30.5129 3.05827 30.5289 3.01033C30.5449 2.9544 30.5129 2.90646 30.465 2.89048C28.1161 1.7559 25.4716 1.1167 22.6753 1.1167C14.3583 1.1167 7.37552 6.77362 5.41012 14.4121C5.69774 14.6278 5.89747 14.8275 6.00932 14.9394Z" fill="white"/>
<path d="M38.78 25.7823C38.724 25.7503 38.6521 25.7823 38.6202 25.8382L38.6282 25.8222C36.0156 30.8239 30.7985 34.4993 23.8477 34.4993C17.5121 34.4993 12.0153 30.9278 9.29093 25.6944C9.13114 25.7183 8.95537 25.7263 8.77162 25.7263C7.55722 25.7263 6.71833 25.0312 6.26293 24.2642C6.1351 24.392 5.99928 24.5119 5.85547 24.6317C8.29225 31.5191 14.8995 36.4569 22.6653 36.4569C29.8238 36.4569 35.9996 31.9186 38.8279 25.9341C38.8599 25.8861 38.8359 25.8142 38.78 25.7823Z" fill="white"/>
<path d="M2.62891 13.7892C2.85261 13.7493 3.0843 13.7333 3.30002 13.7333C3.81134 13.7333 4.25076 13.8372 4.62627 13.989C4.66621 13.8531 4.69817 13.7253 4.74611 13.5895C6.97516 6.71009 12.8794 1.45267 19.974 0.805484C20.2297 0.805484 20.2856 0.741564 20.2856 0.677645C20.2856 0.605735 20.2696 0.549805 19.95 0.549805C19.95 0.549805 19.942 0.549805 19.934 0.549805C11.9286 1.14905 5.23346 6.49436 2.62891 13.7892Z" fill="white"/>
<path d="M40.3351 24.9194C40.1753 24.9354 40.0156 25.0393 39.9516 25.231C37.1873 33.237 29.9009 37.5836 22.4228 37.5836C14.5852 37.5836 7.15497 32.3901 4.93391 25.1911C4.0311 25.5986 3.17623 25.6545 2.80073 25.6545C2.54506 25.6545 2.31337 25.6385 2.09766 25.6066C4.32671 34.2118 12.1404 40.4999 21.4401 40.4999C30.4841 40.4999 38.7612 33.9961 40.7346 25.6545C40.7746 25.5027 40.7746 25.3749 40.7506 25.271C40.5988 25.1671 40.455 25.0473 40.3351 24.9194Z" fill="white"/>
<path d="M39.2773 14.3247C39.4531 14.7881 39.7008 15.1556 40.1482 15.6829C40.0443 15.2755 39.9964 14.6602 40.0044 14.2847C40.0523 12.9504 39.1335 12.1194 39.1016 13.5576C39.1016 13.7733 39.1735 14.061 39.2773 14.3247Z" fill="white"/>
<path d="M37.9035 12.6467C37.9834 13.1421 38.1511 13.5495 38.4787 14.1568C38.4627 13.7413 38.5426 13.1261 38.6305 12.7585C38.9501 11.4562 38.231 10.4574 37.8955 11.8637C37.8476 12.0714 37.8555 12.375 37.9035 12.6467Z" fill="white"/>
<path d="M36.8649 11.2885C37.0247 11.7599 37.2484 12.1355 37.6719 12.6948C37.584 12.2873 37.568 11.664 37.6 11.2885C37.7118 9.95418 36.841 9.08327 36.7371 10.5215C36.7211 10.7292 36.777 11.0248 36.8649 11.2885Z" fill="white"/>
<path d="M39.3719 11.1043C38.1096 10.4092 38.3652 11.6157 39.5397 12.2469C39.8752 12.4307 40.3866 12.7822 40.6822 13.0779C40.4505 12.4227 40.2587 12.0232 39.9471 11.6317C39.7794 11.4159 39.5637 11.2082 39.3719 11.1043Z" fill="white"/>
<path d="M38.0127 9.51453C36.6944 9.19494 37.2297 10.2336 38.4601 10.5133C38.8116 10.5932 39.3629 10.7929 39.7064 10.9847C39.3309 10.4494 39.0593 10.1298 38.6758 9.85811C38.4521 9.69831 38.2044 9.56247 38.0127 9.51453Z" fill="white"/>
<path d="M35.5759 9.86615C35.7357 10.3376 35.9594 10.7131 36.3828 11.2724C36.2949 10.8649 36.2789 10.2417 36.3109 9.86615C36.4227 8.53182 35.5519 7.66091 35.448 9.09911C35.4321 9.30685 35.488 9.60248 35.5759 9.86615Z" fill="white"/>
<path d="M34.1998 8.55591C34.3915 9.01933 34.6552 9.37089 35.1185 9.89024C34.9987 9.49074 34.9268 8.87551 34.9348 8.49199C34.9348 7.15766 33.992 6.35866 34.008 7.79686C34.016 8.01259 34.0959 8.30023 34.1998 8.55591Z" fill="white"/>
<path d="M32.7623 7.54151C32.954 8.00493 33.2177 8.35649 33.681 8.87584C33.5612 8.47634 33.4893 7.86111 33.4973 7.47759C33.4973 6.14326 32.5545 5.34426 32.5705 6.78246C32.5705 6.9902 32.6504 7.27784 32.7623 7.54151Z" fill="white"/>
<path d="M31.2335 6.51044C31.4811 6.9419 31.7767 7.26948 32.2961 7.72491C32.1363 7.34139 31.9925 6.74214 31.9525 6.35863C31.8007 5.03229 30.7781 4.34515 30.9538 5.77536C30.9858 5.9831 31.0976 6.26275 31.2335 6.51044Z" fill="white"/>
<path d="M36.6168 8.06793C35.2586 7.97205 35.9616 8.90688 37.224 8.97879C37.5835 8.99477 38.1587 9.09864 38.5262 9.23447C38.0629 8.77105 37.7433 8.50738 37.3198 8.29165C37.0881 8.1718 36.8245 8.08391 36.6168 8.06793Z" fill="white"/>
<path d="M35.2418 6.75836C33.8836 6.66248 34.5866 7.59731 35.849 7.66922C36.2085 7.6852 36.7837 7.78907 37.1512 7.9249C36.6879 7.46148 36.3683 7.19781 35.9448 6.98208C35.7131 6.86223 35.4415 6.77434 35.2418 6.75836Z" fill="white"/>
<path d="M33.5683 5.6075C32.2181 5.75132 33.073 6.55032 34.3193 6.39851C34.6789 6.35856 35.2621 6.35057 35.6456 6.41449C35.1103 6.03896 34.7508 5.83122 34.2954 5.70338C34.0477 5.63147 33.7681 5.59152 33.5683 5.6075Z" fill="white"/>
<path d="M31.9064 4.56086C30.4123 4.92041 31.4829 5.68745 32.8731 5.33589C33.2646 5.23202 33.9277 5.14413 34.3671 5.16011C33.712 4.81654 33.2726 4.64076 32.7453 4.56086C32.4497 4.52091 32.1221 4.51292 31.9064 4.56086Z" fill="white"/>
<path d="M2.26122 16.8651C2.26122 16.2738 2.85244 15.7065 3.53953 15.7065C4.29054 15.7065 4.62609 16.1859 4.77789 16.3457C5.13742 16.7053 5.63276 16.2419 5.20133 15.8104C4.98562 15.5947 4.37043 14.9155 3.30783 14.9155C2.24524 14.9155 0.34375 15.5867 0.34375 17.5682C0.34375 20.0771 4.26657 20.6444 4.26657 22.3063C4.26657 23.4488 3.14804 23.6326 2.8045 23.6326C1.86174 23.6326 1.32645 23.1532 1.11873 22.9455C0.735233 22.562 0.159993 23.0973 0.591423 23.5287C1.02285 23.9602 1.54217 24.4716 2.8045 24.4716C4.06683 24.4716 6.19202 23.7605 6.19202 21.4354C6.20001 18.9904 2.26122 18.4391 2.26122 16.8651Z" fill="white"/>
<path d="M26.1523 18.5835C24.099 18.5835 23.332 20.4052 23.332 21.6117C23.332 21.9553 23.34 24.4721 26.2322 24.4721C27.6144 24.4721 28.2296 23.809 28.4053 23.6332C28.6929 23.3455 28.3893 23.1058 28.1656 23.3375C27.862 23.6412 27.3907 23.9528 26.7755 23.9528C26.1603 23.9528 25.2655 23.2257 25.2655 22.6504V21.6916C25.2655 21.5797 25.3534 21.4919 25.4652 21.4919H28.7249C28.8368 21.4919 28.9246 21.404 28.9246 21.2921C28.9246 21.2921 28.8847 18.5835 26.1523 18.5835ZM26.9912 20.8127H25.4732C25.3613 20.8127 25.2735 20.7248 25.2735 20.613C25.2735 20.4372 25.2415 19.1588 26.2482 19.1588C27.0631 19.1588 27.1909 20.4611 27.1909 20.613C27.1909 20.7168 27.0951 20.8127 26.9912 20.8127Z" fill="white"/>
<path d="M12.2405 23.1931V22.8416V19.1742C12.2405 18.9744 12.0728 18.8066 11.873 18.8066H10.6986C10.5867 18.8066 10.4988 18.8945 10.4988 19.0064V22.8416C10.4988 23.4009 10.1473 23.8403 9.58805 23.8403C9.02879 23.8403 8.76514 23.297 8.76514 22.8416V19.1742C8.76514 18.9744 8.59736 18.8066 8.39762 18.8066H7.22317C7.11132 18.8066 7.02344 18.8945 7.02344 19.0064V22.8416V22.9614C7.02344 23.345 7.54275 24.5514 8.75715 24.5514C9.97154 24.5514 10.2831 23.8963 10.4829 23.8963C10.6906 23.8963 10.9223 24.4715 11.6973 24.4715C12.4722 24.4715 12.7199 23.7524 12.7199 23.6566C12.7519 23.4169 12.2405 23.7205 12.2405 23.1931Z" fill="white"/>
<path d="M18.7947 23.1937V20.3093C18.7627 19.7021 18.5231 18.5915 17.061 18.5835C16.1023 18.5835 15.8306 19.0629 15.3273 19.0789C15.2873 18.9191 15.1435 18.7992 14.9757 18.7992H13.8013C13.6894 18.7992 13.6016 18.8871 13.6016 18.999V24.1525C13.6016 24.2644 13.6894 24.3523 13.8013 24.3523H15.1675V24.3443C15.2634 24.3283 15.3353 24.2484 15.3353 24.1525V19.75C15.527 19.5743 15.8386 19.3665 16.2221 19.3665C16.8772 19.3665 17.061 19.8459 17.061 20.3493V23.5772C17.061 23.9608 17.4445 24.4721 18.2754 24.4721C19.0504 24.4721 19.298 23.753 19.298 23.6571C19.306 23.4174 18.7947 23.7211 18.7947 23.1937Z" fill="white"/>
<path d="M23.0832 18.7992H22.3801C22.0845 18.7992 22.0605 18.5915 22.0605 18.4077V17.5528C22.0605 16.9295 22.0605 16.578 22.3801 16.578C22.6358 16.578 22.6677 16.6978 22.9394 16.9695C23.3069 17.337 23.7783 16.8257 23.4667 16.5141C23.203 16.2504 22.9394 16.0347 22.1804 16.0347C20.91 16.0347 20.3428 16.9136 20.2709 17.5288H20.2629V18.168C20.2629 19.0948 19.5039 18.6314 19.5039 19.2067C19.5039 19.5982 20.2629 19.4064 20.2629 20.0776V24.1525C20.2629 24.2644 20.3508 24.3523 20.4626 24.3523H21.693C21.8927 24.3523 22.0605 24.1845 22.0605 23.9847V19.9178C22.0605 19.5343 22.4121 19.4624 22.7796 19.4624C23.1471 19.4624 23.2749 19.1747 23.2749 19.0629C23.2669 18.959 23.219 18.7992 23.0832 18.7992Z" fill="white"/>
<path d="M34.4504 23.1935V22.9059V22.842V20.7007C34.4504 20.1573 33.9231 18.5913 31.8379 18.5913C30.7673 18.5913 30.248 18.9748 30.0163 19.1586C29.6967 19.4143 29.8565 19.63 30.192 19.3743C30.5436 19.1107 30.9191 19.0228 31.5263 19.0228C32.2134 19.0228 32.7247 19.5661 32.7247 20.1494V20.5009C32.7247 20.6048 32.7327 20.8365 32.3412 20.8525C31.9497 20.8685 29.2812 21.0842 29.2812 22.9698C29.2812 23.7289 29.7606 24.5598 30.983 24.5598C32.2054 24.5598 32.509 23.9047 32.7087 23.9047C32.9164 23.9047 33.1481 24.4799 33.9231 24.4799C34.6981 24.4799 34.9458 23.7608 34.9458 23.665C34.9617 23.4173 34.4504 23.7209 34.4504 23.1935ZM32.7167 22.834C32.7167 23.3933 32.3652 23.8327 31.8059 23.8327C31.2467 23.8327 31.0389 23.2415 31.0389 22.7861C31.0389 22.1868 31.726 21.2999 32.4051 21.2999C32.6128 21.2999 32.7167 21.3239 32.7167 21.6675C32.7167 22.011 32.7167 22.5304 32.7167 22.834Z" fill="white"/>
<path d="M42.7235 20.5726V19.9574C42.7235 19.9494 42.7235 19.9334 42.7235 19.9174C42.7235 19.5339 42.7874 19.462 43.147 19.462C43.5065 19.462 43.6423 19.1823 43.6423 19.0705C43.6423 18.9586 43.5944 18.7988 43.4586 18.7988H43.0511C42.7076 18.7988 42.7315 18.5192 42.7315 18.3274V17.5923C42.7315 17.1209 42.5557 17.1289 41.8287 17.1289C41.1097 17.1289 40.9738 17.5923 40.9738 17.888V18.1596C40.9738 19.0865 40.2148 18.623 40.2148 19.1983C40.2148 19.5898 40.9738 19.3981 40.9738 20.0692V20.269V23.5609C40.9738 23.9444 41.3493 24.4637 42.1882 24.4637C42.9632 24.4637 43.2109 23.7446 43.2109 23.6488C43.2109 23.417 42.7075 23.7207 42.7075 23.1853V20.5646L42.7235 20.5726Z" fill="white"/>
<path d="M36.9368 19.8456C36.9368 19.3422 37.5041 19.0146 38.1353 19.0146C38.7105 19.0146 39.2857 19.3103 39.4056 19.4381C39.5334 19.566 39.7731 19.4461 39.5654 19.2464C39.3656 19.0386 38.7664 18.6631 37.8397 18.6631C35.8663 18.6631 35.3789 19.8456 35.3789 20.349C35.3789 22.2506 38.3909 22.0908 38.3909 23.2573C38.3909 23.8406 37.544 24.0404 37.1126 24.0404C36.6812 24.0404 36.2817 24.0324 35.8663 23.8406C35.6106 23.7208 35.4428 23.9205 35.6585 24.1362C35.8822 24.36 36.9368 24.4638 37.4402 24.4638C37.9435 24.4638 39.9569 24.4478 39.9569 22.5702C39.9569 20.6286 36.9368 20.7964 36.9368 19.8456Z" fill="white"/>
</svg>
