<svg width="25" height="24" viewBox="0 0 25 24" fill="none" xmlns="http://www.w3.org/2000/svg">
<path d="M2 18.5V4.5H3.49995V14H11.75V6.5H19.4999C20.4624 6.5 21.2864 6.84271 21.9718 7.52812C22.6572 8.21354 22.9999 9.03749 22.9999 9.99998V18.5H21.4999V15.4999H3.49995V18.5H2ZM7.49882 12.5576C6.78804 12.5576 6.18426 12.3089 5.68748 11.8113C5.19069 11.3138 4.9423 10.7096 4.9423 9.99885C4.9423 9.28807 5.19107 8.68428 5.6886 8.1875C6.18615 7.69072 6.79031 7.44232 7.50108 7.44232C8.21186 7.44232 8.81564 7.69109 9.31243 8.18863C9.80921 8.68618 10.0576 9.29033 10.0576 10.0011C10.0576 10.7119 9.80883 11.3157 9.3113 11.8124C8.81375 12.3092 8.20959 12.5576 7.49882 12.5576ZM13.2499 14H21.4999V9.99998C21.4999 9.44998 21.3041 8.97914 20.9124 8.58748C20.5208 8.19581 20.0499 7.99998 19.4999 7.99998H13.2499V14ZM7.49995 11.0577C7.7961 11.0577 8.04643 10.9554 8.25093 10.751C8.45541 10.5465 8.55765 10.2961 8.55765 9.99998C8.55765 9.70383 8.45541 9.4535 8.25093 9.249C8.04643 9.04452 7.7961 8.94228 7.49995 8.94228C7.2038 8.94228 6.95348 9.04452 6.74898 9.249C6.54449 9.4535 6.44225 9.70383 6.44225 9.99998C6.44225 10.2961 6.54449 10.5465 6.74898 10.751C6.95348 10.9554 7.2038 11.0577 7.49995 11.0577Z" fill="white"/>
</svg>
