<svg width="55" height="46" viewBox="0 0 55 46" fill="none" xmlns="http://www.w3.org/2000/svg">
<circle cx="22.5" cy="23" r="22.5" fill="#BFDECC"/>
<circle cx="27.5" cy="23" r="22.5" fill="#9FCEB3"/>
<rect x="10" y="0.5" width="45" height="45" rx="22.5" fill="#74B790"/>
<path d="M26.3223 23.1279H30.9492V24.6553H26.3223V29.417H24.7837V24.6553H20.1567V23.1279H24.7837V18.3438H26.3223V23.1279ZM38.4849 21.96C39.6004 21.96 40.57 22.1509 41.3936 22.5327C42.2171 22.9071 42.8535 23.4536 43.3027 24.1724C43.7594 24.8911 43.9878 25.7633 43.9878 26.7891C43.9878 27.9121 43.7445 28.8817 43.2578 29.6978C42.7712 30.5063 42.0711 31.1315 41.1577 31.5732C40.2443 32.0075 39.1512 32.2246 37.8784 32.2246C37.0249 32.2246 36.2313 32.1497 35.4976 32C34.7638 31.8503 34.1462 31.6257 33.6445 31.3262V29.5518C34.1911 29.8812 34.8537 30.1432 35.6323 30.3379C36.411 30.5326 37.1672 30.6299 37.9009 30.6299C38.7319 30.6299 39.4582 30.4989 40.0796 30.2368C40.7085 29.9673 41.1951 29.563 41.5396 29.0239C41.8914 28.4774 42.0674 27.7923 42.0674 26.9688C42.0674 25.8757 41.7305 25.0334 41.0566 24.4419C40.3903 23.8429 39.3346 23.5435 37.8896 23.5435C37.4255 23.5435 36.9163 23.5809 36.3623 23.6558C35.8083 23.7306 35.3516 23.813 34.9922 23.9028L34.0488 23.2852L34.6777 15.5811H42.8423V17.2881H36.2725L35.8569 22.2407C36.1414 22.1808 36.5083 22.1209 36.9575 22.061C37.4067 21.9937 37.9159 21.96 38.4849 21.96Z" fill="white"/>
</svg>
