<svg width="16" height="20" viewBox="0 0 16 20" fill="none" xmlns="http://www.w3.org/2000/svg">
<path d="M11.0516 16.5694C10.2396 17.9759 9.05923 18.8901 7.51056 19.3121C5.96195 19.7344 4.48567 19.5403 3.08169 18.7297C1.67772 17.9191 0.769988 16.7368 0.358493 15.1829C-0.0530854 13.6291 0.147125 12.149 0.959125 10.7426L5.45437 2.95657C6.03129 1.95732 6.86865 1.3083 7.96646 1.0095C9.06413 0.710628 10.1126 0.849647 11.1118 1.42656C12.1111 2.00348 12.7558 2.842 13.0459 3.94213C13.3361 5.04226 13.1927 6.09194 12.6158 7.09119L8.36088 14.4609C8.02246 15.047 7.52938 15.4295 6.88163 15.6085C6.23374 15.7873 5.61636 15.7073 5.02948 15.3685C4.44246 15.0296 4.06048 14.5345 3.88355 13.8833C3.70662 13.2321 3.78903 12.6105 4.13078 12.0186L8.52015 4.41598L9.81898 5.16586L5.4296 12.7685C5.2956 13.0006 5.26078 13.241 5.32514 13.4899C5.38951 13.7388 5.53773 13.9302 5.76983 14.0642C6.00178 14.1981 6.2416 14.2307 6.4893 14.162C6.737 14.0933 6.92784 13.9429 7.06184 13.7109L11.3215 6.33297C11.6818 5.68824 11.7723 5.01843 11.5931 4.32355C11.4138 3.62867 11.0034 3.09602 10.3618 2.7256C9.72299 2.35677 9.05419 2.26816 8.35543 2.45979C7.65659 2.65156 7.12258 3.06715 6.75341 3.70657L2.25816 11.4926C1.64471 12.5344 1.49256 13.6338 1.80169 14.7907C2.11074 15.9477 2.78842 16.8283 3.83472 17.4324C4.86616 18.0279 5.95481 18.1671 7.10068 17.8501C8.24633 17.5331 9.13028 16.8562 9.75253 15.8194L14.3823 7.80048L15.6813 8.55048L11.0516 16.5694Z" fill="#86889B"/>
</svg>
