<svg width="200" height="166" viewBox="0 0 200 166" fill="none" xmlns="http://www.w3.org/2000/svg">
<path d="M64.8 -6.6001V167.4" stroke="#676F74" stroke-width="0.4" stroke-linecap="round" stroke-linejoin="round"/>
<path d="M84.8 -6.6001V167.4" stroke="#676F74" stroke-width="0.4" stroke-linecap="round" stroke-linejoin="round"/>
<path d="M97.2004 -6.6001V167.4" stroke="#676F74" stroke-width="0.4" stroke-linecap="round" stroke-linejoin="round"/>
<path d="M185.2 22.6001H114.8V167.8H185.2V22.6001Z" stroke="#676F74" stroke-width="0.4" stroke-linecap="round" stroke-linejoin="round"/>
<path d="M188.42 22.6001H185.084V167.8H188.42V22.6001Z" fill="#263238" stroke="#676F74" stroke-width="0.4" stroke-linecap="round" stroke-linejoin="round"/>
<path d="M185.14 36.0879H114.876V38.0239H185.14V36.0879Z" stroke="#676F74" stroke-width="0.4" stroke-linecap="round" stroke-linejoin="round"/>
<path d="M115.012 40.2798H184.8" stroke="#676F74" stroke-width="0.4" stroke-linecap="round" stroke-linejoin="round"/>
<path d="M125.2 23.6519H116.4V36.0519H125.2V23.6519Z" stroke="#676F74" stroke-width="0.4" stroke-linecap="round" stroke-linejoin="round"/>
<path d="M126.132 23.6519H125.2V36.0519H126.132V23.6519Z" stroke="#676F74" stroke-width="0.4" stroke-linecap="round" stroke-linejoin="round"/>
<path d="M136 23.6519H127.2V36.0519H136V23.6519Z" stroke="#676F74" stroke-width="0.4" stroke-linecap="round" stroke-linejoin="round"/>
<path d="M136.932 23.6519H136V36.0519H136.932V23.6519Z" stroke="#676F74" stroke-width="0.4" stroke-linecap="round" stroke-linejoin="round"/>
<path d="M146.048 25.8638H138.816V36.0558H146.048V25.8638Z" stroke="#676F74" stroke-width="0.4" stroke-linecap="round" stroke-linejoin="round"/>
<path d="M146.816 25.8638H146.048V36.0558H146.816V25.8638Z" stroke="#676F74" stroke-width="0.4" stroke-linecap="round" stroke-linejoin="round"/>
<path d="M157.6 23.6519H148.8V36.0519H157.6V23.6519Z" stroke="#676F74" stroke-width="0.4" stroke-linecap="round" stroke-linejoin="round"/>
<path d="M158.532 23.6519H157.6V36.0519H158.532V23.6519Z" stroke="#676F74" stroke-width="0.4" stroke-linecap="round" stroke-linejoin="round"/>
<path d="M168.564 25.8638H161.332V36.0558H168.564V25.8638Z" stroke="#676F74" stroke-width="0.4" stroke-linecap="round" stroke-linejoin="round"/>
<path d="M169.336 25.8638H168.568V36.0558H169.336V25.8638Z" stroke="#676F74" stroke-width="0.4" stroke-linecap="round" stroke-linejoin="round"/>
<path d="M179.364 25.8638H172.132V36.0558H179.364V25.8638Z" stroke="#676F74" stroke-width="0.4" stroke-linecap="round" stroke-linejoin="round"/>
<path d="M180.136 25.8638H179.368V36.0558H180.136V25.8638Z" stroke="#676F74" stroke-width="0.4" stroke-linecap="round" stroke-linejoin="round"/>
<path d="M185.14 56.8877H114.876V58.8237H185.14V56.8877Z" stroke="#676F74" stroke-width="0.4" stroke-linecap="round" stroke-linejoin="round"/>
<path d="M115.012 61.0801H184.8" stroke="#676F74" stroke-width="0.4" stroke-linecap="round" stroke-linejoin="round"/>
<path d="M125.124 43.4399H115.604V56.8519H125.124V43.4399Z" stroke="#676F74" stroke-width="0.4" stroke-linecap="round" stroke-linejoin="round"/>
<path d="M126.132 43.4399H125.124V56.8519H126.132V43.4399Z" stroke="#676F74" stroke-width="0.4" stroke-linecap="round" stroke-linejoin="round"/>
<path d="M136 44.4521H127.2V56.8521H136V44.4521Z" stroke="#676F74" stroke-width="0.4" stroke-linecap="round" stroke-linejoin="round"/>
<path d="M136.932 44.4521H136V56.8521H136.932V44.4521Z" stroke="#676F74" stroke-width="0.4" stroke-linecap="round" stroke-linejoin="round"/>
<path d="M146.8 44.4521H138V56.8521H146.8V44.4521Z" stroke="#676F74" stroke-width="0.4" stroke-linecap="round" stroke-linejoin="round"/>
<path d="M147.732 44.4521H146.8V56.8521H147.732V44.4521Z" stroke="#676F74" stroke-width="0.4" stroke-linecap="round" stroke-linejoin="round"/>
<path d="M157.472 44.6357H148.8V56.8557H157.472V44.6357Z" stroke="#676F74" stroke-width="0.4" stroke-linecap="round" stroke-linejoin="round"/>
<path d="M158.392 44.6357H157.472V56.8557H158.392V44.6357Z" stroke="#676F74" stroke-width="0.4" stroke-linecap="round" stroke-linejoin="round"/>
<path d="M168.5 45.7759H160.64V56.8519H168.5V45.7759Z" stroke="#676F74" stroke-width="0.4" stroke-linecap="round" stroke-linejoin="round"/>
<path d="M169.332 45.7759H168.5V56.8519H169.332V45.7759Z" stroke="#676F74" stroke-width="0.4" stroke-linecap="round" stroke-linejoin="round"/>
<path d="M180.976 41.9478H170.4V56.8518H180.976V41.9478Z" stroke="#676F74" stroke-width="0.4" stroke-linecap="round" stroke-linejoin="round"/>
<path d="M182.096 41.9478H180.976V56.8518H182.096V41.9478Z" stroke="#676F74" stroke-width="0.4" stroke-linecap="round" stroke-linejoin="round"/>
<path d="M185.14 77.688H114.876V79.624H185.14V77.688Z" stroke="#676F74" stroke-width="0.4" stroke-linecap="round" stroke-linejoin="round"/>
<path d="M115.012 81.8799H184.8" stroke="#676F74" stroke-width="0.4" stroke-linecap="round" stroke-linejoin="round"/>
<path d="M125.2 65.252H116.4V77.652H125.2V65.252Z" stroke="#676F74" stroke-width="0.4" stroke-linecap="round" stroke-linejoin="round"/>
<path d="M126.132 65.252H125.2V77.652H126.132V65.252Z" stroke="#676F74" stroke-width="0.4" stroke-linecap="round" stroke-linejoin="round"/>
<path d="M136 65.252H127.2V77.652H136V65.252Z" stroke="#676F74" stroke-width="0.4" stroke-linecap="round" stroke-linejoin="round"/>
<path d="M136.932 65.252H136V77.652H136.932V65.252Z" stroke="#676F74" stroke-width="0.4" stroke-linecap="round" stroke-linejoin="round"/>
<path d="M146.8 65.252H138V77.652H146.8V65.252Z" stroke="#676F74" stroke-width="0.4" stroke-linecap="round" stroke-linejoin="round"/>
<path d="M147.732 65.252H146.8V77.652H147.732V65.252Z" stroke="#676F74" stroke-width="0.4" stroke-linecap="round" stroke-linejoin="round"/>
<path d="M157.696 66.5356H149.804V77.6556H157.696V66.5356Z" stroke="#676F74" stroke-width="0.4" stroke-linecap="round" stroke-linejoin="round"/>
<path d="M158.533 66.5356H157.697V77.6556H158.533V66.5356Z" stroke="#676F74" stroke-width="0.4" stroke-linecap="round" stroke-linejoin="round"/>
<path d="M168.4 65.252H159.6V77.652H168.4V65.252Z" stroke="#676F74" stroke-width="0.4" stroke-linecap="round" stroke-linejoin="round"/>
<path d="M169.332 65.252H168.4V77.652H169.332V65.252Z" stroke="#676F74" stroke-width="0.4" stroke-linecap="round" stroke-linejoin="round"/>
<path d="M179.2 65.252H170.4V77.652H179.2V65.252Z" stroke="#676F74" stroke-width="0.4" stroke-linecap="round" stroke-linejoin="round"/>
<path d="M180.132 65.252H179.2V77.652H180.132V65.252Z" stroke="#676F74" stroke-width="0.4" stroke-linecap="round" stroke-linejoin="round"/>
<path d="M185.14 98.4878H114.876V100.424H185.14V98.4878Z" stroke="#676F74" stroke-width="0.4" stroke-linecap="round" stroke-linejoin="round"/>
<path d="M115.012 102.68H184.8" stroke="#676F74" stroke-width="0.4" stroke-linecap="round" stroke-linejoin="round"/>
<path d="M125.2 86.0518H116.4V98.4518H125.2V86.0518Z" stroke="#676F74" stroke-width="0.4" stroke-linecap="round" stroke-linejoin="round"/>
<path d="M126.132 86.0518H125.2V98.4518H126.132V86.0518Z" stroke="#676F74" stroke-width="0.4" stroke-linecap="round" stroke-linejoin="round"/>
<path d="M136 86.0518H127.2V98.4518H136V86.0518Z" stroke="#676F74" stroke-width="0.4" stroke-linecap="round" stroke-linejoin="round"/>
<path d="M136.932 86.0518H136V98.4518H136.932V86.0518Z" stroke="#676F74" stroke-width="0.4" stroke-linecap="round" stroke-linejoin="round"/>
<path d="M146.8 86.0518H138V98.4518H146.8V86.0518Z" stroke="#676F74" stroke-width="0.4" stroke-linecap="round" stroke-linejoin="round"/>
<path d="M147.732 86.0518H146.8V98.4518H147.732V86.0518Z" stroke="#676F74" stroke-width="0.4" stroke-linecap="round" stroke-linejoin="round"/>
<path d="M157.6 86.0518H148.8V98.4518H157.6V86.0518Z" stroke="#676F74" stroke-width="0.4" stroke-linecap="round" stroke-linejoin="round"/>
<path d="M158.532 86.0518H157.6V98.4518H158.532V86.0518Z" stroke="#676F74" stroke-width="0.4" stroke-linecap="round" stroke-linejoin="round"/>
<path d="M168.4 86.0518H159.6V98.4518H168.4V86.0518Z" stroke="#676F74" stroke-width="0.4" stroke-linecap="round" stroke-linejoin="round"/>
<path d="M169.332 86.0518H168.4V98.4518H169.332V86.0518Z" stroke="#676F74" stroke-width="0.4" stroke-linecap="round" stroke-linejoin="round"/>
<path d="M179.2 86.0518H170.4V98.4518H179.2V86.0518Z" stroke="#676F74" stroke-width="0.4" stroke-linecap="round" stroke-linejoin="round"/>
<path d="M180.132 86.0518H179.2V98.4518H180.132V86.0518Z" stroke="#676F74" stroke-width="0.4" stroke-linecap="round" stroke-linejoin="round"/>
<path d="M185.14 119.288H114.876V121.224H185.14V119.288Z" stroke="#676F74" stroke-width="0.4" stroke-linecap="round" stroke-linejoin="round"/>
<path d="M115.012 123.48H184.8" stroke="#676F74" stroke-width="0.4" stroke-linecap="round" stroke-linejoin="round"/>
<path d="M125.2 106.852H116.4V119.252H125.2V106.852Z" stroke="#676F74" stroke-width="0.4" stroke-linecap="round" stroke-linejoin="round"/>
<path d="M126.132 106.852H125.2V119.252H126.132V106.852Z" stroke="#676F74" stroke-width="0.4" stroke-linecap="round" stroke-linejoin="round"/>
<path d="M136 106.852H127.2V119.252H136V106.852Z" stroke="#676F74" stroke-width="0.4" stroke-linecap="round" stroke-linejoin="round"/>
<path d="M136.932 106.852H136V119.252H136.932V106.852Z" stroke="#676F74" stroke-width="0.4" stroke-linecap="round" stroke-linejoin="round"/>
<path d="M146.8 106.852H138V119.252H146.8V106.852Z" stroke="#676F74" stroke-width="0.4" stroke-linecap="round" stroke-linejoin="round"/>
<path d="M147.732 106.852H146.8V119.252H147.732V106.852Z" stroke="#676F74" stroke-width="0.4" stroke-linecap="round" stroke-linejoin="round"/>
<path d="M157.6 106.852H148.8V119.252H157.6V106.852Z" stroke="#676F74" stroke-width="0.4" stroke-linecap="round" stroke-linejoin="round"/>
<path d="M158.532 106.852H157.6V119.252H158.532V106.852Z" stroke="#676F74" stroke-width="0.4" stroke-linecap="round" stroke-linejoin="round"/>
<path d="M168.4 106.852H159.6V119.252H168.4V106.852Z" stroke="#676F74" stroke-width="0.4" stroke-linecap="round" stroke-linejoin="round"/>
<path d="M169.332 106.852H168.4V119.252H169.332V106.852Z" stroke="#676F74" stroke-width="0.4" stroke-linecap="round" stroke-linejoin="round"/>
<path d="M179.2 106.852H170.4V119.252H179.2V106.852Z" stroke="#676F74" stroke-width="0.4" stroke-linecap="round" stroke-linejoin="round"/>
<path d="M180.132 106.852H179.2V119.252H180.132V106.852Z" stroke="#676F74" stroke-width="0.4" stroke-linecap="round" stroke-linejoin="round"/>
<path d="M185.14 140.088H114.876V142.024H185.14V140.088Z" stroke="#676F74" stroke-width="0.4" stroke-linecap="round" stroke-linejoin="round"/>
<path d="M115.012 144.28H184.8" stroke="#676F74" stroke-width="0.4" stroke-linecap="round" stroke-linejoin="round"/>
<path d="M125.2 127.652H116.4V140.052H125.2V127.652Z" stroke="#676F74" stroke-width="0.4" stroke-linecap="round" stroke-linejoin="round"/>
<path d="M126.132 127.652H125.2V140.052H126.132V127.652Z" stroke="#676F74" stroke-width="0.4" stroke-linecap="round" stroke-linejoin="round"/>
<path d="M136 127.652H127.2V140.052H136V127.652Z" stroke="#676F74" stroke-width="0.4" stroke-linecap="round" stroke-linejoin="round"/>
<path d="M136.932 127.652H136V140.052H136.932V127.652Z" stroke="#676F74" stroke-width="0.4" stroke-linecap="round" stroke-linejoin="round"/>
<path d="M146.8 127.652H138V140.052H146.8V127.652Z" stroke="#676F74" stroke-width="0.4" stroke-linecap="round" stroke-linejoin="round"/>
<path d="M147.732 127.652H146.8V140.052H147.732V127.652Z" stroke="#676F74" stroke-width="0.4" stroke-linecap="round" stroke-linejoin="round"/>
<path d="M157.6 127.652H148.8V140.052H157.6V127.652Z" stroke="#676F74" stroke-width="0.4" stroke-linecap="round" stroke-linejoin="round"/>
<path d="M158.532 127.652H157.6V140.052H158.532V127.652Z" stroke="#676F74" stroke-width="0.4" stroke-linecap="round" stroke-linejoin="round"/>
<path d="M168.4 127.652H159.6V140.052H168.4V127.652Z" stroke="#676F74" stroke-width="0.4" stroke-linecap="round" stroke-linejoin="round"/>
<path d="M169.332 127.652H168.4V140.052H169.332V127.652Z" stroke="#676F74" stroke-width="0.4" stroke-linecap="round" stroke-linejoin="round"/>
<path d="M179.2 127.652H170.4V140.052H179.2V127.652Z" stroke="#676F74" stroke-width="0.4" stroke-linecap="round" stroke-linejoin="round"/>
<path d="M180.132 127.652H179.2V140.052H180.132V127.652Z" stroke="#676F74" stroke-width="0.4" stroke-linecap="round" stroke-linejoin="round"/>
<path d="M185.14 160.888H114.876V162.824H185.14V160.888Z" stroke="#676F74" stroke-width="0.4" stroke-linecap="round" stroke-linejoin="round"/>
<path d="M115.012 165.08H184.8" stroke="#676F74" stroke-width="0.4" stroke-linecap="round" stroke-linejoin="round"/>
<path d="M125.2 148.452H116.4V160.852H125.2V148.452Z" stroke="#676F74" stroke-width="0.4" stroke-linecap="round" stroke-linejoin="round"/>
<path d="M126.132 148.452H125.2V160.852H126.132V148.452Z" stroke="#676F74" stroke-width="0.4" stroke-linecap="round" stroke-linejoin="round"/>
<path d="M136 148.452H127.2V160.852H136V148.452Z" stroke="#676F74" stroke-width="0.4" stroke-linecap="round" stroke-linejoin="round"/>
<path d="M136.932 148.452H136V160.852H136.932V148.452Z" stroke="#676F74" stroke-width="0.4" stroke-linecap="round" stroke-linejoin="round"/>
<path d="M146.8 148.452H138V160.852H146.8V148.452Z" stroke="#676F74" stroke-width="0.4" stroke-linecap="round" stroke-linejoin="round"/>
<path d="M147.732 148.452H146.8V160.852H147.732V148.452Z" stroke="#676F74" stroke-width="0.4" stroke-linecap="round" stroke-linejoin="round"/>
<path d="M157.6 148.452H148.8V160.852H157.6V148.452Z" stroke="#676F74" stroke-width="0.4" stroke-linecap="round" stroke-linejoin="round"/>
<path d="M158.532 148.452H157.6V160.852H158.532V148.452Z" stroke="#676F74" stroke-width="0.4" stroke-linecap="round" stroke-linejoin="round"/>
<path d="M168.4 148.452H159.6V160.852H168.4V148.452Z" stroke="#676F74" stroke-width="0.4" stroke-linecap="round" stroke-linejoin="round"/>
<path d="M169.332 148.452H168.4V160.852H169.332V148.452Z" stroke="#676F74" stroke-width="0.4" stroke-linecap="round" stroke-linejoin="round"/>
<path d="M179.2 148.452H170.4V160.852H179.2V148.452Z" stroke="#676F74" stroke-width="0.4" stroke-linecap="round" stroke-linejoin="round"/>
<path d="M180.132 148.452H179.2V160.852H180.132V148.452Z" stroke="#676F74" stroke-width="0.4" stroke-linecap="round" stroke-linejoin="round"/>
<path d="M77.648 65H71.952V90.332H77.648V65Z" fill="#263238" stroke="#263238" stroke-width="0.4" stroke-linecap="round" stroke-linejoin="round"/>
<path d="M91.736 54.8677H57.868V80.1997H91.736V54.8677Z" fill="#263238" stroke="#263238" stroke-width="0.4" stroke-linecap="round" stroke-linejoin="round"/>
<path d="M89.152 56.7959H60.448V78.2679H89.152V56.7959Z" fill="#E5E5E5" stroke="#263238" stroke-width="0.4" stroke-linecap="round" stroke-linejoin="round"/>
<path d="M111.312 162.652L110.852 167.8H91.9716C91.9716 167.8 91.5156 165.74 92.5436 164.94C93.5716 164.14 97.3436 163.452 98.1436 163.224C98.9436 162.996 100.544 161.736 100.544 161.736L111.312 162.652Z" fill="#263238" stroke="#263238" stroke-width="0.4" stroke-linecap="round" stroke-linejoin="round"/>
<path d="M111.2 108.876C111.2 108.876 110.628 122.376 110.628 125.924C110.628 129.472 113.488 136.108 113.604 139.996C113.72 143.884 111.656 160.364 111.656 160.364L103.076 160.248C103.076 160.248 102.4 153.4 102.156 146.864C101.912 140.328 99.2963 124.552 98.7243 119.288C98.1523 114.024 96.8923 108.416 96.8923 108.416L111.2 108.876Z" fill="#263238" stroke="#263238" stroke-width="0.4" stroke-linecap="round" stroke-linejoin="round"/>
<path d="M112.684 159.22L111.996 162.996L103.072 162.536V158.304L112.684 159.22Z" fill="#919191" stroke="#263238" stroke-width="0.4" stroke-linecap="round" stroke-linejoin="round"/>
<path d="M113.6 99.8359C113.6 99.8359 112.568 104.984 112.112 107.272C111.656 109.56 109.364 115.628 109.252 118.256C109.14 120.884 108.22 130.844 108.22 136.336C108.22 141.828 107.992 143.2 106.848 147.892C105.704 152.584 104.56 160.136 104.56 160.136C102.837 160.178 101.114 160.063 99.4123 159.792C97.5581 159.518 95.7722 158.896 94.1483 157.96L94.0323 155.788C94.0323 155.788 93.4603 152.696 93.2323 151.788C93.0043 150.88 94.6043 146.752 94.6043 146.296C94.6043 145.84 93.3483 144.348 92.8883 142.06C92.4283 139.772 90.8283 126.272 90.8283 124.324C90.8283 122.376 90.1443 108.88 90.1443 108.88C90.1443 108.88 88.7683 100.184 88.7683 99.1519C88.7683 98.1199 107.42 98.0079 110.508 97.7799C113.596 97.5519 114.628 98.1199 113.6 99.8359Z" fill="#919191" stroke="#263238" stroke-width="0.4" stroke-linecap="round" stroke-linejoin="round"/>
<path d="M97.6003 102.352C97.6003 102.352 100.116 106.472 103.092 107.732" stroke="#263238" stroke-width="0.4" stroke-linecap="round" stroke-linejoin="round"/>
<path d="M101.88 117.576L101.7 118.488" stroke="#263238" stroke-width="0.4" stroke-linecap="round" stroke-linejoin="round"/>
<path d="M104.788 102.812L102.2 115.956" stroke="#263238" stroke-width="0.4" stroke-linecap="round" stroke-linejoin="round"/>
<path d="M107.2 119.06C105.455 119.309 103.697 119.461 101.936 119.516H94.9477L94.8357 122.032C96.7565 122.402 98.7126 122.557 100.668 122.492C102.859 122.383 105.039 122.116 107.192 121.692L107.2 119.06Z" stroke="#263238" stroke-width="0.4" stroke-linecap="round" stroke-linejoin="round"/>
<path d="M107.2 121.692C107.2 121.692 106.972 126.152 107.084 129.472C107.196 132.792 105.828 133.36 104.34 133.36C102.852 133.36 96.2156 134.16 95.2996 133.476C94.3836 132.792 94.0396 130.96 94.3836 129.476C94.7276 127.992 94.8436 122.036 94.8436 122.036" stroke="#263238" stroke-width="0.4" stroke-linecap="round" stroke-linejoin="round"/>
<path d="M103.872 163.8L103.528 167.8H84.652C84.652 167.8 84.192 165.74 85.224 164.94C86.256 164.14 90.024 163.452 90.824 163.224C91.624 162.996 93.224 161.736 93.224 161.736L103.872 163.8Z" fill="#263238" stroke="#263238" stroke-width="0.4" stroke-linecap="round" stroke-linejoin="round"/>
<path d="M105.82 158.647C105.82 158.647 105.588 163.911 104.672 164.139C103.756 164.367 92.0881 162.423 91.9721 161.507C91.8561 160.591 93.0041 158.875 93.1161 158.307C93.2281 157.739 93.2321 156.819 93.6881 156.135C94.1441 155.451 102.844 157.503 105.82 158.647Z" fill="white" stroke="#263238" stroke-width="0.4" stroke-linecap="round" stroke-linejoin="round"/>
<path d="M58.6075 87.5597C58.6075 87.5597 56.7595 88.0317 56.2475 88.4637C55.7355 88.8957 55.0475 90.0357 55.2675 90.5037C55.4875 90.9717 55.8955 90.7797 56.0675 90.5437C56.5101 89.8619 57.0693 89.2634 57.7195 88.7757C58.4148 88.3623 59.1363 87.9949 59.8795 87.6757C59.4868 87.4727 59.0304 87.4311 58.6075 87.5597Z" fill="#E5E5E5" stroke="#263238" stroke-width="0.4" stroke-linecap="round" stroke-linejoin="round"/>
<path d="M92.1001 59.7437L84.1401 78.0476C84.1401 78.0476 81.4881 79.1117 76.1801 81.0997C70.8721 83.0877 65.3041 85.6116 63.9761 86.0076C62.6481 86.4036 59.4681 87.0676 57.8761 88.0076C56.2841 88.9476 54.9121 90.8516 55.9721 90.9836C56.3441 91.0316 56.3721 91.4156 57.3081 91.2997C57.6869 91.2175 58.0391 91.0415 58.3321 90.7877C59.0353 90.26 59.8223 89.8544 60.6601 89.5877C61.8096 89.2853 63.0089 89.2214 64.1841 89.3997C64.7148 89.4749 65.2534 89.4749 65.7841 89.3997C66.4071 88.9801 66.9981 88.5148 67.5521 88.0076C67.5521 88.0076 76.8361 87.2076 80.5521 86.5476C84.2681 85.8876 89.8361 84.0277 89.8361 84.0277L95.8081 59.8837L92.1001 59.7437Z" fill="#FFBE9D" stroke="#263238" stroke-width="0.4" stroke-linecap="round" stroke-linejoin="round"/>
<path d="M60.528 88C60.528 88 56.68 89.324 56.416 90.916" stroke="#263238" stroke-width="0.4" stroke-linecap="round" stroke-linejoin="round"/>
<path d="M67.5599 88C66.9961 88.5531 66.3722 89.0415 65.6999 89.456C64.7719 89.988 63.5799 89.724 62.6519 90.256C61.7239 90.788 61.4519 91.184 60.3959 91.056C59.3399 90.928 59.3319 89.996 60.6599 89.6C61.2597 89.4503 61.8387 89.2273 62.3839 88.936L63.1839 88.008" fill="white"/>
<path d="M67.5599 88C66.9961 88.5531 66.3722 89.0415 65.6999 89.456C64.7719 89.988 63.5799 89.724 62.6519 90.256C61.7239 90.788 61.4519 91.184 60.3959 91.056C59.3399 90.928 59.3319 89.996 60.6599 89.6C61.2597 89.4503 61.8387 89.2273 62.3839 88.936L63.1839 88.008" stroke="#263238" stroke-width="0.4" stroke-linecap="round" stroke-linejoin="round"/>
<path d="M73.3801 66.4478L46.7521 66.9758L43.0641 90.4038L75.7521 90.6678L73.3801 66.4478Z" fill="#FD7E50" stroke="#263238" stroke-width="0.4" stroke-linecap="round" stroke-linejoin="round"/>
<path d="M70.224 90.4038L71.276 66.4478L57.6 82.5998L46.752 66.9758" stroke="#263238" stroke-width="0.4" stroke-linecap="round" stroke-linejoin="round"/>
<path d="M106.964 45.716C106.964 45.716 109.136 46.516 112.34 49.492C115.544 52.468 118.06 60.248 118.404 64.368C118.748 68.488 116.232 81.072 116.232 84.16C116.232 87.248 115.316 100.524 114.856 100.868C114.396 101.212 99.984 102.352 93.576 102.012C87.168 101.672 86.824 99.148 86.14 96.748C85.456 94.348 84.9919 88.052 86.0239 80.844C87.0559 73.636 88.3119 64.252 91.1719 59.448C94.0319 54.644 95.9719 52.124 98.3719 49.948C100.772 47.772 105.248 45.488 106.964 45.716Z" fill="#263238" stroke="#263238" stroke-width="0.4" stroke-linecap="round" stroke-linejoin="round"/>
<path d="M102.688 71.3836L97.236 71.0356V61.8716L102.688 62.2196V71.3836Z" fill="#92E3A9"/>
<path d="M100.6 60.5957H99.5564V63.3797H100.6V60.5957Z" fill="white" stroke="#263238" stroke-width="0.4" stroke-linecap="round" stroke-linejoin="round"/>
<path d="M101.528 69.4477L98.3961 69.1437V64.3877L101.528 64.6917V69.4477Z" fill="white"/>
<path d="M102.732 59.9397L111.024 78.3797L95.9117 85.5077C95.9117 85.5077 87.2877 85.5557 86.6157 85.4397C85.9437 85.3237 80.0237 89.0397 79.7237 89.3597C79.6834 89.4028 79.6521 89.4536 79.6319 89.5091C79.6116 89.5645 79.6027 89.6235 79.6057 89.6825C79.6086 89.7414 79.6235 89.7992 79.6492 89.8523C79.675 89.9054 79.7112 89.9528 79.7557 89.9917C79.7557 89.9917 79.0077 90.6957 79.5317 91.0997L80.0517 91.4997C80.0517 91.4997 79.9957 91.8357 80.7557 92.2477C81.5157 92.6597 81.8637 92.4717 81.8637 92.4717C82.3645 92.3645 82.8555 92.216 83.3317 92.0277C83.9677 91.7557 85.8997 90.2117 86.2357 90.2717C86.5717 90.3317 90.3357 90.8717 91.8357 90.8157C93.3357 90.7597 94.4917 89.2917 94.4917 89.2917C94.4917 89.2917 107.472 89.1277 111.912 87.9437C116.352 86.7597 121.868 83.5757 122.868 82.3917C123.868 81.2077 120.332 65.8117 119.072 62.4317C117.812 59.0517 115.832 55.4157 115.268 54.8677" fill="#263238"/>
<path d="M102.732 59.9397L111.024 78.3797L95.9117 85.5077C95.9117 85.5077 87.2877 85.5557 86.6157 85.4397C85.9437 85.3237 80.0237 89.0397 79.7237 89.3597C79.6834 89.4028 79.6521 89.4536 79.6319 89.5091C79.6116 89.5645 79.6027 89.6235 79.6057 89.6825C79.6086 89.7414 79.6235 89.7992 79.6492 89.8523C79.675 89.9054 79.7112 89.9528 79.7557 89.9917C79.7557 89.9917 79.0077 90.6957 79.5317 91.0997L80.0517 91.4997C80.0517 91.4997 79.9957 91.8357 80.7557 92.2477C81.5157 92.6597 81.8637 92.4717 81.8637 92.4717C82.3645 92.3645 82.8555 92.216 83.3317 92.0277C83.9677 91.7557 85.8997 90.2117 86.2357 90.2717C86.5717 90.3317 90.3357 90.8717 91.8357 90.8157C93.3357 90.7597 94.4917 89.2917 94.4917 89.2917C94.4917 89.2917 107.472 89.1277 111.912 87.9437C116.352 86.7597 121.868 83.5757 122.868 82.3917C123.868 81.2077 120.332 65.8117 119.072 62.4317C117.812 59.0517 115.832 55.4157 115.268 54.8677" stroke="#263238" stroke-width="0.4" stroke-linecap="round" stroke-linejoin="round"/>
<path d="M81.8637 92.4721C81.8637 92.4721 81.5197 92.6561 80.7557 92.2481C79.9917 91.8401 80.0517 91.5001 80.0517 91.5001L79.5317 91.1001C79.0077 90.7001 79.7557 89.9921 79.7557 89.9921C79.7112 89.9532 79.675 89.9058 79.6492 89.8527C79.6235 89.7996 79.6086 89.7418 79.6057 89.6829C79.6027 89.6239 79.6116 89.5649 79.6319 89.5095C79.6521 89.454 79.6834 89.4032 79.7237 89.3601C80.0237 89.0321 85.9397 85.3241 86.6157 85.4401C87.2917 85.5561 95.9117 85.5081 95.9117 85.5081L111.024 78.3801L107.536 70.6201L119.936 65.2681C121.464 70.8881 123.696 81.4241 122.872 82.3921C121.872 83.5921 116.356 86.7601 111.916 87.9441C107.476 89.1281 94.4957 89.2921 94.4957 89.2921C94.4957 89.2921 93.3397 90.7601 91.8397 90.8161C90.3397 90.8721 86.5717 90.3281 86.2397 90.2721C85.9077 90.2161 83.9717 91.7561 83.3317 92.0281C82.8557 92.2169 82.3646 92.3654 81.8637 92.4721Z" fill="#FFBE9D" stroke="#263238" stroke-width="0.4" stroke-linecap="round" stroke-linejoin="round"/>
<path d="M79.7556 89.9919L84.4676 87.4199" stroke="#263238" stroke-width="0.4" stroke-linecap="round" stroke-linejoin="round"/>
<path d="M80.196 91.3559L84.62 88.3999" stroke="#263238" stroke-width="0.4" stroke-linecap="round" stroke-linejoin="round"/>
<path d="M81.3196 92.4558C81.2939 92.4014 81.2796 92.3423 81.2774 92.2822C81.2752 92.2221 81.2853 92.1621 81.307 92.106C81.3287 92.0499 81.3615 91.9988 81.4036 91.9558C81.4457 91.9127 81.496 91.8787 81.5516 91.8558C81.9516 91.6718 85.1956 89.3438 85.1956 89.3438" stroke="#263238" stroke-width="0.4" stroke-linecap="round" stroke-linejoin="round"/>
<path d="M94.8763 48.6678L96.8003 50.1398C96.8003 50.1398 93.2923 56.9398 94.8763 57.2718C96.4603 57.6038 101.896 50.3678 103.932 47.9878C105.968 45.6078 106.964 45.7158 106.964 45.7158C106.964 45.7158 104.5 42.9158 103.592 40.7438C102.684 38.5718 102.236 37.2358 102.236 37.2358L94.8763 48.6678Z" fill="#FFBE9D" stroke="#263238" stroke-width="0.4" stroke-linecap="round" stroke-linejoin="round"/>
<path d="M88.3764 31.0598C88.3764 31.0598 88.1844 39.9918 88.4364 41.5678C88.6884 43.1438 90.8684 47.5198 91.6964 48.4638C92.5244 49.4078 95.9124 49.5438 97.1444 48.8078C98.3764 48.0718 101.512 44.0678 102.068 42.4918C102.405 41.5484 102.611 40.5632 102.68 39.5638C102.68 39.5638 104.648 40.0598 105.76 37.7238C106.872 35.3878 105.76 33.5398 104.296 33.6398L103.044 34.2438C103.044 34.2438 104.76 29.7918 103.68 28.0758C102.6 26.3598 93.0204 27.2158 91.0484 27.5278C89.0764 27.8398 88.3764 31.0598 88.3764 31.0598Z" fill="#FFBE9D" stroke="#263238" stroke-width="0.4" stroke-linecap="round" stroke-linejoin="round"/>
<path d="M95.488 36.2C95.488 36.2 96.828 35.196 98.164 35.976" stroke="#263238" stroke-width="0.4" stroke-linecap="round" stroke-linejoin="round"/>
<path d="M89.0201 35.5277C89.0201 35.5277 90.6921 35.0837 91.0201 36.3277" stroke="#263238" stroke-width="0.4" stroke-linecap="round" stroke-linejoin="round"/>
<path d="M90.4961 36.0635C90.4961 36.179 90.4619 36.2919 90.3977 36.3879C90.3335 36.484 90.2423 36.5588 90.1356 36.603C90.0289 36.6472 89.9115 36.6588 89.7982 36.6363C89.6849 36.6137 89.5808 36.5581 89.4992 36.4764C89.4175 36.3948 89.3619 36.2907 89.3393 36.1774C89.3168 36.0641 89.3284 35.9467 89.3726 35.84C89.4168 35.7333 89.4916 35.6421 89.5877 35.5779C89.6837 35.5137 89.7966 35.4795 89.9121 35.4795C90.0667 35.4805 90.2146 35.5424 90.3239 35.6517C90.4332 35.761 90.4951 35.9089 90.4961 36.0635Z" fill="#263238"/>
<path d="M97.152 36.4038C97.152 36.5193 97.1178 36.6322 97.0536 36.7283C96.9894 36.8243 96.8982 36.8992 96.7915 36.9434C96.6848 36.9876 96.5674 36.9991 96.4541 36.9766C96.3408 36.9541 96.2367 36.8984 96.1551 36.8168C96.0734 36.7351 96.0178 36.631 95.9952 36.5178C95.9727 36.4045 95.9843 36.287 96.0285 36.1803C96.0727 36.0736 96.1475 35.9824 96.2436 35.9182C96.3396 35.8541 96.4525 35.8198 96.568 35.8198C96.7229 35.8198 96.8714 35.8814 96.981 35.9909C97.0905 36.1004 97.152 36.2489 97.152 36.4038Z" fill="#263238"/>
<path d="M96.488 31.5478L98.736 32.1438C98.8142 32.1636 98.8873 32.1995 98.9507 32.2493C99.0141 32.2991 99.0664 32.3617 99.1041 32.4329C99.1418 32.5042 99.1641 32.5826 99.1696 32.663C99.1751 32.7434 99.1637 32.8241 99.136 32.8998L99.08 33.0518C99.0275 33.194 98.9218 33.3102 98.7852 33.3759C98.6487 33.4416 98.4919 33.4516 98.348 33.4038L96.16 32.6558C96.0868 32.6312 96.0192 32.5921 95.9613 32.5408C95.9035 32.4896 95.8566 32.4272 95.8234 32.3574C95.7901 32.2876 95.7713 32.2118 95.768 32.1346C95.7647 32.0573 95.7769 31.9802 95.804 31.9078C95.8531 31.7737 95.9503 31.6626 96.0767 31.5961C96.2031 31.5295 96.3497 31.5124 96.488 31.5478Z" fill="#263238" stroke="#263238" stroke-width="0.4" stroke-linecap="round" stroke-linejoin="round"/>
<path d="M91.5196 31.7996V31.8356C91.5457 31.8932 91.5599 31.9554 91.5613 32.0187C91.5628 32.0819 91.5514 32.1448 91.5278 32.2035C91.5042 32.2621 91.469 32.3155 91.4243 32.3602C91.3796 32.4049 91.3263 32.4401 91.2676 32.4636L89.7076 33.0876C89.6419 33.1136 89.5712 33.1246 89.5007 33.1197C89.4302 33.1147 89.3617 33.094 89.3002 33.0591C89.2388 33.0242 89.186 32.9759 89.1457 32.9178C89.1055 32.8597 89.0787 32.7934 89.0676 32.7236C89.052 32.6204 89.071 32.515 89.1217 32.4239C89.1723 32.3327 89.2517 32.2608 89.3475 32.2196L90.8916 31.5596C90.9485 31.5336 91.01 31.5193 91.0725 31.5173C91.135 31.5154 91.1973 31.5259 91.2558 31.5482C91.3142 31.5705 91.3676 31.6042 91.4129 31.6474C91.4582 31.6906 91.4944 31.7423 91.5196 31.7996Z" fill="#263238" stroke="#263238" stroke-width="0.4" stroke-linecap="round" stroke-linejoin="round"/>
<path d="M97.1081 40.2637C97.1081 40.2637 96.1481 42.3477 93.3961 42.1717" stroke="#263238" stroke-width="0.4" stroke-linecap="round" stroke-linejoin="round"/>
<path d="M91.9279 34.0796C91.9279 34.0796 91.5639 39.4996 91.5279 39.9396C91.4919 40.3796 92.6759 41.6036 93.5799 40.6676C94.0808 40.212 94.4157 39.6026 94.5319 38.9356" fill="#FFBE9D"/>
<path d="M91.9279 34.0796C91.9279 34.0796 91.5639 39.4996 91.5279 39.9396C91.4919 40.3796 92.6759 41.6036 93.5799 40.6676C94.0808 40.212 94.4157 39.6026 94.5319 38.9356" stroke="#263238" stroke-width="0.4" stroke-linecap="round" stroke-linejoin="round"/>
<path d="M91.8641 33.9276C91.5458 33.5231 91.13 33.206 90.6557 33.0061C90.1813 32.8063 89.664 32.7301 89.1522 32.7848C88.6404 32.8395 88.1508 33.0232 87.7294 33.3188C87.308 33.6144 86.9686 34.0122 86.7429 34.4748C86.5173 34.9374 86.4127 35.4497 86.4392 35.9638C86.4656 36.4778 86.6222 36.9768 86.8941 37.4138C87.1661 37.8508 87.5446 38.2116 87.9941 38.4624C88.4436 38.7132 88.9494 38.8457 89.4641 38.8476C89.8845 38.8713 90.3042 38.7901 90.6854 38.6114C91.0667 38.4326 91.3975 38.1619 91.6481 37.8236L91.8641 33.9276Z" stroke="#263238" stroke-width="0.4" stroke-linecap="round" stroke-linejoin="round"/>
<path d="M96.816 38.8481C98.4949 38.8481 99.856 37.487 99.856 35.8081C99.856 34.1291 98.4949 32.7681 96.816 32.7681C95.1371 32.7681 93.776 34.1291 93.776 35.8081C93.776 37.487 95.1371 38.8481 96.816 38.8481Z" stroke="#263238" stroke-width="0.4" stroke-linecap="round" stroke-linejoin="round"/>
<path d="M99.8679 35.1994L104.6 33.7314" stroke="#263238" stroke-width="0.4" stroke-linecap="round" stroke-linejoin="round"/>
<path d="M86.4675 35.4678L88.2675 35.1318" stroke="#263238" stroke-width="0.4" stroke-linecap="round" stroke-linejoin="round"/>
<path d="M91.864 34.5999C92.1659 34.4277 92.5119 34.3487 92.8586 34.3729C93.2053 34.3971 93.537 34.5234 93.812 34.7359" stroke="#263238" stroke-width="0.4" stroke-linecap="round" stroke-linejoin="round"/>
<path d="M103.384 22.8638C103.384 22.8638 107.352 25.7358 106.5 28.8398C105.648 31.9438 103.22 37.8598 103.22 37.8598L102.56 37.9638L102.336 35.7078C102.336 35.7078 100.104 35.2558 100.204 33.3518C100.257 32.2276 100.541 31.1262 101.036 30.1158C101.036 30.1158 99.0764 32.1998 96.4004 32.1998C93.7244 32.1998 92.0204 29.2558 91.2684 30.4558C90.5164 31.6558 89.1724 32.5438 86.1804 31.5398C83.1884 30.5358 78.3724 24.0198 81.0804 21.5638C83.7884 19.1078 89.1564 22.2958 90.7964 22.4398C92.4364 22.5838 93.1964 19.7638 96.9204 20.2478C99.2512 20.5977 101.466 21.4942 103.384 22.8638Z" fill="#263238" stroke="#263238" stroke-width="0.4" stroke-linecap="round" stroke-linejoin="round"/>
<path d="M115.36 89.3037H29.7117V167.924H115.36V89.3037Z" fill="white" stroke="#263238" stroke-width="0.4" stroke-linecap="round" stroke-linejoin="round"/>
<path d="M115.36 89.3037H29.7117V94.5957H115.36V89.3037Z" fill="#263238" stroke="#263238" stroke-width="0.4" stroke-linecap="round" stroke-linejoin="round"/>
<path d="M115.36 89.3037H88.2595V167.924H115.36V89.3037Z" stroke="#263238" stroke-width="0.4" stroke-linecap="round" stroke-linejoin="round"/>
<path d="M119.04 89.3037H26.032V92.3157H119.04V89.3037Z" fill="white" stroke="#263238" stroke-width="0.4" stroke-linecap="round" stroke-linejoin="round"/>
<path d="M119.036 89.3037H84.9121V92.3157H119.036V89.3037Z" fill="white" stroke="#263238" stroke-width="0.4" stroke-linecap="round" stroke-linejoin="round"/>
<path d="M168.26 75.4722H153.004V106.296H168.26V75.4722Z" fill="#263238" stroke="#263238" stroke-width="0.4" stroke-linecap="round" stroke-linejoin="round"/>
<path d="M154.784 75.4722H109.288V106.296H154.784V75.4722Z" fill="white" stroke="#263238" stroke-width="0.4" stroke-linecap="round" stroke-linejoin="round"/>
<path d="M152.485 77.5879H111.637V103.972H152.485V77.5879Z" fill="#E5E5E5" stroke="#263238" stroke-width="0.4" stroke-linecap="round" stroke-linejoin="round"/>
<path d="M152.484 77.5879H131.748V103.972H152.484V77.5879Z" fill="#E5E5E5" stroke="#263238" stroke-width="0.4" stroke-linecap="round" stroke-linejoin="round"/>
<path d="M152.485 89.9038H111.637V91.6518H152.485V89.9038Z" fill="white" stroke="#263238" stroke-width="0.4" stroke-linecap="round" stroke-linejoin="round"/>
<path d="M178.805 106.268H163.549V137.092H178.805V106.268Z" fill="#263238" stroke="#263238" stroke-width="0.4" stroke-linecap="round" stroke-linejoin="round"/>
<path d="M94.5003 119.704L99.4523 136.952H89.8923L94.5003 119.704Z" fill="#263238" stroke="#263238" stroke-width="0.4" stroke-linecap="round" stroke-linejoin="round"/>
<path d="M94.8804 117.884L94.2484 117.316L77.8604 136.952H91.3524L94.8804 117.884Z" fill="white" stroke="#263238" stroke-width="0.4" stroke-linecap="round" stroke-linejoin="round"/>
<path d="M94.2482 117.316H80.7562L77.1882 136.952H90.6762L94.2482 117.316Z" fill="white" stroke="#263238" stroke-width="0.4" stroke-linecap="round" stroke-linejoin="round"/>
<path d="M82.416 121.152H91.048" stroke="#263238" stroke-width="0.4" stroke-linecap="round" stroke-linejoin="round"/>
<path d="M81.8604 123.38H90.4884" stroke="#263238" stroke-width="0.4" stroke-linecap="round" stroke-linejoin="round"/>
<path d="M81.3047 125.608H89.9327" stroke="#263238" stroke-width="0.4" stroke-linecap="round" stroke-linejoin="round"/>
<path d="M165.324 106.268H96.7844V137.092H165.324V106.268Z" fill="white" stroke="#263238" stroke-width="0.4" stroke-linecap="round" stroke-linejoin="round"/>
<path d="M163.033 108.384H99.1367V134.768H163.033V108.384Z" fill="#E5E5E5" stroke="#263238" stroke-width="0.4" stroke-linecap="round" stroke-linejoin="round"/>
<path d="M163.032 108.384H114.46V134.768H163.032V108.384Z" fill="white" stroke="#263238" stroke-width="0.4" stroke-linecap="round" stroke-linejoin="round"/>
<path d="M163.028 108.384H116.752V134.768H163.028V108.384Z" fill="#E5E5E5" stroke="#263238" stroke-width="0.4" stroke-linecap="round" stroke-linejoin="round"/>
<path d="M163.032 108.384H133.084V134.768H163.032V108.384Z" fill="#E5E5E5" stroke="#263238" stroke-width="0.4" stroke-linecap="round" stroke-linejoin="round"/>
<path d="M163.029 108.384H144.805V134.768H163.029V108.384Z" fill="white" stroke="#263238" stroke-width="0.4" stroke-linecap="round" stroke-linejoin="round"/>
<path d="M163.032 108.384H147.1V134.768H163.032V108.384Z" fill="#E5E5E5" stroke="#263238" stroke-width="0.4" stroke-linecap="round" stroke-linejoin="round"/>
<path d="M190.276 136.976H175.02V167.8H190.276V136.976Z" fill="#263238" stroke="#263238" stroke-width="0.4" stroke-linecap="round" stroke-linejoin="round"/>
<path d="M176.796 136.976H74.2764V167.8H176.796V136.976Z" fill="white" stroke="#263238" stroke-width="0.4" stroke-linecap="round" stroke-linejoin="round"/>
<path d="M174.504 139.092H76.6279V165.476H174.504V139.092Z" fill="#E5E5E5" stroke="#263238" stroke-width="0.4" stroke-linecap="round" stroke-linejoin="round"/>
<path d="M174.505 139.092H104.097V165.476H174.505V139.092Z" fill="#E5E5E5" stroke="#263238" stroke-width="0.4" stroke-linecap="round" stroke-linejoin="round"/>
<path d="M174.504 139.092H112.272V165.476H174.504V139.092Z" fill="white" stroke="#263238" stroke-width="0.4" stroke-linecap="round" stroke-linejoin="round"/>
<path d="M174.504 139.092H114.564V165.476H174.504V139.092Z" fill="#E5E5E5" stroke="#263238" stroke-width="0.4" stroke-linecap="round" stroke-linejoin="round"/>
<path d="M174.505 139.092H129.761V165.476H174.505V139.092Z" fill="#E5E5E5" stroke="#263238" stroke-width="0.4" stroke-linecap="round" stroke-linejoin="round"/>
<path d="M174.5 139.092H143.528V165.476H174.5V139.092Z" fill="white" stroke="#263238" stroke-width="0.4" stroke-linecap="round" stroke-linejoin="round"/>
<path d="M174.504 139.092H146.112V165.476H174.504V139.092Z" fill="#E5E5E5" stroke="#263238" stroke-width="0.4" stroke-linecap="round" stroke-linejoin="round"/>
<path d="M174.504 139.092H161.148V165.476H174.504V139.092Z" fill="#E5E5E5" stroke="#263238" stroke-width="0.4" stroke-linecap="round" stroke-linejoin="round"/>
<path d="M173.276 88.8843L178.228 106.128H168.668L173.276 88.8843Z" fill="#787878" stroke="#263238" stroke-width="0.4" stroke-linecap="round" stroke-linejoin="round"/>
<path d="M173.657 87.0642L173.025 86.4922L156.637 106.128H170.129L173.657 87.0642Z" fill="white" stroke="#263238" stroke-width="0.4" stroke-linecap="round" stroke-linejoin="round"/>
<path d="M173.024 86.4922H159.532L155.96 106.128H169.452L173.024 86.4922Z" fill="white" stroke="#263238" stroke-width="0.4" stroke-linecap="round" stroke-linejoin="round"/>
<path d="M161.324 89.564H169.952" stroke="#263238" stroke-width="0.4" stroke-linecap="round" stroke-linejoin="round"/>
<path d="M160.768 91.7881H169.396" stroke="#263238" stroke-width="0.4" stroke-linecap="round" stroke-linejoin="round"/>
<path d="M160.212 94.0161H168.84" stroke="#263238" stroke-width="0.4" stroke-linecap="round" stroke-linejoin="round"/>
<path d="M136.573 117.272L141.525 134.52H131.965L136.573 117.272Z" fill="#263238" stroke="#263238" stroke-width="0.4" stroke-linecap="round" stroke-linejoin="round"/>
<path d="M136.953 115.452L136.321 114.88L119.933 134.52H133.425L136.953 115.452Z" fill="white" stroke="#263238" stroke-width="0.4" stroke-linecap="round" stroke-linejoin="round"/>
<path d="M136.321 114.88H122.829L119.257 134.52H132.749L136.321 114.88Z" fill="#92E3A9" stroke="#263238" stroke-width="0.4" stroke-linecap="round" stroke-linejoin="round"/>
<path d="M124.464 126.036L124.504 126L124.684 126.228L126.792 124.472L126.368 123.94L124.316 125.644L124.096 125.052L123.696 125.556L122.436 123.976L121.792 124.508L123.168 126.236L122.368 127.26L121.004 128.396L121.428 128.928L122.128 128.352L121.532 131.276H124.124L124.732 128.268L125.276 128.952L125.92 128.416L124.848 127.068L124.464 126.036ZM125.148 128.008L125.32 127.864L125.532 128.128L125.356 128.272L125.148 128.008ZM125.26 128.356L125.084 128.5L124.876 128.236L125.048 128.092L125.26 128.356ZM125.08 127.928L124.872 127.664L125.048 127.52L125.256 127.784L125.08 127.928ZM122.4 127.372H122.692L122.516 127.516H122.424L122.344 127.416L122.4 127.372ZM122.844 127.372L122.952 127.508H122.68L122.844 127.372ZM122.292 127.548L122.256 127.724L122.048 127.9L121.932 127.756L122.248 127.492L122.292 127.548ZM122.224 127.888L122.184 128.072L122.112 127.98L122.224 127.888ZM121.948 127.98L121.632 128.244L121.516 128.1L121.832 127.836L121.948 127.98ZM122.012 128.064L122.128 128.208L121.812 128.472L121.696 128.324L122.012 128.064ZM123.056 127.436L123 127.364H123.144L123.056 127.436ZM124.372 127.364L124.26 127.456L124.184 127.364H124.372ZM124.5 127.396L124.592 127.508H124.36L124.5 127.396ZM124.9 127.508H124.768L124.652 127.364H124.94L124.992 127.432L124.9 127.508ZM124.616 125.908L124.936 125.644L125.052 125.788L124.732 126.056L124.616 125.908ZM125.864 124.872L126.18 124.608L126.296 124.752L125.98 125.016L125.864 124.872ZM125.864 125.096L125.548 125.36L125.432 125.216L125.752 124.952L125.864 125.096ZM125.784 124.788L125.668 124.644L125.984 124.38L126.1 124.528L125.784 124.788ZM125.684 124.872L125.368 125.136L125.252 124.988L125.568 124.728L125.684 124.872ZM125.284 125.216L124.964 125.48L124.852 125.336L125.168 125.072L125.284 125.216ZM125.348 125.296L125.464 125.444L125.148 125.704L125.032 125.56L125.348 125.296ZM126.4 124.68L126.284 124.536L126.532 124.328L126.648 124.472L126.4 124.68ZM126.464 124.248L126.22 124.452L126.104 124.308L126.352 124.104L126.464 124.248ZM124.76 125.424L124.876 125.568L124.556 125.836L124.44 125.692L124.76 125.424ZM123.492 125.844L123.3 125.604L123.476 125.46L123.636 125.66L123.492 125.844ZM122.692 124.832L122.48 124.568L122.656 124.424L122.864 124.688L122.692 124.832ZM122.928 124.768L123.14 125.032L122.964 125.176L122.756 124.916L122.928 124.768ZM122.592 124.916L122.416 125.06L122.208 124.796L122.384 124.652L122.592 124.916ZM122.656 124.996L122.868 125.26L122.692 125.404L122.484 125.14L122.656 124.996ZM122.932 125.34L123.14 125.604L122.968 125.748L122.756 125.484L122.932 125.34ZM123.032 125.26L123.204 125.116L123.416 125.376L123.24 125.524L123.032 125.26ZM122.588 124.344L122.416 124.488L122.252 124.284L122.424 124.136L122.588 124.344ZM122.152 124.364L122.316 124.568L122.144 124.716L121.98 124.508L122.152 124.364ZM123.244 126.1L123.032 125.832L123.208 125.688L123.416 125.948L123.396 125.972L123.244 126.1ZM121.416 128.2L121.532 128.344L121.284 128.552L121.172 128.408L121.416 128.2ZM121.352 128.632L121.6 128.428L121.712 128.572L121.468 128.78L121.352 128.632ZM123.132 127.528L123.308 127.384H124.02L124.136 127.528H123.132ZM124.828 127.828L124.984 128.02L124.808 128.168L124.772 128.116L124.828 127.828ZM125.148 128.592L125.324 128.448L125.488 128.656L125.312 128.8L125.148 128.592ZM125.584 128.572L125.42 128.368L125.6 128.2L125.764 128.408L125.584 128.572Z" fill="white"/>
<path d="M131.132 124.168L131.188 124.12L131.436 124.428L134.296 122.048L133.716 121.324L130.916 123.636L130.612 122.836L130.08 123.524L128.4 121.372L127.528 122.096L129.392 124.44L128.308 125.832L126.456 127.368L127.036 128.092L127.98 127.292L127.18 131.26H130.692L131.52 127.18L132.256 128.104L133.128 127.38L131.676 125.552L131.132 124.168ZM132.06 126.844L132.296 126.648L132.58 127.008L132.344 127.204L132.06 126.844ZM132.212 127.312L131.976 127.508L131.692 127.152L131.928 126.956L132.212 127.312ZM131.972 126.736L131.688 126.376L131.924 126.18L132.208 126.54L131.972 126.736ZM128.336 125.98H128.736L128.5 126.176H128.376L128.268 126.044L128.336 125.98ZM128.936 125.98L129.084 126.164H128.712L128.936 125.98ZM128.188 126.216L128.14 126.46L127.856 126.696L127.7 126.5L128.128 126.14L128.188 126.216ZM128.092 126.68L128.044 126.932L127.944 126.804L128.092 126.68ZM127.72 126.804L127.292 127.164L127.136 126.964L127.564 126.608L127.72 126.804ZM127.812 126.916L127.968 127.112L127.536 127.468L127.38 127.272L127.812 126.916ZM129.224 126.068L129.148 125.968H129.344L129.224 126.068ZM131.008 125.968L130.856 126.096L130.756 125.968H131.008ZM131.18 126.008L131.308 126.164H130.992L131.18 126.008ZM131.708 126.164H131.528L131.372 125.968H131.772L131.844 126.06L131.708 126.164ZM131.308 123.996L131.744 123.632L131.9 123.828L131.464 124.192L131.308 123.996ZM133 122.588L133.432 122.232L133.588 122.428L133.16 122.784L133 122.588ZM133.024 122.896L132.596 123.252L132.44 123.056L132.868 122.7L133.024 122.896ZM132.912 122.496L132.756 122.3L133.184 121.944L133.344 122.14L132.912 122.496ZM132.8 122.6L132.372 122.956L132.216 122.76L132.644 122.404L132.8 122.6ZM132.236 123.068L131.808 123.424L131.652 123.228L132.08 122.872L132.236 123.068ZM132.324 123.176L132.484 123.376L132.052 123.732L131.896 123.536L132.324 123.176ZM133.74 122.328L133.584 122.132L133.92 121.852L134.076 122.048L133.74 122.328ZM133.832 121.74L133.496 122.02L133.34 121.824L133.676 121.544L133.832 121.74ZM131.52 123.34L131.676 123.536L131.24 123.896L131.084 123.7L131.52 123.34ZM131.12 124.008H131.1L131.068 123.924L131.12 124.008ZM129.816 123.908L129.556 123.584L129.792 123.388L130.008 123.66L129.816 123.908ZM128.72 122.536L128.4 122.2L128.636 122.004L128.92 122.36L128.72 122.536ZM129.048 122.452L129.332 122.808L129.096 123.004L128.808 122.648L129.048 122.452ZM128.588 122.648L128.352 122.844L128.068 122.488L128.304 122.292L128.588 122.648ZM128.676 122.76L128.96 123.116L128.724 123.312L128.44 122.956L128.676 122.76ZM129.048 123.224L129.332 123.584L129.096 123.78L128.812 123.424L129.048 123.224ZM129.184 123.116L129.42 122.92L129.704 123.276L129.468 123.472L129.184 123.116ZM128.584 121.872L128.348 122.068L128.128 121.792L128.364 121.592L128.584 121.872ZM127.992 121.9L128.216 122.18L127.98 122.376L127.756 122.096L127.992 121.9ZM129.476 124.252L129.184 123.888L129.42 123.692L129.704 124.048L129.676 124.084L129.476 124.252ZM127.024 127.088L127.18 127.284L126.844 127.564L126.688 127.368L127.024 127.088ZM126.932 127.676L127.268 127.396L127.424 127.592L127.088 127.872L126.932 127.676ZM129.332 126.176L129.568 125.98H130.54L130.696 126.176H129.332ZM131.632 126.576L131.844 126.836L131.608 127.036L131.552 126.968L131.632 126.576ZM132.068 127.612L132.304 127.416L132.528 127.696L132.292 127.892L132.068 127.612ZM132.66 127.584L132.436 127.304L132.672 127.108L132.896 127.388L132.66 127.584Z" fill="white"/>
<path d="M134.976 119.76C134.952 119.464 134.548 119.224 134.02 119.184C134.038 119.101 134.049 119.017 134.052 118.932C134.052 118.04 133.188 117.332 132.12 117.332C131.699 117.307 131.283 117.425 130.938 117.668C130.594 117.911 130.342 118.263 130.224 118.668C130.156 118.664 130.088 118.664 130.02 118.668C129.768 118.65 129.517 118.719 129.311 118.865C129.104 119.011 128.955 119.224 128.888 119.468C128.692 119.297 128.442 119.203 128.182 119.203C127.922 119.203 127.671 119.297 127.476 119.468C127.294 119.413 127.106 119.386 126.916 119.388C126.46 119.388 126.088 119.52 126.088 119.684C126.092 119.721 126.111 119.756 126.14 119.78L134.976 119.76Z" fill="white"/>
<path d="M127.068 121.08C127.068 120.948 126.88 120.844 126.648 120.824C126.65 120.788 126.65 120.752 126.648 120.716C126.626 120.511 126.526 120.322 126.367 120.19C126.209 120.057 126.006 119.991 125.8 120.004C125.615 119.993 125.431 120.045 125.28 120.152C125.128 120.259 125.017 120.414 124.964 120.592H124.876C124.765 120.584 124.655 120.615 124.564 120.679C124.473 120.743 124.407 120.837 124.376 120.944C124.291 120.869 124.181 120.827 124.066 120.827C123.952 120.827 123.842 120.869 123.756 120.944C123.676 120.922 123.592 120.911 123.508 120.912C123.308 120.912 123.144 120.968 123.144 121.04C123.145 121.049 123.147 121.057 123.152 121.065C123.156 121.072 123.161 121.079 123.168 121.084L127.068 121.08Z" fill="white"/>
<path d="M135.56 148.096L140.512 165.344H130.948L135.56 148.096Z" fill="#263238" stroke="#263238" stroke-width="0.4" stroke-linecap="round" stroke-linejoin="round"/>
<path d="M135.936 146.276L135.304 145.704L118.916 165.344H132.408L135.936 146.276Z" fill="white" stroke="#263238" stroke-width="0.4" stroke-linecap="round" stroke-linejoin="round"/>
<path d="M135.304 145.704H121.816L118.244 165.344H131.736L135.304 145.704Z" fill="white" stroke="#263238" stroke-width="0.4" stroke-linecap="round" stroke-linejoin="round"/>
<path d="M131.956 150.74H122.82L120.4 164.04H129.54L131.956 150.74Z" fill="#92E3A9"/>
<path d="M123.48 147.792L123.104 149.848H132.244L132.616 147.792H123.48Z" fill="#92E3A9"/>
<path d="M106.156 148.096L111.108 165.344H101.544L106.156 148.096Z" fill="#263238" stroke="#263238" stroke-width="0.4" stroke-linecap="round" stroke-linejoin="round"/>
<path d="M106.533 146.276L105.901 145.704L89.5127 165.344H103.005L106.533 146.276Z" fill="white" stroke="#263238" stroke-width="0.4" stroke-linecap="round" stroke-linejoin="round"/>
<path d="M105.901 145.704H92.4128L88.8408 165.344H102.333L105.901 145.704Z" fill="white" stroke="#263238" stroke-width="0.4" stroke-linecap="round" stroke-linejoin="round"/>
<path d="M100.924 152.752C100.761 153.325 100.486 153.86 100.115 154.327C99.7447 154.794 99.2856 155.183 98.7642 155.472C97.0042 156.432 94.2842 155.072 92.1202 156.996C89.9562 158.92 89.8802 162.996 94.4442 163.476C99.0082 163.956 99.9642 160.516 99.9642 160.516C99.9642 160.516 102.048 160.916 101.964 160.276C101.88 159.636 100.52 159.156 100.52 159.156C101.12 158.158 101.478 157.033 101.564 155.872C101.616 154.152 101.564 152.992 101.564 152.992C101.564 152.992 102.684 153.232 103.084 152.992C103.484 152.752 104.284 150.512 104.284 150.512C104.284 150.512 102.924 151.472 102.284 151.472C101.644 151.472 99.9602 150.112 99.9602 150.112C99.9602 150.112 99.6442 152.752 100.924 152.752Z" fill="#92E3A9"/>
<path d="M93.1963 147.656L92.8243 149.712H101.96L102.336 147.656H93.1963Z" fill="#92E3A9"/>
<path d="M92.6564 150.632L92.2844 152.684H97.7724L98.1444 150.632H92.6564Z" fill="#92E3A9"/>
<path d="M165.976 148.096L170.928 165.344H161.368L165.976 148.096Z" fill="#263238" stroke="#263238" stroke-width="0.4" stroke-linecap="round" stroke-linejoin="round"/>
<path d="M166.356 146.276L165.724 145.704L149.336 165.344H162.824L166.356 146.276Z" fill="white" stroke="#263238" stroke-width="0.4" stroke-linecap="round" stroke-linejoin="round"/>
<path d="M165.724 145.704H152.232L148.66 165.344H162.152L165.724 145.704Z" fill="#92E3A9" stroke="#263238" stroke-width="0.4" stroke-linecap="round" stroke-linejoin="round"/>
<path d="M155.8 151.452C155.834 151.798 155.763 152.147 155.595 152.452C155.427 152.757 155.17 153.004 154.859 153.16C154.548 153.317 154.197 153.375 153.852 153.328C153.507 153.281 153.184 153.131 152.927 152.897C152.669 152.663 152.488 152.357 152.407 152.018C152.327 151.679 152.351 151.324 152.476 150.999C152.601 150.675 152.822 150.395 153.109 150.198C153.396 150.001 153.736 149.896 154.084 149.896C154.518 149.875 154.942 150.027 155.264 150.319C155.586 150.611 155.779 151.018 155.8 151.452Z" fill="white"/>
<path d="M159.48 154.312C159.516 154.66 159.445 155.01 159.278 155.317C159.11 155.623 158.854 155.872 158.542 156.03C158.23 156.188 157.878 156.247 157.532 156.201C157.185 156.154 156.861 156.004 156.602 155.77C156.343 155.535 156.161 155.228 156.08 154.888C155.999 154.548 156.023 154.192 156.149 153.866C156.275 153.54 156.497 153.26 156.785 153.062C157.074 152.865 157.415 152.76 157.764 152.76C158.197 152.739 158.621 152.891 158.943 153.182C159.264 153.473 159.458 153.879 159.48 154.312Z" fill="white"/>
<path d="M162 151.956C162.028 152.245 161.968 152.535 161.829 152.789C161.689 153.043 161.475 153.249 161.217 153.379C160.958 153.509 160.665 153.558 160.378 153.519C160.091 153.48 159.822 153.355 159.607 153.161C159.392 152.966 159.241 152.711 159.174 152.43C159.107 152.148 159.126 151.852 159.23 151.581C159.334 151.311 159.518 151.078 159.756 150.914C159.995 150.749 160.278 150.661 160.568 150.66C160.93 150.643 161.283 150.769 161.552 151.012C161.82 151.255 161.981 151.595 162 151.956Z" fill="white"/>
<path d="M154.372 162.032C156.155 162.032 157.6 160.725 157.6 159.112C157.6 157.499 156.155 156.192 154.372 156.192C152.59 156.192 151.144 157.499 151.144 159.112C151.144 160.725 152.59 162.032 154.372 162.032Z" fill="white"/>
<path d="M101.76 114.196H99.9083V134.796H101.76V114.196Z" fill="#92E3A9" stroke="#263238" stroke-width="0.4" stroke-linecap="round" stroke-linejoin="round"/>
<path d="M111.38 114.196H101.264V134.796H111.38V114.196Z" fill="#92E3A9" stroke="#263238" stroke-width="0.4" stroke-linecap="round" stroke-linejoin="round"/>
<path d="M103.856 114.196H102.004V134.796H103.856V114.196Z" fill="white" stroke="#263238" stroke-width="0.4" stroke-linecap="round" stroke-linejoin="round"/>
<path d="M113.48 114.196H103.364V134.796H113.48V114.196Z" fill="white" stroke="#263238" stroke-width="0.4" stroke-linecap="round" stroke-linejoin="round"/>
<path d="M105.956 114.196H104.104V134.796H105.956V114.196Z" fill="white" stroke="#263238" stroke-width="0.4" stroke-linecap="round" stroke-linejoin="round"/>
<path d="M114.34 114.196H105.46V134.796H114.34V114.196Z" fill="white" stroke="#263238" stroke-width="0.4" stroke-linecap="round" stroke-linejoin="round"/>
<path d="M108.052 114.196H106.2V134.796H108.052V114.196Z" fill="#92E3A9" stroke="#263238" stroke-width="0.4" stroke-linecap="round" stroke-linejoin="round"/>
<path d="M114.464 114.196H107.556V134.796H114.464V114.196Z" fill="#92E3A9" stroke="#263238" stroke-width="0.4" stroke-linecap="round" stroke-linejoin="round"/>
<path d="M149.252 114.196H147.4V134.796H149.252V114.196Z" fill="white" stroke="#263238" stroke-width="0.4" stroke-linecap="round" stroke-linejoin="round"/>
<path d="M158.877 114.196H148.761V134.796H158.877V114.196Z" fill="white" stroke="#263238" stroke-width="0.4" stroke-linecap="round" stroke-linejoin="round"/>
<path d="M151.352 114.196H149.5V134.796H151.352V114.196Z" fill="#92E3A9" stroke="#263238" stroke-width="0.4" stroke-linecap="round" stroke-linejoin="round"/>
<path d="M160.972 114.196H150.856V134.796H160.972V114.196Z" fill="#92E3A9" stroke="#263238" stroke-width="0.4" stroke-linecap="round" stroke-linejoin="round"/>
<path d="M153.449 114.196H151.597V134.796H153.449V114.196Z" fill="#92E3A9" stroke="#263238" stroke-width="0.4" stroke-linecap="round" stroke-linejoin="round"/>
<path d="M161.832 114.196H152.952V134.796H161.832V114.196Z" fill="#92E3A9" stroke="#263238" stroke-width="0.4" stroke-linecap="round" stroke-linejoin="round"/>
<path d="M155.544 114.196H153.692V134.796H155.544V114.196Z" fill="white" stroke="#263238" stroke-width="0.4" stroke-linecap="round" stroke-linejoin="round"/>
<path d="M163.073 114.196H155.053V134.796H163.073V114.196Z" fill="white" stroke="#263238" stroke-width="0.4" stroke-linecap="round" stroke-linejoin="round"/>
<path d="M121.188 93.6123H114.528V103.904H121.188V93.6123Z" fill="white" stroke="#263238" stroke-width="0.4" stroke-linecap="round" stroke-linejoin="round"/>
<path d="M119.768 93.6123H113.108V103.904H119.768V93.6123Z" fill="white" stroke="#263238" stroke-width="0.4" stroke-linecap="round" stroke-linejoin="round"/>
<path d="M137.696 99.8159H123.772V103.904H137.696V99.8159Z" fill="white" stroke="#263238" stroke-width="0.4" stroke-linecap="round" stroke-linejoin="round"/>
<path d="M137.7 98.2559H123.276V101.132H137.7V98.2559Z" fill="#263238" stroke="#263238" stroke-width="0.4" stroke-linecap="round" stroke-linejoin="round"/>
<path d="M146.228 99.8159H137.752V103.904H146.228V99.8159Z" fill="white" stroke="#263238" stroke-width="0.4" stroke-linecap="round" stroke-linejoin="round"/>
<path d="M146.944 98.2559H137.752V101.132H146.944V98.2559Z" fill="#263238" stroke="#263238" stroke-width="0.4" stroke-linecap="round" stroke-linejoin="round"/>
<path d="M138.117 88.3359H114.133V89.9079H138.117V88.3359Z" fill="#263238" stroke="#263238" stroke-width="0.4" stroke-linecap="round" stroke-linejoin="round"/>
<path d="M139.112 88.3359H128.752V89.9079H139.112V88.3359Z" fill="white" stroke="#263238" stroke-width="0.4" stroke-linecap="round" stroke-linejoin="round"/>
<path d="M138.117 86.7319H114.133V88.3039H138.117V86.7319Z" fill="white" stroke="#263238" stroke-width="0.4" stroke-linecap="round" stroke-linejoin="round"/>
<path d="M139.112 86.7319H128.752V88.3039H139.112V86.7319Z" fill="white" stroke="#263238" stroke-width="0.4" stroke-linecap="round" stroke-linejoin="round"/>
<path d="M138.117 85.124H114.133V86.696H138.117V85.124Z" fill="#92E3A9" stroke="#263238" stroke-width="0.4" stroke-linecap="round" stroke-linejoin="round"/>
<path d="M139.112 85.124H128.752V86.696H139.112V85.124Z" fill="white" stroke="#263238" stroke-width="0.4" stroke-linecap="round" stroke-linejoin="round"/>
<path d="M138.117 83.52H114.133V85.092H138.117V83.52Z" fill="white" stroke="#263238" stroke-width="0.4" stroke-linecap="round" stroke-linejoin="round"/>
<path d="M139.112 83.52H128.752V85.092H139.112V83.52Z" fill="white" stroke="#263238" stroke-width="0.4" stroke-linecap="round" stroke-linejoin="round"/>
<path d="M138.117 81.9121H114.133V83.4841H138.117V81.9121Z" fill="#92E3A9" stroke="#263238" stroke-width="0.4" stroke-linecap="round" stroke-linejoin="round"/>
<path d="M139.112 81.9121H128.752V83.4841H139.112V81.9121Z" fill="white" stroke="#263238" stroke-width="0.4" stroke-linecap="round" stroke-linejoin="round"/>
<path d="M22.704 122.712C22.704 122.712 23.876 128.668 23.876 130.9C23.876 133.132 22.4 137.172 22.4 141.96C22.4 146.748 23.768 159.4 23.768 159.4L28.872 159.612C28.872 159.612 30.36 144.088 31.956 140.472C33.552 136.856 34.188 129.304 34.188 127.176C34.2445 125.625 34.4945 124.088 34.932 122.6L22.704 122.712Z" fill="#263238" stroke="#263238" stroke-width="0.4" stroke-linecap="round" stroke-linejoin="round"/>
<path d="M21.4275 155.464H29.9355L29.8275 162.06C29.8275 162.06 34.7195 165.144 35.8915 165.568C37.0635 165.992 37.6995 166.952 37.5915 167.268C37.4835 167.584 36.9555 167.8 36.9555 167.8H22.2795C21.9695 166.951 21.8599 166.042 21.9595 165.144C22.1226 164.273 22.3718 163.421 22.7035 162.6L21.4275 155.464Z" fill="white" stroke="#263238" stroke-width="0.4" stroke-linecap="round" stroke-linejoin="round"/>
<path d="M25.444 122.712C25.444 122.712 26.612 128.668 26.612 130.9C26.612 133.132 25.124 137.172 25.124 141.96C25.124 146.748 26.508 159.4 26.508 159.4L31.612 159.612C31.612 159.612 33.1 144.088 34.696 140.472C36.292 136.856 36.928 129.304 36.928 127.176C36.9845 125.625 37.2345 124.088 37.672 122.6L25.444 122.712Z" fill="#263238" stroke="#263238" stroke-width="0.4" stroke-linecap="round" stroke-linejoin="round"/>
<path d="M37.808 74.0039C37.808 74.0039 41.104 95.8079 42.276 99.8479C43.448 103.888 48 121.54 48 121.54C43.8546 123.345 39.4307 124.428 34.92 124.74C27.372 125.272 17.588 124.632 14.716 123.356C11.844 122.08 9.82397 121.232 9.82397 121.232L12.908 105.492C12.908 105.492 19.608 86.6679 19.608 82.4159C19.608 78.1639 19.2 73.7999 21.644 70.5999C24.088 67.3999 26.96 65.9199 28.98 66.5559C31 67.1919 37.808 74.0039 37.808 74.0039Z" fill="#ABABAB"/>
<path d="M44.3996 107.728C44.3676 107.6 44.3316 107.472 44.2996 107.328C43.5916 107.504 42.8876 107.672 42.1916 107.82L43.1476 105.852L44.2596 107.172C44.1756 106.864 44.0956 106.56 44.0156 106.264L43.3876 105.512C43.5196 105.484 43.6556 105.448 43.7876 105.412C43.7516 105.284 43.7196 105.156 43.6836 105.012C29.8116 108.36 18.7876 106.448 13.1236 104.86C12.9916 105.24 12.9156 105.452 12.9156 105.452L12.8636 105.716L13.7436 107.476C13.3436 107.368 12.9436 107.256 12.5836 107.152L12.5076 107.552C17.6752 109.028 23.0254 109.766 28.3996 109.744C33.7955 109.733 39.1695 109.056 44.3996 107.728ZM42.7996 105.664L41.8196 107.664L40.1596 106.184C41.0342 106.037 41.9142 105.864 42.7996 105.664ZM41.5436 107.976C40.3436 108.224 39.1716 108.432 38.0196 108.608L39.8916 106.504L41.5436 107.976ZM39.5156 106.324L37.5956 108.484L36.3196 106.804C37.3702 106.668 38.4382 106.508 39.5236 106.324H39.5156ZM37.2716 108.724C35.9476 108.908 34.6636 109.048 33.4116 109.148L35.9996 107L37.2716 108.724ZM35.4796 106.904L32.9956 108.976L30.8716 107.252C32.3596 107.192 33.8996 107.076 35.4876 106.9L35.4796 106.904ZM13.0796 105.304C14.0116 105.564 15.0796 105.832 16.2796 106.084L14.1396 107.444L13.0796 105.304ZM14.4796 107.704L16.3836 106.504L17.7956 108.428C16.5916 108.2 15.4836 107.944 14.4956 107.7L14.4796 107.704ZM16.6276 106.148C17.8276 106.392 19.1636 106.62 20.6276 106.808L18.2876 108.388L16.6276 106.148ZM18.7116 108.572L20.8516 107.128L22.8196 109.096C21.3636 108.956 19.9996 108.776 18.7276 108.568L18.7116 108.572ZM21.1996 106.872C22.3996 107.016 23.6676 107.128 25.0076 107.204L23.1996 108.88L21.1996 106.872ZM23.5076 109.148L25.2876 107.492L27.4516 109.336C26.0556 109.316 24.7396 109.248 23.4916 109.148H23.5076ZM25.5996 107.232C26.5116 107.272 27.4516 107.3 28.4236 107.3C28.8796 107.3 29.3436 107.3 29.8156 107.28L27.7196 109.04L25.5996 107.232ZM30.3716 107.34L32.6676 109.2C31.0356 109.312 29.4676 109.352 27.9796 109.344L30.3716 107.34Z" fill="white"/>
<path d="M46.864 117.1C46.804 116.868 46.74 116.632 46.68 116.392L45.552 115.02L46.268 114.816C46.232 114.688 46.2 114.56 46.168 114.416C45.844 114.504 45.52 114.6 45.2 114.684C45.1802 114.68 45.1598 114.68 45.14 114.684C45.1174 114.693 45.0959 114.705 45.076 114.72C28.708 119.032 16.096 115.952 11.192 114.32L11.112 114.72C11.572 114.872 12.092 115.036 12.68 115.204L10.8 116.644H10.748L10.668 117.044C10.6926 117.067 10.723 117.083 10.756 117.091C10.7891 117.099 10.8235 117.098 10.856 117.088C13.88 118.116 20.056 119.78 28.416 119.78C34.661 119.762 40.8721 118.86 46.864 117.1ZM45.288 115.332L46.488 116.788C45.936 116.948 45.384 117.1 44.84 117.24L45.288 115.332ZM44.912 115.188L44.512 116.892L43.392 115.564C43.896 115.444 44.4 115.32 44.912 115.188ZM44.376 117.356C43.644 117.544 42.916 117.712 42.196 117.872L43.152 115.9L44.376 117.356ZM42.8 115.696L41.82 117.72L40.16 116.24C41.036 116.08 41.916 115.896 42.8 115.696ZM41.544 118.008C40.344 118.256 39.172 118.468 38.02 118.64L39.892 116.536L41.544 118.008ZM39.516 116.356L37.596 118.516L36.32 116.836C37.3706 116.705 38.4386 116.545 39.524 116.356H39.516ZM37.272 118.756C35.948 118.94 34.664 119.08 33.412 119.18L36 117.04L37.272 118.756ZM35.48 116.936L33.004 119L30.88 117.28C32.36 117.224 33.9 117.108 35.488 116.932L35.48 116.936ZM11.24 116.804L12.8 115.624L13.756 117.54C12.776 117.284 11.94 117.028 11.248 116.8L11.24 116.804ZM13.088 115.336C14.02 115.592 15.088 115.86 16.288 116.112L14.148 117.472L13.088 115.336ZM14.488 117.736L16.392 116.536L17.804 118.46C16.592 118.22 15.484 117.98 14.496 117.732L14.488 117.736ZM16.636 116.18C17.836 116.428 19.172 116.652 20.636 116.84L18.296 118.44L16.636 116.18ZM18.728 118.6L20.868 117.156L22.836 119.124C21.364 119 20 118.808 18.728 118.6ZM21.2 116.904C22.4 117.048 23.668 117.164 25.008 117.236L23.2 118.912L21.2 116.904ZM23.508 119.18L25.288 117.524L27.452 119.372C26.056 119.348 24.74 119.28 23.492 119.18H23.508ZM25.6 117.264C26.512 117.306 27.4533 117.329 28.424 117.332C28.88 117.332 29.344 117.332 29.816 117.332L27.72 119.088L25.6 117.264ZM30.372 117.372L32.668 119.232C31.036 119.344 29.468 119.384 27.98 119.376L30.372 117.372Z" fill="white"/>
<path d="M47.7322 120.44L47.6322 120.04C32.1882 125.44 14.7802 121.384 10.0602 120.096L9.98022 120.496C16.5407 122.239 23.2963 123.139 30.0842 123.176C35.7162 123.18 41.8642 122.484 47.7322 120.44Z" fill="white"/>
<path d="M10.276 119L10.2 119.4C16.6919 121.103 23.3723 121.984 30.084 122.02C35.628 122.02 41.684 121.344 47.452 119.376C47.42 119.252 47.388 119.12 47.352 118.976C32.208 124.156 15.264 120.336 10.276 119Z" fill="white"/>
<path d="M45.6 112.28C45.564 112.152 45.532 112.024 45.5 111.88C31.948 116.4 16.3 113.432 11.572 112.348L11.496 112.748C17.2133 114.031 23.0526 114.69 28.912 114.716C34.244 114.724 40.096 114.116 45.6 112.28Z" fill="white"/>
<path d="M45.388 111.46C45.356 111.332 45.32 111.204 45.288 111.06C31.94 115.432 16.64 112.604 11.744 111.496L11.668 111.896C17.3318 113.154 23.1141 113.802 28.916 113.828C34.176 113.836 39.944 113.24 45.388 111.46Z" fill="white"/>
<path d="M37.808 74.0039C37.808 74.0039 41.104 95.8079 42.276 99.8479C43.448 103.888 48 121.54 48 121.54C43.8546 123.345 39.4307 124.428 34.92 124.74C27.372 125.272 17.588 124.632 14.716 123.356C11.844 122.08 9.82397 121.232 9.82397 121.232L12.908 105.492C12.908 105.492 19.608 86.6679 19.608 82.4159C19.608 78.1639 19.2 73.7999 21.644 70.5999C24.088 67.3999 26.96 65.9199 28.98 66.5559C31 67.1919 37.808 74.0039 37.808 74.0039Z" stroke="#263238" stroke-width="0.4" stroke-linecap="round" stroke-linejoin="round"/>
<path d="M24.1677 155.464H32.6757L32.5677 162.06C32.5677 162.06 37.4597 165.144 38.6317 165.568C39.8037 165.992 40.4397 166.952 40.3317 167.268C40.2237 167.584 39.6957 167.8 39.6957 167.8H25.0197C24.7097 166.951 24.6002 166.042 24.6997 165.144C24.8628 164.273 25.112 163.421 25.4437 162.6L24.1677 155.464Z" fill="white" stroke="#263238" stroke-width="0.4" stroke-linecap="round" stroke-linejoin="round"/>
<path d="M25.792 64.6479C25.792 64.6479 19.944 68.7959 18.56 73.3679C17.176 77.9399 16.752 86.4479 16.432 88.3639C16.112 90.2799 11.116 107.928 11.116 107.928C11.116 107.928 15.264 110.8 22.6 111.528C29.936 112.256 38.02 110.464 38.34 110.464C38.66 110.464 35.68 73.7999 35.788 73.4759C35.896 73.1519 29.832 66.1359 28.768 65.1799C27.704 64.2239 25.792 64.6479 25.792 64.6479Z" fill="white" stroke="#263238" stroke-width="0.4" stroke-linecap="round" stroke-linejoin="round"/>
<path d="M38.916 57.5917C38.916 57.5917 39.06 61.5477 39.792 62.8677C40.524 64.1877 40.38 65.5037 38.476 65.0637C36.572 64.6237 34.076 60.6637 33.788 58.3237C33.5 55.9837 37.744 54.8077 38.916 57.5917Z" fill="#263238" stroke="#263238" stroke-width="0.4" stroke-linecap="round" stroke-linejoin="round"/>
<path d="M35.6003 69.8639L39.0283 98.6999L45.2603 97.9679L37.9523 69.7359C37.9523 69.7359 36.4803 67.8559 35.6003 69.8639Z" fill="#92E3A9" stroke="#263238" stroke-width="0.4" stroke-linecap="round" stroke-linejoin="round"/>
<path d="M38.9876 45.296C39.4356 46.1349 39.8285 47.002 40.1636 47.892C40.5116 48.944 40.4516 50.896 40.5636 51.216C40.6756 51.536 42.2396 53.42 42.2476 53.8C42.2556 54.18 40.8276 54.928 40.8276 54.928C40.8276 54.928 40.4516 57.532 40.1796 58.632C39.9076 59.732 39.9556 60.348 38.5116 60.324C37.0676 60.3 35.1036 59.728 32.6556 58.46C30.2076 57.192 28.3876 55.344 27.9156 52.82C27.4436 50.296 33.9996 45.4 34.9636 44.744C35.9276 44.088 38.9876 45.296 38.9876 45.296Z" fill="#FFBE9D" stroke="#263238" stroke-width="0.4" stroke-linecap="round" stroke-linejoin="round"/>
<path d="M39.62 51.2718C39.596 51.7678 39.412 52.1638 39.22 52.1558C39.028 52.1478 38.868 51.7318 38.892 51.2358C38.916 50.7398 39.104 50.3398 39.292 50.3478C39.48 50.3558 39.644 50.7718 39.62 51.2718Z" fill="#263238"/>
<path d="M37.8961 50.0602C37.8961 50.0602 38.6121 48.2282 39.7281 48.8602" stroke="#263238" stroke-width="0.4" stroke-linecap="round" stroke-linejoin="round"/>
<path d="M40.444 55.868C40.444 55.868 39.092 56.424 38.376 55.312" stroke="#263238" stroke-width="0.4" stroke-linecap="round" stroke-linejoin="round"/>
<path d="M26.904 60.0958C26.904 60.0958 39.404 63.3278 39.2 64.7918C38.996 66.2558 38.692 70.5238 37.056 70.7398C35.42 70.9558 22.988 66.1998 22.056 65.8998C21.124 65.5998 22.812 61.3278 23.748 60.2518C24.684 59.1758 26.904 60.0958 26.904 60.0958Z" fill="#92E3A9" stroke="#263238" stroke-width="0.4" stroke-linecap="round" stroke-linejoin="round"/>
<path d="M33.472 48.8439C33.472 48.8439 34.864 58.0439 36.504 61.7439C38.144 65.4439 39.84 66.4639 39.216 67.1839C38.592 67.9039 34.992 65.5839 34.992 65.5839C34.992 65.5839 38.064 69.9519 36.024 71.1399C33.984 72.3279 28.8 69.7759 27.7 68.8399L26.624 67.9039C26.624 67.9039 26.28 70.7039 22.728 72.3919C19.176 74.0799 14.28 71.1679 17.472 67.1919C20.664 63.2159 21.992 58.6479 21.428 55.8919C20.864 53.1359 30.116 45.7439 33.472 48.8439Z" fill="#263238" stroke="#263238" stroke-width="0.4" stroke-linecap="round" stroke-linejoin="round"/>
<path d="M23.448 79.1081C24.248 80.9081 26.02 82.5401 27.364 83.9561C29.508 86.2161 32.06 87.9561 34.3 90.1001C34.7 90.5001 39.124 94.3281 39.652 94.1001C39.652 94.1001 44.052 92.1001 47.152 89.2441C50.252 86.3881 57.952 77.5561 57.952 77.5561C59.872 77.0561 62.936 74.4721 62.936 74.4721L65.784 74.0961C65.873 74.0772 65.9518 74.0261 66.0053 73.9526C66.0588 73.8791 66.0831 73.7883 66.0737 73.6979C66.0643 73.6075 66.0217 73.5237 65.9541 73.4628C65.8866 73.4019 65.7989 73.3682 65.708 73.3681L63.064 73.5761L66.664 71.7001C66.7055 71.6786 66.7423 71.6491 66.7724 71.6133C66.8025 71.5775 66.8253 71.5362 66.8394 71.4916C66.8535 71.447 66.8587 71.4001 66.8547 71.3535C66.8507 71.3069 66.8375 71.2616 66.816 71.2201C66.7779 71.151 66.718 71.0963 66.6458 71.0645C66.5735 71.0327 66.4927 71.0255 66.416 71.0441L62.56 72.0441L65.836 70.2481C65.932 70.1951 66.003 70.106 66.0334 70.0006C66.0638 69.8953 66.051 69.7821 65.998 69.6861C65.945 69.5901 65.8559 69.5191 65.7505 69.4887C65.6452 69.4583 65.532 69.4711 65.436 69.5241L61.676 71.4041L63.54 69.8041L64.164 69.0241C64.2005 68.9674 64.217 68.9002 64.2111 68.833C64.2052 68.7659 64.1772 68.7026 64.1314 68.6531C64.0856 68.6037 64.0246 68.5708 63.9581 68.5598C63.8916 68.5487 63.8233 68.5601 63.764 68.5921L63.02 69.1441C61.664 70.1721 58.416 72.6441 58.112 73.0481C57.712 73.5601 55.78 75.7761 55.78 75.7761C55.78 75.7761 52.472 78.4201 48.06 81.5081C45.9919 83.0143 43.8138 84.3635 41.544 85.5441C40.2 83.8521 36.16 78.6601 34.568 75.4801C33.366 73.1552 31.3686 71.3396 28.94 70.3641" fill="white"/>
<path d="M23.448 79.1081C24.248 80.9081 26.02 82.5401 27.364 83.9561C29.508 86.2161 32.06 87.9561 34.3 90.1001C34.7 90.5001 39.124 94.3281 39.652 94.1001C39.652 94.1001 44.052 92.1001 47.152 89.2441C50.252 86.3881 57.952 77.5561 57.952 77.5561C59.872 77.0561 62.936 74.4721 62.936 74.4721L65.784 74.0961C65.873 74.0772 65.9518 74.0261 66.0053 73.9526C66.0588 73.8791 66.0831 73.7883 66.0737 73.6979C66.0642 73.6075 66.0217 73.5237 65.9541 73.4628C65.8866 73.4019 65.7989 73.3682 65.708 73.3681L63.064 73.5761L66.664 71.7001C66.7055 71.6786 66.7423 71.6491 66.7724 71.6133C66.8025 71.5775 66.8253 71.5362 66.8394 71.4916C66.8535 71.447 66.8587 71.4001 66.8547 71.3535C66.8507 71.3069 66.8375 71.2616 66.816 71.2201C66.7779 71.151 66.718 71.0963 66.6458 71.0645C66.5735 71.0327 66.4927 71.0255 66.416 71.0441L62.56 72.0441L65.836 70.2481C65.932 70.1951 66.003 70.106 66.0334 70.0006C66.0638 69.8953 66.051 69.7821 65.998 69.6861C65.945 69.5901 65.8559 69.5191 65.7505 69.4887C65.6452 69.4583 65.532 69.4711 65.436 69.5241L61.676 71.4041L63.54 69.8041L64.164 69.0241C64.2005 68.9674 64.217 68.9002 64.2111 68.833C64.2052 68.7659 64.1772 68.7026 64.1314 68.6531C64.0856 68.6037 64.0246 68.5708 63.9581 68.5598C63.8916 68.5487 63.8233 68.5601 63.764 68.5921L63.02 69.1441C61.664 70.1721 58.416 72.6441 58.112 73.0481C57.712 73.5601 55.78 75.7761 55.78 75.7761C55.78 75.7761 52.472 78.4201 48.06 81.5081C45.9919 83.0144 43.8138 84.3635 41.544 85.5441C40.2 83.8521 36.16 78.6601 34.568 75.4801C33.366 73.1552 31.3686 71.3396 28.94 70.3641" stroke="#263238" stroke-width="0.4" stroke-linecap="round" stroke-linejoin="round"/>
<path d="M66.4001 71.0358L62.5441 72.0358L65.8201 70.2398C65.9161 70.1868 65.9871 70.0977 66.0175 69.9924C66.0479 69.887 66.0352 69.7738 65.9821 69.6778C65.9291 69.5818 65.8401 69.5108 65.7347 69.4804C65.6293 69.45 65.5161 69.4628 65.4201 69.5158L61.6601 71.3958L63.5241 69.7958L64.1481 69.0158C64.1846 68.9591 64.2012 68.8919 64.1953 68.8247C64.1893 68.7576 64.1613 68.6943 64.1155 68.6448C64.0697 68.5954 64.0087 68.5625 63.9422 68.5515C63.8757 68.5404 63.8074 68.5518 63.7481 68.5838L63.0041 69.1358C61.6481 70.1638 58.4001 72.6358 58.0961 73.0398C57.6961 73.5518 55.7641 75.7678 55.7641 75.7678C55.7641 75.7678 52.4561 78.4118 48.0441 81.4998C46.3441 82.6998 44.9681 83.5718 43.9121 84.2078L46.6041 89.7198C46.7921 89.5558 46.9801 89.3918 47.1641 89.2198C50.2521 86.3558 57.9641 77.5318 57.9641 77.5318C59.8841 77.0318 62.9481 74.4478 62.9481 74.4478L65.7961 74.0718C65.8851 74.0529 65.9639 74.0018 66.0174 73.9283C66.0709 73.8548 66.0953 73.764 66.0858 73.6736C66.0764 73.5832 66.0338 73.4994 65.9662 73.4385C65.8987 73.3776 65.811 73.3439 65.7201 73.3438L63.0761 73.5518L66.6761 71.6758C66.7176 71.6543 66.7545 71.6248 66.7846 71.589C66.8147 71.5532 66.8374 71.5119 66.8515 71.4673C66.8656 71.4227 66.8708 71.3758 66.8668 71.3292C66.8628 71.2826 66.8497 71.2373 66.8281 71.1958C66.7863 71.1237 66.7208 71.0684 66.6427 71.0392C66.5647 71.01 66.4789 71.0088 66.4001 71.0358Z" fill="#FFBE9D" stroke="#263238" stroke-width="0.4" stroke-linecap="round" stroke-linejoin="round"/>
<path d="M21.428 55.8998C21.428 55.8998 18.728 56.3238 17.268 54.7438C15.808 53.1638 18.096 51.1758 20.436 47.0998C22.776 43.0238 24.292 39.1758 28.836 38.2158C33.38 37.2558 38.836 40.9798 40.06 41.9758C41.284 42.9718 41.304 43.8758 40.716 44.1198C40.716 44.1198 26.288 49.8558 21.564 56.5198" fill="#2F945A"/>
<path d="M21.428 55.8998C21.428 55.8998 18.728 56.3238 17.268 54.7438C15.808 53.1638 18.096 51.1758 20.436 47.0998C22.776 43.0238 24.292 39.1758 28.836 38.2158C33.38 37.2558 38.836 40.9798 40.06 41.9758C41.284 42.9718 41.304 43.8758 40.716 44.1198C40.716 44.1198 26.288 49.8558 21.564 56.5198" stroke="#263238" stroke-width="0.4" stroke-linecap="round" stroke-linejoin="round"/>
<path d="M28.492 49.8198L21.292 52.9718" stroke="#263238" stroke-width="0.4" stroke-linecap="round" stroke-linejoin="round"/>
<path d="M21.424 57.2801C21.424 57.2801 27.6 51.8561 33.48 49.4201C39.36 46.9841 41.6 46.7561 41.6 45.9481C41.6 45.1401 40.728 44.1201 40.728 44.1201C40.728 44.1201 31.172 47.7201 27.392 50.5561C23.612 53.3921 19.2 55.5481 21.424 57.2801Z" fill="#92E3A9" stroke="#263238" stroke-width="0.4" stroke-linecap="round" stroke-linejoin="round"/>
<path d="M149.525 49.5205L156.827 74.9519H149.526L146.128 62.2362L149.525 49.5205Z" fill="#263238" stroke="#263238" stroke-width="0.589782" stroke-linecap="round" stroke-linejoin="round"/>
<path d="M150.085 46.8375L149.154 46L124.99 74.9524H144.884L150.085 46.8375Z" fill="white" stroke="#263238" stroke-width="0.589782" stroke-linecap="round" stroke-linejoin="round"/>
<path d="M149.154 46H129.261L124 74.9524H143.887L149.154 46Z" fill="white" stroke="#263238" stroke-width="0.589782" stroke-linecap="round" stroke-linejoin="round"/>
<path d="M133.881 64.7631L134.135 63.571H134.744L134.871 62.9714H134.264C134.307 62.7722 134.349 62.5719 134.392 62.3727H135.612L135.739 61.7772H136.349L136.223 62.3696H136.835L137.089 61.1723H138.923L138.797 61.7678H139.403L139.53 61.1723H138.921L139.049 60.5716H137.826L138.078 59.3847H136.243L136.116 59.9813H134.9L134.646 61.1775H135.251L135.124 61.7741H134.516L134.389 62.3717H133.779L133.906 61.773H132.073L132.2 61.1775H134.033L135.05 56.3926H135.663C135.54 56.9683 135.418 57.544 135.296 58.1197L135.282 58.1843H135.893L136.146 56.9923H136.755L136.501 58.1864H137.115L136.989 58.7819H140.045L139.918 59.3785H140.53L140.402 59.9802H139.793L139.666 60.5799H140.272L140.018 61.7772H140.631L140.377 62.9724H139.77L139.517 64.1655H140.115L139.988 64.7631H141.208L141.082 65.3597H139.256L139.002 66.5538H138.393L138.519 65.9573H137.293L137.42 65.3597H136.81L136.937 64.7631H138.154L138.281 64.1655H135.232L135.106 64.76H133.882L133.881 64.7631ZM137.928 62.9693L138.055 62.3748H137.448L137.322 62.9682H137.931L137.804 63.5637H139.022L139.148 62.9693H137.928ZM136.704 62.9693H136.104L135.978 63.5606H136.583L136.704 62.9693ZM138.568 59.9729H139.173L139.299 59.3806H138.694L138.568 59.9729Z" fill="#2F945A"/>
<path d="M129.78 58.1801L130.669 54H134.941L134.053 58.1801H129.78ZM131.155 54.5997L130.52 57.5835H133.57L134.204 54.5997H131.155Z" fill="#2F945A"/>
<path d="M142.611 58.1824H138.339L139.227 54.0034H143.5L142.611 58.1824ZM142.763 54.601H139.713L139.079 57.5838H142.129L142.763 54.601Z" fill="#2F945A"/>
<path d="M128.889 62.3701H133.162L132.274 66.5502H128L128.889 62.3701ZM132.424 62.9698H129.373L128.739 65.9536H131.79L132.424 62.9698Z" fill="#2F945A"/>
<path d="M135.659 56.3908L135.913 55.1946H135.303L135.557 54.0015H138.607L138.354 55.1925H137.756L137.629 55.7911H138.233L137.98 56.9842H137.371L137.497 56.3908H136.883L137.009 55.7943H136.4L136.273 56.3887H135.658L135.659 56.3908ZM136.527 55.1904H137.133L137.258 54.6001H136.652L136.527 55.1904Z" fill="#2F945A"/>
<path d="M132.58 59.3774L132.453 59.975H133.674L133.547 60.5716H131.716L131.462 61.7668H129.02L129.273 60.5778H129.878L129.752 61.1692H130.978L131.359 59.3774H132.581H132.58Z" fill="#2F945A"/>
<path d="M133.88 64.7603L133.753 65.3578H134.364L134.237 65.9544H134.846L134.719 66.552H132.891L133.271 64.7613H133.878L133.88 64.7603Z" fill="#2F945A"/>
<path d="M131.36 59.3781H130.138L130.011 59.9736H129.403L129.655 58.7847H131.484L131.357 59.3791L131.36 59.3781Z" fill="#2F945A"/>
<path d="M142.102 60.5733H141.496L141.75 59.3812H141.14L141.267 58.7847H142.482L142.102 60.5733Z" fill="#2F945A"/>
<path d="M132.579 59.3802L132.705 58.7847H133.924L133.798 59.3781H132.578L132.579 59.3802Z" fill="#2F945A"/>
<path d="M140.631 61.7728L140.757 61.1772H141.364L141.238 61.7707H140.625L140.631 61.7728Z" fill="#2F945A"/>
<path d="M141.115 62.373H141.72L141.594 62.9654H140.989L141.115 62.373Z" fill="#2F945A"/>
<path d="M137.112 58.1839L137.238 57.5884H137.846L137.72 58.1818H137.111L137.112 58.1839Z" fill="#2F945A"/>
<path d="M134.136 63.5692H133.526L133.652 62.9727H134.259L134.132 63.5692H134.136Z" fill="#2F945A"/>
<path d="M140.119 64.1648L140.245 63.5703H140.852L140.726 64.1637H140.119L140.119 64.1648Z" fill="#2F945A"/>
<path d="M140.396 59.9787H141.003L140.876 60.5753H140.269L140.396 59.9756L140.396 59.9787Z" fill="#2F945A"/>
<path d="M136.069 65.9551H135.463L135.589 65.3638H136.194L136.069 65.9551Z" fill="#2F945A"/>
<path d="M137.294 65.9561L137.167 66.5516H136.561L136.687 65.9581H137.296L137.294 65.9561Z" fill="#2F945A"/>
<path d="M140.832 66.5538H140.228L140.354 65.9614H140.958L140.832 66.5538Z" fill="#2F945A"/>
<path d="M137.09 61.1711H136.486L136.612 60.5776H137.22L137.094 61.1711H137.09Z" fill="#2F945A"/>
<path d="M133.082 56.9848H131.255L131.635 55.1973H133.462L133.082 56.9848Z" fill="#2F945A"/>
<path d="M139.815 56.9844L140.195 55.1968H142.022L141.642 56.9844H139.815Z" fill="#2F945A"/>
<path d="M129.476 65.3568L129.855 63.5703H131.683L131.303 65.3579L129.476 65.3568Z" fill="#2F945A"/>
</svg>
