<svg width="30" height="30" viewBox="0 0 30 30" fill="none" xmlns="http://www.w3.org/2000/svg">
<path d="M6.63469 26.875C6.00323 26.875 5.46875 26.6563 5.03125 26.2188C4.59375 25.7813 4.375 25.2468 4.375 24.6153V7.88471C4.375 7.25325 4.59375 6.71877 5.03125 6.28127C5.46875 5.84377 6.00323 5.62502 6.63469 5.62502H8.36531V2.98096H10.2884V5.62502H19.7597V2.98096H21.6347V5.62502H23.3653C23.9968 5.62502 24.5312 5.84377 24.9688 6.28127C25.4062 6.71877 25.625 7.25325 25.625 7.88471V24.6153C25.625 25.2468 25.4062 25.7813 24.9688 26.2188C24.5312 26.6563 23.9968 26.875 23.3653 26.875H6.63469ZM6.63469 25H23.3653C23.4616 25 23.5497 24.9599 23.6297 24.8797C23.7099 24.7997 23.75 24.7116 23.75 24.6153V12.8847H6.25V24.6153C6.25 24.7116 6.2901 24.7997 6.37031 24.8797C6.45031 24.9599 6.53844 25 6.63469 25ZM6.25 11.0097H23.75V7.88471C23.75 7.78846 23.7099 7.70033 23.6297 7.62033C23.5497 7.54012 23.4616 7.50002 23.3653 7.50002H6.63469C6.53844 7.50002 6.45031 7.54012 6.37031 7.62033C6.2901 7.70033 6.25 7.78846 6.25 7.88471V11.0097Z" fill="#1F212C"/>
<circle cx="10.625" cy="16.875" r="1.875" fill="#1F212C"/>
</svg>
