<svg width="212" height="166" viewBox="0 0 212 166" fill="none" xmlns="http://www.w3.org/2000/svg">
<path d="M179.645 123.131C179.589 123.107 179.559 123.044 179.578 122.985C181.182 118.07 185.303 114.285 190.335 113.107C190.398 113.092 190.462 113.132 190.476 113.195C190.491 113.258 190.452 113.322 190.389 113.337C185.437 114.496 181.38 118.221 179.802 123.058C179.782 123.12 179.715 123.154 179.653 123.134L179.645 123.131Z" fill="#263238"/>
<path d="M183.595 119.977C182.483 119.058 180.724 120.583 180.751 120.637C180.626 120.851 180.507 121.069 180.393 121.291C180.637 121.065 181.443 120.938 182.504 121.175C183.564 121.371 184.686 120.814 183.595 119.977Z" fill="#263238"/>
<path d="M180.266 117.473C179.144 116.611 178.595 118.483 179.328 119.356C180.017 120.235 180.389 120.952 180.374 121.282C180.473 121.053 180.578 120.826 180.688 120.603C180.632 120.596 181.298 118.329 180.266 117.473Z" fill="#263238"/>
<path d="M185.021 118.383C184.079 117.293 182.103 118.481 182.121 118.536C181.964 118.723 181.812 118.914 181.664 119.11C181.94 118.934 182.752 118.951 183.755 119.367C184.763 119.745 185.956 119.392 185.021 118.383Z" fill="#263238"/>
<path d="M182.161 115.355C181.199 114.318 180.355 116.058 180.933 117.037C181.467 118.016 181.715 118.779 181.647 119.098C181.782 118.892 181.921 118.69 182.065 118.492C182.012 118.478 183.035 116.375 182.161 115.355Z" fill="#263238"/>
<path d="M186.687 117.056C185.939 115.825 183.799 116.66 183.809 116.715C183.625 116.872 183.443 117.034 183.266 117.2C183.566 117.075 184.361 117.231 185.278 117.811C186.207 118.354 187.439 118.207 186.687 117.056Z" fill="#263238"/>
<path d="M184.374 113.592C183.599 112.409 182.48 113.981 182.888 115.04C183.251 116.093 183.371 116.886 183.252 117.186C183.417 117.007 183.588 116.833 183.762 116.663C183.71 116.642 185.063 114.745 184.374 113.592Z" fill="#263238"/>
<path d="M188.554 116.023C188.022 114.685 185.769 115.153 185.771 115.209C185.563 115.332 185.357 115.461 185.155 115.595C185.471 115.523 186.228 115.809 187.036 116.534C187.86 117.225 189.102 117.285 188.554 116.023Z" fill="#263238"/>
<path d="M186.854 112.221C186.287 110.925 184.916 112.29 185.142 113.403C185.325 114.502 185.31 115.303 185.144 115.579C185.336 115.431 185.533 115.287 185.733 115.149C185.684 115.12 187.339 113.474 186.854 112.221Z" fill="#263238"/>
<path d="M190.585 115.315C190.284 113.905 187.967 113.994 187.962 114.049C187.734 114.137 187.509 114.23 187.287 114.329C187.611 114.309 188.312 114.718 188.988 115.567C189.686 116.386 190.911 116.651 190.585 115.315Z" fill="#263238"/>
<path d="M189.551 111.28C189.21 109.906 187.611 111.026 187.646 112.162C187.639 113.277 187.489 114.065 187.278 114.31C187.493 114.196 187.712 114.087 187.934 113.983C187.888 113.947 189.814 112.596 189.551 111.28Z" fill="#263238"/>
<path d="M189.277 113.515C189.244 113.495 190.993 112.319 192.132 112.133C193.246 111.918 193.671 112.703 193.487 113.163C193.31 113.628 192.528 113.746 191.865 113.707C191.214 113.616 189.287 113.481 189.277 113.515Z" fill="#263238"/>
<path d="M189.248 113.587L189.239 113.582C189.21 113.566 189.194 113.532 189.2 113.499L189.202 113.492C189.208 113.471 189.213 113.455 189.242 113.444C189.523 113.174 191.141 112.215 192.12 112.055C192.668 111.949 193.138 112.074 193.406 112.399C193.599 112.633 193.66 112.944 193.56 113.192C193.321 113.821 192.199 113.805 191.861 113.785C191.226 113.697 189.472 113.575 189.304 113.588C189.286 113.595 189.266 113.594 189.248 113.587ZM192.949 112.256C192.764 112.18 192.504 112.141 192.148 112.21C191.249 112.356 189.981 113.119 189.515 113.433C189.68 113.439 189.937 113.456 190.337 113.485C190.852 113.523 191.528 113.58 191.877 113.629C192.511 113.666 193.253 113.557 193.414 113.135C193.493 112.938 193.442 112.689 193.285 112.499C193.221 112.422 193.114 112.324 192.949 112.256Z" fill="#263238"/>
<path d="M179.73 123.035C179.674 123.061 179.608 123.039 179.577 122.985C177.068 118.466 177.099 112.87 179.66 108.381C179.692 108.325 179.764 108.305 179.82 108.337C179.877 108.37 179.897 108.442 179.864 108.498C177.344 112.916 177.313 118.423 179.784 122.871C179.815 122.928 179.795 122.999 179.738 123.031L179.73 123.035Z" fill="#263238"/>
<path d="M180.108 117.995C178.678 118.183 178.598 120.51 178.655 120.527C178.728 120.764 178.806 121 178.891 121.235C178.892 120.902 179.347 120.225 180.243 119.609C181.108 118.966 181.463 117.765 180.108 117.995Z" fill="#263238"/>
<path d="M176.007 118.729C174.611 118.965 175.61 120.641 176.748 120.698C177.861 120.792 178.64 121.007 178.871 121.243C178.771 121.014 178.676 120.783 178.588 120.55C178.545 120.586 177.337 118.556 176.007 118.729Z" fill="#263238"/>
<path d="M179.909 115.865C178.469 115.813 177.995 118.069 178.048 118.093C178.078 118.335 178.115 118.578 178.157 118.819C178.216 118.497 178.781 117.913 179.769 117.462C180.732 116.98 181.285 115.866 179.909 115.865Z" fill="#263238"/>
<path d="M175.745 115.9C174.33 115.898 175.03 117.702 176.141 117.944C177.221 118.219 177.95 118.557 178.137 118.823C178.078 118.585 178.025 118.345 177.978 118.104C177.931 118.134 177.086 115.954 175.745 115.9Z" fill="#263238"/>
<path d="M180.071 113.741C178.66 113.451 177.816 115.587 177.863 115.618C177.852 115.86 177.848 116.103 177.849 116.346C177.962 116.041 178.617 115.564 179.665 115.287C180.695 114.976 181.426 113.973 180.071 113.741Z" fill="#263238"/>
<path d="M175.959 113.079C174.564 112.842 174.955 114.732 176.008 115.154C177.027 115.604 177.689 116.055 177.828 116.347C177.81 116.104 177.798 115.861 177.792 115.617C177.742 115.641 177.272 113.358 175.959 113.079Z" fill="#263238"/>
<path d="M180.586 111.671C179.242 111.15 178.052 113.119 178.095 113.155C178.044 113.392 177.998 113.631 177.959 113.87C178.121 113.589 178.846 113.229 179.927 113.131C180.994 112.997 181.883 112.127 180.586 111.671Z" fill="#263238"/>
<path d="M176.643 110.329C175.307 109.862 175.374 111.796 176.343 112.388C177.273 113.002 177.85 113.557 177.939 113.867C177.961 113.625 177.99 113.384 178.025 113.143C177.97 113.159 177.89 110.826 176.643 110.329Z" fill="#263238"/>
<path d="M181.448 109.7C180.21 108.961 178.698 110.719 178.735 110.761C178.644 110.987 178.56 111.215 178.481 111.446C178.687 111.195 179.463 110.959 180.546 111.041C181.62 111.087 182.649 110.37 181.448 109.7Z" fill="#263238"/>
<path d="M177.787 107.712C176.549 107.027 176.281 108.961 177.138 109.708C177.95 110.472 178.425 111.118 178.46 111.44C178.524 111.204 178.593 110.97 178.668 110.737C178.61 110.745 178.931 108.415 177.787 107.712Z" fill="#263238"/>
<path d="M179.239 109.433C179.202 109.444 179.53 107.362 180.17 106.401C180.77 105.439 181.634 105.662 181.846 106.109C182.066 106.556 181.621 107.209 181.141 107.668C180.631 108.083 179.221 109.403 179.239 109.433Z" fill="#263238"/>
<path d="M179.272 109.504L179.262 109.508C179.23 109.518 179.194 109.506 179.175 109.48L179.171 109.473C179.159 109.454 179.151 109.439 179.163 109.411C179.156 109.022 179.554 107.183 180.104 106.358C180.399 105.884 180.81 105.625 181.231 105.649C181.533 105.667 181.803 105.834 181.917 106.076C182.215 106.679 181.44 107.49 181.195 107.724C180.698 108.13 179.415 109.332 179.311 109.464C179.303 109.482 179.289 109.496 179.272 109.504ZM180.815 105.887C180.633 105.971 180.428 106.135 180.236 106.443C179.732 107.201 179.428 108.649 179.341 109.204C179.458 109.087 179.645 108.911 179.938 108.637C180.316 108.285 180.818 107.829 181.091 107.607C181.551 107.167 181.975 106.549 181.775 106.144C181.685 105.952 181.467 105.82 181.221 105.806C181.122 105.8 180.978 105.812 180.815 105.887Z" fill="#263238"/>
<path d="M-75.894 123.14H197.634" stroke="#263238" stroke-width="0.4" stroke-linecap="round" stroke-linejoin="round"/>
<path d="M75.7043 78.8067C75.7043 78.8067 79.5477 88.6167 80.4621 91.7255C81.3764 94.8344 81.7422 99.5891 81.7422 99.5891L52.4098 102.558C52.4098 102.558 47.3619 101.235 47.7276 98.4919C48.0934 95.7488 51.3833 90.6439 55.9569 86.2393C60.5306 81.8348 67.478 78.1929 69.6725 78.1929C71.867 78.1929 75.7043 78.8067 75.7043 78.8067Z" fill="#757575" stroke="#263238" stroke-width="0.4" stroke-linecap="round" stroke-linejoin="round"/>
<path d="M-4.46673 140.971C-4.46673 140.971 -3.32782 141.99 -2.78834 142.409C-2.24882 142.829 -1.34966 143.608 -0.450545 143.908C0.448655 144.208 0.928202 144.388 0.868278 144.867C0.808322 145.347 0.808306 145.826 0.508586 145.886C0.208866 145.946 -10.581 145.886 -10.581 145.886C-10.581 145.886 -10.8807 145.407 -10.8208 144.328C-10.7608 143.249 -10.4012 142.409 -10.4012 142.409C-10.4012 142.409 -7.64376 141.63 -6.44488 140.971C-5.246 140.311 -4.46673 140.971 -4.46673 140.971Z" fill="#FD7E50" stroke="#263238" stroke-width="0.4" stroke-linecap="round" stroke-linejoin="round"/>
<path d="M-10.7599 145.347H0.812012C0.771772 145.627 0.704407 145.847 0.508447 145.886C0.208727 145.946 -10.5812 145.886 -10.5812 145.886C-10.5812 145.886 -10.6866 145.712 -10.7599 145.347Z" fill="#FD7E50" stroke="#263238" stroke-width="0.4" stroke-linecap="round" stroke-linejoin="round"/>
<path d="M-5.04989 74.3205C-5.04989 74.3205 -3.86465 75.5396 -2.92465 76.0566C-1.98473 76.5736 -0.433783 77.0435 -0.151823 77.6075C0.130177 78.1715 0.459189 82.0723 0.0361893 84.0932C-0.386811 86.1141 -0.903777 87.5241 -0.903777 87.5241L-1.23278 94.9967L-0.715764 100.73C-0.715764 100.73 -6.40249 101.482 -10.0213 101.905C-13.6402 102.328 -16.131 101.764 -16.131 101.764C-16.131 101.764 -16.3191 98.3335 -16.3661 96.5477C-16.4131 94.7617 -16.507 86.3491 -16.507 86.3491L-19.3739 91.1429C-19.3739 91.1429 -21.3702 92.4333 -24.6013 90.3465C-25.5128 89.7579 -22.009 86.0016 -21.7741 84.8267C-21.5391 83.6517 -20.0319 81.1324 -20.0319 81.1324C-20.0319 81.1324 -18.8099 77.4665 -17.87 76.5266C-16.93 75.5866 -15.6611 75.3516 -14.2981 75.1636C-12.9352 74.9756 -10.688 74.0464 -10.688 74.0464L-5.04989 74.3205Z" fill="#FD7E50" stroke="#263238" stroke-width="0.4" stroke-linecap="round" stroke-linejoin="round"/>
<path d="M-6.73369 62.5742C-6.73369 62.5742 -5.40251 63.5922 -4.97183 63.6705C-4.54111 63.7488 -3.01413 63.2398 -2.46597 63.2006C-1.91785 63.1615 -0.899853 63.9837 -0.899853 63.9837L-1.05644 65.0017C-1.05644 65.0017 0.43139 64.6493 0.74463 64.062C1.05787 63.4747 0.000704765 62.6916 0.0398688 62.4959C0.0789888 62.3001 0.627141 61.5562 0.235621 61.3213C-0.155939 61.0864 -1.87869 60.5382 -1.87869 60.5382C-1.87869 60.5382 -2.77922 58.6588 -3.40566 58.6197C-4.03211 58.5805 -5.20674 58.8154 -5.20674 58.8154C-5.20674 58.8154 -5.83322 58.2282 -6.5771 58.3456C-7.32102 58.463 -8.41733 59.8334 -8.41733 59.8334C-8.41733 59.8334 -10.0618 59.6768 -10.375 60.3816C-10.6882 61.0864 -11.0014 62.026 -10.7665 62.77C-10.5316 63.5139 -10.2967 65.08 -10.2967 65.08V65.6673C-10.2967 65.6673 -9.63109 65.7848 -9.31785 66.0589C-9.00461 66.3329 -9.04382 66.5678 -8.80886 66.7636C-8.57394 66.9594 -8.45645 66.9594 -8.29985 66.8811C-8.14325 66.8028 -8.06493 66.5678 -7.98664 66.098C-7.90833 65.6282 -7.83002 65.5107 -7.51682 65.3932C-7.20358 65.2758 -6.77287 65.0409 -6.45967 64.6885C-6.14643 64.3361 -5.7549 64.0229 -5.98982 63.7096C-6.22474 63.3964 -6.73369 62.5742 -6.73369 62.5742Z" fill="#263238" stroke="#263238" stroke-width="0.4" stroke-linecap="round" stroke-linejoin="round"/>
<path d="M63.2199 101.149C63.3687 100.681 58.5716 101.42 58.5716 101.42C58.5716 101.42 57.0541 94.7217 57.4762 93.9982C57.8982 93.2747 61.8154 91.9017 61.8154 91.9017L70.9194 91.4194C70.9194 91.4194 74.839 93.0775 74.8992 93.4995C74.9312 93.7236 77.4892 96.8863 78.5754 99.3902L63.2199 101.149Z" fill="#FFFDFD" stroke="#263238" stroke-width="0.4" stroke-linecap="round" stroke-linejoin="round"/>
<path d="M69.0278 91.0683C69.0278 91.0683 69.5989 91.6393 69.5989 93.2575C69.5989 94.8756 68.5518 96.9696 68.5518 96.9696L64.9349 95.0659L60.733 97.2161C60.733 97.2161 60.3138 93.2109 61.8153 91.9017C63.3168 90.5923 68.1711 89.9261 69.0278 91.0683Z" fill="#FFFDFD" stroke="#263238" stroke-width="0.4" stroke-linecap="round" stroke-linejoin="round"/>
<path d="M68.395 91.7959C68.395 91.7959 67.6276 93.9976 66.8307 95.4918C66.0338 96.986 64.2408 98.0817 64.2408 98.0817C64.2408 98.0817 63.3443 95.0933 63.2447 93.5992C63.1451 92.105 63.3443 91.3081 63.3443 91.3081L68.395 91.7959Z" fill="#FFBE9D" stroke="#263238" stroke-width="0.4" stroke-linecap="round" stroke-linejoin="round"/>
<path d="M71.16 87.7922C71.16 87.7922 70.8264 91.0808 70.4927 91.3668C70.1591 91.6528 68.3957 91.7958 68.3957 91.7958L64.5827 92.034C64.2015 91.3191 63.9632 87.2203 65.2977 84.0746C66.6322 80.929 68.3003 80.4047 68.634 80.9766C68.634 80.9766 70.5881 83.6456 70.4927 84.2176C70.3975 84.7895 70.2068 85.0755 70.3021 85.3615C70.3975 85.6474 71.5413 86.1717 71.6843 86.696C71.8273 87.2203 71.16 87.7922 71.16 87.7922Z" fill="#FFBE9D" stroke="#263238" stroke-width="0.4" stroke-linecap="round" stroke-linejoin="round"/>
<path d="M70.2543 88.4117C70.2543 88.4117 69.2057 88.4117 68.6814 87.9351" stroke="#263238" stroke-width="0.4" stroke-linecap="round" stroke-linejoin="round"/>
<path d="M69.4446 85.4567C69.4446 85.4567 68.9203 85.3137 68.5867 85.6474" stroke="#263238" stroke-width="0.4" stroke-linecap="round" stroke-linejoin="round"/>
<path d="M69.7777 84.4084C69.7777 84.4084 68.8721 83.5506 68.3479 84.6944" stroke="#263238" stroke-width="0.4" stroke-linecap="round" stroke-linejoin="round"/>
<path d="M68.6336 80.9766C68.6336 80.9766 68.2522 84.2176 67.156 86.553C66.0598 88.8884 65.5356 89.6033 65.5356 89.6033C65.5356 89.6033 65.5356 91.4621 66.1075 91.9864C66.6794 92.5107 67.299 92.463 67.299 92.463C67.299 92.463 67.9663 93.4162 65.8215 93.7022C63.6768 93.9881 63.1048 92.9873 62.3422 92.8919C61.5797 92.7966 61.1984 92.9396 61.1984 92.9396C61.1984 92.9396 61.0077 92.3677 61.1507 91.7481C61.2937 91.1285 61.389 90.6519 61.389 90.6519C61.389 90.6519 59.9592 88.9837 60.0068 87.0773C60.0545 85.1708 59.4826 84.0746 60.5311 81.8345C61.5797 79.5944 67.1084 79.2131 68.1569 79.1655C69.2055 79.1178 69.3484 79.2131 69.8251 79.9757C70.3017 80.7383 71.6838 81.8822 71.6838 82.7401C71.6838 83.5979 70.3017 85.3615 70.3017 85.3615L70.4923 84.2176C70.4923 84.2176 69.3484 82.2635 68.6336 80.9766Z" fill="#263238" stroke="#263238" stroke-width="0.4" stroke-linecap="round" stroke-linejoin="round"/>
<path d="M33.8582 134.594C78.8657 133.165 115.352 136.601 115.352 142.269C115.352 144.661 108.852 147.069 97.9547 149.16C107.805 149.36 114.985 149.977 114.985 150.709C114.985 151.602 104.286 152.326 91.0883 152.326C86.3124 152.326 81.8676 152.231 78.1348 152.068C65.3862 153.513 50.184 154.601 33.8582 155.119C-11.1494 156.548 -47.6353 153.112 -47.6353 147.444C-47.6353 141.776 -11.1494 136.023 33.8582 134.594Z" fill="#263238" stroke="#263238" stroke-width="0.4" stroke-linecap="round" stroke-linejoin="round"/>
<path d="M113.289 127.26C113.289 127.26 112.298 129.408 111.59 130.14C110.883 130.872 98.097 134.036 98.097 134.036L56.6717 143.102L51.6516 142.565L34.1079 143.127C34.1079 143.127 30.6072 134.563 34.4299 126.127C38.2526 117.691 57.3659 114.395 62.7703 116.109C68.1748 117.822 80.8291 123.359 89.9245 120.327C99.0198 117.295 106.27 111.363 109.301 112.154C112.333 112.945 113.783 117.822 113.783 119.932C113.783 122.041 113.289 127.26 113.289 127.26Z" fill="#263238" stroke="#263238" stroke-width="0.4" stroke-linecap="round" stroke-linejoin="round"/>
<path d="M24.231 138.991C24.5922 130.284 30.4168 123.211 37.2408 123.193H44.6386L44.5092 126.312C47.3994 129.18 49.1569 133.761 48.9426 138.928C48.7282 144.094 46.5903 148.685 43.4615 151.569L43.3305 154.726H35.9327C29.1088 154.743 23.8698 147.698 24.231 138.991Z" fill="#263238" stroke="#263238" stroke-width="0.4" stroke-linecap="round" stroke-linejoin="round"/>
<path d="M42.2454 154.667C35.4798 153.918 30.7737 146.278 31.7342 137.603C32.6947 128.928 38.9579 122.503 45.7236 123.252C52.4892 124.001 57.1953 131.64 56.2348 140.316C55.2743 148.991 49.011 155.416 42.2454 154.667Z" fill="#878787" stroke="#263238" stroke-width="0.4" stroke-linecap="round" stroke-linejoin="round"/>
<path d="M34.4256 144.325L34.4252 144.324C34.3042 143.934 34.1983 143.535 34.1081 143.126L34.1078 143.125C34.0176 142.716 33.9433 142.298 33.8855 141.872C33.7597 140.943 33.71 139.978 33.7512 138.985C33.8389 136.871 34.3179 134.875 35.0903 133.106L35.1117 133.058C35.2843 132.667 35.4711 132.287 35.6717 131.92C35.6841 131.897 35.6963 131.874 35.7088 131.851C35.9098 131.488 36.1237 131.136 36.3503 130.799C36.3623 130.781 36.3738 130.762 36.386 130.745C38.3844 127.798 41.3217 125.91 44.5263 125.901C47.2703 125.894 49.7026 127.269 51.4472 129.507C51.5627 129.656 51.6752 129.807 51.7845 129.963C51.8934 130.118 51.9994 130.277 52.1019 130.439L52.1043 130.443C52.2053 130.603 52.3032 130.766 52.3979 130.932L52.4055 130.945C52.4979 131.108 52.5872 131.274 52.6734 131.444L52.6861 131.468C52.7696 131.633 52.8499 131.8 52.9273 131.971C52.9334 131.984 52.9398 131.997 52.9459 132.011C53.0203 132.176 53.0913 132.343 53.1597 132.513C53.1676 132.533 53.1759 132.552 53.1838 132.572C53.2492 132.737 53.3113 132.904 53.371 133.073C53.3801 133.098 53.3898 133.124 53.3987 133.15C53.4553 133.312 53.5084 133.477 53.5594 133.644C53.5697 133.677 53.5807 133.71 53.5907 133.744C53.6385 133.903 53.6827 134.065 53.7255 134.229C53.7363 134.27 53.748 134.311 53.7586 134.352C53.798 134.509 53.834 134.667 53.8687 134.826C53.8796 134.876 53.8915 134.925 53.9019 134.975C53.9335 135.127 53.9616 135.281 53.9888 135.436C53.999 135.494 54.0105 135.551 54.0201 135.609C54.0447 135.758 54.0652 135.909 54.0856 136.061C54.0944 136.125 54.1047 136.19 54.1127 136.255C54.1306 136.402 54.1444 136.55 54.1584 136.699C54.1651 136.77 54.1735 136.84 54.1793 136.911C54.1911 137.058 54.1986 137.206 54.2065 137.354C54.2104 137.429 54.2165 137.502 54.2194 137.577C54.2255 137.733 54.2271 137.891 54.2288 138.049C54.2295 138.117 54.2325 138.183 54.2324 138.251C54.2322 138.477 54.2275 138.704 54.2181 138.933C54.2066 139.21 54.1861 139.485 54.1614 139.758C54.1554 139.824 54.1483 139.889 54.1416 139.954C54.1176 140.189 54.089 140.422 54.0555 140.653C54.0504 140.689 54.0459 140.725 54.0405 140.76C53.9538 141.334 53.8379 141.895 53.696 142.442C52.9901 145.162 51.6277 147.526 49.8628 149.225C49.8409 149.246 49.8193 149.267 49.7973 149.288C49.5813 149.493 49.3595 149.687 49.1321 149.872C49.1167 149.884 49.1011 149.896 49.0856 149.909C47.4304 151.236 45.4919 152.012 43.4429 152.017C41.3798 152.023 39.4933 151.246 37.9417 149.91C36.3651 148.552 35.1371 146.615 34.4256 144.325Z" fill="white" stroke="#263238" stroke-width="0.4" stroke-linecap="round" stroke-linejoin="round"/>
<path d="M34.9228 139.383C34.9854 137.864 35.289 136.417 35.7837 135.101L39.8494 137.648C39.6737 138.188 39.5619 138.767 39.5369 139.374C39.5334 139.461 39.5367 139.545 39.5366 139.631L34.9191 140.383C34.9092 140.053 34.909 139.72 34.9228 139.383Z" fill="#263238" stroke="#263238" stroke-width="0.4" stroke-linecap="round" stroke-linejoin="round"/>
<path d="M42.1274 134.71C41.7052 134.941 41.3176 135.259 40.9758 135.644L38.1131 131.24C39.1074 130.152 40.2823 129.33 41.5615 128.862L42.1274 134.71Z" fill="#263238" stroke="#263238" stroke-width="0.4" stroke-linecap="round" stroke-linejoin="round"/>
<path d="M40.1172 142.241C40.3242 142.657 40.5812 143.026 40.8773 143.34L38.5267 148.601C37.4001 147.657 36.4796 146.367 35.8492 144.844L40.1172 142.241Z" fill="#263238" stroke="#263238" stroke-width="0.4" stroke-linecap="round" stroke-linejoin="round"/>
<path d="M47.0344 136.634L51.18 133.75C51.7881 135.167 52.1407 136.791 52.1704 138.53L47.5361 138.662C47.4867 137.923 47.3115 137.236 47.0344 136.634Z" fill="#263238" stroke="#263238" stroke-width="0.4" stroke-linecap="round" stroke-linejoin="round"/>
<path d="M45.6243 134.881C45.2858 134.643 44.9135 134.471 44.5171 134.372L45.1952 128.525C46.6618 128.785 47.9891 129.519 49.0825 130.605L45.6243 134.881Z" fill="#263238" stroke="#263238" stroke-width="0.4" stroke-linecap="round" stroke-linejoin="round"/>
<path d="M42.8937 144.421C43.038 144.441 43.1844 144.453 43.3337 144.453C43.7566 144.452 44.1671 144.367 44.5561 144.212L46.8286 149.251C45.6815 149.928 44.4143 150.31 43.0927 150.312C42.7318 150.313 42.3782 150.282 42.0313 150.228L42.8937 144.421Z" fill="#263238" stroke="#263238" stroke-width="0.4" stroke-linecap="round" stroke-linejoin="round"/>
<path d="M47.0683 141.54L51.6521 142.565C51.1784 144.241 50.403 145.744 49.4157 146.973L46.4737 142.632C46.706 142.301 46.9045 141.934 47.0683 141.54Z" fill="#263238" stroke="#263238" stroke-width="0.4" stroke-linecap="round" stroke-linejoin="round"/>
<path d="M93.6113 130.188C93.7807 122.892 96.5138 116.965 99.7156 116.951H107.096L106.482 143.372H99.1019C95.9 143.387 93.4418 137.484 93.6113 130.188Z" fill="#263238" stroke="#263238" stroke-width="0.4" stroke-linecap="round" stroke-linejoin="round"/>
<path d="M100.992 130.188C100.822 137.484 103.281 143.387 106.482 143.372C109.684 143.358 112.417 137.431 112.587 130.135C112.756 122.839 110.298 116.936 107.096 116.951C103.894 116.965 101.161 122.892 100.992 130.188Z" fill="#878787" stroke="#263238" stroke-width="0.4" stroke-linecap="round" stroke-linejoin="round"/>
<path d="M102.304 134.658L102.304 134.657C102.247 134.331 102.197 133.996 102.155 133.653L102.155 133.652C102.113 133.31 102.078 132.959 102.051 132.602C101.992 131.824 101.968 131.015 101.988 130.184C102.029 128.412 102.254 126.739 102.616 125.258L102.626 125.217C102.707 124.889 102.795 124.571 102.889 124.263C102.895 124.244 102.9 124.225 102.906 124.206C103.001 123.901 103.101 123.607 103.207 123.324C103.213 123.309 103.218 123.293 103.224 123.278C104.162 120.809 105.54 119.227 107.043 119.22C108.331 119.214 109.472 120.366 110.291 122.242C110.345 122.366 110.398 122.493 110.449 122.624C110.5 122.754 110.55 122.887 110.598 123.023L110.599 123.026C110.647 123.16 110.692 123.296 110.737 123.436L110.74 123.447C110.784 123.583 110.826 123.722 110.866 123.864L110.872 123.885C110.911 124.023 110.949 124.163 110.985 124.306C110.988 124.317 110.991 124.328 110.994 124.34C111.029 124.478 111.062 124.618 111.094 124.761C111.098 124.777 111.102 124.793 111.106 124.81C111.136 124.948 111.165 125.088 111.193 125.229C111.198 125.251 111.202 125.272 111.206 125.294C111.233 125.43 111.258 125.568 111.282 125.708C111.287 125.736 111.292 125.763 111.297 125.791C111.319 125.925 111.34 126.061 111.36 126.198C111.365 126.233 111.37 126.267 111.375 126.302C111.394 126.433 111.411 126.565 111.427 126.699C111.432 126.74 111.438 126.781 111.443 126.823C111.457 126.951 111.471 127.08 111.483 127.21C111.488 127.258 111.494 127.306 111.498 127.355C111.51 127.48 111.519 127.606 111.529 127.733C111.533 127.787 111.538 127.841 111.541 127.896C111.55 128.019 111.556 128.143 111.563 128.268C111.566 128.327 111.57 128.386 111.573 128.445C111.578 128.568 111.582 128.693 111.585 128.817C111.587 128.879 111.59 128.941 111.592 129.003C111.594 129.134 111.595 129.267 111.596 129.399C111.596 129.456 111.598 129.511 111.598 129.568C111.597 129.758 111.595 129.948 111.591 130.14C111.586 130.372 111.576 130.602 111.564 130.831C111.561 130.886 111.558 130.941 111.555 130.995C111.544 131.192 111.53 131.388 111.515 131.581C111.512 131.611 111.51 131.641 111.508 131.671C111.467 132.151 111.413 132.621 111.346 133.08C111.015 135.359 110.375 137.34 109.547 138.763C109.537 138.781 109.527 138.799 109.517 138.816C109.415 138.988 109.311 139.151 109.205 139.306C109.197 139.316 109.19 139.326 109.183 139.337C108.406 140.449 107.496 141.099 106.535 141.103C105.567 141.108 104.682 140.457 103.954 139.338C103.214 138.2 102.638 136.577 102.304 134.658Z" fill="white" stroke="#263238" stroke-width="0.4" stroke-linecap="round" stroke-linejoin="round"/>
<path d="M-49.9508 128.362C-49.9508 128.362 -49.6753 122.852 -48.9865 120.924C-48.2977 118.995 -46.2314 116.102 -46.2314 116.102C-46.2314 116.102 -44.165 111.281 -40.7212 108.25C-37.2773 105.22 -31.6293 102.189 -30.2518 101.5C-28.8742 100.811 -27.0834 100.398 -24.466 98.6073C-21.8487 96.8165 -5.5936 85.5206 -0.496635 82.4899C4.60028 79.4593 15.6208 77.9441 17.8249 77.5308C20.0289 77.1175 45.3759 75.3267 54.1922 75.3267C63.0085 75.3267 81.1922 75.7399 91.2484 79.5971C91.2484 79.5971 94.5546 80.5614 94.9678 81.5257C95.381 82.4899 95.6565 83.1787 95.6565 83.1787L105.575 97.643C105.575 97.643 109.157 97.3675 110.259 100.398C111.361 103.429 110.947 107.561 110.947 107.561C110.947 107.561 113.565 114.036 113.702 118.857C113.84 123.679 113.289 127.26 113.289 127.26C113.289 127.26 113.978 118.444 111.912 115.689C109.845 112.934 105.575 115 103.922 119.959C102.269 124.919 100.34 134.148 100.34 134.148L56.6718 143.102C56.6718 143.102 58.8759 131.531 55.9831 124.919C53.0902 118.306 39.5901 118.72 37.1106 130.704C34.631 142.689 35.4575 144.893 35.4575 144.893C35.4575 144.893 26.2279 146.822 -1.8742 146.408C-29.9763 145.995 -45.4049 142.689 -49.5375 141.587C-49.5375 141.587 -50.5018 136.49 -50.7773 133.459C-51.0528 130.429 -49.9508 128.362 -49.9508 128.362ZM50.1973 100.674C50.4728 101.362 51.0238 101.776 51.0238 101.776C52.1259 102.878 55.1565 101.776 55.1565 101.776C55.1565 101.776 68.2643 99.6923 79.9841 97.8645C79.277 90.3384 75.7873 83.0807 73.6493 79.2445C71.4251 79.4257 66.6215 80.0299 61.08 84.0053C54.7433 88.5512 49.9218 99.9849 50.1973 100.674Z" fill="#FD7E50" stroke="#263238" stroke-width="0.4" stroke-linecap="round" stroke-linejoin="round"/>
<path d="M74.8985 93.4995C74.8985 93.4995 80.2775 99.7751 80.4767 100.472C80.676 101.17 80.1779 103.461 78.2853 103.56C76.3926 103.66 65.9442 99.8822 65.9442 99.8822L72.3345 99.0271L71.8105 97.484" fill="#FFFDFD"/>
<path d="M74.8985 93.4995C74.8985 93.4995 80.2775 99.7751 80.4767 100.472C80.676 101.17 80.1779 103.461 78.2853 103.56C76.3926 103.66 65.9442 99.8822 65.9442 99.8822L72.3345 99.0271L71.8105 97.484" stroke="#263238" stroke-width="0.4" stroke-linecap="round" stroke-linejoin="round"/>
<path d="M77.7878 98.5796L72.3351 99.027" stroke="#263238" stroke-width="0.4" stroke-linecap="round" stroke-linejoin="round"/>
<path opacity="0.15" d="M-50.7773 133.46C-51.0528 130.429 -49.9508 128.363 -49.9508 128.363C-49.9508 128.363 -49.8625 126.599 -49.6612 124.719C-32.4247 129.805 -1.58285 130.148 7.01852 129.389C16.8991 128.517 34.43 126.127 35.2072 123.286C35.9844 120.445 42.7629 113.987 47.4126 112.243C51.3981 110.749 97.6556 104.344 110.79 102.544C111.193 105.075 110.947 107.562 110.947 107.562C110.947 107.562 113.565 114.036 113.702 118.858C113.84 123.679 113.289 127.261 113.289 127.261C113.289 127.261 113.978 118.444 111.912 115.689C109.845 112.934 105.575 115 103.922 119.96C102.269 124.919 100.34 134.148 100.34 134.148L56.6718 143.102C56.6718 143.102 58.8759 131.531 55.9831 124.919C53.0902 118.306 39.5901 118.72 37.1106 130.704C34.631 142.689 35.4575 144.893 35.4575 144.893C35.4575 144.893 26.2279 146.822 -1.87418 146.409C-29.9762 145.995 -45.4048 142.689 -49.5375 141.587C-49.5375 141.587 -50.5018 136.49 -50.7773 133.46Z" fill="black"/>
<path d="M58.3574 98.7021C57.7693 95.6639 55.8093 89.9795 55.8093 89.9795C55.8093 89.9795 52.545 94.6019 51.0617 97.8382C49.5784 101.074 51.0616 102.288 52.4101 102.558C53.7586 102.827 59.0176 101.074 59.0176 101.074L58.3574 98.7021Z" fill="#263238" stroke="#263238" stroke-width="0.4" stroke-linecap="round" stroke-linejoin="round"/>
<path d="M77.423 79.2319C80.116 79.3867 83.9042 79.7854 86.8401 80.4236C90.0085 81.1124 91.1106 81.2501 91.6616 81.8011C92.2126 82.3522 97.5851 89.1022 99.5137 93.9236C99.5137 93.9236 99.2382 95.1635 97.9984 95.1635C97.5477 95.1635 91.7616 96.0375 84.5807 97.1499C83.3795 92.8752 80.9635 85.3437 77.423 79.2319Z" fill="#757575" stroke="#263238" stroke-width="0.4" stroke-linecap="round" stroke-linejoin="round"/>
<path d="M79.86 104.363L83.7785 103.655C83.7785 103.655 84.7375 103.96 84.4472 104.92C84.1569 105.879 83.6379 105.774 83.6379 105.774L80.3753 106.299C80.3753 106.299 79.5991 106.383 79.4327 105.609C79.2665 104.835 79.0465 104.735 79.86 104.363Z" stroke="#263238" stroke-width="0.4" stroke-linecap="round" stroke-linejoin="round"/>
<path d="M99.6726 100.949L102.664 100.375C102.664 100.375 103.397 100.622 103.175 101.401C102.953 102.181 102.557 102.096 102.557 102.096L100.066 102.522C100.066 102.522 99.4733 102.59 99.3464 101.962C99.2194 101.333 99.0514 101.252 99.6726 100.949Z" stroke="#263238" stroke-width="0.4" stroke-linecap="round" stroke-linejoin="round"/>
<path d="M75.7043 78.8066C75.7043 78.8066 81.2907 89.1953 82.2708 97.82" stroke="#263238" stroke-width="0.4" stroke-linecap="round" stroke-linejoin="round"/>
<path d="M83.5449 99.584C83.5449 99.584 86.0931 103.896 86.1911 105.366C86.2891 106.837 85.995 124.478 85.505 127.712" stroke="#263238" stroke-width="0.4" stroke-linecap="round" stroke-linejoin="round"/>
<path d="M56.5928 105.758C56.5928 105.758 58.749 112.913 58.847 118.303C58.945 123.694 59.043 133.788 59.043 133.788" stroke="#263238" stroke-width="0.4" stroke-linecap="round" stroke-linejoin="round"/>
<path d="M99.8145 95.8599C99.8145 95.8599 104.421 100.074 104.813 101.446C105.205 102.818 104.715 114.579 104.715 114.579" stroke="#263238" stroke-width="0.4" stroke-linecap="round" stroke-linejoin="round"/>
<path d="M98.9316 127.908C98.9316 127.908 98.2456 129.868 96.7755 130.358C95.3054 130.848 59.631 137.709 59.631 137.709" stroke="#263238" stroke-width="0.4" stroke-linecap="round" stroke-linejoin="round"/>
<path d="M0.472656 117.084L-2.2843 122.723C-2.2843 122.723 -17.6982 123.099 -19.4527 123.225C-21.2071 123.35 -23.0869 124.227 -25.0919 123.225C-27.097 122.222 -35.7439 121.094 -36.7464 121.094C-37.7489 121.094 -39.0021 121.971 -39.0021 121.971C-39.0021 121.971 -36.7464 116.332 -35.8691 115.831C-34.9919 115.33 -34.1147 115.455 -33.7388 115.455C-33.3628 115.455 -15.0666 114.076 0.472656 117.084Z" fill="#263238" stroke="#263238" stroke-width="0.4" stroke-linecap="round" stroke-linejoin="round"/>
<path d="M29.5244 105.828C29.5244 105.828 36.0781 104.82 38.5988 105.702C41.1195 106.584 39.8591 109.987 35.574 113.138C31.2888 116.289 27.7599 119.313 23.3487 119.818C18.9375 120.322 11.3755 121.96 10.9974 120.574C10.6193 119.187 12.0057 114.146 17.0471 110.491C22.0884 106.836 29.5244 105.828 29.5244 105.828Z" fill="white" stroke="#263238" stroke-width="0.4" stroke-linecap="round" stroke-linejoin="round"/>
<path d="M-23.1568 98.643L-21.8986 99.0232C-21.8986 99.0232 -19.5606 99.0937 -15.8191 99.1969C-12.6126 99.2908 -8.37807 99.4082 -3.69758 99.5303C2.76226 99.704 10.067 99.8824 16.663 100.023C26.7471 100.234 35.1879 100.342 36.4555 100.155C38.6337 99.8354 41.0703 99.0467 43.3331 97.0656C44.6053 95.9577 45.8259 94.4695 46.9151 92.4695C49.9431 86.9205 57.6282 80.118 57.6282 80.118C45.5301 78.7284 16.6676 79.2355 13.3908 79.3622C12.574 79.3903 11.5271 79.5171 10.3629 79.7284C6.8653 80.3481 2.30218 81.7236 -0.345581 83.5216C-0.815022 83.8409 -1.57087 84.3432 -2.51919 84.977C-4.73503 86.4557 -8.02126 88.634 -11.3216 90.8218C-13.3121 92.1362 -15.3073 93.4555 -17.0772 94.6291C-20.5512 96.9201 -23.1568 98.643 -23.1568 98.643Z" fill="white" stroke="#263238" stroke-width="0.4" stroke-linecap="round" stroke-linejoin="round"/>
<path d="M-0.345509 83.5217C-0.814949 83.841 -1.5708 84.3433 -2.51912 84.9771L16.663 100.023C26.7471 100.235 35.188 100.343 36.4556 100.155C38.6338 99.8355 41.0703 99.0468 43.3331 97.0657L10.3629 79.7285C6.86537 80.3482 2.30225 81.7237 -0.345509 83.5217Z" fill="#263238" stroke="#263238" stroke-width="0.4" stroke-linecap="round" stroke-linejoin="round"/>
<path d="M4.00977 113.313C3.24193 114.091 2.50029 114.914 1.79717 115.784" stroke="#263238" stroke-width="0.4" stroke-linecap="round" stroke-linejoin="round"/>
<path d="M22.5918 102.173C22.5918 102.173 13.0525 104.978 5.33315 112.04" stroke="#263238" stroke-width="0.4" stroke-linecap="round" stroke-linejoin="round"/>
<path d="M15.0303 136.58C15.0303 138.042 16.441 139.227 18.1812 139.227C19.9214 139.227 21.332 138.042 21.332 136.58C21.332 135.118 19.9213 133.933 18.1812 133.933C16.441 133.933 15.0303 135.118 15.0303 136.58Z" fill="#FD7E50" stroke="#263238" stroke-width="0.4" stroke-linecap="round" stroke-linejoin="round"/>
<path d="M57.1454 101.15C57.1454 101.15 59.344 97.4472 60.7326 97.2158C62.1212 96.9843 68.0228 96.7529 69.2957 97.5629C70.5685 98.3729 70.2214 101.034 69.7585 101.729C69.2957 102.423 67.4442 102.77 65.8242 102.654C64.2041 102.539 58.7655 103.002 58.7655 103.002C58.7655 103.002 55.5254 105.316 54.3682 105.084C53.2111 104.853 51.7068 102.307 52.7482 100.919C53.7897 99.5301 55.4097 99.8772 57.1454 101.15Z" fill="#263238" stroke="#263238" stroke-width="0.4" stroke-linecap="round" stroke-linejoin="round"/>
<path d="M57.1455 101.15L53.3269 101.96" stroke="#263238" stroke-width="0.4" stroke-linecap="round" stroke-linejoin="round"/>
<path d="M91.2484 79.5971C91.2484 79.5971 94.5545 80.5614 94.9678 81.5257C95.3811 82.4899 95.6566 83.1787 95.6566 83.1787L105.575 97.643C105.575 97.643 109.157 97.3675 110.259 100.398C111.361 103.429 110.947 107.561 110.947 107.561C110.947 107.561 113.565 114.036 113.702 118.857C113.84 123.679 113.289 127.26 113.289 127.26C113.289 127.26 113.978 118.444 111.912 115.689C109.845 112.934 105.575 115 103.922 119.959C102.269 124.919 100.34 134.148 100.34 134.148L56.6718 143.102C56.6718 143.102 58.8759 131.531 55.9831 124.919C53.0902 118.306 39.5901 118.72 37.1106 130.704C34.631 142.689 35.4575 144.893 35.4575 144.893C35.4575 144.893 26.2279 146.822 -1.8742 146.408C-29.9763 145.995 -45.4049 142.689 -49.5375 141.587C-49.5375 141.587 -50.5018 136.49 -50.7773 133.459C-51.0528 130.429 -49.9508 128.362 -49.9508 128.362C-49.9508 128.362 -49.6753 122.852 -48.9865 120.924C-48.2977 118.995 -46.2314 116.102 -46.2314 116.102C-46.2314 116.102 -44.1651 111.281 -40.7212 108.25C-37.2773 105.22 -31.6293 102.189 -30.2518 101.5C-28.8742 100.811 -27.0834 100.398 -24.466 98.6073C-21.8487 96.8165 -5.59359 85.5206 -0.496633 82.4899C4.60029 79.4593 15.6208 77.9441 17.8249 77.5308C20.0289 77.1175 45.3759 75.3267 54.1922 75.3267C63.0085 75.3267 81.1922 75.7399 91.2484 79.5971Z" stroke="#263238" stroke-width="0.4" stroke-linecap="round" stroke-linejoin="round"/>
<path d="M102.915 129.946C102.944 128.591 103.083 127.3 103.31 126.127L105.173 128.398C105.093 128.88 105.042 129.396 105.03 129.937C105.028 130.015 105.03 130.09 105.03 130.167L102.914 130.837C102.909 130.543 102.909 130.247 102.915 129.946Z" fill="#263238" stroke="#263238" stroke-width="0.4" stroke-linecap="round" stroke-linejoin="round"/>
<path d="M106.218 125.78C106.024 125.985 105.846 126.269 105.69 126.612L104.377 122.685C104.833 121.715 105.372 120.982 105.958 120.564L106.218 125.78Z" fill="#263238" stroke="#263238" stroke-width="0.4" stroke-linecap="round" stroke-linejoin="round"/>
<path d="M105.297 132.495C105.392 132.865 105.51 133.195 105.645 133.475L104.568 138.166C104.051 137.324 103.629 136.174 103.341 134.815L105.297 132.495Z" fill="#263238" stroke="#263238" stroke-width="0.4" stroke-linecap="round" stroke-linejoin="round"/>
<path d="M108.467 127.495L110.367 124.923C110.646 126.187 110.807 127.635 110.821 129.186L108.697 129.304C108.674 128.645 108.594 128.032 108.467 127.495Z" fill="#263238" stroke="#263238" stroke-width="0.4" stroke-linecap="round" stroke-linejoin="round"/>
<path d="M107.821 125.931C107.665 125.719 107.495 125.566 107.313 125.478L107.624 120.264C108.296 120.496 108.905 121.15 109.406 122.119L107.821 125.931Z" fill="#263238" stroke="#263238" stroke-width="0.4" stroke-linecap="round" stroke-linejoin="round"/>
<path d="M106.569 134.439C106.635 134.457 106.702 134.467 106.771 134.467C106.964 134.466 107.153 134.39 107.331 134.252L108.373 138.745C107.847 139.349 107.266 139.689 106.66 139.692C106.495 139.692 106.333 139.665 106.174 139.617L106.569 134.439Z" fill="#263238" stroke="#263238" stroke-width="0.4" stroke-linecap="round" stroke-linejoin="round"/>
<path d="M108.483 131.869L110.584 132.783C110.367 134.278 110.011 135.619 109.559 136.714L108.21 132.843C108.317 132.548 108.408 132.221 108.483 131.869Z" fill="#263238" stroke="#263238" stroke-width="0.4" stroke-linecap="round" stroke-linejoin="round"/>
<path d="M112.978 91.0708C112.978 91.0708 89.7208 92.3714 87.6758 93.2236C85.6307 94.0757 85.1194 96.1207 85.1194 96.1207L114.262 95.0982L112.978 91.0708Z" fill="#FD7E50" stroke="#263238" stroke-width="0.4" stroke-linecap="round" stroke-linejoin="round"/>
<path d="M95.9768 79.6211C95.9768 79.6211 109.235 89.2634 114.262 95.0979L119.375 94.0754L105.194 80.4697L95.9768 79.6211Z" fill="#FD7E50" stroke="#263238" stroke-width="0.4" stroke-linecap="round" stroke-linejoin="round"/>
<path d="M82.2707 97.8198C82.2707 97.8198 79.765 85.597 75.7043 78.8066C75.7043 78.8066 89.9384 76.8909 105.447 79.2768C106.348 79.4155 120.397 91.1783 120.397 91.1783C120.397 91.1783 128.598 98.18 128.748 99.529C128.748 99.529 123.661 117.244 105.143 129.34L85.0325 132.591C85.0325 132.591 86.3789 110.749 86.1825 106.038C86.0637 103.186 82.2707 97.8198 82.2707 97.8198ZM115.966 93.3938C118.011 92.7121 115.966 90.667 115.966 90.667L103.83 80.981C95.4792 79.6177 80.348 81.1234 80.348 81.1234C81.3705 82.998 85.1198 96.1206 85.1198 96.1206C85.1198 96.1206 113.921 94.0755 115.966 93.3938Z" fill="#FD7E50" stroke="#263238" stroke-width="0.4" stroke-linecap="round" stroke-linejoin="round"/>
<path d="M122.444 98.2187L125.015 97.9951C125.015 97.9951 126.021 98.1069 126.021 99.0014C126.021 99.8958 125.239 100.008 125.239 100.008L120.255 100.458C120.255 100.458 120.373 98.9504 119.59 98.5032L122.444 98.2187Z" fill="#263238" stroke="#263238" stroke-width="0.4" stroke-linecap="round" stroke-linejoin="round"/>
<path d="M125.898 100.306C125.898 100.306 125.079 101.371 124.26 101.371C123.441 101.371 120.328 101.698 120.328 101.698" fill="#FD7E50"/>
<path d="M125.898 100.306C125.898 100.306 125.079 101.371 124.26 101.371C123.441 101.371 120.328 101.698 120.328 101.698" stroke="#263238" stroke-width="0.4" stroke-linecap="round" stroke-linejoin="round"/>
<path d="M159.132 150.635C147.972 150.635 138.924 149.744 138.924 148.644C138.924 147.545 147.972 146.654 159.132 146.654C170.293 146.654 179.34 147.545 179.34 148.644C179.34 149.744 170.293 150.635 159.132 150.635Z" fill="#263238" stroke="#263238" stroke-width="0.4" stroke-linecap="round" stroke-linejoin="round"/>
<path d="M148.076 137.943L145.996 144.355C145.996 144.355 142.923 145.056 142.168 144.965C141.413 144.873 138.647 144.308 138.583 144.836C138.519 145.365 139.397 145.701 139.672 145.964C139.946 146.227 141.866 147.456 142.593 147.774C143.321 148.092 145.54 148.744 146.192 149.053C146.844 149.362 147.62 149.916 148.125 148.905C148.631 147.893 148.862 146.619 148.944 145.94C149.027 145.26 152.365 139.843 152.365 139.843L148.076 137.943Z" fill="#FFBE9D" stroke="#263238" stroke-width="0.4" stroke-linecap="round" stroke-linejoin="round"/>
<path d="M142.167 144.965C142.301 144.981 142.485 144.971 142.696 144.945L142.52 145.85C142.52 145.85 146.54 147.315 148.547 147.819C148.434 148.189 148.296 148.562 148.125 148.905C147.619 149.916 146.843 149.362 146.191 149.053C145.539 148.744 143.32 148.092 142.593 147.774C141.865 147.456 139.946 146.227 139.671 145.964C139.397 145.701 138.518 145.365 138.582 144.836C138.646 144.308 141.412 144.873 142.167 144.965Z" fill="#2F945A" stroke="#263238" stroke-width="0.4" stroke-linecap="round" stroke-linejoin="round"/>
<path d="M134.698 75.7686C134.698 75.7686 133.454 75.5093 133.584 75.7945C133.713 76.0796 134.595 76.287 134.595 76.287C134.595 76.287 133.636 76.313 133.817 76.5204C133.998 76.7278 134.517 76.7796 134.517 76.7796L134.932 77.1944C134.932 77.1944 135.321 77.5574 135.424 77.661C135.528 77.7648 136.358 78.4128 136.539 78.0758C136.721 77.7388 136.539 77.0388 136.358 76.8833C136.176 76.7278 134.698 75.7686 134.698 75.7686Z" fill="#2F945A" stroke="#263238" stroke-width="0.4" stroke-linecap="round" stroke-linejoin="round"/>
<path d="M157.151 79.8261L150.482 83.4636L138.758 79.2614C138.758 79.2614 138.247 78.4899 137.497 77.2722C136.748 76.0546 135.425 75.4851 134.848 75.1302C134.27 74.7753 133.777 74.9415 133.943 75.2977C134.109 75.6539 135.18 75.9798 135.4 76.2261C135.62 76.4723 136.723 77.9781 136.723 77.9781C136.723 77.9781 134.744 76.9965 134.415 76.9701C134.085 76.9437 133.894 77.1913 134.361 77.4916C134.829 77.792 135.626 78.256 135.791 78.475C135.957 78.694 136.342 79.1593 136.645 79.3778C136.947 79.5964 137.442 79.8418 137.442 79.8418C137.442 79.8418 148.777 87.4373 149.391 87.7441C150.004 88.0509 151.293 88.0509 151.293 88.0509L157.429 85.5351L157.151 79.8261Z" fill="#FFBE9D" stroke="#263238" stroke-width="0.4" stroke-linecap="round" stroke-linejoin="round"/>
<path d="M148.91 82.9113L150.482 83.4637L157.151 79.8262L157.429 85.5352L151.293 88.0509C151.293 88.0509 150.004 88.0509 149.391 87.7441C149.25 87.6736 148.457 87.1958 147.326 86.5057L148.91 82.9113Z" fill="#2F945A" stroke="#263238" stroke-width="0.4" stroke-linecap="round" stroke-linejoin="round"/>
<path d="M174.944 136.458L176.917 141.143C176.917 141.143 179.738 143.873 179.703 144.263C179.667 144.652 179.235 145.583 178.435 145.994C177.635 146.406 176.396 147.078 176.396 147.078C176.396 147.078 174.479 148.334 173.275 148.617C172.071 148.899 170.803 149.383 170.608 148.742C170.412 148.1 172.704 146.786 172.704 146.786C172.704 146.786 173.74 144.802 173.934 144.196C174.129 143.59 174.019 142.264 174.019 142.264L170.417 138.215L174.944 136.458Z" fill="#FFBE9D" stroke="#263238" stroke-width="0.4" stroke-linecap="round" stroke-linejoin="round"/>
<path d="M172.704 146.786C172.704 146.786 173.468 146.763 174.016 146.583C174.564 146.402 175.825 145.247 177.042 143.811C177.468 143.308 177.904 142.876 178.292 142.524C179.003 143.265 179.721 144.065 179.703 144.263C179.667 144.652 179.235 145.583 178.435 145.994C177.635 146.406 176.396 147.078 176.396 147.078C176.396 147.078 174.479 148.334 173.275 148.617C172.071 148.899 170.803 149.383 170.608 148.742C170.412 148.1 172.704 146.786 172.704 146.786Z" fill="#2F945A" stroke="#263238" stroke-width="0.4" stroke-linecap="round" stroke-linejoin="round"/>
<path d="M168.953 107.161L168.978 121.605L176.4 136.153L169.702 140.148L161.671 124.835L159.722 114.085L168.953 107.161Z" fill="#2F945A" stroke="#263238" stroke-width="0.4" stroke-linecap="round" stroke-linejoin="round"/>
<path d="M169.414 99.3145C169.414 99.3145 171.106 104.853 170.799 106.084C170.491 107.315 161.202 125.994 161.202 125.994L153.72 141.317L145.412 138.856L152.49 118.854L157.721 106.546V99.9299L169.414 99.3145Z" fill="#2F945A" stroke="#263238" stroke-width="0.4" stroke-linecap="round" stroke-linejoin="round"/>
<path d="M157.785 72.4293L158.533 74.3957L160.471 73.383L160.241 71.271L157.785 72.4293Z" fill="#FFBE9D" stroke="#263238" stroke-width="0.4" stroke-linecap="round" stroke-linejoin="round"/>
<path d="M157.33 74.8961C157.33 74.8961 158.491 75.2452 158.368 76.3754C158.244 77.5056 156.451 81.8596 156.01 84.1759C155.57 86.4922 155.942 87.0187 155.864 88.0353C155.786 89.052 156.251 98.5153 156.116 100.168C155.981 101.821 156.625 101.94 160.962 101.845C165.299 101.75 167.756 101.167 169.12 100.388C170.484 99.6095 169.85 98.4185 169.368 97.463C168.886 96.5074 166.891 83.9975 165.853 80.8343C164.815 77.6711 164.624 76.4949 162.925 75.357C161.225 74.2192 160.997 74.4332 160.88 73.9418C160.764 73.4505 160.495 72.7236 160.495 72.7236L157.33 74.8961Z" fill="#2F945A" stroke="#263238" stroke-width="0.4" stroke-linecap="round" stroke-linejoin="round"/>
<path d="M161.129 87.0591C161.129 87.0591 159.969 88.3216 158.365 88.4964" stroke="#263238" stroke-width="0.4" stroke-linecap="round" stroke-linejoin="round"/>
<path d="M161.734 91.3477C161.583 91.5469 161.422 91.7373 161.252 91.9141" stroke="#263238" stroke-width="0.4" stroke-linecap="round" stroke-linejoin="round"/>
<path d="M163.667 87.269C163.667 87.269 163.186 89.076 162.195 90.675" stroke="#263238" stroke-width="0.4" stroke-linecap="round" stroke-linejoin="round"/>
<path d="M153.696 63.5576C153.696 63.5576 153.135 64.7991 153.584 66.1185C154.033 67.4379 154.15 68.0797 153.797 68.5996C153.444 69.1195 153.294 69.7617 153.864 70.0783C154.434 70.3948 154.788 70.4087 154.788 70.4087C154.788 70.4087 155.801 72.8886 156.473 73.1329C157.144 73.3771 159.328 72.5371 160.027 72.0745C160.726 71.6117 160.156 66.7147 159.672 65.8787C159.187 65.0426 153.696 63.5576 153.696 63.5576Z" fill="#FFBE9D" stroke="#263238" stroke-width="0.4" stroke-linecap="round" stroke-linejoin="round"/>
<path d="M155.647 70.4126C156.397 70.4476 156.713 69.6104 156.713 69.6104C156.713 69.6104 157.187 71.0001 156.608 71.193C156.03 71.3859 155.647 70.4126 155.647 70.4126Z" stroke="#263238" stroke-width="0.4" stroke-linecap="round" stroke-linejoin="round"/>
<path d="M154.469 67.6377C154.538 67.9757 154.736 68.2208 154.912 68.1851C155.087 68.1493 155.174 67.8464 155.105 67.5083C155.037 67.1703 154.838 66.9253 154.663 66.961C154.487 66.9967 154.401 67.2997 154.469 67.6377Z" fill="#263238"/>
<path d="M151.953 61.1798C151.953 61.1798 151.92 62.9977 153.278 63.9334C154.635 64.8691 158.113 65.8883 158.641 66.1977C159.168 66.5071 159.161 67.0842 159.161 67.0842C159.161 67.0842 159.656 70.279 159.651 71.6567C159.646 73.0345 158.393 74.1616 158.849 75.1708C159.305 76.18 160.762 76.2428 161.692 76.2631C162.623 76.2833 162.358 77.6182 163.997 78.467C165.635 79.3157 166.948 78.9098 167.826 77.6317C168.704 76.3537 168.277 75.7051 169.034 75.4299C169.791 75.1546 171.026 75.7588 171.91 73.6367C172.794 71.5146 171.991 69.9145 171.348 69.497C170.706 69.0796 168.282 69.213 168.408 66.5655C168.534 63.918 166.292 59.7232 162.971 58.0185C159.65 56.3138 154.31 59.5678 153.589 59.8934C152.868 60.2191 151.931 60.509 151.953 61.1798Z" fill="#263238" stroke="#263238" stroke-width="0.4" stroke-linecap="round" stroke-linejoin="round"/>
<path d="M155.142 96.4311C155.142 96.4311 157.01 82.3658 158.532 78.9864C160.054 75.6071 161.641 73.9849 164.042 76.9364C166.443 79.8879 167.57 97.155 167.57 97.155" stroke="#263238" stroke-width="0.8" stroke-linecap="round" stroke-linejoin="round"/>
<path d="M160.102 81.0893C160.102 81.0893 165.662 94.0662 166.501 94.8984C167.34 95.7306 170.485 97.4817 171.288 95.4268C172.092 93.3718 165.378 78.1914 163.886 76.6606C162.395 75.1298 159.554 75.7489 159.485 78.4675" fill="#2F945A"/>
<path d="M160.102 81.0893C160.102 81.0893 165.662 94.0662 166.501 94.8984C167.34 95.7306 170.485 97.4817 171.288 95.4268C172.092 93.3718 165.378 78.1914 163.886 76.6606C162.395 75.1298 159.554 75.7489 159.485 78.4675" stroke="#263238" stroke-width="0.4" stroke-linecap="round" stroke-linejoin="round"/>
<path d="M159.623 93.6111C159.623 93.6111 158.462 93.3597 157.827 92.7359C157.192 92.1121 156.41 91.8822 155.725 91.9569C155.041 92.0316 154.093 92.009 154.043 92.7075C153.993 93.406 154.477 93.7943 154.677 93.8985C154.877 94.0026 155.073 96.3755 155.612 96.6948C156.151 97.0141 158.234 96.4719 158.974 96.3281C159.715 96.1844 164.396 96.9341 166.762 96.676C169.128 96.418 171.259 96.3117 171.289 95.4263C171.318 94.541 170.175 92.1454 167.519 92.057C164.863 91.9686 162.646 93.5965 159.623 93.6111Z" fill="#FFBE9D" stroke="#263238" stroke-width="0.4" stroke-linecap="round" stroke-linejoin="round"/>
<path d="M155.142 96.4312C155.142 96.4312 156.289 97.1252 161.656 97.2329C167.023 97.3407 167.57 97.1551 167.57 97.1551C167.57 97.1551 169.167 104.04 168.592 104.793C167.545 106.168 156.741 105.897 155.685 104.878C154.629 103.859 155.142 96.4312 155.142 96.4312Z" fill="#969696" stroke="#263238" stroke-width="0.4" stroke-linecap="round" stroke-linejoin="round"/>
<path d="M155.223 66.5035C155.223 66.5035 154.857 65.9355 154.171 66.2314" stroke="#263238" stroke-width="0.4" stroke-linecap="round" stroke-linejoin="round"/>
</svg>
