<svg width="24" height="25" viewBox="0 0 24 25" fill="none" xmlns="http://www.w3.org/2000/svg">
<path d="M7.3077 21C6.80898 21 6.38302 20.8234 6.02982 20.4701C5.67661 20.117 5.5 19.691 5.5 19.1923V6.5H4.5V5.00002H8.99997V4.11543H15V5.00002H19.5V6.5H18.5V19.1923C18.5 19.6974 18.325 20.125 17.975 20.475C17.625 20.825 17.1974 21 16.6922 21H7.3077ZM17 6.5H6.99997V19.1923C6.99997 19.282 7.02883 19.3558 7.08652 19.4135C7.14423 19.4712 7.21795 19.5 7.3077 19.5H16.6922C16.7692 19.5 16.8397 19.468 16.9038 19.4039C16.9679 19.3397 17 19.2692 17 19.1923V6.5ZM9.40385 17.5H10.9038V8.5H9.40385V17.5ZM13.0961 17.5H14.5961V8.5H13.0961V17.5Z" fill="black"/>
</svg>
