<svg width="30" height="30" viewBox="0 0 30 30" fill="none" xmlns="http://www.w3.org/2000/svg">
<path d="M13.5 22.5769V5.77685L8.56925 10.7076L6.4616 8.53845L15 4.95911e-05L23.5383 8.53845L21.4307 10.7076L16.4999 5.77685V22.5769H13.5ZM3.6154 30C2.60513 30 1.75 29.65 1.05 28.95C0.35 28.25 0 27.3948 0 26.3845V20.9615H2.99995V26.3845C2.99995 26.5384 3.06405 26.6795 3.19225 26.8077C3.32048 26.9359 3.46153 27 3.6154 27H26.3845C26.5384 27 26.6794 26.9359 26.8077 26.8077C26.9359 26.6795 27 26.5384 27 26.3845V20.9615H29.9999V26.3845C29.9999 27.3948 29.6499 28.25 28.9499 28.95C28.2499 29.65 27.3948 30 26.3845 30H3.6154Z" fill="#2F945A"/>
</svg>
