<svg width="208" height="166" viewBox="0 0 208 166" fill="none" xmlns="http://www.w3.org/2000/svg">
<path d="M88.0485 166.742C145.111 166.742 191.369 165.54 191.369 164.056C191.369 162.572 145.111 161.37 88.0485 161.37C30.9865 161.37 -15.2715 162.572 -15.2715 164.056C-15.2715 165.54 30.9865 166.742 88.0485 166.742Z" fill="#2E353A"/>
<path d="M185.753 133.761C184.045 131.709 183.233 131.689 182.9 131.845C182.9 130.764 182.9 129.661 182.9 128.539C184.085 129.547 185.118 130.399 185.118 130.399C184.672 128.627 183.88 126.961 182.79 125.495C182.719 124.245 182.623 122.975 182.487 121.755C182.386 120.843 182.306 119.916 182.23 118.988C182.638 120.606 183.037 122.395 184.317 123.676C185.406 124.835 186.416 126.065 187.341 127.36C187.341 127.36 186.378 123.197 184.458 121.438C183.55 120.65 182.782 119.714 182.185 118.671C182.034 116.625 181.938 114.558 181.887 112.532C181.946 111.66 181.946 110.784 181.887 109.911L181.832 109.982C181.832 109.664 181.832 109.352 181.832 109.045C181.882 110.37 182.25 111.663 182.904 112.816C183.559 113.97 184.48 114.949 185.592 115.672C185.592 115.672 185.592 111.832 183.833 109.589C182.074 107.346 181.913 107.83 181.913 107.83C181.877 108.127 181.857 108.42 181.852 108.697C181.852 105.854 181.918 103.198 182.013 100.915C182.099 101.809 182.45 102.657 183.021 103.349C184.624 105.108 186.222 105.108 186.222 105.108C186.222 105.108 185.582 101.429 184.463 100.305C183.745 99.6052 182.962 98.9757 182.124 98.4252C182.291 95.4012 182.467 93.4608 182.472 93.3852C182.476 93.3544 182.473 93.3231 182.464 93.2933C182.455 93.2636 182.44 93.2359 182.421 93.2119C182.401 93.1879 182.377 93.1682 182.349 93.1538C182.321 93.1394 182.291 93.1307 182.26 93.1282C182.199 93.1238 182.137 93.1434 182.09 93.1828C182.042 93.2222 182.011 93.2784 182.003 93.3399C182.003 93.4407 181.399 99.8919 181.368 107.956C181.162 106.645 180.803 105.363 180.3 104.136C179.342 102.21 177.739 102.372 177.739 102.372C177.673 102.359 177.606 102.35 177.538 102.346C177.346 97.9313 177.261 93.9295 177.235 90.6183C177.941 92.7149 181.101 96.9283 181.101 96.9283C181.101 96.9283 181.101 91.0063 179.821 90.205C179.43 89.9835 178.996 89.8502 178.549 89.8145C178.101 89.7788 177.651 89.8415 177.23 89.9983C177.23 88.6023 177.23 87.3372 177.23 86.2284L177.427 86.2032L177.23 86.0722C177.23 82.9524 177.316 81.0977 177.316 81.0322C177.317 81.0013 177.313 80.9705 177.302 80.9415C177.291 80.9126 177.275 80.886 177.254 80.8635C177.233 80.841 177.207 80.8229 177.179 80.8103C177.151 80.7977 177.12 80.7909 177.089 80.7903C177.058 80.7889 177.027 80.7937 176.998 80.8044C176.969 80.8151 176.942 80.8314 176.919 80.8525C176.896 80.8735 176.877 80.8989 176.864 80.9271C176.851 80.9554 176.844 80.986 176.842 81.0171C176.842 81.0675 176.782 82.8163 176.762 85.7698C176.086 85.3918 175.028 84.9331 174.242 85.2355C172.962 85.7395 172.16 91.1575 172.16 91.1575C172.16 91.1575 174.317 87.1255 176.777 86.3242C176.777 89.5145 176.777 93.9598 176.968 99.1359C176.399 99.0603 174.398 98.8939 173.44 100.144C172.316 101.58 170.719 106.545 170.719 106.545L176.968 99.3526C177.002 100.361 177.042 101.395 177.089 102.457C176.953 102.608 177.009 102.901 177.125 103.243C177.286 106.595 177.503 110.173 177.81 113.827C176.902 114.84 176.082 115.93 175.361 117.083C173.597 119.805 173.44 123.968 173.44 123.968C173.44 123.968 177.402 119.845 178.183 118.016C178.501 121.71 178.742 125.178 178.924 128.348C178.498 129.438 177.888 130.448 177.12 131.331C175.517 133.252 175.517 137.576 175.517 137.576C175.517 137.576 178.541 136.165 179.09 131.493C179.564 141.437 179.443 147.757 179.438 147.847C179.437 147.879 179.443 147.91 179.454 147.939C179.465 147.967 179.482 147.994 179.504 148.016C179.525 148.039 179.551 148.057 179.58 148.069C179.608 148.082 179.639 148.089 179.67 148.089C179.701 148.09 179.731 148.085 179.76 148.073C179.789 148.062 179.815 148.045 179.837 148.023C179.859 148.002 179.877 147.976 179.889 147.947C179.901 147.919 179.907 147.888 179.907 147.858C179.907 147.747 180.103 137.883 179.075 123.383C179.124 123.972 179.272 124.548 179.514 125.087C179.826 125.707 181.141 126.957 182.417 128.086C182.452 129.462 182.452 130.817 182.417 132.143C181.81 132.684 181.405 133.414 181.267 134.214C180.901 135.958 180.634 137.722 180.466 139.496C181.329 138.597 181.947 137.492 182.26 136.286C182.031 140.532 181.563 144.762 180.859 148.956C180.849 149.018 180.863 149.082 180.899 149.134C180.935 149.185 180.989 149.221 181.051 149.233H181.096C181.152 149.233 181.205 149.213 181.248 149.177C181.29 149.141 181.318 149.092 181.328 149.037C182.248 143.504 182.77 137.912 182.89 132.304C183.188 132.808 183.828 133.882 184.634 135.031C185.753 136.633 188.475 139.033 188.475 139.033C188.475 139.033 188.157 136.644 185.753 133.761ZM181.59 124.316C179.03 122.395 179.03 121.755 179.03 121.755C179.014 122.069 179.014 122.384 179.03 122.698C178.884 120.682 178.712 118.585 178.526 116.418C178.562 115.447 178.477 114.475 178.274 113.525C178.037 110.642 177.855 107.835 177.709 105.144C178.213 106.323 180.396 109.312 181.414 110.688V110.743C180.88 111.756 180.462 112.826 180.169 113.933C179.678 115.573 179.792 117.335 180.491 118.898C180.956 117.74 181.309 116.54 181.545 115.314C181.645 117.492 181.802 119.689 182.049 121.826C182.16 122.864 182.247 123.904 182.311 124.946C182.086 124.718 181.845 124.508 181.59 124.316Z" fill="#2E353A"/>
<path d="M184.689 165.029H176.247L174.443 146.033H186.499L184.689 165.029Z" fill="#2E353A"/>
<path d="M108.26 98.6369V116.987H87.0413C85.9117 116.987 84.7931 117.209 83.7493 117.641C82.7056 118.072 81.7571 118.706 80.9581 119.504C80.1592 120.303 79.5254 121.251 79.093 122.294C78.6606 123.338 78.438 124.456 78.438 125.586C78.438 127.867 79.3444 130.056 80.9578 131.669C82.5713 133.283 84.7595 134.189 87.0413 134.189C87.5412 134.189 88.0206 134.388 88.3741 134.741C88.7276 135.095 88.9262 135.574 88.9262 136.074V164.802H129.377V98.6369C129.377 95.8472 128.276 93.1703 126.313 91.1882C124.35 89.2062 121.684 88.0794 118.894 88.0529C117.5 88.0462 116.118 88.3151 114.828 88.844C113.538 89.3729 112.366 90.1515 111.377 91.135C110.389 92.1184 109.605 93.2875 109.07 94.5749C108.535 95.8623 108.26 97.2427 108.26 98.6369Z" fill="#74B790" stroke="#2E353A" stroke-width="0.504" stroke-miterlimit="10"/>
<path d="M114.978 98.636V116.987H93.7595C92.63 116.986 91.5113 117.208 90.4676 117.64C89.4238 118.071 88.4753 118.705 87.6764 119.503C86.8774 120.302 86.2436 121.25 85.8112 122.293C85.3788 123.337 85.1562 124.455 85.1563 125.585C85.1563 127.867 86.0627 130.055 87.6761 131.668C89.2895 133.282 91.4778 134.188 93.7595 134.188C94.2594 134.188 94.7389 134.387 95.0924 134.74C95.4459 135.094 95.6445 135.573 95.6445 136.073V164.801H136.111V98.636C136.111 95.8463 135.01 93.1694 133.046 91.1874C131.083 89.2053 128.417 88.0785 125.627 88.052C124.232 88.0433 122.849 88.3107 121.557 88.8387C120.265 89.3668 119.091 90.145 118.101 91.1287C117.111 92.1124 116.326 93.2821 115.79 94.5705C115.254 95.8589 114.978 97.2405 114.978 98.636Z" fill="#74B790" stroke="#2E353A" stroke-width="0.504" stroke-miterlimit="10"/>
<path d="M120.557 129.279L112.241 130.791C112.241 130.791 111.989 135.075 110.477 137.847C109.44 139.587 107.839 140.92 105.941 141.627L103.925 150.951C103.925 150.951 108.713 162.039 108.713 163.299C108.713 164.559 106.949 164.811 106.949 164.811H96.8694V126.255H121.817L120.557 129.279Z" fill="#2E353A"/>
<path d="M111.534 122.264V98.218C111.534 92.5682 116.277 87.9868 122.118 87.9868H165.966C171.813 87.9868 176.55 92.5682 176.55 98.218V126.326H120.944L111.534 122.264Z" fill="#74B790" stroke="#2E353A" stroke-width="0.504" stroke-miterlimit="10"/>
<path d="M147.888 87.9819L146.96 91.8627L152.56 93.5713C152.56 93.5713 154.873 94.4029 155.82 96.5197C156.768 98.6365 157.373 103.193 157.373 103.193L157.529 107.537V116.176H139.385L141.865 92.1853L144.193 88.1533L147.888 87.9819Z" fill="#2E353A"/>
<path d="M133 140.741C125.767 141.452 118.501 141.78 111.232 141.724C100.255 141.563 93.7034 140.414 93.7034 140.414" stroke="#2E353A" stroke-width="0.504" stroke-miterlimit="10"/>
<path d="M130.621 92.9414C130.621 92.9414 110.593 103.757 109.61 105.088C108.627 106.418 108.012 109.12 111.454 109.387C114.897 109.654 127.92 104.72 127.92 104.72L130.621 92.9414Z" fill="white"/>
<mask id="mask0_4681_61789" style="mask-type:luminance" maskUnits="userSpaceOnUse" x="108" y="92" width="23" height="18">
<path d="M130.62 92.9404C130.62 92.9404 110.591 103.756 109.609 105.087C108.626 106.417 108.011 109.119 111.453 109.386C114.896 109.653 127.919 104.719 127.919 104.719L130.62 92.9404Z" fill="white"/>
</mask>
<g mask="url(#mask0_4681_61789)">
<path d="M128.903 97.5269L127.124 100.657L125.4 97.552L126.307 101.967L125.027 101.922L125.582 103.272L114.549 107.506C114.549 107.506 118.168 107.924 120.925 106.901C123.682 105.878 126.156 105.218 126.156 105.218L128.903 97.5269Z" fill="#74B790"/>
<g style="mix-blend-mode:multiply" opacity="0.3">
<path d="M128.903 97.5269L127.124 100.657L125.4 97.552L126.307 101.967L125.027 101.922L125.582 103.272L114.549 107.506C114.549 107.506 118.168 107.924 120.925 106.901C123.682 105.878 126.156 105.218 126.156 105.218L128.903 97.5269Z" fill="black"/>
</g>
</g>
<path d="M130.621 92.9414C130.621 92.9414 110.593 103.757 109.61 105.088C108.627 106.418 108.012 109.12 111.454 109.387C114.897 109.654 127.92 104.72 127.92 104.72L130.621 92.9414Z" stroke="#2E353A" stroke-width="0.504" stroke-linecap="round" stroke-linejoin="round"/>
<path d="M125.017 82.2816C125.996 81.8951 126.908 81.3559 127.718 80.6839C128.58 79.8221 128.948 80.5629 128.948 81.0518C128.948 81.5407 129.195 82.7755 127.965 83.2644C126.735 83.7532 125.017 83.5113 125.017 82.2816Z" fill="#FFBE9D" stroke="#2E353A" stroke-width="0.504" stroke-linecap="round" stroke-linejoin="round"/>
<path d="M122.231 83.4559C122.772 82.9784 123.359 82.5563 123.985 82.1959C124.489 82.0145 127.543 81.1375 128.223 81.45C128.904 81.7625 129.806 83.1283 130.083 83.6726C130.36 84.2169 130.174 85.0082 129.579 84.978C128.984 84.9478 127.467 83.1737 127.467 83.1737L124.947 84.0103C124.947 84.0103 123.904 84.474 123.395 84.1766C122.886 83.8793 122.367 84.0506 122.231 83.4559Z" fill="#FFBE9D" stroke="#2E353A" stroke-width="0.504" stroke-linecap="round" stroke-linejoin="round"/>
<path d="M122.376 82.6197C122.376 82.6197 123.525 82.1862 123.858 82.4433C124.481 82.8429 125.16 83.1454 125.874 83.3404C126.927 83.6781 128.102 84.0662 128.354 84.8524C128.606 85.6386 127.346 86.8331 127.346 86.8331C126.233 86.0679 125.078 85.3646 123.888 84.7264C122.825 84.1922 121.101 82.9876 122.376 82.6197Z" fill="#FFBE9D" stroke="#2E353A" stroke-width="0.504" stroke-linecap="round" stroke-linejoin="round"/>
<path d="M124.388 83.9652L123.279 83.1588C123.279 83.1588 122.271 82.3725 121.767 82.9874C121.767 82.9874 120.169 89.0102 119.922 89.7461C119.675 90.4819 107.892 101.56 107.277 103.999C107.041 104.976 107.19 106.006 107.692 106.876C108.195 107.746 109.014 108.389 109.978 108.671C111.455 109.039 113.421 105.108 114.277 103.127C115.134 101.147 121.898 90.8397 121.898 90.8397C122.297 90.9723 122.728 90.9723 123.128 90.8397C123.599 90.4959 124.013 90.0811 124.357 89.61L125.587 89.106C126.197 88.8641 127.674 86.4045 127.795 86.0366C127.801 85.9999 127.801 85.9624 127.795 85.9257C126.948 84.822 124.388 83.9652 124.388 83.9652Z" fill="#FFBE9D"/>
<mask id="mask1_4681_61789" style="mask-type:luminance" maskUnits="userSpaceOnUse" x="107" y="82" width="21" height="27">
<path d="M124.389 83.9647L123.28 83.1583C123.28 83.1583 122.272 82.372 121.768 82.9869C121.768 82.9869 120.17 89.0097 119.923 89.7456C119.676 90.4814 107.893 101.559 107.278 103.999C107.042 104.975 107.19 106.005 107.693 106.875C108.196 107.745 109.015 108.388 109.979 108.671C111.456 109.039 113.421 105.107 114.278 103.127C115.135 101.146 121.899 90.8392 121.899 90.8392C122.298 90.9719 122.729 90.9719 123.129 90.8392C123.6 90.4954 124.014 90.0806 124.358 89.6095L125.588 89.1055C126.198 88.8636 127.675 86.404 127.796 86.0361C127.802 85.9994 127.802 85.9619 127.796 85.9252C126.949 84.8215 124.389 83.9647 124.389 83.9647Z" fill="white"/>
</mask>
<g mask="url(#mask1_4681_61789)">
<g style="mix-blend-mode:multiply">
<path d="M109.011 108.237C109.309 108.431 109.635 108.577 109.979 108.67C111.455 109.038 113.421 105.107 114.278 103.126C115.135 101.146 121.898 90.8389 121.898 90.8389C121.898 90.8389 109.268 104.951 108.905 106.967C108.829 107.392 108.866 107.83 109.011 108.237Z" fill="#74B790"/>
</g>
<g style="mix-blend-mode:multiply" opacity="0.3">
<path d="M109.011 108.237C109.309 108.431 109.635 108.577 109.979 108.67C111.455 109.038 113.421 105.107 114.278 103.126C115.135 101.146 121.898 90.8389 121.898 90.8389C121.898 90.8389 109.268 104.951 108.905 106.967C108.829 107.392 108.866 107.83 109.011 108.237Z" fill="black"/>
</g>
</g>
<path d="M124.388 83.9652L123.279 83.1588C123.279 83.1588 122.271 82.3725 121.767 82.9874C121.767 82.9874 120.169 89.0102 119.922 89.7461C119.675 90.4819 107.892 101.56 107.277 103.999C107.041 104.976 107.19 106.006 107.692 106.876C108.195 107.746 109.014 108.389 109.978 108.671C111.455 109.039 113.421 105.108 114.277 103.127C115.134 101.147 121.898 90.8397 121.898 90.8397C122.297 90.9723 122.728 90.9723 123.128 90.8397C123.599 90.4959 124.013 90.0811 124.357 89.61L125.587 89.106C126.197 88.8641 127.674 86.4045 127.795 86.0366C127.801 85.9999 127.801 85.9624 127.795 85.9257C126.948 84.822 124.388 83.9652 124.388 83.9652Z" stroke="#2E353A" stroke-width="0.504" stroke-linecap="round" stroke-linejoin="round"/>
<path d="M123.258 87.77C123.798 87.969 124.359 88.1027 124.931 88.1682" stroke="#2E353A" stroke-width="0.504" stroke-linecap="round" stroke-linejoin="round"/>
<path d="M124.135 88.249C124.135 88.249 123.127 89.5645 124.357 89.6249" stroke="#2E353A" stroke-width="0.504" stroke-linecap="round" stroke-linejoin="round"/>
<path d="M122.649 85.0034C122.649 85.0034 125.411 86.334 125.889 86.8128C126.098 86.98 126.25 87.2085 126.322 87.4662C126.394 87.7238 126.384 87.9977 126.293 88.2492" stroke="#2E353A" stroke-width="0.504" stroke-linecap="round" stroke-linejoin="round"/>
<path d="M130.742 84.4239C130.742 84.4239 130.137 85.4319 130.439 85.7141C130.742 85.9963 131.649 86.1677 131.725 85.4873C131.8 84.8069 131.649 84.192 130.742 84.4239Z" fill="white" stroke="#2E353A" stroke-width="0.504" stroke-linecap="round" stroke-linejoin="round"/>
<path d="M102.029 156.688C102.029 156.688 104.983 160.946 104.983 161.934C104.983 162.922 99.9025 164.227 97.7705 164.389C95.6386 164.55 90.5633 165.044 88.4314 164.716C86.2995 164.389 88.4314 163.572 90.5633 162.095C92.6952 160.619 94.6608 160.13 95.1497 158.492L102.029 156.688Z" fill="#2E353A" stroke="#2E353A" stroke-width="0.504" stroke-miterlimit="10"/>
<path d="M97.7711 164.388C99.9031 164.227 104.983 162.916 104.983 161.934C104.922 161.554 104.792 161.188 104.6 160.855C101.69 162.245 98.5368 163.057 95.3167 163.244C91.9046 163.42 89.7323 163.451 88.4572 163.446C87.4492 164.096 87.0763 164.509 88.432 164.716C90.569 165.063 95.6443 164.559 97.7711 164.388Z" fill="white" stroke="#2E353A" stroke-width="0.504" stroke-miterlimit="10"/>
<path d="M103.018 119.28C103.018 119.28 91.3801 118.272 89.0869 118.953C86.7937 119.633 86.4661 122.556 87.1213 124.688C87.7765 126.82 95.1501 158.512 95.1501 158.512L102.03 156.707L98.2648 132.898L103.018 119.28Z" fill="white"/>
<mask id="mask2_4681_61789" style="mask-type:luminance" maskUnits="userSpaceOnUse" x="86" y="118" width="18" height="41">
<path d="M103.018 119.281C103.018 119.281 91.3804 118.273 89.0872 118.953C86.794 119.634 86.4664 122.557 87.1216 124.689C87.7768 126.821 95.1503 158.512 95.1503 158.512L102.03 156.708L98.265 132.899L103.018 119.281Z" fill="white"/>
</mask>
<g mask="url(#mask2_4681_61789)">
<path d="M101.036 121.79C101.036 121.79 96.1573 120.611 96.3287 121.452C96.5 122.294 96.8327 123.64 96.8327 123.64C96.8327 123.64 93.9699 120.273 93.6322 122.46C93.2946 124.648 98.1682 134.743 98.1682 134.743L101.036 121.79Z" fill="#74B790"/>
<g style="mix-blend-mode:multiply" opacity="0.3">
<path d="M101.036 121.79C101.036 121.79 96.1573 120.611 96.3287 121.452C96.5 122.294 96.8327 123.64 96.8327 123.64C96.8327 123.64 93.9699 120.273 93.6322 122.46C93.2946 124.648 98.1682 134.743 98.1682 134.743L101.036 121.79Z" fill="black"/>
</g>
</g>
<path d="M103.018 119.28C103.018 119.28 91.3801 118.272 89.0869 118.953C86.7937 119.633 86.4661 122.556 87.1213 124.688C87.7765 126.82 95.1501 158.512 95.1501 158.512L102.03 156.707L98.2648 132.898L103.018 119.28Z" stroke="#2E353A" stroke-width="0.504" stroke-miterlimit="10"/>
<path d="M95.7446 123.68L98.3806 127.561L98.0731 123.211" stroke="#2E353A" stroke-width="0.504" stroke-linecap="round" stroke-linejoin="round"/>
<path d="M140.329 90.7291C140.329 90.7291 130.99 92.5737 130.622 92.9416C130.254 93.3096 121.777 117.89 121.777 117.89H143.524C143.524 117.89 153.478 93.6976 152.596 93.0676C151.714 92.4376 142.173 90.472 140.329 90.7291Z" fill="white" stroke="#2E353A" stroke-width="0.504" stroke-linecap="round" stroke-linejoin="round"/>
<path d="M147.656 102.079L147.228 103.016L144.496 101.051L146.462 103.788L141.76 103.445L144.839 105.41L139.799 114.21L145.096 113.353L148.594 105.41L147.656 102.079Z" fill="#74B790"/>
<g style="mix-blend-mode:multiply" opacity="0.3">
<path d="M147.656 102.079L147.228 103.016L144.496 101.051L146.462 103.788L141.76 103.445L144.839 105.41L139.799 114.21L145.096 113.353L148.594 105.41L147.656 102.079Z" fill="black"/>
</g>
<path d="M143.328 99.8413L148.6 104.72L143.59 104.06" stroke="#2E353A" stroke-width="0.504" stroke-linecap="round" stroke-linejoin="round"/>
<path d="M140.328 90.729C140.328 90.729 138.413 91.107 136.296 91.5556C135.832 93.4758 134.839 97.7648 134.935 99.0853C135.056 100.809 136.407 100.194 137.516 99.9472C138.483 99.7304 143.821 93.632 145.519 91.3237C143.231 90.9104 141.099 90.6282 140.328 90.729Z" fill="#2E353A" stroke="#2E353A" stroke-width="0.504" stroke-linecap="round" stroke-linejoin="round"/>
<path d="M126.131 108.061H130.355L127.094 118.403H122.749L126.131 108.061Z" fill="#2E353A"/>
<path d="M138.241 89.4993C138.241 89.4993 135.782 98.1026 136.643 98.2286C137.505 98.3546 142.908 92.3268 143.402 91.097C143.896 89.8673 145.62 85.8101 145.62 85.8101C145.62 85.8101 142.172 89.2574 138.241 89.4993Z" fill="white" stroke="#2E353A" stroke-width="0.504" stroke-linecap="round" stroke-linejoin="round"/>
<g style="mix-blend-mode:multiply">
<path d="M143.404 91.097C143.908 89.8723 145.621 85.8101 145.621 85.8101C145.621 85.8101 142.174 89.2574 138.243 89.4993L138.071 90.1041C138.691 90.6081 139.845 91.4498 140.395 91.5708C140.944 91.6917 139.891 94.4184 139.13 96.2529C140.969 94.4133 143.101 91.853 143.404 91.097Z" fill="#74B790"/>
</g>
<g style="mix-blend-mode:multiply" opacity="0.3">
<path d="M143.404 91.097C143.908 89.8723 145.621 85.8101 145.621 85.8101C145.621 85.8101 142.174 89.2574 138.243 89.4993L138.071 90.1041C138.691 90.6081 139.845 91.4498 140.395 91.5708C140.944 91.6917 139.891 94.4184 139.13 96.2529C140.969 94.4133 143.101 91.853 143.404 91.097Z" fill="black"/>
</g>
<path d="M134.604 75.6843C134.604 75.6843 129.246 76.2791 128.5 72.8569C127.755 69.4347 130.889 68.7997 132.82 70.3369C134.296 71.5062 131.776 68.1042 133.858 66.9147C135.94 65.7253 136.242 67.2121 138.626 67.6607C141.01 68.1092 142.048 67.3633 145.768 67.3633C149.487 67.3633 149.941 71.234 149.941 73.6129C149.941 75.9918 148.6 82.1003 148.6 82.1003C148.6 82.1003 146.367 82.695 144.729 82.1003C143.091 81.5055 141.156 79.5803 141.751 78.3807C142.345 77.1812 140.859 76.5916 139.367 76.5916C137.875 76.5916 134.604 75.6843 134.604 75.6843Z" fill="#2E353A" stroke="#2E353A" stroke-width="0.504" stroke-linecap="round" stroke-linejoin="round"/>
<path d="M141.694 74.4192C142.644 74.3027 143.585 74.1226 144.511 73.8799C148.599 72.8266 149.914 74.5402 149.914 74.5402" stroke="white" stroke-width="0.378" stroke-linecap="round" stroke-linejoin="round"/>
<path d="M138.056 74.4092C138.578 74.5018 139.108 74.5456 139.638 74.5402" stroke="white" stroke-width="0.378" stroke-linecap="round" stroke-linejoin="round"/>
<path d="M145.172 76.1228C145.172 76.1228 147.939 75.8557 149.255 77.3073" stroke="white" stroke-width="0.378" stroke-linecap="round" stroke-linejoin="round"/>
<path d="M111.419 107.522C111.419 107.651 111.381 107.777 111.309 107.883C111.238 107.99 111.136 108.074 111.017 108.123C110.899 108.172 110.768 108.185 110.642 108.16C110.516 108.135 110.4 108.073 110.309 107.982C110.218 107.891 110.156 107.775 110.131 107.649C110.106 107.523 110.119 107.392 110.168 107.273C110.217 107.155 110.3 107.053 110.407 106.982C110.514 106.91 110.64 106.872 110.769 106.872C110.854 106.872 110.938 106.889 111.017 106.922C111.096 106.954 111.168 107.002 111.228 107.063C111.289 107.123 111.337 107.195 111.369 107.273C111.402 107.352 111.419 107.437 111.419 107.522Z" fill="white" stroke="#2E353A" stroke-width="0.252" stroke-miterlimit="10"/>
<path d="M111.786 107.719C112.237 107.719 112.603 107.353 112.603 106.902C112.603 106.451 112.237 106.086 111.786 106.086C111.336 106.086 110.97 106.451 110.97 106.902C110.97 107.353 111.336 107.719 111.786 107.719Z" fill="white" stroke="#2E353A" stroke-width="0.252" stroke-miterlimit="10"/>
<path d="M111.56 108.681C111.888 108.681 112.155 108.415 112.155 108.086C112.155 107.758 111.888 107.492 111.56 107.492C111.231 107.492 110.965 107.758 110.965 108.086C110.965 108.415 111.231 108.681 111.56 108.681Z" fill="white" stroke="#2E353A" stroke-width="0.252" stroke-miterlimit="10"/>
<path d="M125.99 107.492C125.991 107.621 125.954 107.747 125.883 107.854C125.812 107.962 125.711 108.046 125.592 108.096C125.473 108.146 125.343 108.16 125.216 108.135C125.09 108.111 124.973 108.049 124.882 107.958C124.79 107.868 124.728 107.752 124.703 107.626C124.677 107.499 124.69 107.368 124.739 107.249C124.788 107.13 124.871 107.028 124.978 106.957C125.085 106.885 125.211 106.847 125.34 106.847C125.511 106.847 125.676 106.914 125.798 107.035C125.92 107.156 125.989 107.32 125.99 107.492Z" fill="white" stroke="#2E353A" stroke-width="0.252" stroke-miterlimit="10"/>
<path d="M127.175 106.872C127.176 107.035 127.128 107.195 127.038 107.33C126.948 107.466 126.82 107.572 126.67 107.635C126.52 107.698 126.354 107.715 126.194 107.683C126.034 107.652 125.887 107.573 125.772 107.458C125.657 107.343 125.579 107.196 125.547 107.036C125.516 106.876 125.532 106.711 125.595 106.56C125.658 106.41 125.764 106.282 125.9 106.192C126.036 106.102 126.195 106.055 126.358 106.056C126.575 106.056 126.782 106.142 126.935 106.295C127.089 106.448 127.175 106.656 127.175 106.872Z" fill="white" stroke="#2E353A" stroke-width="0.252" stroke-miterlimit="10"/>
<path d="M126.726 108.061C126.726 108.179 126.691 108.294 126.626 108.391C126.56 108.489 126.467 108.565 126.359 108.61C126.25 108.656 126.131 108.667 126.015 108.644C125.9 108.621 125.794 108.565 125.711 108.482C125.628 108.398 125.571 108.292 125.548 108.177C125.525 108.062 125.537 107.942 125.582 107.833C125.627 107.725 125.703 107.632 125.801 107.567C125.899 107.501 126.014 107.466 126.131 107.466C126.21 107.466 126.287 107.481 126.36 107.51C126.432 107.54 126.498 107.584 126.553 107.639C126.609 107.694 126.652 107.76 126.682 107.833C126.712 107.905 126.727 107.983 126.726 108.061Z" fill="white" stroke="#2E353A" stroke-width="0.252" stroke-miterlimit="10"/>
<path d="M118.762 106.308C118.762 106.436 118.724 106.562 118.653 106.669C118.581 106.776 118.48 106.859 118.361 106.909C118.242 106.958 118.112 106.971 117.985 106.946C117.859 106.92 117.744 106.859 117.653 106.768C117.562 106.677 117.5 106.561 117.475 106.435C117.45 106.309 117.462 106.178 117.512 106.059C117.561 105.94 117.644 105.839 117.751 105.767C117.858 105.696 117.984 105.658 118.112 105.658C118.198 105.658 118.282 105.675 118.361 105.707C118.44 105.74 118.512 105.788 118.572 105.848C118.632 105.909 118.68 105.98 118.713 106.059C118.746 106.138 118.762 106.222 118.762 106.308Z" fill="white" stroke="#2E353A" stroke-width="0.252" stroke-miterlimit="10"/>
<path d="M119.947 105.687C119.947 105.85 119.899 106.009 119.808 106.144C119.718 106.279 119.59 106.384 119.44 106.446C119.29 106.508 119.124 106.525 118.965 106.493C118.806 106.461 118.659 106.383 118.544 106.268C118.43 106.153 118.351 106.007 118.32 105.848C118.288 105.688 118.304 105.523 118.366 105.373C118.429 105.223 118.534 105.094 118.669 105.004C118.804 104.914 118.963 104.866 119.125 104.866C119.233 104.865 119.341 104.886 119.441 104.927C119.541 104.968 119.631 105.028 119.708 105.105C119.784 105.181 119.845 105.272 119.886 105.372C119.927 105.472 119.948 105.579 119.947 105.687Z" fill="white" stroke="#2E353A" stroke-width="0.252" stroke-miterlimit="10"/>
<path d="M118.904 107.467C119.232 107.467 119.498 107.201 119.498 106.872C119.498 106.544 119.232 106.277 118.904 106.277C118.575 106.277 118.309 106.544 118.309 106.872C118.309 107.201 118.575 107.467 118.904 107.467Z" fill="white" stroke="#2E353A" stroke-width="0.252" stroke-miterlimit="10"/>
<path d="M116.499 106.222C116.858 106.222 117.149 105.931 117.149 105.572C117.149 105.212 116.858 104.921 116.499 104.921C116.14 104.921 115.849 105.212 115.849 105.572C115.849 105.931 116.14 106.222 116.499 106.222Z" fill="white" stroke="#2E353A" stroke-width="0.252" stroke-miterlimit="10"/>
<path d="M118.339 104.952C118.348 105.065 118.333 105.178 118.296 105.285C118.259 105.392 118.2 105.49 118.123 105.574C118.046 105.657 117.953 105.723 117.849 105.769C117.745 105.814 117.633 105.837 117.52 105.837C117.407 105.837 117.295 105.814 117.191 105.769C117.087 105.723 116.994 105.657 116.917 105.574C116.84 105.49 116.781 105.392 116.744 105.285C116.707 105.178 116.692 105.065 116.701 104.952C116.717 104.745 116.81 104.553 116.962 104.413C117.114 104.272 117.313 104.194 117.52 104.194C117.727 104.194 117.926 104.272 118.078 104.413C118.23 104.553 118.323 104.745 118.339 104.952Z" fill="white" stroke="#2E353A" stroke-width="0.252" stroke-miterlimit="10"/>
<path d="M117.885 106.141C117.885 106.259 117.85 106.374 117.785 106.472C117.72 106.569 117.627 106.646 117.518 106.691C117.409 106.736 117.29 106.747 117.174 106.724C117.059 106.701 116.953 106.645 116.87 106.562C116.787 106.478 116.73 106.373 116.707 106.257C116.684 106.142 116.696 106.022 116.741 105.914C116.786 105.805 116.862 105.712 116.96 105.647C117.058 105.581 117.173 105.546 117.29 105.546C117.369 105.546 117.446 105.561 117.519 105.59C117.591 105.62 117.657 105.664 117.712 105.719C117.768 105.774 117.812 105.84 117.841 105.913C117.871 105.985 117.886 106.063 117.885 106.141Z" fill="white" stroke="#2E353A" stroke-width="0.252" stroke-miterlimit="10"/>
<path d="M121.586 106.141C121.586 106.269 121.548 106.395 121.476 106.502C121.405 106.609 121.303 106.692 121.184 106.742C121.066 106.791 120.935 106.804 120.809 106.779C120.683 106.753 120.567 106.692 120.476 106.601C120.385 106.51 120.323 106.394 120.298 106.268C120.273 106.142 120.286 106.011 120.335 105.892C120.384 105.773 120.467 105.672 120.574 105.6C120.681 105.529 120.807 105.491 120.936 105.491C121.021 105.49 121.106 105.506 121.185 105.539C121.264 105.571 121.336 105.619 121.397 105.68C121.457 105.74 121.505 105.812 121.538 105.891C121.57 105.97 121.586 106.055 121.586 106.141Z" fill="white" stroke="#2E353A" stroke-width="0.252" stroke-miterlimit="10"/>
<path d="M121.952 106.333C122.403 106.333 122.769 105.967 122.769 105.516C122.769 105.065 122.403 104.7 121.952 104.7C121.502 104.7 121.136 105.065 121.136 105.516C121.136 105.967 121.502 106.333 121.952 106.333Z" fill="white" stroke="#2E353A" stroke-width="0.252" stroke-miterlimit="10"/>
<path d="M121.726 107.3C122.054 107.3 122.321 107.034 122.321 106.706C122.321 106.377 122.054 106.111 121.726 106.111C121.397 106.111 121.131 106.377 121.131 106.706C121.131 107.034 121.397 107.3 121.726 107.3Z" fill="white" stroke="#2E353A" stroke-width="0.252" stroke-miterlimit="10"/>
<path d="M123.898 105.97C123.945 105.85 124.026 105.747 124.131 105.673C124.236 105.599 124.361 105.558 124.489 105.555C124.618 105.552 124.744 105.587 124.853 105.656C124.961 105.725 125.047 105.824 125.099 105.941C125.151 106.059 125.167 106.189 125.145 106.316C125.123 106.443 125.064 106.56 124.976 106.653C124.887 106.746 124.773 106.811 124.648 106.839C124.522 106.867 124.391 106.858 124.271 106.812C124.192 106.781 124.119 106.735 124.057 106.676C123.995 106.617 123.945 106.546 123.91 106.468C123.876 106.39 123.857 106.306 123.855 106.22C123.853 106.135 123.868 106.05 123.898 105.97Z" fill="white" stroke="#2E353A" stroke-width="0.252" stroke-miterlimit="10"/>
<path d="M122.568 106.095C122.627 105.944 122.729 105.813 122.862 105.72C122.995 105.627 123.153 105.575 123.315 105.571C123.478 105.568 123.638 105.612 123.775 105.7C123.912 105.787 124.02 105.913 124.085 106.061C124.151 106.21 124.171 106.375 124.143 106.535C124.115 106.695 124.04 106.843 123.927 106.96C123.815 107.078 123.671 107.159 123.512 107.195C123.354 107.23 123.188 107.217 123.037 107.159C122.936 107.12 122.844 107.061 122.766 106.987C122.688 106.912 122.625 106.823 122.582 106.724C122.538 106.625 122.515 106.519 122.512 106.411C122.51 106.303 122.529 106.196 122.568 106.095Z" fill="white" stroke="#2E353A" stroke-width="0.252" stroke-miterlimit="10"/>
<path d="M123.424 105.179C123.452 105.106 123.493 105.039 123.547 104.982C123.601 104.925 123.665 104.88 123.736 104.848C123.808 104.817 123.885 104.8 123.963 104.799C124.041 104.798 124.118 104.812 124.191 104.841C124.301 104.883 124.396 104.957 124.464 105.053C124.532 105.15 124.57 105.264 124.572 105.382C124.575 105.5 124.543 105.616 124.48 105.715C124.417 105.815 124.326 105.893 124.218 105.941C124.11 105.988 123.99 106.003 123.874 105.982C123.758 105.962 123.651 105.907 123.566 105.825C123.481 105.744 123.422 105.639 123.397 105.524C123.372 105.409 123.381 105.289 123.424 105.179Z" fill="white" stroke="#2E353A" stroke-width="0.252" stroke-miterlimit="10"/>
<path d="M125.037 107.018C125.084 106.898 125.165 106.795 125.271 106.721C125.376 106.648 125.501 106.607 125.63 106.605C125.758 106.602 125.885 106.638 125.993 106.707C126.101 106.776 126.187 106.876 126.238 106.994C126.29 107.112 126.305 107.243 126.283 107.369C126.26 107.496 126.2 107.613 126.111 107.706C126.022 107.798 125.907 107.862 125.781 107.89C125.656 107.917 125.525 107.907 125.405 107.86C125.245 107.797 125.116 107.673 125.047 107.515C124.978 107.357 124.974 107.179 125.037 107.018Z" fill="white" stroke="#2E353A" stroke-width="0.252" stroke-miterlimit="10"/>
<path d="M123.706 107.164C123.765 107.013 123.868 106.883 124.002 106.79C124.135 106.697 124.293 106.645 124.455 106.642C124.618 106.639 124.778 106.684 124.915 106.772C125.052 106.86 125.159 106.986 125.224 107.135C125.289 107.284 125.309 107.449 125.28 107.609C125.251 107.769 125.175 107.917 125.062 108.034C124.949 108.151 124.804 108.232 124.645 108.266C124.487 108.301 124.321 108.287 124.17 108.228C123.967 108.148 123.805 107.991 123.718 107.792C123.631 107.593 123.627 107.367 123.706 107.164Z" fill="white" stroke="#2E353A" stroke-width="0.252" stroke-miterlimit="10"/>
<path d="M124.558 106.227C124.601 106.118 124.675 106.025 124.77 105.958C124.866 105.892 124.979 105.855 125.095 105.853C125.212 105.85 125.326 105.882 125.424 105.945C125.523 106.008 125.6 106.098 125.647 106.204C125.694 106.311 125.708 106.429 125.688 106.544C125.668 106.658 125.615 106.765 125.534 106.849C125.454 106.933 125.351 106.992 125.237 107.017C125.124 107.043 125.005 107.034 124.896 106.993C124.823 106.965 124.757 106.923 124.701 106.869C124.644 106.816 124.599 106.751 124.568 106.68C124.536 106.609 124.519 106.532 124.518 106.454C124.516 106.377 124.53 106.299 124.558 106.227Z" fill="white" stroke="#2E353A" stroke-width="0.252" stroke-miterlimit="10"/>
<path d="M115.32 105.778C115.351 105.698 115.397 105.626 115.456 105.564C115.515 105.502 115.586 105.452 115.664 105.418C115.742 105.384 115.827 105.366 115.912 105.364C115.998 105.363 116.082 105.379 116.162 105.41C116.315 105.478 116.436 105.603 116.5 105.757C116.563 105.912 116.565 106.086 116.504 106.242C116.443 106.398 116.324 106.524 116.172 106.595C116.02 106.665 115.846 106.674 115.688 106.62C115.528 106.557 115.399 106.433 115.33 106.275C115.261 106.117 115.257 105.939 115.32 105.778Z" fill="white" stroke="#2E353A" stroke-width="0.252" stroke-miterlimit="10"/>
<path d="M113.99 105.924C114.048 105.772 114.15 105.641 114.283 105.547C114.416 105.453 114.574 105.401 114.736 105.396C114.899 105.392 115.059 105.436 115.197 105.523C115.334 105.61 115.443 105.736 115.509 105.885C115.575 106.034 115.595 106.199 115.567 106.359C115.539 106.519 115.464 106.668 115.352 106.785C115.239 106.903 115.094 106.984 114.935 107.02C114.776 107.055 114.611 107.042 114.459 106.983C114.359 106.944 114.267 106.886 114.189 106.812C114.111 106.738 114.048 106.649 114.005 106.551C113.961 106.453 113.937 106.347 113.935 106.239C113.933 106.132 113.951 106.025 113.99 105.924Z" fill="white" stroke="#2E353A" stroke-width="0.252" stroke-miterlimit="10"/>
<path d="M114.842 104.982C114.899 104.835 115.013 104.716 115.157 104.653C115.302 104.59 115.466 104.586 115.613 104.644C115.76 104.701 115.878 104.815 115.942 104.96C116.005 105.104 116.008 105.268 115.951 105.415C115.893 105.562 115.78 105.68 115.635 105.744C115.49 105.807 115.327 105.81 115.18 105.753C115.033 105.695 114.914 105.582 114.851 105.437C114.788 105.292 114.784 105.129 114.842 104.982Z" fill="white" stroke="#2E353A" stroke-width="0.252" stroke-miterlimit="10"/>
<path d="M119.099 107.638C119.099 107.767 119.061 107.892 118.99 107.999C118.918 108.106 118.817 108.189 118.698 108.239C118.579 108.288 118.449 108.301 118.322 108.276C118.196 108.251 118.08 108.189 117.99 108.098C117.899 108.007 117.837 107.891 117.812 107.765C117.786 107.639 117.799 107.508 117.849 107.389C117.898 107.27 117.981 107.169 118.088 107.097C118.195 107.026 118.321 106.988 118.449 106.988C118.535 106.987 118.62 107.004 118.699 107.036C118.778 107.068 118.85 107.116 118.91 107.177C118.971 107.237 119.019 107.309 119.051 107.388C119.084 107.468 119.1 107.552 119.099 107.638Z" fill="white" stroke="#2E353A" stroke-width="0.252" stroke-miterlimit="10"/>
<path d="M120.304 107.013C120.305 107.176 120.258 107.335 120.168 107.471C120.078 107.607 119.95 107.713 119.8 107.776C119.649 107.839 119.484 107.855 119.324 107.824C119.164 107.792 119.017 107.714 118.902 107.599C118.787 107.484 118.708 107.337 118.677 107.177C118.645 107.017 118.662 106.851 118.725 106.701C118.788 106.551 118.894 106.423 119.03 106.333C119.165 106.243 119.325 106.195 119.488 106.196C119.704 106.198 119.911 106.284 120.064 106.437C120.217 106.59 120.303 106.797 120.304 107.013Z" fill="white" stroke="#2E353A" stroke-width="0.252" stroke-miterlimit="10"/>
<path d="M119.241 108.797C119.57 108.797 119.836 108.531 119.836 108.203C119.836 107.874 119.57 107.608 119.241 107.608C118.913 107.608 118.647 107.874 118.647 108.203C118.647 108.531 118.913 108.797 119.241 108.797Z" fill="white" stroke="#2E353A" stroke-width="0.252" stroke-miterlimit="10"/>
<path d="M113.295 108.061C113.181 108.12 113.052 108.144 112.924 108.13C112.796 108.116 112.675 108.065 112.577 107.982C112.478 107.899 112.407 107.789 112.371 107.666C112.335 107.542 112.336 107.411 112.375 107.288C112.414 107.166 112.488 107.057 112.589 106.977C112.689 106.896 112.811 106.848 112.939 106.836C113.067 106.825 113.195 106.852 113.308 106.914C113.421 106.976 113.513 107.07 113.572 107.184C113.612 107.26 113.637 107.343 113.644 107.428C113.652 107.513 113.643 107.599 113.617 107.681C113.591 107.762 113.549 107.838 113.494 107.903C113.439 107.969 113.371 108.022 113.295 108.061Z" fill="white" stroke="#2E353A" stroke-width="0.252" stroke-miterlimit="10"/>
<path d="M114.398 108.827C114.302 108.887 114.195 108.926 114.084 108.942C113.972 108.958 113.858 108.951 113.749 108.921C113.641 108.891 113.539 108.839 113.451 108.769C113.363 108.698 113.291 108.61 113.239 108.51C113.186 108.41 113.155 108.301 113.147 108.188C113.139 108.076 113.154 107.963 113.191 107.856C113.229 107.75 113.287 107.652 113.364 107.57C113.441 107.487 113.534 107.421 113.637 107.376C113.828 107.293 114.043 107.285 114.239 107.354C114.435 107.422 114.597 107.563 114.694 107.747C114.79 107.931 114.814 108.145 114.759 108.345C114.704 108.546 114.575 108.718 114.398 108.827Z" fill="white" stroke="#2E353A" stroke-width="0.252" stroke-miterlimit="10"/>
<path d="M113.132 108.974C113.028 109.028 112.91 109.051 112.793 109.038C112.676 109.025 112.565 108.978 112.475 108.903C112.385 108.827 112.319 108.727 112.286 108.614C112.253 108.501 112.254 108.381 112.289 108.268C112.325 108.156 112.392 108.057 112.484 107.983C112.576 107.909 112.688 107.865 112.805 107.854C112.922 107.844 113.04 107.869 113.143 107.925C113.246 107.982 113.33 108.068 113.384 108.172C113.421 108.241 113.444 108.317 113.451 108.395C113.458 108.473 113.449 108.551 113.426 108.626C113.403 108.7 113.365 108.77 113.314 108.829C113.264 108.889 113.202 108.938 113.132 108.974Z" fill="white" stroke="#2E353A" stroke-width="0.252" stroke-miterlimit="10"/>
<path d="M114.432 106.817C114.318 106.876 114.189 106.9 114.061 106.886C113.934 106.872 113.813 106.82 113.714 106.737C113.616 106.654 113.544 106.544 113.508 106.421C113.473 106.297 113.474 106.166 113.513 106.044C113.552 105.921 113.626 105.813 113.726 105.732C113.827 105.652 113.948 105.603 114.077 105.592C114.205 105.581 114.333 105.608 114.446 105.67C114.559 105.732 114.65 105.825 114.71 105.94C114.749 106.015 114.773 106.098 114.781 106.183C114.788 106.268 114.778 106.354 114.753 106.435C114.727 106.517 114.685 106.592 114.631 106.658C114.576 106.723 114.508 106.777 114.432 106.817Z" fill="white" stroke="#2E353A" stroke-width="0.252" stroke-miterlimit="10"/>
<path d="M115.532 107.608C115.339 107.708 115.115 107.727 114.908 107.662C114.701 107.597 114.528 107.452 114.428 107.26C114.327 107.067 114.308 106.843 114.373 106.636C114.438 106.429 114.583 106.256 114.776 106.156C114.871 106.106 114.975 106.076 115.082 106.067C115.189 106.057 115.297 106.069 115.399 106.101C115.502 106.134 115.597 106.186 115.679 106.255C115.762 106.324 115.83 106.408 115.879 106.504C115.929 106.599 115.959 106.703 115.969 106.81C115.978 106.917 115.966 107.025 115.934 107.128C115.902 107.23 115.85 107.325 115.78 107.408C115.711 107.49 115.627 107.558 115.532 107.608Z" fill="white" stroke="#2E353A" stroke-width="0.252" stroke-miterlimit="10"/>
<path d="M114.256 107.729C114.153 107.782 114.036 107.803 113.92 107.79C113.805 107.777 113.696 107.73 113.607 107.655C113.518 107.58 113.454 107.48 113.421 107.368C113.389 107.257 113.39 107.138 113.425 107.027C113.46 106.916 113.527 106.818 113.617 106.745C113.708 106.672 113.818 106.627 113.933 106.617C114.049 106.606 114.165 106.63 114.268 106.685C114.37 106.74 114.454 106.825 114.508 106.927C114.545 106.996 114.567 107.072 114.575 107.15C114.582 107.228 114.573 107.306 114.55 107.381C114.526 107.455 114.488 107.525 114.438 107.584C114.388 107.644 114.326 107.693 114.256 107.729Z" fill="white" stroke="#2E353A" stroke-width="0.252" stroke-miterlimit="10"/>
<path d="M123.524 107.38C123.41 107.44 123.281 107.464 123.153 107.45C123.025 107.436 122.905 107.384 122.806 107.301C122.708 107.218 122.636 107.108 122.6 106.985C122.564 106.861 122.566 106.73 122.605 106.608C122.643 106.485 122.718 106.377 122.818 106.296C122.918 106.216 123.04 106.167 123.168 106.156C123.296 106.145 123.425 106.172 123.538 106.234C123.65 106.296 123.742 106.389 123.801 106.504C123.842 106.579 123.866 106.662 123.874 106.747C123.882 106.833 123.872 106.918 123.847 107C123.821 107.082 123.779 107.157 123.724 107.223C123.668 107.288 123.601 107.342 123.524 107.38Z" fill="white" stroke="#2E353A" stroke-width="0.252" stroke-miterlimit="10"/>
<path d="M124.629 108.147C124.485 108.223 124.322 108.254 124.16 108.237C123.998 108.22 123.845 108.155 123.72 108.051C123.595 107.946 123.504 107.807 123.458 107.651C123.413 107.495 123.414 107.329 123.463 107.173C123.512 107.018 123.606 106.881 123.733 106.779C123.86 106.677 124.014 106.616 124.177 106.602C124.339 106.588 124.501 106.622 124.644 106.701C124.786 106.78 124.902 106.899 124.977 107.044C125.075 107.236 125.093 107.46 125.028 107.666C124.963 107.873 124.82 108.045 124.629 108.147Z" fill="white" stroke="#2E353A" stroke-width="0.252" stroke-miterlimit="10"/>
<path d="M123.368 108.293C123.265 108.347 123.148 108.369 123.033 108.357C122.917 108.344 122.808 108.298 122.718 108.223C122.629 108.149 122.563 108.05 122.53 107.938C122.497 107.827 122.498 107.708 122.532 107.597C122.566 107.485 122.633 107.387 122.723 107.313C122.813 107.24 122.923 107.195 123.039 107.183C123.154 107.172 123.271 107.195 123.374 107.25C123.476 107.305 123.56 107.389 123.615 107.492C123.688 107.631 123.703 107.793 123.657 107.943C123.611 108.094 123.507 108.219 123.368 108.293Z" fill="white" stroke="#2E353A" stroke-width="0.252" stroke-miterlimit="10"/>
<path d="M117.241 108.435C117.127 108.494 116.998 108.518 116.87 108.504C116.742 108.49 116.621 108.438 116.523 108.355C116.425 108.273 116.353 108.163 116.317 108.039C116.281 107.916 116.283 107.784 116.321 107.662C116.36 107.539 116.434 107.431 116.535 107.35C116.635 107.27 116.757 107.221 116.885 107.21C117.013 107.199 117.142 107.226 117.254 107.288C117.367 107.35 117.459 107.444 117.518 107.558C117.558 107.634 117.582 107.716 117.589 107.801C117.597 107.886 117.587 107.972 117.561 108.054C117.536 108.135 117.494 108.211 117.439 108.276C117.384 108.341 117.317 108.395 117.241 108.435Z" fill="white" stroke="#2E353A" stroke-width="0.252" stroke-miterlimit="10"/>
<path d="M118.297 109.22C118.708 109.034 118.89 108.551 118.705 108.14C118.519 107.729 118.035 107.546 117.624 107.732C117.213 107.918 117.031 108.402 117.217 108.813C117.403 109.224 117.886 109.406 118.297 109.22Z" fill="white" stroke="#2E353A" stroke-width="0.252" stroke-miterlimit="10"/>
<path d="M117.079 109.347C116.94 109.411 116.783 109.419 116.638 109.369C116.494 109.32 116.374 109.217 116.303 109.082C116.232 108.946 116.217 108.789 116.259 108.642C116.301 108.495 116.398 108.371 116.53 108.293C116.599 108.253 116.676 108.227 116.756 108.217C116.836 108.207 116.917 108.213 116.995 108.235C117.072 108.257 117.144 108.295 117.207 108.346C117.269 108.397 117.32 108.46 117.358 108.532C117.395 108.603 117.417 108.681 117.423 108.762C117.429 108.842 117.419 108.923 117.393 108.999C117.367 109.075 117.326 109.145 117.272 109.205C117.218 109.265 117.152 109.313 117.079 109.347Z" fill="white" stroke="#2E353A" stroke-width="0.252" stroke-miterlimit="10"/>
<path d="M115.265 107.87C115.189 107.909 115.106 107.933 115.021 107.941C114.936 107.948 114.85 107.939 114.769 107.913C114.688 107.887 114.612 107.846 114.547 107.791C114.481 107.736 114.427 107.669 114.388 107.593C114.349 107.517 114.325 107.434 114.317 107.349C114.31 107.264 114.319 107.178 114.345 107.097C114.371 107.015 114.412 106.94 114.467 106.875C114.522 106.809 114.589 106.755 114.665 106.716C114.818 106.636 114.997 106.621 115.161 106.673C115.326 106.725 115.463 106.84 115.542 106.993C115.622 107.146 115.637 107.324 115.585 107.489C115.533 107.653 115.418 107.79 115.265 107.87Z" fill="white" stroke="#2E353A" stroke-width="0.252" stroke-miterlimit="10"/>
<path d="M116.363 108.616C116.22 108.69 116.058 108.72 115.898 108.702C115.737 108.684 115.586 108.619 115.462 108.516C115.339 108.412 115.249 108.274 115.204 108.119C115.159 107.964 115.16 107.799 115.209 107.645C115.257 107.491 115.35 107.355 115.476 107.254C115.602 107.153 115.755 107.092 115.915 107.077C116.076 107.063 116.237 107.097 116.379 107.174C116.521 107.251 116.636 107.369 116.711 107.512C116.761 107.607 116.793 107.711 116.802 107.819C116.812 107.926 116.801 108.034 116.768 108.137C116.736 108.239 116.684 108.335 116.614 108.417C116.544 108.499 116.459 108.567 116.363 108.616Z" fill="white" stroke="#2E353A" stroke-width="0.252" stroke-miterlimit="10"/>
<path d="M115.104 108.782C115 108.836 114.881 108.859 114.764 108.846C114.647 108.834 114.537 108.786 114.447 108.711C114.356 108.635 114.291 108.535 114.257 108.422C114.224 108.309 114.226 108.189 114.261 108.076C114.296 107.964 114.364 107.865 114.456 107.791C114.548 107.718 114.659 107.673 114.776 107.662C114.894 107.652 115.011 107.677 115.114 107.734C115.218 107.79 115.302 107.876 115.356 107.98C115.429 108.12 115.443 108.283 115.396 108.433C115.348 108.583 115.243 108.709 115.104 108.782Z" fill="white" stroke="#2E353A" stroke-width="0.252" stroke-miterlimit="10"/>
<path d="M116.853 106.877C116.739 106.936 116.61 106.96 116.482 106.946C116.355 106.932 116.234 106.88 116.135 106.797C116.037 106.715 115.965 106.604 115.929 106.481C115.894 106.358 115.895 106.226 115.934 106.104C115.973 105.981 116.047 105.873 116.147 105.792C116.247 105.712 116.369 105.663 116.497 105.652C116.626 105.641 116.754 105.668 116.867 105.73C116.979 105.792 117.071 105.886 117.131 106C117.171 106.075 117.195 106.158 117.203 106.243C117.211 106.329 117.201 106.415 117.176 106.496C117.15 106.578 117.108 106.653 117.053 106.719C116.997 106.784 116.93 106.838 116.853 106.877Z" fill="white" stroke="#2E353A" stroke-width="0.252" stroke-miterlimit="10"/>
<path d="M117.951 107.643C117.808 107.717 117.646 107.746 117.486 107.728C117.326 107.71 117.175 107.645 117.052 107.542C116.928 107.438 116.839 107.3 116.794 107.145C116.749 106.991 116.75 106.826 116.798 106.673C116.847 106.519 116.939 106.383 117.064 106.282C117.19 106.181 117.342 106.119 117.502 106.104C117.663 106.089 117.824 106.122 117.966 106.199C118.107 106.275 118.223 106.392 118.299 106.534C118.349 106.63 118.379 106.735 118.389 106.842C118.399 106.949 118.387 107.058 118.355 107.161C118.322 107.264 118.27 107.359 118.201 107.442C118.131 107.525 118.047 107.593 117.951 107.643Z" fill="white" stroke="#2E353A" stroke-width="0.252" stroke-miterlimit="10"/>
<path d="M116.691 107.79C116.587 107.844 116.469 107.867 116.352 107.854C116.235 107.841 116.124 107.794 116.034 107.719C115.944 107.643 115.878 107.543 115.845 107.43C115.812 107.317 115.813 107.197 115.848 107.084C115.883 106.972 115.951 106.873 116.043 106.799C116.135 106.725 116.246 106.681 116.364 106.67C116.481 106.66 116.598 106.685 116.702 106.741C116.805 106.798 116.889 106.884 116.943 106.988C117.016 107.128 117.03 107.291 116.983 107.441C116.936 107.591 116.831 107.717 116.691 107.79Z" fill="white" stroke="#2E353A" stroke-width="0.252" stroke-miterlimit="10"/>
<path d="M113.011 106.156C112.897 106.216 112.768 106.24 112.64 106.226C112.513 106.211 112.392 106.16 112.293 106.077C112.195 105.994 112.123 105.884 112.087 105.761C112.052 105.637 112.053 105.506 112.092 105.383C112.131 105.261 112.205 105.152 112.305 105.072C112.406 104.992 112.527 104.943 112.656 104.932C112.784 104.921 112.912 104.948 113.025 105.009C113.138 105.071 113.229 105.165 113.289 105.279C113.328 105.355 113.352 105.438 113.36 105.523C113.367 105.608 113.357 105.694 113.332 105.775C113.306 105.857 113.264 105.932 113.209 105.998C113.155 106.063 113.087 106.117 113.011 106.156Z" fill="white" stroke="#2E353A" stroke-width="0.252" stroke-miterlimit="10"/>
<path d="M114.067 106.946C114.478 106.76 114.66 106.277 114.474 105.866C114.288 105.455 113.805 105.273 113.394 105.458C112.983 105.644 112.801 106.128 112.986 106.539C113.172 106.95 113.656 107.132 114.067 106.946Z" fill="white" stroke="#2E353A" stroke-width="0.252" stroke-miterlimit="10"/>
<path d="M112.851 107.069C112.712 107.141 112.55 107.156 112.4 107.109C112.25 107.062 112.125 106.958 112.052 106.819C111.979 106.68 111.965 106.518 112.012 106.368C112.058 106.218 112.163 106.093 112.302 106.02C112.371 105.984 112.446 105.962 112.523 105.955C112.601 105.948 112.679 105.956 112.753 105.98C112.827 106.003 112.896 106.04 112.956 106.09C113.015 106.14 113.064 106.201 113.101 106.27C113.137 106.339 113.159 106.414 113.166 106.491C113.173 106.569 113.164 106.647 113.141 106.721C113.118 106.795 113.081 106.864 113.031 106.924C112.981 106.983 112.92 107.032 112.851 107.069Z" fill="white" stroke="#2E353A" stroke-width="0.252" stroke-miterlimit="10"/>
<path d="M121.146 107.159C121.07 107.207 120.985 107.238 120.897 107.251C120.808 107.265 120.717 107.259 120.631 107.236C120.544 107.212 120.463 107.171 120.393 107.115C120.323 107.059 120.266 106.989 120.224 106.909C120.183 106.83 120.158 106.742 120.152 106.653C120.146 106.563 120.158 106.474 120.189 106.389C120.219 106.305 120.266 106.227 120.328 106.162C120.39 106.097 120.464 106.045 120.547 106.01C120.622 105.97 120.704 105.945 120.788 105.937C120.873 105.929 120.959 105.938 121.04 105.963C121.121 105.988 121.196 106.03 121.261 106.085C121.326 106.139 121.38 106.206 121.419 106.282C121.499 106.435 121.515 106.612 121.464 106.777C121.413 106.941 121.299 107.079 121.146 107.159Z" fill="white" stroke="#2E353A" stroke-width="0.252" stroke-miterlimit="10"/>
<path d="M122.245 107.925C122.052 108.025 121.828 108.044 121.622 107.979C121.415 107.913 121.242 107.769 121.141 107.577C121.058 107.387 121.05 107.172 121.119 106.976C121.188 106.78 121.328 106.617 121.513 106.521C121.697 106.424 121.91 106.401 122.111 106.456C122.311 106.511 122.484 106.64 122.593 106.816C122.692 107.01 122.712 107.235 122.647 107.442C122.582 107.65 122.437 107.823 122.245 107.925Z" fill="white" stroke="#2E353A" stroke-width="0.252" stroke-miterlimit="10"/>
<path d="M120.986 108.071C120.882 108.126 120.763 108.148 120.646 108.136C120.529 108.123 120.419 108.076 120.329 108.001C120.238 107.925 120.172 107.824 120.139 107.711C120.106 107.599 120.108 107.478 120.143 107.366C120.178 107.254 120.246 107.154 120.338 107.081C120.429 107.007 120.541 106.962 120.658 106.952C120.776 106.942 120.893 106.966 120.996 107.023C121.099 107.08 121.184 107.166 121.238 107.27C121.311 107.41 121.325 107.573 121.278 107.723C121.23 107.873 121.125 107.998 120.986 108.071Z" fill="white" stroke="#2E353A" stroke-width="0.252" stroke-miterlimit="10"/>
<path d="M124.7 120.384H112.544L109.938 107.521H127.306L124.7 120.384Z" fill="white" stroke="#2E353A" stroke-width="0.504" stroke-miterlimit="10"/>
<path d="M118.193 120.384L127.048 107.521H123.419L114.776 120.384H118.193Z" fill="#2E353A"/>
<path d="M112.347 119.431L120.426 107.521H116.258L111.46 115.046L112.347 119.431Z" fill="#2E353A"/>
<path d="M134.145 118.298C134.145 118.298 121.202 117.476 114.993 116.987C108.784 116.498 104.343 114.528 102.393 117.315C100.442 120.102 90.0651 154.177 90.0651 154.177L88.926 156.496C88.926 156.496 94.4952 160.593 95.6444 160.593C96.7935 160.593 101.692 143.225 104.656 140.111C107.619 136.996 109.721 129.436 109.721 129.436H132.497L134.145 118.298Z" fill="white"/>
<mask id="mask3_4681_61789" style="mask-type:luminance" maskUnits="userSpaceOnUse" x="88" y="115" width="47" height="46">
<path d="M134.145 118.297C134.145 118.297 121.202 117.476 114.993 116.987C108.784 116.498 104.343 114.527 102.393 117.314C100.442 120.101 90.0651 154.177 90.0651 154.177L88.926 156.495C88.926 156.495 94.4952 160.593 95.6444 160.593C96.7935 160.593 101.692 143.225 104.656 140.11C107.619 136.995 109.721 129.435 109.721 129.435H132.497L134.145 118.297Z" fill="white"/>
</mask>
<g mask="url(#mask3_4681_61789)">
<path d="M113.249 121.049C112.443 121.564 111.709 122.184 111.067 122.894C111.067 122.894 109.383 119.199 108.879 120.545C108.375 121.891 109.555 124.743 109.555 124.743C109.555 124.743 107.201 123.569 107.367 125.081C107.472 126.028 107.529 126.98 107.539 127.934C107.539 127.934 104.681 133.982 102.665 138.689C100.649 143.396 94.7675 157.166 94.0971 159.353C94.0479 159.517 94.0141 159.686 93.9963 159.857C94.4962 160.194 95.0554 160.434 95.6444 160.563C96.7885 160.563 101.692 143.195 104.656 140.08C107.619 136.965 109.721 129.436 109.721 129.436H131.544C131.867 128.705 132.114 128.15 132.225 127.924L124.161 118.852C124.161 118.852 114.963 119.829 113.249 121.049Z" fill="#74B790"/>
<g style="mix-blend-mode:multiply" opacity="0.3">
<path d="M113.249 121.049C112.443 121.564 111.709 122.184 111.067 122.894C111.067 122.894 109.383 119.199 108.879 120.545C108.375 121.891 109.555 124.743 109.555 124.743C109.555 124.743 107.201 123.569 107.367 125.081C107.472 126.028 107.529 126.98 107.539 127.934C107.539 127.934 104.681 133.982 102.665 138.689C100.649 143.396 94.7675 157.166 94.0971 159.353C94.0479 159.517 94.0141 159.686 93.9963 159.857C94.4962 160.194 95.0554 160.434 95.6444 160.563C96.7885 160.563 101.692 143.195 104.656 140.08C107.619 136.965 109.721 129.436 109.721 129.436H131.544C131.867 128.705 132.114 128.15 132.225 127.924L124.161 118.852C124.161 118.852 114.963 119.829 113.249 121.049Z" fill="black"/>
</g>
</g>
<path d="M134.145 118.298C134.145 118.298 121.202 117.476 114.993 116.987C108.784 116.498 104.343 114.528 102.393 117.315C100.442 120.102 90.0651 154.177 90.0651 154.177L88.926 156.496C88.926 156.496 94.4952 160.593 95.6444 160.593C96.7935 160.593 101.692 143.225 104.656 140.111C107.619 136.996 109.721 129.436 109.721 129.436H132.497L134.145 118.298Z" stroke="#2E353A" stroke-width="0.504" stroke-miterlimit="10"/>
<path d="M111.535 124.688L109.731 129.436L113.173 126.16" stroke="#2E353A" stroke-width="0.504" stroke-linecap="round" stroke-linejoin="round"/>
<path d="M88.9257 156.496C88.9257 156.496 84.3393 156.662 83.0289 156.496C81.7185 156.33 78.4374 154.697 77.7822 155.992C77.127 157.287 79.9141 159.429 82.041 161.067C84.1679 162.705 90.5637 164.837 92.5293 165.165C94.4949 165.492 95.644 160.578 95.644 160.578L88.9257 156.496Z" fill="#2E353A" stroke="#2E353A" stroke-width="0.504" stroke-miterlimit="10"/>
<path d="M93.9556 164.454C91.8237 163.854 87.7211 162.66 85.4833 161.717C83.2456 160.775 79.6168 157.438 77.9233 155.785C77.8679 155.844 77.8205 155.91 77.7822 155.982C77.127 157.292 79.9141 159.419 82.041 161.057C84.1679 162.695 90.5637 164.827 92.5293 165.155C92.8078 165.175 93.0867 165.121 93.3374 164.998C93.5881 164.875 93.8015 164.687 93.9556 164.454Z" fill="white" stroke="#2E353A" stroke-width="0.504" stroke-miterlimit="10"/>
<path d="M152.625 98.6369V116.988H129.567C124.401 116.988 120.218 120.838 120.218 125.586C120.218 130.338 124.401 134.189 129.567 134.189H129.729C129.976 134.188 130.222 134.237 130.451 134.331C130.68 134.426 130.888 134.564 131.063 134.74C131.238 134.915 131.377 135.123 131.471 135.352C131.566 135.581 131.614 135.826 131.613 136.074V164.802H175.598V98.6369C175.598 92.8308 170.507 88.1134 164.202 88.0529C157.821 88.0226 152.625 92.7703 152.625 98.6369Z" fill="#74B790" stroke="#2E353A" stroke-width="0.504" stroke-linecap="round" stroke-linejoin="round"/>
<path d="M157.515 116.176V107.537L157.359 103.193C157.359 103.193 156.754 98.6568 155.806 96.5199C155.343 95.5531 154.612 94.7397 153.7 94.1763C152.995 95.5577 152.628 97.086 152.626 98.6367V116.176H157.515Z" fill="#2E353A"/>
<path d="M156.754 98.636V116.987H135.536C133.256 116.987 131.069 117.892 129.456 119.505C127.844 121.117 126.938 123.304 126.938 125.585C126.937 126.714 127.159 127.833 127.591 128.877C128.023 129.921 128.656 130.869 129.454 131.668C130.253 132.467 131.201 133.101 132.244 133.533C133.288 133.966 134.406 134.188 135.536 134.188C135.784 134.187 136.029 134.236 136.258 134.33C136.487 134.425 136.695 134.564 136.87 134.739C137.046 134.914 137.184 135.122 137.279 135.351C137.373 135.58 137.422 135.825 137.421 136.073V164.801H177.892V98.636C177.892 95.8454 176.79 93.1678 174.826 91.1856C172.862 89.2034 170.194 88.0772 167.404 88.052C166.008 88.0433 164.625 88.3107 163.333 88.8387C162.042 89.3668 160.867 90.145 159.878 91.1287C158.888 92.1124 158.102 93.2821 157.566 94.5705C157.03 95.8589 156.754 97.2405 156.754 98.636Z" fill="#74B790" stroke="#2E353A" stroke-width="0.504" stroke-linecap="round" stroke-linejoin="round"/>
<path opacity="0.3" d="M156.754 98.636V116.987H135.536C133.256 116.987 131.069 117.892 129.456 119.505C127.844 121.117 126.938 123.304 126.938 125.585C126.937 126.714 127.159 127.833 127.591 128.877C128.023 129.921 128.656 130.869 129.454 131.668C130.253 132.467 131.201 133.101 132.244 133.533C133.288 133.966 134.406 134.188 135.536 134.188C135.784 134.187 136.029 134.236 136.258 134.33C136.487 134.425 136.695 134.564 136.87 134.739C137.046 134.914 137.184 135.122 137.279 135.351C137.373 135.58 137.422 135.825 137.421 136.073V164.801H177.892V98.636C177.892 95.8454 176.79 93.1678 174.826 91.1856C172.862 89.2034 170.194 88.0772 167.404 88.052C166.008 88.0433 164.625 88.3107 163.333 88.8387C162.042 89.3668 160.867 90.145 159.878 91.1287C158.888 92.1124 158.102 93.2821 157.566 94.5705C157.03 95.8589 156.754 97.2405 156.754 98.636Z" fill="#74B790"/>
<path d="M147.087 99.3323L150.408 114.321C150.408 114.321 151.86 117.532 155.055 117.164C158.251 116.796 159.868 112.628 158.886 110.39C157.903 108.152 152.616 93.0676 152.616 93.0676L148.584 92.0596" fill="white"/>
<mask id="mask4_4681_61789" style="mask-type:luminance" maskUnits="userSpaceOnUse" x="147" y="92" width="13" height="26">
<path d="M147.085 99.3323L150.407 114.321C150.407 114.321 151.858 117.532 155.053 117.164C158.249 116.796 159.867 112.628 158.884 110.39C157.901 108.152 152.614 93.0676 152.614 93.0676L148.582 92.0596" fill="white"/>
</mask>
<g mask="url(#mask4_4681_61789)">
<g style="mix-blend-mode:multiply">
<path d="M150.307 92.6797C151.372 93.6412 152.141 94.8858 152.524 96.2682C153.028 98.4051 157.141 109.68 157.06 110.965C156.98 112.25 153.81 112.673 153.81 112.673C153.81 112.673 156.168 114.473 156.546 115.319L156.924 116.166C156.924 116.166 159.021 115.062 159.192 113.182C159.23 111.85 158.937 110.529 158.341 109.337L152.62 93.0678L150.307 92.6797Z" fill="#74B790"/>
</g>
<g style="mix-blend-mode:multiply" opacity="0.3">
<path d="M150.307 92.6797C151.372 93.6412 152.141 94.8858 152.524 96.2682C153.028 98.4051 157.141 109.68 157.06 110.965C156.98 112.25 153.81 112.673 153.81 112.673C153.81 112.673 156.168 114.473 156.546 115.319L156.924 116.166C156.924 116.166 159.021 115.062 159.192 113.182C159.23 111.85 158.937 110.529 158.341 109.337L152.62 93.0678L150.307 92.6797Z" fill="black"/>
</g>
</g>
<path d="M147.087 99.3323L150.408 114.321C150.408 114.321 151.86 117.532 155.055 117.164C158.251 116.796 159.868 112.628 158.886 110.39C157.903 108.152 152.616 93.0676 152.616 93.0676L148.584 92.0596" stroke="#2E353A" stroke-width="0.504" stroke-linecap="round" stroke-linejoin="round"/>
<path d="M156.92 116.176C156.92 116.176 157.02 113.968 154.319 112.86C151.618 111.751 150.625 112.739 148.533 112.86C143.962 113.306 139.42 114.003 134.925 114.946C131.357 115.808 128.802 114.281 127.819 115.385C127.255 116.002 126.798 116.709 126.468 117.476C126.468 117.476 142.42 117.285 147.948 117.038C153.477 116.791 156.305 117.764 156.92 116.176Z" fill="#FFBE9D"/>
<mask id="mask5_4681_61789" style="mask-type:luminance" maskUnits="userSpaceOnUse" x="126" y="112" width="31" height="6">
<path d="M156.92 116.176C156.92 116.176 157.02 113.968 154.319 112.86C151.618 111.751 150.625 112.739 148.533 112.86C143.962 113.306 139.42 114.003 134.925 114.946C131.357 115.808 128.802 114.281 127.819 115.385C127.255 116.002 126.798 116.709 126.468 117.476C126.468 117.476 142.42 117.285 147.948 117.038C153.477 116.791 156.305 117.764 156.92 116.176Z" fill="white"/>
</mask>
<g mask="url(#mask5_4681_61789)">
<g style="mix-blend-mode:multiply">
<path d="M154.746 113.182C154.746 113.182 154.918 113.686 153.552 114.548C152.186 115.41 132.963 117.184 132.963 117.184H155.079C155.079 117.184 157.246 116.619 157.246 116.11C157.246 115.601 156.112 113.182 154.746 113.182Z" fill="#74B790"/>
</g>
<g style="mix-blend-mode:multiply" opacity="0.3">
<path d="M154.746 113.182C154.746 113.182 154.918 113.686 153.552 114.548C152.186 115.41 132.963 117.184 132.963 117.184H155.079C155.079 117.184 157.246 116.619 157.246 116.11C157.246 115.601 156.112 113.182 154.746 113.182Z" fill="black"/>
</g>
</g>
<path d="M156.92 116.176C156.92 116.176 157.02 113.968 154.319 112.86C151.618 111.751 150.625 112.739 148.533 112.86C143.962 113.306 139.42 114.003 134.925 114.946C131.357 115.808 128.802 114.281 127.819 115.385C127.255 116.002 126.798 116.709 126.468 117.476C126.468 117.476 142.42 117.285 147.948 117.038C153.477 116.791 156.305 117.764 156.92 116.176Z" stroke="#2E353A" stroke-width="0.504" stroke-linecap="round" stroke-linejoin="round"/>
<path d="M93.2753 105.34C93.2095 105.339 93.1444 105.326 93.0838 105.3C92.9655 105.247 92.8723 105.15 92.8234 105.03C92.7746 104.91 92.774 104.775 92.8217 104.655L95.382 98.6824C95.4183 98.6006 95.4757 98.5299 95.5484 98.4777C95.621 98.4254 95.7062 98.3935 95.7953 98.385L100.77 97.9617C100.842 97.938 100.919 97.9309 100.994 97.941C101.069 97.951 101.141 97.978 101.205 98.0198C101.268 98.0616 101.321 98.1172 101.36 98.1825C101.399 98.2477 101.422 98.3209 101.429 98.3965C101.436 98.4722 101.425 98.5484 101.398 98.6194C101.371 98.6904 101.329 98.7544 101.273 98.8066C101.218 98.8588 101.152 98.8978 101.08 98.9208C101.007 98.9438 100.931 98.9502 100.855 98.9394L96.1683 99.3426L93.7289 105.043C93.6895 105.131 93.6259 105.205 93.5455 105.258C93.4652 105.31 93.3714 105.339 93.2753 105.34Z" fill="white" stroke="#2E353A" stroke-width="0.504" stroke-miterlimit="10"/>
<path d="M95.0391 116.74H88.9558L87.6555 103.878H96.3394L95.0391 116.74Z" fill="#2E353A" stroke="#2E353A" stroke-width="0.504" stroke-miterlimit="10"/>
<path d="M96.6218 103.001H87.3784V104.851H96.6218V103.001Z" fill="#669F76" stroke="#2E353A" stroke-width="0.504" stroke-miterlimit="10"/>
<path d="M134.603 75.6842C134.603 75.6842 133.263 83.4257 133.711 85.8096C134.16 88.1935 136.09 90.4212 139.961 90.275C143.832 90.1289 145.621 85.8096 145.621 85.8096C145.621 85.8096 149.34 85.6584 149.789 83.723C150.237 81.7877 149.34 80.447 148.302 80.447C147.437 80.5188 146.588 80.7193 145.782 81.0418C145.782 81.0418 143.106 80.0035 143.262 78.9602C143.418 77.917 145.646 76.279 145.197 75.6842C144.749 75.0895 134.603 75.6842 134.603 75.6842Z" fill="#FFBE9D"/>
<mask id="mask6_4681_61789" style="mask-type:luminance" maskUnits="userSpaceOnUse" x="133" y="75" width="17" height="16">
<path d="M134.604 75.6852C134.604 75.6852 133.264 83.4267 133.712 85.8106C134.161 88.1945 136.091 90.4222 139.962 90.276C143.833 90.1299 145.622 85.8106 145.622 85.8106C145.622 85.8106 149.341 85.6594 149.79 83.724C150.238 81.7887 149.341 80.448 148.303 80.448C147.438 80.5198 146.589 80.7203 145.783 81.0427C145.783 81.0427 143.107 80.0045 143.263 78.9612C143.419 77.9179 145.647 76.2799 145.198 75.6852C144.75 75.0905 134.604 75.6852 134.604 75.6852Z" fill="white"/>
</mask>
<g mask="url(#mask6_4681_61789)">
<g style="mix-blend-mode:multiply">
<path d="M149.791 83.7239C150.24 81.7885 149.343 80.4479 148.304 80.4479C147.439 80.5197 146.59 80.7201 145.784 81.0426C145.784 81.0426 143.108 80.0044 143.264 78.9611C143.421 77.9178 145.648 76.2798 145.2 75.6851C145.089 75.5339 144.338 75.4583 143.285 75.4331C143.012 76.0127 141.45 79.5004 142.387 81.9851C143.395 84.7218 143.244 87.5291 142.13 88.653C141.153 89.6308 138.915 90.0793 138.396 90.165C138.923 90.2453 139.456 90.2757 139.988 90.2557C143.859 90.1045 145.648 85.7903 145.648 85.7903C145.648 85.7903 149.343 85.6593 149.791 83.7239Z" fill="#74B790"/>
</g>
<g style="mix-blend-mode:multiply" opacity="0.3">
<path d="M149.791 83.7239C150.24 81.7885 149.343 80.4479 148.304 80.4479C147.439 80.5197 146.59 80.7201 145.784 81.0426C145.784 81.0426 143.108 80.0044 143.264 78.9611C143.421 77.9178 145.648 76.2798 145.2 75.6851C145.089 75.5339 144.338 75.4583 143.285 75.4331C143.012 76.0127 141.45 79.5004 142.387 81.9851C143.395 84.7218 143.244 87.5291 142.13 88.653C141.153 89.6308 138.915 90.0793 138.396 90.165C138.923 90.2453 139.456 90.2757 139.988 90.2557C143.859 90.1045 145.648 85.7903 145.648 85.7903C145.648 85.7903 149.343 85.6593 149.791 83.7239Z" fill="black"/>
</g>
</g>
<path d="M134.603 75.6842C134.603 75.6842 133.263 83.4257 133.711 85.8096C134.16 88.1935 136.09 90.4212 139.961 90.275C143.832 90.1289 145.621 85.8096 145.621 85.8096C145.621 85.8096 149.34 85.6584 149.789 83.723C150.237 81.7877 149.34 80.447 148.302 80.447C147.437 80.5188 146.588 80.7193 145.782 81.0418C145.782 81.0418 143.106 80.0035 143.262 78.9602C143.418 77.917 145.646 76.279 145.197 75.6842C144.749 75.0895 134.603 75.6842 134.603 75.6842Z" stroke="#2E353A" stroke-width="0.504" stroke-linecap="round" stroke-linejoin="round"/>
<path d="M134.755 83.1284C134.755 83.1284 138.323 84.9126 141.599 83.2746C141.599 83.2746 141.302 86.8479 137.88 87.1453C134.457 87.4427 134.755 83.1284 134.755 83.1284Z" fill="#2E353A" stroke="#2E353A" stroke-width="0.504" stroke-linecap="round" stroke-linejoin="round"/>
<path d="M137.285 79.5552L137.133 80.4473C137.133 80.4473 135.944 81.042 136.387 81.6367C136.557 81.815 136.768 81.9491 137.002 82.0273C137.236 82.1055 137.485 82.1254 137.728 82.0853" stroke="#2E353A" stroke-width="0.504" stroke-linecap="round" stroke-linejoin="round"/>
<path d="M140.157 79.0919C140.157 79.5203 139.96 79.8731 139.718 79.8731C139.476 79.8731 139.275 79.5203 139.275 79.0919C139.275 78.6635 139.471 78.3057 139.718 78.3057C139.965 78.3057 140.157 78.6585 140.157 79.0919Z" fill="#2E353A"/>
<path d="M136.145 78.6832C136.145 79.1116 135.943 79.4644 135.702 79.4644C135.46 79.4644 135.258 79.1116 135.258 78.6832C135.258 78.2548 135.46 77.897 135.702 77.897C135.943 77.897 136.145 78.2498 136.145 78.6832Z" fill="#2E353A"/>
<path d="M136.2 86.808C136.708 87.1019 137.297 87.2206 137.879 87.1456C138.563 87.1067 139.224 86.882 139.791 86.4957C140.357 86.1095 140.808 85.5762 141.094 84.9532C138.272 84.8272 136.881 85.8201 136.2 86.808Z" fill="#FFBE9D" stroke="#2E353A" stroke-width="0.504" stroke-linecap="round" stroke-linejoin="round"/>
<path d="M139.366 76.5766C139.366 76.5766 141.135 75.2712 141.543 77.3074" stroke="#2E353A" stroke-width="0.504" stroke-linecap="round" stroke-linejoin="round"/>
<path d="M136.861 76.763C136.861 76.763 136.029 75.6491 135.288 76.6672" stroke="#2E353A" stroke-width="0.504" stroke-linecap="round" stroke-linejoin="round"/>
<path d="M1.74782 129.189H-0.217773L5.62358 123.544H7.58919L1.74782 129.189Z" fill="white" stroke="#2E353A" stroke-width="0.504" stroke-linecap="round" stroke-linejoin="round"/>
<path d="M0.396505 129.189H-1.56909L4.27227 123.544H6.23787L0.396505 129.189Z" fill="#2E353A" stroke="#2E353A" stroke-width="0.504" stroke-linecap="round" stroke-linejoin="round"/>
<path d="M10.2903 129.189H12.2559L6.41458 123.544H4.44897L10.2903 129.189Z" fill="white" stroke="#2E353A" stroke-width="0.504" stroke-linecap="round" stroke-linejoin="round"/>
<path d="M11.646 129.189H13.6116L7.77029 123.544H5.80469L11.646 129.189Z" fill="#2E353A" stroke="#2E353A" stroke-width="0.504" stroke-linecap="round" stroke-linejoin="round"/>
<path d="M57.7818 129.189H55.8162L61.6575 123.544H63.6231L57.7818 129.189Z" fill="white" stroke="#2E353A" stroke-width="0.504" stroke-linecap="round" stroke-linejoin="round"/>
<path d="M56.4256 129.189H54.46L60.3064 123.544H62.272L56.4256 129.189Z" fill="#2E353A" stroke="#2E353A" stroke-width="0.504" stroke-linecap="round" stroke-linejoin="round"/>
<path d="M66.3248 129.189H68.2904L62.449 123.544H60.4834L66.3248 129.189Z" fill="#2E353A" stroke="#2E353A" stroke-width="0.504" stroke-linecap="round" stroke-linejoin="round"/>
<path d="M67.6802 129.189H69.6458L63.8045 123.544H61.8389L67.6802 129.189Z" fill="white" stroke="#2E353A" stroke-width="0.504" stroke-linecap="round" stroke-linejoin="round"/>
<path d="M71.304 78.9102H1.69653V125.263H71.304V78.9102Z" fill="#2E353A" stroke="#2E353A" stroke-width="0.504" stroke-linecap="round" stroke-linejoin="round"/>
<path d="M70.1543 78.9102H0.546875V125.263H70.1543V78.9102Z" fill="#2E353A" stroke="#2E353A" stroke-width="0.504" stroke-linecap="round" stroke-linejoin="round"/>
<path d="M69.0156 125.258V78.9102H-0.591863V79.5553L-2.12402 82.801V125.258H69.0156Z" fill="#FD7E50" stroke="#2E353A" stroke-width="0.504" stroke-linecap="round" stroke-linejoin="round"/>
<path d="M69.0155 125.258V78.9102L67.1809 82.801V125.258H69.0155Z" fill="#FD7E50" stroke="#2E353A" stroke-width="0.504" stroke-linecap="round" stroke-linejoin="round"/>
<path d="M-2.12402 82.801H67.181L69.0156 78.9102H-0.591863L-2.12402 82.801Z" fill="#FD7E50" stroke="#2E353A" stroke-width="0.504" stroke-linecap="round" stroke-linejoin="round"/>
<path d="M1.10742 119.83H62.3434" stroke="#2E353A" stroke-width="0.504" stroke-linecap="round" stroke-linejoin="round"/>
<path d="M49.2387 115.858H13.9083C13.723 115.843 13.5503 115.758 13.4244 115.622C13.2984 115.485 13.2285 115.306 13.2285 115.12C13.2285 114.934 13.2984 114.755 13.4244 114.618C13.5503 114.481 13.723 114.397 13.9083 114.381H49.2387C49.424 114.397 49.5968 114.481 49.7227 114.618C49.8487 114.755 49.9186 114.934 49.9186 115.12C49.9186 115.306 49.8487 115.485 49.7227 115.622C49.5968 115.758 49.424 115.843 49.2387 115.858Z" fill="#2E353A" stroke="#2E353A" stroke-width="0.504" stroke-linecap="round" stroke-linejoin="round"/>
<path d="M12.8105 103.188V86.3896H48.4534V104.13" stroke="#2E353A" stroke-width="0.504" stroke-linecap="round" stroke-linejoin="round"/>
<path d="M79.3588 131.896H-8.5791V164.827H79.3588V131.896Z" fill="white" stroke="#2E353A" stroke-width="0.504" stroke-linecap="round" stroke-linejoin="round"/>
<path d="M79.353 131.896H47.2029V164.827H79.353V131.896Z" fill="white" stroke="#2E353A" stroke-width="0.504" stroke-linecap="round" stroke-linejoin="round"/>
<g style="mix-blend-mode:multiply" opacity="0.3">
<path d="M79.353 131.896H47.2029V164.827H79.353V131.896Z" fill="black"/>
</g>
<path d="M81.2232 128.7H-10.4443V132.384H81.2232V128.7Z" fill="#2E353A" stroke="#2E353A" stroke-width="0.504" stroke-linecap="round" stroke-linejoin="round"/>
<path d="M79.2766 130.968H-8.53027V134.653H79.2766V130.968Z" fill="white" stroke="#2E353A" stroke-width="0.504" stroke-linecap="round" stroke-linejoin="round"/>
<path d="M81.2227 128.7H50.5039V132.384H81.2227V128.7Z" fill="white" stroke="#2E353A" stroke-width="0.504" stroke-linecap="round" stroke-linejoin="round"/>
<g style="mix-blend-mode:multiply" opacity="0.3">
<path d="M81.2227 128.7H50.5039V132.384H81.2227V128.7Z" fill="black"/>
</g>
</svg>
