<svg width="135" height="41" viewBox="0 0 135 41" fill="none" xmlns="http://www.w3.org/2000/svg">
<path d="M130 0.5H5C2.23858 0.5 0 2.73858 0 5.5V35.5C0 38.2614 2.23858 40.5 5 40.5H130C132.761 40.5 135 38.2614 135 35.5V5.5C135 2.73858 132.761 0.5 130 0.5Z" fill="black"/>
<path d="M130 1.3C131.114 1.3 132.182 1.7425 132.97 2.53015C133.758 3.3178 134.2 4.38609 134.2 5.5V35.5C134.2 36.6139 133.758 37.6822 132.97 38.4698C132.182 39.2575 131.114 39.7 130 39.7H5C3.88609 39.7 2.8178 39.2575 2.03015 38.4698C1.2425 37.6822 0.8 36.6139 0.8 35.5V5.5C0.8 4.38609 1.2425 3.3178 2.03015 2.53015C2.8178 1.7425 3.88609 1.3 5 1.3H130ZM130 0.5H5C3.67392 0.5 2.40215 1.02678 1.46447 1.96447C0.526784 2.90215 0 4.17392 0 5.5V35.5C0 36.8261 0.526784 38.0979 1.46447 39.0355C2.40215 39.9732 3.67392 40.5 5 40.5H130C131.326 40.5 132.598 39.9732 133.536 39.0355C134.473 38.0979 135 36.8261 135 35.5V5.5C135 4.17392 134.473 2.90215 133.536 1.96447C132.598 1.02678 131.326 0.5 130 0.5Z" fill="#A6A6A6"/>
<path d="M44.3757 10.9858H46.4666V13.8869C46.1529 13.9933 45.8297 14.0724 45.4969 14.1242C45.1668 14.176 44.7972 14.202 44.388 14.202C43.7661 14.202 43.2409 14.0778 42.8127 13.8296C42.3871 13.5814 42.0639 13.2281 41.8429 12.7698C41.622 12.3088 41.5115 11.7619 41.5115 11.129C41.5115 10.5098 41.6329 9.96967 41.8756 9.50866C42.1212 9.04765 42.4744 8.6903 42.9354 8.43661C43.3992 8.18019 43.9556 8.05198 44.6049 8.05198C44.9377 8.05198 45.2527 8.08335 45.5501 8.14609C45.8501 8.20611 46.1284 8.29203 46.3848 8.40388L46.1188 9.00946C45.8979 8.91399 45.6537 8.83215 45.3864 8.76396C45.1218 8.69576 44.8477 8.66166 44.564 8.66166C44.0757 8.66166 43.6569 8.76259 43.3078 8.96445C42.9613 9.16632 42.6954 9.45138 42.5099 9.81964C42.3271 10.1879 42.2357 10.6244 42.2357 11.129C42.2357 11.6282 42.3162 12.0633 42.4771 12.4343C42.6381 12.8026 42.889 13.089 43.23 13.2936C43.571 13.4982 44.0102 13.6005 44.5476 13.6005C44.8176 13.6005 45.0495 13.5855 45.2432 13.5554C45.4369 13.5227 45.6128 13.4845 45.771 13.4409V11.6078H44.3757V10.9858ZM51.2459 14.1201H47.9151V8.13791H51.2459V8.75168H48.6107V10.6871H51.0945V11.2927H48.6107V13.5063H51.2459V14.1201ZM54.4088 14.1201H53.7091V8.75168H51.8269V8.13791H56.2829V8.75168H54.4088V14.1201ZM59.364 14.1201V8.13791H60.0596V14.1201H59.364ZM63.5417 14.1201H62.842V8.75168H60.9598V8.13791H65.4158V8.75168H63.5417V14.1201ZM73.6853 11.1208C73.6853 11.5818 73.6266 12.0019 73.5093 12.3811C73.392 12.7575 73.2174 13.0822 72.9856 13.355C72.7564 13.625 72.4714 13.8337 72.1304 13.981C71.7894 14.1283 71.3939 14.202 70.9438 14.202C70.48 14.202 70.0749 14.1283 69.7285 13.981C69.3848 13.8337 69.0984 13.6236 68.8692 13.3509C68.6428 13.0781 68.4723 12.7521 68.3578 12.3729C68.2459 11.9937 68.19 11.5737 68.19 11.1126C68.19 10.5016 68.2909 9.96558 68.4928 9.50457C68.6946 9.04356 69.0002 8.68485 69.4093 8.42843C69.8213 8.17201 70.3368 8.0438 70.956 8.0438C71.548 8.0438 72.0458 8.17064 72.4496 8.42434C72.856 8.67803 73.1629 9.03538 73.3702 9.49639C73.5803 9.95467 73.6853 10.4961 73.6853 11.1208ZM68.9224 11.1208C68.9224 11.6282 68.9947 12.0674 69.1393 12.4384C69.2839 12.8094 69.5048 13.0958 69.8022 13.2977C70.1022 13.4995 70.4828 13.6005 70.9438 13.6005C71.4075 13.6005 71.7867 13.4995 72.0813 13.2977C72.3786 13.0958 72.5982 12.8094 72.7401 12.4384C72.8819 12.0674 72.9528 11.6282 72.9528 11.1208C72.9528 10.3488 72.7905 9.74599 72.4659 9.31226C72.144 8.8758 71.6407 8.65757 70.956 8.65757C70.4923 8.65757 70.1104 8.75714 69.8103 8.95627C69.5103 9.1554 69.2866 9.4391 69.1393 9.80736C68.9947 10.1729 68.9224 10.6107 68.9224 11.1208ZM79.6961 14.1201H78.8941L75.633 9.09539H75.6002C75.6084 9.22906 75.618 9.38182 75.6289 9.55367C75.6398 9.7228 75.648 9.9042 75.6534 10.0979C75.6616 10.2888 75.6657 10.4839 75.6657 10.683V14.1201H75.0192V8.13791H75.8171L79.066 13.1463H79.0946C79.0892 13.0508 79.0824 12.9158 79.0742 12.7412C79.066 12.5639 79.0578 12.3743 79.0496 12.1724C79.0442 11.9678 79.0414 11.7782 79.0414 11.6037V8.13791H79.6961V14.1201Z" fill="white"/>
<path d="M44.3757 10.9858V10.8858H44.2757V10.9858H44.3757ZM46.4666 10.9858H46.5666V10.8858H46.4666V10.9858ZM46.4666 13.8869L46.4988 13.9816L46.5666 13.9586V13.8869H46.4666ZM45.4969 14.1242L45.4815 14.0254L45.4814 14.0254L45.4969 14.1242ZM42.8127 13.8296L42.7623 13.916L42.7625 13.9161L42.8127 13.8296ZM41.8429 12.7698L41.7527 12.813L41.7528 12.8133L41.8429 12.7698ZM41.8756 9.50866L41.7874 9.46166L41.7872 9.46207L41.8756 9.50866ZM42.9354 8.43661L42.9836 8.52422L42.9838 8.52412L42.9354 8.43661ZM45.5501 8.14609L45.5294 8.24394L45.5305 8.24415L45.5501 8.14609ZM46.3848 8.40388L46.4764 8.44409L46.5167 8.3523L46.4248 8.31222L46.3848 8.40388ZM46.1188 9.00946L46.0792 9.10126L46.1704 9.14069L46.2104 9.04967L46.1188 9.00946ZM45.3864 8.76396L45.3614 8.86079L45.3617 8.86085L45.3864 8.76396ZM43.3078 8.96445L43.2577 8.87788L43.2574 8.87805L43.3078 8.96445ZM42.5099 9.81964L42.4206 9.77465L42.4203 9.77518L42.5099 9.81964ZM42.4771 12.4343L42.3854 12.4741L42.3855 12.4743L42.4771 12.4343ZM43.23 13.2936L43.1786 13.3793L43.23 13.2936ZM45.2432 13.5554L45.2585 13.6543L45.2599 13.6541L45.2432 13.5554ZM45.771 13.4409L45.7976 13.5373L45.871 13.517V13.4409H45.771ZM45.771 11.6078H45.871V11.5078H45.771V11.6078ZM44.3757 11.6078H44.2757V11.7078H44.3757V11.6078ZM44.3757 11.0858H46.4666V10.8858H44.3757V11.0858ZM46.3666 10.9858V13.8869H46.5666V10.9858H46.3666ZM46.4345 13.7922C46.1264 13.8967 45.8087 13.9744 45.4815 14.0254L45.5123 14.223C45.8507 14.1703 46.1795 14.0899 46.4988 13.9816L46.4345 13.7922ZM45.4814 14.0254C45.1574 14.0763 44.7931 14.102 44.388 14.102V14.302C44.8013 14.302 45.1762 14.2758 45.5124 14.223L45.4814 14.0254ZM44.388 14.102C43.7792 14.102 43.2724 13.9805 42.8628 13.7431L42.7625 13.9161C43.2095 14.1752 43.7529 14.302 44.388 14.302V14.102ZM42.8631 13.7432C42.4553 13.5054 42.1456 13.1673 41.933 12.7264L41.7528 12.8133C41.9821 13.2889 42.3189 13.6574 42.7623 13.916L42.8631 13.7432ZM41.9331 12.7266C41.7199 12.2819 41.6115 11.7504 41.6115 11.129H41.4115C41.4115 11.7734 41.524 12.3357 41.7527 12.813L41.9331 12.7266ZM41.6115 11.129C41.6115 10.523 41.7302 9.99943 41.9641 9.55526L41.7872 9.46207C41.5355 9.93992 41.4115 10.4966 41.4115 11.129H41.6115ZM41.9639 9.55567C42.2002 9.11193 42.5395 8.76863 42.9836 8.52422L42.8872 8.349C42.4093 8.61198 42.0421 8.98338 41.7874 9.46166L41.9639 9.55567ZM42.9838 8.52412C43.4297 8.27755 43.9688 8.15198 44.6049 8.15198V7.95198C43.9425 7.95198 43.3686 8.08284 42.887 8.3491L42.9838 8.52412ZM44.6049 8.15198C44.9314 8.15198 45.2395 8.18276 45.5294 8.24394L45.5707 8.04825C45.266 7.98395 44.944 7.95198 44.6049 7.95198V8.15198ZM45.5305 8.24415C45.8242 8.30289 46.0955 8.3868 46.3448 8.49554L46.4248 8.31222C46.1612 8.19727 45.8761 8.10932 45.5697 8.04804L45.5305 8.24415ZM46.2932 8.36367L46.0273 8.96925L46.2104 9.04967L46.4764 8.44409L46.2932 8.36367ZM46.1585 8.91767C45.9321 8.81982 45.6828 8.73637 45.4111 8.66706L45.3617 8.86085C45.6246 8.92793 45.8637 9.00815 46.0792 9.10126L46.1585 8.91767ZM45.4114 8.66712C45.1383 8.59674 44.8557 8.56166 44.564 8.56166V8.76166C44.8396 8.76166 45.1053 8.79477 45.3614 8.86079L45.4114 8.66712ZM44.564 8.56166C44.0618 8.56166 43.625 8.66554 43.2577 8.87788L43.3578 9.05103C43.6889 8.85964 44.0895 8.76166 44.564 8.76166V8.56166ZM43.2574 8.87805C42.8938 9.08995 42.6145 9.38962 42.4206 9.77465L42.5992 9.86462C42.7762 9.51313 43.0289 9.24269 43.3581 9.05086L43.2574 8.87805ZM42.4203 9.77518C42.2293 10.16 42.1357 10.6124 42.1357 11.129H42.3357C42.3357 10.6363 42.4249 10.2158 42.5994 9.86409L42.4203 9.77518ZM42.1357 11.129C42.1357 11.6388 42.2179 12.088 42.3854 12.4741L42.5689 12.3945C42.4145 12.0386 42.3357 11.6176 42.3357 11.129H42.1357ZM42.3855 12.4743C42.5547 12.8614 42.8196 13.1639 43.1786 13.3793L43.2815 13.2078C42.9585 13.014 42.7215 12.7437 42.5688 12.3943L42.3855 12.4743ZM43.1786 13.3793C43.5396 13.596 43.9982 13.7005 44.5476 13.7005V13.5005C44.0222 13.5005 43.6024 13.4004 43.2815 13.2078L43.1786 13.3793ZM44.5476 13.7005C44.821 13.7005 45.0583 13.6853 45.2585 13.6543L45.2279 13.4566C45.0408 13.4856 44.8143 13.5005 44.5476 13.5005V13.7005ZM45.2599 13.6541C45.4563 13.6209 45.6356 13.582 45.7976 13.5373L45.7444 13.3445C45.5901 13.3871 45.4175 13.4246 45.2265 13.4568L45.2599 13.6541ZM45.871 13.4409V11.6078H45.671V13.4409H45.871ZM45.771 11.5078H44.3757V11.7078H45.771V11.5078ZM44.4757 11.6078V10.9858H44.2757V11.6078H44.4757ZM51.2459 14.1201V14.2201H51.3459V14.1201H51.2459ZM47.9151 14.1201H47.8151V14.2201H47.9151V14.1201ZM47.9151 8.13791V8.03791H47.8151V8.13791H47.9151ZM51.2459 8.13791H51.3459V8.03791H51.2459V8.13791ZM51.2459 8.75168V8.85168H51.3459V8.75168H51.2459ZM48.6107 8.75168V8.65168H48.5107V8.75168H48.6107ZM48.6107 10.6871H48.5107V10.7871H48.6107V10.6871ZM51.0945 10.6871H51.1945V10.5871H51.0945V10.6871ZM51.0945 11.2927V11.3927H51.1945V11.2927H51.0945ZM48.6107 11.2927V11.1927H48.5107V11.2927H48.6107ZM48.6107 13.5063H48.5107V13.6063H48.6107V13.5063ZM51.2459 13.5063H51.3459V13.4063H51.2459V13.5063ZM51.2459 14.0201H47.9151V14.2201H51.2459V14.0201ZM48.0151 14.1201V8.13791H47.8151V14.1201H48.0151ZM47.9151 8.23791H51.2459V8.03791H47.9151V8.23791ZM51.1459 8.13791V8.75168H51.3459V8.13791H51.1459ZM51.2459 8.65168H48.6107V8.85168H51.2459V8.65168ZM48.5107 8.75168V10.6871H48.7107V8.75168H48.5107ZM48.6107 10.7871H51.0945V10.5871H48.6107V10.7871ZM50.9945 10.6871V11.2927H51.1945V10.6871H50.9945ZM51.0945 11.1927H48.6107V11.3927H51.0945V11.1927ZM48.5107 11.2927V13.5063H48.7107V11.2927H48.5107ZM48.6107 13.6063H51.2459V13.4063H48.6107V13.6063ZM51.1459 13.5063V14.1201H51.3459V13.5063H51.1459ZM54.4088 14.1201V14.2201H54.5088V14.1201H54.4088ZM53.7091 14.1201H53.6091V14.2201H53.7091V14.1201ZM53.7091 8.75168H53.8091V8.65168H53.7091V8.75168ZM51.8269 8.75168H51.7269V8.85168H51.8269V8.75168ZM51.8269 8.13791V8.03791H51.7269V8.13791H51.8269ZM56.2829 8.13791H56.3829V8.03791H56.2829V8.13791ZM56.2829 8.75168V8.85168H56.3829V8.75168H56.2829ZM54.4088 8.75168V8.65168H54.3088V8.75168H54.4088ZM54.4088 14.0201H53.7091V14.2201H54.4088V14.0201ZM53.8091 14.1201V8.75168H53.6091V14.1201H53.8091ZM53.7091 8.65168H51.8269V8.85168H53.7091V8.65168ZM51.9269 8.75168V8.13791H51.7269V8.75168H51.9269ZM51.8269 8.23791H56.2829V8.03791H51.8269V8.23791ZM56.1829 8.13791V8.75168H56.3829V8.13791H56.1829ZM56.2829 8.65168H54.4088V8.85168H56.2829V8.65168ZM54.3088 8.75168V14.1201H54.5088V8.75168H54.3088ZM59.364 14.1201H59.264V14.2201H59.364V14.1201ZM59.364 8.13791V8.03791H59.264V8.13791H59.364ZM60.0596 8.13791H60.1596V8.03791H60.0596V8.13791ZM60.0596 14.1201V14.2201H60.1596V14.1201H60.0596ZM59.464 14.1201V8.13791H59.264V14.1201H59.464ZM59.364 8.23791H60.0596V8.03791H59.364V8.23791ZM59.9596 8.13791V14.1201H60.1596V8.13791H59.9596ZM60.0596 14.0201H59.364V14.2201H60.0596V14.0201ZM63.5417 14.1201V14.2201H63.6417V14.1201H63.5417ZM62.842 14.1201H62.742V14.2201H62.842V14.1201ZM62.842 8.75168H62.942V8.65168H62.842V8.75168ZM60.9598 8.75168H60.8598V8.85168H60.9598V8.75168ZM60.9598 8.13791V8.03791H60.8598V8.13791H60.9598ZM65.4158 8.13791H65.5158V8.03791H65.4158V8.13791ZM65.4158 8.75168V8.85168H65.5158V8.75168H65.4158ZM63.5417 8.75168V8.65168H63.4417V8.75168H63.5417ZM63.5417 14.0201H62.842V14.2201H63.5417V14.0201ZM62.942 14.1201V8.75168H62.742V14.1201H62.942ZM62.842 8.65168H60.9598V8.85168H62.842V8.65168ZM61.0598 8.75168V8.13791H60.8598V8.75168H61.0598ZM60.9598 8.23791H65.4158V8.03791H60.9598V8.23791ZM65.3158 8.13791V8.75168H65.5158V8.13791H65.3158ZM65.4158 8.65168H63.5417V8.85168H65.4158V8.65168ZM63.4417 8.75168V14.1201H63.6417V8.75168H63.4417ZM73.5093 12.3811L73.6048 12.4109L73.6049 12.4107L73.5093 12.3811ZM72.9856 13.355L72.9094 13.2902L72.9093 13.2903L72.9856 13.355ZM72.1304 13.981L72.17 14.0728L72.1304 13.981ZM69.7285 13.981L69.6891 14.0729L69.6894 14.073L69.7285 13.981ZM68.8692 13.3509L68.7923 13.4147L68.7927 13.4152L68.8692 13.3509ZM68.3578 12.3729L68.2618 12.4012L68.262 12.4018L68.3578 12.3729ZM69.4093 8.42843L69.3565 8.34353L69.3562 8.34369L69.4093 8.42843ZM72.4496 8.42434L72.3963 8.50901L72.3966 8.50917L72.4496 8.42434ZM73.3702 9.49639L73.279 9.5374L73.2793 9.53805L73.3702 9.49639ZM69.8022 13.2977L69.746 13.3804L69.7463 13.3806L69.8022 13.2977ZM72.0813 13.2977L72.0251 13.2149L72.0248 13.2152L72.0813 13.2977ZM72.4659 9.31226L72.3854 9.37161L72.3859 9.37218L72.4659 9.31226ZM69.8103 8.95627L69.755 8.87295L69.8103 8.95627ZM69.1393 9.80736L69.0464 9.77022L69.0463 9.77058L69.1393 9.80736ZM73.5853 11.1208C73.5853 11.5734 73.5277 11.9833 73.4138 12.3516L73.6049 12.4107C73.7256 12.0205 73.7853 11.5903 73.7853 11.1208H73.5853ZM73.4139 12.3514C73.3002 12.7163 73.1317 13.0287 72.9094 13.2902L73.0618 13.4197C73.3032 13.1357 73.4839 12.7988 73.6048 12.4109L73.4139 12.3514ZM72.9093 13.2903C72.6906 13.548 72.4183 13.7477 72.0907 13.8892L72.17 14.0728C72.5244 13.9197 72.8222 13.702 73.0618 13.4196L72.9093 13.2903ZM72.0907 13.8892C71.7646 14.0301 71.3831 14.102 70.9438 14.102V14.302C71.4047 14.302 71.8142 14.2265 72.17 14.0728L72.0907 13.8892ZM70.9438 14.102C70.4904 14.102 70.0992 14.0299 69.7676 13.889L69.6894 14.073C70.0507 14.2267 70.4696 14.302 70.9438 14.302V14.102ZM69.7679 13.8891C69.4378 13.7476 69.1644 13.5467 68.9458 13.2865L68.7927 13.4152C69.0324 13.7005 69.3318 13.9198 69.6891 14.0729L69.7679 13.8891ZM68.9462 13.287C68.7292 13.0256 68.5646 12.7119 68.4535 12.344L68.262 12.4018C68.38 12.7923 68.5564 13.1305 68.7923 13.4147L68.9462 13.287ZM68.4537 12.3446C68.3449 11.976 68.29 11.5656 68.29 11.1126H68.09C68.09 11.5817 68.1469 12.0115 68.2618 12.4012L68.4537 12.3446ZM68.29 11.1126C68.29 10.5125 68.3891 9.99064 68.5844 9.54468L68.4012 9.46446C68.1927 9.94052 68.09 10.4907 68.09 11.1126H68.29ZM68.5844 9.54468C68.7786 9.10125 69.071 8.75845 69.4624 8.51316L69.3562 8.34369C68.9293 8.61125 68.6107 8.98587 68.4012 9.46446L68.5844 9.54468ZM69.4622 8.51332C69.8544 8.26916 70.3504 8.1438 70.956 8.1438V7.9438C70.3232 7.9438 69.7881 8.07485 69.3565 8.34353L69.4622 8.51332ZM70.956 8.1438C71.5337 8.1438 72.012 8.2675 72.3963 8.50901L72.5028 8.33966C72.0796 8.07379 71.5623 7.9438 70.956 7.9438V8.1438ZM72.3966 8.50917C72.7853 8.75177 73.0793 9.09342 73.279 9.5374L73.4614 9.45537C73.2464 8.97734 72.9267 8.60428 72.5025 8.3395L72.3966 8.50917ZM73.2793 9.53805C73.4821 9.98052 73.5853 10.5072 73.5853 11.1208H73.7853C73.7853 10.4851 73.6784 9.92881 73.4611 9.45472L73.2793 9.53805ZM68.8224 11.1208C68.8224 11.6374 68.896 12.0894 69.0461 12.4747L69.2325 12.4021C69.0934 12.0454 69.0224 11.6191 69.0224 11.1208H68.8224ZM69.0461 12.4747C69.1972 12.8624 69.4301 13.166 69.746 13.3804L69.8583 13.2149C69.5795 13.0257 69.3705 12.7563 69.2325 12.4021L69.0461 12.4747ZM69.7463 13.3806C70.0669 13.5963 70.4683 13.7005 70.9438 13.7005V13.5005C70.4972 13.5005 70.1375 13.4028 69.858 13.2147L69.7463 13.3806ZM70.9438 13.7005C71.4217 13.7005 71.8222 13.5964 72.1378 13.3802L72.0248 13.2152C71.7511 13.4027 71.3933 13.5005 70.9438 13.5005V13.7005ZM72.1375 13.3804C72.4535 13.1658 72.6851 12.8621 72.8335 12.4741L72.6467 12.4027C72.5113 12.7567 72.3038 13.0258 72.0251 13.2149L72.1375 13.3804ZM72.8335 12.4741C72.9807 12.089 73.0528 11.6372 73.0528 11.1208H72.8528C72.8528 11.6192 72.7831 12.0458 72.6467 12.4027L72.8335 12.4741ZM73.0528 11.1208C73.0528 10.3361 72.888 9.70934 72.546 9.25234L72.3859 9.37218C72.6931 9.78263 72.8528 10.3615 72.8528 11.1208H73.0528ZM72.5464 9.2529C72.2008 8.78426 71.6633 8.55757 70.956 8.55757V8.75757C71.6182 8.75757 72.0873 8.96734 72.3854 9.37161L72.5464 9.2529ZM70.956 8.55757C70.4782 8.55757 70.0756 8.6602 69.755 8.87295L69.8656 9.03959C70.1452 8.85407 70.5064 8.75757 70.956 8.75757V8.55757ZM69.755 8.87295C69.4364 9.08444 69.2005 9.38511 69.0464 9.77022L69.2321 9.8445C69.3727 9.49309 69.5842 9.22637 69.8656 9.03959L69.755 8.87295ZM69.0463 9.77058C68.8959 10.1507 68.8224 10.6017 68.8224 11.1208H69.0224C69.0224 10.6197 69.0935 10.1951 69.2323 9.84414L69.0463 9.77058ZM79.6961 14.1201V14.2201H79.7961V14.1201H79.6961ZM78.8941 14.1201L78.8102 14.1746L78.8398 14.2201H78.8941V14.1201ZM75.633 9.09539L75.7169 9.04095L75.6873 8.99539H75.633V9.09539ZM75.6002 9.09539V8.99539H75.4939L75.5004 9.1015L75.6002 9.09539ZM75.6289 9.55367L75.5291 9.56001L75.5291 9.56011L75.6289 9.55367ZM75.6534 10.0979L75.5535 10.1007L75.5535 10.1022L75.6534 10.0979ZM75.6657 14.1201V14.2201H75.7657V14.1201H75.6657ZM75.0192 14.1201H74.9192V14.2201H75.0192V14.1201ZM75.0192 8.13791V8.03791H74.9192V8.13791H75.0192ZM75.8171 8.13791L75.901 8.08349L75.8714 8.03791H75.8171V8.13791ZM79.066 13.1463L78.9821 13.2007L79.0117 13.2463H79.066V13.1463ZM79.0946 13.1463V13.2463H79.2005L79.1945 13.1406L79.0946 13.1463ZM79.0742 12.7412L78.9743 12.7458L78.9743 12.7459L79.0742 12.7412ZM79.0496 12.1724L78.9496 12.1751L78.9497 12.1765L79.0496 12.1724ZM79.0414 8.13791V8.03791H78.9414V8.13791H79.0414ZM79.6961 8.13791H79.7961V8.03791H79.6961V8.13791ZM79.6961 14.0201H78.8941V14.2201H79.6961V14.0201ZM78.978 14.0657L75.7169 9.04095L75.5491 9.14983L78.8102 14.1746L78.978 14.0657ZM75.633 8.99539H75.6002V9.19539H75.633V8.99539ZM75.5004 9.1015C75.5086 9.23526 75.5182 9.3881 75.5291 9.56001L75.7287 9.54734C75.7178 9.37554 75.7082 9.22285 75.7 9.08928L75.5004 9.1015ZM75.5291 9.56011C75.5399 9.72788 75.548 9.90806 75.5535 10.1007L75.7534 10.0951C75.7479 9.90035 75.7397 9.71772 75.7287 9.54723L75.5291 9.56011ZM75.5535 10.1022C75.5616 10.2916 75.5657 10.4852 75.5657 10.683H75.7657C75.7657 10.4825 75.7616 10.286 75.7533 10.0936L75.5535 10.1022ZM75.5657 10.683V14.1201H75.7657V10.683H75.5657ZM75.6657 14.0201H75.0192V14.2201H75.6657V14.0201ZM75.1192 14.1201V8.13791H74.9192V14.1201H75.1192ZM75.0192 8.23791H75.8171V8.03791H75.0192V8.23791ZM75.7332 8.19233L78.9821 13.2007L79.1499 13.0918L75.901 8.08349L75.7332 8.19233ZM79.066 13.2463H79.0946V13.0463H79.066V13.2463ZM79.1945 13.1406C79.189 13.0456 79.1822 12.911 79.1741 12.7365L78.9743 12.7459C78.9825 12.9206 78.9893 13.056 78.9948 13.152L79.1945 13.1406ZM79.1741 12.7366C79.1659 12.5595 79.1577 12.3701 79.1495 12.1684L78.9497 12.1765C78.9579 12.3785 78.9661 12.5683 78.9743 12.7458L79.1741 12.7366ZM79.1496 12.1698C79.1441 11.9659 79.1414 11.7772 79.1414 11.6037H78.9414C78.9414 11.7793 78.9442 11.9698 78.9497 12.1751L79.1496 12.1698ZM79.1414 11.6037V8.13791H78.9414V11.6037H79.1414ZM79.0414 8.23791H79.6961V8.03791H79.0414V8.23791ZM79.5961 8.13791V14.1201H79.7961V8.13791H79.5961Z" fill="white"/>
<path d="M68.1401 22.2499C67.2976 22.2519 66.4745 22.5037 65.7751 22.9734C65.0756 23.4432 64.5312 24.1098 64.2106 24.8889C63.89 25.6681 63.8076 26.5248 63.9739 27.3508C64.1402 28.1768 64.5477 28.9349 65.1449 29.5293C65.7421 30.1236 66.5021 30.5276 67.3288 30.69C68.1556 30.8524 69.0119 30.7661 69.7896 30.4418C70.5672 30.1175 71.2313 29.57 71.6977 28.8683C72.1642 28.1667 72.4121 27.3425 72.4101 26.4999C72.4183 25.9379 72.3132 25.3799 72.1013 24.8593C71.8893 24.3386 71.5748 23.866 71.1764 23.4694C70.7779 23.0729 70.3038 22.7606 69.7822 22.551C69.2606 22.3415 68.7021 22.2391 68.1401 22.2499ZM68.1401 29.0799C67.6237 29.116 67.1083 28.996 66.6611 28.7353C66.2138 28.4747 65.8553 28.0855 65.6321 27.6184C65.409 27.1512 65.3315 26.6278 65.4098 26.1161C65.4881 25.6043 65.7185 25.128 66.0711 24.749C66.4237 24.3699 66.8821 24.1057 67.3869 23.9907C67.8916 23.8757 68.4193 23.9152 68.9013 24.104C69.3833 24.2929 69.7973 24.6223 70.0896 25.0496C70.3819 25.4769 70.5388 25.9822 70.5401 26.4999C70.5562 26.8279 70.5065 27.1559 70.3938 27.4643C70.2812 27.7728 70.1079 28.0556 69.8842 28.2961C69.6606 28.5366 69.391 28.7298 69.0914 28.8644C68.7919 28.999 68.4684 29.0723 68.1401 29.0799ZM58.8201 22.2499C57.9776 22.2519 57.1545 22.5037 56.4551 22.9734C55.7556 23.4432 55.2112 24.1098 54.8906 24.8889C54.57 25.6681 54.4876 26.5248 54.6539 27.3508C54.8202 28.1768 55.2277 28.9349 55.8249 29.5293C56.4221 30.1236 57.1821 30.5276 58.0088 30.69C58.8356 30.8524 59.6919 30.7661 60.4696 30.4418C61.2472 30.1175 61.9113 29.57 62.3777 28.8683C62.8442 28.1667 63.0921 27.3425 63.0901 26.4999C63.0982 25.9379 62.9932 25.3799 62.7813 24.8593C62.5693 24.3386 62.2548 23.866 61.8564 23.4694C61.4579 23.0729 60.9838 22.7606 60.4622 22.551C59.9406 22.3415 59.3821 22.2391 58.8201 22.2499ZM58.8201 29.0799C58.3037 29.116 57.7883 28.996 57.3411 28.7353C56.8938 28.4747 56.5353 28.0855 56.3121 27.6184C56.089 27.1512 56.0115 26.6278 56.0898 26.1161C56.1681 25.6043 56.3985 25.128 56.7511 24.749C57.1037 24.3699 57.5621 24.1057 58.0669 23.9907C58.5716 23.8757 59.0993 23.9152 59.5813 24.104C60.0633 24.2929 60.4773 24.6223 60.7696 25.0496C61.0619 25.4769 61.2188 25.9822 61.2201 26.4999C61.2362 26.8279 61.1865 27.1559 61.0738 27.4643C60.9612 27.7728 60.7879 28.0556 60.5642 28.2961C60.3406 28.5366 60.071 28.7298 59.7714 28.8644C59.4719 28.999 59.1484 29.0723 58.8201 29.0799ZM47.7401 23.5599V25.3599H52.0601C51.9924 26.2077 51.6399 27.0077 51.0601 27.6299C50.6268 28.0714 50.1056 28.4171 49.5302 28.6444C48.9549 28.8718 48.3382 28.9759 47.7201 28.9499C46.4471 28.9499 45.2262 28.4442 44.326 27.544C43.4258 26.6439 42.9201 25.423 42.9201 24.1499C42.9201 22.8769 43.4258 21.656 44.326 20.7558C45.2262 19.8556 46.4471 19.3499 47.7201 19.3499C48.9405 19.3318 50.119 19.7952 51.0001 20.6399L52.2701 19.3699C51.6741 18.7804 50.9664 18.3158 50.1886 18.0033C49.4107 17.6908 48.5783 17.5366 47.7401 17.5499C46.8511 17.5153 45.9643 17.6605 45.1327 17.9769C44.3012 18.2932 43.5421 18.7742 42.9009 19.3909C42.2596 20.0077 41.7495 20.7475 41.4011 21.5661C41.0527 22.3847 40.873 23.2652 40.873 24.1549C40.873 25.0446 41.0527 25.9251 41.4011 26.7437C41.7495 27.5623 42.2596 28.3022 42.9009 28.9189C43.5421 29.5357 44.3012 30.0166 45.1327 30.333C45.9643 30.6493 46.8511 30.7945 47.7401 30.7599C48.5955 30.7941 49.4485 30.6469 50.243 30.3281C51.0375 30.0092 51.7556 29.5259 52.3501 28.9099C53.4002 27.7563 53.9598 26.2391 53.9101 24.6799C53.9137 24.3046 53.8836 23.9298 53.8201 23.5599H47.7401ZM93.0501 24.9599C92.7893 24.1927 92.3016 23.5227 91.6516 23.0388C91.0016 22.5548 90.2199 22.2797 89.4101 22.2499C88.8631 22.2489 88.3217 22.36 87.8193 22.5765C87.317 22.7929 86.8644 23.1101 86.4895 23.5085C86.1146 23.9068 85.8254 24.3778 85.6397 24.8923C85.4541 25.4068 85.3759 25.954 85.4101 26.4999C85.4016 27.4128 85.6885 28.3039 86.2282 29.0402C86.7679 29.7765 87.5313 30.3184 88.4044 30.5851C89.2774 30.8517 90.2134 30.8288 91.0723 30.5196C91.9313 30.2105 92.6672 29.6318 93.1701 28.8699L91.7201 27.8699C91.5039 28.2302 91.1974 28.5277 90.8307 28.7329C90.4641 28.9382 90.0502 29.044 89.6301 29.0399C89.1967 29.0578 88.768 28.9442 88.4003 28.714C88.0327 28.4837 87.7432 28.1477 87.5701 27.7499L93.2601 25.3999L93.0501 24.9599ZM87.2501 26.3799C87.2298 26.0693 87.2717 25.7578 87.3734 25.4635C87.475 25.1693 87.6343 24.8983 87.842 24.6664C88.0497 24.4346 88.3015 24.2464 88.5828 24.1131C88.8641 23.9798 89.1691 23.9039 89.4801 23.8899C89.8023 23.8703 90.1231 23.9461 90.4024 24.108C90.6817 24.2699 90.907 24.5106 91.0501 24.7999L87.2501 26.3799ZM82.6301 30.4999H84.5001V17.9999H82.6301V30.4999ZM79.5701 23.1999H79.5001C79.2207 22.8818 78.876 22.6277 78.4894 22.4551C78.1028 22.2825 77.6835 22.1955 77.2601 22.1999C76.1673 22.2529 75.1367 22.7243 74.3821 23.5165C73.6274 24.3087 73.2064 25.3608 73.2064 26.4549C73.2064 27.549 73.6274 28.6012 74.3821 29.3933C75.1367 30.1855 76.1673 30.6569 77.2601 30.7099C77.6841 30.7184 78.1047 30.6332 78.4919 30.4603C78.8791 30.2875 79.2234 30.0312 79.5001 29.7099H79.5701V30.3199C79.5701 31.9499 78.7001 32.8199 77.3001 32.8199C76.8324 32.8096 76.3783 32.6606 75.9955 32.3918C75.6127 32.1229 75.3185 31.7464 75.1501 31.3099L73.5301 31.9799C73.8296 32.7322 74.3504 33.3758 75.0235 33.8258C75.6966 34.2757 76.4905 34.5108 77.3001 34.4999C79.4901 34.4999 81.3001 33.2099 81.3001 30.0699V22.4999H79.5701V23.1999ZM77.4201 29.0799C76.7649 29.0391 76.1499 28.75 75.7004 28.2716C75.2509 27.7932 75.0006 27.1614 75.0006 26.5049C75.0006 25.8485 75.2509 25.2167 75.7004 24.7383C76.1499 24.2598 76.7649 23.9708 77.4201 23.9299C77.7403 23.9437 78.0545 24.0218 78.344 24.1596C78.6334 24.2973 78.8922 24.4918 79.1049 24.7316C79.3176 24.9714 79.4799 25.2515 79.5822 25.5553C79.6844 25.8591 79.7245 26.1803 79.7001 26.4999C79.7274 26.8206 79.6893 27.1435 79.5883 27.4491C79.4872 27.7546 79.3252 28.0365 79.1121 28.2777C78.8989 28.5189 78.6391 28.7143 78.3483 28.8522C78.0575 28.9901 77.7417 29.0676 77.4201 29.0799ZM101.81 17.9999H97.3301V30.4999H99.2001V25.7599H101.81C102.343 25.7982 102.878 25.7263 103.382 25.5487C103.886 25.371 104.348 25.0915 104.739 24.7274C105.13 24.3634 105.442 23.9227 105.655 23.4328C105.869 22.9428 105.979 22.4142 105.979 21.8799C105.979 21.3456 105.869 20.817 105.655 20.3271C105.442 19.8372 105.13 19.3965 104.739 19.0324C104.348 18.6684 103.886 18.3888 103.382 18.2112C102.878 18.0336 102.343 17.9616 101.81 17.9999ZM101.81 23.9999H99.2001V19.7399H101.85C102.131 19.7399 102.409 19.7953 102.669 19.9028C102.929 20.0104 103.165 20.168 103.363 20.3667C103.562 20.5654 103.72 20.8013 103.827 21.061C103.935 21.3206 103.99 21.5989 103.99 21.8799C103.99 22.161 103.935 22.4392 103.827 22.6989C103.72 22.9585 103.562 23.1944 103.363 23.3931C103.165 23.5918 102.929 23.7495 102.669 23.857C102.409 23.9646 102.131 24.0199 101.85 24.0199L101.81 23.9999ZM113.35 22.2099C112.669 22.1679 111.991 22.3265 111.399 22.6659C110.807 23.0054 110.328 23.5109 110.02 24.1199L111.67 24.8099C111.837 24.5093 112.087 24.2634 112.39 24.102C112.694 23.9405 113.038 23.8703 113.38 23.8999C113.617 23.8722 113.858 23.892 114.088 23.9582C114.317 24.0245 114.531 24.1358 114.718 24.2856C114.904 24.4355 115.058 24.6209 115.172 24.8311C115.286 25.0413 115.356 25.2721 115.38 25.5099V25.6299C114.779 25.3138 114.109 25.1491 113.43 25.1499C111.65 25.1499 109.83 26.1499 109.83 27.9699C109.848 28.3568 109.943 28.7361 110.11 29.0855C110.277 29.4348 110.513 29.747 110.803 30.0035C111.093 30.2601 111.432 30.4557 111.799 30.5787C112.166 30.7018 112.554 30.7498 112.94 30.7199C113.409 30.7459 113.877 30.6466 114.295 30.4322C114.714 30.2178 115.067 29.8961 115.32 29.4999H115.38V30.4999H117.18V25.6899C117.18 23.4999 115.52 22.2299 113.39 22.2299L113.35 22.2099ZM113.12 29.0599C112.51 29.0599 111.66 28.7499 111.66 27.9999C111.66 26.9999 112.72 26.6599 113.66 26.6599C114.254 26.6453 114.841 26.7903 115.36 27.0799C115.297 27.623 115.04 28.1249 114.635 28.4926C114.231 28.8604 113.707 29.069 113.16 29.0799L113.12 29.0599ZM123.74 22.4999L121.6 27.9199H121.54L119.32 22.4999H117.32L120.65 30.0799L118.75 34.2899H120.7L125.82 22.4999H123.74ZM106.94 30.4999H108.8V17.9999H106.94V30.4999Z" fill="white"/>
<path d="M20.7198 19.9199L10.0698 31.2199C10.1862 31.6473 10.3992 32.0423 10.6925 32.3742C10.9857 32.7062 11.3514 32.9663 11.7612 33.1345C12.1709 33.3026 12.6139 33.3744 13.0558 33.3441C13.4977 33.3138 13.9268 33.1824 14.3098 32.9599L26.3098 26.0399L20.7198 19.9199Z" fill="#EA4335"/>
<path d="M31.4902 18L26.3102 15L20.4902 20.19L26.3302 26.04L31.4802 23.04C31.938 22.7948 32.3207 22.43 32.5875 21.9845C32.8543 21.5389 32.9952 21.0293 32.9952 20.51C32.9952 19.9907 32.8543 19.4811 32.5875 19.0355C32.3207 18.59 31.938 18.2252 31.4802 17.98L31.4902 18Z" fill="#FBBC04"/>
<path d="M10.07 9.78027C10.0172 10.0165 9.99366 10.2583 10 10.5003V30.5003C10.0018 30.7502 10.0354 30.9989 10.1 31.2403L21.1 20.2403L10.07 9.78027Z" fill="#4285F4"/>
<path d="M20.8 20.4996L26.31 14.9896L14.31 8.04965C13.8592 7.78165 13.3445 7.64002 12.82 7.63965C12.1874 7.64146 11.5728 7.85082 11.0706 8.23558C10.5685 8.62035 10.2064 9.15927 10.04 9.76965L20.8 20.4996Z" fill="#34A853"/>
</svg>
