<svg width="186" height="166" viewBox="0 0 186 166" fill="none" xmlns="http://www.w3.org/2000/svg">
<g clip-path="url(#clip0_4681_57692)">
<path d="M106.801 -1.0957H44.621L43.7998 8.94872H106.801V-1.0957Z" fill="#EAF4EF" stroke="#808080" stroke-width="0.678677" stroke-linecap="round" stroke-linejoin="round"/>
<path d="M106.801 8.94824H44.621L43.7998 18.9859H106.801V8.94824Z" fill="#EAF4EF" stroke="#808080" stroke-width="0.678677" stroke-linecap="round" stroke-linejoin="round"/>
<path d="M106.801 18.9863H44.621L43.7998 29.0308H106.801V18.9863Z" fill="#EAF4EF" stroke="#808080" stroke-width="0.678677" stroke-linecap="round" stroke-linejoin="round"/>
<path d="M106.801 29.0308H44.621L43.7998 39.0752H106.801V29.0308Z" fill="#EAF4EF" stroke="#808080" stroke-width="0.678677" stroke-linecap="round" stroke-linejoin="round"/>
<path d="M106.801 39.0752H44.621L43.7998 49.1128H106.801V39.0752Z" fill="#EAF4EF" stroke="#808080" stroke-width="0.678677" stroke-linecap="round" stroke-linejoin="round"/>
<path d="M106.801 49.1128H44.621L43.7998 59.1572H106.801V49.1128Z" fill="#EAF4EF" stroke="#808080" stroke-width="0.678677" stroke-linecap="round" stroke-linejoin="round"/>
<path d="M106.801 59.1567H44.621L43.7998 69.2012H106.801V59.1567Z" fill="#EAF4EF" stroke="#808080" stroke-width="0.678677" stroke-linecap="round" stroke-linejoin="round"/>
<path d="M106.801 69.2017H44.621L43.7998 79.2393H106.801V69.2017Z" fill="#EAF4EF" stroke="#808080" stroke-width="0.678677" stroke-linecap="round" stroke-linejoin="round"/>
<path d="M106.801 79.2393H44.621L43.7998 89.2837H106.801V79.2393Z" fill="#EAF4EF" stroke="#808080" stroke-width="0.678677" stroke-linecap="round" stroke-linejoin="round"/>
<path d="M106.801 89.2837H44.621L43.7998 99.3281H106.801V89.2837Z" fill="#EAF4EF" stroke="#808080" stroke-width="0.678677" stroke-linecap="round" stroke-linejoin="round"/>
<path d="M106.801 99.3276H44.621L43.7998 109.372H106.801V99.3276Z" fill="#EAF4EF" stroke="#808080" stroke-width="0.678677" stroke-linecap="round" stroke-linejoin="round"/>
<path d="M106.801 109.373H44.621L43.7998 119.41H106.801V109.373Z" fill="#EAF4EF" stroke="#808080" stroke-width="0.678677" stroke-linecap="round" stroke-linejoin="round"/>
<path d="M170.726 -1.0957H108.546L107.725 8.94872H170.726V-1.0957Z" fill="#EAF4EF" stroke="#808080" stroke-width="0.678677" stroke-linecap="round" stroke-linejoin="round"/>
<path d="M170.726 8.94824H108.546L107.725 18.9859H170.726V8.94824Z" fill="#EAF4EF" stroke="#808080" stroke-width="0.678677" stroke-linecap="round" stroke-linejoin="round"/>
<path d="M170.726 18.9863H108.546L107.725 29.0308H170.726V18.9863Z" fill="#EAF4EF" stroke="#808080" stroke-width="0.678677" stroke-linecap="round" stroke-linejoin="round"/>
<path d="M170.726 29.0308H108.546L107.725 39.0752H170.726V29.0308Z" fill="#EAF4EF" stroke="#808080" stroke-width="0.678677" stroke-linecap="round" stroke-linejoin="round"/>
<path d="M170.726 39.0752H108.546L107.725 49.1128H170.726V39.0752Z" fill="#EAF4EF" stroke="#808080" stroke-width="0.678677" stroke-linecap="round" stroke-linejoin="round"/>
<path d="M170.726 49.1128H108.546L107.725 59.1572H170.726V49.1128Z" fill="#EAF4EF" stroke="#808080" stroke-width="0.678677" stroke-linecap="round" stroke-linejoin="round"/>
<path d="M170.726 59.1567H108.546L107.725 69.2012H170.726V59.1567Z" fill="#EAF4EF" stroke="#808080" stroke-width="0.678677" stroke-linecap="round" stroke-linejoin="round"/>
<path d="M170.726 69.2017H108.546L107.725 79.2393H170.726V69.2017Z" fill="#EAF4EF" stroke="#808080" stroke-width="0.678677" stroke-linecap="round" stroke-linejoin="round"/>
<path d="M170.726 79.2393H108.546L107.725 89.2837H170.726V79.2393Z" fill="#EAF4EF" stroke="#808080" stroke-width="0.678677" stroke-linecap="round" stroke-linejoin="round"/>
<path d="M170.726 89.2837H108.546L107.725 99.3281H170.726V89.2837Z" fill="#EAF4EF" stroke="#808080" stroke-width="0.678677" stroke-linecap="round" stroke-linejoin="round"/>
<path d="M170.726 99.3276H108.546L107.725 109.372H170.726V99.3276Z" fill="#EAF4EF" stroke="#808080" stroke-width="0.678677" stroke-linecap="round" stroke-linejoin="round"/>
<path d="M170.726 109.373H108.546L107.725 119.41H170.726V109.373Z" fill="#EAF4EF" stroke="#808080" stroke-width="0.678677" stroke-linecap="round" stroke-linejoin="round"/>
<path d="M173.842 -31.4258V101.995" stroke="#808080" stroke-width="0.678677" stroke-linecap="round" stroke-linejoin="round"/>
<path d="M172.409 -31.209V60.331" stroke="#808080" stroke-width="0.678677" stroke-linecap="round" stroke-linejoin="round"/>
<path d="M174.77 101.703H173.006V105.103H174.77V101.703Z" fill="#EAF4EF" stroke="#808080" stroke-width="0.678677" stroke-linecap="round" stroke-linejoin="round"/>
<path d="M173.177 59.5981H171.412V62.9983H173.177V59.5981Z" fill="#EAF4EF" stroke="#808080" stroke-width="0.678677" stroke-linecap="round" stroke-linejoin="round"/>
<path d="M34.2441 103.108L30.8841 103.716L30.2241 100.076L26.2321 100.8L26.8921 104.44L23.5361 105.048L24.2841 109.18L27.6401 108.572L28.3001 112.212L32.2921 111.492L31.6321 107.848L34.9921 107.24L34.2441 103.108Z" stroke="white" stroke-width="0.4" stroke-linecap="round" stroke-linejoin="round"/>
<path d="M67.7887 47.3481L64.5687 46.2121L65.8007 42.7241L61.9767 41.3721L60.7447 44.8601L57.5247 43.7241L56.1287 47.6841L59.3447 48.8201L58.1127 52.3121L61.9367 53.6601L63.1727 50.1721L66.3887 51.3081L67.7887 47.3481Z" stroke="white" stroke-width="0.4" stroke-linecap="round" stroke-linejoin="round"/>
<path d="M149.005 89.0359L145.989 90.6319L144.257 87.3599L140.669 89.2559L142.401 92.5279L139.385 94.1239L141.349 97.8359L144.365 96.2399L146.097 99.5079L149.685 97.6119L147.953 94.3399L150.969 92.7439L149.005 89.0359Z" stroke="white" stroke-width="0.4" stroke-linecap="round" stroke-linejoin="round"/>
<path d="M20.2126 94.436C21.5646 94.436 22.6606 93.34 22.6606 91.988C22.6606 90.636 21.5646 89.54 20.2126 89.54C18.8607 89.54 17.7646 90.636 17.7646 91.988C17.7646 93.34 18.8607 94.436 20.2126 94.436Z" stroke="white" stroke-width="0.4" stroke-linecap="round" stroke-linejoin="round"/>
<path d="M58.3448 59.2598C58.3448 59.388 58.3068 59.5133 58.2356 59.6198C58.1644 59.7264 58.0632 59.8094 57.9448 59.8585C57.8264 59.9075 57.6961 59.9204 57.5704 59.8954C57.4447 59.8704 57.3292 59.8086 57.2386 59.718C57.148 59.6274 57.0863 59.5119 57.0613 59.3862C57.0363 59.2605 57.0491 59.1302 57.0982 59.0118C57.1472 58.8934 57.2303 58.7922 57.3368 58.721C57.4434 58.6498 57.5687 58.6118 57.6968 58.6118C57.8687 58.6118 58.0335 58.6801 58.155 58.8016C58.2766 58.9231 58.3448 59.088 58.3448 59.2598Z" stroke="white" stroke-width="0.4" stroke-linecap="round" stroke-linejoin="round"/>
<path d="M28.6922 48.144C28.6922 48.5965 28.558 49.0388 28.3066 49.4151C28.0552 49.7914 27.6979 50.0846 27.2798 50.2578C26.8617 50.431 26.4017 50.4763 25.9578 50.388C25.514 50.2997 25.1063 50.0818 24.7864 49.7618C24.4664 49.4418 24.2485 49.0342 24.1602 48.5903C24.0719 48.1465 24.1172 47.6865 24.2904 47.2684C24.4635 46.8503 24.7568 46.493 25.1331 46.2416C25.5093 45.9901 25.9517 45.856 26.4042 45.856C27.0107 45.857 27.592 46.0984 28.0209 46.5273C28.4498 46.9561 28.6912 47.5375 28.6922 48.144Z" stroke="white" stroke-width="0.4" stroke-linecap="round" stroke-linejoin="round"/>
<path d="M129.505 79.1358C129.505 79.3922 129.429 79.6427 129.287 79.8559C129.144 80.069 128.942 80.2351 128.705 80.3332C128.468 80.4313 128.208 80.4569 127.956 80.4069C127.705 80.3569 127.474 80.2335 127.293 80.0523C127.111 79.871 126.988 79.6401 126.938 79.3887C126.888 79.1373 126.914 78.8767 127.012 78.6399C127.11 78.4031 127.276 78.2007 127.489 78.0583C127.702 77.9159 127.953 77.8398 128.209 77.8398C128.553 77.8398 128.882 77.9764 129.125 78.2194C129.369 78.4625 129.505 78.7921 129.505 79.1358Z" stroke="white" stroke-width="0.4" stroke-linecap="round" stroke-linejoin="round"/>
<path d="M116.405 39.6359C118.007 39.6359 119.305 38.3376 119.305 36.7359C119.305 35.1343 118.007 33.8359 116.405 33.8359C114.803 33.8359 113.505 35.1343 113.505 36.7359C113.505 38.3376 114.803 39.6359 116.405 39.6359Z" stroke="white" stroke-width="0.4" stroke-linecap="round" stroke-linejoin="round"/>
<path d="M98.5487 62.8037C98.7007 63.0317 103.289 63.9477 105.669 67.4077C107.053 69.3955 108.215 71.5297 109.133 73.7717C109.133 73.7717 113.113 76.1397 115.153 78.0917C117.193 80.0437 119.625 82.6357 121.501 83.9957C123.377 85.3557 127.237 87.9357 128.209 90.9557C128.209 90.9557 122.421 106.808 120.785 110.312C119.149 113.816 115.113 121.252 115.113 121.252L107.913 151.84H66.1487L64.7247 141.348C64.7247 141.348 51.9247 138.836 46.5767 134.148C46.5767 134.148 46.0727 122.548 48.3087 112.2C50.5447 101.852 58.1487 80.3357 63.3007 73.7637C63.3007 73.7637 71.5287 69.8277 78.7887 68.5637C78.7887 68.5637 83.5007 64.8397 86.5847 64.4437C89.6687 64.0477 98.5487 62.8037 98.5487 62.8037Z" fill="#74B790"/>
<path d="M65.2882 146.076C68.9962 146.784 72.2282 147.396 76.0042 147.352C79.7802 147.308 83.6362 146.46 86.7242 144.296C87.3208 143.799 87.997 143.407 88.7242 143.136C90.3642 142.676 91.9882 143.76 93.6162 144.264C95.6802 144.904 97.9442 144.6 99.9683 143.832C101.992 143.064 103.812 141.868 105.616 140.676C105.35 144.356 105.263 148.042 105.356 151.736L107.928 151.84L114.516 122.852C114.516 122.852 103.248 135.94 97.7563 139.848L87.2202 137.136C87.2202 137.136 86.2282 137.96 84.1402 138.376C84.1402 138.376 83.1842 142.052 77.8082 142.06C72.4322 142.068 64.7242 141.348 64.7242 141.348L65.2882 146.076Z" fill="#C1D6FF"/>
<path opacity="0.5" d="M65.2882 146.076C68.9962 146.784 72.2282 147.396 76.0042 147.352C79.7802 147.308 83.6362 146.46 86.7242 144.296C87.3208 143.799 87.997 143.407 88.7242 143.136C90.3642 142.676 91.9882 143.76 93.6162 144.264C95.6802 144.904 97.9442 144.6 99.9683 143.832C101.992 143.064 103.812 141.868 105.616 140.676C105.35 144.356 105.263 148.042 105.356 151.736L107.928 151.84L114.516 122.852C114.516 122.852 103.248 135.94 97.7563 139.848L87.2202 137.136C87.2202 137.136 86.2282 137.96 84.1402 138.376C84.1402 138.376 83.1842 142.052 77.8082 142.06C72.4322 142.068 64.7242 141.348 64.7242 141.348L65.2882 146.076Z" fill="#59A97B"/>
<path d="M54.492 91.9878C54.492 91.9878 49.6 115.736 49.848 123.892C49.848 123.892 56.496 122.028 61.136 123.892C61.136 123.892 53.24 123.012 49.84 126.632C46.44 130.252 56.904 139.764 77.84 137.832C77.84 137.832 82.016 139.14 84.136 138.372C84.136 138.372 83.568 142.156 77.804 142.056C72.064 141.828 55.272 141.688 46.572 134.152C46.576 134.156 45.48 112.324 54.492 91.9878Z" fill="#C1D6FF"/>
<path d="M54.492 91.9878C54.492 91.9878 49.6 115.736 49.848 123.892C49.848 123.892 56.496 122.028 61.136 123.892C61.136 123.892 53.24 123.012 49.84 126.632C46.44 130.252 56.904 139.764 77.84 137.832C77.84 137.832 82.016 139.14 84.136 138.372C84.136 138.372 83.568 142.156 77.804 142.056C72.064 141.828 55.272 141.688 46.572 134.152C46.576 134.156 45.48 112.324 54.492 91.9878Z" fill="#59A97B"/>
<path d="M64.4961 96.5396C64.4961 96.5396 65.9401 107.056 68.2721 109.256C70.6041 111.456 81.4721 110.736 85.7761 113.108C85.7761 113.108 89.8281 106.088 97.1561 101.696L87.2201 117.34L78.6321 115.312L68.1481 113.712L67.2681 115.736H65.6921C65.6921 115.736 65.5161 104.512 64.4961 96.5396Z" fill="#C1D6FF"/>
<path d="M64.4961 96.5396C64.4961 96.5396 65.9401 107.056 68.2721 109.256C70.6041 111.456 81.4721 110.736 85.7761 113.108C85.7761 113.108 89.8281 106.088 97.1561 101.696L87.2201 117.34L78.6321 115.312L68.1481 113.712L67.2681 115.736H65.6921C65.6921 115.736 65.5161 104.512 64.4961 96.5396Z" fill="#59A97B"/>
<path d="M105.573 75.1196C110.064 77.7636 110.569 80.7436 111.493 82.8716C109.157 83.3356 106.741 83.8316 104.813 85.2276C102.413 86.9716 101.113 89.8596 100.105 92.6636C99.151 95.3171 98.3497 98.0228 97.7045 100.768C99.8757 96.8454 102.962 93.5054 106.701 91.0316C108.857 89.6076 111.521 88.4596 113.981 89.2636C111.917 90.1396 109.58 91.3236 109.144 93.5236C109.059 93.8888 109.074 94.2704 109.189 94.6276C109.557 95.6636 110.844 95.9436 111.82 96.4476C113.724 97.4276 114.717 99.6476 114.801 101.8C114.885 103.952 114.224 106.032 113.573 108.068C112.999 109.852 112.426 111.636 111.853 113.42C111.121 115.7 110.377 118.012 109.053 120.012C107.729 122.012 105.741 123.688 103.377 124.08C102.388 124.27 101.365 124.154 100.444 123.748C99.7466 123.368 99.0977 122.905 98.5125 122.368C95.6764 120.077 92.2683 118.606 88.6565 118.112C93.3045 121.184 95.5045 126.764 97.4325 131.992C96.5472 130.442 95.2716 129.151 93.7325 128.248C93.338 127.973 92.8692 127.825 92.3885 127.824C91.1245 127.924 90.7245 129.536 89.9645 130.544C89.0525 131.744 87.3845 132.172 85.8885 131.98C84.3925 131.788 83.0165 131.088 81.6725 130.38L64.6685 121.612L63.4685 125.212C63.4685 125.212 77.0125 136.012 97.7645 139.832C97.7645 139.832 111.244 129.18 116.021 119.736C120.796 110.292 128.217 90.9356 128.217 90.9356C128.217 90.9356 125.5 85.7916 120.844 83.1076C120.844 83.1076 117.369 81.4636 116.637 79.4316C115.905 77.3996 109.373 73.8916 109.373 73.8916C109.373 73.8916 110.221 76.0596 105.573 75.1196Z" fill="#C1D6FF"/>
<path d="M105.573 75.1196C110.064 77.7636 110.569 80.7436 111.493 82.8716C109.157 83.3356 106.741 83.8316 104.813 85.2276C102.413 86.9716 101.113 89.8596 100.105 92.6636C99.151 95.3171 98.3497 98.0228 97.7045 100.768C99.8757 96.8454 102.962 93.5054 106.701 91.0316C108.857 89.6076 111.521 88.4596 113.981 89.2636C111.917 90.1396 109.58 91.3236 109.144 93.5236C109.059 93.8888 109.074 94.2704 109.189 94.6276C109.557 95.6636 110.844 95.9436 111.82 96.4476C113.724 97.4276 114.717 99.6476 114.801 101.8C114.885 103.952 114.224 106.032 113.573 108.068C112.999 109.852 112.426 111.636 111.853 113.42C111.121 115.7 110.377 118.012 109.053 120.012C107.729 122.012 105.741 123.688 103.377 124.08C102.388 124.27 101.365 124.154 100.444 123.748C99.7466 123.368 99.0977 122.905 98.5125 122.368C95.6764 120.077 92.2683 118.606 88.6565 118.112C93.3045 121.184 95.5045 126.764 97.4325 131.992C96.5472 130.442 95.2716 129.151 93.7325 128.248C93.338 127.973 92.8692 127.825 92.3885 127.824C91.1245 127.924 90.7245 129.536 89.9645 130.544C89.0525 131.744 87.3845 132.172 85.8885 131.98C84.3925 131.788 83.0165 131.088 81.6725 130.38L64.6685 121.612L63.4685 125.212C63.4685 125.212 77.0125 136.012 97.7645 139.832C97.7645 139.832 111.244 129.18 116.021 119.736C120.796 110.292 128.217 90.9356 128.217 90.9356C128.217 90.9356 125.5 85.7916 120.844 83.1076C120.844 83.1076 117.369 81.4636 116.637 79.4316C115.905 77.3996 109.373 73.8916 109.373 73.8916C109.373 73.8916 110.221 76.0596 105.573 75.1196Z" fill="#59A97B"/>
<path d="M104.144 38.2995C104.144 38.2995 105.052 27.7115 100.488 26.6995C95.9242 25.6875 93.3602 21.4995 93.3602 21.4995L77.1682 26.0195L74.6562 35.7555L76.2562 40.6835C76.2562 40.6835 76.5922 45.2555 76.6562 47.5155C76.7202 49.7755 76.6562 51.5155 78.3682 54.2595C80.0802 57.0035 81.6722 59.7275 85.3722 62.0995V68.3355C85.3722 68.3355 83.0842 75.0115 84.3482 79.1075C84.3482 79.1075 85.1042 79.9075 87.1922 78.7075C89.2802 77.5075 98.2123 71.5395 101.328 65.3075L102.296 49.4635C102.296 49.4635 104.868 49.8635 105.976 47.5195C107.604 45.2275 107.54 42.5555 106.908 40.3795C106.276 38.2035 103.556 39.6115 103.556 39.6115L104.144 38.2995Z" fill="#FFBE9D"/>
<path d="M85.5483 53.8235C86.0062 53.3249 86.5704 52.9359 87.1992 52.6852C87.8279 52.4345 88.5051 52.3287 89.1803 52.3755C89.1803 52.3755 91.1283 49.2995 93.1803 49.8635C93.1803 49.8635 93.8123 53.1235 91.3523 54.4075C88.1523 56.0755 85.5483 53.8235 85.5483 53.8235Z" fill="#FFBE9D"/>
<path d="M79.5324 24.6714C79.5324 24.6714 75.6564 29.7634 75.8804 35.0714C76.1044 40.3794 76.8764 44.1434 76.6524 48.2394C76.4284 52.3354 80.7484 59.1954 85.1764 61.9594C88.4844 64.0274 92.6324 63.6754 95.8524 61.5594C99.4524 59.1594 101.432 54.8474 102.156 50.7074C102.228 50.3074 102.284 49.9074 102.324 49.4754" stroke="#263238" stroke-width="0.4" stroke-linecap="round" stroke-linejoin="round"/>
<path d="M85.1758 61.9634C85.1758 61.9634 85.8038 67.6994 85.1758 69.6634C84.4838 71.8194 83.6478 76.8394 84.3758 79.1074C85.1038 81.3754 98.7238 71.8434 101.356 65.3034C101.356 65.3034 101.72 52.5954 102.628 49.4194" stroke="#263238" stroke-width="0.4" stroke-linecap="round" stroke-linejoin="round"/>
<path d="M84.8003 53.6836C84.8003 53.6836 90.9963 55.4356 93.5323 49.0396" stroke="#263238" stroke-width="0.4" stroke-linecap="round" stroke-linejoin="round"/>
<path d="M85.3003 63.3434C85.3003 63.3434 86.6203 67.4354 89.4683 67.6794C92.3163 67.9234 99.4403 62.2154 101.868 55.4914V52.1274C101.868 52.1274 99.8683 60.9274 94.0123 62.5274C88.1563 64.1274 85.4163 62.0914 85.4163 62.0914L85.3003 63.3434Z" fill="#263238"/>
<path d="M93.1757 49.8638C90.4237 49.6718 89.1757 52.3758 89.1757 52.3758C88.4974 52.293 87.8093 52.3823 87.1745 52.6353C86.5398 52.8884 85.979 53.2971 85.5437 53.8238C86.2217 54.4319 87.0552 54.8399 87.9515 55.0024C88.8477 55.1648 89.7714 55.0753 90.6197 54.7438C93.7477 53.6558 93.1757 49.8638 93.1757 49.8638Z" stroke="#263238" stroke-width="0.4" stroke-linecap="round" stroke-linejoin="round"/>
<path d="M86.2762 37.7998C86.3103 39.0689 86.2542 40.3387 86.1082 41.5998C85.9602 42.7318 85.4362 43.8158 85.0002 44.8798C84.6002 45.8478 83.9322 47.3358 84.4882 48.3558C85.1202 49.5118 87.2202 48.3558 87.2202 48.3558" stroke="#263238" stroke-width="0.4" stroke-linecap="round" stroke-linejoin="round"/>
<path d="M88.5125 48.1157C89.2205 48.2117 90.2245 48.1157 90.4245 46.8877" stroke="#263238" stroke-width="0.4" stroke-linecap="round" stroke-linejoin="round"/>
<path d="M90.8003 36.2715C91.4848 35.6186 92.3944 35.2544 93.3403 35.2544C94.2862 35.2544 95.1958 35.6186 95.8803 36.2715" stroke="#263238" stroke-width="0.8" stroke-linecap="round" stroke-linejoin="round"/>
<path d="M82.728 37.2717C82.728 37.2717 80.852 34.8717 78.396 37.2717" stroke="#263238" stroke-width="0.8" stroke-linecap="round" stroke-linejoin="round"/>
<path d="M100.852 43.3398C100.852 43.3398 102.992 38.1998 105.784 39.3038C107.708 40.0678 107.824 43.3878 106.804 45.7038C105.784 48.0198 105.272 50.3798 101.872 49.0598" stroke="#263238" stroke-width="0.4" stroke-linecap="round" stroke-linejoin="round"/>
<path d="M101.232 42.5516C101.232 42.5516 99.176 41.8236 98.796 38.4836C98.416 35.1436 100.464 31.7996 99.704 29.3996C98.944 26.9996 92.956 28.1996 91.592 24.0156C91.592 24.0156 87.096 27.3676 78.392 26.6476C78.392 26.6476 76.556 29.7756 76.236 31.6876C75.8075 34.6771 75.8183 37.7132 76.268 40.6996C76.268 40.8036 76.304 40.9036 76.324 41.0076C76.948 44.2636 73.84 36.5756 73.924 33.2916C74.008 30.0076 72.028 25.8356 74.608 22.7276C77.188 19.6196 86.648 17.7996 88.512 16.3396C90.376 14.8796 94 18.7676 98.188 20.1996C102.376 21.6316 105.848 23.3396 105.32 29.2796C104.792 35.2196 105.348 36.0156 105.372 39.1436C105.372 39.1516 103.436 38.4236 101.232 42.5516Z" fill="#263238"/>
<path d="M93.3485 40.5996C93.3485 41.3996 93.0405 42.0636 92.6565 42.0636C92.2725 42.0636 91.9685 41.4076 91.9685 40.5996C91.9685 39.7916 92.2765 39.1396 92.6565 39.1396C93.0365 39.1396 93.3485 39.7996 93.3485 40.5996Z" fill="#263238"/>
<path d="M82.7282 40.5996C82.7282 41.3996 82.4202 42.0636 82.0402 42.0636C81.6602 42.0636 81.3522 41.4076 81.3522 40.5996C81.3522 39.7916 81.6602 39.1396 82.0402 39.1396C82.4202 39.1396 82.7282 39.7996 82.7282 40.5996Z" fill="#263238"/>
<path d="M90.8003 42.5518C90.8003 42.5518 92.2283 44.0678 94.0363 44.2838" stroke="#263238" stroke-width="0.4" stroke-linecap="round" stroke-linejoin="round"/>
<path d="M81.0723 44.2838C81.0723 44.2838 83.6843 44.0998 84.2723 42.5518" stroke="#263238" stroke-width="0.4" stroke-linecap="round" stroke-linejoin="round"/>
<path d="M87.144 80.0794C89.088 78.8434 91.66 79.3074 93.788 80.1834C94.956 80.6674 96.068 81.2754 97.232 81.7834C97.8075 82.0379 98.4012 82.2492 99.008 82.4154C100.468 82.7954 99.944 80.9834 99.86 80.1714C99.74 79.0074 99.656 77.8394 99.516 76.6834C99.4586 76.4441 99.4869 76.1921 99.596 75.9714C99.7396 75.7934 99.9403 75.6705 100.164 75.6234C102.728 74.8234 105.492 75.1754 108.164 75.2234C108.407 75.2521 108.652 75.2061 108.868 75.0914C109.268 74.8314 109.224 74.2434 109.116 73.7794C108.192 69.8274 104.932 65.8954 101.388 63.9194" stroke="#263238" stroke-width="0.4" stroke-linecap="round" stroke-linejoin="round"/>
<path d="M85.4005 64.5596C83.6365 65.2956 81.8245 66.0596 80.3045 67.1876C79.753 67.5897 79.2449 68.0482 78.7885 68.5556C78.4207 68.9054 78.1896 69.3748 78.1365 69.8796C78.1463 70.1144 78.2085 70.344 78.3186 70.5516C78.4286 70.7592 78.5837 70.9396 78.7725 71.0796C79.0409 71.3005 79.3367 71.4861 79.6525 71.6316C80.3885 71.9796 81.2525 72.3196 81.5645 73.0596C81.6402 73.2146 81.6681 73.3887 81.6445 73.5596C81.6048 73.7097 81.5277 73.8473 81.4205 73.9596C80.8125 74.6996 79.7405 75.2716 79.8205 76.2276C79.8725 76.9676 80.6205 77.4276 81.2845 77.7556C81.9485 78.0836 82.7245 78.4236 82.9525 79.1316" stroke="#263238" stroke-width="0.4" stroke-linecap="round" stroke-linejoin="round"/>
<path d="M74.9558 27.0517C75.2158 25.4517 76.8878 24.4197 78.4958 24.1597C80.1038 23.8997 81.7558 24.1597 83.3758 24.0197C84.7307 23.8858 86.041 23.4626 87.2183 22.7788C88.3956 22.0949 89.4123 21.1663 90.1998 20.0557" stroke="#C1D6FF" stroke-width="0.4" stroke-linecap="round" stroke-linejoin="round"/>
<path d="M76.7761 22.5557C79.6801 20.8397 83.7601 22.6237 86.5921 20.7917C87.3935 20.2082 88.0912 19.4943 88.6561 18.6797" stroke="#C1D6FF" stroke-width="0.4" stroke-linecap="round" stroke-linejoin="round"/>
<path d="M113.82 88.1997C103.42 90.2757 99.5402 97.9277 99.5402 97.9277L87.2202 117.332" stroke="#263238" stroke-width="0.4" stroke-linecap="round" stroke-linejoin="round"/>
<path d="M105.028 86.1034C105.891 85.3041 106.868 84.638 107.928 84.1274" stroke="#263238" stroke-width="0.4" stroke-linecap="round" stroke-linejoin="round"/>
<path d="M97.7566 100.752C97.7566 100.752 99.0686 93.7436 102.837 88.5796" stroke="#263238" stroke-width="0.4" stroke-linecap="round" stroke-linejoin="round"/>
<path d="M65.6917 115.704C65.6917 115.704 65.1517 94.2356 63.2917 90.9556" stroke="#263238" stroke-width="0.4" stroke-linecap="round" stroke-linejoin="round"/>
<path d="M109.132 73.7715C109.132 73.7715 115.132 77.3715 117.796 80.7555C120.46 84.1395 126.756 86.3875 128.196 90.9555C128.196 90.9555 119.904 117.083 111.216 126.527C102.528 135.971 97.7438 139.847 97.7438 139.847C97.7438 139.847 76.8438 136.215 63.2878 124.831L68.1358 113.691C68.1358 113.691 81.8038 115.419 87.2078 117.339C92.6118 119.259 97.7438 130.887 97.7438 130.887" stroke="#263238" stroke-width="0.4" stroke-linecap="round" stroke-linejoin="round"/>
<path d="M87.2202 117.34C87.2202 117.34 96.7882 119.2 99.8962 123.556" stroke="#263238" stroke-width="0.4" stroke-linecap="round" stroke-linejoin="round"/>
<path d="M114.752 121.82L107.928 151.84H66.1482L64.7242 141.348" stroke="#263238" stroke-width="0.4" stroke-linecap="round" stroke-linejoin="round"/>
<path d="M84.1402 138.376C81.8322 143.104 78.7882 142.06 78.7882 142.06C55.2482 142.952 46.5762 134.156 46.5762 134.156C46.5762 134.156 45.3762 121.784 50.0042 105.088C54.6322 88.3917 63.3002 73.7717 63.3002 73.7717C67.1442 71.2157 75.7202 69.2197 78.1402 68.6917L78.7882 68.5557" stroke="#263238" stroke-width="0.4" stroke-linecap="round" stroke-linejoin="round"/>
<path d="M78.8005 142.059C78.8005 142.059 77.5565 141.855 77.8725 133.607" stroke="#263238" stroke-width="0.4" stroke-linecap="round" stroke-linejoin="round"/>
<path d="M63.9362 125.36C63.9362 125.36 58.0562 123.288 50.7722 128.328" stroke="#263238" stroke-width="0.4" stroke-linecap="round" stroke-linejoin="round"/>
<path d="M52.0925 123.556C52.0925 123.556 59.7965 121.264 63.2925 124.936" stroke="#263238" stroke-width="0.4" stroke-linecap="round" stroke-linejoin="round"/>
<path d="M62.4602 124.728L63.4602 125.228L67.2682 115.716C67.2682 115.716 63.3242 115.072 57.0762 122.852C59.0272 122.874 60.9175 123.533 62.4602 124.728Z" fill="#FFBE9D" stroke="#263238" stroke-width="0.4" stroke-miterlimit="10"/>
<path d="M77.8601 133.607V137.835C77.8601 137.835 83.2481 139.435 87.2361 137.135L77.8601 133.607Z" fill="#FFBE9D" stroke="#263238" stroke-width="0.4" stroke-miterlimit="10"/>
<path d="M107.064 75.1798C107.068 75.2579 107.06 75.3362 107.04 75.4118C106.872 76.0718 102.764 91.5798 89.6164 98.4798C89.502 98.5411 89.3741 98.5727 89.2443 98.5718C89.0656 98.5717 88.892 98.5117 88.7513 98.4015C88.6106 98.2912 88.5109 98.137 88.4681 97.9634C88.4253 97.7899 88.4418 97.607 88.5151 97.4439C88.5884 97.2809 88.7141 97.147 88.8723 97.0638C100.872 90.7718 105.1 76.4318 105.468 75.1118L107.064 75.1798Z" fill="#263238"/>
<path d="M78.7718 71.0674C76.6933 75.8149 75.5719 80.9258 75.4718 86.1074C75.4718 86.5274 75.4718 86.9554 75.4718 87.3914C75.4718 87.4994 75.4718 87.6074 75.4718 87.7154C75.3525 87.7195 75.2336 87.7315 75.1158 87.7514C74.683 87.8197 74.2634 87.9546 73.8718 88.1514C73.8718 87.5634 73.8718 86.9914 73.8718 86.4274C74.0438 77.4514 76.7238 71.3434 78.1518 68.7034L78.7998 68.5674C78.4321 68.9172 78.2009 69.3866 78.1478 69.8914C78.1597 70.1211 78.2218 70.3453 78.3296 70.5485C78.4374 70.7517 78.5883 70.9288 78.7718 71.0674Z" fill="#263238"/>
<path d="M94.5242 94.8716C95.4602 96.1716 94.6922 98.3316 92.8042 99.6956C90.9162 101.06 88.6282 101.108 87.6882 99.8076C86.7482 98.5076 87.5162 96.3476 89.4042 94.9836C91.2922 93.6196 93.6002 93.5716 94.5242 94.8716Z" fill="white" stroke="#263238" stroke-width="0.4" stroke-linecap="round" stroke-linejoin="round"/>
<path d="M92.1965 94.0997C92.8605 95.0197 92.3165 96.5477 90.9965 97.5117C89.6765 98.4757 88.0405 98.5117 87.3965 97.5917C86.7525 96.6717 87.2765 95.1437 88.5965 94.1797C89.9165 93.2157 91.5325 93.1837 92.1965 94.0997Z" fill="white" stroke="#263238" stroke-width="0.4" stroke-linecap="round" stroke-linejoin="round"/>
<path d="M81.6238 110.335C81.4534 110.449 81.2461 110.492 81.0445 110.458C80.8429 110.423 80.6623 110.312 80.5399 110.148C80.4175 109.984 80.3625 109.779 80.3863 109.576C80.4101 109.373 80.5108 109.187 80.6678 109.055C80.7358 108.999 83.4198 106.715 82.2438 99.0234C82.1438 98.3714 82.0158 97.6754 81.8438 96.9434C81.3358 94.6114 80.5518 91.6594 78.9478 89.4914C78.5662 88.9196 78.0437 88.4557 77.4306 88.1446C76.8175 87.8335 76.1346 87.6857 75.4478 87.7154C75.3285 87.7195 75.2095 87.7315 75.0918 87.7514C74.659 87.8197 74.2393 87.9546 73.8478 88.1514C72.6529 88.7687 71.7459 89.8277 71.3198 91.1034L71.1758 91.5034C70.2687 93.9563 69.5271 96.4673 68.9558 99.0194C68.3158 102.159 68.0998 105.451 69.2358 107.751C69.5402 108.382 69.9738 108.943 70.5085 109.395C71.0433 109.848 71.6672 110.183 72.3398 110.379C72.5204 110.439 72.6739 110.56 72.7729 110.723C72.8719 110.885 72.9099 111.077 72.8801 111.265C72.8502 111.453 72.7545 111.624 72.6101 111.747C72.4656 111.871 72.2819 111.939 72.0918 111.939C72.0075 111.939 71.9238 111.926 71.8438 111.899C70.969 111.637 70.1583 111.195 69.4629 110.603C68.7675 110.011 68.2025 109.281 67.8038 108.459C66.5238 105.871 66.6918 102.347 67.3398 99.0194C67.9143 96.2825 68.6924 93.5923 69.6678 90.9714L69.8118 90.5714C70.1263 89.6194 70.653 88.7513 71.3522 88.0327C72.0514 87.3141 72.9047 86.7638 73.8478 86.4234C74.1742 86.3103 74.5103 86.2273 74.8518 86.1754C75.0558 86.1474 75.2518 86.1274 75.4598 86.1154C76.3961 86.0896 77.3239 86.2991 78.1583 86.7247C78.9926 87.1503 79.7069 87.7783 80.2358 88.5514C82.0198 90.9514 82.8678 94.1234 83.4078 96.6114C83.5958 97.4674 83.7398 98.2714 83.8478 99.0314C85.1118 107.655 81.7798 110.223 81.6238 110.335Z" fill="#263238" stroke="#263238" stroke-width="0.4" stroke-miterlimit="10"/>
<path d="M71.5323 111.8C71.5323 111.8 74.4323 113 75.1683 111.8C75.9043 110.6 75.3083 110.036 74.3043 109.94C73.3036 109.889 72.301 109.889 71.3003 109.94L71.5323 111.8Z" fill="#263238" stroke="#263238" stroke-width="0.4" stroke-miterlimit="10"/>
<path d="M72.8645 111.4C72.8122 111.56 72.7105 111.7 72.574 111.799C72.4375 111.898 72.2732 111.952 72.1045 111.952C72.0202 111.952 71.9365 111.938 71.8565 111.912C70.9817 111.649 70.171 111.208 69.4756 110.616C68.7802 110.023 68.2152 109.293 67.8165 108.472C66.5365 105.884 66.7045 102.36 67.3525 99.0317H68.9525C68.3125 102.172 68.0965 105.464 69.2325 107.764C69.5369 108.395 69.9705 108.955 70.5052 109.408C71.0399 109.86 71.6639 110.196 72.3365 110.392C72.4377 110.423 72.5317 110.473 72.6132 110.541C72.6946 110.609 72.7619 110.692 72.811 110.785C72.8601 110.879 72.8901 110.982 72.8993 111.087C72.9085 111.193 72.8967 111.299 72.8645 111.4Z" fill="white" stroke="#263238" stroke-width="0.4" stroke-linecap="round" stroke-linejoin="round"/>
<path d="M78.9525 109.467C78.8319 109.611 78.7429 109.778 78.6912 109.957C78.6395 110.137 78.6263 110.326 78.6525 110.511C78.7324 110.785 78.9058 111.023 79.1426 111.182C79.3794 111.341 79.6646 111.413 79.9485 111.383C80.5166 111.308 81.036 111.023 81.4045 110.583C81.8045 110.135 83.1925 107.203 81.9085 107.707C80.9765 108.059 79.5765 108.655 78.9525 109.467Z" fill="#263238" stroke="#263238" stroke-width="0.4" stroke-miterlimit="10"/>
<path d="M81.6245 110.335C81.4542 110.449 81.2468 110.492 81.0452 110.458C80.8436 110.423 80.6631 110.312 80.5406 110.148C80.4182 109.984 80.3632 109.779 80.387 109.576C80.4108 109.373 80.5115 109.187 80.6685 109.055C80.7365 108.999 83.4205 106.715 82.2445 99.0234H83.8445C85.1125 107.655 81.7805 110.223 81.6245 110.335Z" fill="white" stroke="#263238" stroke-width="0.4" stroke-linecap="round" stroke-linejoin="round"/>
<path opacity="0.2" d="M88.8006 39.6358C88.8006 39.6358 93.8366 37.0198 98.4646 39.6358C98.4646 39.6358 98.5406 43.4958 96.7926 45.0838C96.1726 45.6478 93.3326 45.7438 92.2566 45.6478C87.8886 45.2518 88.8006 39.6358 88.8006 39.6358Z" fill="#C1D6FF"/>
<path opacity="0.2" d="M85.6397 39.6358C85.6397 39.6358 80.6037 37.0198 75.9797 39.6358C75.9797 39.6358 75.9037 43.4958 77.6477 45.0838C78.2677 45.6478 81.1117 45.7438 82.1837 45.6478C86.5517 45.2518 85.6397 39.6358 85.6397 39.6358Z" fill="#C1D6FF"/>
<path d="M88.8006 39.6358C88.8006 39.6358 93.8366 37.0198 98.4646 39.6358C98.4646 39.6358 98.5406 43.4958 96.7926 45.0838C96.1726 45.6478 93.3326 45.7438 92.2566 45.6478C87.8886 45.2518 88.8006 39.6358 88.8006 39.6358Z" stroke="#263238" stroke-width="0.4" stroke-miterlimit="10"/>
<path d="M85.6397 39.6358C85.6397 39.6358 80.6037 37.0198 75.9797 39.6358C75.9797 39.6358 75.9037 43.4958 77.6477 45.0838C78.2677 45.6478 81.1117 45.7438 82.1837 45.6478C86.5517 45.2518 85.6397 39.6358 85.6397 39.6358Z" stroke="#263238" stroke-width="0.4" stroke-miterlimit="10"/>
<path d="M85.6403 39.6356C85.6403 39.6356 86.7683 38.8076 88.8003 39.6356" stroke="#263238" stroke-width="0.4" stroke-miterlimit="10"/>
<path d="M98.4644 39.6357L100.568 40.6117" stroke="#263238" stroke-width="0.4" stroke-miterlimit="10"/>
<path d="M17.9285 162.488L32.7325 148.504H150.228L159.124 162.488H17.9285Z" fill="white" stroke="#263238" stroke-width="0.4" stroke-linecap="round" stroke-linejoin="round"/>
<path d="M159.124 162.488H17.9285V166.252H159.124V162.488Z" fill="#263238" stroke="#263238" stroke-width="0.4" stroke-linecap="round" stroke-linejoin="round"/>
<path d="M32.7316 159.032V156.132H55.9316V159.032H51.4556H32.7316Z" fill="white" stroke="#263238" stroke-width="0.4" stroke-miterlimit="10"/>
<path d="M32.7316 156.132L46.4356 146.94L64.7236 147.372L55.9316 156.132H32.7316Z" fill="white" stroke="#263238" stroke-width="0.4" stroke-linecap="round" stroke-linejoin="round"/>
<path d="M55.9315 159.032L64.7235 150.224V147.372L55.9315 156.132V159.032Z" fill="white" stroke="#263238" stroke-width="0.4" stroke-linecap="round" stroke-linejoin="round"/>
<path d="M55.3033 155.4C55.3033 155.4 53.4513 155.768 53.4513 157.372C53.4513 158.976 55.0513 159.448 55.0513 159.448" stroke="#263238" stroke-width="0.8" stroke-linecap="round" stroke-linejoin="round"/>
<path d="M53.4516 155.4C53.4516 155.4 51.5996 155.768 51.5996 157.372C51.5996 158.976 53.1996 159.448 53.1996 159.448" stroke="#263238" stroke-width="0.8" stroke-linecap="round" stroke-linejoin="round"/>
<path d="M51.5992 155.4C51.5992 155.4 49.7472 155.768 49.7472 157.372C49.7472 158.976 51.3472 159.448 51.3472 159.448" stroke="#263238" stroke-width="0.8" stroke-linecap="round" stroke-linejoin="round"/>
<path d="M49.7475 155.4C49.7475 155.4 47.8955 155.768 47.8955 157.372C47.8955 158.976 49.4955 159.448 49.4955 159.448" stroke="#263238" stroke-width="0.8" stroke-linecap="round" stroke-linejoin="round"/>
<path d="M47.8961 155.4C47.8961 155.4 46.0441 155.768 46.0441 157.372C46.0441 158.976 47.6441 159.448 47.6441 159.448" stroke="#263238" stroke-width="0.8" stroke-linecap="round" stroke-linejoin="round"/>
<path d="M46.0438 155.4C46.0438 155.4 44.1918 155.768 44.1918 157.372C44.1918 158.976 45.7918 159.448 45.7918 159.448" stroke="#263238" stroke-width="0.8" stroke-linecap="round" stroke-linejoin="round"/>
<path d="M44.191 155.4C44.191 155.4 42.339 155.768 42.339 157.372C42.339 158.976 43.939 159.448 43.939 159.448" stroke="#263238" stroke-width="0.8" stroke-linecap="round" stroke-linejoin="round"/>
<path d="M42.3394 155.4C42.3394 155.4 40.4874 155.768 40.4874 157.372C40.4874 158.976 42.0874 159.448 42.0874 159.448" stroke="#263238" stroke-width="0.8" stroke-linecap="round" stroke-linejoin="round"/>
<path d="M40.2593 155.4C40.2593 155.4 38.4073 155.768 38.4073 157.372C38.4073 158.976 40.0073 159.448 40.0073 159.448" stroke="#263238" stroke-width="0.8" stroke-linecap="round" stroke-linejoin="round"/>
<path d="M38.1754 155.4C38.1754 155.4 36.3234 155.768 36.3234 157.372C36.3234 158.976 37.9234 159.448 37.9234 159.448" stroke="#263238" stroke-width="0.8" stroke-linecap="round" stroke-linejoin="round"/>
<path d="M35.8598 155.4C35.8598 155.4 34.0078 155.768 34.0078 157.372C34.0078 158.976 35.6078 159.448 35.6078 159.448" stroke="#263238" stroke-width="0.8" stroke-linecap="round" stroke-linejoin="round"/>
<path d="M47.5999 149.192C46.3224 149.897 45.3097 150.999 44.7159 152.332C46.3999 151.8 47.7319 150.6 49.0079 149.4L47.6239 152.832C48.2611 152.78 48.877 152.579 49.4219 152.245C49.9667 151.91 50.4251 151.452 50.7599 150.908C50.6503 150.955 50.5519 151.025 50.4711 151.113C50.3904 151.201 50.3291 151.305 50.2914 151.418C50.2536 151.532 50.2402 151.652 50.252 151.77C50.2638 151.889 50.3006 152.004 50.3599 152.108C51.5199 151.94 52.2599 150.82 52.8439 149.804C52.9512 150.369 52.9928 150.945 52.9679 151.52C53.938 151.659 54.9275 151.533 55.8319 151.156" stroke="#263238" stroke-width="0.3" stroke-linecap="round" stroke-linejoin="round"/>
<path d="M149.443 134.496H109.119V156.636H149.443V134.496Z" fill="#FD7E50" stroke="white" stroke-width="0.4" stroke-linecap="round" stroke-linejoin="round"/>
<path d="M108.963 156.632L102.479 150.468V128.328L108.963 134.496V156.632Z" fill="#FD7E50" stroke="white" stroke-width="0.4" stroke-linecap="round" stroke-linejoin="round"/>
<path d="M149.444 134.496L142.96 128.328H102.64L109.12 134.496H149.444Z" fill="#FD7E50" stroke="white" stroke-width="0.4" stroke-linecap="round" stroke-linejoin="round"/>
<path d="M134.616 142.8H131.052V139.072H126.028V142.8H122.14V147.824H126.028V151.548H131.052V147.824H134.616V142.8Z" fill="white" stroke="white" stroke-width="0.4" stroke-miterlimit="10"/>
<path d="M128.932 134.496L122.448 128.328" stroke="white" stroke-width="0.4" stroke-linecap="round" stroke-linejoin="round"/>
<path d="M94.815 128.25L103.63 158.952H94.8155L90.7139 143.601L94.815 128.25Z" fill="#263238" stroke="#263238" stroke-width="0.712007" stroke-linecap="round" stroke-linejoin="round"/>
<path d="M95.4922 125.011L94.3672 124L65.1963 158.952H89.2123L95.4922 125.011Z" fill="white" stroke="#263238" stroke-width="0.712007" stroke-linecap="round" stroke-linejoin="round"/>
<path d="M94.3671 124H70.3511L64 158.952H88.0089L94.3671 124Z" fill="white" stroke="#263238" stroke-width="0.712007" stroke-linecap="round" stroke-linejoin="round"/>
<path d="M76.1011 145.993L76.407 144.554H77.142L77.2959 143.83H76.5635C76.6146 143.59 76.666 143.348 76.7171 143.108H78.1909L78.3437 142.389H79.08L78.928 143.104H79.6668L79.9741 141.658H82.188L82.0352 142.377H82.7676L82.9204 141.658H82.1855L82.3396 140.933H80.8632L81.1678 139.5H78.9525L78.7994 140.221H77.3308L77.0238 141.665H77.7549L77.6018 142.385H76.8668L76.7135 143.106H75.9772L76.1308 142.384H73.9182L74.071 141.665H76.2837L77.5115 135.888H78.2516C78.1039 136.583 77.9562 137.278 77.8085 137.973L77.7919 138.051H78.5294L78.8353 136.612H79.5703L79.2639 138.054H80.0053L79.8525 138.773H83.5416L83.3885 139.493H84.1273L83.9729 140.219H83.2379L83.084 140.943H83.8165L83.5092 142.389H84.2494L83.9427 143.832H83.2103L82.9041 145.272H83.6262L83.4729 145.993H84.9467L84.7936 146.714H82.5899L82.2835 148.155H81.5472L81.7003 147.435H80.2201L80.3734 146.714H79.6371L79.7902 145.993H81.2589L81.4122 145.272H77.7322L77.5796 145.99H76.1019L76.1011 145.993ZM80.9868 143.828L81.1393 143.11H80.4069L80.2547 143.827H80.9896L80.8368 144.545H82.3068L82.4593 143.828H80.9868ZM79.5091 143.828H78.7844L78.6327 144.542H79.3625L79.5091 143.828ZM81.7595 140.211H82.4894L82.6414 139.495H81.9115L81.7595 140.211Z" fill="#2F945A"/>
<path d="M71.15 138.046L72.2227 133H77.3804L76.3078 138.046H71.15ZM72.8089 133.724L72.0432 137.326H75.7246L76.4903 133.724H72.8089Z" fill="#2F945A"/>
<path d="M86.6401 138.049H81.4823L82.5547 133.004H87.7125L86.6401 138.049ZM86.8228 133.726H83.1415L82.3761 137.327H86.0574L86.8228 133.726Z" fill="#2F945A"/>
<path d="M70.0742 143.104H75.2333L74.1606 148.151H69.0016L70.0742 143.104ZM74.3418 143.828H70.6592L69.8935 147.431H73.5762L74.3418 143.828Z" fill="#2F945A"/>
<path d="M78.2472 135.886L78.5541 134.442H77.8179L78.124 133.002H81.8067L81.501 134.44H80.7789L80.6253 135.162H81.3552L81.049 136.603H80.314L80.4663 135.886H79.7249L79.8779 135.166H79.1417L78.9891 135.884H78.2464L78.2472 135.886ZM79.2953 134.437H80.0265L80.1779 133.725H79.4468L79.2953 134.437Z" fill="#2F945A"/>
<path d="M74.5296 139.492L74.3763 140.213H75.8501L75.697 140.933H73.4869L73.1802 142.376H70.2326L70.5377 140.941H71.2675L71.1158 141.655H72.596L73.0558 139.492H74.5309H74.5296Z" fill="#2F945A"/>
<path d="M76.1002 145.99L75.9469 146.712H76.6844L76.5314 147.432H77.2663L77.113 148.153H74.9055L75.365 145.991H76.0974L76.1002 145.99Z" fill="#2F945A"/>
<path d="M73.0568 139.493H71.5817L71.4289 140.212H70.6939L70.999 138.776H73.2065L73.054 139.494L73.0568 139.493Z" fill="#2F945A"/>
<path d="M86.025 140.936H85.2939L85.5998 139.497H84.8635L85.0166 138.776H86.484L86.025 140.936Z" fill="#2F945A"/>
<path d="M74.5291 139.495L74.682 138.776H76.1532L76.0009 139.493H74.5284L74.5291 139.495Z" fill="#2F945A"/>
<path d="M84.2485 142.383L84.4013 141.665H85.1337L84.9814 142.381H84.2413L84.2485 142.383Z" fill="#2F945A"/>
<path d="M84.834 143.108H85.5638L85.4118 143.824H84.682L84.834 143.108Z" fill="#2F945A"/>
<path d="M80.0008 138.051L80.1536 137.332H80.8873L80.7351 138.048H80.0001L80.0008 138.051Z" fill="#2F945A"/>
<path d="M76.4087 144.552H75.6711L75.8242 143.832H76.5566L76.4035 144.552H76.4087Z" fill="#2F945A"/>
<path d="M83.6316 145.271L83.7842 144.554H84.5166L84.3643 145.27H83.6319L83.6316 145.271Z" fill="#2F945A"/>
<path d="M83.966 140.218H84.6984L84.5453 140.938H83.8129L83.9668 140.214L83.966 140.218Z" fill="#2F945A"/>
<path d="M78.7415 147.433H78.0104L78.1621 146.719H78.8932L78.7415 147.433Z" fill="#2F945A"/>
<path d="M80.2207 147.434L80.0679 148.153H79.3355L79.4877 147.437H80.2227L80.2207 147.434Z" fill="#2F945A"/>
<path d="M84.4919 148.155H83.7621L83.9141 147.44H84.6439L84.4919 148.155Z" fill="#2F945A"/>
<path d="M79.9747 141.657H79.2462L79.3984 140.94H80.1321L79.9799 141.657H79.9747Z" fill="#2F945A"/>
<path d="M75.1362 136.603H72.93L73.3887 134.445H75.5949L75.1362 136.603Z" fill="#2F945A"/>
<path d="M83.264 136.602L83.7227 134.444H85.9276L85.4689 136.602H83.264Z" fill="#2F945A"/>
<path d="M70.7818 146.71L71.2402 144.554H73.4465L72.9878 146.712L70.7818 146.71Z" fill="#2F945A"/>
</g>
<defs>
<clipPath id="clip0_4681_57692">
<rect width="200" height="200" fill="white" transform="translate(-14 -21)"/>
</clipPath>
</defs>
</svg>
