<svg width="18" height="19" viewBox="0 0 18 19" fill="none" xmlns="http://www.w3.org/2000/svg">
<path fill-rule="evenodd" clip-rule="evenodd" d="M5.15917 4.00253C9.37465 -0.181837 14.4768 -1.25515 16.5145 1.59146C18.5522 4.45363 16.7634 10.1935 12.5479 14.3623C8.33244 18.5467 3.23032 19.62 1.19258 16.7734C-0.829604 13.9268 0.943696 8.18689 5.15917 4.00253Z" fill="#F99D28"/>
<path fill-rule="evenodd" clip-rule="evenodd" d="M7.95901 1.77814C7.5079 2.12036 7.02569 2.5248 6.55903 2.9759C2.85688 6.61583 1.33246 11.6246 3.15243 14.129C5.03462 16.6334 9.57675 15.7157 13.3256 12.0291C15.3478 10.0691 16.7166 7.76692 17.2766 5.63585C17.4477 4.06476 17.2144 2.68035 16.5144 1.62259C14.8967 -0.601811 11.4278 -0.430703 7.95901 1.77814Z" fill="#AF2A30"/>
<path fill-rule="evenodd" clip-rule="evenodd" d="M10.041 16.4467C8.06543 17.9244 6.02769 18.6711 4.03662 18.36C4.87661 18.4067 5.54548 17.4733 6.10547 16.2289C6.66546 14.9534 7.00768 13.7712 7.27212 12.6668C7.661 10.909 7.69211 9.6646 7.48989 9.40016C7.14767 8.94906 6.38547 9.0735 5.51437 9.57127C5.09438 9.8046 4.54994 9.64905 5.20327 8.85573C5.87214 8.06241 8.48543 6.13356 9.4343 5.83801C10.4765 5.54246 11.6587 5.9469 11.2543 7.08243C10.9743 7.8913 7.33434 17.4422 10.041 16.4467ZM13.012 1.65365C13.5098 2.15141 13.1987 3.22473 12.3742 4.06471C11.5343 4.90469 10.4298 5.20024 9.94762 4.71803C9.4343 4.23582 9.7454 3.14695 10.5854 2.29141C11.4409 1.43587 12.5453 1.17143 13.012 1.65365Z" fill="white"/>
</svg>
