<?xml version="1.0" encoding="utf-8"?>
<!-- Generator: Adobe Illustrator 26.0.2, SVG Export Plug-In . SVG Version: 6.00 Build 0)  -->
<svg version="1.1" id="Layer_1" xmlns="http://www.w3.org/2000/svg" xmlns:xlink="http://www.w3.org/1999/xlink" x="0px" y="0px"
	 viewBox="0 0 34 34" style="enable-background:new 0 0 34 34;" xml:space="preserve">
<style type="text/css">
	.st0{fill:#FFFFFF;}
</style>
<path class="st0" d="M18.6,25.9L12,19v-2.1h3.6c0.8,0,1.5-0.2,2.1-0.7c0.6-0.5,0.9-1.1,1.1-1.9h-7.7v-2.2h7.4
	c-0.3-0.5-0.7-1-1.2-1.3c-0.5-0.3-1.1-0.5-1.7-0.5h-4.5V8.1h11.9v2.2h-3.1c0.2,0.2,0.4,0.5,0.6,0.8c0.2,0.3,0.3,0.6,0.4,1h2.1v2.2
	h-2c-0.1,1.4-0.7,2.5-1.7,3.4c-1,0.9-2.2,1.4-3.6,1.4h-0.6l6.5,6.9H18.6z"/>
</svg>
