<svg width="130" height="27" viewBox="0 0 130 27" fill="none" xmlns="http://www.w3.org/2000/svg">
<path fill-rule="evenodd" clip-rule="evenodd" d="M34.0847 21.715C37.0033 21.715 39.3693 19.349 39.3693 16.4304C39.3693 13.5119 37.0033 11.1459 34.0847 11.1459C31.1662 11.1459 28.8002 13.5119 28.8002 16.4304C28.8002 19.349 31.1662 21.715 34.0847 21.715ZM34.0847 26.9995C39.9219 26.9995 44.6538 22.2676 44.6538 16.4304C44.6538 10.5933 39.9219 5.86133 34.0847 5.86133C28.2476 5.86133 23.5156 10.5933 23.5156 16.4304C23.5156 22.2676 28.2476 26.9995 34.0847 26.9995Z" fill="white"/>
<path fill-rule="evenodd" clip-rule="evenodd" d="M67.5112 21.4507C70.3568 21.4507 72.6636 19.1439 72.6636 16.2983C72.6636 13.4527 70.3568 11.1459 67.5112 11.1459C64.6656 11.1459 62.3588 13.4527 62.3588 16.2983C62.3588 19.1439 64.6656 21.4507 67.5112 21.4507ZM67.5112 26.7353C73.2754 26.7353 77.9482 22.0625 77.9482 16.2983C77.9482 10.5341 73.2754 5.86133 67.5112 5.86133C61.747 5.86133 57.0742 10.5341 57.0742 16.2983C57.0742 22.0625 61.747 26.7353 67.5112 26.7353Z" fill="white"/>
<path fill-rule="evenodd" clip-rule="evenodd" d="M48.6172 26.9999V0.577148H53.3733V26.9999H48.6172Z" fill="white"/>
<path fill-rule="evenodd" clip-rule="evenodd" d="M127.357 26.7357V0.577148H130V26.7357H127.357Z" fill="white"/>
<path fill-rule="evenodd" clip-rule="evenodd" d="M56.5457 10.089H45.9766V5.86133H56.5457V10.089Z" fill="white"/>
<path fill-rule="evenodd" clip-rule="evenodd" d="M15.1467 19.0727C14.233 20.6523 12.5251 21.715 10.5691 21.715C7.65053 21.715 5.28455 19.349 5.28455 16.4304C5.28455 13.5119 7.65053 11.1459 10.5691 11.1459C12.5251 11.1459 14.233 12.2086 15.1467 13.7882H20.8052C19.6319 9.22963 15.4939 5.86133 10.5691 5.86133C4.73195 5.86133 0 10.5933 0 16.4304C0 22.2676 4.73195 26.9995 10.5691 26.9995C15.4939 26.9995 19.6319 23.6312 20.8052 19.0727H15.1467Z" fill="white"/>
<path d="M120.919 14.9138C120.919 13.0019 120.348 11.4609 119.207 10.2909C118.065 9.09236 116.467 8.4931 114.412 8.4931C113.499 8.4931 112.615 8.67858 111.759 9.04956C110.902 9.392 110.146 9.86285 109.49 10.4621C108.862 11.0614 108.348 11.7463 107.949 12.5168C107.578 13.2872 107.392 14.0863 107.392 14.9138H120.919ZM107.307 17.2253C107.392 18.2241 107.635 19.1658 108.035 20.0504C108.434 20.935 108.962 21.7055 109.618 22.3619C110.275 22.9897 111.031 23.4891 111.887 23.86C112.743 24.231 113.671 24.4165 114.669 24.4165C116.182 24.4165 117.48 24.0741 118.565 23.3892C119.677 22.6758 120.519 21.8625 121.09 20.9493L123.273 22.7471C122.075 24.2596 120.748 25.3439 119.292 26.0003C117.865 26.6566 116.324 26.9848 114.669 26.9848C113.185 26.9848 111.801 26.728 110.517 26.2143C109.262 25.6721 108.177 24.9302 107.264 23.9885C106.351 23.0467 105.623 21.9338 105.081 20.6497C104.567 19.3655 104.311 17.9672 104.311 16.4548C104.311 14.9424 104.567 13.5441 105.081 12.2599C105.595 10.9758 106.308 9.86285 107.221 8.92114C108.134 7.97944 109.205 7.25175 110.432 6.7381C111.659 6.1959 112.986 5.9248 114.412 5.9248C115.925 5.9248 117.28 6.1959 118.479 6.7381C119.677 7.28029 120.676 8.00797 121.475 8.92114C122.303 9.80578 122.931 10.8616 123.359 12.0887C123.787 13.2872 124.001 14.5714 124.001 15.9411V17.2253H107.307Z" fill="white"/>
<path fill-rule="evenodd" clip-rule="evenodd" d="M101.463 16.4308C101.392 22.134 96.7468 26.7354 91.0268 26.7354C85.2626 26.7354 80.5898 22.0626 80.5898 16.2985C80.5898 10.5343 85.2626 5.86148 91.0268 5.86148C94.1259 5.86148 96.9095 7.21222 98.8211 9.3571V0.577149L101.463 0.577148L101.463 16.1999C101.464 16.2327 101.464 16.2656 101.464 16.2985C101.464 16.3314 101.464 16.3642 101.463 16.397V16.4308H101.463ZM98.8211 16.2131C98.7753 11.9475 95.3032 8.50375 91.0268 8.50375C86.7219 8.50375 83.2321 11.9936 83.2321 16.2985C83.2321 20.6034 86.7219 24.0932 91.0268 24.0932C95.3032 24.0932 98.7753 20.6494 98.8211 16.3838V16.2131Z" fill="white"/>
</svg>
