<svg width="20" height="21" viewBox="0 0 20 21" fill="none" xmlns="http://www.w3.org/2000/svg">
<path d="M9.9987 17.9337C9.0736 17.9337 8.20687 17.7587 7.3985 17.4088C6.59001 17.0588 5.8851 16.5832 5.2838 15.9819C4.68249 15.3806 4.20687 14.6757 3.85693 13.8672C3.507 13.0588 3.33203 12.1921 3.33203 11.267H4.5085C4.5085 12.7964 5.04118 14.0938 6.10654 15.1592C7.1719 16.2245 8.46929 16.7572 9.9987 16.7572C11.5281 16.7572 12.8255 16.2245 13.8909 15.1592C14.9562 14.0938 15.4889 12.7964 15.4889 11.267C15.4889 9.73759 14.9562 8.44021 13.8909 7.37485C12.8255 6.30949 11.5281 5.77681 9.9987 5.77681H9.79046L11.0363 7.02269L10.2099 7.87328L7.52517 5.18112L10.225 2.48877L11.0514 3.33936L9.79046 4.60034H9.9987C10.9238 4.60034 11.7905 4.77531 12.5989 5.12524C13.4074 5.47518 14.1123 5.9508 14.7136 6.5521C15.3149 7.15341 15.7905 7.85831 16.1405 8.66681C16.4904 9.47518 16.6654 10.3419 16.6654 11.267C16.6654 12.1921 16.4904 13.0588 16.1405 13.8672C15.7905 14.6757 15.3149 15.3806 14.7136 15.9819C14.1123 16.5832 13.4074 17.0588 12.5989 17.4088C11.7905 17.7587 10.9238 17.9337 9.9987 17.9337Z" fill="#367AFF"/>
</svg>
