<svg width="49" height="49" viewBox="0 0 49 49" fill="none" xmlns="http://www.w3.org/2000/svg">
<path d="M11.2796 41.5C10.2692 41.5 9.41406 41.15 8.71406 40.45C8.01406 39.75 7.66406 38.8948 7.66406 37.8845V11.1155C7.66406 10.1052 8.01406 9.25 8.71406 8.55C9.41406 7.85 10.2692 7.5 11.2796 7.5H38.0486C39.0589 7.5 39.9141 7.85 40.6141 8.55C41.3141 9.25 41.6641 10.1052 41.6641 11.1155V27.15C41.1844 26.886 40.6946 26.6425 40.1946 26.4195C39.6946 26.1962 39.1844 26 38.6641 25.831V18.269H26.1641V26.158C25.0667 26.522 24.0309 27.0187 23.0566 27.648C22.0822 28.2777 21.1757 29.0297 20.3371 29.904H10.6641V37.8845C10.6641 38.0642 10.7217 38.2117 10.8371 38.327C10.9524 38.4423 11.0999 38.5 11.2796 38.5H15.6101C15.9001 39.0537 16.1931 39.5773 16.4891 40.071C16.7854 40.5647 17.0989 41.041 17.4296 41.5H11.2796ZM10.6641 26.904H23.1641V18.269H10.6641V26.904ZM10.6641 15.2695H38.6641V11.1155C38.6641 10.9358 38.6064 10.7883 38.4911 10.673C38.3757 10.5577 38.2282 10.5 38.0486 10.5H11.2796C11.0999 10.5 10.9524 10.5577 10.8371 10.673C10.7217 10.7883 10.6641 10.9358 10.6641 11.1155V15.2695ZM32.7986 45.269C30.0602 45.269 27.5327 44.5557 25.2161 43.129C22.8994 41.702 21.1386 39.7615 19.9336 37.3075C21.1386 34.8538 22.8994 32.9135 25.2161 31.4865C27.5327 30.0595 30.0602 29.346 32.7986 29.346C35.5372 29.346 38.0649 30.0595 40.3816 31.4865C42.6979 32.9135 44.4587 34.8538 45.6641 37.3075C44.4587 39.7615 42.6979 41.702 40.3816 43.129C38.0649 44.5557 35.5372 45.269 32.7986 45.269ZM32.7986 42.269C34.6729 42.269 36.4422 41.8293 38.1066 40.95C39.7706 40.0703 41.1487 38.8562 42.2411 37.3075C41.1487 35.7588 39.7706 34.5448 38.1066 33.6655C36.4422 32.7858 34.6729 32.346 32.7986 32.346C30.9242 32.346 29.1551 32.7858 27.4911 33.6655C25.8271 34.5448 24.4489 35.7588 23.3566 37.3075C24.4489 38.8562 25.8271 40.0703 27.4911 40.95C29.1551 41.8293 30.9242 42.269 32.7986 42.269ZM32.7986 39.8075C32.1062 39.8075 31.5166 39.564 31.0296 39.077C30.5422 38.5897 30.2986 37.9998 30.2986 37.3075C30.2986 36.6152 30.5422 36.0255 31.0296 35.5385C31.5166 35.0512 32.1062 34.8075 32.7986 34.8075C33.4909 34.8075 34.0807 35.0512 34.5681 35.5385C35.0551 36.0255 35.2986 36.6152 35.2986 37.3075C35.2986 37.9998 35.0551 38.5897 34.5681 39.077C34.0807 39.564 33.4909 39.8075 32.7986 39.8075Z" fill="#143E26"/>
</svg>
