<svg width="20" height="20" viewBox="0 0 20 20" fill="none" xmlns="http://www.w3.org/2000/svg">
<path d="M8.70614 13.2537L14.3291 7.65565L13.4004 6.7269L8.70614 11.3962L6.58114 9.29615L5.65239 10.2249L8.70614 13.2537ZM10.0021 19.0999C8.75481 19.0999 7.57806 18.8631 6.47189 18.3894C5.36572 17.9157 4.39756 17.264 3.56739 16.4342C2.73722 15.6043 2.08514 14.6366 1.61114 13.5309C1.13731 12.4252 0.900391 11.2488 0.900391 10.0017C0.900391 8.73765 1.13722 7.55674 1.61089 6.4589C2.08456 5.36107 2.73631 4.39707 3.56614 3.5669C4.39597 2.73674 5.36372 2.08465 6.46939 1.61065C7.57506 1.13682 8.75147 0.899902 9.99864 0.899902C11.2626 0.899902 12.4436 1.13674 13.5414 1.6104C14.6392 2.08407 15.6032 2.73582 16.4334 3.56565C17.2636 4.39549 17.9156 5.35907 18.3896 6.4564C18.8635 7.55374 19.1004 8.73432 19.1004 9.99815C19.1004 11.2455 18.8636 12.4222 18.3899 13.5284C17.9162 14.6346 17.2645 15.6027 16.4346 16.4329C15.6048 17.2631 14.6412 17.9152 13.5439 18.3892C12.4466 18.863 11.266 19.0999 10.0021 19.0999ZM10.0004 17.7999C12.1671 17.7999 14.0087 17.0416 15.5254 15.5249C17.0421 14.0082 17.8004 12.1666 17.8004 9.9999C17.8004 7.83324 17.0421 5.99157 15.5254 4.4749C14.0087 2.95824 12.1671 2.1999 10.0004 2.1999C7.83372 2.1999 5.99206 2.95824 4.47539 4.4749C2.95872 5.99157 2.20039 7.83324 2.20039 9.9999C2.20039 12.1666 2.95872 14.0082 4.47539 15.5249C5.99206 17.0416 7.83372 17.7999 10.0004 17.7999Z" fill="#2F945A"/>
</svg>
