<svg width="24" height="24" viewBox="0 0 24 24" fill="none" xmlns="http://www.w3.org/2000/svg">
<path d="M5.61532 18.5V19.75C5.61532 19.9625 5.54345 20.1406 5.3997 20.2843C5.25597 20.4281 5.07785 20.5 4.86535 20.5H4.25C4.0375 20.5 3.85938 20.4281 3.71563 20.2843C3.57188 20.1406 3.5 19.9625 3.5 19.75V12.0769L5.54233 6.25002C5.61667 6.02054 5.75321 5.83817 5.95193 5.70292C6.15064 5.56765 6.37179 5.50002 6.61538 5.50002H9.46155V3.73082H14.5769V5.50002H17.4231C17.6571 5.50002 17.8695 5.56877 18.0604 5.70627C18.2513 5.84377 18.3837 6.02502 18.4576 6.25002L20.5 12.0769V19.75C20.5 19.9625 20.4281 20.1406 20.2843 20.2843C20.1406 20.4281 19.9625 20.5 19.75 20.5H19.1346C18.9221 20.5 18.744 20.4281 18.6002 20.2843C18.4565 20.1406 18.3846 19.9625 18.3846 19.75V18.5H5.61532ZM5.60765 10.577H18.3923L17.1308 7H6.8692L5.60765 10.577ZM7.46378 15.8461C7.82764 15.8461 8.13618 15.7188 8.38938 15.4641C8.64259 15.2094 8.7692 14.9001 8.7692 14.5362C8.7692 14.1723 8.64184 13.8638 8.38713 13.6106C8.13241 13.3574 7.82312 13.2308 7.45925 13.2308C7.09538 13.2308 6.78684 13.3581 6.53363 13.6128C6.28043 13.8676 6.15383 14.1769 6.15383 14.5407C6.15383 14.9046 6.28118 15.2131 6.5359 15.4663C6.79062 15.7195 7.09991 15.8461 7.46378 15.8461ZM16.5407 15.8461C16.9046 15.8461 17.2131 15.7188 17.4663 15.4641C17.7195 15.2094 17.8461 14.9001 17.8461 14.5362C17.8461 14.1723 17.7188 13.8638 17.4641 13.6106C17.2093 13.3574 16.9 13.2308 16.5362 13.2308C16.1723 13.2308 15.8638 13.3581 15.6106 13.6128C15.3574 13.8676 15.2308 14.1769 15.2308 14.5407C15.2308 14.9046 15.3581 15.2131 15.6128 15.4663C15.8675 15.7195 16.1768 15.8461 16.5407 15.8461ZM4.99997 17H19V12.0769H4.99997V17Z" fill="#4A4E69"/>
</svg>
