<svg width="44" height="44" viewBox="0 0 44 44" fill="none" xmlns="http://www.w3.org/2000/svg">
<rect x="0.5" y="0.5" width="43" height="43" rx="21.5" fill="white"/>
<rect x="0.5" y="0.5" width="43" height="43" rx="21.5" stroke="#BFDECC"/>
<path d="M29.4403 30.5C27.5557 30.5 25.6625 30.0618 23.7606 29.1855C21.8586 28.3092 20.1112 27.073 18.5183 25.4769C16.9253 23.8807 15.6907 22.1333 14.8144 20.2346C13.9381 18.3359 13.5 16.4442 13.5 14.5596C13.5 14.2569 13.6 14.0046 13.8 13.8028C14 13.6009 14.25 13.5 14.55 13.5H17.8115C18.0641 13.5 18.2868 13.5824 18.4798 13.7471C18.6727 13.9119 18.7955 14.1154 18.848 14.3577L19.4211 17.3C19.4609 17.5731 19.4525 17.8077 19.3961 18.0038C19.3397 18.2 19.2384 18.3647 19.0923 18.4981L16.7827 20.7461C17.1545 21.4269 17.5791 22.0708 18.0567 22.6779C18.5343 23.2849 19.0513 23.8647 19.6077 24.4173C20.1564 24.966 20.7397 25.4756 21.3577 25.9462C21.9756 26.4167 22.6429 26.8545 23.3596 27.2596L25.6038 24.9962C25.7602 24.8333 25.9497 24.7192 26.1721 24.6539C26.3945 24.5885 26.6256 24.5724 26.8654 24.6058L29.6423 25.1712C29.8948 25.2378 30.1009 25.3667 30.2605 25.5577C30.4201 25.7487 30.5 25.9654 30.5 26.2077V29.45C30.5 29.75 30.399 30 30.1972 30.2C29.9954 30.4 29.7431 30.5 29.4403 30.5ZM16.0731 19.3269L17.8577 17.6192C17.8897 17.5936 17.9106 17.5583 17.9202 17.5135C17.9298 17.4686 17.9282 17.4269 17.9154 17.3885L17.4807 15.1538C17.4679 15.1025 17.4455 15.0641 17.4135 15.0385C17.3814 15.0128 17.3397 15 17.2885 15H15.15C15.1115 15 15.0795 15.0128 15.0538 15.0385C15.0282 15.0641 15.0154 15.0961 15.0154 15.1346C15.0666 15.8179 15.1785 16.5122 15.3509 17.2173C15.5234 17.9224 15.7641 18.6256 16.0731 19.3269ZM24.773 27.9692C25.4359 28.2782 26.1272 28.5144 26.8471 28.6779C27.567 28.8413 28.2397 28.9384 28.8654 28.9692C28.9038 28.9692 28.9359 28.9564 28.9615 28.9308C28.9872 28.9051 29 28.873 29 28.8346V26.7308C29 26.6795 28.9872 26.6378 28.9615 26.6057C28.9359 26.5737 28.8974 26.5512 28.8461 26.5384L26.7461 26.1115C26.7077 26.0987 26.674 26.0971 26.6452 26.1067C26.6163 26.1163 26.5859 26.1372 26.5538 26.1692L24.773 27.9692Z" fill="#2F945A"/>
</svg>
