<svg width="229" height="166" viewBox="0 0 229 166" fill="none" xmlns="http://www.w3.org/2000/svg">
<path d="M163.03 166.184H168.328" stroke="#263238" stroke-width="0.4" stroke-linecap="round" stroke-linejoin="round"/>
<path d="M2.63379 166.184H159.884" stroke="#263238" stroke-width="0.4" stroke-linecap="round" stroke-linejoin="round"/>
<path d="M134.017 125.702L133.99 167.877" stroke="#263238" stroke-width="0.8" stroke-linecap="round" stroke-linejoin="round"/>
<path d="M134.061 118.463L134.017 125.702" stroke="#263238" stroke-width="1.6" stroke-linecap="round" stroke-linejoin="round"/>
<path d="M131.647 141.324L122.913 141.224C122.235 141.216 121.68 141.83 121.673 142.596L121.459 166.469C121.452 167.234 121.996 167.861 122.673 167.869L131.408 167.969C132.085 167.977 132.64 167.362 132.647 166.597L132.862 142.724C132.869 141.959 132.325 141.332 131.647 141.324Z" fill="#263238" stroke="#263238" stroke-width="0.4" stroke-linecap="round" stroke-linejoin="round"/>
<path d="M120.162 166.529L122.673 166.587L122.858 145.985L119.791 145.921C118.916 145.911 118.2 146.704 118.191 147.692L118.043 164.088C118.031 165.423 118.98 166.516 120.162 166.529Z" fill="#263238" stroke="#263238" stroke-width="0.4" stroke-linecap="round" stroke-linejoin="round"/>
<path d="M121.297 166.543L123.808 166.6L123.994 145.998L120.926 145.935C120.051 145.925 119.335 146.717 119.326 147.705L119.179 164.101C119.167 165.436 120.115 166.529 121.297 166.543Z" fill="#F4FCF8" stroke="#263238" stroke-width="0.4" stroke-linecap="round" stroke-linejoin="round"/>
<path d="M132.944 141.339L124.21 141.239C123.532 141.231 122.977 141.845 122.97 142.611L122.756 166.483C122.749 167.249 123.293 167.876 123.97 167.883L132.705 167.983C133.382 167.991 133.938 167.377 133.944 166.611L134.159 142.739C134.166 141.973 133.622 141.347 132.944 141.339Z" fill="#F4FCF8" stroke="#263238" stroke-width="0.4" stroke-linecap="round" stroke-linejoin="round"/>
<path d="M127.374 141.275L126.978 151.159C126.964 151.503 127.2 151.795 127.505 151.811L128.856 151.88C129.161 151.895 129.419 151.629 129.433 151.284L129.832 141.304L127.374 141.275Z" fill="#263238"/>
<path d="M125.3 155.177L131.385 155.36C131.977 155.378 132.445 155.935 132.429 156.604L132.258 163.888C132.242 164.558 131.748 165.086 131.156 165.068L125.072 164.886C124.479 164.868 124.011 164.31 124.027 163.641L124.198 156.357C124.214 155.688 124.708 155.159 125.3 155.177Z" fill="#263238" stroke="#263238" stroke-width="0.4" stroke-linecap="round" stroke-linejoin="round"/>
<path d="M126.012 155.332L132.096 155.514C132.689 155.532 133.157 156.09 133.141 156.759L132.97 164.043C132.954 164.712 132.46 165.241 131.868 165.223L125.783 165.04C125.191 165.022 124.723 164.465 124.739 163.796L124.91 156.512C124.926 155.842 125.42 155.314 126.012 155.332Z" fill="#F4FCF8" stroke="#263238" stroke-width="0.4" stroke-linecap="round" stroke-linejoin="round"/>
<path d="M100.898 82.0398C100.898 82.0398 100.553 85.1103 100.682 85.5489C100.812 85.9875 101.589 87.7421 101.632 87.8883C101.675 88.0345 100.726 88.9605 100.898 89.3992C101.071 89.8378 102.02 90.374 102.02 90.374C102.02 90.374 104.351 93.3957 104.653 93.3469C104.955 93.2982 106.077 92.6159 106.077 92.6159L106.724 94.3217L113.155 91.2512L111.213 87.6446C111.213 87.6446 109.184 81.8448 107.285 79.9928C105.386 78.1407 101.675 79.9441 100.898 82.0398Z" fill="#FFBE9D" stroke="#263238" stroke-width="0.4" stroke-linecap="round" stroke-linejoin="round"/>
<path d="M104.653 93.3468L106.282 91.3682L106.077 92.6157L104.653 93.3468Z" fill="#263238" stroke="#263238" stroke-width="0.4" stroke-linecap="round" stroke-linejoin="round"/>
<path d="M102.625 90.1788C102.625 90.1788 103.272 89.8376 103.013 88.9116" stroke="#263238" stroke-width="0.4" stroke-linecap="round" stroke-linejoin="round"/>
<path d="M101.114 85.7923C101.114 85.7923 101.114 85.1587 101.761 85.4511" stroke="#263238" stroke-width="0.4" stroke-linecap="round" stroke-linejoin="round"/>
<path d="M101.761 87.2061L102.279 88.2295" stroke="#263238" stroke-width="0.4" stroke-linecap="round" stroke-linejoin="round"/>
<path d="M109.098 76.8734C107.587 75.8012 105.343 76.0449 104.264 76.8734C103.255 77.6486 101.528 79.6174 101.31 79.8681C101.311 79.8651 101.312 79.8603 101.312 79.8567C101.303 79.8687 101.296 79.884 101.286 79.8952C101.286 79.8952 100.682 81.5931 100.898 82.0396C101.329 81.9909 102.71 81.0161 102.624 81.6009C102.538 82.1858 101.977 83.2093 102.322 83.4043C102.667 83.5992 103.506 84.4669 103.506 84.4669C103.506 84.4669 103.66 85.4025 104.178 85.3051C104.696 85.2076 105.084 84.2815 105.473 84.8664C105.861 85.4513 108.537 88.4243 108.709 88.4243C108.882 88.4243 111.212 87.6445 111.212 87.6445C111.212 87.6445 111.385 84.6227 111.515 82.6245C111.644 80.6262 110.608 77.9457 109.098 76.8734Z" fill="#263238" stroke="#263238" stroke-width="0.4" stroke-linecap="round" stroke-linejoin="round"/>
<path d="M104.436 86.2309C104.436 86.2309 104.091 83.4528 104.954 83.9402C105.818 84.4275 106.508 87.0107 106.292 87.5955C106.076 88.1804 105.559 87.7905 105.559 87.7905" fill="#FFBE9D"/>
<path d="M104.436 86.2309C104.436 86.2309 104.091 83.4528 104.954 83.9402C105.818 84.4275 106.508 87.0107 106.292 87.5955C106.076 88.1804 105.559 87.7905 105.559 87.7905" stroke="#263238" stroke-width="0.4" stroke-linecap="round" stroke-linejoin="round"/>
<path d="M105.914 94.0992L104.967 97.127C104.967 97.127 107.859 95.3459 110.645 94.2773C113.431 93.2087 115.271 92.9118 115.271 92.9118L113.852 90.5371C113.852 90.5371 108.016 91.1902 105.914 94.0992Z" fill="#FFBE9D" stroke="#263238" stroke-width="0.4" stroke-linecap="round" stroke-linejoin="round"/>
<path d="M91.0992 101.185L97.0597 112.48C97.1043 112.564 97.1925 112.606 97.2771 112.583L102.872 111.031C103 110.995 103.062 110.831 102.996 110.702L97.8264 100.57C97.7891 100.497 97.7187 100.454 97.6441 100.459L91.2587 100.847C91.11 100.856 91.023 101.04 91.0992 101.185Z" fill="#263238" stroke="#263238" stroke-width="0.4" stroke-linecap="round" stroke-linejoin="round"/>
<path d="M91.7594 101.633L97.1231 111.797L102.305 110.359L97.6686 101.273L91.7594 101.633Z" fill="#878787" stroke="#263238" stroke-width="0.4" stroke-linecap="round" stroke-linejoin="round"/>
<path d="M101.551 103.479C101.551 103.479 99.9739 104.429 99.3957 104.726C98.8174 105.023 98.502 105.261 98.8699 105.617C99.238 105.973 100.5 105.142 100.5 105.142L101.498 104.667L101.551 103.479Z" fill="#FFBE9D" stroke="#263238" stroke-width="0.4" stroke-linecap="round" stroke-linejoin="round"/>
<path d="M106.293 166.048L103.203 168.196C103.203 168.196 101.837 168.598 101.064 168.666C100.292 168.733 100.292 169.672 100.648 170.008C101.005 170.343 102.187 170.912 103.679 171.283C106.65 172.021 110.929 171.753 111.285 171.551C111.642 171.35 111.939 171.014 111.998 170.746C112.058 170.477 111.998 167.86 111.998 167.86C111.998 167.86 107.482 167.256 106.293 166.048Z" fill="#FFBE9D" stroke="#263238" stroke-width="0.4" stroke-linecap="round" stroke-linejoin="round"/>
<path d="M115.99 123.509C115.99 123.509 115.99 126.818 115.013 128.595C114.036 130.373 112.68 131.966 112.68 132.211C112.68 132.456 111.378 143.915 111.378 144.528C111.378 145.141 111.323 146.918 111.649 147.837C111.974 148.756 113.222 154.578 113.982 159.786C114.742 164.995 114.416 166.282 114.416 166.282C114.416 166.282 114.742 167.201 114.742 167.446C114.742 167.691 114.579 168.365 114.579 168.365C114.579 168.365 113.711 168.672 112.897 168.672C112.083 168.672 111.595 168.549 111.595 168.549C111.595 168.549 111.54 167.569 111.703 167.078C111.866 166.588 111.757 165.24 111.757 164.934C111.757 164.627 109.695 148.756 109.695 147.531C109.695 146.305 109.641 133.314 109.641 133.314L109.153 124.306C109.153 124.306 111.974 124.183 115.99 123.509Z" fill="#2F945A" stroke="#263238" stroke-width="0.4" stroke-linecap="round" stroke-linejoin="round"/>
<path d="M112.138 130.434C112.138 130.434 110.835 133.13 110.727 133.375C110.618 133.62 110.618 135.765 110.618 136.255C110.618 136.745 110.347 146.06 110.401 147.347C110.455 148.634 111.324 152.617 111.595 155.007C111.866 157.396 112.355 164.382 112.409 164.566C112.463 164.75 112.68 165.608 112.572 166.159C112.463 166.711 112.192 167.324 112.192 167.324C112.192 167.324 112.355 168.365 112.246 168.672C112.137 168.978 110.672 169.284 108.61 168.61C106.549 167.936 105.68 166.466 105.68 166.466C105.68 166.466 105.789 166.159 105.789 165.546C105.789 164.934 106.331 164.811 106.331 164.811L105.301 156.6C105.301 156.6 104.324 154.026 104.27 153.597C104.215 153.168 104.487 152.126 104.432 151.698C104.378 151.269 103.727 150.349 103.673 149.92C103.618 149.491 101.828 142.628 101.719 136.562C101.611 130.495 101.813 124.852 101.813 124.852C101.813 124.852 103.184 125.654 107.417 125.348C111.649 125.041 113.331 124.98 115.339 124" fill="#2F945A"/>
<path d="M112.138 130.434C112.138 130.434 110.835 133.13 110.727 133.375C110.618 133.62 110.618 135.765 110.618 136.255C110.618 136.745 110.347 146.06 110.401 147.347C110.455 148.634 111.324 152.617 111.595 155.007C111.866 157.396 112.355 164.382 112.409 164.566C112.463 164.75 112.68 165.608 112.572 166.159C112.463 166.711 112.192 167.324 112.192 167.324C112.192 167.324 112.355 168.365 112.246 168.672C112.137 168.978 110.672 169.284 108.61 168.61C106.549 167.936 105.68 166.466 105.68 166.466C105.68 166.466 105.789 166.159 105.789 165.546C105.789 164.934 106.331 164.811 106.331 164.811L105.301 156.6C105.301 156.6 104.324 154.026 104.27 153.597C104.215 153.168 104.487 152.126 104.432 151.698C104.378 151.269 103.727 150.349 103.673 149.92C103.618 149.491 101.828 142.628 101.719 136.562C101.611 130.495 101.813 124.852 101.813 124.852C101.813 124.852 103.184 125.654 107.417 125.348C111.649 125.041 113.331 124.98 115.339 124" stroke="#263238" stroke-width="0.4" stroke-linecap="round" stroke-linejoin="round"/>
<path d="M107.669 161.025L108.016 165.108C108.016 165.108 107.541 165.444 107.719 166.115C107.897 166.786 108.016 167.189 108.016 167.189" stroke="#263238" stroke-width="0.4" stroke-linecap="round" stroke-linejoin="round"/>
<path d="M104.555 140.556C104.596 140.852 104.64 141.141 104.688 141.419C105.639 146.922 106.709 151.083 106.768 151.284C106.828 151.485 106.055 152.223 106.352 152.626C106.649 153.029 107.006 153.23 107.006 153.23L107.552 159.651" stroke="#263238" stroke-width="0.4" stroke-linecap="round" stroke-linejoin="round"/>
<path d="M104.213 126.521C104.213 126.521 103.867 133.351 104.355 138.775" stroke="#263238" stroke-width="0.4" stroke-linecap="round" stroke-linejoin="round"/>
<path d="M102.846 126.387C102.846 126.387 102.668 128.803 103.856 130.011" stroke="#263238" stroke-width="0.4" stroke-linecap="round" stroke-linejoin="round"/>
<path d="M111.938 126.723C110.572 127.394 107.6 127.461 107.6 127.461L107.957 128.467C107.957 128.467 110.037 128.333 110.869 127.998" stroke="#263238" stroke-width="0.4" stroke-linecap="round" stroke-linejoin="round"/>
<path d="M101.814 124.852C101.814 124.852 102.55 126.395 108.28 126.039C114.01 125.683 116.218 124.614 116.271 124.08C116.323 123.546 116.166 122.299 116.166 122.299C116.166 122.299 105.336 123.189 101.814 124.852Z" fill="#C2C2C2" stroke="#263238" stroke-width="0.4" stroke-linecap="round" stroke-linejoin="round"/>
<path d="M104.968 97.1268C104.968 97.1268 101.761 98.7891 101.709 99.3234C101.656 99.8577 99.974 114.225 99.974 114.225L97.4506 110.9C97.4506 110.9 97.5032 109.713 97.3455 109.238C97.1878 108.763 97.1352 108.407 96.7672 108.229C96.3992 108.051 95.1901 107.694 94.8747 107.398C94.5592 107.101 93.6655 106.151 93.4553 106.507C93.245 106.863 92.8244 107.457 92.9296 107.872C93.0347 108.288 93.4553 109.119 93.4553 109.357C93.4553 109.594 93.4553 111.375 94.1387 112.206C94.8221 113.038 95.8209 113.394 95.8209 113.394C95.8209 113.394 97.4506 118.262 98.0289 119.212C98.6072 120.162 101.025 122.358 101.025 122.358C101.025 122.358 100.447 123.902 100.605 124.021C100.763 124.139 101.499 125.386 101.709 125.386C101.919 125.386 108.228 124.199 108.701 124.139C109.174 124.08 113.905 124.139 114.273 123.961C114.641 123.783 115.85 123.19 116.113 122.952C116.376 122.715 116.797 122.299 116.586 121.349C116.376 120.399 116.166 113.691 116.166 113.097C116.166 112.503 117.464 107.872 117.69 105.973C118.507 99.13 118.418 98.7282 118.435 97.8359C118.477 95.7297 116.998 94.6385 116.788 94.5198C116.578 94.4011 115.272 92.9116 115.272 92.9116C115.272 92.9116 110.593 93.3272 104.968 97.1268Z" fill="#C2C2C2" stroke="#263238" stroke-width="0.4" stroke-linecap="round" stroke-linejoin="round"/>
<path d="M101.025 122.358C101.025 122.358 102.865 122.002 103.181 121.705C103.496 121.408 106.282 112.206 106.387 111.672C106.493 111.138 106.65 104.667 106.65 104.667" stroke="#263238" stroke-width="0.4" stroke-linecap="round" stroke-linejoin="round"/>
<path d="M106.598 108.704L107.492 105.082" stroke="#263238" stroke-width="0.4" stroke-linecap="round" stroke-linejoin="round"/>
<path d="M99.7637 117.787C99.6059 116.778 99.974 114.225 99.974 114.225C99.974 114.225 100.342 116.719 101.025 117.728" stroke="#263238" stroke-width="0.4" stroke-linecap="round" stroke-linejoin="round"/>
<path d="M97.4506 110.9C97.4506 110.9 97.5032 109.713 97.3455 109.238C97.1878 108.763 97.1352 108.407 96.7672 108.229C96.3992 108.051 95.1901 107.694 94.8747 107.398C94.5592 107.101 93.6655 106.151 93.4553 106.507C93.245 106.863 92.8244 107.457 92.9296 107.873C93.0347 108.288 93.4553 109.119 93.4553 109.357C93.4553 109.594 93.4553 111.375 94.1387 112.206C94.8221 113.038 95.8209 113.394 95.8209 113.394C95.8209 113.394 95.9122 113.666 96.0582 114.092C96.3785 113.218 97.0286 112.144 98.2987 112.018L97.4506 110.9Z" fill="#FFBE9D" stroke="#263238" stroke-width="0.4" stroke-linecap="round" stroke-linejoin="round"/>
<path d="M96.6096 115.234C96.6096 115.234 96.9776 113.75 98.5022 113.156" stroke="#263238" stroke-width="0.4" stroke-linecap="round" stroke-linejoin="round"/>
<path d="M108.701 124.139L114.01 122.358" stroke="#263238" stroke-width="0.4" stroke-linecap="round" stroke-linejoin="round"/>
<path d="M115.008 108.389C115.008 108.389 111.648 112.492 108.923 114.749" stroke="#263238" stroke-width="0.4" stroke-linecap="round" stroke-linejoin="round"/>
<path d="M113.282 111.466C113.282 111.466 110.739 114.338 109.649 115.262" stroke="#263238" stroke-width="0.4" stroke-linecap="round" stroke-linejoin="round"/>
<path d="M115.271 92.9116C115.271 92.9116 117.758 96.5832 117.874 97.7001C117.991 98.8171 118.107 99.4741 118.107 99.4741L119.561 98.2915C119.561 98.2915 118.863 95.4662 118.049 94.5463C117.234 93.6265 115.271 92.9116 115.271 92.9116Z" fill="#263238" stroke="#263238" stroke-width="0.4" stroke-linecap="round" stroke-linejoin="round"/>
<path d="M119.389 97.0113C119.389 97.0113 117.314 96.8941 115.965 98.0661C114.615 99.238 113.993 103.105 113.681 105.215C113.37 107.324 113.059 116.817 113.059 118.341C113.059 119.864 114.304 120.567 114.823 120.802C115.342 121.036 118.351 120.216 118.766 120.098C119.182 119.981 122.191 119.981 123.021 117.872C123.851 115.762 123.955 112.012 123.851 110.606C123.748 109.199 122.814 107.09 122.814 107.09C122.814 107.09 123.021 101.582 122.606 99.7068C122.191 97.8317 120.323 96.7769 119.389 97.0113Z" fill="#263238" stroke="#263238" stroke-width="0.4" stroke-linecap="round" stroke-linejoin="round"/>
<path d="M122.814 107.09C122.814 107.09 115.254 108.979 115.431 109.778C115.608 110.578 115.342 112.276 115.431 112.576C115.519 112.876 123.851 110.606 123.851 110.606C123.851 110.606 123.649 107.499 122.814 107.09Z" fill="#878787" stroke="#878787" stroke-width="0.4" stroke-linecap="round" stroke-linejoin="round"/>
<path d="M121.713 98.2866C121.713 98.2866 117.908 98.5864 116.669 99.8854C115.43 101.184 115.146 105.971 115.076 107.18" stroke="#878787" stroke-width="0.4" stroke-linecap="round" stroke-linejoin="round"/>
<path d="M115.43 114.075C115.43 114.075 115.165 118.372 115.43 119.371C115.696 120.37 119.873 119.871 121.447 118.872" stroke="#878787" stroke-width="0.4" stroke-linecap="round" stroke-linejoin="round"/>
<path d="M47.5634 155.278C47.5634 155.278 46.6084 165.447 46.4719 165.832C46.3355 166.218 43.8115 166.218 43.6751 167.373C43.5386 168.529 43.948 168.991 44.3572 169.222C44.7665 169.453 46.3355 170.3 46.813 170.455C47.2905 170.609 48.5866 170.763 48.9277 170.069C49.2688 169.376 48.9959 166.911 48.9959 166.911L51.4517 155.432L47.5634 155.278Z" fill="#FFBE9D" stroke="#263238" stroke-width="0.4" stroke-linecap="round" stroke-linejoin="round"/>
<path d="M59.5409 153.457C59.5409 153.457 59.1049 165.88 58.832 167.112C58.5591 168.345 58.4909 169.269 58.7638 169.963C59.0367 170.656 60.0599 170.656 60.4692 170.502C60.8785 170.348 63.6071 168.884 63.88 168.422C64.1528 167.96 63.3343 167.497 62.9932 167.343C62.6521 167.189 61.5606 166.034 61.4924 165.803C61.4242 165.572 62.9517 155.305 62.9517 155.305L59.5409 153.457Z" fill="#FFBE9D" stroke="#263238" stroke-width="0.4" stroke-linecap="round" stroke-linejoin="round"/>
<path d="M60.4692 170.502C60.8785 170.348 63.6071 168.884 63.88 168.422C64.1529 167.96 63.3343 167.498 62.9932 167.344C62.6521 167.189 61.5607 166.034 61.4924 165.803C61.4755 165.746 61.6265 165.086 61.8628 164.128L59.0312 164.016C58.8177 165.544 58.9076 166.771 58.832 167.112C58.5591 168.345 58.4909 169.269 58.7638 169.963C59.0367 170.656 60.0599 170.656 60.4692 170.502Z" fill="#74B790" stroke="#263238" stroke-width="0.4" stroke-linecap="round" stroke-linejoin="round"/>
<path d="M46.8325 162.76C46.6635 164.402 46.519 165.699 46.4719 165.832C46.3355 166.217 43.8115 166.217 43.6751 167.373C43.5386 168.528 43.948 168.991 44.3572 169.222C44.7665 169.453 46.3355 170.3 46.813 170.454C47.2905 170.608 48.5866 170.762 48.9277 170.069C49.2688 169.376 48.9959 166.911 48.9959 166.911L49.8278 163.023L46.8325 162.76Z" fill="#74B790" stroke="#263238" stroke-width="0.4" stroke-linecap="round" stroke-linejoin="round"/>
<path d="M51.7319 119.379C51.7319 119.379 50.9133 121.459 50.504 127.622C50.0947 133.785 49.8219 141.104 49.1397 144.108C48.4575 147.113 47.025 155.279 47.025 155.279L51.9366 156.28L54.3241 144.339L59.8496 124.079L58.5913 157.118L63.2982 157.58L66.4665 134.556C66.4665 134.556 68.7176 125.388 68.7858 122.23C68.8541 119.071 68.0355 118.224 68.0355 118.224L59.8496 116.375L51.7319 119.379Z" fill="#263238" stroke="#263238" stroke-width="0.4" stroke-linecap="round" stroke-linejoin="round"/>
<path d="M52.2051 117.354L51.7319 119.379C51.7319 119.379 58.076 118.301 60.8047 118.069C63.5333 117.838 68.3766 118.84 68.3766 118.84L67.3973 116.344C67.3973 116.344 64.4201 115.45 61.0775 115.373C57.7349 115.296 55.0063 115.835 54.4606 115.989C53.9149 116.144 52.2051 117.354 52.2051 117.354Z" fill="white" stroke="#263238" stroke-width="0.4" stroke-linecap="round" stroke-linejoin="round"/>
<path d="M53.4957 91.2256C53.4957 91.2256 48.4316 93.9168 47.3393 95.9353C46.2471 97.9537 41.4809 109.84 41.8781 110.961C42.2752 112.083 44.559 114.55 44.559 114.55L47.1407 112.756L46.4457 109.392L49.7224 101.542C49.7224 101.542 51.4105 110.401 51.5097 111.41C51.609 112.419 51.0133 115.447 51.3111 116.344C51.609 117.241 51.9069 117.465 52.2048 117.353C52.5027 117.241 56.6731 115.895 58.4605 115.895C60.2478 115.895 66.8013 117.129 67.3971 116.344C67.9929 115.559 67.5957 114.886 67.3971 114.55C67.1985 114.213 64.7161 104.233 64.7161 104.233C64.7161 104.233 66.0069 95.711 65.4111 94.8139C64.8154 93.9168 59.2548 91.562 59.2548 91.562L53.4957 91.2256Z" fill="white" stroke="#263238" stroke-width="0.4" stroke-linecap="round" stroke-linejoin="round"/>
<path d="M56.2007 112.135L61.58 109.888" stroke="#263238" stroke-width="0.4" stroke-linecap="round" stroke-linejoin="round"/>
<path d="M54.4229 112.877L55.5078 112.424" stroke="#263238" stroke-width="0.4" stroke-linecap="round" stroke-linejoin="round"/>
<path d="M53.2461 112.324L56.5796 110.773" stroke="#263238" stroke-width="0.4" stroke-linecap="round" stroke-linejoin="round"/>
<path d="M48.0444 97.8589L49.722 101.542L48.0984 99.871" stroke="#263238" stroke-width="0.4" stroke-linecap="round" stroke-linejoin="round"/>
<path d="M65.4114 94.8145L69.7804 110.513L71.8656 112.42L69.7804 115.447C69.7804 115.447 66.4043 112.308 65.9078 111.747C65.4114 111.186 63.1276 102.44 63.1276 102.44" fill="white"/>
<path d="M65.4114 94.8145L69.7804 110.513L71.8656 112.42L69.7804 115.447C69.7804 115.447 66.4043 112.308 65.9078 111.747C65.4114 111.186 63.1276 102.44 63.1276 102.44" stroke="#263238" stroke-width="0.4" stroke-linecap="round" stroke-linejoin="round"/>
<path d="M80.9963 119.61V117.299H74.1748V119.379" stroke="#263238" stroke-width="1.2" stroke-miterlimit="10"/>
<path d="M74.1748 119.379V140.642H80.9963V119.611" stroke="#263238" stroke-width="0.8" stroke-miterlimit="10"/>
<path d="M71.8661 112.42L77.4177 114.97C77.4177 114.97 78.3926 115.371 78.5699 115.521C78.7471 115.671 79.2789 116.221 79.2789 116.221H78.7915C78.7915 116.221 80.0323 118.073 79.8993 118.273C79.7664 118.473 79.855 118.573 79.4562 118.573C79.0573 118.573 78.7028 118.323 78.7028 118.323C78.7028 118.323 77.9938 118.473 77.3733 118.273C76.7529 118.073 75.2905 116.472 75.2905 116.472L69.7809 115.448L71.8661 112.42Z" fill="#FFBE9D" stroke="#263238" stroke-width="0.4" stroke-linecap="round" stroke-linejoin="round"/>
<path d="M72.8352 165.447H72.313C72.1471 165.447 72.0126 165.599 72.0126 165.787V167.909C72.0126 168.096 72.1471 168.248 72.313 168.248H72.8352C73.0011 168.248 73.1356 168.096 73.1356 167.909V165.787C73.1356 165.599 73.0011 165.447 72.8352 165.447Z" fill="#263238" stroke="#263238" stroke-width="0.4" stroke-linecap="round" stroke-linejoin="round"/>
<path d="M73.1611 163.944H72.0015V167.026H73.1611V163.944Z" fill="#74B790" stroke="#263238" stroke-width="0.4" stroke-linecap="round" stroke-linejoin="round"/>
<path d="M82.6633 168.248H83.1856C83.3515 168.248 83.486 168.096 83.486 167.909V165.787C83.486 165.599 83.3515 165.447 83.1856 165.447H82.6633C82.4974 165.447 82.3629 165.599 82.3629 165.787V167.909C82.3629 168.096 82.4974 168.248 82.6633 168.248Z" fill="#263238" stroke="#263238" stroke-width="0.4" stroke-linecap="round" stroke-linejoin="round"/>
<path d="M82.3059 166.988H83.4656V163.906H82.3059V166.988Z" fill="#74B790" stroke="#263238" stroke-width="0.4" stroke-linecap="round" stroke-linejoin="round"/>
<path d="M82.3891 140.179H72.9861C71.6457 140.179 70.5591 141.406 70.5591 142.92V162.244C70.5591 163.758 71.6457 164.985 72.9861 164.985H82.3891C83.7296 164.985 84.8162 163.758 84.8162 162.244V142.92C84.8162 141.406 83.7296 140.179 82.3891 140.179Z" fill="#C2C2C2" stroke="#263238" stroke-width="0.4" stroke-linecap="round" stroke-linejoin="round"/>
<path d="M82.1486 141.844H73.2266C71.7534 141.844 70.5591 143.192 70.5591 144.856V161.973C70.5591 163.636 71.7534 164.985 73.2266 164.985H82.1486C83.6219 164.985 84.8162 163.636 84.8162 161.973V144.856C84.8162 143.192 83.6219 141.844 82.1486 141.844Z" fill="#FD7E50" stroke="#263238" stroke-width="0.4" stroke-linecap="round" stroke-linejoin="round"/>
<path d="M72.3536 145.253V161.564" stroke="#263238" stroke-width="0.4" stroke-linecap="round" stroke-linejoin="round"/>
<path d="M75.0205 145.253V161.564" stroke="#263238" stroke-width="0.4" stroke-linecap="round" stroke-linejoin="round"/>
<path d="M77.6874 145.253V161.564" stroke="#263238" stroke-width="0.4" stroke-linecap="round" stroke-linejoin="round"/>
<path d="M80.355 145.253V161.564" stroke="#263238" stroke-width="0.4" stroke-linecap="round" stroke-linejoin="round"/>
<path d="M83.0221 145.253V161.564" stroke="#263238" stroke-width="0.4" stroke-linecap="round" stroke-linejoin="round"/>
<path d="M47.1415 112.756L50.6844 119.299L51.5018 119.709L51.0023 122.273C51.0023 122.273 49.3675 121.35 49.1404 120.837C48.9134 120.325 44.5598 114.55 44.5598 114.55L47.1415 112.756Z" fill="#FFBE9D" stroke="#263238" stroke-width="0.4" stroke-linecap="round" stroke-linejoin="round"/>
<path d="M52.755 90.3334L50.8517 102.513C50.8517 102.513 53.1357 105.953 56.9423 105.953C60.7489 105.953 62.6522 103.803 62.6522 103.803L61.0026 89.4736L52.755 90.3334Z" fill="#263238" stroke="#263238" stroke-width="0.4" stroke-linecap="round" stroke-linejoin="round"/>
<path d="M57.255 93.5298C61.6597 93.5298 65.2304 89.4305 65.2304 84.3738C65.2304 79.3171 61.6597 75.2178 57.255 75.2178C52.8503 75.2178 49.2795 79.3171 49.2795 84.3738C49.2795 89.4305 52.8503 93.5298 57.255 93.5298Z" fill="#2F945A" stroke="#263238" stroke-width="0.4" stroke-linecap="round" stroke-linejoin="round"/>
<path d="M57.2111 87.4589C59.3039 87.4589 61.0005 85.5875 61.0005 83.279C61.0005 80.9705 59.3039 79.0991 57.2111 79.0991C55.1182 79.0991 53.4216 80.9705 53.4216 83.279C53.4216 85.5875 55.1182 87.4589 57.2111 87.4589Z" fill="#2F945A" stroke="#263238" stroke-width="0.4" stroke-linecap="round" stroke-linejoin="round"/>
<path d="M56.8158 86.7383L56.3324 91.6514L57.3682 91.8074L56.8158 86.7383Z" fill="#2F945A" stroke="#263238" stroke-width="0.4" stroke-linecap="round" stroke-linejoin="round"/>
<path d="M57.2105 86.7571L57.9889 90.4036L57.3674 90.3256L56.8149 86.7383L57.2105 86.7571Z" fill="#2F945A" stroke="#263238" stroke-width="0.4" stroke-linecap="round" stroke-linejoin="round"/>
<path d="M57.2111 86.7572C59.3039 86.7572 61.0005 84.8858 61.0005 82.5773C61.0005 80.2689 59.3039 78.3975 57.2111 78.3975C55.1182 78.3975 53.4216 80.2689 53.4216 82.5773C53.4216 84.8858 55.1182 86.7572 57.2111 86.7572Z" fill="#2F945A" stroke="#263238" stroke-width="0.4" stroke-linecap="round" stroke-linejoin="round"/>
<path d="M132.62 47.9581L129.647 55.7746L130.902 55.6781L135.131 49.0196L134.008 47.4756L132.62 47.9581Z" fill="#263238" stroke="#263238" stroke-width="0.4" stroke-linecap="round" stroke-linejoin="round"/>
<path d="M172.463 35.1232L169.457 34.8204C168.909 34.7653 168.359 34.8325 167.825 35.0197L136.717 45.9312L130.373 42.6502L128.656 43.4222L134.14 49.5982L141.738 49.0192L170.203 39.6794C171.216 39.3469 172.178 38.7403 173.039 37.891L173.798 37.1417C174.029 36.9133 174.143 36.5024 174.084 36.1035C174.023 35.6894 173.791 35.3761 173.503 35.3213L172.463 35.1232Z" fill="white" stroke="#263238" stroke-width="0.4" stroke-linecap="round" stroke-linejoin="round"/>
<path d="M140.288 49.1299C141.674 47.2947 143.648 44.8072 145.568 42.8267L136.717 45.9314L130.373 42.6504L128.656 43.4224L134.14 49.5984L140.288 49.1299Z" fill="white" stroke="#263238" stroke-width="0.4" stroke-linecap="round" stroke-linejoin="round"/>
<path d="M132.62 47.9578L131.232 40.5273H132.488L135.659 47.6683L132.62 47.9578Z" fill="#263238" stroke="#263238" stroke-width="0.4" stroke-linecap="round" stroke-linejoin="round"/>
<path d="M132.621 47.958L131.392 48.1286L131.485 49.1908L134.14 49.5985L132.621 47.958Z" fill="white" stroke="#263238" stroke-width="0.4" stroke-linecap="round" stroke-linejoin="round"/>
<path d="M151.352 42.866L150.985 37.9696L147.265 21L149.607 22.2744L158.654 40.7867L151.352 42.866Z" fill="#263238" stroke="#263238" stroke-width="0.4" stroke-linecap="round" stroke-linejoin="round"/>
<path d="M153.931 31.6945C153.591 31.3129 153.488 29.957 153.761 29.4756C154.159 28.7754 156.052 28.5243 156.596 29.0131C156.971 29.3492 157.081 30.7835 156.766 31.232C156.308 31.8843 154.424 32.2493 153.931 31.6945Z" fill="white" stroke="#263238" stroke-width="0.4" stroke-linecap="round" stroke-linejoin="round"/>
<path d="M153.611 29.7256L152.17 30.3051L152.379 31.525H153.737C153.737 31.525 153.549 30.6711 153.611 29.7256Z" fill="white" stroke="#263238" stroke-width="0.4" stroke-linecap="round" stroke-linejoin="round"/>
<path d="M157.314 37.733C156.974 37.3515 156.871 35.9956 157.144 35.5142C157.542 34.8139 159.435 34.5629 159.979 35.0517C160.354 35.3877 160.464 36.8221 160.149 37.2706C159.692 37.9228 157.807 38.2879 157.314 37.733Z" fill="white" stroke="#263238" stroke-width="0.4" stroke-linecap="round" stroke-linejoin="round"/>
<path d="M156.994 35.7646L155.553 36.3441L155.762 37.5641H157.119C157.119 37.5641 156.931 36.7101 156.994 35.7646Z" fill="white" stroke="#263238" stroke-width="0.4" stroke-linecap="round" stroke-linejoin="round"/>
<path d="M147.667 47.1961L150.825 47.7797L142.632 62.897L141.633 63.0721L143.831 63.4223L157.938 44.5695L159.537 43.2271L147.667 47.1961Z" fill="#263238" stroke="#263238" stroke-width="0.4" stroke-linecap="round" stroke-linejoin="round"/>
<path d="M155.061 50.6827C154.722 50.3012 154.618 48.9453 154.891 48.4639C155.289 47.7636 157.182 47.5126 157.727 48.0014C158.101 48.3374 158.211 49.7718 157.896 50.2203C157.439 50.8726 155.555 51.2376 155.061 50.6827Z" fill="white" stroke="#263238" stroke-width="0.4" stroke-linecap="round" stroke-linejoin="round"/>
<path d="M154.742 48.7139L153.301 49.2933L153.51 50.5133H154.867C154.867 50.5133 154.679 49.6593 154.742 48.7139Z" fill="white" stroke="#263238" stroke-width="0.4" stroke-linecap="round" stroke-linejoin="round"/>
<path d="M149.347 57.7452C149.007 57.3637 148.904 56.0078 149.177 55.5264C149.575 54.8261 151.468 54.5751 152.012 55.0639C152.387 55.3999 152.497 56.8343 152.182 57.2827C151.724 57.935 149.84 58.3001 149.347 57.7452Z" fill="white" stroke="#263238" stroke-width="0.4" stroke-linecap="round" stroke-linejoin="round"/>
<path d="M149.027 55.7764L147.586 56.3558L147.795 57.5758H149.152C149.152 57.5758 148.964 56.7218 149.027 55.7764Z" fill="white" stroke="#263238" stroke-width="0.4" stroke-linecap="round" stroke-linejoin="round"/>
<path d="M134.133 50C134.133 50 60.1446 62.7173 24.0461 83.4094C-12.0524 104.101 51.3935 90.7791 51.3935 90.7791" stroke="#263238" stroke-width="0.4" stroke-linecap="round" stroke-linejoin="round"/>
</svg>
