<svg width="25" height="24" viewBox="0 0 25 24" fill="none" xmlns="http://www.w3.org/2000/svg">
<path d="M7.47139 16.9076L4.74254 15.3922L5.34831 14.796L7.74639 15.146L12.1521 10.7307L4.42139 6.52873L5.22524 5.71528L14.7233 8.16913L17.4521 5.40568C17.6636 5.19415 17.9114 5.08838 18.1954 5.08838C18.4793 5.08838 18.7271 5.19415 18.9386 5.40568C19.1502 5.62363 19.2559 5.87619 19.2559 6.16335C19.2559 6.45054 19.1502 6.6999 18.9386 6.91143L16.229 9.66525L18.6636 19.1537L17.8598 19.9672L13.6483 12.2364L9.26174 16.6326L9.60214 19.0306L8.98676 19.646L7.47139 16.9076Z" fill="#2F945A"/>
</svg>
