<svg width="44" height="44" viewBox="0 0 44 44" fill="none" xmlns="http://www.w3.org/2000/svg">
<rect x="0.5" y="0.5" width="43" height="43" rx="21.5" fill="white"/>
<rect x="0.5" y="0.5" width="43" height="43" rx="21.5" stroke="#BFDECC"/>
<path d="M17.1077 26.9076L14.3789 25.3922L14.9847 24.796L17.3827 25.146L21.7885 20.7307L14.0577 16.5287L14.8616 15.7153L24.3596 18.1691L27.0885 15.4057C27.3 15.1941 27.5477 15.0884 27.8317 15.0884C28.1157 15.0884 28.3634 15.1941 28.575 15.4057C28.7865 15.6236 28.8923 15.8762 28.8923 16.1634C28.8923 16.4505 28.7865 16.6999 28.575 16.9114L25.8654 19.6653L28.3 29.1537L27.4962 29.9672L23.2846 22.2364L18.8981 26.6326L19.2385 29.0306L18.6231 29.646L17.1077 26.9076Z" fill="#2F945A"/>
</svg>
