<svg width="44" height="44" viewBox="0 0 44 44" fill="none" xmlns="http://www.w3.org/2000/svg">
<rect x="0.5" y="0.5" width="43" height="43" rx="21.5" fill="white"/>
<rect x="0.5" y="0.5" width="43" height="43" rx="21.5" stroke="#BFDECC"/>
<path d="M17.375 31.5V25.6635H15.602C15.0182 25.6635 14.5218 25.4582 14.113 25.0475C13.7043 24.6368 13.5 24.1382 13.5 23.5515C13.5 23.1262 13.6157 22.7333 13.8472 22.373C14.0786 22.0128 14.3853 21.7456 14.7673 21.5712L21.25 18.6905V17.7422C20.6757 17.5769 20.2083 17.2593 19.848 16.7895C19.4878 16.3197 19.3078 15.7873 19.3078 15.1923C19.3078 14.4444 19.5691 13.8087 20.0918 13.2852C20.6143 12.7617 21.2488 12.5 21.9955 12.5C22.742 12.5 23.3765 12.7628 23.899 13.2885C24.4215 13.8142 24.6827 14.4488 24.6827 15.1923H23.1635C23.1635 14.8544 23.052 14.5713 22.829 14.3428C22.606 14.1143 22.3297 14 22 14C21.6622 14 21.379 14.1143 21.1505 14.3428C20.922 14.5713 20.8078 14.8544 20.8078 15.1923C20.8078 15.5301 20.922 15.8132 21.1505 16.0417C21.379 16.2704 21.6622 16.3848 22 16.3848C22.2125 16.3848 22.3906 16.4566 22.5343 16.6003C22.6781 16.7441 22.75 16.9223 22.75 17.1348V18.6905L29.223 21.5712C29.6047 21.7469 29.9129 22.0142 30.1477 22.373C30.3826 22.7318 30.5 23.1236 30.5 23.5483C30.5 24.1341 30.2947 24.6331 29.884 25.0452C29.4735 25.4574 28.975 25.6635 28.3885 25.6635H26.625V31.5H17.375ZM15.602 24.1635H17.375V23.1923H26.625V24.1635H28.3885C28.5628 24.1635 28.7083 24.1026 28.825 23.9808C28.9417 23.8589 29 23.7058 29 23.5213C29 23.3994 28.9696 23.2885 28.9087 23.1885C28.8477 23.0885 28.7563 23.0122 28.6345 22.9595L22 20.0078L15.375 22.9595C15.2532 23.0122 15.1603 23.0885 15.0963 23.1885C15.0321 23.2885 15 23.3994 15 23.5213C15 23.7058 15.0564 23.8589 15.1693 23.9808C15.2821 24.1026 15.4263 24.1635 15.602 24.1635ZM18.875 30H25.125V24.6923H18.875V30Z" fill="#2F945A"/>
</svg>
