<svg width="200" height="166" viewBox="0 0 200 166" fill="none" xmlns="http://www.w3.org/2000/svg">
<path d="M148.2 46.0002C156.705 46.0002 163.6 39.1054 163.6 30.6002C163.6 22.095 156.705 15.2002 148.2 15.2002C139.695 15.2002 132.8 22.095 132.8 30.6002C132.8 39.1054 139.695 46.0002 148.2 46.0002Z" stroke="#263238" stroke-width="0.4" stroke-miterlimit="10" stroke-linecap="round"/>
<path d="M148.2 44.5043C155.879 44.5043 162.104 38.2793 162.104 30.6003C162.104 22.9213 155.879 16.6963 148.2 16.6963C140.521 16.6963 134.296 22.9213 134.296 30.6003C134.296 38.2793 140.521 44.5043 148.2 44.5043Z" stroke="#263238" stroke-width="0.4" stroke-miterlimit="10" stroke-linecap="round"/>
<path d="M153.716 32.3123L148.2 30.6003L154.732 21.1323" stroke="#263238" stroke-width="0.4" stroke-miterlimit="10" stroke-linecap="round"/>
<path d="M148.2 31.3803C148.631 31.3803 148.98 31.0311 148.98 30.6003C148.98 30.1695 148.631 29.8203 148.2 29.8203C147.769 29.8203 147.42 30.1695 147.42 30.6003C147.42 31.0311 147.769 31.3803 148.2 31.3803Z" fill="#263238" stroke="#263238" stroke-width="0.4" stroke-miterlimit="10"/>
<path d="M142.82 26.3402C144.377 26.3402 145.64 25.0776 145.64 23.5202C145.64 21.9628 144.377 20.7002 142.82 20.7002C141.263 20.7002 140 21.9628 140 23.5202C140 25.0776 141.263 26.3402 142.82 26.3402Z" stroke="#263238" stroke-width="0.4" stroke-miterlimit="10" stroke-linecap="round"/>
<path d="M144.028 28.4004C144.028 28.5198 143.992 28.6366 143.926 28.736C143.859 28.8353 143.765 28.9127 143.655 28.9584C143.544 29.0041 143.423 29.0161 143.306 28.9928C143.189 28.9695 143.081 28.912 142.996 28.8275C142.912 28.743 142.854 28.6354 142.831 28.5182C142.808 28.4011 142.82 28.2796 142.866 28.1692C142.911 28.0589 142.989 27.9645 143.088 27.8982C143.187 27.8318 143.304 27.7964 143.424 27.7964C143.503 27.7964 143.581 27.812 143.655 27.8424C143.728 27.8727 143.795 27.9172 143.851 27.9733C143.907 28.0294 143.951 28.096 143.982 28.1692C144.012 28.2425 144.028 28.3211 144.028 28.4004Z" stroke="#263238" stroke-width="0.4" stroke-miterlimit="10" stroke-linecap="round"/>
<path d="M18.7881 30.3999H98.1521V184.412H14.0481V30.3999H16.4081" stroke="#263238" stroke-width="0.4" stroke-miterlimit="10"/>
<path d="M95.6045 33.7319H70.1165V181.076H95.6045V33.7319Z" stroke="#263238" stroke-width="0.4" stroke-miterlimit="10"/>
<path d="M67.1999 33.7319H43.1719V181.076H67.1999V33.7319Z" stroke="#263238" stroke-width="0.4" stroke-miterlimit="10"/>
<path d="M40.26 73.8078V71.1318" stroke="#263238" stroke-width="0.4" stroke-miterlimit="10"/>
<path d="M40.2602 68.7519V33.7319H16.5962V181.076H40.2602V77.0799" stroke="#263238" stroke-width="0.4" stroke-miterlimit="10"/>
<path d="M54.2324 184.444V91.9405C54.2324 91.4611 54.3269 90.9864 54.5105 90.5435C54.6941 90.1007 54.9631 89.6983 55.3023 89.3595C55.6415 89.0207 56.0441 88.7521 56.4872 88.569C56.9302 88.3859 57.405 88.292 57.8844 88.2925H117.6C118.568 88.2925 119.496 88.6768 120.18 89.361C120.864 90.0451 121.248 90.973 121.248 91.9405V184.3" stroke="#263238" stroke-width="1.6" stroke-linejoin="round"/>
<path d="M124.976 105.14L123.216 103.94C120.666 102.128 118.679 99.632 117.484 96.7404L116 93.3164H113.668L112.2 96.7404C111.005 99.632 109.018 102.128 106.468 103.94L104.708 105.14C104.201 105.515 103.791 106.006 103.512 106.572C103.234 107.137 103.095 107.762 103.108 108.392H126.536C126.554 107.765 126.422 107.143 126.15 106.577C125.879 106.012 125.476 105.519 124.976 105.14ZM115.504 106.952H105.436C105.436 105.872 107.16 104.872 107.836 104.324L109.036 103.336C110.856 101.792 112.227 99.7854 113.004 97.5284L114.02 94.7564H115.62L116.636 97.5284C117.414 99.7865 118.786 101.793 120.608 103.336L121.808 104.324C122.492 104.872 124.18 105.872 124.18 106.952H115.504Z" fill="white" stroke="#263238" stroke-width="0.4" stroke-linecap="round" stroke-linejoin="round"/>
<path d="M114.837 93.2602V90.7482C114.837 90.7482 116.273 89.6722 116.273 88.1162C116.273 86.5602 115.073 85.9602 113.761 86.4402" stroke="#263238" stroke-width="0.4" stroke-linecap="round" stroke-linejoin="round"/>
<path d="M108.144 101.348C108.144 101.348 110.812 104.424 114.168 104.476C117.728 104.532 121.912 101.416 121.912 101.416C122.866 102.239 123.906 102.958 125.012 103.56C126.876 104.576 128.104 106.064 129.08 108.644C130.172 111.52 132.576 119.34 132.576 119.34L125.648 119.676L126.596 135.396H103.548L105.108 119.396H98.4004C98.4004 119.396 100.628 108.828 101.648 106.796C102.668 104.764 108.144 101.348 108.144 101.348Z" fill="white" stroke="#263238" stroke-width="0.4" stroke-linecap="round" stroke-linejoin="round"/>
<path d="M105.109 119.38L105.461 110.98" stroke="#263238" stroke-width="0.4" stroke-linecap="round" stroke-linejoin="round"/>
<path d="M125.649 119.677L125.105 111.521" stroke="#263238" stroke-width="0.4" stroke-linecap="round" stroke-linejoin="round"/>
<path d="M121.389 105.14L119.629 103.94C117.079 102.128 115.092 99.632 113.897 96.7404L112.429 93.3164H110.097L108.629 96.7404C107.435 99.6328 105.448 102.129 102.897 103.94L101.137 105.14C100.629 105.515 100.219 106.006 99.9409 106.572C99.6624 107.137 99.5239 107.762 99.537 108.392H122.965C122.981 107.764 122.846 107.141 122.572 106.575C122.298 106.009 121.892 105.517 121.389 105.14ZM111.917 106.952H101.849C101.849 105.872 103.573 104.872 104.249 104.324L105.469 103.336C107.289 101.792 108.66 99.7854 109.437 97.5284L110.453 94.7564H112.053L113.069 97.5284C113.846 99.7865 115.219 101.793 117.041 103.336L118.241 104.324C118.925 104.872 120.613 105.872 120.613 106.952H111.917Z" fill="white" stroke="#263238" stroke-width="0.4" stroke-linecap="round" stroke-linejoin="round"/>
<path d="M111.249 93.2602V90.7482C111.249 90.7482 112.685 89.6722 112.685 88.1162C112.685 86.5602 111.485 85.9602 110.173 86.4402" stroke="#263238" stroke-width="0.4" stroke-linecap="round" stroke-linejoin="round"/>
<path d="M104.557 101.348C104.557 101.348 107.225 104.424 110.581 104.476C114.141 104.532 118.325 101.416 118.325 101.416C119.279 102.239 120.318 102.958 121.425 103.56C123.293 104.576 124.517 106.064 125.493 108.644C126.585 111.52 128.993 119.34 128.993 119.34L122.061 119.676L123.009 135.396H99.9608L101.521 119.396H94.8008C94.8008 119.396 97.0248 108.8 98.0408 106.8C99.0568 104.8 104.557 101.348 104.557 101.348Z" fill="#6B6B6B" stroke="#263238" stroke-width="0.4" stroke-linecap="round" stroke-linejoin="round"/>
<path d="M101.521 119.38L101.873 110.98" stroke="#263238" stroke-width="0.4" stroke-linecap="round" stroke-linejoin="round"/>
<path d="M122.061 119.677L121.517 111.521" stroke="#263238" stroke-width="0.4" stroke-linecap="round" stroke-linejoin="round"/>
<path d="M101.565 96.9082L107.809 97.2082V123.952H100.393L101.565 96.9082Z" fill="white" stroke="#263238" stroke-width="0.4" stroke-linecap="round" stroke-linejoin="round"/>
<path d="M115.085 104.593L113.325 103.393C110.774 101.58 108.786 99.0844 107.589 96.1926L106.125 92.7686H103.793L102.325 96.1926C101.13 99.0841 99.1434 101.58 96.5933 103.393L94.8333 104.593C94.3258 104.967 93.9156 105.458 93.6371 106.024C93.3587 106.59 93.2202 107.214 93.2333 107.845H116.661C116.677 107.216 116.542 106.593 116.268 106.027C115.994 105.461 115.588 104.97 115.085 104.593ZM105.601 106.401H95.5453C95.5453 105.321 97.2653 104.321 97.9453 103.769L99.1453 102.785C100.967 101.24 102.339 99.2339 103.117 96.9766L104.133 94.2046H105.733L106.749 96.9766C107.533 99.243 108.915 101.255 110.749 102.801L111.969 103.785C112.649 104.337 114.341 105.337 114.341 106.417L105.601 106.401Z" fill="white" stroke="#263238" stroke-width="0.4" stroke-linecap="round" stroke-linejoin="round"/>
<path d="M104.945 92.7123V90.2003C104.945 90.2003 106.381 89.1203 106.381 87.5643C106.381 86.0083 105.181 85.4123 103.869 85.8883" stroke="#263238" stroke-width="0.4" stroke-linecap="round" stroke-linejoin="round"/>
<path d="M101.564 96.9084L104.272 120.776L107.6 96.1924C107.6 96.1924 113.268 101.992 115.132 102.992C116.996 103.992 118.692 105.368 119.2 108.076C119.708 110.784 122.4 137.904 122.4 137.904L116.128 138.244L116.704 153.6H91.3963L92.9203 137.6H86.9883C86.9883 137.6 90.7163 108.284 91.7323 106.248C92.7483 104.212 101.564 96.9084 101.564 96.9084Z" fill="white" stroke="#263238" stroke-width="0.4" stroke-linecap="round" stroke-linejoin="round"/>
<path d="M101.565 96.9082L104.893 122.364L104.093 123.424L96.6768 101.444C96.6768 101.444 99.0248 97.6682 101.565 96.9082Z" fill="white" stroke="#263238" stroke-width="0.4" stroke-linecap="round" stroke-linejoin="round"/>
<path d="M107.601 96.1924L103.053 129.792L113.369 101.2C113.369 101.2 107.557 95.6284 107.601 96.1924Z" fill="white" stroke="#263238" stroke-width="0.4" stroke-linecap="round" stroke-linejoin="round"/>
<path d="M91.7325 106.229C91.7325 106.229 86.8885 129.777 85.8285 135.341C84.7685 140.905 84.2285 149.905 84.2285 149.905L93.4965 150.169L96.1445 110.449" fill="white"/>
<path d="M91.7325 106.229C91.7325 106.229 86.8885 129.777 85.8285 135.341C84.7685 140.905 84.2285 149.905 84.2285 149.905L93.4965 150.169L96.1445 110.449" stroke="#263238" stroke-width="0.4" stroke-linecap="round" stroke-linejoin="round"/>
<path d="M118.585 106.229C118.585 106.229 123.429 129.777 124.489 135.341C125.549 140.905 126.089 149.905 126.089 149.905L116.821 150.169L114.173 110.449" fill="white"/>
<path d="M118.585 106.229C118.585 106.229 123.429 129.777 124.489 135.341C125.549 140.905 126.089 149.905 126.089 149.905L116.821 150.169L114.173 110.449" stroke="#263238" stroke-width="0.4" stroke-linecap="round" stroke-linejoin="round"/>
<path d="M103.041 129.776V153.876" stroke="#263238" stroke-width="0.4" stroke-linecap="round" stroke-linejoin="round"/>
<path d="M105.2 105.14L103.44 103.94C100.891 102.126 98.9049 99.6311 97.7083 96.7404L96.2403 93.3164H93.9203L92.4523 96.7404C91.2558 99.6311 89.2693 102.126 86.7203 103.94L84.9563 105.14C84.4488 105.515 84.0386 106.006 83.7602 106.572C83.4818 107.137 83.3433 107.762 83.3563 108.392H106.8C106.813 107.762 106.675 107.137 106.396 106.572C106.118 106.006 105.708 105.515 105.2 105.14ZM95.7283 106.952H85.6683C85.6683 105.872 87.3923 104.872 88.0683 104.324L89.2683 103.336C91.0896 101.793 92.4604 99.7862 93.2363 97.5284L94.2523 94.7564H95.8523L96.8723 97.5284C97.6482 99.7862 99.0191 101.793 100.84 103.336L102.06 104.324C102.74 104.872 104.428 105.872 104.428 106.952H95.7283Z" fill="white" stroke="#263238" stroke-width="0.4" stroke-linecap="round" stroke-linejoin="round"/>
<path d="M95.0682 93.2602V90.7482C95.0682 90.7482 96.5042 89.6722 96.5042 88.1162C96.5042 86.5602 95.3042 85.9602 93.9922 86.4402" stroke="#263238" stroke-width="0.4" stroke-linecap="round" stroke-linejoin="round"/>
<path d="M91.6892 97.4562L94.4012 105.252L97.7172 96.7402C97.7172 96.7402 103.385 102.54 105.249 103.54C107.113 104.54 108.805 105.912 109.313 108.624C109.821 111.336 112.533 138.448 112.533 138.448L106.265 138.788L106.829 154.124H81.5212L83.0452 138.124H77.1172C77.1172 138.124 80.8452 108.8 81.8612 106.8C82.8772 104.8 91.6892 97.4562 91.6892 97.4562Z" fill="#263238" stroke="#263238" stroke-width="0.4" stroke-linecap="round" stroke-linejoin="round"/>
<path d="M89.1484 99.3204L90.6724 107.624L93.8924 102.204L91.8604 96.4404L89.1484 99.3204Z" fill="white" stroke="#263238" stroke-width="0.4" stroke-linecap="round" stroke-linejoin="round"/>
<path d="M97.7162 96.7402L94.9082 102.372L97.7882 107.964L100.164 98.6442L97.7162 96.7402Z" fill="white" stroke="#263238" stroke-width="0.4" stroke-linecap="round" stroke-linejoin="round"/>
<path d="M106.264 138.808L104.908 113.048" stroke="#263238" stroke-width="0.4" stroke-linecap="round" stroke-linejoin="round"/>
<path d="M83.0449 138.132L85.4209 113.048" stroke="#263238" stroke-width="0.4" stroke-linecap="round" stroke-linejoin="round"/>
<path d="M96.0287 105.14L94.2647 103.94C91.7158 102.126 89.7293 99.6311 88.5327 96.7404L87.0647 93.3164H84.7367L83.2687 96.7404C82.0722 99.6311 80.0857 102.126 77.5367 103.94L75.7767 105.14C75.2687 105.514 74.8582 106.005 74.5797 106.571C74.3012 107.137 74.163 107.762 74.1767 108.392H97.6007C97.617 107.764 97.4828 107.141 97.2093 106.576C96.9359 106.01 96.5311 105.518 96.0287 105.14ZM86.5567 106.952H76.4887C76.4887 105.872 78.2087 104.872 78.8887 104.324L80.1087 103.336C81.93 101.793 83.3008 99.7862 84.0767 97.5284L85.0927 94.7564H86.6927L87.7087 97.5284C88.4846 99.7862 89.8555 101.793 91.6767 103.336L92.8967 104.324C93.5767 104.872 95.2647 105.872 95.2647 106.952H86.5567Z" fill="white" stroke="#263238" stroke-width="0.4" stroke-linecap="round" stroke-linejoin="round"/>
<path d="M85.8886 93.2602V90.7482C85.8886 90.7482 87.3246 89.6722 87.3246 88.1162C87.3246 86.5602 86.1246 85.9602 84.8086 86.4402" stroke="#263238" stroke-width="0.4" stroke-linecap="round" stroke-linejoin="round"/>
<path d="M82.5046 97.4562L85.2006 105.252L88.5166 96.7402C88.5166 96.7402 94.1846 102.54 96.0486 103.54C97.9126 104.54 99.6086 105.912 100.117 108.624C100.625 111.336 103.317 138.448 103.317 138.448L97.0806 138.8L97.6486 154.136H72.3366L73.8646 138.136H67.9326C67.9326 138.136 71.6606 108.8 72.6766 106.8C73.6926 104.8 82.5046 97.4562 82.5046 97.4562Z" fill="#6B6B6B" stroke="#263238" stroke-width="0.4" stroke-linecap="round" stroke-linejoin="round"/>
<path d="M79.9648 99.3204L81.4888 107.624L84.7088 102.204L82.6768 96.4404L79.9648 99.3204Z" fill="white" stroke="#263238" stroke-width="0.4" stroke-linecap="round" stroke-linejoin="round"/>
<path d="M88.5326 96.7402L85.7246 102.372L88.6086 107.964L90.9806 98.6442L88.5326 96.7402Z" fill="white" stroke="#263238" stroke-width="0.4" stroke-linecap="round" stroke-linejoin="round"/>
<path d="M97.0806 138.808L95.7246 113.048" stroke="#263238" stroke-width="0.4" stroke-linecap="round" stroke-linejoin="round"/>
<path d="M73.8643 138.132L76.2363 113.048" stroke="#263238" stroke-width="0.4" stroke-linecap="round" stroke-linejoin="round"/>
<path d="M87.5608 105.14L85.8008 103.94C83.2507 102.128 81.2639 99.632 80.0688 96.7404L78.6009 93.3164H76.2688L74.8008 96.7404C73.6058 99.632 71.619 102.128 69.0688 103.94L67.3089 105.14C66.8014 105.515 66.3911 106.006 66.1127 106.572C65.8343 107.137 65.6958 107.762 65.7089 108.392H89.1368C89.1527 107.764 89.0178 107.141 88.7437 106.575C88.4695 106.009 88.0639 105.517 87.5608 105.14ZM78.0889 106.952H68.0209C68.0209 105.872 69.7409 104.872 70.4209 104.324L71.6409 103.336C73.4578 101.791 74.8256 99.7845 75.6009 97.5284L76.6168 94.7564H78.2168L79.2329 97.5284C80.0102 99.7865 81.3824 101.793 83.2048 103.336L84.4048 104.324C85.0888 104.872 86.7769 105.872 86.7769 106.952H78.0889Z" fill="white" stroke="#263238" stroke-width="0.4" stroke-linecap="round" stroke-linejoin="round"/>
<path d="M77.4207 93.2602V90.7482C77.4207 90.7482 78.8567 89.6722 78.8567 88.1162C78.8567 86.5602 77.6567 85.9602 76.3447 86.4402" stroke="#263238" stroke-width="0.4" stroke-linecap="round" stroke-linejoin="round"/>
<path d="M70.7286 101.348C70.7286 101.348 73.3966 104.424 76.7526 104.476C80.3126 104.532 84.4966 101.416 84.4966 101.416C85.4518 102.24 86.4924 102.958 87.6006 103.56C89.4646 104.576 90.6926 106.064 91.6686 108.644C92.7606 111.52 95.1646 119.34 95.1646 119.34L88.2366 119.676L89.1846 135.396H66.1326L67.6926 119.396H60.9646C60.9646 119.396 63.2006 108.8 64.2126 106.8C65.2246 104.8 70.7286 101.348 70.7286 101.348Z" fill="#A1A1A1" stroke="#263238" stroke-width="0.4" stroke-linecap="round" stroke-linejoin="round"/>
<path d="M67.6926 119.38L68.0446 110.98" stroke="#263238" stroke-width="0.4" stroke-linecap="round" stroke-linejoin="round"/>
<path d="M88.2327 119.677L87.6887 111.521" stroke="#263238" stroke-width="0.4" stroke-linecap="round" stroke-linejoin="round"/>
<path d="M81.2247 105.14L79.4647 103.94C76.9145 102.128 74.9277 99.632 73.7327 96.7404L72.2647 93.3164H69.9327L68.4647 96.7404C67.2696 99.632 65.2828 102.128 62.7327 103.94L60.9727 105.14C60.4652 105.515 60.055 106.006 59.7766 106.572C59.4981 107.137 59.3596 107.762 59.3727 108.392H82.8007C82.8165 107.764 82.6817 107.141 82.4075 106.575C82.1333 106.009 81.7278 105.517 81.2247 105.14ZM71.7527 106.952H61.6847C61.6847 105.872 63.4047 104.872 64.0847 104.324L65.2847 103.336C67.1071 101.793 68.4793 99.7865 69.2567 97.5284L70.2727 94.7564H71.8727L72.8887 97.5284C73.6661 99.7854 75.0367 101.792 76.8567 103.336L78.0767 104.324C78.7567 104.872 80.4487 105.872 80.4487 106.952H71.7527Z" fill="white" stroke="#263238" stroke-width="0.4" stroke-linecap="round" stroke-linejoin="round"/>
<path d="M71.0848 93.2602V90.7482C71.0848 90.7482 72.5208 89.6722 72.5208 88.1162C72.5208 86.5602 71.3208 85.9602 70.0088 86.4402" stroke="#263238" stroke-width="0.4" stroke-linecap="round" stroke-linejoin="round"/>
<path d="M64.4009 101.348C64.4009 101.348 67.0689 104.424 70.4249 104.476C73.9849 104.532 78.1689 101.416 78.1689 101.416C79.1228 102.239 80.1621 102.958 81.2689 103.56C83.1329 104.576 84.3569 106.064 85.3369 108.644C86.4289 111.52 88.8329 119.34 88.8329 119.34L81.9049 119.676L82.8529 135.396H59.7969L61.3569 119.396H54.6289C54.6289 119.396 56.8569 108.828 57.8729 106.796C58.8889 104.764 64.4009 101.348 64.4009 101.348Z" fill="white" stroke="#263238" stroke-width="0.4" stroke-linecap="round" stroke-linejoin="round"/>
<path d="M61.3567 119.38L61.7087 110.98" stroke="#263238" stroke-width="0.4" stroke-linecap="round" stroke-linejoin="round"/>
<path d="M81.8968 119.677L81.3528 111.521" stroke="#263238" stroke-width="0.4" stroke-linecap="round" stroke-linejoin="round"/>
<path d="M88.0004 184.444V91.9405C88.0004 91.4611 87.9059 90.9864 87.7223 90.5435C87.5387 90.1007 87.2697 89.6983 86.9305 89.3595C86.5913 89.0207 86.1887 88.7521 85.7456 88.569C85.3026 88.3859 84.8278 88.292 84.3484 88.2925H24.6324C23.6649 88.2925 22.737 88.6768 22.0529 89.361C21.3687 90.0451 20.9844 90.973 20.9844 91.9405V184.3" stroke="#263238" stroke-width="1.6" stroke-linejoin="round"/>
<path d="M17.2453 105.14L19.0053 103.94C21.5554 102.128 23.5422 99.632 24.7373 96.7404L26.2053 93.3164H28.5373L30.0013 96.7404C31.1963 99.632 33.1831 102.128 35.7333 103.94L37.4933 105.14C38.0008 105.515 38.411 106.006 38.6894 106.572C38.9678 107.137 39.1063 107.762 39.0933 108.392H15.6573C15.6429 107.763 15.7795 107.139 16.0558 106.573C16.3321 106.007 16.74 105.516 17.2453 105.14ZM26.7173 106.952H36.8013C36.8013 105.872 35.0773 104.872 34.4013 104.324L33.2013 103.336C31.3696 101.796 29.9877 99.7891 29.2013 97.5284L28.1853 94.7564H26.5853L25.5693 97.5284C24.7919 99.7865 23.4197 101.793 21.5973 103.336L20.3973 104.324C19.7133 104.872 18.0253 105.872 18.0253 106.952H26.7173Z" fill="white" stroke="#263238" stroke-width="0.4" stroke-linecap="round" stroke-linejoin="round"/>
<path d="M27.3852 93.2602V90.7482C27.3852 90.7482 25.9492 89.6722 25.9492 88.1162C25.9492 86.5602 27.1492 85.9602 28.4612 86.4402" stroke="#263238" stroke-width="0.4" stroke-linecap="round" stroke-linejoin="round"/>
<path d="M34.0767 101.348C34.0767 101.348 31.4087 104.424 28.0527 104.476C24.4927 104.532 20.3087 101.416 20.3087 101.416C19.3523 102.24 18.3103 102.959 17.2007 103.56C15.3367 104.576 14.1087 106.064 13.1327 108.644C12.0407 111.52 9.63672 119.34 9.63672 119.34L16.5647 119.676L15.6167 135.396H38.6727L37.1127 119.396H43.8407C43.8407 119.396 41.6007 108.8 40.5927 106.8C39.5847 104.8 34.0767 101.348 34.0767 101.348Z" fill="white" stroke="#263238" stroke-width="0.4" stroke-linecap="round" stroke-linejoin="round"/>
<path d="M37.1127 119.38L36.7607 110.98" stroke="#263238" stroke-width="0.4" stroke-linecap="round" stroke-linejoin="round"/>
<path d="M16.5723 119.677L17.1163 111.521" stroke="#263238" stroke-width="0.4" stroke-linecap="round" stroke-linejoin="round"/>
<path d="M20.8332 105.14L22.5932 103.94C25.1433 102.128 27.1301 99.632 28.3252 96.7404L29.7932 93.3164H32.1252L33.6012 96.7404C34.7962 99.632 36.783 102.128 39.3332 103.94L41.0932 105.14C41.6007 105.515 42.0109 106.006 42.2893 106.572C42.5677 107.137 42.7062 107.762 42.6932 108.392H19.2452C19.2307 107.763 19.3674 107.139 19.6437 106.573C19.92 106.007 20.3279 105.516 20.8332 105.14ZM30.3052 106.952H40.3732C40.3732 105.872 38.6492 104.872 37.9732 104.324L36.7732 103.336C34.9518 101.792 33.5798 99.7859 32.8012 97.5284L31.7852 94.7564H30.1852L29.1692 97.5284C28.3918 99.7865 27.0196 101.793 25.1972 103.336L23.9972 104.324C23.3132 104.872 21.6252 105.872 21.6252 106.952H30.3052Z" fill="white" stroke="#263238" stroke-width="0.4" stroke-linecap="round" stroke-linejoin="round"/>
<path d="M30.9731 93.2602V90.7482C30.9731 90.7482 29.5371 89.6722 29.5371 88.1162C29.5371 86.5602 30.7371 85.9602 32.0491 86.4402" stroke="#263238" stroke-width="0.4" stroke-linecap="round" stroke-linejoin="round"/>
<path d="M37.6644 101.348C37.6644 101.348 34.9964 104.424 31.6404 104.476C28.0804 104.532 23.8964 101.416 23.8964 101.416C22.9438 102.239 21.9059 102.958 20.8004 103.56C18.9324 104.576 17.7084 106.064 16.7324 108.644C15.6404 111.52 13.2324 119.34 13.2324 119.34L20.1644 119.676L19.2004 135.396H42.2484L40.6884 119.396H47.4164C47.4164 119.396 45.2004 108.8 44.1804 106.8C43.1604 104.8 37.6644 101.348 37.6644 101.348Z" fill="#6B6B6B" stroke="#263238" stroke-width="0.4" stroke-linecap="round" stroke-linejoin="round"/>
<path d="M40.7006 119.38L40.3486 110.98" stroke="#263238" stroke-width="0.4" stroke-linecap="round" stroke-linejoin="round"/>
<path d="M20.1602 119.677L20.7042 111.521" stroke="#263238" stroke-width="0.4" stroke-linecap="round" stroke-linejoin="round"/>
<path d="M40.6571 96.9082L34.4131 97.2082V123.952H41.8291L40.6571 96.9082Z" fill="white" stroke="#263238" stroke-width="0.4" stroke-linecap="round" stroke-linejoin="round"/>
<path d="M27.1369 104.593L28.8969 103.393C31.4482 101.58 33.4364 99.0844 34.6329 96.1926L36.0969 92.7686H38.4289L39.8969 96.1926C41.0919 99.0841 43.0787 101.58 45.6289 103.393L47.3889 104.593C47.8964 104.967 48.3066 105.458 48.585 106.024C48.8634 106.59 49.0019 107.214 48.9889 107.845H25.5489C25.5345 107.215 25.6711 106.591 25.9474 106.025C26.2237 105.46 26.6316 104.968 27.1369 104.593ZM36.6089 106.401H46.6769C46.6769 105.321 44.9569 104.321 44.2769 103.769L43.0769 102.785C41.2556 101.24 39.8837 99.2339 39.1049 96.9766L38.0889 94.2046H36.4889L35.4729 96.9766C34.689 99.243 33.3069 101.255 31.4729 102.801L30.2529 103.785C29.5729 104.337 27.8809 105.337 27.8809 106.417L36.6089 106.401Z" fill="white" stroke="#263238" stroke-width="0.4" stroke-linecap="round" stroke-linejoin="round"/>
<path d="M37.2768 92.7123V90.2003C37.2768 90.2003 35.8408 89.1203 35.8408 87.5643C35.8408 86.0083 37.0408 85.4123 38.3528 85.8883" stroke="#263238" stroke-width="0.4" stroke-linecap="round" stroke-linejoin="round"/>
<path d="M40.657 96.9084L37.949 120.776L34.633 96.1924C34.633 96.1924 28.965 101.992 27.101 102.992C25.237 103.992 23.541 105.368 23.033 108.076C22.525 110.784 19.833 137.904 19.833 137.904L26.105 138.244L25.517 153.6H50.825L49.301 137.6H55.233C55.233 137.6 51.505 108.284 50.489 106.248C49.473 104.212 40.657 96.9084 40.657 96.9084Z" fill="white" stroke="#263238" stroke-width="0.4" stroke-linecap="round" stroke-linejoin="round"/>
<path d="M40.6571 96.9082L37.3291 122.364L38.1291 123.424L45.5451 101.444C45.5451 101.444 43.2011 97.6682 40.6571 96.9082Z" fill="white" stroke="#263238" stroke-width="0.4" stroke-linecap="round" stroke-linejoin="round"/>
<path d="M34.6328 96.1924L39.1808 129.792L28.8528 101.2C28.8528 101.2 34.6648 95.6284 34.6328 96.1924Z" fill="white" stroke="#263238" stroke-width="0.4" stroke-linecap="round" stroke-linejoin="round"/>
<path d="M50.4882 106.229C50.4882 106.229 55.3322 129.777 56.3922 135.341C57.4522 140.905 57.9922 149.905 57.9922 149.905L48.7242 150.169L46.0762 110.449" fill="white"/>
<path d="M50.4882 106.229C50.4882 106.229 55.3322 129.777 56.3922 135.341C57.4522 140.905 57.9922 149.905 57.9922 149.905L48.7242 150.169L46.0762 110.449" stroke="#263238" stroke-width="0.4" stroke-linecap="round" stroke-linejoin="round"/>
<path d="M23.6368 106.229C23.6368 106.229 18.8008 129.777 17.7328 135.341C16.6648 140.905 16.1328 149.905 16.1328 149.905L25.4008 150.169L28.0488 110.449" fill="white"/>
<path d="M23.6368 106.229C23.6368 106.229 18.8008 129.777 17.7328 135.341C16.6648 140.905 16.1328 149.905 16.1328 149.905L25.4008 150.169L28.0488 110.449" stroke="#263238" stroke-width="0.4" stroke-linecap="round" stroke-linejoin="round"/>
<path d="M39.1809 129.776V153.876" stroke="#263238" stroke-width="0.4" stroke-linecap="round" stroke-linejoin="round"/>
<path d="M37.0126 105.14L38.7726 103.94C41.3216 102.126 43.3081 99.6311 44.5046 96.7404L45.9726 93.3164H48.3006L49.7686 96.7404C50.9651 99.6323 52.9533 102.128 55.5046 103.94L57.2646 105.14C57.7721 105.515 58.1823 106.006 58.4607 106.572C58.7392 107.137 58.8777 107.762 58.8646 108.392H35.4246C35.4102 107.763 35.5469 107.139 35.8232 106.573C36.0994 106.007 36.5073 105.516 37.0126 105.14ZM46.4846 106.952H56.5526C56.5526 105.872 54.8286 104.872 54.1526 104.324L52.9326 103.336C51.1127 101.792 49.7421 99.7854 48.9646 97.5284L47.9486 94.7564H46.3486L45.3286 97.5284C44.5528 99.7862 43.1819 101.793 41.3606 103.336L40.1606 104.324C39.4806 104.872 37.7926 105.872 37.7926 106.952H46.4846Z" fill="white" stroke="#263238" stroke-width="0.4" stroke-linecap="round" stroke-linejoin="round"/>
<path d="M47.1528 93.2602V90.7482C47.1528 90.7482 45.7168 89.6722 45.7168 88.1162C45.7168 86.5602 46.9168 85.9602 48.2288 86.4402" stroke="#263238" stroke-width="0.4" stroke-linecap="round" stroke-linejoin="round"/>
<path d="M50.533 97.4562L47.821 105.252L44.505 96.7402C44.505 96.7402 38.837 102.54 36.973 103.54C35.109 104.54 33.417 105.912 32.909 108.624C32.401 111.336 29.709 138.448 29.709 138.448L35.977 138.788L35.413 154.124H60.721L59.197 138.124H65.129C65.129 138.124 61.377 108.8 60.361 106.8C59.345 104.8 50.533 97.4562 50.533 97.4562Z" fill="#263238" stroke="#263238" stroke-width="0.4" stroke-linecap="round" stroke-linejoin="round"/>
<path d="M53.0731 99.3204L51.5491 107.624L48.3291 102.204L50.3651 96.4404L53.0731 99.3204Z" fill="white" stroke="#263238" stroke-width="0.4" stroke-linecap="round" stroke-linejoin="round"/>
<path d="M44.5046 96.7402L47.3126 102.372L44.4326 107.964L42.0566 98.6442L44.5046 96.7402Z" fill="white" stroke="#263238" stroke-width="0.4" stroke-linecap="round" stroke-linejoin="round"/>
<path d="M35.957 138.808L37.313 113.048" stroke="#263238" stroke-width="0.4" stroke-linecap="round" stroke-linejoin="round"/>
<path d="M59.1768 138.132L56.8008 113.048" stroke="#263238" stroke-width="0.4" stroke-linecap="round" stroke-linejoin="round"/>
<path d="M46.1926 105.14L47.9565 103.94C50.5055 102.126 52.492 99.6311 53.6885 96.7404L55.1565 93.3164H57.4846L58.9526 96.7404C60.1491 99.6311 62.1356 102.126 64.6846 103.94L66.4445 105.14C66.9525 105.514 67.3631 106.005 67.6416 106.571C67.9201 107.137 68.0583 107.762 68.0445 108.392H44.6045C44.5901 107.763 44.7268 107.139 45.0031 106.573C45.2794 106.007 45.6873 105.516 46.1926 105.14ZM55.6646 106.952H65.7325C65.7325 105.872 64.0126 104.872 63.3326 104.324L62.1125 103.336C60.2913 101.793 58.9204 99.7862 58.1445 97.5284L57.1286 94.7564H55.5286L54.5125 97.5284C53.7367 99.7862 52.3658 101.793 50.5445 103.336L49.3445 104.324C48.6645 104.872 46.9766 105.872 46.9766 106.952H55.6646Z" fill="white" stroke="#263238" stroke-width="0.4" stroke-linecap="round" stroke-linejoin="round"/>
<path d="M56.3325 93.2602V90.7482C56.3325 90.7482 54.8965 89.6722 54.8965 88.1162C54.8965 86.5602 56.0965 85.9602 57.4125 86.4402" stroke="#263238" stroke-width="0.4" stroke-linecap="round" stroke-linejoin="round"/>
<path d="M59.7167 97.4562L57.0047 105.252L53.6887 96.7402C53.6887 96.7402 48.0207 102.54 46.1567 103.54C44.2927 104.54 42.5967 105.912 42.0887 108.624C41.5807 111.336 38.8887 138.448 38.8887 138.448L45.1607 138.788L44.5927 154.124H69.9047L68.3767 138.124H74.3087C74.3087 138.124 70.5607 108.8 69.5447 106.8C68.5287 104.8 59.7167 97.4562 59.7167 97.4562Z" fill="#6B6B6B" stroke="#263238" stroke-width="0.4" stroke-linecap="round" stroke-linejoin="round"/>
<path d="M62.2569 99.3204L60.7329 107.624L57.5129 102.204L59.5449 96.4404L62.2569 99.3204Z" fill="white" stroke="#263238" stroke-width="0.4" stroke-linecap="round" stroke-linejoin="round"/>
<path d="M53.6882 96.7402L56.4962 102.372L53.6122 107.964L51.2402 98.6442L53.6882 96.7402Z" fill="white" stroke="#263238" stroke-width="0.4" stroke-linecap="round" stroke-linejoin="round"/>
<path d="M45.1406 138.808L46.4966 113.048" stroke="#263238" stroke-width="0.4" stroke-linecap="round" stroke-linejoin="round"/>
<path d="M68.3564 138.132L65.9844 113.048" stroke="#263238" stroke-width="0.4" stroke-linecap="round" stroke-linejoin="round"/>
<path d="M54.6613 105.14L56.4213 103.94C58.9715 102.128 60.9583 99.632 62.1533 96.7404L63.6213 93.3164H65.9533L67.4213 96.7404C68.6163 99.632 70.6032 102.128 73.1533 103.94L74.9133 105.14C75.4208 105.515 75.831 106.006 76.1094 106.572C76.3878 107.137 76.5264 107.762 76.5133 108.392H53.0733C53.0589 107.763 53.1955 107.139 53.4718 106.573C53.7481 106.007 54.156 105.516 54.6613 105.14ZM64.1333 106.952H74.2013C74.2013 105.872 72.4813 104.872 71.8013 104.324L70.5813 103.336C68.7614 101.792 67.3908 99.7854 66.6133 97.5284L65.6013 94.7564H64.0013L62.9853 97.5284C62.208 99.7865 60.8357 101.793 59.0133 103.336L57.8133 104.324C57.1293 104.872 55.4413 105.872 55.4413 106.952H64.1333Z" fill="white" stroke="#263238" stroke-width="0.4" stroke-linecap="round" stroke-linejoin="round"/>
<path d="M64.8012 93.2602V90.7482C64.8012 90.7482 63.3652 89.6722 63.3652 88.1162C63.3652 86.5602 64.5652 85.9602 65.8772 86.4402" stroke="#263238" stroke-width="0.4" stroke-linecap="round" stroke-linejoin="round"/>
<path d="M71.4925 101.348C71.4925 101.348 68.8245 104.424 65.4685 104.476C61.9085 104.532 57.7245 101.416 57.7245 101.416C56.7706 102.239 55.7314 102.958 54.6245 103.56C52.7605 104.576 51.5325 106.064 50.5565 108.644C49.4645 111.52 47.0605 119.34 47.0605 119.34L53.9885 119.676L53.0405 135.396H76.0885L74.5285 119.396H81.2565C81.2565 119.396 79.0285 108.8 78.0005 106.8C76.9725 104.8 71.4925 101.348 71.4925 101.348Z" fill="#A1A1A1" stroke="#263238" stroke-width="0.4" stroke-linecap="round" stroke-linejoin="round"/>
<path d="M74.5288 119.38L74.1768 110.98" stroke="#263238" stroke-width="0.4" stroke-linecap="round" stroke-linejoin="round"/>
<path d="M53.9883 119.677L54.5323 111.521" stroke="#263238" stroke-width="0.4" stroke-linecap="round" stroke-linejoin="round"/>
<path d="M60.9963 105.14L62.7563 103.94C65.3064 102.128 67.2932 99.632 68.4883 96.7404L69.9563 93.3164H72.2883L73.7563 96.7404C74.9513 99.632 76.9381 102.128 79.4883 103.94L81.2483 105.14C81.7558 105.515 82.166 106.006 82.4444 106.572C82.7228 107.137 82.8613 107.762 82.8483 108.392H59.4083C59.3938 107.763 59.5305 107.139 59.8068 106.573C60.0831 106.007 60.491 105.516 60.9963 105.14ZM70.4683 106.952H80.5363C80.5363 105.872 78.8163 104.872 78.1363 104.324L76.9363 103.336C75.1138 101.793 73.7416 99.7865 72.9643 97.5284L71.9483 94.7564H70.3483L69.3323 97.5284C68.5548 99.7854 67.1842 101.792 65.3643 103.336L64.1443 104.324C63.4643 104.872 61.7723 105.872 61.7723 106.952H70.4683Z" fill="white" stroke="#263238" stroke-width="0.4" stroke-linecap="round" stroke-linejoin="round"/>
<path d="M71.1372 93.2602V90.7482C71.1372 90.7482 69.7012 89.6722 69.7012 88.1162C69.7012 86.5602 70.9012 85.9602 72.2132 86.4402" stroke="#263238" stroke-width="0.4" stroke-linecap="round" stroke-linejoin="round"/>
<path d="M77.8287 101.348C77.8287 101.348 75.1607 104.424 71.8047 104.476C68.2447 104.532 64.0607 101.416 64.0607 101.416C63.1068 102.239 62.0676 102.958 60.9607 103.56C59.0967 104.576 57.8727 106.064 56.8927 108.644C55.8047 111.52 53.3967 119.34 53.3967 119.34L60.3247 119.676L59.3767 135.396H82.4247L80.8647 119.396H87.6007C87.6007 119.396 85.3647 108.8 84.3487 106.8C83.3327 104.8 77.8287 101.348 77.8287 101.348Z" fill="white" stroke="#263238" stroke-width="0.4" stroke-linecap="round" stroke-linejoin="round"/>
<path d="M80.8649 119.38L80.5129 110.98" stroke="#263238" stroke-width="0.4" stroke-linecap="round" stroke-linejoin="round"/>
<path d="M60.3242 119.677L60.8682 111.521" stroke="#263238" stroke-width="0.4" stroke-linecap="round" stroke-linejoin="round"/>
<path d="M112.987 107.576C112.987 107.576 112.167 122.804 112.519 126.776C112.871 130.748 114.043 136.968 114.159 138.608C114.275 140.248 115.567 144.58 116.267 147.408C116.967 150.236 121.891 164.628 122.943 167.32C123.995 170.012 124.071 177.928 124.071 177.928C124.071 177.928 119.383 181.676 117.863 182.496C116.343 183.316 115.635 182.964 115.863 184.02C116.091 185.076 124.179 184.136 126.055 184.136C127.931 184.136 130.739 184.488 130.855 183.2C130.971 181.912 129.451 177.812 129.099 175.936C128.747 174.06 128.675 165.328 128.323 160.056C127.971 154.784 127.975 151.04 126.215 146.588C124.455 142.136 122.703 136.864 122.703 136.864L127.395 111.2L112.987 107.576Z" fill="white" stroke="#263238" stroke-width="0.4" stroke-linecap="round" stroke-linejoin="round"/>
<path d="M123.743 174.332C123.523 172.476 122.603 168.824 122.211 166.948C121.615 164.116 116.971 150.216 116.267 147.404C115.563 144.592 114.267 140.256 114.159 138.604C114.051 136.952 112.871 130.756 112.519 126.772C112.167 122.788 112.987 107.572 112.987 107.572L127.387 111.204L122.703 136.856C122.703 136.856 124.459 142.128 126.215 146.58C127.971 151.032 127.975 154.78 128.323 160.048C128.595 164.12 128.587 170.944 128.859 173.928C127.218 174.504 125.455 174.643 123.743 174.332Z" fill="#263238" stroke="#263238" stroke-width="0.4" stroke-linecap="round" stroke-linejoin="round"/>
<path d="M138.171 109.452C138.171 109.452 137.351 116.832 134.659 123.508C131.967 130.184 129.363 139.748 129.363 139.748C129.363 139.748 134.207 145.328 135.263 150.364C136.319 155.4 136.863 164.624 136.999 165.792C137.135 166.96 138.171 170.948 139.799 172.592C141.427 174.236 142.727 174.592 142.027 175.872C141.327 177.152 137.459 182.08 136.755 182.9C136.051 183.72 133.123 184.304 131.835 184.304C130.547 184.304 131.367 184.304 131.951 182.304C132.535 180.304 133.239 174.808 133.239 173.052C133.239 171.296 131.131 164.736 128.791 160.752C126.451 156.768 122.931 145.992 121.879 143.416C120.827 140.84 119.419 138.732 119.419 137.092C119.419 135.452 120.707 119.756 120.943 116.944C121.179 114.132 121.527 110.972 121.527 110.972L138.511 107.924L138.171 109.452Z" fill="white" stroke="#263238" stroke-width="0.4" stroke-linecap="round" stroke-linejoin="round"/>
<path d="M120.956 116.948C121.188 114.148 121.54 110.976 121.54 110.976L139.696 107.744L140.096 110.544C140.096 110.544 139.796 115.648 137.104 122.328C134.412 129.008 129.368 139.752 129.368 139.752C129.368 139.752 134.212 145.332 135.268 150.368C136.324 155.404 136.868 164.628 137.004 165.796C137.157 166.807 137.408 167.801 137.752 168.764C136.229 169.684 134.521 170.252 132.752 170.428C131.988 167.628 130.456 163.564 128.808 160.76C126.464 156.76 122.948 146 121.896 143.424C120.844 140.848 119.436 138.74 119.436 137.1C119.436 135.46 120.72 119.76 120.956 116.948Z" fill="#263238" stroke="#263238" stroke-width="0.4" stroke-linecap="round" stroke-linejoin="round"/>
<path d="M126.323 155.864C124.287 150.764 121.183 145.064 120.159 141.164C118.743 135.792 120.959 116.948 120.959 116.948" stroke="#7D7D7D" stroke-width="0.4" stroke-linecap="round" stroke-linejoin="round"/>
<path d="M127.599 159.072L126.959 157.472" stroke="#7D7D7D" stroke-width="0.4" stroke-linecap="round" stroke-linejoin="round"/>
<path d="M93.5477 66.62C93.5477 66.62 90.5957 65.108 89.8677 64.904C89.1397 64.7 88.7197 65.368 89.0037 65.56C89.2877 65.752 89.7517 66.108 89.7517 66.108C89.7517 66.108 88.4117 66.068 88.7397 66.508L89.3957 67.368C89.3957 67.368 88.1957 67.596 88.5037 68.128C88.7862 68.5025 89.1839 68.7737 89.6357 68.9C89.6357 68.9 88.4157 69.232 88.9557 69.72C89.4957 70.208 91.0997 70.12 91.0997 70.12C91.5328 70.955 92.1253 71.6969 92.8437 72.304C93.5888 72.85 94.4709 73.1783 95.3917 73.252L97.0477 74.96L99.2637 72.32L93.5477 66.62Z" fill="#FFBE9D" stroke="#263238" stroke-width="0.4" stroke-linecap="round" stroke-linejoin="round"/>
<path d="M68.9067 64.3317L71.0947 63.2837C74.2704 61.7166 76.9404 59.2864 78.7987 56.2717L81.0627 52.6997L81.3107 52.7397L83.4267 53.0797L83.6707 53.1197L84.6987 57.2237C85.521 60.6709 87.2983 63.8165 89.8267 66.2997L91.5987 67.9997C92.098 68.5117 92.4676 69.1359 92.6763 69.8199C92.8851 70.504 92.9271 71.2281 92.7987 71.9317L80.7347 69.9877L78.6187 69.6477L66.5547 67.7037C66.6478 66.9943 66.9101 66.3177 67.3194 65.7308C67.7287 65.144 68.2731 64.6641 68.9067 64.3317ZM79.1867 68.0677L80.6547 68.3037L90.4667 69.9037C90.6587 68.7037 88.9107 67.2637 88.2467 66.5237L87.0467 65.1997C85.2857 63.1409 84.1125 60.6453 83.6507 57.9757L83.0107 54.6877L82.8387 54.6637L81.3747 54.4277L81.1987 54.3997L79.5627 57.3197C78.2839 59.7088 76.3854 61.7095 74.0667 63.1117L72.5267 63.9957C71.6627 64.4877 69.5907 65.3037 69.3947 66.5117L79.1867 68.0677Z" fill="white" stroke="#263238" stroke-width="0.4" stroke-linecap="round" stroke-linejoin="round"/>
<path d="M82.399 52.8522L82.855 50.0522C82.855 50.0522 81.439 48.5882 81.719 46.8522C81.999 45.1162 83.451 44.6522 84.839 45.4282" stroke="#263238" stroke-width="0.4" stroke-linecap="round" stroke-linejoin="round"/>
<path d="M65.5313 80.492L60.9473 79.38C60.9473 79.38 61.9353 70.536 63.6753 67.512C65.2353 64.8 66.8753 63.352 69.1473 62.552C70.4966 62.0782 71.7908 61.4599 73.0073 60.708C73.0073 60.708 77.1313 64.956 81.1313 65.536C84.8993 66.08 88.4433 63.116 88.4433 63.116C88.4433 63.116 93.9913 67.916 94.7633 70.376C95.5353 72.836 96.1273 85.076 96.1273 85.076L88.5913 83.876L90.7393 102.096L90.5393 102.06L90.7393 102.564C90.7393 102.564 88.3113 101.364 83.6113 101.824C78.9113 102.284 73.6313 103.112 71.3993 102.528C69.1673 101.944 62.2553 99.328 62.2553 99.328L65.5313 80.492Z" fill="#FD7E50" stroke="#263238" stroke-width="0.4" stroke-linecap="round" stroke-linejoin="round"/>
<path d="M88.5912 83.8641L88.0752 79.8521" stroke="#263238" stroke-width="0.4" stroke-linecap="round" stroke-linejoin="round"/>
<path d="M65.5312 80.492L67.3753 70.812" stroke="#263238" stroke-width="0.4" stroke-linecap="round" stroke-linejoin="round"/>
<path d="M72.5755 62.2358C72.2631 64.2206 72.1053 66.2266 72.1035 68.2358" stroke="#263238" stroke-width="0.4" stroke-linecap="round" stroke-linejoin="round"/>
<path d="M71.6356 62.4717C71.2973 63.5824 71.0616 64.7219 70.9316 65.8757" stroke="#263238" stroke-width="0.4" stroke-linecap="round" stroke-linejoin="round"/>
<path d="M84.8555 75.9321C84.9435 76.3041 85.0395 76.6721 85.1395 77.0321" stroke="#263238" stroke-width="0.4" stroke-linecap="round" stroke-linejoin="round"/>
<path d="M83.2598 66.5801C83.2598 66.5801 83.6598 70.3641 84.4598 74.2961" stroke="#263238" stroke-width="0.4" stroke-linecap="round" stroke-linejoin="round"/>
<path d="M84.5508 65.7598C85.0241 67.0678 85.4169 68.4037 85.7268 69.7598" stroke="#263238" stroke-width="0.4" stroke-linecap="round" stroke-linejoin="round"/>
<path d="M69.5752 97.5038L72.7392 74.0278" stroke="#263238" stroke-width="0.4" stroke-linecap="round" stroke-linejoin="round"/>
<path d="M69.0918 101.068L69.2798 99.6958" stroke="#263238" stroke-width="0.4" stroke-linecap="round" stroke-linejoin="round"/>
<path d="M77.2475 65.4438L76.6035 77.0318" stroke="#263238" stroke-width="0.4" stroke-linecap="round" stroke-linejoin="round"/>
<path d="M99.1991 71.6001C99.1991 71.6001 97.0351 69.0241 96.1791 68.6161C95.3231 68.2081 92.5551 67.6681 91.5191 67.0561C90.4831 66.4441 90.1951 66.7681 90.7871 67.6161C91.3791 68.4641 93.4751 69.3081 93.4751 69.3081C93.4751 69.3081 94.3711 71.3361 95.4071 71.9481L97.7671 73.3441L99.1991 71.6001Z" fill="#FFBE9D" stroke="#263238" stroke-width="0.4" stroke-linecap="round" stroke-linejoin="round"/>
<path d="M120.303 71.4198C120.303 71.4198 116.175 71.4198 115.567 72.5118C114.959 73.6038 112.291 80.1598 111.199 81.9998C110.107 83.8398 110.107 84.3038 110.107 84.3038L99.0632 70.7998L95.1992 74.0918C95.1992 74.0918 108.063 95.4518 109.035 95.8158C110.007 96.1798 115.951 91.3238 116.679 90.9598C117.407 90.5958 121.415 73.1198 121.415 73.1198C121.415 73.1198 122.363 72.1478 120.303 71.4198Z" fill="#92E3A9" stroke="#263238" stroke-width="0.4" stroke-linecap="round" stroke-linejoin="round"/>
<path d="M119.816 73.2397L133.416 69.7197C133.416 69.7197 135.48 81.1277 135.48 86.1197C135.48 91.1117 138.94 109.968 138.94 109.968C138.94 109.968 128.684 113.064 122.98 113.064C117.276 113.064 113.636 111 113.636 111C113.636 111 116.436 101.4 116.548 96.1997C116.66 90.9997 115.94 83.9397 116.548 79.7997C116.915 77.3223 118.06 75.0254 119.816 73.2397Z" fill="white" stroke="#263238" stroke-width="0.4" stroke-linecap="round" stroke-linejoin="round"/>
<path d="M118.491 89.8359L122.739 95.7839" stroke="#263238" stroke-width="0.4" stroke-linecap="round" stroke-linejoin="round"/>
<path d="M122.899 98.0122L123.483 98.8642" stroke="#263238" stroke-width="0.4" stroke-linecap="round" stroke-linejoin="round"/>
<path d="M119.768 93.4478L122.2 96.9958" stroke="#263238" stroke-width="0.4" stroke-linecap="round" stroke-linejoin="round"/>
<path d="M116.175 76.2758C116.175 76.2758 115.811 77.6118 115.327 79.7958C114.843 81.9798 114.963 83.4358 115.203 88.6558C115.443 93.8758 115.203 95.3278 113.503 99.3358C111.803 103.344 107.139 113.624 107.139 113.624L111.387 117.508C111.387 117.508 115.203 107.708 116.659 101.64C118.115 95.5718 117.999 87.1998 118.479 83.0718C118.959 78.9438 122.971 72.3998 122.971 72.3998L123.819 70.9438C122.677 71.2751 121.493 71.4381 120.303 71.4279C119.239 71.3953 118.176 71.5179 117.147 71.7918" fill="#92E3A9"/>
<path d="M116.175 76.2758C116.175 76.2758 115.811 77.6118 115.327 79.7958C114.843 81.9798 114.963 83.4358 115.203 88.6558C115.443 93.8758 115.203 95.3278 113.503 99.3358C111.803 103.344 107.139 113.624 107.139 113.624L111.387 117.508C111.387 117.508 115.203 107.708 116.659 101.64C118.115 95.5719 117.999 87.1998 118.479 83.0718C118.959 78.9438 122.971 72.3998 122.971 72.3998L123.819 70.9438C122.677 71.2751 121.493 71.4381 120.303 71.4279C119.239 71.3953 118.176 71.5179 117.147 71.7918" stroke="#263238" stroke-width="0.4" stroke-linecap="round" stroke-linejoin="round"/>
<path d="M132.316 69.2358C132.316 69.2358 126.128 80.0358 124.916 83.5558C123.704 87.0758 124.552 89.1558 124.792 91.5558C125.032 93.9558 128.492 119.308 128.492 119.308C128.492 119.308 136.492 116.88 139.78 115.664C143.068 114.448 144.148 113.116 144.148 113.116C144.148 113.116 138.22 93.2238 138.22 92.7358C138.22 92.2478 143.36 70.0838 142.512 69.5998C141.664 69.1158 132.316 69.2358 132.316 69.2358Z" fill="#92E3A9" stroke="#263238" stroke-width="0.4" stroke-linecap="round" stroke-linejoin="round"/>
<path d="M119.291 68.4C119.291 68.4 119.459 72.34 118.703 74.188C118.351 75.1705 117.778 76.0588 117.027 76.784C117.027 76.784 120.379 75.108 121.639 73.768C122.594 72.6535 123.437 71.4477 124.155 70.168L121.891 66.228L119.291 68.4Z" fill="#263238" stroke="#263238" stroke-width="0.4" stroke-linecap="round" stroke-linejoin="round"/>
<path d="M114.5 51.3758C114.067 52.759 113.766 54.1799 113.6 55.6198C113.484 57.3398 114.104 57.7038 114 58.7358C113.896 59.7678 112.352 61.5838 112.58 62.3878C112.808 63.1918 114.18 63.6478 114.18 63.6478C114.18 63.6478 115.216 67.6478 115.56 68.6958C115.904 69.7438 117.392 69.3838 118.884 68.9238C119.974 68.5669 121.043 68.1462 122.084 67.6638L123.46 70.9878L131.26 67.2038L127.936 54.0038C127.936 54.0038 123.348 50.4478 120.48 50.4478L114.5 51.3758Z" fill="#FFBE9D" stroke="#263238" stroke-width="0.4" stroke-linecap="round" stroke-linejoin="round"/>
<path d="M122.071 67.6641L123.955 66.4121L122.835 68.7601L122.071 67.6641Z" fill="#263238" stroke="#263238" stroke-width="0.4" stroke-linecap="round" stroke-linejoin="round"/>
<path d="M115.1 59.2438C115.1 59.7518 115.288 60.1638 115.52 60.1638C115.752 60.1638 115.92 59.7638 115.92 59.2438C115.92 58.7238 115.736 58.3198 115.52 58.3198C115.304 58.3198 115.1 58.7318 115.1 59.2438Z" fill="#263238"/>
<path d="M116.944 57.3958C116.944 57.3958 115.852 55.4678 114.428 56.6438" stroke="#263238" stroke-width="0.4" stroke-linecap="round" stroke-linejoin="round"/>
<path d="M118.032 63.8521C118.032 63.8521 116.9 65.3001 115.604 64.6081" stroke="#263238" stroke-width="0.4" stroke-linecap="round" stroke-linejoin="round"/>
<path d="M127.087 73.1599C127.087 73.1599 126.859 73.3639 125.327 73.9159C123.179 74.6839 122.475 74.1679 122.475 74.1679C122.114 72.67 121.83 71.1547 121.623 69.6279C121.539 68.3719 121.895 68.5719 124.155 68.2119C126.679 67.8119 130.499 66.2599 131.087 66.2599C131.675 66.2599 132.035 66.1999 132.035 66.9559C132.035 67.7119 132.791 70.4759 132.791 70.4759C130.986 71.5627 129.075 72.462 127.087 73.1599Z" fill="white" stroke="#263238" stroke-width="0.4" stroke-linecap="round" stroke-linejoin="round"/>
<path d="M125.055 59.0599C125.055 59.0599 123.563 59.0599 122.875 58.5999C122.413 58.2184 122.09 57.6955 121.955 57.1119C121.955 57.1119 117.023 55.8479 114.847 53.1119C112.671 50.3759 111.175 50.1279 112.207 48.8679C113.239 47.6079 120.351 45.5399 122.647 44.6239C124.943 43.7079 128.399 45.1999 131.599 47.8199C134.799 50.4399 134.699 50.7999 135.155 54.1279C135.611 57.4559 138.711 69.0399 138.711 69.0399L135.511 69.7279C135.511 69.7279 133.675 73.3999 130.351 75.2319C127.027 77.0639 125.075 77.2999 125.075 77.2999C125.075 77.2999 127.711 71.4479 127.711 66.3999C127.711 61.3519 125.055 59.0599 125.055 59.0599Z" fill="#263238" stroke="#263238" stroke-width="0.4" stroke-linecap="round" stroke-linejoin="round"/>
<path d="M123.563 60.0919C123.563 60.0919 124.479 55.3879 126.659 56.8919C128.839 58.3959 126.199 63.6599 125.399 63.5439C124.599 63.4279 123.907 62.5119 123.907 62.5119" fill="#FFBE9D"/>
<path d="M123.563 60.0919C123.563 60.0919 124.479 55.3879 126.659 56.8919C128.839 58.3959 126.199 63.6599 125.399 63.5439C124.599 63.4279 123.907 62.5119 123.907 62.5119" stroke="#263238" stroke-width="0.4" stroke-linecap="round" stroke-linejoin="round"/>
<path d="M166.471 75.6399C166.471 75.6399 169.967 74.9399 170.783 74.9399C171.599 74.9399 171.831 75.7399 171.479 75.8719C171.127 76.0039 170.547 76.2239 170.547 76.2239C170.547 76.2239 171.947 76.5719 171.479 76.9199L170.547 77.6199C170.547 77.6199 171.715 78.2039 171.247 78.6679C170.846 78.9735 170.355 79.138 169.851 79.1359C169.851 79.1359 171.015 79.8359 170.315 80.1839C169.615 80.5319 167.983 79.9519 167.983 79.9519C167.289 80.6875 166.459 81.2812 165.539 81.6999C164.607 82.047 163.597 82.1273 162.623 81.9319L160.399 83.1999L158.883 79.8199L166.471 75.6399Z" fill="#FFBE9D" stroke="#263238" stroke-width="0.4" stroke-linecap="round" stroke-linejoin="round"/>
<path d="M138.019 69.6C138.019 69.6 141.175 68.752 142.511 69.6C143.847 70.448 144.211 77.6 144.211 77.6L148.211 86.944L159.499 79.296L163.139 84.636C163.139 84.636 148.695 97.868 147.483 98.352C147.074 98.562 146.602 98.6162 146.155 98.5043C145.708 98.3925 145.318 98.1223 145.055 97.744C144.571 97.14 135.831 82.332 135.831 82.332" fill="#92E3A9"/>
<path d="M138.019 69.6C138.019 69.6 141.175 68.752 142.511 69.6C143.847 70.448 144.211 77.6 144.211 77.6L148.211 86.944L159.499 79.296L163.139 84.636C163.139 84.636 148.695 97.868 147.483 98.352C147.074 98.562 146.602 98.6162 146.155 98.5043C145.708 98.3925 145.318 98.1223 145.055 97.744C144.571 97.14 135.831 82.332 135.831 82.332" stroke="#263238" stroke-width="0.4" stroke-linecap="round" stroke-linejoin="round"/>
<path d="M172.663 82.9277L165.579 83.2677V113.612H173.991L172.663 82.9277Z" fill="white" stroke="#263238" stroke-width="0.4" stroke-linecap="round" stroke-linejoin="round"/>
<path d="M157.323 91.6439L159.323 90.2639C162.213 88.2121 164.467 85.3884 165.827 82.1159L167.491 78.2319H170.135L171.799 82.1159C173.16 85.3884 175.414 88.2121 178.303 90.2639L180.303 91.6439C180.876 92.071 181.339 92.629 181.652 93.2713C181.965 93.9136 182.12 94.6215 182.103 95.3359H155.523C155.507 94.6215 155.662 93.9136 155.975 93.2713C156.288 92.629 156.75 92.071 157.323 91.6439ZM168.071 93.6999H179.495C179.495 92.4759 177.539 91.3399 176.767 90.7159L175.383 89.5999C173.319 87.8461 171.765 85.5692 170.883 83.0079L169.727 79.8639H167.899L166.743 83.0079C165.862 85.5692 164.308 87.8461 162.243 89.5999L160.859 90.7159C160.087 91.3399 158.171 92.4759 158.171 93.6999H168.071Z" fill="white" stroke="#263238" stroke-width="0.4" stroke-linecap="round" stroke-linejoin="round"/>
<path d="M168.827 78.168V75.316C168.827 75.316 167.199 74.092 167.199 72.328C167.199 70.564 168.555 69.884 170.051 70.428" stroke="#263238" stroke-width="0.4" stroke-linecap="round" stroke-linejoin="round"/>
<path d="M172.663 82.9278L169.599 110L165.839 82.1118C165.839 82.1118 159.411 88.6918 157.295 89.8478C155.179 91.0038 153.255 92.5398 152.679 95.6158C152.103 98.6918 149.027 129.456 149.027 129.456L156.139 129.856L155.499 147.252H184.199L182.471 129.088H189.199C189.199 129.088 184.971 95.8238 183.815 93.5158C182.659 91.2078 172.663 82.9278 172.663 82.9278Z" fill="#2F945A" stroke="#263238" stroke-width="0.4" stroke-linecap="round" stroke-linejoin="round"/>
<path d="M172.663 82.9277L168.887 111.808L169.787 113.008L178.187 88.0757C178.187 88.0757 175.543 83.7917 172.663 82.9277Z" fill="#263238" stroke="#263238" stroke-width="0.4" stroke-linecap="round" stroke-linejoin="round"/>
<path d="M165.827 82.116L170.987 120.22L159.271 87.772C159.271 87.772 165.863 81.476 165.827 82.116Z" fill="#263238" stroke="#263238" stroke-width="0.4" stroke-linecap="round" stroke-linejoin="round"/>
<path d="M183.815 93.5039C183.815 93.5039 189.315 120.22 190.515 126.528C191.715 132.836 192.319 143.052 192.319 143.052L181.803 143.352L178.799 98.2879" fill="#2F945A"/>
<path d="M183.815 93.5039C183.815 93.5039 189.315 120.22 190.515 126.528C191.715 132.836 192.319 143.052 192.319 143.052L181.803 143.352L178.799 98.2879" stroke="#263238" stroke-width="0.4" stroke-linecap="round" stroke-linejoin="round"/>
<path d="M181.616 144.096H192.556C192.805 144.096 193.008 143.894 193.008 143.644V140.532C193.008 140.283 192.805 140.08 192.556 140.08H181.616C181.366 140.08 181.164 140.283 181.164 140.532V143.644C181.164 143.894 181.366 144.096 181.616 144.096Z" fill="#263238" stroke="#263238" stroke-width="0.4" stroke-linecap="round" stroke-linejoin="round"/>
<path d="M153.352 93.5039C153.352 93.5039 147.856 120.22 146.656 126.528C145.456 132.836 144.852 143.052 144.852 143.052L155.368 143.352L158.372 98.2879" fill="#2F945A"/>
<path d="M153.352 93.5039C153.352 93.5039 147.856 120.22 146.656 126.528C145.456 132.836 144.852 143.052 144.852 143.052L155.368 143.352L158.372 98.2879" stroke="#263238" stroke-width="0.4" stroke-linecap="round" stroke-linejoin="round"/>
<path d="M144.536 144.096H155.476C155.725 144.096 155.928 143.894 155.928 143.644V140.532C155.928 140.283 155.725 140.08 155.476 140.08H144.536C144.286 140.08 144.084 140.283 144.084 140.532V143.644C144.084 143.894 144.286 144.096 144.536 144.096Z" fill="#263238" stroke="#263238" stroke-width="0.4" stroke-linecap="round" stroke-linejoin="round"/>
<path d="M170.987 120.22V147.092" stroke="#263238" stroke-width="0.4" stroke-linecap="round" stroke-linejoin="round"/>
<path d="M160.751 79.068C161.859 78.112 163.227 75.952 163.727 75.752C164.603 75.392 167.403 75.012 168.471 74.46C169.539 73.908 169.811 74.252 169.167 75.068C168.523 75.884 166.399 76.6 166.399 76.6C166.399 76.6 165.387 78.568 164.319 79.12L163.611 79.5" fill="#FFBE9D"/>
<path d="M160.751 79.068C161.859 78.112 163.227 75.952 163.727 75.752C164.603 75.392 167.403 75.012 168.471 74.46C169.539 73.908 169.811 74.252 169.167 75.068C168.523 75.884 166.399 76.6 166.399 76.6C166.399 76.6 165.387 78.568 164.319 79.12L163.611 79.5" stroke="#263238" stroke-width="0.4" stroke-linecap="round" stroke-linejoin="round"/>
</svg>
