<svg width="204" height="166" viewBox="0 0 204 166" fill="none" xmlns="http://www.w3.org/2000/svg">
<path d="M34.5353 85.4853C34.5353 85.4853 34.5353 83.846 32.242 81.5613C29.9486 79.2767 28.4749 77.96 28.4749 77.96C28.4749 77.96 27.3283 81.727 29.4603 84.0204C31.0252 85.6335 32.7229 87.1124 34.5353 88.4414V85.4853Z" fill="white"/>
<path d="M31.2098 95.7134C31.2098 95.7134 31.2098 94.074 28.9164 91.7894C26.6231 89.5047 25.1494 88.188 25.1494 88.188C25.1494 88.188 24.0027 91.955 26.1304 94.2484C27.6974 95.861 29.3964 97.3398 31.2098 98.6694V95.7134Z" fill="white"/>
<path d="M34.3965 88.2753C34.3965 88.2753 34.5709 86.6447 37.091 84.6085C39.611 82.5724 41.2199 81.4214 41.2199 81.4214C41.2199 81.4214 41.9611 85.2887 39.6023 87.3466C37.8747 88.7844 36.0298 90.0751 34.0869 91.2052L34.3965 88.2753Z" fill="white"/>
<path d="M30.3722 100.357C30.3722 100.357 30.7167 98.753 33.4242 96.9915C36.1318 95.2301 37.8845 94.2578 37.8845 94.2578C37.8845 94.2578 38.2159 98.1818 35.6566 99.9781C33.786 101.228 31.8143 102.319 29.7618 103.239L30.3722 100.357Z" fill="white"/>
<path d="M31.126 113.52C31.126 113.52 31.126 111.88 33.4193 109.596C35.7127 107.311 37.1864 105.994 37.1864 105.994C37.1864 105.994 38.3331 109.761 36.2054 112.055C34.6394 113.668 32.9403 115.147 31.126 116.476V113.52Z" fill="white"/>
<path d="M31.092 116.742C31.092 116.742 31.3231 115.12 29.3785 112.526C27.434 109.932 26.1609 108.423 26.1609 108.423C26.1609 108.423 24.491 111.99 26.2742 114.562C27.5963 116.382 29.0678 118.088 30.6735 119.663L31.092 116.742Z" fill="white"/>
<path d="M28.8282 126.273C28.8282 126.273 28.8282 124.634 31.1216 122.349C33.415 120.064 34.8886 118.743 34.8886 118.743C34.8886 118.743 36.0353 122.515 33.9076 124.808C32.3401 126.416 30.6411 127.89 28.8282 129.216V126.273Z" fill="white"/>
<path d="M30.3592 134.91C30.3592 134.91 29.945 133.327 31.5843 130.528C33.2237 127.729 34.3137 126.085 34.3137 126.085C34.3137 126.085 36.3803 129.438 34.8979 132.189C33.7924 134.147 32.5235 136.008 31.1047 137.753L30.3592 134.91Z" fill="white"/>
<path d="M34.7451 85.0664C34.6271 86.771 34.4175 88.4681 34.1172 90.1502C33.2103 94.8328 30.9431 97.8543 30.0363 102.088C29.1294 106.321 31.7323 111.767 31.0347 117.2C30.3371 122.632 28.2225 125.654 28.8285 129.281C29.4346 132.909 32.6043 142.732 32.6043 142.732" stroke="#263238" stroke-width="0.436" stroke-linecap="round" stroke-linejoin="round"/>
<path d="M34.3701 89.3614L36.8422 87.4648" stroke="#263238" stroke-width="0.436" stroke-linecap="round" stroke-linejoin="round"/>
<path d="M34.4834 87.1769L33.4501 85.3413" stroke="#263238" stroke-width="0.436" stroke-linecap="round" stroke-linejoin="round"/>
<path d="M30.1759 101.892C30.1759 101.892 32.2425 100.34 34.3702 98.7876" stroke="#263238" stroke-width="0.436" stroke-linecap="round" stroke-linejoin="round"/>
<path d="M31.2091 98.6614C30.1789 96.6625 28.9458 94.7749 27.5293 93.0283" stroke="#263238" stroke-width="0.436" stroke-linecap="round" stroke-linejoin="round"/>
<path d="M31.209 115.857C32.3895 113.681 33.8802 111.688 35.6344 109.94" stroke="#263238" stroke-width="0.436" stroke-linecap="round" stroke-linejoin="round"/>
<path d="M30.808 118.159C30.1786 116.682 29.429 115.258 28.5669 113.904C27.3592 112.12 27.1848 111.894 27.1848 111.894" stroke="#263238" stroke-width="0.436" stroke-linecap="round" stroke-linejoin="round"/>
<path d="M28.8282 129.282C29.3518 127.98 29.9742 126.721 30.69 125.515C31.408 124.397 32.2158 123.34 33.1054 122.354" stroke="#263238" stroke-width="0.436" stroke-linecap="round" stroke-linejoin="round"/>
<path d="M31.1048 137.762C30.9865 136.518 31.2017 135.266 31.7283 134.134C32.6003 132.469 33.5639 130.284 33.9694 129.421" stroke="#263238" stroke-width="0.436" stroke-linecap="round" stroke-linejoin="round"/>
<path d="M15.823 107.368C15.823 107.368 15.6443 106.339 16.8345 104.652C18.0248 102.964 18.8053 101.983 18.8053 101.983C18.8053 101.983 19.9345 104.224 18.8489 105.907C18.0399 107.089 17.1342 108.202 16.1413 109.234L15.823 107.368Z" fill="white"/>
<path d="M19.0188 113.419C19.0188 113.419 18.8444 112.395 20.0303 110.707C21.2162 109.02 22.001 108.039 22.001 108.039C22.001 108.039 23.1303 110.276 22.0446 111.963C21.2385 113.144 20.3342 114.256 19.3414 115.285L19.0188 113.419Z" fill="white"/>
<path d="M16.2152 109.103C16.2152 109.103 15.9318 108.1 14.1268 107.093C12.3217 106.086 11.1925 105.545 11.1925 105.545C11.1925 105.545 11.1489 108.052 12.8493 109.081C14.0896 109.796 15.3876 110.406 16.7297 110.904L16.2152 109.103Z" fill="white"/>
<path d="M20.0478 116.24C20.0478 116.24 19.6598 115.272 17.7632 114.466C15.8666 113.659 14.6807 113.232 14.6807 113.232C14.6807 113.232 14.8987 115.73 16.6993 116.576C18.0076 117.157 19.3625 117.627 20.7498 117.98L20.0478 116.24Z" fill="white"/>
<path d="M21.0069 124.581C21.0069 124.581 20.8281 123.548 19.1364 122.366C17.4448 121.185 16.3809 120.518 16.3809 120.518C16.3809 120.518 16.0714 123.003 17.654 124.21C18.8105 125.052 20.0356 125.794 21.3164 126.43L21.0069 124.581Z" fill="white"/>
<path d="M21.3779 126.6C21.3779 126.6 21.0552 125.606 21.9926 123.77C22.93 121.935 23.5666 120.849 23.5666 120.849C23.5666 120.849 25.001 122.903 24.1639 124.708C23.532 125.992 22.7941 127.222 21.9577 128.383L21.3779 126.6Z" fill="white"/>
<path d="M24.2548 134.884C24.2548 134.884 24.3769 133.85 25.9988 132.564C27.6208 131.278 28.6454 130.559 28.6454 130.559C28.6454 130.559 29.0814 133.026 27.5815 134.321C26.4739 135.228 25.2926 136.04 24.0499 136.75L24.2548 134.884Z" fill="white"/>
<path d="M23.8324 132.325C23.8324 132.325 23.6536 131.296 21.9663 130.11C20.279 128.924 19.2108 128.257 19.2108 128.257C19.2108 128.257 18.9012 130.746 20.4883 131.95C21.6447 132.792 22.8698 133.536 24.1507 134.173L23.8324 132.325Z" fill="white"/>
<path d="M23.8066 137.91C23.8066 137.91 23.8982 136.868 22.564 135.294C21.2299 133.72 20.384 132.804 20.384 132.804C20.384 132.804 19.4554 135.132 20.6805 136.702C21.587 137.808 22.5846 138.836 23.6628 139.776L23.8066 137.91Z" fill="white"/>
<path d="M15.6482 107.128C15.9056 108.185 16.2214 109.227 16.5943 110.25C17.6712 113.088 19.4196 114.736 20.4486 117.291C21.4775 119.846 20.4486 123.543 21.4601 126.883C22.4716 130.223 24.1415 131.88 24.1589 134.221C24.1764 136.562 23.2477 143.063 23.2477 143.063" stroke="#263238" stroke-width="0.436" stroke-linecap="round" stroke-linejoin="round"/>
<path d="M16.3508 109.784L14.5938 108.859" stroke="#263238" stroke-width="0.436" stroke-linecap="round" stroke-linejoin="round"/>
<path d="M16.041 108.423L16.4901 107.159" stroke="#263238" stroke-width="0.436" stroke-linecap="round" stroke-linejoin="round"/>
<path d="M20.3399 117.183C20.3399 117.183 18.875 116.433 17.3926 115.7" stroke="#263238" stroke-width="0.436" stroke-linecap="round" stroke-linejoin="round"/>
<path d="M19.3419 115.264C19.7727 113.902 20.341 112.587 21.038 111.34" stroke="#263238" stroke-width="0.436" stroke-linecap="round" stroke-linejoin="round"/>
<path d="M21.2071 126.055C20.2304 124.817 19.079 123.727 17.7888 122.82" stroke="#263238" stroke-width="0.436" stroke-linecap="round" stroke-linejoin="round"/>
<path d="M21.7092 127.472C21.9418 126.478 22.2569 125.506 22.651 124.564C23.2178 123.313 23.3006 123.151 23.3006 123.151" stroke="#263238" stroke-width="0.436" stroke-linecap="round" stroke-linejoin="round"/>
<path d="M24.0762 135.987C24.6469 135.279 25.2786 134.622 25.9641 134.025C26.4006 133.704 26.8103 133.348 27.1892 132.961" stroke="#263238" stroke-width="0.436" stroke-linecap="round" stroke-linejoin="round"/>
<path d="M24.1592 134.213C23.6893 133.447 23.1617 132.718 22.5809 132.033C22.0098 131.41 21.3886 130.836 20.7235 130.315" stroke="#263238" stroke-width="0.436" stroke-linecap="round" stroke-linejoin="round"/>
<path d="M23.649 139.776C23.5893 138.984 23.3199 138.223 22.8686 137.57C22.1448 136.619 21.2946 135.355 20.9502 134.858" stroke="#263238" stroke-width="0.436" stroke-linecap="round" stroke-linejoin="round"/>
<path d="M20.715 141.921H35.7046V146.656C35.7046 147.061 35.5439 147.449 35.2577 147.735C34.9715 148.022 34.5834 148.182 34.1786 148.182H22.241C21.8362 148.182 21.4481 148.022 21.1619 147.735C20.8757 147.449 20.715 147.061 20.715 146.656V141.921Z" fill="white" stroke="#263238" stroke-width="0.436" stroke-linecap="round" stroke-linejoin="round"/>
<path d="M35.5868 143.878H20.7148C20.4034 143.877 20.1051 143.753 19.8852 143.532C19.6654 143.311 19.542 143.013 19.542 142.701C19.5431 142.39 19.6671 142.093 19.8868 141.873C20.1065 141.653 20.4041 141.529 20.7148 141.528H35.5868C35.8979 141.528 36.1962 141.652 36.4161 141.872C36.6361 142.092 36.7596 142.39 36.7596 142.701C36.7602 142.856 36.7303 143.009 36.6716 143.151C36.6129 143.294 36.5266 143.424 36.4177 143.533C36.3087 143.643 36.1792 143.729 36.0366 143.789C35.894 143.848 35.7412 143.878 35.5868 143.878Z" fill="white" stroke="#263238" stroke-width="0.436" stroke-linecap="round" stroke-linejoin="round"/>
<path d="M9.41675 126.199H183.756" stroke="#263238" stroke-width="0.436" stroke-linecap="round" stroke-linejoin="round"/>
<path d="M9.41675 145.767H183.756" stroke="#263238" stroke-width="0.436" stroke-linecap="round" stroke-linejoin="round"/>
<mask id="mask0_4681_57843" style="mask-type:luminance" maskUnits="userSpaceOnUse" x="25" y="25" width="139" height="100">
<path d="M67.8012 124.786H25.9452V25.7793H67.8012V124.786ZM115.622 25.7793H73.7657V124.786H115.622V25.7793ZM163.447 25.7793H121.595V124.786H163.451L163.447 25.7793Z" fill="white"/>
</mask>
<g mask="url(#mask0_4681_57843)">
<path d="M117.732 44.6323V45.2689H118.107C117.985 45.0683 117.867 44.859 117.732 44.6323Z" fill="white"/>
<path d="M80.8546 45.2205C79.3591 44.4052 78.6746 45.0853 78.1383 44.4052C77.602 43.725 79.6294 41.9636 75.5572 40.1978C75.5572 40.1978 75.2869 36.3959 69.7191 36.2738C64.1514 36.1517 65.6469 40.0757 64.1558 41.0262C62.6646 41.9767 62.2548 40.4812 60.7593 41.4317C59.2639 42.3821 59.944 44.2831 58.7232 44.5534C57.5024 44.8237 55.8718 43.3326 54.3632 44.2831C52.8547 45.2336 52.8677 46.0489 52.1832 46.0489C51.4987 46.0489 50.1471 45.5039 49.3318 46.0489C48.5164 46.5939 47.5878 47.2697 47.5878 47.2697H81.9358C81.9358 47.2697 82.3544 46.0358 80.8546 45.2205Z" fill="white"/>
<path d="M177.66 60.7645C176.165 59.9535 175.48 60.6293 174.944 59.9535C174.408 59.2777 176.435 57.5075 172.363 55.7417C172.363 55.7417 172.093 51.9398 166.525 51.8177C160.957 51.6956 162.453 55.6197 160.961 56.5701C159.47 57.5206 159.06 56.0295 157.565 56.98C156.07 57.9305 156.75 59.827 155.529 60.1017C154.308 60.3764 152.677 58.8809 151.169 59.8271C149.66 60.7732 149.673 61.5928 148.989 61.5928C148.304 61.5928 146.953 61.0522 146.137 61.5928C145.322 62.1335 144.393 62.818 144.393 62.818H178.742C178.742 62.818 179.147 61.5929 177.66 60.7645Z" fill="white"/>
<path d="M88.4071 60.5069C87.4741 59.9967 87.0512 60.424 86.7111 59.9967C86.371 59.5695 87.6441 58.4751 85.1022 57.3807C85.1022 57.3807 84.9322 55.0089 81.4573 54.9217C77.9824 54.8345 78.9154 57.2979 77.9693 57.8909C77.0232 58.4838 76.7834 57.5508 75.8503 58.1437C74.9173 58.7367 75.3402 59.9226 74.5816 60.0927C73.8229 60.2627 72.7983 59.3297 71.8696 59.9226C70.941 60.5156 70.9366 61.0257 70.5137 61.0257C70.0908 61.0257 69.2406 60.6856 68.7304 61.0257C68.2203 61.3658 67.6317 61.7887 67.6317 61.7887H89.0698C89.0698 61.7887 89.3314 61.017 88.4071 60.5069Z" fill="white"/>
<path opacity="0.1" d="M4.24988 128.309V92.0037H25.8101V48.4647H40.3289V58.0218H48.4603V86.1656H68.2024V70.7661H77.4935V79.2594H84.33H87.3951L87.6392 82.4466H95.6616V69.7023H102.049V29.878H117.728V45.2776H129.343V25.8843H142.117V73.4214H155.476V90.9442H164.803V129.094" fill="black"/>
<path opacity="0.1" d="M31.5171 57.895H28.3779V61.2958H31.5171V57.895Z" fill="black"/>
<path opacity="0.1" d="M38.061 57.895H34.9218V61.2958H38.061V57.895Z" fill="black"/>
<path opacity="0.1" d="M31.5171 64.98H28.3779V68.3808H31.5171V64.98Z" fill="black"/>
<path opacity="0.1" d="M38.061 64.98H34.9218V68.3808H38.061V64.98Z" fill="black"/>
<path opacity="0.1" d="M45.1254 64.98H41.9862V68.3808H45.1254V64.98Z" fill="black"/>
<path opacity="0.1" d="M45.1254 72.0698H41.9862V75.4706H45.1254V72.0698Z" fill="black"/>
<path opacity="0.1" d="M45.1254 79.1587H41.9862V82.5595H45.1254V79.1587Z" fill="black"/>
<path opacity="0.1" d="M45.1254 86.248H41.9862V89.6488H45.1254V86.248Z" fill="black"/>
<path opacity="0.1" d="M45.1254 93.3374H41.9862V96.7382H45.1254V93.3374Z" fill="black"/>
<path opacity="0.1" d="M45.1254 100.427H41.9862V103.828H45.1254V100.427Z" fill="black"/>
<path opacity="0.1" d="M31.5171 72.0698H28.3779V75.4706H31.5171V72.0698Z" fill="black"/>
<path opacity="0.1" d="M38.061 72.0698H34.9218V75.4706H38.061V72.0698Z" fill="black"/>
<path opacity="0.1" d="M31.5171 79.1587H28.3779V82.5595H31.5171V79.1587Z" fill="black"/>
<path opacity="0.1" d="M38.061 79.1587H34.9218V82.5595H38.061V79.1587Z" fill="black"/>
<path opacity="0.1" d="M31.5171 86.248H28.3779V89.6488H31.5171V86.248Z" fill="black"/>
<path opacity="0.1" d="M38.061 86.248H34.9218V89.6488H38.061V86.248Z" fill="black"/>
<path opacity="0.1" d="M31.5171 93.3374H28.3779V96.7382H31.5171V93.3374Z" fill="black"/>
<path opacity="0.1" d="M62.3947 89.6533H59.2555V93.0541H62.3947V89.6533Z" fill="black"/>
<path opacity="0.1" d="M68.6783 89.6533H65.5391V93.0541H68.6783V89.6533Z" fill="black"/>
<path opacity="0.1" d="M134.57 34.6436H131.431V38.0444H134.57V34.6436Z" fill="black"/>
<path opacity="0.1" d="M138.498 34.6436H135.359V38.0444H138.498V34.6436Z" fill="black"/>
<path opacity="0.1" d="M134.57 41.7329H131.431V45.1337H134.57V41.7329Z" fill="black"/>
<path opacity="0.1" d="M138.498 41.7329H135.359V45.1337H138.498V41.7329Z" fill="black"/>
<path opacity="0.1" d="M134.57 48.8179H131.431V52.2187H134.57V48.8179Z" fill="black"/>
<path opacity="0.1" d="M138.498 48.8179H135.359V52.2187H138.498V48.8179Z" fill="black"/>
<path opacity="0.1" d="M134.57 55.9072H131.431V59.308H134.57V55.9072Z" fill="black"/>
<path opacity="0.1" d="M138.498 55.9072H135.359V59.308H138.498V55.9072Z" fill="black"/>
<path opacity="0.1" d="M134.57 62.9961H131.431V66.3969H134.57V62.9961Z" fill="black"/>
<path opacity="0.1" d="M138.498 62.9961H135.359V66.3969H138.498V62.9961Z" fill="black"/>
<path opacity="0.1" d="M107.883 62.9961H104.744V66.3969H107.883V62.9961Z" fill="black"/>
<path opacity="0.1" d="M114.684 62.9961H111.545V66.3969H114.684V62.9961Z" fill="black"/>
<path opacity="0.1" d="M121.49 62.9961H118.35V66.3969H121.49V62.9961Z" fill="black"/>
<path opacity="0.1" d="M107.883 78.3091H104.744V81.7099H107.883V78.3091Z" fill="black"/>
<path opacity="0.1" d="M114.684 78.3091H111.545V81.7099H114.684V78.3091Z" fill="black"/>
<path opacity="0.1" d="M121.49 78.3091H118.35V81.7099H121.49V78.3091Z" fill="black"/>
<path opacity="0.1" d="M107.883 93.6211H104.744V97.0219H107.883V93.6211Z" fill="black"/>
<path opacity="0.1" d="M114.684 93.6211H111.545V97.0219H114.684V93.6211Z" fill="black"/>
<path opacity="0.1" d="M121.49 93.6211H118.35V97.0219H121.49V93.6211Z" fill="black"/>
<path opacity="0.1" d="M134.57 70.0854H131.431V73.4862H134.57V70.0854Z" fill="black"/>
<path opacity="0.1" d="M138.498 70.0854H135.359V73.4862H138.498V70.0854Z" fill="black"/>
<path opacity="0.1" d="M134.57 77.1753H131.431V80.5761H134.57V77.1753Z" fill="black"/>
<path opacity="0.1" d="M138.498 77.1753H135.359V80.5761H138.498V77.1753Z" fill="black"/>
<path opacity="0.1" d="M134.57 84.2646H131.431V87.6655H134.57V84.2646Z" fill="black"/>
<path opacity="0.1" d="M138.498 84.2646H135.359V87.6655H138.498V84.2646Z" fill="black"/>
<path opacity="0.1" d="M145.038 77.1753H141.899V80.5761H145.038V77.1753Z" fill="black"/>
<path opacity="0.1" d="M152.368 77.1753H149.228V80.5761H152.368V77.1753Z" fill="black"/>
<path opacity="0.1" d="M145.038 83.981H141.899V87.3818H145.038V83.981Z" fill="black"/>
<path opacity="0.1" d="M152.368 83.981H149.228V87.3818H152.368V83.981Z" fill="black"/>
<path opacity="0.1" d="M145.038 90.7871H141.899V94.1879H145.038V90.7871Z" fill="black"/>
<path opacity="0.1" d="M152.368 90.7871H149.228V94.1879H152.368V90.7871Z" fill="black"/>
<path opacity="0.1" d="M145.038 97.5933H141.899V100.994H145.038V97.5933Z" fill="black"/>
<path opacity="0.1" d="M152.368 97.5933H149.228V100.994H152.368V97.5933Z" fill="black"/>
<path opacity="0.1" d="M134.57 91.354H131.431V94.7548H134.57V91.354Z" fill="black"/>
<path opacity="0.1" d="M138.498 91.354H135.359V94.7548H138.498V91.354Z" fill="black"/>
<path opacity="0.1" d="M134.57 98.4429H131.431V101.844H134.57V98.4429Z" fill="black"/>
<path opacity="0.1" d="M138.498 98.4429H135.359V101.844H138.498V98.4429Z" fill="black"/>
<path opacity="0.1" d="M38.061 93.3374H34.9218V96.7382H38.061V93.3374Z" fill="black"/>
<path opacity="0.1" d="M31.5171 100.427H28.3779V103.828H31.5171V100.427Z" fill="black"/>
<path opacity="0.1" d="M38.061 100.427H34.9218V103.828H38.061V100.427Z" fill="black"/>
<path opacity="0.1" d="M31.5171 107.517H28.3779V110.917H31.5171V107.517Z" fill="black"/>
<path opacity="0.1" d="M38.061 107.517H34.9218V110.917H38.061V107.517Z" fill="black"/>
<path opacity="0.1" d="M31.5171 114.606H28.3779V118.007H31.5171V114.606Z" fill="black"/>
<path opacity="0.1" d="M38.061 114.606H34.9218V118.007H38.061V114.606Z" fill="black"/>
</g>
<path d="M67.8012 124.786H25.9452V25.7793H67.8012V124.786ZM115.622 25.7793H73.7657V124.786H115.622V25.7793ZM163.447 25.7793H121.595V124.786H163.451L163.447 25.7793Z" stroke="#263238" stroke-width="0.436" stroke-miterlimit="10"/>
<path d="M169.993 49.8809H167.869V147.915H169.993V49.8809Z" fill="white" stroke="#263238" stroke-width="0.436" stroke-linecap="round" stroke-linejoin="round"/>
<path d="M176.811 49.8809H161.05V78.3081H176.811V49.8809Z" fill="#263238" stroke="#263238" stroke-width="0.436" stroke-linecap="round" stroke-linejoin="round"/>
<path d="M162.785 75.958V76.7646" stroke="white" stroke-width="0.436" stroke-linecap="round" stroke-linejoin="round"/>
<path d="M162.785 50.9097V74.0351" stroke="white" stroke-width="0.436" stroke-linecap="round" stroke-linejoin="round"/>
<path d="M164.39 54.6025V76.7644" stroke="white" stroke-width="0.436" stroke-linecap="round" stroke-linejoin="round"/>
<path d="M164.39 50.9097V52.6798" stroke="white" stroke-width="0.436" stroke-linecap="round" stroke-linejoin="round"/>
<path d="M167.28 50.9097V76.7645" stroke="white" stroke-width="0.436" stroke-linecap="round" stroke-linejoin="round"/>
<path d="M175.573 147.118H162.554V148.182H175.573V147.118Z" fill="white" stroke="#263238" stroke-width="0.436" stroke-linecap="round" stroke-linejoin="round"/>
<path d="M140.24 155.742H46.709L56.0612 148.7H130.887L140.24 155.742Z" fill="#74B790" stroke="#263238" stroke-width="0.436" stroke-linecap="round" stroke-linejoin="round"/>
<path d="M80.0409 147.754C80.0409 147.754 76.7796 144.754 77.3028 141.101C77.826 137.447 77.9524 134.971 77.9524 134.971L77.6952 127.798C76.26 124.925 75.2902 121.842 74.8219 118.664C74.1723 113.707 72.0839 107.838 72.0839 107.838C71.689 107.574 71.3375 107.251 71.0418 106.879C70.6058 106.325 69.882 106.007 69.2324 105.571C68.5828 105.135 67.6061 105.135 67.4666 104.921C67.3271 104.708 67.2355 104.363 67.6541 104.363C68.0726 104.363 69.2324 104.224 69.5114 104.455C69.7905 104.686 70.6712 104.455 70.6712 104.455L70.2091 97.723C70.2091 97.723 70.3486 97.3524 70.7192 97.723C71.0898 98.0936 71.5563 101.625 71.5563 101.625L72.158 101.577L72.437 97.2565C72.437 97.2565 72.6245 96.8859 72.9951 97.2565L73.4572 101.577L74.4819 97.8625C74.4819 97.8625 74.8525 97.4265 75.0399 98.0021C75.2274 98.5776 74.6039 101.996 74.6039 101.996L76.4133 99.6719C76.4133 99.6719 76.7403 99.6283 76.7403 99.8594C76.7403 100.091 75.2972 102.972 75.2972 102.972C75.2972 102.972 75.4367 106.36 75.3451 106.639C75.2422 107.399 75.3555 108.173 75.6721 108.872C76.1081 109.94 79.0163 116.161 80.2676 119.227C81.5189 122.292 82.6394 125.684 82.7789 126.752C82.9185 127.82 83.5201 133.257 83.3327 135.114C83.1452 136.972 83.2891 140.316 84.2047 142.526" fill="#FFBE9D"/>
<mask id="mask1_4681_57843" style="mask-type:luminance" maskUnits="userSpaceOnUse" x="67" y="97" width="18" height="51">
<path d="M80.0399 147.755C80.0399 147.755 76.7786 144.755 77.3018 141.101C77.825 137.447 77.9514 134.971 77.9514 134.971L77.6942 127.799C76.259 124.925 75.2892 121.842 74.821 118.665C74.1713 113.707 72.0829 107.839 72.0829 107.839C71.688 107.575 71.3365 107.251 71.0408 106.88C70.6048 106.326 69.8811 106.008 69.2314 105.572C68.5818 105.136 67.6052 105.136 67.4656 104.922C67.3261 104.708 67.2346 104.364 67.6531 104.364C68.0717 104.364 69.2314 104.224 69.5105 104.455C69.7895 104.686 70.6702 104.455 70.6702 104.455L70.2081 97.7235C70.2081 97.7235 70.3476 97.3529 70.7182 97.7235C71.0888 98.0941 71.5553 101.626 71.5553 101.626L72.157 101.578L72.436 97.257C72.436 97.257 72.6235 96.8864 72.9941 97.257L73.4563 101.578L74.4809 97.863C74.4809 97.863 74.8515 97.427 75.039 98.0026C75.2264 98.5781 74.603 101.996 74.603 101.996L76.4124 99.6724C76.4124 99.6724 76.7394 99.6288 76.7394 99.8599C76.7394 100.091 75.2962 102.973 75.2962 102.973C75.2962 102.973 75.4357 106.361 75.3442 106.64C75.2412 107.4 75.3545 108.173 75.6712 108.872C76.1072 109.94 79.0153 116.162 80.2666 119.227C81.5179 122.292 82.6384 125.684 82.778 126.752C82.9175 127.821 83.5192 133.258 83.3317 135.115C83.1442 136.972 83.2881 140.316 84.2037 142.527" fill="white"/>
</mask>
<g mask="url(#mask1_4681_57843)">
<path opacity="0.1" d="M80.0399 147.755C80.0399 147.755 76.7786 144.755 77.3018 141.101C77.825 137.447 77.9514 134.971 77.9514 134.971L77.6942 127.799C76.259 124.925 75.2892 121.842 74.821 118.665C74.1713 113.707 72.0829 107.839 72.0829 107.839C71.688 107.575 71.3365 107.251 71.0408 106.88C70.6048 106.326 69.8811 106.008 69.2314 105.572C68.5818 105.136 67.6052 105.136 67.4656 104.922C67.3261 104.708 67.2346 104.364 67.6531 104.364C68.0717 104.364 69.2314 104.224 69.5105 104.455C69.7895 104.686 70.6702 104.455 70.6702 104.455L70.2081 97.7235C70.2081 97.7235 70.3476 97.3529 70.7182 97.7235C71.0888 98.0941 71.5553 101.626 71.5553 101.626L72.157 101.578L72.436 97.257C72.436 97.257 72.6235 96.8864 72.9941 97.257L73.4563 101.578L74.4809 97.863C74.4809 97.863 74.8515 97.427 75.039 98.0026C75.2264 98.5781 74.603 101.996 74.603 101.996L76.4124 99.6724C76.4124 99.6724 76.7394 99.6288 76.7394 99.8599C76.7394 100.091 75.2962 102.973 75.2962 102.973C75.2962 102.973 75.4357 106.361 75.3442 106.64C75.2412 107.4 75.3545 108.173 75.6712 108.872C76.1072 109.94 79.0153 116.162 80.2666 119.227C81.5179 122.292 82.6384 125.684 82.778 126.752C82.9175 127.821 83.5192 133.258 83.3317 135.115C83.1442 136.972 83.2881 140.316 84.2037 142.527" fill="black"/>
</g>
<path d="M80.0409 147.754C80.0409 147.754 76.7796 144.754 77.3028 141.101C77.826 137.447 77.9524 134.971 77.9524 134.971L77.6952 127.798C76.26 124.925 75.2902 121.842 74.8219 118.664C74.1723 113.707 72.0839 107.838 72.0839 107.838C71.689 107.574 71.3375 107.251 71.0418 106.879C70.6058 106.325 69.882 106.007 69.2324 105.571C68.5828 105.135 67.6061 105.135 67.4666 104.921C67.3271 104.708 67.2355 104.363 67.6541 104.363C68.0726 104.363 69.2324 104.224 69.5114 104.455C69.7905 104.686 70.6712 104.455 70.6712 104.455L70.2091 97.723C70.2091 97.723 70.3486 97.3524 70.7192 97.723C71.0898 98.0936 71.5563 101.625 71.5563 101.625L72.158 101.577L72.437 97.2565C72.437 97.2565 72.6245 96.8859 72.9951 97.2565L73.4572 101.577L74.4819 97.8625C74.4819 97.8625 74.8525 97.4265 75.0399 98.0021C75.2274 98.5776 74.6039 101.996 74.6039 101.996L76.4133 99.6719C76.4133 99.6719 76.7403 99.6283 76.7403 99.8594C76.7403 100.091 75.2972 102.972 75.2972 102.972C75.2972 102.972 75.4367 106.36 75.3451 106.639C75.2422 107.399 75.3555 108.173 75.6721 108.872C76.1081 109.94 79.0163 116.161 80.2676 119.227C81.5189 122.292 82.6394 125.684 82.7789 126.752C82.9185 127.82 83.5201 133.257 83.3327 135.114C83.1452 136.972 83.2891 140.316 84.2047 142.526" stroke="#263238" stroke-width="0.436" stroke-linecap="round" stroke-linejoin="round"/>
<path d="M63.8093 138.807C62.7453 138.773 61.6975 139.075 60.8153 139.671C59.933 140.267 59.2612 141.125 58.8956 142.125C57.544 145.687 59.8766 148.883 58.4029 149.864C56.9292 150.845 52.0155 149.62 52.8744 151.094C53.7334 152.567 63.8093 154.534 64.9168 150.85C66.0242 147.165 62.2136 143.355 62.7062 141.022C63.1989 138.69 64.7947 139.178 64.7947 139.178L63.8093 138.807Z" fill="#263238" stroke="#263238" stroke-width="0.436" stroke-linecap="round" stroke-linejoin="round"/>
<path d="M79.3039 140.805L77.4727 137.665C78.1703 137.055 78.7807 136.096 78.0831 135.311C77.5006 134.737 76.8894 134.193 76.2519 133.68L76.3304 133.628C76.4108 133.187 76.4371 132.737 76.4088 132.289C76.3304 131.814 76.1036 131.657 75.2011 131.893C74.8503 131.981 74.4844 131.993 74.1286 131.928C73.4876 131.404 73.0298 131.056 73.0298 131.056C73.0298 131.056 70.501 129.142 66.8386 130.707C63.1762 132.272 62.6574 137.247 64.397 139.688C66.1367 142.13 69.7162 141.781 70.7626 141.607C71.809 141.432 72.7682 141.084 73.117 141.432C73.4658 141.781 76.169 145.439 76.169 145.439" fill="#FFBE9D"/>
<mask id="mask2_4681_57843" style="mask-type:luminance" maskUnits="userSpaceOnUse" x="63" y="130" width="17" height="16">
<path d="M79.3047 140.805L77.4735 137.665C78.1711 137.055 78.7815 136.096 78.0839 135.311C77.5015 134.737 76.8903 134.193 76.2527 133.68L76.3312 133.628C76.4116 133.187 76.438 132.737 76.4097 132.289C76.3312 131.814 76.1045 131.657 75.202 131.893C74.8511 131.981 74.4853 131.993 74.1294 131.928C73.4885 131.404 73.0307 131.056 73.0307 131.056C73.0307 131.056 70.5019 129.142 66.8395 130.707C63.1771 132.272 62.6583 137.247 64.3979 139.688C66.1375 142.13 69.7171 141.781 70.7635 141.607C71.8099 141.432 72.7691 141.084 73.1179 141.432C73.4667 141.781 76.1699 145.439 76.1699 145.439" fill="white"/>
</mask>
<g mask="url(#mask2_4681_57843)">
<path opacity="0.1" d="M77.4737 137.666C77.9795 137.23 78.4329 136.602 78.3893 135.996C76.4491 136.41 74.3214 136.689 73.4887 136.179C71.8101 135.146 68.7145 132.05 65.7497 133.855C63.4825 135.233 65.5055 139.392 66.5868 141.267C67.9343 141.703 69.3671 141.808 70.7637 141.572C71.8101 141.398 72.7693 141.049 73.1181 141.398C73.4669 141.747 76.1701 145.405 76.1701 145.405L78.2498 142.353L79.1828 140.574L77.4737 137.666Z" fill="black"/>
</g>
<path d="M79.3039 140.805L77.4727 137.665C78.1703 137.055 78.7807 136.096 78.0831 135.311C77.5006 134.737 76.8894 134.193 76.2519 133.68L76.3304 133.628C76.4108 133.187 76.4371 132.737 76.4088 132.289C76.3304 131.814 76.1036 131.657 75.2011 131.893C74.8503 131.981 74.4844 131.993 74.1286 131.928C73.4876 131.404 73.0298 131.056 73.0298 131.056C73.0298 131.056 70.501 129.142 66.8386 130.707C63.1762 132.272 62.6574 137.247 64.397 139.688C66.1367 142.13 69.7162 141.781 70.7626 141.607C71.809 141.432 72.7682 141.084 73.117 141.432C73.4658 141.781 76.169 145.439 76.169 145.439" stroke="#263238" stroke-width="0.436" stroke-linecap="round" stroke-linejoin="round"/>
<path d="M70.7626 138.45C70.3266 138.188 70.6754 137.055 70.4138 135.747C70.1522 134.439 69.1058 134.177 68.6698 132.695C68.3777 131.701 68.8704 130.667 69.2279 130.079C68.4039 130.141 67.5963 130.342 66.8386 130.672C63.1762 132.241 62.6574 137.212 64.397 139.653C66.1367 142.095 69.7162 141.746 70.7626 141.572C71.591 141.432 72.3628 141.188 72.8206 141.266C72.8967 140.997 72.9378 140.718 72.9426 140.438C72.9426 138.973 71.1986 138.711 70.7626 138.45Z" fill="#263238" stroke="#263238" stroke-width="0.436" stroke-linecap="round" stroke-linejoin="round"/>
<path d="M71.0849 137.325C71.0849 137.325 69.4848 136.532 68.9049 137.975C68.325 139.418 70.2391 139.396 71.3247 139.073C71.6282 138.99 71.8997 138.817 72.1041 138.578C72.3085 138.339 72.4365 138.043 72.4714 137.731" fill="#FFBE9D"/>
<path d="M71.0849 137.325C71.0849 137.325 69.4848 136.532 68.9049 137.975C68.325 139.418 70.2391 139.396 71.3247 139.073C71.6282 138.99 71.8997 138.817 72.1041 138.578C72.3085 138.339 72.4365 138.043 72.4714 137.731" stroke="#263238" stroke-width="0.436" stroke-linecap="round" stroke-linejoin="round"/>
<path d="M96.168 94.9242C95.5375 93.4765 94.7955 92.08 93.9488 90.7473C92.9506 89.0992 91.8344 87.5255 90.609 86.0385C88.9827 84.0678 88.1282 83.7277 89.0699 83.2132C90.0117 82.6988 91.2935 82.1843 93.4299 83.3833C95.5663 84.5823 96.3424 86.3829 97.1141 87.4075C97.8858 88.4321 98.9976 87.8436 98.9104 89.3783C98.8388 90.3794 98.6077 91.3626 98.2259 92.2908L98.9976 94.0042L96.3424 95.5433L96.168 94.9242Z" fill="#FFBE9D" stroke="#263238" stroke-width="0.436" stroke-linecap="round" stroke-linejoin="round"/>
<path d="M92.0654 87.6646C92.622 88.2097 93.2962 88.6199 94.0361 88.8636C95.0651 89.1208 94.8079 90.1497 96.1769 91.0915" stroke="#263238" stroke-width="0.436" stroke-linecap="round" stroke-linejoin="round"/>
<path d="M118.837 139.361C118.837 139.361 118.837 139.317 118.793 139.235C118.749 139.152 118.793 139.195 118.771 139.178C118.252 137.783 114.817 128.618 113.299 126.246C111.66 123.674 107.126 118.956 107.126 118.956C107.126 118.956 108.338 112.926 107.348 109.107C106.589 106.181 100.808 96.524 98.8329 93.5723C98.083 93.5723 97.1761 93.6682 96.1689 94.9239C97.3374 98.2462 99.3648 103.762 99.8444 108.588C100.464 114.875 101.545 121.424 102.024 122.161C102.504 122.898 102.526 129.516 104.431 133.863C105.541 136.29 106.868 138.611 108.394 140.8C108.476 141.404 108.505 142.013 108.482 142.622C108.394 142.884 106.201 143.145 105.765 145.16C105.329 147.174 104.976 150.767 109.253 151.643C113.53 152.519 116.957 151.29 118.27 147C119.582 142.709 119.307 141.445 118.837 139.361Z" fill="#263238" stroke="#263238" stroke-width="0.436" stroke-linecap="round" stroke-linejoin="round"/>
<path d="M76.578 141.062C74.9038 142.37 75.0128 144.986 75.9066 146.73C77.559 149.956 82.2678 151.613 86.5406 152.049C90.8134 152.485 107.033 153.357 112.866 152.223C114.48 151.959 115.97 151.196 117.127 150.041C118.284 148.886 119.049 147.397 119.315 145.784C119.315 145.784 127.821 138.433 129.652 135.995C131.484 133.558 134.309 127.655 134.309 127.655C134.309 127.655 142.078 125.867 145.305 123.6C148.531 121.333 156.449 109.87 156.449 109.87C156.449 109.87 158.454 111.004 159.326 110.045C160.198 109.085 160.896 106.993 161.681 106.469C162.466 105.946 164.21 104.9 164.646 102.981C165.082 101.063 164.733 99.0574 164.122 99.319C163.512 99.5806 162.378 101.325 160.634 102.371C158.89 103.417 156.798 106.116 154.879 107.424C152.961 108.732 147.123 114.4 141.455 117.186C135.787 119.972 130.036 123.29 129.513 123.988C128.99 124.685 122.803 127.04 119.402 130.349C116.001 133.658 113.564 137.674 113.215 138.023C111.997 138.94 110.601 139.593 109.117 139.941C107.024 140.464 106.239 141.336 102.49 141.685C98.7399 142.034 93.5995 141.249 93.5995 141.249C93.5995 141.249 92.9019 138.11 90.5475 137.674C88.4935 137.347 86.3937 137.849 84.7094 139.069C83.3142 140.028 82.7038 140.116 81.8318 140.116C80.1838 140.116 78.1999 139.985 76.7611 140.94L76.578 141.062Z" fill="#FFBE9D"/>
<mask id="mask3_4681_57843" style="mask-type:luminance" maskUnits="userSpaceOnUse" x="75" y="99" width="90" height="54">
<path d="M76.5778 141.061C74.9035 142.369 75.0125 144.985 75.9063 146.729C77.5588 149.956 82.2676 151.612 86.5404 152.048C90.8132 152.484 107.032 153.356 112.866 152.223C114.48 151.959 115.97 151.196 117.126 150.04C118.283 148.885 119.049 147.396 119.314 145.783C119.314 145.783 127.821 138.432 129.652 135.995C131.483 133.558 134.309 127.654 134.309 127.654C134.309 127.654 142.078 125.867 145.304 123.599C148.531 121.332 156.449 109.87 156.449 109.87C156.449 109.87 158.454 111.003 159.326 110.044C160.198 109.085 160.896 106.992 161.681 106.469C162.465 105.946 164.209 104.899 164.645 102.981C165.081 101.063 164.733 99.0569 164.122 99.3185C163.512 99.5801 162.378 101.324 160.634 102.371C158.89 103.417 156.797 106.116 154.879 107.424C152.961 108.732 147.123 114.4 141.455 117.186C135.787 119.972 130.036 123.29 129.513 123.987C128.989 124.685 122.803 127.039 119.402 130.349C116.001 133.658 113.564 137.673 113.215 138.022C111.997 138.939 110.601 139.593 109.116 139.941C107.024 140.464 106.239 141.336 102.489 141.685C98.7397 142.033 93.5992 141.249 93.5992 141.249C93.5992 141.249 92.9016 138.109 90.5472 137.673C88.4932 137.347 86.3934 137.848 84.7092 139.069C83.314 140.028 82.7036 140.115 81.8316 140.115C80.1835 140.115 78.1997 139.984 76.7609 140.939L76.5778 141.061Z" fill="white"/>
</mask>
<g mask="url(#mask3_4681_57843)">
<path opacity="0.1" d="M116.829 150.331C113.132 148.13 97.9718 147.131 94.1568 147.131C89.5178 147.131 88.7243 143.896 86.3612 143.787C83.998 143.678 83.6056 143.251 83.6056 143.251C83.6056 143.251 82.7772 142.671 82.3892 140.081C82.2061 140.081 82.023 140.107 81.8224 140.107C80.3487 140.107 78.6134 140.003 77.2313 140.661C77.2313 141.223 77.2706 141.773 77.2706 142.305C77.2706 145.601 76.9087 147.454 81.3602 150.894C83.031 151.486 84.7673 151.874 86.5312 152.049C90.7996 152.485 107.023 153.357 112.857 152.224C114.329 151.967 115.702 151.313 116.829 150.331Z" fill="black"/>
</g>
<path d="M76.578 141.062C74.9038 142.37 75.0128 144.986 75.9066 146.73C77.559 149.956 82.2678 151.613 86.5406 152.049C90.8134 152.485 107.033 153.357 112.866 152.223C114.48 151.959 115.97 151.196 117.127 150.041C118.284 148.886 119.049 147.397 119.315 145.784C119.315 145.784 127.821 138.433 129.652 135.995C131.484 133.558 134.309 127.655 134.309 127.655C134.309 127.655 142.078 125.867 145.305 123.6C148.531 121.333 156.449 109.87 156.449 109.87C156.449 109.87 158.454 111.004 159.326 110.045C160.198 109.085 160.896 106.993 161.681 106.469C162.466 105.946 164.21 104.9 164.646 102.981C165.082 101.063 164.733 99.0574 164.122 99.319C163.512 99.5806 162.378 101.325 160.634 102.371C158.89 103.417 156.798 106.116 154.879 107.424C152.961 108.732 147.123 114.4 141.455 117.186C135.787 119.972 130.036 123.29 129.513 123.988C128.99 124.685 122.803 127.04 119.402 130.349C116.001 133.658 113.564 137.674 113.215 138.023C111.997 138.94 110.601 139.593 109.117 139.941C107.024 140.464 106.239 141.336 102.49 141.685C98.7399 142.034 93.5995 141.249 93.5995 141.249C93.5995 141.249 92.9019 138.11 90.5475 137.674C88.4935 137.347 86.3937 137.849 84.7094 139.069C83.3142 140.028 82.7038 140.116 81.8318 140.116C80.1838 140.116 78.1999 139.985 76.7611 140.94L76.578 141.062Z" stroke="#263238" stroke-width="0.436" stroke-linecap="round" stroke-linejoin="round"/>
<path d="M86.2792 152.019L86.5451 152.049C87.7572 152.171 89.9328 152.333 92.5576 152.485C92.1608 151.613 91.2496 149.411 91.5984 147.619C92.0126 145.474 92.8148 144.341 93.5691 141.11C93.399 140.491 92.6055 138.058 90.552 137.683C88.4979 137.356 86.3982 137.858 84.7139 139.078C83.3187 140.037 82.7083 140.125 81.8363 140.125C80.1882 140.125 78.2044 139.994 76.7656 140.949L76.5825 141.079C75.9139 141.618 75.4732 142.388 75.3486 143.238C76.382 142.427 78.4748 140.984 80.5283 140.735L82.5339 140.561C82.514 141.163 82.6381 141.762 82.8959 142.307C83.1537 142.853 83.5378 143.328 84.0163 143.695C85.0099 144.48 86.1754 145.018 87.4171 145.265C87.4171 145.265 87.8531 149.102 86.9811 150.671C86.6062 151.312 86.3969 151.74 86.2792 152.019Z" fill="#263238" stroke="#263238" stroke-width="0.436" stroke-linecap="round" stroke-linejoin="round"/>
<path d="M152.961 108.941C150.262 111.2 145.811 115.045 141.455 117.177C135.787 119.968 130.036 123.281 129.513 123.979C128.99 124.677 122.803 127.031 119.402 130.34C116.002 133.65 113.564 137.665 113.216 138.014C111.997 138.931 110.602 139.584 109.117 139.932C107.299 140.368 106.466 141.101 103.824 141.511V152.781C107.473 152.781 110.8 152.62 112.867 152.223C114.48 151.959 115.97 151.196 117.127 150.041C118.284 148.886 119.049 147.397 119.315 145.783C119.315 145.783 127.822 138.432 129.653 135.995C131.484 133.558 134.309 127.655 134.309 127.655C134.309 127.655 142.079 125.867 145.305 123.6C147.782 121.856 153.367 114.195 155.438 111.305C155.228 110.75 154.897 110.25 154.468 109.841C154.04 109.432 153.525 109.125 152.961 108.941Z" fill="#263238" stroke="#263238" stroke-width="0.436" stroke-linecap="round" stroke-linejoin="round"/>
<path d="M109.117 139.932C111.983 138.925 114.385 136.911 115.875 134.264" stroke="#FFBE9D" stroke-width="0.436" stroke-linecap="round" stroke-linejoin="round"/>
<path d="M88.3807 116.428C96.7102 108.098 96.7102 94.5933 88.3807 86.2637C80.0511 77.9342 66.5463 77.9342 58.2167 86.2637C49.8872 94.5933 49.8872 108.098 58.2167 116.428C66.5463 124.757 80.0511 124.757 88.3807 116.428Z" fill="#FD7E50"/>
<mask id="mask4_4681_57843" style="mask-type:luminance" maskUnits="userSpaceOnUse" x="51" y="80" width="44" height="43">
<path d="M88.3797 116.427C96.7092 108.098 96.7092 94.5928 88.3797 86.2632C80.0501 77.9337 66.5453 77.9337 58.2158 86.2633C49.8862 94.5928 49.8862 108.098 58.2157 116.427C66.5453 124.757 80.0501 124.757 88.3797 116.427Z" fill="white"/>
</mask>
<g mask="url(#mask4_4681_57843)">
<path opacity="0.1" d="M84.0384 82.9209L84.5136 83.2043C86.2919 87.3716 86.6969 91.9969 85.67 96.4098C84.6431 100.823 82.2376 104.794 78.8022 107.748C75.3667 110.702 71.0798 112.485 66.5629 112.839C62.0459 113.194 57.5335 112.1 53.6797 109.717C55.0045 112.823 57.0476 115.57 59.6411 117.732C62.2345 119.894 65.3042 121.409 68.5976 122.153C71.8909 122.898 75.3139 122.849 78.585 122.012C81.8561 121.175 84.8817 119.574 87.4131 117.34C89.9444 115.105 91.9092 112.302 93.1457 109.16C94.3823 106.018 94.8553 102.628 94.5258 99.2674C94.1963 95.9071 93.0738 92.6731 91.2506 89.8312C89.4273 86.9894 86.9555 84.621 84.0384 82.9209Z" fill="#78A6FF"/>
<path d="M71.0193 87.2243C71.73 89.0991 70.4133 91.3358 68.0851 92.2122C65.7568 93.0885 63.2891 92.2819 62.5871 90.4028C61.8851 88.5236 63.1931 86.2913 65.5214 85.4149C67.8496 84.5385 70.313 85.3452 71.0193 87.2243Z" fill="#F8F5F4"/>
</g>
<path d="M88.3807 116.428C96.7102 108.098 96.7102 94.5933 88.3807 86.2637C80.0511 77.9342 66.5463 77.9342 58.2167 86.2637C49.8872 94.5933 49.8872 108.098 58.2167 116.428C66.5463 124.757 80.0511 124.757 88.3807 116.428Z" stroke="#263238" stroke-width="0.436" stroke-linecap="round" stroke-linejoin="round"/>
<path d="M77.9964 147.964C77.9964 147.964 74.7352 144.964 75.2584 141.31C75.7816 137.657 75.908 135.18 75.908 135.18L75.6508 128.008C74.2128 125.141 73.2386 122.064 72.7644 118.891C72.1148 113.934 70.0264 108.065 70.0264 108.065C69.6323 107.802 69.2809 107.48 68.9843 107.11C68.5483 106.552 67.8246 106.238 67.1749 105.802C66.5253 105.366 65.5486 105.366 65.4091 105.153C65.2696 104.939 65.178 104.595 65.5966 104.595C66.0152 104.595 67.1749 104.455 67.454 104.691C67.733 104.926 68.6137 104.691 68.6137 104.691L68.1516 97.9545C68.1516 97.9545 68.2867 97.5839 68.6617 97.9545C69.0366 98.3251 69.4944 101.857 69.4944 101.857L70.1005 101.809L70.3795 97.488C70.3795 97.488 70.5626 97.1174 70.9376 97.488L71.3998 101.809L72.4244 98.094C72.4244 98.094 72.795 97.658 72.9781 98.2335C73.1612 98.809 72.5421 102.227 72.5421 102.227L74.3515 99.9034C74.3515 99.9034 74.6785 99.8598 74.6785 100.091C74.6785 100.322 73.2353 103.204 73.2353 103.204C73.2353 103.204 73.3748 106.592 73.2833 106.871C73.1803 107.631 73.2937 108.404 73.6103 109.103C74.0245 110.171 76.9544 116.393 78.2057 119.458C79.457 122.523 80.5776 125.915 80.7171 126.983C80.8566 128.052 81.4583 133.488 81.2708 135.346C81.0833 137.203 81.2272 140.547 82.1428 142.758" fill="#FFBE9D"/>
<mask id="mask5_4681_57843" style="mask-type:luminance" maskUnits="userSpaceOnUse" x="65" y="97" width="18" height="51">
<path d="M77.9967 147.964C77.9967 147.964 74.7354 144.964 75.2586 141.31C75.7818 137.657 75.9082 135.18 75.9082 135.18L75.651 128.008C74.213 125.141 73.2388 122.064 72.7647 118.891C72.115 113.934 70.0266 108.065 70.0266 108.065C69.6325 107.802 69.2811 107.48 68.9846 107.11C68.5486 106.552 67.8248 106.238 67.1752 105.802C66.5255 105.366 65.5489 105.366 65.4094 105.153C65.2698 104.939 65.1783 104.595 65.5968 104.595C66.0154 104.595 67.1752 104.455 67.4542 104.691C67.7332 104.926 68.614 104.691 68.614 104.691L68.1518 97.9545C68.1518 97.9545 68.287 97.5839 68.6619 97.9545C69.0369 98.3251 69.4947 101.857 69.4947 101.857L70.1007 101.809L70.3798 97.488C70.3798 97.488 70.5629 97.1174 70.9378 97.488L71.4 101.809L72.4246 98.094C72.4246 98.094 72.7952 97.658 72.9783 98.2335C73.1614 98.809 72.5423 102.227 72.5423 102.227L74.3517 99.9034C74.3517 99.9034 74.6787 99.8598 74.6787 100.091C74.6787 100.322 73.2356 103.204 73.2356 103.204C73.2356 103.204 73.3751 106.592 73.2835 106.871C73.1806 107.631 73.2939 108.404 73.6105 109.103C74.0247 110.171 76.9546 116.393 78.206 119.458C79.4573 122.523 80.5778 125.915 80.7173 126.983C80.8568 128.052 81.4585 133.488 81.271 135.346C81.0836 137.203 81.2274 140.547 82.143 142.758" fill="white"/>
</mask>
<g mask="url(#mask5_4681_57843)">
<path opacity="0.1" d="M78.2228 147.702L82.1903 142.779C81.2617 140.551 81.1221 137.207 81.3183 135.367C81.5145 133.528 80.8824 128.073 80.7646 127.005C80.6469 125.937 79.5089 122.545 78.2533 119.48C77.9655 118.778 77.5862 117.901 77.172 116.964C77.8958 119.24 79.2953 123.765 79.7052 125.802C80.2632 128.588 77.8478 129.329 77.2941 132.115C76.7404 134.901 77.2941 138.982 77.2941 142.322C77.281 144.432 77.124 145.962 78.2228 147.702Z" fill="black"/>
</g>
<path d="M77.9964 147.964C77.9964 147.964 74.7352 144.964 75.2584 141.31C75.7816 137.657 75.908 135.18 75.908 135.18L75.6508 128.008C74.2128 125.141 73.2386 122.064 72.7644 118.891C72.1148 113.934 70.0264 108.065 70.0264 108.065C69.6323 107.802 69.2809 107.48 68.9843 107.11C68.5483 106.552 67.8246 106.238 67.1749 105.802C66.5253 105.366 65.5486 105.366 65.4091 105.153C65.2696 104.939 65.178 104.595 65.5966 104.595C66.0152 104.595 67.1749 104.455 67.454 104.691C67.733 104.926 68.6137 104.691 68.6137 104.691L68.1516 97.9545C68.1516 97.9545 68.2867 97.5839 68.6617 97.9545C69.0366 98.3251 69.4944 101.857 69.4944 101.857L70.1005 101.809L70.3795 97.488C70.3795 97.488 70.5626 97.1174 70.9376 97.488L71.3998 101.809L72.4244 98.094C72.4244 98.094 72.795 97.658 72.9781 98.2335C73.1612 98.809 72.5421 102.227 72.5421 102.227L74.3515 99.9034C74.3515 99.9034 74.6785 99.8598 74.6785 100.091C74.6785 100.322 73.2353 103.204 73.2353 103.204C73.2353 103.204 73.3748 106.592 73.2833 106.871C73.1803 107.631 73.2937 108.404 73.6103 109.103C74.0245 110.171 76.9544 116.393 78.2057 119.458C79.457 122.523 80.5776 125.915 80.7171 126.983C80.8566 128.052 81.4583 133.488 81.2708 135.346C81.0833 137.203 81.2272 140.547 82.1428 142.758" stroke="#263238" stroke-width="0.436" stroke-linecap="round" stroke-linejoin="round"/>
</svg>
