<svg width="58" height="58" viewBox="0 0 58 58" fill="none" xmlns="http://www.w3.org/2000/svg">
<g clip-path="url(#clip0_4735_35719)">
<rect width="58" height="58" rx="6" fill="#E23744"/>
<g clip-path="url(#clip1_4735_35719)">
<path d="M-3.62668 18H61.1778V40.9999H-3.62668V18Z" fill="#E23744"/>
<path d="M11.75 26.3496L11.7052 27.7895L7.9496 31.8717C9.51839 31.8717 10.513 31.8564 11.0867 31.8245C10.9205 32.5993 10.7852 33.2326 10.6491 34.1821C9.89477 34.1183 8.7187 34.1025 7.54185 34.1025C6.23021 34.1025 5.08369 34.1183 4.16373 34.1821L4.19431 32.7258L7.9496 28.66C6.30564 28.66 5.70218 28.6755 5.02381 28.6913C5.17416 27.9635 5.27992 27.1568 5.38542 26.3496C6.57679 26.397 7.04441 26.4126 8.59791 26.4126C10.0309 26.4126 10.8448 26.397 11.75 26.3496ZM16.0185 25.9219C13.5746 25.9219 11.7052 28.1055 11.7052 30.7171C11.7052 32.6789 12.8361 34.1821 15.0379 34.1821C17.4963 34.1821 19.3516 31.9982 19.3516 29.3713C19.3516 27.4258 18.2501 25.9219 16.0185 25.9219ZM15.2792 32.0832C14.7362 32.0832 14.4197 31.592 14.4197 30.6269C14.4197 29.187 15.0078 28.0322 15.7321 28.0322C16.2596 28.0322 16.5764 28.5073 16.5764 29.4877C16.5761 30.9118 16.0035 32.0832 15.2792 32.0832ZM50.5622 25.8135C48.0869 25.8135 46.1925 28.0259 46.1925 30.6705C46.1925 32.6589 47.3383 34.1821 49.5691 34.1821C52.0597 34.1821 53.9393 31.9694 53.9393 29.3085C53.9393 27.3369 52.8244 25.8135 50.5622 25.8135ZM49.7666 32.0749C49.2233 32.0749 48.9071 31.5837 48.9071 30.6186C48.9071 29.1787 49.4955 28.0241 50.2195 28.0241C50.7467 28.0241 51.064 28.4987 51.064 29.4794C51.0638 30.904 50.4906 32.0749 49.7666 32.0749ZM32.0351 28.7704C32.2313 27.4258 32.1258 26.2073 30.633 26.2073C29.5469 26.2073 28.3705 27.1252 27.541 28.66C27.7222 27.3937 27.6162 26.2073 26.1384 26.2073C25.0225 26.2073 23.8158 27.1723 22.9861 28.7704C23.1973 27.726 23.1522 26.5391 23.0918 26.2861C22.2322 26.4286 21.4784 26.5074 20.4224 26.5391C20.4527 27.2672 20.4074 28.2159 20.2715 29.1185L19.9247 31.4917C19.7889 32.4256 19.638 33.5017 19.4871 34.1821H22.2924C22.3077 33.7702 22.4134 33.1216 22.4886 32.5521L22.7299 30.9227C22.9259 29.862 23.7702 28.6125 24.4188 28.6125C24.7959 28.6125 24.7811 28.9762 24.6754 29.6567L24.4037 31.4917C24.2676 32.4256 24.1173 33.5017 23.9662 34.1821H26.8015C26.8168 33.7702 26.9072 33.1216 26.9824 32.5521L27.2235 30.9227C27.4197 29.862 28.2648 28.6125 28.9128 28.6125C29.2902 28.6125 29.2755 28.9602 29.2145 29.4353L28.5372 34.1821H31.125L32.0351 28.7704ZM45.5841 31.6978L45.2824 33.5652C44.8148 33.8182 43.9399 34.1824 42.9295 34.1824C41.2101 34.1824 40.8635 33.2645 41.1347 31.3183L41.5722 28.1851H40.7261L40.9651 26.157L41.889 26.1124L42.2361 24.6408L44.8446 23.6597L44.5131 26.1124H46.3079C46.2477 26.3654 46.036 27.7584 45.9766 28.1851H44.2261L43.8339 31.0808C43.7284 31.8245 43.7891 32.0936 44.3013 32.0936C44.6792 32.0933 45.2368 31.8717 45.5841 31.6978ZM35.688 32.7064C36.6375 32.5887 37.291 31.6734 37.4481 30.7602L37.4745 30.5155C37.0665 30.4242 36.4768 30.3547 35.905 30.4247C35.3603 30.4911 34.9072 30.7174 34.6636 31.045C34.4798 31.2804 34.3875 31.5619 34.4284 31.8976C34.4904 32.4005 35.0464 32.7847 35.688 32.7064ZM34.8797 34.1528C33.5396 34.3174 32.657 33.7855 32.392 32.5755C32.2259 31.8141 32.4566 30.9468 32.8602 30.4294C33.4007 29.7526 34.2815 29.3181 35.3564 29.187C36.2215 29.0797 36.9504 29.1325 37.6321 29.2616L37.6604 29.1447C37.6798 28.9578 37.6995 28.7712 37.6723 28.5477C37.6015 27.9741 37.1492 27.6324 36.0322 27.7698C35.2787 27.8624 34.5617 28.1345 34.0049 28.4443L33.4634 26.8079C34.218 26.3747 35.169 26.045 36.2575 25.9112C38.3367 25.6562 39.7976 26.3192 39.9848 27.8434C40.0343 28.2489 40.0403 28.6784 39.9892 29.0682C39.7222 30.953 39.5511 32.3712 39.4762 33.3218C39.464 33.469 39.465 33.7217 39.4783 34.0802L36.898 34.0779C36.953 33.9294 37.0022 33.728 37.046 33.4752C37.0751 33.3091 37.0958 33.0993 37.1088 32.8453C36.5636 33.5937 35.814 34.038 34.8797 34.1528Z" fill="white"/>
</g>
</g>
<defs>
<clipPath id="clip0_4735_35719">
<rect width="58" height="58" rx="6" fill="white"/>
</clipPath>
<clipPath id="clip1_4735_35719">
<rect width="64.8249" height="22.9999" fill="white" transform="translate(-3.63696 18)"/>
</clipPath>
</defs>
</svg>
