<svg width="147" height="40" viewBox="0 0 147 40" fill="none" xmlns="http://www.w3.org/2000/svg">
<g clip-path="url(#clip0_8469_47573)">
<path d="M29.7293 15.5244L11.5938 20.3925V15.8505L29.7293 10.9824V15.5244Z" fill="#4A4E69"/>
<path d="M29.7293 24.1494L11.5938 29.0175V24.4755L29.7293 19.6074V24.1494Z" fill="#4A4E69"/>
<path d="M20.6529 39.9732C16.7056 39.9732 12.8471 38.8015 9.56505 36.606C6.28305 34.4106 3.72504 31.2902 2.2145 27.6394C0.70396 23.9886 0.308734 19.9713 1.0788 16.0956C1.84887 12.2199 3.74964 8.65985 6.54075 5.86562C9.33186 3.0714 12.888 1.16851 16.7593 0.397587C20.6307 -0.373338 24.6435 0.0223288 28.2903 1.53455C31.9371 3.04677 35.054 5.60763 37.247 8.89329C39.4399 12.179 40.6104 16.0418 40.6104 19.9935C40.604 25.2905 38.4993 30.3687 34.7579 34.1142C31.0165 37.8598 25.944 39.9669 20.6529 39.9732ZM20.6529 4.10869C17.5118 4.10869 14.4412 5.04133 11.8296 6.78863C9.21805 8.53594 7.18279 11.0194 5.98129 13.9249C4.77978 16.8304 4.46603 20.0273 5.07971 23.1113C5.69339 26.1953 7.20693 29.0279 9.42888 31.2506C11.6508 33.4733 14.4814 34.9864 17.5624 35.5984C20.6434 36.2104 23.8366 35.8939 26.7379 34.6889C29.6393 33.4838 32.1184 31.4444 33.8618 28.8286C35.6051 26.2128 36.5344 23.1381 36.532 19.9935C36.5256 15.7804 34.8502 11.742 31.8733 8.76403C28.8965 5.7861 24.8612 4.11189 20.6529 4.10869Z" fill="#4A4E69"/>
<path d="M58.3489 27.0241C56.6114 28.5099 55.0186 28.4858 52.8226 28.4858H47.4531V11.5742H52.6657C54.6929 11.5742 56.6114 11.5742 58.0835 13.2171C58.7579 13.9868 59.1158 14.984 59.085 16.0075C59.0874 16.6906 58.906 17.3618 58.5599 17.9505C58.2139 18.5393 57.7158 19.0239 57.1182 19.3535C57.9601 19.596 58.6947 20.1179 59.2012 20.8335C59.7077 21.5491 59.956 22.4159 59.9055 23.2915C59.9308 23.9893 59.8048 24.6843 59.5361 25.3287C59.2674 25.9731 58.8624 26.5515 58.3489 27.0241ZM53.257 15.3552H51.5918V17.9885H53.2328C54.174 17.9885 54.9463 17.7107 54.9463 16.6356C54.9463 15.5605 54.1499 15.3552 53.257 15.3552ZM53.8 21.6003H51.628V24.6927H53.8C54.8739 24.6927 55.8271 24.3183 55.8271 23.062C55.8271 21.8057 54.7653 21.6003 53.8 21.6003Z" fill="#4A4E69"/>
<path d="M68.8813 28.4858V21.5762C68.8813 20.2112 68.4952 18.9307 66.8542 18.9307C65.2132 18.9307 64.7306 20.0058 64.7306 21.4433V28.4858H60.9297V11.5742H64.7306V16.9376C65.0796 16.3989 65.568 15.965 66.1438 15.6821C66.7196 15.3992 67.3613 15.2778 68.0005 15.331C68.6414 15.3114 69.2794 15.4259 69.8736 15.6672C70.4678 15.9085 71.0052 16.2712 71.4514 16.7322C72.6581 18.1214 72.6581 19.6314 72.6581 21.3708V28.4616L68.8813 28.4858Z" fill="#4A4E69"/>
<path d="M83.7567 28.485V27.1079C83.3522 27.7085 82.797 28.1921 82.1468 28.5102C81.4966 28.8282 80.7743 28.9695 80.0524 28.9198C76.155 28.9198 73.6814 25.8999 73.6814 22.1311C73.634 21.2622 73.7634 20.3927 74.0617 19.5754C74.3599 18.758 74.8209 18.0099 75.4166 17.3762C76.0123 16.7425 76.7304 16.2366 77.5273 15.8891C78.3241 15.5415 79.1832 15.3596 80.0524 15.3544C80.7705 15.314 81.4872 15.4568 82.1351 15.7695C82.783 16.0822 83.341 16.5545 83.7567 17.1421V15.7892H87.5817V28.485H83.7567ZM80.5592 18.9058C80.1353 18.9037 79.7154 18.9879 79.3251 19.1534C78.9347 19.3189 78.5821 19.5622 78.2886 19.8684C77.9952 20.1746 77.767 20.5374 77.618 20.9347C77.469 21.332 77.4023 21.7555 77.422 22.1794C77.3953 22.6122 77.4574 23.046 77.6045 23.4539C77.7516 23.8619 77.9805 24.2353 78.2773 24.5513C78.574 24.8673 78.9322 25.1191 79.3299 25.2912C79.7275 25.4633 80.1561 25.5521 80.5893 25.5521C81.0226 25.5521 81.4512 25.4633 81.8488 25.2912C82.2465 25.1191 82.6047 24.8673 82.9014 24.5513C83.1981 24.2353 83.4271 23.8619 83.5742 23.4539C83.7213 23.046 83.7834 22.6122 83.7567 22.1794C83.7786 21.7499 83.7113 21.3205 83.5593 20.9182C83.4073 20.516 83.1738 20.1496 82.8734 19.8421C82.5731 19.5347 82.2124 19.2927 81.8142 19.1316C81.4159 18.9704 80.9886 18.8936 80.5592 18.9058Z" fill="#4A4E69"/>
<path d="M92.9411 21.5151V28.4851H89.1523V15.7893H92.7722V17.1423C93.0553 16.5553 93.5112 16.0693 94.0786 15.7497C94.646 15.43 95.2976 15.2921 95.9456 15.3545V19.1717C94.2684 19.22 92.9411 19.5461 92.9411 21.5151Z" fill="#4A4E69"/>
<path d="M106.237 28.4863V27.1092C105.835 27.7098 105.282 28.1936 104.634 28.5117C103.986 28.8299 103.265 28.9711 102.545 28.9211C98.6355 28.9211 96.1619 25.9012 96.1619 22.1324C96.1144 21.2625 96.2442 20.392 96.5432 19.5739C96.8422 18.7557 97.3042 18.007 97.9012 17.3732C98.4983 16.7393 99.2178 16.2336 100.016 15.8868C100.814 15.54 101.675 15.3593 102.545 15.3557C103.261 15.3174 103.975 15.4612 104.621 15.7738C105.267 16.0864 105.823 16.5576 106.237 17.1435V15.7905H110.026V28.4863H106.237ZM103.04 18.9071C102.617 18.9066 102.198 18.9921 101.809 19.1583C101.42 19.3245 101.069 19.568 100.777 19.8741C100.485 20.1801 100.258 20.5424 100.109 20.9388C99.9612 21.3353 99.8949 21.7578 99.9145 22.1807C99.9145 22.5963 99.9963 23.0079 100.155 23.3918C100.314 23.7758 100.547 24.1247 100.84 24.4186C101.134 24.7125 101.482 24.9456 101.866 25.1046C102.25 25.2637 102.661 25.3456 103.076 25.3456C103.491 25.3456 103.902 25.2637 104.286 25.1046C104.669 24.9456 105.018 24.7125 105.311 24.4186C105.605 24.1247 105.838 23.7758 105.997 23.3918C106.155 23.0079 106.237 22.5963 106.237 22.1807C106.259 21.7512 106.192 21.3218 106.04 20.9196C105.888 20.5173 105.654 20.1509 105.354 19.8435C105.054 19.536 104.693 19.294 104.295 19.1329C103.896 18.9718 103.469 18.8949 103.04 18.9071Z" fill="#4A4E69"/>
<path d="M116.882 18.6774V28.4861H113.093V18.6774H111.223V15.7904H113.093V11.5625H116.882V15.7904H118.716V18.6774H116.882Z" fill="#4A4E69"/>
<path d="M131.455 21.768C130.066 22.8855 128.293 23.4106 126.52 23.2297H124.65V28.5326H120.523V11.6211H126.05C127.787 11.6211 129.863 11.6936 131.25 12.8291C131.892 13.3829 132.403 14.0719 132.747 14.8467C133.091 15.6214 133.26 16.4629 133.241 17.3106C133.258 18.1356 133.109 18.9556 132.802 19.7215C132.495 20.4874 132.037 21.1834 131.455 21.768ZM126.255 15.402H124.65V19.3521H126.412C127.824 19.3521 129.103 19.0259 129.103 17.3106C129.103 15.5953 127.667 15.3537 126.255 15.3537V15.402Z" fill="#4A4E69"/>
<path d="M146.432 23.291H136.924C137.031 23.9908 137.394 24.6257 137.943 25.0723C138.491 25.5189 139.186 25.7451 139.892 25.707C140.347 25.7137 140.795 25.6068 141.198 25.3958C141.6 25.1849 141.944 24.8766 142.197 24.499H146.082C145.603 25.7631 144.758 26.8555 143.655 27.6366C142.553 28.4176 141.243 28.8519 139.892 28.8839C138.541 28.9125 137.211 28.5351 136.076 27.8005C134.94 27.0659 134.05 26.0077 133.521 24.7622C132.992 23.5168 132.847 22.1412 133.105 20.8126C133.364 19.4841 134.014 18.2635 134.972 17.3081C135.93 16.3528 137.151 15.7065 138.479 15.4525C139.807 15.1984 141.181 15.3483 142.423 15.8829C143.665 16.4174 144.719 17.3121 145.448 18.4516C146.178 19.5911 146.55 20.9232 146.517 22.2763C146.519 22.6164 146.491 22.9561 146.432 23.291ZM139.844 18.5558C139.187 18.5246 138.54 18.7251 138.015 19.1224C137.49 19.5197 137.121 20.0886 136.972 20.7301H142.728C142.577 20.0876 142.205 19.5184 141.678 19.1213C141.152 18.7241 140.503 18.5241 139.844 18.5558Z" fill="#4A4E69"/>
</g>
<defs>
<clipPath id="clip0_8469_47573">
<rect width="145.808" height="39.9475" fill="white" transform="translate(0.707031 0.0253906)"/>
</clipPath>
</defs>
</svg>
