<svg width="113" height="40" viewBox="0 0 113 40" fill="none" xmlns="http://www.w3.org/2000/svg">
<path d="M39.6602 8.02734H45.1571V12.3172H39.6602V8.02734Z" fill="#4A4E69"/>
<path d="M24.1572 13.5507C25.6351 13.5507 26.9546 13.9203 28.1159 14.6591C29.2876 15.3874 30.206 16.4218 30.8711 17.7621C31.515 19.0498 31.837 20.5646 31.837 22.3061C31.837 23.9948 31.515 25.5042 30.8711 26.8342C30.2271 28.1639 29.3193 29.2037 28.1475 29.9531C26.9652 30.7131 25.6351 31.0929 24.1572 31.0929C23.0804 31.0929 22.067 30.8713 21.1169 30.4281C20.1669 29.9845 19.354 29.362 18.6784 28.5597V30.6905H13.168V8.02539H18.6784V16.0682C19.354 15.266 20.1669 14.6486 21.1169 14.2159C22.067 13.7723 23.0804 13.5507 24.1572 13.5507ZM22.5104 26.5175C23.2916 26.5175 23.9883 26.3381 24.6006 25.9791C25.2128 25.6201 25.6932 25.1189 26.0415 24.4752C26.3899 23.8418 26.5641 23.1186 26.5641 22.3061C26.5641 21.5145 26.3899 20.7968 26.0415 20.1528C25.6932 19.509 25.2128 19.0075 24.6006 18.6488C23.9883 18.2898 23.2916 18.1105 22.5104 18.1105C21.7714 18.1105 21.1117 18.2898 20.5311 18.6488C19.9505 18.9973 19.4965 19.4879 19.1693 20.1211C18.842 20.7651 18.6784 21.4933 18.6784 22.3061C18.6784 23.1186 18.842 23.8472 19.1693 24.4909C19.4965 25.1241 19.9505 25.6201 20.5311 25.9791C21.1117 26.3381 21.7714 26.5175 22.5104 26.5175Z" fill="#4A4E69"/>
<path d="M32.5898 30.6905V8.02539H38.1002V30.6905H32.5898Z" fill="#4A4E69"/>
<path d="M39.6641 30.6899V13.9258H45.1429V30.6899H39.6641Z" fill="#4A4E69"/>
<path d="M57.044 13.5508C58.2158 13.5508 59.2716 13.8252 60.2109 14.3741C61.1505 14.9125 61.8894 15.6725 62.4277 16.654C62.9452 17.6462 63.2037 18.7703 63.2037 20.0263V30.6905H57.9467V21.2612C57.9467 20.6489 57.8254 20.1054 57.5823 19.6305C57.3501 19.145 57.0177 18.7703 56.5847 18.5064C56.1626 18.2425 55.6666 18.1105 55.0965 18.1105C54.5582 18.1105 54.0618 18.2425 53.608 18.5064C53.1539 18.7597 52.8003 19.1081 52.547 19.5514C52.2831 19.9735 52.1512 20.4695 52.1512 21.0396L52.1195 30.6905H46.6406V13.9309H52.1195V15.8467C52.6367 15.129 53.3281 14.5695 54.1937 14.1682C55.0594 13.7567 56.0095 13.5508 57.044 13.5508Z" fill="#4A4E69"/>
<path d="M75.3113 21.2611L81.5278 30.6905H75.305L71.6695 24.7599L69.991 26.7074V30.6905H64.4805V8.02539H69.991V20.5486L75.2887 13.9221L81.5073 13.9263L75.3113 21.2611Z" fill="#4A4E69"/>
<path d="M82.3672 30.6911V13.9258H87.8641V30.6911H82.3672Z" fill="#4A4E69"/>
<path d="M99.4755 25.9131L100.568 29.4436C100.072 29.9189 99.4438 30.3038 98.6836 30.5994C97.9342 30.895 97.2005 31.043 96.4828 31.043C95.4481 31.043 94.5245 30.8159 93.7117 30.3621C92.8989 29.8977 92.2654 29.2537 91.8113 28.4303C91.3575 27.6284 91.1305 26.7048 91.1305 25.6598V18.2628H88.9297V13.9265H91.1305V8.02734H96.3877V13.9265H99.8554V18.2628H96.3877V24.6465C96.3877 25.1849 96.5302 25.623 96.8152 25.9605C97.1003 26.2984 97.4644 26.4672 97.9079 26.4672C98.2243 26.4672 98.5199 26.4198 98.7944 26.3247C99.0688 26.2299 99.2959 26.0925 99.4755 25.9131Z" fill="#4A4E69"/>
<path d="M82.3672 8.02734H87.8641V12.3172H82.3672V8.02734Z" fill="#4A4E69"/>
</svg>
