<svg width="373" height="252" viewBox="0 0 373 252" fill="none" xmlns="http://www.w3.org/2000/svg">
<path opacity="0.2" d="M368.651 250.956L362.546 232.018L346.695 217.177L338.735 196.161H298.516L287.949 200.341L250.378 202.026L230.319 213.021L182.562 214.518C182.562 214.518 169.03 222.285 168.05 222.854C167.07 223.424 143.646 227.592 143.646 227.592L122.835 229.171H87.5185L54.0156 243.665L35.5 251.015H368.651" fill="#C7C8D1"/>
<path opacity="0.1" d="M230.318 213.021L246.861 219.349L271.142 222.86L255.25 211.471L250.36 202.025L230.318 213.021Z" fill="black"/>
<path opacity="0.1" d="M134.719 227.991L146.706 236.779L185.804 237.061L203.932 240.043L189.062 230.533L172.472 230.122L168.051 222.86L134.719 227.991Z" fill="black"/>
<path opacity="0.1" d="M54.0156 243.635L72.6486 240.348L85.9218 242.561L104.925 237.583L87.5186 229.17L54.0156 243.635Z" fill="black"/>
<path d="M269.77 49.6326C273.727 59.9823 284.705 73.7017 287.446 74.7055C291.802 76.2905 305.615 70.7136 310.852 67.9309C312.425 67.0915 305.697 53.0316 304.095 54.059C300.696 56.2369 291.397 60.1291 290.182 60.0351C289.372 59.9705 280.707 52.2156 275.329 47.6542C268.525 41.8835 268.731 46.9146 269.77 49.6326Z" fill="#D3766A"/>
<path d="M278.667 66.5691L283.739 53.607C280.482 50.5091 276.966 47.6947 273.23 45.1946C268.006 41.8719 267.742 47.2082 271.687 54.5874C275.631 61.9666 278.667 66.5691 278.667 66.5691Z" fill="#2F945A"/>
<path d="M277.016 63.0703C277.996 60.2231 279.176 57.4405 280.409 54.6931C280.755 53.9123 281.119 53.1433 281.506 52.386C281.506 52.386 281.553 52.386 281.542 52.386C281.025 53.7949 280.444 55.1803 279.88 56.5775C279.317 57.9747 278.706 59.366 278.119 60.7456C277.779 61.5264 277.432 62.3013 277.074 63.0938C277.051 63.1231 277.004 63.1055 277.016 63.0703Z" fill="#143E26"/>
<path opacity="0.2" d="M281.599 59.0375L278.664 66.5752C278.664 66.5752 275.629 61.9786 271.684 54.5935C269.541 50.5723 268.637 47.1674 269.101 45.4238C272.277 48.8522 278.189 55.2745 281.599 59.0375Z" fill="black"/>
<path d="M306.256 68.2422C304.419 67.7725 302.241 55.8848 303.585 54.4758C304.079 54.0492 304.625 53.6882 305.211 53.4015C306.95 51.3376 308.376 49.0293 309.444 46.5507C310.618 43.5508 312.027 38.966 313.659 39.5413C316.048 40.369 314.968 46.3746 314.14 49.7912C315.978 49.2746 317.61 48.9987 318.619 49.2041C321.966 49.8323 322.94 62.6476 320.257 64.8373C317.574 67.027 308.076 68.7236 306.256 68.2422Z" fill="#D3766A"/>
<path d="M313.377 1.8135e-05L312.02 0.10498L324.267 158.547L325.625 158.442L313.377 1.8135e-05Z" fill="#143E26"/>
<path d="M312.258 48.8404C311.589 50.4783 313.908 50.3315 313.908 50.3315C313.908 50.3315 310.626 51.3471 310.591 53.3079C310.556 55.2686 313.35 54.9105 313.526 54.8929C313.35 54.9516 310.362 55.9613 310.532 57.9338C310.703 59.9063 313.468 59.2195 313.632 59.1725C313.485 59.2723 311.566 60.6753 312.035 62.143C312.834 64.6673 317.841 61.2154 319.931 61.6909C319.931 61.6909 318.857 65.5303 318.868 65.6418C318.868 65.6418 324.369 62.2486 324.856 59.3956C324.933 58.981 324.866 58.5528 324.666 58.1814C324.467 57.8101 324.146 57.5178 323.759 57.3526C323.759 57.3526 325.432 56.5014 325.35 54.9457C325.303 54.1473 323.988 53.5075 323.988 53.5075C324.36 53.2973 324.667 52.988 324.874 52.6139C325.082 52.2397 325.181 51.8155 325.162 51.3882C325.038 50.2904 323.741 49.8149 323.741 49.8149C323.741 49.8149 324.669 48.5234 324.175 47.4374C323.189 45.2418 313.697 45.3357 312.258 48.8404Z" fill="#D3766A"/>
<path d="M324.057 53.49C324.098 53.49 324.098 53.4313 324.057 53.4195C320.465 52.5984 316.698 53.0898 313.437 54.8049C313.326 54.8695 313.29 55.0398 313.437 54.9752C315.697 53.9185 320.998 53.2493 324.057 53.49Z" fill="#143E26"/>
<path d="M313.471 59.3778C316.671 57.7282 320.082 57.2761 323.651 57.3113C323.698 57.3113 323.692 57.2468 323.651 57.235C321.89 56.7419 319.635 56.9591 317.88 57.2761C316.242 57.5358 314.701 58.2222 313.413 59.2662C313.36 59.3308 313.401 59.413 313.471 59.3778Z" fill="#143E26"/>
<path d="M313.855 50.302C313.737 50.349 313.937 50.4664 313.819 50.5192C313.332 50.7423 310.52 52.3332 310.761 53.4545C310.96 54.3585 312.311 54.7225 312.886 54.6579L314.324 54.4935L313.027 55.1452C312.45 55.4331 311.923 55.8116 311.465 56.2664C311.242 56.4659 311.064 56.7102 310.941 56.9833C310.819 57.2564 310.755 57.5522 310.755 57.8515C310.758 58.1293 310.856 58.3978 311.034 58.6116C311.211 58.8254 311.457 58.9716 311.73 59.0256C312.341 59.1411 312.973 59.0945 313.561 58.8905L315.205 58.3974L313.819 59.4013C313.435 59.6804 313.086 60.0057 312.78 60.3699C312.47 60.7042 312.266 61.123 312.193 61.5734C312.172 61.7757 312.207 61.9799 312.297 62.1627C312.386 62.3455 312.525 62.4994 312.698 62.6066C313.118 62.793 313.583 62.8542 314.037 62.7827C315.03 62.6472 316.012 62.4332 316.972 62.1428C317.459 62.0136 317.946 61.8786 318.44 61.773C318.931 61.6384 319.445 61.6084 319.948 61.6849C319.447 61.6622 318.947 61.7379 318.475 61.908C317.993 62.0547 317.524 62.2191 317.048 62.3835C316.097 62.7462 315.115 63.0193 314.113 63.1995C313.57 63.3042 313.009 63.247 312.499 63.0351C312.233 62.8916 312.015 62.6733 311.872 62.4072C311.729 62.1412 311.667 61.839 311.694 61.5381C311.758 60.9808 311.987 60.4553 312.352 60.0294C312.682 59.6139 313.065 59.243 313.491 58.9258L313.749 59.4365C313.055 59.6829 312.308 59.7456 311.583 59.6185C311.184 59.534 310.828 59.3141 310.573 58.9962C310.33 58.6759 310.19 58.2887 310.174 57.8867C310.174 57.5077 310.254 57.133 310.409 56.787C310.564 56.4411 310.79 56.1316 311.072 55.879C311.593 55.3964 312.187 55.0001 312.833 54.7049L312.98 55.198C312.246 55.2567 310.696 55.016 310.209 53.6541C309.822 51.7579 313.215 50.4899 313.855 50.302Z" fill="#143E26"/>
<path d="M313.889 50.3315C313.526 50.2855 313.174 50.1825 312.844 50.0262C312.709 49.9693 312.593 49.877 312.507 49.7591C312.421 49.6412 312.369 49.5022 312.356 49.357C312.367 49.0339 312.473 48.7213 312.662 48.4588C312.855 48.1535 313.073 47.8717 313.307 47.543C312.946 47.7 312.622 47.9321 312.356 48.2239C312.041 48.5337 311.862 48.956 311.857 49.398C311.88 49.6385 311.977 49.866 312.133 50.0497C312.29 50.2206 312.495 50.3412 312.72 50.396C313.107 50.4982 313.516 50.4756 313.889 50.3315Z" fill="#143E26"/>
<path d="M259.704 167.43C259.704 167.43 255.865 189.016 255.859 189.028C255.272 193.178 254.802 196.83 254.744 198.743C254.68 199.189 254.722 199.644 254.867 200.07C255.982 201.086 289.021 206.868 290.237 206.68C291.452 206.492 291.023 203 289.92 201.755C288.816 200.51 277.151 192.638 277.151 192.638L280.709 171.017L259.704 167.43Z" fill="#D3766A"/>
<path d="M256.48 184.566C256.48 184.566 255.893 189.016 255.858 189.028C255.271 193.178 254.801 196.83 254.742 198.743C254.73 199.189 254.772 199.634 254.866 200.07C255.981 201.086 289.02 206.868 290.235 206.68C291.451 206.493 291.022 203 289.918 201.755C288.815 200.51 277.15 192.638 277.15 192.638L277.849 188.118L256.48 184.566Z" fill="#EBEBEB"/>
<path d="M290.23 206.863C288.992 207.05 255.412 201.186 254.273 200.153C253.839 199.765 254.238 194.499 255.7 188.852L277.339 192.662C277.339 192.662 288.774 200.587 289.901 201.855C291.029 203.123 291.475 206.681 290.23 206.863Z" fill="#2F945A"/>
<path d="M289.984 205.436C284.378 204.315 261.671 200.323 256.041 199.636C256 199.636 255.994 199.665 256.041 199.671C261.571 200.904 284.319 204.714 289.972 205.542C290.09 205.542 290.102 205.46 289.984 205.436Z" fill="#143E26"/>
<path d="M287.952 200.27C287.329 200.144 286.687 200.149 286.067 200.284C285.446 200.42 284.86 200.683 284.347 201.057C283.424 201.724 282.794 202.72 282.586 203.839C282.586 203.875 282.645 203.886 282.656 203.839C283.036 202.759 283.757 201.831 284.71 201.196C285.663 200.561 286.796 200.252 287.94 200.317C287.987 200.34 287.999 200.276 287.952 200.27Z" fill="#143E26"/>
<path d="M279.006 193.531C276.764 193.108 274.01 193.448 272.29 195.045C272.22 195.104 272.29 195.198 272.384 195.18C274.534 194.489 276.752 194.032 279 193.818C279.034 193.812 279.064 193.795 279.086 193.769C279.108 193.743 279.12 193.711 279.121 193.677C279.122 193.643 279.111 193.61 279.09 193.583C279.069 193.557 279.039 193.538 279.006 193.531Z" fill="#143E26"/>
<path d="M280.631 194.511C278.383 194.088 275.63 194.429 273.909 196.025C273.839 196.09 273.909 196.184 274.003 196.16C276.153 195.469 278.371 195.013 280.619 194.798C280.653 194.793 280.684 194.776 280.706 194.751C280.729 194.726 280.742 194.693 280.743 194.659C280.745 194.625 280.734 194.592 280.714 194.565C280.693 194.538 280.664 194.519 280.631 194.511Z" fill="#143E26"/>
<path d="M282.252 195.526C280.003 195.098 277.25 195.438 275.53 197.035C275.465 197.1 275.53 197.194 275.624 197.17C277.774 196.482 279.992 196.025 282.24 195.808C282.277 195.81 282.314 195.796 282.341 195.771C282.369 195.746 282.385 195.711 282.387 195.673C282.388 195.636 282.375 195.599 282.35 195.572C282.324 195.544 282.289 195.528 282.252 195.526Z" fill="#143E26"/>
<path d="M283.873 196.477C281.624 196.055 278.871 196.389 277.151 197.992C277.086 198.051 277.151 198.145 277.245 198.121C279.396 197.433 281.613 196.976 283.861 196.759C283.88 196.76 283.898 196.757 283.915 196.751C283.933 196.744 283.949 196.735 283.962 196.722C283.976 196.71 283.987 196.694 283.995 196.678C284.003 196.661 284.007 196.643 284.008 196.624C284.009 196.606 284.006 196.587 283.999 196.57C283.993 196.552 283.983 196.537 283.971 196.523C283.958 196.509 283.943 196.498 283.926 196.49C283.909 196.483 283.891 196.478 283.873 196.477Z" fill="#143E26"/>
<path d="M261.532 76.2554C261.532 76.2554 265.642 130.91 265.777 131.685C265.777 131.755 254.746 187.554 254.746 187.554L278.668 191.699C278.668 191.699 286.576 137.913 286.646 131.972C286.77 121.793 285.284 91.2545 281.539 76.2554H261.532Z" fill="#216940"/>
<path d="M278.589 185.834C278.002 185.588 263.76 182.811 258.177 182.259C258.119 182.259 257.978 182.394 258.177 182.465C259.692 182.999 278.214 186.016 278.572 185.987C278.63 185.993 278.666 185.858 278.589 185.834Z" fill="#143E26"/>
<path d="M267.016 80.4648C266.928 79.8308 266.816 79.1967 266.705 78.5627C266.705 78.4688 266.528 78.4923 266.54 78.5921C266.74 81.3277 267.127 84.0575 267.421 86.8108C267.714 89.5641 271.19 130.728 271.061 132.078C270.901 133.41 270.656 134.729 270.327 136.029C269.699 138.694 262.566 173.512 261.216 178.831C261.045 179.5 260.91 180.169 260.775 180.844C260.779 180.858 260.788 180.869 260.799 180.877C260.81 180.885 260.823 180.89 260.837 180.89C260.851 180.89 260.864 180.885 260.875 180.877C260.886 180.869 260.895 180.858 260.899 180.844C261.832 178.238 271.759 134.638 271.806 131.949C271.853 129.26 267.773 86.0007 267.016 80.4648Z" fill="#143E26"/>
<path d="M286.497 123.19L264.018 109.189C262.844 93.8258 261.529 76.2554 261.529 76.2554H281.524C284.536 88.2782 286.191 110.152 286.497 123.19Z" fill="#143E26"/>
<path d="M294.206 162.852C294.206 162.852 292.856 184.743 292.856 184.76C292.574 188.946 292.404 192.621 292.492 194.529C292.488 194.538 292.488 194.549 292.492 194.558C292.463 195.007 292.537 195.457 292.709 195.873V195.903C293.883 196.83 327.287 200.041 328.49 199.759C329.693 199.478 328.989 196.032 327.791 194.875C326.594 193.719 314.36 186.768 314.36 186.768L315.499 164.871L294.206 162.852Z" fill="#D3766A"/>
<path d="M293.132 180.263C293.132 180.263 292.856 184.742 292.856 184.76C292.574 188.946 292.404 192.621 292.492 194.528C292.488 194.538 292.488 194.548 292.492 194.558C292.514 195.003 292.587 195.444 292.709 195.873V195.902C293.883 196.83 327.287 200.041 328.49 199.759C329.693 199.477 328.989 196.031 327.791 194.875C326.594 193.718 314.36 186.768 314.36 186.768L314.7 182.212L293.132 180.263Z" fill="#EBEBEB"/>
<path d="M328.666 199.701C327.45 200.006 293.443 197.405 292.227 196.489C291.758 196.143 291.64 190.865 292.556 185.106L314.465 186.809C314.465 186.809 326.611 193.595 327.855 194.746C329.1 195.896 329.881 199.395 328.666 199.701Z" fill="#2F945A"/>
<path d="M328.284 198.303C322.596 197.716 299.607 195.955 293.942 195.808C293.895 195.808 293.889 195.808 293.942 195.843C299.566 196.536 322.572 198.133 328.284 198.397C328.396 198.403 328.402 198.315 328.284 198.303Z" fill="#143E26"/>
<path d="M325.765 193.36C325.132 193.294 324.492 193.36 323.886 193.554C323.28 193.748 322.72 194.066 322.243 194.487C321.384 195.237 320.844 196.287 320.734 197.423C320.734 197.458 320.799 197.464 320.805 197.423C321.081 196.307 321.714 195.312 322.607 194.588C323.5 193.865 324.605 193.452 325.754 193.413C325.758 193.411 325.762 193.407 325.765 193.403C325.769 193.399 325.771 193.394 325.772 193.389C325.773 193.384 325.773 193.379 325.772 193.374C325.771 193.369 325.769 193.364 325.765 193.36Z" fill="#143E26"/>
<path d="M316.236 187.513C313.959 187.308 311.252 187.912 309.697 189.667C309.632 189.738 309.732 189.82 309.802 189.791C311.878 188.899 314.043 188.232 316.26 187.801C316.293 187.792 316.322 187.771 316.342 187.743C316.361 187.715 316.371 187.681 316.368 187.647C316.365 187.613 316.35 187.581 316.326 187.556C316.302 187.532 316.27 187.517 316.236 187.513Z" fill="#143E26"/>
<path d="M317.916 188.335C315.638 188.13 312.932 188.734 311.376 190.49C311.312 190.56 311.412 190.642 311.482 190.613C313.556 189.719 315.722 189.051 317.94 188.623C317.973 188.614 318.002 188.593 318.021 188.565C318.041 188.537 318.05 188.503 318.047 188.469C318.045 188.435 318.03 188.403 318.006 188.378C317.982 188.354 317.95 188.339 317.916 188.335Z" fill="#143E26"/>
<path d="M319.625 189.157C317.347 188.951 314.641 189.556 313.085 191.311C313.021 191.376 313.121 191.464 313.191 191.435C315.266 190.541 317.431 189.872 319.649 189.439C319.686 189.436 319.72 189.418 319.745 189.389C319.769 189.36 319.781 189.323 319.778 189.286C319.775 189.249 319.757 189.214 319.728 189.19C319.699 189.166 319.662 189.154 319.625 189.157Z" fill="#143E26"/>
<path d="M321.332 189.979C319.054 189.773 316.348 190.372 314.792 192.133C314.728 192.198 314.828 192.286 314.898 192.257C316.973 191.363 319.138 190.694 321.356 190.261C321.393 190.258 321.428 190.24 321.452 190.211C321.476 190.182 321.488 190.145 321.485 190.108C321.482 190.071 321.464 190.036 321.435 190.012C321.407 189.988 321.369 189.976 321.332 189.979Z" fill="#143E26"/>
<path d="M291.733 183.351L316.342 185.605C316.342 185.605 323.135 119.65 320.739 112.594C317.575 103.248 276.47 90.0687 277.509 88.7419C277.509 88.7419 279.47 80.8285 281.53 76.2554H251.327C247.258 88.2488 249.565 96.7376 250.969 99.1503C257.567 110.404 297.997 122.11 297.586 125.08C296.929 129.718 291.733 183.351 291.733 183.351Z" fill="#216940"/>
<path d="M314.655 180.099C314.068 179.911 299.603 178.502 293.997 178.484C293.938 178.484 293.809 178.637 293.997 178.69C295.552 179.077 314.279 180.316 314.631 180.263C314.708 180.263 314.714 180.116 314.655 180.099Z" fill="#143E26"/>
<path d="M280.918 88.3427C280.524 88.3427 280.137 88.3427 279.744 88.3427C279.35 88.3427 278.963 88.4132 278.569 88.4601C277.812 88.5541 277.067 88.7126 276.321 88.8769C274.819 89.191 273.353 89.6592 271.947 90.2741C271.901 90.2741 271.947 90.368 271.983 90.3563C273.486 90.051 274.965 89.6636 276.462 89.3524C277.19 89.2057 277.918 89.0883 278.646 88.9415C279.027 88.8652 279.415 88.783 279.82 88.7184C280.225 88.6539 280.577 88.5306 280.959 88.4601C281.012 88.4719 281.012 88.3368 280.918 88.3427Z" fill="#143E26"/>
<path d="M280.968 76.285C280.968 76.2497 280.921 76.2497 280.915 76.285C280.715 78.9496 280.322 81.5962 279.741 84.2043C279.64 84.8081 279.378 85.3738 278.984 85.8421C278.749 86.0828 278.444 86.2824 278.132 86.0593C278.005 85.9477 277.907 85.8076 277.845 85.6504C277.782 85.4933 277.758 85.3236 277.774 85.1553C277.826 84.4134 277.916 83.6747 278.044 82.9421C278.127 82.2435 278.185 81.5449 278.244 80.8463C278.385 79.1615 278.379 78.0637 278.438 76.3789C278.438 76.3202 278.35 76.3202 278.35 76.3789C278.25 78.14 277.98 79.2789 277.763 81.0107C277.651 81.8502 277.528 82.6838 277.41 83.5233C277.305 84.2454 277.046 85.0966 277.281 85.8187C277.351 86.0468 277.481 86.2519 277.658 86.4121C277.834 86.5723 278.051 86.6817 278.285 86.7286L278.232 86.8577L277.974 87.4859C277.81 87.8968 277.657 88.3195 277.475 88.7246C277.475 88.7833 277.522 88.842 277.563 88.7891C277.874 88.4481 278.116 88.0492 278.273 87.615C278.39 87.3258 278.482 87.0273 278.549 86.7227C278.842 86.6425 279.113 86.4944 279.338 86.2905C279.563 86.0865 279.738 85.8324 279.847 85.5486C280.115 84.9333 280.295 84.283 280.381 83.6172C280.533 82.766 280.657 81.9089 280.762 81.0518C280.975 79.4724 281.044 77.8769 280.968 76.285Z" fill="#143E26"/>
<path d="M267.106 78.5686C267.106 78.4746 266.942 78.4864 266.919 78.5686C266.766 79.2554 266.713 79.9657 266.613 80.6643C266.514 81.3629 266.402 82.0322 266.249 82.7014C266.042 83.8946 265.546 85.0191 264.805 85.9771C263.12 87.932 260.232 88.4427 257.761 88.4016C257.702 88.4016 257.708 88.4838 257.761 88.4897C259.921 88.7245 262.181 88.8595 264.095 87.6385C265.891 86.4644 266.59 84.5154 266.913 82.5018C267.193 81.2103 267.259 79.8814 267.106 78.5686Z" fill="#143E26"/>
<path d="M284.288 91.8183C283.15 91.1914 281.974 90.6385 280.765 90.1628C279.591 89.6873 278.364 89.3292 277.178 88.8713C277.132 88.8713 277.096 88.9359 277.143 88.9535C278.317 89.4819 279.491 90.0983 280.666 90.6031C281.833 91.1092 283.031 91.5405 284.252 91.8946C284.305 91.9064 284.329 91.8359 284.288 91.8183Z" fill="#143E26"/>
<path d="M289.872 115.981C288.698 115.288 269.455 107.017 268.263 106.371C267.071 105.725 265.856 105.021 264.67 104.31C262.393 102.978 260.205 101.499 258.119 99.884C256.097 98.3892 254.511 96.3805 253.528 94.0664C252.708 91.7064 252.344 89.2123 252.454 86.7165C252.47 83.504 252.76 80.2988 253.322 77.1359C253.319 77.1269 253.313 77.1191 253.305 77.1136C253.297 77.1082 253.288 77.1052 253.278 77.1052C253.269 77.1052 253.259 77.1082 253.252 77.1136C253.244 77.1191 253.238 77.1269 253.234 77.1359C252.67 80.0019 252.278 82.8994 252.06 85.8125C251.833 88.3759 252.059 90.9594 252.729 93.4441C253.486 95.8319 254.9 97.9582 256.809 99.5788C258.862 101.297 261.069 102.822 263.402 104.134C264.758 104.956 266.144 105.719 267.552 106.447C268.961 107.175 288.369 115.629 289.86 116.116C289.901 116.145 289.943 116.022 289.872 115.981Z" fill="#143E26"/>
<path d="M302.263 122.145C301.923 121.464 286.372 114.22 285.098 113.897C285.039 113.897 284.975 114.109 285.027 114.132C285.879 114.484 301.541 122.016 301.764 122.351C302.234 123.055 297.332 174.686 297.338 175.185C297.338 175.218 297.351 175.249 297.374 175.272C297.397 175.296 297.428 175.309 297.461 175.309C297.494 175.309 297.525 175.296 297.548 175.272C297.571 175.249 297.584 175.218 297.584 175.185C297.866 174.287 302.662 122.938 302.263 122.145Z" fill="#143E26"/>
<path d="M248.423 86.0123C248.511 86.1003 283.499 84.075 283.805 83.6993C284.233 83.1709 274.641 49.0281 270.837 44.4667C270.021 43.4863 267.461 43.2926 265.301 43.6742C264.738 43.7614 264.184 43.8969 263.645 44.0793H263.592C263.158 44.2277 262.751 44.4479 262.389 44.7309C256.554 49.7971 252.462 64.6554 251.482 69.7568C249.861 78.181 248.141 85.6952 248.423 86.0123Z" fill="#2F945A"/>
<path d="M280.497 70.9015C280.254 70.9227 280.015 70.9679 279.781 71.0365C279.201 71.2141 278.664 71.5077 278.202 71.8995C277.582 72.454 277.055 73.1041 276.64 73.825C276.593 73.8955 276.552 73.9659 276.511 74.0422C276.335 74.3358 276.176 74.6293 276.018 74.9522L275.942 75.1107C275.913 75.1638 275.887 75.2187 275.865 75.275C275.349 76.3259 274.897 77.4119 274.403 78.4921C273.909 79.7221 273.184 80.8461 272.267 81.803C271.774 82.2815 271.131 82.5758 270.447 82.6367C269.781 82.6562 269.116 82.565 268.48 82.3666C267.249 81.9051 266.116 81.216 265.14 80.3354L264.641 79.9069C264.488 79.7836 264.341 79.6544 264.195 79.5253C263.608 79.0087 263.021 78.498 262.392 78.0283L262.152 77.8522L261.893 77.6643C260.974 76.9589 259.892 76.4948 258.747 76.3141C258.44 76.2868 258.133 76.277 257.825 76.2848C257.514 76.32 257.209 76.3787 256.903 76.4315C256.307 76.5964 255.736 76.8434 255.207 77.1653C255.037 77.271 254.872 77.3767 254.708 77.5C254.006 78.0298 253.336 78.6002 252.7 79.2083L252.354 79.5194L252.242 79.6192C251.311 80.4643 250.246 81.1487 249.09 81.6445C249.09 81.5213 249.137 81.398 249.166 81.2688C250.176 80.7417 251.106 80.0758 251.931 79.2905L252.242 79.0028C252.912 78.3864 253.563 77.7289 254.309 77.1653C254.463 77.0433 254.624 76.9296 254.79 76.8249L254.919 76.7368C256.065 75.9859 257.441 75.6675 258.8 75.8386C260.042 76.0756 261.201 76.632 262.163 77.453L262.345 77.5939C262.439 77.6702 262.533 77.7465 262.627 77.8346C263.214 78.3336 263.801 78.8619 264.359 79.3844L264.788 79.7719C264.946 79.9127 265.105 80.0536 265.269 80.1887C266.208 81.0734 267.322 81.7514 268.539 82.1788C269.146 82.3652 269.784 82.4369 270.417 82.3901C271.037 82.3139 271.612 82.0256 272.043 81.5741C272.879 80.6092 273.533 79.5015 273.975 78.3042C274.427 77.2417 274.85 76.1497 275.343 75.0872C275.365 75.0308 275.39 74.9759 275.419 74.9228C275.419 74.8524 275.478 74.7878 275.513 74.7173C275.707 74.324 275.912 73.9307 276.141 73.5432C276.177 73.4747 276.216 73.4081 276.259 73.3436C276.671 72.635 277.19 71.9936 277.797 71.4416C278.317 70.9789 278.935 70.6397 279.605 70.4495C279.836 70.386 280.072 70.3369 280.309 70.3027C280.38 70.4847 280.427 70.7019 280.497 70.9015ZM282.505 78.0283C282.334 78.0283 282.164 78.0283 282 78.0283C281.697 77.9759 281.397 77.9053 281.102 77.817C280.357 77.5605 279.669 77.1617 279.076 76.6429C278.9 76.4902 278.73 76.3259 278.566 76.1615C278.401 75.9971 278.237 75.821 278.078 75.6449C277.574 75.0578 277.104 74.4708 276.64 73.8837C276.517 73.7194 276.394 73.555 276.264 73.3965C276.065 73.1323 275.859 72.8623 275.677 72.604C274.897 71.5273 273.919 70.6089 272.795 69.8977C272.216 69.5705 271.584 69.346 270.928 69.2343C270.247 69.1569 269.56 69.312 268.979 69.6746C267.886 70.4293 266.948 71.3857 266.214 72.4924C265.433 73.5374 264.711 74.6175 263.913 75.6214C263.388 76.2921 262.798 76.9095 262.152 77.4647C262.064 77.5411 261.97 77.6115 261.876 77.6819C261.643 77.8638 261.395 78.0268 261.136 78.1692C260.605 78.4598 260.019 78.6377 259.416 78.6917C258.803 78.7269 258.189 78.6533 257.602 78.4745C256.724 78.1992 255.905 77.7611 255.189 77.183C255.048 77.0714 254.913 76.954 254.778 76.8366L254.444 76.5255C253.551 75.6099 252.764 74.5978 252.096 73.508C251.749 72.9679 251.409 72.422 251.068 71.8702C251.027 72.0639 250.992 72.2635 250.951 72.4572C251.197 72.8916 251.444 73.326 251.708 73.7546C252.372 74.8961 253.16 75.9611 254.056 76.9305C254.138 77.0172 254.224 77.0995 254.315 77.1771C254.437 77.3002 254.566 77.4159 254.702 77.5234C255.506 78.2123 256.44 78.7314 257.449 79.0498C258.105 79.2598 258.793 79.3474 259.481 79.3081C260.173 79.2591 260.847 79.0587 261.453 78.721C261.785 78.5297 262.099 78.3097 262.392 78.0635C262.477 78.002 262.557 77.9353 262.633 77.8639C263.263 77.292 263.837 76.6609 264.347 75.9795C265.152 74.9404 265.85 73.8368 266.59 72.7801C267.263 71.695 268.128 70.742 269.144 69.9681C269.66 69.6165 270.282 69.4528 270.905 69.5043C271.533 69.5865 272.14 69.7856 272.695 70.0914C273.804 70.753 274.759 71.6436 275.495 72.7038C275.718 72.9855 275.93 73.2908 276.147 73.5667L276.511 74.0716C276.934 74.6586 277.362 75.2457 277.826 75.8327L277.873 75.8856L278.219 76.2906C278.952 77.1641 279.887 77.8452 280.943 78.2749C281.488 78.4685 282.061 78.5736 282.64 78.586C282.593 78.3805 282.552 78.2044 282.505 78.0283ZM282.176 76.8542C280.94 76.8233 279.719 76.5811 278.566 76.138L277.873 75.8856C277.227 75.6449 276.587 75.3866 275.942 75.14L275.425 74.9463C273.777 74.249 271.981 73.9745 270.2 74.1479C269.046 74.3267 267.999 74.9295 267.265 75.8386C266.508 76.7074 265.926 77.6702 265.228 78.5097C264.971 78.8299 264.69 79.1301 264.388 79.4079L264.218 79.5546C263.773 79.938 263.273 80.2508 262.733 80.4822C261.734 80.8937 260.661 81.0936 259.58 81.0692C257.375 81.0431 255.205 80.5088 253.24 79.5077L252.718 79.2611L252.272 79.0439C251.591 78.7152 250.904 78.3864 250.194 78.0929C250.086 78.0457 249.977 78.0046 249.865 77.9696L249.812 78.2455L250.07 78.3629C250.704 78.6623 251.327 79.0028 251.949 79.3433L252.371 79.5722L253.041 79.9186C254.048 80.4432 255.101 80.8736 256.187 81.2042C257.29 81.5216 258.433 81.6797 259.58 81.6739C260.743 81.7297 261.903 81.5293 262.979 81.0868C263.596 80.8112 264.165 80.4386 264.664 79.9832L264.817 79.8423C265.12 79.5526 265.4 79.2406 265.656 78.9089C266.373 78.0107 266.93 77.0303 267.617 76.1908C268.269 75.3229 269.218 74.7253 270.282 74.5119C271.373 74.335 272.488 74.3729 273.564 74.6234C274.178 74.7611 274.782 74.9396 275.372 75.1576L275.889 75.3514L276.716 75.6977C277.221 75.9091 277.726 76.1321 278.243 76.3376L279.1 76.6664C279.352 76.7544 279.605 76.8425 279.863 76.9188C280.66 77.1604 281.485 77.3005 282.317 77.3356C282.252 77.1184 282.217 76.9716 282.188 76.8249L282.176 76.8542Z" fill="white"/>
<path d="M261.112 45.5117C248.42 48.9166 238.945 54.6344 235.733 57.0531C233.638 58.6381 222.325 69.6453 219.842 72.7684C218.627 74.3006 229.335 83.5877 230.808 82.1025C232.816 80.0948 244.868 65.2013 245.038 65.0135C245.707 64.2855 259.274 52.7324 262.133 50.5251C266.923 46.8325 266.747 44.0029 261.112 45.5117Z" fill="#D3766A"/>
<path d="M206.364 87.1568C206.458 87.2348 206.57 87.2885 206.689 87.3131C206.809 87.3376 206.933 87.3324 207.05 87.2977C206.78 88.507 206.863 89.5403 207.708 89.9218C207.965 90.0204 208.245 90.0396 208.513 89.9768C208.781 89.914 209.024 89.7721 209.211 89.5696C209.156 89.8338 209.205 90.1092 209.348 90.3379C209.492 90.5666 209.718 90.731 209.98 90.7965C210.972 91.0725 212.545 89.3407 213.919 87.4504C213.185 88.8945 212.821 90.2095 213.708 90.4971C216.056 91.2427 218.674 86.6813 220.875 83.8459C221.543 82.9558 222.334 82.1652 223.224 81.4977C223.363 81.404 223.51 81.3235 223.664 81.257C223.823 81.1515 224.012 81.0992 224.203 81.1077C224.394 81.1161 224.577 81.1848 224.726 81.3039C225.208 81.7618 224.503 83.1238 223.77 83.8459C222.384 85.2137 221.832 88.1607 222.678 89.0413C223.916 90.3328 226.687 86.7753 227.961 85.7773C229.664 84.4388 231.39 80.8226 231.571 80.6171C231.571 80.6171 231.219 79.9244 230.268 78.3041C228.46 75.2221 225.449 70.6314 223.259 69.9739C218.702 71.4851 214.374 73.6145 210.397 76.3023C208.406 77.676 204.326 85.7479 206.364 87.1568Z" fill="#D3766A"/>
<path d="M218.787 80.5762C217.604 81.2734 216.599 82.236 215.852 83.3882C214.783 84.9497 214.537 86.0006 213.773 87.6443C213.773 87.6525 213.776 87.6606 213.78 87.6674C213.785 87.6743 213.791 87.6797 213.799 87.6828C213.806 87.686 213.815 87.6868 213.823 87.6852C213.831 87.6835 213.838 87.6795 213.844 87.6737C214.208 86.8929 215.535 84.3451 215.969 83.6289C216.653 82.3958 217.636 81.3542 218.828 80.5997C218.828 80.5997 218.787 80.5703 218.787 80.5762Z" fill="#143E26"/>
<path d="M216.32 78.4802C215.091 79.368 213.97 80.3965 212.98 81.5446C211.759 82.9594 211.078 84.7382 210.397 86.4582C209.986 87.4915 209.598 88.5305 209.223 89.5872C209.223 89.6283 209.275 89.6635 209.293 89.6166C209.974 87.8515 210.708 86.106 211.495 84.3801C212.214 82.7776 213.244 81.3332 214.524 80.1298C215.258 79.4489 215.545 79.126 216.326 78.5037L216.32 78.4802Z" fill="#143E26"/>
<path d="M214.037 76.5842C212.686 77.4883 211.471 78.2573 210.514 79.5782C209.507 81.0557 208.702 82.6607 208.119 84.3509C207.755 85.3078 207.426 86.2764 207.109 87.2509C207.109 87.2862 207.162 87.3155 207.174 87.2509C207.93 85.0939 208.824 82.9879 209.851 80.946C210.277 80.0697 210.853 79.2749 211.553 78.5978C212.331 77.853 213.171 77.1773 214.066 76.5784C214.066 76.5784 214.042 76.5842 214.037 76.5842Z" fill="#143E26"/>
<path d="M213.685 90.4971C213.494 90.4098 213.341 90.2552 213.257 90.0627C213.189 89.8747 213.171 89.6726 213.204 89.4756C213.27 89.0708 213.389 88.6762 213.556 88.3015C213.632 88.1078 213.715 87.9141 213.773 87.7145C213.773 87.7145 213.773 87.6793 213.773 87.6675C213.773 87.6558 213.773 87.6675 213.773 87.6264C213.773 87.5853 213.726 87.5677 213.703 87.5736C213.679 87.5795 213.65 87.6088 213.632 87.6206H213.603L213.509 87.7497L213.333 88.0139C213.104 88.3602 212.863 88.7066 212.611 89.0354C212.149 89.717 211.526 90.2736 210.797 90.6556C210.62 90.733 210.427 90.767 210.234 90.7547C210.041 90.7425 209.853 90.6843 209.687 90.5852C209.524 90.4985 209.398 90.3552 209.333 90.1822C209.269 90.0092 209.269 89.8185 209.335 89.6459L209.488 89.2056L209.141 89.5226C208.885 89.7684 208.546 89.9089 208.19 89.9159C208.019 89.9261 207.847 89.8874 207.697 89.8043C207.546 89.7212 207.422 89.597 207.339 89.4463C207.175 89.1201 207.086 88.7608 207.081 88.3955C207.056 88.0278 207.093 87.6585 207.192 87.3035L207.269 87.0453L207.016 87.1568C206.907 87.1882 206.791 87.1923 206.68 87.1688C206.568 87.1452 206.464 87.0948 206.376 87.0218C206.278 86.9536 206.194 86.8667 206.13 86.7659C206.065 86.6651 206.021 86.5526 206.001 86.4347C205.9 85.914 205.89 85.3797 205.971 84.8555C206.137 83.807 206.439 82.7846 206.87 81.8146C207.709 79.787 208.901 77.9245 210.392 76.314C208.827 77.8486 207.57 79.6678 206.688 81.6737C206.239 82.6774 205.93 83.7382 205.772 84.8262C205.675 85.3777 205.675 85.9419 205.772 86.4934C205.804 86.6373 205.858 86.7758 205.93 86.9044C206.005 87.0395 206.112 87.1544 206.241 87.239C206.364 87.34 206.51 87.4077 206.667 87.4355C206.823 87.4632 206.984 87.4502 207.134 87.3975L206.958 87.2448C206.851 87.6265 206.809 88.0234 206.834 88.4189C206.841 88.8283 206.944 89.2304 207.134 89.593C207.236 89.7842 207.393 89.9397 207.586 90.0392C207.77 90.1262 207.97 90.1742 208.173 90.1801C208.591 90.165 208.988 89.9955 209.288 89.7046L209.1 89.5872C209.018 89.8108 209.018 90.0563 209.1 90.2799C209.184 90.5009 209.344 90.6844 209.552 90.7965C209.749 90.9134 209.97 90.9818 210.198 90.9961C210.424 91.003 210.648 90.9609 210.856 90.8728C211.606 90.4589 212.245 89.8686 212.717 89.1528C212.963 88.8123 213.198 88.46 213.421 88.1078L213.591 87.8436C213.632 87.7556 213.762 87.6499 213.632 87.6793C213.585 87.873 213.503 88.0726 213.439 88.2663C213.28 88.6576 213.173 89.0682 213.122 89.4874C213.092 89.6984 213.12 89.9135 213.204 90.1096C213.308 90.2961 213.481 90.4349 213.685 90.4971Z" fill="#143E26"/>
<path d="M243.551 50.525L255.356 57.8455C258.969 55.2012 262.351 52.2554 265.465 49.0398C269.645 44.496 264.467 43.2808 256.53 45.8403C248.594 48.3999 243.551 50.525 243.551 50.525Z" fill="#2F945A"/>
<path d="M246.902 49.5037C249.52 50.9772 252.033 52.6327 254.533 54.341C255.232 54.8224 255.925 55.3214 256.6 55.838C255.308 55.0748 254.052 54.2588 252.79 53.4487C251.528 52.6385 250.26 51.8167 249.015 50.9713C248.311 50.4899 247.612 50.0144 246.919 49.5213C246.849 49.5272 246.872 49.4802 246.902 49.5037Z" fill="#143E26"/>
<path d="M261.231 53.836C261.272 53.836 261.26 53.7655 261.231 53.789C260.644 54.1178 260.098 54.47 259.54 54.8281C260.562 53.9417 261.548 53.0141 262.523 52.069C262.564 52.0279 262.523 51.9574 262.458 51.9985C261.161 53.02 259.863 54.0415 258.595 55.1099C257.973 55.6324 255.46 57.7692 255.378 57.7868C255.144 57.6688 254.916 57.5374 254.697 57.3935C254.644 57.3935 254.597 57.4405 254.644 57.4698C254.838 57.5755 255.331 57.9923 255.454 58.0158C256.47 57.3531 257.441 56.6236 258.36 55.832L259.035 55.2449C259.781 54.8164 260.503 54.3291 261.231 53.836Z" fill="#143E26"/>
<path d="M269.536 49.9846C267.686 50.3016 264.557 47.9476 262.902 45.8753C262.719 44.5927 262.606 43.3013 262.561 42.0066C262.456 40.7679 262.303 39.3884 262.08 38.1379L270.252 38.6252C270.089 40.2654 270.127 41.9194 270.363 43.5505C270.395 43.7235 270.444 43.8927 270.51 44.0554C270.51 44.0554 270.51 44.1082 270.51 44.1376C270.874 45.1062 272.142 49.5326 269.536 49.9846Z" fill="#D3766A"/>
<path d="M270.254 38.6432C270.254 38.6432 270.219 38.9955 270.189 39.5473C268.909 42.0129 266.526 45.1302 262.757 44.7662C262.71 44.0676 262.646 43.099 262.563 42.0305C262.452 40.7918 262.311 39.4123 262.076 38.1619L270.254 38.6432Z" fill="#143E26"/>
<path d="M269.858 27.3716C271.226 29.984 271.273 38.2673 269.635 40.4276C267.287 43.5507 262.632 44.6779 259.785 41.6604C256.937 38.643 257.16 27.9352 259.057 25.8981C261.857 22.8983 267.845 23.5206 269.858 27.3716Z" fill="#D3766A"/>
<path d="M262.681 33.6182C262.681 33.6182 262.722 33.6182 262.722 33.6651C262.722 34.2522 262.792 34.8392 263.309 35.0447C263.309 35.0447 263.309 35.0799 263.309 35.0741C262.675 34.9919 262.575 34.1406 262.681 33.6182Z" fill="#143E26"/>
<path d="M263.173 33.0248C264.066 32.9485 264.154 34.7507 263.326 34.8212C262.498 34.8916 262.422 33.0894 263.173 33.0248Z" fill="#143E26"/>
<path d="M259.62 33.8938C259.62 33.8938 259.573 33.8938 259.579 33.9466C259.638 34.4985 259.608 35.1207 259.115 35.3673C259.732 35.2616 259.761 34.4104 259.62 33.8938Z" fill="#143E26"/>
<path d="M259.082 33.3481C258.184 33.3481 258.236 35.1445 259.082 35.1504C259.927 35.1563 259.833 33.354 259.082 33.3481Z" fill="#143E26"/>
<path d="M263.842 32.1679C263.601 32.1126 263.364 32.042 263.132 31.9566C262.872 31.9187 262.632 31.7946 262.451 31.6043C262.405 31.5339 262.383 31.4503 262.39 31.3665C262.396 31.2826 262.43 31.2032 262.486 31.1406C262.617 31.0347 262.773 30.9657 262.94 30.9409C263.106 30.9161 263.276 30.9364 263.431 30.9997C263.772 31.0831 264.068 31.293 264.259 31.5867C264.292 31.6526 264.306 31.7261 264.3 31.7993C264.294 31.8725 264.268 31.9428 264.225 32.0025C264.182 32.0622 264.124 32.1091 264.057 32.1383C263.989 32.1674 263.915 32.1777 263.842 32.1679Z" fill="#143E26"/>
<path d="M258.324 32.491C258.561 32.4251 258.794 32.3468 259.023 32.2562C259.282 32.2095 259.518 32.0772 259.692 31.8805C259.735 31.808 259.753 31.7235 259.744 31.6398C259.734 31.5561 259.697 31.4778 259.639 31.4167C259.505 31.3157 259.346 31.2521 259.179 31.2325C259.012 31.213 258.843 31.238 258.688 31.3052C258.355 31.3931 258.066 31.6025 257.878 31.8923C257.838 31.961 257.819 32.0401 257.823 32.1197C257.827 32.1993 257.855 32.2759 257.903 32.3398C257.95 32.4037 258.016 32.4522 258.091 32.4791C258.166 32.506 258.247 32.5102 258.324 32.491Z" fill="#143E26"/>
<path d="M263.727 38.7842C263.603 38.9192 263.474 39.1071 263.275 39.1364C263.073 39.1381 262.874 39.1002 262.688 39.0249C262.773 39.1304 262.885 39.2107 263.012 39.2572C263.139 39.3038 263.277 39.3148 263.41 39.2891C263.522 39.2554 263.622 39.1888 263.696 39.0977C263.771 39.0067 263.816 38.8954 263.826 38.7783C263.791 38.7842 263.744 38.7842 263.727 38.7842Z" fill="#143E26"/>
<path d="M263.055 37.1462C262.925 37.3734 262.75 37.5711 262.54 37.7268C262.329 37.8824 262.089 37.9926 261.834 38.0503C261.612 38.1069 261.382 38.1287 261.153 38.1149H261.018H260.901C260.87 38.1102 260.841 38.0957 260.819 38.0735C260.796 38.0513 260.782 38.0226 260.777 37.9916C260.774 37.9721 260.774 37.9523 260.777 37.9329V37.8859C260.742 37.4574 260.777 36.7999 260.777 36.7999C260.625 36.8879 259.838 37.2871 259.844 37.064C259.798 35.1262 259.95 33.1888 260.296 31.2816C260.296 31.2229 260.402 31.2288 260.396 31.2816C260.449 33.0428 260.184 34.8567 260.208 36.6531C260.489 36.5099 260.786 36.4033 261.094 36.3361C261.153 36.3361 261.053 37.6041 261.094 37.792C261.447 37.8103 261.8 37.7573 262.132 37.6363C262.463 37.5153 262.768 37.3286 263.026 37.0875C263.043 37.064 263.09 37.0993 263.055 37.1462Z" fill="#143E26"/>
<path d="M261.395 37.886C261.645 38.1797 261.966 38.4041 262.328 38.5376C262.53 38.6023 262.748 38.6023 262.95 38.5376C263.385 38.3967 263.379 37.9916 263.279 37.6453C263.224 37.4614 263.15 37.2842 263.056 37.1169C262.598 37.5438 262.016 37.8133 261.395 37.886Z" fill="#143E26"/>
<path d="M262.326 38.5376C262.529 38.6023 262.746 38.6023 262.948 38.5376C263.383 38.3967 263.377 37.9916 263.277 37.6453C263.041 37.6641 262.818 37.7627 262.645 37.9249C262.473 38.087 262.36 38.3031 262.326 38.5376Z" fill="#FF9CBD"/>
<path d="M257.279 29.708C260.479 31.3752 264.154 27.8177 264.154 27.8177C264.485 28.4346 265.007 28.9276 265.642 29.2229C266.277 29.5181 266.991 29.5998 267.676 29.4555C267.676 29.4555 268.85 34.3926 270.183 34.2224C272.191 33.9641 271.985 27.0604 271.187 25.7982C270.388 24.5361 268.645 24.3952 268.645 24.3952C268.357 23.6057 267.78 22.9551 267.03 22.5753C265.533 21.6889 260.966 23.679 260.966 23.679C260.616 23.0792 260.132 22.5688 259.551 22.1879C259.411 22.0943 259.254 22.0301 259.088 21.9989C258.923 21.9677 258.753 21.9703 258.588 22.0065C258.424 22.0427 258.268 22.1117 258.131 22.2095C257.994 22.3072 257.878 22.4316 257.79 22.5753C258.087 22.914 258.304 23.3153 258.424 23.7494C258.835 25.1818 257.638 25.3286 257.491 23.996C257.415 23.5018 257.522 22.9971 257.79 22.5753C257.092 21.7769 256.094 21.6126 255.565 22.1468C254.597 23.1213 254.597 28.3225 257.279 29.708Z" fill="#143E26"/>
<path d="M269.086 34.3694C269.086 34.3694 270.472 31.4693 271.757 31.9214C273.043 32.3734 272.309 36.3653 271.012 37.1109C270.852 37.2184 270.672 37.2924 270.483 37.3285C270.294 37.3645 270.099 37.3619 269.911 37.3208C269.723 37.2796 269.545 37.2008 269.388 37.0891C269.231 36.9773 269.098 36.835 268.998 36.6706L269.086 34.3694Z" fill="#D3766A"/>
<path d="M338.422 43.3219L336.197 14.7795C336.238 15.2663 336.355 15.7436 336.544 16.1943C336.759 16.6963 337.055 17.1602 337.418 17.568C340.177 20.744 347.492 22.4816 359.221 22.7517L361.44 51.2941C349.699 51.024 342.391 49.2805 339.631 46.1104C339.274 45.699 338.981 45.2359 338.763 44.7367C338.572 44.2872 338.457 43.8091 338.422 43.3219Z" fill="#2F945A"/>
<g opacity="0.1">
<path d="M338.422 43.3219L336.197 14.7795C336.238 15.2663 336.355 15.7436 336.544 16.1943C336.759 16.6963 337.055 17.1602 337.418 17.568C340.177 20.744 347.492 22.4816 359.221 22.7517L361.44 51.2941C349.699 51.024 342.391 49.2805 339.631 46.1104C339.274 45.699 338.981 45.2359 338.763 44.7367C338.572 44.2872 338.457 43.8091 338.422 43.3219Z" fill="black"/>
</g>
<path d="M338.703 39.2184C338.737 39.9181 338.69 40.6194 338.562 41.3083C338.439 41.972 338.392 42.6475 338.421 43.3219L336.197 14.7795C336.17 14.1071 336.217 13.4339 336.337 12.7718C336.464 12.0827 336.513 11.3818 336.484 10.6819L338.703 39.2184Z" fill="#2F945A"/>
<g opacity="0.4">
<path d="M338.699 39.2186C338.733 39.9184 338.686 40.6197 338.558 41.3085C338.436 41.9722 338.388 42.6478 338.418 43.3221L336.193 14.7797C336.166 14.1074 336.213 13.4341 336.334 12.772C336.46 12.083 336.509 11.382 336.48 10.6821L338.699 39.2186Z" fill="black"/>
</g>
<path d="M336.491 10.6819L338.704 39.2184C338.662 38.6598 338.521 38.113 338.287 37.6041C338.062 37.1207 337.77 36.6719 337.418 36.2715C334.553 32.9722 327.133 31.4048 314.852 31.4987L312.633 2.97396C324.914 2.87416 332.334 4.44159 335.199 7.74081C335.552 8.14236 335.845 8.59327 336.068 9.07928C336.303 9.58422 336.446 10.1269 336.491 10.6819Z" fill="#2F945A"/>
</svg>
