<svg width="319" height="221" viewBox="0 0 319 221" fill="none" xmlns="http://www.w3.org/2000/svg">
<g clip-path="url(#clip0_12717_66571)">
<rect width="319" height="220" transform="translate(0 0.125)" fill="url(#paint0_linear_12717_66571)"/>
<path d="M269.718 26.5629H198.779C196.429 26.5629 194.523 28.6573 194.523 31.241V35.6563V39.8505V73.9094C194.523 78.0228 197.556 81.3574 201.299 81.3574H267.2C270.943 81.3574 273.976 78.0228 273.976 73.9094V39.8505V35.6563V31.241C273.976 28.6573 272.07 26.5629 269.718 26.5629Z" fill="white"/>
<path d="M198.779 26.7653C196.535 26.7653 194.709 28.7742 194.709 31.2412V73.9095C194.709 77.9044 197.665 81.1544 201.299 81.1544H267.202C270.834 81.1544 273.792 77.9044 273.792 73.9095V31.2412C273.792 28.7742 271.964 26.7653 269.72 26.7653H198.779ZM267.202 81.5605H201.299C197.461 81.5605 194.34 78.1283 194.34 73.9095V31.2412C194.34 28.5494 196.332 26.3594 198.779 26.3594H269.72C272.169 26.3594 274.161 28.5494 274.161 31.2412V73.9095C274.161 78.1283 271.039 81.5605 267.202 81.5605Z" fill="#3D3D3D"/>
<path d="M194.523 35.6563V73.9094C194.523 78.0228 197.556 81.3574 201.299 81.3574H267.2C270.943 81.3574 273.976 78.0228 273.976 73.9094V35.6563H194.523Z" fill="white"/>
<path d="M194.711 35.8583V73.9095C194.711 77.9044 197.667 81.1544 201.301 81.1544H267.203C270.836 81.1544 273.793 77.9044 273.793 73.9095V35.8583H194.711ZM267.203 81.5605H201.301C197.462 81.5605 194.34 78.1283 194.34 73.9095V35.6562C194.34 35.543 194.424 35.4524 194.525 35.4524H273.979C274.08 35.4524 274.163 35.543 274.163 35.6562V73.9095C274.163 78.1283 271.04 81.5605 267.203 81.5605Z" fill="#3D3D3D"/>
<path d="M201.908 29.9212C201.141 29.9212 200.517 30.6078 200.517 31.4503C200.517 32.2927 201.141 32.9794 201.908 32.9794C202.675 32.9794 203.298 32.2927 203.298 31.4503C203.298 30.6078 202.675 29.9212 201.908 29.9212ZM201.908 33.3848C200.938 33.3848 200.148 32.517 200.148 31.4503C200.148 30.3836 200.938 29.5158 201.908 29.5158C202.879 29.5158 203.668 30.3836 203.668 31.4503C203.668 32.517 202.879 33.3848 201.908 33.3848Z" fill="#3D3D3D"/>
<path d="M206.503 29.9227C205.736 29.9227 205.112 30.608 205.112 31.4516C205.112 32.2939 205.736 32.9805 206.503 32.9805C207.27 32.9805 207.893 32.2939 207.893 31.4516C207.893 30.608 207.27 29.9227 206.503 29.9227ZM206.503 33.3867C205.532 33.3867 204.742 32.5184 204.742 31.4516C204.742 30.3847 205.532 29.5165 206.503 29.5165C207.473 29.5165 208.263 30.3847 208.263 31.4516C208.263 32.5184 207.473 33.3867 206.503 33.3867Z" fill="#3D3D3D"/>
<path d="M212.678 31.451C212.678 32.4083 211.973 33.1836 211.102 33.1836C210.233 33.1836 209.527 32.4083 209.527 31.451C209.527 30.4951 210.233 29.7198 211.102 29.7198C211.973 29.7198 212.678 30.4951 212.678 31.451Z" fill="#3D3D3D"/>
<path d="M228.789 71.1465C228.789 72.8033 227.446 74.1465 225.789 74.1465H203.332C201.675 74.1465 200.332 72.8033 200.332 71.1465V45.8642C200.332 44.2074 201.675 42.8642 203.332 42.8642H225.789C227.446 42.8642 228.789 44.2074 228.789 45.8642V71.1465Z" fill="#EAF4EF"/>
<path d="M207.5 66.625V51.4327C207.5 50.9276 207.675 50.5 208.025 50.15C208.375 49.8 208.803 49.625 209.308 49.625H214.692C215.197 49.625 215.625 49.8 215.975 50.15C216.325 50.5 216.5 50.9276 216.5 51.4327V57.9327H217.461C217.959 57.9327 218.384 58.1097 218.738 58.4637C219.092 58.8177 219.269 59.2432 219.269 59.7403V64.2788C219.269 64.6006 219.381 64.8734 219.605 65.0971C219.828 65.3208 220.101 65.4327 220.423 65.4327C220.745 65.4327 221.018 65.3208 221.241 65.0971C221.465 64.8734 221.577 64.6006 221.577 64.2788V57.2711C221.427 57.3609 221.269 57.423 221.102 57.4577C220.935 57.4923 220.76 57.5096 220.577 57.5096C219.963 57.5096 219.444 57.2977 219.02 56.8738C218.597 56.45 218.385 55.9311 218.385 55.3173C218.385 54.8224 218.526 54.3817 218.808 53.9952C219.09 53.6087 219.463 53.3494 219.927 53.2173L217.673 50.9635L218.511 50.125L222.077 53.6289C222.301 53.8532 222.473 54.1131 222.591 54.4086C222.71 54.7041 222.769 55.007 222.769 55.3173V64.2788C222.769 64.9357 222.543 65.491 222.089 65.9446C221.636 66.3982 221.081 66.625 220.425 66.625C219.769 66.625 219.213 66.3982 218.759 65.9446C218.304 65.491 218.077 64.9357 218.077 64.2788V59.4327C218.077 59.3429 218.048 59.2692 217.99 59.2115C217.933 59.1538 217.859 59.125 217.769 59.125H216.5V66.625H207.5ZM209 56.375H215V51.4327C215 51.3558 214.968 51.2852 214.904 51.2211C214.84 51.157 214.769 51.125 214.692 51.125H209.308C209.231 51.125 209.16 51.157 209.096 51.2211C209.032 51.2852 209 51.3558 209 51.4327V56.375ZM220.577 56.3173C220.86 56.3173 221.098 56.2215 221.289 56.0298C221.481 55.8381 221.577 55.6006 221.577 55.3173C221.577 55.034 221.481 54.7965 221.289 54.6048C221.098 54.4131 220.86 54.3173 220.577 54.3173C220.294 54.3173 220.056 54.4131 219.864 54.6048C219.673 54.7965 219.577 55.034 219.577 55.3173C219.577 55.6006 219.673 55.8381 219.864 56.0298C220.056 56.2215 220.294 56.3173 220.577 56.3173ZM209 65.125H215V57.875H209V65.125Z" fill="#2F945A"/>
<path d="M254.034 47.2168H234.251C234.148 47.2168 234.066 47.1251 234.066 47.0142C234.066 46.9017 234.148 46.81 234.251 46.81H254.034C254.136 46.81 254.218 46.9017 254.218 47.0142C254.218 47.1251 254.136 47.2168 254.034 47.2168Z" fill="#3D3D3D"/>
<path d="M264.766 52.9629H259.505C259.403 52.9629 259.32 52.8722 259.32 52.7596C259.32 52.647 259.403 52.5563 259.505 52.5563H264.766C264.868 52.5563 264.951 52.647 264.951 52.7596C264.951 52.8722 264.868 52.9629 264.766 52.9629Z" fill="#3D3D3D"/>
<path d="M256.97 52.9629H247.857C247.755 52.9629 247.672 52.8717 247.672 52.7594C247.672 52.6471 247.755 52.556 247.857 52.556H256.97C257.072 52.556 257.155 52.6471 257.155 52.7594C257.155 52.8717 257.072 52.9629 256.97 52.9629Z" fill="#3D3D3D"/>
<path d="M242.965 52.9629H234.252C234.149 52.9629 234.066 52.8724 234.066 52.759C234.066 52.6471 234.149 52.5566 234.252 52.5566H242.965C243.066 52.5566 243.149 52.6471 243.149 52.759C243.149 52.8724 243.066 52.9629 242.965 52.9629Z" fill="#3D3D3D"/>
<path d="M254.589 58.709H234.251C234.148 58.709 234.066 58.6187 234.066 58.5059C234.066 58.3947 234.148 58.3029 234.251 58.3029H254.589C254.69 58.3029 254.774 58.3947 254.774 58.5059C254.774 58.6187 254.69 58.709 254.589 58.709Z" fill="#3D3D3D"/>
<path d="M264.763 64.4551H248.513C248.411 64.4551 248.328 64.3642 248.328 64.2519C248.328 64.1399 248.411 64.049 248.513 64.049H264.763C264.866 64.049 264.948 64.1399 264.948 64.2519C264.948 64.3642 264.866 64.4551 264.763 64.4551Z" fill="#3D3D3D"/>
<path d="M244.592 64.4551H234.25C234.149 64.4551 234.066 64.364 234.066 64.2528C234.066 64.1401 234.149 64.049 234.25 64.049H244.592C244.693 64.049 244.776 64.1401 244.776 64.2528C244.776 64.364 244.693 64.4551 244.592 64.4551Z" fill="#3D3D3D"/>
<path d="M255.471 70.2012H234.252C234.149 70.2012 234.066 70.1101 234.066 69.998C234.066 69.8859 234.149 69.7949 234.252 69.7949H255.471C255.573 69.7949 255.655 69.8859 255.655 69.998C255.655 70.1101 255.573 70.2012 255.471 70.2012Z" fill="#3D3D3D"/>
<path d="M120.208 52.6436C120.112 49.4969 119.801 46.3612 119.251 43.2585C118.734 40.3437 118.074 37.4057 117.094 34.6008C116.288 32.2902 115.07 29.9198 112.875 28.5857C110.37 27.0624 107.284 27.337 104.55 28.034C101.987 28.687 99.4794 29.6451 97.0573 30.6851C92.3364 32.7101 87.8643 35.3246 83.8936 38.5384C79.9965 41.6924 76.5823 45.4519 74.0307 49.7239C71.2178 54.4354 68.9244 60.3077 70.8456 65.7345C72.5343 70.5046 77.123 73.6806 81.6823 75.6347C87.1271 77.9685 93.1366 79.0512 99.0779 78.829C102.077 78.7167 105.067 78.2761 107.962 77.4986C110.581 76.7943 113.186 75.7812 115.36 74.1627C116.418 73.3742 117.37 72.4441 118.124 71.3736C118.947 70.2055 119.539 68.9105 119.934 67.5507C120.771 64.6713 120.261 54.3646 120.208 52.6436Z" fill="#1F212C"/>
<path d="M82.5599 115.128C82.5599 115.128 73.6658 138.037 73.7864 165.055H146.522L119.148 110.717L82.5599 115.128Z" fill="#3D3D3D"/>
<path d="M146.523 165.258C146.458 165.258 146.395 165.22 146.361 165.153L119.048 110.934L82.6894 115.317C82.0299 117.069 73.8574 139.335 73.9722 165.053C73.9728 165.166 73.8905 165.257 73.7884 165.258C73.7881 165.258 73.7879 165.258 73.7875 165.258C73.686 165.258 73.6033 165.167 73.6028 165.056C73.4833 138.305 82.3018 115.278 82.3909 115.048C82.4171 114.981 82.4745 114.934 82.5407 114.927L119.129 110.515C119.205 110.506 119.275 110.547 119.311 110.618L146.684 164.956C146.734 165.054 146.702 165.178 146.612 165.232C146.585 165.25 146.553 165.258 146.523 165.258Z" fill="#3D3D3D"/>
<path d="M107.958 164.168C107.95 164.168 107.943 164.167 107.935 164.166C107.834 164.152 107.762 164.051 107.775 163.94L108.877 154.075C109.212 151.078 111.001 148.512 113.547 147.379L114.592 146.912C114.687 146.871 114.795 146.921 114.833 147.025C114.871 147.128 114.826 147.247 114.731 147.289L113.685 147.755C111.264 148.833 109.563 151.274 109.244 154.124L108.141 163.989C108.13 164.092 108.05 164.168 107.958 164.168Z" fill="#3D3D3D"/>
<path d="M67.1578 111.968C67.1578 111.968 72.1083 103.059 80.8548 93.3526C80.8548 93.3526 68.0673 116.833 86.6551 119.303C105.243 121.772 121.761 120.168 125.272 114.36C128.784 108.554 132.997 95.5208 132.997 95.5208C132.997 95.5208 148.211 115.805 156.488 114.36C164.767 112.916 174.9 93.3526 174.9 93.3526L162.289 81.3432L158.592 85.3277C158.592 85.3277 140.341 65.435 128.515 62.9535C119.343 61.0288 100.111 61.6682 91.943 62.0523C89.1908 62.1811 86.4766 62.784 83.8949 63.8397C76.2668 66.9617 60.2146 74.8085 51.2804 88.4647C39.2747 106.816 43 118.525 55.5822 129.127L62.9407 136.158L76.1527 119.972L67.1578 111.968Z" fill="#2F945A"/>
<path d="M100.576 102.068C99.4045 102.068 98.2336 101.886 97.109 101.512C93.7791 100.406 90.9479 97.6583 89.5356 94.1631C89.4735 94.0091 89.5365 93.8292 89.6763 93.761C89.8165 93.6928 89.98 93.7619 90.0422 93.9159C91.3898 97.2507 94.0917 99.8726 97.2694 100.928C100.447 101.984 104.018 101.448 106.821 99.4917C106.949 99.4013 107.121 99.4428 107.203 99.5857C107.285 99.7278 107.247 99.9159 107.118 100.005C105.172 101.363 102.873 102.068 100.576 102.068Z" fill="#263238"/>
<path d="M153.437 92.0156C153.37 92.0156 153.301 91.9877 153.248 91.933C153.136 91.8176 153.131 91.6245 153.235 91.5024L157.815 86.1636C157.92 86.0416 158.096 86.0358 158.208 86.1512C158.319 86.2665 158.324 86.4597 158.219 86.5817L153.639 91.9195C153.584 91.9839 153.512 92.0156 153.437 92.0156Z" fill="#263238"/>
<path d="M65.9507 111.822C65.8886 111.822 65.826 111.799 65.7743 111.752C62.8975 109.139 59.8596 106.667 56.7456 104.408C56.6178 104.314 56.5827 104.126 56.6669 103.985C56.7512 103.845 56.9236 103.806 57.0508 103.899C60.1815 106.171 63.2352 108.654 66.1276 111.283C66.2453 111.39 66.262 111.582 66.1645 111.712C66.1097 111.784 66.0305 111.822 65.9507 111.822Z" fill="#263238"/>
<path d="M161.219 82.4907C161.219 82.4907 166.659 94.4449 174.408 94.2616L188.03 74.4067L195.825 61.7254L192.758 59.5742C188.817 56.8087 183.654 57.4509 180.373 61.1123L161.219 82.4907Z" fill="white"/>
<path d="M161.22 82.6934C161.173 82.6934 161.126 82.6739 161.09 82.635C161.017 82.5572 161.017 82.4284 161.088 82.3482L180.242 60.9702C183.562 57.2636 188.869 56.6049 192.858 59.4025L195.926 61.5547C195.967 61.5839 195.998 61.6313 196.007 61.6848C196.017 61.7382 196.007 61.7941 195.979 61.8391L188.185 74.5206C188.127 74.6129 188.012 74.6385 187.927 74.5753C187.843 74.5121 187.821 74.3857 187.878 74.2933L195.567 61.7844L192.659 59.7452C188.816 57.0497 183.704 57.684 180.506 61.2545L161.351 82.6338C161.316 82.6739 161.268 82.6934 161.22 82.6934Z" fill="#3D3D3D"/>
<path d="M60.2812 133.619C60.2812 133.619 66.1887 119.398 72.8553 117.041C72.8553 117.041 87.6032 130.361 88.7278 132.743C89.8526 135.124 86.9828 136.721 80.851 131.043C80.851 131.043 86.5579 140.223 84.7191 141.466C83.0706 142.581 80.851 138.336 77.2637 134.785C77.2637 134.785 82.126 144.339 79.915 146.173C78.2932 147.52 73.6798 137.281 73.6798 137.281C73.6798 137.281 76.9512 146.435 75.8286 147.726C74.967 148.718 73.3929 147.419 72.1772 145.402C71.2559 143.872 70.1128 142.519 68.7925 141.395C66.3941 139.356 62.7268 136.154 60.2812 133.619Z" fill="white"/>
<path d="M75.1145 148.27C75.0756 148.27 75.0363 148.268 74.9964 148.264C74.121 148.178 73.0101 147.15 72.0244 145.514C71.1115 143.998 69.9863 142.666 68.6809 141.557C66.1189 139.378 62.5605 136.259 60.1557 133.767C60.0814 133.69 60.078 133.562 60.148 133.48C60.218 133.399 60.3351 133.395 60.409 133.472C62.803 135.952 66.3515 139.063 68.9067 141.235C70.2446 142.372 71.3971 143.736 72.3325 145.289C73.2429 146.8 74.2762 147.785 75.0292 147.859C75.2947 147.885 75.514 147.796 75.6964 147.586C76.4547 146.714 74.7571 140.848 73.5091 137.356C73.4728 137.255 73.5157 137.14 73.6061 137.096C73.6974 137.052 73.8028 137.094 73.8466 137.191C74.9008 139.531 77.9641 145.687 79.4596 146.076C79.5994 146.112 79.7086 146.091 79.8049 146.012C81.5133 144.594 78.434 137.499 77.1035 134.884C77.0595 134.798 77.0788 134.688 77.1496 134.626C77.2201 134.564 77.3214 134.567 77.3884 134.635C78.5954 135.829 79.6456 137.099 80.5723 138.218C82.3632 140.384 83.6576 141.947 84.6233 141.293C84.7513 141.207 84.8328 141.064 84.8728 140.859C85.3093 138.607 80.7458 131.231 80.6998 131.157C80.6477 131.073 80.6598 130.959 80.7283 130.891C80.797 130.823 80.9006 130.821 80.9713 130.887C85.4053 134.993 87.7789 135.041 88.4835 134.422C88.8509 134.1 88.8816 133.507 88.5652 132.836C87.4705 130.519 72.8864 117.33 72.7392 117.197C72.6604 117.126 72.649 116.998 72.7137 116.911C72.7783 116.825 72.8951 116.812 72.9737 116.884C73.577 117.429 87.7639 130.258 88.8931 132.649C89.2971 133.505 89.2301 134.286 88.7142 134.74C87.8034 135.541 85.4378 135.25 81.6634 132.026C82.9449 134.218 85.5998 139.057 85.2342 140.943C85.1729 141.259 85.0326 141.493 84.8171 141.64C83.5906 142.469 82.2097 140.801 80.2988 138.492C79.5933 137.639 78.8155 136.698 77.9537 135.774C79.1697 138.372 81.8996 144.783 80.0275 146.336C79.8419 146.49 79.6223 146.535 79.3746 146.47C78.0998 146.139 76.0865 142.571 74.7822 140.001C75.6734 142.865 76.7522 146.96 75.9635 147.867C75.7333 148.132 75.4416 148.27 75.1145 148.27Z" fill="#3D3D3D"/>
<path d="M103.334 44.6409L101.007 59.0062C100.823 60.1403 99.9814 61.0072 98.9387 61.1341L90.2266 62.1952C90.2266 62.1952 96.7594 68.095 109.242 67.8187C121.724 67.5436 124.487 62.3479 124.487 62.3479L114.851 61.1812C113.625 61.033 112.703 59.8876 112.717 58.5323L112.81 49.9533C112.81 49.9533 106.03 42.9857 103.334 44.6409Z" fill="white"/>
<path d="M124.484 62.5508C124.474 62.5508 124.465 62.5498 124.455 62.5477L120.382 61.8348C120.281 61.8166 120.212 61.7126 120.229 61.6025C120.245 61.4915 120.34 61.4157 120.44 61.4339L124.513 62.1468C124.613 62.165 124.682 62.269 124.666 62.3791C124.651 62.4791 124.572 62.5508 124.484 62.5508Z" fill="#3D3D3D"/>
<path d="M102.543 43.9202C101.981 44.2952 101.719 45.1005 101.856 45.8067C101.995 46.5129 102.486 47.1013 103.084 47.4031C103.681 47.7038 104.371 47.7391 105.015 47.6012C105.621 49.8673 112.764 54.0116 115.082 51.1867C116.711 49.2035 116.441 44.1277 115.854 41.5362C115.267 38.9435 114.241 36.4734 113.853 33.8359C111.141 34.5398 108.45 35.5467 106.161 37.2917C105.653 37.6784 105.161 38.1087 104.801 38.6594C104.441 39.2112 104.223 39.9021 104.319 40.573C104.416 41.2592 104.819 41.8428 105.007 42.5066C105.147 43.0053 105.115 44.1726 104.45 44.2091C104.153 44.2268 103.847 43.8377 103.554 43.7599C103.216 43.6703 102.841 43.721 102.543 43.9202Z" fill="white"/>
<path d="M105.016 47.397C105.096 47.397 105.17 47.4548 105.194 47.5433C105.537 48.8334 108.381 51.017 111.208 51.7264C112.413 52.0274 114.038 52.1561 114.945 51.0501C116.483 49.1781 116.29 44.2951 115.675 41.5838C115.437 40.5334 115.12 39.4817 114.814 38.4642C114.387 37.0467 113.945 35.5842 113.705 34.0828C110.557 34.9185 108.189 35.9926 106.267 37.4586C105.82 37.7985 105.315 38.2223 104.952 38.7782C104.586 39.3377 104.422 39.9798 104.501 40.5404C104.554 40.9099 104.704 41.2522 104.864 41.6145C104.98 41.8801 105.102 42.1539 105.183 42.4455C105.292 42.8279 105.317 43.6046 105.028 44.0578C104.89 44.2762 104.693 44.3989 104.46 44.4119C104.238 44.4249 104.023 44.2774 103.839 44.1464C103.725 44.0661 103.607 43.9823 103.511 43.9563C103.212 43.8772 102.886 43.9292 102.64 44.0932C102.165 44.4107 101.912 45.113 102.038 45.7634C102.157 46.3713 102.587 46.9284 103.162 47.2176C103.821 47.5504 104.515 47.5008 104.98 47.4005C104.992 47.3982 105.004 47.397 105.016 47.397ZM112.756 52.3438C112.261 52.3438 111.716 52.2694 111.126 52.1218C108.47 51.4561 105.481 49.3776 104.895 47.8302C104.383 47.9175 103.684 47.9281 103.007 47.587C102.329 47.2447 101.819 46.579 101.677 45.8484C101.518 45.0351 101.843 44.1511 102.448 43.7462C102.781 43.5243 103.2 43.457 103.597 43.5621C103.755 43.6034 103.899 43.7061 104.039 43.8052C104.183 43.9067 104.336 44.013 104.442 44.0059C104.561 44 104.651 43.9422 104.725 43.8253C104.931 43.5019 104.918 42.8751 104.831 42.5659C104.757 42.3039 104.647 42.0548 104.532 41.7916C104.367 41.4186 104.198 41.0326 104.136 40.603C104.042 39.9385 104.23 39.1866 104.651 38.541C105.047 37.9354 105.584 37.4846 106.057 37.1246C108.057 35.5996 110.522 34.4912 113.811 33.6379C113.861 33.6249 113.913 33.6355 113.956 33.6662C113.999 33.6981 114.028 33.7476 114.036 33.8031C114.263 35.347 114.721 36.8661 115.164 38.3356C115.473 39.3601 115.793 40.42 116.034 41.4859C116.668 44.2821 116.846 49.341 115.22 51.3228C114.664 52.0003 113.826 52.3438 112.756 52.3438Z" fill="#3D3D3D"/>
<path d="M105.551 46.3047C105.518 46.3047 105.485 46.2958 105.455 46.2758C104.864 45.8839 104.221 45.6153 103.542 45.4776C103.441 45.4576 103.375 45.351 103.394 45.2411C103.412 45.1312 103.509 45.0579 103.609 45.0779C104.332 45.2256 105.017 45.5109 105.646 45.9283C105.733 45.9861 105.762 46.1104 105.709 46.207C105.674 46.2703 105.614 46.3047 105.551 46.3047Z" fill="#3D3D3D"/>
<path d="M107.301 177.158C107.301 179.616 109.107 181.609 111.335 181.609H230.031C232.259 181.609 234.065 179.616 234.065 177.158V175.527L231.078 173.811H108.28L107.301 175.527V177.158Z" fill="white"/>
<path d="M234.065 177.158C234.065 179.616 232.259 181.609 230.031 181.609H111.335C109.107 181.609 107.301 179.616 107.301 177.158H234.065Z" fill="#3D3D3D"/>
<path d="M230.031 181.812H111.336C109.01 181.812 107.117 179.724 107.117 177.158C107.117 177.045 107.199 176.955 107.302 176.955C107.403 176.955 107.486 177.045 107.486 177.158C107.486 179.5 109.214 181.407 111.336 181.407H230.031C232.155 181.407 233.881 179.5 233.881 177.158C233.881 177.045 233.965 176.955 234.066 176.955C234.168 176.955 234.251 177.045 234.251 177.158C234.251 179.724 232.359 181.812 230.031 181.812Z" fill="#3D3D3D"/>
<path d="M190.335 225.125H151.035C149.109 225.125 147.547 223.408 147.547 221.289L147.547 181.125H193.825L193.825 221.289C193.825 223.408 192.263 225.125 190.335 225.125Z" fill="#3D3D3D"/>
<path d="M192.101 184.988H149.271C149.168 184.988 149.086 184.897 149.086 184.784C149.086 184.673 149.168 184.582 149.271 184.582H192.101C192.203 184.582 192.285 184.673 192.285 184.784C192.285 184.897 192.203 184.988 192.101 184.988Z" fill="white"/>
<path d="M107.301 165.162V96.6276C107.301 94.1282 109.144 92.1025 111.417 92.1025H169.852L107.301 165.162Z" fill="white"/>
<path d="M169.851 92.1023H229.95C232.223 92.1023 234.065 94.1274 234.065 96.6267V175.527H107.301V165.161L169.851 92.1023Z" fill="white"/>
<path d="M234.066 175.73H107.302C107.199 175.73 107.117 175.639 107.117 175.528V165.162C107.117 165.049 107.199 164.959 107.302 164.959C107.403 164.959 107.486 165.049 107.486 165.162V175.325H233.881V96.6273C233.881 94.2442 232.118 92.3057 229.95 92.3057H169.852C169.751 92.3057 169.668 92.2145 169.668 92.1029C169.668 91.9903 169.751 91.8991 169.852 91.8991H229.95C232.322 91.8991 234.251 94.0201 234.251 96.6273V175.528C234.251 175.639 234.168 175.73 234.066 175.73Z" fill="#3D3D3D"/>
<path d="M111.633 170.75V97.3322C111.633 97.0822 111.817 96.8794 112.045 96.8794H229.327C229.554 96.8794 229.739 97.0822 229.739 97.3322V170.75H111.633Z" fill="white"/>
<path d="M111.814 170.547H229.55V97.3324C229.55 97.1941 229.449 97.0826 229.324 97.0826H112.042C111.917 97.0826 111.814 97.1941 111.814 97.3324V170.547ZM229.735 170.953H111.63C111.528 170.953 111.445 170.862 111.445 170.75V97.3324C111.445 96.971 111.713 96.6758 112.042 96.6758H229.324C229.652 96.6758 229.92 96.971 229.92 97.3324V170.75C229.92 170.862 229.837 170.953 229.735 170.953Z" fill="#3D3D3D"/>
<path d="M211.051 73.9295H173.996C171.04 73.9295 168.645 76.5633 168.645 79.8126V118.748C168.645 124.969 171.816 130.664 176.854 133.495L193.179 142.668L208.495 133.577C213.365 130.685 216.403 125.09 216.403 119.004V79.8126C216.403 76.5633 214.005 73.9295 211.051 73.9295Z" fill="white"/>
<path d="M173.998 74.1323C171.149 74.1323 168.83 76.6805 168.83 79.8123V118.749C168.83 124.923 171.937 130.504 176.939 133.314L193.178 142.438L208.407 133.398C213.225 130.538 216.219 125.023 216.219 119.004V79.8123C216.219 76.6805 213.9 74.1323 211.051 74.1323H173.998ZM193.18 142.871C193.152 142.871 193.122 142.864 193.097 142.849L176.77 133.677C171.645 130.796 168.461 125.076 168.461 118.749V79.8123C168.461 76.4571 170.945 73.7261 173.998 73.7261H211.051C214.104 73.7261 216.588 76.4571 216.588 79.8123V119.004C216.588 125.173 213.521 130.825 208.584 133.755L193.268 142.846C193.241 142.863 193.21 142.871 193.18 142.871Z" fill="#3D3D3D"/>
<path d="M178.946 128.989C175.43 127.013 173.246 123.089 173.246 118.748V79.8129C173.246 79.3595 173.582 78.9894 173.994 78.9894H211.048C211.46 78.9894 211.796 79.3595 211.796 79.8129V119.004C211.796 123.235 209.692 127.113 206.303 129.123L193.117 136.951L178.946 128.989Z" fill="#367AFF"/>
<path d="M193.449 117.253C193.412 117.261 193.373 117.269 193.336 117.274C192.339 117.443 191.329 117.073 190.622 116.283L183.224 108.011C182.009 106.652 182.027 104.468 183.263 103.133C184.496 101.796 186.485 101.816 187.7 103.175L192.047 108.036L199.286 92.4752C200.076 90.7775 201.965 90.1079 203.508 90.9747C205.052 91.8414 205.662 93.9207 204.874 95.6158L195.654 115.436C195.212 116.384 194.397 117.054 193.449 117.253Z" fill="white"/>
<path d="M188.034 73.6144C188.034 73.6144 193.686 81.6496 196.176 80.6315C196.176 80.6315 197.153 80.0882 196.645 78.8887C196.645 78.8887 198.865 79.644 198.82 77.1674C198.82 77.1674 201.029 77.8351 200.849 75.1871C200.849 75.1871 204.042 75.9818 202.897 71.756C201.751 67.5302 197.163 60.8773 191.817 58.9834C186.468 57.0894 188.034 73.6144 188.034 73.6144Z" fill="white"/>
<path d="M197.354 79.1992C196.943 79.1992 196.614 79.0904 196.588 79.0815C196.492 79.0486 196.436 78.9347 196.466 78.8284C196.497 78.7208 196.6 78.6614 196.698 78.6943C196.707 78.6968 197.624 78.998 198.184 78.5335C198.494 78.2766 198.646 77.8172 198.634 77.1706C198.632 77.106 198.659 77.0453 198.705 77.006C198.75 76.9668 198.81 76.9541 198.867 76.9706C198.876 76.9731 199.732 77.2212 200.252 76.7491C200.574 76.4568 200.712 75.9354 200.663 75.2014C200.658 75.1368 200.681 75.0748 200.726 75.033C200.771 74.99 200.831 74.9736 200.887 74.9875C200.899 74.99 202.023 75.2571 202.6 74.5762C203.035 74.0624 203.076 73.1335 202.716 71.8135C201.643 67.8549 197.124 61.0766 191.756 59.1758C191.66 59.1416 191.607 59.0264 191.638 58.9201C191.669 58.8138 191.774 58.7544 191.87 58.7885C197.429 60.7577 201.946 67.5512 203.071 71.6971C203.469 73.1664 203.401 74.2294 202.868 74.8546C202.323 75.4962 201.457 75.4785 201.041 75.4254C201.052 76.1708 200.865 76.72 200.486 77.063C200.003 77.5009 199.345 77.4692 198.999 77.4123C198.971 78.0704 198.771 78.5563 198.405 78.8588C198.084 79.1258 197.691 79.1992 197.354 79.1992Z" fill="#3D3D3D"/>
<path d="M192.648 79.1934C192.607 79.1934 192.565 79.1778 192.53 79.1468C190.228 77.0538 187.91 73.7716 187.886 73.7394C187.824 73.6498 187.838 73.5221 187.92 73.454C188 73.3848 188.116 73.4015 188.179 73.4898C188.202 73.5233 190.496 76.7696 192.766 78.834C192.844 78.9056 192.856 79.0334 192.791 79.1193C192.755 79.1683 192.702 79.1934 192.648 79.1934Z" fill="#3D3D3D"/>
<path d="M195.976 78.4453C195.917 78.4453 195.86 78.4149 195.823 78.3577L191.509 71.4594C191.451 71.367 191.472 71.2405 191.558 71.1772C191.641 71.114 191.756 71.1371 191.814 71.2295L196.129 78.1278C196.186 78.2203 196.164 78.3468 196.08 78.41C196.049 78.4344 196.013 78.4453 195.976 78.4453Z" fill="#3D3D3D"/>
<path d="M198.81 76.4668C198.73 76.4668 198.657 76.41 198.633 76.321C197.95 73.8019 196.773 71.3778 195.229 69.3121C195.165 69.2256 195.176 69.0983 195.255 69.0267C195.335 68.955 195.45 68.9686 195.514 69.0551C197.089 71.1616 198.289 73.6351 198.987 76.2049C199.015 76.3124 198.96 76.426 198.862 76.4581C198.845 76.4643 198.827 76.4668 198.81 76.4668Z" fill="#3D3D3D"/>
<path d="M200.791 74.5977C200.706 74.5977 200.63 74.5327 200.611 74.4391C200.023 71.5517 198.94 68.8355 197.392 66.3653C197.334 66.2729 197.355 66.1467 197.439 66.083C197.523 66.0194 197.639 66.0431 197.696 66.1355C199.271 68.6482 200.373 71.4119 200.972 74.3504C200.994 74.459 200.931 74.5677 200.831 74.5927C200.819 74.5964 200.805 74.5977 200.791 74.5977Z" fill="#3D3D3D"/>
<path d="M187.173 73.0273C187.113 73.0273 187.054 72.9961 187.018 72.9371C186.657 72.3412 186.318 71.8321 185.817 71.6331C185.274 71.4167 184.594 71.6863 184.3 72.2336C184.249 72.3296 184.135 72.362 184.049 72.3053C183.96 72.2486 183.931 72.1248 183.982 72.0277C184.367 71.308 185.229 70.9666 185.942 71.2513C186.598 71.5116 187.019 72.2058 187.326 72.7126C187.382 72.8052 187.359 72.9313 187.275 72.9938C187.243 73.0169 187.207 73.0273 187.173 73.0273Z" fill="#3D3D3D"/>
<path d="M180.532 73.8398C180.524 73.8398 180.517 73.8398 180.509 73.8387C180.408 73.8242 180.337 73.7233 180.349 73.6113C180.513 72.1829 180.934 70.7601 181.565 69.4986C181.614 69.4 181.727 69.3641 181.816 69.4179C181.905 69.4717 181.938 69.596 181.888 69.6935C181.28 70.9113 180.874 72.2837 180.716 73.6628C180.704 73.7648 180.624 73.8398 180.532 73.8398Z" fill="#3D3D3D"/>
<path d="M91.929 165.363H64.1731C64.071 165.363 63.9883 165.273 63.9883 165.16C63.9883 165.048 64.071 164.957 64.1731 164.957H91.8524L140.771 111.182C140.807 111.143 140.853 111.122 140.902 111.122H163.843C163.944 111.122 164.027 111.213 164.027 111.325C164.027 111.438 163.944 111.529 163.843 111.529H140.979L92.0595 165.304C92.0249 165.342 91.9781 165.363 91.929 165.363Z" fill="#3D3D3D"/>
<path d="M89.8871 178.818H56.8996C56.7975 178.818 56.7148 178.728 56.7148 178.615C56.7148 178.504 56.7975 178.413 56.8996 178.413H89.8105L144.309 118.504C144.343 118.466 144.391 118.445 144.44 118.445H163.846C163.948 118.445 164.031 118.535 164.031 118.648C164.031 118.76 163.948 118.851 163.846 118.851H144.516L90.0177 178.759C89.983 178.797 89.9361 178.818 89.8871 178.818Z" fill="#3D3D3D"/>
<path d="M163.845 125.669H147.547L119.328 156.688L163.845 125.669Z" fill="white"/>
<path d="M119.329 156.891C119.281 156.891 119.235 156.871 119.198 156.832C119.127 156.752 119.127 156.623 119.198 156.544L147.416 125.525C147.451 125.487 147.497 125.466 147.547 125.466H163.845C163.947 125.466 164.03 125.556 164.03 125.669C164.03 125.781 163.947 125.872 163.845 125.872H147.624L119.459 156.832C119.423 156.871 119.377 156.891 119.329 156.891Z" fill="#3D3D3D"/>
<path d="M169.851 135.224L142.41 165.389H131.41L169.851 135.224Z" fill="white"/>
<path d="M142.411 165.592H131.411C131.31 165.592 131.227 165.501 131.227 165.388C131.227 165.276 131.31 165.185 131.411 165.185H142.335L169.722 135.079C169.794 135 169.911 135 169.983 135.079C170.055 135.159 170.055 135.288 169.983 135.367L142.542 165.532C142.507 165.57 142.46 165.592 142.411 165.592Z" fill="#3D3D3D"/>
<path d="M175.965 138.972L161.055 155.363V170.648L175.965 138.972Z" fill="white"/>
<path d="M161.052 170.852C160.951 170.852 160.867 170.76 160.867 170.648V155.362C160.867 155.308 160.887 155.256 160.922 155.218L175.832 138.828C175.904 138.748 176.021 138.748 176.094 138.828C176.166 138.907 176.166 139.036 176.094 139.115L161.237 155.446V170.648C161.237 170.76 161.154 170.852 161.052 170.852Z" fill="#3D3D3D"/>
<path d="M181.13 143.425L173.047 152.311V170.648L181.13 143.425Z" fill="white"/>
<path d="M173.048 170.852C172.946 170.852 172.863 170.76 172.863 170.648V152.31C172.863 152.257 172.883 152.205 172.917 152.167L181.001 143.281C181.073 143.202 181.19 143.202 181.262 143.281C181.334 143.36 181.334 143.489 181.262 143.569L173.233 152.395V170.648C173.233 170.76 173.151 170.852 173.048 170.852Z" fill="#3D3D3D"/>
<path d="M201.723 143.425V161.696L209.867 170.648L201.723 143.425Z" fill="white"/>
<path d="M209.864 170.852C209.816 170.852 209.77 170.831 209.734 170.792L201.59 161.84C201.555 161.802 201.535 161.75 201.535 161.696V143.425C201.535 143.312 201.619 143.222 201.721 143.222C201.822 143.222 201.906 143.312 201.906 143.425V161.612L209.994 170.505C210.067 170.584 210.067 170.712 209.994 170.792C209.958 170.831 209.912 170.852 209.864 170.852Z" fill="#3D3D3D"/>
<path d="M256.784 164.432H215.422C215.373 164.432 215.326 164.41 215.292 164.373L209.01 157.468C208.976 157.429 208.957 157.378 208.957 157.324V138.97C208.957 138.858 209.04 138.767 209.142 138.767C209.244 138.767 209.327 138.858 209.327 138.97V157.24L215.499 164.026H256.784C256.886 164.026 256.969 164.116 256.969 164.229C256.969 164.341 256.886 164.432 256.784 164.432Z" fill="#3D3D3D"/>
<path d="M253.849 110.85H220.797C220.695 110.85 220.613 110.759 220.613 110.647C220.613 110.534 220.695 110.444 220.797 110.444H253.771L267.756 95.0712C267.827 94.9919 267.945 94.9919 268.016 95.0712C268.089 95.1507 268.089 95.2788 268.016 95.3581L253.979 110.791C253.943 110.828 253.897 110.85 253.849 110.85Z" fill="#3D3D3D"/>
<path d="M255.286 117.244H220.799C220.697 117.244 220.613 117.153 220.613 117.041C220.613 116.929 220.697 116.838 220.799 116.838H255.209L263.418 107.815C263.49 107.736 263.607 107.736 263.68 107.815C263.751 107.895 263.751 108.023 263.68 108.102L255.416 117.184C255.382 117.223 255.335 117.244 255.286 117.244Z" fill="#3D3D3D"/>
<path d="M269.972 152.816C269.925 152.816 269.878 152.796 269.842 152.756L243.88 124.218H220.797C220.696 124.218 220.613 124.127 220.613 124.014C220.613 123.903 220.696 123.812 220.797 123.812H243.957C244.005 123.812 244.052 123.833 244.086 123.872L270.103 152.47C270.175 152.549 270.175 152.677 270.103 152.756C270.067 152.796 270.02 152.816 269.972 152.816Z" fill="#3D3D3D"/>
<path d="M269.974 95.2154C269.974 96.3543 269.134 97.2773 268.098 97.2773C267.062 97.2773 266.223 96.3543 266.223 95.2154C266.223 94.0764 267.062 93.1532 268.098 93.1532C269.134 93.1532 269.974 94.0764 269.974 95.2154Z" fill="white"/>
<path d="M268.099 93.3562C267.167 93.3562 266.409 94.1899 266.409 95.2154C266.409 96.24 267.167 97.0746 268.099 97.0746C269.032 97.0746 269.79 96.24 269.79 95.2154C269.79 94.1899 269.032 93.3562 268.099 93.3562ZM268.099 97.4805C266.963 97.4805 266.039 96.4642 266.039 95.2154C266.039 93.9658 266.963 92.9496 268.099 92.9496C269.236 92.9496 270.16 93.9658 270.16 95.2154C270.16 96.4642 269.236 97.4805 268.099 97.4805Z" fill="#3D3D3D"/>
<path d="M265.701 107.958C265.701 109.097 264.86 110.021 263.824 110.021C262.789 110.021 261.949 109.097 261.949 107.958C261.949 106.821 262.789 105.896 263.824 105.896C264.86 105.896 265.701 106.821 265.701 107.958Z" fill="white"/>
<path d="M263.824 106.101C262.891 106.101 262.133 106.934 262.133 107.959C262.133 108.984 262.891 109.818 263.824 109.818C264.756 109.818 265.514 108.984 265.514 107.959C265.514 106.934 264.756 106.101 263.824 106.101ZM263.824 110.225C262.687 110.225 261.762 109.208 261.762 107.959C261.762 106.71 262.687 105.694 263.824 105.694C264.959 105.694 265.884 106.71 265.884 107.959C265.884 109.208 264.959 110.225 263.824 110.225Z" fill="#3D3D3D"/>
<path d="M271.85 152.614C271.85 153.753 271.01 154.676 269.973 154.676C268.938 154.676 268.098 153.753 268.098 152.614C268.098 151.475 268.938 150.552 269.973 150.552C271.01 150.552 271.85 151.475 271.85 152.614Z" fill="white"/>
<path d="M269.975 150.755C269.043 150.755 268.283 151.588 268.283 152.613C268.283 153.639 269.043 154.472 269.975 154.472C270.907 154.472 271.666 153.639 271.666 152.613C271.666 151.588 270.907 150.755 269.975 150.755ZM269.975 154.879C268.838 154.879 267.914 153.863 267.914 152.613C267.914 151.364 268.838 150.348 269.975 150.348C271.111 150.348 272.036 151.364 272.036 152.613C272.036 153.863 271.111 154.879 269.975 154.879Z" fill="#3D3D3D"/>
<path d="M258.795 164.229C258.795 165.368 257.956 166.291 256.92 166.291C255.884 166.291 255.043 165.368 255.043 164.229C255.043 163.09 255.884 162.167 256.92 162.167C257.956 162.167 258.795 163.09 258.795 164.229Z" fill="white"/>
<path d="M256.921 162.37C255.987 162.37 255.229 163.204 255.229 164.229C255.229 165.254 255.987 166.088 256.921 166.088C257.853 166.088 258.611 165.254 258.611 164.229C258.611 163.204 257.853 162.37 256.921 162.37ZM256.921 166.494C255.784 166.494 254.859 165.478 254.859 164.229C254.859 162.98 255.784 161.964 256.921 161.964C258.056 161.964 258.981 162.98 258.981 164.229C258.981 165.478 258.056 166.494 256.921 166.494Z" fill="#3D3D3D"/>
<path d="M133.287 165.389C133.287 166.528 132.447 167.451 131.411 167.451C130.375 167.451 129.535 166.528 129.535 165.389C129.535 164.25 130.375 163.327 131.411 163.327C132.447 163.327 133.287 164.25 133.287 165.389Z" fill="white"/>
<path d="M131.412 163.53C130.48 163.53 129.722 164.364 129.722 165.388C129.722 166.414 130.48 167.248 131.412 167.248C132.345 167.248 133.103 166.414 133.103 165.388C133.103 164.364 132.345 163.53 131.412 163.53ZM131.412 167.654C130.276 167.654 129.352 166.638 129.352 165.388C129.352 164.14 130.276 163.123 131.412 163.123C132.549 163.123 133.473 164.14 133.473 165.388C133.473 166.638 132.549 167.654 131.412 167.654Z" fill="#3D3D3D"/>
<path d="M121.202 156.688C121.202 157.827 120.361 158.75 119.325 158.75C118.29 158.75 117.449 157.827 117.449 156.688C117.449 155.549 118.29 154.626 119.325 154.626C120.361 154.626 121.202 155.549 121.202 156.688Z" fill="white"/>
<path d="M119.331 154.829C118.398 154.829 117.64 155.663 117.64 156.688C117.64 157.714 118.398 158.547 119.331 158.547C120.263 158.547 121.021 157.714 121.021 156.688C121.021 155.663 120.263 154.829 119.331 154.829ZM119.331 158.953C118.194 158.953 117.27 157.937 117.27 156.688C117.27 155.439 118.194 154.423 119.331 154.423C120.467 154.423 121.391 155.439 121.391 156.688C121.391 157.937 120.467 158.953 119.331 158.953Z" fill="#3D3D3D"/>
<path d="M59.0761 178.618C59.0761 179.757 58.2363 180.68 57.2002 180.68C56.1642 180.68 55.3242 179.757 55.3242 178.618C55.3242 177.479 56.1642 176.556 57.2002 176.556C58.2363 176.556 59.0761 177.479 59.0761 178.618Z" fill="white"/>
<path d="M57.1973 176.757C56.2648 176.757 55.5062 177.591 55.5062 178.616C55.5062 179.641 56.2648 180.475 57.1973 180.475C58.1299 180.475 58.8885 179.641 58.8885 178.616C58.8885 177.591 58.1299 176.757 57.1973 176.757ZM57.1973 180.881C56.061 180.881 55.1367 179.865 55.1367 178.616C55.1367 177.367 56.061 176.351 57.1973 176.351C58.3336 176.351 59.258 177.367 59.258 178.616C59.258 179.865 58.3336 180.881 57.1973 180.881Z" fill="#3D3D3D"/>
<path d="M66.0488 165.161C66.0488 166.3 65.2089 167.223 64.1728 167.223C63.1368 167.223 62.2969 166.3 62.2969 165.161C62.2969 164.022 63.1368 163.098 64.1728 163.098C65.2089 163.098 66.0488 164.022 66.0488 165.161Z" fill="white"/>
<path d="M64.1739 163.302C63.2415 163.302 62.4828 164.135 62.4828 165.161C62.4828 166.185 63.2415 167.02 64.1739 167.02C65.1064 167.02 65.8651 166.185 65.8651 165.161C65.8651 164.135 65.1064 163.302 64.1739 163.302ZM64.1739 167.426C63.0376 167.426 62.1133 166.409 62.1133 165.161C62.1133 163.911 63.0376 162.896 64.1739 162.896C65.3101 162.896 66.2347 163.911 66.2347 165.161C66.2347 166.409 65.3101 167.426 64.1739 167.426Z" fill="#3D3D3D"/>
</g>
<defs>
<linearGradient id="paint0_linear_12717_66571" x1="159.5" y1="0" x2="159.5" y2="220" gradientUnits="userSpaceOnUse">
<stop stop-color="#F8F8F8"/>
<stop offset="1" stop-color="white" stop-opacity="0.4"/>
</linearGradient>
<clipPath id="clip0_12717_66571">
<rect width="319" height="220" fill="white" transform="translate(0 0.125)"/>
</clipPath>
</defs>
</svg>
