<svg width="24" height="25" viewBox="0 0 24 25" fill="none" xmlns="http://www.w3.org/2000/svg">
<g clip-path="url(#clip0_6441_58224)">
<path d="M5.75028 17.4999V9.99987H7.25028V17.4999H5.75028ZM11.2503 17.4999V9.99987H12.7503V17.4999H11.2503ZM2.76953 7.99987V6.57687L12.0003 2.05762L21.231 6.57687V7.99987H2.76953ZM2.76953 20.9999V19.4999L13.5002 19.4999C13.5002 19.4999 13.3622 20.0857 13.5002 20.4999C13.5876 20.7618 13.7539 20.9999 13.7539 20.9999H2.76953ZM16.7503 14.4999V9.99987H18.2503V12.4999L16.7503 14.4999Z" fill="white"/>
<path d="M18.9549 21.6833C18.4817 22.2705 17.8714 22.6042 17.124 22.6845C16.3767 22.7649 15.7096 22.5685 15.1225 22.0953C14.5354 21.6222 14.2017 21.0119 14.1213 20.2645C14.0408 19.517 14.2372 18.8497 14.7104 18.2625L15.8482 16.8507C15.9283 16.7513 16.0291 16.6952 16.1505 16.6822C16.2719 16.6691 16.3824 16.7027 16.4818 16.7828C16.5812 16.8629 16.6374 16.9636 16.6503 17.085C16.6633 17.2063 16.6297 17.3166 16.5496 17.416L15.4113 18.8284C15.0951 19.2207 14.964 19.6672 15.0179 20.1679C15.0717 20.6687 15.2949 21.0773 15.6875 21.3937C16.0802 21.7102 16.5269 21.8415 17.0276 21.7877C17.5284 21.7339 17.9368 21.5109 18.253 21.1186L19.3913 19.7062C19.4714 19.6068 19.5721 19.5506 19.6935 19.5377C19.815 19.5246 19.9254 19.5581 20.0248 19.6382C20.1242 19.7184 20.1804 19.8191 20.1933 19.9404C20.2063 20.0618 20.1728 20.1721 20.0927 20.2715L18.9549 21.6833ZM17.9226 19.3383C17.8425 19.4377 17.7417 19.4939 17.6203 19.5069C17.4989 19.5199 17.3885 19.4864 17.2891 19.4063C17.1896 19.3262 17.1335 19.2254 17.1206 19.1041C17.1075 18.9828 17.1411 18.8724 17.2211 18.7731L19.4823 15.9674C19.5624 15.868 19.6631 15.8119 19.7845 15.7989C19.906 15.7858 20.0164 15.8193 20.1158 15.8994C20.2152 15.9796 20.2714 16.0803 20.2843 16.2017C20.2973 16.323 20.2638 16.4333 20.1837 16.5327L17.9226 19.3383ZM21.5566 18.455C21.4766 18.5544 21.3758 18.6106 21.2544 18.6236C21.133 18.6366 21.0225 18.6031 20.9231 18.5229C20.8237 18.4428 20.7675 18.3421 20.7545 18.2207C20.7416 18.0994 20.7751 17.9891 20.8552 17.8898L21.9935 16.4773C22.3097 16.085 22.4409 15.6385 22.387 15.1378C22.3332 14.637 22.11 14.2284 21.7173 13.912C21.3247 13.5956 20.878 13.4642 20.3772 13.5181C19.8765 13.5718 19.4681 13.7948 19.1519 14.1871L18.0136 15.5996C17.9335 15.6989 17.8327 15.7551 17.7113 15.7681C17.5899 15.7811 17.4795 15.7476 17.3801 15.6675C17.2807 15.5874 17.2245 15.4866 17.2116 15.3653C17.1985 15.244 17.2321 15.1336 17.3122 15.0343L18.45 13.6224C18.9232 13.0353 19.5335 12.7015 20.2809 12.6212C21.0281 12.5409 21.6953 12.7372 22.2824 13.2104C22.8695 13.6835 23.2032 14.2938 23.2836 15.0413C23.3641 15.7887 23.1677 16.4561 22.6945 17.0432L21.5566 18.455Z" fill="white"/>
</g>
<defs>
<clipPath id="clip0_6441_58224">
<rect width="24" height="24" fill="white" transform="translate(0 0.5)"/>
</clipPath>
</defs>
</svg>
