<svg width="24" height="24" viewBox="0 0 24 24" fill="none" xmlns="http://www.w3.org/2000/svg">
<path d="M6 4V19.6923V19.6135V20V4ZM6.30775 21.5C5.80258 21.5 5.375 21.325 5.025 20.975C4.675 20.625 4.5 20.1974 4.5 19.6923V4.30775C4.5 3.80258 4.675 3.375 5.025 3.025C5.375 2.675 5.80258 2.5 6.30775 2.5H14.25L19.5 7.75V12.3308C19.2602 12.2526 19.0153 12.1939 18.7653 12.1547C18.5153 12.1158 18.2602 12.0963 18 12.0963V8.5H13.5V4H6.30775C6.23075 4 6.16025 4.03208 6.09625 4.09625C6.03208 4.16025 6 4.23075 6 4.30775V19.6923C6 19.7693 6.03208 19.8398 6.09625 19.9038C6.16025 19.9679 6.23075 20 6.30775 20H12.398C12.493 20.2872 12.6116 20.5542 12.7537 20.801C12.8961 21.0477 13.0622 21.2807 13.252 21.5H6.30775Z" fill="#2F945A"/>
<path d="M21.9075 16.0538L16.2537 21.7075L13 18.4538L14.0538 17.4L16.2537 19.6L20.8538 15L21.9075 16.0538Z" fill="#2F945A"/>
</svg>
