<svg width="24" height="24" viewBox="0 0 24 24" fill="none" xmlns="http://www.w3.org/2000/svg">
<path d="M13.0516 18.5694C12.2396 19.9759 11.0592 20.8901 9.51056 21.3121C7.96195 21.7344 6.48567 21.5403 5.08169 20.7297C3.67772 19.9191 2.76999 18.7368 2.35849 17.1829C1.94691 15.6291 2.14712 14.149 2.95912 12.7426L7.45437 4.95657C8.03129 3.95732 8.86865 3.3083 9.96646 3.0095C11.0641 2.71063 12.1126 2.84965 13.1118 3.42656C14.1111 4.00348 14.7558 4.842 15.0459 5.94213C15.3361 7.04226 15.1927 8.09194 14.6158 9.09119L10.3609 16.4609C10.0225 17.047 9.52938 17.4295 8.88163 17.6085C8.23374 17.7873 7.61636 17.7073 7.02948 17.3685C6.44246 17.0296 6.06048 16.5345 5.88355 15.8833C5.70662 15.2321 5.78903 14.6105 6.13078 14.0186L10.5202 6.41598L11.819 7.16586L7.4296 14.7685C7.2956 15.0006 7.26078 15.241 7.32514 15.4899C7.38951 15.7388 7.53773 15.9302 7.76983 16.0642C8.00178 16.1981 8.2416 16.2307 8.4893 16.162C8.737 16.0933 8.92784 15.9429 9.06184 15.7109L13.3215 8.33297C13.6818 7.68824 13.7723 7.01843 13.5931 6.32355C13.4138 5.62867 13.0034 5.09602 12.3618 4.7256C11.723 4.35677 11.0542 4.26816 10.3554 4.45979C9.65659 4.65156 9.12258 5.06715 8.75341 5.70657L4.25816 13.4926C3.64471 14.5344 3.49256 15.6338 3.80169 16.7907C4.11074 17.9477 4.78842 18.8283 5.83472 19.4324C6.86616 20.0279 7.95481 20.1671 9.10068 19.8501C10.2463 19.5331 11.1303 18.8562 11.7525 17.8194L16.3823 9.80048L17.6813 10.5505L13.0516 18.5694Z" fill="white"/>
</svg>
