<?xml version="1.0" encoding="utf-8"?>
<!-- Generator: Adobe Illustrator 26.0.2, SVG Export Plug-In . SVG Version: 6.00 Build 0)  -->
<svg version="1.1" id="Capa_1" xmlns="http://www.w3.org/2000/svg" xmlns:xlink="http://www.w3.org/1999/xlink" x="0px" y="0px"
	 viewBox="0 0 800 800" style="enable-background:new 0 0 800 800;" xml:space="preserve">
<style type="text/css">
	.st0{fill:#FFFFFF;}
</style>
<g>
	<g>
		<path class="st0" d="M292.1,173.8h-11.4c-1.4,0-2.8,0.3-4.2,0.7c-6.7,2.2-11.6,9.3-11.6,17.8v7.8v20v10.4c0,1.9,0.3,3.8,0.8,5.5
			c2,7.5,7.9,13,14.9,13h11.4c8.7,0,15.7-8.3,15.7-18.5v-10.4v-20v-7.8C307.8,182.1,300.7,173.8,292.1,173.8z"/>
		<path class="st0" d="M515.7,173.8h-11.4c-8.7,0-15.7,8.3-15.7,18.5v7.8v20v10.4c0,10.2,7,18.5,15.7,18.5h11.4
			c8.7,0,15.7-8.3,15.7-18.5v-10.4v-20v-7.8C531.4,182.1,524.4,173.8,515.7,173.8z"/>
		<path class="st0" d="M573.7,220.2h-28.1v10.4c0,18-13.4,32.7-29.9,32.7h-11.4c-16.5,0-29.9-14.7-29.9-32.7v-10.4H322v10.4
			c0,18-13.4,32.7-29.9,32.7h-11.4c-16.5,0-29.9-14.7-29.9-32.7v-10.4h-24.5c-15.6,0-28.3,11.9-28.3,26.5v353
			c0,14.7,12.7,26.5,28.3,26.5h347.4c15.6,0,28.3-11.8,28.3-26.5v-353C602,232,589.4,220.2,573.7,220.2z M565,587.3L234,587.2V302.5
			H565V587.3z"/>
		<path class="st0" d="M435.4,371.1h87c7.6,0,13.7-7.5,13.7-16.9s-6.1-16.9-13.7-16.9h-87c-7.6,0-13.7,7.5-13.7,16.9
			C421.8,363.6,427.9,371.1,435.4,371.1z"/>
		<path class="st0" d="M435.4,432.1h87c7.6,0,13.7-7.5,13.7-16.9c0-9.3-6.1-16.9-13.7-16.9h-87c-7.6,0-13.7,7.5-13.7,16.9
			C421.8,424.5,427.9,432.1,435.4,432.1z"/>
		<path class="st0" d="M435.4,493h87c7.6,0,13.7-7.5,13.7-16.9c0-9.3-6.1-16.9-13.7-16.9h-87c-7.6,0-13.7,7.5-13.7,16.9
			C421.8,485.5,427.9,493,435.4,493z"/>
		<path class="st0" d="M435.4,553.9h87c7.6,0,13.7-7.5,13.7-16.9c0-9.3-6.1-16.9-13.7-16.9h-87c-7.6,0-13.7,7.5-13.7,16.9
			C421.8,546.4,427.9,553.9,435.4,553.9z"/>
		<path class="st0" d="M281.3,371.1h87c7.6,0,13.7-7.5,13.7-16.9s-6.1-16.9-13.7-16.9h-87c-7.6,0-13.7,7.5-13.7,16.9
			C267.6,363.6,273.7,371.1,281.3,371.1z"/>
		<path class="st0" d="M281.3,432.1h87c7.6,0,13.7-7.5,13.7-16.9c0-9.3-6.1-16.9-13.7-16.9h-87c-7.6,0-13.7,7.5-13.7,16.9
			C267.6,424.5,273.7,432.1,281.3,432.1z"/>
		<path class="st0" d="M281.3,493h87c7.6,0,13.7-7.5,13.7-16.9c0-9.3-6.1-16.9-13.7-16.9h-87c-7.6,0-13.7,7.5-13.7,16.9
			C267.6,485.5,273.7,493,281.3,493z"/>
		<path class="st0" d="M281.3,553.9h87c7.6,0,13.7-7.5,13.7-16.9c0-9.3-6.1-16.9-13.7-16.9h-87c-7.6,0-13.7,7.5-13.7,16.9
			C267.6,546.4,273.7,553.9,281.3,553.9z"/>
	</g>
</g>
</svg>
