<svg width="40" height="40" viewBox="0 0 40 40" fill="none" xmlns="http://www.w3.org/2000/svg">
<path d="M8.84592 35.8334C8.00398 35.8334 7.29134 35.5417 6.70801 34.9584C6.12467 34.375 5.83301 33.6624 5.83301 32.8204V10.5129C5.83301 9.671 6.12467 8.95836 6.70801 8.37503C7.29134 7.79169 8.00398 7.50003 8.84592 7.50003H11.1534V3.97461H13.7176V7.50003H26.3459V3.97461H28.8459V7.50003H31.1534C31.9954 7.50003 32.708 7.79169 33.2913 8.37503C33.8747 8.95836 34.1663 9.671 34.1663 10.5129V32.8204C34.1663 33.6624 33.8747 34.375 33.2913 34.9584C32.708 35.5417 31.9954 35.8334 31.1534 35.8334H8.84592ZM8.84592 33.3334H31.1534C31.2818 33.3334 31.3993 33.2799 31.5059 33.1729C31.6129 33.0663 31.6663 32.9488 31.6663 32.8204V17.1796H8.33301V32.8204C8.33301 32.9488 8.38648 33.0663 8.49342 33.1729C8.60009 33.2799 8.71759 33.3334 8.84592 33.3334ZM8.33301 14.6796H31.6663V10.5129C31.6663 10.3846 31.6129 10.2671 31.5059 10.1604C31.3993 10.0535 31.2818 10 31.1534 10H8.84592C8.71759 10 8.60009 10.0535 8.49342 10.1604C8.38648 10.2671 8.33301 10.3846 8.33301 10.5129V14.6796Z" fill="#2F945A"/>
<circle cx="14.167" cy="22.5" r="2.5" fill="#2F945A"/>
</svg>
