<svg width="24" height="25" viewBox="0 0 24 25" fill="none" xmlns="http://www.w3.org/2000/svg">
<path d="M5.61532 19V20.25C5.61532 20.4625 5.54345 20.6406 5.3997 20.7843C5.25597 20.9281 5.07785 21 4.86535 21H4.25C4.0375 21 3.85938 20.9281 3.71563 20.7843C3.57188 20.6406 3.5 20.4625 3.5 20.25V12.5769L5.54233 6.75002C5.61667 6.52054 5.75321 6.33817 5.95193 6.20292C6.15064 6.06766 6.37179 6.00002 6.61538 6.00002H9.46155V4.23082H14.5769V6.00002H17.4231C17.6571 6.00002 17.8695 6.06877 18.0604 6.20627C18.2513 6.34377 18.3837 6.52502 18.4576 6.75002L20.5 12.5769V20.25C20.5 20.4625 20.4281 20.6406 20.2843 20.7843C20.1406 20.9281 19.9625 21 19.75 21H19.1346C18.9221 21 18.744 20.9281 18.6002 20.7843C18.4565 20.6406 18.3846 20.4625 18.3846 20.25V19H5.61532ZM5.60765 11.077H18.3923L17.1308 7.5H6.8692L5.60765 11.077ZM7.46378 16.3461C7.82764 16.3461 8.13618 16.2188 8.38938 15.9641C8.64259 15.7094 8.7692 15.4001 8.7692 15.0362C8.7692 14.6723 8.64184 14.3638 8.38713 14.1106C8.13241 13.8574 7.82312 13.7308 7.45925 13.7308C7.09538 13.7308 6.78684 13.8581 6.53363 14.1128C6.28043 14.3676 6.15383 14.6769 6.15383 15.0407C6.15383 15.4046 6.28118 15.7131 6.5359 15.9663C6.79062 16.2195 7.09991 16.3461 7.46378 16.3461ZM16.5407 16.3461C16.9046 16.3461 17.2131 16.2188 17.4663 15.9641C17.7195 15.7094 17.8461 15.4001 17.8461 15.0362C17.8461 14.6723 17.7188 14.3638 17.4641 14.1106C17.2093 13.8574 16.9 13.7308 16.5362 13.7308C16.1723 13.7308 15.8638 13.8581 15.6106 14.1128C15.3574 14.3676 15.2308 14.6769 15.2308 15.0407C15.2308 15.4046 15.3581 15.7131 15.6128 15.9663C15.8675 16.2195 16.1768 16.3461 16.5407 16.3461ZM4.99997 17.5H19V12.5769H4.99997V17.5Z" fill="#2F945A"/>
</svg>
