<svg width="24" height="24" viewBox="0 0 24 24" fill="none" xmlns="http://www.w3.org/2000/svg">
<path d="M5.61532 18.5001V19.7501C5.61532 19.9626 5.54345 20.1407 5.3997 20.2845C5.25597 20.4282 5.07785 20.5001 4.86535 20.5001H4.25C4.0375 20.5001 3.85938 20.4282 3.71563 20.2845C3.57188 20.1407 3.5 19.9626 3.5 19.7501V12.0771L5.54233 6.25016C5.61668 6.02067 5.75321 5.83831 5.95193 5.70306C6.15064 5.56779 6.37179 5.50016 6.61538 5.50016H9.46155V3.73096H14.5769V5.50016H17.4231C17.6571 5.50016 17.8695 5.56891 18.0604 5.70641C18.2513 5.84391 18.3837 6.02516 18.4576 6.25016L20.5 12.0771V19.7501C20.5 19.9626 20.4281 20.1407 20.2843 20.2845C20.1406 20.4282 19.9625 20.5001 19.75 20.5001H19.1346C18.9221 20.5001 18.744 20.4282 18.6002 20.2845C18.4565 20.1407 18.3846 19.9626 18.3846 19.7501V18.5001H5.61532ZM5.60765 10.5771H18.3923L17.1308 7.00013H6.8692L5.60765 10.5771ZM7.46378 15.8463C7.82764 15.8463 8.13617 15.7189 8.38937 15.4642C8.64259 15.2095 8.7692 14.9002 8.7692 14.5363C8.7692 14.1725 8.64184 13.8639 8.38713 13.6107C8.13241 13.3575 7.82312 13.2309 7.45925 13.2309C7.09538 13.2309 6.78684 13.3583 6.53363 13.613C6.28043 13.8677 6.15383 14.177 6.15383 14.5409C6.15383 14.9047 6.28118 15.2133 6.5359 15.4665C6.79062 15.7197 7.09991 15.8463 7.46378 15.8463ZM16.5407 15.8463C16.9046 15.8463 17.2131 15.7189 17.4663 15.4642C17.7195 15.2095 17.8461 14.9002 17.8461 14.5363C17.8461 14.1725 17.7188 13.8639 17.4641 13.6107C17.2093 13.3575 16.9 13.2309 16.5362 13.2309C16.1723 13.2309 15.8638 13.3583 15.6106 13.613C15.3574 13.8677 15.2308 14.177 15.2308 14.5409C15.2308 14.9047 15.3581 15.2133 15.6128 15.4665C15.8675 15.7197 16.1768 15.8463 16.5407 15.8463ZM4.99997 17.0001H19V12.0771H4.99997V17.0001Z" fill="white"/>
</svg>
