<svg width="24" height="24" viewBox="0 0 24 24" fill="none" xmlns="http://www.w3.org/2000/svg">
<path d="M8.2885 16.5115L12 12.8L15.7115 16.5115L16.5115 15.7115L12.8 12L16.5115 8.2885L15.7115 7.4885L12 11.2L8.2885 7.4885L7.4885 8.2885L11.2 12L7.4885 15.7115L8.2885 16.5115ZM12.0017 21.5C10.6981 21.5 9.46975 21.2507 8.31675 20.752C7.16375 20.2533 6.1555 19.5724 5.292 18.7092C4.4285 17.8461 3.74725 16.8383 3.24825 15.6858C2.74942 14.5334 2.5 13.3054 2.5 12.0017C2.5 10.6877 2.74933 9.45267 3.248 8.2965C3.74667 7.14033 4.42758 6.13467 5.29075 5.2795C6.15392 4.42433 7.16175 3.74725 8.31425 3.24825C9.46658 2.74942 10.6946 2.5 11.9983 2.5C13.3123 2.5 14.5473 2.74933 15.7035 3.248C16.8597 3.74667 17.8653 4.42342 18.7205 5.27825C19.5757 6.13308 20.2528 7.13833 20.7518 8.294C21.2506 9.44967 21.5 10.6844 21.5 11.9983C21.5 13.3019 21.2507 14.5302 20.752 15.6832C20.2533 16.8362 19.5766 17.8445 18.7218 18.708C17.8669 19.5715 16.8617 20.2528 15.706 20.7518C14.5503 21.2506 13.3156 21.5 12.0017 21.5ZM12 20.3652C14.3282 20.3652 16.3044 19.5506 17.9288 17.9212C19.5531 16.2917 20.3652 14.318 20.3652 12C20.3652 9.67183 19.5531 7.69558 17.9288 6.07125C16.3044 4.44692 14.3282 3.63475 12 3.63475C9.682 3.63475 7.70825 4.44692 6.07875 6.07125C4.44942 7.69558 3.63475 9.67183 3.63475 12C3.63475 14.318 4.44942 16.2917 6.07875 17.9212C7.70825 19.5506 9.682 20.3652 12 20.3652Z" fill="#F24822"/>
</svg>
