<svg width="465" height="56" viewBox="0 0 465 56" fill="none" xmlns="http://www.w3.org/2000/svg">
<path d="M147.734 55.803C143.238 55.803 139.278 54.92 135.853 53.1539C132.481 51.3344 129.832 48.8191 127.905 45.608C126.032 42.3435 125.096 38.5973 125.096 34.3694C125.096 30.1415 126.032 26.4488 127.905 23.2913C129.832 20.1338 132.481 17.672 135.853 15.9059C139.278 14.1399 143.238 13.2568 147.734 13.2568C152.282 13.2568 156.243 14.1399 159.614 15.9059C163.039 17.672 165.689 20.1338 167.562 23.2913C169.435 26.4488 170.371 30.1415 170.371 34.3694C170.371 38.5973 169.408 42.3435 167.481 45.608C165.608 48.8191 162.959 51.3344 159.534 53.1539C156.162 54.92 152.229 55.803 147.734 55.803ZM147.734 46.3305C149.607 46.3305 151.292 45.8488 152.791 44.8855C154.343 43.9222 155.574 42.5575 156.484 40.7915C157.393 38.9719 157.848 36.8044 157.848 34.2891C157.848 30.5964 156.858 27.76 154.878 25.7799C152.951 23.7462 150.57 22.7294 147.734 22.7294C144.897 22.7294 142.489 23.7462 140.509 25.7799C138.582 27.8135 137.619 30.6499 137.619 34.2891C137.619 36.8044 138.074 38.9719 138.983 40.7915C139.893 42.5575 141.097 43.9222 142.596 44.8855C144.148 45.8488 145.86 46.3305 147.734 46.3305Z" fill="white"/>
<path d="M115.357 55.8827C110.112 55.8827 106.205 54.6251 103.636 52.1098C101.121 49.5409 99.8635 45.6609 99.8635 40.4698V4.90756L111.905 0.412109V40.8711C111.905 42.6907 112.413 44.0554 113.43 44.9652C114.447 45.875 116.026 46.3299 118.166 46.3299C118.969 46.3299 119.718 46.2496 120.414 46.0891C121.11 45.9285 121.806 45.7412 122.501 45.5271V54.6786C121.806 55.0532 120.816 55.3476 119.531 55.5616C118.3 55.7757 116.909 55.8827 115.357 55.8827ZM92.2373 23.2105V14.059H122.501V23.2105H92.2373Z" fill="white"/>
<path d="M68.0848 55.803C63.5894 55.803 59.6291 54.92 56.204 53.1539C52.8324 51.3344 50.1833 48.8191 48.2567 45.608C46.3836 42.3435 45.447 38.5973 45.447 34.3694C45.447 30.1415 46.3836 26.4488 48.2567 23.2913C50.1833 20.1338 52.8324 17.672 56.204 15.9059C59.6291 14.1399 63.5894 13.2568 68.0848 13.2568C72.6338 13.2568 76.5941 14.1399 79.9656 15.9059C83.3907 17.672 86.0399 20.1338 87.913 23.2913C89.7861 26.4488 90.7226 30.1415 90.7226 34.3694C90.7226 38.5973 89.7593 42.3435 87.8327 45.608C85.9596 48.8191 83.3105 51.3344 79.8854 53.1539C76.5138 54.92 72.5803 55.803 68.0848 55.803ZM68.0848 46.3305C69.9579 46.3305 71.6437 45.8488 73.1422 44.8855C74.6942 43.9222 75.9251 42.5575 76.8349 40.7915C77.7447 38.9719 78.1996 36.8044 78.1996 34.2891C78.1996 30.5964 77.2095 27.76 75.2294 25.7799C73.3027 23.7462 70.9212 22.7294 68.0848 22.7294C65.2484 22.7294 62.8401 23.7462 60.86 25.7799C58.9334 27.8135 57.9701 30.6499 57.9701 34.2891C57.9701 36.8044 58.425 38.9719 59.3347 40.7915C60.2445 42.5575 61.4487 43.9222 62.9472 44.8855C64.4992 45.8488 66.2117 46.3305 68.0848 46.3305Z" fill="white"/>
<path d="M22.3602 55.803C18.0789 55.803 14.3059 54.8933 11.0413 53.0737C7.77678 51.2541 5.20795 48.7388 3.33485 45.5277C1.51526 42.3167 0.605469 38.6508 0.605469 34.5299C0.605469 30.4091 1.51526 26.7432 3.33485 23.5322C5.20795 20.3211 7.77678 17.8058 11.0413 15.9862C14.3059 14.1666 18.0789 13.2568 22.3602 13.2568C25.9459 13.2568 29.1569 13.9258 31.9933 15.2637C34.8833 16.5481 37.238 18.341 39.0576 20.6422C40.9307 22.9435 42.1348 25.6461 42.67 28.7501H31.03C30.4413 26.7699 29.371 25.2715 27.819 24.2546C26.3205 23.2378 24.5544 22.7294 22.5208 22.7294C20.5942 22.7294 18.9084 23.211 17.4634 24.1744C16.072 25.1377 15.0016 26.5024 14.2524 28.2684C13.5031 30.0345 13.1285 32.1217 13.1285 34.5299C13.1285 36.9382 13.5031 39.0254 14.2524 40.7915C15.0016 42.5575 16.072 43.9222 17.4634 44.8855C18.9084 45.8488 20.5942 46.3305 22.5208 46.3305C24.5544 46.3305 26.3205 45.8221 27.819 44.8053C29.371 43.7884 30.4413 42.2899 31.03 40.3098H42.67C42.1348 43.4138 40.9307 46.1164 39.0576 48.4177C37.238 50.7189 34.8833 52.5385 31.9933 53.8764C29.1569 55.1608 25.9459 55.803 22.3602 55.803Z" fill="white"/>
<path d="M444.532 16.4111C455.429 16.4111 464.366 25.3481 464.366 36.2449H461.779H459.819H429.246C429.246 44.7115 436.066 51.5318 444.532 51.5318C450.726 51.5318 456.056 47.8473 458.408 42.5949L462.485 44.4763C459.349 51.2966 452.529 56.0003 444.532 56.0003C433.636 56.0003 424.777 47.1417 424.777 36.2449C424.777 25.3481 433.636 16.4111 444.532 16.4111ZM444.532 20.958C437.634 20.958 431.833 25.5049 429.951 31.698H459.192C457.232 25.5049 451.431 20.958 444.532 20.958Z" fill="white"/>
<path d="M399.851 16.4111C407.847 16.4111 414.746 21.1932 417.803 28.0135L413.727 29.7382C411.296 24.5642 406.044 20.958 399.851 20.958C391.384 20.958 384.642 27.7783 384.642 36.2449C384.642 44.7115 391.384 51.5318 399.851 51.5318C406.044 51.5318 411.296 47.9257 413.727 42.6733L417.803 44.4763C414.667 51.2966 407.847 56.0003 399.851 56.0003C388.954 56.0003 380.095 47.1417 380.095 36.2449C380.095 25.3481 388.954 16.4111 399.851 16.4111Z" fill="white"/>
<path d="M372.181 32.874V56.0003H367.712V32.874C367.712 26.2888 362.381 20.958 355.796 20.958C349.29 20.958 343.959 25.1129 343.724 32.7956L343.88 56.0003H339.412V32.7956C339.412 21.6636 347.565 16.4895 355.561 16.4111H355.718C363.949 16.4111 372.181 21.6636 372.181 32.7172V32.874Z" fill="white"/>
<path d="M311.663 16.4111C322.56 16.4111 331.497 25.3481 331.497 36.2449V56.0003H326.95V48.788C323.344 53.1781 317.857 56.0003 311.663 56.0003C300.767 56.0003 291.908 47.1417 291.908 36.2449C291.908 25.3481 300.767 16.4111 311.663 16.4111ZM311.663 20.958C303.197 20.958 296.376 27.7783 296.376 36.2449C296.376 44.7115 303.197 51.5318 311.663 51.5318C320.13 51.5318 326.95 44.7115 326.95 36.2449C326.95 27.7783 320.13 20.958 311.663 20.958Z" fill="white"/>
<path d="M279.525 3.71094H283.993V56H279.525V3.71094Z" fill="white"/>
<path d="M251.776 16.4111C262.673 16.4111 271.61 25.3481 271.61 36.2449V56.0003H267.063V48.788C263.457 53.1781 257.97 56.0003 251.776 56.0003C240.88 56.0003 232.021 47.1417 232.021 36.2449C232.021 25.3481 240.88 16.4111 251.776 16.4111ZM251.776 20.958C243.31 20.958 236.489 27.7783 236.489 36.2449C236.489 44.7115 243.31 51.5318 251.776 51.5318C260.243 51.5318 267.063 44.7115 267.063 36.2449C267.063 27.7783 260.243 20.958 251.776 20.958Z" fill="white"/>
<path d="M207.251 3.71094C214.542 3.71094 220.343 9.59052 220.343 16.8812C220.343 20.8009 218.619 24.4855 215.561 26.9941C220.892 29.5027 224.263 34.8335 224.263 40.7131C224.263 49.1797 217.364 56 208.976 56H193.376C190.24 56 187.731 53.4914 187.731 50.434V9.35534C187.731 6.21956 189.534 3.78933 193.376 3.71094H207.251ZM193.297 8.25781C192.592 8.25781 192.2 8.72818 192.2 9.35534V25.4262H208.898C213.68 25.4262 215.875 21.5849 215.875 16.8028C215.875 12.0991 212.112 8.25781 207.33 8.25781H193.297ZM192.278 29.9731V50.3556C192.278 51.0612 192.905 51.5315 193.376 51.5315H208.976C209.211 51.5315 219.716 50.9044 219.716 40.7131C219.716 34.128 213.837 29.9731 208.976 29.9731H192.278Z" fill="white"/>
</svg>
