<svg width="25" height="24" viewBox="0 0 25 24" fill="none" xmlns="http://www.w3.org/2000/svg">
<path d="M4.81836 21V19.5H19.8183V21H4.81836ZM8.38566 17.1153C7.40104 17.1153 6.56034 16.7717 5.86356 16.0846C5.16676 15.3974 4.81836 14.5679 4.81836 13.5961V4H19.9722C20.4798 4 20.9145 4.17661 21.276 4.52982C21.6375 4.88302 21.8183 5.31218 21.8183 5.8173V8.43265C21.8183 8.93778 21.6375 9.36695 21.276 9.72015C20.9145 10.0734 20.4798 10.25 19.9722 10.25H17.9722V13.5961C17.9722 14.5679 17.6238 15.3974 16.927 16.0846C16.2302 16.7717 15.3895 17.1153 14.4049 17.1153H8.38566ZM8.38566 15.6154H14.4049C14.9734 15.6154 15.4601 15.4173 15.8649 15.0211C16.2698 14.6249 16.4722 14.1486 16.4722 13.5923V5.49998H6.31833V13.5959C6.31833 14.1525 6.52076 14.6282 6.92561 15.0231C7.33046 15.4179 7.81714 15.6154 8.38566 15.6154ZM17.9722 8.75H19.9722C20.0683 8.75 20.15 8.71955 20.2174 8.65865C20.2847 8.59775 20.3183 8.52242 20.3183 8.43265V5.8173C20.3183 5.72755 20.2847 5.65223 20.2174 5.59133C20.15 5.53043 20.0683 5.49998 19.9722 5.49998H17.9722V8.75ZM8.38566 15.6154H6.31833H16.4722H8.38566Z" fill="#2F945A"/>
</svg>
