<svg width="16" height="18" viewBox="0 0 16 18" fill="none" xmlns="http://www.w3.org/2000/svg">
<path d="M3.3077 17.4998C2.80898 17.4998 2.38302 17.3232 2.02982 16.97C1.67661 16.6168 1.5 16.1908 1.5 15.6921V2.99981H0.5V1.49983H4.99997V0.615234H11V1.49983H15.5V2.99981H14.5V15.6921C14.5 16.1972 14.325 16.6248 13.975 16.9748C13.625 17.3248 13.1974 17.4998 12.6922 17.4998H3.3077ZM13 2.99981H2.99997V15.6921C2.99997 15.7818 3.02883 15.8556 3.08652 15.9133C3.14423 15.971 3.21795 15.9998 3.3077 15.9998H12.6922C12.7692 15.9998 12.8397 15.9678 12.9038 15.9037C12.9679 15.8395 13 15.769 13 15.6921V2.99981ZM5.40385 13.9998H6.90382V4.99981H5.40385V13.9998ZM9.09613 13.9998H10.5961V4.99981H9.09613V13.9998Z" fill="white"/>
</svg>
