<svg width="58" height="58" viewBox="0 0 58 58" fill="none" xmlns="http://www.w3.org/2000/svg">
<rect width="58" height="58" rx="6" fill="#1F36C7"/>
<g clip-path="url(#clip0_4735_35725)">
<path d="M49.1414 20.8302L38.0398 9.72857C37.5707 9.25949 36.9486 9 36.2833 9C35.6212 9 34.9958 9.25949 34.53 9.72857L25.2182 19.0404L9.71857 34.5367C8.75047 35.5048 8.75047 37.0784 9.71857 38.0465L20.8235 49.1514C21.2926 49.6205 21.9147 49.8767 22.5767 49.8767C23.2388 49.8767 23.8642 49.6172 24.3333 49.1514L38.2261 35.2553L49.1447 24.3367C50.1095 23.3719 50.1095 21.7983 49.1414 20.8302Z" fill="white"/>
<path d="M38.5921 24.8289C37.9633 25.4577 37.1382 25.7704 36.3165 25.7704C35.4948 25.7704 34.6697 25.4577 34.041 24.8289C33.4155 24.2002 33.0995 23.3751 33.0995 22.5534C33.0995 21.7317 33.4155 20.9066 34.041 20.2778C34.6697 19.6491 35.4915 19.333 36.3165 19.333C37.1382 19.333 37.9633 19.6458 38.5921 20.2778C39.2175 20.9033 39.5336 21.7283 39.5336 22.5534C39.5336 23.3784 39.2175 24.2035 38.5921 24.8289ZM48.3563 21.6219L37.2547 10.5169C36.7191 9.98133 35.8508 9.98133 35.3151 10.5169L23.3086 22.5235L36.3498 35.5646L48.3563 23.5581C48.8919 23.0225 48.8919 22.1542 48.3563 21.6219Z" fill="#E31837"/>
<path d="M25.012 34.104C25.6407 33.4752 26.4658 33.1625 27.2842 33.1625C28.1059 33.1625 28.931 33.4752 29.5564 34.104C30.1852 34.7328 30.5012 35.5545 30.5012 36.3796C30.5012 37.2013 30.1885 38.0263 29.5564 38.6518C28.931 39.2772 28.1059 39.5933 27.2842 39.5933C26.4625 39.5933 25.6374 39.2772 25.012 38.6518C24.3832 38.023 24.0705 37.198 24.0705 36.3796C24.0672 35.5545 24.3832 34.7295 25.012 34.104ZM20.1215 38.522C19.4928 39.1475 18.6677 39.4602 17.846 39.4602C17.0209 39.4602 16.1992 39.1475 15.5705 38.522C14.9417 37.8966 14.629 37.0715 14.629 36.2498C14.629 35.4281 14.9417 34.603 15.5705 33.9743C16.1992 33.3488 17.0209 33.0328 17.846 33.0328C18.6677 33.0328 19.4928 33.3455 20.1215 33.9743C20.7503 34.603 21.063 35.4281 21.063 36.2498C21.0597 37.0682 20.747 37.8966 20.1215 38.522ZM10.5037 35.325C9.96809 35.8606 9.96809 36.7289 10.5037 37.2645L21.6086 48.3694C21.8748 48.6356 22.2274 48.772 22.5767 48.772C22.9261 48.772 23.2787 48.6389 23.5448 48.3694L35.5447 36.3662L22.5036 23.3218L10.5037 35.325Z" fill="#0078AE"/>
<path d="M26.9049 48.8351V48.233H26.6887V48.0933H27.2809V48.233H27.0646V48.8351H26.9049Z" fill="#0078AE"/>
<path d="M28.0228 48.8351V48.2995L27.8165 48.8351H27.7466L27.537 48.2995V48.8351H27.3807V48.0933H27.6002L27.7799 48.5557L27.9595 48.0933H28.1824V48.8351H28.0228Z" fill="#0078AE"/>
</g>
<defs>
<clipPath id="clip0_4735_35725">
<rect width="40.8733" height="40.88" fill="white" transform="translate(8.99333 9)"/>
</clipPath>
</defs>
</svg>
