<svg width="44" height="44" viewBox="0 0 44 44" fill="none" xmlns="http://www.w3.org/2000/svg">
<rect x="0.6875" y="0.6875" width="42.625" height="42.625" rx="7.5625" stroke="#2F945A" stroke-width="1.375"/>
<path d="M22 27.2092L16.1298 21.339L17.579 19.8478L20.9688 23.2375V11.6875H23.0312V23.2375L26.421 19.8478L27.8702 21.339L22 27.2092ZM14.1732 32.3125C13.4786 32.3125 12.8906 32.0719 12.4094 31.5906C11.9281 31.1094 11.6875 30.5214 11.6875 29.8268V26.0985H13.75V29.8268C13.75 29.9327 13.7941 30.0297 13.8823 30.1177C13.9703 30.2059 14.0673 30.25 14.1732 30.25H29.8268C29.9327 30.25 30.0297 30.2059 30.1177 30.1177C30.2059 30.0297 30.25 29.9327 30.25 29.8268V26.0985H32.3125V29.8268C32.3125 30.5214 32.0719 31.1094 31.5906 31.5906C31.1094 32.0719 30.5214 32.3125 29.8268 32.3125H14.1732Z" fill="#2F945A"/>
</svg>
