<svg width="288" height="239" viewBox="0 0 288 239" fill="none" xmlns="http://www.w3.org/2000/svg">
<path d="M109.847 63.3682C108.757 62.5854 107.41 62.2683 106.196 61.6952C104.983 61.1221 103.803 60.1212 103.692 58.7839C103.527 56.8085 105.71 55.3157 105.839 53.338C106.019 50.5513 102.248 49.0268 101.695 46.2887C101.237 44.0156 103.169 41.87 103.085 39.5527C103.002 37.2424 101 35.5068 100.083 33.3844C97.9533 28.4498 101.883 22.0858 98.907 17.6098C98.1072 16.4063 96.9045 15.54 95.8851 14.5168C94.8657 13.4927 93.9785 12.1585 94.1 10.7183L88.5125 8.17985C86.6415 5.32116 82.3984 5.20978 79.2063 6.42952C76.0143 7.64848 73.2128 9.84431 69.8955 10.6642C68.2867 11.0617 68.5172 8.67485 66.8929 9.00589C64.7574 9.44135 62.1307 11.9404 61.5228 14.0125C60.87 16.2354 60.416 18.6926 59.6271 20.8707C58.7554 23.2777 56.1728 24.9592 55.9323 27.5069C55.6507 30.4816 58.7252 32.9041 58.7299 35.892C58.7353 39.1064 55.1867 41.9783 56.3175 44.9878C56.9641 46.7072 58.948 47.6291 59.6387 49.3315C60.5923 51.6836 58.6974 54.2607 58.8706 56.793C59.0416 59.2928 61.1415 61.1739 63.1324 62.6953C70.7494 68.5163 79.163 73.3697 88.2294 76.4852C92.1509 77.8326 96.2819 78.8613 100.411 78.4861C104.541 78.111 108.696 76.1356 110.858 72.5971C112.635 69.6904 112.613 65.3552 109.847 63.3682Z" fill="#123922"/>
<path d="M93.8766 9.32732C92.8633 5.29065 89.556 1.91529 85.5418 0.820078C81.5268 -0.275134 76.9634 0.953111 74.0413 3.91544C72.8502 5.12281 71.9042 6.60088 70.4966 7.54759C68.9071 8.61728 68.6751 8.30326 66.8923 9.00478C65.1094 9.7063 61.8455 14.6727 61.9004 16.5877L61.0078 24.9836C61.0805 26.9505 63.6074 28.0573 65.4683 27.4161C67.33 26.7749 68.5645 25.0346 69.5491 23.3299C70.5329 21.6252 71.4556 19.7829 73.066 18.6505C75.7359 16.7726 79.3549 17.4184 82.5524 18.0728C85.7499 18.7271 89.4493 19.1943 91.9445 17.0905C94.0939 15.2798 94.5611 12.0545 93.8766 9.32732Z" fill="#123922"/>
<path d="M95.6352 21.3142C95.2786 15.8482 91.6418 9.1493 86.1959 9.7379L69.197 14.0747C67.5425 14.2533 66.3004 15.668 66.3367 17.3317L68.2479 58.3418C68.2077 58.3511 68.1706 58.3588 68.1304 58.3673C68.1304 58.3673 75.0458 73.0251 86.2864 69.4912C88.5155 68.7904 86.4922 63.2618 86.9338 60.7542L87.0491 60.7689C87.0537 60.4711 87.0576 60.1942 87.0607 59.9096C87.4312 57.0153 87.128 54.2781 87.128 54.2781C87.1597 50.9669 87.1558 49.6087 87.1581 49.6397C87.1581 49.6397 94.1393 48.4648 95.5663 39.3496C96.2756 34.8164 96.0312 27.3866 95.6352 21.3142Z" fill="#FFBE9D"/>
<path d="M94.2234 28.3354C94.2466 28.9526 93.743 29.4809 93.0988 29.5173C92.456 29.5528 91.9146 29.0833 91.8914 28.4661C91.8682 27.8489 92.3717 27.3199 93.0144 27.2843C93.6595 27.2472 94.2002 27.7182 94.2234 28.3354Z" fill="#123922"/>
<path d="M94.0326 25.1823C93.888 25.3355 93.0016 24.6819 91.7439 24.6881C90.4879 24.6765 89.5667 25.3254 89.4298 25.1715C89.3625 25.1034 89.5094 24.8281 89.9109 24.5349C90.3053 24.2426 90.9798 23.9579 91.7633 23.9595C92.5468 23.9618 93.2065 24.2488 93.5855 24.5434C93.9723 24.8381 94.1038 25.1135 94.0326 25.1823Z" fill="#123922"/>
<path d="M82.339 28.7257C82.3622 29.3429 81.8587 29.8712 81.2152 29.9075C80.5724 29.9431 80.0318 29.4736 80.0086 28.8564C79.9854 28.2392 80.4889 27.7101 81.1316 27.6738C81.7744 27.6382 82.3158 28.1092 82.339 28.7257Z" fill="#123922"/>
<path d="M81.6662 25.4435C81.5216 25.5959 80.6337 24.9431 79.3768 24.9493C78.1207 24.9369 77.1995 25.5859 77.0626 25.4327C76.9953 25.3647 77.1415 25.0893 77.5437 24.7962C77.9389 24.5038 78.6126 24.2192 79.3961 24.2207C80.1796 24.2238 80.8386 24.5108 81.2184 24.8047C81.6051 25.0994 81.7374 25.3747 81.6662 25.4435Z" fill="#123922"/>
<path d="M86.2528 34.7599C86.2466 34.6887 87.0278 34.5518 88.2948 34.3871C88.6157 34.3531 88.9197 34.2889 88.9731 34.0692C89.0481 33.8372 88.9135 33.4914 88.7565 33.1178C88.4525 32.3413 88.1354 31.5276 87.8013 30.6745C86.4748 27.1963 85.5142 24.3353 85.6542 24.2834C85.7949 24.2309 86.9845 27.0083 88.3102 30.4866C88.6297 31.3443 88.9352 32.1619 89.2252 32.9446C89.3474 33.3089 89.5578 33.7227 89.3946 34.2046C89.3087 34.4443 89.0736 34.6191 88.8679 34.6756C88.6621 34.739 88.4812 34.7429 88.3226 34.7522C87.0487 34.8241 86.2582 34.8311 86.2528 34.7599Z" fill="#123922"/>
<path d="M87.1558 49.6381C87.1558 49.6381 81.027 50.0472 74.9453 46.4097C74.9453 46.4097 77.92 52.6623 87.0375 51.7898L87.1558 49.6381Z" fill="#EB996E"/>
<path d="M85.7341 37.7921C85.2809 37.195 84.4873 36.8686 83.7007 36.9552C83.1554 37.0148 82.6039 37.2793 82.2737 37.7248C81.9434 38.1695 81.8754 38.8007 82.177 39.2237C82.5173 39.7002 83.2266 39.8085 83.8268 39.6368C84.427 39.4651 84.9421 39.0691 85.4317 38.6738C85.5671 38.5648 85.7055 38.4503 85.7898 38.301C85.8741 38.1517 85.8919 37.956 85.7867 37.8331" fill="#EB996E"/>
<path d="M82.5547 35.6378C82.7589 35.6254 82.7651 36.9906 83.9353 37.9566C85.1033 38.9258 86.5581 38.7695 86.569 38.9606C86.5883 39.0464 86.2456 39.2267 85.6315 39.2445C85.029 39.2661 84.1488 39.0751 83.4326 38.4841C82.7187 37.8917 82.4101 37.0997 82.3621 36.5397C82.3103 35.9689 82.4611 35.6301 82.5547 35.6378Z" fill="#123922"/>
<path d="M82.2377 23.2408C82.1147 23.5827 80.8586 23.4234 79.3837 23.6051C77.9048 23.7567 76.716 24.1914 76.5196 23.8851C76.4322 23.7389 76.6387 23.4164 77.119 23.0846C77.5954 22.7528 78.355 22.4372 79.2406 22.3367C80.1262 22.2377 80.9375 22.3769 81.4751 22.5942C82.018 22.8108 82.2911 23.0784 82.2377 23.2408Z" fill="#123922"/>
<path d="M93.5561 21.5442C93.3356 21.8303 92.4686 21.5356 91.4268 21.524C90.3857 21.4761 89.5032 21.7205 89.2998 21.422C89.21 21.2773 89.3485 20.9911 89.7337 20.7197C90.1127 20.4497 90.7477 20.2277 91.4639 20.2478C92.1793 20.2687 92.8004 20.5263 93.1632 20.8187C93.5321 21.1103 93.6535 21.4042 93.5561 21.5442Z" fill="#123922"/>
<path d="M85.8969 7.40644L85.1242 6.41797C79.8686 7.01894 74.695 8.33923 69.7944 10.3301C67.8344 11.126 65.8497 12.0812 64.5093 13.7178C62.6647 15.9709 62.3707 19.0771 62.1611 21.9814C61.3622 33.038 60.7001 44.4263 64.1806 54.9515C65.0175 53.6049 66.6557 53.0001 68.2119 52.7C69.7681 52.3999 71.4016 52.2985 72.8116 51.5754C74.3585 50.7826 75.4901 49.2689 75.9232 47.5859C76.3564 45.9028 76.1135 44.0752 75.3594 42.5097C74.5148 40.757 73.0065 39.0663 73.3755 37.1558C73.7606 35.1565 76.0586 34.0102 76.5969 32.0464C77.5281 28.6517 72.7621 25.6043 73.7274 22.2189C74.0839 20.969 75.1753 20.0571 76.3386 19.4778C77.5018 18.8984 78.7773 18.5751 79.9552 18.0275C83.8867 16.2022 86.3981 11.7115 85.8969 7.40644Z" fill="#123922"/>
<path d="M131.9 76.8765L121.242 93.4624C121.242 93.4624 122.429 95.4278 124.99 95.3203C127.552 95.2128 131.081 88.8078 131.502 87.5107C131.923 86.2128 131.35 84.9668 131.735 84.1052C132.119 83.2436 131.964 80.8706 131.964 80.8706C131.907 81.0067 134.266 77.8495 131.9 76.8765Z" fill="#FFBE9D"/>
<path d="M118.297 93.4528L123.85 71.4975C124.017 70.8392 124.444 70.277 125.034 69.9413L133.103 65.3415C133.593 65.0623 134.215 65.1961 134.546 65.6532C134.739 65.9193 134.803 66.2565 134.723 66.5744L128.842 89.6845L118.297 93.4528Z" fill="#123922"/>
<path d="M115.497 110.47L128.392 86.6565L123.537 80.3652L105.391 94.1374L110.144 107.224L115.497 110.47Z" fill="#5AAC7D"/>
<path d="M128.543 91.8195C128.506 91.8018 128.718 91.4901 128.791 90.8388C128.876 90.1968 128.829 89.2238 128.521 88.0892L128.506 88.0327L128.535 87.9817C128.737 87.6321 128.834 87.1881 128.684 86.7596C128.547 86.3327 128.197 85.9289 127.785 85.6389L127.643 85.5391L127.739 85.3952C128.195 84.713 128.684 83.9829 129.199 83.2149C129.321 83.0254 129.486 82.8165 129.539 82.6518C129.6 82.4731 129.578 82.2743 129.496 82.0787C129.329 81.6881 128.967 81.3315 128.592 81.0569L128.411 80.9239L128.557 80.7576C128.953 80.3051 129.393 79.8581 129.837 79.4025C130.606 78.585 131.343 77.7798 131.963 76.9506C132.26 76.5314 132.557 76.1184 132.752 75.6868C132.858 75.4749 132.923 75.2552 132.945 75.0572C132.963 74.8546 132.866 74.7424 132.749 74.7192L132.704 74.7099C132.517 74.6574 132.222 74.7285 131.974 74.8229C131.719 74.918 131.472 75.0371 131.235 75.1586C130.762 75.4076 130.324 75.6752 129.917 75.9359C129.104 76.4595 128.414 76.9537 127.844 77.3637C127.32 77.7473 126.883 78.0675 126.526 78.329C126.22 78.5517 126.052 78.6669 126.04 78.6515C126.027 78.636 126.171 78.4914 126.455 78.24C126.739 77.9886 127.163 77.6298 127.714 77.192C128.267 76.7557 128.944 76.2352 129.752 75.686C130.158 75.4122 130.595 75.1307 131.079 74.8646C131.322 74.7339 131.576 74.6055 131.852 74.4973C132.131 74.4013 132.425 74.2753 132.822 74.3688L132.777 74.3596C133.149 74.3851 133.36 74.7966 133.317 75.0727C133.292 75.3535 133.21 75.6103 133.098 75.8438C132.886 76.3234 132.584 76.748 132.279 77.1842C131.649 78.0397 130.905 78.8557 130.131 79.6794C129.686 80.1365 129.244 80.5844 128.854 81.026L128.818 80.7274C129.251 81.0523 129.635 81.4174 129.859 81.9294C129.967 82.1823 130.005 82.4948 129.907 82.7717C129.799 83.0594 129.648 83.2156 129.52 83.4175C128.991 84.1848 128.489 84.9134 128.02 85.5948L127.974 85.3519C128.451 85.7023 128.819 86.1416 128.982 86.666C129.155 87.1897 129.013 87.7411 128.772 88.1232L128.786 88.0157C129.071 89.2068 129.073 90.1999 128.939 90.8643C128.877 91.1969 128.776 91.4421 128.697 91.5991C128.607 91.7515 128.555 91.8265 128.543 91.8195Z" fill="#EB996E"/>
<path d="M134.547 65.6534C134.561 65.6774 134.324 65.8429 133.883 66.1221C133.442 66.4006 132.798 66.7935 131.997 67.2707C131.164 67.7603 130.212 68.3187 129.173 68.929C128.635 69.2384 128.075 69.5609 127.497 69.8943C126.916 70.2222 126.294 70.5385 125.811 70.998C125.327 71.4489 125.13 72.1017 124.963 72.7414C124.795 73.3872 124.632 74.0121 124.476 74.6116C124.165 75.7756 123.879 76.8407 123.629 77.7734C123.383 78.6722 123.176 79.3977 123.024 79.8966C122.873 80.3955 122.776 80.6685 122.75 80.6615C122.723 80.6546 122.768 80.3692 122.873 79.8579C122.977 79.3467 123.142 78.6111 123.353 77.7031C123.578 76.7641 123.835 75.6921 124.117 74.5195C124.266 73.9178 124.421 73.2905 124.581 72.6423C124.743 72.0011 124.956 71.2478 125.53 70.7095C126.083 70.1859 126.723 69.8742 127.306 69.5478C127.889 69.2221 128.451 68.9066 128.992 68.6041C130.046 68.0217 131.01 67.4888 131.855 67.0224C132.673 66.5769 133.339 66.2227 133.803 65.986C134.269 65.7493 134.533 65.6294 134.547 65.6534Z" fill="#35A967"/>
<path d="M129.198 73.1617C128.998 73.6397 128.975 74.0852 129.146 74.1571C129.318 74.229 129.62 73.9003 129.82 73.4223C130.02 72.9443 130.043 72.4988 129.872 72.4269C129.7 72.3549 129.398 72.6837 129.198 73.1617Z" fill="#2F945A"/>
<path d="M89.0312 59.8457C94.6295 61.8667 99.196 66.0272 101.728 71.4135L119.041 108.239L133.953 114.287L120.823 118.071L109.129 109.496L89.0312 59.8457Z" fill="#5AAC7D"/>
<path d="M120.833 118.07L114.551 122.913L83.2132 90.6777L65.2969 58.3179L67.3682 52.2988L81.2192 58.068L86.1794 65.3981L87.2854 56.0949L88.1749 57.3549L89.6205 61.2748C89.6205 61.2748 103.222 72.5904 106.156 81.5617C108.606 89.0503 107.839 104.522 109.33 108.726L120.833 118.07Z" fill="#FAFAFA"/>
<path d="M61.9377 57.8978C61.7281 58.5274 48.5406 63.8248 47.9111 68.4424C47.2815 73.0599 57.3874 108.761 57.3874 108.761L73.4072 122.913H114.546L101.495 98.4803C98.6822 93.2138 95.1289 88.3774 90.9353 84.128C87.0734 80.2151 82.3994 75.3741 79.994 72.4837C77.3867 69.3512 66.3324 54.729 66.3324 54.729L61.9377 57.8978Z" fill="#5AAC7D"/>
<path d="M70.1881 59.3586C70.2136 59.3091 71.1023 59.7129 72.5193 60.4043C73.9355 61.0966 75.8799 62.0773 78.0154 63.1826C78.8639 63.6258 79.6807 64.0519 80.4387 64.4479L80.1602 64.6313C80.0527 62.8747 80.2205 61.365 80.4209 60.32C80.622 59.272 80.8347 58.6795 80.8726 58.6896C80.9213 58.7012 80.789 59.313 80.656 60.3571C80.523 61.4005 80.41 62.8863 80.5415 64.605L80.5678 64.9445L80.2631 64.7883C79.502 64.3984 78.6829 63.9777 77.8306 63.5407C75.6951 62.4354 73.7715 61.4145 72.3885 60.658C71.0048 59.9008 70.1625 59.4081 70.1881 59.3586Z" fill="#123922"/>
<path d="M101.898 91.921C101.873 91.9342 101.64 91.5614 101.239 90.8753C100.808 90.1259 100.242 89.1443 99.561 87.9617C98.1494 85.4983 96.1902 82.102 93.9735 78.3825C91.7545 74.6622 89.6979 71.3232 88.202 68.9108C87.485 67.749 86.891 66.7853 86.437 66.049C86.0239 65.3707 85.8066 64.9878 85.8298 64.9731C85.853 64.9584 86.1144 65.3111 86.5685 65.9639C87.0225 66.6159 87.6637 67.5704 88.4425 68.7584C90.001 71.1337 92.0979 74.4526 94.32 78.1767C96.5391 81.9009 98.4619 85.3235 99.81 87.824C100.484 89.0739 101.02 90.0918 101.377 90.8019C101.735 91.5096 101.922 91.9079 101.898 91.921Z" fill="#123922"/>
<g opacity="0.3">
<path d="M95.5598 116.808C97.9498 117.213 100.401 117.618 102.782 117.165C105.164 116.711 107.499 115.211 108.245 112.904C108.479 112.183 108.58 111.358 109.138 110.844C110.057 109.994 111.523 110.516 112.771 110.402C114.163 110.275 115.357 109.278 116.083 108.083C116.808 106.888 117.142 105.503 117.467 104.143C117.627 103.47 117.789 102.783 117.712 102.096C117.636 101.41 117.272 100.714 116.643 100.43C115.701 100.005 114.638 100.623 113.799 101.227C107.018 106.113 100.836 111.773 94.6719 117.418" fill="#2F945A"/>
</g>
<path d="M110.934 89.5548C110.934 89.5548 113.293 84.1406 114.551 83.3896C115.808 82.6385 122.063 78.9925 122.063 78.9925L121.257 81.9687L127.371 77.7232C128.122 77.2182 132.489 73.2503 133.263 74.7988C133.821 75.9133 130.256 78.8509 129.778 79.5045C128.583 81.1388 128.98 80.988 128.98 80.988C128.98 80.988 130.275 81.7669 129.625 82.9216C128.974 84.0764 127.879 85.4918 127.879 85.4918C127.879 85.4918 129.58 86.0982 128.587 88.3095C128.587 88.3095 129.04 89.4991 128.76 91.1489C128.479 92.7987 125.497 95.935 125.497 95.935L110.618 103.022L104.617 92.8373L110.934 89.5548Z" fill="#FFBE9D"/>
<path d="M76.2821 79.3781L85.8235 99.7501L106.985 90.5569C106.985 90.5569 115.768 95.681 114.551 101.28L95.4855 116.942C91.8758 119.907 87.2087 121.264 82.5719 120.696C77.5924 120.087 73.1326 117.318 70.3776 113.125L56.5768 92.1223L48.8608 79.5096C46.3912 75.4737 46.3904 70.2745 49.1841 66.456C49.9468 65.4134 50.8548 64.5417 51.9106 63.8982C55.354 61.8013 65.5922 60.8925 76.2821 79.3781Z" fill="#86D8A9"/>
<path d="M123.22 80.5545C123.275 80.6434 121.883 81.601 120.112 82.6939C118.341 83.7875 116.861 84.602 116.806 84.513C116.751 84.4249 118.143 83.4666 119.914 82.3729C121.685 81.2808 123.165 80.4655 123.22 80.5545Z" fill="#EB996E"/>
<path d="M129.184 80.3681C129.255 80.4439 128.011 81.7866 126.405 83.3668C124.8 84.9477 123.438 86.1698 123.363 86.0971C123.288 86.0244 124.531 84.6824 126.141 83.0984C127.75 81.5151 129.112 80.2923 129.184 80.3681Z" fill="#EB996E"/>
<path d="M128.385 84.9576C128.464 85.0249 127.881 85.8401 127.082 86.7783C126.283 87.7165 125.571 88.4219 125.492 88.3546C125.412 88.2873 125.996 87.4721 126.795 86.5339C127.594 85.5957 128.306 84.8903 128.385 84.9576Z" fill="#EB996E"/>
<path d="M128.653 88.0514C128.732 88.121 128.404 88.623 127.985 89.2239C127.565 89.8234 127.206 90.3045 127.114 90.2534C127.024 90.2047 127.243 89.6262 127.677 89.0082C128.108 88.3878 128.576 87.9833 128.653 88.0514Z" fill="#EB996E"/>
<path d="M92.2369 118.962C92.2339 118.958 92.2663 118.927 92.3336 118.869C92.4148 118.801 92.5131 118.718 92.6368 118.615C92.9261 118.381 93.3252 118.06 93.8357 117.647C94.9123 116.795 96.4569 115.571 98.4107 114.024C102.381 110.911 108.008 106.498 114.725 101.232L114.657 101.365C114.659 100.327 114.475 99.2639 114.058 98.246C113.619 97.2397 113.019 96.2791 112.301 95.3773C110.833 93.6037 108.971 92.022 106.889 90.7273L107.066 90.7381C103.563 92.2626 99.8849 93.8613 96.1096 95.5033C92.6113 97.0216 89.1965 98.5036 85.9055 99.9322L85.7353 100.006L85.651 99.8409C82.8418 94.3161 80.253 89.1154 77.6202 84.5992C76.3169 82.3345 75.0206 80.233 73.8017 78.2824C72.5804 76.3317 71.4666 74.5149 70.3296 72.9525C68.1059 69.7774 65.6077 67.8376 63.7375 66.8399C63.2796 66.5692 62.8557 66.3626 62.4883 66.1855C62.1256 65.9984 61.8092 65.8607 61.5524 65.7532C61.3119 65.6472 61.1209 65.5629 60.9739 65.4972C60.844 65.4376 60.779 65.4043 60.7813 65.3989C60.7813 65.3989 61.9098 65.7207 63.8055 66.7192C64.7491 67.2204 65.873 67.9212 67.0355 68.9267C68.2088 69.919 69.3852 71.2362 70.5369 72.8024C71.6955 74.3664 72.8263 76.1793 74.0592 78.1215C75.2913 80.066 76.6016 82.1643 77.918 84.4282C80.5771 88.9429 83.186 94.1459 86.0021 99.663L85.7477 99.5717C89.0379 98.1408 92.4512 96.6566 95.9488 95.1352C99.7255 93.4962 103.404 91.8998 106.909 90.3784L107.005 90.3374L107.087 90.3893C109.22 91.7211 111.091 93.3191 112.594 95.1414C113.326 96.0672 113.943 97.0595 114.396 98.1068C114.827 99.1672 115.02 100.286 115.011 101.38L115.01 101.46L114.942 101.512C108.189 106.731 102.53 111.105 98.5391 114.189C96.5598 115.704 94.9943 116.901 93.9037 117.735C93.3786 118.128 92.9686 118.437 92.6716 118.66C92.5409 118.754 92.4365 118.83 92.3514 118.892C92.2787 118.942 92.24 118.966 92.2369 118.962Z" fill="#123922"/>
<path d="M84.5372 106.156C84.4265 106.109 85.0113 104.654 85.3446 102.77C85.6919 100.888 85.654 99.3209 85.7739 99.3155C85.8752 99.3016 86.0972 100.901 85.7406 102.842C85.3957 104.784 84.6269 106.205 84.5372 106.156Z" fill="#123922"/>
<path d="M200.979 165.999L212.061 179.883C212.061 179.883 229.895 173.28 232.193 175.647L206.046 198.102L187.891 177.179L200.979 165.999Z" fill="#5AAC7D"/>
<g opacity="0.6">
<path d="M202.993 185.694C202.606 186.267 202.745 187.135 203.301 187.546C203.857 187.957 204.743 187.823 205.14 187.257C205.537 186.691 205.402 185.642 204.804 185.297C204.205 184.951 203.174 185.165 202.924 185.81" fill="#2F945A"/>
</g>
<g opacity="0.6">
<path d="M206.044 198.103L204.297 195.922L230.02 175.208C230.02 175.208 231.619 174.715 232.192 175.649L206.044 198.103Z" fill="#2F945A"/>
</g>
<path d="M212.363 179.386C212.469 179.518 211.88 180.123 211.604 181.074C211.304 182.017 211.455 182.848 211.294 182.898C211.155 182.975 210.69 182.048 211.044 180.904C211.388 179.756 212.29 179.245 212.363 179.386Z" fill="#123922"/>
<path d="M216.084 178.165C216.22 178.264 215.853 178.955 215.883 179.868C215.886 180.781 216.278 181.459 216.147 181.562C216.044 181.685 215.313 181.014 215.298 179.878C215.271 178.744 215.977 178.045 216.084 178.165Z" fill="#123922"/>
<path d="M220.459 180.11C220.366 180.237 219.641 179.751 219.368 178.771C219.088 177.792 219.453 176.999 219.599 177.059C219.761 177.103 219.696 177.81 219.931 178.612C220.15 179.418 220.575 179.988 220.459 180.11Z" fill="#123922"/>
<path d="M209.492 176.502C209.538 176.665 208.801 176.992 208.121 177.66C207.428 178.315 207.074 179.04 206.914 178.987C206.76 178.959 206.903 178.015 207.715 177.239C208.52 176.457 209.468 176.348 209.492 176.502Z" fill="#123922"/>
<g opacity="0.3">
<path d="M203.167 168.752L205.145 171.223L192.194 182.143L190.32 179.994L203.167 168.752Z" fill="#2F945A"/>
</g>
<path d="M207.199 173.743C207.246 173.794 206.809 174.307 205.883 174.861C205.422 175.136 204.836 175.411 204.152 175.617C203.809 175.719 203.443 175.805 203.057 175.863C202.87 175.89 202.661 175.934 202.398 175.895C202.142 175.884 201.77 175.614 201.756 175.266C201.717 174.951 201.88 174.661 202.064 174.494C202.252 174.323 202.441 174.228 202.614 174.14C202.965 173.961 203.321 173.823 203.668 173.72C204.362 173.518 205.015 173.457 205.556 173.476C206.645 173.517 207.261 173.816 207.239 173.878C207.217 173.97 206.578 173.824 205.563 173.89C205.057 173.924 204.459 174.023 203.829 174.235C203.515 174.343 203.195 174.479 202.879 174.649C202.539 174.815 202.302 175.015 202.337 175.199C202.351 175.269 202.364 175.29 202.491 175.321C202.615 175.344 202.791 175.321 202.975 175.297C203.336 175.249 203.682 175.18 204.007 175.098C204.658 174.932 205.226 174.713 205.69 174.496C206.618 174.061 207.141 173.671 207.199 173.743Z" fill="#123922"/>
<path d="M207.194 174.069C207.166 174.127 206.52 173.887 205.763 173.1C205.388 172.709 205.005 172.175 204.71 171.513C204.564 171.181 204.443 170.819 204.361 170.432C204.292 170.042 204.182 169.535 204.629 169.054C204.879 168.822 205.268 168.839 205.49 168.949C205.728 169.052 205.876 169.189 206.036 169.313C206.347 169.577 206.598 169.882 206.794 170.194C207.19 170.822 207.36 171.481 207.397 172.028C207.467 173.144 207.066 173.754 207.018 173.72C206.92 173.692 207.154 173.064 206.985 172.077C206.903 171.591 206.71 171.02 206.343 170.491C206.161 170.226 205.936 169.973 205.669 169.755C205.39 169.512 205.093 169.378 205.013 169.495C204.882 169.605 204.84 170.004 204.923 170.317C204.991 170.667 205.09 170.999 205.209 171.306C205.451 171.919 205.768 172.433 206.077 172.83C206.7 173.629 207.247 173.989 207.194 174.069Z" fill="#123922"/>
<path d="M188.925 208.797L188.236 226.96C188.236 226.96 206.468 233.76 206.667 237.129L171.401 237.06L171.312 208.715L188.925 208.797Z" fill="#5AAC7D"/>
<g opacity="0.6">
<path d="M177.334 225.41C176.651 225.596 176.178 226.362 176.335 227.052C176.492 227.741 177.267 228.229 177.953 228.056C178.639 227.883 179.235 226.98 179.002 226.312C178.768 225.644 177.827 225.121 177.202 225.454" fill="#2F945A"/>
</g>
<g opacity="0.6">
<path d="M171.398 237.059L171.501 234.202L205.276 235.338C205.276 235.338 206.844 236.024 206.665 237.13L171.398 237.059Z" fill="#2F945A"/>
</g>
<path d="M188.812 226.781C188.806 226.954 187.945 227.03 187.096 227.582C186.233 228.112 185.795 228.856 185.637 228.788C185.478 228.755 185.737 227.726 186.776 227.075C187.809 226.416 188.85 226.624 188.812 226.781Z" fill="#123922"/>
<path d="M192.499 228.319C192.538 228.486 191.791 228.778 191.205 229.505C190.597 230.215 190.448 231.002 190.277 230.994C190.115 231.021 189.997 230.012 190.744 229.122C191.482 228.225 192.495 228.155 192.499 228.319Z" fill="#123922"/>
<path d="M194.596 232.75C194.44 232.787 194.202 231.926 194.646 230.984C195.083 230.038 195.896 229.667 195.968 229.811C196.065 229.953 195.541 230.458 195.189 231.238C194.818 232.007 194.767 232.733 194.596 232.75Z" fill="#123922"/>
<path d="M188.503 222.625C188.43 222.782 187.64 222.543 186.667 222.607C185.693 222.651 184.935 222.976 184.845 222.829C184.745 222.704 185.486 222.068 186.634 222.009C187.781 221.94 188.588 222.49 188.503 222.625Z" fill="#123922"/>
<g opacity="0.3">
<path d="M188.779 212.394L188.661 215.631L171.329 215.439L171.312 212.522L188.779 212.394Z" fill="#2F945A"/>
</g>
<path d="M188.578 218.957C188.579 219.028 187.899 219.134 186.811 218.945C186.27 218.851 185.633 218.672 184.964 218.374C184.631 218.225 184.289 218.045 183.951 217.833C183.789 217.728 183.596 217.623 183.419 217.417C183.229 217.237 183.121 216.781 183.342 216.501C183.523 216.23 183.842 216.114 184.097 216.109C184.357 216.101 184.568 216.154 184.759 216.201C185.152 216.297 185.52 216.429 185.857 216.58C186.53 216.888 187.077 217.277 187.483 217.652C188.3 218.412 188.578 219.056 188.519 219.089C188.441 219.145 188.044 218.605 187.213 217.978C186.798 217.666 186.268 217.343 185.64 217.087C185.324 216.961 184.984 216.852 184.626 216.772C184.253 216.673 183.935 216.67 183.839 216.837C183.804 216.9 183.799 216.925 183.878 217.034C183.958 217.135 184.11 217.234 184.269 217.338C184.581 217.543 184.894 217.72 185.201 217.874C185.815 218.18 186.404 218.39 186.907 218.531C187.917 218.816 188.581 218.865 188.578 218.957Z" fill="#123922"/>
<path d="M188.36 219.205C188.299 219.231 187.958 218.613 187.897 217.497C187.869 216.944 187.928 216.274 188.142 215.565C188.251 215.21 188.399 214.848 188.593 214.493C188.801 214.145 189.054 213.679 189.722 213.604C190.071 213.592 190.36 213.865 190.458 214.098C190.574 214.337 190.598 214.541 190.638 214.746C190.703 215.158 190.694 215.562 190.637 215.935C190.525 216.685 190.216 217.31 189.879 217.758C189.187 218.671 188.469 218.875 188.454 218.817C188.397 218.73 188.998 218.399 189.527 217.522C189.788 217.09 190.02 216.519 190.089 215.864C190.125 215.538 190.12 215.191 190.059 214.844C190.005 214.469 189.865 214.166 189.724 214.204C189.549 214.201 189.25 214.483 189.106 214.781C188.924 215.097 188.779 215.42 188.666 215.738C188.444 216.375 188.346 216.985 188.32 217.5C188.271 218.533 188.453 219.179 188.36 219.205Z" fill="#123922"/>
<path d="M171.047 122.913L205.947 169.293L189.623 183.315L172.817 161.34L171.047 122.913Z" fill="#123922"/>
<path d="M97.1484 125.131C97.1484 125.131 153.296 108.027 158.439 108.242C163.583 108.456 173.345 127.027 173.345 127.027L157.582 126.457C153.537 136.38 146.066 146.594 137.651 156.888L105.419 155.388L97.1484 125.131Z" fill="#123922"/>
<path d="M143.042 111.616C143.074 111.723 137.302 113.532 130.153 115.656C123.002 117.782 117.18 119.418 117.149 119.311C117.117 119.204 122.887 117.395 130.038 115.27C137.188 113.146 143.011 111.509 143.042 111.616Z" fill="#123922"/>
<path d="M156.092 126.158H171.857C179.724 126.158 186.733 131.122 189.345 138.542C190.575 142.035 191.115 145.733 190.936 149.432L189.709 213.563H168.486L168.106 193.068L165.422 154.105L147.051 154.882L136.641 154.233L156.092 126.158Z" fill="#123922"/>
<path d="M156.562 125.838C156.589 125.845 156.482 126.326 156.265 127.193C156.068 128.066 155.679 129.301 155.15 130.81C154.573 132.3 153.86 134.077 152.809 135.918C151.782 137.769 150.496 139.72 148.97 141.629C145.894 145.432 142.673 148.462 140.397 150.691C139.283 151.761 138.364 152.644 137.674 153.307C137.027 153.921 136.661 154.252 136.641 154.233C136.621 154.214 136.951 153.846 137.563 153.197C138.174 152.545 139.077 151.623 140.196 150.489C142.422 148.209 145.605 145.15 148.656 141.378C151.701 137.598 153.736 133.668 154.884 130.708C155.444 129.223 155.872 128.007 156.114 127.15C156.377 126.299 156.535 125.831 156.562 125.838Z" fill="#35A967"/>
<path d="M175.839 126.59C175.831 126.651 174.74 126.551 172.975 126.452C171.21 126.349 168.769 126.278 166.073 126.335C163.375 126.387 160.936 126.547 159.17 126.667C157.405 126.79 156.312 126.872 156.305 126.814C156.302 126.786 156.571 126.73 157.061 126.653C157.552 126.575 158.263 126.482 159.145 126.383C160.908 126.191 163.354 125.984 166.064 125.933C168.774 125.875 171.229 125.993 172.996 126.168C173.88 126.252 174.592 126.346 175.083 126.426C175.574 126.506 175.843 126.563 175.839 126.59Z" fill="#35A967"/>
<path d="M168.398 201.846C168.384 201.846 168.365 201.663 168.341 201.312C168.319 200.92 168.291 200.411 168.255 199.777C168.193 198.397 168.108 196.481 168.003 194.133C167.794 189.368 167.506 182.784 167.05 175.522C166.592 168.258 166.052 161.69 165.662 156.936C165.472 154.594 165.316 152.682 165.204 151.306C165.16 150.673 165.124 150.164 165.096 149.773C165.076 149.422 165.072 149.237 165.086 149.236C165.1 149.234 165.131 149.417 165.178 149.765C165.224 150.154 165.285 150.661 165.36 151.29C165.503 152.665 165.702 154.573 165.946 156.91C166.409 161.659 166.994 168.226 167.453 175.497C167.909 182.764 168.152 189.353 168.288 194.123C168.34 196.472 168.382 198.39 168.413 199.772C168.417 200.406 168.421 200.917 168.423 201.309C168.42 201.661 168.412 201.845 168.398 201.846Z" fill="#123922"/>
<path d="M190.969 146.96C191.08 146.962 191.005 161.656 190.801 179.777C190.598 197.904 190.342 212.594 190.231 212.593C190.12 212.592 190.195 197.9 190.399 179.773C190.602 161.652 190.859 146.959 190.969 146.96Z" fill="#35A967"/>
<path d="M173.657 144.564C173.694 144.687 171.483 145.243 169.131 146.701C166.764 148.138 165.268 149.858 165.175 149.769C165.137 149.737 165.462 149.265 166.103 148.601C166.742 147.937 167.717 147.098 168.921 146.358C170.126 145.62 171.315 145.13 172.196 144.862C173.079 144.592 173.646 144.516 173.657 144.564Z" fill="#123922"/>
<g opacity="0.3">
<path d="M136.641 154.24C140.92 155.031 145.622 153.72 149.288 151.432C152.954 149.144 155.668 145.456 156.713 141.344C157.181 139.496 157.324 137.581 157.79 135.734C158.256 133.886 159.106 132.037 160.66 130.88C162.457 129.543 166.877 128.691 168.194 126.902C168.194 126.632 162.954 127.239 161.195 127.336C159.281 127.441 156.071 127.926 156.136 127.701C156.136 127.701 154.854 132.194 154.285 133.171C150.458 139.736 142.066 149.381 136.641 154.24Z" fill="#2F945A"/>
</g>
<path d="M49.1406 199.638L55.1071 238.672H61.0279L58.1127 199.785L49.1406 199.638Z" fill="#123922"/>
<path d="M154.164 199.785V238.672H160.414L162.741 199.638L154.164 199.785Z" fill="#123922"/>
<path d="M48.0798 78.9937C48.0798 78.9937 39.7203 79.3255 37.1594 82.8331C32.647 89.0138 35.1824 94.373 34.931 96.2007C34.6797 98.0284 49.1379 199.638 49.1379 199.638H55.0896L162.74 200.632L167.905 188.071L165.421 154.105L136.639 154.234C136.639 154.234 124.853 120.402 114.548 118.141C107.57 116.609 91.1798 117.151 81.3236 117.662C76.4021 117.916 71.7204 115.53 69.0435 111.393L48.0798 78.9937Z" fill="#35A967"/>
<path d="M143.489 195.645C143.489 195.645 142.896 195.722 141.752 195.777C140.608 195.81 138.92 195.863 136.737 195.882C132.373 195.941 126.036 195.961 118.143 195.954C102.36 195.942 80.3571 195.817 55.4812 195.601L55.3204 195.6L55.2879 195.443C54.8408 193.313 54.3814 191.127 53.915 188.904C53.4687 186.676 53.0147 184.412 52.5576 182.129C47.1535 154.578 43.9854 129.335 42.2822 111.029C41.426 101.874 40.9132 94.4503 40.5884 89.3192C40.4476 86.7622 40.3385 84.7729 40.2635 83.4077C40.2318 82.741 40.2078 82.2297 40.1908 81.8701C40.1769 81.5236 40.18 81.3457 40.18 81.3457C40.18 81.3457 40.2047 81.522 40.2318 81.8678C40.2581 82.2274 40.2952 82.7379 40.344 83.4031C40.436 84.7674 40.5713 86.7537 40.7446 89.3084C41.1174 94.4356 41.6735 101.853 42.5653 111.002C44.3404 129.294 47.551 154.516 52.952 182.051C53.4084 184.332 53.8616 186.596 54.3079 188.822C54.7735 191.044 55.2314 193.23 55.6777 195.358L55.4843 195.201C80.3525 195.393 102.35 195.564 118.143 195.686C126.025 195.707 132.358 195.724 136.735 195.736C138.907 195.72 140.591 195.709 141.748 195.701C142.319 195.7 142.75 195.658 143.043 195.653C143.337 195.642 143.489 195.645 143.489 195.645Z" fill="#123922"/>
<path d="M142.358 200.442C142.344 200.439 142.36 200.273 142.402 199.959C142.455 199.603 142.523 199.148 142.606 198.588C142.702 197.994 142.818 197.267 142.912 196.418C143.009 195.57 143.159 194.608 143.235 193.535C143.333 192.465 143.442 191.293 143.487 190.03C143.572 188.769 143.576 187.419 143.595 185.999C143.579 183.159 143.428 180.037 143.057 176.78C142.666 173.525 142.091 170.451 141.464 167.68C140.814 164.915 140.112 162.451 139.445 160.408C139.137 159.377 138.79 158.468 138.516 157.659C138.243 156.848 137.981 156.161 137.765 155.6C137.569 155.068 137.41 154.637 137.285 154.3C137.179 154 137.13 153.841 137.143 153.836C137.156 153.83 137.23 153.979 137.36 154.269C137.503 154.599 137.686 155.021 137.912 155.543C138.151 156.096 138.435 156.777 138.728 157.582C139.023 158.386 139.39 159.291 139.717 160.319C140.421 162.358 141.154 164.823 141.826 167.597C142.476 170.375 143.064 173.462 143.457 176.735C143.831 180.008 143.971 183.147 143.967 186.001C143.938 187.428 143.922 188.784 143.821 190.05C143.762 191.317 143.635 192.493 143.52 193.566C143.426 194.641 143.255 195.603 143.136 196.451C143.022 197.3 142.883 198.025 142.762 198.616C142.648 199.172 142.555 199.623 142.483 199.975C142.415 200.284 142.372 200.446 142.358 200.442Z" fill="#123922"/>
<path d="M63.4691 127.648C63.4606 127.637 63.6106 127.511 63.9045 127.281C64.2333 127.03 64.6649 126.701 65.2039 126.289C65.4917 126.074 65.8072 125.837 66.1507 125.579C66.5119 125.343 66.9195 125.109 67.3503 124.846C68.2204 124.336 69.1787 123.691 70.342 123.174C70.9151 122.895 71.5138 122.605 72.1364 122.302C72.7583 121.994 73.4467 121.769 74.1366 121.482C74.8358 121.22 75.5427 120.9 76.3023 120.662C77.0618 120.422 77.843 120.175 78.6435 119.922C81.868 118.989 85.4808 118.157 89.3311 117.699C93.176 117.213 96.8707 116.984 100.228 117.038C101.908 117.009 103.501 117.145 104.992 117.199C106.479 117.337 107.867 117.433 109.124 117.611C111.642 117.938 113.658 118.355 115.035 118.696C115.688 118.877 116.211 119.022 116.609 119.132C116.968 119.235 117.154 119.297 117.15 119.31C117.146 119.324 116.953 119.289 116.588 119.211C116.186 119.119 115.658 118.999 114.999 118.849C113.616 118.556 111.601 118.184 109.089 117.894C107.835 117.735 106.451 117.655 104.97 117.533C103.485 117.494 101.898 117.371 100.226 117.41C96.8831 117.376 93.2069 117.615 89.3814 118.099C85.5505 118.555 81.9578 119.372 78.7471 120.279C77.9497 120.525 77.1716 120.765 76.4152 120.997C75.658 121.228 74.9549 121.54 74.2572 121.794C73.5689 122.071 72.882 122.288 72.261 122.587C71.6383 122.879 71.0397 123.161 70.4673 123.43C69.3025 123.927 68.3426 124.551 67.4655 125.039C67.0316 125.292 66.6209 125.515 66.2551 125.74C65.907 125.985 65.586 126.211 65.2937 126.418C64.7376 126.802 64.292 127.111 63.954 127.345C63.6447 127.554 63.4776 127.658 63.4691 127.648Z" fill="#123922"/>
<path d="M127.448 133.146C127.455 133.149 127.429 133.235 127.374 133.401C127.316 133.566 127.24 133.816 127.113 134.134C126.83 134.755 126.376 135.674 125.525 136.668C124.679 137.66 123.44 138.71 121.804 139.589C120.98 140.015 120.066 140.404 119.063 140.724C118.056 141.027 116.967 141.265 115.805 141.391C113.48 141.64 110.908 141.451 108.22 140.961C105.527 140.479 102.713 139.702 99.7409 138.988C96.7732 138.29 93.5997 137.664 90.2877 137.738C88.6364 137.767 86.9596 138.001 85.3338 138.499C83.7064 138.99 82.1587 139.801 80.7456 140.825C77.9032 142.887 75.7916 145.68 74.0274 148.476C72.26 151.288 70.8585 154.187 69.3658 156.869C67.8854 159.555 66.3253 162.048 64.5255 164.122C62.745 166.201 60.7038 167.845 58.5738 168.823C56.4475 169.794 54.3344 170.241 52.4805 170.259C50.6219 170.284 49.0316 169.911 47.8374 169.391C47.2272 169.151 46.7445 168.824 46.3137 168.568C45.9154 168.263 45.5774 168.004 45.3252 167.773C45.1017 167.537 44.9246 167.35 44.7892 167.208C44.6709 167.079 44.6121 167.011 44.6175 167.007C44.6229 167.002 44.691 167.061 44.8194 167.18C44.9609 167.315 45.1458 167.491 45.3794 167.714C45.6377 167.933 45.9811 168.178 46.3802 168.469C46.8126 168.711 47.2937 169.022 47.8985 169.247C49.0827 169.736 50.6489 170.08 52.4758 170.034C54.2981 169.995 56.3725 169.535 58.4523 168.565C60.5337 167.59 62.5222 165.969 64.2726 163.904C66.0384 161.848 67.5752 159.371 69.0409 156.69C70.519 154.015 71.9151 151.107 73.6925 148.267C75.4676 145.446 77.6015 142.61 80.5089 140.5C81.9538 139.452 83.5448 138.619 85.2154 138.117C86.8838 137.607 88.5985 137.371 90.2792 137.345C93.6492 137.275 96.8489 137.918 99.8275 138.628C102.808 139.355 105.61 140.142 108.281 140.634C110.946 141.135 113.486 141.336 115.776 141.108C116.919 140.994 117.994 140.77 118.989 140.48C119.979 140.175 120.884 139.801 121.701 139.391C123.32 138.544 124.555 137.529 125.407 136.567C127.105 134.603 127.374 133.102 127.448 133.146Z" fill="#2F945A"/>
<path d="M166.784 182.624C166.784 182.624 166.669 182.659 166.444 182.706C166.201 182.755 165.87 182.821 165.446 182.906C165.002 182.975 164.492 183.206 163.868 183.395C163.551 183.479 163.247 183.669 162.902 183.817C162.565 183.983 162.189 184.127 161.834 184.362C160.342 185.175 158.691 186.459 156.906 188.087C155.111 189.706 153.194 191.696 150.84 193.653C149.658 194.62 148.365 195.592 146.866 196.354C146.14 196.78 145.323 197.056 144.511 197.377C144.089 197.49 143.663 197.604 143.233 197.719C142.806 197.849 142.352 197.869 141.906 197.949C140.11 198.182 138.212 198.081 136.33 197.665C134.443 197.26 132.59 196.516 130.783 195.602C127.168 193.755 123.766 191.151 120.516 188.199C117.271 185.256 113.952 182.135 110.081 179.587C108.147 178.321 106.112 177.247 103.978 176.545C101.851 175.835 99.6308 175.517 97.4659 175.642C95.2994 175.767 93.2142 176.332 91.2798 177.125C89.3407 177.918 87.5409 178.928 85.8292 179.978C82.4098 182.091 79.299 184.349 76.1348 186.073C72.9605 187.772 69.7947 188.954 66.8208 189.666C60.8606 191.134 55.8207 190.943 52.4485 190.532C49.0592 190.081 47.2578 189.482 47.2578 189.482C47.2578 189.482 47.3762 189.496 47.6012 189.542C47.8433 189.594 48.1744 189.665 48.599 189.756C49.4753 189.942 50.777 190.181 52.467 190.377C55.8316 190.738 60.8436 190.883 66.752 189.39C69.7012 188.666 72.8352 187.477 75.9746 185.78C79.1064 184.059 82.2033 181.796 85.6343 179.662C87.3529 178.602 89.1667 177.579 91.1336 176.77C93.0951 175.961 95.2244 175.38 97.4427 175.249C99.6594 175.118 101.934 175.443 104.104 176.165C106.279 176.879 108.346 177.971 110.3 179.251C114.212 181.826 117.54 184.963 120.78 187.907C124.01 190.85 127.385 193.438 130.951 195.272C132.733 196.179 134.557 196.917 136.407 197.32C138.252 197.733 140.106 197.839 141.863 197.618C142.298 197.541 142.742 197.525 143.16 197.399C143.581 197.289 143.998 197.179 144.411 197.07C145.207 196.758 146.007 196.493 146.723 196.079C148.198 195.34 149.481 194.386 150.66 193.434C153.008 191.505 154.94 189.529 156.755 187.921C158.56 186.303 160.239 185.025 161.758 184.226C162.119 183.995 162.502 183.854 162.844 183.693C163.196 183.549 163.503 183.364 163.826 183.285C164.46 183.105 164.978 182.886 165.427 182.83C165.857 182.761 166.193 182.707 166.438 182.667C166.666 182.632 166.784 182.624 166.784 182.624Z" fill="#2F945A"/>
<path d="M59.1486 98.141C59.171 98.1464 59.1138 98.4984 58.9382 99.1187C58.7642 99.739 58.4401 100.62 57.9049 101.645C56.8576 103.684 54.7615 106.299 51.5973 107.955C48.4293 109.607 45.0856 109.833 42.8132 109.527C41.6662 109.382 40.7581 109.144 40.1494 108.932C39.5399 108.723 39.219 108.568 39.2267 108.546C39.2507 108.464 40.5764 109.028 42.8426 109.244C45.0825 109.472 48.3318 109.203 51.4102 107.598C54.4846 105.988 56.5621 103.476 57.6543 101.507C58.7727 99.5247 59.0666 98.1139 59.1486 98.141Z" fill="#2F945A"/>
<path d="M18.9566 125.694C18.9566 127.419 19.6525 128.987 20.7893 130.114C21.9163 131.251 23.4843 131.946 25.2091 131.946H100.023C98.2986 131.946 96.7306 131.251 95.6036 130.114C94.4667 128.987 93.7709 127.419 93.7709 125.694C93.7709 122.244 96.564 119.441 100.023 119.441H25.2091C21.7487 119.441 18.9566 122.244 18.9566 125.694Z" fill="#123922"/>
<path d="M93.7658 125.694C93.7658 127.419 94.4616 128.987 95.5984 130.114C96.7254 131.251 98.2935 131.946 100.018 131.946H267.66C271.119 131.946 273.922 129.153 273.922 125.694C273.922 123.969 273.226 122.401 272.089 121.274C270.952 120.147 269.384 119.441 267.66 119.441H100.018C96.5588 119.441 93.7658 122.244 93.7658 125.694Z" fill="#35A967"/>
<path d="M285.122 238.292C287.127 238.292 288.516 236.291 287.817 234.413L249.661 131.945H243.523L282.426 236.42C282.846 237.545 283.92 238.292 285.122 238.292Z" fill="#123922"/>
<path d="M77.6435 238.292C75.6384 238.292 74.2488 236.291 74.9485 234.413L113.104 131.945H119.242L80.3396 236.42C79.9201 237.545 78.845 238.292 77.6435 238.292Z" fill="#123922"/>
<path d="M15.496 238.292C13.4909 238.292 12.1013 236.292 12.801 234.413L50.9559 131.946H57.0938L18.1911 236.42C17.7716 237.545 16.6966 238.292 15.496 238.292Z" fill="#123922"/>
<path d="M89.5617 113.351H160.205C161.887 113.351 163.25 114.714 163.25 116.396C163.25 118.078 161.887 119.441 160.205 119.441H89.5617C87.88 119.441 86.5168 118.078 86.5168 116.396C86.5168 114.714 87.88 113.351 89.5617 113.351Z" fill="#2F945A"/>
<path d="M143.974 119.44H228.756C230.172 119.44 231.627 118.292 232.004 116.876L246.355 63.0779C246.733 61.6618 245.891 60.5132 244.474 60.5132H159.692C158.276 60.5132 156.821 61.6618 156.443 63.0779L142.092 116.876C141.715 118.292 142.557 119.44 143.974 119.44Z" fill="#123922"/>
<path d="M132.556 117.542C131.923 117.542 131.41 117.029 131.41 116.396C131.41 115.762 131.923 115.249 132.556 115.249C133.19 115.249 133.703 115.762 133.703 116.396C133.703 117.029 133.19 117.542 132.556 117.542Z" fill="#123922"/>
<path d="M132.56 116.396C129.975 127.28 140.818 162.019 169.009 160.204C197.2 158.389 187.692 145.044 208.209 142.542C228.727 140.04 239.909 130.978 237.568 117.893" stroke="white" stroke-width="0.980014" stroke-miterlimit="10" stroke-linecap="round" stroke-linejoin="round"/>
<path d="M128.994 117.542C128.361 117.542 127.847 117.029 127.847 116.396C127.847 115.762 128.361 115.249 128.994 115.249C129.627 115.249 130.141 115.762 130.141 116.396C130.141 117.029 129.627 117.542 128.994 117.542Z" fill="#123922"/>
<path d="M125.424 117.542C124.79 117.542 124.277 117.029 124.277 116.396C124.277 115.762 124.79 115.249 125.424 115.249C126.057 115.249 126.57 115.762 126.57 116.396C126.57 117.029 126.057 117.542 125.424 117.542Z" fill="#123922"/>
<path d="M111.475 117.125H121.192C121.595 117.125 121.922 116.799 121.922 116.395C121.922 115.992 121.596 115.665 121.192 115.665H111.475C111.072 115.665 110.745 115.991 110.745 116.395C110.746 116.799 111.072 117.125 111.475 117.125Z" fill="#123922"/>
<path d="M190.437 94.5501C188.344 92.2488 188.901 88.3328 191.681 85.8034C194.462 83.274 198.413 83.089 200.506 85.3903C202.6 87.6916 202.043 91.6076 199.262 94.137C196.482 96.6664 192.531 96.8514 190.437 94.5501Z" fill="white"/>
<path d="M11.5579 106.837C18.3605 110.361 23.5762 116.427 27.3268 123.107C31.0773 129.787 33.4946 137.116 35.889 144.393L37.9844 181.922C30.0694 168.457 23.7169 152.628 22.0006 137.104C23.7563 136.947 25.512 136.791 27.2676 136.635C23.7359 136.096 20.7719 133.537 18.8861 130.503C17.0003 127.469 16.0292 123.97 15.0817 120.526C17.2237 120.845 19.3658 121.163 21.5078 121.481C16.4747 118.123 12.8266 112.753 11.5579 106.837Z" fill="#187A42"/>
<path d="M11.5579 106.837C18.3605 110.361 23.5762 116.427 27.3268 123.107C31.0773 129.787 33.4946 137.116 35.889 144.393L37.9844 181.922C30.0694 168.457 23.7169 152.628 22.0006 137.104C23.7563 136.947 25.512 136.791 27.2676 136.635C23.7359 136.096 20.7719 133.537 18.8861 130.503C17.0003 127.469 16.0292 123.97 15.0817 120.526C17.2237 120.845 19.3658 121.163 21.5078 121.481C16.4747 118.123 12.8266 112.753 11.5579 106.837Z" fill="#44C57B"/>
<g opacity="0.3">
<path d="M11.5579 106.837C18.3605 110.361 23.5762 116.427 27.3268 123.107C31.0773 129.787 33.4946 137.116 35.889 144.393L37.9844 181.922C30.0694 168.457 23.7169 152.628 22.0006 137.104C23.7563 136.947 25.512 136.791 27.2676 136.635C23.7359 136.096 20.7719 133.537 18.8861 130.503C17.0003 127.469 16.0292 123.97 15.0817 120.526C17.2237 120.845 19.3658 121.163 21.5078 121.481C16.4747 118.123 12.8266 112.753 11.5579 106.837Z" fill="#44C57B"/>
</g>
<path d="M39.1557 190.717C39.1557 190.717 56.3353 170.155 56.1369 150.525H49.197C49.197 150.525 56.7349 145.568 56.1382 142.792C55.5416 140.016 55.3432 129.507 55.3432 129.507L48.9986 131.093C48.9986 131.093 53.757 128.714 54.3523 124.946C54.947 121.18 52.9646 103.73 52.9646 103.73C52.9646 103.73 45.2316 111.86 42.8524 120.187C40.4731 128.515 34.2277 138.23 36.0616 163.61C37.8955 188.991 39.1557 190.717 39.1557 190.717Z" fill="#44C57B"/>
<path d="M30.4465 192.658C30.4465 192.658 11.8345 180.259 7.6989 164.434L13.278 162.915C13.278 162.915 6.13312 160.58 6.00565 158.217C5.87818 155.855 3.73812 147.363 3.73812 147.363L9.1865 147.25C9.1865 147.25 4.84002 146.378 3.53772 143.479C2.23542 140.581 0.0118866 126.119 0.0118866 126.119C0.0118866 126.119 8.00774 130.963 11.7425 137.137C15.4773 143.312 22.6242 149.757 26.7026 170.562C30.7803 191.368 30.4465 192.658 30.4465 192.658Z" fill="#44C57B"/>
<path d="M48.2714 121.659C48.2655 121.657 48.2438 121.73 48.2076 121.872C48.1689 122.034 48.1189 122.242 48.0559 122.504C47.9244 123.086 47.7411 123.903 47.5066 124.943C47.2674 126.002 46.9888 127.301 46.6872 128.813C46.3803 130.324 46.0229 132.044 45.6733 133.954C44.9354 137.766 44.1575 142.324 43.3572 147.395C42.5812 152.471 41.8072 158.062 41.1199 163.947C40.4464 169.835 39.924 175.457 39.5219 180.576C39.1441 185.697 38.8615 190.313 38.7104 194.193C38.6151 196.132 38.5711 197.888 38.5245 199.429C38.4732 200.97 38.4476 202.298 38.439 203.384C38.4298 204.45 38.4226 205.287 38.4174 205.884C38.4187 206.153 38.42 206.368 38.4213 206.535C38.4239 206.681 38.4285 206.756 38.4351 206.756C38.4417 206.756 38.4495 206.681 38.4587 206.535C38.4673 206.369 38.4778 206.155 38.4916 205.886C38.5133 205.29 38.5435 204.454 38.5823 203.388C38.6125 202.304 38.6592 200.977 38.7301 199.437C38.7958 197.897 38.8583 196.143 38.97 194.206C39.1546 190.33 39.4641 185.719 39.8596 180.604C40.2808 175.491 40.8124 169.874 41.4852 163.99C42.1718 158.11 42.9354 152.522 43.6923 147.448C44.4735 142.378 45.2246 137.819 45.9289 134.002C46.2621 132.091 46.6011 130.369 46.8889 128.854C47.1714 127.338 47.429 126.036 47.6465 124.973C47.8522 123.927 48.0131 123.106 48.1281 122.52C48.1761 122.255 48.2149 122.044 48.2444 121.88C48.2687 121.735 48.278 121.66 48.2714 121.659Z" fill="#255E3D"/>
<path d="M41.5325 203.309C41.5325 203.309 57.2541 185.471 62.1354 174.688L58.4506 173.113C61.1215 173.554 63.8582 172.406 65.9293 170.663C68.0004 168.92 69.5215 166.627 71.013 164.367L66.1586 163.547C70.5728 162.308 74.4626 159.296 76.7656 155.331C71.0367 156.273 65.8544 159.42 61.5835 163.353C58.1247 166.537 55.1961 170.235 52.3839 174.012C51.0119 175.855 49.8115 177.818 48.8108 179.886C46.1687 185.346 41.5233 196.758 41.5325 203.309Z" fill="#44C57B"/>
<path d="M7.44347 136.502C7.43755 136.504 7.46188 136.567 7.51379 136.684C7.57687 136.82 7.65571 136.991 7.75361 137.203C7.98359 137.681 8.30226 138.344 8.70701 139.184C9.5474 140.898 10.7387 143.39 12.1816 146.482C15.0707 152.665 18.8777 161.294 22.6368 171.004C26.3887 180.721 29.3776 189.667 31.3988 196.185C32.4113 199.443 33.2064 202.089 33.7373 203.922C34.0034 204.816 34.2137 205.52 34.3648 206.028C34.4351 206.251 34.4916 206.43 34.5369 206.574C34.5777 206.696 34.602 206.758 34.6079 206.756C34.6138 206.754 34.602 206.689 34.5737 206.564C34.5376 206.418 34.4929 206.235 34.437 206.009C34.3017 205.496 34.1144 204.785 33.8759 203.883C33.3871 202.037 32.6301 199.379 31.6485 196.109C29.6891 189.568 26.7369 180.598 22.9805 170.872C19.2174 161.152 15.3683 152.53 12.4168 146.373C10.943 143.292 9.71495 140.817 8.83514 139.122C8.4041 138.294 8.06507 137.642 7.81998 137.171C7.70894 136.965 7.61892 136.8 7.54796 136.668C7.48422 136.555 7.44938 136.498 7.44347 136.502Z" fill="#255E3D"/>
<path d="M40.2044 210.953C40.2168 210.954 40.2444 210.841 40.2845 210.625C40.3279 210.367 40.3798 210.054 40.4422 209.679C40.5644 208.857 40.7721 207.669 41.0618 206.212C41.3463 204.753 41.7517 203.029 42.2675 201.133C42.8004 199.243 43.4522 197.183 44.2473 195.06C45.0542 192.941 45.9261 190.963 46.7763 189.193C47.6423 187.429 48.4768 185.867 49.2278 184.585C49.9736 183.299 50.6024 182.272 51.0545 181.573C51.2556 181.25 51.4224 180.982 51.5611 180.759C51.6734 180.571 51.728 180.468 51.7175 180.461C51.707 180.454 51.6327 180.542 51.5 180.717C51.3456 180.93 51.159 181.186 50.9349 181.494C50.4454 182.169 49.7811 183.178 49.0031 184.452C48.2206 185.723 47.3578 187.279 46.4708 189.043C45.5995 190.816 44.7131 192.8 43.9017 194.931C43.1027 197.066 42.4561 199.14 41.939 201.045C41.4383 202.956 41.0572 204.693 40.8049 206.164C40.5467 207.634 40.3778 208.83 40.299 209.661C40.2635 210.04 40.2339 210.355 40.2096 210.618C40.1945 210.835 40.1919 210.951 40.2044 210.953Z" fill="#255E3D"/>
<path d="M19.4508 206.756H53.8594V213.775H19.4508V206.756Z" fill="#187A42"/>
<path d="M50.5859 213.775L46.8643 237.384H26.0728L22.6035 213.775H50.5859Z" fill="#187A42"/>
<path d="M21.5655 213.775C21.5655 213.877 28.0744 213.959 36.1024 213.959C44.1324 213.959 50.6406 213.877 50.6406 213.775C50.6406 213.673 44.133 213.591 36.1024 213.591C28.0744 213.591 21.5655 213.673 21.5655 213.775Z" fill="#255E3D"/>
</svg>
