<svg width="1140" height="562" viewBox="0 0 1140 562" fill="none" xmlns="http://www.w3.org/2000/svg">
<rect width="1140" height="562" rx="20" fill="#EAF4EF"/>
<path d="M358.629 335.47L0 151V562H161.312C165.944 562 170.495 560.78 174.506 558.462L351.98 455.925C367.352 447.044 367.66 424.964 352.542 415.657L346.552 411.969C330.583 402.139 334.903 377.835 353.281 374.109C372.427 370.228 376.001 344.406 358.629 335.47Z" fill="#2F945A"/>
<path d="M575.679 8H569.859V8.93669H575.679V8Z" fill="#2F945A"/>
<path d="M651.064 45.1397L650.359 60.7744L651.294 60.8165L651.998 45.1819L651.064 45.1397Z" fill="#2F945A"/>
<path d="M636.019 46.1941C636.88 36.8358 629.514 28.7607 620.116 28.7607H469.569C461.316 28.7607 454.422 35.0489 453.666 43.2669L439.605 196.045C438.743 205.404 446.109 213.479 455.507 213.479H606.056C614.309 213.479 621.202 207.191 621.959 198.972L636.019 46.1941Z" fill="#BFDECC"/>
<path d="M614.2 126.709H458.991L457.695 143.744H612.905L614.2 126.709Z" fill="white"/>
<path d="M519.734 134.757H580.783" stroke="black" stroke-width="4.55587"/>
<path d="M520.728 114.156H470.811L470.469 121.822H520.385L520.728 114.156Z" fill="#2F945A"/>
<path d="M610.477 173.021H461.076L459.828 190.056H609.23L610.477 173.021Z" fill="white"/>
<path d="M516.276 160.393H475.077L474.734 168.059H515.932L516.276 160.393Z" fill="#2F945A"/>
<path d="M557.286 71.3205C557.056 76.4513 555.196 81.1894 552.215 85.0382C547.713 90.8715 540.661 94.6638 532.899 94.6638C525.137 94.6638 518.433 90.8715 514.453 85.0382C511.816 81.1894 510.38 76.4522 510.61 71.3205C511.187 58.4274 522.102 47.978 534.986 47.978C547.88 47.9771 557.861 58.4274 557.286 71.3205Z" fill="white"/>
<path d="M559.48 52.864C559.419 54.2271 558.925 55.4863 558.132 56.5087C556.936 58.0586 555.062 59.0663 552.999 59.0663C550.936 59.0663 549.156 58.0586 548.098 56.5087C547.397 55.4863 547.016 54.2271 547.077 52.864C547.23 49.438 550.131 46.6616 553.554 46.6616C556.98 46.6616 559.633 49.438 559.48 52.864Z" fill="#2F945A"/>
<path d="M528.533 181.457C528.466 182.973 527.181 184.203 525.665 184.203C524.149 184.203 522.974 182.973 523.042 181.457C523.109 179.941 524.394 178.711 525.91 178.711C527.426 178.712 528.601 179.941 528.533 181.457Z" fill="#263238"/>
<path d="M540.823 181.457C540.755 182.973 539.47 184.203 537.954 184.203C536.438 184.203 535.263 182.973 535.331 181.457C535.398 179.941 536.683 178.711 538.199 178.711C539.716 178.712 540.89 179.941 540.823 181.457Z" fill="#263238"/>
<path d="M553.112 181.457C553.044 182.973 551.759 184.203 550.243 184.203C548.727 184.203 547.553 182.973 547.62 181.457C547.687 179.941 548.972 178.711 550.488 178.711C552.005 178.711 553.18 179.941 553.112 181.457Z" fill="#263238"/>
<path d="M565.401 181.457C565.333 182.973 564.048 184.203 562.532 184.203C561.016 184.203 559.842 182.973 559.909 181.457C559.976 179.941 561.261 178.711 562.777 178.711C564.294 178.712 565.468 179.941 565.401 181.457Z" fill="#263238"/>
<path d="M577.698 181.457C577.63 182.973 576.345 184.203 574.829 184.203C573.313 184.203 572.138 182.973 572.206 181.457C572.273 179.941 573.558 178.711 575.074 178.711C576.59 178.712 577.765 179.941 577.698 181.457Z" fill="#263238"/>
<path d="M543.736 63.5183C543.502 68.732 539.087 72.959 533.872 72.959C528.658 72.959 524.62 68.732 524.853 63.5183C525.087 58.3037 529.502 54.0776 534.717 54.0776C539.931 54.0776 543.969 58.3046 543.736 63.5183Z" fill="#2F945A"/>
<path d="M552.215 85.0375C547.713 90.8708 540.661 94.6631 532.899 94.6631C525.137 94.6631 518.433 90.8708 514.453 85.0375C518.882 80.6274 525.893 77.7627 533.655 77.7627C541.426 77.7627 548.18 80.6274 552.215 85.0375Z" fill="#2F945A"/>
<path opacity="0.1" d="M543.736 63.5183C543.502 68.732 539.087 72.959 533.872 72.959C528.658 72.959 524.62 68.732 524.853 63.5183C525.087 58.3037 529.502 54.0776 534.717 54.0776C539.931 54.0776 543.969 58.3046 543.736 63.5183Z" fill="white"/>
<path opacity="0.1" d="M552.215 85.0375C547.713 90.8708 540.661 94.6631 532.899 94.6631C525.137 94.6631 518.433 90.8708 514.453 85.0375C518.882 80.6274 525.893 77.7627 533.655 77.7627C541.426 77.7627 548.18 80.6274 552.215 85.0375Z" fill="white"/>
<path d="M687.096 207.875C687.096 207.875 675.817 196.596 681.456 190.391C687.096 184.186 688.787 182.495 688.223 172.906C687.659 163.318 700.631 165.575 700.631 157.114C700.631 148.654 704.015 143.014 711.347 141.323C718.678 139.63 716.423 130.043 720.935 130.043C725.447 130.043 730.524 136.248 727.14 141.887C723.756 147.527 720.373 150.347 721.499 157.114C722.628 163.882 714.168 163.318 713.039 168.958C711.911 174.599 718.68 180.802 712.475 186.443C706.27 192.083 700.067 193.774 701.76 198.851C703.452 203.927 693.865 210.132 687.096 207.875Z" fill="#54A25A"/>
<path d="M687.811 216.114C687.811 216.114 701.73 202.195 694.77 194.54C687.811 186.884 685.722 184.796 686.419 172.965C687.116 161.134 671.108 163.918 671.108 153.479C671.108 143.04 666.933 136.079 657.886 133.992C648.838 131.904 651.622 120.073 646.055 120.073C640.488 120.073 634.224 127.729 638.399 134.688C642.575 141.646 646.751 145.127 645.358 153.479C643.966 161.829 654.405 161.134 655.797 168.093C657.189 175.052 648.838 182.707 656.494 189.668C664.149 196.627 671.805 198.715 669.716 204.979C667.63 211.244 679.46 218.9 687.811 216.114Z" fill="#5ECB73"/>
<path d="M677.734 239.624H693.39C697.229 239.624 700.477 236.791 700.998 232.989L705.172 202.586H665.954L670.128 232.989C670.648 236.79 673.896 239.624 677.734 239.624Z" fill="#BFDECC"/>
<path d="M171.809 148.65C171.809 148.65 185.279 161.042 173.965 182.594C162.651 204.146 170.732 227.851 180.43 234.316" stroke="#1A5132" stroke-width="1.61631" stroke-miterlimit="10"/>
<path d="M200.627 218.558C200.627 218.558 189.313 223.811 189.313 235.125H215.578L200.627 218.558Z" fill="#BFDECC"/>
<path d="M217.329 97.7363L218.406 108.512L168.298 158.619L164.527 146.765L217.329 97.7363Z" fill="#BFDECC"/>
<path d="M216.099 90.5713L221.812 96.2852L162.008 156.089L156.294 150.376L216.099 90.5713Z" fill="#1A5132"/>
<path d="M166.253 146.941L228.742 237.457L216.771 245.721L154.282 155.205L166.253 146.941Z" fill="#1A5132"/>
<path d="M369.266 373.054L410.214 521.76H414.523L381.12 369.822L369.266 373.054Z" fill="#74B790"/>
<path d="M403.75 373.054L444.698 521.76H449.008L415.604 369.822L403.75 373.054Z" fill="#74B790"/>
<path d="M345.562 373.054L304.616 521.76H300.305L333.71 369.822L345.562 373.054Z" fill="#74B790"/>
<path d="M311.078 373.054L270.13 521.76H265.821L299.224 369.822L311.078 373.054Z" fill="#74B790"/>
<path d="M294.917 273.918C294.917 273.918 295.995 188.79 335.865 187.713C375.736 186.635 400.519 218.963 404.83 257.755C409.141 296.548 435.002 349.348 440.389 365.513C445.777 381.678 370.347 387.065 349.874 380.598C329.4 374.133 286.298 373.055 289.53 327.798C292.762 282.539 294.917 273.918 294.917 273.918Z" fill="#FF981A"/>
<path d="M303.534 199.566C303.534 199.566 257.722 335.672 283.06 363.357C312.155 395.145 424.222 383.292 428.533 376.827C432.844 370.362 315.388 379.52 302.457 349.348C289.525 319.176 319.697 202.798 314.31 199.566C308.921 196.333 306.766 192.022 303.534 199.566Z" fill="#FFC21A"/>
<path d="M387.051 68.6412C387.051 68.6412 417.223 81.1687 409.68 119.288C406.447 124.137 397.826 117.132 381.663 118.21C365.5 119.288 342.333 112.821 343.41 101.507C344.487 90.1931 357.956 61.0986 387.051 68.6412Z" fill="#1F212C"/>
<path d="M445.236 128.446C445.236 128.446 444.158 116.592 453.318 111.743C462.478 106.894 468.405 98.2735 468.405 98.2735C468.405 98.2735 472.176 100.429 470.021 104.2C467.865 107.972 465.71 109.049 465.71 111.743C465.71 114.437 467.326 116.592 467.326 116.592C467.326 116.592 473.791 112.283 478.102 109.049C482.413 105.816 489.955 94.5021 491.571 95.5799C493.187 96.6577 493.727 98.2735 491.033 100.967C488.339 103.661 481.873 111.743 477.564 114.976C473.252 118.209 496.422 97.1957 498.038 98.2735C499.653 99.3512 496.422 104.2 492.111 108.51C487.8 112.819 477.024 118.208 470.559 121.441C464.094 124.674 445.236 128.446 445.236 128.446Z" fill="#F3AD8A"/>
<path d="M443.89 134.103C443.89 134.103 422.05 214.578 423.272 227.275C424.493 239.973 446.315 239.973 449.547 230.276C452.78 220.578 455.204 146.226 458.437 134.911C461.67 123.597 488.339 117.13 488.339 117.13C488.339 117.13 504.502 103.391 502.886 102.583C501.271 101.775 494.804 102.583 489.147 107.432C483.49 112.281 481.065 113.897 468.943 114.705C456.821 115.513 447.931 114.705 444.698 121.978C441.464 129.254 443.89 134.103 443.89 134.103Z" fill="#FFBE9D"/>
<path d="M397.825 153.499C397.825 153.499 404.289 152.691 412.372 166.431C420.454 180.17 451.972 225.428 438.233 233.51C424.494 241.592 413.988 231.894 409.946 223.812C405.905 215.73 372.77 176.937 375.195 166.431C377.62 155.925 388.126 150.268 397.825 153.499Z" fill="#35374B"/>
<path d="M539.726 495.667L543.42 501.208C543.42 501.208 561.891 525.836 561.891 530.145C561.891 534.455 534.801 515.984 532.338 512.906C529.875 509.828 529.26 506.134 529.26 506.134L527.414 498.747L539.726 495.667Z" fill="#FF716A"/>
<path d="M475.078 499.362L472.615 506.134C472.615 506.134 470.769 528.299 465.226 533.84C459.685 538.149 456.606 507.982 459.069 501.825C461.532 496.899 462.763 495.052 462.763 495.052L475.078 499.362Z" fill="#FF716A"/>
<path d="M394.428 304.192C394.428 304.192 460.921 304.192 513.869 337.439C540.958 362.065 483.085 499.362 478.159 501.825C472.001 504.288 462.766 499.979 459.073 495.053C456.61 490.127 472.003 401.469 470.772 378.073L374.725 347.289L394.428 304.192Z" fill="#216940"/>
<path d="M523.713 502.44C527.408 503.671 538.49 502.44 542.184 495.051C545.879 487.662 499.087 375.608 474.459 349.75C449.831 323.892 403.041 304.19 403.041 304.19L390.818 268.529L322.931 262.064C322.931 262.064 299.606 317.736 310.688 341.131C310.688 341.131 313.151 366.989 355.016 369.452C396.882 371.915 428.897 376.841 439.981 382.997C451.064 389.155 523.713 502.44 523.713 502.44Z" fill="#1A5132"/>
<path d="M387.406 145.913C396.814 148.6 404.205 155.786 407.603 164.962C407.757 165.376 407.911 165.777 408.065 166.163C410.22 171.55 422.074 187.715 413.452 200.644C404.831 213.576 400.52 217.885 400.52 238.359C400.52 258.833 403.753 259.911 400.52 266.376C395.133 272.841 364.961 284.695 315.392 265.298C307.555 262.232 325.09 236.204 320.779 213.576C316.47 190.946 307.848 165.085 316.47 154.309C323.852 145.08 354.94 136.643 387.406 145.913Z" fill="#35374B"/>
<path d="M321.857 151.076C321.857 151.076 312.159 151.884 299.228 169.664C286.296 187.445 262.051 214.922 259.627 224.62C258.011 234.318 273.366 240.783 286.296 233.51C299.228 226.238 322.664 198.759 331.554 188.253C340.444 177.745 339.636 147.035 321.857 151.076Z" fill="#35374B"/>
<path d="M273.6 214.355C273.6 214.355 259.8 215.327 259.232 227.436C258.665 239.545 268.314 240.807 291.069 238.637C313.825 236.467 351.919 235.016 359.223 234.55C366.527 234.084 369.453 240.693 378.446 238.688C387.439 236.683 388.36 234.298 392.398 234.488C396.434 234.677 404.975 242.359 409.086 240.933C413.198 239.509 399.777 232.406 391.893 227.992C384.008 223.576 367.183 220.075 360.649 221.388C354.116 222.699 309.928 216.06 294.589 215.34C279.25 214.62 273.6 214.355 273.6 214.355Z" fill="#FFB6AB"/>
<path d="M393.787 148.65C393.787 148.65 403.486 167.239 379.24 174.512C354.995 181.784 324.688 157.945 325.496 147.843C335.868 142.993 373.179 137.336 393.787 148.65Z" fill="#FFBE9D"/>
<path d="M398.369 104.2C398.369 104.2 403.756 117.132 399.985 122.519C396.214 127.906 381.666 126.29 378.433 130.062C375.2 133.833 374.122 142.453 380.589 146.764C383.822 151.074 356.343 152.152 350.956 146.226C351.494 142.993 360.115 130.601 359.039 123.059C357.961 115.516 354.729 102.047 353.651 90.731C352.574 79.417 365.505 74.0282 373.048 72.9505C380.59 71.8727 391.366 73.4902 394.06 82.6486C396.753 91.8071 402.142 100.429 403.758 102.045C405.374 103.662 398.369 104.2 398.369 104.2Z" fill="#FFBE9D"/>
<path d="M378.432 77.2617C378.432 77.2617 382.203 82.1108 376.816 91.809C371.429 101.507 364.962 111.743 370.889 125.214C370.889 125.214 347.722 127.908 331.558 108.512C333.174 102.585 340.717 79.4172 355.804 69.7191C370.889 60.0209 387.054 65.9478 392.981 71.3349C398.908 76.722 410.625 91.6062 409.548 105.615C409.548 109.926 403.081 69.2481 378.432 77.2617Z" fill="#292B3A"/>
<path d="M378.031 142.993C378.031 142.993 377.223 151.884 368.737 156.329C364.292 157.137 354.998 148.246 352.574 141.377" stroke="#1A5132" stroke-width="0.808235" stroke-miterlimit="10"/>
<path d="M368.736 161.986C366.95 161.986 365.502 160.538 365.502 158.752C365.502 156.967 366.95 155.519 368.736 155.519C370.521 155.519 371.969 156.967 371.969 158.752C371.969 160.538 370.521 161.986 368.736 161.986Z" fill="white"/>
<path d="M515.62 212.827H583.375V224.61H515.62V212.827Z" fill="white"/>
<path d="M513.083 212.825V210.794H650.422V224.61H583.377V212.825H513.083Z" fill="#1A5132"/>
<path d="M508.714 205.512H576.469V210.794H508.714V205.512Z" fill="white"/>
<path d="M506.176 205.512V203.48H643.516V210.794H576.471V205.512H506.176Z" fill="#2F945A"/>
<path d="M505.77 224.61H643.109V238.425H505.77V224.61Z" fill="#FF5A61"/>
<path d="M505.768 226.642H576.062V238.425H505.768V226.642Z" fill="white"/>
<path d="M594.857 216.178H611.312V219.835H594.857V216.178Z" fill="#FF8E75"/>
<path d="M591.508 216.178H593.539V219.835H591.508V216.178Z" fill="#484FB6"/>
<path d="M336.939 238.956H422.461V235.36H340.535C338.55 235.358 336.939 236.969 336.939 238.956Z" fill="#74B790"/>
<path d="M411.505 238.246H543.511L554.662 161.999C555.002 159.668 553.195 157.577 550.84 157.577H426.643C424.725 157.577 423.099 158.983 422.821 160.88L411.505 238.246Z" fill="#74B790"/>
<path d="M414.038 238.246H546.043L557.193 161.999C557.533 159.668 555.726 157.577 553.371 157.577H429.174C427.257 157.577 425.63 158.983 425.352 160.88L414.038 238.246Z" fill="#1A5132"/>
<path d="M481.752 202.509C481.215 207.636 485.111 211.811 490.454 211.833C495.797 211.854 500.563 207.715 501.099 202.586C501.635 197.459 497.74 193.284 492.397 193.262C487.054 193.243 482.288 197.382 481.752 202.509Z" fill="#BFDECC"/>
<path d="M161.746 256.501L109.457 525.213H115.267L173.367 255.048L161.746 256.501Z" fill="#BFDECC"/>
<path d="M195.693 256.501L143.403 525.213H149.214L207.312 255.048L195.693 256.501Z" fill="#74B790"/>
<path d="M693.265 256.501L745.555 525.213H739.744L681.645 255.048L693.265 256.501Z" fill="#BFDECC"/>
<path d="M659.319 256.501L711.609 525.213H705.799L647.7 255.048L659.319 256.501Z" fill="#74B790"/>
<path d="M137.733 259.405H717.281C725.703 259.405 732.531 252.577 732.531 244.155H122.483C122.483 252.577 129.311 259.405 137.733 259.405Z" fill="#FF981A"/>
<path d="M108.001 237.281H747V245.902H108.001V237.281Z" fill="#216940"/>
<path d="M149.445 232.971H255.047V238.359H149.445V232.971Z" fill="#1A5132"/>
<path d="M150.526 151.614C150.526 156.97 154.868 161.312 160.224 161.312C165.58 161.312 169.922 156.97 169.922 151.614C169.922 146.258 165.58 141.916 160.224 141.916C154.868 141.916 150.526 146.258 150.526 151.614Z" fill="#BFDECC"/>
<path d="M154.835 151.614C154.835 154.589 157.247 157.001 160.222 157.001C163.197 157.001 165.609 154.589 165.609 151.614C165.609 148.639 163.197 146.227 160.222 146.227C157.247 146.227 154.835 148.639 154.835 151.614Z" fill="white"/>
<path d="M134.72 133.72C153.262 115.178 153.262 85.1156 134.72 66.5736C116.178 48.0315 86.1155 48.0315 67.5734 66.5736C49.0313 85.1156 49.0313 115.178 67.5734 133.72C86.1155 152.262 116.178 152.262 134.72 133.72Z" fill="white" stroke="#74B790" stroke-width="1.68197" stroke-miterlimit="10"/>
<path d="M122.683 82.0796L102.555 99.8071L102.363 99.9761L102.594 100.085L120.429 108.564L119.852 109.779L99.9434 100.315L121.793 81.0688L122.683 82.0796Z" fill="#102048" stroke="#74B790" stroke-width="0.336395"/>
</svg>
