<svg width="442" height="268" viewBox="0 0 442 268" fill="none" xmlns="http://www.w3.org/2000/svg">
<g clip-path="url(#clip0_15711_63613)">
<path d="M204.386 136.979H57.0078V247.16H204.386V136.979Z" stroke="#48AB72" stroke-width="0.547436" stroke-miterlimit="10"/>
<path d="M204.386 171.303H57.0078V176.321H204.386V171.303Z" stroke="#48AB72" stroke-width="0.547436" stroke-miterlimit="10"/>
<path d="M63.0264 203.977C63.0264 203.977 70.684 194.264 81.8758 194.853C93.0676 195.442 95.1233 204.278 95.1233 204.278H59.4922L63.0264 203.977Z" stroke="#48AB72" stroke-width="0.547436" stroke-miterlimit="10"/>
<path d="M72.7656 205.155C72.7656 205.155 74.8096 194.853 81.8781 194.853" stroke="#48AB72" stroke-width="0.547436" stroke-miterlimit="10"/>
<path d="M83.6406 204.566C83.6406 204.566 84.5242 196.62 90.7091 197.798" stroke="#48AB72" stroke-width="0.547436" stroke-miterlimit="10"/>
<path d="M113.98 203.977C113.98 203.977 121.637 194.264 132.829 194.853C144.021 195.442 146.076 204.278 146.076 204.278H110.445L113.98 203.977Z" stroke="#48AB72" stroke-width="0.547436" stroke-miterlimit="10"/>
<path d="M123.703 205.155C123.703 205.155 125.765 194.853 132.833 194.853" stroke="#48AB72" stroke-width="0.547436" stroke-miterlimit="10"/>
<path d="M134.594 204.566C134.594 204.566 135.477 196.62 141.662 197.798" stroke="#48AB72" stroke-width="0.547436" stroke-miterlimit="10"/>
<path d="M164.933 203.977C164.933 203.977 172.59 194.264 183.782 194.853C194.974 195.442 197.03 204.278 197.03 204.278H161.398L164.933 203.977Z" stroke="#48AB72" stroke-width="0.547436" stroke-miterlimit="10"/>
<path d="M174.625 205.155C174.625 205.155 176.71 194.853 183.779 194.853" stroke="#48AB72" stroke-width="0.547436" stroke-miterlimit="10"/>
<path d="M185.547 204.566C185.547 204.566 186.43 196.62 192.615 197.798" stroke="#48AB72" stroke-width="0.547436" stroke-miterlimit="10"/>
<path d="M204.386 204.283H57.0078V209.302H204.386V204.283Z" stroke="#48AB72" stroke-width="0.547436" stroke-miterlimit="10"/>
<path d="M204.386 136.979H57.0078V141.986H204.386V136.979Z" stroke="#48AB72" stroke-width="0.547436" stroke-miterlimit="10"/>
<path d="M204.386 232.563H57.0078V247.166H204.386V232.563Z" stroke="#48AB72" stroke-width="0.547436" stroke-miterlimit="10"/>
<path d="M85.1309 153.932H65.1094V171.598H85.1309V153.932Z" stroke="#48AB72" stroke-width="0.547436" stroke-miterlimit="10"/>
<path d="M85.1309 153.932H65.1094V156.53H85.1309V153.932Z" stroke="#48AB72" stroke-width="0.547436" stroke-miterlimit="10"/>
<path d="M164.617 153.932H103.086V171.598H164.617V153.932Z" stroke="#48AB72" stroke-width="0.547436" stroke-miterlimit="10"/>
<path d="M164.617 153.932H103.086V156.53H164.617V153.932Z" stroke="#48AB72" stroke-width="0.547436" stroke-miterlimit="10"/>
<path d="M148.43 153.932H131.648V171.598H148.43V153.932Z" stroke="#48AB72" stroke-width="0.547436" stroke-miterlimit="10"/>
<path d="M148.43 153.932H131.648V156.53H148.43V153.932Z" stroke="#48AB72" stroke-width="0.547436" stroke-miterlimit="10"/>
<path d="M312.994 45.9316H217.062V174.655H312.994V45.9316Z" stroke="#48AB72" stroke-width="0.547436" stroke-miterlimit="10"/>
<path d="M227.984 78.7178H261.795" stroke="#48AB72" stroke-width="0.547436" stroke-miterlimit="10"/>
<path d="M227.984 93.2905H261.795" stroke="#48AB72" stroke-width="0.547436" stroke-miterlimit="10"/>
<path d="M227.984 107.863H261.795" stroke="#48AB72" stroke-width="0.547436" stroke-miterlimit="10"/>
<path d="M227.984 122.436H261.795" stroke="#48AB72" stroke-width="0.547436" stroke-miterlimit="10"/>
<path d="M227.984 137.009H261.795" stroke="#48AB72" stroke-width="0.547436" stroke-miterlimit="10"/>
<path d="M227.984 151.582H261.795" stroke="#48AB72" stroke-width="0.547436" stroke-miterlimit="10"/>
<path d="M268.859 78.7178H302.67" stroke="#48AB72" stroke-width="0.547436" stroke-miterlimit="10"/>
<path d="M268.859 93.2905H302.67" stroke="#48AB72" stroke-width="0.547436" stroke-miterlimit="10"/>
<path d="M268.859 107.863H302.67" stroke="#48AB72" stroke-width="0.547436" stroke-miterlimit="10"/>
<path d="M268.859 122.436H302.67" stroke="#48AB72" stroke-width="0.547436" stroke-miterlimit="10"/>
<path d="M268.859 137.009H302.67" stroke="#48AB72" stroke-width="0.547436" stroke-miterlimit="10"/>
<path d="M268.859 151.582H302.67" stroke="#48AB72" stroke-width="0.547436" stroke-miterlimit="10"/>
<path d="M393.737 89.0908H319.57V174.649H393.737V89.0908Z" stroke="#48AB72" stroke-width="0.547436" stroke-miterlimit="10"/>
<path d="M328.023 100.488H354.165" stroke="#48AB72" stroke-width="0.547436" stroke-miterlimit="10"/>
<path d="M328.023 111.757H354.165" stroke="#48AB72" stroke-width="0.547436" stroke-miterlimit="10"/>
<path d="M328.023 123.02H354.165" stroke="#48AB72" stroke-width="0.547436" stroke-miterlimit="10"/>
<path d="M328.023 134.288H354.165" stroke="#48AB72" stroke-width="0.547436" stroke-miterlimit="10"/>
<path d="M328.023 145.55H354.165" stroke="#48AB72" stroke-width="0.547436" stroke-miterlimit="10"/>
<path d="M328.023 156.818H354.165" stroke="#48AB72" stroke-width="0.547436" stroke-miterlimit="10"/>
<path d="M359.625 100.488H385.761" stroke="#48AB72" stroke-width="0.547436" stroke-miterlimit="10"/>
<path d="M359.625 111.757H385.761" stroke="#48AB72" stroke-width="0.547436" stroke-miterlimit="10"/>
<path d="M359.625 123.02H385.761" stroke="#48AB72" stroke-width="0.547436" stroke-miterlimit="10"/>
<path d="M359.625 134.288H385.761" stroke="#48AB72" stroke-width="0.547436" stroke-miterlimit="10"/>
<path d="M359.625 145.55H385.761" stroke="#48AB72" stroke-width="0.547436" stroke-miterlimit="10"/>
<path d="M359.625 156.818H385.761" stroke="#48AB72" stroke-width="0.547436" stroke-miterlimit="10"/>
<path d="M375.626 28.5317L368.493 18.3413H340.572L333.439 28.5317C329.663 33.9336 327.73 40.4094 327.928 46.9971C328.125 53.5849 330.442 59.9333 334.535 65.0994L337.839 69.264H371.232L374.536 65.0994C378.628 59.9326 380.944 53.5839 381.14 46.9961C381.337 40.4084 379.403 33.933 375.626 28.5317Z" fill="#FFD772" stroke="#263238" stroke-width="0.547436" stroke-linecap="round" stroke-linejoin="round"/>
<path d="M333.422 28.5317H346.534" stroke="#263238" stroke-width="0.547436" stroke-linecap="round" stroke-linejoin="round"/>
<path d="M361.043 32.708H349.992" stroke="#263238" stroke-width="0.547436" stroke-linecap="round" stroke-linejoin="round"/>
<path d="M380.717 52.0405H354.828" stroke="#263238" stroke-width="0.547436" stroke-linecap="round" stroke-linejoin="round"/>
<path d="M333.422 51.6929H343.436" stroke="#263238" stroke-width="0.547436" stroke-linecap="round" stroke-linejoin="round"/>
<path d="M367.94 46.5151H360" stroke="#263238" stroke-width="0.547436" stroke-linecap="round" stroke-linejoin="round"/>
<path d="M343.773 59.2856H350.683" stroke="#263238" stroke-width="0.547436" stroke-linecap="round" stroke-linejoin="round"/>
<path d="M370.007 21.6636H364.141" stroke="#263238" stroke-width="0.547436" stroke-linecap="round" stroke-linejoin="round"/>
<path d="M354.523 18.2942V-21.2305" stroke="#48AB72" stroke-width="0.547436" stroke-linecap="round" stroke-linejoin="round"/>
<path d="M373.174 204.048C374.612 204.679 378.134 204.602 378.14 204.602C378.146 204.602 377.38 202.293 377.315 202.152C376.544 200.538 374.099 197.863 372.108 198.134C371.778 198.185 371.462 198.305 371.182 198.488C370.901 198.67 370.663 198.91 370.482 199.191C370.302 199.472 370.183 199.789 370.135 200.12C370.086 200.45 370.108 200.788 370.2 201.109C370.512 202.487 371.943 203.512 373.174 204.048Z" fill="#40B572"/>
<path d="M408.797 204.825C408.826 204.825 409.439 202.469 409.462 202.328C409.71 200.561 409.138 196.979 407.336 196.102C407.032 195.962 406.702 195.888 406.367 195.885C406.033 195.883 405.701 195.951 405.395 196.087C405.089 196.222 404.816 196.421 404.593 196.671C404.37 196.92 404.202 197.214 404.102 197.533C403.619 198.87 404.231 200.478 404.956 201.627C405.851 202.958 408.797 204.825 408.797 204.825Z" fill="#40B572"/>
<path d="M374.385 214.256C375.881 214.474 379.026 213.561 379.274 213.491C379.791 215.289 380.429 217.05 381.182 218.762C381.612 219.764 382.083 220.759 382.561 221.755C382.272 221.337 382.013 220.96 381.972 220.912C380.793 219.558 377.736 217.626 375.887 218.409C375.582 218.546 375.309 218.746 375.088 218.996C374.866 219.246 374.7 219.541 374.601 219.86C374.502 220.179 374.471 220.516 374.512 220.848C374.553 221.179 374.664 221.499 374.838 221.784C375.522 223.027 377.153 223.64 378.479 223.834C379.804 224.028 382.519 223.31 383.232 223.104C383.421 223.487 383.603 223.864 383.792 224.241C384.705 226.055 385.618 227.863 386.466 229.66C386.76 230.296 387.055 230.926 387.302 231.562C387.049 231.191 386.831 230.879 386.796 230.832C385.618 229.477 382.561 227.545 380.711 228.334C380.405 228.471 380.132 228.67 379.91 228.92C379.688 229.17 379.521 229.465 379.421 229.784C379.322 230.103 379.291 230.44 379.332 230.772C379.372 231.104 379.483 231.424 379.657 231.71C380.34 232.947 381.972 233.565 383.297 233.754C384.622 233.942 387.079 233.3 387.921 233.064C388.18 233.718 388.445 234.378 388.663 235.026C388.804 235.474 388.975 235.898 389.093 236.351C389.211 236.805 389.34 237.247 389.464 237.688C389.67 238.548 389.888 239.455 390.053 240.274C390.183 240.863 390.295 241.417 390.413 241.977C390.124 241.346 389.529 240.115 389.47 240.015C388.516 238.501 385.783 236.127 383.833 236.622C383.51 236.711 383.21 236.867 382.952 237.081C382.695 237.295 382.486 237.561 382.339 237.862C382.193 238.163 382.112 238.492 382.102 238.827C382.093 239.161 382.155 239.494 382.284 239.803C382.773 241.134 384.292 241.988 385.571 242.377C386.984 242.807 390.1 242.412 390.495 242.377C390.678 243.308 390.854 244.215 391.002 245.075C391.108 245.664 391.196 246.218 391.284 246.76H392.533C392.421 246.171 392.303 245.523 392.174 244.857C391.985 243.909 391.767 242.901 391.532 241.865C392.472 241.492 393.389 241.061 394.277 240.575C395.307 241.688 397.94 242.99 398.282 243.155C397.923 244.038 397.564 244.892 397.216 245.693L396.745 246.76H398.058C398.141 246.559 398.229 246.359 398.312 246.171C398.677 245.281 399.054 244.315 399.431 243.325C399.808 243.402 402.894 244.032 404.337 243.708C405.645 243.414 407.224 242.672 407.807 241.382C407.958 241.084 408.043 240.757 408.058 240.423C408.073 240.09 408.017 239.757 407.893 239.446C407.769 239.136 407.581 238.856 407.341 238.624C407.1 238.392 406.814 238.213 406.499 238.101C404.597 237.459 401.693 239.62 400.609 241.046C400.544 241.128 399.967 242.13 399.613 242.766C399.766 242.359 399.914 241.971 400.067 241.547C400.373 240.722 400.656 239.885 400.95 238.99C401.086 238.548 401.216 238.107 401.351 237.659C401.486 237.211 401.587 236.734 401.704 236.269C401.964 235.185 402.176 234.072 402.358 232.941C403.089 233.206 405.675 234.119 407.018 234.013C408.361 233.907 410.028 233.424 410.805 232.246C410.999 231.973 411.132 231.663 411.197 231.336C411.262 231.008 411.256 230.67 411.18 230.345C411.105 230.02 410.96 229.714 410.758 229.449C410.555 229.183 410.298 228.964 410.004 228.806C408.237 227.881 405.021 229.577 403.748 230.844C403.672 230.92 402.865 231.933 402.429 232.493C402.535 231.816 402.647 231.144 402.729 230.449C402.977 228.464 403.165 226.438 403.36 224.423C403.419 223.805 403.489 223.192 403.554 222.574C403.813 222.674 406.864 223.811 408.367 223.705C409.704 223.61 411.377 223.115 412.154 221.937C412.349 221.665 412.483 221.354 412.548 221.026C412.614 220.698 412.608 220.359 412.532 220.033C412.457 219.707 412.312 219.401 412.109 219.135C411.905 218.869 411.648 218.65 411.353 218.491C409.586 217.573 406.37 219.269 405.103 220.535C405.003 220.63 403.843 222.085 403.566 222.468C403.707 221.113 403.866 219.764 404.072 218.438C404.349 216.648 404.743 214.877 405.25 213.137C405.368 213.178 408.555 214.38 410.092 214.274C411.43 214.18 413.102 213.685 413.88 212.507C414.074 212.235 414.207 211.925 414.272 211.597C414.337 211.269 414.331 210.931 414.255 210.606C414.179 210.281 414.035 209.975 413.832 209.71C413.63 209.445 413.373 209.225 413.079 209.067C411.312 208.142 408.096 209.838 406.829 211.105C406.741 211.187 405.857 212.283 405.445 212.831L405.345 212.778C405.896 211.042 406.599 209.359 407.448 207.747C407.907 206.852 408.396 206.021 408.885 205.226C409.474 205.515 412.072 206.787 413.468 206.84C414.864 206.893 416.525 206.593 417.426 205.497C417.653 205.248 417.824 204.952 417.927 204.631C418.03 204.31 418.063 203.97 418.023 203.635C417.983 203.3 417.872 202.977 417.697 202.689C417.522 202.4 417.287 202.153 417.008 201.963C415.341 200.85 411.971 202.187 410.57 203.3C410.493 203.365 409.786 204.066 409.28 204.584C409.509 204.231 409.733 203.86 409.963 203.524C410.799 202.258 411.647 201.168 412.407 200.178C412.843 199.63 413.244 199.141 413.627 198.688C414.334 198.688 417.161 198.588 418.416 198.005C419.67 197.421 421.013 196.373 421.308 194.989C421.394 194.664 421.411 194.324 421.355 193.992C421.299 193.66 421.173 193.344 420.985 193.065C420.797 192.786 420.551 192.55 420.264 192.374C419.978 192.198 419.657 192.085 419.323 192.044C417.326 191.831 414.952 194.565 414.222 196.202C414.163 196.344 413.426 198.67 413.468 198.67H413.509C413.132 199.1 412.731 199.56 412.331 200.078C411.553 201.038 410.681 202.128 409.81 203.383C408.857 204.72 407.982 206.11 407.188 207.547C406.298 209.157 405.551 210.843 404.956 212.583V212.648C404.956 212.059 404.956 210.416 404.921 210.292C404.691 208.525 403.201 205.214 401.227 204.849C400.897 204.795 400.559 204.811 400.236 204.897C399.912 204.984 399.611 205.138 399.352 205.349C399.093 205.561 398.882 205.826 398.733 206.125C398.584 206.425 398.501 206.753 398.488 207.088C398.37 208.495 399.395 209.909 400.397 210.805C401.522 211.812 404.65 212.784 404.897 212.86C404.334 214.646 403.893 216.469 403.578 218.315C403.383 219.387 403.224 220.477 403.077 221.566C403.077 221.06 403.077 220.606 403.077 220.541C402.847 218.774 401.357 215.464 399.384 215.099C399.053 215.043 398.715 215.059 398.392 215.144C398.068 215.23 397.766 215.383 397.506 215.594C397.247 215.806 397.035 216.07 396.885 216.369C396.736 216.669 396.652 216.997 396.639 217.331C396.527 218.745 397.552 220.158 398.547 221.054C399.543 221.949 402.211 222.821 402.912 223.062L402.753 224.323C402.511 226.338 402.282 228.352 401.993 230.314C401.893 231.009 401.769 231.686 401.646 232.363C401.646 231.916 401.646 231.533 401.646 231.474C401.416 229.707 399.926 226.396 397.952 226.031C397.622 225.977 397.284 225.993 396.961 226.079C396.637 226.165 396.336 226.32 396.077 226.531C395.818 226.743 395.607 227.008 395.458 227.307C395.309 227.607 395.225 227.935 395.213 228.27C395.095 229.677 396.12 231.097 397.116 231.986C398.111 232.876 400.52 233.689 401.357 233.96C401.21 234.649 401.068 235.344 400.892 236.01C400.762 236.457 400.674 236.899 400.52 237.347C400.367 237.794 400.232 238.23 400.09 238.666C399.79 239.497 399.501 240.351 399.172 241.152C398.954 241.712 398.742 242.242 398.524 242.772C398.636 242.088 398.818 240.734 398.824 240.616C398.797 239.041 398.372 237.499 397.587 236.133C397.59 235.956 397.578 235.779 397.552 235.603C397.513 235.271 397.404 234.951 397.232 234.664C397.06 234.378 396.829 234.131 396.554 233.94C396.28 233.75 395.968 233.62 395.639 233.559C395.31 233.499 394.972 233.509 394.648 233.589C392.704 234.107 391.479 237.512 391.384 239.302C391.384 239.408 391.449 240.563 391.502 241.287C391.408 240.863 391.314 240.457 391.208 240.021C391.007 239.161 390.778 238.313 390.536 237.4C390.407 236.958 390.271 236.516 390.136 236.068C390 235.621 389.823 235.167 389.664 234.714C389.282 233.665 388.846 232.617 388.374 231.574C389.128 231.397 391.785 230.72 392.851 229.901C393.917 229.082 395.042 227.751 395.031 226.338C395.043 226.003 394.984 225.67 394.857 225.36C394.73 225.05 394.539 224.771 394.296 224.541C394.053 224.311 393.764 224.135 393.448 224.025C393.132 223.915 392.796 223.874 392.462 223.905C390.471 224.123 388.734 227.298 388.374 229.053C388.374 229.165 388.233 230.455 388.18 231.162C387.897 230.537 387.591 229.913 387.308 229.289C386.413 227.522 385.459 225.701 384.504 223.917L383.65 222.267C383.915 222.202 387.09 221.466 388.286 220.553C389.346 219.734 390.477 218.403 390.466 216.984C390.478 216.649 390.419 216.316 390.292 216.006C390.165 215.696 389.974 215.417 389.731 215.187C389.488 214.957 389.199 214.781 388.883 214.671C388.567 214.561 388.231 214.52 387.897 214.551C385.906 214.769 384.175 217.95 383.809 219.705C383.809 219.835 383.615 221.69 383.597 222.167C382.967 220.954 382.349 219.746 381.795 218.527C381.034 216.884 380.379 215.194 379.833 213.467C379.957 213.438 383.279 212.684 384.499 211.741C385.565 210.928 386.69 209.597 386.678 208.177C386.69 207.843 386.631 207.511 386.505 207.201C386.379 206.892 386.188 206.613 385.946 206.383C385.703 206.153 385.415 205.977 385.099 205.867C384.784 205.757 384.449 205.715 384.116 205.745C382.119 205.963 380.387 209.143 379.992 210.899C379.992 211.011 379.839 212.424 379.798 213.102H379.68C379.182 211.349 378.841 209.555 378.661 207.741C378.549 206.74 378.496 205.786 378.467 204.849C379.103 204.773 382.001 204.39 383.179 203.671C384.357 202.953 385.588 201.774 385.736 200.367C385.784 200.036 385.762 199.698 385.67 199.377C385.578 199.055 385.418 198.757 385.202 198.502C384.986 198.246 384.718 198.04 384.416 197.897C384.114 197.753 383.784 197.675 383.45 197.669C381.441 197.669 379.374 200.614 378.82 202.34C378.82 202.428 378.59 203.406 378.455 204.107C378.455 203.689 378.455 203.253 378.455 202.847C378.455 201.327 378.555 199.937 378.649 198.723C378.708 198.028 378.779 197.398 378.85 196.809C379.439 196.408 381.748 194.765 382.466 193.599C383.185 192.432 383.733 190.801 383.209 189.475C383.099 189.159 382.924 188.87 382.694 188.627C382.465 188.384 382.186 188.193 381.877 188.066C381.568 187.939 381.235 187.879 380.901 187.891C380.567 187.902 380.239 187.984 379.939 188.132C378.172 189.051 377.689 192.644 377.984 194.411C377.984 194.565 378.685 196.909 378.714 196.885H378.749C378.667 197.474 378.59 198.064 378.52 198.723C378.396 199.954 378.272 201.35 378.237 202.847C378.179 204.489 378.218 206.133 378.355 207.771C378.495 209.605 378.801 211.423 379.268 213.202V213.267C378.95 212.766 378.025 211.411 377.937 211.317C376.759 209.962 373.701 208.03 371.858 208.814C371.552 208.95 371.279 209.149 371.057 209.399C370.834 209.649 370.668 209.944 370.568 210.263C370.468 210.582 370.438 210.919 370.478 211.251C370.519 211.583 370.63 211.903 370.803 212.189C371.428 213.449 373.059 214.062 374.385 214.256Z" fill="#40B572"/>
<path d="M415.049 247.319H34.7812" stroke="#263238" stroke-width="0.547436" stroke-miterlimit="10"/>
<path d="M415.049 267.871H34.7812" stroke="#263238" stroke-width="0.547436" stroke-miterlimit="10"/>
<path d="M294.977 93.0957C294.977 93.0957 298.911 87.0934 300.979 86.9932C303.046 86.8931 310.61 91.7527 313.302 98.185C315.994 104.617 314.539 109.059 310.945 111.02C307.352 112.982 305.461 113.918 303.6 113.094C302.479 112.595 301.46 111.892 300.596 111.02C300.596 111.02 302.045 114.554 303.806 115.061C305.568 115.568 306.498 116.922 304.118 116.922C301.739 116.922 298.528 113.506 298.941 110.09C299.353 106.673 294.977 93.0957 294.977 93.0957Z" fill="#263238" stroke="#263238" stroke-width="0.547436" stroke-miterlimit="10"/>
<path d="M248.209 214.739C248.209 214.739 228.848 236.009 227.758 237.234C226.92 238.129 226.008 238.951 225.031 239.691C225.031 239.691 210.988 235.738 208.261 235.461C205.533 235.185 198.447 241.434 196.81 243.602C195.901 244.739 195.208 246.032 194.766 247.419C196.126 247.831 211.671 247.831 215.082 247.831C218.492 247.831 230.079 246.194 231.033 245.781C231.987 245.369 253.799 233.653 253.799 233.653L253.252 215.245C253.252 215.245 250.389 214.15 248.209 214.739Z" fill="#FFBE9D" stroke="#263238" stroke-width="0.547436" stroke-miterlimit="10"/>
<path d="M211.127 238.024C211.127 238.024 204.859 242.66 203.628 244.026C202.397 245.393 200.766 247.561 200.766 247.561" stroke="#263238" stroke-width="0.547436" stroke-miterlimit="10"/>
<path d="M206.754 236.934C206.754 236.934 199.932 241.705 199.096 243.478C198.26 245.251 197.188 247.708 197.188 247.708" stroke="#263238" stroke-width="0.547436" stroke-miterlimit="10"/>
<path d="M214.94 240.616C214.699 241.33 214.379 242.016 213.986 242.66C213.444 243.478 208.809 244.704 206.488 246.07C204.167 247.437 206.488 248.662 210.022 248.385C213.556 248.108 218.475 248.385 220.66 247.295C222.845 246.206 225.431 243.343 225.431 243.343" fill="#FFBE9D"/>
<path d="M214.94 240.616C214.699 241.33 214.379 242.016 213.986 242.66C213.444 243.478 208.809 244.704 206.488 246.07C204.167 247.437 206.488 248.662 210.022 248.385C213.556 248.108 218.475 248.385 220.66 247.295C222.845 246.206 225.431 243.343 225.431 243.343" stroke="#263238" stroke-width="0.547436" stroke-miterlimit="10"/>
<path d="M250.925 205.438C250.925 205.438 247.65 204.625 247.391 205.85C247.131 207.076 245.211 214.303 246.03 215.275C246.849 216.247 251.755 218.002 252.439 217.867C253.122 217.731 250.925 205.438 250.925 205.438Z" fill="#92E3A9" stroke="#263238" stroke-width="0.547436" stroke-miterlimit="10"/>
<path d="M269.592 146.94C269.592 146.94 263.702 151.146 258.076 154.598C252.451 158.05 250.295 158.486 250.295 160.665C250.295 162.844 249.83 197.704 249.83 197.704C249.83 197.704 249.205 203.93 250.919 209.691C252.634 215.452 253.099 247.348 253.099 247.348H316.592L314.412 226.184C314.412 226.184 321.887 161.289 320.303 158.645C318.718 156 300.411 146.316 300.411 146.316L269.592 146.94Z" fill="white" stroke="#263238" stroke-width="0.547436" stroke-miterlimit="10"/>
<path d="M253.099 247.319H316.592L314.412 226.154C314.412 226.154 315.001 221.306 315.749 214.214L294.803 214.485C294.803 214.485 290.603 190.983 291.693 182.736C292.783 174.489 299.162 146.475 299.162 146.475L295.581 146.94L284.978 181.181L259.455 178.825L269.415 148.324L268.326 148.171C268.326 148.171 257.134 171.98 253.853 182.406C252.05 188.143 250.678 193.639 249.806 197.427V197.656C249.806 197.656 249.182 203.883 250.896 209.643C252.61 215.404 253.099 247.319 253.099 247.319Z" fill="#292B3A" stroke="#263238" stroke-width="0.547436" stroke-miterlimit="10"/>
<path d="M261.665 247.319C262.101 234.036 263.338 194.565 262.72 192.697C262.295 191.443 264.546 184.981 266.696 179.509L266.107 179.45C264.339 183.956 261.642 191.278 262.178 192.88C262.714 194.482 261.765 227.044 261.094 247.319H261.665Z" fill="#828282"/>
<path d="M267.806 193.534C267.806 191.478 270.085 183.944 271.34 179.951L270.751 179.892C269.479 183.944 267.217 191.396 267.217 193.534C267.217 195.672 266.039 230.054 265.391 247.337H265.98C266.598 230.013 267.806 195.672 267.806 193.534Z" fill="#828282"/>
<path d="M272.648 195C272.831 193.539 274.28 184.492 274.957 180.274L274.368 180.221C273.685 184.468 272.247 193.475 272.065 194.947C271.847 196.673 269.573 237.517 269.031 247.337H269.62C270.162 237.57 272.436 196.685 272.648 195Z" fill="#828282"/>
<path d="M279.891 180.71L279.308 180.657L274.648 247.319H275.237L279.891 180.71Z" fill="#828282"/>
<path d="M267.975 148.973C267.186 150.663 265.224 154.898 262.968 159.964C259.434 168.717 254.722 180.751 251.918 189.122C251.052 192.297 250.351 195.177 249.827 197.445V197.657C249.701 199.191 249.678 200.732 249.756 202.269C249.88 200.213 250.004 198.629 250.115 197.692C251.04 190.135 267.893 149.391 268.064 148.996L267.975 148.973Z" fill="#828282"/>
<path d="M258.851 191.873C259.01 190.93 260.783 185.735 263.098 179.179L262.509 179.12C260.212 185.641 258.45 190.807 258.291 191.773C257.914 194.023 256.848 230.166 256.359 247.319H256.948C257.408 230.208 258.492 194.052 258.851 191.873Z" fill="#828282"/>
<path d="M252.877 237.423C253.283 221.236 254.096 195.601 255.233 190.924C255.822 188.468 258.049 182.224 260.682 175.179L264.552 163.333C260.369 174.201 255.575 186.984 254.662 190.783C253.713 194.718 252.995 212.636 252.547 227.892C252.7 231.197 252.788 234.502 252.877 237.423Z" fill="#828282"/>
<path d="M302.12 214.392L301.531 214.397L303.263 247.319H303.852L302.12 214.392Z" fill="#828282"/>
<path d="M282.079 213.343C281.902 203.96 283.505 188.786 284.4 181.123L283.811 181.07C282.916 188.727 281.313 203.942 281.49 213.355C281.679 223.734 282.185 240.881 282.38 247.319H282.969C282.774 240.893 282.268 223.728 282.079 213.343Z" fill="#828282"/>
<path d="M307.081 214.327L306.492 214.333L309.75 247.319H310.345L307.081 214.327Z" fill="#828282"/>
<path d="M296.736 214.456L296.141 214.468L297.572 247.319H298.161L296.736 214.456Z" fill="#828282"/>
<path d="M291.268 191.572C291.261 189.917 291.343 188.264 291.515 186.618C291.485 185.322 291.544 184.025 291.692 182.736C291.928 180.969 292.411 178.23 293.029 175.079C294.584 165.065 296.822 153.543 298.213 146.61L297.624 146.693C295.267 158.521 290.526 183.272 290.708 191.595C290.92 201.344 292.634 238.619 293.064 247.331H293.653C293.2 238.654 291.48 201.321 291.268 191.572Z" fill="#828282"/>
<path d="M287.634 184.869C288.895 178.937 290.903 166.915 292.523 156.831L291.274 160.889C289.796 169.937 288.147 179.621 287.057 184.745C285.007 194.394 286.468 235.373 286.916 247.319H287.505C287.033 235.415 285.596 194.464 287.634 184.869Z" fill="#828282"/>
<path d="M282.396 156.065C282.396 156.065 285.429 166.667 286.254 166.255C287.078 165.843 301.681 147.406 301.822 146.145C301.964 144.885 297.139 138.982 297.139 138.982C296.125 138.563 295.059 138.284 293.97 138.152C292.869 138.152 271.51 142.01 270.962 142.699C270.414 143.388 268.895 147.105 267.793 148.902C266.692 150.698 258.84 158.68 259.8 158.815C260.76 158.951 271.098 155.375 271.098 155.375L274.632 166.061C274.632 166.061 279.627 161.572 280.458 160.471C281.288 159.369 282.396 156.065 282.396 156.065Z" fill="#92E3A9" stroke="#263238" stroke-width="0.547436" stroke-miterlimit="10"/>
<path d="M270.672 140.443C270.672 140.443 271.785 145.214 272.58 151.258C273.376 157.301 274.648 166.06 274.648 166.06C274.648 166.06 284.037 152.212 284.662 151.735C285.286 151.258 294.846 140.119 294.846 140.119L295.494 124.026C295.494 124.026 290.882 132.143 286.423 135.807C281.964 139.471 270.672 140.443 270.672 140.443Z" fill="#FFBE9D" stroke="#263238" stroke-width="0.547436" stroke-miterlimit="10"/>
<path d="M286.415 135.807C286.415 135.807 281.915 142.711 278.469 145.939C275.023 149.167 272.579 151.24 272.579 151.24L270.953 142.699L286.415 135.807Z" fill="#263238" stroke="#263238" stroke-width="0.547436" stroke-miterlimit="10"/>
<path d="M284.226 226.154L278.312 224.287L278 227.709L284.226 226.154Z" fill="white" stroke="#263238" stroke-width="0.547436" stroke-miterlimit="10"/>
<path d="M279.556 220.6L279.032 227.368L277.954 241.387L277.489 247.378H260.943L260.477 241.387L259.399 227.368L258.875 220.6H279.556Z" fill="#92E3A9" stroke="#263238" stroke-width="0.547436" stroke-miterlimit="10"/>
<path d="M281.013 217.413H257.039V221.86H281.013V217.413Z" fill="white" stroke="#263238" stroke-width="0.547436" stroke-miterlimit="10"/>
<path d="M278.786 215.476H259.648V217.313H278.786V215.476Z" fill="white" stroke="#263238" stroke-width="0.547436" stroke-miterlimit="10"/>
<path d="M279.031 227.368H259.398L260.476 241.387H277.953" fill="white"/>
<path d="M279.031 227.368H259.398L260.476 241.387H277.953" stroke="#263238" stroke-width="0.547436" stroke-miterlimit="10"/>
<path d="M300.094 184.292L311.922 210.616H332.308C332.308 210.616 323.591 170.779 323.278 168.129C322.966 165.478 323.75 159.105 321.723 158.015C319.697 156.925 314.407 155.211 314.407 155.211" fill="white"/>
<path d="M300.094 184.292L311.922 210.616H332.308C332.308 210.616 323.591 170.779 323.278 168.129C322.966 165.478 323.75 159.105 321.723 158.015C319.697 156.925 314.407 155.211 314.407 155.211" stroke="#263238" stroke-width="0.547436" stroke-miterlimit="10"/>
<path d="M304.301 193.628C304.301 193.628 298.852 190.052 297.297 187.095L304.301 193.628Z" fill="white"/>
<path d="M304.301 193.628C304.301 193.628 298.852 190.052 297.297 187.095" stroke="#263238" stroke-width="0.547436" stroke-miterlimit="10"/>
<path d="M312.859 215.417C312.859 215.417 296.673 228.493 294.964 229.112C293.256 229.73 291.383 230.36 291.383 230.36C291.383 230.36 285.628 227.557 284.226 226.155C282.824 224.753 269.129 229.889 269.129 229.889L264.305 234.248C264.305 234.248 264.929 235.803 266.172 235.803C267.415 235.803 271.473 232.54 271.473 232.54L277.364 232.228L269.27 237.67L267.091 242.188C267.091 242.188 268.805 243.897 270.207 241.717C270.799 240.687 271.533 239.745 272.386 238.919L279.997 236.958C279.997 236.958 276.233 240.781 275.455 241.246C274.678 241.711 270.743 243.738 271.479 244.592C272.068 245.293 272.699 245.145 273.629 244.833C274.56 244.521 278.029 243.602 278.029 243.602C278.029 243.602 281.917 243.914 283.007 243.914C284.096 243.914 287.99 241.423 287.99 241.423L294.369 237.688C294.369 237.688 317.56 229.907 321.76 227.421C325.96 224.935 332.657 220.258 332.363 218.55C332.068 216.842 312.859 215.417 312.859 215.417Z" fill="#FFBE9D" stroke="#263238" stroke-width="0.547436" stroke-miterlimit="10"/>
<path d="M278.023 243.602C278.023 243.602 282.848 241.894 284.562 240.026" stroke="#263238" stroke-width="0.547436" stroke-miterlimit="10"/>
<path d="M309.75 210.127L311.016 212.618L311.794 215.888C311.794 215.888 316.465 216.818 320.665 217.596C324.865 218.373 334.048 220.541 334.048 220.541C334.529 220.056 334.892 219.467 335.108 218.819C335.325 218.172 335.389 217.483 335.297 216.806C334.985 214.45 335.297 208.713 334.36 207.158C333.424 205.603 314.103 206.233 309.75 210.127Z" fill="#92E3A9" stroke="#263238" stroke-width="0.547436" stroke-miterlimit="10"/>
<path d="M312 212.654C312 212.654 316.347 209.939 324.912 209.803" stroke="#263238" stroke-width="0.547436" stroke-miterlimit="10"/>
<path d="M329.562 212.518C330.281 212.677 330.959 212.86 331.571 213.06" stroke="#263238" stroke-width="0.547436" stroke-miterlimit="10"/>
<path d="M321.656 211.435C321.656 211.435 324.513 211.617 327.5 212.118" stroke="#263238" stroke-width="0.547436" stroke-miterlimit="10"/>
<path d="M264.482 126.218C263.601 126.217 262.74 126.477 262.007 126.966C261.274 127.455 260.702 128.15 260.364 128.963C260.026 129.777 259.937 130.672 260.108 131.537C260.279 132.401 260.703 133.195 261.326 133.818C261.948 134.442 262.742 134.866 263.606 135.039C264.47 135.211 265.365 135.123 266.179 134.786C266.993 134.449 267.689 133.879 268.179 133.146C268.668 132.414 268.93 131.552 268.93 130.671C268.93 129.491 268.461 128.36 267.628 127.525C266.794 126.69 265.663 126.22 264.482 126.218ZM264.482 133.923C263.839 133.924 263.21 133.734 262.674 133.378C262.139 133.021 261.721 132.514 261.474 131.92C261.227 131.326 261.162 130.672 261.287 130.041C261.412 129.41 261.721 128.83 262.175 128.374C262.63 127.919 263.209 127.609 263.84 127.483C264.471 127.357 265.125 127.421 265.72 127.667C266.314 127.913 266.822 128.33 267.18 128.864C267.537 129.399 267.728 130.028 267.728 130.671C267.728 131.533 267.386 132.359 266.778 132.969C266.169 133.578 265.344 133.921 264.482 133.923Z" stroke="#263238" stroke-width="0.547436" stroke-miterlimit="10"/>
<path d="M260.523 112.493C260.523 112.493 261.436 125.116 262.173 128.774C262.909 132.432 270.767 142.864 272.416 143.595C274.064 144.236 275.893 144.236 277.541 143.595C279.184 143.047 290.164 136.09 291.26 133.534C292.355 130.977 294.005 126.972 294.005 126.972C294.005 126.972 298.758 125.87 299.306 123.125C299.629 121.068 299.69 118.978 299.489 116.905L300.036 110.32C300.036 110.32 297.291 99.3458 290.158 97.3313C283.025 95.3167 272.776 98.7921 268.57 102.456C264.364 106.12 260.523 112.493 260.523 112.493Z" fill="#FFBE9D" stroke="#263238" stroke-width="0.547436" stroke-miterlimit="10"/>
<path d="M267.422 112.245C267.422 112.245 269.189 114.731 269.595 116.492" stroke="#263238" stroke-width="0.547436" stroke-miterlimit="10"/>
<path d="M268.078 126.118C268.654 126.666 269.339 127.086 270.087 127.353C270.836 127.62 271.633 127.727 272.425 127.667" stroke="#263238" stroke-width="0.547436" stroke-miterlimit="10"/>
<path d="M270.555 132.738C270.555 132.738 276.351 134.399 280.079 129.946" stroke="#263238" stroke-width="0.547436" stroke-miterlimit="10"/>
<path d="M274.898 111.834C274.898 111.834 279.664 109.66 282.868 111.94" stroke="#263238" stroke-width="0.547436" stroke-miterlimit="10"/>
<path d="M266.622 111.727C266.622 111.727 263.824 110.49 262.062 112.558" stroke="#263238" stroke-width="0.547436" stroke-miterlimit="10"/>
<path d="M279.143 118.973C279.602 118.973 279.974 118.231 279.974 117.317C279.974 116.403 279.602 115.662 279.143 115.662C278.684 115.662 278.312 116.403 278.312 117.317C278.312 118.231 278.684 118.973 279.143 118.973Z" fill="#263238"/>
<path d="M265.895 116.699C265.895 117.612 265.524 118.354 265.065 118.354C264.605 118.354 264.234 117.612 264.234 116.699C264.234 115.786 264.605 115.044 265.065 115.044C265.524 115.044 265.895 115.78 265.895 116.699Z" fill="#263238"/>
<path d="M297.359 126.218C296.479 126.218 295.618 126.479 294.885 126.969C294.153 127.458 293.582 128.154 293.245 128.967C292.908 129.781 292.82 130.676 292.992 131.54C293.164 132.404 293.588 133.197 294.211 133.82C294.833 134.443 295.627 134.867 296.491 135.039C297.354 135.211 298.25 135.123 299.064 134.786C299.877 134.449 300.573 133.878 301.062 133.145C301.551 132.413 301.813 131.552 301.813 130.671C301.813 129.49 301.343 128.358 300.508 127.523C299.673 126.687 298.54 126.218 297.359 126.218ZM297.359 133.923C296.716 133.923 296.088 133.732 295.553 133.375C295.018 133.018 294.601 132.51 294.355 131.916C294.109 131.322 294.045 130.668 294.17 130.037C294.296 129.406 294.606 128.827 295.06 128.372C295.515 127.918 296.094 127.608 296.725 127.482C297.356 127.357 298.01 127.421 298.604 127.667C299.198 127.914 299.706 128.33 300.063 128.865C300.42 129.4 300.611 130.028 300.611 130.671C300.611 131.534 300.268 132.361 299.659 132.971C299.049 133.58 298.222 133.923 297.359 133.923Z" fill="white" stroke="#263238" stroke-width="0.547436" stroke-miterlimit="10"/>
<path d="M283.393 101.513L260.527 112.493C260.527 112.493 253.211 107.192 253.211 102.061C253.211 96.9307 265.286 86.1571 276.443 85.4149C287.599 84.6728 290.715 87.0643 293.825 89.4381C296.936 91.8119 306.814 100.041 305.536 106.09C304.257 112.14 299.498 116.882 299.498 116.882C299.498 116.882 299.315 113.406 297.301 114.319C295.286 115.232 295.651 117.983 294.191 117.8C292.73 117.618 291.834 114.855 291.834 114.855C291.834 114.855 282.663 106.821 283.393 101.513Z" fill="#263238" stroke="#263238" stroke-width="0.547436" stroke-miterlimit="10"/>
<path d="M373.828 193.869H297.047V247.366H373.828V193.869Z" fill="#6E6E6E" stroke="#263238" stroke-width="0.547436" stroke-linecap="round" stroke-linejoin="round"/>
<path d="M369.938 201.043H300.938V247.366H369.938V201.043Z" fill="white" stroke="#263238" stroke-width="0.547436" stroke-linecap="round" stroke-linejoin="round"/>
<path d="M346.661 224.205H324.219V247.366H346.661V224.205Z" fill="#6E6E6E" stroke="#263238" stroke-width="0.547436" stroke-linecap="round" stroke-linejoin="round"/>
<path d="M300.935 201.044L297.047 193.869H373.828L369.935 201.044H300.935Z" fill="#D1D1D1" stroke="#263238" stroke-width="0.547436" stroke-linecap="round" stroke-linejoin="round"/>
<path d="M216.784 252.09H182.049L178.391 209.19H213.126L216.784 252.09Z" fill="white" stroke="#263238" stroke-width="0.547436" stroke-miterlimit="10"/>
<path d="M209.744 252.09H175.008L178.931 201.433H213.667L209.744 252.09Z" fill="white" stroke="#263238" stroke-width="0.547436" stroke-miterlimit="10"/>
<path d="M182.677 210.321C182.393 210.332 182.112 210.265 181.864 210.127C181.647 209.99 181.484 209.782 181.405 209.538C181.306 209.242 181.266 208.93 181.287 208.619L182.164 208.454C182.152 208.641 182.162 208.829 182.194 209.013C182.215 209.152 182.274 209.283 182.365 209.39C182.458 209.48 182.583 209.531 182.712 209.531C182.842 209.531 182.966 209.48 183.06 209.39C183.138 209.282 183.183 209.153 183.189 209.019C183.217 208.815 183.175 208.608 183.072 208.43C182.96 208.259 182.827 208.103 182.677 207.965L182.029 207.376C181.856 207.217 181.714 207.027 181.611 206.816C181.504 206.576 181.463 206.312 181.493 206.05C181.499 205.861 181.542 205.675 181.621 205.503C181.7 205.331 181.813 205.177 181.952 205.049C182.252 204.803 182.632 204.677 183.019 204.696C183.237 204.686 183.454 204.726 183.655 204.813C183.812 204.883 183.945 204.998 184.038 205.143C184.131 205.289 184.197 205.451 184.232 205.62C184.271 205.814 184.287 206.012 184.279 206.209L183.413 206.357C183.429 206.204 183.429 206.05 183.413 205.897C183.403 205.781 183.357 205.67 183.284 205.579C183.242 205.538 183.192 205.506 183.137 205.486C183.082 205.466 183.024 205.457 182.966 205.461C182.899 205.458 182.833 205.47 182.772 205.495C182.711 205.521 182.656 205.559 182.612 205.609C182.523 205.71 182.471 205.839 182.465 205.974C182.445 206.131 182.471 206.291 182.541 206.433C182.625 206.569 182.728 206.692 182.848 206.799L183.484 207.388C183.697 207.578 183.876 207.803 184.014 208.053C184.159 208.34 184.219 208.664 184.185 208.984C184.166 209.231 184.087 209.469 183.955 209.679C183.826 209.881 183.648 210.048 183.437 210.162C183.201 210.278 182.94 210.333 182.677 210.321Z" fill="black"/>
<path d="M186.135 210.321C185.809 210.343 185.485 210.26 185.21 210.085C184.994 209.927 184.842 209.698 184.78 209.437C184.709 209.127 184.687 208.807 184.715 208.489L184.868 206.528C184.889 206.193 184.96 205.863 185.08 205.55C185.182 205.285 185.368 205.061 185.611 204.914C185.903 204.749 186.236 204.672 186.571 204.69C186.875 204.672 187.178 204.737 187.448 204.878C187.652 205.005 187.801 205.202 187.867 205.432C187.94 205.704 187.964 205.988 187.937 206.268L187.902 206.728H186.936L186.971 206.257C186.983 206.115 186.983 205.974 186.971 205.833C186.97 205.723 186.933 205.618 186.865 205.532C186.818 205.489 186.762 205.457 186.701 205.438C186.64 205.419 186.575 205.413 186.512 205.42C186.372 205.412 186.235 205.454 186.123 205.538C186.037 205.627 185.976 205.736 185.946 205.856C185.914 206.006 185.892 206.157 185.882 206.31L185.693 208.701C185.674 208.864 185.674 209.028 185.693 209.19C185.703 209.303 185.756 209.408 185.84 209.485C185.938 209.553 186.057 209.586 186.176 209.579C186.242 209.586 186.308 209.579 186.371 209.559C186.434 209.538 186.492 209.505 186.541 209.461C186.623 209.374 186.678 209.266 186.7 209.149C186.73 209.003 186.75 208.855 186.759 208.707L186.8 208.212H187.761V208.648C187.74 208.946 187.672 209.238 187.56 209.514C187.459 209.756 187.286 209.962 187.065 210.103C186.782 210.262 186.459 210.337 186.135 210.321Z" fill="black"/>
<path d="M188.039 210.245L189.565 204.749H190.637L191.308 210.245H190.383L190.26 208.978H189.305L188.982 210.245H188.039ZM189.459 208.336H190.201L190.006 206.033L189.459 208.336Z" fill="black"/>
<path d="M191.828 210.245L192.252 204.749H192.953L194.049 207.883L194.29 204.749H195.121L194.691 210.245H194.025L192.936 206.964L192.682 210.245H191.828Z" fill="black"/>
<path d="M197.188 210.245L197.618 204.749H198.613L198.436 207.052H199.555L199.732 204.749H200.739L200.309 210.245H199.308L199.497 207.765H198.377L198.189 210.245H197.188Z" fill="black"/>
<path d="M201.156 210.245L201.58 204.749H203.889L203.836 205.456H202.535L202.411 207.035H203.436L203.383 207.735H202.358L202.217 209.556H203.53L203.477 210.245H201.156Z" fill="black"/>
<path d="M204.062 210.245L204.493 204.749H205.806C206.121 204.739 206.436 204.783 206.737 204.878C206.97 204.955 207.165 205.117 207.285 205.332C207.414 205.603 207.461 205.906 207.42 206.204C207.406 206.404 207.369 206.602 207.308 206.793C207.262 206.96 207.18 207.115 207.067 207.246C206.951 207.376 206.805 207.475 206.643 207.535L207.202 210.239H206.195L205.724 207.723H205.264L205.07 210.239L204.062 210.245ZM205.311 207.099H205.623C205.785 207.106 205.946 207.076 206.095 207.011C206.216 206.957 206.312 206.861 206.366 206.74C206.43 206.588 206.468 206.427 206.478 206.263C206.513 206.05 206.476 205.832 206.372 205.644C206.301 205.56 206.209 205.496 206.106 205.459C206.002 205.422 205.891 205.412 205.783 205.432H205.417L205.311 207.099Z" fill="black"/>
<path d="M207.852 210.245L208.282 204.749H210.585L210.532 205.456H209.23L209.106 207.035H210.131L210.078 207.735H209.053L208.912 209.556H210.231L210.172 210.245H207.852Z" fill="black"/>
<path d="M184.475 248.685L184.846 243.932H183.969L184.028 243.189H186.767L186.714 243.932H185.848L185.483 248.685H184.475Z" fill="black"/>
<path d="M188.305 248.763C187.986 248.781 187.669 248.705 187.392 248.545C187.173 248.397 187.014 248.176 186.945 247.92C186.865 247.607 186.841 247.282 186.874 246.96L187.033 244.904C187.05 244.575 187.126 244.252 187.257 243.95C187.369 243.7 187.559 243.494 187.799 243.361C188.088 243.208 188.414 243.135 188.741 243.149C189.063 243.13 189.384 243.203 189.666 243.361C189.881 243.497 190.04 243.706 190.114 243.95C190.201 244.26 190.229 244.584 190.196 244.904L190.037 246.966C190.016 247.295 189.939 247.618 189.807 247.92C189.692 248.177 189.503 248.394 189.265 248.545C188.971 248.704 188.639 248.779 188.305 248.763ZM188.364 248.026C188.499 248.033 188.632 247.994 188.741 247.914C188.833 247.837 188.897 247.731 188.924 247.614C188.966 247.48 188.991 247.342 189 247.202L189.195 244.669C189.21 244.532 189.21 244.393 189.195 244.256C189.186 244.147 189.137 244.045 189.059 243.968C188.957 243.888 188.829 243.85 188.7 243.862C188.568 243.854 188.437 243.892 188.329 243.968C188.238 244.042 188.174 244.143 188.146 244.256C188.107 244.391 188.081 244.529 188.07 244.669L187.875 247.202C187.86 247.339 187.86 247.477 187.875 247.614C187.883 247.727 187.931 247.833 188.011 247.914C188.111 247.994 188.237 248.034 188.364 248.026Z" fill="black"/>
<path d="M192.281 248.686L192.711 243.19H194.325C194.6 243.178 194.873 243.241 195.115 243.372C195.312 243.496 195.458 243.686 195.527 243.908C195.612 244.181 195.64 244.467 195.609 244.751C195.597 245.056 195.51 245.353 195.356 245.617C195.228 245.829 195.037 245.996 194.808 246.094C194.559 246.2 194.29 246.252 194.019 246.247H193.477L193.289 248.686H192.281ZM193.53 245.54H193.913C194.06 245.545 194.206 245.519 194.343 245.464C194.449 245.411 194.531 245.321 194.573 245.21C194.626 245.06 194.657 244.904 194.667 244.745C194.682 244.584 194.682 244.423 194.667 244.262C194.66 244.206 194.641 244.153 194.612 244.105C194.582 244.057 194.543 244.016 194.496 243.985C194.355 243.916 194.199 243.885 194.042 243.897H193.666L193.53 245.54Z" fill="black"/>
<path d="M195.297 248.685L196.823 243.189H197.918L198.59 248.685H197.659L197.541 247.419H196.563L196.239 248.685H195.297ZM196.711 246.783H197.459L197.264 244.474L196.711 246.783Z" fill="black"/>
<path d="M199.681 248.685L199.846 246.588L198.992 243.189H199.929L200.441 245.369L201.248 243.189H202.161L200.801 246.588L200.636 248.685H199.681Z" fill="black"/>
<path d="M191.888 234.207C191.935 233.541 191.988 232.87 192.041 232.198H193.037C193.037 231.857 193.09 231.527 193.113 231.191H192.118L192.195 230.19H194.203C194.233 229.848 194.256 229.518 194.286 229.188H195.281C195.281 229.524 195.234 229.854 195.205 230.184H196.212C196.265 229.512 196.312 228.847 196.365 228.181H199.375C199.375 228.511 199.322 228.847 199.298 229.182H200.27C200.27 228.847 200.323 228.517 200.347 228.181H199.351L199.428 227.174H197.443C197.496 226.502 197.549 225.842 197.596 225.177H194.586C194.586 225.513 194.533 225.842 194.509 226.178H192.513C192.46 226.85 192.407 227.509 192.354 228.187H193.349C193.349 228.523 193.296 228.852 193.272 229.188H192.277C192.248 229.53 192.224 229.86 192.195 230.19H191.193C191.223 229.854 191.246 229.524 191.27 229.188H188.266C188.266 228.847 188.313 228.523 188.342 228.187H191.346L191.935 220.158H192.943C192.866 221.124 192.795 222.09 192.719 223.056V223.162H193.72C193.767 222.503 193.82 221.837 193.873 221.165H194.875C194.822 221.831 194.769 222.497 194.722 223.174H195.723C195.723 223.504 195.676 223.84 195.646 224.175H200.665C200.665 224.517 200.612 224.841 200.582 225.177H201.59L201.513 226.19H200.518C200.518 226.532 200.465 226.861 200.441 227.197H201.448C201.395 227.863 201.342 228.528 201.289 229.206H202.297C202.244 229.871 202.191 230.537 202.138 231.215H201.154C201.101 231.886 201.054 232.546 201.001 233.223H201.996L201.92 234.225H203.922C203.893 234.56 203.869 234.89 203.846 235.226H200.859L200.7 237.229H199.681C199.711 236.905 199.734 236.575 199.764 236.233H197.749C197.749 235.903 197.802 235.573 197.832 235.232H196.83C196.83 234.896 196.877 234.566 196.907 234.23H198.904L198.98 233.229H193.973L193.897 234.225H191.888V234.207ZM198.138 231.197C198.138 230.867 198.191 230.531 198.215 230.201H197.219C197.19 230.537 197.166 230.867 197.142 231.197H198.138C198.138 231.533 198.091 231.862 198.061 232.198H200.064C200.064 231.862 200.111 231.533 200.141 231.197H198.138ZM196.147 231.232H195.152C195.152 231.568 195.099 231.898 195.075 232.228H196.07C196.076 231.862 196.1 231.538 196.147 231.232ZM198.55 226.202H199.54C199.54 225.866 199.593 225.536 199.616 225.212H198.627C198.58 225.513 198.556 225.842 198.533 226.172L198.55 226.202Z" fill="#263238"/>
<path d="M183.711 223.163C183.896 220.807 184.076 218.47 184.253 216.153H191.268C191.084 218.486 190.903 220.822 190.726 223.163H183.711ZM185.184 217.155L184.795 222.162H189.802L190.19 217.155H185.184Z" fill="#263238"/>
<path d="M204.781 223.169H197.766C197.948 220.813 198.125 218.498 198.308 216.153H205.323C205.142 218.486 204.962 220.824 204.781 223.169ZM204.245 217.155H199.238L198.849 222.162H203.856L204.245 217.155Z" fill="#263238"/>
<path d="M183.186 230.195H190.202L189.666 237.211H182.656C182.813 234.878 182.99 232.54 183.186 230.195ZM189.077 231.232H184.07L183.681 236.239H188.688L189.077 231.232Z" fill="#263238"/>
<path d="M192.975 220.165C193.028 219.499 193.081 218.833 193.134 218.156H192.133C192.186 217.485 192.233 216.825 192.286 216.153H197.293C197.24 216.819 197.193 217.479 197.14 218.15H196.15C196.121 218.486 196.097 218.816 196.068 219.157H197.063C197.01 219.829 196.957 220.489 196.91 221.16H195.909C195.909 220.83 195.962 220.5 195.985 220.165H194.972C195.001 219.829 195.025 219.499 195.049 219.163H194.047C194.047 219.487 194 219.817 193.971 220.159H192.963L192.975 220.165ZM194.153 218.15H195.149C195.149 217.814 195.202 217.485 195.225 217.155H194.236C194.189 217.485 194.165 217.814 194.136 218.15H194.153Z" fill="#263238"/>
<path d="M188.569 225.177C188.569 225.507 188.522 225.836 188.492 226.178H190.495C190.495 226.514 190.448 226.844 190.419 227.179H187.415C187.362 227.851 187.314 228.517 187.261 229.188H183.25L183.409 227.191H184.399C184.399 227.521 184.352 227.845 184.322 228.181H186.337L186.566 225.177H188.569Z" fill="#263238"/>
<path d="M191.881 234.207C191.881 234.536 191.834 234.866 191.805 235.208H192.806C192.806 235.544 192.753 235.874 192.73 236.209H193.731C193.731 236.551 193.678 236.881 193.654 237.217H190.656C190.733 236.215 190.809 235.22 190.886 234.207H191.881Z" fill="#263238"/>
<path d="M186.565 225.177H184.562C184.533 225.512 184.509 225.842 184.486 226.178H183.484C183.537 225.512 183.585 224.853 183.638 224.181H186.642L186.565 225.177Z" fill="#263238"/>
<path d="M204.463 227.179H203.467C203.52 226.514 203.567 225.854 203.62 225.183H202.625C202.654 224.841 202.678 224.511 202.707 224.175H204.698L204.463 227.179Z" fill="#263238"/>
<path d="M188.578 225.177L188.655 224.181H190.657C190.628 224.511 190.604 224.835 190.575 225.177H188.578Z" fill="#263238"/>
<path d="M202.312 229.194L202.389 228.193H203.385C203.385 228.523 203.337 228.853 203.308 229.188H202.312V229.194Z" fill="#263238"/>
<path d="M203.217 230.195H204.207C204.207 230.531 204.16 230.855 204.13 231.191H203.141C203.217 230.861 203.217 230.537 203.217 230.195Z" fill="#263238"/>
<path d="M195.758 223.174L195.834 222.173H196.83C196.83 222.503 196.777 222.833 196.753 223.168H195.758V223.174Z" fill="#263238"/>
<path d="M192.025 232.198H191.023C191.053 231.868 191.076 231.538 191.106 231.196H192.101C192.072 231.532 192.048 231.868 192.025 232.204V232.198Z" fill="#263238"/>
<path d="M202 233.205C202.029 232.875 202.053 232.545 202.077 232.209H203.078C203.049 232.533 203.025 232.863 203.001 233.205H202Z" fill="#263238"/>
<path d="M201.541 226.185H202.537C202.537 226.514 202.49 226.844 202.46 227.186H201.453C201.453 226.85 201.506 226.514 201.53 226.179L201.541 226.185Z" fill="#263238"/>
<path d="M195.745 236.21H194.75C194.75 235.88 194.803 235.551 194.827 235.221H195.822C195.793 235.545 195.769 235.875 195.745 236.21Z" fill="#263238"/>
<path d="M197.752 236.215C197.752 236.545 197.699 236.875 197.675 237.211H196.68C196.68 236.881 196.727 236.557 196.756 236.215H197.752Z" fill="#263238"/>
<path d="M203.685 237.217H202.695C202.695 236.881 202.742 236.557 202.772 236.222H203.761C203.738 236.534 203.714 236.881 203.685 237.217Z" fill="#263238"/>
<path d="M196.37 228.187H195.375C195.375 227.857 195.422 227.527 195.452 227.191H196.447C196.447 227.521 196.394 227.857 196.37 228.187Z" fill="#263238"/>
<path d="M188.873 221.16H185.875C185.952 220.158 186.028 219.163 186.111 218.162H189.109C189.032 219.157 188.956 220.153 188.873 221.16Z" fill="#263238"/>
<path d="M199.922 221.16L200.152 218.156H203.156L202.92 221.16H199.922Z" fill="#263238"/>
<path d="M184.789 235.208L185.019 232.204H188.017L187.787 235.208H184.789Z" fill="#263238"/>
<path d="M187.351 213.773H182.963L182.586 218.621" stroke="#92E3A9" stroke-width="0.547436" stroke-miterlimit="10"/>
<path d="M203.328 213.773H207.722L207.345 218.621" stroke="#92E3A9" stroke-width="0.547436" stroke-miterlimit="10"/>
<path d="M185.379 239.296H180.984L181.361 234.448" stroke="#92E3A9" stroke-width="0.547436" stroke-miterlimit="10"/>
<path d="M201.359 239.296H205.748L206.125 234.448" stroke="#92E3A9" stroke-width="0.547436" stroke-miterlimit="10"/>
<path d="M140.941 198.941C140.941 198.941 145.654 193.486 146.49 193.08C147.326 192.673 158.359 187.278 158.359 187.278L155.284 202.893L138.391 210.745L140.941 198.941Z" fill="#FFBE9D" stroke="#263238" stroke-width="0.547436" stroke-miterlimit="10"/>
<path d="M177.917 170.624L162.916 167.849C161.694 167.623 160.52 168.43 160.294 169.652L153.659 205.523C153.432 206.745 154.24 207.919 155.462 208.145L170.464 210.92C171.686 211.146 172.859 210.338 173.085 209.116L179.721 173.246C179.947 172.024 179.139 170.85 177.917 170.624Z" fill="white" stroke="#263238" stroke-width="0.547436" stroke-miterlimit="10"/>
<path d="M164.826 192.408L165.091 191.006L165.722 191.13C165.769 190.889 165.81 190.659 165.857 190.429L165.227 190.305C165.268 190.07 165.315 189.834 165.356 189.599L166.629 189.84C166.676 189.604 166.717 189.375 166.758 189.145L167.394 189.263C167.353 189.498 167.306 189.728 167.265 189.958L167.901 190.076L168.16 188.68H168.243L170.069 189.021C170.022 189.257 169.98 189.487 169.933 189.722L170.564 189.84C170.611 189.604 170.652 189.375 170.699 189.145L170.063 189.027C170.11 188.792 170.151 188.562 170.198 188.32L168.926 188.079L169.191 186.683L167.288 186.347C167.241 186.583 167.2 186.812 167.153 187.048L165.892 186.806L165.627 188.208L166.252 188.326C166.211 188.562 166.163 188.792 166.122 189.027L165.492 188.909C165.445 189.145 165.404 189.375 165.356 189.61L164.726 189.487C164.767 189.251 164.809 189.021 164.856 188.786L162.953 188.426C162.994 188.191 163.041 187.961 163.083 187.725L164.985 188.085L166.046 182.483L166.682 182.601C166.552 183.272 166.428 183.95 166.299 184.621V184.698L166.929 184.816L167.194 183.425L167.83 183.543L167.565 184.945L168.201 185.063C168.154 185.293 168.113 185.522 168.066 185.764L171.241 186.353C171.2 186.589 171.153 186.818 171.111 187.048L171.748 187.172C171.7 187.413 171.659 187.643 171.612 187.879L170.982 187.761C170.935 187.996 170.893 188.226 170.852 188.462L171.482 188.585L171.217 189.987L171.854 190.111C171.765 190.57 171.683 191.036 171.588 191.507L170.958 191.389L170.693 192.791L171.329 192.915C171.288 193.15 171.247 193.38 171.2 193.616L172.466 193.857C172.425 194.093 172.378 194.323 172.337 194.558L170.434 194.193L170.169 195.595L169.533 195.477C169.58 195.247 169.621 195.018 169.668 194.776L168.396 194.535C168.437 194.305 168.484 194.069 168.525 193.834L167.895 193.716C167.942 193.48 167.984 193.251 168.025 193.015L169.291 193.251C169.338 193.015 169.38 192.785 169.421 192.556L166.258 191.966C166.211 192.196 166.169 192.426 166.122 192.662L164.85 192.42L164.826 192.408ZM169.032 191.03C169.079 190.8 169.12 190.565 169.168 190.335L168.537 190.211C168.49 190.447 168.449 190.676 168.402 190.906L169.038 191.03C168.991 191.26 168.95 191.495 168.902 191.725L170.169 191.966C170.21 191.731 170.257 191.501 170.298 191.271L169.032 191.03ZM167.76 190.794L167.135 190.671C167.088 190.906 167.047 191.136 167 191.366L167.63 191.483C167.671 191.254 167.718 191.024 167.76 190.794ZM169.698 187.525L170.328 187.643C170.375 187.407 170.416 187.178 170.458 186.948L169.833 186.83C169.786 187.054 169.745 187.289 169.698 187.525Z" fill="#263238"/>
<path d="M160.578 183.614C160.888 181.98 161.197 180.348 161.503 178.719L165.944 179.561C165.632 181.193 165.355 182.818 165.014 184.456L160.578 183.614ZM162.009 179.538C161.786 180.716 161.568 181.894 161.35 183.036L164.513 183.625C164.737 182.447 164.955 181.269 165.179 180.127L162.009 179.538Z" fill="#263238"/>
<path d="M173.91 186.141L169.469 185.287C169.781 183.65 170.087 182.024 170.394 180.386L174.835 181.229C174.523 182.878 174.216 184.504 173.91 186.141ZM174.069 181.823L170.9 181.234C170.676 182.413 170.456 183.579 170.24 184.733L173.409 185.322C173.629 184.156 173.849 182.99 174.069 181.823Z" fill="#263238"/>
<path d="M159.634 188.527L164.069 189.369C163.763 191.001 163.451 192.632 163.144 194.264L158.703 193.428C159.045 191.796 159.339 190.164 159.634 188.527ZM163.304 189.952L160.134 189.363C159.911 190.541 159.691 191.706 159.475 192.856L162.638 193.445C162.879 192.279 163.097 191.119 163.321 189.952H163.304Z" fill="#263238"/>
<path d="M166.701 182.601L166.966 181.199L166.336 181.081C166.424 180.61 166.513 180.15 166.601 179.685L169.77 180.274L169.505 181.67L168.875 181.552C168.833 181.788 168.786 182.018 168.745 182.253L169.369 182.371L169.104 183.773L168.474 183.649C168.521 183.42 168.563 183.19 168.61 182.954L167.973 182.836L168.103 182.135L167.473 182.018C167.426 182.247 167.384 182.477 167.337 182.713L166.701 182.595V182.601ZM167.602 181.317L168.233 181.435C168.28 181.199 168.321 180.969 168.362 180.739L167.738 180.622L167.602 181.317Z" fill="#263238"/>
<path d="M163.48 185.622C163.439 185.852 163.392 186.082 163.351 186.323L164.617 186.565C164.576 186.795 164.529 187.024 164.488 187.26L162.585 186.901L162.32 188.303L159.781 187.819L160.046 186.429L160.677 186.547L160.547 187.236L161.819 187.478C161.949 186.783 162.084 186.082 162.214 185.381L163.486 185.622H163.48Z" fill="#263238"/>
<path d="M164.83 192.408C164.788 192.638 164.741 192.874 164.7 193.109L165.33 193.227C165.289 193.463 165.242 193.692 165.201 193.928L165.831 194.046C165.79 194.287 165.743 194.517 165.701 194.747L163.805 194.388C163.934 193.692 164.064 192.997 164.199 192.291L164.83 192.408Z" fill="#263238"/>
<path d="M162.212 185.382L160.945 185.14C160.898 185.376 160.857 185.605 160.81 185.841L160.18 185.717L160.445 184.327L162.341 184.686C162.3 184.916 162.253 185.152 162.212 185.382Z" fill="#263238"/>
<path d="M173.376 188.945L172.746 188.827C172.834 188.362 172.917 187.896 173.005 187.431L172.375 187.307C172.422 187.072 172.463 186.842 172.505 186.612L173.771 186.848C173.636 187.549 173.506 188.232 173.376 188.945Z" fill="#263238"/>
<path d="M163.49 185.623C163.532 185.393 163.573 185.163 163.62 184.928L164.886 185.169C164.839 185.393 164.798 185.629 164.751 185.864L163.484 185.623H163.49Z" fill="#263238"/>
<path d="M171.842 190.112C171.883 189.882 171.924 189.646 171.971 189.411L172.602 189.534C172.56 189.764 172.513 189.994 172.472 190.229L171.836 190.112H171.842Z" fill="#263238"/>
<path d="M172.348 190.936L172.979 191.053C172.931 191.283 172.89 191.513 172.849 191.748L172.219 191.625C172.26 191.395 172.307 191.177 172.348 190.936Z" fill="#263238"/>
<path d="M168.195 185.063L168.325 184.368L168.961 184.486C168.914 184.716 168.873 184.945 168.826 185.181L168.195 185.063Z" fill="#263238"/>
<path d="M165.091 191.007L164.461 190.889C164.502 190.653 164.549 190.424 164.591 190.188L165.227 190.312C165.18 190.547 165.132 190.783 165.091 191.013V191.007Z" fill="#263238"/>
<path d="M171.318 192.945C171.36 192.709 171.401 192.479 171.448 192.244L172.078 192.367C172.037 192.591 171.99 192.821 171.949 193.062L171.312 192.939L171.318 192.945Z" fill="#263238"/>
<path d="M171.598 187.891L172.229 188.008C172.187 188.238 172.146 188.468 172.099 188.709L171.469 188.586L171.598 187.879V187.891Z" fill="#263238"/>
<path d="M167.099 194.287L166.469 194.17C166.51 193.94 166.557 193.71 166.598 193.475L167.229 193.592C167.187 193.822 167.14 194.052 167.099 194.287Z" fill="#263238"/>
<path d="M168.375 194.529C168.328 194.765 168.287 194.995 168.24 195.23L167.609 195.113C167.656 194.883 167.698 194.653 167.745 194.412L168.375 194.535V194.529Z" fill="#263238"/>
<path d="M172.05 195.954L171.414 195.831C171.455 195.601 171.502 195.371 171.544 195.142L172.174 195.259C172.133 195.489 172.091 195.719 172.05 195.954Z" fill="#263238"/>
<path d="M168.162 188.686L167.531 188.568C167.578 188.332 167.62 188.103 167.667 187.873L168.297 187.991C168.25 188.221 168.209 188.456 168.162 188.686Z" fill="#263238"/>
<path d="M164.006 182.819L162.109 182.46C162.239 181.759 162.369 181.064 162.504 180.363L164.401 180.722C164.271 181.417 164.136 182.118 164.006 182.819Z" fill="#263238"/>
<path d="M171 184.138C171.13 183.437 171.265 182.742 171.395 182.047L173.291 182.407C173.162 183.102 173.026 183.797 172.897 184.498L171 184.138Z" fill="#263238"/>
<path d="M160.258 192.267C160.387 191.566 160.517 190.871 160.652 190.17L162.549 190.529C162.42 191.224 162.284 191.925 162.155 192.626L160.258 192.267Z" fill="#263238"/>
<path d="M163.665 177.411L160.884 176.881L160.242 180.268" stroke="#92E3A9" stroke-width="0.547436" stroke-miterlimit="10"/>
<path d="M173.766 179.326L176.54 179.85L175.904 183.231" stroke="#92E3A9" stroke-width="0.547436" stroke-miterlimit="10"/>
<path d="M160.29 195.23L157.516 194.699L158.152 191.318" stroke="#92E3A9" stroke-width="0.547436" stroke-miterlimit="10"/>
<path d="M170.398 197.144L173.179 197.669L173.821 194.288" stroke="#92E3A9" stroke-width="0.547436" stroke-miterlimit="10"/>
<path d="M179.222 176.063L179.74 173.241C179.795 172.951 179.792 172.652 179.731 172.362C179.671 172.073 179.553 171.798 179.385 171.555C179.218 171.311 179.003 171.103 178.755 170.942C178.506 170.782 178.229 170.672 177.937 170.62L162.935 167.846C162.348 167.737 161.742 167.866 161.251 168.204C160.759 168.542 160.422 169.062 160.313 169.648L159.789 172.47L179.222 176.063Z" fill="#263238" stroke="#263238" stroke-width="0.547436" stroke-miterlimit="10"/>
<path d="M154.001 203.777L153.677 205.515C153.624 205.808 153.629 206.108 153.692 206.399C153.756 206.69 153.876 206.966 154.046 207.21C154.216 207.454 154.433 207.662 154.684 207.822C154.936 207.982 155.216 208.091 155.509 208.142L170.512 210.917C170.803 210.97 171.101 210.966 171.391 210.904C171.68 210.842 171.954 210.724 172.198 210.556C172.441 210.388 172.649 210.174 172.81 209.925C172.97 209.677 173.08 209.399 173.133 209.108L173.457 207.341L154.001 203.777Z" fill="#263238" stroke="#263238" stroke-width="0.547436" stroke-miterlimit="10"/>
<path d="M149.129 196.921C149.129 196.921 154.383 197.704 156.003 198.005C157.623 198.305 164.12 196.344 164.674 197.374C165.227 198.405 164.42 199.731 162.906 200.773C161.393 201.816 155.249 202.894 155.249 202.894C153.928 205.009 151.925 206.609 149.571 207.429C145.818 208.607 139.898 208.431 139.898 208.431" fill="#FFBE9D"/>
<path d="M149.129 196.921C149.129 196.921 154.383 197.704 156.003 198.005C157.623 198.305 164.12 196.344 164.674 197.374C165.227 198.405 164.42 199.731 162.906 200.773C161.393 201.816 155.249 202.894 155.249 202.894C153.928 205.009 151.925 206.609 149.571 207.429C145.818 208.607 139.898 208.431 139.898 208.431" stroke="#263238" stroke-width="0.547436" stroke-miterlimit="10"/>
<path d="M63.3622 267.871H151.718C151.931 264.99 152.69 249.752 147.1 229.035C140.88 205.98 140.88 183.679 140.88 183.679C140.88 183.679 145.092 174.166 139.784 166.296C134.477 158.427 127.503 156.194 127.503 156.194C127.503 156.194 89.2918 144.343 82.1467 145.256C82.1467 145.256 64.2163 160.441 62.7555 161.36C61.2947 162.279 57.2656 168.493 57.2656 172.151C57.2656 175.809 64.3989 227.221 65.3178 233.806C66.166 239.856 63.751 264.083 63.3622 267.871Z" fill="#92E3A9" stroke="#263238" stroke-width="0.547436" stroke-miterlimit="10"/>
<path d="M75.5625 177.807C75.5625 177.807 82.6958 205.615 90.2002 215.676" stroke="#263238" stroke-width="0.547436" stroke-miterlimit="10"/>
<path d="M83.0625 206.345C83.0625 206.345 87.6335 215.858 92.7581 220.252" stroke="#263238" stroke-width="0.547436" stroke-miterlimit="10"/>
<path d="M147.402 98.109C147.402 98.109 147.219 109.89 146.1 111.309C144.981 112.729 143.226 114.885 143.326 116.069C143.426 117.253 145.947 124.569 146.077 125.588C146.206 126.607 141.989 128.592 141.989 128.592C141.989 128.592 135.097 142.334 134.39 143.359C133.683 144.384 132.034 144.225 130.143 143.842C128.252 143.459 124.842 141.286 124.842 141.286L118.203 153.75C118.203 153.75 107.494 144.967 102.67 141.68C97.8458 138.394 91.8906 135.024 91.8906 135.024L98.1168 126.301C98.1168 126.301 101.021 122.56 101.787 116.234C102.552 109.908 104.237 101.437 117.496 94.9459C130.756 88.4546 143.791 95.3818 147.402 98.109Z" fill="#FFBE9D" stroke="#263238" stroke-width="0.547436" stroke-miterlimit="10"/>
<path d="M137.664 97.8084C137.664 97.8084 138.341 103.593 137.381 105.065C136.421 106.538 128.21 107.722 128.18 108.712C128.151 109.701 128.18 114.684 126.684 114.561C125.188 114.437 124.829 114.684 124.416 114.272C124.004 113.86 124.829 109.701 121.377 110.343C117.925 110.985 114.733 116.163 114.797 119.179C114.862 122.195 117.584 124.38 117.584 124.38C117.584 124.38 117.295 125.823 111.611 127.679C105.926 129.534 99.2114 128.197 98.0922 126.312C96.973 124.427 93.6685 100.176 92.9675 93.7263C92.2666 87.2763 97.6209 75.3836 106.981 72.5974C116.341 69.8112 127.332 71.3427 127.332 71.3427C127.332 71.3427 132.987 67.9852 137.935 69.9644C142.883 71.9436 144.008 77.8163 144.008 77.8163C144.008 77.8163 153.209 77.4923 155.677 83.4652C158.145 89.4381 156.319 96.053 153.097 98.8981C149.875 101.743 144.308 98.8097 141.846 97.8202C141.192 97.5122 140.479 97.3515 139.756 97.3495C139.034 97.3474 138.319 97.5041 137.664 97.8084Z" fill="#263238" stroke="#263238" stroke-width="0.547436" stroke-miterlimit="10"/>
<path d="M146.084 111.292C146.084 111.292 143.398 108.093 140.43 111.327" stroke="#263238" stroke-width="0.547436" stroke-miterlimit="10"/>
<path d="M141.962 115.527C141.774 116.452 141.232 117.123 140.749 117.029C140.266 116.935 140.018 116.098 140.201 115.173C140.383 114.249 140.931 113.577 141.414 113.671C141.897 113.766 142.121 114.602 141.962 115.527Z" fill="#263238"/>
<path d="M137.837 131.902C137.837 131.902 135.699 132.639 133.938 129.793" stroke="#263238" stroke-width="0.547436" stroke-miterlimit="10"/>
<path d="M124.837 141.268C123.454 139.916 122.309 138.341 121.45 136.609C120.272 134.052 119.094 131.655 119.094 131.655C119.094 131.655 119.223 140.985 119.577 143.383C119.873 145.109 120.312 146.807 120.89 148.46L124.837 141.268Z" fill="#263238" stroke="#263238" stroke-width="0.547436" stroke-miterlimit="10"/>
<path d="M87.2656 138.582C87.2656 138.582 89.3803 134.671 90.523 134.512C91.6658 134.353 109.743 138.906 113.82 141.192C117.896 143.477 121.966 149.173 121.966 149.173L87.2656 138.582Z" fill="white" stroke="#263238" stroke-width="0.547436" stroke-miterlimit="10"/>
<path d="M86.5934 137.115C86.5934 137.115 96.8545 139.725 107.769 143.006C118.684 146.287 123.249 149.685 123.903 150.663C124.557 151.641 127.485 156.2 127.485 156.2C127.485 156.2 118.36 154.433 101.255 150.498C84.1489 146.563 80.7266 146.098 80.7266 146.098C80.7266 146.098 85.7982 138.417 86.5934 137.115Z" fill="#92E3A9" stroke="#263238" stroke-width="0.547436" stroke-miterlimit="10"/>
<path d="M106.117 183.844C106.117 183.844 112.703 221.543 113.25 225.925C113.798 230.308 112.703 241.829 113.25 250.806C113.666 256.58 114.634 262.3 116.143 267.888H148.54C148.269 266.369 145.595 251.136 145.088 243.319C144.534 235.073 144.352 203.801 143.256 196.12C142.161 188.438 142.549 183.661 142.549 183.661C142.549 183.661 144.906 171.403 142.184 165.548C139.463 159.693 128.46 157.891 126.28 157.679" fill="#92E3A9"/>
<path d="M106.117 183.844C106.117 183.844 112.703 221.543 113.25 225.925C113.798 230.308 112.703 241.829 113.25 250.806C113.666 256.58 114.634 262.3 116.143 267.888H148.54C148.269 266.369 145.595 251.136 145.088 243.319C144.534 235.073 144.352 203.801 143.256 196.12C142.161 188.438 142.549 183.661 142.549 183.661C142.549 183.661 144.906 171.403 142.184 165.548C139.463 159.693 128.46 157.891 126.28 157.679" stroke="#263238" stroke-width="0.547436" stroke-miterlimit="10"/>
<path d="M121.619 163.156C121.619 163.156 112.506 170.007 110.203 183.708L121.619 163.156Z" fill="#92E3A9"/>
<path d="M121.619 163.156C121.619 163.156 112.506 170.007 110.203 183.708" stroke="#263238" stroke-width="0.547436" stroke-miterlimit="10"/>
</g>
<defs>
<clipPath id="clip0_15711_63613">
<rect width="441.781" height="268" fill="white"/>
</clipPath>
</defs>
</svg>
