<svg width="1140" height="562" viewBox="0 0 1140 562" fill="none" xmlns="http://www.w3.org/2000/svg">
<rect width="1140" height="562" rx="20" fill="#EAF4EF"/>
<g clip-path="url(#clip0_15711_65053)">
<rect x="457" y="30" width="266" height="150.682" rx="15.3757" fill="white"/>
<mask id="path-4-inside-1_15711_65053" fill="white">
<path d="M457 30H733.763V55.6262H457V30Z"/>
</mask>
<path d="M457 30H733.763V55.6262H457V30Z" fill="#2F945A"/>
<path d="M733.763 55.6262V55.1137H457V55.6262V56.1387H733.763V55.6262Z" fill="#45AD72" mask="url(#path-4-inside-1_15711_65053)"/>
<circle cx="469.813" cy="42.8131" r="2.56262" fill="white"/>
<circle cx="478.016" cy="42.8131" r="2.56262" fill="white"/>
<circle cx="486.211" cy="42.8131" r="2.56262" fill="white"/>
<path d="M483.026 78.3594H475.086V105.959H483.026V78.3594Z" fill="#2F945A"/>
<path d="M500.666 78.3594H492.727V105.959H500.666V78.3594Z" fill="#2F945A"/>
<path d="M518.307 78.3594H510.367V105.959H518.307V78.3594Z" fill="#2F945A"/>
<path d="M470.07 77.8991V76.519C470.07 75.4558 470.704 74.4956 471.682 74.0784L495.187 64.0403C495.825 63.7675 496.544 63.7555 497.19 64.0069L521.73 73.5434C522.751 73.9393 523.423 74.9222 523.423 76.0175V77.8991C523.423 79.3648 522.234 80.5537 520.769 80.5537H472.722C471.259 80.5524 470.07 79.3648 470.07 77.8991Z" fill="#2F945A"/>
<path d="M522.373 109.77H471.121C470.541 109.77 470.07 109.3 470.07 108.719V105.741C470.07 105.161 470.541 104.69 471.121 104.69H522.373C522.954 104.69 523.425 105.161 523.425 105.741V108.719C523.426 109.3 522.955 109.77 522.373 109.77Z" fill="#2F945A"/>
<path d="M525.638 115.102H468.286C467.714 115.102 467.25 114.638 467.25 114.065V109.504C467.25 108.931 467.714 108.467 468.286 108.467H525.638C526.21 108.467 526.674 108.931 526.674 109.504V114.065C526.674 114.638 526.21 115.102 525.638 115.102Z" fill="#2F945A"/>
<path d="M499.282 70.8442C499.282 72.655 497.815 74.122 496.004 74.122C494.194 74.122 492.727 72.655 492.727 70.8442C492.727 69.0335 494.194 67.5664 496.004 67.5664C497.814 67.5664 499.282 69.0335 499.282 70.8442Z" fill="white"/>
<path d="M524.102 108.382C524.102 108.574 511.888 108.73 496.826 108.73C481.758 108.73 469.547 108.573 469.547 108.382C469.547 108.189 481.758 108.034 496.826 108.034C511.888 108.034 524.102 108.191 524.102 108.382Z" fill="#143E26"/>
<path d="M521.506 104.69C521.506 104.883 510.378 105.038 496.653 105.038C482.923 105.038 471.797 104.881 471.797 104.69C471.797 104.497 482.922 104.342 496.653 104.342C510.378 104.341 521.506 104.497 521.506 104.69Z" fill="#143E26"/>
<path d="M519.924 80.5528C519.924 80.7454 509.499 80.9005 496.642 80.9005C483.781 80.9005 473.359 80.744 473.359 80.5528C473.359 80.3615 483.783 80.2051 496.642 80.2051C509.499 80.2051 519.924 80.3615 519.924 80.5528Z" fill="#143E26"/>
<rect x="531.797" y="63.8267" width="103.017" height="51.2524" rx="10.2505" fill="#EAF4EF"/>
<path d="M539.182 81.5371V73.7095H541.919C542.464 73.7095 542.914 73.8037 543.268 73.9923C543.622 74.1783 543.886 74.4293 544.059 74.7453C544.232 75.0587 544.319 75.4065 544.319 75.7887C544.319 76.125 544.259 76.4028 544.139 76.6219C544.022 76.841 543.867 77.0143 543.673 77.1417C543.482 77.2691 543.274 77.3634 543.05 77.4245V77.501C543.29 77.5163 543.53 77.6004 543.773 77.7532C544.015 77.9061 544.217 78.1253 544.38 78.4106C544.543 78.696 544.625 79.0451 544.625 79.4579C544.625 79.8503 544.536 80.2032 544.357 80.5166C544.179 80.83 543.897 81.0785 543.513 81.2619C543.128 81.4454 542.627 81.5371 542.011 81.5371H539.182ZM540.13 80.6962H542.011C542.63 80.6962 543.069 80.5765 543.329 80.337C543.592 80.0949 543.723 79.8019 543.723 79.4579C543.723 79.1929 543.655 78.9483 543.52 78.7241C543.385 78.4973 543.193 78.3164 542.943 78.1813C542.693 78.0437 542.398 77.9749 542.056 77.9749H540.13V80.6962ZM540.13 77.1493H541.888C542.174 77.1493 542.431 77.0933 542.66 76.9812C542.892 76.8691 543.076 76.7111 543.211 76.5072C543.348 76.3034 543.417 76.0639 543.417 75.7887C543.417 75.4447 543.297 75.1529 543.058 74.9134C542.818 74.6714 542.439 74.5503 541.919 74.5503H540.13V77.1493ZM547.788 81.6747C547.416 81.6747 547.078 81.6046 546.775 81.4645C546.472 81.3218 546.231 81.1167 546.052 80.8491C545.874 80.579 545.785 80.2529 545.785 79.8707C545.785 79.5343 545.851 79.2617 545.984 79.0528C546.116 78.8413 546.293 78.6756 546.515 78.5559C546.737 78.4361 546.981 78.3469 547.249 78.2883C547.519 78.2272 547.79 78.1788 548.063 78.1431C548.42 78.0972 548.709 78.0628 548.93 78.0399C549.155 78.0144 549.318 77.9724 549.42 77.9138C549.524 77.8552 549.576 77.7532 549.576 77.608V77.5774C549.576 77.2003 549.473 76.9073 549.267 76.6983C549.063 76.4894 548.753 76.3849 548.338 76.3849C547.907 76.3849 547.57 76.4792 547.325 76.6678C547.081 76.8563 546.909 77.0576 546.809 77.2717L545.953 76.9659C546.106 76.6092 546.31 76.3314 546.565 76.1327C546.822 75.9314 547.102 75.7912 547.405 75.7122C547.711 75.6307 548.012 75.5899 548.307 75.5899C548.496 75.5899 548.713 75.6129 548.957 75.6587C549.204 75.7021 549.443 75.7925 549.672 75.9301C549.904 76.0677 550.096 76.2754 550.249 76.5531C550.402 76.8308 550.478 77.2029 550.478 77.6692V81.5371H549.576V80.7421H549.53C549.469 80.8695 549.367 81.0058 549.225 81.1511C549.082 81.2963 548.892 81.4199 548.655 81.5218C548.418 81.6237 548.129 81.6747 547.788 81.6747ZM547.925 80.8644C548.282 80.8644 548.583 80.7943 548.827 80.6542C549.074 80.5141 549.26 80.3332 549.385 80.1115C549.513 79.8898 549.576 79.6566 549.576 79.412V78.5865C549.538 78.6323 549.454 78.6744 549.324 78.7126C549.197 78.7483 549.049 78.7801 548.881 78.8081C548.715 78.8336 548.553 78.8566 548.395 78.8769C548.24 78.8948 548.114 78.9101 548.017 78.9228C547.783 78.9534 547.563 79.0031 547.36 79.0719C547.158 79.1381 546.995 79.2388 546.87 79.3738C546.748 79.5063 546.687 79.6872 546.687 79.9165C546.687 80.23 546.803 80.4669 547.035 80.6275C547.269 80.7854 547.566 80.8644 547.925 80.8644ZM553.027 78.0055V81.5371H552.125V75.6664H552.996V76.5837H553.073C553.21 76.2856 553.419 76.046 553.699 75.8651C553.98 75.6817 554.342 75.5899 554.785 75.5899C555.182 75.5899 555.53 75.6715 555.828 75.8346C556.126 75.9951 556.358 76.2397 556.524 76.5684C556.69 76.8945 556.772 77.3073 556.772 77.8067V81.5371H555.87V77.8679C555.87 77.4067 555.751 77.0474 555.511 76.7901C555.272 76.5302 554.943 76.4002 554.525 76.4002C554.237 76.4002 553.98 76.4626 553.753 76.5875C553.529 76.7124 553.352 76.8945 553.222 77.1341C553.092 77.3736 553.027 77.6641 553.027 78.0055ZM559.262 79.3967L559.246 78.2807H559.43L561.998 75.6664H563.114L560.378 78.4336H560.301L559.262 79.3967ZM558.421 81.5371V73.7095H559.323V81.5371H558.421ZM562.151 81.5371L559.858 78.6323L560.5 78.0055L563.298 81.5371H562.151ZM567.746 81.5371H566.752L569.626 73.7095H570.605L573.479 81.5371H572.485L570.146 74.9478H570.085L567.746 81.5371ZM568.113 78.4794H572.118V79.3203H568.113V78.4794ZM576.961 81.6594C576.41 81.6594 575.936 81.5295 575.539 81.2696C575.141 81.0097 574.836 80.6517 574.622 80.1956C574.408 79.7395 574.301 79.2184 574.301 78.6323C574.301 78.0361 574.41 77.5099 574.629 77.0538C574.851 76.5951 575.159 76.2371 575.554 75.9798C575.952 75.7199 576.415 75.5899 576.945 75.5899C577.358 75.5899 577.73 75.6664 578.061 75.8193C578.393 75.9721 578.664 76.1862 578.876 76.4614C579.087 76.7366 579.218 77.0576 579.269 77.4245H578.367C578.298 77.157 578.146 76.92 577.909 76.7136C577.674 76.5047 577.358 76.4002 576.961 76.4002C576.609 76.4002 576.301 76.492 576.036 76.6754C575.773 76.8563 575.568 77.1124 575.42 77.4437C575.275 77.7724 575.203 78.1584 575.203 78.6017C575.203 79.0553 575.274 79.4502 575.417 79.7866C575.562 80.1229 575.766 80.3841 576.028 80.5701C576.293 80.7561 576.604 80.8491 576.961 80.8491C577.195 80.8491 577.408 80.8084 577.599 80.7268C577.79 80.6453 577.952 80.5281 578.084 80.3752C578.217 80.2223 578.311 80.0389 578.367 79.8248H579.269C579.218 80.1713 579.092 80.4835 578.891 80.7612C578.692 81.0364 578.428 81.2555 578.1 81.4186C577.774 81.5792 577.394 81.6594 576.961 81.6594ZM582.973 81.6594C582.422 81.6594 581.949 81.5295 581.551 81.2696C581.154 81.0097 580.848 80.6517 580.634 80.1956C580.42 79.7395 580.313 79.2184 580.313 78.6323C580.313 78.0361 580.422 77.5099 580.641 77.0538C580.863 76.5951 581.171 76.2371 581.566 75.9798C581.964 75.7199 582.428 75.5899 582.958 75.5899C583.37 75.5899 583.742 75.6664 584.074 75.8193C584.405 75.9721 584.676 76.1862 584.888 76.4614C585.099 76.7366 585.23 77.0576 585.281 77.4245H584.379C584.311 77.157 584.158 76.92 583.921 76.7136C583.686 76.5047 583.37 76.4002 582.973 76.4002C582.621 76.4002 582.313 76.492 582.048 76.6754C581.785 76.8563 581.58 77.1124 581.433 77.4437C581.287 77.7724 581.215 78.1584 581.215 78.6017C581.215 79.0553 581.286 79.4502 581.429 79.7866C581.574 80.1229 581.778 80.3841 582.04 80.5701C582.305 80.7561 582.616 80.8491 582.973 80.8491C583.207 80.8491 583.42 80.8084 583.611 80.7268C583.802 80.6453 583.964 80.5281 584.097 80.3752C584.229 80.2223 584.323 80.0389 584.379 79.8248H585.281C585.23 80.1713 585.104 80.4835 584.903 80.7612C584.704 81.0364 584.441 81.2555 584.112 81.4186C583.786 81.5792 583.406 81.6594 582.973 81.6594ZM588.985 81.6594C588.455 81.6594 587.99 81.5333 587.59 81.281C587.192 81.0288 586.882 80.6759 586.657 80.2223C586.436 79.7688 586.325 79.2388 586.325 78.6323C586.325 78.0208 586.436 77.487 586.657 77.0309C586.882 76.5748 587.192 76.2206 587.59 75.9683C587.99 75.7161 588.455 75.5899 588.985 75.5899C589.515 75.5899 589.979 75.7161 590.376 75.9683C590.776 76.2206 591.087 76.5748 591.309 77.0309C591.533 77.487 591.645 78.0208 591.645 78.6323C591.645 79.2388 591.533 79.7688 591.309 80.2223C591.087 80.6759 590.776 81.0288 590.376 81.281C589.979 81.5333 589.515 81.6594 588.985 81.6594ZM588.985 80.8491C589.388 80.8491 589.719 80.7459 589.979 80.5395C590.239 80.3332 590.431 80.0618 590.556 79.7254C590.681 79.3891 590.743 79.0247 590.743 78.6323C590.743 78.2399 590.681 77.8743 590.556 77.5354C590.431 77.1965 590.239 76.9226 589.979 76.7136C589.719 76.5047 589.388 76.4002 588.985 76.4002C588.582 76.4002 588.251 76.5047 587.991 76.7136C587.731 76.9226 587.539 77.1965 587.414 77.5354C587.289 77.8743 587.227 78.2399 587.227 78.6323C587.227 79.0247 587.289 79.3891 587.414 79.7254C587.539 80.0618 587.731 80.3332 587.991 80.5395C588.251 80.7459 588.582 80.8491 588.985 80.8491ZM596.722 79.1368V75.6664H597.624V81.5371H596.722V80.5434H596.661C596.523 80.8415 596.309 81.095 596.019 81.304C595.728 81.5104 595.361 81.6136 594.918 81.6136C594.551 81.6136 594.225 81.5333 593.939 81.3728C593.654 81.2097 593.43 80.9651 593.267 80.6389C593.104 80.3102 593.022 79.8962 593.022 79.3967V75.6664H593.924V79.3356C593.924 79.7637 594.044 80.1051 594.283 80.3599C594.525 80.6147 594.834 80.7421 595.208 80.7421C595.433 80.7421 595.661 80.6848 595.892 80.5701C596.127 80.4555 596.323 80.2796 596.481 80.0427C596.642 79.8057 596.722 79.5038 596.722 79.1368ZM600.178 78.0055V81.5371H599.276V75.6664H600.147V76.5837H600.224C600.361 76.2856 600.57 76.046 600.851 75.8651C601.131 75.6817 601.493 75.5899 601.936 75.5899C602.334 75.5899 602.681 75.6715 602.98 75.8346C603.278 75.9951 603.51 76.2397 603.675 76.5684C603.841 76.8945 603.924 77.3073 603.924 77.8067V81.5371H603.022V77.8679C603.022 77.4067 602.902 77.0474 602.662 76.7901C602.423 76.5302 602.094 76.4002 601.676 76.4002C601.388 76.4002 601.131 76.4626 600.904 76.5875C600.68 76.7124 600.503 76.8945 600.373 77.1341C600.243 77.3736 600.178 77.6641 600.178 78.0055ZM608.125 75.6664V76.4308H605.083V75.6664H608.125ZM605.969 74.2599H606.871V79.8554C606.871 80.1102 606.908 80.3013 606.982 80.4287C607.059 80.5536 607.156 80.6376 607.273 80.681C607.392 80.7217 607.519 80.7421 607.651 80.7421C607.75 80.7421 607.832 80.737 607.896 80.7268C607.959 80.7141 608.01 80.7039 608.049 80.6962L608.232 81.5065C608.171 81.5295 608.086 81.5524 607.976 81.5753C607.866 81.6008 607.728 81.6136 607.559 81.6136C607.305 81.6136 607.055 81.5588 606.81 81.4492C606.568 81.3396 606.367 81.1727 606.206 80.9485C606.048 80.7243 605.969 80.4414 605.969 80.1V74.2599Z" fill="#2F945A"/>
<path d="M616.635 82.5563C615.962 82.5563 615.329 82.4285 614.736 82.1729C614.144 81.9173 613.629 81.5705 613.19 81.1324C612.752 80.6942 612.405 80.179 612.149 79.5867C611.893 78.9945 611.766 78.3616 611.766 77.6882C611.766 77.0148 611.893 76.3818 612.149 75.7892C612.405 75.1967 612.752 74.6812 613.19 74.2429C613.628 73.8046 614.143 73.4576 614.736 73.2019C615.328 72.9462 615.961 72.8184 616.635 72.8184C617.174 72.8184 617.685 72.8995 618.167 73.0618C618.649 73.2241 619.091 73.4505 619.493 73.7409L618.937 74.3096C618.606 74.0816 618.247 73.9042 617.861 73.7774C617.475 73.6505 617.066 73.5871 616.635 73.5871C615.498 73.5871 614.531 73.9865 613.732 74.7852C612.934 75.5838 612.534 76.5512 612.534 77.6873C612.534 78.8234 612.934 79.7908 613.732 80.5895C614.531 81.3882 615.498 81.7875 616.635 81.7875C617.771 81.7875 618.738 81.3882 619.537 80.5895C620.335 79.7908 620.735 78.8234 620.735 77.6873C620.735 77.5073 620.723 77.3292 620.699 77.1531C620.676 76.9771 620.64 76.8059 620.593 76.6396L621.214 76.0137C621.308 76.2772 621.38 76.5483 621.429 76.8269C621.479 77.1055 621.504 77.3923 621.504 77.6873C621.504 78.3609 621.376 78.9938 621.12 79.5862C620.865 80.1786 620.518 80.6939 620.08 81.1321C619.642 81.5703 619.126 81.9172 618.534 82.1729C617.942 82.4285 617.309 82.5563 616.635 82.5563ZM615.907 79.8675L613.906 77.8667L614.447 77.3266L615.907 78.7873L620.963 73.7232L621.504 74.2633L615.907 79.8675Z" fill="#2F945A"/>
<path d="M539.087 89.6018L540.158 91.4305L541.23 89.6018H542.022L540.578 91.8382L542.022 94.0747H541.23L540.158 92.3391L539.087 94.0747H538.295L539.716 91.8382L538.295 89.6018H539.087ZM543.515 89.6018L544.587 91.4305L545.659 89.6018H546.451L545.006 91.8382L546.451 94.0747H545.659L544.587 92.3391L543.515 94.0747H542.723L544.144 91.8382L542.723 89.6018H543.515ZM547.944 89.6018L549.016 91.4305L550.087 89.6018H550.879L549.435 91.8382L550.879 94.0747H550.087L549.016 92.3391L547.944 94.0747H547.152L548.573 91.8382L547.152 89.6018H547.944ZM553.945 88.1108V94.0747H553.223V88.8679H553.188L551.732 89.8347V89.1009L553.223 88.1108H553.945ZM555.66 94.0747V93.5505L557.629 91.3956C557.86 91.1432 558.05 90.9238 558.199 90.7375C558.349 90.5492 558.46 90.3725 558.531 90.2075C558.605 90.0405 558.642 89.8658 558.642 89.6833C558.642 89.4736 558.592 89.2921 558.491 89.1388C558.392 88.9854 558.256 88.867 558.083 88.7835C557.91 88.7 557.716 88.6583 557.501 88.6583C557.271 88.6583 557.072 88.7058 556.901 88.801C556.732 88.8941 556.601 89.0252 556.508 89.1941C556.416 89.363 556.371 89.561 556.371 89.7881H555.683C555.683 89.4387 555.764 89.132 555.925 88.8679C556.086 88.6039 556.306 88.3981 556.583 88.2506C556.863 88.103 557.176 88.0293 557.524 88.0293C557.873 88.0293 558.183 88.103 558.453 88.2506C558.723 88.3981 558.934 88.5971 559.088 88.8475C559.241 89.098 559.318 89.3766 559.318 89.6833C559.318 89.9027 559.278 90.1172 559.198 90.3269C559.121 90.5346 558.985 90.7666 558.791 91.0229C558.598 91.2772 558.331 91.5878 557.99 91.9547L556.65 93.3875V93.4341H559.423V94.0747H555.66ZM562.64 94.1562C562.256 94.1562 561.913 94.0902 561.612 93.9582C561.313 93.8262 561.076 93.6428 560.899 93.4078C560.724 93.171 560.629 92.8963 560.614 92.5837H561.347C561.363 92.7759 561.429 92.9419 561.545 93.0817C561.662 93.2195 561.814 93.3263 562.003 93.402C562.191 93.4777 562.4 93.5156 562.629 93.5156C562.885 93.5156 563.112 93.4709 563.31 93.3816C563.508 93.2923 563.663 93.1681 563.776 93.0089C563.889 92.8497 563.945 92.6653 563.945 92.4556C563.945 92.2362 563.891 92.0431 563.782 91.8761C563.673 91.7072 563.514 91.5752 563.304 91.4801C563.095 91.3849 562.838 91.3374 562.536 91.3374H562.058V90.6967H562.536C562.772 90.6967 562.98 90.654 563.159 90.5686C563.339 90.4832 563.48 90.3628 563.581 90.2075C563.684 90.0522 563.735 89.8697 563.735 89.66C563.735 89.4581 563.691 89.2824 563.601 89.1329C563.512 88.9834 563.386 88.867 563.223 88.7835C563.062 88.7 562.871 88.6583 562.652 88.6583C562.446 88.6583 562.252 88.6961 562.07 88.7718C561.889 88.8456 561.742 88.9533 561.627 89.0951C561.512 89.2348 561.45 89.4037 561.441 89.6018H560.742C560.753 89.2892 560.848 89.0155 561.024 88.7806C561.201 88.5437 561.432 88.3593 561.717 88.2273C562.005 88.0953 562.32 88.0293 562.664 88.0293C563.033 88.0293 563.349 88.104 563.613 88.2535C563.877 88.401 564.08 88.5961 564.222 88.8388C564.363 89.0815 564.434 89.3436 564.434 89.6251C564.434 89.9609 564.346 90.2473 564.169 90.4841C563.994 90.721 563.757 90.885 563.456 90.9763V91.0229C563.832 91.085 564.127 91.2451 564.338 91.5034C564.55 91.7596 564.656 92.077 564.656 92.4556C564.656 92.7798 564.567 93.071 564.391 93.3292C564.216 93.5855 563.977 93.7874 563.674 93.9349C563.371 94.0825 563.027 94.1562 562.64 94.1562Z" fill="#61C98E"/>
<rect x="639.945" y="63.8267" width="63.5814" height="11.7881" rx="5.89403" fill="#EAF4EF"/>
<rect x="639.945" y="80.7397" width="35.3642" height="11.7881" rx="5.89403" fill="#EAF4EF"/>
<rect x="467.25" y="120.227" width="132.231" height="9.22543" rx="4.61272" fill="#EAF4EF"/>
<rect x="467.25" y="134.578" width="132.231" height="33.3141" rx="10.2505" fill="#EAF4EF"/>
</g>
<rect x="457.513" y="30.5125" width="264.975" height="149.657" rx="14.8632" stroke="#1F212C" stroke-width="1.02505"/>
<path d="M358.629 335.47L0 151V562H161.312C165.944 562 170.495 560.78 174.506 558.462L351.98 455.925C367.352 447.044 367.66 424.964 352.542 415.657L346.552 411.969C330.583 402.139 334.903 377.835 353.281 374.109C372.427 370.228 376.001 344.406 358.629 335.47Z" fill="#2F945A"/>
<path d="M687.096 207.875C687.096 207.875 675.817 196.596 681.456 190.391C687.096 184.186 688.787 182.495 688.223 172.906C687.659 163.318 700.631 165.575 700.631 157.114C700.631 148.654 704.015 143.014 711.347 141.323C718.678 139.63 716.423 130.043 720.935 130.043C725.447 130.043 730.524 136.248 727.14 141.887C723.756 147.527 720.373 150.347 721.499 157.114C722.628 163.882 714.168 163.318 713.039 168.958C711.911 174.599 718.68 180.802 712.475 186.443C706.27 192.083 700.067 193.774 701.76 198.851C703.452 203.927 693.865 210.132 687.096 207.875Z" fill="#54A25A"/>
<path d="M687.811 216.114C687.811 216.114 701.73 202.195 694.77 194.54C687.811 186.884 685.722 184.796 686.419 172.965C687.116 161.134 671.108 163.918 671.108 153.479C671.108 143.04 666.933 136.079 657.886 133.992C648.838 131.904 651.622 120.073 646.055 120.073C640.488 120.073 634.224 127.729 638.399 134.688C642.575 141.646 646.751 145.127 645.358 153.479C643.966 161.829 654.405 161.134 655.797 168.093C657.189 175.052 648.838 182.707 656.494 189.668C664.149 196.627 671.805 198.715 669.716 204.979C667.63 211.244 679.46 218.9 687.811 216.114Z" fill="#5ECB73"/>
<path d="M677.734 239.624H693.39C697.229 239.624 700.477 236.791 700.998 232.989L705.172 202.586H665.954L670.128 232.989C670.648 236.79 673.896 239.624 677.734 239.624Z" fill="#BFDECC"/>
<path d="M171.801 148.65C171.801 148.65 185.271 161.042 173.957 182.594C162.643 204.146 170.724 227.851 180.422 234.316" stroke="#1A5132" stroke-width="1.61631" stroke-miterlimit="10"/>
<path d="M200.627 218.558C200.627 218.558 189.313 223.811 189.313 235.125H215.578L200.627 218.558Z" fill="#BFDECC"/>
<path d="M217.336 97.7363L218.414 108.512L168.306 158.619L164.534 146.765L217.336 97.7363Z" fill="#BFDECC"/>
<path d="M216.099 90.5713L221.812 96.2852L162.008 156.089L156.294 150.376L216.099 90.5713Z" fill="#1A5132"/>
<path d="M166.253 146.941L228.742 237.457L216.771 245.721L154.282 155.205L166.253 146.941Z" fill="#1A5132"/>
<path d="M369.266 373.054L410.214 521.76H414.523L381.12 369.823L369.266 373.054Z" fill="#74B790"/>
<path d="M403.75 373.054L444.698 521.76H449.008L415.604 369.823L403.75 373.054Z" fill="#74B790"/>
<path d="M345.562 373.054L304.616 521.76H300.305L333.71 369.823L345.562 373.054Z" fill="#74B790"/>
<path d="M311.078 373.054L270.13 521.76H265.821L299.224 369.823L311.078 373.054Z" fill="#74B790"/>
<path d="M294.917 273.918C294.917 273.918 295.995 188.79 335.865 187.713C375.736 186.635 400.519 218.963 404.83 257.755C409.141 296.548 435.002 349.348 440.389 365.513C445.777 381.678 370.347 387.065 349.874 380.598C329.4 374.133 286.298 373.055 289.53 327.798C292.762 282.539 294.917 273.918 294.917 273.918Z" fill="#FF981A"/>
<path d="M303.534 199.566C303.534 199.566 257.722 335.672 283.06 363.357C312.155 395.145 424.222 383.292 428.533 376.827C432.844 370.362 315.388 379.52 302.457 349.348C289.525 319.176 319.697 202.798 314.31 199.566C308.921 196.333 306.766 192.022 303.534 199.566Z" fill="#FFC21A"/>
<path d="M387.051 68.6412C387.051 68.6412 417.223 81.1687 409.68 119.288C406.447 124.137 397.826 117.132 381.663 118.21C365.5 119.288 342.333 112.821 343.41 101.507C344.487 90.1931 357.956 61.0986 387.051 68.6412Z" fill="#1F212C"/>
<path d="M445.236 128.446C445.236 128.446 444.158 116.592 453.318 111.743C462.478 106.894 468.405 98.2735 468.405 98.2735C468.405 98.2735 472.176 100.429 470.021 104.2C467.865 107.972 465.71 109.049 465.71 111.743C465.71 114.437 467.326 116.592 467.326 116.592C467.326 116.592 473.791 112.283 478.102 109.049C482.413 105.816 489.955 94.5021 491.571 95.5799C493.187 96.6577 493.727 98.2735 491.033 100.967C488.339 103.661 481.873 111.743 477.564 114.976C473.252 118.209 496.422 97.1957 498.038 98.2735C499.653 99.3512 496.422 104.2 492.111 108.51C487.8 112.819 477.024 118.208 470.559 121.441C464.094 124.674 445.236 128.446 445.236 128.446Z" fill="#F3AD8A"/>
<path d="M443.89 134.103C443.89 134.103 422.05 214.578 423.272 227.275C424.493 239.973 446.315 239.973 449.547 230.276C452.78 220.578 455.204 146.226 458.437 134.911C461.67 123.597 488.339 117.13 488.339 117.13C488.339 117.13 504.502 103.391 502.886 102.583C501.271 101.775 494.804 102.583 489.147 107.432C483.49 112.281 481.065 113.897 468.943 114.705C456.821 115.513 447.931 114.705 444.698 121.978C441.464 129.254 443.89 134.103 443.89 134.103Z" fill="#FFBE9D"/>
<path d="M397.825 153.499C397.825 153.499 404.289 152.691 412.372 166.431C420.454 180.17 451.972 225.428 438.233 233.51C424.494 241.592 413.988 231.894 409.946 223.812C405.905 215.73 372.77 176.937 375.195 166.431C377.62 155.925 388.126 150.268 397.825 153.499Z" fill="#35374B"/>
<path d="M539.726 495.667L543.42 501.208C543.42 501.208 561.891 525.836 561.891 530.145C561.891 534.455 534.801 515.984 532.338 512.906C529.875 509.828 529.26 506.134 529.26 506.134L527.414 498.747L539.726 495.667Z" fill="#FF716A"/>
<path d="M475.078 499.362L472.615 506.134C472.615 506.134 470.769 528.299 465.226 533.84C459.685 538.149 456.606 507.982 459.069 501.825C461.532 496.899 462.763 495.052 462.763 495.052L475.078 499.362Z" fill="#FF716A"/>
<path d="M394.428 304.192C394.428 304.192 460.921 304.192 513.869 337.439C540.958 362.065 483.085 499.362 478.159 501.825C472.001 504.288 462.766 499.979 459.073 495.053C456.61 490.127 472.003 401.469 470.772 378.073L374.725 347.289L394.428 304.192Z" fill="#216940"/>
<path d="M523.713 502.44C527.408 503.671 538.49 502.44 542.184 495.051C545.879 487.662 499.087 375.608 474.459 349.75C449.831 323.892 403.041 304.19 403.041 304.19L390.818 268.529L322.931 262.064C322.931 262.064 299.606 317.736 310.688 341.131C310.688 341.131 313.151 366.989 355.016 369.452C396.882 371.915 428.897 376.841 439.981 382.997C451.064 389.155 523.713 502.44 523.713 502.44Z" fill="#1A5132"/>
<path d="M387.406 145.913C396.814 148.6 404.205 155.786 407.603 164.962C407.757 165.376 407.911 165.777 408.065 166.163C410.22 171.55 422.074 187.715 413.452 200.644C404.831 213.576 400.52 217.885 400.52 238.359C400.52 258.833 403.753 259.911 400.52 266.376C395.133 272.841 364.961 284.695 315.392 265.298C307.555 262.232 325.09 236.204 320.779 213.576C316.47 190.946 307.848 165.085 316.47 154.309C323.852 145.08 354.94 136.643 387.406 145.913Z" fill="#35374B"/>
<path d="M321.857 151.076C321.857 151.076 312.159 151.884 299.228 169.664C286.296 187.445 262.051 214.922 259.627 224.62C258.011 234.318 273.366 240.783 286.296 233.51C299.228 226.238 322.664 198.759 331.554 188.253C340.444 177.745 339.636 147.035 321.857 151.076Z" fill="#35374B"/>
<path d="M273.6 214.355C273.6 214.355 259.8 215.327 259.232 227.436C258.665 239.545 268.314 240.807 291.069 238.637C313.825 236.467 351.919 235.016 359.223 234.55C366.527 234.084 369.453 240.693 378.446 238.688C387.439 236.683 388.36 234.298 392.398 234.488C396.434 234.677 404.975 242.359 409.086 240.933C413.198 239.509 399.777 232.406 391.893 227.992C384.008 223.576 367.183 220.075 360.649 221.388C354.116 222.699 309.928 216.06 294.589 215.34C279.25 214.62 273.6 214.355 273.6 214.355Z" fill="#FFB6AB"/>
<path d="M393.787 148.65C393.787 148.65 403.486 167.239 379.24 174.512C354.995 181.784 324.688 157.945 325.496 147.843C335.868 142.993 373.179 137.336 393.787 148.65Z" fill="#FFBE9D"/>
<path d="M398.369 104.2C398.369 104.2 403.756 117.132 399.985 122.519C396.214 127.906 381.666 126.29 378.433 130.062C375.2 133.833 374.122 142.453 380.589 146.764C383.822 151.074 356.343 152.152 350.956 146.226C351.494 142.993 360.115 130.601 359.039 123.059C357.961 115.516 354.729 102.047 353.651 90.731C352.574 79.417 365.505 74.0282 373.048 72.9505C380.59 71.8727 391.366 73.4902 394.06 82.6486C396.753 91.8071 402.142 100.429 403.758 102.045C405.374 103.662 398.369 104.2 398.369 104.2Z" fill="#FFBE9D"/>
<path d="M378.432 77.2617C378.432 77.2617 382.203 82.1108 376.816 91.809C371.429 101.507 364.962 111.743 370.889 125.214C370.889 125.214 347.722 127.908 331.558 108.512C333.174 102.585 340.717 79.4172 355.804 69.7191C370.889 60.0209 387.054 65.9478 392.981 71.3349C398.908 76.722 410.625 91.6062 409.548 105.615C409.548 109.926 403.081 69.2481 378.432 77.2617Z" fill="#292B3A"/>
<path d="M378.031 142.993C378.031 142.993 377.223 151.884 368.737 156.329C364.292 157.137 354.998 148.246 352.574 141.377" stroke="#1A5132" stroke-width="0.808235" stroke-miterlimit="10"/>
<path d="M368.736 161.986C366.95 161.986 365.502 160.538 365.502 158.752C365.502 156.967 366.95 155.519 368.736 155.519C370.521 155.519 371.969 156.967 371.969 158.752C371.969 160.538 370.521 161.986 368.736 161.986Z" fill="white"/>
<path d="M515.62 212.827H583.375V224.61H515.62V212.827Z" fill="white"/>
<path d="M513.083 212.825V210.794H650.422V224.61H583.377V212.825H513.083Z" fill="#1A5132"/>
<path d="M508.714 205.512H576.469V210.794H508.714V205.512Z" fill="white"/>
<path d="M506.176 205.512V203.48H643.516V210.794H576.471V205.512H506.176Z" fill="#2F945A"/>
<path d="M505.77 224.61H643.109V238.425H505.77V224.61Z" fill="#FF5A61"/>
<path d="M505.768 226.642H576.062V238.425H505.768V226.642Z" fill="white"/>
<path d="M594.857 216.178H611.312V219.835H594.857V216.178Z" fill="#FF8E75"/>
<path d="M591.508 216.178H593.539V219.835H591.508V216.178Z" fill="#484FB6"/>
<path d="M336.939 238.956H422.461V235.36H340.535C338.55 235.358 336.939 236.969 336.939 238.956Z" fill="#74B790"/>
<path d="M411.505 238.246H543.511L554.662 161.999C555.002 159.668 553.195 157.577 550.84 157.577H426.643C424.725 157.577 423.099 158.983 422.821 160.88L411.505 238.246Z" fill="#74B790"/>
<path d="M414.038 238.246H546.043L557.193 161.999C557.533 159.668 555.726 157.577 553.371 157.577H429.174C427.257 157.577 425.63 158.983 425.352 160.88L414.038 238.246Z" fill="#1A5132"/>
<path d="M481.752 202.509C481.215 207.636 485.111 211.811 490.454 211.833C495.797 211.854 500.563 207.715 501.099 202.586C501.635 197.459 497.74 193.284 492.397 193.262C487.054 193.243 482.288 197.382 481.752 202.509Z" fill="#BFDECC"/>
<path d="M161.746 256.501L109.457 525.214H115.267L173.367 255.049L161.746 256.501Z" fill="#BFDECC"/>
<path d="M195.693 256.501L143.403 525.214H149.214L207.312 255.049L195.693 256.501Z" fill="#74B790"/>
<path d="M693.265 256.501L745.555 525.214H739.744L681.645 255.049L693.265 256.501Z" fill="#BFDECC"/>
<path d="M659.319 256.501L711.609 525.214H705.799L647.7 255.049L659.319 256.501Z" fill="#74B790"/>
<path d="M137.733 259.406H717.281C725.703 259.406 732.531 252.578 732.531 244.155H122.483C122.483 252.578 129.311 259.406 137.733 259.406Z" fill="#FF981A"/>
<path d="M108.001 237.282H747V245.902H108.001V237.282Z" fill="#216940"/>
<path d="M149.445 232.971H255.047V238.359H149.445V232.971Z" fill="#1A5132"/>
<path d="M150.518 151.614C150.518 156.97 154.86 161.312 160.216 161.312C165.572 161.312 169.914 156.97 169.914 151.614C169.914 146.258 165.572 141.916 160.216 141.916C154.86 141.916 150.518 146.258 150.518 151.614Z" fill="#BFDECC"/>
<path d="M154.835 151.614C154.835 154.589 157.247 157.001 160.222 157.001C163.197 157.001 165.609 154.589 165.609 151.614C165.609 148.639 163.197 146.227 160.222 146.227C157.247 146.227 154.835 148.639 154.835 151.614Z" fill="white"/>
<path d="M134.72 133.72C153.262 115.178 153.262 85.1156 134.72 66.5736C116.178 48.0315 86.1155 48.0315 67.5734 66.5736C49.0313 85.1156 49.0313 115.178 67.5734 133.72C86.1155 152.262 116.178 152.262 134.72 133.72Z" fill="white" stroke="#74B790" stroke-width="1.68197" stroke-miterlimit="10"/>
<path d="M122.683 82.0796L102.555 99.8071L102.363 99.9761L102.594 100.085L120.429 108.564L119.852 109.779L99.9434 100.315L121.793 81.0688L122.683 82.0796Z" fill="#102048" stroke="#74B790" stroke-width="0.336395"/>
<path d="M471.426 67.1334H442.58C437.861 67.1334 434 63.2726 434 58.5539V32.5794C434 27.8608 437.861 24 442.58 24H471.426C476.145 24 480.006 27.8608 480.006 32.5794V58.5539C480.006 63.2722 476.145 67.1334 471.426 67.1334Z" fill="white" stroke="#2F945A" stroke-width="1.34665" stroke-miterlimit="10"/>
<path d="M464.937 67.313L457.002 75.3989L449.068 67.313H464.937Z" fill="#2F945A" stroke="#2F945A" stroke-width="0.359107"/>
<path d="M466.953 34.2188C467.293 33.6079 468.036 33.3647 468.662 33.6328L468.786 33.6934C469.438 34.0547 469.673 34.8756 469.312 35.5264L457.444 56.9131C457.229 57.3001 456.838 57.5575 456.397 57.6016H456.396C456.353 57.6063 456.308 57.6084 456.265 57.6084C455.872 57.6083 455.495 57.4362 455.238 57.1338L446.876 47.3018C446.393 46.7345 446.462 45.8833 447.029 45.4014C447.597 44.9188 448.448 44.9895 448.929 45.5547L455.862 53.7061L456.03 53.9033L456.156 53.6768L466.953 34.2188Z" fill="#2F945A" stroke="#2F945A" stroke-width="0.359107"/>
<defs>
<clipPath id="clip0_15711_65053">
<rect x="457" y="30" width="266" height="150.682" rx="15.3757" fill="white"/>
</clipPath>
</defs>
</svg>
