<svg width="1140" height="606" viewBox="0 0 1140 606" fill="none" xmlns="http://www.w3.org/2000/svg">
<rect width="1140" height="562" rx="20" fill="#EAF4EF"/>
<path d="M518.798 260.783H439.172C436.316 260.783 434 258.467 434 255.61V210.175C434 207.318 436.316 205 439.172 205H518.798C521.654 205 523.97 207.316 523.97 210.175V255.61C523.97 258.465 521.654 260.783 518.798 260.783Z" fill="#BFDECC"/>
<path d="M522.102 206.222L479.886 241.88L436.881 205.556C436.343 205.825 435.853 206.17 435.442 206.601L462.795 229.707L434 254.029V255.608C434 255.823 434.037 256.029 434.064 256.237L464.136 230.84L479.886 244.144L495.638 230.84L523.973 254.773V252.511L496.977 229.709L523.226 207.538C522.925 207.034 522.546 206.594 522.102 206.222Z" fill="#74B790"/>
<path d="M265.219 401.597H290.047V518.237H265.219V401.597Z" fill="#123922"/>
<path d="M265.219 411.424V428.736L290.047 424.16V411.424H265.219Z" fill="#35A967"/>
<path d="M265.219 484.401V501.713L290.047 497.138V484.401H265.219Z" fill="#35A967"/>
<path d="M261.612 490.545H293.647C299.098 490.545 303.516 494.963 303.516 500.413C303.516 505.863 299.098 510.281 293.647 510.281H261.612C256.162 510.281 251.744 505.863 251.744 500.413C251.744 494.964 256.162 490.545 261.612 490.545Z" fill="#187A42"/>
<path d="M261.612 399.769H293.647C299.098 399.769 303.516 404.187 303.516 409.637C303.516 415.087 299.098 419.505 293.647 419.505H261.612C256.162 419.505 251.744 415.087 251.744 409.637C251.744 404.188 256.162 399.769 261.612 399.769Z" fill="#187A42"/>
<path d="M248.332 498.499H306.936C312.387 498.499 316.805 502.917 316.805 508.367C316.805 513.817 312.387 518.235 306.936 518.235H248.33C242.88 518.235 238.462 513.817 238.462 508.367C238.462 502.917 242.881 498.499 248.332 498.499Z" fill="#35A967"/>
<path d="M146.918 224.357H231.95L291.797 393.678L206.925 385.251L161.728 298.432" fill="#123922"/>
<path d="M131.398 239.862C131.398 241.662 131.713 243.478 132.373 245.263L189.32 398.912C190.97 403.353 194.421 406.578 198.546 408.078C198.561 408.093 198.591 408.108 198.606 408.108C200.631 409.083 202.912 409.638 205.327 409.638H388.035C396.601 409.638 403.547 402.693 403.547 394.126C403.547 389.836 401.807 385.95 399.001 383.16C396.196 380.34 392.31 378.614 388.035 378.614H214.883L161.462 234.476C158.476 226.45 149.55 222.355 141.524 225.325C135.27 227.651 131.398 233.576 131.398 239.862Z" fill="#35A967"/>
<path d="M344.374 473.172L431.28 517.277C432.555 517.922 433.921 518.237 435.256 518.237C438.451 518.237 441.542 516.482 443.087 513.422C444.497 510.661 444.347 507.361 442.682 504.736L428.085 481.678L421.724 471.626L353 436.747L342.409 457.615L340.519 461.35C338.314 465.686 340.04 470.981 344.374 473.172Z" fill="#1B5233"/>
<path d="M375.518 392.784L374.318 399.265L364.866 449.986L409.722 472.414L428.189 481.64L455.568 389.034C462.619 365.151 444.721 341.208 419.818 341.208H312.78L314.055 392.784H375.518Z" fill="#123922"/>
<path d="M374.314 399.264L364.863 449.986L409.719 472.413L374.314 399.264Z" fill="#123922"/>
<path d="M423.367 467.604L372.806 441.175" stroke="#33A363" stroke-width="1.50019" stroke-miterlimit="10" stroke-linecap="round"/>
<path d="M312.777 341.208L314.053 392.784H371.18L346.202 341.208H312.777Z" fill="#123922"/>
<path d="M395.555 453.069L410.984 386.644C413.575 375.487 405.105 364.822 393.651 364.822H317.998" stroke="#33A363" stroke-width="1.50019" stroke-miterlimit="10" stroke-linecap="round"/>
<path d="M210.884 307.678V337.562C210.884 360.05 228.962 378.307 251.375 378.592C251.555 378.607 251.75 378.607 251.93 378.607H269.467L317.998 482.795H395.062L335.235 342.603L335.624 307.678H210.884Z" fill="#1B5433"/>
<path d="M251.376 349.993V378.591C251.382 378.597 251.385 378.6 251.391 378.606H269.469L255.705 349.034C254.678 346.832 251.376 347.563 251.376 349.993Z" fill="#1B5433"/>
<path d="M339.562 472.414L294.207 374.767C287.267 359.826 272.29 350.269 255.816 350.269H227.48" stroke="#33A363" stroke-width="1.50019" stroke-miterlimit="10" stroke-linecap="round"/>
<path d="M318.005 482.803V510.391C318.005 510.916 318.05 511.411 318.14 511.906C318.86 516.047 322.46 519.182 326.796 519.182H424.248C426.678 519.182 428.884 518.207 430.474 516.617C431.719 515.372 432.589 513.737 432.904 511.906C432.994 511.411 433.039 510.916 433.039 510.391C433.039 507.301 431.404 504.42 428.749 502.845L395.069 482.803H318.005Z" fill="#5AAC7D"/>
<path opacity="0.25" d="M423.75 508.368H326.971" stroke="white" stroke-width="1.50019" stroke-miterlimit="10" stroke-linecap="round"/>
<path d="M453.696 317.809C467.484 329.204 463.175 336.864 463.175 336.864H427.553L434.576 320.394L442.875 317.383" fill="#123922"/>
<path d="M367.926 211.926L387.844 287.255C387.844 287.255 447.415 301.298 457.045 305.64C461.928 307.842 471.503 324.024 469.397 328.909C467.291 333.792 460.3 329.676 460.3 329.676C460.3 329.676 455.129 336.464 449.193 331.299C442.872 334.943 436.744 337.624 433.871 326.804L354.585 311.172L320.432 226.739L367.926 211.926Z" fill="#FFBE9D"/>
<path d="M460.297 329.675C455.7 316.109 449.38 310.428 447.082 309.406" stroke="#EB996E" stroke-width="1.50019" stroke-miterlimit="10" stroke-linecap="round"/>
<path d="M449.195 331.297C447.982 323.004 439.555 313.429 434.576 311.896" stroke="#EB996E" stroke-width="1.50019" stroke-miterlimit="10" stroke-linecap="round"/>
<path d="M258.542 133.789L207.386 153.353C193.534 158.65 183.426 170.756 180.685 185.329L175.394 213.458L210.889 223.161V307.681H337.543V222.904L367.93 211.924L356.123 176.346C351.686 162.975 340.938 152.655 327.398 148.765L287.023 137.166L258.542 133.789Z" fill="#F8F8F8"/>
<path d="M303.984 273.849C260.233 278.829 251.371 248.57 251.371 248.57" stroke="#0A2214" stroke-width="1.50019" stroke-miterlimit="10" stroke-linecap="round" stroke-linejoin="round"/>
<path d="M277.658 285.468C282.382 291.469 299.108 294.277 297.447 299.385C295.788 304.492 281.104 302.705 274.721 298.109" fill="#EB996E"/>
<path d="M177.14 271.726C177.365 273.106 177.605 274.427 177.89 275.672C178.565 278.627 179.36 281.147 180.32 283.038C181.805 285.978 184.746 288.423 188.511 290.449C189.231 290.839 189.982 291.214 190.762 291.574C206.934 299.075 234.417 300.365 234.417 300.365C234.417 300.365 236.532 308.316 238.918 317.317C241.318 326.318 244.573 332.259 251.849 329.859C258.96 327.533 250.514 300.83 250.139 299.645C250.484 300.335 255.315 310.056 258.36 315.592C261.51 321.337 265.636 330.729 272.237 326.228C278.508 321.968 271.367 304.07 270.587 302.165C271.577 303.98 280.683 320.842 284.148 323.648C287.824 326.603 292.444 321.728 292.159 318.847C291.874 315.982 284.013 286.203 276.932 283.143C269.852 280.067 217.465 260.445 217.465 260.445L223.211 225.205L175.4 213.459C175.4 213.459 173.541 250.229 177.14 271.726Z" fill="#FFBE9D"/>
<path d="M217.453 260.446L197.859 253.293" stroke="#684B52" stroke-width="1.50019" stroke-miterlimit="10" stroke-linecap="round"/>
<path d="M273.547 311.169C267.96 294.277 265.407 290.45 265.407 290.45" stroke="#EB996E" stroke-width="1.50019" stroke-miterlimit="10" stroke-linecap="round"/>
<path d="M254.508 319.434C254.04 303.853 248.294 293.971 248.294 293.971" stroke="#EB996E" stroke-width="1.50019" stroke-miterlimit="10" stroke-linecap="round"/>
<path d="M274.055 285.468C270.99 283.616 270.129 287.254 270.129 287.254" stroke="#EB996E" stroke-width="1.50019" stroke-miterlimit="10" stroke-linecap="round"/>
<path d="M258.5 289.535C255.707 287.295 254.373 290.789 254.373 290.789" stroke="#EB996E" stroke-width="1.50019" stroke-miterlimit="10" stroke-linecap="round"/>
<path d="M242.25 294.72C239.457 292.48 238.123 295.974 238.123 295.974" stroke="#EB996E" stroke-width="1.50019" stroke-miterlimit="10" stroke-linecap="round"/>
<path d="M223.203 225.207L227.484 195.584" stroke="#0A2214" stroke-width="1.50019" stroke-miterlimit="10" stroke-linecap="round" stroke-linejoin="round"/>
<path d="M337.539 222.907V190.732" stroke="#0A2214" stroke-width="1.50019" stroke-miterlimit="10" stroke-linecap="round" stroke-linejoin="round"/>
<path d="M294.302 139.26C294.302 139.26 296.331 156.372 277.683 157.793C259.036 159.212 245.465 144.611 245.732 138.689" stroke="#123922" stroke-width="1.50019" stroke-miterlimit="10" stroke-linecap="round" stroke-linejoin="round"/>
<path d="M235.336 89.2823C240.827 103.324 251.553 121.191 262.025 117.111L301.63 84.4816C315.821 79.291 315.836 70.1548 313.226 67.3195L313.091 67.1845C310.466 64.6192 304.435 66.9745 303.94 67.1695C304.54 66.6444 313.901 58.4384 309.176 52.6327C304.915 47.397 298.434 51.5975 296.859 52.7527C298.044 51.7776 301.675 48.2971 299.244 43.8266C296.379 38.5309 284.182 46.2569 272.946 48.0421C261.71 49.8273 244.923 51.3575 241.847 57.4933C238.787 63.614 241.847 70.0048 241.847 70.0048C241.847 70.0048 238.922 71.28 236.627 74.2504C234.271 77.3107 232.546 82.1714 235.336 89.2823Z" fill="#123922"/>
<path d="M235.336 89.2824C240.827 103.324 251.553 121.191 262.025 117.111L301.63 84.4818C315.821 79.2911 315.836 70.155 313.226 67.3196C301.27 77.4909 262.805 80.0262 255.319 78.556C247.533 77.0258 250.938 64.7993 250.938 64.7993L246.933 66.5545C246.933 66.5545 240.557 80.4463 236.627 74.2505C234.271 77.3109 232.546 82.1715 235.336 89.2824Z" fill="#0A2214"/>
<path d="M254.528 138.728C255.864 143.034 267.73 150.025 276.446 149.154C285.162 148.299 286.602 143.994 286.602 143.994L287.022 137.168L287.562 128.287L264.4 118.176L256.629 114.785L254.528 138.728Z" fill="#FFBE9D"/>
<path d="M257.484 117.366C257.589 120.217 268.78 136.449 287.022 137.169L287.562 128.288L264.4 118.176C260.214 117.096 257.469 116.646 257.484 117.366Z" fill="#EB996E"/>
<path d="M302.531 77.6045C305.212 88.4253 303.16 93.9085 303.83 100.419C304.501 106.93 303.734 127.997 285.636 130.87C267.538 133.743 252.76 115.325 251.163 107.881C247.237 112.382 241.253 104.77 242.018 100.844C242.785 96.9179 245.035 96.2953 247.38 97.3485C249.726 98.4016 250.635 102.902 251.354 102.662C252.072 102.422 253.694 84.7874 253.694 84.7874C253.694 84.7874 285.678 86.1256 302.531 77.6045Z" fill="#FFBE9D"/>
<path d="M286.144 98.3438L288.416 105.258C288.856 106.596 288.149 108.041 286.822 108.515L284.738 109.259" stroke="#123922" stroke-width="1.12514" stroke-miterlimit="10" stroke-linecap="round" stroke-linejoin="round"/>
<path d="M274.197 114.345C273.897 117.557 276.258 120.404 279.47 120.703C282.682 121.003 285.53 118.641 285.828 115.429" fill="white"/>
<path d="M271.059 97.7058C271.059 98.7634 271.917 99.6215 272.975 99.6215C274.033 99.6215 274.891 98.7634 274.891 97.7058C274.891 96.6481 274.033 95.79 272.975 95.79C271.916 95.79 271.059 96.6481 271.059 97.7058Z" fill="#123922"/>
<path d="M296.084 99.6215C295.026 99.6215 294.169 98.7638 294.169 97.7058C294.169 96.6477 295.026 95.79 296.084 95.79C297.142 95.79 298 96.6477 298 97.7058C298 98.7638 297.142 99.6215 296.084 99.6215Z" fill="#123922"/>
<path d="M277.039 91.0224C277.039 91.0224 272.981 89.0092 269.003 91.567" stroke="#123922" stroke-width="1.30801" stroke-miterlimit="10" stroke-linecap="round" stroke-linejoin="round"/>
<path d="M292.065 91.0224C292.065 91.0224 296.123 89.0092 300.102 91.567" stroke="#123922" stroke-width="1.30801" stroke-miterlimit="10" stroke-linecap="round" stroke-linejoin="round"/>
<path d="M116.154 346.435C116.154 349.076 117.22 351.476 118.96 353.201C120.685 354.942 123.085 356.007 125.726 356.007H240.25C237.61 356.007 235.209 354.942 233.484 353.201C231.744 351.476 230.679 349.076 230.679 346.435C230.679 341.155 234.954 336.864 240.25 336.864H125.726C120.429 336.864 116.154 341.155 116.154 346.435Z" fill="#123922"/>
<path d="M230.681 346.435C230.681 349.076 231.747 351.476 233.487 353.201C235.212 354.942 237.612 356.007 240.253 356.007H496.875C502.17 356.007 506.461 351.731 506.461 346.435C506.461 343.795 505.396 341.395 503.656 339.67C501.915 337.944 499.515 336.864 496.875 336.864H240.253C234.957 336.864 230.681 341.155 230.681 346.435Z" fill="#35A967"/>
<path d="M523.594 518.799C526.663 518.799 528.79 515.737 527.719 512.861L469.311 356.006H459.915L519.467 515.933C520.11 517.656 521.755 518.799 523.594 518.799Z" fill="#123922"/>
<path d="M205.986 518.799C202.916 518.799 200.789 515.737 201.86 512.861L260.268 356.006H269.664L210.113 515.933C209.471 517.656 207.825 518.799 205.986 518.799Z" fill="#123922"/>
<path d="M110.854 518.799C107.785 518.799 105.658 515.737 106.729 512.861L165.136 356.006H174.531L114.98 515.933C114.338 517.656 112.692 518.799 110.854 518.799Z" fill="#123922"/>
<path d="M224.238 327.542H332.378C334.952 327.542 337.039 329.628 337.039 332.203C337.039 334.777 334.952 336.864 332.378 336.864H224.238C221.664 336.864 219.577 334.777 219.577 332.203C219.577 329.628 221.664 327.542 224.238 327.542Z" fill="#2F945A"/>
<path d="M307.521 336.863H437.304C439.472 336.863 441.699 335.105 442.277 332.937L464.244 250.585C464.823 248.417 463.535 246.659 461.365 246.659H331.583C329.415 246.659 327.187 248.417 326.609 250.585L304.641 332.937C304.063 335.105 305.352 336.863 307.521 336.863Z" fill="#123922"/>
<path d="M290.042 333.958C289.072 333.958 288.286 333.172 288.286 332.203C288.286 331.233 289.072 330.447 290.042 330.447C291.011 330.447 291.797 331.233 291.797 332.203C291.797 333.172 291.011 333.958 290.042 333.958Z" fill="#123922"/>
<path d="M290.043 332.203C286.086 348.864 302.684 402.042 345.838 399.264C388.993 396.486 374.438 376.058 405.846 372.228C437.254 368.398 454.371 354.525 450.789 334.495" stroke="white" stroke-width="1.50019" stroke-miterlimit="10" stroke-linecap="round" stroke-linejoin="round"/>
<path d="M284.589 333.958C283.619 333.958 282.833 333.172 282.833 332.203C282.833 331.233 283.619 330.447 284.589 330.447C285.558 330.447 286.344 331.233 286.344 332.203C286.344 333.172 285.558 333.958 284.589 333.958Z" fill="#123922"/>
<path d="M279.128 333.958C278.158 333.958 277.372 333.172 277.372 332.203C277.372 331.233 278.158 330.447 279.128 330.447C280.097 330.447 280.883 331.233 280.883 332.203C280.883 333.172 280.097 333.958 279.128 333.958Z" fill="#123922"/>
<path d="M257.774 333.319H272.648C273.265 333.319 273.766 332.82 273.766 332.202C273.766 331.585 273.266 331.084 272.648 331.084H257.774C257.157 331.084 256.656 331.584 256.656 332.202C256.657 332.82 257.157 333.319 257.774 333.319Z" fill="#123922"/>
<path d="M378.659 298.761C375.454 295.239 376.307 289.244 380.563 285.372C384.82 281.5 390.868 281.217 394.073 284.74C397.277 288.262 396.425 294.257 392.168 298.129C387.912 302.001 381.864 302.284 378.659 298.761Z" fill="white"/>
<path d="M124.455 386.191C124.455 386.191 126.87 417.71 136.232 450.144C138.992 459.745 142.367 469.421 146.463 478.392L171.621 464.036C177.022 447.924 179.407 432.382 180.247 419.075C181.747 395.267 178.297 378.63 178.297 378.63C178.297 378.63 170.976 390.961 165.41 411.139C161.3 426.066 158.149 445.283 159.619 466.991C158.524 456.07 152.689 440.948 146.073 426.771C136.142 405.453 124.455 386.191 124.455 386.191Z" fill="#35A967"/>
<path d="M136.227 450.144C138.987 459.745 142.362 469.421 146.458 478.392L171.616 464.035C177.017 447.923 179.402 432.381 180.242 419.075C175.682 419.99 169.486 419.33 165.405 411.139C161.295 426.066 158.144 445.283 159.615 466.991C158.519 456.069 152.684 440.947 146.068 426.771C145.603 435.667 143.593 447.593 136.227 450.144Z" fill="#123922"/>
<path d="M148.259 445.283C148.184 454.629 148.604 464.156 149.819 473.262L178.068 466.871C181.698 461.785 184.909 456.67 187.759 451.599C206.557 418.16 209.422 387.166 209.422 387.166C209.422 387.166 185.869 408.589 171.812 446.093C169.472 452.349 167.387 459.07 165.721 466.196C166.817 460.705 167.057 453.804 166.726 446.303C165.466 417.035 155.715 378.63 155.715 378.63C155.715 378.63 148.544 410.749 148.259 445.283Z" fill="#35A967"/>
<path d="M148.266 445.283C148.191 454.629 148.611 464.156 149.826 473.262L178.074 466.871C181.705 461.785 184.915 456.67 187.766 451.599C177.579 453.189 173.424 448.914 171.819 446.093C169.478 452.349 167.393 459.07 165.728 466.196C166.823 460.705 167.063 453.804 166.733 446.303C162.052 448.569 154.356 450.804 148.266 445.283Z" fill="#123922"/>
<path d="M124.831 460.075L127.636 471.297L132.707 491.654L139.473 518.808H182.513L191.589 482.428L195.13 468.191L197.156 460.075H124.831Z" fill="#187A42"/>
<path d="M127.632 471.296L132.702 491.654L191.585 482.428L195.125 468.191L171.152 467.651L127.632 471.296Z" fill="#123922"/>
<path d="M121.003 460.069H200.289V475.223H121.003V460.069Z" fill="#187A42"/>
<path d="M458.037 514.001C444.961 517.098 430.458 521.39 424.256 534.573C418.397 547.025 424.495 559.119 436.265 565.008C444.229 568.993 474.578 575.707 461.976 590.436C453.833 599.952 439.695 597.009 430.397 591.39C425.553 588.462 421.138 596.045 425.969 598.964C436.542 605.353 448.712 607.695 460.212 602.414C472.694 596.682 477.606 581.986 468.083 571.236C463.2 565.724 456.304 563.134 449.525 560.801C443.115 558.595 434.72 556.13 431.608 549.371C428.679 543.01 432.523 535.74 437.403 531.553C443.717 526.136 452.499 524.323 460.369 522.46C465.86 521.159 463.535 512.698 458.037 514.001Z" fill="#D1E4D9"/>
<path d="M578.219 530.043C593.085 530.909 594.152 511.549 594.152 511.549C594.152 511.549 583.982 506.388 574.453 512.789L578.219 530.043Z" fill="#D1E4D9"/>
<path d="M579.058 524.179C584.978 524.084 587.89 516.643 587.89 516.643C587.89 516.643 583.527 513.975 578.031 516.706L579.058 524.179Z" fill="#646464"/>
<path d="M536.242 512.124C525.934 501.378 539.97 488 539.97 488C539.97 488 550.496 492.386 551.812 503.79L536.242 512.124Z" fill="#D1E4D9"/>
<path d="M539.903 507.628C536.306 503.273 539.903 496.553 539.903 496.553C539.903 496.553 544.542 498.067 545.961 503.747L539.903 507.628Z" fill="#646464"/>
<path d="M557.515 559.661C557.011 560.834 555.911 561.631 554.646 561.823C544.594 563.372 542.138 560.595 542.138 560.595C542.138 560.595 534.138 565.049 515.334 559.752C514.866 560.623 513.922 561.328 512.841 561.677C509.964 562.621 498.793 561.649 491.517 560.889C487.118 560.421 474.234 561.457 474.234 561.457C462.495 561.457 449.162 558.323 444.002 546.547C437.469 531.647 444.342 513.787 455.421 503.12C467.242 491.72 483.013 490.694 497.354 498.162C532.14 516.288 534.77 510.378 543.696 502.863L549.716 548.545C551.686 549.232 553.418 550.176 554.665 551.487C555.517 552.385 556.167 553.219 556.644 553.997C558.202 556.508 558.055 558.396 557.515 559.661Z" fill="#D1E4D9"/>
<path opacity="0.3" d="M533.579 512.124C519.631 520.32 519.173 546.284 546.1 548.819L549.185 537.044L533.579 512.124Z" fill="#646464"/>
<path d="M581.882 531.427C579.05 541.379 574.377 547.079 569.584 550.25C565.121 553.228 560.576 554.007 557.295 554.007C554.345 554.007 551.412 553.539 548.608 552.65C537.941 549.297 529.227 539.949 529.227 527.67C529.227 512.165 540.489 500.279 554.665 500.279C570.894 500.279 586.922 513.677 581.882 531.427Z" fill="#D1E4D9"/>
<path opacity="0.3" d="M569.586 550.249C565.123 553.228 560.578 554.006 557.297 554.006C557.077 554.006 556.867 554.006 556.647 553.997C556.17 553.218 555.519 552.384 554.667 551.486C553.421 550.176 551.689 549.232 549.719 548.545C554.072 547.656 556.592 548.82 556.592 548.82C556.592 548.82 564.61 544.833 569.568 550.231C569.577 550.24 569.577 550.24 569.586 550.249Z" fill="#646464"/>
<path d="M554.449 554.688C553.038 556.72 553.29 559.548 555.255 561.05C555.711 561.399 556.194 561.632 556.671 561.632H570.652C571.32 561.632 571.677 560.917 571.857 559.987C572.401 557.19 571.228 554.349 569.046 552.516C564.536 548.724 558.527 548.816 554.449 554.688Z" fill="#D1E4D9"/>
<path d="M529.219 547.175C532.051 547.051 534.876 547.165 537.698 547.421C540.52 547.671 543.326 548.138 546.097 548.819C547.481 549.164 548.846 549.606 550.18 550.147C551.508 550.694 552.827 551.313 554.026 552.158C555.218 552.998 556.315 554.055 557.053 555.368C557.776 556.688 558.018 558.254 557.765 559.688L557.254 559.633C557.305 558.272 557 556.931 556.26 555.835C555.553 554.724 554.526 553.826 553.384 553.112C551.091 551.672 548.45 550.765 545.771 550.082C543.096 549.352 540.334 548.922 537.571 548.525C534.804 548.153 532.01 547.881 529.219 547.689V547.175H529.219Z" fill="#646464"/>
<path d="M482.56 519.574C485.357 520.027 488.141 521.01 490.47 522.778C491.6 523.685 492.642 524.763 493.362 526.049C494.1 527.316 494.629 528.705 494.921 530.136C495.197 531.568 495.304 533.024 495.253 534.469C495.184 535.913 494.99 537.341 494.716 538.748C494.136 541.557 493.238 544.279 492.124 546.9C491.573 548.215 490.951 549.496 490.271 550.754L490.011 551.225L489.874 551.464L489.865 551.479C489.926 551.686 489.278 549.744 489.561 550.569L489.591 550.581L489.651 550.605L489.772 550.653L490.741 551.033C491.388 551.282 492.044 551.509 492.702 551.729C495.34 552.601 498.058 553.217 500.806 553.65C503.542 554.039 506.415 554.346 509.167 555.039C510.548 555.388 511.921 555.8 513.233 556.422C513.889 556.724 514.528 557.108 515.086 557.634C515.35 557.906 515.618 558.228 515.718 558.647C515.866 559.058 515.735 559.511 515.562 559.869L515.109 559.626C515.385 559.075 515.131 558.512 514.642 558.096C514.158 557.681 513.563 557.346 512.929 557.091C511.672 556.56 510.318 556.22 508.961 555.935C506.23 555.328 503.483 555.113 500.643 554.788C497.82 554.425 495.034 553.78 492.316 552.922C491.639 552.701 490.963 552.475 490.295 552.225L489.296 551.844L489.171 551.795L489.109 551.771L489.078 551.759C489.353 552.578 488.683 550.637 488.757 550.831L488.765 550.818L488.888 550.597L489.134 550.143C489.781 548.92 490.368 547.658 490.925 546.387C492.033 543.84 492.927 541.199 493.507 538.5C493.782 537.149 493.977 535.784 494.054 534.417C494.103 533.05 494.059 531.684 493.83 530.347C493.357 527.685 492.028 525.184 489.91 523.471C487.816 521.728 485.172 520.689 482.461 520.079L482.56 519.574Z" fill="#646464"/>
<path d="M562.175 523.344C563.155 525.146 564.482 526.76 566.253 527.312C567.131 527.591 568.086 527.661 569.072 527.551C569.563 527.506 570.056 527.371 570.564 527.298C571.058 527.153 571.556 527.006 572.081 526.891L572.333 527.401C571.875 527.704 571.391 527.978 570.902 528.25C570.376 528.44 569.859 528.687 569.297 528.807C568.181 529.092 566.947 529.08 565.784 528.725C564.619 528.359 563.607 527.581 562.918 526.639C562.226 525.692 561.772 524.633 561.625 523.491L562.175 523.344Z" fill="#646464"/>
<path d="M546.224 516.457C547.061 518.329 548.259 520.042 549.982 520.73C550.836 521.075 551.782 521.22 552.774 521.187C553.267 521.179 553.769 521.083 554.281 521.049C554.785 520.943 555.293 520.836 555.826 520.761L556.037 521.29C555.557 521.556 555.053 521.791 554.544 522.025C554.005 522.174 553.471 522.38 552.9 522.456C551.766 522.654 550.536 522.546 549.405 522.102C548.271 521.646 547.323 520.792 546.709 519.8C546.093 518.802 545.723 517.711 545.664 516.561L546.224 516.457Z" fill="#646464"/>
<path d="M466.56 457.058L473.113 459.181C473.677 459.364 474.067 459.865 474.105 460.458C474.144 461.05 473.822 461.598 473.286 461.853L466.129 465.246L466.142 465.343L476.152 467.338C476.527 467.413 476.772 467.778 476.697 468.155C476.623 468.53 476.257 468.774 475.881 468.7L465.87 466.705C465.251 466.58 464.801 466.098 464.723 465.47C464.645 464.843 464.963 464.262 465.534 463.991L472.69 460.598L472.684 460.502L466.131 458.378C465.766 458.26 465.567 457.869 465.685 457.504C465.804 457.139 466.195 456.939 466.56 457.058Z" fill="#3C1C16"/>
<path d="M449.642 448.03L455.461 449.916C455.963 450.079 456.309 450.524 456.343 451.05C456.377 451.576 456.091 452.062 455.615 452.289L449.259 455.302L449.27 455.389L458.161 457.16C458.493 457.227 458.711 457.551 458.645 457.885C458.579 458.219 458.254 458.436 457.92 458.369L449.03 456.598C448.48 456.487 448.079 456.059 448.01 455.501C447.941 454.944 448.224 454.429 448.731 454.188L455.086 451.175L455.081 451.089L449.262 449.203C448.938 449.098 448.76 448.751 448.865 448.427C448.971 448.103 449.318 447.925 449.642 448.03Z" fill="#3C1C16"/>
<path d="M484.763 470.887L489.377 472.383C489.774 472.512 490.049 472.864 490.076 473.282C490.103 473.698 489.877 474.084 489.499 474.264L484.46 476.653L484.468 476.722L491.517 478.126C491.781 478.179 491.954 478.436 491.901 478.701C491.848 478.965 491.591 479.138 491.326 479.085L484.277 477.68C483.841 477.592 483.524 477.253 483.469 476.811C483.414 476.369 483.639 475.96 484.041 475.77L489.08 473.38L489.075 473.313L484.462 471.817C484.205 471.734 484.064 471.459 484.147 471.202C484.23 470.945 484.506 470.804 484.763 470.887Z" fill="#3C1C16"/>
</svg>
