<svg width="48" height="48" viewBox="0 0 48 48" fill="none" xmlns="http://www.w3.org/2000/svg">
<path d="M25 32.4615C25.4577 32.4615 25.8413 32.3067 26.151 31.997C26.4607 31.6873 26.6155 31.3037 26.6155 30.846C26.6155 30.3883 26.4607 30.0047 26.151 29.695C25.8413 29.3857 25.4577 29.231 25 29.231C24.5423 29.231 24.1587 29.3857 23.849 29.695C23.5393 30.0047 23.3845 30.3883 23.3845 30.846C23.3845 31.3037 23.5393 31.6873 23.849 31.997C24.1587 32.3067 24.5423 32.4615 25 32.4615ZM23.5 25.154H26.5V13.154H23.5V25.154ZM25.0035 42C22.3755 42 19.9053 41.5013 17.593 40.504C15.2807 39.5067 13.2693 38.1532 11.559 36.4435C9.84867 34.7338 8.4945 32.7233 7.4965 30.412C6.49883 28.1007 6 25.6312 6 23.0035C6 20.3755 6.49867 17.9053 7.496 15.593C8.49333 13.2807 9.84683 11.2693 11.5565 9.559C13.2662 7.84867 15.2767 6.4945 17.588 5.4965C19.8993 4.49883 22.3688 4 24.9965 4C27.6245 4 30.0947 4.49867 32.407 5.496C34.7193 6.49333 36.7307 7.84683 38.441 9.5565C40.1513 11.2662 41.5055 13.2767 42.5035 15.588C43.5012 17.8993 44 20.3688 44 22.9965C44 25.6245 43.5013 28.0947 42.504 30.407C41.5067 32.7193 40.1532 34.7307 38.4435 36.441C36.7338 38.1513 34.7233 39.5055 32.412 40.5035C30.1007 41.5012 27.6312 42 25.0035 42ZM25 39C29.4667 39 33.25 37.45 36.35 34.35C39.45 31.25 41 27.4667 41 23C41 18.5333 39.45 14.75 36.35 11.65C33.25 8.55 29.4667 7 25 7C20.5333 7 16.75 8.55 13.65 11.65C10.55 14.75 9 18.5333 9 23C9 27.4667 10.55 31.25 13.65 34.35C16.75 37.45 20.5333 39 25 39Z" fill="#F24822"/>
</svg>
