<svg width="61" height="60" viewBox="0 0 61 60" fill="none" xmlns="http://www.w3.org/2000/svg">
<rect x="0.800781" y="0.46875" width="59.0625" height="59.0625" rx="29.5312" fill="white"/>
<rect x="0.800781" y="0.46875" width="59.0625" height="59.0625" rx="29.5312" stroke="#BFDECC" stroke-width="0.9375"/>
<path d="M20.5484 46.328C19.6912 46.328 18.9591 46.0244 18.352 45.4173C17.745 44.8103 17.4414 44.0781 17.4414 43.221V27.0913C17.4414 26.2341 17.745 25.502 18.352 24.8949C18.9591 24.2878 19.6912 23.9843 20.5484 23.9843H22.5977V20.5468C22.5977 18.4006 23.3502 16.575 24.8551 15.07C26.3602 13.565 28.1858 12.8125 30.332 12.8125C32.4782 12.8125 34.3038 13.565 35.8088 15.07C37.3138 16.575 38.0663 18.4006 38.0663 20.5468V23.9843H40.1156C40.9728 23.9843 41.7049 24.2878 42.3119 24.8949C42.919 25.502 43.2226 26.2341 43.2226 27.0913V43.221C43.2226 44.0781 42.919 44.8103 42.3119 45.4173C41.7049 46.0244 40.9728 46.328 40.1156 46.328H20.5484ZM20.5484 43.7499H40.1156C40.2698 43.7499 40.3966 43.7003 40.4957 43.6011C40.5949 43.5019 40.6445 43.3752 40.6445 43.221V27.0913C40.6445 26.937 40.5949 26.8103 40.4957 26.7111C40.3966 26.612 40.2698 26.5624 40.1156 26.5624H20.5484C20.3941 26.5624 20.2674 26.612 20.1682 26.7111C20.0691 26.8103 20.0195 26.937 20.0195 27.0913V43.221C20.0195 43.3752 20.0691 43.5019 20.1682 43.6011C20.2674 43.7003 20.3941 43.7499 20.5484 43.7499ZM30.332 38.1639C31.1671 38.1639 31.8772 37.8714 32.4622 37.2863C33.0472 36.7013 33.3398 35.9913 33.3398 35.1561C33.3398 34.321 33.0472 33.6109 32.4622 33.0259C31.8772 32.4409 31.1671 32.1484 30.332 32.1484C29.4968 32.1484 28.7868 32.4409 28.2018 33.0259C27.6167 33.6109 27.3242 34.321 27.3242 35.1561C27.3242 35.9913 27.6167 36.7013 28.2018 37.2863C28.7868 37.8714 29.4968 38.1639 30.332 38.1639ZM25.1757 23.9843H35.4882V20.5468C35.4882 19.1145 34.9869 17.897 33.9843 16.8944C32.9817 15.8918 31.7643 15.3905 30.332 15.3905C28.8997 15.3905 27.6822 15.8918 26.6796 16.8944C25.677 17.897 25.1757 19.1145 25.1757 20.5468V23.9843Z" fill="#2F945A"/>
</svg>
