<svg width="24" height="25" viewBox="0 0 24 25" fill="none" xmlns="http://www.w3.org/2000/svg">
<path d="M4 21.5V20H19V21.5H4ZM7.5673 17.6153C6.58268 17.6153 5.74198 17.2717 5.0452 16.5846C4.3484 15.8974 4 15.0679 4 14.0961V4.5H19.1538C19.6615 4.5 20.0961 4.67661 20.4576 5.02982C20.8192 5.38302 21 5.81218 21 6.3173V8.93265C21 9.43778 20.8192 9.86695 20.4576 10.2202C20.0961 10.5734 19.6615 10.75 19.1538 10.75H17.1538V14.0961C17.1538 15.0679 16.8054 15.8974 16.1086 16.5846C15.4118 17.2717 14.5711 17.6153 13.5865 17.6153H7.5673ZM7.5673 16.1154H13.5865C14.155 16.1154 14.6417 15.9173 15.0465 15.5211C15.4514 15.1249 15.6538 14.6486 15.6538 14.0923V5.99998H5.49997V14.0959C5.49997 14.6525 5.7024 15.1282 6.10725 15.5231C6.5121 15.9179 6.99878 16.1154 7.5673 16.1154ZM17.1538 9.25H19.1538C19.25 9.25 19.3317 9.21955 19.399 9.15865C19.4663 9.09775 19.5 9.02242 19.5 8.93265V6.3173C19.5 6.22755 19.4663 6.15223 19.399 6.09133C19.3317 6.03043 19.25 5.99998 19.1538 5.99998H17.1538V9.25ZM7.5673 16.1154H5.49997H15.6538H7.5673Z" fill="#2F945A"/>
</svg>
