<svg width="24" height="24" viewBox="0 0 24 24" fill="none" xmlns="http://www.w3.org/2000/svg">
<path d="M3 7.0385V3H7.0385V4H4V7.0385H3ZM3 21V16.9615H4V20H7.0385V21H3ZM16.9615 21V20H20V16.9615H21V21H16.9615ZM20 7.0385V4H16.9615V3H21V7.0385H20ZM16.9423 16.9423H18.1538V18.1538H16.9423V16.9423ZM16.9423 14.5192H18.1538V15.7308H16.9423V14.5192ZM15.7308 15.7308H16.9423V16.9423H15.7308V15.7308ZM14.5193 16.9423H15.7308V18.1538H14.5193V16.9423ZM13.3077 15.7308H14.5193V16.9423H13.3077V15.7308ZM15.7308 13.3077H16.9423V14.5192H15.7308V13.3077ZM14.5193 14.5192H15.7308V15.7308H14.5193V14.5192ZM13.3077 13.3077H14.5193V14.5192H13.3077V13.3077ZM18.1538 5.84625V10.6923H13.3077V5.84625H18.1538ZM10.6923 13.3077V18.1538H5.84625V13.3077H10.6923ZM10.6923 5.84625V10.6923H5.84625V5.84625H10.6923ZM9.80775 17.2693V14.1923H6.73075V17.2693H9.80775ZM9.80775 9.80775V6.73075H6.73075V9.80775H9.80775ZM17.2693 9.80775V6.73075H14.1923V9.80775H17.2693Z" fill="#2F945A"/>
</svg>
