<svg width="235" height="165" viewBox="0 0 235 165" fill="none" xmlns="http://www.w3.org/2000/svg">
<path d="M212.104 151.988L136.372 88.7204L104.128 116.876L40.5242 88.0884L-32.8438 145.028" stroke="#263238" stroke-width="0.4" stroke-linecap="round" stroke-linejoin="round"/>
<path d="M153.132 102.684L146.7 100.512L143.484 103.952L137.388 99.4241L134.848 101.236L131.296 97.4321L122.156 106.304L120.632 102.864" stroke="#263238" stroke-width="0.4" stroke-linecap="round" stroke-linejoin="round"/>
<path d="M67.1401 100.329L56.8161 98.5206L55.2921 103.225L50.0441 100.149L46.6601 104.313L35.8241 97.9766L30.4081 101.237L27.7001 98.5206" stroke="#263238" stroke-width="0.4" stroke-linecap="round" stroke-linejoin="round"/>
<path d="M23.9198 164.4H-3.75623C-3.22423 161.016 -1.05221 161.6 -0.76421 156.364C-0.616209 153.724 -3.06022 150.456 -2.85222 146.984C-2.67622 144.124 0.143778 141.192 0.347778 137.924C0.547777 134.972 -1.86022 131.696 -1.62422 128.516C-1.40422 125.508 1.45178 122.624 1.70378 119.5C1.95178 116.452 -0.404222 113.14 -0.128223 110.06C0.147778 106.98 3.07177 104.144 3.36777 101.108C3.68377 97.9841 1.40377 94.6201 1.76777 91.6281C2.13577 88.4561 5.13179 85.7161 5.53579 82.7921C5.98779 79.5361 3.86777 76.06 4.36377 73.248C4.97177 69.804 8.17578 67.312 8.85178 64.772C10.1078 60.04 9.95179 55.476 11.4358 55.172C13.0358 54.856 13.3798 59.3281 14.5798 64.3281C15.1838 66.8361 18.3198 69.3801 18.8318 72.8281C19.2318 75.6281 17.0358 79.0081 17.3998 82.2521C17.7238 85.1561 20.6398 87.9481 20.9238 91.104C21.1918 94.0721 18.8238 97.3441 19.0558 100.448C19.2838 103.464 22.1158 106.344 22.3118 109.408C22.5078 112.472 20.0638 115.68 20.2318 118.708C20.4038 121.808 23.1838 124.736 23.3238 127.72C23.4758 130.876 20.9838 134.06 21.1078 136.988C21.2398 140.232 23.9838 143.204 24.0838 146.04C24.2078 149.48 21.6838 152.66 21.7558 155.28C21.9278 160.968 24.5318 159.788 24.6238 164.368L23.9198 164.4Z" fill="white"/>
<path opacity="0.3" d="M23.9198 164.4H-3.75623C-3.22423 161.016 -1.05221 161.6 -0.76421 156.364C-0.616209 153.724 -3.06022 150.456 -2.85222 146.984C-2.67622 144.124 0.143778 141.192 0.347778 137.924C0.547777 134.972 -1.86022 131.696 -1.62422 128.516C-1.40422 125.508 1.45178 122.624 1.70378 119.5C1.95178 116.452 -0.404222 113.14 -0.128223 110.06C0.147778 106.98 3.07177 104.144 3.36777 101.108C3.68377 97.9841 1.40377 94.6201 1.76777 91.6281C2.13577 88.4561 5.13179 85.7161 5.53579 82.7921C5.98779 79.5361 3.86777 76.06 4.36377 73.248C4.97177 69.804 8.17578 67.312 8.85178 64.772C10.1078 60.04 9.95179 55.476 11.4358 55.172C13.0358 54.856 13.3798 59.3281 14.5798 64.3281C15.1838 66.8361 18.3198 69.3801 18.8318 72.8281C19.2318 75.6281 17.0358 79.0081 17.3998 82.2521C17.7238 85.1561 20.6398 87.9481 20.9238 91.104C21.1918 94.0721 18.8238 97.3441 19.0558 100.448C19.2838 103.464 22.1158 106.344 22.3118 109.408C22.5078 112.472 20.0638 115.68 20.2318 118.708C20.4038 121.808 23.1838 124.736 23.3238 127.72C23.4758 130.876 20.9838 134.06 21.1078 136.988C21.2398 140.232 23.9838 143.204 24.0838 146.04C24.2078 149.48 21.6838 152.66 21.7558 155.28C21.9278 160.968 24.5318 159.788 24.6238 164.368L23.9198 164.4Z" fill="white"/>
<path d="M12.0398 64.2681V163.116" stroke="#263238" stroke-width="0.4" stroke-linecap="round" stroke-linejoin="round"/>
<path d="M7.71609 74.6319L12.2241 78.5239L15.9121 73.6079" stroke="#263238" stroke-width="0.4" stroke-linecap="round" stroke-linejoin="round"/>
<path d="M7.71609 91.836L12.2241 95.728L15.9121 90.812" stroke="#263238" stroke-width="0.4" stroke-linecap="round" stroke-linejoin="round"/>
<path d="M7.71609 108.016L12.2241 111.908L15.9121 106.992" stroke="#263238" stroke-width="0.4" stroke-linecap="round" stroke-linejoin="round"/>
<path d="M7.71609 127.272L12.2241 131.164L15.9121 126.248" stroke="#263238" stroke-width="0.4" stroke-linecap="round" stroke-linejoin="round"/>
<path d="M7.71609 146.728L12.2241 150.62L15.9121 145.704" stroke="#263238" stroke-width="0.4" stroke-linecap="round" stroke-linejoin="round"/>
<path d="M206.896 164.4H186.764C187.164 161.94 188.732 162.372 188.944 158.556C189.048 156.636 187.272 154.26 187.424 151.732C187.552 149.656 189.6 147.524 189.76 145.144C189.904 143 188.16 140.616 188.324 138.304C188.484 136.116 190.564 134.02 190.748 131.744C190.924 129.528 189.212 127.12 189.416 124.88C189.62 122.64 191.732 120.58 191.956 118.368C192.18 116.156 190.528 113.652 190.78 111.476C191.052 109.168 193.228 107.176 193.524 105.048C193.852 102.68 192.324 100.152 192.672 98.1082C193.112 95.6042 195.444 93.7922 195.936 91.9442C196.848 88.5002 196.736 85.1842 197.812 84.9682C198.964 84.7362 199.228 87.9882 200.1 91.6242C200.54 93.4522 202.82 95.3002 203.196 97.8082C203.496 99.8362 201.888 102.304 202.152 104.664C202.388 106.772 204.508 108.804 204.716 111.1C204.912 113.256 203.188 115.64 203.356 117.9C203.52 120.092 205.58 122.188 205.724 124.416C205.868 126.644 204.088 128.98 204.212 131.18C204.336 133.38 206.356 135.58 206.46 137.736C206.572 140.028 204.76 142.344 204.86 144.472C204.956 146.832 206.952 148.996 207.024 151.056C207.116 153.56 205.276 155.856 205.332 157.776C205.456 161.912 207.332 161.056 207.416 164.384L206.896 164.4Z" fill="white"/>
<path opacity="0.3" d="M206.896 164.4H186.764C187.164 161.94 188.732 162.372 188.944 158.556C189.048 156.636 187.272 154.26 187.424 151.732C187.552 149.656 189.6 147.524 189.76 145.144C189.904 143 188.16 140.616 188.324 138.304C188.484 136.116 190.564 134.02 190.748 131.744C190.924 129.528 189.212 127.12 189.416 124.88C189.62 122.64 191.732 120.58 191.956 118.368C192.18 116.156 190.528 113.652 190.78 111.476C191.052 109.168 193.228 107.176 193.524 105.048C193.852 102.68 192.324 100.152 192.672 98.1082C193.112 95.6042 195.444 93.7922 195.936 91.9442C196.848 88.5002 196.736 85.1842 197.812 84.9682C198.964 84.7362 199.228 87.9882 200.1 91.6242C200.54 93.4522 202.82 95.3002 203.196 97.8082C203.496 99.8362 201.888 102.304 202.152 104.664C202.388 106.772 204.508 108.804 204.716 111.1C204.912 113.256 203.188 115.64 203.356 117.9C203.52 120.092 205.58 122.188 205.724 124.416C205.868 126.644 204.088 128.98 204.212 131.18C204.336 133.38 206.356 135.58 206.46 137.736C206.572 140.028 204.76 142.344 204.86 144.472C204.956 146.832 206.952 148.996 207.024 151.056C207.116 153.56 205.276 155.856 205.332 157.776C205.456 161.912 207.332 161.056 207.416 164.384L206.896 164.4Z" fill="white"/>
<path d="M198.252 91.5762V163.464" stroke="#263238" stroke-width="0.4" stroke-linecap="round" stroke-linejoin="round"/>
<path d="M195.112 99.1122L198.388 101.94L201.068 98.3682" stroke="#263238" stroke-width="0.4" stroke-linecap="round" stroke-linejoin="round"/>
<path d="M195.112 111.624L198.388 114.456L201.068 110.88" stroke="#263238" stroke-width="0.4" stroke-linecap="round" stroke-linejoin="round"/>
<path d="M195.112 123.392L198.388 126.224L201.068 122.648" stroke="#263238" stroke-width="0.4" stroke-linecap="round" stroke-linejoin="round"/>
<path d="M195.112 137.396L198.388 140.224L201.068 136.652" stroke="#263238" stroke-width="0.4" stroke-linecap="round" stroke-linejoin="round"/>
<path d="M195.112 151.548L198.388 154.376L201.068 150.8" stroke="#263238" stroke-width="0.4" stroke-linecap="round" stroke-linejoin="round"/>
<path d="M203.4 47.4603C203.8 47.0603 204.484 46.6603 205.676 46.6403C208.352 46.5763 207.636 48.4723 208.352 48.9283C209.068 49.3843 209.268 48.6683 209.988 49.1243C210.708 49.5803 210.388 50.4963 210.968 50.6283C211.548 50.7603 212.34 50.0403 213.06 50.4963C213.78 50.9523 213.776 51.3443 214.104 51.3443C214.432 51.3443 215.084 51.0843 215.476 51.3443C215.868 51.6043 216.328 51.9323 216.328 51.9323H209.304" stroke="#263238" stroke-width="0.4" stroke-linecap="round" stroke-linejoin="round"/>
<path d="M202.656 48.6281L202.86 48.5361C202.891 48.2927 202.973 48.0585 203.1 47.8481" stroke="#263238" stroke-width="0.4" stroke-linecap="round" stroke-linejoin="round"/>
<path d="M208.408 51.9322H199.8C199.754 51.7331 199.782 51.524 199.878 51.3438C199.974 51.1636 200.133 51.0244 200.324 50.9522C201.044 50.5522 201.368 50.8882 201.632 50.5522C201.896 50.2162 201.112 49.5562 202.328 48.8042" stroke="#263238" stroke-width="0.4" stroke-linecap="round" stroke-linejoin="round"/>
<path d="M163.252 51.9321H146.164C146.164 51.9321 145.58 50.1881 147.716 49.0241C149.852 47.8601 150.82 48.8281 151.596 47.8561C152.372 46.8841 149.464 44.3641 155.284 41.8561C155.284 41.8561 155.684 36.4241 163.632 36.2281C167.064 36.1441 168.62 37.1441 169.448 38.4201" stroke="#263238" stroke-width="0.4" stroke-linecap="round" stroke-linejoin="round"/>
<path d="M168.468 51.9321H165.62" stroke="#263238" stroke-width="0.4" stroke-linecap="round" stroke-linejoin="round"/>
<path d="M173.444 51.9322H195.268C195.268 51.9322 193.908 50.9642 192.744 50.1882C191.58 49.4122 189.64 50.1882 188.668 50.1882C187.696 50.1882 187.7 49.0242 185.564 47.6642C183.428 46.3042 181.1 48.4402 179.352 48.0642C177.604 47.6882 178.576 44.9602 176.44 43.6002C174.304 42.2402 173.724 44.3762 171.588 43.0162C170.992 42.6162 170.728 41.9242 170.484 41.0962" stroke="#263238" stroke-width="0.4" stroke-linecap="round" stroke-linejoin="round"/>
<path d="M5.49221 51.9318H-5.08777C-5.08777 51.9318 -5.45178 50.8518 -4.12778 50.1318C-2.80378 49.4118 -2.20378 50.0118 -1.72778 49.4078C-1.25178 48.8038 -3.05177 47.2478 0.556225 45.6838C0.556225 45.6838 0.796219 42.3198 5.72422 42.1998C7.84822 42.1478 8.81222 42.7678 9.32422 43.5558" stroke="#263238" stroke-width="0.4" stroke-linecap="round" stroke-linejoin="round"/>
<path d="M8.7207 51.9321H6.96072" stroke="#263238" stroke-width="0.4" stroke-linecap="round" stroke-linejoin="round"/>
<path d="M9.97241 45.2002C10.0448 45.6699 10.2867 46.0968 10.6524 46.4002C11.9764 47.2442 12.3364 45.9202 13.6604 46.7602C14.9844 47.6002 14.3804 49.2842 15.4604 49.5282C16.5404 49.7722 17.9844 48.4442 19.3084 49.2842C20.6324 50.1242 20.6284 50.8482 21.2284 50.8482C21.8284 50.8482 23.0324 50.3682 23.7524 50.8482C24.4724 51.3282 25.3164 51.9282 25.3164 51.9282H11.8004" stroke="#263238" stroke-width="0.4" stroke-linecap="round" stroke-linejoin="round"/>
<path d="M60.8242 85.0803H50.2442C50.2442 85.0803 49.8842 84.0003 51.2042 83.2803C52.5242 82.5603 53.1282 83.1603 53.6042 82.5563C54.0802 81.9523 52.2842 80.3923 55.8882 78.8323C55.8882 78.8323 56.1282 75.4683 61.0562 75.3483C63.1802 75.2963 64.1443 75.9163 64.6562 76.7043" stroke="#263238" stroke-width="0.4" stroke-linecap="round" stroke-linejoin="round"/>
<path d="M64.052 85.0801H62.292" stroke="#263238" stroke-width="0.4" stroke-linecap="round" stroke-linejoin="round"/>
<path d="M65.3044 78.3643C65.3793 78.834 65.6224 79.2605 65.9884 79.5643C67.3084 80.4043 67.6684 79.0843 68.9924 79.9243C70.3164 80.7643 69.7124 82.4483 70.7964 82.6883C71.8804 82.9283 73.3164 81.6083 74.6404 82.4483C75.9644 83.2883 75.9604 84.0123 76.5644 84.0123C77.1684 84.0123 78.3644 83.5323 79.0884 84.0123C79.8124 84.4923 80.6484 85.0923 80.6484 85.0923H67.1364" stroke="#263238" stroke-width="0.4" stroke-linecap="round" stroke-linejoin="round"/>
<path d="M148.488 164.4H146.552V156.588C146.513 155.123 145.904 153.731 144.854 152.708C143.804 151.686 142.396 151.114 140.93 151.114C139.465 151.114 138.057 151.686 137.007 152.708C135.957 153.731 135.347 155.123 135.308 156.588V164.4H133.372V156.588C133.418 154.613 134.234 152.735 135.646 151.355C137.059 149.974 138.955 149.202 140.93 149.202C142.905 149.202 144.802 149.974 146.214 151.355C147.627 152.735 148.443 154.613 148.488 156.588V164.4Z" fill="#BDBDBD" stroke="#263238" stroke-width="0.4" stroke-miterlimit="10"/>
<path d="M164.96 160.96H152.288V68.836H164.96V160.96Z" fill="#919191" stroke="#263238" stroke-width="0.4" stroke-miterlimit="10"/>
<path d="M164.96 160.96H159.416V68.836H164.96V160.96Z" fill="white" stroke="#263238" stroke-width="0.4" stroke-miterlimit="10"/>
<path d="M164.96 75.3315H152.288V68.0395H164.96V75.3315Z" fill="#263238" stroke="#263238" stroke-width="0.4" stroke-miterlimit="10"/>
<path d="M164.96 75.3315H159.416V68.0395H164.96V75.3315Z" fill="#263238" stroke="#263238" stroke-width="0.4" stroke-miterlimit="10"/>
<path d="M167.46 161.112H164.944V114.008H167.46V161.112Z" fill="#FD7E50" stroke="#263238" stroke-width="0.4" stroke-miterlimit="10"/>
<path d="M172.224 161.112H166.268V114.008H172.224V161.112Z" fill="#FD7E50" stroke="#263238" stroke-width="0.4" stroke-miterlimit="10"/>
<path d="M181.6 161.112H166.784V129.004H181.6V161.112Z" fill="white" stroke="#263238" stroke-width="0.4" stroke-linecap="round" stroke-linejoin="round"/>
<path d="M181.6 148.72H166.784V129.004H181.6V148.72Z" fill="#FD7E50" stroke="#263238" stroke-width="0.4" stroke-miterlimit="10"/>
<path d="M181.6 135.948H166.784V129H181.6V135.948Z" fill="#FD7E50" stroke="#263238" stroke-width="0.4" stroke-miterlimit="10"/>
<path d="M181.6 139.04H166.784V135.884H181.6V139.04Z" fill="#FD7E50" stroke="#263238" stroke-width="0.4" stroke-miterlimit="10"/>
<path d="M183.72 161.112H181.204V114.008H183.72V161.112Z" fill="#FD7E50" stroke="#263238" stroke-width="0.4" stroke-miterlimit="10"/>
<path d="M188.484 161.112H182.528V114.008H188.484V161.112Z" fill="#FD7E50" stroke="#263238" stroke-width="0.4" stroke-miterlimit="10"/>
<path d="M190.78 114.74H163.096V111.868H190.78V114.74Z" fill="#FD7E50" stroke="#263238" stroke-width="0.4" stroke-linecap="round" stroke-linejoin="round"/>
<path d="M190.78 114.74H183.96V111.868H190.78V114.74Z" fill="#FD7E50" stroke="#263238" stroke-width="0.4" stroke-linecap="round" stroke-linejoin="round"/>
<path d="M190.78 161.116H163.096V160.276H190.78V161.116Z" fill="white" stroke="#263238" stroke-width="0.4" stroke-miterlimit="10"/>
<path d="M190.78 161.116H183.96V160.276H190.78V161.116Z" fill="white" stroke="#263238" stroke-width="0.4" stroke-miterlimit="10"/>
<path d="M177.064 134.152H170.68V129.96H177.064V134.152Z" fill="#263238" stroke="#263238" stroke-width="0.4" stroke-miterlimit="10"/>
<path d="M175.696 133.256H172.048V130.86H175.696V133.256Z" fill="#FD7E50" stroke="#263238" stroke-width="0.4" stroke-miterlimit="10"/>
<path d="M177.064 130.464H170.68V129.964H177.064V130.464Z" fill="white" stroke="#263238" stroke-width="0.4" stroke-miterlimit="10"/>
<path d="M172.472 138.144H168.48V136.448H172.472V138.144Z" fill="white" stroke="#263238" stroke-width="0.4" stroke-miterlimit="10"/>
<path d="M172.472 137.248H168.48V136.448H172.472V137.248Z" fill="white" stroke="#263238" stroke-width="0.4" stroke-miterlimit="10"/>
<path d="M179.56 138.144H175.568V136.448H179.56V138.144Z" fill="white" stroke="#263238" stroke-width="0.4" stroke-miterlimit="10"/>
<path d="M179.56 137.248H175.568V136.448H179.56V137.248Z" fill="white" stroke="#263238" stroke-width="0.4" stroke-miterlimit="10"/>
<path d="M187.036 142.652H183.96V131.444H187.036V142.652Z" fill="white" stroke="#263238" stroke-width="0.4" stroke-miterlimit="10"/>
<path d="M187.032 142.652H184.744V131.444H187.032V142.652Z" fill="white" stroke="#263238" stroke-width="0.4" stroke-miterlimit="10"/>
<path d="M186.548 142.147H185.232V131.951H186.548V142.147Z" fill="white" stroke="#263238" stroke-width="0.4" stroke-miterlimit="10"/>
<path d="M183.493 139.088H182.645V137.784H183.493V139.088Z" fill="white" stroke="#263238" stroke-width="0.4" stroke-miterlimit="10"/>
<path d="M194.748 164.392H120.084V161.024H194.748V164.392Z" fill="#919191" stroke="#263238" stroke-width="0.4" stroke-miterlimit="10"/>
<path d="M194.752 164.392H185.548V161.024H194.752V164.392Z" fill="#BDBDBD" stroke="#263238" stroke-width="0.4" stroke-miterlimit="10"/>
<path d="M31.7676 164.4H29.8316V156.588C29.8316 155.097 29.2395 153.668 28.1855 152.614C27.1316 151.56 25.7021 150.968 24.2116 150.968C22.7211 150.968 21.2916 151.56 20.2376 152.614C19.1837 153.668 18.5916 155.097 18.5916 156.588V164.4H16.6556V156.588C16.6556 154.584 17.4516 152.662 18.8687 151.245C20.2857 149.828 22.2076 149.032 24.2116 149.032C26.2156 149.032 28.1375 149.828 29.5545 151.245C30.9715 152.662 31.7676 154.584 31.7676 156.588V164.4Z" fill="#BDBDBD" stroke="#263238" stroke-width="0.4" stroke-miterlimit="10"/>
<path d="M48.2443 160.96H35.5723L35.5723 68.836H48.2443L48.2443 160.96Z" fill="#919191" stroke="#263238" stroke-width="0.4" stroke-miterlimit="10"/>
<path d="M48.2442 160.96H42.7002L42.7002 68.836H48.2442L48.2442 160.96Z" fill="white" stroke="#263238" stroke-width="0.4" stroke-miterlimit="10"/>
<path d="M48.2443 76.1279H35.5723V68.8359H48.2443V76.1279Z" fill="#263238" stroke="#263238" stroke-width="0.4" stroke-miterlimit="10"/>
<path d="M48.2442 76.1279H42.7002V68.8359H48.2442V76.1279Z" fill="#263238" stroke="#263238" stroke-width="0.4" stroke-miterlimit="10"/>
<path d="M50.7445 161.112H48.2285L48.2285 114.008H50.7445L50.7445 161.112Z" fill="#BDBDBD" stroke="#263238" stroke-width="0.4" stroke-miterlimit="10"/>
<path d="M55.508 161.112H49.552L49.552 114.008H55.508L55.508 161.112Z" fill="white" stroke="#263238" stroke-width="0.4" stroke-miterlimit="10"/>
<path d="M64.8844 161.112H50.0684L50.0684 129.004H64.8844V161.112Z" fill="white" stroke="#263238" stroke-width="0.4" stroke-linecap="round" stroke-linejoin="round"/>
<path d="M64.8844 148.72H50.0684V129.004H64.8844V148.72Z" fill="#263238" stroke="#263238" stroke-width="0.4" stroke-miterlimit="10"/>
<path d="M64.8844 135.948H50.0684V129H64.8844V135.948Z" fill="#BDBDBD" stroke="#263238" stroke-width="0.4" stroke-miterlimit="10"/>
<path d="M64.8844 139.04H50.0684V135.884H64.8844V139.04Z" fill="white" stroke="#263238" stroke-width="0.4" stroke-miterlimit="10"/>
<path d="M67.0043 161.112H64.4883V114.008H67.0043V161.112Z" fill="#BDBDBD" stroke="#263238" stroke-width="0.4" stroke-miterlimit="10"/>
<path d="M71.7685 161.112H65.8125V114.008H71.7685V161.112Z" fill="white" stroke="#263238" stroke-width="0.4" stroke-miterlimit="10"/>
<path d="M74.0641 114.74H46.3801V111.868H74.0641V114.74Z" fill="white" stroke="#263238" stroke-width="0.4" stroke-linecap="round" stroke-linejoin="round"/>
<path d="M74.0641 114.74H67.2441V111.868H74.0641V114.74Z" fill="white" stroke="#263238" stroke-width="0.4" stroke-linecap="round" stroke-linejoin="round"/>
<path d="M74.0641 161.116H46.3801V160.276H74.0641V161.116Z" fill="white" stroke="#263238" stroke-width="0.4" stroke-miterlimit="10"/>
<path d="M74.0641 161.116H67.2441V160.276H74.0641V161.116Z" fill="white" stroke="#263238" stroke-width="0.4" stroke-miterlimit="10"/>
<path d="M60.344 134.152H53.96V129.96H60.344V134.152Z" fill="#263238" stroke="#263238" stroke-width="0.4" stroke-miterlimit="10"/>
<path d="M58.9761 133.256H55.3281V130.86H58.9761V133.256Z" fill="white" stroke="#263238" stroke-width="0.4" stroke-miterlimit="10"/>
<path d="M60.344 130.464H53.96V129.964H60.344V130.464Z" fill="white" stroke="#263238" stroke-width="0.4" stroke-miterlimit="10"/>
<path d="M55.7596 138.144H51.7676V136.448H55.7596V138.144Z" fill="white" stroke="#263238" stroke-width="0.4" stroke-miterlimit="10"/>
<path d="M55.7596 137.248H51.7676V136.448H55.7596V137.248Z" fill="white" stroke="#263238" stroke-width="0.4" stroke-miterlimit="10"/>
<path d="M62.8436 138.144H58.8516V136.448H62.8436V138.144Z" fill="white" stroke="#263238" stroke-width="0.4" stroke-miterlimit="10"/>
<path d="M62.8436 137.248H58.8516V136.448H62.8436V137.248Z" fill="white" stroke="#263238" stroke-width="0.4" stroke-miterlimit="10"/>
<path d="M70.3201 142.652H67.2441V131.444H70.3201V142.652Z" fill="white" stroke="#263238" stroke-width="0.4" stroke-miterlimit="10"/>
<path d="M70.3161 142.652H68.0281V131.444H70.3161V142.652Z" fill="white" stroke="#263238" stroke-width="0.4" stroke-miterlimit="10"/>
<path d="M69.8316 142.147H68.5156V131.951H69.8316V142.147Z" fill="white" stroke="#263238" stroke-width="0.4" stroke-miterlimit="10"/>
<path d="M68.6327 131.968C70.0487 132.876 70.8527 135.24 70.8887 135.348L70.3847 135.516C70.3847 135.492 69.7207 133.56 68.6327 132.628V131.968Z" fill="white" stroke="#263238" stroke-width="0.4" stroke-miterlimit="10"/>
<path d="M69.1324 133.308C69.1204 133.307 69.1087 133.304 69.098 133.299C69.0872 133.294 69.0776 133.287 69.0698 133.278C69.0619 133.269 69.056 133.258 69.0523 133.247C69.0486 133.236 69.0473 133.224 69.0484 133.212L69.0964 132.368C69.0969 132.356 69.0997 132.345 69.1046 132.334C69.1095 132.324 69.1164 132.315 69.1249 132.307C69.1335 132.299 69.1435 132.293 69.1544 132.289C69.1653 132.285 69.1768 132.283 69.1884 132.284C69.1999 132.284 69.2113 132.287 69.2218 132.292C69.2322 132.297 69.2417 132.304 69.2495 132.312C69.2573 132.321 69.2633 132.331 69.2672 132.342C69.2712 132.353 69.2729 132.364 69.2724 132.376L69.2244 133.224C69.2244 133.236 69.222 133.247 69.2173 133.258C69.2126 133.269 69.2057 133.278 69.197 133.286C69.1883 133.294 69.1781 133.3 69.167 133.304C69.1558 133.308 69.144 133.309 69.1324 133.308Z" fill="white" stroke="#263238" stroke-width="0.2" stroke-miterlimit="10"/>
<path d="M69.744 134.06C69.7325 134.06 69.721 134.057 69.7104 134.053C69.6997 134.049 69.69 134.042 69.6818 134.034C69.6736 134.026 69.6672 134.016 69.6627 134.005C69.6583 133.995 69.656 133.983 69.656 133.972V133.124C69.656 133.112 69.6583 133.101 69.6627 133.09C69.6672 133.079 69.6736 133.07 69.6818 133.061C69.69 133.053 69.6997 133.047 69.7104 133.042C69.721 133.038 69.7325 133.036 69.744 133.036C69.7556 133.036 69.767 133.038 69.7777 133.042C69.7884 133.047 69.7981 133.053 69.8063 133.061C69.8144 133.07 69.8209 133.079 69.8253 133.09C69.8298 133.101 69.832 133.112 69.832 133.124V133.972C69.832 133.983 69.8298 133.995 69.8253 134.005C69.8209 134.016 69.8144 134.026 69.8063 134.034C69.7981 134.042 69.7884 134.049 69.7777 134.053C69.767 134.057 69.7556 134.06 69.744 134.06Z" fill="white" stroke="#263238" stroke-width="0.2" stroke-miterlimit="10"/>
<path d="M70.1683 135C70.1453 134.995 70.125 134.982 70.1116 134.962C70.0982 134.943 70.0927 134.919 70.0963 134.896L70.2883 134C70.2902 133.988 70.2944 133.977 70.3008 133.967C70.3072 133.958 70.3155 133.949 70.3253 133.943C70.3351 133.936 70.3461 133.932 70.3576 133.93C70.3692 133.928 70.381 133.929 70.3923 133.932C70.4151 133.937 70.4351 133.95 70.4478 133.97C70.4606 133.989 70.4651 134.013 70.4603 134.036L70.2723 134.932C70.2666 134.954 70.2528 134.974 70.2335 134.986C70.2143 134.999 70.191 135.004 70.1683 135Z" fill="white" stroke="#263238" stroke-width="0.2" stroke-miterlimit="10"/>
<path d="M70.4042 137.832C70.4042 137.832 70.6402 140.092 70.5922 140.28C70.5442 140.468 69.5082 140.704 69.5082 140.704" stroke="#263238" stroke-width="0.4" stroke-miterlimit="10"/>
<path d="M71.6885 141.74L69.9965 141.34C69.7845 141.285 69.5987 141.157 69.4726 140.978C69.3465 140.799 69.2883 140.581 69.3085 140.364L69.5605 137.936L70.0925 137.992L69.8365 140.42C69.8327 140.508 69.8586 140.596 69.91 140.668C69.9614 140.741 70.0355 140.794 70.1205 140.82L71.8125 141.22L71.6885 141.74Z" fill="black"/>
<path d="M71.0388 141.387L71.7422 141.467L71.588 142.818L70.8846 142.738L71.0388 141.387Z" fill="black" stroke="#263238" stroke-width="0.4" stroke-miterlimit="10"/>
<path d="M71.4509 137.778L72.1543 137.858L71.7421 141.471L71.0386 141.391L71.4509 137.778Z" fill="white" stroke="#263238" stroke-width="0.4" stroke-miterlimit="10"/>
<path d="M70.9836 134.952L69.9356 135.432L70.0676 135.996L69.2836 136.52L69.4996 137.956L72.1596 138.656L72.7676 137.956L72.2916 135.604L71.2876 135.432L70.9836 134.952Z" fill="white" stroke="#263238" stroke-width="0.4" stroke-miterlimit="10"/>
<path d="M71.7676 135.952L70.6356 135.736L70.3796 135.228L70.9836 134.952L71.2876 135.432L72.2916 135.604L72.7676 137.956L72.2876 138.508L71.7676 135.952Z" fill="white" stroke="#263238" stroke-width="0.4" stroke-miterlimit="10"/>
<path d="M73.3805 120.972C72.8805 116.6 71.2805 115.672 70.0085 115.672H69.9685C69.5669 115.675 69.1705 115.763 68.8052 115.929C68.4398 116.096 68.1138 116.338 67.8485 116.64C65.6885 118.968 65.9885 124.804 66.0085 125.184V138.492C66.0031 138.544 66.0087 138.597 66.0251 138.647C66.0414 138.697 66.0681 138.743 66.1033 138.782C66.1386 138.822 66.1816 138.853 66.2297 138.874C66.2778 138.896 66.3299 138.907 66.3825 138.907C66.4352 138.907 66.4872 138.896 66.5353 138.874C66.5834 138.853 66.6265 138.822 66.6618 138.782C66.697 138.743 66.7237 138.697 66.74 138.647C66.7563 138.597 66.762 138.544 66.7565 138.492V125.152C66.7565 125.092 66.4245 119.272 68.3965 117.152C68.5953 116.923 68.8411 116.739 69.1172 116.614C69.3933 116.488 69.6932 116.423 69.9965 116.424H70.0205C71.7565 116.424 72.4205 118.94 72.6565 121.06C72.8876 123.159 72.7714 125.282 72.3125 127.344L71.7445 129.956V133.476L73.0445 127.504C73.5171 125.36 73.6307 123.153 73.3805 120.972Z" fill="#263238"/>
<path d="M66.7757 139.088H65.9277V137.784H66.7757V139.088Z" fill="white" stroke="#263238" stroke-width="0.4" stroke-miterlimit="10"/>
<path d="M73.1243 153.552C72.3243 152 71.3843 150.24 71.3843 148.144C71.3843 144.944 71.6443 142.344 71.6443 142.316L70.9003 142.244C70.9003 142.268 70.6363 144.904 70.6363 148.144C70.6363 150.428 71.6523 152.352 72.4643 153.9C73.1043 155.12 73.6643 156.176 73.4363 156.9C73.4001 157.077 73.324 157.245 73.2139 157.389C73.1037 157.533 72.9623 157.65 72.8003 157.732C72.4371 157.837 72.0476 157.803 71.7083 157.636V158.436C71.9414 158.509 72.184 158.548 72.4283 158.552C72.6501 158.554 72.8701 158.513 73.0763 158.432C73.3434 158.312 73.5791 158.131 73.7651 157.905C73.9511 157.679 74.0822 157.413 74.1483 157.128C74.4683 156.104 73.8443 154.92 73.1243 153.552Z" fill="black"/>
<path d="M95.4523 164.392H20.7883V161.024H95.4523V164.392Z" fill="#919191" stroke="#263238" stroke-width="0.4" stroke-miterlimit="10"/>
<path d="M95.4521 164.392H86.248V161.024H95.4521V164.392Z" fill="#BDBDBD" stroke="#263238" stroke-width="0.4" stroke-miterlimit="10"/>
<path d="M5.46808 56.4277H151.46V71.7357H5.46808V56.4277Z" fill="#263238" stroke="#263238" stroke-width="0.4" stroke-miterlimit="10"/>
<path d="M206.628 71.7358L86.584 71.7358V56.4278L206.628 56.4278V71.7358Z" fill="white" stroke="#263238" stroke-width="0.4" stroke-linecap="round" stroke-linejoin="round"/>
<path d="M86.6002 71.7358V57.0918L120.548 65.5998C125.324 66.7987 130.355 66.4899 134.948 64.7158L142.372 61.8558C145.792 60.537 149.526 60.2586 153.104 61.0558L201.104 71.7238L86.6002 71.7358Z" fill="#2F945A" stroke="#263238" stroke-width="0.4" stroke-miterlimit="10"/>
<path d="M148.311 161.124C148.311 161.124 149.139 162.856 148.991 163.216C148.843 163.576 147.879 163.56 147.879 163.56L147.839 161.2C147.839 161.2 148.055 160.572 148.311 161.124Z" fill="white" stroke="#263238" stroke-width="0.4" stroke-linecap="round" stroke-linejoin="round"/>
<path d="M146.043 162.4C146.043 162.4 144.999 163.044 144.703 163.2C144.407 163.356 143.159 163.62 143.135 163.884C143.111 164.148 144.335 164.32 144.963 164.408C146.132 164.374 147.293 164.216 148.427 163.936C148.551 163.84 148.087 162.256 148.087 162.256L146.043 162.4Z" fill="white" stroke="#263238" stroke-width="0.4" stroke-linecap="round" stroke-linejoin="round"/>
<path d="M141.952 139.728C141.952 139.728 142.496 149.044 142.456 150.268C142.416 151.492 142.856 152.34 142.892 152.688C142.928 153.036 145.848 160.252 145.848 160.252L146.404 161.916L147.544 160.172L146.344 152L147.544 139.936L144.5 139.536L141.952 139.728Z" fill="#525252" stroke="#263238" stroke-width="0.4" stroke-linecap="round" stroke-linejoin="round"/>
<path d="M151.503 140C151.503 140 150.831 144.028 150.127 145.74C149.423 147.452 148.527 152.064 148.527 152.064C148.527 152.064 149.087 154.384 148.719 155.328C148.351 156.272 148.319 161.432 148.319 161.432C148.363 161.734 148.384 162.038 148.383 162.344C148.355 162.524 148.331 162.828 148.331 162.828C148.331 162.828 147.447 162.676 147.131 162.652C146.815 162.628 145.763 162.448 145.763 162.448C145.763 162.448 145.715 161.796 145.643 161.408C145.571 161.02 145.831 160.388 145.823 160.256C145.815 160.124 145.387 156.704 145.387 156.704C145.387 156.704 144.747 152.072 144.683 151.204C144.619 150.336 145.611 141.08 145.611 141.08C145.611 141.08 148.363 139.264 149.403 139.144C150.443 139.024 151.503 140 151.503 140Z" fill="#525252" stroke="#263238" stroke-width="0.4" stroke-linecap="round" stroke-linejoin="round"/>
<path d="M148.372 123.432C148.372 123.432 152.208 125.584 152.224 125.792C152.24 126 151.46 134.328 151.46 134.328C151.46 134.328 151.94 139.076 151.976 139.592C151.995 139.963 151.987 140.334 151.952 140.704L149.76 139.684C149.76 139.684 145.892 141.388 145.36 141.496L144.332 141.708L143.812 140.772L143.76 141.972C143.314 141.639 142.902 141.263 142.532 140.848L141.692 139.764L142.068 134.46C142.068 134.46 142.468 127.512 142.424 127.132C142.38 126.752 142.884 124.7 143.224 124.428C143.833 124.114 144.466 123.846 145.116 123.628L147.8 123.092L148.372 123.432Z" fill="white" stroke="#263238" stroke-width="0.4" stroke-linecap="round" stroke-linejoin="round"/>
<path d="M148.94 119.292C148.857 119.67 148.722 120.035 148.54 120.376C148.32 120.68 147.708 121.576 147.708 121.576L146.348 120.776L146.6 118.4L148.94 119.292Z" fill="#263238" stroke="#263238" stroke-width="0.4" stroke-linecap="round" stroke-linejoin="round"/>
<path d="M147.916 120.479L148.144 122.919L145.412 124.723L144.932 122.883L147.224 120.043L147.916 120.479Z" fill="#FFBE9D" stroke="#263238" stroke-width="0.4" stroke-linecap="round" stroke-linejoin="round"/>
<path d="M146.296 122.448L145.304 123.82L145.04 123.096L146.296 122.448Z" fill="#263238"/>
<path d="M143.08 117.948L143.156 119.468L143.356 119.836L143.32 121.264L143.58 121.488C143.58 121.488 143.98 122.688 144.056 122.808C144.244 122.993 144.455 123.153 144.684 123.284C144.824 123.34 146.224 122.544 146.444 122.216C146.664 121.888 146.912 121.488 146.912 121.488L146.868 120.416L146.968 118.416L143.08 117.948Z" fill="#FFBE9D" stroke="#263238" stroke-width="0.4" stroke-linecap="round" stroke-linejoin="round"/>
<path d="M144.268 119.944V120.344C144.362 120.389 144.466 120.408 144.569 120.399C144.673 120.39 144.772 120.353 144.856 120.292" stroke="#263238" stroke-width="0.4" stroke-linecap="round" stroke-linejoin="round"/>
<path d="M144.084 122.02C144.084 122.02 144.216 122.048 144.508 121.86" stroke="#263238" stroke-width="0.4" stroke-linecap="round" stroke-linejoin="round"/>
<path d="M145.152 118.796L143.172 118.908L143.08 117.948L145.344 118.568L145.152 118.796Z" fill="#263238"/>
<path d="M143.94 119.76L145.044 119.644" stroke="#263238" stroke-width="0.4" stroke-linecap="round" stroke-linejoin="round"/>
<path d="M143.58 121.488L144.312 121.54" stroke="#263238" stroke-width="0.4" stroke-linecap="round" stroke-linejoin="round"/>
<path d="M142.84 117.876C142.84 117.876 143.052 116.44 143.54 115.988C144.028 115.536 146.576 115.168 146.828 115.288C147.08 115.408 147.532 115.636 147.532 115.636C147.842 115.809 148.136 116.011 148.408 116.24C148.61 116.386 148.777 116.576 148.895 116.797C149.013 117.017 149.079 117.262 149.088 117.512C149.091 118.108 149.042 118.704 148.94 119.292L142.84 117.876Z" fill="#2F945A" stroke="#263238" stroke-width="0.4" stroke-linecap="round" stroke-linejoin="round"/>
<path d="M148.311 122.116L146.027 123.152L145.323 124.972L148.751 123.368L148.311 122.116Z" fill="white" stroke="#263238" stroke-width="0.4" stroke-linecap="round" stroke-linejoin="round"/>
<path d="M146.744 120.068C146.744 120.068 147.004 119.06 147.544 119.408C148.084 119.756 147.456 120.856 147.368 121.008C147.28 121.16 146.968 121.184 146.796 120.832" fill="#FFBE9D"/>
<path d="M146.744 120.068C146.744 120.068 147.004 119.06 147.544 119.408C148.084 119.756 147.456 120.856 147.368 121.008C147.28 121.16 146.968 121.184 146.796 120.832" stroke="#263238" stroke-width="0.4" stroke-linecap="round" stroke-linejoin="round"/>
<path d="M146.128 118.62C146.128 118.62 144.828 119.252 143.892 119.192C142.836 119.12 140.636 118.864 141.172 118.444C141.796 118.236 142.434 118.07 143.08 117.948C143.08 117.948 145.34 118.268 146.128 118.62Z" fill="#2F945A" stroke="#263238" stroke-width="0.4" stroke-linecap="round" stroke-linejoin="round"/>
<path d="M131.52 137.879C132.76 136.739 135.252 136.571 135.364 136.563L135.396 137.095C135.372 137.095 133.336 137.231 132.156 138.047L131.52 137.879Z" fill="white" stroke="#263238" stroke-width="0.4" stroke-miterlimit="10"/>
<path d="M132.94 137.736C132.936 137.747 132.93 137.757 132.923 137.766C132.915 137.775 132.906 137.782 132.895 137.787C132.885 137.792 132.874 137.795 132.862 137.796C132.85 137.797 132.839 137.796 132.828 137.792L132.028 137.532C132.006 137.524 131.988 137.508 131.978 137.487C131.967 137.466 131.965 137.442 131.972 137.42C131.979 137.397 131.995 137.379 132.016 137.367C132.037 137.356 132.061 137.353 132.084 137.36L132.884 137.624C132.906 137.632 132.923 137.648 132.934 137.669C132.944 137.69 132.946 137.713 132.94 137.736Z" fill="white" stroke="#263238" stroke-width="0.2" stroke-miterlimit="10"/>
<path d="M133.828 137.336C133.821 137.358 133.807 137.377 133.787 137.389C133.766 137.401 133.743 137.405 133.72 137.4L132.9 137.184C132.878 137.177 132.858 137.162 132.847 137.142C132.835 137.122 132.831 137.098 132.836 137.076C132.839 137.064 132.844 137.054 132.851 137.044C132.858 137.035 132.866 137.027 132.876 137.021C132.887 137.015 132.898 137.011 132.909 137.01C132.921 137.008 132.933 137.009 132.944 137.012L133.744 137.228C133.757 137.229 133.769 137.232 133.781 137.238C133.792 137.244 133.802 137.253 133.81 137.263C133.818 137.273 133.824 137.285 133.827 137.297C133.83 137.31 133.83 137.323 133.828 137.336Z" fill="white" stroke="#263238" stroke-width="0.2" stroke-miterlimit="10"/>
<path d="M134.843 137.168C134.843 137.168 134.843 137.168 134.843 137.188C134.838 137.198 134.831 137.207 134.822 137.215C134.813 137.222 134.802 137.227 134.791 137.231C134.78 137.234 134.768 137.235 134.757 137.234C134.745 137.233 134.734 137.229 134.723 137.224L133.923 136.824C133.902 136.813 133.886 136.795 133.879 136.772C133.871 136.75 133.873 136.725 133.883 136.704C133.894 136.683 133.913 136.666 133.935 136.659C133.958 136.651 133.982 136.653 134.003 136.664L134.803 137.064C134.821 137.074 134.835 137.09 134.842 137.109C134.849 137.128 134.85 137.148 134.843 137.168Z" fill="white" stroke="#263238" stroke-width="0.2" stroke-miterlimit="10"/>
<path d="M137.64 137.667C137.64 137.667 139.884 138.019 140.04 138.115C140.196 138.211 140.172 139.267 140.172 139.267" stroke="#263238" stroke-width="0.4" stroke-miterlimit="10"/>
<path d="M141.747 137.428L140.919 138.96C140.811 139.149 140.639 139.294 140.433 139.367C140.228 139.441 140.003 139.438 139.799 139.36L137.519 138.492L137.707 137.996L139.987 138.86C140.072 138.892 140.165 138.893 140.251 138.862C140.336 138.832 140.407 138.771 140.451 138.692L141.279 137.16L141.747 137.428Z" fill="black"/>
<path d="M141.522 137.315L142.788 137.811L142.53 138.47L141.264 137.975L141.522 137.315Z" fill="black" stroke="#263238" stroke-width="0.4" stroke-miterlimit="10"/>
<path d="M138.132 135.987L141.518 137.312L141.26 137.971L137.874 136.646L138.132 135.987Z" fill="white" stroke="#263238" stroke-width="0.4" stroke-miterlimit="10"/>
<path d="M135.004 136.367L135.2 137.503L135.78 137.523L136.084 138.415L137.532 138.571L138.888 136.183L138.368 135.415L135.972 135.271L135.548 136.195L135.004 136.367Z" fill="white" stroke="#263238" stroke-width="0.4" stroke-linecap="round" stroke-linejoin="round"/>
<path d="M136.176 135.867L135.676 136.907L135.116 137.023L135.004 136.367L135.548 136.195L135.972 135.271L138.368 135.415L138.78 136.023L136.176 135.867Z" fill="white" stroke="#263238" stroke-width="0.4" stroke-linecap="round" stroke-linejoin="round"/>
<path d="M149.575 132.772L148.755 134L141.379 137.36L140.151 138.508L138.923 138.096L137.855 137.932L139.167 135.72L141.787 135.64L146.703 132.444L147.443 131.54L149.575 132.772Z" fill="white" stroke="#263238" stroke-width="0.4" stroke-linecap="round" stroke-linejoin="round"/>
<path d="M152.224 125.792L150.476 133.835L146.624 131.787L149.164 126.052" fill="white"/>
<path d="M152.224 125.792L150.476 133.835L146.624 131.787L149.164 126.052" stroke="#263238" stroke-width="0.4" stroke-linecap="round" stroke-linejoin="round"/>
<path d="M142.78 137.8C146.019 138.593 148.964 140.296 151.268 142.708C154.56 146.308 157.916 149.84 161.4 153.252C165.376 157.144 168.556 159.748 173.716 162.016C177.388 163.616 182.82 165.216 186.724 163.616C191.652 161.568 190.368 154.588 190.472 150.376C190.68 142 190.676 133.6 190.42 125.228C190.388 124.196 190.352 123.164 190.292 122.136C190.204 120.584 190.084 117.544 189.436 116.136C188.932 115.04 187.836 114.468 187.148 114.496C184.804 114.592 184.112 117.324 183.86 119.74C183.608 122.156 183.176 136.86 183.176 136.86" stroke="#263238" stroke-width="1.2" stroke-linejoin="round"/>
<path d="M154.112 136.86H154.284C154.458 136.86 154.63 136.818 154.785 136.739C154.939 136.66 155.073 136.545 155.175 136.404C155.277 136.264 155.344 136.1 155.371 135.929C155.397 135.757 155.383 135.581 155.328 135.416C155.108 134.74 154.736 134.056 154.128 133.952C152.832 133.736 149.272 134.812 149.272 135.552C149.272 136.292 149.272 136.628 149.704 136.628H152.4L154.556 139.004L154.604 138.964C154.716 138.87 154.805 138.754 154.866 138.622C154.927 138.491 154.959 138.347 154.959 138.202C154.959 138.057 154.927 137.913 154.866 137.782C154.805 137.65 154.716 137.533 154.604 137.44C154.407 137.278 154.24 137.081 154.112 136.86Z" fill="#263238" stroke="#263238" stroke-width="0.4" stroke-linecap="round" stroke-linejoin="round"/>
<path d="M129.74 156.92H93.9401C93.9401 156.92 88.7641 153.468 89.8441 144.408C90.9241 135.348 96.7441 141.392 98.9001 147.428H114.86C114.86 147.428 118.312 140.528 123.916 141.392C129.52 142.256 129.74 156.92 129.74 156.92Z" fill="#263238" stroke="#263238" stroke-width="0.4" stroke-linecap="round" stroke-linejoin="round"/>
<path d="M120.944 155.124C120.893 152.724 121.585 150.368 122.924 148.376V145.856H127.24C130.72 145.856 133.54 150.004 133.54 155.124C133.54 160.244 130.72 164.4 127.24 164.4H122.924V161.88C121.583 159.886 120.892 157.526 120.944 155.124Z" fill="#263238" stroke="#263238" stroke-width="0.4" stroke-linecap="round" stroke-linejoin="round"/>
<path d="M122.924 164.392C119.446 164.392 116.628 160.243 116.628 155.124C116.628 150.005 119.446 145.856 122.924 145.856C126.401 145.856 129.22 150.005 129.22 155.124C129.22 160.243 126.401 164.392 122.924 164.392Z" fill="#263238"/>
<mask id="mask0_4681_56639" style="mask-type:luminance" maskUnits="userSpaceOnUse" x="116" y="145" width="14" height="20">
<path d="M122.925 164.392C119.447 164.392 116.629 160.243 116.629 155.124C116.629 150.006 119.447 145.856 122.925 145.856C126.402 145.856 129.221 150.006 129.221 155.124C129.221 160.243 126.402 164.392 122.925 164.392Z" fill="white"/>
</mask>
<g mask="url(#mask0_4681_56639)">
<path opacity="0.2" d="M122.925 164.392C119.447 164.392 116.629 160.243 116.629 155.124C116.629 150.006 119.447 145.856 122.925 145.856C126.402 145.856 129.221 150.006 129.221 155.124C129.221 160.243 126.402 164.392 122.925 164.392Z" fill="white" stroke="#263238" stroke-width="0.4" stroke-linecap="round" stroke-linejoin="round"/>
</g>
<path d="M122.924 164.392C119.446 164.392 116.628 160.243 116.628 155.124C116.628 150.005 119.446 145.856 122.924 145.856C126.401 145.856 129.22 150.005 129.22 155.124C129.22 160.243 126.401 164.392 122.924 164.392Z" stroke="#263238" stroke-width="0.4" stroke-linecap="round" stroke-linejoin="round"/>
<path d="M159.848 145.856H163.924C167.212 145.856 169.876 150.004 169.876 155.124C169.876 160.244 167.212 164.4 163.924 164.4H159.848C156.56 164.4 153.896 160.252 153.896 155.132C153.896 150.012 156.56 145.856 159.848 145.856Z" fill="#263238" stroke="#263238" stroke-width="0.4" stroke-linecap="round" stroke-linejoin="round"/>
<path d="M122.924 162.52C120.149 162.52 117.9 159.209 117.9 155.124C117.9 151.039 120.149 147.728 122.924 147.728C125.699 147.728 127.948 151.039 127.948 155.124C127.948 159.209 125.699 162.52 122.924 162.52Z" fill="white" stroke="#263238" stroke-width="0.4" stroke-linecap="round" stroke-linejoin="round"/>
<path d="M91.4523 155.124C91.4034 152.812 91.8323 150.515 92.7123 148.376V145.856H96.5243C98.7403 145.856 100.524 150.004 100.524 155.124C100.524 160.244 98.7323 164.392 96.5243 164.392H92.7123V161.872C91.8323 159.733 91.4034 157.436 91.4523 155.124Z" fill="#263238" stroke="#263238" stroke-width="0.4" stroke-linecap="round" stroke-linejoin="round"/>
<path d="M92.7117 164.392C90.4982 164.392 88.7037 160.243 88.7037 155.124C88.7037 150.005 90.4982 145.856 92.7117 145.856C94.9253 145.856 96.7197 150.005 96.7197 155.124C96.7197 160.243 94.9253 164.392 92.7117 164.392Z" fill="#263238"/>
<mask id="mask1_4681_56639" style="mask-type:luminance" maskUnits="userSpaceOnUse" x="88" y="145" width="9" height="20">
<path d="M92.7125 164.392C90.4989 164.392 88.7045 160.243 88.7045 155.124C88.7045 150.006 90.4989 145.856 92.7125 145.856C94.926 145.856 96.7205 150.006 96.7205 155.124C96.7205 160.243 94.926 164.392 92.7125 164.392Z" fill="white"/>
</mask>
<g mask="url(#mask1_4681_56639)">
<path opacity="0.2" d="M92.7125 164.392C90.4989 164.392 88.7045 160.243 88.7045 155.124C88.7045 150.006 90.4989 145.856 92.7125 145.856C94.926 145.856 96.7205 150.006 96.7205 155.124C96.7205 160.243 94.926 164.392 92.7125 164.392Z" fill="white" stroke="#263238" stroke-width="0.4" stroke-linecap="round" stroke-linejoin="round"/>
</g>
<path d="M92.7117 164.392C90.4982 164.392 88.7037 160.243 88.7037 155.124C88.7037 150.005 90.4982 145.856 92.7117 145.856C94.9253 145.856 96.7197 150.005 96.7197 155.124C96.7197 160.243 94.9253 164.392 92.7117 164.392Z" stroke="#263238" stroke-width="0.4" stroke-linecap="round" stroke-linejoin="round"/>
<path d="M89.516 155.124C89.516 159.208 90.948 162.52 92.716 162.52C94.484 162.52 95.916 159.208 95.916 155.124C95.916 151.04 94.484 147.728 92.716 147.728C90.948 147.728 89.516 151.04 89.516 155.124Z" fill="white" stroke="#263238" stroke-width="0.4" stroke-linecap="round" stroke-linejoin="round"/>
<path d="M128.232 157.388C128.232 150.004 125.664 144.016 122.5 144.016C119.336 144.016 116.768 150.016 116.768 157.388C116.768 157.788 116.768 158.188 116.792 158.588H96.372C96.372 158.188 96.392 157.788 96.392 157.388C96.392 150 94.52 144 92.2 144C90.66 144 89.316 146.676 88.6 150.652V139.76C88.5993 139.263 88.7731 138.781 89.091 138.399C89.409 138.017 89.851 137.758 90.34 137.668L90.44 137.648C91.852 137.364 94.4 134.676 98.364 131.28C102.328 127.884 105.864 127.6 105.864 127.6H141.624C142.3 127.6 142.957 127.824 143.492 128.236L155.684 137.648C155.684 137.648 166.6 139.768 169 142.176C171.4 144.584 171.124 158.576 171.124 158.576H128.2C128.224 158.196 128.232 157.796 128.232 157.388Z" fill="#59A97B" stroke="#263238" stroke-width="0.4" stroke-linecap="round" stroke-linejoin="round"/>
<path d="M114.644 127.6H141.624C142.3 127.6 142.957 127.824 143.492 128.236L155.684 137.648H121.156L114.644 127.6Z" fill="#74B790" stroke="#263238" stroke-width="0.4" stroke-linecap="round" stroke-linejoin="round"/>
<path d="M128.776 141.432C130.72 141.456 134.116 141.584 135.576 142.176C136.794 142.656 137.976 143.223 139.112 143.872H132.2L128.776 141.432Z" fill="#263238" stroke="#263238" stroke-width="0.4" stroke-linecap="round" stroke-linejoin="round"/>
<path d="M131.768 146V144.728H139.128L137.796 145.956C137.817 145.969 137.837 145.984 137.856 146H131.768Z" fill="#263238" stroke="#263238" stroke-width="0.4" stroke-linecap="round" stroke-linejoin="round"/>
<path d="M131.059 144.156V146C130.774 145.975 130.498 145.884 130.253 145.735C130.008 145.586 129.801 145.382 129.647 145.14C128.939 144.008 127.347 141.424 127.347 141.424L131.059 144.156Z" fill="#263238" stroke="#263238" stroke-width="0.4" stroke-linecap="round" stroke-linejoin="round"/>
<path d="M168.304 145.952L166.972 144.724H170.112C170.208 145.124 170.3 145.548 170.38 145.996H168.244C168.262 145.98 168.282 145.965 168.304 145.952Z" fill="#263238" stroke="#263238" stroke-width="0.4" stroke-linecap="round" stroke-linejoin="round"/>
<path d="M169.356 142.664C169.57 143.045 169.743 143.447 169.872 143.864H166.972C167.745 143.423 168.541 143.022 169.356 142.664Z" fill="#263238" stroke="#263238" stroke-width="0.4" stroke-linecap="round" stroke-linejoin="round"/>
<path d="M121.156 137.648H100.2C100.2 137.648 97.2281 136.656 98.0761 132.976C98.3641 131.728 104.304 128.872 105.152 128.872H115.352L121.156 137.648Z" fill="#263238"/>
<mask id="mask2_4681_56639" style="mask-type:luminance" maskUnits="userSpaceOnUse" x="97" y="128" width="25" height="10">
<path d="M121.155 137.648H100.199C100.199 137.648 97.2271 136.656 98.0751 132.976C98.3631 131.728 104.303 128.872 105.151 128.872H115.351L121.155 137.648Z" fill="white"/>
</mask>
<g mask="url(#mask2_4681_56639)">
<path opacity="0.2" d="M121.155 137.648H100.199C100.199 137.648 97.2271 136.656 98.0751 132.976C98.3631 131.728 104.303 128.872 105.151 128.872H115.351L121.155 137.648Z" fill="white" stroke="#263238" stroke-width="0.4" stroke-linecap="round" stroke-linejoin="round"/>
</g>
<path d="M121.156 137.648H100.2C100.2 137.648 97.2281 136.656 98.0761 132.976C98.3641 131.728 104.304 128.872 105.152 128.872H115.352L121.156 137.648Z" stroke="#263238" stroke-width="0.4" stroke-linecap="round" stroke-linejoin="round"/>
<path d="M144.316 128.872L155.688 137.648H121.156L115.472 128.872H144.316Z" fill="#263238" stroke="#263238" stroke-width="0.4" stroke-linecap="round" stroke-linejoin="round"/>
<path d="M166.44 144.156V147.128L164.32 148.684H147.196L143.232 146.988V144.156H166.44Z" fill="#263238" stroke="#263238" stroke-width="0.4" stroke-linecap="round" stroke-linejoin="round"/>
<path opacity="0.3" d="M165.648 144.156H166.44V144.948H165.648V144.156Z" fill="white" stroke="#263238" stroke-width="0.4" stroke-linecap="round" stroke-linejoin="round"/>
<path opacity="0.3" d="M164.776 145.032H165.568V145.824H164.776V145.032Z" fill="white" stroke="#263238" stroke-width="0.4" stroke-linecap="round" stroke-linejoin="round"/>
<path opacity="0.3" d="M163.9 145.908H164.692V146.7H163.9V145.908Z" fill="white" stroke="#263238" stroke-width="0.4" stroke-linecap="round" stroke-linejoin="round"/>
<path opacity="0.3" d="M163.024 146.78H163.816V147.572H163.024V146.78Z" fill="white" stroke="#263238" stroke-width="0.4" stroke-linecap="round" stroke-linejoin="round"/>
<path opacity="0.3" d="M143.388 144.156H144.18V144.948H143.388V144.156Z" fill="white" stroke="#263238" stroke-width="0.4" stroke-linecap="round" stroke-linejoin="round"/>
<path opacity="0.3" d="M144.264 145.032H145.056V145.824H144.264V145.032Z" fill="white" stroke="#263238" stroke-width="0.4" stroke-linecap="round" stroke-linejoin="round"/>
<path opacity="0.3" d="M145.14 145.908H145.932V146.7H145.14V145.908Z" fill="white" stroke="#263238" stroke-width="0.4" stroke-linecap="round" stroke-linejoin="round"/>
<path opacity="0.3" d="M146.012 146.78H146.804V147.572H146.012V146.78Z" fill="white" stroke="#263238" stroke-width="0.4" stroke-linecap="round" stroke-linejoin="round"/>
<path opacity="0.3" d="M161.808 146.78H162.6V147.572H161.808V146.78Z" fill="white" stroke="#263238" stroke-width="0.4" stroke-linecap="round" stroke-linejoin="round"/>
<path opacity="0.3" d="M160.596 146.78H161.388V147.572H160.596V146.78Z" fill="white" stroke="#263238" stroke-width="0.4" stroke-linecap="round" stroke-linejoin="round"/>
<path opacity="0.3" d="M159.38 146.78H160.172V147.572H159.38V146.78Z" fill="white" stroke="#263238" stroke-width="0.4" stroke-linecap="round" stroke-linejoin="round"/>
<path opacity="0.3" d="M158.164 146.78H158.956V147.572H158.164V146.78Z" fill="white" stroke="#263238" stroke-width="0.4" stroke-linecap="round" stroke-linejoin="round"/>
<path opacity="0.3" d="M156.948 146.78H157.74V147.572H156.948V146.78Z" fill="white" stroke="#263238" stroke-width="0.4" stroke-linecap="round" stroke-linejoin="round"/>
<path opacity="0.3" d="M155.736 146.78H156.528V147.572H155.736V146.78Z" fill="white" stroke="#263238" stroke-width="0.4" stroke-linecap="round" stroke-linejoin="round"/>
<path opacity="0.3" d="M154.52 146.78H155.312V147.572H154.52V146.78Z" fill="white" stroke="#263238" stroke-width="0.4" stroke-linecap="round" stroke-linejoin="round"/>
<path opacity="0.3" d="M153.304 146.78H154.096V147.572H153.304V146.78Z" fill="white" stroke="#263238" stroke-width="0.4" stroke-linecap="round" stroke-linejoin="round"/>
<path opacity="0.3" d="M152.088 146.78H152.88V147.572H152.088V146.78Z" fill="white" stroke="#263238" stroke-width="0.4" stroke-linecap="round" stroke-linejoin="round"/>
<path opacity="0.3" d="M150.872 146.78H151.664V147.572H150.872V146.78Z" fill="white" stroke="#263238" stroke-width="0.4" stroke-linecap="round" stroke-linejoin="round"/>
<path opacity="0.3" d="M149.66 146.78H150.452V147.572H149.66V146.78Z" fill="white" stroke="#263238" stroke-width="0.4" stroke-linecap="round" stroke-linejoin="round"/>
<path opacity="0.3" d="M148.444 146.78H149.236V147.572H148.444V146.78Z" fill="white" stroke="#263238" stroke-width="0.4" stroke-linecap="round" stroke-linejoin="round"/>
<path opacity="0.3" d="M147.228 146.78H148.02V147.572H147.228V146.78Z" fill="white" stroke="#263238" stroke-width="0.4" stroke-linecap="round" stroke-linejoin="round"/>
<path d="M135.024 152.364H170.264L170.736 148.588C170.952 150.664 171.048 152.876 171.092 154.692L170.968 155.196L170.264 153.78H167.24L169.128 155.336H141.128L142.132 153.78H135.044L133.064 154.912H131.648V147.712L135.024 152.364Z" fill="#263238" stroke="#263238" stroke-width="0.4" stroke-linecap="round" stroke-linejoin="round"/>
<path d="M107.348 137.648H106.169C106.293 135.912 106.788 132.088 108.732 128.872H109.932C109.232 130.352 107.616 134.164 107.348 137.648Z" fill="#263238" stroke="#263238" stroke-width="0.4" stroke-linecap="round" stroke-linejoin="round"/>
<path d="M132.868 131.256L132.436 132.456C132.967 132.964 133.278 133.661 133.3 134.396V137.664H135.952L133.732 131.264L132.868 131.256ZM145.268 132.856C147.088 133.964 149.84 136.408 151.172 137.632H142.308L137.72 130.592L140.74 130.808C142.333 131.295 143.855 131.989 145.268 132.872V132.856ZM126.936 132L128.016 131.784H129.524L129.956 132.216C129.956 132.216 128.876 132.324 128.756 132.972C128.682 133.616 128.646 134.264 128.648 134.912H127.892C127.892 134.912 127.892 133.712 127.352 133.188C127.047 132.88 126.722 132.591 126.38 132.324L126.936 132Z" fill="#525252" stroke="#263238" stroke-width="0.4" stroke-linecap="round" stroke-linejoin="round"/>
<path d="M113.78 136.86H113.956C114.13 136.86 114.302 136.818 114.456 136.739C114.611 136.66 114.745 136.545 114.847 136.404C114.949 136.264 115.016 136.1 115.043 135.929C115.069 135.757 115.055 135.581 115 135.416C114.78 134.74 114.408 134.056 113.78 133.952C112.488 133.736 108.928 134.812 108.928 135.552C108.928 136.292 108.928 136.628 109.36 136.628H112.056L114.2 139.02L114.248 138.98C114.359 138.886 114.449 138.77 114.51 138.638C114.571 138.507 114.603 138.363 114.603 138.218C114.603 138.073 114.571 137.929 114.51 137.798C114.449 137.666 114.359 137.549 114.248 137.456C114.06 137.285 113.902 137.083 113.78 136.86Z" fill="white" stroke="#263238" stroke-width="0.4" stroke-linecap="round" stroke-linejoin="round"/>
<path d="M114.26 138.98L114.212 139.02L112.056 136.644H109.36C109.004 136.644 108.96 136.42 108.932 135.916H115.04C115.004 136.178 114.874 136.418 114.675 136.592C114.476 136.765 114.22 136.861 113.956 136.86H113.78C113.905 137.084 114.067 137.286 114.26 137.456C114.371 137.55 114.46 137.666 114.522 137.798C114.583 137.929 114.615 138.073 114.615 138.218C114.615 138.363 114.583 138.507 114.522 138.638C114.46 138.77 114.371 138.887 114.26 138.98Z" fill="#263238" stroke="#263238" stroke-width="0.4" stroke-linecap="round" stroke-linejoin="round"/>
<path d="M107.6 140.252H110.028V140.772H107.6V140.252Z" fill="#263238" stroke="#263238" stroke-width="0.4" stroke-linecap="round" stroke-linejoin="round"/>
<path d="M96.6804 140.252H99.1084V140.772H96.6804V140.252Z" fill="#263238" stroke="#263238" stroke-width="0.4" stroke-linecap="round" stroke-linejoin="round"/>
<path d="M96.5081 138.172C96.5081 138.172 94.7521 139.372 93.7321 143.548C93.7321 143.548 98.0681 144.068 98.0681 156.028" stroke="#263238" stroke-width="0.4" stroke-linecap="round" stroke-linejoin="round"/>
<path d="M98.5996 156.548H116.78C116.78 156.815 116.78 157.095 116.78 157.388C116.78 157.788 116.78 158.188 116.804 158.588H96.3836C96.3836 158.188 96.4036 157.788 96.4036 157.388C96.4036 157.36 96.4036 157.332 96.4036 157.304L98.5996 156.548Z" fill="#263238" stroke="#263238" stroke-width="0.4" stroke-linecap="round" stroke-linejoin="round"/>
<path d="M128.232 157.388C128.232 157.108 128.232 156.828 128.232 156.548H171.12C171.12 157.796 171.12 158.592 171.12 158.592H128.2C128.224 158.196 128.232 157.796 128.232 157.388Z" fill="#263238" stroke="#263238" stroke-width="0.4" stroke-linecap="round" stroke-linejoin="round"/>
<path d="M89.368 139.2C89.5838 139.2 89.796 139.256 89.9836 139.363C90.1711 139.47 90.3277 139.624 90.4378 139.809C90.548 139.995 90.608 140.206 90.6119 140.422C90.6157 140.638 90.5634 140.851 90.46 141.04L88.608 144.436V139.76C88.6102 139.575 88.6371 139.39 88.688 139.212H89.368V139.2Z" fill="#263238" stroke="#263238" stroke-width="0.4" stroke-linecap="round" stroke-linejoin="round"/>
<path d="M106.016 139.448C106.016 139.448 102.136 145.048 106.016 154.544" stroke="#263238" stroke-width="0.4" stroke-linecap="round" stroke-linejoin="round"/>
<path d="M-30.1759 59.4521H0.164062V164.392H-30.1759V59.4521Z" fill="#919191" stroke="#263238" stroke-width="0.4" stroke-miterlimit="10"/>
<path d="M-30.1759 59.4521H0.164062V135.5H-30.1759V59.4521Z" fill="white" stroke="#263238" stroke-width="0.4" stroke-linecap="round" stroke-linejoin="round"/>
<path d="M-30.1759 88.5322H0.164062V106.376H-30.1759V88.5322Z" fill="#263238" stroke="#263238" stroke-width="0.4" stroke-miterlimit="10"/>
<path d="M226.34 164.392H-53.9282" stroke="#263238" stroke-width="0.4" stroke-miterlimit="10"/>
</svg>
