<svg width="386" height="186" viewBox="0 0 386 186" fill="none" xmlns="http://www.w3.org/2000/svg">
<g clip-path="url(#clip0_6123_56989)">
<rect x="0.0751953" y="0.0751953" width="385.849" height="185.849" rx="10" fill="white"/>
<g clip-path="url(#clip1_6123_56989)">
<path d="M206.046 95.7122L197.169 92.7146L192.731 97.4622L184.317 91.213L180.812 93.7138L175.91 88.4639L163.296 100.708L161.192 95.9606" stroke="#263238" stroke-width="0.552043" stroke-linecap="round" stroke-linejoin="round"/>
<path d="M199.64 180.885H196.968V170.104C196.914 168.082 196.073 166.161 194.623 164.75C193.174 163.339 191.231 162.549 189.209 162.549C187.186 162.549 185.243 163.339 183.794 164.75C182.345 166.161 181.504 168.082 181.45 170.104V180.885H178.778V170.104C178.841 167.379 179.967 164.787 181.916 162.882C183.866 160.977 186.483 159.91 189.209 159.91C191.934 159.91 194.552 160.977 196.501 162.882C198.45 164.787 199.577 167.379 199.64 170.104V180.885Z" fill="#BDBDBD" stroke="#263238" stroke-width="0.552043" stroke-miterlimit="10"/>
<path d="M222.379 176.15H204.891L204.891 49.0094H222.379V176.15Z" fill="#919191" stroke="#263238" stroke-width="0.552043" stroke-miterlimit="10"/>
<path d="M222.376 176.15H214.725L214.725 49.0094H222.376L222.376 176.15Z" fill="white" stroke="#263238" stroke-width="0.552043" stroke-miterlimit="10"/>
<path d="M222.379 57.9756H204.891V47.9118H222.379V57.9756Z" fill="#263238" stroke="#263238" stroke-width="0.552043" stroke-miterlimit="10"/>
<path d="M222.376 57.9756H214.725V47.9118H222.376V57.9756Z" fill="#263238" stroke="#263238" stroke-width="0.552043" stroke-miterlimit="10"/>
<path d="M225.825 176.349H222.353V111.34H225.825V176.349Z" fill="#FD7E50" stroke="#263238" stroke-width="0.552043" stroke-miterlimit="10"/>
<path d="M232.398 176.349H224.178V111.34H232.398V176.349Z" fill="#FD7E50" stroke="#263238" stroke-width="0.552043" stroke-miterlimit="10"/>
<path d="M245.332 176.349H224.885V132.036H245.332V176.349Z" fill="white" stroke="#263238" stroke-width="0.552043" stroke-linecap="round" stroke-linejoin="round"/>
<path d="M245.332 159.254H224.885V132.044H245.332V159.254Z" fill="#FD7E50" stroke="#263238" stroke-width="0.552043" stroke-miterlimit="10"/>
<path d="M245.332 141.623H224.885V132.034H245.332V141.623Z" fill="#FD7E50" stroke="#263238" stroke-width="0.552043" stroke-miterlimit="10"/>
<path d="M245.332 145.902H224.885V141.547H245.332V145.902Z" fill="#FD7E50" stroke="#263238" stroke-width="0.552043" stroke-miterlimit="10"/>
<path d="M248.255 176.349H244.782V111.34H248.255V176.349Z" fill="#FD7E50" stroke="#263238" stroke-width="0.552043" stroke-miterlimit="10"/>
<path d="M254.836 176.349H246.616V111.34H254.836V176.349Z" fill="#FD7E50" stroke="#263238" stroke-width="0.552043" stroke-miterlimit="10"/>
<path d="M258.008 112.361H219.801V108.398H258.008V112.361Z" fill="#FD7E50" stroke="#263238" stroke-width="0.552043" stroke-linecap="round" stroke-linejoin="round"/>
<path d="M258.002 112.359H248.59V108.396H258.002V112.359Z" fill="#FD7E50" stroke="#263238" stroke-width="0.552043" stroke-linecap="round" stroke-linejoin="round"/>
<path d="M258.008 176.355H219.801V175.196H258.008V176.355Z" fill="white" stroke="#263238" stroke-width="0.552043" stroke-miterlimit="10"/>
<path d="M258.002 176.356H248.59V175.197H258.002V176.356Z" fill="white" stroke="#263238" stroke-width="0.552043" stroke-miterlimit="10"/>
<path d="M239.086 139.146H230.275V133.361H239.086V139.146Z" fill="#263238" stroke="#263238" stroke-width="0.552043" stroke-miterlimit="10"/>
<path d="M237.185 137.909H232.15V134.602H237.185V137.909Z" fill="#FD7E50" stroke="#263238" stroke-width="0.552043" stroke-miterlimit="10"/>
<path d="M239.086 134.062H230.275V133.371H239.086V134.062Z" fill="white" stroke="#263238" stroke-width="0.552043" stroke-miterlimit="10"/>
<path d="M232.744 144.666H227.234V142.325H232.744V144.666Z" fill="white" stroke="#263238" stroke-width="0.552043" stroke-miterlimit="10"/>
<path d="M232.744 143.425H227.234V142.321H232.744V143.425Z" fill="white" stroke="#263238" stroke-width="0.552043" stroke-miterlimit="10"/>
<path d="M242.517 144.666H237.008V142.325H242.517V144.666Z" fill="white" stroke="#263238" stroke-width="0.552043" stroke-miterlimit="10"/>
<path d="M242.517 143.425H237.008V142.321H242.517V143.425Z" fill="white" stroke="#263238" stroke-width="0.552043" stroke-miterlimit="10"/>
<path d="M252.835 150.884H248.59V135.416H252.835V150.884Z" fill="white" stroke="#263238" stroke-width="0.552043" stroke-miterlimit="10"/>
<path d="M252.837 150.884H249.68V135.416H252.837V150.884Z" fill="white" stroke="#263238" stroke-width="0.552043" stroke-miterlimit="10"/>
<path d="M252.164 150.188H250.348V136.116H252.164V150.188Z" fill="white" stroke="#263238" stroke-width="0.552043" stroke-miterlimit="10"/>
<path d="M247.946 145.971H246.775V144.171H247.946V145.971Z" fill="white" stroke="#263238" stroke-width="0.552043" stroke-miterlimit="10"/>
<path d="M263.486 180.883H160.441V176.235H263.486V180.883Z" fill="#919191" stroke="#263238" stroke-width="0.552043" stroke-miterlimit="10"/>
<path d="M263.489 180.883H250.786V176.235H263.489V180.883Z" fill="#BDBDBD" stroke="#263238" stroke-width="0.552043" stroke-miterlimit="10"/>
<path d="M38.5576 180.886H35.8857V170.105C35.8857 168.048 35.0686 166.075 33.614 164.62C32.1594 163.166 30.1866 162.349 28.1295 162.349C26.0725 162.349 24.0996 163.166 22.6451 164.62C21.1905 166.075 20.3733 168.048 20.3733 170.105V180.886H17.7014V170.105C17.7014 167.339 18.8001 164.687 20.7557 162.731C22.7114 160.775 25.3638 159.677 28.1295 159.677C30.8952 159.677 33.5477 160.775 35.5033 162.731C37.459 164.687 38.5576 167.339 38.5576 170.105V180.886Z" fill="#BDBDBD" stroke="#263238" stroke-width="0.552043" stroke-miterlimit="10"/>
<path d="M61.2895 176.15H43.8008L43.8008 49.0094H61.2895L61.2895 176.15Z" fill="#919191" stroke="#263238" stroke-width="0.552043" stroke-miterlimit="10"/>
<path d="M61.2832 176.15H53.6318L53.6318 49.0094H61.2832L61.2832 176.15Z" fill="white" stroke="#263238" stroke-width="0.552043" stroke-miterlimit="10"/>
<path d="M61.2895 59.0645H43.8008V49.0007H61.2895V59.0645Z" fill="#263238" stroke="#263238" stroke-width="0.552043" stroke-miterlimit="10"/>
<path d="M61.2832 59.0645H53.6318V49.0007H61.2832V59.0645Z" fill="#263238" stroke="#263238" stroke-width="0.552043" stroke-miterlimit="10"/>
<path d="M64.7458 176.349H61.2734L61.2734 111.34H64.7458L64.7458 176.349Z" fill="#BDBDBD" stroke="#263238" stroke-width="0.552043" stroke-miterlimit="10"/>
<path d="M71.3069 176.349H63.0869L63.0869 111.34H71.3069V176.349Z" fill="white" stroke="#263238" stroke-width="0.552043" stroke-miterlimit="10"/>
<path d="M84.2612 176.349H63.8135L63.8135 132.036H84.2612V176.349Z" fill="white" stroke="#263238" stroke-width="0.552043" stroke-linecap="round" stroke-linejoin="round"/>
<path d="M84.2612 159.254H63.8135V132.044H84.2612V159.254Z" fill="#263238" stroke="#263238" stroke-width="0.552043" stroke-miterlimit="10"/>
<path d="M84.2612 141.623H63.8135V132.034H84.2612V141.623Z" fill="#BDBDBD" stroke="#263238" stroke-width="0.552043" stroke-miterlimit="10"/>
<path d="M84.2612 145.896H63.8135V141.541H84.2612V145.896Z" fill="white" stroke="#263238" stroke-width="0.552043" stroke-miterlimit="10"/>
<path d="M87.1852 176.349H83.7129L83.7129 111.34H87.1852L87.1852 176.349Z" fill="#BDBDBD" stroke="#263238" stroke-width="0.552043" stroke-miterlimit="10"/>
<path d="M93.759 176.349H85.5391L85.5391 111.34H93.759V176.349Z" fill="white" stroke="#263238" stroke-width="0.552043" stroke-miterlimit="10"/>
<path d="M96.9257 112.359H58.7188V108.396H96.9257V112.359Z" fill="white" stroke="#263238" stroke-width="0.552043" stroke-linecap="round" stroke-linejoin="round"/>
<path d="M96.9309 112.359H87.5186V108.396H96.9309V112.359Z" fill="white" stroke="#263238" stroke-width="0.552043" stroke-linecap="round" stroke-linejoin="round"/>
<path d="M96.9257 176.356H58.7188V175.197H96.9257V176.356Z" fill="white" stroke="#263238" stroke-width="0.552043" stroke-miterlimit="10"/>
<path d="M96.9309 176.356H87.5186V175.197H96.9309V176.356Z" fill="white" stroke="#263238" stroke-width="0.552043" stroke-miterlimit="10"/>
<path d="M77.9854 139.145H69.1748V133.359H77.9854V139.145Z" fill="#263238" stroke="#263238" stroke-width="0.552043" stroke-miterlimit="10"/>
<path d="M76.0991 137.909H71.0645V134.602H76.0991V137.909Z" fill="white" stroke="#263238" stroke-width="0.552043" stroke-miterlimit="10"/>
<path d="M77.9854 134.062H69.1748V133.371H77.9854V134.062Z" fill="white" stroke="#263238" stroke-width="0.552043" stroke-miterlimit="10"/>
<path d="M71.6608 144.666H66.1514V142.325H71.6608V144.666Z" fill="white" stroke="#263238" stroke-width="0.552043" stroke-miterlimit="10"/>
<path d="M71.6608 143.425H66.1514V142.321H71.6608V143.425Z" fill="white" stroke="#263238" stroke-width="0.552043" stroke-miterlimit="10"/>
<path d="M81.443 144.666H75.9336V142.325H81.443V144.666Z" fill="white" stroke="#263238" stroke-width="0.552043" stroke-miterlimit="10"/>
<path d="M81.443 143.425H75.9336V142.321H81.443V143.425Z" fill="white" stroke="#263238" stroke-width="0.552043" stroke-miterlimit="10"/>
<path d="M91.7638 150.884H87.5186V135.416H91.7638V150.884Z" fill="white" stroke="#263238" stroke-width="0.552043" stroke-miterlimit="10"/>
<path d="M91.7534 150.884H88.5957V135.416H91.7534V150.884Z" fill="white" stroke="#263238" stroke-width="0.552043" stroke-miterlimit="10"/>
<path d="M91.0887 150.188H89.2725V136.116H91.0887V150.188Z" fill="white" stroke="#263238" stroke-width="0.552043" stroke-miterlimit="10"/>
<path d="M89.4304 136.144C91.3846 137.397 92.4943 140.659 92.5439 140.808L91.8484 141.04C91.8484 141.007 90.932 138.341 89.4304 137.054V136.144Z" fill="white" stroke="#263238" stroke-width="0.552043" stroke-miterlimit="10"/>
<path d="M90.1192 137.988C90.1027 137.987 90.0866 137.983 90.0717 137.976C90.0569 137.969 90.0436 137.959 90.0328 137.946C90.0219 137.934 90.0137 137.919 90.0086 137.904C90.0036 137.888 90.0017 137.871 90.0032 137.855L90.0695 136.69C90.0702 136.674 90.074 136.659 90.0808 136.644C90.0876 136.63 90.0971 136.617 90.1089 136.606C90.1207 136.595 90.1345 136.587 90.1495 136.581C90.1645 136.576 90.1805 136.574 90.1964 136.574C90.2124 136.575 90.2281 136.579 90.2425 136.586C90.257 136.592 90.27 136.602 90.2807 136.614C90.2915 136.626 90.2998 136.639 90.3053 136.654C90.3107 136.669 90.3131 136.685 90.3124 136.701L90.2461 137.872C90.2462 137.888 90.2429 137.904 90.2364 137.919C90.2299 137.934 90.2203 137.947 90.2084 137.958C90.1964 137.969 90.1823 137.977 90.1669 137.982C90.1515 137.987 90.1353 137.989 90.1192 137.988Z" fill="white" stroke="#263238" stroke-width="0.276021" stroke-miterlimit="10"/>
<path d="M90.9606 139.027C90.9446 139.027 90.9289 139.023 90.9141 139.017C90.8994 139.011 90.886 139.002 90.8747 138.991C90.8634 138.98 90.8545 138.966 90.8484 138.952C90.8423 138.937 90.8391 138.921 90.8391 138.905V137.735C90.8391 137.719 90.8423 137.703 90.8484 137.688C90.8545 137.674 90.8634 137.66 90.8747 137.649C90.886 137.638 90.8994 137.629 90.9141 137.623C90.9289 137.616 90.9446 137.613 90.9606 137.613C90.9765 137.613 90.9923 137.616 91.0071 137.623C91.0218 137.629 91.0352 137.638 91.0465 137.649C91.0577 137.66 91.0667 137.674 91.0728 137.688C91.0789 137.703 91.082 137.719 91.082 137.735V138.905C91.082 138.921 91.0789 138.937 91.0728 138.952C91.0667 138.966 91.0577 138.98 91.0465 138.991C91.0352 139.002 91.0218 139.011 91.0071 139.017C90.9923 139.023 90.9765 139.027 90.9606 139.027Z" fill="white" stroke="#263238" stroke-width="0.276021" stroke-miterlimit="10"/>
<path d="M91.5437 140.312C91.5119 140.305 91.4839 140.286 91.4654 140.26C91.4469 140.233 91.4394 140.2 91.4443 140.168L91.7093 138.932C91.7119 138.916 91.7177 138.9 91.7265 138.887C91.7353 138.873 91.7468 138.862 91.7603 138.853C91.7738 138.844 91.789 138.838 91.805 138.836C91.8209 138.833 91.8372 138.834 91.8528 138.838C91.8843 138.844 91.9118 138.863 91.9294 138.89C91.947 138.917 91.9532 138.95 91.9467 138.981L91.6872 140.218C91.6794 140.249 91.6603 140.275 91.6337 140.293C91.6071 140.31 91.575 140.317 91.5437 140.312Z" fill="white" stroke="#263238" stroke-width="0.276021" stroke-miterlimit="10"/>
<path d="M91.8713 144.234C91.8713 144.234 92.197 147.353 92.1308 147.613C92.0645 147.872 90.6347 148.198 90.6347 148.198" stroke="#263238" stroke-width="0.552043" stroke-miterlimit="10"/>
<path d="M93.6472 149.613L91.3121 149.061C91.0195 148.986 90.7631 148.81 90.5891 148.563C90.4151 148.316 90.3347 148.015 90.3626 147.714L90.7104 144.363L91.4446 144.441L91.0913 147.791C91.086 147.914 91.1217 148.035 91.1927 148.135C91.2637 148.235 91.3659 148.308 91.4832 148.344L93.8184 148.896L93.6472 149.613Z" fill="black"/>
<path d="M92.7411 149.129L93.7119 149.24L93.4991 151.105L92.5283 150.994L92.7411 149.129Z" fill="black" stroke="#263238" stroke-width="0.552043" stroke-miterlimit="10"/>
<path d="M93.3183 144.154L94.2891 144.265L93.7201 149.25L92.7493 149.14L93.3183 144.154Z" fill="white" stroke="#263238" stroke-width="0.552043" stroke-miterlimit="10"/>
<path d="M92.6668 140.245L91.2204 140.908L91.4026 141.686L90.3206 142.409L90.6187 144.391L94.2898 145.357L95.1289 144.391L94.472 141.145L93.0863 140.908L92.6668 140.245Z" fill="white" stroke="#263238" stroke-width="0.552043" stroke-miterlimit="10"/>
<path d="M93.7488 141.625L92.1865 141.327L91.8332 140.626L92.6668 140.245L93.0863 140.908L94.472 141.145L95.1289 144.391L94.4664 145.153L93.7488 141.625Z" fill="white" stroke="#263238" stroke-width="0.552043" stroke-miterlimit="10"/>
<path d="M95.9877 120.956C95.2976 114.922 93.0894 113.642 91.3339 113.642H91.2788C90.7245 113.646 90.1773 113.767 89.6731 113.997C89.1689 114.227 88.719 114.561 88.3529 114.978C85.3719 118.19 85.7859 126.245 85.8135 126.769V145.136C85.806 145.208 85.8138 145.281 85.8363 145.35C85.8589 145.419 85.8957 145.483 85.9443 145.537C85.993 145.591 86.0524 145.634 86.1188 145.663C86.1852 145.693 86.257 145.708 86.3297 145.708C86.4023 145.708 86.4742 145.693 86.5406 145.663C86.6069 145.634 86.6664 145.591 86.715 145.537C86.7637 145.483 86.8005 145.419 86.823 145.35C86.8456 145.281 86.8533 145.208 86.8458 145.136V126.725C86.8458 126.642 86.3876 118.61 89.1092 115.684C89.3835 115.368 89.7228 115.115 90.1038 114.941C90.4848 114.768 90.8988 114.679 91.3174 114.679H91.3505C93.7464 114.679 94.6628 118.152 94.9885 121.078C95.3074 123.975 95.147 126.905 94.5137 129.75L93.7298 133.355V138.213L95.5239 129.971C96.1762 127.012 96.3329 123.966 95.9877 120.956Z" fill="#263238"/>
<path d="M86.8695 145.971H85.6992V144.171H86.8695V145.971Z" fill="white" stroke="#263238" stroke-width="0.552043" stroke-miterlimit="10"/>
<path d="M95.6282 165.93C94.5241 163.789 93.2268 161.36 93.2268 158.467C93.2268 154.051 93.5856 150.462 93.5856 150.424L92.5588 150.324C92.5588 150.357 92.1945 153.995 92.1945 158.467C92.1945 161.619 93.5967 164.274 94.7173 166.411C95.6006 168.094 96.3734 169.552 96.0588 170.551C96.0088 170.796 95.9038 171.027 95.7518 171.226C95.5997 171.425 95.4046 171.587 95.181 171.699C94.6797 171.845 94.1422 171.797 93.6739 171.567V172.671C93.9956 172.772 94.3304 172.826 94.6676 172.831C94.9736 172.834 95.2773 172.778 95.5619 172.665C95.9305 172.5 96.2559 172.251 96.5125 171.939C96.7692 171.627 96.9502 171.259 97.0414 170.866C97.483 169.453 96.6219 167.818 95.6282 165.93Z" fill="black"/>
<path d="M126.44 180.883H23.3955V176.235H126.44V180.883Z" fill="#919191" stroke="#263238" stroke-width="0.552043" stroke-miterlimit="10"/>
<path d="M126.437 180.883H113.734V176.235H126.437V180.883Z" fill="#BDBDBD" stroke="#263238" stroke-width="0.552043" stroke-miterlimit="10"/>
<path d="M2.25659 31.8789H203.741V53.0056H2.25659V31.8789Z" fill="#263238" stroke="#263238" stroke-width="0.552043" stroke-miterlimit="10"/>
<path d="M270.943 53.1963L113.896 53.1963V32.1565L270.943 32.1565V53.1963Z" fill="white" stroke="#263238" stroke-width="0.552043" stroke-linecap="round" stroke-linejoin="round"/>
<path d="M114.226 52.9984V32.7881L161.078 44.53C167.67 46.1846 174.612 45.7584 180.952 43.31L191.197 39.3629C195.918 37.5428 201.071 37.1587 206.009 38.2588L272.254 52.9818L114.226 52.9984Z" fill="#2F945A" stroke="#263238" stroke-width="0.552043" stroke-miterlimit="10"/>
<path d="M199.401 176.366C199.401 176.366 200.544 178.756 200.34 179.253C200.136 179.75 198.805 179.728 198.805 179.728L198.75 176.471C198.75 176.471 199.048 175.604 199.401 176.366Z" fill="white" stroke="#263238" stroke-width="0.552043" stroke-linecap="round" stroke-linejoin="round"/>
<path d="M196.261 178.129C196.261 178.129 194.82 179.018 194.411 179.233C194.003 179.449 192.281 179.813 192.247 180.177C192.214 180.542 193.904 180.779 194.77 180.901C196.382 180.854 197.985 180.635 199.551 180.249C199.722 180.117 199.082 177.931 199.082 177.931L196.261 178.129Z" fill="white" stroke="#263238" stroke-width="0.552043" stroke-linecap="round" stroke-linejoin="round"/>
<path d="M190.61 146.846C190.61 146.846 191.36 159.703 191.305 161.392C191.25 163.082 191.857 164.252 191.907 164.732C191.957 165.213 195.986 175.171 195.986 175.171L196.754 177.468L198.327 175.061L196.671 163.783L198.327 147.133L194.126 146.581L190.61 146.846Z" fill="#525252" stroke="#263238" stroke-width="0.552043" stroke-linecap="round" stroke-linejoin="round"/>
<path d="M203.809 147.212C203.809 147.212 202.881 152.771 201.91 155.134C200.938 157.497 199.701 163.862 199.701 163.862C199.701 163.862 200.474 167.064 199.966 168.366C199.459 169.669 199.414 176.791 199.414 176.791C199.475 177.207 199.504 177.628 199.503 178.049C199.464 178.298 199.431 178.717 199.431 178.717C199.431 178.717 198.211 178.507 197.775 178.474C197.339 178.441 195.887 178.193 195.887 178.193C195.887 178.193 195.821 177.293 195.721 176.757C195.622 176.222 195.981 175.35 195.97 175.168C195.959 174.985 195.368 170.265 195.368 170.265C195.368 170.265 194.485 163.873 194.396 162.675C194.308 161.477 195.677 148.703 195.677 148.703C195.677 148.703 199.475 146.196 200.91 146.031C202.346 145.865 203.809 147.212 203.809 147.212Z" fill="#525252" stroke="#263238" stroke-width="0.552043" stroke-linecap="round" stroke-linejoin="round"/>
<path d="M199.482 124.343C199.482 124.343 204.776 127.313 204.798 127.6C204.821 127.887 203.744 139.381 203.744 139.381C203.744 139.381 204.407 145.934 204.456 146.646C204.482 147.157 204.471 147.67 204.423 148.18L201.398 146.773C201.398 146.773 196.06 149.124 195.325 149.274L193.907 149.566L193.189 148.274L193.117 149.93C192.501 149.472 191.934 148.952 191.422 148.379L190.263 146.883L190.782 139.563C190.782 139.563 191.334 129.974 191.273 129.45C191.213 128.925 191.908 126.093 192.378 125.718C193.219 125.284 194.092 124.915 194.989 124.614L198.693 123.874L199.482 124.343Z" fill="white" stroke="#263238" stroke-width="0.552043" stroke-linecap="round" stroke-linejoin="round"/>
<path d="M200.26 118.632C200.145 119.154 199.959 119.657 199.708 120.128C199.404 120.548 198.559 121.785 198.559 121.785L196.683 120.681L197.03 117.401L200.26 118.632Z" fill="#263238" stroke="#263238" stroke-width="0.552043" stroke-linecap="round" stroke-linejoin="round"/>
<path d="M198.845 120.277L199.16 123.644L195.39 126.134L194.727 123.594L197.89 119.675L198.845 120.277Z" fill="#FFBE9D" stroke="#263238" stroke-width="0.552043" stroke-linecap="round" stroke-linejoin="round"/>
<path d="M196.615 122.994L195.246 124.888L194.882 123.888L196.615 122.994Z" fill="#263238"/>
<path d="M192.178 116.769L192.283 118.866L192.559 119.374L192.509 121.345L192.868 121.654C192.868 121.654 193.42 123.31 193.525 123.476C193.785 123.731 194.076 123.952 194.392 124.133C194.585 124.21 196.517 123.112 196.821 122.659C197.124 122.206 197.467 121.654 197.467 121.654L197.406 120.175L197.544 117.414L192.178 116.769Z" fill="#FFBE9D" stroke="#263238" stroke-width="0.552043" stroke-linecap="round" stroke-linejoin="round"/>
<path d="M193.812 119.532V120.084C193.941 120.147 194.084 120.173 194.227 120.16C194.37 120.148 194.507 120.097 194.623 120.013" stroke="#263238" stroke-width="0.552043" stroke-linecap="round" stroke-linejoin="round"/>
<path d="M193.571 122.405C193.571 122.405 193.753 122.444 194.156 122.185" stroke="#263238" stroke-width="0.552043" stroke-linecap="round" stroke-linejoin="round"/>
<path d="M195.033 117.939L192.3 118.093L192.173 116.769L195.298 117.624L195.033 117.939Z" fill="#263238"/>
<path d="M193.362 119.286L194.886 119.126" stroke="#263238" stroke-width="0.552043" stroke-linecap="round" stroke-linejoin="round"/>
<path d="M192.863 121.662L193.873 121.734" stroke="#263238" stroke-width="0.552043" stroke-linecap="round" stroke-linejoin="round"/>
<path d="M191.839 116.681C191.839 116.681 192.131 114.699 192.805 114.075C193.478 113.451 196.995 112.943 197.343 113.109C197.69 113.274 198.314 113.589 198.314 113.589C198.743 113.828 199.148 114.107 199.523 114.423C199.803 114.624 200.033 114.887 200.196 115.192C200.358 115.496 200.449 115.833 200.462 116.178C200.467 117.001 200.398 117.824 200.257 118.635L191.839 116.681Z" fill="#2F945A" stroke="#263238" stroke-width="0.552043" stroke-linecap="round" stroke-linejoin="round"/>
<path d="M199.397 122.527L196.244 123.957L195.273 126.469L200.004 124.255L199.397 122.527Z" fill="white" stroke="#263238" stroke-width="0.552043" stroke-linecap="round" stroke-linejoin="round"/>
<path d="M197.235 119.713C197.235 119.713 197.594 118.322 198.339 118.802C199.085 119.282 198.218 120.8 198.097 121.01C197.975 121.22 197.545 121.253 197.307 120.767" fill="#FFBE9D"/>
<path d="M197.235 119.713C197.235 119.713 197.594 118.322 198.339 118.802C199.085 119.282 198.218 120.8 198.097 121.01C197.975 121.22 197.545 121.253 197.307 120.767" stroke="#263238" stroke-width="0.552043" stroke-linecap="round" stroke-linejoin="round"/>
<path d="M196.388 117.696C196.388 117.696 194.594 118.568 193.302 118.485C191.844 118.386 188.808 118.033 189.548 117.453C190.409 117.166 191.289 116.937 192.181 116.769C192.181 116.769 195.3 117.21 196.388 117.696Z" fill="#2F945A" stroke="#263238" stroke-width="0.552043" stroke-linecap="round" stroke-linejoin="round"/>
<path d="M176.227 144.285C177.938 142.712 181.377 142.48 181.532 142.469L181.576 143.203C181.543 143.203 178.733 143.391 177.105 144.517L176.227 144.285Z" fill="white" stroke="#263238" stroke-width="0.552043" stroke-miterlimit="10"/>
<path d="M178.176 144.08C178.171 144.095 178.163 144.11 178.152 144.122C178.142 144.134 178.129 144.144 178.114 144.151C178.1 144.158 178.084 144.163 178.068 144.164C178.052 144.165 178.036 144.163 178.021 144.157L176.917 143.799C176.887 143.787 176.862 143.765 176.848 143.737C176.834 143.708 176.831 143.675 176.84 143.644C176.85 143.613 176.872 143.587 176.9 143.572C176.929 143.556 176.963 143.553 176.994 143.561L178.098 143.926C178.128 143.937 178.153 143.959 178.167 143.988C178.182 144.016 178.185 144.049 178.176 144.08Z" fill="white" stroke="#263238" stroke-width="0.276021" stroke-miterlimit="10"/>
<path d="M179.415 143.549C179.406 143.58 179.386 143.606 179.358 143.622C179.33 143.639 179.297 143.644 179.266 143.637L178.134 143.339C178.103 143.33 178.077 143.31 178.061 143.282C178.044 143.254 178.039 143.221 178.046 143.19C178.05 143.174 178.057 143.16 178.066 143.147C178.076 143.134 178.088 143.123 178.102 143.115C178.116 143.106 178.131 143.101 178.147 143.099C178.163 143.097 178.179 143.098 178.195 143.102L179.299 143.4C179.317 143.401 179.334 143.406 179.35 143.414C179.366 143.423 179.379 143.434 179.39 143.449C179.401 143.463 179.409 143.479 179.413 143.496C179.418 143.513 179.418 143.531 179.415 143.549Z" fill="white" stroke="#263238" stroke-width="0.276021" stroke-miterlimit="10"/>
<path d="M180.809 143.308C180.809 143.308 180.809 143.308 180.809 143.336C180.802 143.35 180.792 143.363 180.779 143.373C180.767 143.383 180.752 143.391 180.737 143.395C180.721 143.4 180.705 143.401 180.689 143.4C180.673 143.398 180.658 143.393 180.644 143.386L179.54 142.833C179.51 142.819 179.488 142.793 179.478 142.762C179.467 142.731 179.47 142.697 179.484 142.668C179.499 142.639 179.525 142.616 179.556 142.606C179.587 142.596 179.621 142.598 179.65 142.613L180.754 143.165C180.778 143.179 180.797 143.2 180.807 143.227C180.817 143.253 180.818 143.282 180.809 143.308Z" fill="white" stroke="#263238" stroke-width="0.276021" stroke-miterlimit="10"/>
<path d="M184.673 143.993C184.673 143.993 187.77 144.479 187.985 144.611C188.2 144.744 188.167 146.201 188.167 146.201" stroke="#263238" stroke-width="0.552043" stroke-miterlimit="10"/>
<path d="M190.344 143.657L189.201 145.771C189.052 146.033 188.814 146.233 188.531 146.334C188.247 146.435 187.936 146.431 187.655 146.323L184.509 145.125L184.768 144.441L187.915 145.633C188.032 145.678 188.161 145.68 188.278 145.637C188.396 145.595 188.494 145.511 188.555 145.401L189.698 143.287L190.344 143.657Z" fill="black"/>
<path d="M190.033 143.508L191.781 144.192L191.425 145.102L189.677 144.418L190.033 143.508Z" fill="black" stroke="#263238" stroke-width="0.552043" stroke-miterlimit="10"/>
<path d="M185.353 141.671L190.026 143.5L189.67 144.41L184.997 142.581L185.353 141.671Z" fill="white" stroke="#263238" stroke-width="0.552043" stroke-miterlimit="10"/>
<path d="M181.026 142.194L181.297 143.762L182.097 143.79L182.517 145.021L184.515 145.236L186.387 141.94L185.669 140.88L182.362 140.682L181.777 141.957L181.026 142.194Z" fill="white" stroke="#263238" stroke-width="0.552043" stroke-linecap="round" stroke-linejoin="round"/>
<path d="M182.649 141.506L181.959 142.941L181.186 143.102L181.032 142.196L181.783 141.959L182.368 140.684L185.675 140.882L186.243 141.721L182.649 141.506Z" fill="white" stroke="#263238" stroke-width="0.552043" stroke-linecap="round" stroke-linejoin="round"/>
<path d="M201.134 137.233L200.002 138.927L189.822 143.564L188.128 145.149L186.433 144.58L184.959 144.354L186.77 141.301L190.386 141.191L197.17 136.78L198.191 135.532L201.134 137.233Z" fill="white" stroke="#263238" stroke-width="0.552043" stroke-linecap="round" stroke-linejoin="round"/>
<path d="M204.799 127.603L202.386 138.704L197.07 135.878L200.576 127.961" fill="white"/>
<path d="M204.799 127.603L202.386 138.704L197.07 135.878L200.576 127.961" stroke="#263238" stroke-width="0.552043" stroke-linecap="round" stroke-linejoin="round"/>
<path d="M191.763 144.175C196.234 145.27 200.298 147.62 203.477 150.949C208.021 155.917 212.652 160.792 217.46 165.501C222.948 170.872 227.337 174.466 234.458 177.596C239.526 179.804 247.022 182.012 252.41 179.804C259.211 176.977 257.439 167.344 257.583 161.531C257.87 149.972 257.864 138.379 257.511 126.824C257.467 125.4 257.417 123.976 257.335 122.557C257.213 120.415 257.047 116.22 256.153 114.276C255.458 112.764 253.945 111.974 252.995 112.013C249.761 112.146 248.805 115.916 248.458 119.25C248.11 122.585 247.514 142.878 247.514 142.878" stroke="#263238" stroke-width="1.65613" stroke-linejoin="round"/>
<path d="M207.395 142.883H207.632C207.872 142.883 208.109 142.826 208.323 142.717C208.536 142.607 208.721 142.449 208.862 142.255C209.002 142.06 209.095 141.835 209.131 141.598C209.168 141.361 209.148 141.118 209.073 140.89C208.77 139.957 208.256 139.013 207.417 138.87C205.629 138.572 200.715 140.057 200.715 141.078C200.715 142.099 200.715 142.563 201.312 142.563H205.032L208.008 145.842L208.074 145.787C208.227 145.658 208.351 145.497 208.435 145.315C208.52 145.134 208.563 144.936 208.563 144.735C208.563 144.535 208.52 144.337 208.435 144.155C208.351 143.974 208.227 143.813 208.074 143.684C207.801 143.46 207.571 143.189 207.395 142.883Z" fill="#263238" stroke="#263238" stroke-width="0.552043" stroke-linecap="round" stroke-linejoin="round"/>
<path d="M173.767 170.572H124.359C124.359 170.572 117.215 165.808 118.706 153.304C120.196 140.801 128.229 149.142 131.204 157.472H153.231C153.231 157.472 157.995 147.95 165.729 149.142C173.463 150.334 173.767 170.572 173.767 170.572Z" fill="#263238" stroke="#263238" stroke-width="0.552043" stroke-linecap="round" stroke-linejoin="round"/>
<path d="M161.633 168.079C161.563 164.767 162.517 161.515 164.365 158.766V155.288H170.322C175.125 155.288 179.017 161.013 179.017 168.079C179.017 175.145 175.125 180.881 170.322 180.881H164.365V177.403C162.515 174.651 161.56 171.394 161.633 168.079Z" fill="#263238" stroke="#263238" stroke-width="0.552043" stroke-linecap="round" stroke-linejoin="round"/>
<path d="M164.359 180.87C159.56 180.87 155.67 175.143 155.67 168.079C155.67 161.015 159.56 155.288 164.359 155.288C169.158 155.288 173.048 161.015 173.048 168.079C173.048 175.143 169.158 180.87 164.359 180.87Z" fill="#263238"/>
<mask id="mask0_6123_56989" style="mask-type:luminance" maskUnits="userSpaceOnUse" x="155" y="155" width="19" height="26">
<path d="M164.353 180.874C159.554 180.874 155.664 175.147 155.664 168.083C155.664 161.019 159.554 155.292 164.353 155.292C169.152 155.292 173.042 161.019 173.042 168.083C173.042 175.147 169.152 180.874 164.353 180.874Z" fill="white"/>
</mask>
<g mask="url(#mask0_6123_56989)">
<path opacity="0.2" d="M164.353 180.874C159.554 180.874 155.664 175.147 155.664 168.083C155.664 161.019 159.554 155.292 164.353 155.292C169.152 155.292 173.042 161.019 173.042 168.083C173.042 175.147 169.152 180.874 164.353 180.874Z" fill="white" stroke="#263238" stroke-width="0.552043" stroke-linecap="round" stroke-linejoin="round"/>
</g>
<path d="M164.359 180.87C159.56 180.87 155.67 175.143 155.67 168.079C155.67 161.015 159.56 155.288 164.359 155.288C169.158 155.288 173.048 161.015 173.048 168.079C173.048 175.143 169.158 180.87 164.359 180.87Z" stroke="#263238" stroke-width="0.552043" stroke-linecap="round" stroke-linejoin="round"/>
<path d="M215.318 155.288H220.944C225.482 155.288 229.158 161.013 229.158 168.079C229.158 175.145 225.482 180.881 220.944 180.881H215.318C210.781 180.881 207.104 175.156 207.104 168.09C207.104 161.024 210.781 155.288 215.318 155.288Z" fill="#263238" stroke="#263238" stroke-width="0.552043" stroke-linecap="round" stroke-linejoin="round"/>
<path d="M164.365 178.301C160.536 178.301 157.432 173.731 157.432 168.094C157.432 162.457 160.536 157.887 164.365 157.887C168.195 157.887 171.299 162.457 171.299 168.094C171.299 173.731 168.195 178.301 164.365 178.301Z" fill="white" stroke="#263238" stroke-width="0.552043" stroke-linecap="round" stroke-linejoin="round"/>
<path d="M120.927 168.079C120.859 164.888 121.451 161.717 122.666 158.766V155.288H127.927C130.985 155.288 133.447 161.013 133.447 168.079C133.447 175.145 130.974 180.87 127.927 180.87H122.666V177.392C121.451 174.44 120.859 171.27 120.927 168.079Z" fill="#263238" stroke="#263238" stroke-width="0.552043" stroke-linecap="round" stroke-linejoin="round"/>
<path d="M122.661 180.87C119.606 180.87 117.129 175.143 117.129 168.079C117.129 161.015 119.606 155.288 122.661 155.288C125.716 155.288 128.192 161.015 128.192 168.079C128.192 175.143 125.716 180.87 122.661 180.87Z" fill="#263238"/>
<mask id="mask1_6123_56989" style="mask-type:luminance" maskUnits="userSpaceOnUse" x="117" y="155" width="12" height="26">
<path d="M122.666 180.874C119.611 180.874 117.134 175.147 117.134 168.083C117.134 161.019 119.611 155.292 122.666 155.292C125.721 155.292 128.197 161.019 128.197 168.083C128.197 175.147 125.721 180.874 122.666 180.874Z" fill="white"/>
</mask>
<g mask="url(#mask1_6123_56989)">
<path opacity="0.2" d="M122.666 180.874C119.611 180.874 117.134 175.147 117.134 168.083C117.134 161.019 119.611 155.292 122.666 155.292C125.721 155.292 128.197 161.019 128.197 168.083C128.197 175.147 125.721 180.874 122.666 180.874Z" fill="white" stroke="#263238" stroke-width="0.552043" stroke-linecap="round" stroke-linejoin="round"/>
</g>
<path d="M122.661 180.87C119.606 180.87 117.129 175.143 117.129 168.079C117.129 161.015 119.606 155.288 122.661 155.288C125.716 155.288 128.192 161.015 128.192 168.079C128.192 175.143 125.716 180.87 122.661 180.87Z" stroke="#263238" stroke-width="0.552043" stroke-linecap="round" stroke-linejoin="round"/>
<path d="M118.244 168.094C118.244 173.73 120.221 178.301 122.661 178.301C125.101 178.301 127.077 173.73 127.077 168.094C127.077 162.458 125.101 157.887 122.661 157.887C120.221 157.887 118.244 162.458 118.244 168.094Z" fill="white" stroke="#263238" stroke-width="0.552043" stroke-linecap="round" stroke-linejoin="round"/>
<path d="M171.683 171.211C171.683 161.021 168.139 152.756 163.772 152.756C159.405 152.756 155.861 161.037 155.861 171.211C155.861 171.763 155.861 172.315 155.894 172.867H127.713C127.713 172.315 127.74 171.763 127.74 171.211C127.74 161.015 125.157 152.734 121.955 152.734C119.829 152.734 117.975 156.428 116.986 161.915V146.883C116.985 146.196 117.225 145.532 117.664 145.004C118.103 144.476 118.713 144.12 119.388 143.996L119.526 143.968C121.474 143.576 124.991 139.866 130.462 135.179C135.932 130.493 140.813 130.101 140.813 130.101H190.165C191.098 130.101 192.004 130.409 192.743 130.978L209.569 143.968C209.569 143.968 224.635 146.894 227.947 150.217C231.259 153.54 230.878 172.851 230.878 172.851H171.639C171.672 172.326 171.683 171.774 171.683 171.211Z" fill="#59A97B" stroke="#263238" stroke-width="0.552043" stroke-linecap="round" stroke-linejoin="round"/>
<path d="M152.936 130.101H190.171C191.104 130.101 192.01 130.409 192.749 130.978L209.575 143.968H161.923L152.936 130.101Z" fill="#74B790" stroke="#263238" stroke-width="0.552043" stroke-linecap="round" stroke-linejoin="round"/>
<path d="M172.427 149.187C175.11 149.22 179.796 149.396 181.811 150.213C183.492 150.876 185.123 151.658 186.691 152.554H177.152L172.427 149.187Z" fill="#263238" stroke="#263238" stroke-width="0.552043" stroke-linecap="round" stroke-linejoin="round"/>
<path d="M176.563 155.491V153.735H186.721L184.882 155.43C184.912 155.448 184.94 155.468 184.965 155.491H176.563Z" fill="#263238" stroke="#263238" stroke-width="0.552043" stroke-linecap="round" stroke-linejoin="round"/>
<path d="M175.591 152.943V155.488C175.197 155.453 174.816 155.328 174.478 155.122C174.14 154.916 173.854 154.635 173.642 154.301C172.665 152.739 170.468 149.173 170.468 149.173L175.591 152.943Z" fill="#263238" stroke="#263238" stroke-width="0.552043" stroke-linecap="round" stroke-linejoin="round"/>
<path d="M226.995 155.424L225.157 153.729H229.49C229.623 154.282 229.75 154.867 229.86 155.485H226.912C226.938 155.462 226.966 155.442 226.995 155.424Z" fill="#263238" stroke="#263238" stroke-width="0.552043" stroke-linecap="round" stroke-linejoin="round"/>
<path d="M228.439 150.896C228.735 151.422 228.973 151.977 229.151 152.553H225.149C226.216 151.943 227.314 151.39 228.439 150.896Z" fill="#263238" stroke="#263238" stroke-width="0.552043" stroke-linecap="round" stroke-linejoin="round"/>
<path d="M161.916 143.971H132.994C132.994 143.971 128.893 142.602 130.063 137.523C130.461 135.801 138.658 131.859 139.829 131.859H153.906L161.916 143.971Z" fill="#263238"/>
<mask id="mask2_6123_56989" style="mask-type:luminance" maskUnits="userSpaceOnUse" x="129" y="131" width="33" height="13">
<path d="M161.913 143.964H132.992C132.992 143.964 128.89 142.595 130.06 137.517C130.458 135.794 138.656 131.853 139.826 131.853H153.903L161.913 143.964Z" fill="white"/>
</mask>
<g mask="url(#mask2_6123_56989)">
<path opacity="0.2" d="M161.913 143.964H132.992C132.992 143.964 128.89 142.595 130.06 137.517C130.458 135.794 138.656 131.853 139.826 131.853H153.903L161.913 143.964Z" fill="white" stroke="#263238" stroke-width="0.552043" stroke-linecap="round" stroke-linejoin="round"/>
</g>
<path d="M161.916 143.971H132.994C132.994 143.971 128.893 142.602 130.063 137.523C130.461 135.801 138.658 131.859 139.829 131.859H153.906L161.916 143.971Z" stroke="#263238" stroke-width="0.552043" stroke-linecap="round" stroke-linejoin="round"/>
<path d="M193.881 131.859L209.575 143.971H161.917L154.073 131.859H193.881Z" fill="#263238" stroke="#263238" stroke-width="0.552043" stroke-linecap="round" stroke-linejoin="round"/>
<path d="M224.411 152.951V157.053L221.485 159.2H197.852L192.382 156.86V152.951H224.411Z" fill="#263238" stroke="#263238" stroke-width="0.552043" stroke-linecap="round" stroke-linejoin="round"/>
<path opacity="0.3" d="M223.318 152.951H224.411V154.044H223.318V152.951Z" fill="white" stroke="#263238" stroke-width="0.552043" stroke-linecap="round" stroke-linejoin="round"/>
<path opacity="0.3" d="M222.112 154.152H223.205V155.245H222.112V154.152Z" fill="white" stroke="#263238" stroke-width="0.552043" stroke-linecap="round" stroke-linejoin="round"/>
<path opacity="0.3" d="M220.91 155.371H222.003V156.464H220.91V155.371Z" fill="white" stroke="#263238" stroke-width="0.552043" stroke-linecap="round" stroke-linejoin="round"/>
<path opacity="0.3" d="M219.697 156.578H220.79V157.671H219.697V156.578Z" fill="white" stroke="#263238" stroke-width="0.552043" stroke-linecap="round" stroke-linejoin="round"/>
<path opacity="0.3" d="M192.603 152.951H193.696V154.044H192.603V152.951Z" fill="white" stroke="#263238" stroke-width="0.552043" stroke-linecap="round" stroke-linejoin="round"/>
<path opacity="0.3" d="M193.801 154.152H194.895V155.245H193.801V154.152Z" fill="white" stroke="#263238" stroke-width="0.552043" stroke-linecap="round" stroke-linejoin="round"/>
<path opacity="0.3" d="M195.018 155.371H196.111V156.464H195.018V155.371Z" fill="white" stroke="#263238" stroke-width="0.552043" stroke-linecap="round" stroke-linejoin="round"/>
<path opacity="0.3" d="M196.23 156.578H197.323V157.671H196.23V156.578Z" fill="white" stroke="#263238" stroke-width="0.552043" stroke-linecap="round" stroke-linejoin="round"/>
<path opacity="0.3" d="M218.019 156.578H219.112V157.671H218.019V156.578Z" fill="white" stroke="#263238" stroke-width="0.552043" stroke-linecap="round" stroke-linejoin="round"/>
<path opacity="0.3" d="M216.345 156.578H217.438V157.671H216.345V156.578Z" fill="white" stroke="#263238" stroke-width="0.552043" stroke-linecap="round" stroke-linejoin="round"/>
<path opacity="0.3" d="M214.672 156.578H215.765V157.671H214.672V156.578Z" fill="white" stroke="#263238" stroke-width="0.552043" stroke-linecap="round" stroke-linejoin="round"/>
<path opacity="0.3" d="M212.993 156.578H214.086V157.671H212.993V156.578Z" fill="white" stroke="#263238" stroke-width="0.552043" stroke-linecap="round" stroke-linejoin="round"/>
<path opacity="0.3" d="M211.316 156.578H212.409V157.671H211.316V156.578Z" fill="white" stroke="#263238" stroke-width="0.552043" stroke-linecap="round" stroke-linejoin="round"/>
<path opacity="0.3" d="M209.638 156.578H210.731V157.671H209.638V156.578Z" fill="white" stroke="#263238" stroke-width="0.552043" stroke-linecap="round" stroke-linejoin="round"/>
<path opacity="0.3" d="M207.963 156.578H209.056V157.671H207.963V156.578Z" fill="white" stroke="#263238" stroke-width="0.552043" stroke-linecap="round" stroke-linejoin="round"/>
<path opacity="0.3" d="M206.29 156.578H207.383V157.671H206.29V156.578Z" fill="white" stroke="#263238" stroke-width="0.552043" stroke-linecap="round" stroke-linejoin="round"/>
<path opacity="0.3" d="M204.611 156.578H205.704V157.671H204.611V156.578Z" fill="white" stroke="#263238" stroke-width="0.552043" stroke-linecap="round" stroke-linejoin="round"/>
<path opacity="0.3" d="M202.934 156.578H204.027V157.671H202.934V156.578Z" fill="white" stroke="#263238" stroke-width="0.552043" stroke-linecap="round" stroke-linejoin="round"/>
<path opacity="0.3" d="M201.257 156.578H202.35V157.671H201.257V156.578Z" fill="white" stroke="#263238" stroke-width="0.552043" stroke-linecap="round" stroke-linejoin="round"/>
<path opacity="0.3" d="M199.582 156.578H200.675V157.671H199.582V156.578Z" fill="white" stroke="#263238" stroke-width="0.552043" stroke-linecap="round" stroke-linejoin="round"/>
<path opacity="0.3" d="M197.909 156.578H199.002V157.671H197.909V156.578Z" fill="white" stroke="#263238" stroke-width="0.552043" stroke-linecap="round" stroke-linejoin="round"/>
<path d="M181.058 164.282H229.693L230.345 159.07C230.643 161.935 230.775 164.988 230.836 167.494L230.665 168.19L229.693 166.236H225.52L228.125 168.383H189.482L190.868 166.236H181.086L178.353 167.798H176.399V157.861L181.058 164.282Z" fill="#263238" stroke="#263238" stroke-width="0.552043" stroke-linecap="round" stroke-linejoin="round"/>
<path d="M142.859 143.971H141.23C141.401 141.575 142.086 136.298 144.769 131.859H146.425C145.459 133.902 143.228 139.163 142.859 143.971Z" fill="#263238" stroke="#263238" stroke-width="0.552043" stroke-linecap="round" stroke-linejoin="round"/>
<path d="M178.089 135.151L177.493 136.807C178.227 137.508 178.655 138.47 178.685 139.484V143.994H182.345L179.282 135.162L178.089 135.151ZM195.202 137.359C197.714 138.888 201.512 142.261 203.351 143.95H191.117L184.785 134.234L188.953 134.532C191.152 135.205 193.253 136.163 195.202 137.381V137.359ZM169.902 136.178L171.393 135.879H173.474L174.07 136.476C174.07 136.476 172.58 136.625 172.414 137.519C172.312 138.408 172.262 139.302 172.265 140.196H171.222C171.222 140.196 171.222 138.54 170.476 137.817C170.055 137.391 169.607 136.993 169.135 136.625L169.902 136.178Z" fill="#525252" stroke="#263238" stroke-width="0.552043" stroke-linecap="round" stroke-linejoin="round"/>
<path d="M151.746 142.883H151.989C152.229 142.883 152.465 142.826 152.679 142.717C152.893 142.607 153.077 142.449 153.218 142.255C153.359 142.06 153.451 141.835 153.488 141.598C153.525 141.361 153.505 141.118 153.43 140.89C153.126 139.957 152.613 139.013 151.746 138.87C149.963 138.572 145.05 140.057 145.05 141.078C145.05 142.099 145.05 142.563 145.646 142.563H149.367L152.326 145.864L152.392 145.809C152.545 145.68 152.668 145.519 152.753 145.337C152.837 145.156 152.881 144.958 152.881 144.757C152.881 144.557 152.837 144.359 152.753 144.177C152.668 143.996 152.545 143.835 152.392 143.706C152.132 143.47 151.914 143.192 151.746 142.883Z" fill="white" stroke="#263238" stroke-width="0.552043" stroke-linecap="round" stroke-linejoin="round"/>
<path d="M152.401 145.816L152.335 145.871L149.359 142.592H145.639C145.147 142.592 145.086 142.282 145.048 141.587H153.478C153.428 141.948 153.249 142.28 152.974 142.519C152.699 142.759 152.346 142.89 151.982 142.89H151.739C151.911 143.199 152.135 143.478 152.401 143.712C152.554 143.841 152.678 144.002 152.762 144.184C152.847 144.366 152.89 144.564 152.89 144.764C152.89 144.964 152.847 145.162 152.762 145.344C152.678 145.526 152.554 145.687 152.401 145.816Z" fill="#263238" stroke="#263238" stroke-width="0.552043" stroke-linecap="round" stroke-linejoin="round"/>
<path d="M143.204 147.555H146.555V148.272H143.204V147.555Z" fill="#263238" stroke="#263238" stroke-width="0.552043" stroke-linecap="round" stroke-linejoin="round"/>
<path d="M128.133 147.555H131.483V148.272H128.133V147.555Z" fill="#263238" stroke="#263238" stroke-width="0.552043" stroke-linecap="round" stroke-linejoin="round"/>
<path d="M127.898 144.692C127.898 144.692 125.474 146.349 124.067 152.112C124.067 152.112 130.051 152.83 130.051 169.336" stroke="#263238" stroke-width="0.552043" stroke-linecap="round" stroke-linejoin="round"/>
<path d="M130.788 170.055H155.878C155.878 170.423 155.878 170.809 155.878 171.214C155.878 171.766 155.878 172.318 155.911 172.87H127.729C127.729 172.318 127.757 171.766 127.757 171.214C127.757 171.175 127.757 171.137 127.757 171.098L130.788 170.055Z" fill="#263238" stroke="#263238" stroke-width="0.552043" stroke-linecap="round" stroke-linejoin="round"/>
<path d="M171.679 171.214C171.679 170.828 171.679 170.441 171.679 170.055H230.869C230.869 171.777 230.869 172.876 230.869 172.876H171.635C171.668 172.329 171.679 171.777 171.679 171.214Z" fill="#263238" stroke="#263238" stroke-width="0.552043" stroke-linecap="round" stroke-linejoin="round"/>
<path d="M118.053 146.109C118.35 146.109 118.643 146.187 118.902 146.334C119.161 146.482 119.377 146.694 119.529 146.95C119.681 147.206 119.764 147.497 119.769 147.795C119.775 148.093 119.702 148.387 119.56 148.649L117.004 153.336V146.882C117.007 146.626 117.044 146.372 117.114 146.126H118.053V146.109Z" fill="#263238" stroke="#263238" stroke-width="0.552043" stroke-linecap="round" stroke-linejoin="round"/>
<path d="M141.021 146.447C141.021 146.447 135.667 154.176 141.021 167.281" stroke="#263238" stroke-width="0.552043" stroke-linecap="round" stroke-linejoin="round"/>
<path d="M63.3227 15.3838H49.9638C49.9638 15.3838 49.5093 14.0201 51.176 13.111C52.8427 12.2019 53.6053 12.9595 54.2063 12.1968C54.8073 11.4342 52.5396 9.46445 57.0902 7.49472C57.0902 7.49472 57.3933 3.24716 63.6156 3.09565C66.2975 3.02999 67.5147 3.81283 68.1611 4.8078" stroke="#263238" stroke-width="0.50506" stroke-linecap="round" stroke-linejoin="round"/>
<path d="M67.3994 15.3857H65.1772" stroke="#263238" stroke-width="0.50506" stroke-linecap="round" stroke-linejoin="round"/>
<path d="M68.9755 6.90918C69.07 7.50231 69.377 8.04083 69.8392 8.42436C71.5059 9.48498 71.9604 7.81828 73.6322 8.87891C75.3039 9.93953 74.5413 12.0658 75.91 12.3689C77.2787 12.6719 79.0919 11.0052 80.7636 12.0658C82.4354 13.1265 82.4303 14.0406 83.193 14.0406C83.9556 14.0406 85.4657 13.4345 86.3799 14.0406C87.294 14.6467 88.3496 15.4043 88.3496 15.4043H71.2887" stroke="#263238" stroke-width="0.50506" stroke-linecap="round" stroke-linejoin="round"/>
</g>
<g clip-path="url(#clip2_6123_56989)">
<mask id="mask3_6123_56989" style="mask-type:luminance" maskUnits="userSpaceOnUse" x="300" y="21" width="66" height="25">
<path d="M300.996 21.0029H365.084V45.0029H300.996V21.0029Z" fill="white"/>
</mask>
<g mask="url(#mask3_6123_56989)">
<path d="M311.326 34.1053C312.313 35.2617 314.141 37.3922 316.56 40.21H318.634C318.667 40.21 318.683 40.1968 318.683 40.1704V39.9024L313.508 33.6849C313.091 33.2022 312.883 32.9277 312.883 32.8615V32.8414C313.729 32.8414 314.616 32.6199 315.542 32.1768C316.038 31.9782 316.557 31.5449 317.1 30.8766C317.51 30.2151 317.735 29.6497 317.775 29.18H319.541C319.554 29.18 319.865 28.7232 320.474 27.8101C320.474 27.7906 320.457 27.7774 320.424 27.7706H317.705C317.579 27.1819 317.341 26.6827 316.991 26.272H319.541C319.614 26.2127 319.931 25.7496 320.494 24.8829V24.8631H310.947C310.928 24.8631 310.613 25.3162 310.005 26.2227V26.272H312.525C312.948 26.272 313.425 26.3583 313.954 26.5302C314.695 26.8217 315.194 27.2283 315.453 27.7508V27.7706H311.524C311.574 27.8737 311.611 27.9834 311.631 28.1021C311.689 28.4558 311.65 28.8152 311.517 29.18H315.701C315.701 29.3915 315.661 29.5967 315.582 29.795C315.072 31.1514 313.772 31.8292 311.682 31.8292C311.238 31.8292 310.851 31.8063 310.521 31.7596L310.501 31.8094V33.1294C310.501 33.135 310.689 33.3578 311.042 33.773L311.326 34.1053Z" fill="#8E8E8E"/>
<path d="M305.144 32.5433C306.08 32.3207 306.831 32.0427 307.396 31.708C308.143 31.2613 308.684 30.7683 309.02 30.2306C309.356 29.6931 309.497 29.2028 309.444 28.76C309.412 28.491 309.301 28.2829 309.112 28.1363C308.921 27.9901 308.669 27.9358 308.355 27.9733C307.7 28.0516 307.048 28.4825 306.396 29.2658C305.745 30.0494 305.328 31.1418 305.144 32.5433ZM305.133 33.0228C305.126 33.3485 305.135 33.6178 305.161 33.8293C305.229 34.4005 305.489 34.8618 305.941 35.2149C306.393 35.567 306.908 35.7089 307.485 35.6401C307.947 35.585 308.38 35.4378 308.784 35.197C309.188 34.9573 309.771 34.4628 310.534 33.7143L310.769 33.9693C309.43 35.6585 308.07 36.5853 306.69 36.7501C305.754 36.8622 305.013 36.651 304.468 36.1177C303.923 35.5844 303.608 34.9615 303.523 34.2497C303.409 33.2939 303.587 32.2803 304.057 31.2093C304.528 30.138 305.176 29.2719 306.001 28.6105C306.827 27.9487 307.711 27.5621 308.653 27.4495C309.333 27.3683 309.853 27.4461 310.213 27.6829C310.573 27.9189 310.776 28.227 310.821 28.6054C310.885 29.1382 310.734 29.6733 310.369 30.2111C309.887 30.9129 309.127 31.5242 308.09 32.0451C307.403 32.3943 306.417 32.72 305.133 33.0228Z" fill="#8E8E8E"/>
<path d="M350.738 35.3262H348.622L351.564 24.8413H353.68L350.738 35.3262Z" fill="#8E8E8E"/>
<path d="M349.63 25.172C349.483 24.9734 349.257 24.8724 348.95 24.8724H337.318L336.742 26.9269H338.857V26.9242H347.323L346.709 29.1196H338.243V29.1143H336.127L334.372 35.3701H336.488L337.667 31.1714H347.183C347.479 31.1714 347.76 31.072 348.023 30.8718C348.285 30.6719 348.457 30.424 348.541 30.1299L349.718 25.9305C349.805 25.6251 349.775 25.3719 349.63 25.172Z" fill="#8E8E8E"/>
<path d="M333.15 34.671C333.032 35.0866 332.65 35.373 332.212 35.373H321.299C321.002 35.373 320.781 35.2736 320.636 35.0737C320.49 34.8719 320.459 34.6259 320.543 34.3318L323.205 24.87H325.322L322.944 33.3199H331.414L333.791 24.87H335.909L333.15 34.671Z" fill="#8E8E8E"/>
<path d="M357.321 24.8604L359.999 30.1164L354.368 35.3711L357.321 24.8604Z" fill="#008B44"/>
<path d="M355.438 24.8604L358.115 30.1164L352.481 35.3711L355.438 24.8604Z" fill="#F37920"/>
<path d="M320.498 38.119H320.707C320.974 38.119 321.014 37.9877 321.014 37.6617C321.014 37.2226 320.874 37.2226 320.593 37.2226H320.498V38.119ZM319.665 36.5796H320.557C321.472 36.5796 321.847 36.7336 321.847 37.6799C321.847 38.2095 321.716 38.762 320.969 38.762H320.498V40.1973H319.665V36.5796Z" fill="#8E8E8E"/>
<path d="M323.018 38.0193H323.222C323.507 38.0193 323.507 37.8292 323.507 37.5937C323.507 37.3402 323.507 37.1952 323.181 37.1952H323.018V38.0193ZM322.185 36.5793H323.285C324.027 36.5793 324.34 36.8014 324.34 37.4534C324.34 37.879 324.281 38.1552 323.837 38.291V38.2999C324.131 38.359 324.322 38.5716 324.322 38.8752V39.5134C324.322 39.7534 324.313 40.0796 324.408 40.1973H323.584C323.488 40.0796 323.488 39.7534 323.488 39.5134V38.934C323.488 38.7256 323.407 38.6352 323.172 38.6352H323.018V40.1973H322.185V36.5793Z" fill="#8E8E8E"/>
<path d="M324.716 36.5796H326.568V37.2769H325.549V37.9969H326.441V38.6942H325.549V39.5002H326.608V40.1973H324.716V36.5796Z" fill="#8E8E8E"/>
<path d="M327.799 38.119H328.007C328.274 38.119 328.315 37.9877 328.315 37.6617C328.315 37.2226 328.175 37.2226 327.894 37.2226H327.799V38.119ZM326.966 36.5796H327.858C328.772 36.5796 329.148 36.7336 329.148 37.6799C329.148 38.2095 329.017 38.762 328.27 38.762H327.799V40.1973H326.966V36.5796Z" fill="#8E8E8E"/>
<path d="M330.127 38.9113H330.544L330.349 37.1408H330.34L330.127 38.9113ZM329.792 36.5793H330.897L331.576 40.1973H330.702L330.625 39.5543H330.041L329.955 40.1973H329.122L329.792 36.5793Z" fill="#8E8E8E"/>
<path d="M331.801 36.5796H332.634V40.1973H331.801V36.5796Z" fill="#8E8E8E"/>
<path d="M333.893 39.5814H334.024C334.246 39.5814 334.373 39.4862 334.373 39.2737V37.5032C334.373 37.2904 334.246 37.1952 334.024 37.1952H333.893V39.5814ZM333.06 36.5793H334.3C335.011 36.5793 335.206 36.9916 335.206 37.5486V39.2689C335.206 39.9301 334.74 40.1973 334.3 40.1973H333.06V36.5793Z" fill="#8E8E8E"/>
<path d="M337.467 38.3316H337.82V38.0146C337.82 37.9152 337.82 37.7791 337.644 37.7791C337.467 37.7791 337.467 37.9152 337.467 38.0146V38.3316ZM336.688 38.069C336.688 37.7295 336.865 37.245 337.644 37.245C338.423 37.245 338.599 37.7295 338.599 38.069V38.866H337.467V39.4863C337.467 39.586 337.467 39.7218 337.644 39.7218C337.82 39.7218 337.82 39.586 337.82 39.4863V39.1242H338.599V39.4319C338.599 39.7716 338.423 40.2559 337.644 40.2559C336.865 40.2559 336.688 39.7716 336.688 39.4319V38.069Z" fill="#8E8E8E"/>
<path d="M338.926 38.3318H340.117V39.002H338.926V38.3318Z" fill="#8E8E8E"/>
<path d="M340.294 36.5776H341.145L341.372 39.1496H341.381L341.657 36.5776H342.495L341.879 40.1953H340.846L340.294 36.5776Z" fill="#8E8E8E"/>
<path d="M343.561 39.2824C343.561 39.3776 343.561 39.6129 343.801 39.6129C344.041 39.6129 344.041 39.3776 344.041 39.2824V37.494C344.041 37.3716 344.041 37.1633 343.801 37.1633C343.561 37.1633 343.561 37.3716 343.561 37.494V39.2824ZM342.728 37.5663C342.728 36.86 343.18 36.5203 343.801 36.5203C344.421 36.5203 344.874 36.86 344.874 37.5663V39.2099C344.874 39.8529 344.462 40.2559 343.801 40.2559C343.139 40.2559 342.728 39.8529 342.728 39.2099V37.5663Z" fill="#8E8E8E"/>
<path d="M345.247 36.5791H346.08V39.2188C346.08 39.4135 346.08 39.5857 346.32 39.5857C346.56 39.5857 346.56 39.4135 346.56 39.2188V36.5791H347.393V39.2099C347.393 39.8529 346.981 40.2559 346.32 40.2559C345.659 40.2559 345.247 39.8529 345.247 39.2099V36.5791Z" fill="#8E8E8E"/>
<path d="M347.778 37.5663C347.778 36.86 348.231 36.5203 348.851 36.5203C349.472 36.5203 349.925 36.86 349.925 37.5663V37.9015H349.091V37.4937C349.091 37.3716 349.091 37.1633 348.851 37.1633C348.611 37.1633 348.611 37.3716 348.611 37.4937V39.2824C348.611 39.3774 348.611 39.6129 348.851 39.6129C349.091 39.6129 349.091 39.3774 349.091 39.2824V38.7526H349.925V39.2099C349.925 39.8529 349.512 40.2559 348.851 40.2559C348.19 40.2559 347.778 39.8529 347.778 39.2099V37.5663Z" fill="#8E8E8E"/>
<path d="M350.282 36.5796H351.115V37.9334H351.595V36.5796H352.429V40.1973H351.595V38.6578H351.115V40.1973H350.282V36.5796Z" fill="#8E8E8E"/>
<path d="M352.806 36.5776H354.658V37.275H353.639V37.995H354.531V38.6923H353.639V39.4983H354.698V40.1953H352.806V36.5776Z" fill="#8E8E8E"/>
<path d="M355.897 38.0193H356.1C356.386 38.0193 356.386 37.8292 356.386 37.5937C356.386 37.3402 356.386 37.1952 356.06 37.1952H355.897V38.0193ZM355.063 36.5793H356.164C356.906 36.5793 357.219 36.8014 357.219 37.4534C357.219 37.879 357.16 38.1552 356.716 38.291V38.2999C357.01 38.359 357.201 38.5716 357.201 38.8752V39.5134C357.201 39.7534 357.192 40.0796 357.287 40.1973H356.463C356.367 40.0796 356.367 39.7534 356.367 39.5134V38.934C356.367 38.7256 356.286 38.6352 356.051 38.6352H355.897V40.1973H355.063V36.5793Z" fill="#8E8E8E"/>
</g>
</g>
</g>
<rect x="0.337188" y="0.337188" width="385.325" height="185.325" rx="9.73801" stroke="#EAF4EF" stroke-width="0.523985"/>
<defs>
<clipPath id="clip0_6123_56989">
<rect x="0.0751953" y="0.0751953" width="385.849" height="185.849" rx="10" fill="white"/>
</clipPath>
<clipPath id="clip1_6123_56989">
<rect width="414.032" height="276.021" fill="white" transform="matrix(-1 0 0 1 319.032 -46)"/>
</clipPath>
<clipPath id="clip2_6123_56989">
<rect width="64.0879" height="24" fill="white" transform="translate(301 21)"/>
</clipPath>
</defs>
</svg>
