<svg width="45" height="44" viewBox="0 0 45 44" fill="none" xmlns="http://www.w3.org/2000/svg">
<rect x="1" y="0.5" width="43" height="43" rx="21.5" fill="white"/>
<rect x="1" y="0.5" width="43" height="43" rx="21.5" stroke="#BFDECC"/>
<path d="M15 30.5V15.3077C15 14.8026 15.175 14.375 15.525 14.025C15.875 13.675 16.3026 13.5 16.8077 13.5H22.1923C22.6974 13.5 23.125 13.675 23.475 14.025C23.825 14.375 24 14.8026 24 15.3077V21.8077H24.9615C25.4586 21.8077 25.8841 21.9847 26.2381 22.3387C26.5921 22.6927 26.7692 23.1182 26.7692 23.6153V28.1538C26.7692 28.4756 26.881 28.7484 27.1047 28.9721C27.3285 29.1958 27.6012 29.3077 27.923 29.3077C28.2448 29.3077 28.5176 29.1958 28.7413 28.9721C28.965 28.7484 29.0769 28.4756 29.0769 28.1538V21.1461C28.9269 21.2359 28.7685 21.298 28.6019 21.3327C28.4352 21.3673 28.2602 21.3846 28.0769 21.3846C27.463 21.3846 26.9442 21.1727 26.5204 20.7488C26.0965 20.325 25.8846 19.8061 25.8846 19.1923C25.8846 18.6974 26.0256 18.2567 26.3077 17.8702C26.5897 17.4837 26.9628 17.2244 27.4269 17.0923L25.173 14.8385L26.0115 14L29.5768 17.5039C29.8012 17.7282 29.9727 17.9881 30.0913 18.2836C30.2099 18.5791 30.2691 18.882 30.2691 19.1923V28.1538C30.2691 28.8107 30.0425 29.366 29.5893 29.8196C29.1361 30.2732 28.5813 30.5 27.9249 30.5C27.2685 30.5 26.7131 30.2732 26.2586 29.8196C25.8041 29.366 25.5769 28.8107 25.5769 28.1538V23.3077C25.5769 23.2179 25.548 23.1442 25.4903 23.0865C25.4326 23.0288 25.3589 23 25.2692 23H24V30.5H15ZM16.5 20.25H22.5V15.3077C22.5 15.2308 22.4679 15.1602 22.4038 15.0961C22.3397 15.032 22.2692 15 22.1923 15H16.8077C16.7308 15 16.6602 15.032 16.5961 15.0961C16.532 15.1602 16.5 15.2308 16.5 15.3077V20.25ZM28.0769 20.1923C28.3602 20.1923 28.5977 20.0965 28.7894 19.9048C28.981 19.7131 29.0769 19.4756 29.0769 19.1923C29.0769 18.909 28.981 18.6715 28.7894 18.4798C28.5977 18.2881 28.3602 18.1923 28.0769 18.1923C27.7935 18.1923 27.556 18.2881 27.3644 18.4798C27.1727 18.6715 27.0769 18.909 27.0769 19.1923C27.0769 19.4756 27.1727 19.7131 27.3644 19.9048C27.556 20.0965 27.7935 20.1923 28.0769 20.1923ZM16.5 29H22.5V21.75H16.5V29Z" fill="#2F945A"/>
</svg>
