<svg width="270" height="151" viewBox="0 0 270 151" fill="none" xmlns="http://www.w3.org/2000/svg">
<g clip-path="url(#clip0_12836_95514)">
<rect width="270" height="150" transform="translate(0 0.125)" fill="url(#paint0_linear_12836_95514)"/>
<g clip-path="url(#clip1_12836_95514)">
<path d="M149.492 77.3416L143.403 75.2852L140.358 78.5421L134.586 74.2551L132.181 75.9707L128.818 72.3691L120.165 80.7689L118.722 77.512" stroke="#263238" stroke-width="0.37871" stroke-linecap="round" stroke-linejoin="round"/>
<path d="M145.098 135.77H143.265V128.374C143.228 126.987 142.651 125.669 141.656 124.701C140.662 123.733 139.33 123.191 137.942 123.191C136.554 123.191 135.222 123.733 134.227 124.701C133.233 125.669 132.656 126.987 132.619 128.374V135.77H130.786V128.374C130.829 126.505 131.602 124.726 132.939 123.419C134.277 122.113 136.072 121.381 137.942 121.381C139.812 121.381 141.607 122.113 142.945 123.419C144.282 124.726 145.055 126.505 145.098 128.374V135.77Z" fill="#BDBDBD" stroke="#263238" stroke-width="0.37871" stroke-miterlimit="10"/>
<path d="M160.697 132.523H148.699V45.3028H160.697V132.523Z" fill="#919191" stroke="#263238" stroke-width="0.37871" stroke-miterlimit="10"/>
<path d="M160.694 132.523H155.445V45.3028H160.694V132.523Z" fill="white" stroke="#263238" stroke-width="0.37871" stroke-miterlimit="10"/>
<path d="M160.697 51.4531H148.699V44.5492H160.697V51.4531Z" fill="#263238" stroke="#263238" stroke-width="0.37871" stroke-miterlimit="10"/>
<path d="M160.694 51.4531H155.445V44.5492H160.694V51.4531Z" fill="#263238" stroke="#263238" stroke-width="0.37871" stroke-miterlimit="10"/>
<path d="M163.058 132.66H160.676V88.0633H163.058V132.66Z" fill="#FD7E50" stroke="#263238" stroke-width="0.37871" stroke-miterlimit="10"/>
<path d="M167.569 132.66H161.93V88.0633H167.569V132.66Z" fill="#FD7E50" stroke="#263238" stroke-width="0.37871" stroke-miterlimit="10"/>
<path d="M176.441 132.66H162.414V102.261H176.441V132.66Z" fill="white" stroke="#263238" stroke-width="0.37871" stroke-linecap="round" stroke-linejoin="round"/>
<path d="M176.441 120.932H162.414V102.265H176.441V120.932Z" fill="#FD7E50" stroke="#263238" stroke-width="0.37871" stroke-miterlimit="10"/>
<path d="M176.441 108.836H162.414V102.258H176.441V108.836Z" fill="#FD7E50" stroke="#263238" stroke-width="0.37871" stroke-miterlimit="10"/>
<path d="M176.441 111.771H162.414V108.783H176.441V111.771Z" fill="#FD7E50" stroke="#263238" stroke-width="0.37871" stroke-miterlimit="10"/>
<path d="M178.445 132.66H176.062V88.0633H178.445V132.66Z" fill="#FD7E50" stroke="#263238" stroke-width="0.37871" stroke-miterlimit="10"/>
<path d="M182.963 132.66H177.324V88.0633H182.963V132.66Z" fill="#FD7E50" stroke="#263238" stroke-width="0.37871" stroke-miterlimit="10"/>
<path d="M185.136 88.7617H158.926V86.0426H185.136V88.7617Z" fill="#FD7E50" stroke="#263238" stroke-width="0.37871" stroke-linecap="round" stroke-linejoin="round"/>
<path d="M185.133 88.7617H178.676V86.0426H185.133V88.7617Z" fill="#FD7E50" stroke="#263238" stroke-width="0.37871" stroke-linecap="round" stroke-linejoin="round"/>
<path d="M185.136 132.664H158.926V131.869H185.136V132.664Z" fill="white" stroke="#263238" stroke-width="0.37871" stroke-miterlimit="10"/>
<path d="M185.133 132.664H178.676V131.869H185.133V132.664Z" fill="white" stroke="#263238" stroke-width="0.37871" stroke-miterlimit="10"/>
<path d="M172.157 107.137H166.113V103.168H172.157V107.137Z" fill="#263238" stroke="#263238" stroke-width="0.37871" stroke-miterlimit="10"/>
<path d="M170.852 106.287H167.398V104.019H170.852V106.287Z" fill="#FD7E50" stroke="#263238" stroke-width="0.37871" stroke-miterlimit="10"/>
<path d="M172.157 103.65H166.113V103.177H172.157V103.65Z" fill="white" stroke="#263238" stroke-width="0.37871" stroke-miterlimit="10"/>
<path d="M167.807 110.924H164.027V109.318H167.807V110.924Z" fill="white" stroke="#263238" stroke-width="0.37871" stroke-miterlimit="10"/>
<path d="M167.807 110.072H164.027V109.315H167.807V110.072Z" fill="white" stroke="#263238" stroke-width="0.37871" stroke-miterlimit="10"/>
<path d="M174.51 110.924H170.73V109.318H174.51V110.924Z" fill="white" stroke="#263238" stroke-width="0.37871" stroke-miterlimit="10"/>
<path d="M174.51 110.072H170.73V109.315H174.51V110.072Z" fill="white" stroke="#263238" stroke-width="0.37871" stroke-miterlimit="10"/>
<path d="M181.588 115.189H178.676V104.578H181.588V115.189Z" fill="white" stroke="#263238" stroke-width="0.37871" stroke-miterlimit="10"/>
<path d="M181.588 115.189H179.422V104.578H181.588V115.189Z" fill="white" stroke="#263238" stroke-width="0.37871" stroke-miterlimit="10"/>
<path d="M181.129 114.711H179.883V105.058H181.129V114.711Z" fill="white" stroke="#263238" stroke-width="0.37871" stroke-miterlimit="10"/>
<path d="M178.236 111.818H177.434V110.584H178.236V111.818Z" fill="white" stroke="#263238" stroke-width="0.37871" stroke-miterlimit="10"/>
<path d="M188.893 135.77H118.203V132.581H188.893V135.77Z" fill="#919191" stroke="#263238" stroke-width="0.37871" stroke-miterlimit="10"/>
<path d="M188.898 135.77H180.184V132.581H188.898V135.77Z" fill="#BDBDBD" stroke="#263238" stroke-width="0.37871" stroke-miterlimit="10"/>
<path d="M34.5898 135.773H32.7569V128.376C32.7569 126.965 32.1963 125.612 31.1984 124.614C30.2006 123.616 28.8472 123.056 27.436 123.056C26.0248 123.056 24.6715 123.616 23.6736 124.614C22.6757 125.612 22.1151 126.965 22.1151 128.376V135.773H20.2822V128.376C20.2822 126.479 21.0359 124.66 22.3775 123.318C23.7191 121.976 25.5387 121.223 27.436 121.223C29.3333 121.223 31.1529 121.976 32.4945 123.318C33.8361 124.66 34.5898 126.479 34.5898 128.376V135.773Z" fill="#BDBDBD" stroke="#263238" stroke-width="0.37871" stroke-miterlimit="10"/>
<path d="M50.185 132.523H38.1875L38.1875 45.3028H50.185L50.185 132.523Z" fill="#919191" stroke="#263238" stroke-width="0.37871" stroke-miterlimit="10"/>
<path d="M50.1825 132.523H44.9336L44.9336 45.3028H50.1825L50.1825 132.523Z" fill="white" stroke="#263238" stroke-width="0.37871" stroke-miterlimit="10"/>
<path d="M50.185 52.1992H38.1875V45.2953H50.185V52.1992Z" fill="#263238" stroke="#263238" stroke-width="0.37871" stroke-miterlimit="10"/>
<path d="M50.1825 52.1992H44.9336V45.2953H50.1825V52.1992Z" fill="#263238" stroke="#263238" stroke-width="0.37871" stroke-miterlimit="10"/>
<path d="M52.5579 132.66H50.1758L50.1758 88.0633H52.5579L52.5579 132.66Z" fill="#BDBDBD" stroke="#263238" stroke-width="0.37871" stroke-miterlimit="10"/>
<path d="M57.057 132.66H51.418L51.418 88.0633H57.057L57.057 132.66Z" fill="white" stroke="#263238" stroke-width="0.37871" stroke-miterlimit="10"/>
<path d="M65.9454 132.66H51.918L51.918 102.261H65.9454V132.66Z" fill="white" stroke="#263238" stroke-width="0.37871" stroke-linecap="round" stroke-linejoin="round"/>
<path d="M65.9454 120.932H51.918V102.265H65.9454V120.932Z" fill="#263238" stroke="#263238" stroke-width="0.37871" stroke-miterlimit="10"/>
<path d="M65.9454 108.836H51.918V102.258H65.9454V108.836Z" fill="#BDBDBD" stroke="#263238" stroke-width="0.37871" stroke-miterlimit="10"/>
<path d="M65.9454 111.768H51.918V108.78H65.9454V111.768Z" fill="white" stroke="#263238" stroke-width="0.37871" stroke-miterlimit="10"/>
<path d="M67.9524 132.66H65.5703V88.0633H67.9524V132.66Z" fill="#BDBDBD" stroke="#263238" stroke-width="0.37871" stroke-miterlimit="10"/>
<path d="M72.4593 132.66H66.8203V88.0633H72.4593V132.66Z" fill="white" stroke="#263238" stroke-width="0.37871" stroke-miterlimit="10"/>
<path d="M74.6324 88.7617H48.4219V86.0426H74.6324V88.7617Z" fill="white" stroke="#263238" stroke-width="0.37871" stroke-linecap="round" stroke-linejoin="round"/>
<path d="M74.6367 88.7617H68.1797V86.0426H74.6367V88.7617Z" fill="white" stroke="#263238" stroke-width="0.37871" stroke-linecap="round" stroke-linejoin="round"/>
<path d="M74.6324 132.664H48.4219V131.869H74.6324V132.664Z" fill="white" stroke="#263238" stroke-width="0.37871" stroke-miterlimit="10"/>
<path d="M74.6367 132.664H68.1797V131.869H74.6367V132.664Z" fill="white" stroke="#263238" stroke-width="0.37871" stroke-miterlimit="10"/>
<path d="M61.638 107.137H55.5938V103.168H61.638V107.137Z" fill="#263238" stroke="#263238" stroke-width="0.37871" stroke-miterlimit="10"/>
<path d="M60.3445 106.287H56.8906V104.019H60.3445V106.287Z" fill="white" stroke="#263238" stroke-width="0.37871" stroke-miterlimit="10"/>
<path d="M61.638 103.65H55.5938V103.177H61.638V103.65Z" fill="white" stroke="#263238" stroke-width="0.37871" stroke-miterlimit="10"/>
<path d="M57.2991 110.924H53.5195V109.318H57.2991V110.924Z" fill="white" stroke="#263238" stroke-width="0.37871" stroke-miterlimit="10"/>
<path d="M57.2991 110.072H53.5195V109.315H57.2991V110.072Z" fill="white" stroke="#263238" stroke-width="0.37871" stroke-miterlimit="10"/>
<path d="M64.01 110.924H60.2305V109.318H64.01V110.924Z" fill="white" stroke="#263238" stroke-width="0.37871" stroke-miterlimit="10"/>
<path d="M64.01 110.072H60.2305V109.315H64.01V110.072Z" fill="white" stroke="#263238" stroke-width="0.37871" stroke-miterlimit="10"/>
<path d="M71.092 115.189H68.1797V104.578H71.092V115.189Z" fill="white" stroke="#263238" stroke-width="0.37871" stroke-miterlimit="10"/>
<path d="M71.0842 115.189H68.918V104.578H71.0842V115.189Z" fill="white" stroke="#263238" stroke-width="0.37871" stroke-miterlimit="10"/>
<path d="M70.6288 114.711H69.3828V105.058H70.6288V114.711Z" fill="white" stroke="#263238" stroke-width="0.37871" stroke-miterlimit="10"/>
<path d="M69.4891 105.078C70.8297 105.938 71.5909 108.176 71.625 108.278L71.1478 108.437C71.1478 108.415 70.5192 106.585 69.4891 105.703V105.078Z" fill="white" stroke="#263238" stroke-width="0.37871" stroke-miterlimit="10"/>
<path d="M69.9611 106.343C69.9498 106.342 69.9388 106.339 69.9286 106.335C69.9184 106.33 69.9093 106.323 69.9018 106.314C69.8944 106.306 69.8888 106.296 69.8853 106.285C69.8818 106.274 69.8805 106.263 69.8816 106.252L69.927 105.453C69.9275 105.442 69.9302 105.431 69.9348 105.421C69.9394 105.411 69.946 105.402 69.9541 105.395C69.9622 105.387 69.9716 105.382 69.9819 105.378C69.9923 105.374 70.0032 105.373 70.0141 105.373C70.0251 105.374 70.0358 105.376 70.0457 105.381C70.0557 105.386 70.0646 105.392 70.072 105.4C70.0794 105.408 70.0851 105.418 70.0888 105.428C70.0925 105.438 70.0942 105.449 70.0937 105.46L70.0482 106.263C70.0483 106.274 70.046 106.285 70.0415 106.295C70.0371 106.306 70.0305 106.315 70.0223 106.322C70.0141 106.33 70.0044 106.335 69.9939 106.339C69.9833 106.342 69.9722 106.344 69.9611 106.343Z" fill="white" stroke="#263238" stroke-width="0.189355" stroke-miterlimit="10"/>
<path d="M70.5417 107.055C70.5307 107.055 70.5199 107.053 70.5098 107.049C70.4997 107.045 70.4905 107.039 70.4828 107.031C70.475 107.023 70.4689 107.014 70.4647 107.004C70.4605 106.994 70.4584 106.983 70.4584 106.972V106.169C70.4584 106.158 70.4605 106.147 70.4647 106.137C70.4689 106.127 70.475 106.118 70.4828 106.11C70.4905 106.103 70.4997 106.096 70.5098 106.092C70.5199 106.088 70.5307 106.086 70.5417 106.086C70.5526 106.086 70.5635 106.088 70.5736 106.092C70.5837 106.096 70.5929 106.103 70.6006 106.11C70.6083 106.118 70.6145 106.127 70.6187 106.137C70.6229 106.147 70.625 106.158 70.625 106.169V106.972C70.625 106.983 70.6229 106.994 70.6187 107.004C70.6145 107.014 70.6083 107.023 70.6006 107.031C70.5929 107.039 70.5837 107.045 70.5736 107.049C70.5635 107.053 70.5526 107.055 70.5417 107.055Z" fill="white" stroke="#263238" stroke-width="0.189355" stroke-miterlimit="10"/>
<path d="M70.9406 107.938C70.9188 107.933 70.8995 107.92 70.8869 107.902C70.8742 107.884 70.869 107.861 70.8724 107.839L71.0542 106.991C71.0559 106.98 71.0599 106.969 71.066 106.96C71.072 106.951 71.0799 106.943 71.0892 106.937C71.0984 106.931 71.1089 106.927 71.1198 106.925C71.1307 106.923 71.1419 106.924 71.1526 106.926C71.1742 106.931 71.1931 106.944 71.2052 106.962C71.2172 106.981 71.2215 107.003 71.217 107.025L71.039 107.873C71.0336 107.894 71.0205 107.913 71.0023 107.924C70.9841 107.936 70.962 107.941 70.9406 107.938Z" fill="white" stroke="#263238" stroke-width="0.189355" stroke-miterlimit="10"/>
<path d="M71.1675 110.629C71.1675 110.629 71.3909 112.769 71.3455 112.947C71.3 113.125 70.3192 113.348 70.3192 113.348" stroke="#263238" stroke-width="0.37871" stroke-miterlimit="10"/>
<path d="M72.3826 114.318L70.7807 113.94C70.5799 113.888 70.4041 113.767 70.2847 113.598C70.1653 113.428 70.1102 113.222 70.1293 113.016L70.3679 110.717L70.8716 110.77L70.6292 113.069C70.6256 113.153 70.6501 113.235 70.6987 113.304C70.7474 113.373 70.8175 113.423 70.8981 113.447L72.5 113.826L72.3826 114.318Z" fill="black"/>
<path d="M71.7598 113.987L72.4258 114.062L72.2798 115.342L71.6138 115.266L71.7598 113.987Z" fill="black" stroke="#263238" stroke-width="0.37871" stroke-miterlimit="10"/>
<path d="M72.1582 110.572L72.8242 110.648L72.4339 114.069L71.7679 113.993L72.1582 110.572Z" fill="white" stroke="#263238" stroke-width="0.37871" stroke-miterlimit="10"/>
<path d="M71.7094 107.893L70.7172 108.347L70.8421 108.881L70.0999 109.377L70.3044 110.737L72.8228 111.399L73.3984 110.737L72.9478 108.51L71.9972 108.347L71.7094 107.893Z" fill="white" stroke="#263238" stroke-width="0.37871" stroke-miterlimit="10"/>
<path d="M72.4517 108.839L71.3799 108.635L71.1375 108.154L71.7094 107.893L71.9972 108.347L72.9478 108.51L73.3984 110.737L72.944 111.259L72.4517 108.839Z" fill="white" stroke="#263238" stroke-width="0.37871" stroke-miterlimit="10"/>
<path d="M73.987 94.6585C73.5136 90.5192 71.9988 89.6406 70.7945 89.6406H70.7566C70.3764 89.6435 70.0011 89.7265 69.6552 89.8845C69.3093 90.0424 69.0006 90.2716 68.7495 90.5571C66.7044 92.7612 66.9885 98.2866 67.0074 98.6463V111.246C67.0023 111.296 67.0076 111.346 67.0231 111.393C67.0385 111.44 67.0638 111.484 67.0971 111.521C67.1305 111.558 67.1713 111.588 67.2168 111.608C67.2624 111.628 67.3117 111.639 67.3615 111.639C67.4113 111.639 67.4606 111.628 67.5062 111.608C67.5517 111.588 67.5925 111.558 67.6259 111.521C67.6593 111.484 67.6845 111.44 67.6999 111.393C67.7154 111.346 67.7207 111.296 67.7156 111.246V98.6161C67.7156 98.5592 67.4013 93.049 69.2683 91.0419C69.4565 90.8249 69.6892 90.6511 69.9506 90.5321C70.212 90.4132 70.496 90.352 70.7831 90.3526H70.8059C72.4495 90.3526 73.0781 92.7347 73.3016 94.7418C73.5204 96.7295 73.4103 98.7395 72.9759 100.691L72.4381 103.164V106.497L73.6689 100.843C74.1164 98.8132 74.2239 96.7234 73.987 94.6585Z" fill="#263238"/>
<path d="M67.7326 111.818H66.9297V110.584H67.7326V111.818Z" fill="white" stroke="#263238" stroke-width="0.37871" stroke-miterlimit="10"/>
<path d="M73.742 125.511C72.9846 124.041 72.0946 122.375 72.0946 120.391C72.0946 117.361 72.3408 114.899 72.3408 114.873L71.6364 114.805C71.6364 114.827 71.3864 117.323 71.3864 120.391C71.3864 122.553 72.3484 124.375 73.1171 125.84C73.7231 126.995 74.2533 127.995 74.0374 128.681C74.0031 128.849 73.9311 129.007 73.8268 129.144C73.7225 129.28 73.5886 129.391 73.4353 129.468C73.0914 129.568 72.7226 129.536 72.4014 129.377V130.135C72.622 130.204 72.8517 130.241 73.0831 130.245C73.293 130.247 73.5013 130.208 73.6966 130.131C73.9494 130.017 74.1726 129.847 74.3487 129.633C74.5247 129.419 74.6489 129.167 74.7115 128.896C75.0145 127.927 74.4237 126.806 73.742 125.511Z" fill="black"/>
<path d="M94.8775 135.77H24.1875V132.581H94.8775V135.77Z" fill="#919191" stroke="#263238" stroke-width="0.37871" stroke-miterlimit="10"/>
<path d="M94.8782 135.77H86.1641V132.581H94.8782V135.77Z" fill="#BDBDBD" stroke="#263238" stroke-width="0.37871" stroke-miterlimit="10"/>
<path d="M9.68871 33.5508H147.91V48.044H9.68871V33.5508Z" fill="#263238" stroke="#263238" stroke-width="0.37871" stroke-miterlimit="10"/>
<path d="M194.01 48.1738L86.2734 48.1738V33.7402L194.01 33.7402V48.1738Z" fill="white" stroke="#263238" stroke-width="0.37871" stroke-linecap="round" stroke-linejoin="round"/>
<path d="M86.5007 48.0384V34.1738L118.642 42.229C123.164 43.364 127.926 43.0717 132.275 41.392L139.304 38.6843C142.542 37.4356 146.077 37.1721 149.465 37.9268L194.91 48.027L86.5007 48.0384Z" fill="#2F945A" stroke="#263238" stroke-width="0.37871" stroke-miterlimit="10"/>
<path d="M144.929 132.67C144.929 132.67 145.713 134.31 145.573 134.651C145.433 134.992 144.52 134.976 144.52 134.976L144.482 132.742C144.482 132.742 144.687 132.147 144.929 132.67Z" fill="white" stroke="#263238" stroke-width="0.37871" stroke-linecap="round" stroke-linejoin="round"/>
<path d="M142.778 133.88C142.778 133.88 141.789 134.49 141.509 134.638C141.229 134.786 140.047 135.036 140.024 135.285C140.002 135.535 141.161 135.698 141.755 135.782C142.861 135.749 143.96 135.599 145.035 135.335C145.152 135.244 144.713 133.744 144.713 133.744L142.778 133.88Z" fill="white" stroke="#263238" stroke-width="0.37871" stroke-linecap="round" stroke-linejoin="round"/>
<path d="M138.897 112.418C138.897 112.418 139.412 121.238 139.374 122.397C139.336 123.556 139.753 124.359 139.787 124.688C139.821 125.018 142.586 131.85 142.586 131.85L143.112 133.425L144.191 131.774L143.055 124.037L144.191 112.615L141.309 112.236L138.897 112.418Z" fill="#525252" stroke="#263238" stroke-width="0.37871" stroke-linecap="round" stroke-linejoin="round"/>
<path d="M147.953 112.67C147.953 112.67 147.317 116.483 146.65 118.104C145.984 119.725 145.136 124.092 145.136 124.092C145.136 124.092 145.666 126.288 145.317 127.182C144.969 128.076 144.939 132.961 144.939 132.961C144.98 133.247 145 133.536 144.999 133.824C144.973 133.995 144.95 134.283 144.95 134.283C144.95 134.283 144.113 134.139 143.814 134.116C143.515 134.093 142.519 133.923 142.519 133.923C142.519 133.923 142.473 133.306 142.405 132.938C142.337 132.571 142.583 131.973 142.575 131.848C142.568 131.723 142.163 128.485 142.163 128.485C142.163 128.485 141.557 124.099 141.496 123.277C141.436 122.456 142.375 113.692 142.375 113.692C142.375 113.692 144.98 111.973 145.965 111.859C146.95 111.746 147.953 112.67 147.953 112.67Z" fill="#525252" stroke="#263238" stroke-width="0.37871" stroke-linecap="round" stroke-linejoin="round"/>
<path d="M144.986 96.9821C144.986 96.9821 148.617 99.0195 148.633 99.2164C148.648 99.4134 147.909 107.298 147.909 107.298C147.909 107.298 148.364 111.793 148.398 112.282C148.416 112.633 148.408 112.985 148.375 113.335L146.3 112.369C146.3 112.369 142.638 113.982 142.134 114.085L141.161 114.285L140.668 113.399L140.619 114.535C140.197 114.221 139.807 113.864 139.456 113.471L138.661 112.445L139.017 107.423C139.017 107.423 139.396 100.845 139.354 100.485C139.313 100.125 139.79 98.1826 140.112 97.925C140.689 97.6276 141.287 97.3744 141.903 97.1676L144.444 96.6602L144.986 96.9821Z" fill="white" stroke="#263238" stroke-width="0.37871" stroke-linecap="round" stroke-linejoin="round"/>
<path d="M145.52 93.0633C145.441 93.4211 145.313 93.7664 145.141 94.0896C144.933 94.3774 144.353 95.2257 144.353 95.2257L143.065 94.4683L143.304 92.2188L145.52 93.0633Z" fill="#263238" stroke="#263238" stroke-width="0.37871" stroke-linecap="round" stroke-linejoin="round"/>
<path d="M144.55 94.1941L144.766 96.5042L142.179 98.2122L141.725 96.4701L143.895 93.7812L144.55 94.1941Z" fill="#FFBE9D" stroke="#263238" stroke-width="0.37871" stroke-linecap="round" stroke-linejoin="round"/>
<path d="M143.02 96.0566L142.08 97.3556L141.83 96.6701L143.02 96.0566Z" fill="#263238"/>
<path d="M139.975 91.7852L140.047 93.2243L140.237 93.5727L140.202 94.9247L140.449 95.1367C140.449 95.1367 140.827 96.2729 140.899 96.3865C141.077 96.5615 141.277 96.713 141.494 96.8371C141.626 96.8902 142.952 96.1365 143.16 95.826C143.368 95.5155 143.603 95.1367 143.603 95.1367L143.562 94.1218L143.656 92.2283L139.975 91.7852Z" fill="#FFBE9D" stroke="#263238" stroke-width="0.37871" stroke-linecap="round" stroke-linejoin="round"/>
<path d="M141.096 93.6816V94.0604C141.184 94.1031 141.283 94.1211 141.381 94.1125C141.479 94.1038 141.573 94.0688 141.652 94.0111" stroke="#263238" stroke-width="0.37871" stroke-linecap="round" stroke-linejoin="round"/>
<path d="M140.931 95.6515C140.931 95.6515 141.056 95.678 141.332 95.5" stroke="#263238" stroke-width="0.37871" stroke-linecap="round" stroke-linejoin="round"/>
<path d="M141.932 92.588L140.057 92.6941L139.97 91.7852L142.113 92.3722L141.932 92.588Z" fill="#263238"/>
<path d="M140.787 93.5141L141.832 93.4043" stroke="#263238" stroke-width="0.37871" stroke-linecap="round" stroke-linejoin="round"/>
<path d="M140.444 95.1426L141.137 95.1918" stroke="#263238" stroke-width="0.37871" stroke-linecap="round" stroke-linejoin="round"/>
<path d="M139.745 91.7259C139.745 91.7259 139.945 90.3663 140.407 89.9384C140.869 89.5104 143.282 89.162 143.52 89.2756C143.759 89.3892 144.187 89.6051 144.187 89.6051C144.481 89.7689 144.759 89.9603 145.016 90.177C145.208 90.3154 145.366 90.4958 145.478 90.7045C145.589 90.9133 145.652 91.1447 145.66 91.3813C145.663 91.9461 145.617 92.5101 145.52 93.0665L139.745 91.7259Z" fill="#2F945A" stroke="#263238" stroke-width="0.37871" stroke-linecap="round" stroke-linejoin="round"/>
<path d="M144.927 95.7363L142.765 96.7172L142.098 98.4403L145.344 96.9217L144.927 95.7363Z" fill="white" stroke="#263238" stroke-width="0.37871" stroke-linecap="round" stroke-linejoin="round"/>
<path d="M143.444 93.8054C143.444 93.8054 143.69 92.851 144.201 93.1805C144.712 93.51 144.118 94.5514 144.034 94.6953C143.951 94.8393 143.656 94.862 143.493 94.5287" fill="#FFBE9D"/>
<path d="M143.444 93.8054C143.444 93.8054 143.69 92.851 144.201 93.1805C144.712 93.51 144.118 94.5514 144.034 94.6953C143.951 94.8393 143.656 94.862 143.493 94.5287" stroke="#263238" stroke-width="0.37871" stroke-linecap="round" stroke-linejoin="round"/>
<path d="M142.863 92.4214C142.863 92.4214 141.632 93.0198 140.746 92.9629C139.746 92.8948 137.664 92.6524 138.171 92.2548C138.762 92.0577 139.365 91.9008 139.978 91.7852C139.978 91.7852 142.117 92.0881 142.863 92.4214Z" fill="#2F945A" stroke="#263238" stroke-width="0.37871" stroke-linecap="round" stroke-linejoin="round"/>
<path d="M129.033 110.662C130.207 109.583 132.567 109.424 132.673 109.416L132.703 109.92C132.68 109.92 130.753 110.048 129.636 110.821L129.033 110.662Z" fill="white" stroke="#263238" stroke-width="0.37871" stroke-miterlimit="10"/>
<path d="M130.371 110.521C130.368 110.532 130.363 110.541 130.355 110.55C130.348 110.558 130.339 110.565 130.33 110.57C130.32 110.575 130.309 110.578 130.298 110.579C130.287 110.579 130.276 110.578 130.265 110.574L129.508 110.328C129.487 110.32 129.471 110.305 129.461 110.286C129.451 110.266 129.449 110.243 129.455 110.222C129.462 110.201 129.477 110.183 129.497 110.172C129.516 110.162 129.539 110.159 129.561 110.165L130.318 110.415C130.339 110.423 130.356 110.438 130.366 110.458C130.376 110.478 130.378 110.5 130.371 110.521Z" fill="white" stroke="#263238" stroke-width="0.189355" stroke-miterlimit="10"/>
<path d="M131.217 110.157C131.211 110.178 131.197 110.196 131.178 110.208C131.159 110.219 131.137 110.223 131.115 110.218L130.339 110.013C130.318 110.007 130.3 109.993 130.288 109.974C130.277 109.955 130.273 109.933 130.278 109.911C130.281 109.9 130.286 109.89 130.292 109.881C130.299 109.872 130.307 109.865 130.317 109.859C130.326 109.854 130.337 109.85 130.348 109.848C130.359 109.847 130.37 109.848 130.38 109.85L131.138 110.055C131.15 110.056 131.162 110.059 131.173 110.065C131.183 110.071 131.193 110.079 131.2 110.088C131.208 110.098 131.213 110.109 131.216 110.121C131.219 110.133 131.22 110.145 131.217 110.157Z" fill="white" stroke="#263238" stroke-width="0.189355" stroke-miterlimit="10"/>
<path d="M132.175 109.992C132.175 109.992 132.175 109.992 132.175 110.011C132.17 110.021 132.163 110.029 132.155 110.036C132.146 110.043 132.136 110.049 132.126 110.052C132.115 110.055 132.104 110.056 132.093 110.055C132.082 110.054 132.072 110.05 132.062 110.045L131.304 109.666C131.284 109.656 131.269 109.639 131.262 109.617C131.255 109.596 131.257 109.573 131.267 109.553C131.277 109.533 131.294 109.517 131.316 109.51C131.337 109.503 131.36 109.505 131.38 109.515L132.138 109.894C132.154 109.903 132.167 109.918 132.174 109.936C132.181 109.954 132.182 109.974 132.175 109.992Z" fill="white" stroke="#263238" stroke-width="0.189355" stroke-miterlimit="10"/>
<path d="M134.824 110.461C134.824 110.461 136.949 110.794 137.096 110.885C137.244 110.976 137.221 111.976 137.221 111.976" stroke="#263238" stroke-width="0.37871" stroke-miterlimit="10"/>
<path d="M138.715 110.232L137.931 111.683C137.829 111.862 137.666 111.999 137.471 112.069C137.276 112.138 137.063 112.136 136.871 112.061L134.712 111.24L134.89 110.77L137.049 111.588C137.129 111.619 137.217 111.62 137.298 111.591C137.379 111.561 137.446 111.504 137.488 111.429L138.272 109.979L138.715 110.232Z" fill="black"/>
<path d="M138.504 110.128L139.703 110.598L139.459 111.222L138.26 110.753L138.504 110.128Z" fill="black" stroke="#263238" stroke-width="0.37871" stroke-miterlimit="10"/>
<path d="M135.294 108.871L138.5 110.125L138.256 110.749L135.05 109.495L135.294 108.871Z" fill="white" stroke="#263238" stroke-width="0.37871" stroke-miterlimit="10"/>
<path d="M132.323 109.229L132.508 110.305L133.057 110.324L133.345 111.168L134.716 111.316L136 109.055L135.508 108.328L133.239 108.191L132.838 109.066L132.323 109.229Z" fill="white" stroke="#263238" stroke-width="0.37871" stroke-linecap="round" stroke-linejoin="round"/>
<path d="M133.437 108.756L132.964 109.74L132.433 109.85L132.327 109.229L132.842 109.066L133.244 108.191L135.512 108.328L135.902 108.903L133.437 108.756Z" fill="white" stroke="#263238" stroke-width="0.37871" stroke-linecap="round" stroke-linejoin="round"/>
<path d="M146.117 105.825L145.341 106.987L138.357 110.168L137.195 111.255L136.032 110.865L135.021 110.71L136.263 108.616L138.744 108.54L143.398 105.514L144.099 104.658L146.117 105.825Z" fill="white" stroke="#263238" stroke-width="0.37871" stroke-linecap="round" stroke-linejoin="round"/>
<path d="M148.633 99.2188L146.978 106.835L143.331 104.896L145.736 99.4649" fill="white"/>
<path d="M148.633 99.2188L146.978 106.835L143.331 104.896L145.736 99.4649" stroke="#263238" stroke-width="0.37871" stroke-linecap="round" stroke-linejoin="round"/>
<path d="M139.69 110.588C142.757 111.339 145.545 112.951 147.726 115.235C150.843 118.643 154.02 121.987 157.319 125.218C161.083 128.902 164.094 131.368 168.979 133.515C172.456 135.03 177.599 136.545 181.295 135.03C185.961 133.091 184.745 126.482 184.844 122.495C185.041 114.564 185.037 106.612 184.794 98.6852C184.764 97.7081 184.73 96.731 184.673 95.7577C184.59 94.2883 184.476 91.4101 183.863 90.0771C183.386 89.0394 182.348 88.4979 181.697 88.5244C179.477 88.6153 178.822 91.2018 178.584 93.4893C178.345 95.7767 177.936 109.698 177.936 109.698" stroke="#263238" stroke-width="1.13613" stroke-linejoin="round"/>
<path d="M150.414 109.702H150.577C150.741 109.702 150.903 109.662 151.05 109.587C151.197 109.513 151.323 109.404 151.42 109.27C151.516 109.137 151.58 108.983 151.605 108.82C151.63 108.657 151.616 108.491 151.565 108.335C151.357 107.695 151.004 107.047 150.429 106.948C149.202 106.744 145.831 107.763 145.831 108.463C145.831 109.164 145.831 109.482 146.24 109.482H148.793L150.834 111.732L150.879 111.694C150.985 111.605 151.069 111.495 151.127 111.37C151.185 111.246 151.215 111.11 151.215 110.972C151.215 110.835 151.185 110.699 151.127 110.574C151.069 110.45 150.985 110.339 150.879 110.251C150.692 110.097 150.535 109.911 150.414 109.702Z" fill="#263238" stroke="#263238" stroke-width="0.37871" stroke-linecap="round" stroke-linejoin="round"/>
<path d="M127.344 128.696H93.4492C93.4492 128.696 88.5487 125.428 89.5712 116.85C90.5938 108.272 96.104 113.994 98.1452 119.709H113.256C113.256 119.709 116.524 113.176 121.83 113.994C127.135 114.812 127.344 128.696 127.344 128.696Z" fill="#263238" stroke="#263238" stroke-width="0.37871" stroke-linecap="round" stroke-linejoin="round"/>
<path d="M119.02 126.986C118.972 124.714 119.626 122.483 120.894 120.597V118.211H124.981C128.275 118.211 130.945 122.138 130.945 126.986C130.945 131.833 128.275 135.768 124.981 135.768H120.894V133.382C119.625 131.494 118.97 129.26 119.02 126.986Z" fill="#263238" stroke="#263238" stroke-width="0.37871" stroke-linecap="round" stroke-linejoin="round"/>
<path d="M120.891 135.76C117.599 135.76 114.93 131.832 114.93 126.986C114.93 122.139 117.599 118.211 120.891 118.211C124.183 118.211 126.852 122.139 126.852 126.986C126.852 131.832 124.183 135.76 120.891 135.76Z" fill="#263238"/>
<mask id="mask0_12836_95514" style="mask-type:luminance" maskUnits="userSpaceOnUse" x="114" y="118" width="13" height="18">
<path d="M120.887 135.764C117.595 135.764 114.926 131.836 114.926 126.99C114.926 122.143 117.595 118.215 120.887 118.215C124.179 118.215 126.848 122.143 126.848 126.99C126.848 131.836 124.179 135.764 120.887 135.764Z" fill="white"/>
</mask>
<g mask="url(#mask0_12836_95514)">
<path opacity="0.2" d="M120.887 135.764C117.595 135.764 114.926 131.836 114.926 126.99C114.926 122.143 117.595 118.215 120.887 118.215C124.179 118.215 126.848 122.143 126.848 126.99C126.848 131.836 124.179 135.764 120.887 135.764Z" fill="white" stroke="#263238" stroke-width="0.37871" stroke-linecap="round" stroke-linejoin="round"/>
</g>
<path d="M120.891 135.76C117.599 135.76 114.93 131.832 114.93 126.986C114.93 122.139 117.599 118.211 120.891 118.211C124.183 118.211 126.852 122.139 126.852 126.986C126.852 131.832 124.183 135.76 120.891 135.76Z" stroke="#263238" stroke-width="0.37871" stroke-linecap="round" stroke-linejoin="round"/>
<path d="M155.849 118.211H159.709C162.822 118.211 165.344 122.138 165.344 126.986C165.344 131.833 162.822 135.768 159.709 135.768H155.849C152.737 135.768 150.214 131.841 150.214 126.993C150.214 122.146 152.737 118.211 155.849 118.211Z" fill="#263238" stroke="#263238" stroke-width="0.37871" stroke-linecap="round" stroke-linejoin="round"/>
<path d="M120.896 133.999C118.269 133.999 116.139 130.864 116.139 126.996C116.139 123.129 118.269 119.994 120.896 119.994C123.523 119.994 125.652 123.129 125.652 126.996C125.652 130.864 123.523 133.999 120.896 133.999Z" fill="white" stroke="#263238" stroke-width="0.37871" stroke-linecap="round" stroke-linejoin="round"/>
<path d="M91.0945 126.986C91.0481 124.797 91.4543 122.622 92.2874 120.597V118.211H95.8965C97.9945 118.211 99.6836 122.138 99.6836 126.986C99.6836 131.833 97.987 135.76 95.8965 135.76H92.2874V133.374C91.4543 131.35 91.0481 129.175 91.0945 126.986Z" fill="#263238" stroke="#263238" stroke-width="0.37871" stroke-linecap="round" stroke-linejoin="round"/>
<path d="M92.2874 135.76C90.1916 135.76 88.4927 131.832 88.4927 126.986C88.4927 122.139 90.1916 118.211 92.2874 118.211C94.3831 118.211 96.082 122.139 96.082 126.986C96.082 131.832 94.3831 135.76 92.2874 135.76Z" fill="#263238"/>
<mask id="mask1_12836_95514" style="mask-type:luminance" maskUnits="userSpaceOnUse" x="88" y="118" width="9" height="18">
<path d="M92.2874 135.764C90.1916 135.764 88.4927 131.836 88.4927 126.99C88.4927 122.143 90.1916 118.215 92.2874 118.215C94.3831 118.215 96.082 122.143 96.082 126.99C96.082 131.836 94.3831 135.764 92.2874 135.764Z" fill="white"/>
</mask>
<g mask="url(#mask1_12836_95514)">
<path opacity="0.2" d="M92.2874 135.764C90.1916 135.764 88.4927 131.836 88.4927 126.99C88.4927 122.143 90.1916 118.215 92.2874 118.215C94.3831 118.215 96.082 122.143 96.082 126.99C96.082 131.836 94.3831 135.764 92.2874 135.764Z" fill="white" stroke="#263238" stroke-width="0.37871" stroke-linecap="round" stroke-linejoin="round"/>
</g>
<path d="M92.2874 135.76C90.1916 135.76 88.4927 131.832 88.4927 126.986C88.4927 122.139 90.1916 118.211 92.2874 118.211C94.3831 118.211 96.082 122.139 96.082 126.986C96.082 131.832 94.3831 135.76 92.2874 135.76Z" stroke="#263238" stroke-width="0.37871" stroke-linecap="round" stroke-linejoin="round"/>
<path d="M89.2571 126.996C89.2571 130.863 90.6128 133.999 92.2867 133.999C93.9606 133.999 95.3164 130.863 95.3164 126.996C95.3164 123.13 93.9606 119.994 92.2867 119.994C90.6128 119.994 89.2571 123.13 89.2571 126.996Z" fill="white" stroke="#263238" stroke-width="0.37871" stroke-linecap="round" stroke-linejoin="round"/>
<path d="M125.917 129.134C125.917 122.143 123.486 116.474 120.49 116.474C117.495 116.474 115.063 122.155 115.063 129.134C115.063 129.513 115.063 129.892 115.086 130.27H95.7528C95.7528 129.892 95.7717 129.513 95.7717 129.134C95.7717 122.139 93.9994 116.459 91.8029 116.459C90.3448 116.459 89.0724 118.992 88.3945 122.757V112.444C88.3938 111.974 88.5583 111.518 88.8594 111.156C89.1604 110.794 89.5789 110.549 90.0419 110.464L90.1365 110.445C91.4734 110.176 93.8858 107.631 97.6388 104.416C101.392 101.201 104.74 100.932 104.74 100.932H138.596C139.236 100.932 139.858 101.144 140.365 101.534L151.908 110.445C151.908 110.445 162.243 112.452 164.515 114.732C166.787 117.012 166.526 130.259 166.526 130.259H125.887C125.909 129.899 125.917 129.52 125.917 129.134Z" fill="#2F945A" stroke="#263238" stroke-width="0.37871" stroke-linecap="round" stroke-linejoin="round"/>
<path d="M113.055 100.932H138.599C139.238 100.932 139.86 101.144 140.367 101.534L151.91 110.445H119.22L113.055 100.932Z" fill="#74B790" stroke="#263238" stroke-width="0.37871" stroke-linecap="round" stroke-linejoin="round"/>
<path d="M126.429 114.025C128.27 114.048 131.485 114.169 132.867 114.73C134.02 115.184 135.139 115.721 136.215 116.336H129.671L126.429 114.025Z" fill="#263238" stroke="#263238" stroke-width="0.37871" stroke-linecap="round" stroke-linejoin="round"/>
<path d="M129.262 118.351V117.146H136.23L134.969 118.309C134.99 118.321 135.009 118.335 135.026 118.351H129.262Z" fill="#263238" stroke="#263238" stroke-width="0.37871" stroke-linecap="round" stroke-linejoin="round"/>
<path d="M128.598 116.602V118.348C128.327 118.324 128.066 118.238 127.834 118.097C127.602 117.956 127.406 117.763 127.261 117.534C126.59 116.462 125.083 114.016 125.083 114.016L128.598 116.602Z" fill="#263238" stroke="#263238" stroke-width="0.37871" stroke-linecap="round" stroke-linejoin="round"/>
<path d="M163.863 118.305L162.602 117.143H165.574C165.665 117.521 165.752 117.923 165.828 118.347H163.806C163.823 118.331 163.842 118.317 163.863 118.305Z" fill="#263238" stroke="#263238" stroke-width="0.37871" stroke-linecap="round" stroke-linejoin="round"/>
<path d="M164.851 115.197C165.054 115.558 165.218 115.938 165.34 116.333H162.594C163.326 115.915 164.08 115.536 164.851 115.197Z" fill="#263238" stroke="#263238" stroke-width="0.37871" stroke-linecap="round" stroke-linejoin="round"/>
<path d="M119.215 110.448H99.3742C99.3742 110.448 96.5604 109.508 97.3633 106.024C97.636 104.843 103.26 102.139 104.063 102.139H113.72L119.215 110.448Z" fill="#263238"/>
<mask id="mask2_12836_95514" style="mask-type:luminance" maskUnits="userSpaceOnUse" x="97" y="102" width="23" height="9">
<path d="M119.211 110.444H99.3703C99.3703 110.444 96.5565 109.504 97.3594 106.02C97.632 104.839 103.256 102.135 104.059 102.135H113.716L119.211 110.444Z" fill="white"/>
</mask>
<g mask="url(#mask2_12836_95514)">
<path opacity="0.2" d="M119.211 110.444H99.3703C99.3703 110.444 96.5565 109.504 97.3594 106.02C97.632 104.839 103.256 102.135 104.059 102.135H113.716L119.211 110.444Z" fill="white" stroke="#263238" stroke-width="0.37871" stroke-linecap="round" stroke-linejoin="round"/>
</g>
<path d="M119.215 110.448H99.3742C99.3742 110.448 96.5604 109.508 97.3633 106.024C97.636 104.843 103.26 102.139 104.063 102.139H113.72L119.215 110.448Z" stroke="#263238" stroke-width="0.37871" stroke-linecap="round" stroke-linejoin="round"/>
<path d="M141.143 102.139L151.91 110.448H119.216L113.835 102.139H141.143Z" fill="#263238" stroke="#263238" stroke-width="0.37871" stroke-linecap="round" stroke-linejoin="round"/>
<path d="M162.09 116.607V119.421L160.083 120.894H143.87L140.117 119.289V116.607H162.09Z" fill="#263238" stroke="#263238" stroke-width="0.37871" stroke-linecap="round" stroke-linejoin="round"/>
<path opacity="0.3" d="M161.34 116.607H162.09V117.357H161.34V116.607Z" fill="white" stroke="#263238" stroke-width="0.37871" stroke-linecap="round" stroke-linejoin="round"/>
<path opacity="0.3" d="M160.512 117.432H161.262V118.181H160.512V117.432Z" fill="white" stroke="#263238" stroke-width="0.37871" stroke-linecap="round" stroke-linejoin="round"/>
<path opacity="0.3" d="M159.688 118.268H160.438V119.017H159.688V118.268Z" fill="white" stroke="#263238" stroke-width="0.37871" stroke-linecap="round" stroke-linejoin="round"/>
<path opacity="0.3" d="M158.856 119.098H159.605V119.847H158.856V119.098Z" fill="white" stroke="#263238" stroke-width="0.37871" stroke-linecap="round" stroke-linejoin="round"/>
<path opacity="0.3" d="M140.27 116.607H141.02V117.357H140.27V116.607Z" fill="white" stroke="#263238" stroke-width="0.37871" stroke-linecap="round" stroke-linejoin="round"/>
<path opacity="0.3" d="M141.09 117.432H141.84V118.181H141.09V117.432Z" fill="white" stroke="#263238" stroke-width="0.37871" stroke-linecap="round" stroke-linejoin="round"/>
<path opacity="0.3" d="M141.922 118.268H142.672V119.017H141.922V118.268Z" fill="white" stroke="#263238" stroke-width="0.37871" stroke-linecap="round" stroke-linejoin="round"/>
<path opacity="0.3" d="M142.754 119.098H143.504V119.847H142.754V119.098Z" fill="white" stroke="#263238" stroke-width="0.37871" stroke-linecap="round" stroke-linejoin="round"/>
<path opacity="0.3" d="M157.703 119.098H158.453V119.847H157.703V119.098Z" fill="white" stroke="#263238" stroke-width="0.37871" stroke-linecap="round" stroke-linejoin="round"/>
<path opacity="0.3" d="M156.555 119.098H157.305V119.847H156.555V119.098Z" fill="white" stroke="#263238" stroke-width="0.37871" stroke-linecap="round" stroke-linejoin="round"/>
<path opacity="0.3" d="M155.406 119.098H156.156V119.847H155.406V119.098Z" fill="white" stroke="#263238" stroke-width="0.37871" stroke-linecap="round" stroke-linejoin="round"/>
<path opacity="0.3" d="M154.258 119.098H155.008V119.847H154.258V119.098Z" fill="white" stroke="#263238" stroke-width="0.37871" stroke-linecap="round" stroke-linejoin="round"/>
<path opacity="0.3" d="M153.106 119.098H153.855V119.847H153.106V119.098Z" fill="white" stroke="#263238" stroke-width="0.37871" stroke-linecap="round" stroke-linejoin="round"/>
<path opacity="0.3" d="M151.953 119.098H152.703V119.847H151.953V119.098Z" fill="white" stroke="#263238" stroke-width="0.37871" stroke-linecap="round" stroke-linejoin="round"/>
<path opacity="0.3" d="M150.805 119.098H151.555V119.847H150.805V119.098Z" fill="white" stroke="#263238" stroke-width="0.37871" stroke-linecap="round" stroke-linejoin="round"/>
<path opacity="0.3" d="M149.656 119.098H150.406V119.847H149.656V119.098Z" fill="white" stroke="#263238" stroke-width="0.37871" stroke-linecap="round" stroke-linejoin="round"/>
<path opacity="0.3" d="M148.504 119.098H149.254V119.847H148.504V119.098Z" fill="white" stroke="#263238" stroke-width="0.37871" stroke-linecap="round" stroke-linejoin="round"/>
<path opacity="0.3" d="M147.356 119.098H148.105V119.847H147.356V119.098Z" fill="white" stroke="#263238" stroke-width="0.37871" stroke-linecap="round" stroke-linejoin="round"/>
<path opacity="0.3" d="M146.203 119.098H146.953V119.847H146.203V119.098Z" fill="white" stroke="#263238" stroke-width="0.37871" stroke-linecap="round" stroke-linejoin="round"/>
<path opacity="0.3" d="M145.055 119.098H145.805V119.847H145.055V119.098Z" fill="white" stroke="#263238" stroke-width="0.37871" stroke-linecap="round" stroke-linejoin="round"/>
<path opacity="0.3" d="M143.906 119.098H144.656V119.847H143.906V119.098Z" fill="white" stroke="#263238" stroke-width="0.37871" stroke-linecap="round" stroke-linejoin="round"/>
<path d="M132.348 124.381H165.712L166.159 120.806C166.364 122.771 166.454 124.866 166.496 126.585L166.379 127.062L165.712 125.722H162.849L164.637 127.195H138.127L139.078 125.722H132.367L130.492 126.793H129.152V119.977L132.348 124.381Z" fill="#263238" stroke="#263238" stroke-width="0.37871" stroke-linecap="round" stroke-linejoin="round"/>
<path d="M106.139 110.448H105.022C105.14 108.804 105.609 105.183 107.45 102.139H108.586C107.923 103.54 106.393 107.149 106.139 110.448Z" fill="#263238" stroke="#263238" stroke-width="0.37871" stroke-linecap="round" stroke-linejoin="round"/>
<path d="M130.311 104.398L129.902 105.534C130.405 106.015 130.699 106.675 130.72 107.371V110.465H133.231L131.129 104.406L130.311 104.398ZM142.051 105.913C143.774 106.962 146.38 109.276 147.641 110.435H139.248L134.905 103.77L137.764 103.974C139.272 104.435 140.713 105.092 142.051 105.928V105.913ZM124.695 105.103L125.717 104.898H127.145L127.554 105.307C127.554 105.307 126.531 105.409 126.418 106.023C126.347 106.633 126.313 107.246 126.315 107.86H125.6C125.6 107.86 125.6 106.723 125.088 106.227C124.799 105.935 124.492 105.662 124.168 105.409L124.695 105.103Z" fill="#525252" stroke="#263238" stroke-width="0.37871" stroke-linecap="round" stroke-linejoin="round"/>
<path d="M112.238 109.702H112.405C112.569 109.702 112.732 109.662 112.878 109.587C113.025 109.513 113.151 109.404 113.248 109.27C113.344 109.137 113.408 108.983 113.433 108.82C113.458 108.657 113.445 108.491 113.393 108.335C113.185 107.695 112.833 107.047 112.238 106.948C111.015 106.744 107.644 107.763 107.644 108.463C107.644 109.164 107.644 109.482 108.053 109.482H110.606L112.636 111.747L112.681 111.709C112.786 111.62 112.871 111.51 112.929 111.385C112.987 111.261 113.017 111.125 113.017 110.987C113.017 110.85 112.987 110.714 112.929 110.59C112.871 110.465 112.786 110.355 112.681 110.266C112.503 110.104 112.353 109.913 112.238 109.702Z" fill="white" stroke="#263238" stroke-width="0.37871" stroke-linecap="round" stroke-linejoin="round"/>
<path d="M112.687 111.713L112.642 111.751L110.601 109.502H108.048C107.711 109.502 107.669 109.29 107.643 108.812H113.426C113.392 109.06 113.269 109.288 113.08 109.452C112.892 109.616 112.65 109.707 112.399 109.706H112.233C112.351 109.919 112.505 110.109 112.687 110.271C112.792 110.359 112.877 110.469 112.935 110.594C112.993 110.719 113.023 110.855 113.023 110.992C113.023 111.129 112.993 111.265 112.935 111.39C112.877 111.514 112.792 111.625 112.687 111.713Z" fill="#263238" stroke="#263238" stroke-width="0.37871" stroke-linecap="round" stroke-linejoin="round"/>
<path d="M106.381 112.906H108.68V113.399H106.381V112.906Z" fill="#263238" stroke="#263238" stroke-width="0.37871" stroke-linecap="round" stroke-linejoin="round"/>
<path d="M96.0411 112.906H98.3398V113.399H96.0411V112.906Z" fill="#263238" stroke="#263238" stroke-width="0.37871" stroke-linecap="round" stroke-linejoin="round"/>
<path d="M95.8785 110.943C95.8785 110.943 94.216 112.079 93.2502 116.033C93.2502 116.033 97.3555 116.526 97.3555 127.849" stroke="#263238" stroke-width="0.37871" stroke-linecap="round" stroke-linejoin="round"/>
<path d="M97.8626 128.342H115.075C115.075 128.594 115.075 128.859 115.075 129.137C115.075 129.516 115.075 129.895 115.098 130.273H95.7645C95.7645 129.895 95.7835 129.516 95.7835 129.137C95.7835 129.111 95.7835 129.084 95.7835 129.058L97.8626 128.342Z" fill="#263238" stroke="#263238" stroke-width="0.37871" stroke-linecap="round" stroke-linejoin="round"/>
<path d="M125.914 129.137C125.914 128.872 125.914 128.607 125.914 128.342H166.52C166.52 129.523 166.52 130.277 166.52 130.277H125.884C125.907 129.902 125.914 129.523 125.914 129.137Z" fill="#263238" stroke="#263238" stroke-width="0.37871" stroke-linecap="round" stroke-linejoin="round"/>
<path d="M89.1268 111.914C89.3312 111.914 89.532 111.967 89.7096 112.068C89.8872 112.169 90.0355 112.315 90.1397 112.491C90.244 112.666 90.3008 112.866 90.3045 113.071C90.3082 113.275 90.2586 113.477 90.1607 113.656L88.4073 116.871V112.444C88.4093 112.269 88.4348 112.094 88.483 111.925H89.1268V111.914Z" fill="#263238" stroke="#263238" stroke-width="0.37871" stroke-linecap="round" stroke-linejoin="round"/>
<path d="M104.883 112.146C104.883 112.146 101.209 117.448 104.883 126.439" stroke="#263238" stroke-width="0.37871" stroke-linecap="round" stroke-linejoin="round"/>
<path d="M51.5792 22.2352H42.4148C42.4148 22.2352 42.103 21.2997 43.2464 20.676C44.3897 20.0524 44.9129 20.5721 45.3252 20.0489C45.7375 19.5257 44.1819 18.1745 47.3036 16.8232C47.3036 16.8232 47.5115 13.9093 51.7801 13.8054C53.6199 13.7603 54.4549 14.2974 54.8984 14.9799" stroke="#263238" stroke-width="0.346479" stroke-linecap="round" stroke-linejoin="round"/>
<path d="M54.3789 22.2344H52.8544" stroke="#263238" stroke-width="0.346479" stroke-linecap="round" stroke-linejoin="round"/>
<path d="M55.4591 16.4199C55.5239 16.8268 55.7345 17.1963 56.0516 17.4594C57.1949 18.187 57.5068 17.0436 58.6536 17.7712C59.8005 18.4988 59.2773 19.9575 60.2162 20.1654C61.1552 20.3732 62.399 19.2299 63.5459 19.9575C64.6927 20.6851 64.6893 21.3122 65.2125 21.3122C65.7356 21.3122 66.7716 20.8964 67.3987 21.3122C68.0259 21.728 68.75 22.2477 68.75 22.2477H57.0459" stroke="#263238" stroke-width="0.346479" stroke-linecap="round" stroke-linejoin="round"/>
</g>
</g>
<defs>
<linearGradient id="paint0_linear_12836_95514" x1="135" y1="0" x2="135" y2="150" gradientUnits="userSpaceOnUse">
<stop stop-color="#F8FFFB"/>
<stop offset="1" stop-color="white" stop-opacity="0.4"/>
</linearGradient>
<clipPath id="clip0_12836_95514">
<rect width="270" height="150" fill="white" transform="translate(0 0.125)"/>
</clipPath>
<clipPath id="clip1_12836_95514">
<rect width="284.032" height="189.355" fill="white" transform="matrix(-1 0 0 1 227 -19.875)"/>
</clipPath>
</defs>
</svg>
