<svg width="30" height="31" viewBox="0 0 30 31" fill="none" xmlns="http://www.w3.org/2000/svg">
<rect y="0.125" width="30" height="30" rx="6.25" fill="#EAF4EF"/>
<path d="M7.5 23.625V8.4327C7.5 7.92757 7.675 7.5 8.025 7.15C8.375 6.8 8.80257 6.625 9.3077 6.625H14.6923C15.1974 6.625 15.625 6.8 15.975 7.15C16.325 7.5 16.5 7.92757 16.5 8.4327V14.9327H17.4615C17.9586 14.9327 18.3841 15.1097 18.7381 15.4637C19.0921 15.8177 19.2692 16.2432 19.2692 16.7403V21.2788C19.2692 21.6006 19.381 21.8734 19.6047 22.0971C19.8285 22.3208 20.1012 22.4327 20.423 22.4327C20.7448 22.4327 21.0176 22.3208 21.2413 22.0971C21.465 21.8734 21.5769 21.6006 21.5769 21.2788V14.2711C21.4269 14.3609 21.2685 14.423 21.1019 14.4577C20.9352 14.4923 20.7602 14.5096 20.5769 14.5096C19.963 14.5096 19.4442 14.2977 19.0204 13.8738C18.5965 13.45 18.3846 12.9311 18.3846 12.3173C18.3846 11.8224 18.5256 11.3817 18.8077 10.9952C19.0897 10.6087 19.4628 10.3494 19.9269 10.2173L17.673 7.96345L18.5115 7.125L22.0768 10.6289C22.3012 10.8532 22.4727 11.1131 22.5913 11.4086C22.7099 11.7041 22.7691 12.007 22.7691 12.3173V21.2788C22.7691 21.9357 22.5425 22.491 22.0893 22.9446C21.6361 23.3982 21.0813 23.625 20.4249 23.625C19.7685 23.625 19.2131 23.3982 18.7586 22.9446C18.3041 22.491 18.0769 21.9357 18.0769 21.2788V16.4327C18.0769 16.3429 18.048 16.2692 17.9903 16.2115C17.9326 16.1538 17.8589 16.125 17.7692 16.125H16.5V23.625H7.5ZM8.99997 13.375H15V8.4327C15 8.35577 14.9679 8.28524 14.9038 8.22113C14.8397 8.15703 14.7692 8.12498 14.6923 8.12498H9.3077C9.23077 8.12498 9.16024 8.15703 9.09612 8.22113C9.03202 8.28524 8.99997 8.35577 8.99997 8.4327V13.375ZM20.5769 13.3173C20.8602 13.3173 21.0977 13.2215 21.2894 13.0298C21.481 12.8381 21.5769 12.6006 21.5769 12.3173C21.5769 12.034 21.481 11.7965 21.2894 11.6048C21.0977 11.4131 20.8602 11.3173 20.5769 11.3173C20.2935 11.3173 20.056 11.4131 19.8644 11.6048C19.6727 11.7965 19.5769 12.034 19.5769 12.3173C19.5769 12.6006 19.6727 12.8381 19.8644 13.0298C20.056 13.2215 20.2935 13.3173 20.5769 13.3173ZM8.99997 22.125H15V14.875H8.99997V22.125Z" fill="#2F945A"/>
</svg>
