<svg width="30" height="31" viewBox="0 0 30 31" fill="none" xmlns="http://www.w3.org/2000/svg">
<rect y="0.125" width="30" height="30" rx="6.25" fill="#EAF4EF"/>
<path d="M21.1398 26.9511L16.6957 22.3224V21.1718H18.9565C19.6157 21.1718 20.2007 20.9607 20.7117 20.5384C21.2227 20.1161 21.5046 19.5514 21.5572 18.8441H16V17.8007H21.4155C21.245 17.3234 20.9378 16.9321 20.4937 16.6267C20.0496 16.3212 19.5372 16.1685 18.9565 16.1685H16V15.125H24V16.1685H21.4983C21.7453 16.3656 21.9616 16.6057 22.1471 16.8888C22.3326 17.1721 22.458 17.476 22.5231 17.8007H24V18.8441H22.6113C22.5632 19.8296 22.1842 20.6379 21.4743 21.2688C20.7643 21.8998 19.9251 22.2153 18.9565 22.2153H18.0442L22.5885 26.9511H21.1398Z" fill="#2F945A"/>
<path fill-rule="evenodd" clip-rule="evenodd" d="M15 5.625C16.0358 5.625 16.9202 5.99066 17.6523 6.72266C18.3843 7.45482 18.75 8.33917 18.75 9.375V9.625H20.6924C21.1975 9.62503 21.6246 9.80042 21.9746 10.1504C22.3246 10.5004 22.5 10.9275 22.5 11.4326V14.125H21V11.4326C21 11.3557 20.9675 11.2856 20.9033 11.2217C20.8394 11.1575 20.7693 11.125 20.6924 11.125H18.75V13.375C18.75 13.5878 18.6778 13.7657 18.5342 13.9092C18.3907 14.0528 18.2128 14.125 18 14.125C17.7872 14.125 17.6093 14.0528 17.4658 13.9092C17.3222 13.7657 17.25 13.5878 17.25 13.375V11.125H12.75V13.375C12.75 13.5878 12.6778 13.7657 12.5342 13.9092C12.3907 14.0528 12.2128 14.125 12 14.125C11.7872 14.125 11.6093 14.0528 11.4658 13.9092C11.3222 13.7657 11.25 13.5878 11.25 13.375V11.125H9.30762C9.23067 11.125 9.16064 11.1575 9.09668 11.2217C9.03255 11.2856 9.00004 11.3557 9 11.4326V22.8174C9.00004 22.8943 9.03255 22.9644 9.09668 23.0283C9.16064 23.0925 9.23067 23.125 9.30762 23.125H15.917L17.167 24.625H9.30762C8.80251 24.625 8.37536 24.4496 8.02539 24.0996C7.67542 23.7496 7.50003 23.3225 7.5 22.8174V11.4326C7.50003 10.9275 7.67542 10.5004 8.02539 10.1504C8.37536 9.80042 8.80251 9.62503 9.30762 9.625H11.25V9.375C11.25 8.33917 11.6157 7.45482 12.3477 6.72266C13.0798 5.99066 13.9642 5.625 15 5.625ZM15 7.125C14.373 7.125 13.8408 7.3428 13.4043 7.7793C12.9678 8.21596 12.75 8.74817 12.75 9.375V9.625H17.25V9.375C17.25 8.74817 17.0322 8.21596 16.5957 7.7793C16.1592 7.3428 15.627 7.125 15 7.125Z" fill="#2F945A"/>
</svg>
