<svg width="30" height="31" viewBox="0 0 30 31" fill="none" xmlns="http://www.w3.org/2000/svg">
<rect y="0.125" width="30" height="30" rx="6.25" fill="#EAF4EF"/>
<path d="M15.1722 24.6058C14.044 24.4689 12.9235 24.1687 11.8107 23.705C10.6978 23.2413 9.69782 22.5714 8.81066 21.6953C7.92349 20.8189 7.19624 19.7103 6.62891 18.3693C6.06174 17.0283 5.75566 15.4148 5.71066 13.529L5.69141 12.625L6.57616 12.6443C7.34916 12.6634 8.20007 12.8054 9.12891 13.0703C10.0577 13.3349 10.885 13.6968 11.6107 14.1558C11.753 12.8123 12.1351 11.4168 12.7569 9.96927C13.3787 8.52193 14.1262 7.28543 14.9992 6.25977C15.8722 7.28543 16.6196 8.52518 17.2414 9.97901C17.8632 11.4328 18.2453 12.8315 18.3877 14.175C19.094 13.7353 19.9052 13.3751 20.8212 13.0943C21.7372 12.8134 22.5977 12.6634 23.4029 12.6443L24.3069 12.625L24.2877 13.548C24.262 15.2545 24.0087 16.7446 23.5279 18.0183C23.0472 19.2919 22.3986 20.3733 21.5819 21.2625C20.7652 22.1515 19.8107 22.8678 18.7184 23.4115C17.6261 23.955 16.444 24.3531 15.1722 24.6058ZM15.1414 23.075C14.9581 20.3083 14.1372 18.2167 12.6789 16.8C11.2206 15.3833 9.40807 14.5083 7.24141 14.175C7.42474 17.025 8.27057 19.15 9.77891 20.55C11.2872 21.95 13.0747 22.7917 15.1414 23.075ZM14.9992 17.379C15.2363 16.9867 15.5325 16.5786 15.8877 16.1548C16.2428 15.7311 16.5967 15.3712 16.9492 15.075C16.9287 14.0865 16.7476 13.0548 16.4059 11.9798C16.0642 10.9048 15.5953 9.86601 14.9992 8.86351C14.403 9.86601 13.9341 10.9048 13.5924 11.9798C13.2507 13.0548 13.0697 14.0865 13.0492 15.075C13.4017 15.3712 13.7565 15.7311 14.1137 16.1548C14.4707 16.5786 14.7658 16.9867 14.9992 17.379ZM16.6414 22.6828C17.3414 22.4506 18.0376 22.1301 18.7299 21.7213C19.4222 21.3123 20.0543 20.7738 20.6262 20.1058C21.1978 19.4378 21.6767 18.6185 22.0627 17.648C22.4485 16.6775 22.6799 15.5198 22.7569 14.175C21.1646 14.4083 19.7575 14.9532 18.5357 15.8095C17.3138 16.666 16.4055 17.7353 15.8107 19.0173C16.0107 19.5506 16.1783 20.1115 16.3137 20.7C16.4488 21.2885 16.5581 21.9494 16.6414 22.6828Z" fill="#2F945A"/>
</svg>
