<svg width="270" height="151" viewBox="0 0 270 151" fill="none" xmlns="http://www.w3.org/2000/svg">
<g clip-path="url(#clip0_12836_98573)">
<rect width="270" height="150" transform="translate(0 0.125)" fill="url(#paint0_linear_12836_98573)"/>
<path d="M74.5324 75.6103C74.5324 75.6103 74.5324 73.971 72.2391 71.6863C69.9457 69.4017 68.472 68.085 68.472 68.085C68.472 68.085 67.3253 71.852 69.4574 74.1454C71.0223 75.7585 72.7199 77.2374 74.5324 78.5664V75.6103Z" fill="white"/>
<path d="M71.2088 85.8388C71.2088 85.8388 71.2088 84.1995 68.9154 81.9148C66.6221 79.6302 65.1484 78.3135 65.1484 78.3135C65.1484 78.3135 64.0017 82.0805 66.1294 84.3739C67.6964 85.9865 69.3955 87.4653 71.2088 88.7949V85.8388Z" fill="white"/>
<path d="M74.3955 78.4008C74.3955 78.4008 74.5699 76.7702 77.09 74.734C79.6101 72.6979 81.2189 71.5469 81.2189 71.5469C81.2189 71.5469 81.9601 75.4142 79.6013 77.4721C77.8737 78.9099 76.0288 80.2006 74.0859 81.3307L74.3955 78.4008Z" fill="white"/>
<path d="M70.3721 90.4824C70.3721 90.4824 70.7166 88.878 73.4241 87.1165C76.1317 85.3551 77.8844 84.3828 77.8844 84.3828C77.8844 84.3828 78.2158 88.3068 75.6564 90.1031C73.7859 91.3527 71.8141 92.4436 69.7617 93.3644L70.3721 90.4824Z" fill="white"/>
<path d="M71.125 103.645C71.125 103.645 71.125 102.005 73.4184 99.7205C75.7117 97.4359 77.1854 96.1191 77.1854 96.1191C77.1854 96.1191 78.3321 99.8862 76.2044 102.18C74.6385 103.793 72.9393 105.272 71.125 106.601V103.645Z" fill="white"/>
<path d="M71.0901 106.868C71.0901 106.868 71.3211 105.246 69.3766 102.652C67.432 100.057 66.1589 98.5488 66.1589 98.5488C66.1589 98.5488 64.489 102.115 66.2723 104.688C67.5943 106.507 69.0658 108.214 70.6715 109.789L71.0901 106.868Z" fill="white"/>
<path d="M68.8281 116.398C68.8281 116.398 68.8281 114.759 71.1215 112.474C73.4148 110.189 74.8885 108.868 74.8885 108.868C74.8885 108.868 76.0352 112.64 73.9075 114.933C72.34 116.541 70.641 118.015 68.8281 119.341V116.398Z" fill="white"/>
<path d="M70.3592 125.036C70.3592 125.036 69.945 123.453 71.5843 120.654C73.2237 117.855 74.3137 116.211 74.3137 116.211C74.3137 116.211 76.3803 119.564 74.8979 122.315C73.7924 124.273 72.5235 126.134 71.1047 127.878L70.3592 125.036Z" fill="white"/>
<path d="M74.7431 75.1914C74.6252 76.896 74.4156 78.5931 74.1153 80.2752C73.2084 84.9578 70.9412 87.9793 70.0343 92.2128C69.1274 96.4464 71.7304 101.892 71.0328 107.325C70.3352 112.757 68.2206 115.779 68.8266 119.406C69.4326 123.034 72.6024 132.857 72.6024 132.857" stroke="#263238" stroke-width="0.436" stroke-linecap="round" stroke-linejoin="round"/>
<path d="M74.3672 79.4864L76.8393 77.5898" stroke="#263238" stroke-width="0.436" stroke-linecap="round" stroke-linejoin="round"/>
<path d="M74.4825 77.3014L73.4492 75.4658" stroke="#263238" stroke-width="0.436" stroke-linecap="round" stroke-linejoin="round"/>
<path d="M70.1758 92.0164C70.1758 92.0164 72.2424 90.4643 74.3701 88.9121" stroke="#263238" stroke-width="0.436" stroke-linecap="round" stroke-linejoin="round"/>
<path d="M71.2072 88.7864C70.1769 86.7875 68.9438 84.8999 67.5273 83.1533" stroke="#263238" stroke-width="0.436" stroke-linecap="round" stroke-linejoin="round"/>
<path d="M71.207 105.982C72.3875 103.806 73.8782 101.813 75.6324 100.065" stroke="#263238" stroke-width="0.436" stroke-linecap="round" stroke-linejoin="round"/>
<path d="M70.8068 108.284C70.1774 106.807 69.4278 105.383 68.5657 104.029C67.358 102.245 67.1836 102.019 67.1836 102.019" stroke="#263238" stroke-width="0.436" stroke-linecap="round" stroke-linejoin="round"/>
<path d="M68.8281 119.407C69.3517 118.105 69.9741 116.846 70.6898 115.64C71.4078 114.522 72.2157 113.465 73.1053 112.479" stroke="#263238" stroke-width="0.436" stroke-linecap="round" stroke-linejoin="round"/>
<path d="M71.1019 127.887C70.9836 126.643 71.1988 125.391 71.7254 124.259C72.5974 122.594 73.561 120.409 73.9664 119.546" stroke="#263238" stroke-width="0.436" stroke-linecap="round" stroke-linejoin="round"/>
<path d="M55.822 97.493C55.822 97.493 55.6433 96.464 56.8336 94.7767C58.0238 93.0894 58.8043 92.1084 58.8043 92.1084C58.8043 92.1084 59.9335 94.3494 58.8479 96.0324C58.0389 97.2142 57.1333 98.327 56.1403 99.3591L55.822 97.493Z" fill="white"/>
<path d="M59.0168 103.544C59.0168 103.544 58.8424 102.52 60.0283 100.832C61.2143 99.1451 61.9991 98.1641 61.9991 98.1641C61.9991 98.1641 63.1283 100.401 62.0427 102.088C61.2365 103.269 60.3323 104.381 59.3395 105.41L59.0168 103.544Z" fill="white"/>
<path d="M56.2142 99.2287C56.2142 99.2287 55.9308 98.2259 54.1258 97.2187C52.3208 96.2115 51.1915 95.6709 51.1915 95.6709C51.1915 95.6709 51.1479 98.1779 52.8483 99.2069C54.0886 99.9216 55.3866 100.531 56.7287 101.029L56.2142 99.2287Z" fill="white"/>
<path d="M60.0468 106.366C60.0468 106.366 59.6588 105.398 57.7622 104.591C55.8656 103.785 54.6797 103.357 54.6797 103.357C54.6797 103.357 54.8977 105.856 56.6984 106.702C58.0066 107.283 59.3616 107.752 60.7488 108.105L60.0468 106.366Z" fill="white"/>
<path d="M61.0059 114.706C61.0059 114.706 60.8271 113.673 59.1355 112.491C57.4438 111.31 56.3799 110.643 56.3799 110.643C56.3799 110.643 56.0704 113.128 57.6531 114.335C58.8095 115.177 60.0346 115.919 61.3155 116.555L61.0059 114.706Z" fill="white"/>
<path d="M61.3779 116.725C61.3779 116.725 61.0552 115.731 61.9926 113.896C62.93 112.06 63.5666 110.975 63.5666 110.975C63.5666 110.975 65.001 113.028 64.1639 114.833C63.532 116.118 62.7941 117.347 61.9577 118.509L61.3779 116.725Z" fill="white"/>
<path d="M64.2557 125.009C64.2557 125.009 64.3778 123.975 65.9997 122.689C67.6216 121.403 68.6462 120.684 68.6462 120.684C68.6462 120.684 69.0822 123.151 67.5824 124.446C66.4748 125.353 65.2935 126.165 64.0508 126.875L64.2557 125.009Z" fill="white"/>
<path d="M63.8296 122.45C63.8296 122.45 63.6508 121.421 61.9635 120.235C60.2762 119.049 59.208 118.382 59.208 118.382C59.208 118.382 58.8984 120.871 60.4855 122.075C61.6419 122.917 62.867 123.661 64.1479 124.298L63.8296 122.45Z" fill="white"/>
<path d="M63.8066 128.035C63.8066 128.035 63.8982 126.993 62.564 125.419C61.2299 123.845 60.384 122.93 60.384 122.93C60.384 122.93 59.4554 125.258 60.6805 126.828C61.587 127.934 62.5846 128.962 63.6628 129.901L63.8066 128.035Z" fill="white"/>
<path d="M55.6484 97.2529C55.9058 98.3102 56.2217 99.3524 56.5946 100.375C57.6715 103.213 59.4198 104.861 60.4488 107.416C61.4778 109.971 60.4488 113.668 61.4603 117.008C62.4718 120.348 64.1417 122.005 64.1592 124.346C64.1766 126.687 63.2479 133.188 63.2479 133.188" stroke="#263238" stroke-width="0.436" stroke-linecap="round" stroke-linejoin="round"/>
<path d="M56.3508 99.9087L54.5938 98.9844" stroke="#263238" stroke-width="0.436" stroke-linecap="round" stroke-linejoin="round"/>
<path d="M56.0391 98.5486L56.4881 97.2842" stroke="#263238" stroke-width="0.436" stroke-linecap="round" stroke-linejoin="round"/>
<path d="M60.338 107.308C60.338 107.308 58.873 106.558 57.3906 105.825" stroke="#263238" stroke-width="0.436" stroke-linecap="round" stroke-linejoin="round"/>
<path d="M59.3398 105.389C59.7706 104.027 60.3389 102.712 61.0359 101.465" stroke="#263238" stroke-width="0.436" stroke-linecap="round" stroke-linejoin="round"/>
<path d="M61.2073 116.18C60.2306 114.942 59.0792 113.852 57.7891 112.945" stroke="#263238" stroke-width="0.436" stroke-linecap="round" stroke-linejoin="round"/>
<path d="M61.707 117.597C61.9396 116.603 62.2547 115.631 62.6488 114.689C63.2156 113.438 63.2984 113.276 63.2984 113.276" stroke="#263238" stroke-width="0.436" stroke-linecap="round" stroke-linejoin="round"/>
<path d="M64.0742 126.112C64.6449 125.404 65.2767 124.747 65.9621 124.15C66.3986 123.829 66.8084 123.473 67.1873 123.086" stroke="#263238" stroke-width="0.436" stroke-linecap="round" stroke-linejoin="round"/>
<path d="M64.1583 124.337C63.6884 123.572 63.1608 122.843 62.58 122.157C62.0089 121.535 61.3877 120.96 60.7227 120.439" stroke="#263238" stroke-width="0.436" stroke-linecap="round" stroke-linejoin="round"/>
<path d="M63.6481 129.901C63.5883 129.11 63.3189 128.348 62.8676 127.695C62.1439 126.745 61.2937 125.48 60.9492 124.983" stroke="#263238" stroke-width="0.436" stroke-linecap="round" stroke-linejoin="round"/>
<path d="M60.7148 132.046H75.7045V136.781C75.7045 137.186 75.5437 137.574 75.2576 137.86C74.9714 138.146 74.5832 138.307 74.1785 138.307H62.2408C61.8361 138.307 61.448 138.146 61.1618 137.86C60.8756 137.574 60.7148 137.186 60.7148 136.781V132.046Z" fill="white" stroke="#263238" stroke-width="0.436" stroke-linecap="round" stroke-linejoin="round"/>
<path d="M75.5839 134.003H60.7119C60.4004 134.002 60.1021 133.878 59.8823 133.657C59.6625 133.436 59.5391 133.138 59.5391 132.826C59.5402 132.515 59.6641 132.218 59.8838 131.998C60.1036 131.778 60.4012 131.654 60.7119 131.653H75.5839C75.8949 131.653 76.1932 131.777 76.4132 131.997C76.6331 132.217 76.7567 132.515 76.7567 132.826C76.7573 132.981 76.7274 133.134 76.6687 133.276C76.61 133.419 76.5237 133.549 76.4147 133.658C76.3058 133.768 76.1763 133.854 76.0337 133.914C75.8911 133.973 75.7383 134.003 75.5839 134.003Z" fill="white" stroke="#263238" stroke-width="0.436" stroke-linecap="round" stroke-linejoin="round"/>
<path d="M49.418 116.323H223.757" stroke="#EBEBEB" stroke-width="0.436" stroke-linecap="round" stroke-linejoin="round"/>
<path d="M49.418 135.892H223.757" stroke="#EBEBEB" stroke-width="0.436" stroke-linecap="round" stroke-linejoin="round"/>
<mask id="mask0_12836_98573" style="mask-type:luminance" maskUnits="userSpaceOnUse" x="65" y="15" width="139" height="100">
<path d="M203.229 16.1221L203.233 114.693H161.813V16.1221H203.229ZM155.403 16.1221V114.693H113.983V16.1221H155.403ZM107.583 16.1221V114.693H66.1631V16.1221H107.583Z" fill="white" stroke="white" stroke-width="0.436"/>
</mask>
<g mask="url(#mask0_12836_98573)">
<mask id="path-42-inside-1_12836_98573" fill="white">
<path d="M157.734 34.7578V35.3944H158.109C157.987 35.1938 157.87 34.9845 157.734 34.7578Z"/>
</mask>
<path d="M157.734 34.7578V35.3944H158.109C157.987 35.1938 157.87 34.9845 157.734 34.7578Z" fill="white"/>
<path d="M157.734 34.7578L158.109 34.5346L157.298 33.175V34.7578H157.734ZM157.734 35.3944H157.298V35.8304H157.734V35.3944ZM158.109 35.3944V35.8304H158.885L158.482 35.1677L158.109 35.3944ZM157.734 34.7578H157.298V35.3944H157.734H158.17V34.7578H157.734ZM157.734 35.3944V35.8304H158.109V35.3944V34.9584H157.734V35.3944ZM158.109 35.3944L158.482 35.1677C158.358 34.9638 158.255 34.7793 158.109 34.5346L157.734 34.7578L157.36 34.9811C157.484 35.1897 157.617 35.4238 157.737 35.6211L158.109 35.3944Z" fill="#EBEBEB" mask="url(#path-42-inside-1_12836_98573)"/>
<path d="M109.713 26.6172C112.441 26.6771 113.835 27.6344 114.553 28.542C114.915 29 115.112 29.4546 115.218 29.793C115.271 29.9619 115.302 30.1013 115.318 30.1973C115.327 30.2452 115.332 30.2824 115.335 30.3066C115.336 30.3186 115.336 30.3276 115.337 30.333L115.338 30.3389L115.348 30.4707L115.469 30.5234C117.472 31.392 117.897 32.2232 117.955 32.8545C117.986 33.1912 117.918 33.4962 117.865 33.7969C117.84 33.9408 117.816 34.0926 117.82 34.2344C117.825 34.3805 117.86 34.5331 117.965 34.666C118.128 34.8732 118.312 34.9843 118.52 35.041C118.712 35.0937 118.924 35.0974 119.126 35.1055C119.536 35.1218 120.043 35.1527 120.748 35.5371H120.749C121.443 35.9146 121.672 36.374 121.742 36.7197C121.778 36.8972 121.773 37.0527 121.76 37.1631C121.759 37.1677 121.758 37.1723 121.758 37.1768H88.2646C88.2692 37.1735 88.2737 37.1702 88.2783 37.167C88.6117 36.9304 89.0459 36.6263 89.4512 36.3555C89.7874 36.1308 90.257 36.1192 90.7764 36.1865C91.032 36.2197 91.283 36.2691 91.5234 36.3125C91.7565 36.3546 91.9881 36.3926 92.1816 36.3926C92.6414 36.3925 92.8723 36.0937 93.1289 35.7881C93.3941 35.4722 93.7513 35.0503 94.4775 34.5928C95.1465 34.1713 95.8486 34.2807 96.5879 34.498C96.9423 34.6023 97.3335 34.7405 97.6846 34.8281C98.0437 34.9178 98.4139 34.9701 98.7686 34.8916C99.1433 34.8086 99.3775 34.5941 99.5342 34.3184C99.6821 34.0578 99.7646 33.7338 99.8467 33.4297C100.017 32.8002 100.205 32.1669 100.874 31.7412C101.22 31.5212 101.489 31.4513 101.716 31.4443C101.949 31.4372 102.156 31.4953 102.397 31.5645C102.632 31.6315 102.901 31.7097 103.211 31.7002C103.528 31.6905 103.871 31.5912 104.271 31.3359C104.716 31.0523 104.92 30.5568 105.077 30.0557C105.241 29.532 105.359 28.9904 105.604 28.4658C105.844 27.9552 106.197 27.4859 106.813 27.1475C107.435 26.8064 108.344 26.5872 109.713 26.6172Z" fill="white" stroke="#EBEBEB" stroke-width="0.436"/>
<path d="M206.521 42.1611C209.249 42.221 210.644 43.1784 211.361 44.0859C211.723 44.5439 211.92 44.9986 212.026 45.3369C212.079 45.5059 212.11 45.6453 212.127 45.7412C212.135 45.7892 212.141 45.8264 212.144 45.8506C212.145 45.8626 212.145 45.8715 212.146 45.877C212.146 45.8796 212.146 45.8818 212.146 45.8828L212.156 46.0146L212.277 46.0674C214.28 46.9358 214.705 47.7693 214.764 48.4023C214.795 48.7397 214.727 49.0451 214.674 49.3457C214.648 49.4896 214.624 49.6416 214.629 49.7832C214.634 49.9292 214.669 50.0822 214.774 50.2148C214.938 50.4207 215.121 50.5306 215.328 50.5869C215.521 50.6393 215.733 50.6433 215.935 50.6514C216.345 50.6677 216.852 50.6994 217.558 51.082V51.0811C218.245 51.4647 218.475 51.9253 218.546 52.2715C218.582 52.449 218.579 52.604 218.566 52.7139C218.566 52.7178 218.565 52.7218 218.564 52.7256H185.067C185.074 52.7208 185.081 52.7158 185.088 52.7109C185.421 52.473 185.854 52.1686 186.259 51.9004C186.595 51.6772 187.066 51.6646 187.586 51.7314C187.841 51.7643 188.092 51.8134 188.332 51.8564C188.565 51.8982 188.797 51.9365 188.99 51.9365C189.45 51.9364 189.682 51.6359 189.938 51.3301C190.204 51.0138 190.56 50.5928 191.286 50.1377C191.955 49.7183 192.657 49.8283 193.396 50.0469C193.751 50.1518 194.142 50.2913 194.493 50.3789C194.852 50.4685 195.223 50.5193 195.578 50.4395C195.952 50.3551 196.186 50.1408 196.343 49.8652C196.491 49.6045 196.573 49.2805 196.655 48.9766C196.825 48.3477 197.013 47.7148 197.683 47.2891C198.029 47.0689 198.298 46.9995 198.525 46.9922C198.758 46.9848 198.965 47.0419 199.206 47.1104C199.44 47.1769 199.71 47.2551 200.021 47.2451C200.337 47.2349 200.68 47.135 201.08 46.8799C201.525 46.5963 201.729 46.1007 201.886 45.5996C202.05 45.076 202.167 44.5343 202.413 44.0098C202.653 43.4991 203.005 43.0298 203.622 42.6914C204.244 42.3503 205.153 42.1311 206.521 42.1611Z" fill="white" stroke="#EBEBEB" stroke-width="0.436"/>
<path d="M121.453 45.2646C123.135 45.3069 123.982 45.8983 124.413 46.4443C124.632 46.7213 124.75 46.9955 124.814 47.1992C124.846 47.301 124.865 47.3855 124.875 47.4424C124.88 47.4705 124.882 47.4922 124.884 47.5059C124.885 47.5126 124.885 47.5178 124.886 47.5205V47.5225L124.896 47.6543L125.018 47.7061C126.255 48.2391 126.485 48.7359 126.517 49.084C126.534 49.2798 126.494 49.4565 126.46 49.6494C126.444 49.7393 126.428 49.842 126.432 49.9404C126.435 50.0433 126.462 50.157 126.542 50.2578C126.656 50.401 126.786 50.4804 126.932 50.5205C127.063 50.5567 127.207 50.5597 127.329 50.5645C127.579 50.5742 127.879 50.591 128.303 50.8223V50.8232C128.709 51.0473 128.834 51.3132 128.872 51.5059C128.886 51.5769 128.886 51.6422 128.884 51.6963H108.324C108.492 51.5797 108.676 51.4504 108.853 51.333C109.036 51.2105 109.304 51.1985 109.628 51.2402C109.785 51.2606 109.939 51.291 110.091 51.3184C110.235 51.3444 110.386 51.3691 110.515 51.3691C110.844 51.3691 111.014 51.1477 111.17 50.9629C111.335 50.7672 111.552 50.5103 111.988 50.2314C112.366 49.9903 112.77 50.0483 113.229 50.1836C113.442 50.2468 113.696 50.3365 113.917 50.3916C114.145 50.4486 114.391 50.4842 114.63 50.4307C114.889 50.3725 115.052 50.221 115.159 50.0322C115.257 49.8586 115.312 49.6451 115.362 49.459C115.468 49.0656 115.58 48.7001 115.969 48.4531C116.175 48.3224 116.327 48.285 116.45 48.2812C116.579 48.2774 116.695 48.309 116.846 48.3525C116.99 48.3941 117.169 48.4468 117.378 48.4404C117.593 48.4339 117.822 48.3663 118.086 48.2012C118.395 48.0076 118.533 47.6716 118.634 47.3564C118.742 47.0186 118.811 46.6917 118.963 46.3691C119.108 46.0609 119.319 45.7828 119.686 45.582C120.057 45.3787 120.608 45.2434 121.453 45.2646Z" fill="white" stroke="#EBEBEB" stroke-width="0.436"/>
<g opacity="0.1">
<mask id="path-47-inside-2_12836_98573" fill="white">
<path d="M44.25 118.435V82.1292H65.8102V38.5902H80.329V48.1473H88.4604V76.2911H108.202V60.8916H117.494V69.3849H124.33H127.395L127.639 72.572H135.662V59.8278H142.049V20.0035H157.728V35.403H169.343V16.0098H182.118V63.5468H195.477V81.0697H204.803V119.22"/>
</mask>
<path d="M44.25 118.435V82.1292H65.8102V38.5902H80.329V48.1473H88.4604V76.2911H108.202V60.8916H117.494V69.3849H124.33H127.395L127.639 72.572H135.662V59.8278H142.049V20.0035H157.728V35.403H169.343V16.0098H182.118V63.5468H195.477V81.0697H204.803V119.22" fill="#D9D9D9"/>
<path d="M44.25 82.1292V81.6932H43.814V82.1292H44.25ZM65.8102 82.1292V82.5652H66.2462V82.1292H65.8102ZM65.8102 38.5902V38.1542H65.3742V38.5902H65.8102ZM80.329 38.5902H80.765V38.1542H80.329V38.5902ZM80.329 48.1473H79.893V48.5833H80.329V48.1473ZM88.4604 48.1473H88.8964V47.7113H88.4604V48.1473ZM88.4604 76.2911H88.0244V76.7271H88.4604V76.2911ZM108.202 76.2911V76.7271H108.638V76.2911H108.202ZM108.202 60.8916V60.4556H107.766V60.8916H108.202ZM117.494 60.8916H117.93V60.4556H117.494V60.8916ZM117.494 69.3849H117.058V69.8209H117.494V69.3849ZM127.395 69.3849L127.83 69.3516L127.799 68.9489H127.395V69.3849ZM127.639 72.572L127.205 72.6054L127.235 73.008H127.639V72.572ZM135.662 72.572V73.008H136.098V72.572H135.662ZM135.662 59.8278V59.3918H135.226V59.8278H135.662ZM142.049 59.8278V60.2638H142.485V59.8278H142.049ZM142.049 20.0035V19.5675H141.613V20.0035H142.049ZM157.728 20.0035H158.164V19.5675H157.728V20.0035ZM157.728 35.403H157.292V35.839H157.728V35.403ZM169.343 35.403V35.839H169.779V35.403H169.343ZM169.343 16.0098V15.5738H168.907V16.0098H169.343ZM182.118 16.0098H182.554V15.5738H182.118V16.0098ZM182.118 63.5468H181.682V63.9828H182.118V63.5468ZM195.477 63.5468H195.913V63.1108H195.477V63.5468ZM195.477 81.0697H195.041V81.5057H195.477V81.0697ZM204.803 81.0697H205.239V80.6337H204.803V81.0697ZM44.25 118.435H44.686V82.1292H44.25H43.814V118.435H44.25ZM44.25 82.1292V82.5652H65.8102V82.1292V81.6932H44.25V82.1292ZM65.8102 82.1292H66.2462V38.5902H65.8102H65.3742V82.1292H65.8102ZM65.8102 38.5902V39.0262H80.329V38.5902V38.1542H65.8102V38.5902ZM80.329 38.5902H79.893V48.1473H80.329H80.765V38.5902H80.329ZM80.329 48.1473V48.5833H88.4604V48.1473V47.7113H80.329V48.1473ZM88.4604 48.1473H88.0244V76.2911H88.4604H88.8964V48.1473H88.4604ZM88.4604 76.2911V76.7271H108.202V76.2911V75.8551H88.4604V76.2911ZM108.202 76.2911H108.638V60.8916H108.202H107.766V76.2911H108.202ZM108.202 60.8916V61.3276H117.494V60.8916V60.4556H108.202V60.8916ZM117.494 60.8916H117.058V69.3849H117.494H117.93V60.8916H117.494ZM117.494 69.3849V69.8209H124.33V69.3849V68.9489H117.494V69.3849ZM124.33 69.3849V69.8209H127.395V69.3849V68.9489H124.33V69.3849ZM127.395 69.3849L126.96 69.4182L127.205 72.6054L127.639 72.572L128.074 72.5387L127.83 69.3516L127.395 69.3849ZM127.639 72.572V73.008H135.662V72.572V72.136H127.639V72.572ZM135.662 72.572H136.098V59.8278H135.662H135.226V72.572H135.662ZM135.662 59.8278V60.2638H142.049V59.8278V59.3918H135.662V59.8278ZM142.049 59.8278H142.485V20.0035H142.049H141.613V59.8278H142.049ZM142.049 20.0035V20.4395H157.728V20.0035V19.5675H142.049V20.0035ZM157.728 20.0035H157.292V35.403H157.728H158.164V20.0035H157.728ZM157.728 35.403V35.839H169.343V35.403V34.967H157.728V35.403ZM169.343 35.403H169.779V16.0098H169.343H168.907V35.403H169.343ZM169.343 16.0098V16.4458H182.118V16.0098V15.5738H169.343V16.0098ZM182.118 16.0098H181.682V63.5468H182.118H182.554V16.0098H182.118ZM182.118 63.5468V63.9828H195.477V63.5468V63.1108H182.118V63.5468ZM195.477 63.5468H195.041V81.0697H195.477H195.913V63.5468H195.477ZM195.477 81.0697V81.5057H204.803V81.0697V80.6337H195.477V81.0697ZM204.803 81.0697H204.367V119.22H204.803H205.239V81.0697H204.803Z" fill="#EBEBEB" mask="url(#path-47-inside-2_12836_98573)"/>
</g>
<path opacity="0.1" d="M71.2998 48.2383V51.2031H68.5967V48.2383H71.2998Z" fill="black" stroke="#EBEBEB" stroke-width="0.436"/>
<path opacity="0.1" d="M77.8428 48.2383V51.2031H75.1396V48.2383H77.8428Z" fill="black" stroke="#EBEBEB" stroke-width="0.436"/>
<path opacity="0.1" d="M71.2998 55.3232V58.2881H68.5967V55.3232H71.2998Z" fill="black" stroke="#EBEBEB" stroke-width="0.436"/>
<path opacity="0.1" d="M77.8428 55.3232V58.2881H75.1396V55.3232H77.8428Z" fill="black" stroke="#EBEBEB" stroke-width="0.436"/>
<path opacity="0.1" d="M84.9053 55.3232V58.2881H82.2021V55.3232H84.9053Z" fill="black" stroke="#EBEBEB" stroke-width="0.436"/>
<path opacity="0.1" d="M84.9053 62.4131V65.3779H82.2021V62.4131H84.9053Z" fill="black" stroke="#EBEBEB" stroke-width="0.436"/>
<path opacity="0.1" d="M84.9053 69.502V72.4668H82.2021V69.502H84.9053Z" fill="black" stroke="#EBEBEB" stroke-width="0.436"/>
<path opacity="0.1" d="M84.9053 76.5908V79.5557H82.2021V76.5908H84.9053Z" fill="black" stroke="#EBEBEB" stroke-width="0.436"/>
<path opacity="0.1" d="M84.9053 83.6807V86.6455H82.2021V83.6807H84.9053Z" fill="black" stroke="#EBEBEB" stroke-width="0.436"/>
<path opacity="0.1" d="M84.9053 90.7705V93.7354H82.2021V90.7705H84.9053Z" fill="black" stroke="#EBEBEB" stroke-width="0.436"/>
<path opacity="0.1" d="M71.2998 62.4131V65.3779H68.5967V62.4131H71.2998Z" fill="black" stroke="#EBEBEB" stroke-width="0.436"/>
<path opacity="0.1" d="M77.8428 62.4131V65.3779H75.1396V62.4131H77.8428Z" fill="black" stroke="#EBEBEB" stroke-width="0.436"/>
<path opacity="0.1" d="M71.2998 69.502V72.4668H68.5967V69.502H71.2998Z" fill="black" stroke="#EBEBEB" stroke-width="0.436"/>
<path opacity="0.1" d="M77.8428 69.502V72.4668H75.1396V69.502H77.8428Z" fill="black" stroke="#EBEBEB" stroke-width="0.436"/>
<path opacity="0.1" d="M71.2998 76.5918V79.5566H68.5967V76.5918H71.2998Z" fill="black" stroke="#EBEBEB" stroke-width="0.436"/>
<path opacity="0.1" d="M77.8428 76.5908V79.5557H75.1396V76.5908H77.8428Z" fill="black" stroke="#EBEBEB" stroke-width="0.436"/>
<path opacity="0.1" d="M71.2998 83.6807V86.6455H68.5967V83.6807H71.2998Z" fill="black" stroke="#EBEBEB" stroke-width="0.436"/>
<path opacity="0.1" d="M102.175 79.9971V82.9619H99.4717V79.9971H102.175Z" fill="black" stroke="#EBEBEB" stroke-width="0.436"/>
<path opacity="0.1" d="M108.46 79.9971V82.9619H105.757V79.9971H108.46Z" fill="black" stroke="#EBEBEB" stroke-width="0.436"/>
<path opacity="0.1" d="M174.351 24.9873V27.9521H171.647V24.9873H174.351Z" fill="black" stroke="#EBEBEB" stroke-width="0.436"/>
<path opacity="0.1" d="M178.28 24.9873V27.9521H175.577V24.9873H178.28Z" fill="black" stroke="#EBEBEB" stroke-width="0.436"/>
<path opacity="0.1" d="M174.351 32.0762V35.041H171.647V32.0762H174.351Z" fill="black" stroke="#EBEBEB" stroke-width="0.436"/>
<path opacity="0.1" d="M178.28 32.0762V35.041H175.577V32.0762H178.28Z" fill="black" stroke="#EBEBEB" stroke-width="0.436"/>
<path opacity="0.1" d="M174.351 39.1611V42.126H171.647V39.1611H174.351Z" fill="black" stroke="#EBEBEB" stroke-width="0.436"/>
<path opacity="0.1" d="M178.28 39.1611V42.126H175.577V39.1611H178.28Z" fill="black" stroke="#EBEBEB" stroke-width="0.436"/>
<path opacity="0.1" d="M174.351 46.251V49.2158H171.647V46.251H174.351Z" fill="black" stroke="#EBEBEB" stroke-width="0.436"/>
<path opacity="0.1" d="M178.28 46.251V49.2158H175.577V46.251H178.28Z" fill="black" stroke="#EBEBEB" stroke-width="0.436"/>
<path opacity="0.1" d="M174.351 53.3389V56.3037H171.647V53.3389H174.351Z" fill="black" stroke="#EBEBEB" stroke-width="0.436"/>
<path opacity="0.1" d="M178.28 53.3389V56.3037H175.577V53.3389H178.28Z" fill="black" stroke="#EBEBEB" stroke-width="0.436"/>
<path opacity="0.1" d="M147.663 53.3398V56.3047H144.96V53.3398H147.663Z" fill="black" stroke="#EBEBEB" stroke-width="0.436"/>
<path opacity="0.1" d="M154.464 53.3398V56.3047H151.761V53.3398H154.464Z" fill="black" stroke="#EBEBEB" stroke-width="0.436"/>
<path opacity="0.1" d="M161.272 53.3389V56.3037H158.569V53.3389H161.272Z" fill="black" stroke="#EBEBEB" stroke-width="0.436"/>
<path opacity="0.1" d="M147.663 68.6523V71.6172H144.96V68.6523H147.663Z" fill="black" stroke="#EBEBEB" stroke-width="0.436"/>
<path opacity="0.1" d="M154.464 68.6523V71.6172H151.761V68.6523H154.464Z" fill="black" stroke="#EBEBEB" stroke-width="0.436"/>
<path opacity="0.1" d="M161.272 68.6523V71.6172H158.569V68.6523H161.272Z" fill="black" stroke="#EBEBEB" stroke-width="0.436"/>
<path opacity="0.1" d="M147.663 83.9648V86.9297H144.96V83.9648H147.663Z" fill="black" stroke="#EBEBEB" stroke-width="0.436"/>
<path opacity="0.1" d="M154.464 83.9648V86.9297H151.761V83.9648H154.464Z" fill="black" stroke="#EBEBEB" stroke-width="0.436"/>
<path opacity="0.1" d="M161.272 83.9639V86.9287H158.569V83.9639H161.272Z" fill="black" stroke="#EBEBEB" stroke-width="0.436"/>
<path opacity="0.1" d="M174.351 60.4287V63.3936H171.647V60.4287H174.351Z" fill="black" stroke="#EBEBEB" stroke-width="0.436"/>
<path opacity="0.1" d="M178.28 60.4287V63.3936H175.577V60.4287H178.28Z" fill="black" stroke="#EBEBEB" stroke-width="0.436"/>
<path opacity="0.1" d="M174.351 67.5186V70.4834H171.647V67.5186H174.351Z" fill="black" stroke="#EBEBEB" stroke-width="0.436"/>
<path opacity="0.1" d="M178.28 67.5186V70.4834H175.577V67.5186H178.28Z" fill="black" stroke="#EBEBEB" stroke-width="0.436"/>
<path opacity="0.1" d="M174.351 74.6084V77.5732H171.647V74.6084H174.351Z" fill="black" stroke="#EBEBEB" stroke-width="0.436"/>
<path opacity="0.1" d="M178.28 74.6084V77.5732H175.577V74.6084H178.28Z" fill="black" stroke="#EBEBEB" stroke-width="0.436"/>
<path opacity="0.1" d="M184.819 67.5186V70.4834H182.116V67.5186H184.819Z" fill="black" stroke="#EBEBEB" stroke-width="0.436"/>
<path opacity="0.1" d="M192.151 67.5186V70.4834H189.448V67.5186H192.151Z" fill="black" stroke="#EBEBEB" stroke-width="0.436"/>
<path opacity="0.1" d="M184.819 74.3242V77.2891H182.116V74.3242H184.819Z" fill="black" stroke="#EBEBEB" stroke-width="0.436"/>
<path opacity="0.1" d="M192.151 74.3242V77.2891H189.448V74.3242H192.151Z" fill="black" stroke="#EBEBEB" stroke-width="0.436"/>
<path opacity="0.1" d="M184.819 81.1299V84.0947H182.116V81.1299H184.819Z" fill="black" stroke="#EBEBEB" stroke-width="0.436"/>
<path opacity="0.1" d="M192.151 81.1299V84.0947H189.448V81.1299H192.151Z" fill="black" stroke="#EBEBEB" stroke-width="0.436"/>
<path opacity="0.1" d="M184.819 87.9365V90.9014H182.116V87.9365H184.819Z" fill="black" stroke="#EBEBEB" stroke-width="0.436"/>
<path opacity="0.1" d="M192.151 87.9365V90.9014H189.448V87.9365H192.151Z" fill="black" stroke="#EBEBEB" stroke-width="0.436"/>
<path opacity="0.1" d="M174.351 81.6973V84.6621H171.647V81.6973H174.351Z" fill="black" stroke="#EBEBEB" stroke-width="0.436"/>
<path opacity="0.1" d="M178.28 81.6973V84.6621H175.577V81.6973H178.28Z" fill="black" stroke="#EBEBEB" stroke-width="0.436"/>
<path opacity="0.1" d="M174.351 88.7861V91.751H171.647V88.7861H174.351Z" fill="black" stroke="#EBEBEB" stroke-width="0.436"/>
<path opacity="0.1" d="M178.28 88.7861V91.751H175.577V88.7861H178.28Z" fill="black" stroke="#EBEBEB" stroke-width="0.436"/>
<path opacity="0.1" d="M77.8428 83.6807V86.6455H75.1396V83.6807H77.8428Z" fill="black" stroke="#EBEBEB" stroke-width="0.436"/>
<path opacity="0.1" d="M71.2998 90.7705V93.7354H68.5967V90.7705H71.2998Z" fill="black" stroke="#EBEBEB" stroke-width="0.436"/>
<path opacity="0.1" d="M77.8428 90.7705V93.7354H75.1396V90.7705H77.8428Z" fill="black" stroke="#EBEBEB" stroke-width="0.436"/>
<path opacity="0.1" d="M71.2998 97.8594V100.824H68.5967V97.8594H71.2998Z" fill="black" stroke="#EBEBEB" stroke-width="0.436"/>
<path opacity="0.1" d="M77.8428 97.8604V100.825H75.1396V97.8604H77.8428Z" fill="black" stroke="#EBEBEB" stroke-width="0.436"/>
<path opacity="0.1" d="M71.2998 104.949V107.914H68.5967V104.949H71.2998Z" fill="black" stroke="#EBEBEB" stroke-width="0.436"/>
<path opacity="0.1" d="M77.8428 104.949V107.914H75.1396V104.949H77.8428Z" fill="black" stroke="#EBEBEB" stroke-width="0.436"/>
</g>
<path d="M107.801 114.911H65.9453V15.9043H107.801V114.911ZM155.622 15.9043H113.766V114.911H155.622V15.9043ZM203.447 15.9043H161.595V114.911H203.451L203.447 15.9043Z" stroke="#EBEBEB" stroke-width="0.436" stroke-miterlimit="10"/>
<path d="M209.994 40.0059H207.871V138.04H209.994V40.0059Z" fill="white" stroke="#263238" stroke-width="0.436" stroke-linecap="round" stroke-linejoin="round"/>
<path d="M216.812 40.0059H201.051V68.4331H216.812V40.0059Z" fill="#263238" stroke="#263238" stroke-width="0.436" stroke-linecap="round" stroke-linejoin="round"/>
<path d="M202.785 66.083V66.8896" stroke="white" stroke-width="0.436" stroke-linecap="round" stroke-linejoin="round"/>
<path d="M202.785 41.0352V64.1606" stroke="white" stroke-width="0.436" stroke-linecap="round" stroke-linejoin="round"/>
<path d="M204.391 44.7275V66.8894" stroke="white" stroke-width="0.436" stroke-linecap="round" stroke-linejoin="round"/>
<path d="M204.391 41.0352V42.8053" stroke="white" stroke-width="0.436" stroke-linecap="round" stroke-linejoin="round"/>
<path d="M207.281 41.0342V66.889" stroke="white" stroke-width="0.436" stroke-linecap="round" stroke-linejoin="round"/>
<path d="M215.574 137.242H202.555V138.306H215.574V137.242Z" fill="white" stroke="#263238" stroke-width="0.436" stroke-linecap="round" stroke-linejoin="round"/>
<path d="M180.238 139.868H86.707L96.0592 132.826H170.886L180.238 139.868Z" fill="#2F945A" stroke="#263238" stroke-width="0.436" stroke-linecap="round" stroke-linejoin="round"/>
<path d="M120.039 131.88C120.039 131.88 116.778 128.88 117.301 125.227C117.824 121.573 117.951 119.096 117.951 119.096L117.693 111.924C116.258 109.051 115.288 105.968 114.82 102.79C114.17 97.8328 112.082 91.9642 112.082 91.9642C111.687 91.7002 111.336 91.3767 111.04 91.005C110.604 90.4513 109.88 90.133 109.231 89.697C108.581 89.261 107.604 89.261 107.465 89.0474C107.325 88.8337 107.234 88.4893 107.652 88.4893C108.071 88.4893 109.231 88.3498 109.51 88.5808C109.789 88.8119 110.669 88.5808 110.669 88.5808L110.207 81.849C110.207 81.849 110.347 81.4784 110.717 81.849C111.088 82.2196 111.554 85.7512 111.554 85.7512L112.156 85.7032L112.435 81.3825C112.435 81.3825 112.623 81.0119 112.993 81.3825L113.455 85.7032L114.48 81.9885C114.48 81.9885 114.851 81.5525 115.038 82.128C115.226 82.7036 114.602 86.1218 114.602 86.1218L116.411 83.7979C116.411 83.7979 116.738 83.7543 116.738 83.9854C116.738 84.2165 115.295 87.0984 115.295 87.0984C115.295 87.0984 115.435 90.4862 115.343 90.7652C115.24 91.5253 115.354 92.2989 115.67 92.9975C116.106 94.0657 119.014 100.287 120.266 103.353C121.517 106.418 122.638 109.81 122.777 110.878C122.917 111.946 123.518 117.383 123.331 119.24C123.143 121.098 123.287 124.442 124.203 126.652" fill="#FFBE9D"/>
<mask id="mask1_12836_98573" style="mask-type:luminance" maskUnits="userSpaceOnUse" x="107" y="81" width="18" height="51">
<path d="M120.039 131.88C120.039 131.88 116.778 128.88 117.301 125.227C117.824 121.573 117.951 119.096 117.951 119.096L117.693 111.924C116.258 109.051 115.288 105.968 114.82 102.79C114.17 97.8328 112.082 91.9642 112.082 91.9642C111.687 91.7002 111.336 91.3767 111.04 91.005C110.604 90.4513 109.88 90.133 109.231 89.697C108.581 89.261 107.604 89.261 107.465 89.0474C107.325 88.8337 107.234 88.4893 107.652 88.4893C108.071 88.4893 109.231 88.3498 109.51 88.5808C109.789 88.8119 110.669 88.5808 110.669 88.5808L110.207 81.849C110.207 81.849 110.347 81.4784 110.717 81.849C111.088 82.2196 111.554 85.7512 111.554 85.7512L112.156 85.7032L112.435 81.3825C112.435 81.3825 112.623 81.0119 112.993 81.3825L113.455 85.7032L114.48 81.9885C114.48 81.9885 114.851 81.5525 115.038 82.128C115.226 82.7036 114.602 86.1218 114.602 86.1218L116.411 83.7979C116.411 83.7979 116.738 83.7543 116.738 83.9854C116.738 84.2165 115.295 87.0984 115.295 87.0984C115.295 87.0984 115.435 90.4862 115.343 90.7652C115.24 91.5253 115.354 92.2989 115.67 92.9975C116.106 94.0657 119.014 100.287 120.266 103.353C121.517 106.418 122.638 109.81 122.777 110.878C122.917 111.946 123.518 117.383 123.331 119.24C123.143 121.098 123.287 124.442 124.203 126.652" fill="white"/>
</mask>
<g mask="url(#mask1_12836_98573)">
<path opacity="0.1" d="M120.039 131.88C120.039 131.88 116.778 128.88 117.301 125.227C117.824 121.573 117.951 119.096 117.951 119.096L117.693 111.924C116.258 109.051 115.288 105.968 114.82 102.79C114.17 97.8328 112.082 91.9642 112.082 91.9642C111.687 91.7002 111.336 91.3767 111.04 91.005C110.604 90.4513 109.88 90.133 109.231 89.697C108.581 89.261 107.604 89.261 107.465 89.0474C107.325 88.8337 107.234 88.4893 107.652 88.4893C108.071 88.4893 109.231 88.3498 109.51 88.5808C109.789 88.8119 110.669 88.5808 110.669 88.5808L110.207 81.849C110.207 81.849 110.347 81.4784 110.717 81.849C111.088 82.2196 111.554 85.7512 111.554 85.7512L112.156 85.7032L112.435 81.3825C112.435 81.3825 112.623 81.0119 112.993 81.3825L113.455 85.7032L114.48 81.9885C114.48 81.9885 114.851 81.5525 115.038 82.128C115.226 82.7036 114.602 86.1218 114.602 86.1218L116.411 83.7979C116.411 83.7979 116.738 83.7543 116.738 83.9854C116.738 84.2165 115.295 87.0984 115.295 87.0984C115.295 87.0984 115.435 90.4862 115.343 90.7652C115.24 91.5253 115.354 92.2989 115.67 92.9975C116.106 94.0657 119.014 100.287 120.266 103.353C121.517 106.418 122.638 109.81 122.777 110.878C122.917 111.946 123.518 117.383 123.331 119.24C123.143 121.098 123.287 124.442 124.203 126.652" fill="#FF752F"/>
</g>
<path d="M120.039 131.88C120.039 131.88 116.778 128.88 117.301 125.227C117.824 121.573 117.951 119.096 117.951 119.096L117.693 111.924C116.258 109.051 115.288 105.968 114.82 102.79C114.17 97.8328 112.082 91.9642 112.082 91.9642C111.687 91.7002 111.336 91.3767 111.04 91.005C110.604 90.4513 109.88 90.133 109.231 89.697C108.581 89.261 107.604 89.261 107.465 89.0474C107.325 88.8337 107.234 88.4893 107.652 88.4893C108.071 88.4893 109.231 88.3498 109.51 88.5808C109.789 88.8119 110.669 88.5808 110.669 88.5808L110.207 81.849C110.207 81.849 110.347 81.4784 110.717 81.849C111.088 82.2196 111.554 85.7512 111.554 85.7512L112.156 85.7032L112.435 81.3825C112.435 81.3825 112.623 81.0119 112.993 81.3825L113.455 85.7032L114.48 81.9885C114.48 81.9885 114.851 81.5525 115.038 82.128C115.226 82.7036 114.602 86.1218 114.602 86.1218L116.411 83.7979C116.411 83.7979 116.738 83.7543 116.738 83.9854C116.738 84.2165 115.295 87.0984 115.295 87.0984C115.295 87.0984 115.435 90.4862 115.343 90.7652C115.24 91.5253 115.354 92.2989 115.67 92.9975C116.106 94.0657 119.014 100.287 120.266 103.353C121.517 106.418 122.638 109.81 122.777 110.878C122.917 111.946 123.518 117.383 123.331 119.24C123.143 121.098 123.287 124.442 124.203 126.652" stroke="#263238" stroke-width="0.436" stroke-linecap="round" stroke-linejoin="round"/>
<path d="M103.808 122.932C102.744 122.898 101.697 123.2 100.814 123.796C99.932 124.392 99.2602 125.25 98.8946 126.25C97.543 129.812 99.8756 133.008 98.4019 133.989C96.9283 134.97 92.0145 133.745 92.8735 135.219C93.7324 136.692 103.808 138.659 104.916 134.975C106.023 131.29 102.213 127.48 102.705 125.147C103.198 122.815 104.794 123.303 104.794 123.303L103.808 122.932Z" fill="#263238" stroke="#263238" stroke-width="0.436" stroke-linecap="round" stroke-linejoin="round"/>
<path d="M119.304 124.93L117.473 121.791C118.17 121.18 118.781 120.221 118.083 119.436C117.5 118.862 116.889 118.318 116.252 117.806L116.33 117.753C116.411 117.312 116.437 116.863 116.409 116.415C116.33 115.94 116.104 115.783 115.201 116.018C114.85 116.107 114.484 116.119 114.128 116.053C113.488 115.53 113.03 115.181 113.03 115.181C113.03 115.181 110.501 113.267 106.839 114.832C103.176 116.398 102.657 121.372 104.397 123.814C106.137 126.255 109.716 125.907 110.763 125.732C111.809 125.558 112.768 125.209 113.117 125.558C113.466 125.907 116.169 129.565 116.169 129.565" fill="#FFBE9D"/>
<mask id="mask2_12836_98573" style="mask-type:luminance" maskUnits="userSpaceOnUse" x="103" y="114" width="17" height="16">
<path d="M119.304 124.93L117.473 121.791C118.17 121.18 118.781 120.221 118.083 119.436C117.5 118.862 116.889 118.318 116.252 117.806L116.33 117.753C116.411 117.312 116.437 116.863 116.409 116.415C116.33 115.94 116.104 115.783 115.201 116.018C114.85 116.107 114.484 116.119 114.128 116.053C113.488 115.53 113.03 115.181 113.03 115.181C113.03 115.181 110.501 113.267 106.839 114.832C103.176 116.398 102.657 121.372 104.397 123.814C106.137 126.255 109.716 125.907 110.763 125.732C111.809 125.558 112.768 125.209 113.117 125.558C113.466 125.907 116.169 129.565 116.169 129.565" fill="white"/>
</mask>
<g mask="url(#mask2_12836_98573)">
<path opacity="0.1" d="M117.474 121.791C117.979 121.355 118.433 120.727 118.389 120.121C116.449 120.536 114.321 120.815 113.489 120.305C111.81 119.271 108.714 116.176 105.75 117.981C103.482 119.358 105.506 123.518 106.587 125.393C107.934 125.829 109.367 125.934 110.764 125.698C111.81 125.523 112.769 125.175 113.118 125.523C113.467 125.872 116.17 129.53 116.17 129.53L118.25 126.478L119.183 124.699L117.474 121.791Z" fill="#FF752F"/>
</g>
<path d="M119.304 124.93L117.473 121.791C118.17 121.18 118.781 120.221 118.083 119.436C117.5 118.862 116.889 118.318 116.252 117.806L116.33 117.753C116.411 117.312 116.437 116.863 116.409 116.415C116.33 115.94 116.104 115.783 115.201 116.018C114.85 116.107 114.484 116.119 114.128 116.053C113.488 115.53 113.03 115.181 113.03 115.181C113.03 115.181 110.501 113.267 106.839 114.832C103.176 116.398 102.657 121.372 104.397 123.814C106.137 126.255 109.716 125.907 110.763 125.732C111.809 125.558 112.768 125.209 113.117 125.558C113.466 125.907 116.169 129.565 116.169 129.565" stroke="#263238" stroke-width="0.436" stroke-linecap="round" stroke-linejoin="round"/>
<path d="M110.763 122.575C110.327 122.314 110.675 121.18 110.414 119.872C110.152 118.564 109.106 118.303 108.67 116.82C108.378 115.826 108.87 114.793 109.228 114.204C108.404 114.267 107.596 114.467 106.839 114.797C103.176 116.367 102.657 121.337 104.397 123.779C106.137 126.22 109.716 125.871 110.763 125.697C111.591 125.558 112.363 125.313 112.82 125.392C112.897 125.122 112.938 124.844 112.943 124.563C112.943 123.098 111.199 122.837 110.763 122.575Z" fill="#263238" stroke="#263238" stroke-width="0.436" stroke-linecap="round" stroke-linejoin="round"/>
<path d="M111.084 121.45C111.084 121.45 109.484 120.657 108.904 122.1C108.324 123.543 110.238 123.521 111.324 123.198C111.627 123.115 111.899 122.942 112.103 122.703C112.308 122.464 112.435 122.168 112.47 121.856" fill="#FFBE9D"/>
<path d="M111.084 121.45C111.084 121.45 109.484 120.657 108.904 122.1C108.324 123.543 110.238 123.521 111.324 123.198C111.627 123.115 111.899 122.942 112.103 122.703C112.308 122.464 112.435 122.168 112.47 121.856" stroke="#263238" stroke-width="0.436" stroke-linecap="round" stroke-linejoin="round"/>
<path d="M136.169 79.0502C135.538 77.6025 134.797 76.206 133.95 74.8733C132.952 73.2252 131.835 71.6514 130.61 70.1645C128.984 68.1938 128.129 67.8537 129.071 67.3392C130.013 66.8247 131.294 66.3103 133.431 67.5093C135.567 68.7083 136.343 70.5089 137.115 71.5335C137.887 72.5581 138.999 71.9695 138.911 73.5043C138.84 74.5053 138.609 75.4885 138.227 76.4167L138.999 78.1302L136.343 79.6693L136.169 79.0502Z" fill="#FFBE9D" stroke="#263238" stroke-width="0.436" stroke-linecap="round" stroke-linejoin="round"/>
<path d="M132.062 71.79C132.619 72.3352 133.293 72.7454 134.033 72.989C135.062 73.2463 134.805 74.2752 136.174 75.217" stroke="#263238" stroke-width="0.436" stroke-linecap="round" stroke-linejoin="round"/>
<path d="M158.836 123.486C158.836 123.486 158.836 123.442 158.792 123.36C158.748 123.277 158.792 123.32 158.77 123.303C158.251 121.908 154.816 112.743 153.298 110.371C151.659 107.799 147.125 103.081 147.125 103.081C147.125 103.081 148.337 97.0513 147.347 93.2319C146.588 90.3064 140.807 80.649 138.832 77.6973C138.082 77.6973 137.175 77.7932 136.168 79.0489C137.336 82.3712 139.364 87.8866 139.843 92.7131C140.463 99.0002 141.544 105.549 142.023 106.286C142.503 107.023 142.525 113.641 144.43 117.988C145.54 120.415 146.867 122.736 148.393 124.925C148.475 125.529 148.504 126.138 148.481 126.747C148.393 127.009 146.2 127.27 145.764 129.285C145.328 131.299 144.975 134.892 149.252 135.768C153.529 136.644 156.956 135.415 158.269 131.125C159.581 126.834 159.306 125.57 158.836 123.486Z" fill="#263238" stroke="#263238" stroke-width="0.436" stroke-linecap="round" stroke-linejoin="round"/>
<path d="M116.576 125.188C114.902 126.496 115.011 129.112 115.905 130.856C117.557 134.082 122.266 135.739 126.539 136.175C130.811 136.611 147.031 137.483 152.864 136.349C154.478 136.085 155.968 135.322 157.125 134.167C158.282 133.012 159.047 131.523 159.313 129.91C159.313 129.91 167.819 122.559 169.65 120.121C171.482 117.684 174.307 111.781 174.307 111.781C174.307 111.781 182.076 109.993 185.303 107.726C188.529 105.459 196.447 93.9962 196.447 93.9962C196.447 93.9962 198.453 95.1298 199.325 94.1706C200.197 93.2114 200.894 91.1186 201.679 90.5954C202.464 90.0722 204.208 89.0258 204.644 87.1074C205.08 85.189 204.731 83.1834 204.121 83.445C203.51 83.7066 202.377 85.4506 200.633 86.497C198.889 87.5434 196.796 90.2422 194.877 91.5502C192.959 92.8582 187.121 98.5262 181.453 101.312C175.785 104.098 170.034 107.416 169.511 108.114C168.988 108.811 162.801 111.166 159.4 114.475C155.999 117.784 153.562 121.8 153.213 122.149C151.995 123.066 150.599 123.719 149.115 124.067C147.022 124.59 146.237 125.462 142.488 125.811C138.738 126.16 133.598 125.375 133.598 125.375C133.598 125.375 132.9 122.236 130.546 121.8C128.492 121.473 126.392 121.975 124.707 123.195C123.312 124.154 122.702 124.242 121.83 124.242C120.182 124.242 118.198 124.111 116.759 125.066L116.576 125.188Z" fill="#FFBE9D"/>
<mask id="mask3_12836_98573" style="mask-type:luminance" maskUnits="userSpaceOnUse" x="115" y="83" width="90" height="54">
<path d="M116.576 125.187C114.902 126.495 115.011 129.111 115.905 130.855C117.557 134.081 122.266 135.738 126.539 136.174C130.811 136.61 147.031 137.482 152.864 136.348C154.478 136.084 155.968 135.321 157.125 134.166C158.282 133.011 159.047 131.522 159.313 129.909C159.313 129.909 167.819 122.558 169.65 120.12C171.482 117.683 174.307 111.78 174.307 111.78C174.307 111.78 182.076 109.992 185.303 107.725C188.529 105.458 196.447 93.9952 196.447 93.9952C196.447 93.9952 198.453 95.1288 199.325 94.1696C200.197 93.2104 200.894 91.1176 201.679 90.5944C202.464 90.0712 204.208 89.0248 204.644 87.1064C205.08 85.188 204.731 83.1824 204.121 83.444C203.51 83.7056 202.377 85.4496 200.633 86.496C198.889 87.5424 196.796 90.2412 194.877 91.5492C192.959 92.8572 187.121 98.5253 181.453 101.311C175.785 104.097 170.034 107.415 169.511 108.113C168.988 108.81 162.801 111.165 159.4 114.474C155.999 117.783 153.562 121.799 153.213 122.148C151.995 123.065 150.599 123.718 149.115 124.066C147.022 124.589 146.237 125.461 142.488 125.81C138.738 126.159 133.598 125.374 133.598 125.374C133.598 125.374 132.9 122.235 130.546 121.799C128.492 121.472 126.392 121.974 124.707 123.194C123.312 124.153 122.702 124.241 121.83 124.241C120.182 124.241 118.198 124.11 116.759 125.065L116.576 125.187Z" fill="white"/>
</mask>
<g mask="url(#mask3_12836_98573)">
<path opacity="0.1" d="M156.828 134.456C153.131 132.255 137.971 131.256 134.156 131.256C129.517 131.256 128.723 128.021 126.36 127.912C123.997 127.803 123.605 127.376 123.605 127.376C123.605 127.376 122.776 126.796 122.388 124.206C122.205 124.206 122.022 124.232 121.822 124.232C120.348 124.232 118.613 124.128 117.23 124.786C117.23 125.348 117.27 125.898 117.27 126.43C117.27 129.726 116.908 131.579 121.359 135.019C123.03 135.611 124.766 135.999 126.53 136.174C130.799 136.61 147.022 137.482 152.856 136.349C154.328 136.092 155.702 135.438 156.828 134.456Z" fill="#FF752F"/>
</g>
<path d="M116.576 125.188C114.902 126.496 115.011 129.112 115.905 130.856C117.557 134.082 122.266 135.739 126.539 136.175C130.811 136.611 147.031 137.483 152.864 136.349C154.478 136.085 155.968 135.322 157.125 134.167C158.282 133.012 159.047 131.523 159.313 129.91C159.313 129.91 167.819 122.559 169.65 120.121C171.482 117.684 174.307 111.781 174.307 111.781C174.307 111.781 182.076 109.993 185.303 107.726C188.529 105.459 196.447 93.9962 196.447 93.9962C196.447 93.9962 198.453 95.1298 199.325 94.1706C200.197 93.2114 200.894 91.1186 201.679 90.5954C202.464 90.0722 204.208 89.0258 204.644 87.1074C205.08 85.189 204.731 83.1834 204.121 83.445C203.51 83.7066 202.377 85.4506 200.633 86.497C198.889 87.5434 196.796 90.2422 194.877 91.5502C192.959 92.8582 187.121 98.5262 181.453 101.312C175.785 104.098 170.034 107.416 169.511 108.114C168.988 108.811 162.801 111.166 159.4 114.475C155.999 117.784 153.562 121.8 153.213 122.149C151.995 123.066 150.599 123.719 149.115 124.067C147.022 124.59 146.237 125.462 142.488 125.811C138.738 126.16 133.598 125.375 133.598 125.375C133.598 125.375 132.9 122.236 130.546 121.8C128.492 121.473 126.392 121.975 124.707 123.195C123.312 124.154 122.702 124.242 121.83 124.242C120.182 124.242 118.198 124.111 116.759 125.066L116.576 125.188Z" stroke="#263238" stroke-width="0.436" stroke-linecap="round" stroke-linejoin="round"/>
<path d="M126.278 136.144L126.544 136.175C127.756 136.297 129.932 136.458 132.557 136.611C132.16 135.739 131.249 133.537 131.597 131.745C132.012 129.6 132.814 128.466 133.568 125.235C133.398 124.616 132.605 122.183 130.551 121.809C128.497 121.482 126.397 121.983 124.713 123.204C123.318 124.163 122.707 124.25 121.835 124.25C120.187 124.25 118.203 124.119 116.765 125.074L116.582 125.205C115.913 125.743 115.472 126.514 115.348 127.363C116.381 126.552 118.474 125.109 120.527 124.861L122.533 124.686C122.513 125.289 122.637 125.888 122.895 126.433C123.153 126.978 123.537 127.454 124.015 127.821C125.009 128.606 126.174 129.143 127.416 129.391C127.416 129.391 127.852 133.227 126.98 134.797C126.605 135.438 126.396 135.865 126.278 136.144Z" fill="#263238" stroke="#263238" stroke-width="0.436" stroke-linecap="round" stroke-linejoin="round"/>
<path d="M192.961 93.0674C190.263 95.3259 185.811 99.1714 181.455 101.303C175.787 104.094 170.037 107.407 169.513 108.105C168.99 108.803 162.803 111.157 159.403 114.466C156.002 117.775 153.564 121.791 153.216 122.14C151.998 123.057 150.602 123.71 149.117 124.058C147.299 124.494 146.466 125.227 143.824 125.637V136.907C147.474 136.907 150.8 136.746 152.867 136.349C154.48 136.085 155.97 135.322 157.127 134.167C158.284 133.012 159.049 131.522 159.315 129.909C159.315 129.909 167.822 122.558 169.653 120.121C171.484 117.684 174.309 111.781 174.309 111.781C174.309 111.781 182.079 109.993 185.305 107.726C187.782 105.982 193.367 98.3212 195.438 95.4305C195.228 94.8764 194.897 94.3764 194.468 93.9674C194.04 93.5585 193.525 93.2509 192.961 93.0674Z" fill="#263238" stroke="#263238" stroke-width="0.436" stroke-linecap="round" stroke-linejoin="round"/>
<path d="M149.117 124.058C151.983 123.05 154.385 121.036 155.875 118.39" stroke="#515E65" stroke-width="0.436" stroke-linecap="round" stroke-linejoin="round"/>
<path d="M128.379 100.553C136.708 92.2231 136.708 78.7183 128.379 70.3887C120.049 62.0592 106.544 62.0592 98.2148 70.3887C89.8852 78.7183 89.8852 92.2231 98.2148 100.553C106.544 108.882 120.049 108.882 128.379 100.553Z" fill="#FD7E50"/>
<mask id="mask4_12836_98573" style="mask-type:luminance" maskUnits="userSpaceOnUse" x="91" y="64" width="44" height="43">
<path d="M128.379 100.553C136.708 92.2231 136.708 78.7183 128.379 70.3887C120.049 62.0592 106.544 62.0592 98.2148 70.3887C89.8852 78.7183 89.8852 92.2231 98.2148 100.553C106.544 108.882 120.049 108.882 128.379 100.553Z" fill="white"/>
</mask>
<g mask="url(#mask4_12836_98573)">
<path d="M111.02 71.3488C111.731 73.2236 110.414 75.4603 108.086 76.3367C105.758 77.213 103.29 76.4064 102.588 74.5273C101.886 72.6481 103.194 70.4158 105.522 69.5394C107.85 68.6631 110.314 69.4697 111.02 71.3488Z" fill="#F8F5F4"/>
</g>
<path d="M128.379 100.553C136.708 92.2231 136.708 78.7183 128.379 70.3887C120.049 62.0592 106.544 62.0592 98.2148 70.3887C89.8852 78.7183 89.8852 92.2231 98.2148 100.553C106.544 108.882 120.049 108.882 128.379 100.553Z" stroke="#263238" stroke-width="0.436" stroke-linecap="round" stroke-linejoin="round"/>
<path d="M117.994 132.09C117.994 132.09 114.732 129.09 115.255 125.436C115.779 121.783 115.905 119.306 115.905 119.306L115.648 112.134C114.21 109.267 113.236 106.19 112.762 103.017C112.112 98.0598 110.023 92.1913 110.023 92.1913C109.629 91.9281 109.278 91.6061 108.981 91.2364C108.545 90.6784 107.822 90.3644 107.172 89.9284C106.522 89.4924 105.546 89.4924 105.406 89.2788C105.267 89.0652 105.175 88.7207 105.594 88.7207C106.012 88.7207 107.172 88.5812 107.451 88.8166C107.73 89.0521 108.611 88.8166 108.611 88.8166L108.149 82.0804C108.149 82.0804 108.284 81.7098 108.659 82.0804C109.034 82.451 109.492 85.9826 109.492 85.9826L110.098 85.9347L110.377 81.6139C110.377 81.6139 110.56 81.2433 110.935 81.6139L111.397 85.9347L112.421 82.22C112.421 82.22 112.792 81.784 112.975 82.3595C113.158 82.935 112.539 86.3532 112.539 86.3532L114.349 84.0294C114.349 84.0294 114.676 83.9858 114.676 84.2169C114.676 84.4479 113.232 87.3299 113.232 87.3299C113.232 87.3299 113.372 90.7176 113.28 90.9966C113.177 91.7567 113.291 92.5304 113.607 93.229C114.022 94.2972 116.951 100.519 118.203 103.584C119.454 106.649 120.575 110.041 120.714 111.109C120.854 112.178 121.455 117.614 121.268 119.472C121.08 121.329 121.224 124.673 122.14 126.884" fill="#FFBE9D"/>
<path d="M117.994 132.09C117.994 132.09 114.732 129.09 115.255 125.436C115.779 121.783 115.905 119.306 115.905 119.306L115.648 112.134C114.21 109.267 113.236 106.19 112.762 103.017C112.112 98.0598 110.023 92.1913 110.023 92.1913C109.629 91.9281 109.278 91.6061 108.981 91.2364C108.545 90.6784 107.822 90.3644 107.172 89.9284C106.522 89.4924 105.546 89.4924 105.406 89.2788C105.267 89.0652 105.175 88.7207 105.594 88.7207C106.012 88.7207 107.172 88.5812 107.451 88.8166C107.73 89.0521 108.611 88.8166 108.611 88.8166L108.149 82.0804C108.149 82.0804 108.284 81.7098 108.659 82.0804C109.034 82.451 109.492 85.9826 109.492 85.9826L110.098 85.9347L110.377 81.6139C110.377 81.6139 110.56 81.2433 110.935 81.6139L111.397 85.9347L112.421 82.22C112.421 82.22 112.792 81.784 112.975 82.3595C113.158 82.935 112.539 86.3532 112.539 86.3532L114.349 84.0294C114.349 84.0294 114.676 83.9858 114.676 84.2169C114.676 84.4479 113.232 87.3299 113.232 87.3299C113.232 87.3299 113.372 90.7176 113.28 90.9966C113.177 91.7567 113.291 92.5304 113.607 93.229C114.022 94.2972 116.951 100.519 118.203 103.584C119.454 106.649 120.575 110.041 120.714 111.109C120.854 112.178 121.455 117.614 121.268 119.472C121.08 121.329 121.224 124.673 122.14 126.884" stroke="#263238" stroke-width="0.436" stroke-linecap="round" stroke-linejoin="round"/>
</g>
<defs>
<linearGradient id="paint0_linear_12836_98573" x1="135" y1="0" x2="135" y2="150" gradientUnits="userSpaceOnUse">
<stop stop-color="#F7FCFF"/>
<stop offset="1" stop-color="white" stop-opacity="0.4"/>
</linearGradient>
<clipPath id="clip0_12836_98573">
<rect width="270" height="150" fill="white" transform="translate(0 0.125)"/>
</clipPath>
</defs>
</svg>
