<svg width="41" height="40" viewBox="0 0 41 40" fill="none" xmlns="http://www.w3.org/2000/svg">
<path d="M20.6354 34.1663C17.0266 34.1663 13.8813 32.9783 11.1996 30.6022C8.51794 28.2261 6.97419 25.2475 6.56836 21.6663H9.11961C9.54044 24.5447 10.8359 26.9309 13.0059 28.8251C15.1756 30.7193 17.7188 31.6663 20.6354 31.6663C23.8854 31.6663 26.6424 30.5344 28.9063 28.2705C31.1702 26.0066 32.3021 23.2497 32.3021 19.9997C32.3021 16.7497 31.1702 13.9927 28.9063 11.7288C26.6424 9.46495 23.8854 8.33301 20.6354 8.33301C18.8149 8.33301 17.1088 8.73745 15.5171 9.54634C13.9252 10.355 12.5543 11.4676 11.4046 12.8843H15.7638V15.3843H7.30211V6.92259H9.80211V10.8713C11.1546 9.27523 12.7743 8.03648 14.6613 7.15509C16.5479 6.2737 18.5393 5.83301 20.6354 5.83301C22.6013 5.83301 24.4432 6.20481 26.1613 6.94843C27.8791 7.69204 29.3768 8.70273 30.6546 9.98051C31.9324 11.2583 32.9431 12.7562 33.6867 14.4743C34.4303 16.192 34.8021 18.0338 34.8021 19.9997C34.8021 21.9655 34.4303 23.8073 33.6867 25.5251C32.9431 27.2431 31.9324 28.7411 30.6546 30.0188C29.3768 31.2966 27.8791 32.3073 26.1613 33.0509C24.4432 33.7945 22.6013 34.1663 20.6354 34.1663ZM25.6388 26.7113L19.4338 20.5059V11.6663H21.9334V19.4934L27.395 24.9547L25.6388 26.7113Z" fill="#2F945A"/>
</svg>
