<svg width="20" height="20" viewBox="0 0 20 20" fill="none" xmlns="http://www.w3.org/2000/svg">
<path d="M2.91797 9.16797V2.91797H9.16797V9.16797H2.91797ZM4.16797 7.91797H7.91797V4.16797H4.16797V7.91797ZM2.91797 17.0846V10.8346H9.16797V17.0846H2.91797ZM4.16797 15.8346H7.91797V12.0846H4.16797V15.8346ZM10.8346 9.16797V2.91797H17.0846V9.16797H10.8346ZM12.0846 7.91797H15.8346V4.16797H12.0846V7.91797ZM15.5221 17.0846V15.5221H17.0846V17.0846H15.5221ZM10.8346 12.3971V10.8346H12.3971V12.3971H10.8346ZM12.3971 13.9596V12.3971H13.9596V13.9596H12.3971ZM10.8346 15.5221V13.9596H12.3971V15.5221H10.8346ZM12.3971 17.0846V15.5221H13.9596V17.0846H12.3971ZM13.9596 15.5221V13.9596H15.5221V15.5221H13.9596ZM13.9596 12.3971V10.8346H15.5221V12.3971H13.9596ZM15.5221 13.9596V12.3971H17.0846V13.9596H15.5221Z" fill="#2F945A"/>
</svg>
