<svg width="21" height="20" viewBox="0 0 21 20" fill="none" xmlns="http://www.w3.org/2000/svg">
<path d="M10.3034 13.958H11.5533V9.16632H10.3034V13.958ZM10.9284 7.74005C11.1191 7.74005 11.2789 7.67555 11.4079 7.54655C11.5369 7.41755 11.6014 7.2577 11.6014 7.06699C11.6014 6.87629 11.5369 6.71644 11.4079 6.58743C11.2789 6.45843 11.1191 6.39392 10.9284 6.39392C10.7377 6.39392 10.5778 6.45843 10.4488 6.58743C10.3198 6.71644 10.2553 6.87629 10.2553 7.06699C10.2553 7.2577 10.3198 7.41755 10.4488 7.54655C10.5778 7.67555 10.7377 7.74005 10.9284 7.74005ZM10.9298 17.9163C9.83482 17.9163 8.80562 17.7085 7.84218 17.293C6.87872 16.8774 6.04065 16.3135 5.32797 15.6011C4.61527 14.8887 4.05106 14.051 3.63532 13.088C3.21959 12.125 3.01172 11.096 3.01172 10.001C3.01172 8.90611 3.2195 7.87691 3.63505 6.91347C4.05061 5.95001 4.61457 5.11194 5.32693 4.39926C6.0393 3.68656 6.877 3.12235 7.84003 2.70661C8.80305 2.29088 9.83202 2.08301 10.927 2.08301C12.0219 2.08301 13.0511 2.29079 14.0146 2.70634C14.978 3.1219 15.8161 3.68586 16.5288 4.39822C17.2415 5.11059 17.8057 5.94829 18.2214 6.91132C18.6371 7.87434 18.845 8.90331 18.845 9.99826C18.845 11.0932 18.6372 12.1224 18.2217 13.0858C17.8061 14.0493 17.2422 14.8874 16.5298 15.6C15.8174 16.3127 14.9797 16.877 14.0167 17.2927C13.0537 17.7084 12.0247 17.9163 10.9298 17.9163ZM10.9284 16.6663C12.7895 16.6663 14.3659 16.0205 15.6575 14.7288C16.9492 13.4372 17.595 11.8608 17.595 9.99965C17.595 8.13854 16.9492 6.56215 15.6575 5.27049C14.3659 3.97882 12.7895 3.33299 10.9284 3.33299C9.06725 3.33299 7.49086 3.97882 6.1992 5.27049C4.90753 6.56215 4.2617 8.13854 4.2617 9.99965C4.2617 11.8608 4.90753 13.4372 6.1992 14.7288C7.49086 16.0205 9.06725 16.6663 10.9284 16.6663Z" fill="#FF8D28"/>
</svg>
