<svg width="21" height="20" viewBox="0 0 21 20" fill="none" xmlns="http://www.w3.org/2000/svg">
<path d="M9.57487 13.958H10.8248V9.16632H9.57487V13.958ZM10.1998 7.74005C10.3906 7.74005 10.5504 7.67555 10.6794 7.54655C10.8084 7.41755 10.8729 7.2577 10.8729 7.06699C10.8729 6.87629 10.8084 6.71644 10.6794 6.58743C10.5504 6.45843 10.3906 6.39392 10.1998 6.39392C10.0091 6.39392 9.84929 6.45843 9.72029 6.58743C9.59129 6.71644 9.52679 6.87629 9.52679 7.06699C9.52679 7.2577 9.59129 7.41755 9.72029 7.54655C9.84929 7.67555 10.0091 7.74005 10.1998 7.74005ZM10.2012 17.9163C9.1063 17.9163 8.07711 17.7085 7.11366 17.293C6.1502 16.8774 5.31213 16.3135 4.59945 15.6011C3.88676 14.8887 3.32254 14.051 2.90681 13.088C2.49107 12.125 2.2832 11.096 2.2832 10.001C2.2832 8.90611 2.49098 7.87691 2.90654 6.91347C3.32209 5.95001 3.88605 5.11194 4.59841 4.39926C5.31079 3.68656 6.14849 3.12235 7.11152 2.70661C8.07453 2.29088 9.10351 2.08301 10.1985 2.08301C11.2934 2.08301 12.3226 2.29079 13.286 2.70634C14.2495 3.1219 15.0876 3.68586 15.8002 4.39822C16.5129 5.11059 17.0772 5.94829 17.4929 6.91132C17.9086 7.87434 18.1165 8.90331 18.1165 9.99826C18.1165 11.0932 17.9087 12.1224 17.4932 13.0858C17.0776 14.0493 16.5136 14.8874 15.8013 15.6C15.0889 16.3127 14.2512 16.877 13.2882 17.2927C12.3252 17.7084 11.2962 17.9163 10.2012 17.9163ZM10.1998 16.6663C12.061 16.6663 13.6374 16.0205 14.929 14.7288C16.2207 13.4372 16.8665 11.8608 16.8665 9.99965C16.8665 8.13854 16.2207 6.56215 14.929 5.27049C13.6374 3.97882 12.061 3.33299 10.1998 3.33299C8.33874 3.33299 6.76235 3.97882 5.47068 5.27049C4.17902 6.56215 3.53318 8.13854 3.53318 9.99965C3.53318 11.8608 4.17902 13.4372 5.47068 14.7288C6.76235 16.0205 8.33874 16.6663 10.1998 16.6663Z" fill="#BFDECC"/>
</svg>
