<svg width="16" height="16" viewBox="0 0 16 16" fill="none" xmlns="http://www.w3.org/2000/svg">
<path d="M7.4375 11.5625H8.56246V7.25H7.4375V11.5625ZM7.99998 5.96635C8.17162 5.96635 8.31549 5.9083 8.43159 5.7922C8.54769 5.6761 8.60574 5.53224 8.60574 5.3606C8.60574 5.18897 8.54769 5.0451 8.43159 4.92899C8.31549 4.81289 8.17162 4.75484 7.99998 4.75484C7.82834 4.75484 7.68447 4.81289 7.56837 4.92899C7.45227 5.0451 7.39422 5.18897 7.39422 5.3606C7.39422 5.53224 7.45227 5.6761 7.56837 5.7922C7.68447 5.9083 7.82834 5.96635 7.99998 5.96635ZM8.00124 15.125C7.01579 15.125 6.08951 14.938 5.22241 14.564C4.3553 14.19 3.60104 13.6824 2.95963 13.0413C2.3182 12.4002 1.81041 11.6462 1.43624 10.7795C1.06208 9.91279 0.875 8.9867 0.875 8.00125C0.875 7.0158 1.062 6.08953 1.436 5.22243C1.81 4.35532 2.31756 3.60105 2.95869 2.95964C3.59983 2.31822 4.35376 1.81042 5.22048 1.43626C6.08719 1.0621 7.01328 0.875015 7.99873 0.875015C8.98418 0.875015 9.91045 1.06202 10.7776 1.43602C11.6447 1.81002 12.3989 2.31758 13.0403 2.9587C13.6818 3.59984 14.1896 4.35377 14.5637 5.2205C14.9379 6.08721 15.125 7.01329 15.125 7.99874C15.125 8.98419 14.938 9.91047 14.564 10.7776C14.19 11.6447 13.6824 12.3989 13.0413 13.0404C12.4001 13.6818 11.6462 14.1896 10.7795 14.5637C9.91277 14.9379 8.98669 15.125 8.00124 15.125ZM7.99998 14C9.67498 14 11.0937 13.4187 12.2562 12.2562C13.4187 11.0937 14 9.675 14 8C14 6.325 13.4187 4.90625 12.2562 3.74375C11.0937 2.58125 9.67498 2 7.99998 2C6.32498 2 4.90623 2.58125 3.74373 3.74375C2.58123 4.90625 1.99998 6.325 1.99998 8C1.99998 9.675 2.58123 11.0937 3.74373 12.2562C4.90623 13.4187 6.32498 14 7.99998 14Z" fill="#EDEDF0"/>
</svg>
