<svg width="34" height="34" viewBox="0 0 34 34" fill="none" xmlns="http://www.w3.org/2000/svg">
<path d="M19.359 30.038L9.72184 19.9096V16.8052H14.9343C16.0953 16.8052 17.1021 16.4445 17.9547 15.7231C18.8072 15.0017 19.3308 14.0981 19.5253 13.0126H8.30518V9.78964H19.1511C18.7723 9.01406 18.1988 8.38605 17.4304 7.90561C16.662 7.42519 15.8102 7.18499 14.875 7.18499H8.30518V3.96204H25.6948V7.18499H21.1838C21.4804 7.53554 21.7558 7.93564 22.0099 8.38529C22.264 8.83492 22.459 9.30303 22.595 9.78964H25.6948V13.0126H22.8091C22.6032 14.9969 21.774 16.6538 20.3214 17.9832C18.8688 19.3126 17.1324 19.9886 15.1121 20.0112H14.2798L23.8323 30.038H19.359Z" fill="#595959"/>
</svg>
