<svg width="40" height="40" viewBox="0 0 40 40" fill="none" xmlns="http://www.w3.org/2000/svg">
<path fill-rule="evenodd" clip-rule="evenodd" d="M7.44078 25.7738C9.00358 24.211 11.1232 23.333 13.3333 23.333H26.6667C28.8768 23.333 30.9964 24.211 32.5592 25.7738C34.122 27.3366 35 29.4562 35 31.6663V34.9997C35 35.9201 34.2538 36.6663 33.3333 36.6663C32.4129 36.6663 31.6667 35.9201 31.6667 34.9997V31.6663C31.6667 30.3403 31.1399 29.0685 30.2022 28.1308C29.2645 27.1931 27.9927 26.6663 26.6667 26.6663H13.3333C12.0073 26.6663 10.7355 27.1931 9.7978 28.1308C8.86012 29.0685 8.33333 30.3403 8.33333 31.6663V34.9997C8.33333 35.9201 7.58714 36.6663 6.66667 36.6663C5.74619 36.6663 5 35.9201 5 34.9997V31.6663C5 29.4562 5.87797 27.3366 7.44078 25.7738Z" fill="#2F945A"/>
<path fill-rule="evenodd" clip-rule="evenodd" d="M20.0003 6.66634C17.2389 6.66634 15.0003 8.90492 15.0003 11.6663C15.0003 14.4278 17.2389 16.6663 20.0003 16.6663C22.7617 16.6663 25.0003 14.4278 25.0003 11.6663C25.0003 8.90492 22.7617 6.66634 20.0003 6.66634ZM11.667 11.6663C11.667 7.06397 15.398 3.33301 20.0003 3.33301C24.6027 3.33301 28.3337 7.06397 28.3337 11.6663C28.3337 16.2687 24.6027 19.9997 20.0003 19.9997C15.398 19.9997 11.667 16.2687 11.667 11.6663Z" fill="#2F945A"/>
</svg>
