<svg width="24" height="24" viewBox="0 0 24 24" fill="none" xmlns="http://www.w3.org/2000/svg">
<path d="M12.0009 11.8654C12.4985 11.8654 12.9239 11.6882 13.2771 11.3339C13.6303 10.9795 13.8069 10.5536 13.8069 10.056C13.8069 9.55839 13.6297 9.133 13.2754 8.7798C12.9211 8.4266 12.4951 8.25 11.9975 8.25C11.4999 8.25 11.0745 8.42717 10.7213 8.7815C10.3681 9.13583 10.1915 9.56179 10.1915 10.0594C10.1915 10.557 10.3687 10.9824 10.723 11.3356C11.0774 11.6888 11.5033 11.8654 12.0009 11.8654ZM11.9992 19.5135C13.9556 17.7622 15.4527 16.0824 16.4906 14.474C17.5284 12.8657 18.0473 11.457 18.0473 10.2481C18.0473 8.42498 17.4681 6.92627 16.3098 5.7519C15.1515 4.57753 13.7146 3.99035 11.9992 3.99035C10.2838 3.99035 8.84698 4.57753 7.68865 5.7519C6.53031 6.92627 5.95115 8.42498 5.95115 10.2481C5.95115 11.457 6.47006 12.8657 7.50787 14.474C8.54571 16.0824 10.0428 17.7622 11.9992 19.5135ZM11.9992 21.5096C9.48257 19.3288 7.5954 17.2993 6.3377 15.4211C5.08001 13.5429 4.45117 11.8186 4.45117 10.2481C4.45117 7.94038 5.19765 6.07213 6.6906 4.64328C8.18353 3.21443 9.95307 2.5 11.9992 2.5C14.0454 2.5 15.8149 3.21443 17.3078 4.64328C18.8008 6.07213 19.5473 7.94038 19.5473 10.2481C19.5473 11.8186 18.9184 13.5429 17.6607 15.4211C16.403 17.2993 14.5159 19.3288 11.9992 21.5096Z" fill="black"/>
</svg>
