<svg width="168" height="34" viewBox="0 0 168 34" fill="none" xmlns="http://www.w3.org/2000/svg">
<path fill-rule="evenodd" clip-rule="evenodd" d="M43.8605 27.1998C47.616 27.1998 50.6605 24.1554 50.6605 20.3998C50.6605 16.6443 47.616 13.5998 43.8605 13.5998C40.1049 13.5998 37.0605 16.6443 37.0605 20.3998C37.0605 24.1554 40.1049 27.1998 43.8605 27.1998ZM43.8605 33.9998C51.3715 33.9998 57.4605 27.9109 57.4605 20.3998C57.4605 12.8888 51.3715 6.79984 43.8605 6.79984C36.3494 6.79984 30.2605 12.8888 30.2605 20.3998C30.2605 27.9109 36.3494 33.9998 43.8605 33.9998Z" fill="#2F945A"/>
<path fill-rule="evenodd" clip-rule="evenodd" d="M86.8701 26.8598C90.5318 26.8598 93.5001 23.8915 93.5001 20.2298C93.5001 16.5682 90.5318 13.5998 86.8701 13.5998C83.2085 13.5998 80.2401 16.5682 80.2401 20.2298C80.2401 23.8915 83.2085 26.8598 86.8701 26.8598ZM86.8701 33.6598C94.2873 33.6598 100.3 27.647 100.3 20.2298C100.3 12.8127 94.2873 6.79984 86.8701 6.79984C79.4529 6.79984 73.4401 12.8127 73.4401 20.2298C73.4401 27.647 79.4529 33.6598 86.8701 33.6598Z" fill="#2F945A"/>
<path fill-rule="evenodd" clip-rule="evenodd" d="M62.5591 34V0H68.6791V34H62.5591Z" fill="#2F945A"/>
<path fill-rule="evenodd" clip-rule="evenodd" d="M163.88 33.66V0H167.28V33.66H163.88Z" fill="#4A4E69"/>
<path fill-rule="evenodd" clip-rule="evenodd" d="M72.7613 12.2398H59.1613V6.79984H72.7613V12.2398Z" fill="#2F945A"/>
<path fill-rule="evenodd" clip-rule="evenodd" d="M19.4903 23.7998C18.3145 25.8323 16.117 27.1998 13.6 27.1998C9.84447 27.1998 6.8 24.1553 6.8 20.3998C6.8 16.6442 9.84447 13.5998 13.6 13.5998C16.117 13.5998 18.3145 14.9673 19.4903 16.9998H26.7715C25.2618 11.134 19.9371 6.79978 13.6 6.79978C6.08893 6.79978 0 12.8887 0 20.3998C0 27.9109 6.08893 33.9998 13.6 33.9998C19.9371 33.9998 25.2618 29.6656 26.7715 23.7998H19.4903Z" fill="#2F945A"/>
<path d="M155.595 18.4483C155.595 15.9881 154.86 14.0052 153.392 12.4997C151.923 10.9574 149.866 10.1863 147.223 10.1863C146.048 10.1863 144.909 10.425 143.808 10.9024C142.706 11.343 141.733 11.9489 140.888 12.72C140.081 13.4911 139.42 14.3724 138.905 15.3638C138.428 16.3553 138.189 17.3834 138.189 18.4483H155.595ZM138.079 21.4226C138.189 22.7078 138.502 23.9196 139.016 25.0579C139.53 26.1962 140.209 27.1877 141.054 28.0322C141.898 28.8401 142.871 29.4827 143.973 29.96C145.074 30.4374 146.268 30.6761 147.553 30.6761C149.499 30.6761 151.17 30.2354 152.565 29.3542C153.997 28.4362 155.081 27.3896 155.815 26.2146L158.624 28.528C157.082 30.4741 155.374 31.8695 153.502 32.714C151.666 33.5586 149.683 33.9809 147.553 33.9809C145.644 33.9809 143.863 33.6504 142.21 32.9894C140.595 32.2918 139.199 31.337 138.024 30.1253C136.849 28.9135 135.913 27.4814 135.215 25.829C134.554 24.1766 134.224 22.3774 134.224 20.4312C134.224 18.485 134.554 16.6858 135.215 15.0334C135.876 13.381 136.794 11.9489 137.969 10.7371C139.144 9.52536 140.521 8.589 142.1 7.92804C143.679 7.23036 145.387 6.88152 147.223 6.88152C149.169 6.88152 150.913 7.23036 152.455 7.92804C153.997 8.62572 155.283 9.56208 156.311 10.7371C157.376 11.8754 158.183 13.2341 158.734 14.813C159.285 16.3553 159.56 18.0077 159.56 19.7702V21.4226H138.079Z" fill="#4A4E69"/>
<path fill-rule="evenodd" clip-rule="evenodd" d="M130.56 20.4001C130.468 27.7388 124.491 33.6598 117.131 33.6598C109.713 33.6598 103.701 27.647 103.701 20.2298C103.701 12.8126 109.713 6.79978 117.131 6.79978C121.118 6.79978 124.7 8.53787 127.16 11.2978V6.17297e-05L130.56 6.15811e-05V20.1029C130.56 20.1452 130.561 20.1874 130.561 20.2298C130.561 20.2721 130.56 20.3144 130.56 20.3566L130.56 20.4001ZM127.16 20.1199C127.101 14.6311 122.633 10.1998 117.131 10.1998C111.591 10.1998 107.101 14.6904 107.101 20.2298C107.101 25.7692 111.591 30.2598 117.131 30.2598C122.633 30.2598 127.101 25.8284 127.16 20.3396V20.1199Z" fill="#4A4E69"/>
</svg>
