<svg width="173" height="36" viewBox="0 0 173 36" fill="none" xmlns="http://www.w3.org/2000/svg">
<path fill-rule="evenodd" clip-rule="evenodd" d="M45.1499 28.5C49.0159 28.5 52.1499 25.366 52.1499 21.5C52.1499 17.634 49.0159 14.5 45.1499 14.5C41.2839 14.5 38.1499 17.634 38.1499 21.5C38.1499 25.366 41.2839 28.5 45.1499 28.5ZM45.1499 35.5C52.8819 35.5 59.1499 29.232 59.1499 21.5C59.1499 13.768 52.8819 7.5 45.1499 7.5C37.4179 7.5 31.1499 13.768 31.1499 21.5C31.1499 29.232 37.4179 35.5 45.1499 35.5Z" fill="#2F945A"/>
<path fill-rule="evenodd" clip-rule="evenodd" d="M89.4251 28.15C93.1944 28.15 96.2501 25.0943 96.2501 21.325C96.2501 17.5557 93.1944 14.5 89.4251 14.5C85.6558 14.5 82.6001 17.5557 82.6001 21.325C82.6001 25.0943 85.6558 28.15 89.4251 28.15ZM89.4251 35.15C97.0604 35.15 103.25 28.9603 103.25 21.325C103.25 13.6897 97.0604 7.5 89.4251 7.5C81.7898 7.5 75.6001 13.6897 75.6001 21.325C75.6001 28.9603 81.7898 35.15 89.4251 35.15Z" fill="#2F945A"/>
<path fill-rule="evenodd" clip-rule="evenodd" d="M64.3999 35.5V0.5H70.6999V35.5H64.3999Z" fill="#2F945A"/>
<path fill-rule="evenodd" clip-rule="evenodd" d="M168.7 35.15V0.5H172.2V35.15H168.7Z" fill="#4A4E69"/>
<path fill-rule="evenodd" clip-rule="evenodd" d="M74.8999 13.1H60.8999V7.5H74.8999V13.1Z" fill="#2F945A"/>
<path fill-rule="evenodd" clip-rule="evenodd" d="M20.0635 25C18.8532 27.0923 16.591 28.5 14 28.5C10.134 28.5 7 25.366 7 21.5C7 17.634 10.134 14.5 14 14.5C16.591 14.5 18.8532 15.9077 20.0635 18H27.5589C26.0048 11.9617 20.5234 7.5 14 7.5C6.26801 7.5 0 13.768 0 21.5C0 29.232 6.26801 35.5 14 35.5C20.5234 35.5 26.0048 31.0383 27.5589 25H20.0635Z" fill="#2F945A"/>
<path d="M160.171 19.491C160.171 16.9584 159.415 14.9172 157.903 13.3674C156.391 11.7798 154.274 10.986 151.553 10.986C150.343 10.986 149.171 11.2317 148.037 11.7231C146.903 12.1767 145.902 12.8004 145.032 13.5942C144.201 14.388 143.52 15.2952 142.991 16.3158C142.5 17.3364 142.254 18.3948 142.254 19.491H160.171ZM142.141 22.5528C142.254 23.8758 142.575 25.1232 143.105 26.295C143.634 27.4668 144.333 28.4874 145.202 29.3568C146.072 30.1884 147.074 30.8499 148.208 31.3413C149.342 31.8327 150.57 32.0784 151.893 32.0784C153.896 32.0784 155.616 31.6248 157.053 30.7176C158.527 29.7726 159.642 28.6953 160.398 27.4857L163.29 29.8671C161.702 31.8705 159.944 33.3069 158.017 34.1763C156.127 35.0457 154.085 35.4804 151.893 35.4804C149.927 35.4804 148.094 35.1402 146.393 34.4598C144.73 33.7416 143.294 32.7588 142.084 31.5114C140.874 30.264 139.91 28.7898 139.192 27.0888C138.512 25.3878 138.172 23.5356 138.172 21.5322C138.172 19.5288 138.512 17.6766 139.192 15.9756C139.873 14.2746 140.818 12.8004 142.027 11.553C143.237 10.3056 144.654 9.34168 146.28 8.66128C147.905 7.94308 149.663 7.58398 151.553 7.58398C153.556 7.58398 155.352 7.94308 156.939 8.66128C158.527 9.37948 159.85 10.3434 160.908 11.553C162.005 12.7248 162.836 14.1234 163.403 15.7488C163.97 17.3364 164.254 19.0374 164.254 20.8518V22.5528H142.141Z" fill="#4A4E69"/>
<path fill-rule="evenodd" clip-rule="evenodd" d="M134.399 21.5C134.305 29.0547 128.152 35.15 120.575 35.15C112.94 35.15 106.75 28.9603 106.75 21.325C106.75 13.6897 112.94 7.5 120.575 7.5C124.68 7.5 128.368 9.2895 130.9 12.131V0.5H134.4V21.325V21.5H134.399ZM130.9 21.325C130.9 27.0273 126.277 31.65 120.575 31.65C114.873 31.65 110.25 27.0273 110.25 21.325C110.25 15.6227 114.873 11 120.575 11C126.277 11 130.9 15.6227 130.9 21.325Z" fill="#4A4E69"/>
</svg>
