<svg width="270" height="151" viewBox="0 0 270 151" fill="none" xmlns="http://www.w3.org/2000/svg">
<g clip-path="url(#clip0_12836_97399)">
<rect width="270" height="150" transform="translate(0 0.125)" fill="url(#paint0_linear_12836_97399)"/>
<g clip-path="url(#clip1_12836_97399)">
<path d="M87.3797 74.1914H83.7461V78.4199H87.3797V74.1914Z" stroke="#E4E4E4" stroke-width="0.325733" stroke-linecap="round" stroke-linejoin="round"/>
<path d="M91.5984 74.1914H87.9648V78.4199H91.5984V74.1914Z" stroke="#E4E4E4" stroke-width="0.325733" stroke-linecap="round" stroke-linejoin="round"/>
<path d="M95.8211 74.1914H92.1875V78.4199H95.8211V74.1914Z" stroke="#E4E4E4" stroke-width="0.325733" stroke-linecap="round" stroke-linejoin="round"/>
<path d="M87.3797 74.1914H83.7461V75.7193H87.3797V74.1914Z" stroke="#E4E4E4" stroke-width="0.325733" stroke-linecap="round" stroke-linejoin="round"/>
<path d="M91.5984 74.1914H87.9648V75.7193H91.5984V74.1914Z" stroke="#E4E4E4" stroke-width="0.325733" stroke-linecap="round" stroke-linejoin="round"/>
<path d="M95.8211 74.1914H92.1875V75.7193H95.8211V74.1914Z" stroke="#E4E4E4" stroke-width="0.325733" stroke-linecap="round" stroke-linejoin="round"/>
<path d="M92.325 89.7852H88.6914V94.0136H92.325V89.7852Z" stroke="#E4E4E4" stroke-width="0.325733" stroke-linecap="round" stroke-linejoin="round"/>
<path d="M96.5476 89.7852H92.9141V94.0136H96.5476V89.7852Z" stroke="#E4E4E4" stroke-width="0.325733" stroke-linecap="round" stroke-linejoin="round"/>
<path d="M100.77 89.7852H97.1367V94.0136H100.77V89.7852Z" stroke="#E4E4E4" stroke-width="0.325733" stroke-linecap="round" stroke-linejoin="round"/>
<path d="M92.325 89.7852H88.6914V91.313H92.325V89.7852Z" stroke="#E4E4E4" stroke-width="0.325733" stroke-linecap="round" stroke-linejoin="round"/>
<path d="M96.5476 89.7852H92.9141V91.313H96.5476V89.7852Z" stroke="#E4E4E4" stroke-width="0.325733" stroke-linecap="round" stroke-linejoin="round"/>
<path d="M100.77 89.7852H97.1367V91.313H100.77V89.7852Z" stroke="#E4E4E4" stroke-width="0.325733" stroke-linecap="round" stroke-linejoin="round"/>
<path d="M103.071 74.1914H99.4375V78.4199H103.071V74.1914Z" stroke="#E4E4E4" stroke-width="0.325733" stroke-linecap="round" stroke-linejoin="round"/>
<path d="M107.294 74.1914H103.66V78.4199H107.294V74.1914Z" stroke="#E4E4E4" stroke-width="0.325733" stroke-linecap="round" stroke-linejoin="round"/>
<path d="M111.516 74.1914H107.883V78.4199H111.516V74.1914Z" stroke="#E4E4E4" stroke-width="0.325733" stroke-linecap="round" stroke-linejoin="round"/>
<path d="M103.071 74.1914H99.4375V75.7193H103.071V74.1914Z" stroke="#E4E4E4" stroke-width="0.325733" stroke-linecap="round" stroke-linejoin="round"/>
<path d="M107.294 74.1914H103.66V75.7193H107.294V74.1914Z" stroke="#E4E4E4" stroke-width="0.325733" stroke-linecap="round" stroke-linejoin="round"/>
<path d="M111.516 74.1914H107.883V75.7193H111.516V74.1914Z" stroke="#E4E4E4" stroke-width="0.325733" stroke-linecap="round" stroke-linejoin="round"/>
<path d="M119.091 74.1914H115.457V78.4199H119.091V74.1914Z" stroke="#E4E4E4" stroke-width="0.325733" stroke-linecap="round" stroke-linejoin="round"/>
<path d="M123.317 74.1914H119.684V78.4199H123.317V74.1914Z" stroke="#E4E4E4" stroke-width="0.325733" stroke-linecap="round" stroke-linejoin="round"/>
<path d="M127.54 74.1914H123.906V78.4199H127.54V74.1914Z" stroke="#E4E4E4" stroke-width="0.325733" stroke-linecap="round" stroke-linejoin="round"/>
<path d="M119.091 74.1914H115.457V75.7193H119.091V74.1914Z" stroke="#E4E4E4" stroke-width="0.325733" stroke-linecap="round" stroke-linejoin="round"/>
<path d="M123.317 74.1914H119.684V75.7193H123.317V74.1914Z" stroke="#E4E4E4" stroke-width="0.325733" stroke-linecap="round" stroke-linejoin="round"/>
<path d="M127.54 74.1914H123.906V75.7193H127.54V74.1914Z" stroke="#E4E4E4" stroke-width="0.325733" stroke-linecap="round" stroke-linejoin="round"/>
<path d="M125.641 85.6505V82.1582H124.258V85.6505L123.113 87.401V94.3278H126.785V87.401L125.641 85.6505Z" stroke="#E4E4E4" stroke-width="0.325733" stroke-linecap="round" stroke-linejoin="round"/>
<path d="M125.642 82.1582H124.262V83.9814H125.642V82.1582Z" stroke="#E4E4E4" stroke-width="0.325733" stroke-linecap="round" stroke-linejoin="round"/>
<path d="M125.951 89.1543H123.113V92.0753H125.951V89.1543Z" stroke="#E4E4E4" stroke-width="0.325733" stroke-linecap="round" stroke-linejoin="round"/>
<path d="M120.884 85.6505V82.1582H119.504V85.6505L118.359 87.401V94.3278H122.029V87.401L120.884 85.6505Z" stroke="#E4E4E4" stroke-width="0.325733" stroke-linecap="round" stroke-linejoin="round"/>
<path d="M120.884 82.1582H119.504V83.9814H120.884V82.1582Z" stroke="#E4E4E4" stroke-width="0.325733" stroke-linecap="round" stroke-linejoin="round"/>
<path d="M121.197 89.1543H118.359V92.0753H121.197V89.1543Z" stroke="#E4E4E4" stroke-width="0.325733" stroke-linecap="round" stroke-linejoin="round"/>
<path d="M86.8102 85.6505V82.1582H85.43V85.6505L84.2852 87.401V94.3278H87.9572V87.401L86.8102 85.6505Z" stroke="#E4E4E4" stroke-width="0.325733" stroke-linecap="round" stroke-linejoin="round"/>
<path d="M86.8099 82.1582H85.4297V83.9814H86.8099V82.1582Z" stroke="#E4E4E4" stroke-width="0.325733" stroke-linecap="round" stroke-linejoin="round"/>
<path d="M87.1227 89.1543H84.2852V92.0753H87.1227V89.1543Z" stroke="#E4E4E4" stroke-width="0.325733" stroke-linecap="round" stroke-linejoin="round"/>
<path d="M82.1719 78.5781H129.01" stroke="#E4E4E4" stroke-width="0.300071" stroke-linecap="round" stroke-linejoin="round"/>
<path d="M97.6445 63.1602V94.4926" stroke="#E4E4E4" stroke-width="0.300071" stroke-linecap="round" stroke-linejoin="round"/>
<path d="M113.855 63.1602V94.4926" stroke="#E4E4E4" stroke-width="0.300071" stroke-linecap="round" stroke-linejoin="round"/>
<path d="M129.342 62.752H82.1055V94.5209H129.342V62.752Z" stroke="#E4E4E4" stroke-width="0.300071" stroke-linecap="round" stroke-linejoin="round"/>
<path d="M177.263 34.7832H132.492V94.8576H177.263V34.7832Z" stroke="#E4E4E4" stroke-width="0.255486" stroke-miterlimit="10"/>
<path d="M137.59 50.084H153.369" stroke="#E4E4E4" stroke-width="0.255486" stroke-miterlimit="10"/>
<path d="M137.59 56.8848H153.369" stroke="#E4E4E4" stroke-width="0.255486" stroke-miterlimit="10"/>
<path d="M137.59 63.6855H153.369" stroke="#E4E4E4" stroke-width="0.255486" stroke-miterlimit="10"/>
<path d="M137.59 70.4863H153.369" stroke="#E4E4E4" stroke-width="0.255486" stroke-miterlimit="10"/>
<path d="M137.59 77.2891H153.369" stroke="#E4E4E4" stroke-width="0.255486" stroke-miterlimit="10"/>
<path d="M137.59 84.0898H153.369" stroke="#E4E4E4" stroke-width="0.255486" stroke-miterlimit="10"/>
<path d="M156.668 50.082H172.447" stroke="#E4E4E4" stroke-width="0.255486" stroke-miterlimit="10"/>
<path d="M156.668 56.8848H172.447" stroke="#E4E4E4" stroke-width="0.255486" stroke-miterlimit="10"/>
<path d="M156.668 63.6855H172.447" stroke="#E4E4E4" stroke-width="0.255486" stroke-miterlimit="10"/>
<path d="M156.668 70.4863H172.447" stroke="#E4E4E4" stroke-width="0.255486" stroke-miterlimit="10"/>
<path d="M156.668 77.2891H172.447" stroke="#E4E4E4" stroke-width="0.255486" stroke-miterlimit="10"/>
<path d="M156.668 84.0898H172.447" stroke="#E4E4E4" stroke-width="0.255486" stroke-miterlimit="10"/>
<path d="M145.625 41.5371C145.617 41.1787 145.67 40.8215 145.78 40.4805C145.87 40.2114 146.05 39.9816 146.29 39.8311L146.289 39.8301C146.563 39.6796 146.87 39.6 147.181 39.5947L147.315 39.5977H147.329C147.669 39.5801 148.008 39.6513 148.312 39.8057C148.507 39.9147 148.664 40.0808 148.762 40.2803L148.8 40.3682C148.904 40.6547 148.954 40.958 148.948 41.2627V41.6592H147.978V41.2041C147.978 41.0647 147.97 40.9254 147.952 40.7871H147.951C147.939 40.6496 147.886 40.519 147.797 40.4131L147.792 40.4072L147.786 40.4014L147.687 40.3271C147.651 40.306 147.613 40.2885 147.573 40.2754C147.534 40.2622 147.493 40.2533 147.451 40.249L147.327 40.25C147.252 40.2466 147.177 40.2549 147.105 40.2783C147.026 40.3045 146.952 40.3462 146.889 40.4014L146.877 40.4131C146.781 40.5213 146.721 40.6557 146.701 40.7988C146.68 40.9486 146.668 41.0997 146.669 41.251V44.0723C146.666 44.235 146.682 44.3975 146.716 44.5566C146.739 44.6973 146.809 44.8266 146.913 44.9238L146.923 44.9316C147.045 45.0255 147.196 45.0721 147.35 45.0625V45.0615C147.424 45.0666 147.499 45.0592 147.57 45.0352C147.648 45.0088 147.719 44.9656 147.778 44.9092L147.784 44.9033L147.789 44.8975C147.879 44.7877 147.934 44.6539 147.948 44.5127L147.949 44.5137C147.968 44.3682 147.977 44.2218 147.978 44.0752V43.5918H148.948V43.9805C148.955 44.2924 148.905 44.6032 148.802 44.8975C148.716 45.1415 148.55 45.3499 148.332 45.4883C148.065 45.6378 147.765 45.7177 147.461 45.7207L147.33 45.7168H147.316C147.001 45.7315 146.687 45.665 146.406 45.5244L146.288 45.46C146.049 45.3057 145.87 45.074 145.78 44.8037C145.67 44.4704 145.618 44.1206 145.625 43.7695V41.5371Z" fill="white" stroke="#E4E4E4" stroke-width="0.255486"/>
<path d="M151.187 41.9043C151.127 41.8989 151.067 41.907 151.011 41.9277C150.983 41.9382 150.956 41.9524 150.931 41.9688L150.861 42.0254L150.855 42.0312C150.804 42.092 150.765 42.1627 150.741 42.2383L150.723 42.3154C150.703 42.4316 150.693 42.5492 150.693 42.667V44.4258C150.693 44.5402 150.702 44.6548 150.722 44.7676V44.7686C150.737 44.8763 150.785 44.9776 150.857 45.0586L150.86 45.0615C150.904 45.1065 150.957 45.1411 151.016 45.1621C151.064 45.1795 151.116 45.1847 151.167 45.1826V45.1836C151.17 45.1838 151.173 45.1825 151.176 45.1826V45.1836L151.184 45.1826H151.199L151.198 45.1816C151.247 45.1812 151.294 45.175 151.34 45.1582C151.395 45.1378 151.445 45.1056 151.487 45.0645L151.493 45.0586C151.566 44.9767 151.612 44.8738 151.624 44.7646L151.623 44.7637C151.64 44.6513 151.648 44.5375 151.646 44.4238V42.667C151.649 42.5506 151.641 42.4344 151.623 42.3193H151.624C151.609 42.2135 151.565 42.1139 151.496 42.0322L151.399 42.1133L151.496 42.0312L151.487 42.0234L151.419 41.9688C151.394 41.953 151.368 41.9399 151.34 41.9297C151.291 41.9115 151.239 41.9033 151.187 41.9043ZM152.54 44.3379L152.541 44.3428C152.551 44.6057 152.495 44.8672 152.379 45.1035C152.277 45.297 152.116 45.4537 151.92 45.5518C151.688 45.6599 151.434 45.7141 151.178 45.709H151.172C150.909 45.7173 150.647 45.6632 150.408 45.5518C150.262 45.4787 150.135 45.3724 150.039 45.2422L149.953 45.1045C149.842 44.8665 149.788 44.6055 149.797 44.3428V42.7363C149.788 42.4739 149.841 42.2132 149.953 41.9756C150.053 41.7831 150.211 41.6258 150.404 41.5283C150.643 41.4221 150.902 41.3682 151.164 41.3682C151.361 41.3682 151.557 41.3993 151.743 41.46L151.926 41.5303C152.119 41.6285 152.277 41.7839 152.379 41.9756C152.495 42.2118 152.551 42.4733 152.541 42.7363H152.54V44.3379Z" fill="white" stroke="#E4E4E4" stroke-width="0.255486"/>
<path d="M153.69 41.0146C153.687 40.7938 153.713 40.5731 153.769 40.3594V40.3584C153.807 40.2048 153.902 40.0708 154.034 39.9834C154.19 39.9017 154.362 39.854 154.536 39.8418H155.012C155.062 39.8418 155.119 39.8491 155.186 39.8584V40.4502H155.029C154.971 40.4473 154.912 40.4564 154.857 40.4785C154.797 40.503 154.744 40.5414 154.702 40.5908L154.697 40.5967L154.693 40.6035C154.62 40.7139 154.587 40.8448 154.596 40.9766H154.595V41.459H155.161V41.9922H154.595V45.6387L153.69 45.6348V41.9863H153.245V41.4531H153.69V41.0146ZM155.862 41.0146C155.858 40.7938 155.885 40.5731 155.94 40.3594V40.3584C155.979 40.2047 156.074 40.0708 156.206 39.9834C156.362 39.9017 156.533 39.854 156.708 39.8418H157.183C157.233 39.8418 157.29 39.8491 157.357 39.8584V40.4502H157.201C157.143 40.4473 157.084 40.4563 157.029 40.4785C156.969 40.503 156.916 40.5414 156.874 40.5908L156.869 40.5967L156.864 40.6035C156.808 40.6883 156.775 40.7856 156.767 40.8857V41.459H157.357V41.9922H156.767V45.6387L155.862 45.6348V41.9863H155.441V41.4531H155.862V41.0146Z" fill="white" stroke="#E4E4E4" stroke-width="0.255486"/>
<path d="M159.347 41.958C159.28 41.9569 159.213 41.9711 159.153 42L159.092 42.0352L159.082 42.0439C159.005 42.1104 158.952 42.1998 158.929 42.2988C158.913 42.3662 158.901 42.4343 158.895 42.5029L158.887 42.707V43.1807H159.841V42.6162C159.845 42.4991 159.83 42.382 159.797 42.2695H159.796C159.772 42.1705 159.712 42.0842 159.626 42.0283V42.0273L159.619 42.0244L159.556 41.9932C159.493 41.9681 159.425 41.9565 159.357 41.958H159.347ZM157.996 42.7959C157.988 42.5231 158.041 42.2513 158.154 42.0029C158.251 41.8062 158.408 41.6451 158.603 41.5439C158.838 41.4249 159.1 41.3677 159.364 41.377V41.3779L159.375 41.377C159.639 41.3649 159.9 41.4239 160.134 41.5469C160.318 41.6597 160.46 41.8295 160.539 42.0303C160.639 42.2886 160.686 42.564 160.679 42.8408V43.4912H158.887V44.4756C158.883 44.5937 158.899 44.7115 158.935 44.8242V44.8252C158.96 44.9234 159.019 45.0097 159.102 45.0693L159.107 45.0742L159.114 45.0781C159.191 45.1212 159.278 45.1435 159.366 45.1436C159.454 45.1436 159.541 45.1212 159.618 45.0781L159.624 45.0742C159.707 45.0221 159.767 44.9415 159.795 44.8477L159.796 44.8486C159.812 44.7973 159.825 44.7446 159.832 44.6914L159.841 44.5312V44.2422H160.66V44.4824H160.659L160.66 44.4912C160.671 44.6611 160.647 44.8319 160.59 44.9922C160.534 45.1492 160.445 45.2924 160.332 45.415C160.062 45.6343 159.719 45.7415 159.372 45.7109L159.364 45.71H159.355C159.092 45.7201 158.831 45.6637 158.596 45.5459C158.402 45.4397 158.248 45.2743 158.154 45.0742C158.043 44.8283 157.989 44.5607 157.996 44.291V42.7959Z" fill="white" stroke="#E4E4E4" stroke-width="0.255486"/>
<path d="M162.878 41.958C162.787 41.9569 162.699 41.9834 162.624 42.0352L162.697 42.1406L162.693 42.1357L162.623 42.0352L162.613 42.0439C162.536 42.1104 162.483 42.1998 162.46 42.2988C162.444 42.3662 162.433 42.4343 162.426 42.5029L162.418 42.707V43.1807H163.374V42.6162C163.375 42.5584 163.373 42.5006 163.366 42.4434L163.331 42.2715C163.304 42.173 163.243 42.087 163.159 42.0293H163.16L163.15 42.0244L163.087 41.9932C163.024 41.968 162.956 41.9563 162.888 41.958H162.878ZM161.527 42.7959C161.519 42.5231 161.573 42.2513 161.686 42.0029C161.782 41.8062 161.939 41.6451 162.134 41.5439C162.37 41.4252 162.632 41.368 162.896 41.377V41.3779L162.906 41.377C163.17 41.3649 163.432 41.4239 163.665 41.5469C163.849 41.6597 163.991 41.8295 164.07 42.0303C164.17 42.2886 164.217 42.564 164.21 42.8408V43.4912H162.429V44.4775C162.426 44.5956 162.443 44.7132 162.478 44.8262V44.8271C162.504 44.9236 162.562 45.0084 162.643 45.0684L162.642 45.0693L162.653 45.0762C162.73 45.1221 162.819 45.1443 162.908 45.1426V45.1436L162.911 45.1426C162.913 45.1425 162.914 45.1436 162.916 45.1436L162.915 45.1426C163.003 45.1436 163.089 45.1215 163.164 45.0762L163.168 45.0732C163.249 45.0205 163.311 44.9417 163.341 44.8496L163.342 44.8467C163.357 44.7958 163.369 44.7439 163.376 44.6914L163.386 44.5322V44.2422H164.202V44.4922C164.214 44.6618 164.191 44.8321 164.134 44.9922C164.077 45.1494 163.989 45.2931 163.875 45.415C163.741 45.5247 163.587 45.6075 163.422 45.6582C163.254 45.7094 163.079 45.7278 162.904 45.7109L162.896 45.71H162.887C162.624 45.7201 162.362 45.6637 162.127 45.5459C161.933 45.4397 161.779 45.2743 161.686 45.0742C161.575 44.8283 161.521 44.5607 161.527 44.291V42.7959Z" fill="white" stroke="#E4E4E4" stroke-width="0.255486"/>
<path d="M214.945 54.9258H180.332V94.8554H214.945V54.9258Z" stroke="#E4E4E4" stroke-width="0.255486" stroke-miterlimit="10"/>
<path d="M184.273 60.2441H196.474" stroke="#E4E4E4" stroke-width="0.255486" stroke-miterlimit="10"/>
<path d="M184.273 65.502H196.474" stroke="#E4E4E4" stroke-width="0.255486" stroke-miterlimit="10"/>
<path d="M184.273 70.7598H196.474" stroke="#E4E4E4" stroke-width="0.255486" stroke-miterlimit="10"/>
<path d="M184.273 76.0176H196.474" stroke="#E4E4E4" stroke-width="0.255486" stroke-miterlimit="10"/>
<path d="M184.273 81.2754H196.474" stroke="#E4E4E4" stroke-width="0.255486" stroke-miterlimit="10"/>
<path d="M184.273 86.5332H196.474" stroke="#E4E4E4" stroke-width="0.255486" stroke-miterlimit="10"/>
<path d="M199.027 60.2441H211.225" stroke="#E4E4E4" stroke-width="0.255486" stroke-miterlimit="10"/>
<path d="M199.027 65.502H211.225" stroke="#E4E4E4" stroke-width="0.255486" stroke-miterlimit="10"/>
<path d="M199.027 70.7598H211.225" stroke="#E4E4E4" stroke-width="0.255486" stroke-miterlimit="10"/>
<path d="M199.027 76.0176H211.225" stroke="#E4E4E4" stroke-width="0.255486" stroke-miterlimit="10"/>
<path d="M199.027 81.2754H211.225" stroke="#E4E4E4" stroke-width="0.255486" stroke-miterlimit="10"/>
<path d="M199.027 86.5332H211.225" stroke="#E4E4E4" stroke-width="0.255486" stroke-miterlimit="10"/>
<path d="M206.49 26.6621L203.161 21.9062H190.13L186.801 26.6621C185.039 29.1831 184.137 32.2053 184.229 35.2798C184.321 38.3542 185.403 41.317 187.312 43.728L188.855 45.6716H204.439L205.981 43.728C207.891 41.3167 208.971 38.3538 209.063 35.2793C209.155 32.2048 208.252 29.1828 206.49 26.6621Z" fill="white" stroke="#263238" stroke-width="0.255486" stroke-linecap="round" stroke-linejoin="round"/>
<path d="M186.797 26.6641H192.916" stroke="#263238" stroke-width="0.255486" stroke-linecap="round" stroke-linejoin="round"/>
<path d="M199.681 28.6133H194.523" stroke="#263238" stroke-width="0.255486" stroke-linecap="round" stroke-linejoin="round"/>
<path d="M208.863 37.6348H196.781" stroke="#263238" stroke-width="0.255486" stroke-linecap="round" stroke-linejoin="round"/>
<path d="M186.793 37.4727H191.466" stroke="#263238" stroke-width="0.255486" stroke-linecap="round" stroke-linejoin="round"/>
<path d="M202.905 35.0566H199.199" stroke="#263238" stroke-width="0.255486" stroke-linecap="round" stroke-linejoin="round"/>
<path d="M191.625 41.0156H194.85" stroke="#263238" stroke-width="0.255486" stroke-linecap="round" stroke-linejoin="round"/>
<path d="M203.867 23.459H201.129" stroke="#263238" stroke-width="0.255486" stroke-linecap="round" stroke-linejoin="round"/>
<path d="M196.641 21.8854V3.43945" stroke="#E4E4E4" stroke-width="0.255486" stroke-linecap="round" stroke-linejoin="round"/>
<path d="M205.344 108.576C206.015 108.87 207.659 108.834 207.662 108.834C207.665 108.834 207.307 107.756 207.277 107.69C206.917 106.937 205.776 105.689 204.847 105.816C204.693 105.839 204.545 105.895 204.414 105.98C204.284 106.065 204.172 106.177 204.088 106.309C204.004 106.44 203.949 106.588 203.926 106.742C203.903 106.896 203.913 107.054 203.956 107.204C204.102 107.847 204.77 108.325 205.344 108.576Z" fill="#263238"/>
<path d="M221.971 108.938C221.984 108.938 222.27 107.838 222.281 107.772C222.397 106.948 222.13 105.276 221.289 104.867C221.147 104.801 220.993 104.767 220.837 104.766C220.681 104.764 220.526 104.797 220.383 104.86C220.24 104.923 220.113 105.016 220.009 105.132C219.905 105.249 219.827 105.386 219.78 105.535C219.554 106.159 219.84 106.909 220.178 107.445C220.596 108.067 221.971 108.938 221.971 108.938Z" fill="#263238"/>
<path d="M205.913 113.339C206.611 113.44 208.079 113.014 208.195 112.981C208.436 113.82 208.734 114.642 209.086 115.442C209.286 115.909 209.506 116.374 209.729 116.838C209.594 116.643 209.473 116.467 209.454 116.445C208.904 115.813 207.477 114.911 206.614 115.277C206.472 115.34 206.345 115.434 206.241 115.551C206.138 115.667 206.06 115.805 206.014 115.954C205.968 116.103 205.954 116.26 205.973 116.415C205.992 116.57 206.044 116.719 206.125 116.852C206.444 117.432 207.205 117.718 207.824 117.809C208.442 117.899 209.71 117.564 210.042 117.468C210.13 117.646 210.215 117.822 210.303 117.998C210.73 118.845 211.156 119.689 211.551 120.527C211.689 120.824 211.826 121.118 211.942 121.415C211.824 121.242 211.722 121.096 211.705 121.074C211.156 120.442 209.729 119.54 208.866 119.909C208.723 119.972 208.596 120.066 208.492 120.182C208.388 120.299 208.31 120.436 208.264 120.585C208.217 120.734 208.203 120.891 208.222 121.046C208.241 121.201 208.293 121.351 208.374 121.484C208.693 122.061 209.454 122.35 210.073 122.438C210.691 122.526 211.837 122.226 212.23 122.116C212.351 122.421 212.475 122.729 212.577 123.032C212.643 123.241 212.723 123.439 212.778 123.65C212.833 123.862 212.893 124.068 212.951 124.274C213.047 124.676 213.149 125.099 213.226 125.481C213.286 125.756 213.338 126.014 213.393 126.276C213.259 125.981 212.981 125.407 212.953 125.36C212.508 124.654 211.233 123.546 210.323 123.777C210.172 123.818 210.032 123.891 209.912 123.991C209.792 124.091 209.694 124.215 209.626 124.355C209.557 124.496 209.519 124.649 209.515 124.805C209.511 124.962 209.539 125.117 209.6 125.261C209.828 125.882 210.537 126.281 211.134 126.462C211.793 126.663 213.248 126.479 213.432 126.462C213.517 126.897 213.599 127.32 213.668 127.721C213.718 127.996 213.759 128.255 213.8 128.508H214.383C214.331 128.233 214.276 127.93 214.215 127.62C214.127 127.177 214.026 126.707 213.916 126.223C214.355 126.049 214.783 125.848 215.197 125.621C215.678 126.141 216.907 126.748 217.066 126.825C216.898 127.238 216.731 127.636 216.568 128.01L216.349 128.508H216.962C217 128.414 217.041 128.321 217.08 128.233C217.25 127.818 217.426 127.367 217.602 126.905C217.778 126.941 219.219 127.235 219.892 127.084C220.502 126.946 221.239 126.6 221.511 125.998C221.582 125.859 221.621 125.706 221.628 125.551C221.635 125.395 221.609 125.239 221.551 125.095C221.494 124.95 221.406 124.819 221.294 124.711C221.182 124.602 221.048 124.519 220.901 124.467C220.013 124.167 218.658 125.176 218.152 125.841C218.122 125.88 217.852 126.347 217.687 126.644C217.759 126.454 217.827 126.273 217.899 126.075C218.042 125.69 218.174 125.3 218.311 124.882C218.375 124.676 218.435 124.469 218.498 124.26C218.561 124.052 218.608 123.829 218.663 123.612C218.784 123.106 218.883 122.586 218.968 122.059C219.309 122.182 220.516 122.608 221.143 122.559C221.77 122.509 222.548 122.284 222.91 121.734C223.001 121.607 223.063 121.462 223.093 121.309C223.124 121.157 223.121 120.999 223.086 120.847C223.05 120.695 222.983 120.553 222.888 120.429C222.794 120.305 222.674 120.203 222.537 120.129C221.712 119.697 220.211 120.489 219.617 121.08C219.581 121.116 219.205 121.588 219.001 121.85C219.051 121.533 219.103 121.22 219.142 120.896C219.257 119.969 219.345 119.024 219.436 118.083C219.463 117.795 219.496 117.509 219.526 117.22C219.647 117.267 221.071 117.798 221.772 117.748C222.396 117.704 223.177 117.473 223.54 116.923C223.631 116.796 223.694 116.651 223.724 116.498C223.754 116.345 223.752 116.187 223.717 116.035C223.681 115.883 223.614 115.74 223.519 115.616C223.424 115.492 223.304 115.389 223.166 115.315C222.341 114.886 220.84 115.678 220.249 116.269C220.203 116.313 219.661 116.992 219.532 117.171C219.598 116.538 219.672 115.909 219.768 115.29C219.898 114.455 220.081 113.628 220.318 112.816C220.373 112.836 221.86 113.396 222.578 113.347C223.202 113.303 223.983 113.072 224.345 112.522C224.436 112.395 224.498 112.25 224.528 112.097C224.559 111.945 224.556 111.787 224.521 111.635C224.485 111.483 224.418 111.341 224.323 111.217C224.229 111.093 224.109 110.991 223.972 110.917C223.147 110.485 221.646 111.277 221.055 111.868C221.014 111.906 220.601 112.418 220.409 112.673L220.362 112.649C220.619 111.839 220.948 111.053 221.344 110.301C221.558 109.883 221.786 109.495 222.014 109.124C222.289 109.259 223.501 109.853 224.153 109.878C224.805 109.902 225.58 109.762 226 109.251C226.106 109.134 226.186 108.996 226.234 108.846C226.282 108.696 226.298 108.538 226.279 108.382C226.26 108.225 226.209 108.075 226.127 107.94C226.045 107.805 225.935 107.69 225.805 107.601C225.027 107.082 223.455 107.706 222.8 108.225C222.765 108.256 222.435 108.583 222.198 108.825C222.306 108.66 222.41 108.487 222.517 108.33C222.908 107.739 223.304 107.23 223.658 106.768C223.862 106.513 224.049 106.285 224.227 106.073C224.557 106.073 225.877 106.026 226.462 105.754C227.048 105.482 227.675 104.993 227.812 104.347C227.852 104.195 227.86 104.036 227.834 103.881C227.808 103.726 227.749 103.579 227.661 103.449C227.574 103.318 227.459 103.208 227.325 103.126C227.191 103.044 227.041 102.991 226.886 102.972C225.954 102.873 224.846 104.149 224.505 104.913C224.477 104.979 224.134 106.065 224.153 106.065H224.172C223.996 106.265 223.809 106.48 223.622 106.722C223.26 107.17 222.853 107.678 222.446 108.264C222.001 108.888 221.593 109.537 221.223 110.207C220.807 110.959 220.459 111.745 220.181 112.558V112.588C220.181 112.313 220.181 111.546 220.164 111.489C220.057 110.664 219.361 109.119 218.441 108.948C218.286 108.923 218.129 108.931 217.978 108.971C217.827 109.011 217.686 109.083 217.565 109.182C217.444 109.281 217.346 109.404 217.276 109.544C217.207 109.684 217.168 109.837 217.162 109.993C217.107 110.65 217.586 111.31 218.053 111.728C218.578 112.198 220.038 112.651 220.153 112.687C219.89 113.521 219.685 114.371 219.537 115.233C219.447 115.733 219.372 116.242 219.304 116.75C219.304 116.514 219.304 116.302 219.304 116.272C219.197 115.447 218.501 113.902 217.58 113.732C217.426 113.706 217.268 113.713 217.117 113.753C216.966 113.793 216.825 113.864 216.704 113.963C216.583 114.062 216.484 114.185 216.414 114.325C216.344 114.464 216.305 114.617 216.299 114.774C216.247 115.433 216.725 116.093 217.19 116.511C217.654 116.929 218.9 117.336 219.227 117.448L219.153 118.037C219.04 118.977 218.933 119.917 218.798 120.832C218.751 121.157 218.693 121.473 218.636 121.789C218.636 121.58 218.636 121.401 218.636 121.374C218.528 120.549 217.833 119.004 216.912 118.834C216.758 118.808 216.6 118.816 216.449 118.856C216.298 118.897 216.158 118.968 216.037 119.067C215.916 119.166 215.817 119.29 215.748 119.429C215.678 119.569 215.639 119.722 215.634 119.879C215.579 120.536 216.057 121.198 216.522 121.613C216.986 122.028 218.111 122.408 218.501 122.534C218.432 122.856 218.366 123.18 218.284 123.491C218.223 123.7 218.182 123.906 218.111 124.115C218.039 124.324 217.976 124.527 217.91 124.731C217.77 125.118 217.635 125.517 217.481 125.891C217.379 126.152 217.28 126.399 217.179 126.647C217.231 126.328 217.316 125.695 217.319 125.64C217.306 124.906 217.108 124.186 216.742 123.548C216.743 123.466 216.737 123.383 216.725 123.301C216.707 123.146 216.656 122.997 216.576 122.863C216.496 122.729 216.388 122.614 216.26 122.525C216.132 122.436 215.986 122.376 215.832 122.347C215.679 122.319 215.521 122.324 215.37 122.361C214.463 122.603 213.891 124.192 213.847 125.027C213.847 125.077 213.877 125.616 213.902 125.954C213.858 125.756 213.814 125.566 213.764 125.363C213.671 124.961 213.564 124.566 213.451 124.14C213.391 123.933 213.327 123.727 213.264 123.518C213.201 123.309 213.118 123.098 213.044 122.886C212.866 122.397 212.662 121.907 212.442 121.421C212.794 121.338 214.034 121.022 214.531 120.64C215.029 120.258 215.554 119.637 215.549 118.977C215.554 118.821 215.527 118.665 215.468 118.521C215.409 118.376 215.319 118.246 215.206 118.138C215.092 118.031 214.957 117.949 214.81 117.898C214.662 117.846 214.506 117.827 214.35 117.841C213.421 117.943 212.61 119.425 212.442 120.244C212.442 120.296 212.376 120.898 212.351 121.228C212.219 120.937 212.077 120.646 211.945 120.354C211.527 119.529 211.081 118.68 210.636 117.847L210.237 117.077C210.361 117.047 211.843 116.703 212.401 116.277C212.896 115.895 213.424 115.274 213.418 114.611C213.424 114.455 213.396 114.3 213.337 114.155C213.278 114.011 213.189 113.88 213.075 113.773C212.962 113.665 212.827 113.583 212.679 113.532C212.532 113.481 212.375 113.462 212.219 113.476C211.29 113.578 210.482 115.062 210.312 115.881C210.312 115.942 210.221 116.808 210.213 117.031C209.919 116.464 209.63 115.901 209.371 115.332C209.016 114.565 208.711 113.776 208.456 112.97C208.514 112.956 210.064 112.605 210.633 112.165C211.131 111.785 211.656 111.164 211.65 110.502C211.656 110.346 211.629 110.19 211.57 110.046C211.511 109.902 211.422 109.772 211.309 109.664C211.196 109.557 211.061 109.475 210.914 109.423C210.766 109.372 210.61 109.353 210.455 109.366C209.523 109.468 208.714 110.952 208.53 111.772C208.53 111.824 208.459 112.484 208.44 112.8H208.385C208.152 111.982 207.993 111.145 207.909 110.298C207.857 109.831 207.832 109.385 207.818 108.948C208.115 108.913 209.468 108.734 210.018 108.399C210.567 108.063 211.142 107.513 211.211 106.856C211.233 106.702 211.223 106.544 211.18 106.394C211.137 106.244 211.063 106.105 210.962 105.986C210.861 105.867 210.736 105.771 210.595 105.704C210.454 105.637 210.3 105.6 210.144 105.597C209.207 105.597 208.242 106.972 207.983 107.777C207.983 107.819 207.876 108.275 207.813 108.602C207.813 108.407 207.813 108.203 207.813 108.014C207.813 107.304 207.86 106.656 207.904 106.089C207.931 105.765 207.964 105.471 207.997 105.196C208.272 105.009 209.35 104.242 209.685 103.698C210.02 103.153 210.276 102.392 210.031 101.773C209.98 101.626 209.899 101.491 209.791 101.378C209.684 101.264 209.554 101.175 209.41 101.116C209.266 101.056 209.11 101.029 208.954 101.034C208.798 101.039 208.645 101.078 208.506 101.147C207.681 101.576 207.455 103.252 207.593 104.077C207.593 104.149 207.92 105.243 207.934 105.232H207.95C207.912 105.507 207.876 105.782 207.843 106.089C207.785 106.664 207.728 107.315 207.711 108.014C207.684 108.78 207.702 109.548 207.766 110.312C207.832 111.168 207.974 112.016 208.192 112.847V112.877C208.044 112.643 207.612 112.011 207.571 111.967C207.021 111.335 205.594 110.433 204.734 110.798C204.591 110.862 204.464 110.955 204.36 111.072C204.256 111.189 204.179 111.326 204.132 111.475C204.086 111.624 204.071 111.781 204.09 111.936C204.109 112.091 204.161 112.24 204.242 112.374C204.533 112.962 205.295 113.248 205.913 113.339Z" fill="#263238"/>
<path d="M224.887 128.768H47.418" stroke="#263238" stroke-width="0.255486" stroke-miterlimit="10"/>
<path d="M168.848 56.7921C168.848 56.7921 170.684 53.9908 171.649 53.9441C172.614 53.8973 176.144 56.1653 177.4 59.1672C178.656 62.1692 177.977 64.2419 176.3 65.1573C174.623 66.0728 173.741 66.5099 172.872 66.125C172.349 65.8924 171.873 65.5642 171.47 65.1573C171.47 65.1573 172.146 66.8068 172.968 67.0432C173.79 67.2796 174.225 67.9119 173.114 67.9119C172.004 67.9119 170.505 66.3174 170.698 64.723C170.89 63.1286 168.848 56.7921 168.848 56.7921Z" fill="#263238" stroke="#263238" stroke-width="0.255486" stroke-miterlimit="10"/>
<path d="M147.024 113.564C147.024 113.564 137.988 123.49 137.479 124.062C137.088 124.48 136.663 124.863 136.207 125.208C136.207 125.208 129.653 123.364 128.38 123.235C127.107 123.105 123.8 126.022 123.036 127.034C122.612 127.564 122.288 128.168 122.082 128.815C122.717 129.008 129.972 129.008 131.563 129.008C133.155 129.008 138.562 128.243 139.008 128.051C139.453 127.859 149.633 122.391 149.633 122.391L149.377 113.8C149.377 113.8 148.041 113.289 147.024 113.564Z" fill="#FFBE9D" stroke="#263238" stroke-width="0.255486" stroke-miterlimit="10"/>
<path d="M129.714 124.43C129.714 124.43 126.789 126.593 126.215 127.231C125.64 127.869 124.879 128.88 124.879 128.88" stroke="#263238" stroke-width="0.255486" stroke-miterlimit="10"/>
<path d="M127.675 123.922C127.675 123.922 124.492 126.149 124.102 126.976C123.711 127.804 123.211 128.95 123.211 128.95" stroke="#263238" stroke-width="0.255486" stroke-miterlimit="10"/>
<path d="M131.497 125.641C131.385 125.974 131.236 126.294 131.052 126.595C130.799 126.977 128.636 127.548 127.553 128.186C126.47 128.824 127.553 129.396 129.202 129.267C130.851 129.137 133.147 129.267 134.167 128.758C135.187 128.249 136.394 126.913 136.394 126.913" fill="#FFBE9D"/>
<path d="M131.497 125.641C131.385 125.974 131.236 126.294 131.052 126.595C130.799 126.977 128.636 127.548 127.553 128.186C126.47 128.824 127.553 129.396 129.202 129.267C130.851 129.137 133.147 129.267 134.167 128.758C135.187 128.249 136.394 126.913 136.394 126.913" stroke="#263238" stroke-width="0.255486" stroke-miterlimit="10"/>
<path d="M148.293 109.223C148.293 109.223 146.764 108.844 146.643 109.415C146.522 109.987 145.626 113.36 146.008 113.814C146.39 114.267 148.68 115.087 148.999 115.023C149.318 114.96 148.293 109.223 148.293 109.223Z" fill="#2F945A" stroke="#263238" stroke-width="0.255486" stroke-miterlimit="10"/>
<path d="M157.001 81.9223C157.001 81.9223 154.252 83.8851 151.627 85.496C149.002 87.1069 147.996 87.3103 147.996 88.3275C147.996 89.3446 147.778 105.613 147.778 105.613C147.778 105.613 147.487 108.519 148.287 111.208C149.087 113.896 149.304 128.782 149.304 128.782H178.936L177.919 118.905C177.919 118.905 181.407 88.6189 180.668 87.3846C179.928 86.1503 171.384 81.6309 171.384 81.6309L157.001 81.9223Z" fill="white" stroke="#263238" stroke-width="0.255486" stroke-miterlimit="10"/>
<path d="M149.303 128.768H178.935L177.918 118.891C177.918 118.891 178.193 116.629 178.542 113.319L168.766 113.445C168.766 113.445 166.806 102.477 167.315 98.6281C167.823 94.7794 170.801 81.7051 170.801 81.7051L169.129 81.9222L164.181 97.9023L152.27 96.8027L156.918 82.5683L156.41 82.4968C156.41 82.4968 151.186 93.6083 149.655 98.4741C148.814 101.152 148.173 103.717 147.767 105.484V105.591C147.767 105.591 147.475 108.497 148.275 111.186C149.075 113.874 149.303 128.768 149.303 128.768Z" fill="#292B3A" stroke="#263238" stroke-width="0.255486" stroke-miterlimit="10"/>
<path d="M153.302 128.768C153.505 122.569 154.083 104.148 153.794 103.276C153.596 102.691 154.646 99.6751 155.649 97.1212L155.375 97.0938C154.55 99.1968 153.291 102.614 153.541 103.362C153.791 104.109 153.349 119.306 153.035 128.768H153.302Z" fill="#828282"/>
<path d="M156.17 103.668C156.17 102.708 157.234 99.1921 157.819 97.3283L157.545 97.3008C156.951 99.1921 155.895 102.67 155.895 103.668C155.895 104.665 155.345 120.711 155.043 128.777H155.318C155.607 120.692 156.17 104.665 156.17 103.668Z" fill="#828282"/>
<path d="M158.426 104.352C158.511 103.671 159.188 99.4481 159.504 97.4798L159.229 97.4551C158.91 99.4371 158.239 103.64 158.154 104.328C158.052 105.133 156.991 124.195 156.738 128.777H157.013C157.266 124.22 158.327 105.139 158.426 104.352Z" fill="#828282"/>
<path d="M161.806 97.6829L161.534 97.6582L159.359 128.769H159.634L161.806 97.6829Z" fill="#828282"/>
<path d="M156.25 82.8711C155.882 83.6601 154.967 85.6366 153.914 88.0008C152.264 92.0858 150.065 97.7021 148.757 101.608C148.352 103.09 148.025 104.434 147.781 105.493V105.592C147.722 106.308 147.711 107.027 147.748 107.744C147.805 106.785 147.863 106.045 147.915 105.608C148.347 102.081 156.212 83.0663 156.292 82.8821L156.25 82.8711Z" fill="#828282"/>
<path d="M151.991 102.891C152.065 102.451 152.893 100.027 153.973 96.9669L153.698 96.9395C152.626 99.9826 151.804 102.394 151.73 102.844C151.554 103.894 151.056 120.762 150.828 128.768H151.103C151.317 120.782 151.823 103.908 151.991 102.891Z" fill="#828282"/>
<path d="M149.197 124.149C149.387 116.595 149.766 104.631 150.297 102.449C150.571 101.302 151.611 98.3884 152.839 95.1006L154.645 89.5723C152.694 94.6442 150.456 100.61 150.03 102.383C149.587 104.219 149.252 112.582 149.043 119.702C149.114 121.244 149.156 122.786 149.197 124.149Z" fill="#828282"/>
<path d="M172.181 113.4L171.906 113.403L172.714 128.767H172.989L172.181 113.4Z" fill="#828282"/>
<path d="M162.828 112.912C162.746 108.532 163.493 101.451 163.911 97.8743L163.636 97.8496C163.218 101.423 162.471 108.524 162.553 112.917C162.641 117.761 162.878 125.763 162.968 128.768H163.243C163.152 125.769 162.916 117.758 162.828 112.912Z" fill="#828282"/>
<path d="M174.501 113.371L174.227 113.374L175.747 128.768H176.024L174.501 113.371Z" fill="#828282"/>
<path d="M169.668 113.432L169.391 113.437L170.059 128.768H170.334L169.668 113.432Z" fill="#828282"/>
<path d="M167.119 102.751C167.116 101.979 167.154 101.207 167.234 100.439C167.22 99.8339 167.248 99.2286 167.317 98.6274C167.427 97.8026 167.652 96.5243 167.941 95.0536C168.667 90.3803 169.711 85.0032 170.36 81.7676L170.085 81.8061C168.986 87.3261 166.773 98.8775 166.858 102.762C166.957 107.312 167.757 124.707 167.957 128.773H168.232C168.021 124.724 167.218 107.301 167.119 102.751Z" fill="#828282"/>
<path d="M165.423 99.6225C166.011 96.8542 166.948 91.2434 167.704 86.5371L167.121 88.4312C166.431 92.6537 165.662 97.1731 165.153 99.5647C164.197 104.068 164.878 123.193 165.087 128.768H165.362C165.142 123.212 164.471 104.101 165.423 99.6225Z" fill="#828282"/>
<path d="M162.978 86.1801C162.978 86.1801 164.393 91.1283 164.778 90.9359C165.163 90.7435 171.978 82.139 172.044 81.5507C172.11 80.9624 169.858 78.2079 169.858 78.2079C169.385 78.0123 168.888 77.8819 168.38 77.8203C167.865 77.8203 157.897 79.6209 157.642 79.9426C157.386 80.2642 156.677 81.9988 156.163 82.8373C155.649 83.6757 151.984 87.4007 152.432 87.4639C152.881 87.5271 157.705 85.8585 157.705 85.8585L159.354 90.8452C159.354 90.8452 161.686 88.7504 162.073 88.2364C162.461 87.7223 162.978 86.1801 162.978 86.1801Z" fill="#2F945A" stroke="#263238" stroke-width="0.255486" stroke-miterlimit="10"/>
<path d="M157.504 78.89C157.504 78.89 158.023 81.1168 158.395 83.9373C158.766 86.7578 159.359 90.8456 159.359 90.8456C159.359 90.8456 163.741 84.3826 164.033 84.1599C164.324 83.9373 168.786 78.7389 168.786 78.7389L169.088 71.2285C169.088 71.2285 166.936 75.0167 164.855 76.7266C162.774 78.4365 157.504 78.89 157.504 78.89Z" fill="#FFBE9D" stroke="#263238" stroke-width="0.255486" stroke-miterlimit="10"/>
<path d="M164.857 76.7266C164.857 76.7266 162.757 79.9484 161.148 81.4549C159.54 82.9613 158.399 83.929 158.399 83.929L157.641 79.9429L164.857 76.7266Z" fill="#263238" stroke="#263238" stroke-width="0.255486" stroke-miterlimit="10"/>
<path d="M163.828 118.891L161.068 118.02L160.922 119.617L163.828 118.891Z" fill="white" stroke="#263238" stroke-width="0.255486" stroke-miterlimit="10"/>
<path d="M161.652 116.299L161.407 119.457L160.904 126L160.687 128.796H152.965L152.748 126L152.245 119.457L152 116.299H161.652Z" fill="#FD7E50" stroke="#263238" stroke-width="0.255486" stroke-miterlimit="10"/>
<path d="M162.333 114.811H151.145V116.886H162.333V114.811Z" fill="white" stroke="#263238" stroke-width="0.255486" stroke-miterlimit="10"/>
<path d="M161.291 113.906H152.359V114.764H161.291V113.906Z" fill="white" stroke="#263238" stroke-width="0.255486" stroke-miterlimit="10"/>
<path d="M161.409 119.457H152.246L152.749 126H160.906" fill="white"/>
<path d="M161.409 119.457H152.246L152.749 126H160.906" stroke="#263238" stroke-width="0.255486" stroke-miterlimit="10"/>
<path d="M171.242 99.3532L176.762 111.639H186.277C186.277 111.639 182.208 93.0469 182.062 91.8099C181.917 90.5728 182.282 87.5984 181.337 87.0898C180.391 86.5812 177.922 85.7812 177.922 85.7812" fill="white"/>
<path d="M171.242 99.3532L176.762 111.639H186.277C186.277 111.639 182.208 93.0469 182.062 91.8099C181.917 90.5728 182.282 87.5984 181.337 87.0898C180.391 86.5812 177.922 85.7812 177.922 85.7812" stroke="#263238" stroke-width="0.255486" stroke-miterlimit="10"/>
<path d="M173.198 103.711C173.198 103.711 170.655 102.042 169.93 100.662L173.198 103.711Z" fill="white"/>
<path d="M173.198 103.711C173.198 103.711 170.655 102.042 169.93 100.662" stroke="#263238" stroke-width="0.255486" stroke-miterlimit="10"/>
<path d="M177.191 113.879C177.191 113.879 169.637 119.982 168.84 120.27C168.043 120.559 167.169 120.853 167.169 120.853C167.169 120.853 164.483 119.545 163.828 118.89C163.174 118.236 156.783 120.633 156.783 120.633L154.531 122.668C154.531 122.668 154.823 123.393 155.403 123.393C155.983 123.393 157.877 121.87 157.877 121.87L160.626 121.725L156.849 124.265L155.832 126.373C155.832 126.373 156.632 127.17 157.286 126.153C157.562 125.673 157.904 125.233 158.303 124.848L161.855 123.932C161.855 123.932 160.098 125.716 159.735 125.933C159.372 126.151 157.536 127.096 157.88 127.495C158.154 127.822 158.449 127.753 158.883 127.608C159.317 127.462 160.936 127.033 160.936 127.033C160.936 127.033 162.751 127.179 163.259 127.179C163.768 127.179 165.585 126.016 165.585 126.016L168.562 124.273C168.562 124.273 179.385 120.642 181.345 119.481C183.305 118.321 186.431 116.139 186.293 115.341C186.156 114.544 177.191 113.879 177.191 113.879Z" fill="#FFBE9D" stroke="#263238" stroke-width="0.255486" stroke-miterlimit="10"/>
<path d="M160.941 127.034C160.941 127.034 163.193 126.237 163.993 125.365" stroke="#263238" stroke-width="0.255486" stroke-miterlimit="10"/>
<path d="M175.742 111.411L176.333 112.574L176.696 114.099C176.696 114.099 178.876 114.534 180.836 114.897C182.796 115.26 187.082 116.271 187.082 116.271C187.306 116.045 187.476 115.77 187.577 115.468C187.678 115.166 187.708 114.844 187.665 114.528C187.519 113.429 187.665 110.751 187.228 110.025C186.791 109.3 177.774 109.594 175.742 111.411Z" fill="#2F945A" stroke="#263238" stroke-width="0.255486" stroke-miterlimit="10"/>
<path d="M176.797 112.59C176.797 112.59 178.826 111.323 182.823 111.26" stroke="#263238" stroke-width="0.255486" stroke-miterlimit="10"/>
<path d="M184.988 112.527C185.324 112.602 185.64 112.687 185.926 112.78" stroke="#263238" stroke-width="0.255486" stroke-miterlimit="10"/>
<path d="M181.297 112.021C181.297 112.021 182.63 112.107 184.024 112.34" stroke="#263238" stroke-width="0.255486" stroke-miterlimit="10"/>
<path d="M154.616 72.25C154.205 72.2495 153.803 72.3709 153.461 72.5989C153.119 72.8269 152.852 73.1513 152.694 73.531C152.536 73.9107 152.495 74.3287 152.575 74.732C152.655 75.1354 152.852 75.5059 153.143 75.7968C153.433 76.0878 153.804 76.286 154.207 76.3664C154.61 76.4468 155.028 76.4058 155.408 76.2486C155.788 76.0914 156.113 75.825 156.341 75.4832C156.57 75.1413 156.692 74.7394 156.692 74.3283C156.692 73.7776 156.473 73.2494 156.084 72.8597C155.695 72.47 155.167 72.2507 154.616 72.25ZM154.616 75.8457C154.316 75.8463 154.022 75.7577 153.772 75.5913C153.522 75.4249 153.328 75.1881 153.212 74.9109C153.097 74.6336 153.067 74.3285 153.125 74.0339C153.183 73.7394 153.327 73.4687 153.539 73.2562C153.752 73.0437 154.022 72.8989 154.316 72.8402C154.611 72.7814 154.916 72.8113 155.193 72.926C155.471 73.0408 155.708 73.2353 155.875 73.4849C156.042 73.7345 156.131 74.028 156.131 74.3283C156.131 74.7302 155.971 75.1158 155.687 75.4003C155.403 75.6848 155.018 75.845 154.616 75.8457Z" stroke="#263238" stroke-width="0.255486" stroke-miterlimit="10"/>
<path d="M152.77 65.8466C152.77 65.8466 153.196 71.7378 153.539 73.445C153.883 75.1521 157.55 80.0206 158.32 80.3615C159.089 80.6607 159.942 80.6607 160.711 80.3615C161.478 80.1058 166.603 76.8592 167.114 75.6662C167.625 74.4731 168.395 72.6038 168.395 72.6038C168.395 72.6038 170.613 72.0897 170.869 70.8086C171.02 69.8484 171.048 68.873 170.954 67.9057L171.21 64.8323C171.21 64.8323 169.929 59.7108 166.6 58.7707C163.271 57.8305 158.488 59.4524 156.525 61.1623C154.562 62.8722 152.77 65.8466 152.77 65.8466Z" fill="#FFBE9D" stroke="#263238" stroke-width="0.255486" stroke-miterlimit="10"/>
<path d="M155.992 65.7305C155.992 65.7305 156.817 66.8906 157.007 67.7125" stroke="#263238" stroke-width="0.255486" stroke-miterlimit="10"/>
<path d="M156.293 72.2051C156.562 72.4607 156.881 72.6572 157.231 72.7817C157.58 72.9063 157.952 72.9561 158.322 72.9281" stroke="#263238" stroke-width="0.255486" stroke-miterlimit="10"/>
<path d="M157.453 75.2933C157.453 75.2933 160.158 76.0685 161.898 73.9902" stroke="#263238" stroke-width="0.255486" stroke-miterlimit="10"/>
<path d="M159.48 65.5381C159.48 65.5381 161.704 64.5237 163.2 65.5876" stroke="#263238" stroke-width="0.255486" stroke-miterlimit="10"/>
<path d="M155.616 65.4877C155.616 65.4877 154.31 64.9104 153.488 65.8753" stroke="#263238" stroke-width="0.255486" stroke-miterlimit="10"/>
<path d="M161.458 68.8692C161.672 68.8692 161.846 68.5233 161.846 68.0967C161.846 67.6701 161.672 67.3242 161.458 67.3242C161.244 67.3242 161.07 67.6701 161.07 68.0967C161.07 68.5233 161.244 68.8692 161.458 68.8692Z" fill="#263238"/>
<path d="M155.279 67.8076C155.279 68.2337 155.106 68.5801 154.892 68.5801C154.677 68.5801 154.504 68.2337 154.504 67.8076C154.504 67.3815 154.677 67.0352 154.892 67.0352C155.106 67.0352 155.279 67.3788 155.279 67.8076Z" fill="#263238"/>
<path d="M169.961 72.25C169.55 72.25 169.148 72.3719 168.806 72.6003C168.465 72.8286 168.198 73.1532 168.041 73.5329C167.884 73.9127 167.843 74.3306 167.923 74.7337C168.003 75.1369 168.201 75.5072 168.492 75.7978C168.782 76.0885 169.152 76.2864 169.556 76.3666C169.959 76.4468 170.377 76.4056 170.756 76.2483C171.136 76.091 171.461 75.8247 171.689 75.4829C171.917 75.1411 172.039 74.7393 172.039 74.3283C172.039 73.7771 171.82 73.2485 171.431 72.8587C171.041 72.469 170.512 72.25 169.961 72.25ZM169.961 75.8457C169.661 75.8457 169.368 75.7567 169.118 75.59C168.868 75.4232 168.674 75.1862 168.559 74.909C168.444 74.6317 168.414 74.3266 168.473 74.0322C168.531 73.7379 168.676 73.4675 168.888 73.2553C169.1 73.043 169.371 72.8985 169.665 72.84C169.959 72.7814 170.264 72.8115 170.542 72.9263C170.819 73.0412 171.056 73.2357 171.223 73.4852C171.39 73.7348 171.479 74.0281 171.479 74.3283C171.479 74.7307 171.319 75.1167 171.034 75.4013C170.75 75.6858 170.364 75.8457 169.961 75.8457Z" fill="white" stroke="#263238" stroke-width="0.255486" stroke-miterlimit="10"/>
<path d="M163.441 60.7218L152.77 65.846C152.77 65.846 149.355 63.3719 149.355 60.9775C149.355 58.5831 154.991 53.5551 160.198 53.2087C165.404 52.8624 166.859 53.9785 168.31 55.0863C169.761 56.1942 174.372 60.0346 173.775 62.8578C173.179 65.6811 170.957 67.894 170.957 67.894C170.957 67.894 170.872 66.2721 169.932 66.6982C168.992 67.1243 169.162 68.4081 168.48 68.3229C167.799 68.2377 167.381 66.9484 167.381 66.9484C167.381 66.9484 163.101 63.1987 163.441 60.7218Z" fill="#263238" stroke="#263238" stroke-width="0.255486" stroke-miterlimit="10"/>
<path d="M205.646 103.824H169.812V128.791H205.646V103.824Z" fill="#6E6E6E" stroke="#263238" stroke-width="0.255486" stroke-linecap="round" stroke-linejoin="round"/>
<path d="M203.827 107.172H171.625V128.79H203.827V107.172Z" fill="white" stroke="#263238" stroke-width="0.255486" stroke-linecap="round" stroke-linejoin="round"/>
<path d="M192.962 117.98H182.488V128.79H192.962V117.98Z" fill="#6E6E6E" stroke="#263238" stroke-width="0.255486" stroke-linecap="round" stroke-linejoin="round"/>
<path d="M171.627 107.173L169.812 103.824H205.646L203.829 107.173H171.627Z" fill="#D1D1D1" stroke="#263238" stroke-width="0.255486" stroke-linecap="round" stroke-linejoin="round"/>
<path d="M132.36 130.996H116.149L114.441 110.975H130.652L132.36 130.996Z" fill="white" stroke="#263238" stroke-width="0.255486" stroke-miterlimit="10"/>
<path d="M129.078 130.995H112.867L114.698 107.354H130.909L129.078 130.995Z" fill="white" stroke="#263238" stroke-width="0.255486" stroke-miterlimit="10"/>
<path d="M116.444 111.503C116.312 111.508 116.181 111.477 116.065 111.412C115.963 111.349 115.888 111.251 115.851 111.137C115.804 111 115.786 110.854 115.796 110.709L116.205 110.632C116.199 110.719 116.204 110.807 116.219 110.893C116.229 110.958 116.257 111.018 116.299 111.069C116.342 111.111 116.4 111.134 116.461 111.134C116.521 111.134 116.579 111.111 116.623 111.069C116.66 111.018 116.681 110.958 116.683 110.896C116.696 110.8 116.677 110.704 116.628 110.621C116.576 110.541 116.514 110.468 116.444 110.403L116.142 110.129C116.061 110.055 115.995 109.966 115.947 109.867C115.897 109.755 115.878 109.632 115.892 109.51C115.894 109.422 115.915 109.335 115.952 109.255C115.988 109.174 116.041 109.102 116.106 109.043C116.246 108.928 116.423 108.869 116.604 108.878C116.706 108.873 116.807 108.892 116.901 108.933C116.974 108.965 117.036 109.019 117.079 109.087C117.123 109.155 117.154 109.23 117.17 109.309C117.188 109.4 117.196 109.492 117.192 109.584L116.788 109.653C116.795 109.582 116.795 109.51 116.788 109.439C116.783 109.384 116.762 109.333 116.727 109.29C116.708 109.271 116.685 109.256 116.659 109.247C116.634 109.237 116.606 109.233 116.579 109.235C116.548 109.234 116.517 109.239 116.489 109.251C116.46 109.263 116.435 109.281 116.414 109.304C116.372 109.351 116.348 109.411 116.345 109.474C116.336 109.548 116.348 109.622 116.381 109.689C116.42 109.752 116.468 109.81 116.524 109.859L116.821 110.134C116.92 110.223 117.004 110.328 117.068 110.445C117.136 110.579 117.164 110.73 117.148 110.879C117.139 110.994 117.102 111.106 117.041 111.203C116.981 111.298 116.897 111.376 116.799 111.429C116.689 111.483 116.567 111.509 116.444 111.503Z" fill="black"/>
<path d="M118.059 111.502C117.907 111.513 117.756 111.474 117.627 111.392C117.526 111.319 117.455 111.211 117.427 111.09C117.393 110.945 117.383 110.796 117.396 110.647L117.468 109.732C117.477 109.576 117.511 109.422 117.567 109.276C117.614 109.152 117.701 109.048 117.814 108.979C117.951 108.902 118.106 108.866 118.262 108.874C118.404 108.866 118.546 108.897 118.672 108.962C118.767 109.021 118.836 109.113 118.867 109.221C118.901 109.348 118.912 109.48 118.9 109.611L118.883 109.825H118.433L118.449 109.606C118.454 109.54 118.454 109.474 118.449 109.408C118.449 109.357 118.431 109.307 118.4 109.267C118.377 109.247 118.351 109.232 118.323 109.223C118.294 109.214 118.264 109.212 118.235 109.215C118.17 109.211 118.105 109.231 118.053 109.27C118.013 109.312 117.985 109.363 117.971 109.419C117.956 109.488 117.946 109.559 117.941 109.63L117.853 110.746C117.844 110.822 117.844 110.899 117.853 110.975C117.857 111.027 117.882 111.076 117.921 111.112C117.967 111.144 118.022 111.159 118.078 111.156C118.109 111.159 118.14 111.156 118.169 111.147C118.198 111.137 118.226 111.122 118.248 111.101C118.286 111.06 118.312 111.01 118.323 110.955C118.337 110.887 118.346 110.818 118.35 110.749L118.369 110.518H118.818V110.722C118.808 110.86 118.776 110.997 118.724 111.126C118.677 111.239 118.596 111.335 118.493 111.401C118.361 111.475 118.21 111.51 118.059 111.502Z" fill="black"/>
<path d="M118.945 111.465L119.657 108.9H120.158L120.471 111.465H120.039L119.982 110.874H119.536L119.385 111.465H118.945ZM119.608 110.575H119.954L119.863 109.5L119.608 110.575Z" fill="black"/>
<path d="M120.715 111.465L120.913 108.9H121.24L121.751 110.363L121.864 108.9H122.252L122.051 111.465H121.74L121.232 109.934L121.113 111.465H120.715Z" fill="black"/>
<path d="M123.219 111.465L123.419 108.9H123.884L123.802 109.975H124.324L124.406 108.9H124.876L124.676 111.465H124.208L124.296 110.308H123.774L123.686 111.465H123.219Z" fill="black"/>
<path d="M125.066 111.465L125.264 108.9H126.342L126.317 109.23H125.71L125.652 109.967H126.13L126.106 110.294H125.627L125.561 111.144H126.174L126.15 111.465H125.066Z" fill="black"/>
<path d="M126.422 111.466L126.623 108.901H127.236C127.383 108.897 127.53 108.917 127.67 108.961C127.779 108.997 127.87 109.073 127.926 109.173C127.986 109.3 128.008 109.441 127.989 109.58C127.982 109.673 127.965 109.766 127.937 109.855C127.915 109.933 127.877 110.005 127.824 110.067C127.77 110.127 127.702 110.173 127.626 110.201L127.887 111.463H127.417L127.197 110.289H126.983L126.892 111.463L126.422 111.466ZM127.005 109.998H127.15C127.226 110.001 127.301 109.987 127.37 109.957C127.427 109.932 127.472 109.887 127.497 109.83C127.527 109.76 127.545 109.684 127.549 109.607C127.566 109.508 127.548 109.407 127.499 109.319C127.466 109.28 127.424 109.25 127.375 109.232C127.327 109.215 127.275 109.211 127.225 109.22H127.054L127.005 109.998Z" fill="black"/>
<path d="M128.191 111.465L128.392 108.9H129.467L129.442 109.23H128.835L128.777 109.967H129.255L129.231 110.294H128.752L128.686 111.144H129.302L129.275 111.465H128.191Z" fill="black"/>
<path d="M117.283 129.407L117.456 127.188H117.047L117.074 126.842H118.353L118.328 127.188H117.924L117.753 129.407H117.283Z" fill="black"/>
<path d="M119.069 129.442C118.92 129.45 118.772 129.415 118.643 129.34C118.541 129.271 118.467 129.168 118.434 129.048C118.397 128.902 118.386 128.75 118.401 128.6L118.476 127.641C118.484 127.487 118.519 127.337 118.58 127.196C118.632 127.079 118.721 126.983 118.833 126.921C118.968 126.849 119.12 126.815 119.273 126.822C119.423 126.813 119.573 126.847 119.704 126.921C119.805 126.984 119.879 127.082 119.913 127.196C119.954 127.34 119.967 127.491 119.952 127.641L119.878 128.603C119.868 128.757 119.832 128.907 119.77 129.048C119.716 129.168 119.628 129.27 119.517 129.34C119.38 129.414 119.225 129.449 119.069 129.442ZM119.097 129.098C119.16 129.101 119.222 129.083 119.273 129.046C119.316 129.009 119.346 128.96 119.358 128.905C119.378 128.843 119.389 128.778 119.394 128.713L119.484 127.531C119.492 127.467 119.492 127.402 119.484 127.338C119.48 127.287 119.458 127.24 119.421 127.204C119.374 127.166 119.314 127.149 119.254 127.154C119.192 127.151 119.131 127.168 119.08 127.204C119.038 127.238 119.008 127.286 118.995 127.338C118.977 127.401 118.965 127.466 118.959 127.531L118.869 128.713C118.862 128.777 118.862 128.841 118.869 128.905C118.872 128.958 118.895 129.008 118.932 129.046C118.978 129.083 119.037 129.102 119.097 129.098Z" fill="black"/>
<path d="M120.926 129.407L121.126 126.842H121.88C122.008 126.837 122.135 126.866 122.248 126.928C122.34 126.985 122.408 127.074 122.44 127.178C122.48 127.305 122.493 127.439 122.479 127.571C122.473 127.713 122.433 127.852 122.361 127.975C122.301 128.074 122.212 128.152 122.105 128.198C121.989 128.247 121.863 128.272 121.737 128.269H121.484L121.396 129.407H120.926ZM121.509 127.939H121.687C121.756 127.941 121.824 127.929 121.888 127.904C121.937 127.879 121.976 127.837 121.995 127.785C122.02 127.715 122.035 127.642 122.039 127.568C122.046 127.493 122.046 127.418 122.039 127.343C122.036 127.317 122.027 127.292 122.013 127.269C122 127.247 121.981 127.228 121.959 127.214C121.894 127.181 121.821 127.167 121.748 127.172H121.572L121.509 127.939Z" fill="black"/>
<path d="M122.332 129.407L123.044 126.842H123.555L123.869 129.407H123.434L123.379 128.816H122.923L122.772 129.407H122.332ZM122.992 128.519H123.341L123.25 127.441L122.992 128.519Z" fill="black"/>
<path d="M124.38 129.407L124.457 128.428L124.059 126.842H124.496L124.735 127.859L125.111 126.842H125.538L124.903 128.428L124.826 129.407H124.38Z" fill="black"/>
<path d="M120.741 122.65C120.763 122.34 120.788 122.026 120.813 121.713H121.277C121.277 121.553 121.302 121.399 121.313 121.243H120.849L120.884 120.775H121.822C121.836 120.616 121.847 120.462 121.86 120.308H122.325C122.325 120.465 122.303 120.619 122.289 120.773H122.759C122.784 120.459 122.806 120.149 122.831 119.838H124.235C124.235 119.992 124.211 120.149 124.2 120.305H124.653C124.653 120.149 124.678 119.995 124.689 119.838H124.224L124.26 119.368H123.334C123.359 119.054 123.383 118.747 123.405 118.436H122C122 118.593 121.976 118.747 121.965 118.903H121.033C121.008 119.217 120.983 119.525 120.959 119.841H121.423C121.423 119.997 121.398 120.151 121.387 120.308H120.923C120.909 120.467 120.898 120.621 120.884 120.775H120.417C120.431 120.619 120.442 120.465 120.453 120.308H119.051C119.051 120.149 119.073 119.997 119.087 119.841H120.489L120.763 116.094H121.234C121.198 116.545 121.165 116.995 121.129 117.446V117.496H121.596C121.618 117.188 121.643 116.877 121.668 116.564H122.135C122.11 116.874 122.086 117.185 122.064 117.501H122.531C122.531 117.655 122.509 117.812 122.495 117.969H124.837C124.837 118.128 124.813 118.279 124.799 118.436H125.269L125.233 118.909H124.769C124.769 119.068 124.744 119.222 124.733 119.379H125.203C125.178 119.689 125.154 120 125.129 120.316H125.599C125.574 120.627 125.549 120.938 125.525 121.254H125.066C125.041 121.567 125.019 121.875 124.994 122.191H125.459L125.423 122.658H126.358C126.344 122.815 126.333 122.969 126.322 123.126H124.928L124.854 124.06H124.378C124.392 123.909 124.403 123.755 124.417 123.596H123.477C123.477 123.442 123.501 123.288 123.515 123.129H123.048C123.048 122.972 123.07 122.818 123.084 122.661H124.016L124.051 122.194H121.715L121.679 122.658H120.741V122.65ZM123.658 121.245C123.658 121.091 123.683 120.935 123.694 120.781H123.229C123.216 120.938 123.205 121.091 123.194 121.245H123.658C123.658 121.402 123.636 121.556 123.622 121.713H124.557C124.557 121.556 124.579 121.402 124.593 121.245H123.658ZM122.729 121.262H122.264C122.264 121.419 122.24 121.573 122.229 121.726H122.693C122.696 121.556 122.707 121.405 122.729 121.262ZM123.851 118.914H124.312C124.312 118.758 124.337 118.604 124.348 118.452H123.886C123.864 118.593 123.853 118.747 123.842 118.901L123.851 118.914Z" fill="#263238"/>
<path d="M116.93 117.496C117.016 116.396 117.1 115.306 117.183 114.225H120.457C120.371 115.313 120.286 116.404 120.204 117.496H116.93ZM117.617 114.692L117.436 117.029H119.772L119.954 114.692H117.617Z" fill="#263238"/>
<path d="M126.758 117.499H123.484C123.57 116.399 123.652 115.319 123.737 114.225H127.011C126.927 115.313 126.843 116.405 126.758 117.499ZM126.508 114.692H124.172L123.99 117.029H126.327L126.508 114.692Z" fill="#263238"/>
<path d="M116.685 120.777H119.959L119.709 124.051H116.438C116.511 122.963 116.593 121.871 116.685 120.777ZM119.434 121.261H117.097L116.916 123.598H119.252L119.434 121.261Z" fill="#263238"/>
<path d="M121.249 116.097C121.273 115.786 121.298 115.475 121.323 115.159H120.855C120.88 114.846 120.902 114.538 120.927 114.225H123.264C123.239 114.535 123.217 114.843 123.192 115.157H122.73C122.717 115.313 122.706 115.467 122.692 115.627H123.156C123.132 115.94 123.107 116.248 123.085 116.561H122.618C122.618 116.407 122.642 116.253 122.653 116.097H122.181C122.194 115.94 122.205 115.786 122.216 115.629H121.749C121.749 115.781 121.727 115.935 121.713 116.094H121.243L121.249 116.097ZM121.798 115.157H122.263C122.263 115 122.288 114.846 122.299 114.692H121.837C121.815 114.846 121.804 115 121.79 115.157H121.798Z" fill="#263238"/>
<path d="M119.193 118.436C119.193 118.589 119.171 118.743 119.158 118.903H120.092C120.092 119.06 120.07 119.214 120.056 119.37H118.654C118.63 119.684 118.608 119.994 118.583 120.308H116.711L116.785 119.376H117.247C117.247 119.53 117.225 119.681 117.211 119.838H118.151L118.259 118.436H119.193Z" fill="#263238"/>
<path d="M120.744 122.65C120.744 122.804 120.722 122.958 120.708 123.118H121.175C121.175 123.274 121.151 123.428 121.14 123.585H121.607C121.607 123.745 121.582 123.898 121.571 124.055H120.172C120.208 123.588 120.243 123.123 120.279 122.65H120.744Z" fill="#263238"/>
<path d="M118.258 118.435H117.323C117.31 118.592 117.299 118.746 117.288 118.903H116.82C116.845 118.592 116.867 118.284 116.892 117.971H118.294L118.258 118.435Z" fill="#263238"/>
<path d="M126.612 119.371H126.147C126.172 119.06 126.194 118.752 126.218 118.439H125.754C125.768 118.279 125.779 118.125 125.792 117.969H126.722L126.612 119.371Z" fill="#263238"/>
<path d="M119.195 118.435L119.231 117.971H120.166C120.152 118.125 120.141 118.276 120.127 118.435H119.195Z" fill="#263238"/>
<path d="M125.605 120.311L125.641 119.844H126.106C126.106 119.998 126.084 120.152 126.07 120.308H125.605V120.311Z" fill="#263238"/>
<path d="M126.032 120.777H126.494C126.494 120.934 126.472 121.085 126.458 121.242H125.996C126.032 121.088 126.032 120.937 126.032 120.777Z" fill="#263238"/>
<path d="M122.547 117.501L122.583 117.033H123.047C123.047 117.187 123.022 117.341 123.011 117.498H122.547V117.501Z" fill="#263238"/>
<path d="M120.807 121.713H120.34C120.354 121.559 120.365 121.406 120.378 121.246H120.843C120.829 121.403 120.818 121.559 120.807 121.716V121.713Z" fill="#263238"/>
<path d="M125.461 122.181C125.475 122.027 125.486 121.873 125.497 121.717H125.964C125.95 121.868 125.939 122.022 125.928 122.181H125.461Z" fill="#263238"/>
<path d="M125.248 118.905H125.713C125.713 119.059 125.691 119.213 125.677 119.372H125.207C125.207 119.216 125.232 119.059 125.243 118.902L125.248 118.905Z" fill="#263238"/>
<path d="M122.539 123.583H122.074C122.074 123.429 122.099 123.275 122.11 123.121H122.575C122.561 123.272 122.55 123.426 122.539 123.583Z" fill="#263238"/>
<path d="M123.481 123.588C123.481 123.742 123.456 123.896 123.445 124.052H122.98C122.98 123.899 123.002 123.747 123.016 123.588H123.481Z" fill="#263238"/>
<path d="M126.251 124.054H125.789C125.789 123.898 125.811 123.747 125.825 123.59H126.287C126.276 123.736 126.265 123.898 126.251 124.054Z" fill="#263238"/>
<path d="M122.832 119.84H122.367C122.367 119.686 122.389 119.532 122.403 119.375H122.868C122.868 119.529 122.843 119.686 122.832 119.84Z" fill="#263238"/>
<path d="M119.337 116.561H117.938C117.973 116.094 118.009 115.629 118.047 115.162H119.447C119.411 115.627 119.375 116.091 119.337 116.561Z" fill="#263238"/>
<path d="M124.492 116.56L124.599 115.158H126.001L125.891 116.56H124.492Z" fill="#263238"/>
<path d="M117.434 123.117L117.541 121.715H118.94L118.833 123.117H117.434Z" fill="#263238"/>
<path d="M118.626 113.113H116.578L116.402 115.376" stroke="#2F945A" stroke-width="0.255486" stroke-miterlimit="10"/>
<path d="M126.082 113.113H128.133L127.957 115.376" stroke="#2F945A" stroke-width="0.255486" stroke-miterlimit="10"/>
<path d="M117.707 125.024H115.656L115.832 122.762" stroke="#2F945A" stroke-width="0.255486" stroke-miterlimit="10"/>
<path d="M125.16 125.024H127.208L127.384 122.762" stroke="#2F945A" stroke-width="0.255486" stroke-miterlimit="10"/>
<path d="M97.9599 117.611C97.9599 117.611 100.159 115.065 100.549 114.876C100.94 114.686 106.089 112.168 106.089 112.168L104.654 119.456L96.7695 123.12L97.9599 117.611Z" fill="#FFBE9D" stroke="#263238" stroke-width="0.255486" stroke-miterlimit="10"/>
<path d="M115.217 104.392L108.216 103.097C107.646 102.992 107.098 103.369 106.993 103.939L103.896 120.68C103.79 121.25 104.167 121.798 104.738 121.903L111.739 123.198C112.309 123.304 112.857 122.927 112.962 122.357L116.059 105.616C116.164 105.046 115.788 104.498 115.217 104.392Z" fill="white" stroke="#263238" stroke-width="0.255486" stroke-miterlimit="10"/>
<path d="M109.109 114.56L109.232 113.906L109.526 113.963C109.548 113.851 109.568 113.743 109.59 113.636L109.295 113.578C109.315 113.468 109.337 113.359 109.356 113.249L109.95 113.361C109.972 113.251 109.991 113.144 110.01 113.037L110.307 113.092C110.288 113.202 110.266 113.309 110.247 113.416L110.544 113.471L110.665 112.82H110.703L111.555 112.979C111.533 113.089 111.514 113.196 111.492 113.306L111.786 113.361C111.808 113.251 111.827 113.144 111.849 113.037L111.552 112.982C111.574 112.872 111.594 112.765 111.616 112.652L111.022 112.539L111.146 111.888L110.258 111.731C110.236 111.841 110.216 111.948 110.194 112.058L109.606 111.946L109.482 112.6L109.774 112.655C109.755 112.765 109.733 112.872 109.713 112.982L109.419 112.927C109.397 113.037 109.378 113.144 109.356 113.254L109.062 113.196C109.081 113.086 109.1 112.979 109.122 112.869L108.234 112.701C108.254 112.592 108.276 112.484 108.295 112.374L109.183 112.542L109.678 109.928L109.975 109.983C109.914 110.296 109.856 110.612 109.796 110.926V110.961L110.09 111.016L110.214 110.368L110.511 110.423L110.387 111.077L110.684 111.132C110.662 111.239 110.643 111.346 110.621 111.459L112.102 111.734C112.083 111.844 112.061 111.951 112.042 112.058L112.339 112.116C112.317 112.229 112.297 112.336 112.275 112.446L111.981 112.391C111.959 112.501 111.94 112.608 111.921 112.718L112.215 112.776L112.091 113.43L112.388 113.488C112.347 113.702 112.308 113.919 112.264 114.139L111.97 114.084L111.847 114.739L112.143 114.796C112.124 114.906 112.105 115.013 112.083 115.123L112.674 115.236C112.655 115.346 112.633 115.453 112.614 115.563L111.726 115.393L111.602 116.047L111.305 115.992C111.327 115.885 111.346 115.778 111.368 115.665L110.774 115.552C110.794 115.445 110.816 115.335 110.835 115.225L110.541 115.17C110.563 115.06 110.582 114.953 110.601 114.843L111.192 114.953C111.214 114.843 111.234 114.736 111.253 114.629L109.777 114.354C109.755 114.461 109.735 114.568 109.713 114.678L109.12 114.565L109.109 114.56ZM111.071 113.917C111.093 113.809 111.113 113.699 111.135 113.592L110.84 113.534C110.818 113.644 110.799 113.752 110.777 113.859L111.074 113.917C111.052 114.024 111.033 114.134 111.011 114.241L111.602 114.354C111.621 114.244 111.643 114.136 111.662 114.029L111.071 113.917ZM110.478 113.807L110.186 113.749C110.164 113.859 110.145 113.966 110.123 114.073L110.417 114.128C110.436 114.021 110.458 113.914 110.478 113.807ZM111.382 112.281L111.676 112.336C111.698 112.226 111.717 112.119 111.737 112.011L111.445 111.957C111.423 112.061 111.404 112.171 111.382 112.281Z" fill="#263238"/>
<path d="M107.121 110.456C107.266 109.694 107.41 108.932 107.553 108.172L109.625 108.565C109.48 109.326 109.351 110.085 109.191 110.849L107.121 110.456ZM107.789 108.554C107.685 109.104 107.583 109.654 107.481 110.187L108.957 110.462C109.062 109.912 109.164 109.362 109.268 108.829L107.789 108.554Z" fill="#263238"/>
<path d="M113.346 111.635L111.273 111.236C111.419 110.472 111.562 109.713 111.705 108.949L113.778 109.342C113.632 110.112 113.489 110.871 113.346 111.635ZM113.42 109.62L111.941 109.345C111.837 109.895 111.734 110.439 111.634 110.978L113.113 111.253C113.215 110.709 113.318 110.164 113.42 109.62Z" fill="#263238"/>
<path d="M106.684 112.75L108.754 113.143C108.611 113.905 108.466 114.666 108.323 115.428L106.25 115.037C106.409 114.276 106.547 113.514 106.684 112.75ZM108.397 113.415L106.918 113.14C106.814 113.69 106.711 114.234 106.61 114.771L108.086 115.045C108.199 114.501 108.301 113.96 108.405 113.415H108.397Z" fill="#263238"/>
<path d="M109.983 109.984L110.107 109.33L109.812 109.275C109.854 109.055 109.895 108.84 109.936 108.623L111.415 108.898L111.291 109.549L110.997 109.494C110.978 109.604 110.956 109.712 110.937 109.822L111.228 109.877L111.105 110.531L110.81 110.473C110.832 110.366 110.852 110.259 110.874 110.149L110.577 110.094L110.637 109.767L110.343 109.712C110.321 109.819 110.302 109.926 110.28 110.036L109.983 109.981V109.984ZM110.404 109.385L110.698 109.44C110.72 109.33 110.739 109.222 110.758 109.115L110.467 109.06L110.404 109.385Z" fill="#263238"/>
<path d="M108.476 111.394C108.457 111.501 108.435 111.608 108.416 111.721L109.007 111.834C108.988 111.941 108.966 112.048 108.946 112.158L108.059 111.99L107.935 112.645L106.75 112.419L106.874 111.771L107.168 111.826L107.107 112.147L107.701 112.26C107.762 111.936 107.825 111.608 107.885 111.281L108.479 111.394H108.476Z" fill="#263238"/>
<path d="M109.111 114.561C109.092 114.668 109.07 114.778 109.051 114.888L109.345 114.943C109.326 115.053 109.304 115.16 109.284 115.27L109.578 115.325C109.559 115.438 109.537 115.545 109.518 115.652L108.633 115.485C108.693 115.16 108.754 114.836 108.817 114.506L109.111 114.561Z" fill="#263238"/>
<path d="M107.886 111.281L107.295 111.168C107.273 111.278 107.254 111.386 107.232 111.496L106.938 111.438L107.061 110.789L107.946 110.957C107.927 111.064 107.905 111.174 107.886 111.281Z" fill="#263238"/>
<path d="M113.1 112.944L112.806 112.889C112.847 112.672 112.886 112.455 112.927 112.238L112.633 112.18C112.655 112.07 112.674 111.963 112.693 111.855L113.284 111.965C113.221 112.293 113.161 112.611 113.1 112.944Z" fill="#263238"/>
<path d="M108.483 111.395C108.502 111.287 108.522 111.18 108.544 111.07L109.135 111.183C109.113 111.287 109.093 111.397 109.072 111.507L108.48 111.395H108.483Z" fill="#263238"/>
<path d="M112.382 113.487C112.401 113.38 112.42 113.27 112.442 113.16L112.736 113.218C112.717 113.325 112.695 113.432 112.676 113.542L112.379 113.487H112.382Z" fill="#263238"/>
<path d="M112.615 113.873L112.909 113.928C112.887 114.035 112.868 114.142 112.849 114.252L112.555 114.195C112.574 114.087 112.596 113.986 112.615 113.873Z" fill="#263238"/>
<path d="M110.68 111.133L110.74 110.809L111.037 110.864C111.015 110.971 110.996 111.078 110.974 111.188L110.68 111.133Z" fill="#263238"/>
<path d="M109.232 113.906L108.938 113.851C108.957 113.741 108.979 113.633 108.998 113.523L109.295 113.581C109.273 113.691 109.251 113.801 109.232 113.908V113.906Z" fill="#263238"/>
<path d="M112.136 114.81C112.155 114.7 112.174 114.592 112.196 114.482L112.49 114.54C112.471 114.645 112.449 114.752 112.43 114.865L112.133 114.807L112.136 114.81Z" fill="#263238"/>
<path d="M112.271 112.451L112.566 112.506C112.546 112.613 112.527 112.72 112.505 112.833L112.211 112.775L112.271 112.445V112.451Z" fill="#263238"/>
<path d="M110.169 115.436L109.875 115.381C109.894 115.274 109.916 115.167 109.935 115.057L110.23 115.112C110.21 115.219 110.188 115.326 110.169 115.436Z" fill="#263238"/>
<path d="M110.768 115.549C110.746 115.659 110.726 115.766 110.704 115.876L110.41 115.821C110.432 115.714 110.451 115.607 110.473 115.494L110.768 115.552V115.549Z" fill="#263238"/>
<path d="M112.48 116.215L112.184 116.158C112.203 116.05 112.225 115.943 112.244 115.836L112.538 115.891C112.519 115.998 112.5 116.105 112.48 116.215Z" fill="#263238"/>
<path d="M110.665 112.823L110.371 112.768C110.393 112.658 110.412 112.551 110.434 112.443L110.728 112.498C110.706 112.606 110.687 112.716 110.665 112.823Z" fill="#263238"/>
<path d="M108.729 110.086L107.844 109.918C107.904 109.591 107.965 109.267 108.028 108.939L108.913 109.107C108.853 109.432 108.789 109.759 108.729 110.086Z" fill="#263238"/>
<path d="M111.988 110.701C112.049 110.373 112.112 110.049 112.172 109.725L113.058 109.892C112.997 110.217 112.934 110.541 112.873 110.868L111.988 110.701Z" fill="#263238"/>
<path d="M106.977 114.494C107.037 114.167 107.098 113.843 107.161 113.516L108.046 113.683C107.985 114.008 107.922 114.335 107.862 114.662L106.977 114.494Z" fill="#263238"/>
<path d="M108.566 107.562L107.268 107.314L106.969 108.895" stroke="#2F945A" stroke-width="0.255486" stroke-miterlimit="10"/>
<path d="M113.281 108.455L114.576 108.7L114.279 110.278" stroke="#2F945A" stroke-width="0.255486" stroke-miterlimit="10"/>
<path d="M106.99 115.878L105.695 115.631L105.992 114.053" stroke="#2F945A" stroke-width="0.255486" stroke-miterlimit="10"/>
<path d="M111.707 116.771L113.005 117.015L113.304 115.438" stroke="#2F945A" stroke-width="0.255486" stroke-miterlimit="10"/>
<path d="M115.827 106.932L116.069 105.616C116.095 105.48 116.093 105.341 116.065 105.206C116.036 105.07 115.982 104.942 115.903 104.829C115.825 104.715 115.725 104.618 115.609 104.543C115.493 104.468 115.363 104.417 115.228 104.392L108.226 103.098C107.952 103.047 107.669 103.107 107.44 103.265C107.211 103.423 107.053 103.665 107.002 103.939L106.758 105.256L115.827 106.932Z" fill="#263238" stroke="#263238" stroke-width="0.255486" stroke-miterlimit="10"/>
<path d="M104.059 119.865L103.908 120.676C103.883 120.813 103.885 120.953 103.915 121.089C103.944 121.225 104 121.353 104.08 121.467C104.159 121.581 104.261 121.678 104.378 121.753C104.495 121.828 104.626 121.878 104.763 121.902L111.764 123.197C111.9 123.222 112.04 123.22 112.174 123.191C112.309 123.162 112.437 123.107 112.551 123.029C112.665 122.95 112.762 122.85 112.837 122.734C112.912 122.618 112.963 122.489 112.988 122.353L113.139 121.528L104.059 119.865Z" fill="#263238" stroke="#263238" stroke-width="0.255486" stroke-miterlimit="10"/>
<path d="M101.78 116.666C101.78 116.666 104.233 117.032 104.988 117.172C105.744 117.312 108.777 116.397 109.035 116.878C109.293 117.359 108.917 117.977 108.21 118.464C107.504 118.95 104.637 119.454 104.637 119.454C104.02 120.441 103.085 121.187 101.987 121.57C100.235 122.12 97.4727 122.038 97.4727 122.038" fill="#FFBE9D"/>
<path d="M101.78 116.666C101.78 116.666 104.233 117.032 104.988 117.172C105.744 117.312 108.777 116.397 109.035 116.878C109.293 117.359 108.917 117.977 108.21 118.464C107.504 118.95 104.637 119.454 104.637 119.454C104.02 120.441 103.085 121.187 101.987 121.57C100.235 122.12 97.4727 122.038 97.4727 122.038" stroke="#263238" stroke-width="0.255486" stroke-miterlimit="10"/>
<path d="M61.7554 149.778H102.991C103.09 148.434 103.444 141.322 100.836 131.654C97.9326 120.894 97.9326 110.487 97.9326 110.487C97.9326 110.487 99.8981 106.047 97.4212 102.374C94.9444 98.7015 91.6895 97.6596 91.6895 97.6596C91.6895 97.6596 73.8566 92.1286 70.522 92.5547C70.522 92.5547 62.154 99.6417 61.4722 100.07C60.7905 100.499 58.9102 103.4 58.9102 105.107C58.9102 106.814 62.2392 130.807 62.6681 133.881C63.0639 136.704 61.9368 148.011 61.7554 149.778Z" fill="#2F945A" stroke="#263238" stroke-width="0.255486" stroke-miterlimit="10"/>
<path d="M67.4492 107.746C67.4492 107.746 70.7783 120.724 74.2805 125.42" stroke="#263238" stroke-width="0.255486" stroke-miterlimit="10"/>
<path d="M70.9453 121.064C70.9453 121.064 73.0786 125.504 75.4702 127.555" stroke="#263238" stroke-width="0.255486" stroke-miterlimit="10"/>
<path d="M100.977 70.5523C100.977 70.5523 100.892 76.0503 100.37 76.7128C99.8473 77.3754 99.0281 78.3815 99.0748 78.9341C99.1215 79.4866 100.298 82.9009 100.359 83.3765C100.419 83.8521 98.4508 84.7785 98.4508 84.7785C98.4508 84.7785 95.2344 91.192 94.9045 91.6703C94.5746 92.1486 93.8049 92.0744 92.9225 91.8957C92.04 91.717 90.4484 90.7026 90.4484 90.7026L87.3502 96.5196C87.3502 96.5196 82.3525 92.4208 80.101 90.8868C77.8496 89.3529 75.0703 87.7804 75.0703 87.7804L77.976 83.7091C77.976 83.7091 79.3313 81.9635 79.6887 79.011C80.046 76.0586 80.8323 72.1055 87.0203 69.0761C93.2084 66.0466 99.292 69.2795 100.977 70.5523Z" fill="#FFBE9D" stroke="#263238" stroke-width="0.255486" stroke-miterlimit="10"/>
<path d="M96.4312 70.4111C96.4312 70.4111 96.7473 73.1106 96.2992 73.7979C95.8511 74.4852 92.019 75.0377 92.0052 75.4996C91.9915 75.9614 92.0052 78.2871 91.307 78.2293C90.6087 78.1716 90.441 78.2871 90.2486 78.0946C90.0562 77.9022 90.441 75.9614 88.8301 76.261C87.2192 76.5607 85.7292 78.9771 85.7594 80.3846C85.7897 81.7921 87.0597 82.812 87.0597 82.812C87.0597 82.812 86.925 83.4855 84.2722 84.3514C81.6194 85.2174 78.4855 84.5933 77.9632 83.7136C77.4409 82.834 75.8987 71.5162 75.5716 68.506C75.2444 65.4958 77.7433 59.9456 82.1115 58.6453C86.4797 57.345 91.6094 58.0597 91.6094 58.0597C91.6094 58.0597 94.2484 56.4928 96.5576 57.4165C98.8668 58.3401 99.3919 61.0809 99.3919 61.0809C99.3919 61.0809 103.686 60.9297 104.838 63.7172C105.99 66.5047 105.137 69.5919 103.634 70.9197C102.13 72.2475 99.5321 70.8784 98.383 70.4166C98.0779 70.2729 97.7449 70.1979 97.4077 70.1969C97.0704 70.196 96.7371 70.2691 96.4312 70.4111Z" fill="#263238" stroke="#263238" stroke-width="0.255486" stroke-miterlimit="10"/>
<path d="M100.362 76.7035C100.362 76.7035 99.1082 75.2108 97.7227 76.72" stroke="#263238" stroke-width="0.255486" stroke-miterlimit="10"/>
<path d="M98.436 78.6806C98.348 79.1122 98.0951 79.4256 97.8697 79.3816C97.6443 79.3376 97.5288 78.9473 97.614 78.5157C97.6992 78.0841 97.9549 77.7707 98.1803 77.8147C98.4057 77.8586 98.5102 78.249 98.436 78.6806Z" fill="#263238"/>
<path d="M96.5152 86.322C96.5152 86.322 95.5173 86.6657 94.6953 85.3379" stroke="#263238" stroke-width="0.255486" stroke-miterlimit="10"/>
<path d="M90.4459 90.6934C89.8005 90.0627 89.2661 89.3275 88.8652 88.519C88.3154 87.3259 87.7656 86.207 87.7656 86.207C87.7656 86.207 87.8261 90.5615 87.991 91.6803C88.1293 92.4859 88.3343 93.2785 88.6041 94.05L90.4459 90.6934Z" fill="#263238" stroke="#263238" stroke-width="0.255486" stroke-miterlimit="10"/>
<path d="M72.9102 89.4386C72.9102 89.4386 73.8971 87.6132 74.4304 87.539C74.9637 87.4648 83.4004 89.5898 85.3028 90.6564C87.2051 91.723 89.1047 94.3813 89.1047 94.3813L72.9102 89.4386Z" fill="white" stroke="#263238" stroke-width="0.255486" stroke-miterlimit="10"/>
<path d="M72.5935 88.7559C72.5935 88.7559 77.3823 89.9737 82.4762 91.5049C87.5702 93.0361 89.7007 94.6223 90.0058 95.0786C90.311 95.535 91.6772 97.6627 91.6772 97.6627C91.6772 97.6627 87.419 96.838 79.4358 95.0016C71.4527 93.1653 69.8555 92.9481 69.8555 92.9481C69.8555 92.9481 72.2224 89.3634 72.5935 88.7559Z" fill="#2F945A" stroke="#263238" stroke-width="0.255486" stroke-miterlimit="10"/>
<path d="M81.7109 110.563C81.7109 110.563 84.7843 128.156 85.04 130.202C85.2957 132.247 84.7843 137.624 85.04 141.814C85.2339 144.508 85.6859 147.178 86.3898 149.786H101.509C101.383 149.077 100.135 141.968 99.8985 138.32C99.6401 134.471 99.5549 119.876 99.0435 116.292C98.5322 112.707 98.7137 110.478 98.7137 110.478C98.7137 110.478 99.8133 104.757 98.5432 102.024C97.2732 99.2917 92.138 98.4505 91.1209 98.3516" fill="#2F945A"/>
<path d="M81.7109 110.563C81.7109 110.563 84.7843 128.156 85.04 130.202C85.2957 132.247 84.7843 137.624 85.04 141.814C85.2339 144.508 85.6859 147.178 86.3898 149.786H101.509C101.383 149.077 100.135 141.968 99.8985 138.32C99.6401 134.471 99.5549 119.876 99.0435 116.292C98.5322 112.707 98.7137 110.478 98.7137 110.478C98.7137 110.478 99.8133 104.757 98.5432 102.024C97.2732 99.2917 92.138 98.4505 91.1209 98.3516" stroke="#263238" stroke-width="0.255486" stroke-miterlimit="10"/>
<path d="M88.9448 100.908C88.9448 100.908 84.6921 104.105 83.6172 110.5L88.9448 100.908Z" fill="#2F945A"/>
<path d="M88.9448 100.908C88.9448 100.908 84.6921 104.105 83.6172 110.5" stroke="#263238" stroke-width="0.255486" stroke-miterlimit="10"/>
</g>
</g>
<defs>
<linearGradient id="paint0_linear_12836_97399" x1="135" y1="0" x2="135" y2="150" gradientUnits="userSpaceOnUse">
<stop stop-color="#F8FFFB"/>
<stop offset="1" stop-color="white" stop-opacity="0.4"/>
</linearGradient>
<clipPath id="clip0_12836_97399">
<rect width="270" height="150" fill="white" transform="translate(0 0.125)"/>
</clipPath>
<clipPath id="clip1_12836_97399">
<rect width="206" height="138" fill="white" transform="translate(31.5 12.125)"/>
</clipPath>
</defs>
</svg>
