<svg width="25" height="24" viewBox="0 0 25 24" fill="none" xmlns="http://www.w3.org/2000/svg">
<path d="M12.2856 20.5C9.85881 20.5 7.83539 20.1573 6.21539 19.472C4.59556 18.7868 3.78564 17.9308 3.78564 16.9038V7C3.78564 6.03467 4.61514 5.21 6.27414 4.526C7.93314 3.842 9.93698 3.5 12.2856 3.5C14.6343 3.5 16.6381 3.842 18.2971 4.526C19.9561 5.21 20.7856 6.03467 20.7856 7V16.9038C20.7856 17.9308 19.9757 18.7868 18.3559 19.472C16.7359 20.1573 14.7125 20.5 12.2856 20.5ZM12.2856 8.95775C13.7433 8.95775 15.211 8.75167 16.6886 8.3395C18.1661 7.92733 19.0222 7.48275 19.2569 7.00575C19.0286 6.51608 18.1814 6.05933 16.7154 5.6355C15.2494 5.21183 13.7728 5 12.2856 5C10.801 5 9.32948 5.20608 7.87114 5.61825C6.41281 6.03042 5.55414 6.48008 5.29514 6.96725C5.54781 7.46725 6.40006 7.924 7.85189 8.3375C9.30389 8.751 10.7818 8.95775 12.2856 8.95775ZM12.2856 13.9615C12.9793 13.9615 13.6543 13.9282 14.3106 13.8615C14.967 13.7948 15.5942 13.6974 16.1924 13.5693C16.7904 13.4411 17.3503 13.2821 17.8721 13.0922C18.394 12.9026 18.8651 12.6878 19.2856 12.448V8.9C18.8651 9.13967 18.394 9.35442 17.8721 9.54425C17.3503 9.73392 16.7904 9.89283 16.1924 10.021C15.5942 10.1493 14.967 10.2468 14.3106 10.3135C13.6543 10.3802 12.9793 10.4135 12.2856 10.4135C11.5793 10.4135 10.8911 10.3785 10.2211 10.3085C9.55131 10.2387 8.91898 10.1397 8.32414 10.0115C7.72931 9.88333 7.17514 9.726 6.66164 9.5395C6.14814 9.35283 5.68948 9.13967 5.28564 8.9V12.448C5.68948 12.6878 6.14814 12.901 6.66164 13.0875C7.17514 13.274 7.72931 13.4313 8.32414 13.5595C8.91898 13.6878 9.55131 13.7869 10.2211 13.8567C10.8911 13.9266 11.5793 13.9615 12.2856 13.9615ZM12.2856 19C13.0971 19 13.894 18.9465 14.6761 18.8395C15.4581 18.7323 16.1696 18.5862 16.8106 18.401C17.4516 18.2157 17.9923 18.0006 18.4326 17.7557C18.8731 17.5109 19.1575 17.2538 19.2856 16.9845V13.948C18.8651 14.1878 18.394 14.4026 17.8721 14.5922C17.3503 14.7821 16.7904 14.9411 16.1924 15.0693C15.5942 15.1974 14.967 15.2948 14.3106 15.3615C13.6543 15.4282 12.9793 15.4615 12.2856 15.4615C11.5793 15.4615 10.8911 15.4266 10.2211 15.3567C9.55131 15.2869 8.91898 15.1878 8.32414 15.0595C7.72931 14.9313 7.17514 14.774 6.66164 14.5875C6.14814 14.401 5.68948 14.1878 5.28564 13.948V17C5.41381 17.2757 5.69556 17.5317 6.13089 17.7682C6.56606 18.0047 7.10414 18.2157 7.74514 18.401C8.38631 18.5862 9.10048 18.7323 9.88764 18.8395C10.6748 18.9465 11.4741 19 12.2856 19Z" fill="#2F945A"/>
<circle cx="8" cy="16.7144" r="5.25" fill="white" stroke="#2F945A" stroke-width="1.5"/>
</svg>
