<svg width="30" height="31" viewBox="0 0 30 31" fill="none" xmlns="http://www.w3.org/2000/svg">
<rect y="0.125" width="30" height="30" rx="6.25" fill="#EAF4EF"/>
<path d="M7 24.125V22.625H22V24.125H7ZM10.5673 20.2403C9.58268 20.2403 8.74198 19.8967 8.0452 19.2096C7.3484 18.5224 7 17.6929 7 16.7211V7.125H22.1538C22.6615 7.125 23.0961 7.30161 23.4576 7.65482C23.8192 8.00802 24 8.43718 24 8.9423V11.5577C24 12.0628 23.8192 12.492 23.4576 12.8452C23.0961 13.1984 22.6615 13.375 22.1538 13.375H20.1538V16.7211C20.1538 17.6929 19.8054 18.5224 19.1086 19.2096C18.4118 19.8967 17.5711 20.2403 16.5865 20.2403H10.5673ZM10.5673 18.7404H16.5865C17.155 18.7404 17.6417 18.5423 18.0465 18.1461C18.4514 17.7499 18.6538 17.2736 18.6538 16.7173V8.62498H8.49997V16.7209C8.49997 17.2775 8.7024 17.7532 9.10725 18.1481C9.5121 18.5429 9.99878 18.7404 10.5673 18.7404ZM20.1538 11.875H22.1538C22.25 11.875 22.3317 11.8446 22.399 11.7837C22.4663 11.7228 22.5 11.6474 22.5 11.5577V8.9423C22.5 8.85255 22.4663 8.77723 22.399 8.71633C22.3317 8.65543 22.25 8.62498 22.1538 8.62498H20.1538V11.875ZM10.5673 18.7404H8.49997H18.6538H10.5673Z" fill="#2F945A"/>
</svg>
