<svg width="24" height="24" viewBox="0 0 24 24" fill="none" xmlns="http://www.w3.org/2000/svg">
<path d="M9.68981 21.5L9.30906 18.4538C9.04123 18.3641 8.76656 18.2385 8.48506 18.077C8.20373 17.9153 7.95215 17.7423 7.73031 17.5577L4.90906 18.75L2.60156 14.75L5.04181 12.9058C5.01881 12.7571 5.00248 12.6077 4.99281 12.4578C4.98315 12.3077 4.97831 12.1583 4.97831 12.0095C4.97831 11.8673 4.98315 11.7228 4.99281 11.576C5.00248 11.4292 5.01881 11.2686 5.04181 11.0943L2.60156 9.25L4.90906 5.26925L7.72056 6.452C7.96173 6.261 8.21915 6.08633 8.49281 5.928C8.76648 5.76967 9.0354 5.64242 9.29956 5.54625L9.68981 2.5H14.3053L14.6861 5.55575C14.9861 5.66475 15.2575 5.792 15.5003 5.9375C15.7433 6.083 15.9886 6.2545 16.2361 6.452L19.0861 5.26925L21.3936 9.25L18.9148 11.123C18.9506 11.2845 18.9702 11.4355 18.9736 11.576C18.9767 11.7163 18.9783 11.8577 18.9783 12C18.9783 12.1358 18.9751 12.274 18.9686 12.4145C18.9622 12.5548 18.9392 12.7154 18.8996 12.8963L21.3591 14.75L19.0513 18.75L16.2361 17.548C15.9886 17.7455 15.736 17.9202 15.4783 18.072C15.2206 18.224 14.9566 18.3481 14.6861 18.4443L14.3053 21.5H9.68981ZM10.9976 20H12.9631L13.3226 17.3212C13.8329 17.1879 14.2992 16.9985 14.7216 16.753C15.1441 16.5073 15.5515 16.1916 15.9438 15.8057L18.4283 16.85L19.4131 15.15L17.2438 13.5155C17.3271 13.2565 17.3838 13.0026 17.4138 12.7537C17.444 12.5051 17.4591 12.2538 17.4591 12C17.4591 11.7397 17.444 11.4884 17.4138 11.2463C17.3838 11.0039 17.3271 10.7564 17.2438 10.5038L19.4321 8.85L18.4476 7.15L15.9341 8.2095C15.5994 7.85183 15.1985 7.53583 14.7313 7.2615C14.264 6.98717 13.7912 6.79292 13.3131 6.67875L12.9976 4H11.0131L10.6821 6.66925C10.1719 6.78975 9.70081 6.97433 9.26881 7.223C8.83665 7.47183 8.4244 7.79233 8.03206 8.1845L5.54756 7.15L4.56306 8.85L6.72256 10.4595C6.63923 10.6968 6.5809 10.9437 6.54756 11.2C6.51423 11.4563 6.49756 11.7262 6.49756 12.0095C6.49756 12.2698 6.51423 12.525 6.54756 12.775C6.5809 13.025 6.63606 13.2718 6.71306 13.5155L4.56306 15.15L5.54756 16.85L8.02256 15.8C8.40206 16.1897 8.80781 16.5089 9.23981 16.7578C9.67198 17.0064 10.1496 17.1974 10.6726 17.3307L10.9976 20ZM12.0091 15C12.8411 15 13.5491 14.708 14.1331 14.124C14.7171 13.54 15.0091 12.832 15.0091 12C15.0091 11.168 14.7171 10.46 14.1331 9.876C13.5491 9.292 12.8411 9 12.0091 9C11.1667 9 10.4561 9.292 9.87731 9.876C9.29848 10.46 9.00906 11.168 9.00906 12C9.00906 12.832 9.29848 13.54 9.87731 14.124C10.4561 14.708 11.1667 15 12.0091 15Z" fill="white"/>
</svg>
