<svg width="24" height="24" viewBox="0 0 24 24" fill="none" xmlns="http://www.w3.org/2000/svg">
<mask id="mask0_6452_15446" style="mask-type:luminance" maskUnits="userSpaceOnUse" x="2" y="3" width="20" height="18">
<path fill-rule="evenodd" clip-rule="evenodd" d="M2.96875 3H21.0354V20.484H2.96875V3Z" fill="white"/>
</mask>
<g mask="url(#mask0_6452_15446)">
<path fill-rule="evenodd" clip-rule="evenodd" d="M5.89138 18.7358C5.2422 18.7358 4.71708 18.2107 4.71708 17.5615V8.99556C4.71708 8.80006 4.90382 8.6647 5.09055 8.71734C5.34747 8.79003 5.61441 8.82763 5.88261 8.82763H17.5391C17.6995 8.82763 17.8299 8.95797 17.8299 9.11964V10.8679C17.8299 11.0283 17.6995 11.1599 17.5391 11.1599H15.5878C14.2694 11.1599 13.0876 12.0936 12.9033 13.3995C12.6752 15.0174 13.9247 16.4048 15.4988 16.4048H17.5391C17.6995 16.4048 17.8299 16.5351 17.8299 16.6955V18.4451C17.8299 18.6055 17.6995 18.7358 17.5391 18.7358H5.89138ZM5.93395 4.74825H14.6265C14.7869 4.74825 14.916 4.87859 14.916 5.039V6.78854C14.916 6.94896 14.7857 7.0793 14.6253 7.0793H5.88257C5.20205 7.0793 4.65814 6.49654 4.72206 5.80223C4.77845 5.19441 5.32362 4.74825 5.93395 4.74825ZM18.9953 14.6565H15.5564C15.0789 14.6565 14.6465 14.2981 14.6264 13.8219C14.6039 13.3206 15.0037 12.9082 15.4987 12.9082H18.9953C19.157 12.9082 19.2873 13.0386 19.2873 13.199V14.3645C19.2873 14.5262 19.157 14.6565 18.9953 14.6565ZM19.5794 10.8679V7.37135C19.5794 7.20968 19.4478 7.07934 19.2874 7.07934H16.9563C16.7946 7.07934 16.6656 6.949 16.6656 6.78858V3.29075C16.6656 3.13034 16.534 3 16.3735 3H5.89134C4.27715 3 2.96875 4.3084 2.96875 5.92259V17.5615C2.96875 19.1757 4.27715 20.4841 5.89134 20.4841H19.2874C19.4478 20.4841 19.5794 20.3538 19.5794 20.1934V16.6955C19.5794 16.5351 19.7085 16.4048 19.8701 16.4048H20.7449C20.9053 16.4048 21.0356 16.2745 21.0356 16.1128V11.4507C21.0356 11.2903 20.9053 11.1599 20.7449 11.1599H19.8701C19.7085 11.1599 19.5794 11.0283 19.5794 10.8679Z" fill="white"/>
</g>
</svg>
