<svg width="32" height="32" viewBox="0 0 32 32" fill="none" xmlns="http://www.w3.org/2000/svg">
<path d="M9.38727 22.0513C7.71305 22.0513 6.28594 21.4613 5.10594 20.2813C3.92594 19.1016 3.33594 17.6747 3.33594 16.0007C3.33594 14.3267 3.92594 12.8996 5.10594 11.7193C6.28594 10.5389 7.71305 9.94867 9.38727 9.94867H13.4129C13.6963 9.94867 13.9337 10.0446 14.1253 10.2363C14.317 10.4281 14.4129 10.6658 14.4129 10.9493C14.4129 11.2327 14.317 11.4701 14.1253 11.6617C13.9337 11.853 13.6963 11.9487 13.4129 11.9487H9.3856C8.26694 11.9487 7.31238 12.344 6.52194 13.1347C5.73127 13.9253 5.33594 14.8804 5.33594 16C5.33594 17.1196 5.73127 18.0747 6.52194 18.8653C7.31238 19.656 8.26694 20.0513 9.3856 20.0513H13.4129C13.6963 20.0513 13.9337 20.1472 14.1253 20.339C14.317 20.5308 14.4129 20.7683 14.4129 21.0517C14.4129 21.3352 14.317 21.5727 14.1253 21.764C13.9337 21.9556 13.6963 22.0513 13.4129 22.0513H9.38727ZM12.0026 17C11.7193 17 11.4818 16.9041 11.2903 16.7123C11.0985 16.5206 11.0026 16.283 11.0026 15.9997C11.0026 15.7161 11.0985 15.4787 11.2903 15.2873C11.4818 15.0958 11.7193 15 12.0026 15H20.0026C20.2859 15 20.5234 15.0959 20.7149 15.2877C20.9067 15.4794 21.0026 15.717 21.0026 16.0003C21.0026 16.2839 20.9067 16.5213 20.7149 16.7127C20.5234 16.9042 20.2859 17 20.0026 17H12.0026ZM18.5923 22.0513C18.3089 22.0513 18.0715 21.9554 17.8799 21.7637C17.6882 21.5719 17.5923 21.3342 17.5923 21.0507C17.5923 20.7673 17.6882 20.5299 17.8799 20.3383C18.0715 20.147 18.3089 20.0513 18.5923 20.0513H22.6196C23.7383 20.0513 24.6928 19.656 25.4833 18.8653C26.2739 18.0747 26.6693 17.1196 26.6693 16C26.6693 14.8804 26.2739 13.9253 25.4833 13.1347C24.6928 12.344 23.7383 11.9487 22.6196 11.9487H18.5923C18.3089 11.9487 18.0715 11.8528 17.8799 11.661C17.6882 11.4692 17.5923 11.2317 17.5923 10.9483C17.5923 10.6648 17.6882 10.4273 17.8799 10.236C18.0715 10.0444 18.3089 9.94867 18.5923 9.94867H22.6179C24.2922 9.94867 25.7193 10.5387 26.8993 11.7187C28.0793 12.8984 28.6693 14.3253 28.6693 15.9993C28.6693 17.6733 28.0793 19.1004 26.8993 20.2807C25.7193 21.4611 24.2922 22.0513 22.6179 22.0513H18.5923Z" fill="#ACAEBA"/>
</svg>
