<svg width="41" height="40" viewBox="0 0 41 40" fill="none" xmlns="http://www.w3.org/2000/svg">
<g clip-path="url(#clip0_14246_47617)">
<path d="M7.24087 9.58301V7.08301H33.2025V9.58301H7.24087ZM7.30504 32.9163V22.9163H5.44629V20.4163L7.24087 12.083H33.2025L34.9971 20.4163V22.9163H33.1384V32.9163H30.6384V22.9163H23.1384V32.9163H7.30504ZM9.80504 30.4163H20.6384V22.9163H9.80504V30.4163ZM7.99712 20.4163H32.4463L31.1738 14.583H9.26962L7.99712 20.4163Z" fill="#2F945A"/>
<rect x="23.0515" y="0.830769" width="16.3385" height="16.3385" rx="8.16923" fill="#2F945A"/>
<rect x="23.0515" y="0.830769" width="16.3385" height="16.3385" rx="8.16923" stroke="white" stroke-width="1.66154"/>
<path d="M31.9717 8.00098H34.9707V10.001H31.9717V13.001H29.9717V10.001H26.9707V8.00098H29.9717V5.00098H31.9717V8.00098Z" fill="white"/>
</g>
<defs>
<clipPath id="clip0_14246_47617">
<rect width="40" height="40" fill="white" transform="translate(0.22168)"/>
</clipPath>
</defs>
</svg>
