<svg width="21" height="20" viewBox="0 0 21 20" fill="none" xmlns="http://www.w3.org/2000/svg">
<path opacity="0.2" d="M7.89258 9.7499C8.53572 11.078 9.60967 12.1492 10.9395 12.789C11.0375 12.8354 11.146 12.8555 11.2543 12.8473C11.3625 12.8391 11.4667 12.8028 11.5566 12.7421L13.5098 11.4374C13.5961 11.3789 13.6958 11.3432 13.7996 11.3336C13.9034 11.324 14.008 11.3409 14.1035 11.3827L17.7598 12.953C17.8847 13.005 17.9891 13.0967 18.0569 13.2139C18.1246 13.331 18.152 13.4672 18.1348 13.6015C18.0189 14.5059 17.5774 15.3372 16.8929 15.9397C16.2085 16.5422 15.3279 16.8747 14.416 16.8749C11.5981 16.8749 8.89558 15.7555 6.90301 13.7629C4.91043 11.7703 3.79102 9.06783 3.79102 6.2499C3.79122 5.33803 4.12368 4.45747 4.72619 3.77299C5.3287 3.08852 6.15997 2.64704 7.06445 2.53115C7.1987 2.51391 7.3349 2.54127 7.45207 2.60903C7.56924 2.67679 7.66088 2.78119 7.71289 2.90615L9.2832 6.57022C9.32404 6.66424 9.34112 6.76686 9.33295 6.86904C9.32477 6.97122 9.29159 7.06982 9.23633 7.15615L7.93164 9.14053C7.87356 9.23028 7.83946 9.33343 7.83262 9.44012C7.82579 9.54681 7.84643 9.65347 7.89258 9.7499Z" fill="#2F945A"/>
<path d="M7.89258 9.7499C8.53572 11.078 9.60967 12.1492 10.9395 12.789C11.0375 12.8354 11.146 12.8555 11.2543 12.8473C11.3625 12.8391 11.4667 12.8028 11.5566 12.7421L13.5098 11.4374C13.5961 11.3789 13.6958 11.3432 13.7996 11.3336C13.9034 11.324 14.008 11.3409 14.1035 11.3827L17.7598 12.953C17.8847 13.005 17.9891 13.0967 18.0569 13.2139C18.1246 13.331 18.152 13.4672 18.1348 13.6015C18.0189 14.5059 17.5774 15.3372 16.8929 15.9397C16.2085 16.5422 15.3279 16.8747 14.416 16.8749C11.5981 16.8749 8.89558 15.7555 6.90301 13.7629C4.91043 11.7703 3.79102 9.06783 3.79102 6.2499C3.79122 5.33803 4.12368 4.45747 4.72619 3.77299C5.3287 3.08852 6.15997 2.64704 7.06445 2.53115C7.1987 2.51391 7.3349 2.54127 7.45207 2.60903C7.56924 2.67679 7.66088 2.78119 7.71289 2.90615L9.2832 6.57022C9.32404 6.66424 9.34112 6.76686 9.33295 6.86904C9.32477 6.97122 9.29159 7.06982 9.23633 7.15615L7.93164 9.14053C7.87356 9.23028 7.83946 9.33343 7.83262 9.44012C7.82579 9.54681 7.84643 9.65347 7.89258 9.7499Z" stroke="#2F945A" stroke-width="0.740741" stroke-linecap="round" stroke-linejoin="round"/>
<path d="M13.1191 3.125C14.1793 3.40951 15.1459 3.96785 15.922 4.74399C16.6982 5.52013 17.2565 6.48676 17.541 7.54687" stroke="#2F945A" stroke-width="0.740741" stroke-linecap="round" stroke-linejoin="round"/>
<path d="M12.4707 5.53906C13.1083 5.7084 13.6898 6.04327 14.1563 6.50974C14.6227 6.97622 14.9576 7.55772 15.127 8.19531" stroke="#2F945A" stroke-width="0.740741" stroke-linecap="round" stroke-linejoin="round"/>
</svg>
