<svg width="321" height="221" viewBox="0 0 321 221" fill="none" xmlns="http://www.w3.org/2000/svg">
<rect width="320.667" height="220" transform="translate(0.333374 0.125)" fill="url(#paint0_linear_1_18758)"/>
<path d="M76.2162 71.3796V53.1765C76.2162 49.6106 79.2992 46.7198 83.1023 46.7198H110.172C113.975 46.7198 117.058 43.829 117.058 40.2632V31.0797C117.058 27.5138 120.141 24.623 123.944 24.623H230.181C233.984 24.623 237.067 27.5138 237.067 31.0797V123.676" fill="white"/>
<path d="M237.067 123.976C236.89 123.976 236.746 123.841 236.746 123.675V31.0795C236.746 27.6849 233.801 24.9237 230.181 24.9237H123.944C120.324 24.9237 117.379 27.6852 117.379 31.0795V40.2629C117.379 43.9889 114.146 47.0205 110.172 47.0205H83.1023C79.4822 47.0205 76.537 49.7819 76.537 53.1763V71.3794C76.537 71.5452 76.3933 71.68 76.2164 71.68C76.0396 71.68 75.8959 71.5452 75.8959 71.3794V53.1763C75.8959 49.4503 79.1287 46.419 83.1026 46.419H110.172C113.792 46.419 116.738 43.6572 116.738 40.2629V31.0795C116.738 27.3535 119.971 24.3223 123.944 24.3223H230.181C234.155 24.3223 237.388 27.3535 237.388 31.0795V123.675C237.387 123.841 237.244 123.976 237.067 123.976Z" fill="#1F212C"/>
<path d="M270.277 42.8359C272.732 42.8359 274.703 44.7359 274.635 47.0368L274.452 53.2089H274.444L272.817 99.79C272.74 101.994 270.812 103.744 268.46 103.744H197.947C195.483 103.744 193.509 101.831 193.59 99.5224L195.207 53.2089L195.399 46.8087C195.465 44.5967 197.396 42.8359 199.756 42.8359H270.277Z" fill="#292B3A"/>
<path d="M268.461 104.042H197.947C196.668 104.042 195.474 103.568 194.584 102.706C193.694 101.844 193.228 100.709 193.27 99.5105L194.887 53.1971L195.078 46.7981C195.15 44.4066 197.205 42.5332 199.757 42.5332H270.277C271.552 42.5332 272.743 43.005 273.632 43.862C274.521 44.7187 274.991 45.8487 274.956 47.0431L274.773 53.2149C274.772 53.2384 274.769 53.2611 274.762 53.2831L273.138 99.7975C273.055 102.178 271 104.042 268.461 104.042ZM199.757 43.1346C197.555 43.1346 195.781 44.7513 195.72 46.8153L195.528 53.2155L193.911 99.5302C193.874 100.565 194.277 101.544 195.045 102.288C195.813 103.031 196.843 103.441 197.947 103.441H268.46C270.652 103.441 272.425 101.832 272.497 99.7778L274.124 53.1971C274.125 53.1747 274.128 53.153 274.134 53.1321L274.314 47.0267C274.345 45.9955 273.939 45.0207 273.172 44.2813C272.405 43.5418 271.377 43.1346 270.277 43.1346H199.757Z" fill="#1F212C"/>
<path d="M269.549 49.8833C269.464 49.8833 269.379 49.8516 269.316 49.7882L266.186 46.6606C266.065 46.5398 266.071 46.3495 266.2 46.2359C266.329 46.1223 266.532 46.1277 266.653 46.2495L269.783 49.3771C269.904 49.4979 269.898 49.6882 269.769 49.8018C269.707 49.8565 269.628 49.8833 269.549 49.8833Z" fill="white"/>
<path d="M266.408 49.8829C266.329 49.8829 266.25 49.856 266.188 49.8007C266.059 49.6868 266.053 49.4965 266.175 49.376L269.325 46.2487C269.446 46.1282 269.649 46.1218 269.778 46.2366C269.907 46.3505 269.913 46.5408 269.791 46.6613L266.641 49.7889C266.578 49.8512 266.493 49.8829 266.408 49.8829Z" fill="white"/>
<path d="M264.364 48.1567C264.363 48.8807 263.773 49.4676 263.047 49.4676C262.32 49.4676 261.731 48.8807 261.732 48.1567C261.732 47.4326 262.322 46.8457 263.049 46.8457C263.775 46.8457 264.364 47.4326 264.364 48.1567Z" fill="#292B3A"/>
<path d="M263.043 49.7683C262.62 49.7683 262.219 49.6106 261.914 49.3239C261.587 49.0164 261.407 48.602 261.408 48.1564C261.408 47.2681 262.143 46.5449 263.045 46.5449C263.486 46.5449 263.899 46.715 264.209 47.0237C264.513 47.3273 264.681 47.7296 264.681 48.1567C264.68 49.0454 263.945 49.7683 263.043 49.7683ZM263.045 47.1463C262.496 47.1463 262.049 47.5997 262.049 48.1567C262.049 48.4419 262.162 48.7053 262.368 48.8986C262.553 49.0717 262.792 49.1669 263.043 49.1669C263.592 49.1669 264.039 48.7135 264.04 48.1564C264.04 47.8831 263.934 47.6272 263.742 47.4357C263.554 47.249 263.307 47.1463 263.045 47.1463Z" fill="white"/>
<path d="M260.031 49.8843H256.189C256.012 49.8843 255.869 49.7496 255.869 49.5838C255.869 49.4176 256.012 49.2832 256.189 49.2832H260.031C260.209 49.2832 260.352 49.4179 260.352 49.5838C260.352 49.7499 260.209 49.8843 260.031 49.8843Z" fill="white"/>
<path d="M201.686 148.531C201.686 148.531 206.093 148.85 208.298 157.445C210.12 164.547 208.44 171.252 205.694 172.584C201.219 174.754 193.649 162.719 193.649 162.719L192.295 151.452L201.686 148.531Z" fill="#2F945A"/>
<path d="M204.548 173.144C199.896 173.144 193.664 163.33 193.376 162.873C193.353 162.837 193.339 162.796 193.334 162.754L191.98 151.487C191.963 151.346 192.054 151.213 192.197 151.168L201.589 148.247C201.629 148.235 201.672 148.231 201.714 148.233C201.904 148.247 206.38 148.669 208.614 157.377C210.514 164.783 208.68 171.478 205.845 172.852C205.432 173.053 204.997 173.144 204.548 173.144ZM193.963 162.623C196.059 165.937 202.125 173.983 205.55 172.318C208.168 171.048 209.768 164.449 207.99 157.517C206.011 149.805 202.227 148.924 201.719 148.84L192.646 151.662L193.963 162.623Z" fill="#1F212C"/>
<path d="M197.162 154.628L196.943 166.405C205.382 167.899 213.822 167.211 213.822 167.211V166.937L213.106 152.15L197.162 154.628Z" fill="white"/>
<path d="M208.955 167.666C205.725 167.666 201.291 167.48 196.888 166.701C196.734 166.673 196.624 166.547 196.626 166.4L196.845 154.623C196.848 154.478 196.96 154.355 197.113 154.331L213.057 151.854C213.146 151.839 213.24 151.863 213.311 151.917C213.383 151.971 213.425 152.052 213.43 152.137L214.145 166.923L214.145 167.211C214.145 167.367 214.018 167.497 213.853 167.511C213.813 167.514 211.875 167.666 208.955 167.666ZM197.272 166.156C204.61 167.415 211.964 167.033 213.504 166.933L212.806 152.503L197.481 154.884L197.272 166.156Z" fill="#1F212C"/>
<path d="M161.139 103.98C161.139 103.98 177.724 102.031 183.597 109.297C190.22 117.49 186.137 151.974 186.137 151.974L201.693 148.533C199.749 148.779 194.006 169.434 205.701 172.586C205.701 172.586 171.467 189.445 162.481 176.874C153.495 164.302 161.139 103.98 161.139 103.98Z" fill="#2F945A"/>
<path d="M174.146 181.853C168.5 181.853 164.504 180.247 162.212 177.04C153.263 164.519 160.505 106.41 160.818 103.942C160.835 103.805 160.95 103.697 161.097 103.68C161.781 103.599 177.933 101.793 183.851 109.114C190.153 116.91 186.969 147.426 186.502 151.582L201.572 148.248C201.597 148.241 201.622 148.236 201.647 148.233C201.818 148.208 201.975 148.319 202.006 148.476C202.037 148.634 201.931 148.787 201.764 148.824L201.715 148.835C200.953 149.102 198.942 154.426 198.882 160.226C198.834 164.87 199.992 170.733 205.787 172.295C205.913 172.329 206.004 172.431 206.017 172.553C206.031 172.675 205.963 172.793 205.847 172.85C205.761 172.892 197.149 177.109 187.547 179.731C182.364 181.146 177.891 181.853 174.146 181.853ZM161.425 104.251C160.917 108.404 154.21 164.765 162.745 176.705C170.775 187.94 200.009 174.913 204.866 172.643C198.405 170.372 197.98 162.78 198.324 158.351C198.616 154.605 199.682 150.706 200.737 149.051L186.208 152.265C186.108 152.289 186 152.263 185.922 152.198C185.844 152.133 185.805 152.037 185.816 151.94C185.857 151.596 189.809 117.481 183.34 109.477C178.034 102.913 163.511 104.05 161.425 104.251Z" fill="#1F212C"/>
<path d="M182.217 153.619C182.086 153.619 181.963 153.544 181.916 153.422C181.855 153.266 181.94 153.094 182.106 153.036L186.019 151.691C186.185 151.633 186.37 151.713 186.431 151.87C186.492 152.025 186.406 152.198 186.24 152.255L182.327 153.601C182.291 153.613 182.253 153.619 182.217 153.619Z" fill="#1F212C"/>
<path d="M193.735 150.295C193.735 150.295 184.943 167.964 199.426 175.346L193.735 150.295Z" fill="#2F945A"/>
<path d="M199.422 175.645C199.37 175.645 199.318 175.633 199.269 175.608C184.69 168.177 193.351 150.345 193.441 150.166C193.516 150.015 193.707 149.95 193.867 150.02C194.027 150.09 194.097 150.269 194.022 150.42C193.936 150.594 185.527 167.919 199.575 175.08C199.731 175.159 199.788 175.342 199.704 175.488C199.646 175.588 199.535 175.645 199.422 175.645Z" fill="#1F212C"/>
<path d="M192.482 153.62C192.328 153.62 192.192 153.517 192.166 153.37C192.136 153.206 192.254 153.051 192.429 153.023L199.734 151.863C199.906 151.83 200.074 151.945 200.103 152.109C200.133 152.273 200.015 152.428 199.841 152.456L192.536 153.616C192.518 153.619 192.5 153.62 192.482 153.62Z" fill="#1F212C"/>
<path d="M193.095 169.92C192.964 169.92 192.841 169.844 192.794 169.722C192.734 169.565 192.82 169.393 192.987 169.337L199.679 167.075C199.846 167.018 200.03 167.1 200.09 167.256C200.15 167.412 200.063 167.584 199.897 167.64L193.204 169.903C193.168 169.914 193.131 169.92 193.095 169.92Z" fill="#1F212C"/>
<path d="M185.779 155.179L219.049 153.02V161.132H181.474V159.505C181.474 157.226 183.355 155.336 185.779 155.179Z" fill="#292B3A"/>
<path d="M219.05 161.432H181.474C181.297 161.432 181.154 161.298 181.154 161.131V159.504C181.154 157.077 183.176 155.045 185.757 154.878L219.028 152.719C219.12 152.717 219.204 152.742 219.269 152.799C219.334 152.856 219.371 152.935 219.371 153.019V161.131C219.371 161.298 219.227 161.432 219.05 161.432ZM181.795 160.831H218.729V153.341L185.801 155.478C183.555 155.624 181.795 157.392 181.795 159.504V160.831Z" fill="#1F212C"/>
<path d="M205.236 161.13H255.346C256.951 161.13 258.325 160.051 258.606 158.569L266.199 118.578C266.623 116.345 264.791 114.295 262.372 114.295H213.43C211.547 114.295 209.934 115.561 209.604 117.3L201.975 157.481C201.614 159.384 203.175 161.13 205.236 161.13Z" fill="white"/>
<path d="M255.354 161.431H205.243C204.166 161.431 203.151 160.987 202.459 160.212C201.767 159.438 201.479 158.423 201.667 157.428L209.295 117.248C209.653 115.363 211.396 113.994 213.438 113.994H262.38C263.628 113.994 264.804 114.509 265.605 115.406C266.407 116.303 266.741 117.478 266.522 118.631L258.93 158.622C258.621 160.25 257.116 161.431 255.354 161.431ZM213.438 114.596C211.707 114.596 210.23 115.755 209.927 117.354L202.299 157.534C202.143 158.353 202.381 159.188 202.95 159.826C203.52 160.464 204.356 160.83 205.243 160.83H255.354C256.806 160.83 258.044 159.857 258.298 158.516L265.891 118.525C266.076 117.549 265.793 116.552 265.113 115.792C264.434 115.032 263.438 114.596 262.38 114.596H213.438V114.596Z" fill="#1F212C"/>
<path d="M240.105 143.163C242.392 141.175 242.767 138.067 240.942 136.223C239.117 134.378 235.784 134.495 233.498 136.483C231.211 138.472 230.836 141.579 232.661 143.424C234.485 145.269 237.818 145.152 240.105 143.163Z" fill="#C1D6FF"/>
<path d="M236.011 145.024C234.529 145.024 233.215 144.483 232.314 143.501C231.398 142.504 231.018 141.178 231.245 139.767C231.703 136.918 234.549 134.6 237.589 134.6C239.072 134.6 240.386 135.141 241.288 136.124C242.203 137.121 242.582 138.447 242.355 139.857C241.898 142.706 239.052 145.024 236.011 145.024ZM231.879 139.856C231.681 141.091 232.008 142.246 232.8 143.109C233.578 143.956 234.718 144.423 236.011 144.423C238.748 144.423 241.309 142.334 241.722 139.767C241.921 138.533 241.594 137.378 240.802 136.516C240.024 135.668 238.883 135.201 237.59 135.201C234.854 135.201 232.292 137.29 231.879 139.856Z" fill="#1F212C"/>
<path d="M213.824 167.21C219.049 166.654 224.407 165.292 224.783 161.58C225.219 157.278 224.258 151.918 222.842 149.687C222.487 149.128 221.83 148.761 221.139 148.819C220.573 148.866 219.982 149.193 219.883 150.315C219.883 150.315 218.288 145.456 216.467 145.913C214.645 146.371 214.847 149.818 214.847 149.818C214.847 149.818 212.844 147.615 211.547 148.407C210.25 149.2 210.859 152.15 210.859 152.15C210.859 152.15 208.759 150.741 207.781 152.432C206.801 154.122 208.952 161.13 208.952 161.13" fill="white"/>
<path d="M213.825 167.513C213.664 167.513 213.525 167.399 213.507 167.246C213.487 167.081 213.613 166.932 213.789 166.913C220.682 166.18 224.174 164.426 224.465 161.553C224.878 157.477 224.01 152.114 222.568 149.842C222.261 149.359 221.716 149.077 221.169 149.119C220.956 149.137 220.306 149.191 220.205 150.341C220.192 150.485 220.072 150.6 219.92 150.615C219.769 150.63 219.624 150.543 219.579 150.404C218.996 148.634 217.661 145.926 216.552 146.205C215.266 146.528 215.118 148.912 215.169 149.803C215.176 149.931 215.095 150.05 214.967 150.098C214.84 150.146 214.694 150.113 214.605 150.015C214.097 149.458 212.591 148.131 211.723 148.661C210.809 149.22 211.018 151.329 211.175 152.094C211.199 152.215 211.144 152.337 211.034 152.404C210.922 152.47 210.781 152.467 210.674 152.396C210.664 152.39 209.701 151.753 208.884 151.933C208.539 152.008 208.271 152.218 208.064 152.577C207.312 153.874 208.673 159.132 209.261 161.048C209.31 161.208 209.211 161.375 209.041 161.42C208.87 161.466 208.694 161.374 208.644 161.214C208.421 160.485 206.487 154.037 207.5 152.29C207.796 151.778 208.214 151.461 208.742 151.347C209.363 151.213 210.001 151.399 210.448 151.59C210.332 150.617 210.286 148.822 211.372 148.157C212.433 147.51 213.782 148.435 214.531 149.084C214.585 147.975 214.895 145.999 216.385 145.624C217.963 145.23 219.25 147.819 219.847 149.297C220.187 148.704 220.742 148.551 221.112 148.521C221.902 148.456 222.686 148.854 223.119 149.535C224.619 151.899 225.527 157.428 225.103 161.611C224.779 164.81 221.101 166.74 213.861 167.511C213.849 167.512 213.837 167.513 213.825 167.513Z" fill="#1F212C"/>
<path d="M212.416 158.155C212.273 158.155 212.143 158.065 212.106 157.929L210.547 152.225C210.503 152.064 210.606 151.9 210.778 151.859C210.948 151.819 211.124 151.914 211.168 152.075L212.727 157.779C212.77 157.94 212.667 158.104 212.496 158.145C212.469 158.152 212.442 158.155 212.416 158.155Z" fill="#1F212C"/>
<path d="M216.736 157.472C216.592 157.472 216.46 157.379 216.425 157.242L214.538 149.889C214.496 149.728 214.602 149.565 214.774 149.526C214.946 149.487 215.12 149.586 215.162 149.748L217.049 157.1C217.09 157.262 216.984 157.424 216.812 157.464C216.787 157.469 216.761 157.472 216.736 157.472Z" fill="#1F212C"/>
<path d="M220.935 156.024C220.783 156.024 220.649 155.922 220.62 155.777L219.569 150.37C219.537 150.206 219.653 150.049 219.827 150.02C220.003 149.994 220.168 150.098 220.201 150.262L221.251 155.669C221.283 155.833 221.167 155.989 220.993 156.019C220.974 156.022 220.955 156.024 220.935 156.024Z" fill="#1F212C"/>
<path d="M177.847 219.576C177.767 204.757 173.358 183.403 171.086 168.084L139.244 177.58L145.312 219.297" fill="white"/>
<path d="M177.847 219.875C177.671 219.875 177.527 219.742 177.526 219.576C177.467 208.608 175.013 193.938 172.847 180.995C172.103 176.548 171.399 172.341 170.821 168.477L139.598 177.789L145.63 219.255C145.654 219.419 145.531 219.571 145.355 219.594C145.182 219.619 145.019 219.501 144.994 219.336L138.926 177.619C138.905 177.474 138.998 177.336 139.147 177.292L170.989 167.796C171.078 167.768 171.177 167.78 171.257 167.828C171.337 167.875 171.391 167.953 171.404 168.041C171.99 171.996 172.714 176.321 173.48 180.901C175.649 193.865 178.108 208.56 178.167 219.573C178.168 219.739 178.025 219.874 177.849 219.875C177.849 219.875 177.848 219.875 177.847 219.875Z" fill="#1F212C"/>
<path d="M106.068 218.057C106.068 218.057 108.476 186.936 109.46 170.674L146.05 174.767L139.911 218.746" fill="white"/>
<path d="M139.911 219.045C139.898 219.045 139.883 219.044 139.869 219.042C139.694 219.021 139.57 218.87 139.593 218.705L145.69 175.028L109.761 171.009C108.776 187.175 106.412 217.768 106.388 218.077C106.375 218.243 106.224 218.365 106.045 218.355C105.868 218.343 105.735 218.199 105.748 218.034C105.772 217.723 108.168 186.729 109.14 170.656C109.145 170.573 109.186 170.496 109.254 170.442C109.322 170.389 109.411 170.368 109.498 170.374L146.088 174.467C146.173 174.477 146.25 174.518 146.303 174.582C146.356 174.645 146.379 174.725 146.368 174.805L140.229 218.784C140.208 218.935 140.07 219.045 139.911 219.045Z" fill="#1F212C"/>
<path d="M114.124 214.946C114.117 214.946 114.111 214.946 114.104 214.945C113.927 214.936 113.792 214.793 113.803 214.628C114.077 210.259 114.108 207.929 114.138 205.675C114.169 203.414 114.2 201.076 114.475 196.694C114.486 196.528 114.639 196.399 114.814 196.411C114.991 196.421 115.126 196.563 115.115 196.729C114.841 201.097 114.81 203.428 114.78 205.682C114.749 207.943 114.718 210.281 114.443 214.663C114.433 214.822 114.292 214.946 114.124 214.946Z" fill="#1F212C"/>
<path d="M164.916 103.715C158.333 103.688 152.156 106.441 152.156 106.441C152.156 106.441 144.467 103.878 135.735 102.995C129.143 102.325 121.956 102.611 117.02 105.676C108.351 111.061 102.783 182.044 102.783 182.044C102.783 182.044 149.891 192.024 175.575 178.548C175.575 178.548 177.27 146.704 176.484 125.772" fill="#2F945A"/>
<path d="M138.575 185.861C119.705 185.861 102.993 182.397 102.713 182.337C102.558 182.304 102.452 182.171 102.463 182.022C102.691 179.118 108.143 110.83 116.844 105.426C121.116 102.773 127.482 101.855 135.77 102.697C143.839 103.513 151.11 105.787 152.14 106.118C153.043 105.737 158.844 103.379 164.918 103.415C165.095 103.416 165.238 103.551 165.237 103.717C165.236 103.883 165.093 104.017 164.917 104.017C164.881 104.02 164.853 104.016 164.821 104.016C158.425 104.016 152.355 106.687 152.294 106.714C152.218 106.748 152.129 106.751 152.049 106.725C151.973 106.7 144.293 104.164 135.701 103.295C127.566 102.468 121.342 103.354 117.198 105.927C109.018 111.008 103.507 177.085 103.124 181.806C106.99 182.581 150.952 190.992 175.264 178.366C175.394 175.846 176.912 145.687 176.164 125.783C176.158 125.617 176.296 125.477 176.473 125.472C176.649 125.474 176.799 125.596 176.805 125.762C177.583 146.467 175.913 178.245 175.896 178.563C175.89 178.666 175.828 178.76 175.732 178.81C165.38 184.242 151.473 185.861 138.575 185.861Z" fill="#1F212C"/>
<path d="M171.456 210.686C171.289 210.686 171.149 210.565 171.136 210.407L169.979 195.525C169.966 195.36 170.099 195.216 170.275 195.203C170.448 195.196 170.605 195.316 170.618 195.481L171.776 210.363C171.789 210.529 171.656 210.673 171.479 210.685C171.472 210.685 171.464 210.686 171.456 210.686Z" fill="#1F212C"/>
<path d="M166.623 136.189C166.623 136.189 172.647 134.039 173.305 148.534C173.729 157.855 169.994 159.9 169.994 159.9L161.448 157.855L157.755 151.975L157.294 145.954L155.931 140.733L166.623 136.189Z" fill="#2F945A"/>
<path d="M169.994 160.199C169.967 160.199 169.941 160.196 169.915 160.19L161.369 158.145C161.286 158.125 161.215 158.075 161.171 158.006L157.479 152.126C157.454 152.086 157.44 152.041 157.436 151.995L156.977 145.999L155.62 140.802C155.583 140.662 155.658 140.517 155.799 140.457L166.491 135.913C166.496 135.911 166.503 135.908 166.509 135.906C166.566 135.886 167.924 135.418 169.463 136.368C171.158 137.414 173.256 140.372 173.626 148.519C174.052 157.914 170.315 160.071 170.155 160.158C170.106 160.185 170.05 160.199 169.994 160.199ZM161.657 157.593L169.93 159.573C170.501 159.159 173.354 156.67 172.985 148.545C172.627 140.674 170.691 137.858 169.128 136.881C167.909 136.119 166.855 136.43 166.744 136.466L156.306 140.902L157.606 145.881C157.61 145.897 157.613 145.914 157.614 145.931L158.07 151.882L161.657 157.593Z" fill="#1F212C"/>
<path d="M163.797 156.919C165.672 156.322 175.944 153.08 178.176 152.525C180.572 151.929 182.758 151.538 183.85 151.734C185.252 151.981 188.018 154.605 189.396 153.068C190.769 151.523 190.216 150.285 190.216 150.285C193.57 149.042 191.807 146.523 191.807 146.523C191.807 146.523 191.811 146.521 191.808 146.517C194.784 142.443 187.951 139.544 187.682 139.463C187.954 139.451 193.184 141.128 193.092 138.25C192.985 134.913 183.571 133.231 179.38 134.766C176.881 135.68 171.802 138.647 171.414 138.884C170.453 139.471 162.993 139.766 160.925 140.364C161.246 142.317 157.785 146.397 158.815 148.635C160.012 151.238 162.335 155.382 163.797 156.919Z" fill="white"/>
<path d="M163.802 157.218C163.712 157.218 163.625 157.183 163.563 157.118C161.992 155.467 159.629 151.151 158.526 148.753C157.89 147.37 158.754 145.49 159.59 143.673C160.181 142.387 160.739 141.173 160.613 140.409C160.589 140.262 160.684 140.119 160.836 140.076C161.842 139.785 164.048 139.568 166.18 139.357C168.24 139.153 170.802 138.901 171.245 138.631C171.865 138.253 176.821 135.381 179.269 134.485C182.517 133.295 188.65 133.954 191.652 135.815C192.779 136.513 193.39 137.352 193.418 138.24C193.439 138.89 193.22 139.394 192.766 139.738C192.018 140.304 190.781 140.301 189.693 140.158C190.841 140.872 192.175 141.955 192.679 143.336C193.069 144.401 192.903 145.475 192.188 146.531C192.394 146.897 192.795 147.784 192.481 148.716C192.232 149.452 191.601 150.038 190.605 150.459C190.708 150.954 190.745 152.024 189.648 153.259C188.541 154.494 186.794 153.531 185.391 152.757C184.776 152.418 184.196 152.098 183.797 152.028C183.169 151.915 181.699 151.961 178.264 152.814C176.126 153.345 166.394 156.41 163.905 157.202C163.871 157.213 163.837 157.218 163.802 157.218ZM161.272 140.587C161.291 141.493 160.749 142.671 160.179 143.911C159.433 145.532 158.588 147.37 159.115 148.515C160.209 150.894 162.44 154.927 163.904 156.568C166.685 155.685 175.999 152.755 178.1 152.233C180.992 151.515 182.894 151.253 183.916 151.438C184.424 151.527 185.052 151.873 185.717 152.239C187.236 153.077 188.454 153.656 189.156 152.873C190.374 151.503 189.944 150.443 189.925 150.398C189.894 150.324 189.895 150.24 189.928 150.167C189.962 150.093 190.025 150.034 190.105 150.005C191.067 149.648 191.66 149.154 191.869 148.535C192.181 147.612 191.551 146.697 191.545 146.688C191.496 146.618 191.48 146.532 191.501 146.451C191.502 146.448 191.503 146.445 191.504 146.443C191.513 146.409 191.528 146.377 191.55 146.347C192.225 145.422 192.407 144.491 192.089 143.577C191.344 141.432 188.057 139.905 187.587 139.748C187.443 139.7 187.351 139.562 187.374 139.421C187.396 139.279 187.519 139.17 187.672 139.163C187.756 139.156 187.839 139.177 188.144 139.248C189.034 139.454 191.398 140.001 192.364 139.271C192.657 139.049 192.793 138.718 192.778 138.259C192.756 137.565 192.258 136.912 191.299 136.317C188.491 134.576 182.539 133.936 179.503 135.045C177.104 135.923 172.208 138.762 171.595 139.135C171.062 139.461 169.219 139.662 166.248 139.956C164.311 140.146 162.314 140.343 161.272 140.587Z" fill="#1F212C"/>
<path d="M187.67 139.462C187.67 139.462 184.061 138.531 181.388 140.124L187.67 139.462Z" fill="white"/>
<path d="M181.397 140.426C181.291 140.426 181.187 140.377 181.126 140.287C181.031 140.147 181.075 139.961 181.224 139.872C183.985 138.226 187.61 139.134 187.763 139.174C187.934 139.218 188.034 139.383 187.987 139.543C187.941 139.703 187.765 139.795 187.593 139.754C187.558 139.744 184.086 138.879 181.568 140.379C181.515 140.411 181.456 140.426 181.397 140.426Z" fill="#1F212C"/>
<path d="M191.813 146.519C191.813 146.519 189.668 144.61 186.903 143.221C184.137 141.833 181.185 143.642 181.185 143.642" fill="white"/>
<path d="M191.809 146.817C191.73 146.817 191.651 146.79 191.588 146.735C191.567 146.716 189.441 144.837 186.748 143.485C184.187 142.2 181.385 143.875 181.356 143.892C181.208 143.982 181.009 143.943 180.913 143.804C180.816 143.665 180.858 143.479 181.006 143.389C181.133 143.311 184.151 141.499 187.051 142.955C189.822 144.346 191.941 146.22 192.03 146.299C192.158 146.413 192.164 146.603 192.042 146.724C191.979 146.786 191.894 146.817 191.809 146.817Z" fill="#1F212C"/>
<path d="M190.22 150.283C190.22 150.283 187.788 147.995 185.752 147.029C183.717 146.063 180.181 147.383 180.181 147.383" fill="white"/>
<path d="M190.216 150.583C190.134 150.583 190.052 150.553 189.989 150.494C189.965 150.472 187.569 148.229 185.604 147.296C183.724 146.403 180.33 147.649 180.296 147.661C180.133 147.722 179.945 147.647 179.879 147.493C179.814 147.338 179.895 147.163 180.059 147.102C180.209 147.046 183.753 145.743 185.893 146.76C187.951 147.736 190.343 149.975 190.443 150.07C190.568 150.187 190.568 150.378 190.442 150.495C190.38 150.553 190.298 150.583 190.216 150.583Z" fill="#1F212C"/>
<path d="M145.396 104.614C145.396 104.614 119.486 94.87 108.429 103.714C98.2153 111.884 87.4594 171.553 106.073 174.591C127.116 178.027 169.995 159.9 169.995 159.9C167.375 157.854 158.865 149.584 166.625 136.188L122.634 149.191L130.737 120.046" fill="#2F945A"/>
<path d="M111.909 175.319C109.807 175.319 107.83 175.184 106.016 174.888C101.913 174.218 98.9658 170.906 97.2564 165.045C92.1115 147.406 99.9374 110.109 108.219 103.486C119.295 94.6245 144.448 103.935 145.513 104.335C145.678 104.397 145.757 104.572 145.691 104.726C145.625 104.88 145.439 104.954 145.274 104.893C145.017 104.796 119.418 95.3184 108.634 103.943C104.91 106.922 100.89 117.162 98.392 130.031C95.719 143.802 95.5258 156.833 97.8746 164.886C99.5128 170.503 102.289 173.668 106.126 174.295C125.667 177.489 164.713 161.748 169.401 159.817C166.846 157.669 158.923 149.582 165.974 136.695L122.729 149.478C122.617 149.511 122.496 149.484 122.411 149.409C122.327 149.334 122.292 149.221 122.322 149.115L130.424 119.971C130.469 119.809 130.646 119.712 130.816 119.756C130.987 119.798 131.09 119.962 131.045 120.122L123.089 148.741L166.526 135.901C166.65 135.864 166.786 135.901 166.87 135.997C166.953 136.091 166.966 136.223 166.904 136.331C159.019 149.943 168.265 158.159 170.198 159.668C170.283 159.734 170.326 159.837 170.311 159.94C170.295 160.042 170.226 160.13 170.125 160.173C169.732 160.34 134.02 175.318 111.909 175.319Z" fill="#1F212C"/>
<path d="M117.056 151.33C116.924 151.33 116.8 151.253 116.754 151.129C116.695 150.973 116.783 150.801 116.95 150.746L122.521 148.907C122.686 148.85 122.871 148.933 122.93 149.09C122.989 149.247 122.901 149.418 122.734 149.474L117.163 151.313C117.127 151.325 117.092 151.33 117.056 151.33Z" fill="#1F212C"/>
<path d="M155.931 139.348C155.931 139.348 149.104 151.048 161.695 162.819L155.931 139.348Z" fill="#2F945A"/>
<path d="M161.693 163.121C161.611 163.121 161.529 163.092 161.467 163.034C148.851 151.241 155.578 139.324 155.648 139.205C155.733 139.059 155.928 139.006 156.083 139.086C156.238 139.165 156.295 139.348 156.211 139.494C156.144 139.609 149.654 151.143 161.919 162.608C162.045 162.726 162.045 162.916 161.92 163.034C161.857 163.092 161.775 163.121 161.693 163.121Z" fill="#1F212C"/>
<path d="M154.232 145.204C154.093 145.204 153.966 145.12 153.924 144.989C153.874 144.829 153.972 144.662 154.141 144.615L163.781 141.951C163.95 141.906 164.129 141.995 164.179 142.155C164.229 142.314 164.132 142.481 163.962 142.528L154.323 145.192C154.293 145.2 154.262 145.204 154.232 145.204Z" fill="#1F212C"/>
<path d="M156.174 155.303C156.033 155.303 155.904 155.216 155.865 155.083C155.817 154.923 155.917 154.757 156.088 154.713L164.271 152.581C164.443 152.537 164.619 152.63 164.666 152.79C164.714 152.95 164.614 153.116 164.443 153.161L156.26 155.292C156.231 155.299 156.202 155.303 156.174 155.303Z" fill="#1F212C"/>
<path d="M139.738 115.815C146.006 117.307 152.385 112.755 152.385 112.755C152.385 112.755 161.657 117.723 165.569 115.693C169.473 113.658 161.135 103.98 161.135 103.98L151.756 106L138.812 102.697C138.812 102.698 133.476 114.323 139.738 115.815Z" fill="white"/>
<path d="M163.184 116.479C159.104 116.479 153.517 113.686 152.41 113.111C151.326 113.841 145.509 117.498 139.662 116.105C138.441 115.814 137.545 115.141 137 114.106C135.01 110.318 138.376 102.892 138.52 102.578C138.583 102.441 138.743 102.368 138.899 102.407L151.765 105.689L161.065 103.686C161.184 103.661 161.31 103.701 161.387 103.79C161.64 104.084 167.581 111.028 166.873 114.445C166.732 115.124 166.346 115.632 165.727 115.955C165.013 116.325 164.14 116.478 163.184 116.479ZM152.387 112.454C152.442 112.454 152.497 112.466 152.546 112.493C152.638 112.542 161.707 117.356 165.416 115.429C165.868 115.194 166.139 114.834 166.243 114.331C166.842 111.442 161.868 105.339 161.012 104.315L151.83 106.293C151.778 106.304 151.725 106.303 151.674 106.29L139.004 103.057C138.443 104.366 135.906 110.663 137.576 113.841C138.041 114.724 138.775 115.274 139.82 115.523C145.868 116.96 152.131 112.56 152.193 112.515C152.25 112.474 152.318 112.454 152.387 112.454Z" fill="#1F212C"/>
<path d="M143.933 85.9824C143.933 85.9824 143.185 100.112 140.787 103.077L152.383 112.755L159.144 104.452L159.646 95.3691L143.933 85.9824Z" fill="white"/>
<path d="M152.387 113.056C152.309 113.056 152.233 113.029 152.174 112.98L140.578 103.302C140.453 103.198 140.434 103.021 140.536 102.896C142.847 100.039 143.61 86.1081 143.617 85.968C143.623 85.861 143.689 85.7647 143.79 85.7157C143.892 85.6659 144.013 85.671 144.11 85.729L159.824 95.116C159.921 95.1743 159.977 95.2773 159.971 95.3855L159.469 104.468C159.466 104.528 159.443 104.587 159.404 104.635L152.643 112.938C152.589 113.004 152.507 113.047 152.418 113.055C152.408 113.056 152.397 113.056 152.387 113.056ZM141.216 103.029L152.342 112.315L158.833 104.344L159.321 95.529L144.228 86.5126C144.07 89.0578 143.284 99.9557 141.216 103.029Z" fill="#1F212C"/>
<path d="M150.018 96.2923C154.091 98.7318 158.684 99.9612 163.011 99.1293C173.62 97.0903 177.583 88.157 175.353 77.9571C173.123 67.7569 162.045 58.0829 150.078 61.7881C139.397 65.0954 136.022 75.2171 141.144 89.5408" fill="white"/>
<path d="M160.276 99.684C156.901 99.684 153.288 98.6081 149.844 96.5452C149.695 96.4558 149.651 96.2701 149.746 96.1302C149.841 95.99 150.04 95.9487 150.189 96.0387C154.467 98.6002 158.997 99.5925 162.946 98.8346C172.648 96.9699 177.395 88.7984 175.038 78.0171C173.74 72.08 169.52 66.5389 164.024 63.5556C159.596 61.1518 154.808 60.6392 150.178 62.0734C145.92 63.3916 142.835 65.7955 141.008 69.2182C138.346 74.2038 138.498 81.1981 141.447 89.4449C141.504 89.6022 141.413 89.7726 141.245 89.8255C141.078 89.8789 140.896 89.7935 140.839 89.6361C137.835 81.2344 137.695 74.0812 140.435 68.949C142.341 65.378 145.552 62.8727 149.977 61.5028C154.785 60.013 159.754 60.5431 164.346 63.0355C169.995 66.1024 174.333 71.7966 175.666 77.8969C178.101 89.0359 173.159 97.4856 163.074 99.4236C162.167 99.5979 161.231 99.684 160.276 99.684Z" fill="#1F212C"/>
<path d="M142.042 80.6514C143.563 80.5511 144.78 81.789 145.941 82.7659C147.103 83.7427 148.124 84.9147 149.302 83.9545C150.05 83.344 151.151 79.0495 151.879 75.19C152.417 72.3367 155.219 70.3497 158.289 70.6814C165.33 71.442 171.001 70.2618 175.534 66.3516C177.896 64.3135 179.883 61.3004 179.205 58.2728C178.793 56.432 177.454 54.922 175.95 53.7672C170.812 49.8207 167.356 52.3212 160.746 52.1275C158.234 52.0538 156.666 49.2715 154.277 48.6659C151.887 48.0602 149.082 48.4505 147.417 50.2553C145.808 52.0007 147.737 55.8372 145.503 56.9322C141.423 58.9322 136.248 55.4726 132.908 58.5175C129.568 61.5623 128.237 66.4422 129.05 70.8635C129.863 75.2849 138.627 91.9227 142.216 94.6676C144.938 96.7491 142.726 85.5044 145.782 83.9364" fill="#1F212C"/>
<path d="M146.667 82.7877C145.596 81.8827 143.152 80.7659 141.732 80.5339C140.311 80.3019 138.726 80.6674 137.781 81.6887C136.816 82.7312 136.763 84.2883 137.277 85.5815C138.924 89.7171 143.089 90.0487 144.529 89.7645" fill="white"/>
<path d="M143.632 90.1409C141.597 90.1409 138.366 89.1734 136.977 85.6842C136.361 84.1364 136.576 82.5294 137.539 81.4894C138.49 80.4611 140.159 79.97 141.787 80.2349C143.278 80.4784 145.754 81.609 146.882 82.5617C147.013 82.6729 147.024 82.8632 146.906 82.9864C146.787 83.1097 146.584 83.1199 146.453 83.0088C145.434 82.1479 143.023 81.0472 141.677 80.8276C140.264 80.5962 138.83 81.0112 138.024 81.883C137.057 82.9272 137.159 84.4225 137.578 85.473C139.218 89.5935 143.426 89.6721 144.463 89.467C144.632 89.4343 144.806 89.5367 144.843 89.6996C144.88 89.8621 144.769 90.0213 144.595 90.056C144.325 90.1098 143.997 90.1409 143.632 90.1409Z" fill="#1F212C"/>
<path d="M166.709 86.7661C166.543 86.7661 166.403 86.6462 166.389 86.4885C166.376 86.323 166.508 86.1783 166.684 86.1656C167.292 86.1212 169.021 85.879 169.716 85.296C169.865 85.1706 170.014 85.0365 170.046 84.8948C170.08 84.7441 169.991 84.5586 169.88 84.349L166.619 78.1784C166.54 78.0298 166.605 77.8491 166.764 77.7754C166.923 77.7017 167.115 77.7627 167.194 77.9113L170.455 84.082C170.575 84.3085 170.756 84.6517 170.673 85.019C170.601 85.3386 170.362 85.5609 170.143 85.7445C169.144 86.5825 166.832 86.7586 166.734 86.7655C166.726 86.7658 166.717 86.7661 166.709 86.7661Z" fill="#1F212C"/>
<path d="M160.955 80.4578C161.072 81.2477 161.788 81.8071 162.555 81.7074C163.322 81.6077 163.849 80.8867 163.733 80.0971C163.616 79.3072 162.9 78.7478 162.132 78.8474C161.365 78.9471 160.838 79.6681 160.955 80.4578Z" fill="#1F212C"/>
<path d="M171.002 79.6082C171.119 80.3981 171.835 80.9575 172.602 80.8578C173.369 80.7581 173.896 80.0371 173.78 79.2475C173.663 78.4576 172.946 77.8981 172.179 77.9978C171.412 78.0975 170.885 78.8185 171.002 79.6082Z" fill="#1F212C"/>
<path d="M164.847 92.7677C164.338 92.7677 163.814 92.6822 163.306 92.5082C162.25 92.1473 161.277 91.4501 160.329 90.3771C160.216 90.2491 160.235 90.0597 160.371 89.9539C160.507 89.8482 160.71 89.8654 160.822 89.9935C161.696 90.9822 162.58 91.6198 163.526 91.9437C164.653 92.3285 165.859 92.2107 166.675 91.6331C166.817 91.5331 167.017 91.5591 167.124 91.6917C167.231 91.8243 167.203 92.0128 167.061 92.1131C166.452 92.5448 165.669 92.7677 164.847 92.7677Z" fill="#1F212C"/>
<path d="M159.314 78.4008C159.235 78.4008 159.156 78.3739 159.095 78.319C158.965 78.2054 158.959 78.0151 159.081 77.8942C160.256 76.7231 162.136 76.2824 163.762 76.7956C163.93 76.8488 164.02 77.0195 163.963 77.1768C163.907 77.3339 163.728 77.4197 163.557 77.3656C162.188 76.9316 160.539 77.3185 159.548 78.306C159.485 78.3691 159.399 78.4008 159.314 78.4008Z" fill="#1F212C"/>
<path d="M168.842 77.3582C168.763 77.3582 168.684 77.3314 168.622 77.2764C168.493 77.1628 168.487 76.9725 168.608 76.8517C169.783 75.6806 171.664 75.2389 173.289 75.7531C173.457 75.8062 173.547 75.9769 173.491 76.1343C173.434 76.2913 173.254 76.3771 173.084 76.3231C171.715 75.8893 170.066 76.2762 169.075 77.2634C169.012 77.3268 168.927 77.3582 168.842 77.3582Z" fill="#1F212C"/>
<path d="M266.117 61.8921H251.662C251.485 61.8921 251.341 61.7574 251.341 61.5916C251.341 61.4257 251.485 61.291 251.662 61.291H266.117C266.295 61.291 266.438 61.4257 266.438 61.5916C266.438 61.7574 266.295 61.8921 266.117 61.8921Z" fill="#FF4301"/>
<path d="M245.632 61.8921H240.81C240.633 61.8921 240.49 61.7574 240.49 61.5916C240.49 61.4257 240.633 61.291 240.81 61.291H245.632C245.809 61.291 245.952 61.4257 245.952 61.5916C245.952 61.7574 245.809 61.8921 245.632 61.8921Z" fill="#367AFF"/>
<path d="M238.798 61.8921H219.572C219.395 61.8921 219.251 61.7574 219.251 61.5916C219.251 61.4257 219.395 61.291 219.572 61.291H238.798C238.976 61.291 239.119 61.4257 239.119 61.5916C239.119 61.7574 238.976 61.8921 238.798 61.8921Z" fill="white"/>
<path d="M213.476 61.8921H202.264C202.086 61.8921 201.943 61.7574 201.943 61.5916C201.943 61.4257 202.086 61.291 202.264 61.291H213.475C213.652 61.291 213.796 61.4257 213.796 61.5916C213.796 61.7574 213.653 61.8921 213.476 61.8921Z" fill="#367AFF"/>
<path d="M265.566 68.3163H238.986C238.809 68.3163 238.665 68.1815 238.665 68.0154C238.665 67.8496 238.809 67.7148 238.986 67.7148H265.566C265.743 67.7148 265.887 67.8496 265.887 68.0154C265.887 68.1815 265.743 68.3163 265.566 68.3163Z" fill="white"/>
<path d="M235.201 68.3163H221.326C221.149 68.3163 221.005 68.1815 221.005 68.0154C221.005 67.8496 221.149 67.7148 221.326 67.7148H235.201C235.378 67.7148 235.522 67.8496 235.522 68.0154C235.522 68.1815 235.378 68.3163 235.201 68.3163Z" fill="#FF4301"/>
<path d="M218.731 68.3163H201.713C201.536 68.3163 201.392 68.1815 201.392 68.0154C201.392 67.8496 201.536 67.7148 201.713 67.7148H218.731C218.908 67.7148 219.051 67.8496 219.051 68.0154C219.052 68.1815 218.908 68.3163 218.731 68.3163Z" fill="#367AFF"/>
<path d="M265.017 74.7359H252.275C252.098 74.7359 251.954 74.6012 251.954 74.4353C251.954 74.2692 252.098 74.1348 252.275 74.1348H265.017C265.194 74.1348 265.337 74.2695 265.337 74.4353C265.338 74.6012 265.194 74.7359 265.017 74.7359Z" fill="white"/>
<path d="M244.091 74.7359H226.408C226.231 74.7359 226.087 74.6012 226.087 74.4353C226.087 74.2692 226.231 74.1348 226.408 74.1348H244.091C244.269 74.1348 244.412 74.2695 244.412 74.4353C244.412 74.6012 244.269 74.7359 244.091 74.7359Z" fill="white"/>
<path d="M226.408 74.7359H225.06C224.883 74.7359 224.74 74.6012 224.74 74.4353C224.74 74.2692 224.883 74.1348 225.06 74.1348H226.408C226.585 74.1348 226.729 74.2695 226.729 74.4353C226.729 74.6012 226.586 74.7359 226.408 74.7359Z" fill="white"/>
<path d="M221.868 74.7359H216.88C216.704 74.7359 216.56 74.6012 216.56 74.4353C216.56 74.2692 216.704 74.1348 216.88 74.1348H221.868C222.045 74.1348 222.188 74.2695 222.188 74.4353C222.188 74.6012 222.045 74.7359 221.868 74.7359Z" fill="white"/>
<path d="M213.47 74.7359H201.162C200.985 74.7359 200.841 74.6012 200.841 74.4353C200.841 74.2692 200.985 74.1348 201.162 74.1348H213.47C213.647 74.1348 213.791 74.2695 213.791 74.4353C213.791 74.6012 213.647 74.7359 213.47 74.7359Z" fill="white"/>
<path d="M264.473 81.1597H245.416C245.238 81.1597 245.095 81.025 245.095 80.8592C245.095 80.693 245.239 80.5586 245.416 80.5586H264.473C264.65 80.5586 264.793 80.6933 264.793 80.8592C264.793 81.025 264.65 81.1597 264.473 81.1597Z" fill="#FF4301"/>
<path d="M241.448 81.1597H234.111C233.934 81.1597 233.79 81.025 233.79 80.8592C233.79 80.693 233.934 80.5586 234.111 80.5586H241.448C241.625 80.5586 241.768 80.6933 241.768 80.8592C241.768 81.025 241.625 81.1597 241.448 81.1597Z" fill="#367AFF"/>
<path d="M227.638 81.1597H215.025C214.848 81.1597 214.704 81.025 214.704 80.8592C214.704 80.693 214.848 80.5586 215.025 80.5586H227.638C227.815 80.5586 227.958 80.6933 227.958 80.8592C227.958 81.025 227.815 81.1597 227.638 81.1597Z" fill="white"/>
<path d="M207.636 81.1597H200.611C200.434 81.1597 200.29 81.025 200.29 80.8592C200.29 80.693 200.434 80.5586 200.611 80.5586H207.636C207.813 80.5586 207.957 80.6933 207.957 80.8592C207.957 81.025 207.813 81.1597 207.636 81.1597Z" fill="#FF4301"/>
<path d="M263.922 87.5835H257.611C257.434 87.5835 257.29 87.4488 257.29 87.283C257.29 87.1172 257.434 86.9824 257.611 86.9824H263.922C264.099 86.9824 264.243 87.1172 264.243 87.283C264.243 87.4488 264.099 87.5835 263.922 87.5835Z" fill="white"/>
<path d="M251.298 87.5835H240.607C240.43 87.5835 240.286 87.4488 240.286 87.283C240.286 87.1172 240.43 86.9824 240.607 86.9824H251.298C251.475 86.9824 251.619 87.1172 251.619 87.283C251.619 87.4488 251.475 87.5835 251.298 87.5835Z" fill="white"/>
<path d="M235.56 87.5835H221.326C221.149 87.5835 221.005 87.4488 221.005 87.283C221.005 87.1172 221.149 86.9824 221.326 86.9824H235.56C235.738 86.9824 235.881 87.1172 235.881 87.283C235.881 87.4488 235.737 87.5835 235.56 87.5835Z" fill="white"/>
<path d="M216.101 87.5835H200.064C199.887 87.5835 199.744 87.4488 199.744 87.283C199.744 87.1172 199.887 86.9824 200.064 86.9824H216.101C216.278 86.9824 216.422 87.1172 216.422 87.283C216.422 87.4488 216.278 87.5835 216.101 87.5835Z" fill="white"/>
<path d="M263.37 94.0057H248.052C247.875 94.0057 247.732 93.871 247.732 93.7049C247.732 93.539 247.875 93.4043 248.052 93.4043H263.37C263.547 93.4043 263.691 93.539 263.691 93.7049C263.69 93.871 263.547 94.0057 263.37 94.0057Z" fill="#367AFF"/>
<path d="M243.253 94.0057H230.49C230.313 94.0057 230.169 93.871 230.169 93.7049C230.169 93.539 230.313 93.4043 230.49 93.4043H243.253C243.43 93.4043 243.573 93.539 243.573 93.7049C243.573 93.871 243.43 94.0057 243.253 94.0057Z" fill="white"/>
<path d="M225.83 94.0057H213.158C212.981 94.0057 212.837 93.871 212.837 93.7049C212.837 93.539 212.981 93.4043 213.158 93.4043H225.83C226.008 93.4043 226.151 93.539 226.151 93.7049C226.151 93.871 226.008 94.0057 225.83 94.0057Z" fill="white"/>
<path d="M207.865 94.0057H199.517C199.34 94.0057 199.197 93.871 199.197 93.7049C199.197 93.539 199.34 93.4043 199.517 93.4043H207.865C208.042 93.4043 208.185 93.539 208.185 93.7049C208.185 93.871 208.042 94.0057 207.865 94.0057Z" fill="#FF4301"/>
<path d="M119.848 84.1767C119.848 92.2265 112.89 98.7523 104.305 98.7523H58.9088C51.8705 98.7523 46.1654 93.403 46.1654 86.8062C46.1654 80.207 51.8705 74.8577 58.9088 74.8577C60.1739 74.8577 61.3949 75.0313 62.5479 75.3543C63.5417 66.791 71.9704 60.1035 82.2173 60.1035C90.2468 60.1035 97.1572 64.2104 100.251 70.1052C101.542 69.7775 102.902 69.6038 104.305 69.6038C112.89 69.6035 119.848 76.1294 119.848 84.1767Z" fill="white"/>
<path d="M104.302 99.0533H58.9054C51.7016 99.0533 45.8412 93.5596 45.8412 86.8066C45.8412 80.0521 51.7016 74.5572 58.9054 74.5572C60.0475 74.5572 61.1779 74.6958 62.2707 74.9695C63.482 66.2978 71.9841 59.8027 82.2143 59.8027C90.0077 59.8027 97.1219 63.7 100.419 69.7528C101.679 69.4541 102.984 69.303 104.302 69.303C113.049 69.303 120.165 75.9757 120.165 84.1771C120.165 92.3797 113.049 99.0533 104.302 99.0533ZM58.9054 75.1586C52.0553 75.1586 46.4826 80.3837 46.4826 86.8066C46.4826 93.2279 52.0553 98.4519 58.9054 98.4519H104.302C112.695 98.4519 119.524 92.0483 119.524 84.1771C119.524 76.3074 112.695 69.9045 104.302 69.9045C102.951 69.9045 101.616 70.0697 100.332 70.3953C100.184 70.4346 100.028 70.3672 99.9605 70.2379C96.8246 64.2643 89.8588 60.4041 82.2143 60.4041C72.1739 60.4041 63.8551 66.8454 62.8631 75.3867C62.8532 75.4755 62.8013 75.5555 62.722 75.6047C62.6421 75.654 62.5432 75.667 62.4527 75.6422C61.3068 75.3214 60.1132 75.1586 58.9054 75.1586Z" fill="#1F212C"/>
<path d="M95.4431 74.5463C95.3951 74.5463 95.3458 74.536 95.2997 74.5146C95.1415 74.4403 95.0771 74.2593 95.1564 74.111C96.6441 71.3278 99.7484 69.4399 103.064 69.3012C103.221 69.2924 103.391 69.4217 103.399 69.5882C103.407 69.754 103.27 69.8945 103.093 69.9017C100.053 70.0289 97.0938 71.8283 95.7298 74.3801C95.6741 74.4856 95.561 74.5463 95.4431 74.5463Z" fill="#1F212C"/>
<path d="M63.9105 79.6484C63.8061 79.6484 63.7037 79.601 63.6425 79.5134C62.599 78.0287 62.1251 76.1644 62.3419 74.3973C62.3619 74.2324 62.5172 74.1133 62.6973 74.133C62.8732 74.152 62.9991 74.3009 62.9792 74.4662C62.7791 76.0949 63.2163 77.8137 64.1779 79.182C64.2755 79.321 64.2346 79.5073 64.0867 79.5986C64.0323 79.6324 63.9711 79.6484 63.9105 79.6484Z" fill="#1F212C"/>
<path d="M102.046 45.2609C103.012 47.3146 102.019 49.7143 99.8291 50.6202C97.6387 51.5261 95.0795 50.5957 94.1133 48.5419C93.1472 46.4882 94.1394 44.0886 96.3298 43.1827C98.5205 42.2768 101.079 43.2071 102.046 45.2609Z" fill="#367AFF"/>
<path d="M98.0884 51.2658C96.2988 51.2658 94.5891 50.2932 93.8217 48.6623C93.3198 47.5954 93.2911 46.4092 93.7408 45.3224C94.1906 44.2352 95.0646 43.3773 96.2025 42.9067C97.34 42.4364 98.6048 42.4092 99.7652 42.8309C100.925 43.2526 101.84 44.0721 102.342 45.139C103.377 47.3408 102.309 49.9228 99.9611 50.8952C99.3516 51.1465 98.715 51.2658 98.0884 51.2658ZM98.0803 43.1348C97.5294 43.1348 96.9802 43.242 96.4612 43.4571C94.4361 44.2947 93.5153 46.5207 94.4087 48.4197C95.3017 50.3185 97.6763 51.1821 99.7018 50.3445C101.727 49.5066 102.647 47.28 101.754 45.3816C101.321 44.4618 100.533 43.7549 99.5326 43.3915C99.062 43.22 98.5707 43.1348 98.0803 43.1348Z" fill="#1F212C"/>
<path d="M174.339 22.9837C175.305 25.0375 174.312 27.4371 172.122 28.343C169.932 29.2489 167.372 28.3185 166.406 26.2648C165.44 24.211 166.432 21.8114 168.623 20.9055C170.813 19.9993 173.372 20.9297 174.339 22.9837Z" fill="#FF4301"/>
<path d="M170.369 28.993C169.8 28.993 169.231 28.8939 168.684 28.6955C167.525 28.2738 166.61 27.4543 166.108 26.3874C165.072 24.185 166.14 21.603 168.489 20.6312C169.627 20.1609 170.891 20.134 172.051 20.5554C173.211 20.9771 174.125 21.7969 174.627 22.8635C175.663 25.0659 174.595 27.6482 172.247 28.6197C171.645 28.8683 171.008 28.993 170.369 28.993ZM170.362 20.8617C169.822 20.8617 169.273 20.9647 168.748 21.1819C166.723 22.0192 165.802 24.2457 166.695 26.1448C167.588 28.0436 169.963 28.9066 171.988 28.069C172.969 27.6633 173.723 26.9239 174.111 25.9863C174.498 25.0489 174.473 24.0258 174.04 23.1064C173.379 21.6999 171.905 20.8617 170.362 20.8617Z" fill="#1F212C"/>
<path d="M72.4871 86.0267L71.2903 89.4259H69.7513L73.6672 78.6191H75.4626L79.3955 89.4259H77.8053L76.574 86.0267H72.4871ZM76.2664 84.9363L75.1379 81.8256C74.8814 81.12 74.7103 80.4787 74.5396 79.8534H74.5054C74.3344 80.4947 74.1462 81.152 73.924 81.8093L72.7954 84.936H76.2664V84.9363Z" fill="#FF4301"/>
<path d="M81.0912 78.7475C81.8093 78.6354 82.7503 78.5391 83.9475 78.5391C85.4181 78.5391 86.4954 78.8596 87.1794 79.4368C87.8121 79.95 88.188 80.7354 88.188 81.6978C88.188 82.6759 87.8804 83.4452 87.2986 84.0065C86.5122 84.7921 85.2297 85.1927 83.7761 85.1927C83.3315 85.1927 82.9207 85.1767 82.5789 85.0966V89.4255H81.0912V78.7475ZM82.5789 83.9584C82.9037 84.0388 83.3144 84.0708 83.8102 84.0708C85.6056 84.0708 86.7003 83.2528 86.7003 81.7615C86.7003 80.3348 85.623 79.6452 83.9816 79.6452C83.3315 79.6452 82.8357 79.693 82.5789 79.7573V83.9584Z" fill="#FF4301"/>
<path d="M91.6844 78.6191V89.4259H90.1967V78.6191H91.6844Z" fill="#FF4301"/>
<path d="M253.181 186.764L249.936 186.16C249.52 184.82 248.954 183.54 248.25 182.339L250.087 179.765C250.691 178.92 250.573 177.795 249.808 177.078L245.842 173.362C245.077 172.642 243.877 172.531 242.976 173.098L240.231 174.821C238.951 174.16 237.585 173.63 236.155 173.24L235.512 170.196C235.301 169.201 234.369 168.484 233.286 168.484H227.68C226.597 168.484 225.668 169.201 225.457 170.196L224.812 173.24C223.382 173.63 222.017 174.161 220.737 174.821L217.989 173.098C217.089 172.532 215.892 172.642 215.124 173.362L211.161 177.078C210.396 177.795 210.279 178.92 210.879 179.765L212.718 182.339C212.014 183.539 211.448 184.82 211.032 186.16L207.788 186.764C206.727 186.961 205.962 187.836 205.962 188.851V194.107C205.962 195.123 206.727 195.997 207.788 196.191L211.032 196.796C211.448 198.137 212.014 199.418 212.718 200.618L210.879 203.194C210.279 204.038 210.397 205.16 211.162 205.881L215.124 209.596C215.893 210.313 217.089 210.424 217.99 209.861L220.738 208.137C222.018 208.797 223.383 209.327 224.812 209.718L225.458 212.759C225.668 213.754 226.598 214.474 227.68 214.474H233.287C234.369 214.474 235.302 213.754 235.513 212.759L236.156 209.718C237.585 209.328 238.951 208.797 240.231 208.137L242.977 209.861C243.877 210.423 245.078 210.313 245.842 209.596L249.809 205.881C250.573 205.16 250.691 204.038 250.087 203.194L248.25 200.619C248.954 199.418 249.52 198.137 249.936 196.796L253.182 196.191C254.243 195.997 255.008 195.122 255.008 194.107V188.851C255.007 187.836 254.242 186.961 253.181 186.764Z" fill="#367AFF"/>
<path d="M233.283 214.778H227.677C226.447 214.778 225.38 213.955 225.14 212.821L224.532 209.958C223.217 209.586 221.947 209.094 220.752 208.492L218.165 210.114C217.142 210.753 215.766 210.627 214.894 209.812L210.931 206.097C210.063 205.278 209.927 203.989 210.609 203.03L212.34 200.605C211.697 199.483 211.171 198.291 210.776 197.06L207.722 196.49C206.515 196.269 205.638 195.268 205.638 194.111V188.855C205.638 187.699 206.515 186.697 207.722 186.472L210.776 185.904C211.172 184.672 211.698 183.481 212.34 182.359L210.609 179.935C209.926 178.974 210.061 177.685 210.931 176.869L214.894 173.153C215.767 172.335 217.142 172.209 218.165 172.851L220.751 174.473C221.948 173.87 223.218 173.378 224.532 173.007L225.14 170.142C225.38 169.009 226.447 168.188 227.677 168.188H233.283C234.515 168.188 235.584 169.009 235.824 170.142L236.43 173.006C237.745 173.378 239.015 173.871 240.211 174.474L242.796 172.852C243.82 172.207 245.197 172.334 246.067 173.154L250.033 176.869C250.904 177.686 251.038 178.976 250.351 179.936L248.622 182.36C249.265 183.482 249.791 184.672 250.186 185.905L253.242 186.473C254.449 186.698 255.326 187.7 255.326 188.855V194.112C255.326 195.269 254.449 196.269 253.241 196.491L250.187 197.061C249.79 198.294 249.265 199.485 248.622 200.607L250.351 203.031C251.036 203.988 250.902 205.278 250.033 206.097L246.067 209.813C245.196 210.628 243.821 210.756 242.796 210.115L240.211 208.493C239.015 209.095 237.745 209.588 236.43 209.959L235.824 212.821C235.584 213.955 234.515 214.778 233.283 214.778ZM220.735 207.84C220.788 207.84 220.841 207.852 220.889 207.877C222.15 208.527 223.499 209.05 224.899 209.433C225.013 209.464 225.1 209.553 225.123 209.663L225.769 212.703C225.95 213.557 226.752 214.177 227.677 214.177H233.283C234.21 214.177 235.014 213.557 235.195 212.703L235.838 209.663C235.861 209.553 235.948 209.464 236.063 209.433C237.463 209.05 238.812 208.527 240.073 207.877C240.178 207.823 240.306 207.829 240.406 207.891L243.152 209.614C243.924 210.096 244.958 210 245.613 209.386L249.579 205.671C250.232 205.055 250.333 204.085 249.818 203.364L247.98 200.789C247.914 200.696 247.908 200.575 247.966 200.477C248.66 199.294 249.218 198.028 249.626 196.715C249.659 196.607 249.754 196.526 249.871 196.505L253.116 195.9C254.025 195.733 254.684 194.981 254.684 194.111V188.854C254.684 187.984 254.025 187.231 253.117 187.061L249.872 186.458C249.755 186.437 249.66 186.355 249.626 186.248C249.219 184.936 248.661 183.671 247.967 182.487C247.909 182.389 247.915 182.268 247.981 182.175L249.818 179.601C250.335 178.879 250.235 177.908 249.58 177.294L245.613 173.578C244.958 172.961 243.923 172.866 243.153 173.351L240.407 175.074C240.307 175.136 240.179 175.142 240.074 175.087C238.813 174.437 237.463 173.913 236.064 173.531C235.949 173.5 235.862 173.411 235.839 173.301L235.196 170.258C235.015 169.407 234.211 168.788 233.284 168.788H227.678C226.753 168.788 225.95 169.407 225.77 170.258L225.124 173.302C225.101 173.412 225.014 173.5 224.9 173.532C223.501 173.913 222.152 174.437 220.889 175.087C220.784 175.141 220.657 175.136 220.557 175.073L217.809 173.351C217.04 172.867 216.004 172.963 215.348 173.578L211.386 177.294C210.731 177.907 210.63 178.878 211.143 179.601L212.982 182.175C213.049 182.268 213.054 182.388 212.997 182.487C212.303 183.67 211.745 184.936 211.337 186.247C211.304 186.355 211.209 186.437 211.092 186.458L207.848 187.061C206.94 187.231 206.28 187.984 206.28 188.854V194.111C206.28 194.981 206.939 195.733 207.847 195.899L211.092 196.505C211.209 196.527 211.304 196.608 211.337 196.715C211.744 198.027 212.302 199.292 212.996 200.476C213.054 200.574 213.048 200.694 212.982 200.788L211.143 203.363C210.631 204.085 210.733 205.056 211.386 205.671L215.348 209.386C216.005 209.998 217.04 210.094 217.809 209.613L220.557 207.891C220.61 207.857 220.673 207.84 220.735 207.84Z" fill="#1F212C"/>
<path d="M230.484 204.416C238.103 204.416 244.279 198.625 244.279 191.481C244.279 184.338 238.103 178.547 230.484 178.547C222.865 178.547 216.689 184.338 216.689 191.481C216.689 198.625 222.865 204.416 230.484 204.416Z" fill="white"/>
<path d="M230.488 204.715C222.705 204.715 216.372 198.778 216.372 191.48C216.372 184.182 222.705 178.244 230.488 178.244C238.272 178.244 244.604 184.182 244.604 191.48C244.604 198.778 238.272 204.715 230.488 204.715ZM230.488 178.846C223.059 178.846 217.014 184.513 217.014 191.48C217.014 198.446 223.059 204.114 230.488 204.114C237.918 204.114 243.963 198.446 243.963 191.48C243.963 184.513 237.918 178.846 230.488 178.846Z" fill="#1F212C"/>
<path d="M221.247 191.593L227.36 188.641V189.493L222.209 191.914V191.939L227.36 194.359V195.212L221.247 192.26V191.593Z" fill="#FF4301"/>
<path d="M228.212 195.707L231.888 186.752H232.783L229.095 195.707H228.212Z" fill="#FF4301"/>
<path d="M239.723 192.272L233.611 195.212V194.359L238.801 191.939V191.914L233.611 189.493V188.641L239.723 191.58V192.272Z" fill="#FF4301"/>
<defs>
<linearGradient id="paint0_linear_1_18758" x1="160.333" y1="0" x2="160.333" y2="220" gradientUnits="userSpaceOnUse">
<stop stop-color="#FFF6FB"/>
<stop offset="1" stop-color="white" stop-opacity="0.4"/>
</linearGradient>
</defs>
</svg>
