<?xml version="1.0" encoding="UTF-8"?>
<svg version="1.1" xmlns="http://www.w3.org/2000/svg" width="212" height="212">
<path d="M0 0 C69.96 0 139.92 0 212 0 C212 69.96 212 139.92 212 212 C142.04 212 72.08 212 0 212 C0 142.04 0 72.08 0 0 Z " fill="#F1F1F1" transform="translate(0,0)"/>
<path d="M0 0 C2.2451775 -0.00964423 4.48941446 -0.04066037 6.734375 -0.07226562 C19.55748325 -0.16872891 29.21683754 1.66066735 39.1484375 10.24023438 C47.76480937 18.97193053 50.57796407 28.66471252 50.53042603 40.72409058 C50.49970327 42.95908656 50.44964683 45.19312339 50.3984375 47.42773438 C50.37832567 48.96742448 50.36008324 50.50714018 50.34375 52.046875 C50.30016211 55.77853645 50.23139866 59.50921596 50.1484375 63.24023438 C51.4684375 63.57023437 52.7884375 63.90023437 54.1484375 64.24023438 C54.54711858 71.31313199 53.71690567 76.67980965 51.1484375 83.24023438 C50.79652344 84.28695312 50.44460937 85.33367187 50.08203125 86.41210938 C46.98140223 95.29443937 43.04295148 101.91264825 35.1484375 107.24023438 C34.4884375 107.24023438 33.8284375 107.24023438 33.1484375 107.24023438 C32.9421875 107.94148438 32.7359375 108.64273438 32.5234375 109.36523438 C31.14482871 112.24778002 30.27945055 113.04410955 27.8984375 114.99023438 C26.24633994 116.44386056 26.24633994 116.44386056 25.1484375 118.24023438 C25.06993191 121.48915816 26.05079834 124.21013192 27.1484375 127.24023438 C27.35082031 127.93632812 27.55320312 128.63242188 27.76171875 129.34960938 C29.66273644 135.36755496 32.82638472 140.15242054 38.23217773 143.54980469 C44.86086428 146.95195653 51.38304343 148.75718691 58.6484375 150.30273438 C68.72810316 152.48360749 78.89433111 154.7238346 87.1484375 161.24023438 C87.1484375 161.90023437 87.1484375 162.56023437 87.1484375 163.24023438 C88.1384375 163.57023438 89.1284375 163.90023437 90.1484375 164.24023438 C96.19284068 171.58888232 101.1484375 181.56830981 101.1484375 191.24023438 C36.7984375 191.24023438 -27.5515625 191.24023438 -93.8515625 191.24023438 C-92.12243087 177.40718134 -87.87014647 168.49711924 -77.48828125 159.06445312 C-70.75080567 154.40311817 -63.33202949 152.3980242 -55.4140625 150.67773438 C-36.66264322 146.78381429 -36.66264322 146.78381429 -22.8515625 134.24023438 C-21.48062352 131.63651305 -20.5952009 129.0829372 -19.8515625 126.24023438 C-19.53251953 125.12068359 -19.53251953 125.12068359 -19.20703125 123.97851562 C-18.69754663 121.53878847 -18.47796345 119.70865667 -18.8515625 117.24023438 C-20.78448207 114.40339065 -23.20449414 112.39710489 -25.8515625 110.24023438 C-27.51822917 108.57356771 -29.18489583 106.90690104 -30.8515625 105.24023438 C-31.686875 104.49193359 -31.686875 104.49193359 -32.5390625 103.72851562 C-41.09846305 95.81475951 -45.96276612 83.6470831 -47.8515625 72.24023438 C-48.07378472 65.68467882 -48.07378472 65.68467882 -46.8515625 63.24023438 C-45.8615625 63.24023438 -44.8715625 63.24023438 -43.8515625 63.24023438 C-43.87250977 62.39952393 -43.89345703 61.55881348 -43.91503906 60.69262695 C-43.98410627 57.5074486 -44.03378824 54.32265761 -44.07128906 51.13696289 C-44.09113517 49.77062247 -44.11822164 48.40436379 -44.15332031 47.03833008 C-44.44938076 35.20026618 -43.44806519 23.42363205 -35.546875 14.01367188 C-24.57307019 2.53416178 -15.56858019 0.04040289 0 0 Z " fill="#FDB78F" transform="translate(102.8515625,20.759765625)"/>
<path d="M0 0 C1.90356445 1.54711914 1.90356445 1.54711914 3.86328125 3.53515625 C4.94706055 4.62666992 4.94706055 4.62666992 6.05273438 5.74023438 C6.79845703 6.50658203 7.54417969 7.27292969 8.3125 8.0625 C9.04662109 8.80177734 9.78074219 9.54105469 10.53710938 10.30273438 C14.62857021 14.45228161 18.53461143 18.71190793 22.34106445 23.12280273 C24.9182514 26.03906329 27.66404379 28.7717821 30.4375 31.5 C30.97826172 32.03625 31.51902344 32.5725 32.07617188 33.125 C33.38176617 34.41904036 34.69052996 35.70988174 36 37 C41.03948358 32.82185673 45.5677661 28.43553711 50 23.625 C50.64227539 22.94324707 51.28455078 22.26149414 51.94628906 21.55908203 C55.38289131 17.89922606 58.70858688 14.18600451 61.921875 10.328125 C62.88480469 9.20929932 62.88480469 9.20929932 63.8671875 8.06787109 C65.09513156 6.63771114 66.2949517 5.18276826 67.4609375 3.70166016 C69.22749333 1.67848991 70.63073101 0.27215781 73 -1 C76.88383292 -1.10969984 80.29223614 -0.0751961 84 1 C85.96551468 1.42951709 87.93301881 1.85002448 89.90234375 2.26171875 C112.29389911 7.4430545 112.29389911 7.4430545 120 14 C120 14.66 120 15.32 120 16 C120.99 16.33 121.98 16.66 123 17 C129.04440318 24.34864795 134 34.32807543 134 44 C69.65 44 5.3 44 -61 44 C-59.27086837 30.16694697 -55.01858397 21.25688487 -44.63671875 11.82421875 C-37.86891617 7.141902 -30.38698252 5.12492229 -22.4375 3.375 C-20.64445273 2.96649031 -18.85148277 2.55764114 -17.05859375 2.1484375 C-16.20378418 1.95862305 -15.34897461 1.76880859 -14.46826172 1.57324219 C-12.15803065 1.03670188 -9.88328918 0.42063985 -7.59765625 -0.2109375 C-3.12214285 -1.19253762 -3.12214285 -1.19253762 0 0 Z " fill="#30945A" transform="translate(70,168)"/>
<path d="M0 0 C2.20107236 0.01605734 4.40030232 0.0001027 6.60131836 -0.01904297 C19.2884804 -0.03963567 28.95723603 1.91313318 38.77124023 10.39111328 C48.71949033 20.47251395 50.48123865 31.91268212 50.40258789 45.47265625 C50.39618915 47.78457041 50.44359779 50.09153376 50.49389648 52.40283203 C50.49843675 53.88589857 50.49985212 55.36897871 50.49780273 56.85205078 C50.51622223 57.53544525 50.53464172 58.21883972 50.55361938 58.92294312 C50.50006047 61.69523406 50.26122083 63.80264961 48.45697021 65.96954346 C44.51119652 69.39111328 44.51119652 69.39111328 41.77124023 69.39111328 C37.15124023 56.19111328 32.53124023 42.99111328 27.77124023 29.39111328 C3.02124023 28.89611328 3.02124023 28.89611328 -22.22875977 28.39111328 C-23.21875977 32.35111328 -24.20875977 36.31111328 -25.22875977 40.39111328 C-25.91737111 42.57144432 -26.63904988 44.74218643 -27.42016602 46.89111328 C-28.00121094 48.49792969 -28.00121094 48.49792969 -28.59399414 50.13720703 C-28.9890918 51.21099609 -29.38418945 52.28478516 -29.79125977 53.39111328 C-30.19022461 54.49583984 -30.58918945 55.60056641 -31.00024414 56.73876953 C-34.19324173 65.51284973 -34.19324173 65.51284973 -36.22875977 69.39111328 C-39.14261324 68.0849031 -41.33870425 66.99338287 -43.22875977 64.39111328 C-43.539804 61.70711168 -43.67299762 59.25999631 -43.66235352 56.57470703 C-43.66759537 55.80361099 -43.67283722 55.03251495 -43.67823792 54.23805237 C-43.68466231 52.60313112 -43.68331567 50.96816367 -43.67480469 49.33325195 C-43.66637174 46.86143602 -43.69492003 44.39199309 -43.72680664 41.92041016 C-43.78774442 28.82608387 -41.85598883 20.30136555 -32.52172852 10.58642578 C-22.81389198 1.29204054 -13.0966814 -0.11359292 0 0 Z " fill="#21232E" transform="translate(103.228759765625,20.60888671875)"/>
<path d="M0 0 C0.556875 0.40992188 1.11375 0.81984375 1.6875 1.2421875 C9.28245461 6.60484126 16.59219217 9.32571825 26 8 C31.0012364 6.34379936 35.57952118 3.85192182 40 1 C39.65684983 7.69142831 35.97200202 12.97798833 31.375 17.65234375 C27.26427166 21.19784694 23.71615129 22.4928782 18.25390625 22.40234375 C12.98795271 21.46232085 8.68728021 18.10090958 5.390625 13.99609375 C2.58279656 9.64395966 0 5.26928427 0 0 Z " fill="#FFA977" transform="translate(86,140)"/>
<path d="M0 0 C0.33 0.66 0.66 1.32 1 2 C-1.49799463 9.46668339 -5.79191091 14.34778435 -12 19 C-12.66 18.67 -13.32 18.34 -14 18 C-12.35 13.05 -10.7 8.1 -9 3 C-6.36 3 -3.72 3 -1 3 C-0.67 2.01 -0.34 1.02 0 0 Z " fill="#312F38" transform="translate(151,108)"/>
<path d="M0 0 C1.485 0.99 1.485 0.99 3 2 C5.31 2 7.62 2 10 2 C11.32 7.28 12.64 12.56 14 18 C7.34111517 14.67055759 2.79450443 8.90406976 0 2 C0 1.34 0 0.68 0 0 Z " fill="#2C2B33" transform="translate(61,109)"/>
<path d="M0 0 C1.485 0.99 1.485 0.99 3 2 C6.96047946 2.33706208 9.59677126 2.09429461 13 0 C11.125 3.875 11.125 3.875 10 5 C3.66158537 5.4695122 3.66158537 5.4695122 1.0625 3.625 C0 2 0 2 0 0 Z " fill="#FFAB7A" transform="translate(100,115)"/>
</svg>
