<svg width="24" height="24" viewBox="0 0 24 24" fill="none" xmlns="http://www.w3.org/2000/svg">
<path d="M4 16.7885V18.6922C4 18.7692 4.03208 18.8397 4.09625 18.9037C4.16025 18.9679 4.23075 19 4.30775 19H19.6923C19.7693 19 19.8398 18.9679 19.9038 18.9037C19.9679 18.8397 20 18.7692 20 18.6922V16.7885H4ZM4.30775 6.51923H7.075C6.99167 6.36923 6.9295 6.21089 6.8885 6.04423C6.8475 5.87756 6.827 5.70256 6.827 5.51923C6.827 4.82056 7.069 4.22923 7.553 3.74523C8.037 3.26123 8.62833 3.01923 9.327 3.01923C9.74617 3.01923 10.1339 3.12814 10.4902 3.34598C10.8466 3.56381 11.1575 3.83439 11.423 4.15773L11.9808 4.90397L12.5385 4.15773C12.7937 3.82189 13.1025 3.54814 13.465 3.33648C13.8277 3.12498 14.2182 3.01923 14.6367 3.01923C15.3341 3.01923 15.9247 3.26123 16.4085 3.74523C16.8925 4.22923 17.1345 4.82056 17.1345 5.51923C17.1345 5.70256 17.1156 5.87756 17.0777 6.04423C17.0399 6.21089 16.9762 6.36923 16.8865 6.51923H19.6923C20.1974 6.51923 20.625 6.69423 20.975 7.04423C21.325 7.39423 21.5 7.82181 21.5 8.32698V18.6922C21.5 19.1974 21.325 19.625 20.975 19.975C20.625 20.325 20.1974 20.5 19.6923 20.5H4.30775C3.80258 20.5 3.375 20.325 3.025 19.975C2.675 19.625 2.5 19.1974 2.5 18.6922V8.32698C2.5 7.82181 2.675 7.39423 3.025 7.04423C3.375 6.69423 3.80258 6.51923 4.30775 6.51923ZM4 14.2115H20V8.32698C20 8.24998 19.9679 8.17948 19.9038 8.11548C19.8398 8.05131 19.7693 8.01923 19.6923 8.01923H14.2268L16.2693 10.8115L15.073 11.673L11.9808 7.47698L8.8885 11.673L7.69225 10.8115L9.704 8.01923H4.30775C4.23075 8.01923 4.16025 8.05131 4.09625 8.11548C4.03208 8.17948 4 8.24998 4 8.32698V14.2115ZM9.327 6.51923C9.61033 6.51923 9.84783 6.42339 10.0395 6.23173C10.2312 6.04006 10.327 5.80256 10.327 5.51923C10.327 5.23589 10.2312 4.99839 10.0395 4.80673C9.84783 4.61506 9.61033 4.51923 9.327 4.51923C9.04367 4.51923 8.80617 4.61506 8.6145 4.80673C8.42283 4.99839 8.327 5.23589 8.327 5.51923C8.327 5.80256 8.42283 6.04006 8.6145 6.23173C8.80617 6.42339 9.04367 6.51923 9.327 6.51923ZM14.6345 6.51923C14.9178 6.51923 15.1553 6.42339 15.347 6.23173C15.5387 6.04006 15.6345 5.80256 15.6345 5.51923C15.6345 5.23589 15.5387 4.99839 15.347 4.80673C15.1553 4.61506 14.9178 4.51923 14.6345 4.51923C14.3512 4.51923 14.1137 4.61506 13.922 4.80673C13.7303 4.99839 13.6345 5.23589 13.6345 5.51923C13.6345 5.80256 13.7303 6.04006 13.922 6.23173C14.1137 6.42339 14.3512 6.51923 14.6345 6.51923Z" fill="black"/>
</svg>
