<svg width="30" height="30" viewBox="0 0 30 30" fill="none" xmlns="http://www.w3.org/2000/svg">
<path d="M17.0108 15L12.2078 19.803L13.3931 21.0259L19.4194 15L13.3931 8.97413L12.2078 10.197L17.0108 15ZM15.0026 29.25C13.0316 29.25 11.179 28.876 9.44475 28.128C7.7105 27.38 6.202 26.3586 4.91925 25.0639C3.6365 23.7691 2.62087 22.2574 1.87237 20.5286C1.12412 18.8001 0.75 16.9581 0.75 15.0026C0.75 13.0316 1.124 11.179 1.872 9.44475C2.62 7.7105 3.63513 6.202 4.91738 4.91925C6.19963 3.6365 7.7075 2.62087 9.441 1.87237C11.1745 1.12412 13.0266 0.75 14.9974 0.75C16.9684 0.75 18.8148 1.124 20.5365 1.872C22.2583 2.62 23.7668 3.63513 25.062 4.91738C26.3573 6.19963 27.3791 7.7075 28.1276 9.441C28.8759 11.1745 29.25 13.0266 29.25 14.9974C29.25 16.9529 28.876 18.7954 28.128 20.5249C27.38 22.2544 26.3586 23.7668 25.0639 25.062C23.7691 26.3573 22.2613 27.3791 20.5403 28.1276C18.8193 28.8759 16.9734 29.25 15.0026 29.25Z" fill="#2F945A"/>
</svg>
