<svg width="41" height="40" viewBox="0 0 41 40" fill="none" xmlns="http://www.w3.org/2000/svg">
<path d="M23.2231 28.9907H26.2935L26.3098 28.8657L19.6431 21.7474L19.6848 21.6253H20.1014C21.6656 21.6253 22.9514 21.1884 23.9589 20.3145C24.9661 19.4406 25.5596 18.3498 25.7393 17.042H27.3739V15.3882H25.6952C25.6135 14.886 25.4498 14.4207 25.2039 13.9924C24.9581 13.5638 24.6504 13.1689 24.281 12.8078H27.3739V11.1541H14.1814V13.0645H20.0885C20.9924 13.0645 21.7349 13.2771 22.316 13.7024C22.8974 14.1274 23.2714 14.6894 23.4381 15.3882H14.1814V17.042H23.4797C23.3345 17.8006 22.9642 18.4187 22.3689 18.8962C21.7739 19.3737 20.9881 19.6124 20.0114 19.6124H16.5502V21.7503L23.2231 28.9907ZM20.7806 35.8337C18.5906 35.8337 16.5321 35.4181 14.6052 34.587C12.6782 33.7559 11.0021 32.628 9.57684 31.2032C8.15156 29.7785 7.02309 28.1031 6.19142 26.177C5.36003 24.2509 4.94434 22.193 4.94434 20.0032C4.94434 17.8132 5.35989 15.7548 6.191 13.8278C7.02211 11.9009 8.15003 10.2248 9.57475 8.79949C10.9995 7.37421 12.6749 6.24574 14.601 5.41408C16.5271 4.58269 18.585 4.16699 20.7748 4.16699C22.9648 4.16699 25.0232 4.58255 26.9502 5.41366C28.8771 6.24477 30.5532 7.37269 31.9785 8.79741C33.4038 10.2221 34.5323 11.8975 35.3639 13.8237C36.1953 15.7498 36.611 17.8077 36.611 19.9974C36.611 22.1874 36.1954 24.2459 35.3643 26.1728C34.5332 28.0998 33.4053 29.7759 31.9806 31.2012C30.5559 32.6264 28.8804 33.7549 26.9543 34.5866C25.0282 35.418 22.9703 35.8337 20.7806 35.8337ZM20.7777 33.3337C24.4999 33.3337 27.6527 32.042 30.236 29.4587C32.8193 26.8753 34.111 23.7225 34.111 20.0003C34.111 16.2781 32.8193 13.1253 30.236 10.542C27.6527 7.95866 24.4999 6.66699 20.7777 6.66699C17.0554 6.66699 13.9027 7.95866 11.3193 10.542C8.736 13.1253 7.44434 16.2781 7.44434 20.0003C7.44434 23.7225 8.736 26.8753 11.3193 29.4587C13.9027 32.042 17.0554 33.3337 20.7777 33.3337Z" fill="#2F945A"/>
</svg>
