<svg width="379" height="221" viewBox="0 0 379 221" fill="none" xmlns="http://www.w3.org/2000/svg">
<rect width="379" height="220" transform="translate(0 0.125)" fill="url(#paint0_linear_12717_66458)"/>
<path d="M164.097 156.203H142.305C142.136 156.203 142 156.067 142 155.899C142 155.73 142.136 155.594 142.305 155.594H164.097C164.266 155.594 164.402 155.73 164.402 155.899C164.402 156.067 164.265 156.203 164.097 156.203Z" fill="#2F945A"/>
<path d="M164.096 160.198H156.516C156.347 160.198 156.211 160.061 156.211 159.893C156.211 159.724 156.347 159.588 156.516 159.588H164.096C164.264 159.588 164.401 159.724 164.401 159.893C164.401 160.061 164.264 160.198 164.096 160.198Z" fill="#2F945A"/>
<path d="M222.189 147.168C220.512 147.168 219.148 145.804 219.148 144.128C219.148 142.452 220.512 141.088 222.189 141.088C223.865 141.088 225.228 142.452 225.228 144.128C225.228 145.804 223.865 147.168 222.189 147.168ZM222.189 141.698C220.848 141.698 219.758 142.788 219.758 144.128C219.758 145.468 220.848 146.558 222.189 146.558C223.528 146.558 224.619 145.468 224.619 144.128C224.619 142.788 223.528 141.698 222.189 141.698Z" fill="#2F945A"/>
<path d="M209.094 157.054H195.207C195.039 157.054 194.902 156.917 194.902 156.749C194.902 156.58 195.039 156.444 195.207 156.444H208.968L219.819 145.593C219.938 145.474 220.131 145.474 220.25 145.593C220.369 145.712 220.369 145.905 220.25 146.024L209.31 156.964C209.253 157.021 209.175 157.054 209.094 157.054Z" fill="#2F945A"/>
<path d="M200.446 61.6795C198.77 61.6795 197.406 60.3157 197.406 58.6397C197.406 56.9635 198.77 55.5996 200.446 55.5996C202.122 55.5996 203.486 56.9635 203.486 58.6397C203.486 60.3158 202.122 61.6795 200.446 61.6795ZM200.446 56.2092C199.106 56.2092 198.016 57.2995 198.016 58.6397C198.016 59.9796 199.106 61.0699 200.446 61.0699C201.786 61.0699 202.877 59.9796 202.877 58.6397C202.877 57.2995 201.786 56.2092 200.446 56.2092Z" fill="#2F945A"/>
<path d="M180.797 146.867C180.628 146.867 180.492 146.73 180.492 146.562V78.1513C180.492 78.0702 180.524 77.9928 180.581 77.9357L198.25 60.267C198.369 60.148 198.562 60.148 198.681 60.267C198.8 60.386 198.8 60.5789 198.681 60.698L181.102 78.2775V146.562C181.102 146.73 180.965 146.867 180.797 146.867Z" fill="#2F945A"/>
<path d="M169.717 149.772C169.548 149.772 169.412 149.636 169.412 149.467V109.532L148.593 88.7136C148.474 88.5946 148.474 88.4016 148.593 88.2826C148.712 88.1636 148.905 88.1636 149.024 88.2826L169.932 109.191C169.989 109.248 170.022 109.325 170.022 109.406V149.467C170.022 149.636 169.885 149.772 169.717 149.772Z" fill="#2F945A"/>
<path d="M146.642 89.8358C144.965 89.8358 143.602 88.4719 143.602 86.796C143.602 85.1197 144.965 83.7559 146.642 83.7559C148.318 83.7559 149.682 85.1197 149.682 86.796C149.682 88.4721 148.318 89.8358 146.642 89.8358ZM146.642 84.3655C145.301 84.3655 144.211 85.4558 144.211 86.796C144.211 88.1359 145.301 89.2262 146.642 89.2262C147.982 89.2262 149.072 88.1359 149.072 86.796C149.072 85.4558 147.982 84.3655 146.642 84.3655Z" fill="#2F945A"/>
<path d="M174.535 149.571C174.367 149.571 174.23 149.435 174.23 149.266V48.922C174.23 48.7535 174.367 48.6172 174.535 48.6172C174.704 48.6172 174.84 48.7535 174.84 48.922V149.266C174.84 149.435 174.704 149.571 174.535 149.571Z" fill="#2F945A"/>
<path d="M174.546 49.2254C172.864 49.2254 171.496 47.8571 171.496 46.1752C171.496 44.4933 172.864 43.125 174.546 43.125C176.228 43.125 177.597 44.4933 177.597 46.1752C177.597 47.8571 176.228 49.2254 174.546 49.2254ZM174.546 43.7346C173.201 43.7346 172.106 44.8296 172.106 46.1752C172.106 47.5208 173.201 48.6159 174.546 48.6159C175.892 48.6159 176.987 47.5209 176.987 46.1752C176.987 44.8295 175.892 43.7346 174.546 43.7346Z" fill="#2F945A"/>
<path d="M186.785 145.411C186.617 145.411 186.48 145.275 186.48 145.106V138.151C186.48 138.07 186.513 137.993 186.57 137.935L197.113 127.392C197.232 127.273 197.425 127.273 197.544 127.392C197.663 127.511 197.663 127.704 197.544 127.823L187.09 138.277V145.106C187.09 145.275 186.954 145.411 186.785 145.411Z" fill="#2F945A"/>
<path d="M166.231 145.107H191.677C193.576 145.107 195.115 146.647 195.115 148.546V173.992C195.115 175.89 193.576 177.43 191.677 177.43H166.231C164.332 177.43 162.793 175.89 162.793 173.992V148.546C162.793 146.647 164.332 145.107 166.231 145.107Z" fill="#367AFF"/>
<path d="M171.038 163.056L170.106 165.881H168.906L171.958 156.898H173.358L176.423 165.881H175.183L174.224 163.056H171.038ZM173.984 162.149L173.104 159.564C172.905 158.977 172.771 158.444 172.638 157.924H172.612C172.478 158.457 172.332 159.004 172.158 159.55L171.279 162.149H173.984V162.149Z" fill="white"/>
<path d="M177.742 157.007C178.302 156.914 179.035 156.834 179.968 156.834C181.115 156.834 181.954 157.1 182.487 157.58C182.98 158.007 183.273 158.66 183.273 159.46C183.273 160.273 183.034 160.912 182.58 161.379C181.967 162.032 180.968 162.365 179.835 162.365C179.488 162.365 179.168 162.351 178.902 162.285V165.883H177.742V157.007ZM178.902 161.339C179.155 161.406 179.475 161.432 179.861 161.432C181.261 161.432 182.114 160.752 182.114 159.513C182.114 158.327 181.274 157.753 179.995 157.753C179.488 157.753 179.102 157.793 178.902 157.847V161.339Z" fill="white"/>
<path d="M185.999 156.898V165.881H184.84V156.898H185.999Z" fill="white"/>
<path d="M191.677 177.735H166.231C164.167 177.735 162.488 176.056 162.488 173.992V148.545C162.488 146.482 164.167 144.803 166.231 144.803H191.677C193.741 144.803 195.42 146.482 195.42 148.545V173.992C195.42 176.056 193.741 177.735 191.677 177.735ZM166.231 145.412C164.503 145.412 163.098 146.818 163.098 148.545V173.992C163.098 175.72 164.503 177.125 166.231 177.125H191.677C193.405 177.125 194.811 175.72 194.811 173.992V148.545C194.811 146.818 193.405 145.412 191.677 145.412H166.231Z" fill="white"/>
<path d="M242.908 78.7886L257.384 86.0188L299.885 64.7759L257.384 43.5488L214.883 64.7917L242.908 78.7886Z" fill="white"/>
<path d="M257.387 141.525L299.888 120.282V64.791L271.596 78.9317L271.59 96.6553L257.387 103.915V141.525Z" fill="#2F945A"/>
<path d="M257.384 141.525L214.883 120.282V64.791L242.903 78.7962L243.181 96.8328L257.384 103.915V141.525Z" fill="white"/>
<path d="M257.387 141.83C257.331 141.83 257.275 141.815 257.227 141.785C257.137 141.729 257.082 141.631 257.082 141.525V104.546C257.082 104.378 257.218 104.241 257.387 104.241C257.555 104.241 257.692 104.378 257.692 104.546V141.032L299.583 120.094V65.2842L271.733 79.2046C271.582 79.2792 271.399 79.2188 271.324 79.0683C271.248 78.9177 271.309 78.7345 271.46 78.6593L299.751 64.5186C299.846 64.4713 299.958 64.4763 300.048 64.532C300.138 64.5877 300.193 64.6855 300.193 64.7912V120.283C300.193 120.398 300.127 120.504 300.024 120.555L257.523 141.798C257.48 141.819 257.433 141.83 257.387 141.83Z" fill="#2F945A"/>
<path d="M257.388 141.83C257.341 141.83 257.295 141.819 257.252 141.798L214.751 120.555C214.647 120.504 214.582 120.398 214.582 120.283V64.7911C214.582 64.6855 214.637 64.5875 214.727 64.5319C214.816 64.476 214.929 64.4715 215.023 64.5185L243.044 78.524C243.194 78.5993 243.255 78.7824 243.18 78.9329C243.105 79.0834 242.922 79.1443 242.771 79.0692L215.192 65.2844V120.094L257.083 141.032V103.915C257.083 103.746 257.22 103.61 257.388 103.61C257.557 103.61 257.693 103.746 257.693 103.915V141.525C257.693 141.631 257.638 141.729 257.548 141.785C257.499 141.815 257.443 141.83 257.388 141.83Z" fill="#2F945A"/>
<path d="M271.592 79.2249C271.48 79.2249 271.372 79.1633 271.319 79.0564C271.243 78.9059 271.304 78.7227 271.455 78.6475L299.207 64.776L257.388 43.8898L215.569 64.7917L243.048 78.5162C243.198 78.5915 243.26 78.7745 243.184 78.9251C243.109 79.0753 242.926 79.1364 242.775 79.0614L214.751 65.0643C214.647 65.0129 214.582 64.9072 214.582 64.7917C214.582 64.6763 214.647 64.5708 214.751 64.5191L257.252 43.2763C257.337 43.2334 257.438 43.2334 257.524 43.2763L300.025 64.5034C300.129 64.5548 300.194 64.6606 300.194 64.776C300.194 64.8914 300.129 64.9969 300.025 65.0486L271.727 79.1927C271.684 79.2144 271.637 79.2249 271.592 79.2249Z" fill="#2F945A"/>
<path d="M257.493 89.6767L243.301 96.8332V78.7815L257.493 71.625V89.6767Z" fill="#2F945A"/>
<path d="M229.09 127.687C228.921 127.687 228.785 127.551 228.785 127.382V71.8829C228.785 71.7144 228.921 71.5781 229.09 71.5781C229.258 71.5781 229.395 71.7144 229.395 71.8829V127.382C229.395 127.551 229.258 127.687 229.09 127.687Z" fill="#2F945A"/>
<path d="M243.18 134.778C243.011 134.778 242.875 134.642 242.875 134.473V78.92C242.875 78.7515 243.011 78.6152 243.18 78.6152C243.348 78.6152 243.485 78.7515 243.485 78.92V134.474C243.485 134.642 243.348 134.778 243.18 134.778Z" fill="#2F945A"/>
<path d="M257.276 122.657C257.231 122.657 257.184 122.647 257.14 122.625L214.856 101.493C214.706 101.418 214.644 101.235 214.72 101.084C214.795 100.934 214.978 100.873 215.129 100.948L257.413 122.08C257.563 122.155 257.624 122.338 257.549 122.489C257.496 122.596 257.388 122.657 257.276 122.657Z" fill="#2F945A"/>
<path d="M257.276 104.245C257.231 104.245 257.184 104.235 257.14 104.213L214.856 83.0812C214.706 83.0058 214.644 82.8228 214.72 82.6723C214.795 82.5216 214.978 82.4612 215.129 82.536L257.413 103.668C257.563 103.743 257.624 103.926 257.549 104.077C257.496 104.184 257.388 104.245 257.276 104.245Z" fill="#2F945A"/>
<path d="M257.25 89.6767L271.442 96.8332V78.7815L257.25 71.625V89.6767Z" fill="white"/>
<path d="M285.684 127.341C285.515 127.341 285.379 127.205 285.379 127.036V71.8575C285.379 71.689 285.515 71.5527 285.684 71.5527C285.852 71.5527 285.989 71.689 285.989 71.8575V127.036C285.988 127.205 285.852 127.341 285.684 127.341Z" fill="white"/>
<path d="M271.59 133.991C271.421 133.991 271.285 133.855 271.285 133.686V78.92C271.285 78.7515 271.421 78.6152 271.59 78.6152C271.758 78.6152 271.895 78.7515 271.895 78.92V133.686C271.895 133.855 271.758 133.991 271.59 133.991Z" fill="white"/>
<path d="M257.497 122.632C257.385 122.632 257.277 122.57 257.224 122.463C257.148 122.313 257.209 122.13 257.36 122.054L299.644 100.923C299.794 100.848 299.978 100.908 300.053 101.059C300.128 101.209 300.067 101.393 299.917 101.468L257.633 122.6C257.589 122.621 257.542 122.632 257.497 122.632Z" fill="white"/>
<path d="M257.497 104.22C257.385 104.22 257.277 104.158 257.224 104.052C257.148 103.901 257.209 103.718 257.36 103.643L299.644 82.5105C299.794 82.4358 299.978 82.4962 300.053 82.6468C300.128 82.7975 300.067 82.9805 299.917 83.0557L257.633 104.188C257.589 104.21 257.542 104.22 257.497 104.22Z" fill="white"/>
<path d="M229.071 72.1869C228.959 72.1869 228.851 72.1252 228.798 72.0188C228.723 71.8681 228.783 71.6851 228.934 71.6099L271.396 50.3156C271.547 50.24 271.73 50.3014 271.805 50.4514C271.881 50.6019 271.82 50.7851 271.67 50.8603L229.207 72.1545C229.163 72.1764 229.117 72.1869 229.071 72.1869Z" fill="#2F945A"/>
<path d="M243.301 79.0868C243.19 79.0868 243.082 79.0252 243.029 78.9187C242.953 78.7682 243.014 78.585 243.164 78.5098L285.392 57.3331C285.543 57.2577 285.726 57.3188 285.801 57.4688C285.877 57.6195 285.816 57.8025 285.665 57.8777L243.438 79.0544C243.394 79.0763 243.347 79.0868 243.301 79.0868Z" fill="#2F945A"/>
<path d="M285.575 72.2771C285.529 72.2771 285.483 72.2667 285.439 72.2446L242.981 50.9521C242.83 50.8768 242.769 50.6935 242.845 50.5432C242.92 50.3929 243.104 50.3318 243.254 50.4075L285.712 71.6999C285.863 71.7753 285.923 71.9586 285.848 72.1088C285.794 72.2154 285.687 72.2771 285.575 72.2771Z" fill="#2F945A"/>
<path d="M271.533 79.0448C271.487 79.0448 271.441 79.0344 271.397 79.0123L229.188 57.8448C229.037 57.7695 228.976 57.5862 229.052 57.4359C229.127 57.2856 229.31 57.2243 229.461 57.3002L271.67 78.4677C271.821 78.543 271.881 78.7263 271.806 78.8766C271.753 78.9832 271.645 79.0448 271.533 79.0448Z" fill="#2F945A"/>
<path d="M257.387 89.8386C257.218 89.8386 257.082 89.7023 257.082 89.5338V71.4943C257.082 71.3257 257.218 71.1895 257.387 71.1895C257.555 71.1895 257.692 71.3257 257.692 71.4943V89.5339C257.692 89.7023 257.555 89.8386 257.387 89.8386Z" fill="#2F945A"/>
<path d="M243.18 97.1379C243.069 97.1379 242.961 97.0763 242.908 96.9697C242.832 96.8194 242.893 96.636 243.043 96.5608L257.183 89.4698C257.333 89.3944 257.517 89.4555 257.592 89.6055C257.667 89.7558 257.607 89.9392 257.456 90.0144L243.316 97.1054C243.273 97.1274 243.226 97.1379 243.18 97.1379Z" fill="#2F945A"/>
<path d="M271.59 97.17C271.544 97.17 271.497 97.1596 271.454 97.1375L257.25 90.0147C257.1 89.9394 257.039 89.7564 257.115 89.6058C257.19 89.4556 257.373 89.3942 257.523 89.4701L271.727 96.5929C271.877 96.6682 271.938 96.8515 271.862 97.0018C271.809 97.1084 271.702 97.17 271.59 97.17Z" fill="#2F945A"/>
<path d="M64.3995 98.1469L78.4942 91.1021L64.3995 84.0625L50.3047 91.1073L64.3995 98.1469Z" fill="white"/>
<path d="M64.3996 98.4516C64.3529 98.4516 64.3063 98.4409 64.2634 98.4194L50.1686 91.38C50.0654 91.3286 50 91.2228 50 91.1074C50 90.992 50.0651 90.8862 50.1685 90.8348L64.2633 83.79C64.3493 83.7471 64.45 83.7471 64.5357 83.79L78.6305 90.8294C78.7338 90.8808 78.7992 90.9866 78.7992 91.102C78.7992 91.2174 78.7341 91.3232 78.6306 91.3746L64.5359 98.4196C64.4929 98.441 64.4463 98.4516 64.3996 98.4516ZM50.9869 91.1074L64.3997 97.8061L77.8126 91.102L64.3997 84.4033L50.9869 91.1074Z" fill="#2F945A"/>
<path d="M64.4023 116.555L78.4971 109.51V91.1074L64.4023 98.1523V116.555Z" fill="#2F945A"/>
<path d="M64.3995 116.555L50.3047 109.51V91.1074L64.3995 98.1523V116.555Z" fill="white"/>
<path d="M64.3984 116.86C64.3427 116.86 64.2871 116.845 64.2382 116.814C64.1484 116.759 64.0938 116.661 64.0938 116.555V98.1523C64.0938 98.0369 64.159 97.9311 64.2623 97.8797L78.357 90.8348C78.4513 90.7878 78.5637 90.7925 78.6537 90.8483C78.7435 90.904 78.7981 91.0018 78.7981 91.1074V109.51C78.7981 109.626 78.733 109.731 78.6296 109.783L64.5347 116.828C64.4917 116.849 64.445 116.86 64.3984 116.86ZM64.7032 98.3407V116.062L78.1884 109.322V91.6007L64.7032 98.3407Z" fill="#2F945A"/>
<path d="M64.3996 116.86C64.353 116.86 64.3063 116.849 64.2633 116.828L50.1685 109.783C50.0653 109.731 50 109.626 50 109.51V91.1074C50 91.0018 50.0546 90.9038 50.1445 90.8483C50.2342 90.7925 50.3466 90.7878 50.4411 90.8348L64.5359 97.8797C64.6391 97.9311 64.7044 98.0369 64.7044 98.1523V116.555C64.7044 116.661 64.6498 116.759 64.5599 116.814C64.511 116.845 64.4553 116.86 64.3996 116.86ZM50.6098 109.322L64.0949 116.062V98.3407L50.6098 91.6007V109.322Z" fill="#2F945A"/>
<path d="M115.716 131.897L129.811 124.852L115.716 117.812L101.621 124.857L115.716 131.897Z" fill="white"/>
<path d="M115.716 132.202C115.669 132.202 115.623 132.191 115.58 132.17L101.485 125.13C101.382 125.079 101.316 124.973 101.316 124.857C101.316 124.742 101.382 124.636 101.485 124.585L115.58 117.54C115.666 117.497 115.766 117.497 115.852 117.54L129.947 124.58C130.05 124.631 130.116 124.737 130.116 124.852C130.116 124.968 130.05 125.073 129.947 125.125L115.852 132.17C115.809 132.191 115.763 132.202 115.716 132.202ZM102.303 124.857L115.716 131.556L129.129 124.852L115.716 118.153L102.303 124.857Z" fill="#2F945A"/>
<path d="M115.715 150.305L129.81 143.26V124.857L115.715 131.902V150.305Z" fill="#2F945A"/>
<path d="M115.716 150.305L101.621 143.26V124.857L115.716 131.902V150.305Z" fill="white"/>
<path d="M115.715 150.61C115.659 150.61 115.604 150.595 115.555 150.564C115.465 150.509 115.41 150.411 115.41 150.305V131.902C115.41 131.787 115.475 131.681 115.579 131.63L129.673 124.585C129.768 124.538 129.88 124.542 129.97 124.598C130.06 124.654 130.114 124.752 130.114 124.858V143.26C130.114 143.376 130.049 143.481 129.946 143.533L115.851 150.578C115.808 150.599 115.761 150.61 115.715 150.61ZM116.02 132.091V149.812L129.505 143.072V125.351L116.02 132.091Z" fill="#2F945A"/>
<path d="M115.716 150.61C115.669 150.61 115.623 150.599 115.58 150.578L101.485 143.533C101.382 143.481 101.316 143.376 101.316 143.26V124.858C101.316 124.752 101.371 124.654 101.461 124.598C101.551 124.542 101.663 124.538 101.758 124.585L115.852 131.63C115.956 131.681 116.021 131.787 116.021 131.902V150.305C116.021 150.411 115.966 150.509 115.876 150.564C115.827 150.595 115.772 150.61 115.716 150.61ZM101.926 143.072L115.411 149.812V132.091L101.926 125.351V143.072Z" fill="#2F945A"/>
<path d="M136.86 119.745L150.955 112.7L136.86 105.66L122.766 112.705L136.86 119.745Z" fill="white"/>
<path d="M136.857 120.049C136.81 120.049 136.763 120.039 136.72 120.017L122.626 112.978C122.522 112.926 122.457 112.82 122.457 112.705C122.457 112.59 122.522 112.484 122.626 112.432L136.72 105.388C136.806 105.345 136.907 105.345 136.993 105.388L151.088 112.427C151.191 112.479 151.256 112.584 151.256 112.7C151.256 112.815 151.191 112.921 151.088 112.973L136.993 120.017C136.95 120.039 136.903 120.049 136.857 120.049ZM123.444 112.705L136.857 119.404L150.269 112.7L136.857 106.001L123.444 112.705Z" fill="#2F945A"/>
<path d="M136.859 138.153L150.954 131.108V112.705L136.859 119.75V138.153Z" fill="#2F945A"/>
<path d="M136.86 138.153L122.766 131.108V112.705L136.86 119.75V138.153Z" fill="white"/>
<path d="M136.859 138.458C136.804 138.458 136.748 138.442 136.699 138.412C136.609 138.356 136.555 138.258 136.555 138.153V119.75C136.555 119.635 136.62 119.529 136.723 119.477L150.818 112.433C150.912 112.386 151.025 112.39 151.115 112.446C151.204 112.502 151.259 112.599 151.259 112.705V131.108C151.259 131.223 151.194 131.329 151.091 131.38L136.996 138.425C136.953 138.447 136.906 138.458 136.859 138.458ZM137.164 119.938V137.659L150.649 130.919V113.198L137.164 119.938Z" fill="#2F945A"/>
<path d="M136.857 138.458C136.81 138.458 136.763 138.447 136.72 138.425L122.626 131.38C122.522 131.329 122.457 131.223 122.457 131.108V112.705C122.457 112.599 122.512 112.501 122.601 112.446C122.691 112.39 122.804 112.386 122.898 112.433L136.993 119.477C137.096 119.529 137.161 119.635 137.161 119.75V138.153C137.161 138.258 137.107 138.356 137.017 138.412C136.968 138.442 136.912 138.458 136.857 138.458ZM123.067 130.919L136.552 137.659V119.938L123.067 113.198V130.919Z" fill="#2F945A"/>
<path d="M96.9032 96.9321L110.998 89.8874L96.9032 82.8477L82.8086 89.8925L96.9032 96.9321Z" fill="white"/>
<path d="M96.9035 97.2368C96.8568 97.2368 96.8102 97.226 96.7673 97.2046L82.6726 90.1651C82.5693 90.1137 82.5039 90.008 82.5039 89.8925C82.5039 89.7771 82.569 89.6714 82.6724 89.6199L96.7672 82.5751C96.8532 82.5323 96.9539 82.5323 97.0396 82.5751L111.134 89.6145C111.238 89.666 111.303 89.7717 111.303 89.8871C111.303 90.0026 111.238 90.1083 111.135 90.1597L97.0398 97.2046C96.9968 97.2261 96.9502 97.2368 96.9035 97.2368ZM83.4906 89.8925L96.9035 96.5912L110.316 89.8871L96.9035 83.1885L83.4906 89.8925Z" fill="#2F945A"/>
<path d="M96.9023 115.34L110.997 108.295V89.8926L96.9023 96.9374V115.34Z" fill="#2F945A"/>
<path d="M96.9032 115.34L82.8086 108.295V89.8926L96.9032 96.9374V115.34Z" fill="white"/>
<path d="M96.9023 115.645C96.8466 115.645 96.791 115.63 96.7421 115.6C96.6523 115.544 96.5977 115.446 96.5977 115.34V96.9375C96.5977 96.8221 96.6629 96.7163 96.7662 96.6649L110.861 89.6201C110.955 89.5731 111.068 89.5775 111.158 89.6335C111.247 89.6892 111.302 89.7871 111.302 89.8927V108.295C111.302 108.411 111.237 108.517 111.134 108.568L97.0388 115.613C96.9956 115.634 96.9489 115.645 96.9023 115.645ZM97.2071 97.1259V114.847L110.692 108.107V90.3859L97.2071 97.1259Z" fill="#2F945A"/>
<path d="M96.9033 115.645C96.8568 115.645 96.81 115.634 96.767 115.613L82.6724 108.568C82.5692 108.517 82.5039 108.411 82.5039 108.295V89.8927C82.5039 89.7871 82.5585 89.6891 82.6484 89.6335C82.7384 89.5775 82.8505 89.5731 82.945 89.6201L97.0398 96.6649C97.143 96.7163 97.2083 96.8221 97.2083 96.9375V115.34C97.2083 115.446 97.1537 115.544 97.0638 115.6C97.0148 115.63 96.9591 115.645 96.9033 115.645ZM83.1134 108.107L96.5985 114.847V97.1259L83.1134 90.3859V108.107Z" fill="#2F945A"/>
<path d="M120.114 67.8266L134.209 60.7818L120.114 53.7422L106.02 60.787L120.114 67.8266Z" fill="white"/>
<path d="M120.114 68.1313C120.068 68.1313 120.021 68.1207 119.978 68.0991L105.883 61.0597C105.78 61.0082 105.715 60.9025 105.715 60.7871C105.715 60.6716 105.78 60.5659 105.883 60.5145L119.978 53.4696C120.064 53.4268 120.165 53.4268 120.251 53.4696L134.345 60.5091C134.449 60.5605 134.514 60.6662 134.514 60.7817C134.514 60.8971 134.449 61.0029 134.345 61.0543L120.251 68.0991C120.208 68.1207 120.161 68.1313 120.114 68.1313ZM106.702 60.7871L120.115 67.4858L133.527 60.7817L120.115 54.083L106.702 60.7871Z" fill="#2F945A"/>
<path d="M120.117 86.2346L134.212 79.1899V60.7871L120.117 67.8318V86.2346Z" fill="#2F945A"/>
<path d="M120.114 86.2346L106.02 79.1899V60.7871L120.114 67.8318V86.2346Z" fill="white"/>
<path d="M120.113 86.5415C120.058 86.5415 120.002 86.5263 119.953 86.496C119.863 86.4403 119.809 86.3425 119.809 86.2368V67.8339C119.809 67.7185 119.874 67.6127 119.977 67.5613L134.072 60.5165C134.166 60.4695 134.279 60.4742 134.369 60.5299C134.458 60.5856 134.513 60.6835 134.513 60.7891V79.1919C134.513 79.3073 134.448 79.413 134.344 79.4645L120.25 86.5093C120.207 86.5307 120.16 86.5415 120.113 86.5415ZM120.418 68.0223V85.7435L133.903 79.0035V61.2823L120.418 68.0223Z" fill="#2F945A"/>
<path d="M120.114 86.5415C120.068 86.5415 120.021 86.5309 119.978 86.5094L105.883 79.4645C105.78 79.413 105.715 79.3073 105.715 79.1919V60.7891C105.715 60.6835 105.769 60.5855 105.859 60.5299C105.949 60.4742 106.062 60.4695 106.156 60.5165L120.251 67.5613C120.354 67.6127 120.419 67.7185 120.419 67.8339V86.2367C120.419 86.3423 120.365 86.4403 120.275 86.4959C120.226 86.5263 120.17 86.5415 120.114 86.5415ZM106.324 79.0035L119.809 85.7435V68.0223L106.324 61.2823V79.0035Z" fill="#2F945A"/>
<path d="M84.1768 113.901L98.2714 106.856L84.1768 99.8164L70.082 106.861L84.1768 113.901Z" fill="white"/>
<path d="M84.1769 114.205C84.1302 114.205 84.0836 114.195 84.0408 114.173L69.946 107.134C69.8427 107.082 69.7773 106.977 69.7773 106.861C69.7773 106.746 69.8425 106.64 69.9459 106.589L84.0406 99.5439C84.1266 99.501 84.2274 99.501 84.3131 99.5439L98.4079 106.583C98.5111 106.635 98.5765 106.74 98.5765 106.856C98.5765 106.971 98.5113 107.077 98.408 107.129L84.3132 114.173C84.2702 114.195 84.2236 114.205 84.1769 114.205ZM70.7641 106.861L84.1769 113.56L97.5898 106.856L84.1769 100.157L70.7641 106.861Z" fill="#2F945A"/>
<path d="M84.1758 132.309L98.2704 125.264V106.861L84.1758 113.906V132.309Z" fill="#2F945A"/>
<path d="M84.1768 132.309L70.082 125.264V106.861L84.1768 113.906V132.309Z" fill="white"/>
<path d="M84.1758 132.612C84.1201 132.612 84.0645 132.596 84.0155 132.566C83.9257 132.51 83.8711 132.413 83.8711 132.307V113.904C83.8711 113.789 83.9363 113.683 84.0396 113.632L98.1344 106.587C98.2285 106.54 98.3409 106.545 98.431 106.6C98.5209 106.656 98.5755 106.754 98.5755 106.859V125.262C98.5755 125.378 98.5102 125.483 98.407 125.535L84.3122 132.58C84.2691 132.601 84.2224 132.612 84.1758 132.612ZM84.4806 114.093V131.814L97.9657 125.074V107.352L84.4806 114.093Z" fill="#2F945A"/>
<path d="M84.1769 132.612C84.1303 132.612 84.0836 132.601 84.0406 132.58L69.9459 125.535C69.8426 125.483 69.7773 125.378 69.7773 125.262V106.859C69.7773 106.754 69.8319 106.656 69.9218 106.6C70.0115 106.545 70.1242 106.54 70.2185 106.587L84.3131 113.632C84.4164 113.683 84.4816 113.789 84.4816 113.904V132.307C84.4816 132.413 84.427 132.511 84.3371 132.566C84.2882 132.596 84.2326 132.612 84.1769 132.612ZM70.387 125.074L83.8721 131.814V114.093L70.387 107.352V125.074Z" fill="#2F945A"/>
<path d="M122.763 155.057L136.857 148.012L122.763 140.973L108.668 148.017L122.763 155.057Z" fill="white"/>
<path d="M122.763 155.362C122.716 155.362 122.67 155.351 122.627 155.33L108.532 148.29C108.429 148.239 108.363 148.133 108.363 148.018C108.363 147.902 108.429 147.796 108.532 147.745L122.627 140.7C122.713 140.657 122.813 140.657 122.899 140.7L136.994 147.74C137.097 147.791 137.162 147.897 137.162 148.012C137.162 148.128 137.097 148.233 136.994 148.285L122.899 155.33C122.856 155.351 122.809 155.362 122.763 155.362ZM109.35 148.018L122.763 154.716L136.176 148.012L122.763 141.313L109.35 148.018Z" fill="#2F945A"/>
<path d="M122.766 173.465L136.86 166.42V148.018L122.766 155.062V173.465Z" fill="#2F945A"/>
<path d="M122.763 173.465L108.668 166.42V148.018L122.763 155.062V173.465Z" fill="white"/>
<path d="M122.762 173.77C122.706 173.77 122.65 173.755 122.601 173.724C122.512 173.669 122.457 173.571 122.457 173.465V155.062C122.457 154.947 122.522 154.841 122.626 154.79L136.72 147.745C136.815 147.698 136.927 147.703 137.017 147.758C137.107 147.814 137.161 147.912 137.161 148.018V166.42C137.161 166.536 137.096 166.642 136.993 166.693L122.898 173.738C122.855 173.759 122.808 173.77 122.762 173.77ZM123.066 155.251V172.972L136.552 166.232V148.511L123.066 155.251Z" fill="#2F945A"/>
<path d="M122.763 173.77C122.716 173.77 122.67 173.759 122.627 173.738L108.532 166.693C108.429 166.641 108.363 166.536 108.363 166.42V148.018C108.363 147.912 108.418 147.814 108.508 147.758C108.598 147.703 108.71 147.698 108.804 147.745L122.899 154.79C123.002 154.841 123.068 154.947 123.068 155.062V173.465C123.068 173.571 123.013 173.669 122.923 173.724C122.874 173.755 122.818 173.77 122.763 173.77ZM108.973 166.232L122.458 172.972V155.251L108.973 148.511V166.232Z" fill="#2F945A"/>
<path d="M169.566 69.8638L162.65 62.9473V67.641H145.902V72.0872H162.65V76.7805L169.566 69.8638Z" fill="#2F945A"/>
<path d="M208.949 105.977L202.032 99.0605V103.754H185.285V108.2H202.032V112.894L208.949 105.977Z" fill="#2F945A"/>
<defs>
<linearGradient id="paint0_linear_12717_66458" x1="189.5" y1="0" x2="189.5" y2="220" gradientUnits="userSpaceOnUse">
<stop stop-color="#F1F6FF"/>
<stop offset="1" stop-color="white" stop-opacity="0.4"/>
</linearGradient>
</defs>
</svg>
