<svg width="18" height="18" viewBox="0 0 18 18" fill="none" xmlns="http://www.w3.org/2000/svg">
<path d="M16.5447 17.577L10.2639 11.2962C9.7639 11.7091 9.1889 12.0321 8.5389 12.2655C7.8889 12.4988 7.21647 12.6155 6.5216 12.6155C4.81243 12.6155 3.36592 12.0237 2.18205 10.8401C0.998183 9.65655 0.40625 8.21041 0.40625 6.50169C0.40625 4.79296 0.998034 3.34628 2.1816 2.16167C3.36517 0.977065 4.81132 0.384766 6.52005 0.384766C8.22877 0.384766 9.67543 0.9767 10.8601 2.16057C12.0447 3.34443 12.637 4.79095 12.637 6.50012C12.637 7.21422 12.5171 7.89627 12.2774 8.54627C12.0376 9.19627 11.7177 9.76165 11.3177 10.2424L17.5985 16.5232L16.5447 17.577ZM6.5216 11.1155C7.81007 11.1155 8.90142 10.6684 9.79565 9.77417C10.6899 8.87993 11.137 7.78858 11.137 6.50012C11.137 5.21165 10.6899 4.1203 9.79565 3.22607C8.90142 2.33183 7.81007 1.88472 6.5216 1.88472C5.23313 1.88472 4.14178 2.33183 3.24755 3.22607C2.35333 4.1203 1.90623 5.21165 1.90623 6.50012C1.90623 7.78858 2.35333 8.87993 3.24755 9.77417C4.14178 10.6684 5.23313 11.1155 6.5216 11.1155Z" fill="#4A4E69"/>
</svg>
