<svg width="272" height="176" viewBox="0 0 272 176" fill="none" xmlns="http://www.w3.org/2000/svg">
<path d="M0 10C0 4.47715 4.47715 0 10 0H262C267.523 0 272 4.47715 272 10V176H0V10Z" fill="#EAF4EF"/>
<path d="M22.1505 96.8518L17.7656 100.801" stroke="#9FCEB3" stroke-width="0.402" stroke-miterlimit="10" stroke-linecap="round" stroke-linejoin="round"/>
<path d="M22.1505 100.801L17.7656 96.8518" stroke="#9FCEB3" stroke-width="0.402" stroke-miterlimit="10" stroke-linecap="round" stroke-linejoin="round"/>
<path d="M202.573 109.267L198.188 113.217" stroke="#9FCEB3" stroke-width="0.402" stroke-miterlimit="10" stroke-linecap="round" stroke-linejoin="round"/>
<path d="M202.573 113.217L198.188 109.267" stroke="#9FCEB3" stroke-width="0.402" stroke-miterlimit="10" stroke-linecap="round" stroke-linejoin="round"/>
<path d="M143.659 55.1309L139.273 59.0805" stroke="#9FCEB3" stroke-width="0.402" stroke-miterlimit="10" stroke-linecap="round" stroke-linejoin="round"/>
<path d="M143.659 59.0805L139.273 55.1309" stroke="#9FCEB3" stroke-width="0.402" stroke-miterlimit="10" stroke-linecap="round" stroke-linejoin="round"/>
<path d="M40.8341 26.3639L36.4492 30.3135" stroke="#9FCEB3" stroke-width="0.402" stroke-miterlimit="10" stroke-linecap="round" stroke-linejoin="round"/>
<path d="M40.8341 30.3135L36.4492 26.3639" stroke="#9FCEB3" stroke-width="0.402" stroke-miterlimit="10" stroke-linecap="round" stroke-linejoin="round"/>
<path d="M202.573 25.9189L198.188 29.8686" stroke="#9FCEB3" stroke-width="0.402" stroke-miterlimit="10" stroke-linecap="round" stroke-linejoin="round"/>
<path d="M202.573 29.8686L198.188 25.9189" stroke="#9FCEB3" stroke-width="0.402" stroke-miterlimit="10" stroke-linecap="round" stroke-linejoin="round"/>
<path d="M42.9457 80.5892C42.9457 80.0711 42.4793 79.6514 41.9045 79.6514C41.3292 79.6514 40.8633 80.0715 40.8633 80.5892C40.8633 81.107 41.3297 81.5271 41.9045 81.5271C42.4793 81.5271 42.9457 81.1074 42.9457 80.5892Z" stroke="#9FCEB3" stroke-width="0.402" stroke-miterlimit="10" stroke-linecap="round" stroke-linejoin="round"/>
<path d="M180.407 99.2148C180.407 98.6967 179.94 98.277 179.365 98.277C178.79 98.277 178.324 98.6971 178.324 99.2148C178.324 99.733 178.791 100.153 179.365 100.153C179.94 100.153 180.407 99.733 180.407 99.2148Z" stroke="#9FCEB3" stroke-width="0.402" stroke-miterlimit="10" stroke-linecap="round" stroke-linejoin="round"/>
<path d="M166.571 61.5613C166.571 61.0431 166.104 60.6234 165.529 60.6234C164.954 60.6234 164.488 61.0435 164.488 61.5613C164.488 62.0795 164.955 62.4991 165.529 62.4991C166.104 62.4991 166.571 62.0791 166.571 61.5613Z" stroke="#9FCEB3" stroke-width="0.402" stroke-miterlimit="10" stroke-linecap="round" stroke-linejoin="round"/>
<path d="M96.352 28.5974C96.352 28.0792 95.8856 27.6595 95.3108 27.6595C94.7355 27.6595 94.2695 28.0796 94.2695 28.5974C94.2695 29.1156 94.7359 29.5353 95.3108 29.5353C95.8856 29.5353 96.352 29.1152 96.352 28.5974Z" stroke="#9FCEB3" stroke-width="0.402" stroke-miterlimit="10" stroke-linecap="round" stroke-linejoin="round"/>
<path d="M151.993 11.9379C151.993 11.4197 151.526 11 150.951 11C150.376 11 149.91 11.4201 149.91 11.9379C149.91 12.4556 150.377 12.8757 150.951 12.8757C151.526 12.8757 151.993 12.456 151.993 11.9379Z" stroke="#9FCEB3" stroke-width="0.402" stroke-miterlimit="10" stroke-linecap="round" stroke-linejoin="round"/>
<path d="M162.772 45.6008L164.215 39.6436" stroke="#123922" stroke-width="0.402" stroke-miterlimit="10" stroke-linecap="round" stroke-linejoin="round"/>
<path d="M154.907 75.798L161.742 47.5801" stroke="#123922" stroke-width="0.402" stroke-miterlimit="10" stroke-linecap="round" stroke-linejoin="round"/>
<path d="M141.868 124.925L153.418 77.2437" stroke="#123922" stroke-width="0.402" stroke-miterlimit="10" stroke-linecap="round" stroke-linejoin="round"/>
<path d="M132.108 46.7637L128.645 24.6274" stroke="#123922" stroke-width="0.402" stroke-miterlimit="10" stroke-linecap="round" stroke-linejoin="round"/>
<path d="M143.381 126.904L131.227 49.219" stroke="#123922" stroke-width="0.402" stroke-miterlimit="10" stroke-linecap="round" stroke-linejoin="round"/>
<path d="M59.8626 103.911L54.941 102.519" stroke="#123922" stroke-width="0.402" stroke-miterlimit="10" stroke-linecap="round" stroke-linejoin="round"/>
<path d="M140.768 125.912L63.2069 103.966" stroke="#123922" stroke-width="0.402" stroke-miterlimit="10" stroke-linecap="round" stroke-linejoin="round"/>
<path d="M80.6362 86.0015L50.471 65.1625" stroke="#123922" stroke-width="0.402" stroke-miterlimit="10" stroke-linecap="round" stroke-linejoin="round"/>
<path d="M142.039 127.617L83.3231 87.0535" stroke="#123922" stroke-width="0.402" stroke-miterlimit="10" stroke-linecap="round" stroke-linejoin="round"/>
<path d="M142.442 126.903L81.1875 31.3398" stroke="#123922" stroke-width="0.402" stroke-miterlimit="10" stroke-linecap="round" stroke-linejoin="round"/>
<path d="M154.539 54.733C153.813 54.2638 152.917 54.0737 152.109 53.7301C151.302 53.3866 150.516 52.7866 150.442 51.9849C150.332 50.8007 151.786 49.9059 151.871 48.7203C151.991 47.0497 149.481 46.1358 149.113 44.4944C148.808 43.1317 150.094 41.8455 150.038 40.4564C149.983 39.0714 148.651 38.031 148.041 36.7587C146.623 33.8005 149.239 29.9855 147.258 27.3023C146.725 26.5808 145.925 26.0615 145.247 25.4481C144.568 24.8342 143.978 24.0344 144.059 23.1711L140.34 21.6493C139.095 19.9356 136.271 19.8689 134.146 20.6001C132.022 21.3308 130.157 22.6471 127.95 23.1386C126.879 23.3769 127.032 21.9461 125.951 22.1445C124.53 22.4056 122.782 23.9037 122.377 25.1458C121.943 26.4784 121.641 27.9514 121.116 29.2571C120.536 30.7 118.817 31.708 118.657 33.2353C118.469 35.0186 120.515 36.4708 120.519 38.2619C120.522 40.1889 118.16 41.9105 118.913 43.7146C119.343 44.7453 120.664 45.298 121.123 46.3185C121.758 47.7285 120.497 49.2734 120.612 50.7914C120.726 52.29 122.124 53.4176 123.449 54.3297C128.518 57.8192 134.117 60.7287 140.151 62.5963C142.761 63.404 145.511 64.0207 148.259 63.7958C151.007 63.5709 153.773 62.3867 155.212 60.2655C156.394 58.523 156.379 55.9242 154.539 54.733Z" fill="#123922"/>
<path d="M143.91 22.3368C143.236 19.9169 141.035 17.8935 138.363 17.237C135.691 16.5804 132.654 17.3167 130.709 19.0925C129.917 19.8163 129.287 20.7024 128.35 21.2699C127.292 21.9111 127.138 21.7229 125.951 22.1434C124.765 22.564 122.593 25.5412 122.629 26.6892L122.035 31.7222C122.084 32.9013 123.765 33.5648 125.004 33.1805C126.243 32.7961 127.064 31.7528 127.72 30.7309C128.374 29.709 128.989 28.6046 130.06 27.9258C131.837 26.8 134.246 27.1872 136.374 27.5794C138.502 27.9717 140.964 28.2517 142.625 26.9906C144.055 25.9051 144.366 23.9717 143.91 22.3368Z" fill="#123922"/>
<path d="M145.078 29.5224C144.84 26.2457 142.42 22.2299 138.796 22.5828L127.482 25.1825C126.381 25.2896 125.554 26.1377 125.579 27.135L126.851 51.7193C126.824 51.7249 126.799 51.7295 126.772 51.7346C126.772 51.7346 131.375 60.5215 138.856 58.403C140.339 57.9829 138.993 54.6687 139.287 53.1655L139.363 53.1743C139.366 52.9958 139.369 52.8298 139.371 52.6592C139.618 50.9241 139.416 49.2832 139.416 49.2832C139.437 47.2983 139.434 46.4841 139.436 46.5027C139.436 46.5027 144.082 45.7983 145.032 40.3341C145.504 37.6166 145.341 33.1626 145.078 29.5224Z" fill="#FFBE9D"/>
<path d="M144.154 33.731C144.17 34.101 143.834 34.4177 143.406 34.4395C142.978 34.4608 142.618 34.1794 142.602 33.8094C142.587 33.4394 142.922 33.1222 143.35 33.1009C143.779 33.0786 144.139 33.361 144.154 33.731Z" fill="#123922"/>
<path d="M144.003 31.8409C143.907 31.9327 143.317 31.5409 142.48 31.5446C141.644 31.5377 141.031 31.9267 140.94 31.8344C140.895 31.7936 140.993 31.6285 141.26 31.4528C141.523 31.2776 141.972 31.1069 142.493 31.1079C143.015 31.1092 143.454 31.2813 143.706 31.4579C143.963 31.6346 144.051 31.7996 144.003 31.8409Z" fill="#123922"/>
<path d="M136.251 33.9644C136.266 34.3344 135.931 34.6511 135.503 34.6729C135.075 34.6942 134.715 34.4128 134.7 34.0428C134.684 33.6728 135.019 33.3556 135.447 33.3338C135.875 33.3125 136.235 33.5949 136.251 33.9644Z" fill="#123922"/>
<path d="M135.785 31.9972C135.689 32.0885 135.098 31.6972 134.262 31.7009C133.426 31.6935 132.813 32.0825 132.721 31.9907C132.677 31.9499 132.774 31.7848 133.042 31.6091C133.305 31.4338 133.753 31.2632 134.274 31.2641C134.796 31.266 135.234 31.438 135.487 31.6142C135.745 31.7908 135.833 31.9559 135.785 31.9972Z" fill="#123922"/>
<path d="M138.837 37.5819C138.833 37.5392 139.353 37.4572 140.196 37.3584C140.41 37.338 140.612 37.2995 140.648 37.1678C140.697 37.0287 140.608 36.8215 140.503 36.5975C140.301 36.132 140.09 35.6443 139.868 35.1328C138.985 33.0477 138.346 31.3327 138.439 31.3016C138.532 31.2701 139.324 32.9351 140.206 35.0202C140.419 35.5344 140.622 36.0245 140.815 36.4937C140.897 36.7121 141.037 36.9601 140.928 37.249C140.871 37.3927 140.714 37.4975 140.578 37.5314C140.441 37.5694 140.32 37.5717 140.215 37.5773C139.367 37.6204 138.841 37.6246 138.837 37.5819Z" fill="#123922"/>
<path d="M139.447 46.5014C139.447 46.5014 135.368 46.7467 131.32 44.5661C131.32 44.5661 133.3 48.3143 139.368 47.7913L139.447 46.5014Z" fill="#EB996E"/>
<path d="M138.488 39.4015C138.186 39.0435 137.658 38.8479 137.134 38.8998C136.772 38.9355 136.405 39.0941 136.185 39.3612C135.965 39.6278 135.92 40.0061 136.12 40.2597C136.347 40.5453 136.819 40.6103 137.218 40.5073C137.618 40.4044 137.961 40.167 138.286 39.9301C138.377 39.8647 138.469 39.7961 138.525 39.7066C138.581 39.6171 138.593 39.4998 138.523 39.4261" fill="#EB996E"/>
<path d="M136.377 38.1074C136.513 38.1 136.517 38.9184 137.296 39.4975C138.074 40.0785 139.042 39.9848 139.049 40.0993C139.062 40.1508 138.834 40.2588 138.425 40.2695C138.024 40.2825 137.438 40.168 136.962 39.8137C136.487 39.4586 136.281 38.9838 136.249 38.6481C136.215 38.3059 136.315 38.1028 136.377 38.1074Z" fill="#123922"/>
<path d="M136.155 30.6781C136.073 30.883 135.237 30.7875 134.255 30.8964C133.271 30.9873 132.48 31.2479 132.349 31.0643C132.291 30.9767 132.428 30.7833 132.748 30.5844C133.065 30.3855 133.57 30.1963 134.16 30.136C134.749 30.0767 135.289 30.1601 135.647 30.2904C136.008 30.4203 136.19 30.5807 136.155 30.6781Z" fill="#123922"/>
<path d="M143.71 29.6594C143.563 29.831 142.986 29.6543 142.292 29.6474C141.6 29.6186 141.012 29.7652 140.877 29.5862C140.817 29.4995 140.909 29.3279 141.166 29.1652C141.418 29.0034 141.841 28.8703 142.317 28.8824C142.793 28.8949 143.207 29.0493 143.448 29.2245C143.694 29.3993 143.774 29.5755 143.71 29.6594Z" fill="#123922"/>
<path d="M138.596 21.1853L138.082 20.5928C134.584 20.953 131.141 21.7445 127.88 22.938C126.575 23.4151 125.254 23.9877 124.362 24.9688C123.135 26.3195 122.939 28.1815 122.799 29.9226C122.268 36.5506 121.827 43.3776 124.143 49.6871C124.7 48.8799 125.791 48.5173 126.826 48.3374C127.862 48.1575 128.949 48.0968 129.888 47.6633C130.917 47.188 131.67 46.2806 131.959 45.2717C132.247 44.2628 132.085 43.1671 131.583 42.2287C131.021 41.178 130.017 40.1644 130.263 39.0192C130.519 37.8206 132.049 37.1335 132.407 35.9562C133.027 33.9212 129.855 32.0944 130.497 30.0649C130.734 29.3157 131.461 28.769 132.235 28.4217C133.009 28.0744 133.858 27.8806 134.642 27.5523C137.259 26.4581 138.93 23.7661 138.596 21.1853Z" fill="#123922"/>
<path d="M169.21 62.8302L162.117 72.773C162.117 72.773 162.907 73.9512 164.612 73.8867C166.317 73.8223 168.665 69.9827 168.945 69.2051C169.226 68.4271 168.845 67.6801 169.1 67.1636C169.356 66.6471 169.253 65.2246 169.253 65.2246C169.215 65.3062 170.785 63.4135 169.21 62.8302Z" fill="#FFBE9D"/>
<path d="M160.16 72.767L163.856 59.6055C163.967 59.2109 164.251 58.8738 164.644 58.6726L170.014 55.9152C170.341 55.7478 170.754 55.828 170.975 56.102C171.103 56.2615 171.146 56.4637 171.092 56.6543L167.178 70.508L160.16 72.767Z" fill="#123922"/>
<path d="M158.296 82.9687L166.878 68.6929L163.647 64.9215L151.57 73.1775L154.734 81.0227L158.296 82.9687Z" fill="#5AAC7D"/>
<path d="M166.979 71.7879C166.954 71.7772 167.095 71.5904 167.144 71.2C167.201 70.8151 167.169 70.2318 166.964 69.5517L166.954 69.5178L166.974 69.4872C167.108 69.2776 167.173 69.0115 167.073 68.7546C166.982 68.4987 166.749 68.2566 166.474 68.0828L166.38 68.023L166.444 67.9367C166.748 67.5278 167.073 67.0901 167.415 66.6297C167.497 66.5161 167.606 66.3909 167.642 66.2921C167.682 66.185 167.668 66.0658 167.613 65.9485C167.502 65.7144 167.261 65.5006 167.012 65.336L166.891 65.2563L166.988 65.1566C167.252 64.8854 167.544 64.6174 167.84 64.3443C168.352 63.8542 168.843 63.3715 169.255 62.8744C169.453 62.6231 169.65 62.3755 169.78 62.1168C169.851 61.9898 169.894 61.8581 169.909 61.7394C169.921 61.6179 169.856 61.5507 169.778 61.5368L169.748 61.5312C169.624 61.4997 169.427 61.5423 169.262 61.5989C169.092 61.6559 168.928 61.7274 168.771 61.8001C168.456 61.9494 168.164 62.1099 167.893 62.2661C167.352 62.58 166.893 62.8763 166.514 63.122C166.165 63.352 165.874 63.544 165.637 63.7007C165.433 63.8342 165.321 63.9033 165.313 63.894C165.305 63.8848 165.4 63.7981 165.589 63.6474C165.778 63.4967 166.06 63.2815 166.427 63.0191C166.795 62.7576 167.246 62.4456 167.784 62.1164C168.054 61.9522 168.345 61.7835 168.667 61.624C168.829 61.5456 168.998 61.4686 169.181 61.4037C169.367 61.3462 169.562 61.2706 169.827 61.3267L169.797 61.3212C170.044 61.3365 170.185 61.5831 170.156 61.7487C170.14 61.917 170.085 62.0709 170.011 62.2109C169.87 62.4984 169.668 62.753 169.466 63.0145C169.046 63.5273 168.551 64.0165 168.036 64.5103C167.74 64.7843 167.446 65.0527 167.186 65.3175L167.162 65.1385C167.45 65.3332 167.706 65.5521 167.855 65.859C167.926 66.0107 167.952 66.198 167.887 66.364C167.815 66.5365 167.714 66.6301 167.629 66.7511C167.277 67.2111 166.943 67.6479 166.631 68.0563L166.6 67.9108C166.918 68.1208 167.163 68.3842 167.271 68.6985C167.386 69.0124 167.292 69.343 167.131 69.5721L167.14 69.5076C167.33 70.2216 167.332 70.817 167.243 71.2153C167.201 71.4147 167.134 71.5616 167.081 71.6558C167.021 71.7471 166.987 71.7921 166.979 71.7879Z" fill="#EB996E"/>
<path d="M170.973 56.1024C170.983 56.1168 170.825 56.216 170.532 56.3834C170.238 56.5503 169.81 56.7858 169.276 57.0719C168.722 57.3654 168.089 57.7002 167.397 58.066C167.039 58.2515 166.666 58.4448 166.281 58.6447C165.895 58.8412 165.481 59.0309 165.16 59.3063C164.838 59.5766 164.706 59.968 164.595 60.3514C164.483 60.7386 164.375 61.1132 164.271 61.4725C164.064 62.1704 163.874 62.8088 163.708 63.368C163.543 63.9068 163.406 64.3417 163.305 64.6407C163.204 64.9398 163.14 65.1035 163.122 65.0993C163.104 65.0951 163.134 64.924 163.204 64.6176C163.274 64.3111 163.383 63.8701 163.524 63.3258C163.674 62.7629 163.845 62.1203 164.032 61.4174C164.131 61.0566 164.234 60.6806 164.341 60.292C164.449 59.9077 164.59 59.4561 164.972 59.1334C165.341 58.8195 165.767 58.6326 166.155 58.4369C166.542 58.2417 166.917 58.0526 167.276 57.8713C167.978 57.5221 168.62 57.2027 169.182 56.9231C169.727 56.656 170.17 56.4437 170.479 56.3018C170.789 56.1599 170.964 56.088 170.973 56.1024Z" fill="#35A967"/>
<path d="M167.416 60.6029C167.282 60.8894 167.267 61.1565 167.381 61.1996C167.496 61.2427 167.696 61.0457 167.83 60.7591C167.963 60.4726 167.978 60.2055 167.864 60.1624C167.75 60.1193 167.549 60.3164 167.416 60.6029Z" fill="#2F945A"/>
<path d="M140.691 52.6206C144.417 53.8322 147.456 56.3262 149.142 59.5551L160.664 81.6311L170.588 85.2564L161.85 87.5247L154.067 82.3845L140.691 52.6206Z" fill="#5AAC7D"/>
<path d="M161.848 87.5242L157.667 90.4272L136.811 71.1031L124.887 51.7044L126.265 48.0962L135.484 51.5547L138.785 55.9488L139.521 50.3718L140.113 51.1272L141.075 53.477C141.075 53.477 150.127 60.2604 152.08 65.6384C153.71 70.1276 153.2 79.4022 154.193 81.9227L161.848 87.5242Z" fill="#FAFAFA"/>
<path d="M122.655 51.4526C122.515 51.83 113.739 55.0057 113.32 57.7737C112.901 60.5418 119.626 81.9435 119.626 81.9435L130.288 90.4272H157.667L148.982 75.7805C147.109 72.6234 144.745 69.7242 141.954 67.1768C139.383 64.8311 136.273 61.9291 134.672 60.1964C132.937 58.3185 125.58 49.553 125.58 49.553L122.655 51.4526Z" fill="#5AAC7D"/>
<path d="M128.145 52.3281C128.162 52.2985 128.753 52.5405 129.696 52.955C130.639 53.37 131.933 53.9579 133.354 54.6205C133.919 54.8862 134.463 55.1416 134.967 55.379L134.782 55.4889C134.71 54.436 134.822 53.5309 134.955 52.9045C135.089 52.2762 135.231 51.921 135.256 51.9271C135.288 51.934 135.2 52.3008 135.112 52.9267C135.023 53.5522 134.948 54.4429 135.035 55.4732L135.053 55.6767L134.85 55.5831C134.344 55.3494 133.799 55.0971 133.231 54.8352C131.81 54.1726 130.53 53.5606 129.609 53.1071C128.688 52.6532 128.128 52.3578 128.145 52.3281Z" fill="#123922"/>
<path d="M149.249 71.8486C149.233 71.8565 149.078 71.633 148.811 71.2217C148.524 70.7724 148.148 70.184 147.694 69.4751C146.755 67.9983 145.451 65.9624 143.976 63.7326C142.499 61.5024 141.13 59.5008 140.135 58.0546C139.657 57.3582 139.262 56.7805 138.96 56.3391C138.685 55.9324 138.54 55.7029 138.556 55.6941C138.571 55.6853 138.745 55.8967 139.047 56.2881C139.35 56.6789 139.776 57.2511 140.295 57.9633C141.332 59.3872 142.727 61.3768 144.206 63.6093C145.683 65.8418 146.963 67.8935 147.86 69.3926C148.309 70.1418 148.665 70.752 148.903 71.1777C149.141 71.6019 149.266 71.8407 149.249 71.8486Z" fill="#123922"/>
<g opacity="0.3">
<path d="M145.036 86.7677C146.627 87.0107 148.258 87.2536 149.843 86.9819C151.428 86.7097 152.982 85.8102 153.479 84.4276C153.634 83.995 153.702 83.5007 154.073 83.1924C154.685 82.6828 155.66 82.9958 156.491 82.9276C157.417 82.8516 158.212 82.2539 158.695 81.5376C159.178 80.8208 159.4 79.9908 159.616 79.1752C159.723 78.7723 159.83 78.3601 159.78 77.9484C159.729 77.5371 159.487 77.1198 159.068 76.9496C158.441 76.6951 157.733 77.0656 157.175 77.4277C152.662 80.3566 148.547 83.7493 144.445 87.1335" fill="#2F945A"/>
</g>
<path d="M155.263 70.4308C155.263 70.4308 156.833 67.1851 157.67 66.7349C158.507 66.2847 162.67 64.099 162.67 64.099L162.133 65.8832L166.202 63.3381C166.702 63.0353 169.608 60.6567 170.123 61.585C170.494 62.2531 168.122 64.0141 167.804 64.4059C167.009 65.3856 167.273 65.2952 167.273 65.2952C167.273 65.2952 168.135 65.7621 167.702 66.4544C167.269 67.1466 166.54 67.9951 166.54 67.9951C166.54 67.9951 167.672 68.3587 167.012 69.6843C167.012 69.6843 167.313 70.3974 167.126 71.3864C166.939 72.3754 164.955 74.2555 164.955 74.2555L155.052 78.5041L151.059 72.3986L155.263 70.4308Z" fill="#FFBE9D"/>
<path d="M132.199 64.3299L138.549 76.5423L152.633 71.0312C152.633 71.0312 158.478 74.103 157.669 77.4594L144.98 86.8481C142.577 88.6258 139.471 89.4391 136.385 89.0987C133.071 88.7334 130.103 87.0735 128.27 84.56L119.085 71.9697L113.949 64.4087C112.306 61.9893 112.305 58.8726 114.165 56.5835C114.672 55.9585 115.276 55.4359 115.979 55.0501C118.271 53.7932 125.085 53.2484 132.199 64.3299Z" fill="#86D8A9"/>
<path d="M163.433 65.0352C163.47 65.0886 162.544 65.6626 161.365 66.3177C160.186 66.9733 159.202 67.4616 159.165 67.4083C159.129 67.3554 160.055 66.7809 161.233 66.1253C162.412 65.4706 163.397 64.9819 163.433 65.0352Z" fill="#EB996E"/>
<path d="M167.407 64.9234C167.455 64.9688 166.627 65.7737 165.558 66.721C164.49 67.6687 163.583 68.4013 163.533 68.3577C163.484 68.3141 164.311 67.5097 165.382 66.5601C166.454 65.611 167.36 64.878 167.407 64.9234Z" fill="#EB996E"/>
<path d="M166.876 67.6753C166.928 67.7156 166.54 68.2043 166.008 68.7667C165.477 69.3292 165.003 69.752 164.95 69.7117C164.897 69.6713 165.286 69.1826 165.818 68.6202C166.349 68.0578 166.823 67.6349 166.876 67.6753Z" fill="#EB996E"/>
<path d="M167.053 69.5294C167.106 69.5711 166.887 69.872 166.609 70.2323C166.329 70.5916 166.091 70.88 166.029 70.8494C165.969 70.8202 166.115 70.4734 166.404 70.1029C166.691 69.7311 167.002 69.4886 167.053 69.5294Z" fill="#EB996E"/>
<path d="M142.818 88.0593C142.816 88.057 142.837 88.038 142.882 88.0032C142.936 87.9624 143.001 87.9128 143.084 87.8511C143.276 87.7111 143.542 87.5182 143.882 87.271C144.598 86.7601 145.626 86.0266 146.926 85.0988C149.569 83.233 153.314 80.5874 157.784 77.4307L157.739 77.51C157.741 76.8878 157.618 76.2507 157.34 75.6405C157.048 75.0373 156.649 74.4614 156.171 73.9208C155.194 72.8576 153.955 71.9094 152.569 71.1333L152.687 71.1398C150.355 72.0536 147.908 73.012 145.395 73.9964C143.067 74.9066 140.794 75.7949 138.604 76.6513L138.491 76.6958L138.434 76.5966C136.565 73.2847 134.842 70.167 133.09 67.4597C132.222 66.1021 131.36 64.8423 130.548 63.6729C129.736 62.5036 128.994 61.4144 128.238 60.4778C126.758 58.5745 125.095 57.4116 123.85 56.8135C123.546 56.6512 123.263 56.5274 123.019 56.4213C122.778 56.309 122.567 56.2265 122.396 56.1621C122.236 56.0985 122.109 56.048 122.011 56.0086C121.925 55.9729 121.881 55.953 121.883 55.9497C121.883 55.9497 122.634 56.1426 123.896 56.7412C124.524 57.0416 125.272 57.4617 126.045 58.0645C126.826 58.6594 127.609 59.449 128.376 60.3879C129.147 61.3254 129.899 62.4122 130.72 63.5765C131.54 64.7421 132.412 66.0001 133.288 67.3572C135.058 70.0636 136.794 73.1827 138.668 76.49L138.499 76.4353C140.689 75.5775 142.96 74.6877 145.288 73.7757C147.802 72.7932 150.25 71.8362 152.583 70.9242L152.646 70.8996L152.701 70.9306C154.121 71.7291 155.365 72.687 156.366 73.7794C156.853 74.3344 157.264 74.9293 157.565 75.5571C157.852 76.1928 157.98 76.8632 157.974 77.5193L157.974 77.5675L157.929 77.5986C153.435 80.7269 149.668 83.3489 147.012 85.198C145.695 86.1059 144.653 86.8236 143.927 87.3234C143.577 87.5594 143.305 87.7444 143.107 87.878C143.02 87.9345 142.95 87.98 142.894 88.0171C142.845 88.0472 142.82 88.0616 142.818 88.0593Z" fill="#123922"/>
<path d="M137.689 80.3829C137.615 80.3546 138.004 79.4825 138.226 78.353C138.457 77.2249 138.432 76.2855 138.512 76.2823C138.579 76.2739 138.727 77.2328 138.49 78.3961C138.26 79.5604 137.749 80.4121 137.689 80.3829Z" fill="#123922"/>
<path d="M215.191 116.258L222.567 124.58C222.567 124.58 234.436 120.622 235.965 122.041L218.563 135.502L206.48 122.959L215.191 116.258Z" fill="#5AAC7D"/>
<g opacity="0.6">
<path d="M216.537 128.065C216.279 128.408 216.372 128.929 216.742 129.175C217.112 129.422 217.701 129.341 217.966 129.002C218.23 128.662 218.14 128.034 217.742 127.827C217.343 127.62 216.657 127.748 216.491 128.134" fill="#2F945A"/>
</g>
<g opacity="0.6">
<path d="M218.561 135.501L217.398 134.194L234.518 121.777C234.518 121.777 235.582 121.481 235.964 122.04L218.561 135.501Z" fill="#2F945A"/>
</g>
<path d="M222.777 124.282C222.847 124.361 222.455 124.724 222.272 125.294C222.072 125.859 222.173 126.357 222.066 126.387C221.973 126.433 221.664 125.877 221.899 125.192C222.128 124.504 222.729 124.198 222.777 124.282Z" fill="#123922"/>
<path d="M225.239 123.55C225.329 123.61 225.085 124.024 225.105 124.571C225.107 125.119 225.368 125.525 225.281 125.587C225.212 125.661 224.726 125.259 224.715 124.578C224.698 123.898 225.167 123.479 225.239 123.55Z" fill="#123922"/>
<path d="M228.154 124.717C228.092 124.793 227.609 124.502 227.428 123.914C227.241 123.327 227.484 122.852 227.581 122.888C227.689 122.914 227.646 123.338 227.803 123.819C227.948 124.302 228.231 124.644 228.154 124.717Z" fill="#123922"/>
<path d="M220.849 122.554C220.88 122.651 220.39 122.847 219.937 123.248C219.476 123.641 219.241 124.075 219.134 124.044C219.032 124.026 219.127 123.461 219.667 122.995C220.203 122.527 220.834 122.462 220.849 122.554Z" fill="#123922"/>
<g opacity="0.3">
<path d="M216.647 117.908L217.964 119.389L209.344 125.935L208.098 124.647L216.647 117.908Z" fill="#2F945A"/>
</g>
<path d="M219.337 120.9C219.369 120.931 219.078 121.238 218.462 121.57C218.155 121.735 217.765 121.9 217.309 122.023C217.081 122.084 216.837 122.136 216.581 122.171C216.457 122.187 216.317 122.213 216.142 122.19C215.972 122.183 215.725 122.021 215.715 121.813C215.689 121.624 215.797 121.45 215.92 121.351C216.045 121.248 216.171 121.191 216.286 121.138C216.52 121.031 216.757 120.948 216.987 120.886C217.45 120.765 217.884 120.729 218.244 120.74C218.969 120.764 219.379 120.944 219.364 120.981C219.349 121.036 218.924 120.949 218.248 120.988C217.912 121.008 217.514 121.068 217.095 121.195C216.886 121.26 216.673 121.341 216.462 121.443C216.236 121.542 216.078 121.663 216.101 121.773C216.111 121.815 216.119 121.827 216.204 121.846C216.287 121.86 216.404 121.846 216.527 121.831C216.766 121.803 216.997 121.761 217.213 121.712C217.646 121.613 218.024 121.481 218.333 121.351C218.951 121.09 219.299 120.857 219.337 120.9Z" fill="#123922"/>
<path d="M219.327 121.094C219.308 121.129 218.878 120.985 218.374 120.514C218.125 120.279 217.869 119.959 217.673 119.562C217.577 119.363 217.496 119.146 217.441 118.914C217.395 118.68 217.322 118.377 217.619 118.088C217.786 117.949 218.044 117.959 218.192 118.025C218.351 118.087 218.449 118.169 218.556 118.244C218.763 118.402 218.93 118.584 219.061 118.772C219.324 119.148 219.437 119.543 219.462 119.871C219.508 120.54 219.241 120.906 219.209 120.885C219.145 120.868 219.3 120.492 219.188 119.9C219.133 119.609 219.004 119.266 218.76 118.949C218.639 118.791 218.489 118.639 218.312 118.508C218.126 118.363 217.928 118.282 217.875 118.353C217.788 118.418 217.76 118.658 217.815 118.845C217.86 119.055 217.926 119.254 218.005 119.438C218.166 119.806 218.378 120.114 218.583 120.352C218.998 120.83 219.362 121.046 219.327 121.094Z" fill="#123922"/>
<path d="M207.175 141.911L206.717 152.799C206.717 152.799 218.85 156.875 218.983 158.895L195.512 158.853L195.453 141.861L207.175 141.911Z" fill="#5AAC7D"/>
<g opacity="0.6">
<path d="M199.451 151.87C198.996 151.981 198.682 152.44 198.786 152.854C198.89 153.268 199.406 153.56 199.862 153.456C200.319 153.352 200.716 152.811 200.56 152.411C200.405 152.01 199.779 151.697 199.363 151.896" fill="#2F945A"/>
</g>
<g opacity="0.6">
<path d="M195.508 158.854L195.576 157.141L218.054 157.822C218.054 157.822 219.098 158.233 218.979 158.896L195.508 158.854Z" fill="#2F945A"/>
</g>
<path d="M207.095 152.692C207.091 152.796 206.518 152.841 205.953 153.172C205.379 153.49 205.087 153.936 204.982 153.895C204.876 153.875 205.049 153.258 205.74 152.868C206.427 152.473 207.12 152.598 207.095 152.692Z" fill="#123922"/>
<path d="M209.551 153.616C209.577 153.716 209.08 153.891 208.69 154.327C208.285 154.752 208.186 155.224 208.072 155.22C207.965 155.236 207.886 154.631 208.383 154.097C208.874 153.56 209.549 153.517 209.551 153.616Z" fill="#123922"/>
<path d="M210.941 156.27C210.838 156.292 210.679 155.776 210.974 155.211C211.265 154.644 211.806 154.422 211.855 154.508C211.919 154.593 211.571 154.896 211.336 155.363C211.089 155.825 211.055 156.26 210.941 156.27Z" fill="#123922"/>
<path d="M206.901 150.202C206.853 150.296 206.327 150.152 205.68 150.191C205.031 150.217 204.527 150.412 204.467 150.324C204.401 150.249 204.894 149.868 205.658 149.832C206.421 149.791 206.958 150.121 206.901 150.202Z" fill="#123922"/>
<g opacity="0.3">
<path d="M207.082 144.069L207.003 146.009L195.468 145.894L195.457 144.145L207.082 144.069Z" fill="#2F945A"/>
</g>
<path d="M206.942 148.004C206.943 148.047 206.49 148.11 205.766 147.997C205.406 147.94 204.982 147.833 204.537 147.654C204.315 147.565 204.087 147.457 203.862 147.33C203.754 147.267 203.626 147.204 203.508 147.081C203.382 146.973 203.31 146.699 203.457 146.531C203.577 146.369 203.79 146.3 203.96 146.296C204.133 146.292 204.273 146.323 204.4 146.352C204.662 146.409 204.906 146.488 205.131 146.579C205.579 146.764 205.943 146.997 206.213 147.222C206.757 147.677 206.942 148.063 206.903 148.083C206.851 148.117 206.586 147.793 206.033 147.417C205.757 147.23 205.405 147.036 204.986 146.883C204.776 146.807 204.55 146.742 204.312 146.694C204.063 146.635 203.852 146.633 203.788 146.733C203.765 146.771 203.761 146.785 203.813 146.851C203.867 146.912 203.968 146.971 204.074 147.034C204.281 147.156 204.49 147.262 204.694 147.354C205.103 147.538 205.495 147.664 205.83 147.748C206.502 147.919 206.944 147.948 206.942 148.004Z" fill="#123922"/>
<path d="M206.797 148.151C206.756 148.166 206.53 147.796 206.489 147.127C206.47 146.796 206.509 146.394 206.652 145.969C206.724 145.756 206.823 145.539 206.952 145.326C207.09 145.118 207.258 144.838 207.703 144.793C207.935 144.786 208.128 144.949 208.193 145.089C208.27 145.233 208.286 145.355 208.313 145.478C208.356 145.725 208.35 145.967 208.312 146.191C208.238 146.64 208.032 147.015 207.808 147.283C207.347 147.831 206.869 147.953 206.859 147.918C206.821 147.866 207.221 147.668 207.573 147.142C207.747 146.883 207.901 146.541 207.948 146.148C207.971 145.952 207.968 145.745 207.928 145.536C207.892 145.312 207.798 145.13 207.705 145.153C207.588 145.151 207.389 145.32 207.293 145.499C207.172 145.688 207.076 145.882 207.001 146.072C206.853 146.454 206.787 146.82 206.77 147.129C206.737 147.748 206.859 148.135 206.797 148.151Z" fill="#123922"/>
<path d="M195.262 90.4284L218.489 118.232L207.625 126.638L196.439 113.464L195.262 90.4284Z" fill="#123922"/>
<path d="M146.086 91.7576C146.086 91.7576 183.454 81.5042 186.877 81.6331C190.3 81.7615 196.797 92.8945 196.797 92.8945L186.306 92.5528C183.615 98.5011 178.642 104.624 173.042 110.795L151.59 109.896L146.086 91.7576Z" fill="#123922"/>
<path d="M176.632 83.6565C176.653 83.7204 172.812 84.805 168.054 86.0786C163.294 87.3528 159.42 88.3334 159.399 88.2694C159.377 88.2055 163.218 87.121 167.977 85.8468C172.735 84.5736 176.611 83.5925 176.632 83.6565Z" fill="#123922"/>
<path d="M185.317 92.3734H195.809C201.044 92.3734 205.71 95.3492 207.448 99.7976C208.266 101.891 208.626 104.108 208.507 106.325L207.69 144.77H193.565L193.312 132.484L191.526 109.127L179.3 109.592L172.371 109.204L185.317 92.3734Z" fill="#123922"/>
<path d="M185.629 92.182C185.647 92.1862 185.576 92.4746 185.432 92.9943C185.3 93.5173 185.042 94.2578 184.69 95.1624C184.306 96.0559 183.831 97.1209 183.132 98.2244C182.448 99.334 181.592 100.504 180.577 101.648C178.53 103.928 176.386 105.745 174.871 107.08C174.13 107.722 173.518 108.251 173.059 108.649C172.629 109.017 172.385 109.216 172.372 109.204C172.358 109.192 172.578 108.972 172.985 108.583C173.391 108.192 173.993 107.64 174.738 106.959C176.218 105.593 178.337 103.759 180.367 101.498C182.395 99.232 183.748 96.8756 184.513 95.1017C184.885 94.211 185.17 93.4821 185.331 92.9684C185.506 92.4583 185.611 92.1778 185.629 92.182Z" fill="#35A967"/>
<path d="M198.458 92.6327C198.453 92.6693 197.726 92.609 196.552 92.5497C195.377 92.4885 193.752 92.4453 191.958 92.4797C190.162 92.5107 188.539 92.6067 187.364 92.6786C186.189 92.7528 185.462 92.8014 185.457 92.7667C185.455 92.75 185.634 92.7166 185.96 92.6707C186.287 92.6234 186.76 92.5682 187.347 92.5089C188.521 92.3934 190.149 92.2696 191.952 92.2386C193.756 92.2042 195.39 92.2747 196.566 92.38C197.154 92.43 197.628 92.4862 197.954 92.5344C198.281 92.5821 198.46 92.6164 198.458 92.6327Z" fill="#35A967"/>
<path d="M193.507 137.746C193.497 137.746 193.484 137.636 193.468 137.426C193.454 137.191 193.435 136.885 193.411 136.506C193.37 135.678 193.314 134.529 193.244 133.122C193.105 130.266 192.913 126.319 192.609 121.966C192.304 117.611 191.945 113.673 191.685 110.824C191.559 109.42 191.455 108.274 191.381 107.448C191.351 107.069 191.328 106.764 191.309 106.529C191.296 106.319 191.293 106.208 191.302 106.208C191.312 106.207 191.332 106.316 191.363 106.525C191.394 106.758 191.435 107.062 191.485 107.439C191.58 108.263 191.712 109.407 191.874 110.808C192.183 113.655 192.572 117.592 192.878 121.95C193.181 126.307 193.343 130.257 193.433 133.116C193.468 134.524 193.496 135.674 193.516 136.502C193.519 136.883 193.522 137.189 193.523 137.424C193.521 137.635 193.516 137.745 193.507 137.746Z" fill="#123922"/>
<path d="M208.529 104.844C208.603 104.845 208.553 113.654 208.418 124.517C208.282 135.384 208.112 144.19 208.038 144.189C207.964 144.188 208.014 135.382 208.15 124.515C208.285 113.652 208.456 104.844 208.529 104.844Z" fill="#35A967"/>
<path d="M197.007 103.408C197.031 103.481 195.56 103.814 193.994 104.689C192.419 105.55 191.423 106.581 191.361 106.528C191.336 106.509 191.552 106.226 191.979 105.827C192.404 105.429 193.053 104.927 193.854 104.483C194.656 104.04 195.448 103.747 196.034 103.586C196.622 103.424 196.999 103.379 197.007 103.408Z" fill="#123922"/>
<g opacity="0.3">
<path d="M172.371 109.208C175.219 109.682 178.348 108.896 180.788 107.525C183.228 106.153 185.035 103.943 185.73 101.477C186.042 100.37 186.137 99.222 186.447 98.1143C186.757 97.0066 187.323 95.8985 188.357 95.2048C189.553 94.4032 192.495 93.8922 193.371 92.8198C193.371 92.6579 189.884 93.0219 188.713 93.0799C187.439 93.1429 185.302 93.4341 185.346 93.2987C185.346 93.2987 184.493 95.9926 184.114 96.5782C181.567 100.513 175.982 106.296 172.371 109.208Z" fill="#2F945A"/>
</g>
<path d="M114.133 136.421L118.104 159.822H122.044L120.104 136.51L114.133 136.421Z" fill="#123922"/>
<path d="M184.031 136.511V159.823H188.191L189.739 136.422L184.031 136.511Z" fill="#123922"/>
<path d="M113.434 64.0999C113.434 64.0999 107.87 64.2988 106.166 66.4015C103.163 70.1067 104.85 73.3194 104.683 74.415C104.515 75.5107 114.138 136.422 114.138 136.422H118.099L189.744 137.018L193.181 129.488L191.528 109.127L172.373 109.204C172.373 109.204 164.529 88.923 157.671 87.5673C153.026 86.6492 142.118 86.9743 135.558 87.2803C132.283 87.4328 129.167 86.0024 127.386 83.5223L113.434 64.0999Z" fill="#35A967"/>
<path d="M176.928 134.029C176.928 134.029 176.533 134.075 175.771 134.108C175.011 134.128 173.887 134.159 172.434 134.171C169.529 134.206 165.312 134.218 160.059 134.214C149.555 134.207 134.911 134.132 118.356 134.003L118.249 134.002L118.227 133.908C117.929 132.631 117.624 131.32 117.313 129.988C117.016 128.652 116.714 127.295 116.41 125.926C112.813 109.41 110.705 94.2782 109.571 83.3043C109.001 77.8159 108.66 73.3657 108.444 70.2897C108.35 68.7569 108.278 67.5643 108.228 66.7459C108.207 66.3463 108.191 66.0398 108.179 65.8242C108.17 65.6165 108.172 65.5098 108.172 65.5098C108.172 65.5098 108.189 65.6155 108.207 65.8228C108.224 66.0384 108.249 66.3444 108.281 66.7432C108.342 67.5611 108.433 68.7517 108.548 70.2832C108.796 73.3568 109.166 77.8034 109.76 83.2876C110.941 94.2537 113.078 109.373 116.672 125.88C116.976 127.247 117.278 128.604 117.575 129.939C117.885 131.271 118.189 132.581 118.486 133.857L118.358 133.762C134.908 133.878 149.548 133.98 160.059 134.054C165.305 134.066 169.52 134.076 172.433 134.083C173.878 134.074 174.999 134.067 175.769 134.062C176.149 134.062 176.436 134.037 176.631 134.034C176.827 134.027 176.928 134.029 176.928 134.029Z" fill="#123922"/>
<path d="M176.179 136.904C176.17 136.903 176.181 136.803 176.209 136.615C176.244 136.401 176.289 136.129 176.344 135.793C176.409 135.436 176.486 135.001 176.548 134.492C176.612 133.983 176.713 133.407 176.763 132.764C176.828 132.122 176.901 131.42 176.931 130.663C176.988 129.907 176.99 129.097 177.003 128.246C176.992 126.543 176.891 124.672 176.644 122.72C176.384 120.768 176.002 118.925 175.584 117.265C175.152 115.606 174.685 114.13 174.241 112.905C174.036 112.287 173.805 111.742 173.622 111.257C173.441 110.771 173.266 110.359 173.123 110.023C172.992 109.704 172.886 109.445 172.803 109.243C172.733 109.064 172.7 108.968 172.708 108.965C172.717 108.962 172.767 109.051 172.853 109.225C172.948 109.423 173.07 109.676 173.22 109.988C173.379 110.32 173.569 110.728 173.763 111.211C173.96 111.693 174.204 112.235 174.422 112.852C174.89 114.074 175.378 115.552 175.825 117.214C176.258 118.88 176.649 120.73 176.911 122.692C177.16 124.654 177.253 126.536 177.25 128.247C177.231 129.103 177.22 129.916 177.153 130.674C177.114 131.434 177.029 132.139 176.953 132.782C176.89 133.426 176.776 134.003 176.697 134.511C176.621 135.021 176.528 135.455 176.448 135.809C176.372 136.143 176.311 136.413 176.263 136.624C176.217 136.809 176.189 136.906 176.179 136.904Z" fill="#123922"/>
<path d="M123.676 93.2659C123.67 93.2594 123.77 93.1838 123.966 93.0461C124.185 92.8959 124.472 92.6984 124.831 92.4517C125.022 92.3224 125.232 92.1805 125.461 92.0261C125.701 91.8847 125.972 91.7442 126.259 91.5865C126.838 91.281 127.476 90.8938 128.25 90.5841C128.632 90.4172 129.03 90.2428 129.444 90.0615C129.858 89.8765 130.316 89.7416 130.776 89.5701C131.241 89.4129 131.711 89.2209 132.217 89.0781C132.722 88.9344 133.242 88.7865 133.775 88.6349C135.921 88.0757 138.326 87.5768 140.888 87.3023C143.447 87.0106 145.906 86.8734 148.141 86.9059C149.259 86.8882 150.318 86.9698 151.311 87.0023C152.3 87.0848 153.224 87.1423 154.061 87.2494C155.737 87.4451 157.078 87.6955 157.995 87.8995C158.43 88.008 158.778 88.0951 159.043 88.161C159.281 88.2231 159.405 88.2597 159.402 88.2681C159.4 88.276 159.271 88.2551 159.028 88.2083C158.761 88.1536 158.409 88.0812 157.971 87.9913C157.05 87.816 155.71 87.5925 154.038 87.4191C153.203 87.3236 152.282 87.2758 151.296 87.2026C150.308 87.1789 149.252 87.1052 148.139 87.1289C145.914 87.1085 143.468 87.2517 140.922 87.542C138.372 87.8151 135.981 88.3047 133.844 88.8486C133.313 88.996 132.796 89.1398 132.292 89.2793C131.788 89.4175 131.32 89.6048 130.856 89.7569C130.398 89.9229 129.941 90.0532 129.527 90.2322C129.113 90.4074 128.714 90.5762 128.334 90.7376C127.558 91.0357 126.92 91.4099 126.336 91.7024C126.047 91.8536 125.774 91.9876 125.53 92.1225C125.299 92.2695 125.085 92.4049 124.89 92.5287C124.52 92.7591 124.224 92.9441 123.999 93.0846C123.793 93.2098 123.682 93.2724 123.676 93.2659Z" fill="#123922"/>
<path d="M166.255 96.5627C166.26 96.5641 166.243 96.6155 166.206 96.7152C166.168 96.814 166.117 96.9642 166.032 97.1548C165.845 97.5271 165.542 98.0779 164.976 98.6737C164.412 99.2681 163.588 99.8978 162.5 100.425C161.951 100.68 161.342 100.913 160.675 101.105C160.005 101.287 159.28 101.429 158.507 101.505C156.959 101.654 155.248 101.541 153.459 101.248C151.667 100.958 149.794 100.493 147.816 100.064C145.84 99.646 143.728 99.2709 141.524 99.3154C140.425 99.3326 139.309 99.4726 138.227 99.7712C137.144 100.066 136.114 100.552 135.174 101.165C133.282 102.402 131.877 104.076 130.702 105.752C129.526 107.438 128.593 109.176 127.6 110.784C126.615 112.393 125.576 113.888 124.379 115.131C123.194 116.378 121.835 117.363 120.417 117.95C119.002 118.531 117.596 118.799 116.362 118.811C115.125 118.825 114.067 118.602 113.272 118.29C112.866 118.146 112.545 117.95 112.258 117.797C111.993 117.614 111.768 117.459 111.6 117.32C111.451 117.179 111.333 117.067 111.243 116.981C111.165 116.904 111.126 116.864 111.129 116.861C111.133 116.858 111.178 116.893 111.263 116.965C111.358 117.045 111.481 117.151 111.636 117.285C111.808 117.416 112.037 117.563 112.302 117.737C112.59 117.882 112.91 118.069 113.313 118.204C114.101 118.497 115.143 118.703 116.359 118.676C117.572 118.652 118.952 118.377 120.337 117.795C121.722 117.21 123.045 116.239 124.21 115.001C125.385 113.768 126.408 112.284 127.384 110.677C128.367 109.073 129.297 107.329 130.479 105.627C131.661 103.936 133.081 102.236 135.016 100.971C135.978 100.342 137.037 99.8435 138.148 99.5422C139.259 99.2366 140.4 99.0952 141.519 99.0794C143.761 99.0377 145.891 99.423 147.873 99.8486C149.857 100.284 151.722 100.756 153.499 101.051C155.273 101.351 156.963 101.472 158.488 101.336C159.248 101.267 159.964 101.133 160.626 100.959C161.285 100.776 161.887 100.552 162.431 100.306C163.509 99.7981 164.33 99.1898 164.897 98.6134C166.027 97.4357 166.206 96.5358 166.255 96.5627Z" fill="#2F945A"/>
<path d="M192.431 126.223C192.431 126.223 192.355 126.244 192.205 126.272C192.044 126.302 191.823 126.341 191.541 126.392C191.246 126.434 190.906 126.572 190.491 126.685C190.28 126.736 190.078 126.85 189.848 126.938C189.624 127.038 189.374 127.124 189.137 127.265C188.144 127.752 187.045 128.523 185.857 129.498C184.663 130.468 183.387 131.662 181.821 132.835C181.033 133.415 180.173 133.997 179.176 134.454C178.692 134.709 178.148 134.875 177.608 135.067C177.327 135.135 177.044 135.203 176.757 135.273C176.473 135.35 176.171 135.362 175.875 135.41C174.679 135.55 173.416 135.489 172.164 135.24C170.908 134.997 169.674 134.551 168.472 134.003C166.066 132.896 163.801 131.335 161.638 129.565C159.479 127.801 157.27 125.93 154.694 124.403C153.407 123.644 152.052 123 150.632 122.579C149.216 122.154 147.739 121.963 146.298 122.038C144.856 122.113 143.468 122.451 142.181 122.927C140.89 123.402 139.693 124.007 138.553 124.637C136.278 125.904 134.207 127.258 132.101 128.291C129.989 129.309 127.882 130.018 125.903 130.445C121.936 131.325 118.582 131.21 116.337 130.964C114.082 130.693 112.883 130.335 112.883 130.335C112.883 130.335 112.962 130.343 113.111 130.37C113.272 130.401 113.493 130.444 113.775 130.499C114.359 130.61 115.225 130.753 116.35 130.871C118.589 131.087 121.925 131.174 125.857 130.279C127.82 129.845 129.905 129.133 131.995 128.115C134.079 127.083 136.14 125.727 138.424 124.448C139.567 123.812 140.775 123.199 142.084 122.714C143.389 122.229 144.806 121.881 146.283 121.802C147.758 121.724 149.272 121.919 150.716 122.351C152.164 122.78 153.539 123.434 154.839 124.201C157.443 125.745 159.658 127.625 161.814 129.39C163.964 131.154 166.21 132.706 168.583 133.805C169.769 134.349 170.983 134.792 172.215 135.033C173.443 135.281 174.677 135.344 175.846 135.212C176.136 135.165 176.431 135.156 176.709 135.081C176.989 135.014 177.267 134.948 177.542 134.883C178.071 134.696 178.604 134.538 179.08 134.289C180.062 133.846 180.916 133.274 181.701 132.703C183.263 131.547 184.549 130.363 185.757 129.398C186.958 128.429 188.076 127.663 189.086 127.184C189.327 127.045 189.582 126.961 189.81 126.864C190.043 126.778 190.248 126.667 190.463 126.62C190.885 126.512 191.23 126.38 191.528 126.347C191.815 126.305 192.038 126.273 192.201 126.249C192.353 126.228 192.431 126.223 192.431 126.223Z" fill="#2F945A"/>
<path d="M120.798 75.5779C120.813 75.5812 120.775 75.7921 120.658 76.164C120.542 76.5359 120.326 77.064 119.97 77.6783C119.273 78.901 117.878 80.4686 115.772 81.4613C113.664 82.4513 111.438 82.5871 109.926 82.4035C109.163 82.3163 108.558 82.174 108.153 82.0469C107.748 81.9213 107.534 81.8286 107.539 81.8156C107.555 81.766 108.437 82.1044 109.946 82.2338C111.436 82.3706 113.599 82.2092 115.648 81.2471C117.694 80.2822 119.076 78.7763 119.803 77.5958C120.548 76.4074 120.743 75.5617 120.798 75.5779Z" fill="#2F945A"/>
<path d="M32.4984 56.1135L31.1041 56.8845C30.8901 57.005 30.669 57.0368 30.4406 56.9798C30.2125 56.9228 30.0381 56.7872 29.9176 56.573L28.3024 53.7462C28.1819 53.5321 28.1501 53.3093 28.2071 53.078C28.2641 52.8465 28.3997 52.6705 28.6139 52.55L33.8639 49.5H35.3446C35.5138 49.5 35.6491 49.5507 35.7504 49.652C35.8516 49.7533 35.9021 49.8886 35.9021 50.0577V50.404C35.9021 50.9732 36.1092 51.4648 36.5234 51.879C36.9376 52.293 37.4292 52.5 37.9984 52.5C38.5676 52.5 39.0592 52.293 39.4734 51.879C39.8876 51.4648 40.0946 50.9732 40.0946 50.404V50.0577C40.0946 49.8886 40.1452 49.7533 40.2464 49.652C40.3477 49.5507 40.483 49.5 40.6521 49.5H42.1329L47.3829 52.55C47.5971 52.6705 47.7326 52.8465 47.7896 53.078C47.8466 53.3093 47.8149 53.5321 47.6944 53.7462L46.0791 56.573C45.9586 56.7872 45.7868 56.9202 45.5636 56.972C45.3406 57.024 45.117 56.9898 44.8926 56.8693L43.4984 56.1288V65.6152C43.4984 65.8666 43.4137 66.0768 43.2444 66.246C43.0752 66.4153 42.865 66.5 42.6136 66.5H33.3831C33.1318 66.5 32.9216 66.4153 32.7524 66.246C32.5831 66.0768 32.4984 65.8666 32.4984 65.6152V56.1135ZM33.9984 53.6V65H41.9984V53.6L45.0791 55.2905L46.1099 53.55L41.8196 51.0307H41.5021C41.3483 51.8744 40.9496 52.5802 40.3061 53.148C39.6625 53.716 38.8932 54 37.9984 54C37.1036 54 36.3343 53.716 35.6906 53.148C35.0471 52.5802 34.6485 51.8744 34.4946 51.0307H34.1771L29.8869 53.55L30.9176 55.2905L33.9984 53.6Z" fill="#2F945A"/>
<path d="M26.5 107.5V105.798H28.5V93.9423C28.5 93.5506 28.6425 93.2123 28.9275 92.9275C29.2123 92.6425 29.5506 92.5 29.9423 92.5H44.5V93.6348H29.9423C29.8526 93.6348 29.7789 93.6636 29.7213 93.7212C29.6636 93.7789 29.6348 93.8526 29.6348 93.9423V105.798H35.375V107.5H26.5ZM38.1155 107.5C37.9112 107.5 37.7398 107.431 37.6015 107.293C37.4633 107.154 37.3943 106.983 37.3943 106.779V96.1827C37.3943 95.9784 37.4633 95.8072 37.6015 95.669C37.7398 95.5307 37.9112 95.4615 38.1155 95.4615H44.7885C44.9928 95.4615 45.1641 95.5307 45.3023 95.669C45.4404 95.8072 45.5095 95.9784 45.5095 96.1827V106.779C45.5095 106.983 45.4404 107.154 45.3023 107.293C45.1641 107.431 44.9928 107.5 44.7885 107.5H38.1155ZM38.5288 105.798H44.375V96.5962H38.5288V105.798Z" fill="#2F945A"/>
<path d="M65.5 30.5V15.3077C65.5 14.8026 65.675 14.375 66.025 14.025C66.375 13.675 66.8026 13.5 67.3077 13.5H72.6923C73.1974 13.5 73.625 13.675 73.975 14.025C74.325 14.375 74.5 14.8026 74.5 15.3077V21.8078H75.4615C75.9587 21.8078 76.3843 21.9847 76.7383 22.3387C77.0923 22.6927 77.2693 23.1182 77.2693 23.6152V28.1538C77.2693 28.4756 77.3811 28.7483 77.6048 28.972C77.8284 29.1958 78.1012 29.3078 78.423 29.3078C78.7448 29.3078 79.0176 29.1958 79.2413 28.972C79.4651 28.7483 79.577 28.4756 79.577 28.1538V21.1462C79.427 21.2359 79.2687 21.2981 79.102 21.3328C78.9353 21.3673 78.7603 21.3845 78.577 21.3845C77.9632 21.3845 77.4443 21.1726 77.0203 20.7488C76.5964 20.3249 76.3845 19.8061 76.3845 19.1923C76.3845 18.6974 76.5256 18.2568 76.8078 17.8703C77.0898 17.4837 77.4628 17.2244 77.927 17.0923L75.673 14.8385L76.5115 14L80.0768 17.504C80.3013 17.7283 80.4728 17.9882 80.5913 18.2837C80.7099 18.5792 80.7693 18.8821 80.7693 19.1923V28.1538C80.7693 28.8108 80.5426 29.366 80.0893 29.8195C79.6361 30.2732 79.0813 30.5 78.425 30.5C77.7685 30.5 77.213 30.2732 76.7585 29.8195C76.3042 29.366 76.077 28.8108 76.077 28.1538V23.3078C76.077 23.2179 76.0481 23.1442 75.9902 23.0865C75.9326 23.0288 75.8589 23 75.7693 23H74.5V30.5H65.5ZM67 20.25H73V15.3077C73 15.2307 72.9679 15.1602 72.9037 15.0962C72.8397 15.0321 72.7693 15 72.6923 15H67.3077C67.2307 15 67.1603 15.0321 67.0963 15.0962C67.0321 15.1602 67 15.2307 67 15.3077V20.25ZM78.577 20.1923C78.8603 20.1923 79.0978 20.0964 79.2895 19.9048C79.4812 19.7131 79.577 19.4756 79.577 19.1923C79.577 18.9089 79.4812 18.6714 79.2895 18.4798C79.0978 18.2881 78.8603 18.1923 78.577 18.1923C78.2937 18.1923 78.0562 18.2881 77.8645 18.4798C77.6728 18.6714 77.577 18.9089 77.577 19.1923C77.577 19.4756 77.6728 19.7131 77.8645 19.9048C78.0562 20.0964 78.2937 20.1923 78.577 20.1923ZM67 29H73V21.75H67V29Z" fill="#2F945A"/>
<path d="M166 30V28.5H181V30H166ZM169.567 26.1153C168.583 26.1153 167.742 25.7717 167.045 25.0846C166.348 24.3974 166 23.5679 166 22.5961V13H181.154C181.661 13 182.096 13.1766 182.458 13.5298C182.819 13.883 183 14.3122 183 14.8173V17.4327C183 17.9378 182.819 18.367 182.458 18.7202C182.096 19.0734 181.661 19.25 181.154 19.25H179.154V22.5961C179.154 23.5679 178.805 24.3974 178.109 25.0846C177.412 25.7717 176.571 26.1153 175.587 26.1153H169.567ZM169.567 24.6154H175.587C176.155 24.6154 176.642 24.4173 177.047 24.0211C177.451 23.6249 177.654 23.1486 177.654 22.5923V14.5H167.5V22.5959C167.5 23.1525 167.702 23.6282 168.107 24.0231C168.512 24.4179 168.999 24.6154 169.567 24.6154ZM179.154 17.75H181.154C181.25 17.75 181.332 17.7196 181.399 17.6587C181.466 17.5978 181.5 17.5224 181.5 17.4327V14.8173C181.5 14.7276 181.466 14.6522 181.399 14.5913C181.332 14.5304 181.25 14.5 181.154 14.5H179.154V17.75ZM169.567 24.6154H167.5H177.654H169.567Z" fill="#2F945A"/>
</svg>
