<svg width="24" height="24" viewBox="0 0 24 24" fill="none" xmlns="http://www.w3.org/2000/svg">
<path d="M20.5469 5.61287C20.5352 5.59178 20.5188 5.57068 20.5 5.55428C20.3828 5.43709 20.193 5.43709 20.0758 5.55428L16.0375 9.59256L14.4461 8.00115L18.4868 3.96053C18.5055 3.94178 18.5196 3.92303 18.5336 3.90193C18.618 3.75896 18.5711 3.57615 18.4282 3.49178C16.1266 2.1324 13.1125 2.44412 11.1321 4.42225C9.56176 5.99256 9.04144 8.21912 9.57347 10.2207L4.1205 15.6737C4.05019 15.744 4.05488 15.8588 4.12753 15.9315L8.10488 19.9088C8.17753 19.9815 8.29472 19.9862 8.36269 19.9158L13.8133 14.4652C15.8172 14.9996 18.0438 14.4816 19.6164 12.909C21.5946 10.9285 21.9063 7.91443 20.5469 5.61287ZM18.4235 11.7137C17.0618 13.0754 15.018 13.3379 13.3938 12.5012L13.1875 12.7074L13.1852 12.7051L8.17753 17.7151L6.32128 15.8588L10.3 11.8801C10.3 11.8801 10.3 11.8824 10.3024 11.8824L11.5399 10.6449C10.7032 9.02068 10.9657 6.97693 12.3274 5.61521C12.7666 5.17564 13.2955 4.83605 13.8779 4.61964C14.4604 4.40324 15.0827 4.31512 15.7024 4.36131L12.5875 7.47381C12.4468 7.61466 12.3678 7.80559 12.3678 8.00467C12.3678 8.20374 12.4468 8.39468 12.5875 8.53553L15.5055 11.4535C15.6464 11.5942 15.8373 11.6732 16.0364 11.6732C16.2354 11.6732 16.4264 11.5942 16.5672 11.4535L19.6797 8.341C19.7664 9.55506 19.3422 10.7972 18.4235 11.7137Z" fill="#2F945A"/>
</svg>
