<svg width="270" height="151" viewBox="0 0 270 151" fill="none" xmlns="http://www.w3.org/2000/svg">
<g clip-path="url(#clip0_12836_95715)">
<rect width="270" height="150" transform="translate(0 0.125)" fill="url(#paint0_linear_12836_95715)"/>
<g clip-path="url(#clip1_12836_95715)">
<path d="M153.084 131.416C153.098 131.398 153.107 32.2652 153.117 32.2456C153.131 32.2351 14.5744 32.2528 14.5733 32.2452C14.4711 32.2075 14.6094 131.382 14.5731 131.416L14.6067 32.2793C14.4129 32.3795 153.117 32.2789 153.083 32.3135C153.019 32.1095 153.093 131.456 153.084 131.416Z" fill="#DBDBDB"/>
<path d="M115.357 32.2793C115.302 56.2616 115.302 106.962 115.357 130.939C115.412 106.957 115.412 56.2558 115.357 32.2793Z" fill="#DBDBDB"/>
<path d="M52.2908 32.2793C52.2355 56.2616 52.2355 106.962 52.2908 130.939C52.3458 106.957 52.3458 56.2558 52.2908 32.2793Z" fill="#DBDBDB"/>
<path d="M13.2507 53.0645H54.625V54.8611H13.2507V53.0645Z" fill="#EBEBEB"/>
<path d="M50.173 41.1885H52.2291C52.3787 41.1885 52.5 41.0672 52.5 40.9178V38.3314C52.5 38.1818 52.3787 38.0605 52.2291 38.0605H50.173C50.0234 38.0605 49.9022 38.1818 49.9022 38.3314V40.9178C49.9022 41.0674 50.0234 41.1885 50.173 41.1885Z" fill="#C7C7C7"/>
<path d="M52.1299 38.3359H52.2344V40.9129H52.1299V38.3359Z" fill="#A6A6A6"/>
<path d="M51.8565 38.3359H51.9609V40.9129H51.8565V38.3359Z" fill="#A6A6A6"/>
<path d="M51.5713 38.3359H51.6758V40.9129H51.5713V38.3359Z" fill="#A6A6A6"/>
<path d="M51.294 38.3359H51.3984V40.9129H51.294V38.3359Z" fill="#A6A6A6"/>
<path d="M51.0088 38.3359H51.1133V40.9129H51.0088V38.3359Z" fill="#A6A6A6"/>
<path d="M50.7354 38.3359H50.8398V40.9129H50.7354V38.3359Z" fill="#A6A6A6"/>
<path d="M50.4463 38.3359H50.5508V40.9129H50.4463V38.3359Z" fill="#A6A6A6"/>
<path d="M50.1729 38.3359H50.2773V40.9129H50.1729V38.3359Z" fill="#A6A6A6"/>
<path d="M45.4828 51.6924L47.436 42.4029C47.6984 41.1736 48.6896 40.2505 49.904 40.0564C50.0595 40.0322 50.2198 40.0176 50.3802 40.0176H52.0711C52.2216 40.0176 52.3673 40.0468 52.5035 40.1002C52.9165 40.2752 53.2031 40.6833 53.2031 41.1546V51.9257C53.2031 52.5524 52.6977 53.0627 52.0711 53.0627H46.5955C45.8714 53.0623 45.3321 52.3968 45.4828 51.6924ZM48.874 43.1801C48.8156 43.1655 48.7574 43.1608 48.704 43.1608C48.3347 43.1608 48.0092 43.4135 47.9266 43.7874L47.1054 47.5043C47.018 47.9317 47.2851 48.3544 47.7175 48.4517C48.1451 48.5391 48.5676 48.2671 48.6649 47.8396L49.4811 44.1277C49.5736 43.7001 49.3016 43.2773 48.874 43.1801Z" fill="#DBDBDB"/>
<path d="M51.706 41.5527H50.7038C50.2874 41.5527 49.975 41.9555 50.1023 42.3519C50.2436 42.7915 50.3292 43.4237 50.1794 44.2757C49.8422 46.1948 49.3755 48.5806 49.2198 48.8919C49.0905 49.1509 48.4762 49.6432 47.5267 49.3831C47.1817 49.2885 46.8246 49.4862 46.7406 49.8337L46.5281 50.7121C46.4329 51.1059 46.7314 51.4852 47.1366 51.4852H51.706C52.0517 51.4852 52.332 51.2049 52.332 50.8592V42.1787C52.3318 41.833 52.0517 41.5527 51.706 41.5527Z" fill="white"/>
<path d="M41.1066 41.1885H43.1627C43.3123 41.1885 43.4336 41.0672 43.4336 40.9178V38.3314C43.4336 38.1818 43.3123 38.0605 43.1627 38.0605H41.1066C40.957 38.0605 40.8358 38.1818 40.8358 38.3314V40.9178C40.836 41.0674 40.957 41.1885 41.1066 41.1885Z" fill="#C7C7C7"/>
<path d="M43.0635 38.3359H43.168V40.9129H43.0635V38.3359Z" fill="#A6A6A6"/>
<path d="M42.7862 38.3359H42.8906V40.9129H42.7862V38.3359Z" fill="#A6A6A6"/>
<path d="M42.501 38.3359H42.6055V40.9129H42.501V38.3359Z" fill="#A6A6A6"/>
<path d="M42.2276 38.3359H42.332V40.9129H42.2276V38.3359Z" fill="#A6A6A6"/>
<path d="M41.9385 38.3359H42.043V40.9129H41.9385V38.3359Z" fill="#A6A6A6"/>
<path d="M41.669 38.3359H41.7734V40.9129H41.669V38.3359Z" fill="#A6A6A6"/>
<path d="M41.3799 38.3359H41.4844V40.9129H41.3799V38.3359Z" fill="#A6A6A6"/>
<path d="M41.1026 38.3359H41.207V40.9129H41.1026V38.3359Z" fill="#A6A6A6"/>
<path d="M36.4008 51.6943L38.354 42.4049C38.6163 41.1756 39.6075 40.2525 40.822 40.0584C40.9774 40.0341 41.1378 40.0195 41.2982 40.0195H42.989C43.1395 40.0195 43.2853 40.0487 43.4214 40.1022C43.8345 40.2772 44.1211 40.6853 44.1211 41.1565V51.9277C44.1211 52.5544 43.6157 53.0647 42.989 53.0647H37.5135C36.7896 53.0642 36.2501 52.3987 36.4008 51.6943ZM39.7919 43.182C39.7335 43.1674 39.6754 43.1627 39.6219 43.1627C39.2527 43.1627 38.9272 43.4154 38.8445 43.7894L38.0234 47.5062C37.936 47.9337 38.203 48.3564 38.6356 48.4537C39.0633 48.541 39.4858 48.269 39.5831 47.8416L40.3993 44.1297C40.4916 43.702 40.2196 43.2793 39.7919 43.182Z" fill="#DBDBDB"/>
<path d="M42.624 41.5527H41.6218C41.2054 41.5527 40.8929 41.9555 41.0203 42.3519C41.1616 42.7915 41.2469 43.4237 41.0973 44.2757C40.7602 46.1948 40.2935 48.5806 40.1378 48.8919C40.0084 49.1509 39.3941 49.6432 38.4447 49.3831C38.0997 49.2885 37.7426 49.4862 37.6586 49.8337L37.4461 50.7121C37.3508 51.1059 37.6493 51.4852 38.0545 51.4852H42.624C42.9697 51.4852 43.25 51.2049 43.25 50.8592V42.1787C43.25 41.833 42.9697 41.5527 42.624 41.5527Z" fill="white"/>
<path d="M20.5676 41.1885H22.6237C22.7732 41.1885 22.8945 41.0672 22.8945 40.9178V38.3314C22.8945 38.1818 22.7732 38.0605 22.6237 38.0605H20.5676C20.418 38.0605 20.2967 38.1818 20.2967 38.3314V40.9178C20.2967 41.0674 20.418 41.1885 20.5676 41.1885Z" fill="#C7C7C7"/>
<path d="M22.5245 38.3379H22.6289V40.9148H22.5245V38.3379Z" fill="#A6A6A6"/>
<path d="M22.251 38.3379H22.3555V40.9148H22.251V38.3379Z" fill="#A6A6A6"/>
<path d="M21.9659 38.3379H22.0703V40.9148H21.9659V38.3379Z" fill="#A6A6A6"/>
<path d="M21.6924 38.3379H21.7969V40.9148H21.6924V38.3379Z" fill="#A6A6A6"/>
<path d="M21.4034 38.3379H21.5078V40.9148H21.4034V38.3379Z" fill="#A6A6A6"/>
<path d="M21.1299 38.3379H21.2344V40.9148H21.1299V38.3379Z" fill="#A6A6A6"/>
<path d="M20.8448 38.3379H20.9492V40.9148H20.8448V38.3379Z" fill="#A6A6A6"/>
<path d="M20.5713 38.3379H20.6758V40.9148H20.5713V38.3379Z" fill="#A6A6A6"/>
<path d="M15.8854 51.6924L17.8384 42.4029C18.1007 41.1736 19.0919 40.2505 20.3064 40.0564C20.4618 40.0322 20.6222 40.0176 20.7826 40.0176H22.4734C22.6241 40.0176 22.7699 40.0468 22.9058 40.1002C23.3189 40.2752 23.6055 40.6833 23.6055 41.1546V51.9257C23.6055 52.5524 23.1001 53.0627 22.4734 53.0627H16.9979C16.274 53.0623 15.7347 52.3968 15.8854 51.6924ZM19.2766 43.1801C19.2182 43.1655 19.16 43.1608 19.1065 43.1608C18.7373 43.1608 18.4118 43.4135 18.3291 43.7874L17.508 47.5043C17.4206 47.9317 17.6877 48.3544 18.12 48.4517C18.5477 48.5391 18.9702 48.2671 19.0674 47.8396L19.8837 44.1277C19.9762 43.7001 19.704 43.2773 19.2766 43.1801Z" fill="#EBEBEB"/>
<path d="M22.1086 41.5527H21.1064C20.69 41.5527 20.3775 41.9555 20.5049 42.3519C20.6462 42.7915 20.7317 43.4237 20.5819 44.2757C20.2448 46.1948 19.778 48.5806 19.6224 48.8919C19.493 49.1509 18.8787 49.6432 17.9293 49.3831C17.5843 49.2885 17.2271 49.4862 17.1429 49.8337L16.9304 50.7121C16.8352 51.1059 17.1337 51.4852 17.5389 51.4852H22.1084C22.4541 51.4852 22.7344 51.2049 22.7344 50.8592V42.1787C22.7344 41.833 22.4543 41.5527 22.1086 41.5527Z" fill="white"/>
<path d="M62.485 61.7422H103.859V63.5388H62.485V61.7422Z" fill="#EBEBEB"/>
<path d="M68.6836 41.6802L76.1795 41.6777C76.6148 41.6775 77.0297 41.868 77.3145 42.1977L81.6753 47.2523C81.9098 47.5241 82.0387 47.8705 82.0389 48.2298L82.043 60.2355C82.0432 61.0625 81.3736 61.7339 80.5466 61.7341L68.6903 61.7381C67.8633 61.7384 67.1933 61.0674 67.1931 60.2404L67.1872 43.1786C67.187 42.352 67.8566 41.6807 68.6836 41.6802ZM68.8067 43.8843C68.8069 44.2758 69.1238 44.5941 69.5153 44.5939L75.3572 44.5918C75.7501 44.5916 76.0668 44.2733 76.0668 43.8818V43.6732C76.0665 43.2817 75.7496 42.9634 75.3568 42.9636L69.5149 42.9657C69.1234 42.9659 68.8065 43.2841 68.8067 43.6756V43.8843Z" fill="#EBEBEB"/>
<path d="M80.7205 46.1792L78.9844 44.1484L79.7576 43.4874L81.4937 45.5182L80.7205 46.1792Z" fill="#EBEBEB"/>
<path opacity="0.1" d="M80.8906 46.0442L79.2523 43.9297L78.9958 44.1489L80.7321 46.1798L80.8906 46.0442Z" fill="black"/>
<path d="M80.6472 42.1066L83.0039 44.8633L81.8097 45.8842L79.453 43.1275L80.6472 42.1066Z" fill="#C7C7C7"/>
<g opacity="0.1">
<path d="M71.2164 58.521L78.0117 58.5187L78.0086 49.0078L71.2132 49.0101L71.2164 58.521ZM77.4962 58.0037L71.7314 58.0057L71.7285 49.5253L77.4933 49.5233L77.4962 58.0037Z" fill="black"/>
<path d="M79.0183 47.628L79.3828 47.9922L77.9314 49.4446L77.5669 49.0804L79.0183 47.628Z" fill="black"/>
<path d="M71.2879 58.085L71.6523 58.4492L70.2012 59.9016L69.8367 59.5374L71.2879 58.085Z" fill="black"/>
<path d="M77.9345 58.0779L79.3867 59.5293L79.0225 59.8937L77.5703 58.4424L77.9345 58.0779Z" fill="black"/>
<path d="M70.2001 47.6287L71.6523 49.0801L71.2881 49.4445L69.8359 47.9931L70.2001 47.6287Z" fill="black"/>
</g>
<path opacity="0.1" d="M68.6903 61.7403L80.5466 61.7363C81.3736 61.736 82.0432 61.0647 82.043 60.2377L82.0389 48.232C82.0389 48.1613 82.0338 48.0892 82.0234 48.0195L80.3925 58.8201C80.3076 59.3805 80.0296 59.8947 79.6046 60.2723C79.4101 60.4436 79.1913 60.5829 78.9568 60.6846C78.7223 60.7864 78.4699 60.8511 78.2122 60.8756L68.6903 61.7403Z" fill="black"/>
<g opacity="0.4">
<path d="M75.3594 42.0929C73.1072 41.8287 70.8402 41.9051 68.5896 42.0895C68.0438 42.222 67.6146 42.7105 67.5744 43.2842C67.4823 44.6761 67.4589 46.0545 67.4574 47.4458C67.4769 48.8316 67.5337 50.2175 67.6759 51.6033H67.7208C67.9962 48.8381 67.98 46.0593 67.8203 43.2916C67.7887 42.5924 68.4443 42.0935 69.1228 42.1903C69.8158 42.2065 70.5087 42.2719 71.2016 42.3038C72.5902 42.3404 73.9767 42.2937 75.3594 42.1378V42.0929Z" fill="white"/>
</g>
<path d="M87.5859 41.6802L95.0819 41.6777C95.5172 41.6775 95.9322 41.868 96.2168 42.1977L100.578 47.2523C100.812 47.5241 100.941 47.8705 100.941 48.2298L100.945 60.2355C100.946 61.0625 100.276 61.7339 99.449 61.7341L87.5927 61.7381C86.7657 61.7384 86.0957 61.0674 86.0952 60.2404L86.0894 43.1786C86.0894 42.352 86.7589 41.6807 87.5859 41.6802ZM87.709 43.8843C87.7093 44.2758 88.0262 44.5941 88.4177 44.5939L94.2596 44.5918C94.6524 44.5916 94.9693 44.2733 94.9691 43.8818V43.6732C94.9689 43.2817 94.652 42.9634 94.2591 42.9636L88.4172 42.9657C88.0257 42.9659 87.7088 43.2841 87.709 43.6756V43.8843Z" fill="#EBEBEB"/>
<path d="M99.6423 46.1792L97.9062 44.1484L98.6795 43.4874L100.416 45.5182L99.6423 46.1792Z" fill="#EBEBEB"/>
<path opacity="0.1" d="M99.8008 46.0442L98.1627 43.9297L97.9062 44.1489L99.6424 46.1798L99.8008 46.0442Z" fill="black"/>
<path d="M99.5691 42.1066L101.926 44.8633L100.732 45.8842L98.3749 43.1275L99.5691 42.1066Z" fill="#C7C7C7"/>
<g opacity="0.1">
<path d="M90.1265 58.519L96.9219 58.5168L96.9187 49.0059L90.1234 49.0081L90.1265 58.519ZM96.4066 58.0017L90.6418 58.0038L90.6389 49.5234L96.4037 49.5213L96.4066 58.0017Z" fill="black"/>
<path d="M97.9324 47.628L98.2969 47.9922L96.8455 49.4444L96.4811 49.0802L97.9324 47.628Z" fill="black"/>
<path d="M90.198 58.0831L90.5625 58.4473L89.1113 59.8997L88.7468 59.5355L90.198 58.0831Z" fill="black"/>
<path d="M96.8447 58.076L98.2969 59.5273L97.9326 59.8918L96.4804 58.4404L96.8447 58.076Z" fill="black"/>
<path d="M89.1103 47.6287L90.5625 49.0801L90.1983 49.4445L88.7461 47.9931L89.1103 47.6287Z" fill="black"/>
</g>
<path opacity="0.1" d="M87.5927 61.7403L99.449 61.7363C100.276 61.736 100.946 61.0647 100.945 60.2377L100.941 48.232C100.941 48.1613 100.936 48.0892 100.926 48.0195L99.2949 58.8201C99.21 59.3805 98.9319 59.8947 98.5069 60.2723C98.3124 60.4436 98.0934 60.5829 97.8592 60.6846C97.6247 60.7864 97.3722 60.8511 97.1146 60.8756L87.5927 61.7403Z" fill="black"/>
<g opacity="0.4">
<path d="M94.2693 42.0929C92.0171 41.8287 89.7501 41.9051 87.4996 42.0895C86.9538 42.222 86.5245 42.7105 86.4843 43.2842C86.3922 44.6761 86.3689 46.0545 86.3673 47.4458C86.3868 48.8316 86.4437 50.2175 86.5858 51.6033H86.6308C86.9061 48.8381 86.89 46.0593 86.7303 43.2916C86.6986 42.5924 87.3542 42.0935 88.0328 42.1903C88.7257 42.2065 89.4186 42.2719 90.1118 42.3038C91.5001 42.3404 92.8868 42.2937 94.2695 42.1378L94.2693 42.0929Z" fill="white"/>
</g>
<path d="M151.312 131.314C108.075 131.177 59.5736 131.176 16.3365 131.314C59.5738 131.453 108.075 131.452 151.312 131.314Z" fill="#263238"/>
<path d="M143.67 127.691H120.281V87.4469H143.67V127.691Z" fill="#EDEDF0"/>
<path d="M151.875 127.689H143.672V87.4449H151.875V127.689Z" fill="#EDEDF0"/>
<path opacity="0.1" d="M151.875 127.689H143.672V87.4449H151.875V127.689Z" fill="black"/>
<path opacity="0.1" d="M120.279 94.3926H143.668V94.7097H120.279V94.3926Z" fill="black"/>
<path d="M128.893 90.6582H135.055V91.6665H128.893V90.6582Z" fill="#DBDBDB"/>
<path opacity="0.1" d="M120.279 101.18H143.668V101.497H120.279V101.18Z" fill="black"/>
<path d="M128.893 97.4473H135.055V98.4555H128.893V97.4473Z" fill="#DBDBDB"/>
<path opacity="0.1" d="M120.279 107.969H143.668V108.286H120.279V107.969Z" fill="black"/>
<path d="M128.893 104.234H135.055V105.243H128.893V104.234Z" fill="#DBDBDB"/>
<path opacity="0.1" d="M120.279 114.758H143.668V115.075H120.279V114.758Z" fill="black"/>
<path d="M128.893 111.023H135.055V112.032H128.893V111.023Z" fill="#DBDBDB"/>
<path d="M128.893 117.812H135.055V118.821H128.893V117.812Z" fill="#DBDBDB"/>
<path d="M118.64 86.0625H143.668V87.447H118.64V86.0625Z" fill="#DBDBDB"/>
<path d="M153.18 87.4473H143.668V86.0628H153.18V87.4473Z" fill="#C7C7C7"/>
<path d="M147.48 129.834C147.48 130.653 148.144 131.318 148.962 131.318C149.781 131.318 150.445 130.654 150.445 129.834C150.445 129.016 149.781 128.352 148.962 128.352C148.144 128.352 147.48 129.016 147.48 129.834Z" fill="#263238"/>
<path d="M148.19 129.835C148.19 130.26 148.534 130.605 148.96 130.605C149.385 130.605 149.73 130.26 149.73 129.835C149.73 129.409 149.386 129.064 148.96 129.064C148.534 129.065 148.19 129.409 148.19 129.835Z" fill="#EBEBEB"/>
<path d="M148.954 130.29C149.387 130.29 149.738 129.938 149.738 129.505V127.691H148.17V129.505C148.17 129.939 148.521 130.29 148.954 130.29Z" fill="#C7C7C7"/>
<path d="M139.612 129.834C139.612 130.653 140.276 131.318 141.095 131.318C141.914 131.318 142.578 130.654 142.578 129.834C142.578 129.016 141.914 128.352 141.095 128.352C140.276 128.352 139.612 129.016 139.612 129.834Z" fill="#263238"/>
<path d="M140.322 129.835C140.322 130.26 140.667 130.605 141.093 130.605C141.519 130.605 141.863 130.26 141.863 129.835C141.863 129.409 141.519 129.064 141.093 129.064C140.667 129.064 140.322 129.409 140.322 129.835Z" fill="#EBEBEB"/>
<path d="M141.091 130.29C141.524 130.29 141.875 129.938 141.875 129.505V127.691H140.306V129.505C140.306 129.939 140.657 130.29 141.091 130.29Z" fill="#DBDBDB"/>
<path d="M129.605 129.834C129.605 130.653 130.269 131.318 131.087 131.318C131.906 131.318 132.57 130.654 132.57 129.834C132.57 129.016 131.906 128.352 131.087 128.352C130.269 128.352 129.605 129.016 129.605 129.834Z" fill="#263238"/>
<path d="M130.319 129.835C130.319 130.26 130.663 130.605 131.089 130.605C131.514 130.605 131.859 130.26 131.859 129.835C131.859 129.409 131.515 129.064 131.089 129.064C130.663 129.065 130.319 129.409 130.319 129.835Z" fill="#EBEBEB"/>
<path d="M131.098 130.29C131.532 130.29 131.883 129.938 131.883 129.505V127.691H130.314V129.505C130.314 129.939 130.665 130.29 131.098 130.29Z" fill="#C7C7C7"/>
<path d="M121.749 129.834C121.749 130.653 122.413 131.318 123.232 131.318C124.051 131.318 124.715 130.654 124.715 129.834C124.715 129.016 124.051 128.352 123.232 128.352C122.413 128.352 121.749 129.016 121.749 129.834Z" fill="#263238"/>
<path d="M122.459 129.835C122.459 130.26 122.804 130.605 123.23 130.605C123.655 130.605 124 130.26 124 129.835C124 129.409 123.655 129.064 123.23 129.064C122.804 129.064 122.459 129.409 122.459 129.835Z" fill="#EBEBEB"/>
<path d="M123.22 130.29C123.653 130.29 124.004 129.938 124.004 129.505V127.691H122.435V129.505C122.435 129.939 122.786 130.29 123.22 130.29Z" fill="#DBDBDB"/>
<path d="M160.137 117.147L160.13 135.999C160.13 136.913 159.389 137.654 158.476 137.653L145.376 137.649C144.462 137.649 143.722 136.907 143.722 135.993L143.727 122.728C143.727 122.331 143.869 121.948 144.129 121.648L148.947 116.063C149.262 115.699 149.72 115.488 150.201 115.488L158.483 115.491C159.397 115.491 160.137 116.233 160.137 117.147ZM158.347 117.696C158.348 117.263 157.998 116.911 157.565 116.911L151.11 116.909C150.676 116.909 150.326 117.26 150.326 117.693V117.924C150.325 118.356 150.675 118.708 151.109 118.708L157.564 118.71C157.997 118.711 158.347 118.359 158.347 117.926L158.347 117.696Z" fill="#FD7E50"/>
<path d="M144.304 119.734L146.223 117.49L147.077 118.221L145.159 120.465L144.304 119.734Z" fill="#FD7E50"/>
<path opacity="0.1" d="M144.985 120.315L146.795 117.979L147.078 118.221L145.16 120.465L144.985 120.315Z" fill="black"/>
<path d="M146.569 117.089L143.965 120.135L142.645 119.007L145.249 115.961L146.569 117.089Z" fill="#263238"/>
<g opacity="0.1">
<path d="M155.676 123.589L148.167 123.586L148.164 134.095L155.672 134.097L155.676 123.589ZM148.736 124.156L155.106 124.158L155.103 133.528L148.733 133.526L148.736 124.156Z" fill="black"/>
<path d="M147.049 122.069L148.652 123.674L148.25 124.076L146.646 122.472L147.049 122.069Z" fill="black"/>
<path d="M155.584 133.608L157.188 135.213L156.785 135.615L155.181 134.011L155.584 133.608Z" fill="black"/>
<path d="M148.234 133.609L148.637 134.012L147.032 135.615L146.63 135.213L148.234 133.609Z" fill="black"/>
<path d="M156.793 122.072L157.195 122.475L155.591 124.078L155.188 123.676L156.793 122.072Z" fill="black"/>
</g>
<path opacity="0.1" d="M158.477 137.653L145.376 137.648C144.463 137.648 143.723 136.906 143.723 135.992L143.728 122.727C143.728 122.649 143.733 122.569 143.745 122.492L145.547 134.426C145.64 135.045 145.948 135.613 146.417 136.03C146.632 136.22 146.874 136.374 147.133 136.486C147.392 136.599 147.671 136.67 147.956 136.697L158.477 137.653Z" fill="black"/>
<g opacity="0.4">
<path d="M151.11 115.992C152.639 116.145 154.17 116.196 155.704 116.158C156.47 116.126 157.235 116.061 158.001 116.045C158.762 115.944 159.478 116.484 159.453 117.269C159.294 120.327 159.277 123.397 159.553 126.453H159.598C159.74 124.922 159.797 123.39 159.816 121.859C159.815 120.322 159.792 118.799 159.699 117.261C159.658 116.633 159.188 116.093 158.589 115.948C156.867 115.819 155.137 115.73 153.407 115.796C152.642 115.821 151.876 115.867 151.11 115.947L151.11 115.992Z" fill="white"/>
</g>
<path d="M93.583 118.435C93.4087 124.19 89.7999 131.249 84.208 131.249C83.6602 131.249 76.1708 131.381 75.6811 131.233C71.1741 129.869 68.5035 122.375 69.0102 115.771C69.405 110.627 71.1979 104.866 75.9118 104.175C76.226 104.129 84.1026 104.175 84.4441 104.175C90.0894 104.175 93.7705 112.244 93.583 118.435Z" fill="#263238"/>
<path d="M86.1517 118.436C85.9253 124.191 82.6664 131.25 75.4023 131.25C68.1382 131.25 64.8155 123.094 65.5453 115.772C66.0922 110.285 68.6166 104.176 75.7091 104.176C83.0424 104.176 86.3952 112.245 86.1517 118.436Z" fill="#37474F"/>
<path d="M83.1294 118.27C82.9444 122.701 80.5139 128.136 75.1448 128.136C69.7755 128.136 67.3445 121.856 67.9065 116.219C68.3276 111.994 70.2123 107.289 75.4547 107.289C80.875 107.289 83.3284 113.503 83.1294 118.27Z" fill="#C7C7C7"/>
<path d="M73.7459 108.246C73.8564 110.046 74.2423 115.784 74.8002 115.784C75.2697 115.784 76.6477 110.369 77.1328 108.41C76.552 108.2 75.9208 108.082 75.234 108.082C74.7012 108.082 74.2039 108.14 73.7459 108.246Z" fill="#263238"/>
<path d="M75.8069 116.125C76.1034 116.281 78.7338 113.693 80.6445 111.754C80.1863 110.882 79.6145 110.106 78.9224 109.494C77.683 111.715 75.4055 115.915 75.8069 116.125Z" fill="#263238"/>
<path d="M76.3058 116.792C76.4399 117.027 79.2684 116.12 81.8164 115.248C81.6843 114.519 81.4918 113.795 81.2394 113.104C78.9075 114.62 76.1425 116.502 76.3058 116.792Z" fill="#263238"/>
<path d="M76.5673 117.601C76.5403 117.871 79.4012 118.254 82.0001 118.544C82.0075 118.437 82.0147 118.333 82.0192 118.227C82.0451 117.65 82.0291 117.052 81.973 116.445C79.3735 116.822 76.5976 117.298 76.5673 117.601Z" fill="#263238"/>
<path d="M81.1904 122.3C81.4903 121.505 81.7088 120.672 81.8477 119.847C79.3574 119.035 76.4478 118.161 76.2308 118.443C76.0206 118.718 79.0153 120.825 81.1904 122.3Z" fill="#263238"/>
<path d="M78.1014 126.422C79.047 125.818 79.8107 124.952 80.4023 123.949C78.8006 122.031 76.0609 118.854 75.6372 119.056C75.1974 119.264 77.4063 124.734 78.1014 126.422Z" fill="#263238"/>
<path d="M72.4965 126.785C73.2011 127.145 73.9973 127.345 74.8827 127.345C75.223 127.345 75.5532 127.32 75.8672 127.268C75.7809 125.763 75.3885 119.52 74.8025 119.52C74.3421 119.52 73.0025 124.741 72.4965 126.785Z" fill="#263238"/>
<path d="M69.3988 123.14C69.7755 124.039 70.2622 124.847 70.8552 125.506C72.0987 123.274 74.0986 119.552 73.7183 119.353C73.4427 119.208 71.2209 121.331 69.3988 123.14Z" fill="#263238"/>
<path d="M68.5411 119.847C68.6282 120.522 68.7612 121.181 68.9409 121.812C70.9786 120.462 73.0697 118.99 72.9223 118.727C72.8073 118.522 70.7068 119.143 68.5411 119.847Z" fill="#263238"/>
<path d="M68.4478 116.943C68.4094 117.55 68.4082 118.162 68.4424 118.769C70.6011 118.449 72.6102 118.083 72.6365 117.818C72.6601 117.583 70.6112 117.241 68.4478 116.943Z" fill="#263238"/>
<path d="M68.551 115.787C70.6401 116.484 72.7335 117.104 72.9183 116.861C73.1063 116.618 70.9292 114.94 69.0119 113.533C68.7969 114.268 68.6482 115.033 68.551 115.787Z" fill="#263238"/>
<path d="M69.6202 111.898C69.6202 111.898 69.6233 111.898 69.62 111.901C71.1662 113.775 73.3379 116.297 73.7187 116.114C74.1319 115.92 72.3914 111.221 71.6394 109.248C70.7655 109.923 70.106 110.849 69.6202 111.898Z" fill="#263238"/>
<path d="M37.2832 118.669L3.07299 118.898C3.07299 118.898 4.90086 97.735 21.3596 99.1586C37.8182 100.582 37.2832 118.669 37.2832 118.669Z" fill="#2F945A"/>
<path opacity="0.5" d="M37.2832 118.669L3.07299 118.898C3.07299 118.898 4.90086 97.735 21.3596 99.1586C37.8182 100.582 37.2832 118.669 37.2832 118.669Z" fill="black"/>
<path d="M34.5049 118.435C34.3306 124.19 30.7217 131.249 25.1296 131.249C24.5818 131.249 17.0924 131.381 16.6028 131.233C12.0957 129.869 9.4251 122.375 9.93183 115.771C10.3267 110.627 12.1195 104.866 16.8336 104.175C17.1479 104.129 25.0247 104.175 25.3659 104.175C31.0113 104.175 34.6924 112.244 34.5049 118.435Z" fill="#263238"/>
<path d="M27.0619 118.436C26.8355 124.191 23.5766 131.25 16.3125 131.25C9.04835 131.25 5.72569 123.094 6.45545 115.772C7.00237 110.285 9.52676 104.176 16.6193 104.176C23.9526 104.176 27.3053 112.245 27.0619 118.436Z" fill="#37474F"/>
<path d="M24.0357 118.27C23.8506 122.701 21.4201 128.136 16.051 128.136C10.6817 128.136 8.25076 121.856 8.81274 116.219C9.23388 111.994 11.1186 107.289 16.361 107.289C21.7813 107.289 24.2347 113.503 24.0357 118.27Z" fill="#C7C7C7"/>
<path d="M14.6483 108.246C14.7588 110.046 15.1449 115.784 15.7026 115.784C16.172 115.784 17.55 110.369 18.0352 108.41C17.4543 108.2 16.8232 108.082 16.1363 108.082C15.6038 108.082 15.1065 108.14 14.6483 108.246Z" fill="#263238"/>
<path d="M16.7092 116.125C17.0057 116.281 19.6361 113.693 21.5469 111.754C21.0887 110.882 20.5168 110.106 19.8248 109.494C18.5856 111.715 16.3078 115.915 16.7092 116.125Z" fill="#263238"/>
<path d="M17.2043 116.794C17.3383 117.029 20.1669 116.122 22.7148 115.25C22.5828 114.521 22.3903 113.797 22.1376 113.105C19.8061 114.622 17.041 116.504 17.2043 116.794Z" fill="#263238"/>
<path d="M17.4696 117.601C17.4426 117.871 20.3035 118.254 22.9025 118.544C22.9099 118.437 22.9171 118.333 22.9216 118.227C22.9474 117.65 22.9315 117.052 22.8753 116.445C20.2759 116.822 17.4997 117.298 17.4696 117.601Z" fill="#263238"/>
<path d="M22.0928 122.3C22.3926 121.505 22.6112 120.672 22.75 119.847C20.2597 119.035 17.3501 118.161 17.1329 118.443C16.9229 118.718 19.9177 120.825 22.0928 122.3Z" fill="#263238"/>
<path d="M19.0077 126.424C19.9533 125.82 20.7172 124.954 21.3086 123.951C19.7069 122.033 16.9671 118.856 16.5435 119.058C16.1037 119.266 18.3127 124.736 19.0077 126.424Z" fill="#263238"/>
<path d="M13.4027 126.785C14.1073 127.145 14.9036 127.345 15.789 127.345C16.1293 127.345 16.4594 127.32 16.7734 127.268C16.6872 125.763 16.2948 119.52 15.7088 119.52C15.2486 119.52 13.909 124.741 13.4027 126.785Z" fill="#263238"/>
<path d="M10.3014 123.14C10.6781 124.039 11.1648 124.847 11.7576 125.506C13.001 123.274 15.0009 119.552 14.6207 119.353C14.3453 119.208 12.1232 121.331 10.3014 123.14Z" fill="#263238"/>
<path d="M9.44343 119.847C9.53058 120.522 9.66354 121.181 9.84323 121.812C11.8809 120.462 13.972 118.99 13.8247 118.727C13.7094 118.522 11.6091 119.143 9.44343 119.847Z" fill="#263238"/>
<path d="M9.35011 116.943C9.3117 117.55 9.31058 118.162 9.34472 118.769C11.5035 118.449 13.5124 118.083 13.5389 117.818C13.5622 117.583 11.5136 117.241 9.35011 116.943Z" fill="#263238"/>
<path d="M9.45332 115.787C11.5422 116.484 13.6358 117.104 13.8207 116.861C14.0087 116.618 11.8315 114.94 9.91422 113.533C9.69905 114.268 9.55035 115.033 9.45332 115.787Z" fill="#263238"/>
<path d="M10.5225 111.898C10.5225 111.898 10.5257 111.898 10.5223 111.901C12.0685 113.775 14.2403 116.297 14.621 116.114C15.0343 115.92 13.2938 111.221 12.5418 109.248C11.6678 109.923 11.0084 110.849 10.5225 111.898Z" fill="#263238"/>
<path d="M-0.40181 64.4512V120.572C3.11783 120.631 5.51668 120.669 5.62449 120.671C5.7031 120.676 5.66715 119.991 5.65592 118.877C5.65143 118.506 5.64919 118.09 5.65592 117.634C5.65816 117.511 5.66042 117.383 5.66492 117.25C5.66716 117.178 5.66717 117.102 5.66941 117.028C5.67166 116.954 5.67615 116.88 5.67839 116.801C5.68064 116.707 5.68288 116.612 5.68962 116.516C5.69186 116.408 5.69636 116.296 5.70309 116.183C5.70535 116.152 5.70535 116.125 5.70759 116.094C5.71433 115.961 5.72331 115.826 5.73005 115.689C5.74352 115.496 5.75925 115.296 5.77497 115.094C5.77946 115.009 5.78844 114.923 5.79742 114.836C5.80641 114.75 5.81316 114.665 5.82214 114.575C5.82664 114.528 5.83113 114.479 5.83562 114.429C5.87156 114.068 5.91199 113.63 5.9614 113.162C5.97039 113.077 5.97937 112.992 5.98836 112.906C6.00632 112.74 6.02429 112.572 6.04451 112.403C6.06472 112.221 6.08718 112.037 6.11189 111.857C6.11638 111.808 6.12312 111.759 6.13211 111.709C6.20399 111.177 6.28709 110.669 6.38367 110.258C6.41737 110.117 6.45105 109.699 6.48923 109.557C6.52293 109.416 6.56111 109.274 6.60378 109.135C6.76775 108.542 6.96092 107.954 7.18553 107.376C7.21249 107.307 7.24168 107.237 7.26864 107.17C7.30682 107.073 7.34499 106.979 7.38542 106.889C7.96941 105.526 8.74656 104.239 9.78426 103.149C10.2245 102.682 10.7141 102.251 11.2577 101.867C11.2689 101.856 11.2802 101.849 11.2914 101.84C13.0366 100.609 15.3187 99.843 18.2992 99.843C22.0592 99.843 24.6984 101.723 26.5627 104.299C27.1107 105.056 27.5914 105.874 28.0136 106.723C28.0833 106.858 28.1507 106.995 28.2135 107.134C28.2675 107.244 28.3169 107.354 28.3685 107.466C28.6448 108.075 28.8919 108.693 29.1142 109.31C29.1569 109.427 29.1973 109.544 29.2378 109.661C29.2872 109.802 29.3366 109.944 29.3815 110.085C29.7117 111.08 29.979 112.064 30.2013 112.994C30.2036 113.003 30.2058 113.012 30.2081 113.021C30.2642 113.257 30.3181 113.488 30.3676 113.717C30.3788 113.771 30.3923 113.825 30.4035 113.879C30.4574 114.126 30.5068 114.366 30.554 114.6V114.602C30.5764 114.71 30.5989 114.818 30.6169 114.926C30.6461 115.069 30.673 115.211 30.6977 115.352C30.7629 115.701 30.819 116.04 30.8707 116.361C30.8819 116.419 30.8886 116.478 30.8976 116.536C30.9089 116.592 30.9178 116.648 30.9246 116.707C30.9426 116.824 30.9605 116.934 30.9785 117.041C30.9897 117.12 31.001 117.192 31.0077 117.264C31.0257 117.369 31.0391 117.473 31.0526 117.572C31.0841 117.783 31.111 117.983 31.1357 118.167C31.1447 118.232 31.1537 118.293 31.1604 118.351C31.1784 118.477 31.1941 118.594 31.2076 118.706C31.2929 119.303 31.3581 119.71 31.4232 119.86C31.43 119.872 31.4322 119.881 31.4389 119.885C31.4434 119.896 31.4502 119.905 31.4547 119.91C31.4592 119.919 31.4681 119.921 31.4749 119.923C32.4497 119.957 33.4178 119.988 34.3791 120.015C37.8403 120.119 41.2185 120.195 44.4978 120.247C45.4973 120.262 46.4856 120.278 47.4671 120.289C49.0304 120.31 50.5713 120.323 52.0829 120.33C53.0554 120.336 54.019 120.341 54.9691 120.341C58.6954 120.35 62.2465 120.327 65.5977 120.285C66.4108 120.276 67.2126 120.265 68.0033 120.251C68.1987 120.249 68.3918 120.247 68.585 120.242C68.7692 120.24 68.9511 120.238 69.1331 120.233C69.863 120.222 70.5818 120.208 71.2871 120.193C71.7004 120.184 72.1114 120.177 72.5157 120.166H72.5179C72.8728 120.159 73.2232 120.15 73.5714 120.141C73.8499 120.137 74.1284 120.13 74.4024 120.121C74.5596 120.119 74.7169 120.114 74.8741 120.11C74.9482 120.107 75.0223 120.105 75.0965 120.103C75.3098 120.098 75.521 120.092 75.7321 120.087C76.1364 120.076 76.5385 120.065 76.9338 120.053C77.2707 120.044 77.6054 120.035 77.9355 120.024H77.9378C79.2922 119.984 80.5882 119.939 81.8235 119.894C82.2099 119.881 82.5872 119.865 82.9623 119.849C84.0404 119.809 85.0692 119.766 86.0462 119.721C89.074 119.586 91.5941 119.447 93.5325 119.321C96.23 119.146 97.7956 119 98.0337 118.935C99.1073 118.641 99.2892 113.445 99.2219 113.36L99.2061 113.333C99.1904 113.295 99.1904 112.839 99.2016 112.233C99.2039 112.087 99.2061 111.934 99.2106 111.774C99.2129 111.599 99.2174 111.419 99.2219 111.238C99.2241 111.177 99.2241 111.116 99.2263 111.056C99.2286 111.008 99.2286 110.961 99.2308 110.914C99.2488 110.287 99.2735 109.683 99.2982 109.304C99.3319 108.854 99.3634 108.531 99.3948 108.495C99.5004 108.376 99.8261 108.048 100.152 107.74C100.473 107.43 100.675 105.952 100.513 104.492C100.354 103.033 99.7205 102.934 99.3386 102.709C99.3139 102.696 99.2803 102.646 99.2353 102.565C99.0197 102.174 98.5727 101.051 97.8854 99.6544C97.8607 99.6049 97.8383 99.5578 97.8113 99.5084C97.7731 99.4297 97.7327 99.3489 97.6923 99.268C97.6923 99.2658 97.6923 99.2658 97.6923 99.2635C97.3149 98.5223 96.8769 97.7205 96.3738 96.9208C96.0122 96.3458 95.6169 95.7686 95.1878 95.2183C94.8824 94.8252 94.5589 94.4434 94.2175 94.0818C94.1681 94.0279 94.1165 93.9762 94.067 93.9245C94.0244 93.8819 93.9839 93.8392 93.9413 93.7988C93.0743 92.9318 92.0995 92.2063 91.0168 91.7526C73.76 84.5246 64.1579 83.9024 63.848 83.9024C63.8457 83.9024 63.8457 83.9024 63.8457 83.9024C63.8435 83.9024 63.839 83.9024 63.8345 83.9002C63.8278 83.8957 63.8165 83.8912 63.8031 83.8845C63.7739 83.8687 63.7334 83.8418 63.6773 83.8014C61.9994 82.6514 48.415 72.0138 35.1899 67.6766C28.6021 65.5158 14.0766 64.4467 -0.40181 64.4512Z" fill="#2F945A"/>
<g opacity="0.3">
<path d="M-0.392411 106.266V108.458C0.369018 108.494 1.11697 108.525 1.84246 108.557C1.90536 108.559 1.96825 108.561 2.02889 108.563C3.42597 108.622 4.74443 108.671 5.95508 108.712C6.21787 108.721 6.47393 108.727 6.72549 108.736C6.86026 108.271 7.02647 107.804 7.19493 107.377C7.22189 107.306 7.24884 107.238 7.27804 107.171C7.31622 107.074 7.3544 106.98 7.39483 106.89C7.47119 106.708 7.54531 106.54 7.61719 106.385C7.49365 106.382 7.36563 106.38 7.23536 106.38C6.34366 106.367 5.31269 106.351 4.1784 106.335C4.13348 106.333 4.08857 106.333 4.04364 106.333C3.41473 106.322 2.75438 106.313 2.06707 106.302C1.99295 106.302 1.91658 106.299 1.84022 106.299C1.12371 106.288 0.375756 106.277 -0.392411 106.266Z" fill="white"/>
<path d="M98.1406 109.144C98.1406 109.144 41.6579 111.014 39.3554 110.731C37.5931 110.515 31.9518 110.216 29.3888 110.086C29.0202 108.958 28.5714 107.816 28.0227 106.725C31.0179 107.293 37.9089 108.578 38.9868 108.578C40.3668 108.579 98.1406 109.144 98.1406 109.144Z" fill="white"/>
<path d="M-0.388626 83.9794V87.5103C0.786087 87.5754 1.93833 87.6406 3.06363 87.7035C3.07935 87.7057 3.09733 87.7057 3.11305 87.7057C12.7735 88.2537 20.3137 88.6805 20.992 88.7412C26.2322 89.2151 31.0254 89.8215 35.2975 90.4751C42.056 91.5128 47.514 92.6651 51.393 93.595C51.3975 93.595 51.402 93.595 51.4065 93.5972C55.3978 94.5541 57.7113 95.2706 58.0437 95.3761C58.0505 95.3784 58.0572 95.3806 58.0639 95.3829C58.0707 95.3851 58.0797 95.3874 58.0864 95.3896L89.2264 95.4368C89.2264 95.4368 92.1935 92.3147 91.4231 91.98C76.7089 85.6011 64.5485 83.9929 63.8859 83.9075C63.8836 83.9075 63.8814 83.9075 63.8814 83.9075H63.8724C63.8701 83.9075 63.8679 83.9053 63.8679 83.9053C63.8656 83.9053 63.8634 83.9053 63.8634 83.9053C63.8611 83.903 63.8611 83.9053 63.8611 83.9053C63.8589 83.9053 63.8589 83.9053 63.8589 83.9053L38.7856 84.3365C38.6374 84.3388 38.4892 84.341 38.3409 84.3433L20.5226 84.651C20.5203 84.651 20.5181 84.651 20.5181 84.651L19.9543 84.66C19.9543 84.66 18.108 84.5993 15.0129 84.496C13.2048 84.4376 10.9677 84.3635 8.42508 84.2759H8.42283C8.04773 84.2647 7.66365 84.2512 7.27508 84.2377C5.71178 84.1861 4.04517 84.1299 2.29995 84.0693C1.42172 84.0423 0.525536 84.0109 -0.388626 83.9794Z" fill="white"/>
</g>
<g opacity="0.1">
<path d="M-0.410677 115.963V120.572C3.10897 120.631 5.50781 120.669 5.61562 120.671C5.69423 120.676 5.65829 119.991 5.64706 118.877C5.64256 118.506 5.64032 118.091 5.64706 117.635C5.6493 117.511 5.65156 117.383 5.65605 117.251C5.6583 117.179 5.6583 117.102 5.66055 117.028C5.66279 116.954 5.66728 116.88 5.66953 116.801C5.67177 116.707 5.67401 116.613 5.68075 116.516C5.683 116.408 5.68749 116.296 5.69423 116.184C5.69648 116.152 5.69648 116.125 5.69873 116.094C5.70546 115.961 5.71444 115.826 5.72118 115.689C5.73466 115.496 5.75038 115.296 5.76611 115.094C5.7706 115.009 5.77958 114.924 5.78856 114.836C5.79755 114.751 5.80429 114.665 5.81328 114.575C5.81777 114.528 5.82226 114.479 5.82676 114.429C5.86269 114.068 5.90312 113.63 5.95254 113.163C5.96152 113.079 5.9705 112.992 5.97949 112.907C5.99746 112.74 6.01543 112.572 6.03564 112.403C6.05586 112.221 6.07831 112.037 6.10302 111.858C6.10751 111.808 6.11426 111.759 6.12324 111.709C6.12773 111.673 6.13223 111.638 6.13672 111.602C5.90088 111.907 5.03388 113.005 3.99842 114.021C3.05506 114.946 1.96795 115.802 1.09646 115.923C0.874099 115.955 0.348506 115.966 -0.410677 115.963Z" fill="black"/>
<path d="M98.0259 118.936C96.9509 119.232 68.636 121.186 31.4657 119.925C31.4601 119.922 31.4518 119.919 31.4464 119.911C31.4408 119.905 31.4354 119.897 31.4298 119.886C31.4242 119.881 31.4215 119.872 31.4159 119.861C31.3354 119.684 31.2607 119.144 31.1526 118.351C31.1443 118.293 31.136 118.232 31.1277 118.168C31.1028 117.983 31.0751 117.783 31.0446 117.573C31.0307 117.473 31.017 117.37 31.0003 117.265C30.992 117.193 30.981 117.121 30.9698 117.043C30.9532 116.935 30.9339 116.824 30.9172 116.708C30.9089 116.65 30.9006 116.594 30.8896 116.536C30.8813 116.478 30.873 116.42 30.862 116.362C30.8121 116.04 30.7539 115.702 30.6902 115.353C30.6652 115.212 30.6376 115.071 30.6097 114.927C30.5902 114.818 30.5682 114.71 30.5459 114.602C30.4433 114.092 30.327 113.555 30.194 112.995C30.194 112.995 37.8608 116.148 39.3377 116.148C40.8118 116.148 93.6037 115.403 94.942 115.431C96.2802 115.461 97.94 114.696 98.1229 114.294C98.3057 113.896 99.2228 110.914 99.2228 110.914C99.1896 112.056 99.1729 113.272 99.1979 113.333L99.2145 113.361C99.281 113.447 99.0981 118.642 98.0259 118.936Z" fill="black"/>
</g>
<path opacity="0.05" d="M1.82537 97.5651L-0.400508 97.1855V97.491L1.82762 97.7111L2.08593 97.7381L3.88281 97.9155L2.08593 97.6078L1.82537 97.5651Z" fill="black"/>
<path opacity="0.05" d="M-0.400927 93.8906V96.3568L1.82047 96.4804L2.07204 96.4961L3.49831 96.5747L9.51562 94.6565C9.51562 94.6565 6.68103 94.4387 2.28765 94.0995C2.21353 94.0928 2.13716 94.0883 2.06304 94.0815C1.28814 94.0231 0.463823 93.958 -0.400927 93.8906Z" fill="black"/>
<path opacity="0.05" d="M99.2383 102.564C99.2383 102.564 91.1696 103.833 90.0023 103.833C88.8352 103.833 54.7782 104.467 53.9315 104.518C53.0847 104.57 38.3767 102.911 38.3767 102.911C38.3767 102.911 52.014 103.436 53.9315 103.542C55.849 103.648 89.6861 102.85 90.3662 102.85C91.0463 102.85 99.2383 102.564 99.2383 102.564Z" fill="black"/>
<path d="M88.6998 101.668C87.8141 101.935 63.0767 101.853 62.7573 101.839C62.4379 101.825 58.9798 96.0321 59.385 96.0503C59.7904 96.0683 88.4597 95.8268 88.718 95.9688C88.9765 96.1105 88.9565 101.591 88.6998 101.668Z" fill="#263238"/>
<path opacity="0.2" d="M88.8731 100.237V100.259C88.8687 100.34 88.8664 100.416 88.8619 100.49C88.8619 100.499 88.8619 100.508 88.8597 100.517C88.8574 100.582 88.8529 100.645 88.8507 100.706C88.8484 100.731 88.8484 100.755 88.8462 100.778L62.0569 100.859C61.9446 100.692 61.8278 100.511 61.7043 100.32L88.8731 100.237ZM77.2585 98.7519L81.6519 98.7406L88.9023 98.7182C88.9001 98.9001 88.9001 99.0798 88.9001 99.2572L81.7912 99.2774L77.3978 99.2909L61.0911 99.3381C60.9788 99.1607 60.871 98.9787 60.7632 98.8013L77.2585 98.7519ZM88.8731 97.1953C88.8799 97.357 88.8866 97.53 88.8911 97.7097V97.7321L60.1971 97.8265C60.0871 97.6378 59.986 97.4559 59.8962 97.2874L88.8731 97.1953Z" fill="black"/>
<path d="M38.4571 96.2957C39.9052 98.2024 43.2737 101.965 45.7246 102.339C48.6102 102.779 57.4933 102.299 57.9994 102.015C58.5054 101.731 56.3476 97.8646 54.4864 96.4444C52.6253 95.0242 41.9846 92.9479 40.3751 93.0867C38.6094 93.2385 37.9515 95.63 38.4571 96.2957Z" fill="white"/>
<path d="M45.3131 96.4588C47.2717 94.6125 50.4611 95.9085 50.6992 98.4668C50.4432 96.0455 47.3525 94.9472 45.6522 96.7957C44.6055 97.8806 44.6033 99.7089 45.65 100.794C47.3525 102.645 50.4432 101.544 50.6992 99.1227C50.4611 101.681 47.2717 102.975 45.3153 101.131C43.9901 99.929 43.9879 97.6605 45.3131 96.4588Z" fill="#DBDBDB"/>
<path d="M52.2225 97.9823C53.6511 96.6391 56.0162 97.6656 56.1016 99.55C56.0409 98.4629 55.01 97.542 53.9296 97.6521C51.4184 97.8947 51.4162 101.484 53.9296 101.724C55.0122 101.834 56.0409 100.913 56.1016 99.8241C56.014 101.711 53.6511 102.735 52.2225 101.394C51.241 100.527 51.241 98.8448 52.2225 97.9823Z" fill="#DBDBDB"/>
<path d="M97.7962 99.5392C96.6662 101.274 96.0058 101.279 94.0236 101.529C92.9664 101.662 90.9577 101.705 90.5424 101.441C90.1271 101.178 90.8537 95.9223 91.5983 95.1737C91.8222 94.9484 93.5025 93.8725 94.1274 93.9257C95.5516 94.0475 98.1908 98.9336 97.7962 99.5392Z" fill="white"/>
<path d="M91.4977 95.0763C91.6954 94.8786 93.1576 93.9106 93.9392 93.7983C94.0111 93.787 94.0785 93.7848 94.1369 93.7893C95.1881 93.8791 96.6548 96.132 97.3825 97.6256C97.6678 98.2074 97.9688 98.9261 97.9688 99.3551C97.9688 99.4629 97.9508 99.5505 97.9081 99.6157C97.8991 99.6291 97.8901 99.6426 97.8834 99.6539C96.7851 101.325 96.0528 101.417 94.3031 101.633L94.0381 101.666C93.5619 101.727 92.8342 101.774 92.1491 101.774C91.4056 101.774 90.7161 101.718 90.4645 101.559C90.3747 101.5 90.323 101.374 90.2983 101.15C90.1703 100.009 90.7857 95.7928 91.4977 95.0763ZM90.624 101.334C90.9721 101.552 92.9218 101.529 94.0021 101.392L94.2694 101.359C95.1544 101.249 95.7451 101.174 96.246 100.93C96.7446 100.683 97.1557 100.263 97.6768 99.4629C97.697 99.4337 97.7015 99.3686 97.6902 99.2675C97.6902 99.2653 97.6902 99.2653 97.6902 99.263C97.6588 99.0025 97.5061 98.5083 97.1332 97.7469C96.3134 96.0646 95.0241 94.2879 94.2155 94.0813C94.1796 94.0723 94.1459 94.0655 94.1122 94.0633H94.0718C93.4765 94.0633 91.9133 95.0493 91.6931 95.2717C91.0216 95.9478 90.3028 100.925 90.624 101.334Z" fill="#EBEBEB"/>
<path d="M93.5054 98.0955C93.5234 98.9108 93.6806 99.8002 94.2264 100.436C94.4578 100.717 94.8665 100.878 95.1743 100.631C96.2209 99.6947 96.2209 96.5007 95.172 95.5596C94.8665 95.3148 94.4578 95.4742 94.2264 95.755C93.6828 96.3884 93.5234 97.2779 93.5054 98.0955C93.4919 97.1206 93.8221 94.8274 95.1832 95.2182C95.2371 95.2317 95.2933 95.2519 95.3517 95.2766C95.8548 95.609 96.194 96.2177 96.3692 96.9207C96.7286 98.3695 96.3894 100.225 95.3495 100.912C93.8603 101.557 93.4874 99.0995 93.5054 98.0955Z" fill="#DBDBDB"/>
<path d="M92.0868 100.757C93.0122 100.526 93.0122 97.3004 92.0868 97.0646C91.3973 97.1095 91.1569 98.1584 91.1255 98.7896C91.1457 97.9922 91.395 96.4379 92.4574 96.8692C93.6299 97.6306 93.6276 100.189 92.4574 100.95C91.395 101.382 91.1457 99.8273 91.1255 99.0321C91.1569 99.6633 91.3973 100.712 92.0868 100.757Z" fill="#DBDBDB"/>
<path d="M81.9375 99.831H77.5421L77.1297 98.2324H81.5251L81.9375 99.831Z" fill="#A6A6A6"/>
<g opacity="0.2">
<path d="M1.89446 114.324C1.78777 108.755 1.85089 101.828 1.82057 96.2575C2.12447 92.9378 2.74439 89.6506 3.26953 86.3594C3.02246 88.4289 2.23721 94.1565 2.06606 96.1369C2.15546 102.115 2.0472 108.336 1.89446 114.324Z" fill="black"/>
</g>
<path d="M-0.421292 69.584V84.9765C8.68441 85.2124 14.9623 85.1899 15.0903 84.7968C15.106 84.7474 15.0678 84.6441 14.9802 84.4959C13.8774 82.6473 5.11311 73.6517 -0.421292 69.584Z" fill="#263238"/>
<path d="M-0.423093 70.6328V84.2846C1.2233 84.3475 2.7574 84.3992 4.07586 84.4351C4.4532 84.4464 4.81258 84.4553 5.15399 84.4643H5.17644C6.70604 84.5003 7.82909 84.507 8.31649 84.4711C8.32323 84.4711 8.33222 84.4666 8.33671 84.4643C8.36816 84.4441 8.38388 84.379 8.39061 84.2756C8.39735 84.1813 8.3951 84.0533 8.38612 83.9028C8.37489 83.7523 8.35692 83.5771 8.33221 83.3817C8.32997 83.366 8.32997 83.3525 8.32548 83.3368C8.30976 83.2065 8.28955 83.065 8.26933 82.919C8.26708 82.8988 8.26258 82.8786 8.26034 82.8606C8.25135 82.8089 8.24462 82.7573 8.23563 82.7056C8.23339 82.6921 8.2334 82.6787 8.23115 82.6674C8.21992 82.6113 8.21093 82.5529 8.20195 82.4967C8.19297 82.4428 8.18398 82.3867 8.175 82.3328C8.14131 82.1306 8.10312 81.9195 8.06269 81.7106C8.05371 81.6612 8.04471 81.614 8.03573 81.5646C7.9953 81.3602 7.95487 81.1558 7.91219 80.9537C7.90995 80.9379 7.90546 80.9222 7.90321 80.9065C7.88974 80.8481 7.87851 80.7919 7.86503 80.7335C7.84707 80.6459 7.82685 80.5561 7.80888 80.4707C7.79541 80.4146 7.78416 80.3607 7.77069 80.3068C7.74373 80.1855 7.71678 80.0664 7.68758 79.9519C7.67635 79.9025 7.66513 79.8531 7.6539 79.8037C7.63369 79.7318 7.61795 79.6599 7.59998 79.5925C7.58651 79.5386 7.57303 79.4892 7.55955 79.4375C7.48768 79.168 7.4203 78.9344 7.35741 78.7592C7.31698 78.6424 7.28105 78.5526 7.24736 78.4874C7.24511 78.4829 7.22938 78.4627 7.20018 78.429C7.17997 78.4066 7.15526 78.3774 7.12606 78.3437C7.11033 78.3257 7.09462 78.3055 7.07665 78.2875C7.02274 78.2224 6.95087 78.1393 6.86552 78.045C6.79364 77.9641 6.71502 77.8765 6.62518 77.7777C6.56678 77.7103 6.50164 77.6407 6.4365 77.5665C6.42976 77.562 6.42527 77.5553 6.42078 77.5508C6.35115 77.47 6.27254 77.3846 6.19168 77.297C6.1535 77.2543 6.11083 77.2094 6.06815 77.1622C6.02772 77.1151 5.98504 77.0679 5.94012 77.0207C5.54705 76.5917 5.0821 76.0908 4.57224 75.5495C4.51609 75.4911 4.45993 75.4305 4.40153 75.3698C4.17243 75.125 3.9321 74.8757 3.68727 74.6219C2.37555 73.2585 0.888631 71.7806 -0.423093 70.6328Z" fill="#37474F"/>
<g opacity="0.5">
<path d="M-0.422474 79.2571V84.2838C1.22392 84.3467 2.75801 84.3984 4.07648 84.4343C4.45382 84.4455 4.8132 84.4545 5.1546 84.4635H5.17706C6.70666 84.4995 7.8297 84.5062 8.31711 84.4703C8.32385 84.4703 8.33284 84.4658 8.33733 84.4635C8.36653 84.4388 8.38225 84.3759 8.38898 84.2748C8.39797 84.1805 8.39573 84.0547 8.3845 83.9042C8.37327 83.7515 8.35529 83.5763 8.33283 83.3809C8.33059 83.3652 8.33059 83.3517 8.3261 83.336C8.31038 83.2057 8.29016 83.0642 8.26995 82.9182C8.2677 82.898 8.2632 82.8778 8.26095 82.8598C8.25197 82.8081 8.24523 82.7565 8.23625 82.7048C8.234 82.6913 8.23401 82.6779 8.23177 82.6666C8.22054 82.6105 8.21155 82.5521 8.20257 82.4959C8.19358 82.442 8.1846 82.3859 8.17562 82.332C8.13968 82.1298 8.10374 81.9209 8.06331 81.7098C8.05433 81.6604 8.04533 81.6132 8.03634 81.5638C7.99591 81.3594 7.95549 81.155 7.91281 80.9529C7.91057 80.9371 7.90608 80.9214 7.90383 80.9057C7.89036 80.8473 7.87913 80.7911 7.86565 80.7327C7.84768 80.6451 7.82747 80.5553 7.8095 80.4699C7.79602 80.4138 7.78478 80.3599 7.77131 80.306C7.74435 80.1847 7.7174 80.0656 7.6882 79.9511C7.67697 79.9017 7.66575 79.8523 7.65452 79.8029C7.6343 79.731 7.61857 79.6591 7.6006 79.5917C7.58712 79.5378 7.57365 79.4884 7.56017 79.4367C7.4883 79.1672 7.42092 78.9336 7.35803 78.7584C7.3176 78.6416 7.28166 78.5518 7.24797 78.4866C7.24573 78.4821 7.23 78.4619 7.2008 78.4282C7.18059 78.4058 7.15587 78.3766 7.12668 78.3429C7.11095 78.3249 7.09524 78.3047 7.07727 78.2867C7.01887 78.2193 6.94924 78.1385 6.86613 78.0442C6.79426 77.9633 6.71564 77.8757 6.6258 77.7769C6.5674 77.7095 6.50226 77.6399 6.43712 77.5657C6.43038 77.5612 6.42589 77.5545 6.4214 77.55C6.34952 77.4692 6.27316 77.3838 6.1923 77.2962C6.15412 77.2535 6.11145 77.2086 6.06877 77.1614C6.02834 77.1143 5.98566 77.0671 5.94074 77.0199C5.54767 76.5909 5.08272 76.09 4.57286 75.5487C4.5167 75.4903 4.46055 75.4297 4.40215 75.369C4.17305 75.1242 3.93272 74.8749 3.68789 74.6211C3.49023 76.3933 2.48398 78.2328 -0.422474 79.2571Z" fill="#455A64"/>
</g>
<path d="M64.0859 83.9558C64.0859 83.9558 22.1748 84.6319 21.0749 84.4933C19.972 84.3547 16.4753 82.465 15.982 82.0578C15.4888 81.6533 1.73457 68.3534 1.91471 67.8465C2.09754 67.3256 31.3294 67.9047 37.8077 68.6362H37.8104C38.2425 68.8081 38.6776 68.9826 39.11 69.1654L39.1126 69.1681C50.0738 73.7484 60.4756 81.501 63.1716 83.4488C63.5761 83.7426 63.8061 83.9032 63.8393 83.9032C63.8559 83.903 63.9417 83.9225 64.0859 83.9558Z" fill="#263238"/>
<path d="M63.1719 83.4477C57.1177 83.5418 23.0064 84.0573 22.0255 83.938C20.9476 83.8077 17.5286 82.0317 17.0463 81.6492C16.5641 81.2669 3.11467 68.7761 3.28941 68.2995C3.47225 67.8092 32.0559 68.355 38.3899 69.0421C38.6143 69.067 38.8553 69.1059 39.1103 69.164L39.113 69.1667C50.0742 73.7472 60.4759 81.4999 63.1719 83.4477Z" fill="#37474F"/>
<g opacity="0.5">
<path d="M63.168 83.4498C57.1138 83.5439 23.0025 84.0593 22.0216 83.9403C20.9437 83.81 17.5247 82.034 17.0424 81.6517C16.5604 81.2695 3.11076 68.7787 3.28551 68.302C3.34369 68.1468 6.24205 68.0943 10.3816 68.1192C13.4267 70.2166 20.8997 74.384 34.507 76.4924C45.2355 78.155 51.5612 78.1188 54.9998 77.7864C58.9314 80.3353 61.9016 82.5327 63.168 83.4498Z" fill="#455A64"/>
<path d="M38.3594 75.0385C26.7969 73.7056 19.5402 70.4057 15.7912 68.1836C16.8469 68.2002 17.9331 68.2195 19.0303 68.2418L38.3594 75.0385Z" fill="#455A64"/>
</g>
<path d="M1.88022 83.7989C1.30881 83.1136 2.36043 78.2247 2.93566 77.9267C3.51088 77.6288 10.3653 78.6385 10.2964 81.7913C10.2272 84.9439 2.77214 84.8687 1.88022 83.7989Z" fill="#2F945A"/>
<path opacity="0.7" d="M-0.397903 87.3848V87.6498C0.745365 87.7127 1.88863 87.7733 3.0319 87.8317C3.04987 87.834 3.06784 87.834 3.08581 87.834C6.4617 88.0114 9.8376 88.1799 13.2112 88.3416C19.7137 88.6448 26.169 89.5141 32.64 90.1609C33.525 90.2553 34.4077 90.3586 35.2882 90.4732C40.7125 91.1694 46.0919 92.2184 51.3838 93.593C51.3883 93.593 51.3927 93.593 51.3972 93.5952C51.5298 93.6289 51.66 93.6649 51.7926 93.6986C53.6119 94.1613 56.2735 94.8935 58.0547 95.3809C58.0479 95.3786 58.0412 95.3764 58.0345 95.3742C55.9905 94.6846 53.9376 94.0265 51.8689 93.4178C45.618 91.5805 39.1829 90.2845 32.7007 89.6331C26.47 89.0199 19.4779 88.3349 13.227 88.0249C9.86005 87.8744 6.49314 87.7194 3.12399 87.5555C3.10826 87.5555 3.09254 87.5555 3.07906 87.5532C1.92007 87.4993 0.761086 87.4432 -0.397903 87.3848Z" fill="white"/>
<path d="M56.1292 111.783C56.2509 111.939 53.2499 115.538 53.0426 115.584C52.8353 115.63 45.9247 115.722 45.8787 115.584C45.8326 115.446 49.1265 111.967 49.3339 111.898C49.5412 111.829 55.9679 111.576 56.1292 111.783Z" fill="#263238"/>
<path d="M62.2586 111.091C61.8809 111.196 57.0758 116.205 57.3291 116.297C57.5825 116.389 91.5822 115.789 91.7666 115.742C91.9508 115.696 91.4854 110.588 91.2138 110.536C90.5688 110.414 63.2492 110.814 62.2586 111.091Z" fill="#263238"/>
<path d="M93.8612 111.018C93.4387 111.003 94.2695 115.276 94.6192 115.297C94.9692 115.317 97.9435 115.297 98.2934 115.297C98.6434 115.297 97.4143 111.532 97.0686 111.429C96.7232 111.326 94.4445 111.038 93.8612 111.018Z" fill="#263238"/>
<path d="M87.7578 111.801H69.2978L68.1893 106.279H86.6496L87.7578 111.801Z" fill="white"/>
<path d="M63.8494 83.9023C63.8494 83.9023 83.4851 90.3403 86.3163 92.3874C87.2702 93.0772 88.9062 94.7328 88.9062 94.7328H59.3987C59.3987 94.7328 55.1287 93.0262 47.7992 90.4821C40.4697 87.9381 20.5081 84.6496 20.5081 84.6496C20.5081 84.6496 24.1507 83.9563 63.8494 83.9023Z" fill="#37474F"/>
<path d="M39.0519 88.1838C42.4997 88.9464 45.6781 89.7467 47.7996 90.4814C51.3581 91.7145 54.1942 92.7537 56.1697 93.4963C56.2654 93.5316 56.3584 93.5641 56.4491 93.5994H73.8867V91.5458C73.8867 89.6885 72.3794 88.1836 70.5221 88.1836H39.0519V88.1838Z" fill="#263238"/>
<path d="M66.2695 87.3652H68.8359V88.1833H66.2695V87.3652Z" fill="#263238"/>
<path d="M61.8867 87.3652H64.4531V88.1833H61.8867V87.3652Z" fill="#263238"/>
<path d="M57.5039 87.3652H60.0703V88.1833H57.5039V87.3652Z" fill="#263238"/>
<path d="M53.125 87.3652H55.6914V88.1833H53.125V87.3652Z" fill="#263238"/>
<path d="M45.6133 87.3652H48.1797V88.1833H45.6133V87.3652Z" fill="#263238"/>
<path d="M56.1665 93.4961C56.2622 93.5314 56.3552 93.5639 56.4459 93.5992C58.3661 94.3188 59.3953 94.7317 59.3953 94.7317H88.9023C88.9023 94.7317 88.306 94.1277 87.6239 93.4961H56.1665Z" fill="#263238"/>
<path d="M73.28 92.5595C73.7148 90.5814 72.3142 88.6695 70.2722 88.5639C69.9369 88.5542 69.5057 88.5686 69.1741 88.5675C65.584 88.5965 61.9251 88.6502 58.3416 88.769C61.9235 88.8876 65.5849 88.9417 69.1741 88.9704C69.4787 88.9788 69.9513 88.9628 70.2419 88.9925C72.1145 89.1629 73.2405 90.7541 73.28 92.5595Z" fill="#37474F"/>
<path opacity="0.7" d="M25.5274 86.0566C34.225 86.7601 42.8808 88.3746 51.0916 91.3797C53.8204 92.3772 56.5521 93.4416 59.0664 94.9081C57.7625 94.267 56.416 93.7251 55.0562 93.2224C50.9852 91.7105 46.8097 90.448 42.6117 89.3369C36.9886 87.9112 31.2518 86.9775 25.5274 86.0566Z" fill="white"/>
<path opacity="0.7" d="M65.1361 84.334C71.8425 86.2874 78.1985 88.2465 84.3798 91.2133C84.9063 91.4845 85.6841 91.8905 86.207 92.165C86.8139 92.5287 88.7671 94.2858 89.082 94.735C88.3503 93.9264 87.2995 93.2097 86.402 92.6286C81.9825 89.7675 65.1361 84.334 65.1361 84.334Z" fill="white"/>
<g opacity="0.4">
<path d="M32.6914 109.332C31.3586 104.583 28.0011 100.23 23.2903 98.5109C18.6919 96.8351 13.1842 97.2066 9.21221 100.215C6.55934 102.197 4.56794 105.025 3.37031 108.11C3.84806 106.503 4.61826 104.99 5.53534 103.586C9.54351 97.438 16.7066 95.5326 23.4765 98.022C28.2744 99.8258 31.6656 104.429 32.6914 109.332Z" fill="white"/>
</g>
<path d="M86.9434 64.0137C68.553 76.2015 64.0956 83.956 64.0956 83.956L20.6773 84.8427C20.6773 84.8427 19.6009 83.8089 20.3844 82.9598C31.2218 71.2152 36.5707 68.5877 43.7432 63.8834C44.6077 63.3165 45.5555 62.8947 46.5894 62.8895L86.6467 62.6777C87.3946 62.6807 87.5669 63.6004 86.9434 64.0137Z" fill="#2F945A"/>
<path opacity="0.1" d="M22.536 84.8055L62.6808 83.985C63.9265 82.1203 69.1485 75.2097 83.7724 65.2213C84.3561 64.8212 84.1951 63.9302 83.493 63.9277L47.1861 64.1014C46.2171 64.1038 45.3288 64.5115 44.5184 65.0602C37.7964 69.6052 32.7809 72.142 22.6265 83.4942C22.2262 83.9423 22.3446 84.443 22.536 84.8055Z" fill="black"/>
<path opacity="0.7" d="M20.9034 82.7872C26.208 77.0174 32.0429 71.7188 38.4735 67.4075C40.61 65.974 42.7887 64.5711 45.0898 63.5156C43.969 64.1207 42.8846 64.804 41.8166 65.5156C38.615 67.6426 35.5062 69.964 32.4768 72.3745C28.4574 75.634 24.6732 79.2118 20.9034 82.7872Z" fill="white"/>
<path opacity="0.1" d="M53.7856 82.8599C57.4829 78.1435 61.4657 73.665 65.7321 69.7633C67.1497 68.4664 68.5905 67.1834 70.0781 66.1172C69.3463 66.698 68.6303 67.3265 67.9221 67.9716C65.7993 69.901 63.7178 71.9474 61.6775 74.0423C58.9653 76.8632 56.3708 79.8636 53.7856 82.8599Z" fill="black"/>
<path opacity="0.1" d="M37.4926 82.8599C41.1899 78.1435 45.1727 73.665 49.4392 69.7633C50.8567 68.4664 52.2976 67.1834 53.7852 66.1172C53.0534 66.698 52.3373 67.3265 51.6291 67.9716C49.5063 69.901 47.4249 71.9474 45.3845 74.0423C42.6723 76.8632 40.0779 79.8636 37.4926 82.8599Z" fill="black"/>
<path d="M79.8256 67.863L90.0273 91.7676L89.8208 91.8557L79.619 67.9512L79.8256 67.863Z" fill="#263238"/>
<path d="M89.6733 131.175C90.2149 131.354 105.687 131.254 106.273 130.876C106.498 130.736 106.615 128.48 106.678 125.751C106.679 125.723 106.679 125.694 106.679 125.666C106.694 125.104 106.016 115.664 106.016 115.664L96.0999 115.703L96.6353 123.657L96.6452 123.972L96.6969 125.618L96.7018 125.788C96.7018 125.788 90.7966 128.475 90.1955 128.959C89.5992 129.441 89.1313 130.998 89.6733 131.175Z" fill="#EB9481"/>
<path d="M89.5503 131.168C90.0994 131.35 105.802 131.296 106.4 130.916C106.627 130.772 106.855 128.351 106.631 125.674L96.5069 125.721C96.5069 125.721 90.6991 128.432 90.0887 128.919C89.4811 129.407 89.0011 130.986 89.5503 131.168Z" fill="#FD7E50"/>
<path d="M89.774 130.537C92.406 130.463 103.029 130.414 105.636 130.542C105.658 130.543 105.658 130.557 105.636 130.558C103.029 130.688 92.4062 130.651 89.774 130.58C89.7185 130.578 89.7185 130.538 89.774 130.537Z" fill="#263238"/>
<path d="M91.0832 128.348C91.7074 128.32 92.3186 128.614 92.6602 128.985C92.9884 129.341 93.27 129.843 93.2532 130.388C93.2527 130.404 93.2238 130.404 93.2213 130.388C93.0674 129.359 92.1274 128.457 91.083 128.381C91.0623 128.379 91.0619 128.348 91.0832 128.348Z" fill="#263238"/>
<path d="M95.6722 125.985C96.7258 125.967 97.9484 126.335 98.606 127.194C98.6316 127.227 98.5838 127.263 98.5526 127.247C97.5984 126.759 96.6919 126.397 95.6544 126.115C95.5812 126.095 95.5967 125.986 95.6722 125.985Z" fill="#263238"/>
<path d="M94.8634 126.303C95.9171 126.285 97.1396 126.653 97.7975 127.512C97.8229 127.545 97.7753 127.581 97.744 127.565C96.7899 127.078 95.8832 126.715 94.8459 126.433C94.7725 126.413 94.788 126.305 94.8634 126.303Z" fill="#263238"/>
<path d="M94.0472 126.624C95.1006 126.605 96.3236 126.973 96.981 127.833C97.0066 127.866 96.9588 127.901 96.9276 127.886C95.9734 127.398 95.0669 127.035 94.0294 126.753C93.9564 126.734 93.9717 126.625 94.0472 126.624Z" fill="#263238"/>
<path d="M93.2386 126.944C94.2921 126.926 95.5148 127.293 96.1725 128.153C96.1979 128.186 96.1503 128.222 96.1191 128.206C95.1651 127.718 94.2584 127.355 93.2209 127.074C93.1479 127.054 93.1632 126.945 93.2386 126.944Z" fill="#263238"/>
<path d="M104.952 128.043C106.134 128.042 106.137 129.879 104.953 129.88C103.771 129.881 103.768 128.044 104.952 128.043Z" fill="white"/>
<path d="M94.5331 123.179C95.0648 122.735 95.7382 123.165 96.0686 123.623C96.6036 124.364 96.9731 125.406 97.0351 126.313C97.0366 126.336 97.0196 126.345 97.0023 126.344C96.98 126.419 96.8911 126.483 96.8131 126.43C96.0611 125.913 95.1935 125.454 94.6223 124.723C94.289 124.296 94.0302 123.599 94.5331 123.179ZM95.8334 125.414C96.197 125.676 96.5712 125.92 96.9252 126.196C96.7352 125.672 96.5688 125.142 96.3262 124.637C96.2103 124.396 96.0867 124.151 95.939 123.928C95.709 123.581 94.6717 122.703 94.5709 123.85C94.5149 124.482 95.4001 125.1 95.8334 125.414Z" fill="#263238"/>
<path d="M99.6545 126.695C98.7376 126.839 97.7905 126.581 96.8887 126.444C96.795 126.43 96.7737 126.323 96.8091 126.252C96.7957 126.241 96.7894 126.223 96.8058 126.208C97.4715 125.587 98.4526 125.08 99.3502 124.903C99.9045 124.795 100.69 124.941 100.775 125.629C100.855 126.279 100.19 126.611 99.6545 126.695ZM100.289 126.093C100.998 125.187 99.6419 125.119 99.2365 125.215C98.976 125.277 98.7183 125.372 98.469 125.468C97.9468 125.671 97.4632 125.945 96.9664 126.197C97.4136 126.237 97.8531 126.315 98.2983 126.372C98.8288 126.439 99.8971 126.593 100.289 126.093Z" fill="#263238"/>
<path opacity="0.1" d="M106.4 130.914C106.052 131.137 100.608 131.246 96.0001 131.265L106.63 125.672C106.855 128.351 106.628 130.772 106.4 130.914Z" fill="black"/>
<path d="M96.7258 125.628L106.805 125.602C106.805 125.602 107.362 124.967 107.273 123.71C106.867 117.919 105.05 100.641 105.122 100.268C105.234 99.6854 105.892 97.0514 106.769 93.6106C107.043 92.5338 107.34 91.3789 107.647 90.1815C108.479 86.944 109.396 83.4061 110.194 80.3272C111.392 75.7148 112.328 73.338 112.328 73.338L102.885 73.3359C102.885 73.3359 95.1225 95.5614 94.813 100.154C94.5936 103.412 95.5717 118.51 96.085 123.711C96.2027 124.904 96.7258 125.628 96.7258 125.628Z" fill="#434760"/>
<path opacity="0.1" d="M103.957 73.3359C104.612 78.4079 105.859 86.7115 106.769 93.6106C108.9 85.252 112.328 73.3377 112.328 73.3377L103.957 73.3359Z" fill="black"/>
<path d="M97.1438 123.467C98.6139 123.437 98.1916 123.425 99.6619 123.411C100.382 123.404 105.11 123.364 105.782 123.475C105.797 123.478 105.797 123.503 105.782 123.505C105.11 123.616 100.381 123.574 99.6619 123.567C98.1916 123.553 98.6139 123.541 97.1438 123.51C97.1162 123.509 97.1162 123.468 97.1438 123.467Z" fill="#263238"/>
<path d="M103.028 98.6772C103.394 97.0665 103.94 95.4882 104.416 93.9073C105.382 90.6952 106.357 87.4853 107.333 84.2761C107.821 82.6714 110.086 76.6685 110.31 75.8707C110.401 75.5461 110.451 75.7245 110.334 76.1366C110.099 76.9677 106.228 88.8691 105.249 92.1298C104.758 93.7645 104.264 95.3983 103.773 97.0328C103.538 97.8138 103.308 98.5995 103.17 99.4045C103.026 100.244 103.018 101.094 103.071 101.942C103.178 103.647 103.375 105.349 103.532 107.05C103.689 108.754 103.92 111.338 104.078 113.042C104.391 116.434 104.797 122.037 104.83 122.468C104.841 122.612 104.623 122.601 104.608 122.462C104.242 119.108 104.249 117.785 103.935 114.425C103.623 111.083 103.236 106.861 102.925 103.519C102.846 102.68 102.757 101.839 102.757 100.995C102.756 100.212 102.855 99.4397 103.028 98.6772Z" fill="#263238"/>
<path d="M101.656 131.229C102.198 131.406 117.67 131.266 118.255 130.886C118.48 130.745 118.591 128.49 118.646 125.76C118.646 125.732 118.647 125.703 118.647 125.675C118.66 125.112 118.669 124.533 118.673 123.946C118.673 123.865 118.674 123.785 118.676 123.704C118.713 119.765 118.43 115.678 118.43 115.678L108.317 115.741L108.597 123.693L108.608 124.008L108.664 125.654L108.67 125.823C108.67 125.823 102.772 128.526 102.172 129.012C101.577 129.495 101.114 131.054 101.656 131.229Z" fill="#EB9481"/>
<path d="M101.585 131.166C102.135 131.348 117.838 131.294 118.435 130.914C118.663 130.771 118.89 128.349 118.666 125.672L108.542 125.719C108.542 125.719 102.734 128.43 102.124 128.917C101.516 129.405 101.036 130.984 101.585 131.166Z" fill="#FD7E50"/>
<path d="M101.805 130.535C104.437 130.461 115.06 130.412 117.668 130.54C117.689 130.541 117.689 130.555 117.668 130.556C115.06 130.686 104.437 130.649 101.805 130.578C101.75 130.576 101.75 130.536 101.805 130.535Z" fill="#263238"/>
<path d="M103.118 128.348C103.743 128.32 104.354 128.614 104.695 128.985C105.024 129.341 105.305 129.843 105.288 130.388C105.288 130.404 105.259 130.404 105.256 130.388C105.103 129.359 104.163 128.457 103.118 128.381C103.097 128.379 103.097 128.348 103.118 128.348Z" fill="#263238"/>
<path d="M107.707 125.985C108.761 125.967 109.984 126.335 110.641 127.194C110.667 127.227 110.619 127.263 110.588 127.247C109.634 126.759 108.727 126.397 107.69 126.115C107.616 126.095 107.632 125.986 107.707 125.985Z" fill="#263238"/>
<path d="M106.891 126.303C107.944 126.285 109.167 126.653 109.825 127.512C109.85 127.545 109.803 127.581 109.771 127.565C108.817 127.078 107.91 126.715 106.873 126.433C106.8 126.413 106.815 126.305 106.891 126.303Z" fill="#263238"/>
<path d="M106.078 126.624C107.132 126.605 108.355 126.973 109.012 127.833C109.038 127.866 108.99 127.901 108.959 127.886C108.004 127.398 107.098 127.035 106.06 126.753C105.988 126.734 106.003 126.625 106.078 126.624Z" fill="#263238"/>
<path d="M105.266 126.944C106.319 126.926 107.542 127.293 108.2 128.153C108.225 128.186 108.178 128.222 108.146 128.206C107.192 127.718 106.286 127.355 105.248 127.074C105.175 127.054 105.19 126.945 105.266 126.944Z" fill="#263238"/>
<path d="M116.983 128.043C118.165 128.042 118.168 129.879 116.984 129.88C115.802 129.881 115.799 128.044 116.983 128.043Z" fill="white"/>
<path d="M106.56 123.179C107.092 122.735 107.765 123.165 108.096 123.623C108.631 124.364 109 125.406 109.062 126.313C109.064 126.336 109.047 126.345 109.03 126.344C109.007 126.419 108.918 126.483 108.84 126.43C108.088 125.913 107.221 125.454 106.65 124.723C106.316 124.296 106.057 123.599 106.56 123.179ZM107.861 125.414C108.224 125.676 108.598 125.92 108.952 126.196C108.762 125.672 108.596 125.142 108.353 124.637C108.237 124.396 108.114 124.151 107.966 123.928C107.736 123.581 106.699 122.703 106.598 123.85C106.542 124.482 107.427 125.1 107.861 125.414Z" fill="#263238"/>
<path d="M111.69 126.695C110.773 126.839 109.826 126.581 108.924 126.444C108.83 126.43 108.809 126.323 108.844 126.252C108.831 126.241 108.825 126.223 108.841 126.208C109.507 125.587 110.488 125.08 111.385 124.903C111.939 124.795 112.725 124.941 112.81 125.629C112.89 126.279 112.225 126.611 111.69 126.695ZM112.324 126.093C113.033 125.187 111.677 125.119 111.271 125.215C111.011 125.277 110.753 125.372 110.504 125.468C109.982 125.671 109.498 125.945 109.001 126.197C109.448 126.237 109.888 126.315 110.333 126.372C110.864 126.439 111.932 126.593 112.324 126.093Z" fill="#263238"/>
<path d="M103.339 73.3379C103.339 73.3379 104.839 80.9659 104.936 81.2453C104.936 81.2453 105.71 81.5872 107.346 82.3937C107.346 82.3937 107.447 86.1294 107.555 90.1837C107.675 94.7158 107.799 99.7712 107.773 100.843C107.694 104.176 107.957 119.212 108.169 123.997C108.212 124.971 108.592 125.62 108.592 125.62L118.671 125.63C118.671 125.63 119.291 124.936 119.235 123.923C118.945 118.724 117.434 102.087 117.415 100.857C117.363 97.5965 117.131 89.628 116.7 82.0141C116.662 81.3412 116.983 79.1429 116.948 78.5641C116.736 75.1092 115.965 73.3408 115.965 73.3408L103.339 73.3379Z" fill="#434760"/>
<path d="M109.071 123.26C110.597 123.232 110.159 123.216 111.685 123.206C112.432 123.202 117.338 123.176 118.035 123.308C118.051 123.311 118.051 123.34 118.035 123.342C117.337 123.468 112.431 123.399 111.684 123.387C110.158 123.364 110.597 123.352 109.071 123.31C109.043 123.309 109.043 123.261 109.071 123.26Z" fill="#263238"/>
<path d="M114.609 78.9932C114.335 78.9229 114.042 78.9007 113.762 78.8564C113.537 78.8205 113.312 78.7809 113.088 78.7315C112.668 78.6388 112.242 78.4995 111.899 78.2306C111.343 77.7953 110.706 75.5962 110.628 75.4558C110.494 75.2152 110.454 75.4266 110.454 75.4491C110.453 75.7044 111.038 77.6305 111.264 77.9903C111.678 78.6484 112.417 78.9135 113.155 79.0067C113.367 79.0334 113.581 79.0484 113.794 79.0606C114.057 79.0756 114.338 79.0992 114.601 79.0666C114.641 79.0619 114.652 79.0042 114.609 78.9932Z" fill="#263238"/>
<path d="M104.902 81.1471C105.988 81.5211 107.037 82.0518 108.039 82.6084C108.078 82.6302 108.053 82.6913 108.01 82.6729C106.953 82.2189 105.875 81.7848 104.845 81.2731C104.764 81.2331 104.818 81.1186 104.902 81.1471Z" fill="#263238"/>
<path d="M104.579 73.9083C104.582 73.8717 104.646 73.8636 104.645 73.9031C104.637 75.1578 104.717 76.262 104.823 77.4345C104.872 77.9789 105.31 80.9878 106.254 80.7684C106.412 80.7315 106.492 80.5761 106.517 80.3378C106.547 80.0512 106.439 79.6999 106.392 79.4151C106.287 78.7853 106.203 78.1534 106.149 77.5171C106.048 76.3294 106.043 75.1419 106.187 73.9579C106.192 73.9191 106.248 73.922 106.248 73.9613C106.247 75.6055 106.29 77.2465 106.535 78.8749C106.654 79.6574 107.048 80.8357 106.229 80.9561C105.396 81.0788 104.856 79.1053 104.755 78.5654C104.471 77.0587 104.46 75.4325 104.579 73.9083Z" fill="#263238"/>
<path d="M106.235 80.8493C106.32 81.0512 106.389 81.2617 106.447 81.473C106.493 81.637 106.554 81.8144 106.536 81.9856C106.532 82.0188 106.488 82.022 106.47 81.9995C106.36 81.8591 106.313 81.6671 106.251 81.5007C106.179 81.3077 106.103 81.1161 106.037 80.9214C105.993 80.792 106.183 80.7246 106.235 80.8493Z" fill="#263238"/>
<path d="M115.211 74.543C115.37 75.5254 115.521 76.5092 115.653 77.4957C115.739 78.2338 115.886 78.9882 115.79 79.7321L115.709 80.4747C115.627 81.2112 115.518 81.9567 115.565 82.6981C115.677 87.8925 115.806 93.1773 116.042 98.3611C116.397 106.064 117.1 114.467 117.551 122.193C116.967 114.599 116.215 105.955 115.851 98.3696C115.628 93.1847 115.505 87.8958 115.449 82.7006C115.409 81.954 115.525 81.2 115.614 80.4632L115.707 79.7234C115.814 78.9813 115.68 78.2419 115.606 77.5018C115.489 76.5137 115.354 75.5277 115.211 74.543Z" fill="#263238"/>
<path d="M102.702 62.4344C100.142 66.3161 96.8186 70.9884 94.6024 71.3364C93.0151 71.5857 86.4057 69.5714 84.987 68.9276C84.2368 68.5871 88.1877 62.6316 88.9995 62.9739C89.8317 63.325 93.2785 64.548 93.9344 64.6093C94.2953 64.643 98.1476 61.6988 100.782 59.7002C103.991 57.2661 104.455 59.7768 102.702 62.4344Z" fill="#EB9481"/>
<path d="M86.6203 69.2969C85.8202 69.1731 82.1514 68.2972 81.2004 67.8241C80.2494 67.3511 77.6111 65.7916 77.8993 65.0266C78.1877 64.2614 78.9965 64.6562 78.9965 64.6562C78.9965 64.6562 77.9867 63.8214 78.3472 63.0777C78.7075 62.334 79.9457 62.9894 79.9457 62.9894C79.9457 62.9894 78.9711 62.0564 79.3838 61.3403C79.7961 60.6243 80.9309 61.4919 80.9309 61.4919C80.9309 61.4919 80.0001 60.6804 80.5881 60.2334C81.2954 59.6957 82.8425 61.3857 83.9314 61.8291C84.1787 61.9297 89.0898 63.5127 89.0898 63.5127L86.6203 69.2969Z" fill="#EB9481"/>
<path d="M80.8369 61.4207C81.9774 62.6608 82.6908 63.006 84.2918 63.4391C84.323 63.4474 84.3176 63.4959 84.2842 63.4901C82.6778 63.2089 81.7202 62.9047 80.774 61.4729C80.7277 61.403 80.7825 61.3619 80.8369 61.4207Z" fill="#263238"/>
<path d="M79.862 62.8909C81.1592 64.0755 81.9296 64.4566 83.5733 65.0337C83.5964 65.0417 83.5852 65.082 83.5609 65.0757C81.9013 64.6446 80.9532 64.3194 79.8126 62.9657C79.761 62.9044 79.8028 62.8367 79.862 62.8909Z" fill="#263238"/>
<path d="M79.091 64.684C80.4294 65.7401 81.2562 66.1947 82.9237 66.5498C82.963 66.5581 82.9545 66.6163 82.9143 66.6118C81.1787 66.4151 80.1428 65.8556 79.0631 64.728C78.9895 64.6512 79.0068 64.6175 79.091 64.684Z" fill="#263238"/>
<path d="M90.1211 63.7707C90.1211 63.7707 89.0041 61.9794 88.3397 61.3006C87.6753 60.6221 84.2686 59.004 83.8774 59.72C83.3722 60.6445 85.155 61.9659 86.1127 62.4989C86.1127 62.4989 84.9422 64.6361 86.0163 65.8613C87.0906 67.0866 90.1211 63.7707 90.1211 63.7707Z" fill="#EB9481"/>
<path d="M83.827 60.0187C83.9745 61.1939 85.2768 61.8127 86.1672 62.3993C86.2348 62.444 86.2229 62.5141 86.1786 62.5593C85.7478 63.4878 85.4105 64.9231 85.9551 65.8563C85.9711 65.8835 85.9345 65.91 85.9147 65.8846C85.1948 64.963 85.4111 63.526 85.9479 62.5391C85.0255 61.9517 83.7465 61.2738 83.8157 60.0198C83.8162 60.0124 83.8263 60.0113 83.827 60.0187Z" fill="#263238"/>
<path d="M95.4432 63.2591L99.7659 67.3854C99.7659 67.3854 103.021 63.0605 103.898 60.5909C104.774 58.1211 104.285 57.2517 101.165 59.0827C98.0456 60.9135 95.4432 63.2591 95.4432 63.2591Z" fill="#FD7E50"/>
<path d="M94.7812 63.5973L95.8247 62.6328L100.309 67.0206L99.3973 68.1021L94.7812 63.5973Z" fill="#FD7E50"/>
<path opacity="0.1" d="M94.7812 63.5973L95.8247 62.6328L100.309 67.0206L99.3973 68.1021L94.7812 63.5973Z" fill="black"/>
<path d="M102.126 77.4907C102.434 77.6737 116.317 73.4288 116.366 73.3123C116.498 72.9951 108.322 59.3734 104.129 57.7066C103.227 57.3481 101.122 58.4148 100.727 59.0756C100.479 59.49 100.335 61.7729 100.297 63.6255C100.219 67.3343 101.858 77.3294 102.126 77.4907Z" fill="#FD7E50"/>
<path d="M102.094 77.6235C102.094 77.6235 100.217 70.4409 100.129 64.4123C100.066 60.0879 100.387 59.3254 100.387 59.3254L100.725 59.0729L100.876 62.6002L103.703 61.7496C103.703 61.7496 104.019 57.8616 104.186 57.7277C104.29 57.6433 104.889 58.002 104.889 58.002C104.889 58.002 104.744 62.0784 105.277 63.5936C105.81 65.1091 107.511 67.2638 108.606 67.7665C109.701 68.2689 112.653 66.8316 112.731 66.8316C112.808 66.8316 116.753 73.5857 116.808 73.678C116.864 73.7703 102.094 77.6235 102.094 77.6235Z" fill="#434760"/>
<path d="M100.693 63.7883C100.761 63.6445 104.309 62.745 104.386 62.855C104.479 62.9884 105.235 65.3219 105.136 65.4223C104.94 65.6204 103.505 66.5436 103.161 66.6024C102.797 66.6646 101.648 66.487 101.261 66.2909C101.125 66.2219 100.544 64.1097 100.693 63.7883ZM101.356 66.1844C101.56 66.2684 102.685 66.5072 103.141 66.4488C103.451 66.4106 104.935 65.4423 104.977 65.3554C105.013 65.2806 104.479 63.4763 104.321 62.994C104.021 62.879 100.898 63.7707 100.81 63.9033C100.75 63.9958 101.216 66.1231 101.356 66.1844Z" fill="#263238"/>
<path d="M116.69 73.7429C116.793 73.8044 118.578 78.6767 118.308 78.9561C118.038 79.2355 113.905 80.9884 113.549 80.9001C113.194 80.8118 111.615 75.8895 111.626 75.8162C111.638 75.7428 116.496 73.627 116.69 73.7429Z" fill="#FD7E50"/>
<path opacity="0.1" d="M112.331 78.009C112.797 79.3636 113.355 80.8526 113.549 80.9C113.904 80.9871 118.038 79.2356 118.308 78.9555C118.456 78.8014 117.989 77.2826 117.52 75.924C117.127 74.7924 116.734 73.7729 116.688 73.743C116.496 73.6255 111.638 75.7434 111.626 75.8155C111.621 75.8489 111.945 76.881 112.331 78.009Z" fill="black"/>
<path d="M117.177 73.459C117.234 73.3732 116.293 71.624 115.892 71.2246C115.892 71.2246 111.47 73.1891 107.604 74.468C104.712 75.4248 101.311 76.1002 101.316 76.1872C101.32 76.2741 101.683 78.3126 101.794 78.4609C101.904 78.6091 106.378 77.5481 108.883 76.783C111.388 76.0182 116.991 73.7427 117.177 73.459Z" fill="#FD7E50"/>
<path d="M103.517 75.4685C103.676 75.3418 106.497 74.6148 106.667 74.6624C106.954 74.7444 107.545 77.2265 107.502 77.313C107.458 77.3972 104.243 78.1553 104.133 78.1093C104.021 78.0641 103.356 75.5981 103.517 75.4685ZM104.374 77.7263C104.461 77.762 107.071 77.1504 107.106 77.083C107.142 77.0181 106.682 75.0995 106.452 75.0375C106.315 75.0025 104.026 75.5869 103.896 75.6873C103.766 75.7877 104.284 77.6935 104.374 77.7263Z" fill="#DBDBDB"/>
<path d="M103.879 76.5875L104.777 76.3672L104.862 76.7108L103.963 76.9311L103.879 76.5875Z" fill="#DBDBDB"/>
<path d="M107.991 75.7201C108.007 75.7929 108.079 75.8389 108.152 75.8232C108.224 75.8075 108.27 75.7356 108.255 75.6628C108.239 75.59 108.167 75.544 108.094 75.5597C108.022 75.5754 107.975 75.6473 107.991 75.7201Z" fill="#263238"/>
<path d="M109.327 75.2885C109.343 75.3612 109.415 75.4075 109.488 75.3915C109.56 75.3758 109.606 75.3039 109.591 75.2312C109.575 75.1584 109.503 75.1124 109.43 75.1281C109.358 75.144 109.311 75.2157 109.327 75.2885Z" fill="#263238"/>
<path d="M114.628 73.5242L116.168 72.9496L114.698 69.0081C114.589 68.7175 114.266 68.5697 113.975 68.6782L113.487 68.8601C113.197 68.9686 113.049 69.292 113.157 69.5829L114.628 73.5242Z" fill="#37474F"/>
<path d="M114.872 73.4283L115.91 73.041L116.064 73.4531L115.026 73.8403L114.872 73.4283Z" fill="#37474F"/>
<path d="M115.389 73.7108L115.719 73.5879L117.372 78.0208L117.042 78.1437L115.389 73.7108Z" fill="#EBEBEB"/>
<path d="M117.015 78.5936C117.015 78.5936 117.472 79.2001 117.494 79.192L117.602 79.1513C117.604 79.1507 117.604 79.1507 117.604 79.1507L117.713 79.11C117.735 79.1019 117.683 78.3445 117.683 78.3445L117.368 78.0195L117.041 78.1415L117.015 78.5936Z" fill="#EBEBEB"/>
<path d="M114.301 69.2117L114.57 69.1113L115.858 72.5644L115.59 72.6647L114.301 69.2117Z" fill="#263238"/>
<path d="M113.797 69.3992L114.066 69.2988L115.355 72.7519L115.086 72.8522L113.797 69.3992Z" fill="#263238"/>
<path d="M113.297 69.5906L113.566 69.4902L114.855 72.9437L114.586 73.044L113.297 69.5906Z" fill="#263238"/>
<path d="M113.116 70.5635L114 70.2168L114.541 71.5962L113.657 71.9429L113.116 70.5635Z" fill="#EBEBEB"/>
<path d="M113.257 70.9746C113.257 70.9746 112.75 71.1734 112.659 71.2091C112.568 71.2448 112.056 70.971 111.775 71.0811C111.495 71.1911 111.734 71.0972 111.467 71.2019C111.201 71.3064 110.185 72.0179 110.457 72.7124C110.73 73.4069 110.62 73.1264 110.62 73.1264C110.62 73.1264 110.631 72.7012 110.856 72.5332C111.116 72.3396 111.425 72.4559 111.558 72.6295C111.724 72.847 111.911 73.2106 111.911 73.2106L113.009 72.78C113.009 72.78 112.918 72.1967 112.948 71.9845C112.978 71.7724 113.508 71.6132 113.508 71.6132L113.257 70.9746Z" fill="#EBEBEB"/>
<path d="M112.135 73.1268L112.816 72.8594L113.782 75.3195L113.1 75.5869L112.135 73.1268Z" fill="#EBEBEB"/>
<path d="M112.485 74.5035L113.5 74.1055L115.649 79.5822L114.634 79.9802L112.485 74.5035Z" fill="#263238"/>
<path d="M112.331 78.0108C112.797 79.3655 113.355 80.8544 113.549 80.9018C113.904 80.9889 118.038 79.2374 118.308 78.9573C118.456 78.8033 117.989 77.2844 117.52 75.9258L112.331 78.0108Z" fill="#FD7E50"/>
<path d="M102.108 60.8069C102.988 60.7036 103.929 58.9588 104.113 57.7551C104.125 57.6727 103.756 56.9856 103.346 56.1296C103.1 55.6092 102.838 55.0239 102.637 54.4727L99.4851 56.571C99.4851 56.571 100.246 57.6031 100.59 58.5662C100.617 58.647 100.637 58.7248 100.648 58.8011C100.651 58.8119 100.652 58.8256 100.657 58.8404C100.743 59.2959 101.257 60.9064 102.108 60.8069Z" fill="#EB9481"/>
<path d="M102.497 54.5723C102.64 55.2998 103.013 57.9571 101.028 58.7309C100.9 58.7794 100.78 58.8167 100.666 58.8414C100.661 58.8262 100.659 58.812 100.658 58.801C100.646 58.7246 100.627 58.6465 100.6 58.5667C100.254 57.6041 99.4935 56.5715 99.4935 56.5715L102.497 54.5723Z" fill="#263238"/>
<path d="M101.41 50.4573C102.255 51.5281 102.984 55.2898 102.425 56.41C101.614 58.0341 99.6051 58.9433 98.0528 57.8133C96.5482 56.7179 95.6852 51.7987 96.3732 50.7105C97.3866 49.1074 100.161 48.8759 101.41 50.4573Z" fill="#EB9481"/>
<path d="M102.036 53.2793C101.361 53.6692 99.8371 50.7176 99.8371 50.7176C99.8371 50.7176 99.3353 51.4395 98.7915 51.8074C98.2475 52.1756 97.538 52.4772 97.4284 52.5044C97.3188 52.5316 98.2286 51.3941 98.2286 51.3941C98.2286 51.3941 97.2199 52.4941 96.14 52.6055C95.8056 52.6398 95.6551 49.8088 97.8753 49.0231C99.3737 48.4928 100.553 49.5022 100.553 49.5022C100.553 49.5022 101.775 49.9479 102.014 50.4402C102.334 51.0999 102.752 52.866 102.036 53.2793Z" fill="#263238"/>
<path d="M96.015 50.8934C96.4285 50.7647 98.7763 50.6796 99.8583 51.063C100.94 51.4466 102.909 52.837 103.011 52.9102C103.112 52.9834 103.339 49.0902 100.162 48.5923C96.6996 48.0496 96.015 50.8934 96.015 50.8934Z" fill="#FD7E50"/>
<path d="M102.812 52.7661C102.812 52.7661 100.563 50.1718 99.371 49.6247C98.1795 49.0773 95.5805 48.8945 94.0343 49.7006C92.8283 50.3293 95.9659 51.7273 95.9659 51.7273C95.9659 51.7273 96.0207 51.2796 96.41 51.095C97.1656 50.7365 98.6534 50.8762 99.5114 51.1028C100.591 51.3881 102.812 52.7661 102.812 52.7661Z" fill="#FD7E50"/>
<path opacity="0.2" d="M102.812 52.7661C102.812 52.7661 100.563 50.1718 99.371 49.6247C98.1795 49.0773 95.5805 48.8945 94.0343 49.7006C92.8283 50.3293 95.9659 51.7273 95.9659 51.7273C95.9659 51.7273 96.0207 51.2796 96.41 51.095C97.1656 50.7365 98.6534 50.8762 99.5114 51.1028C100.591 51.3881 102.812 52.7661 102.812 52.7661Z" fill="black"/>
<path opacity="0.2" d="M96.6828 55.3937C96.6828 55.3982 96.6851 55.4004 96.6851 55.4049C97.0197 56.474 97.4914 57.4062 98.0484 57.8127C99.6005 58.9425 101.611 58.0328 102.422 56.4089C102.644 55.9619 102.662 55.0949 102.55 54.1448L101.469 53.0645C101.469 53.0645 101.168 54.1785 100.845 54.6974C100.4 55.4071 99.1266 55.6273 98.3584 55.3622L97.9204 55.5599C97.9204 55.5599 97.3746 56.5212 96.6828 55.3937Z" fill="#263238"/>
<path d="M98.9651 53.8955C98.9651 53.8854 98.9873 53.9036 98.9891 53.914C99.0313 54.1687 99.1228 54.4532 99.3685 54.4919C99.3761 54.493 99.3779 54.506 99.3692 54.5065C99.0819 54.5229 98.9644 54.1437 98.9651 53.8955Z" fill="#263238"/>
<path d="M99.1367 53.5848C99.5376 53.4729 99.7319 54.2831 99.3604 54.3869C98.9947 54.4888 98.8004 53.6787 99.1367 53.5848Z" fill="#263238"/>
<path d="M97.5285 54.248C97.5242 54.2388 97.5117 54.2647 97.5146 54.2748C97.5826 54.5239 97.6188 54.8204 97.4117 54.9583C97.4052 54.9625 97.409 54.9751 97.4171 54.9717C97.6848 54.8664 97.633 54.4731 97.5285 54.248Z" fill="#263238"/>
<path d="M97.2431 54.0398C96.8321 54.1058 96.9945 54.923 97.3754 54.8619C97.75 54.8017 97.5874 53.9845 97.2431 54.0398Z" fill="#263238"/>
<path d="M99.3669 53.1374C99.2499 53.1361 99.1423 53.1154 99.0266 53.1022C98.8961 53.0871 98.7908 53.0887 98.6865 53C98.6306 52.9524 98.6234 52.8448 98.6643 52.7859C98.76 52.6491 98.9244 52.6278 99.0821 52.6395C99.2532 52.652 99.3819 52.7057 99.5064 52.8232C99.627 52.9373 99.5212 53.1392 99.3669 53.1374Z" fill="#263238"/>
<path d="M96.8181 53.7063C96.9261 53.6612 97.018 53.6014 97.1199 53.5455C97.2352 53.4826 97.3333 53.4444 97.3967 53.3229C97.4306 53.2578 97.3969 53.1553 97.3367 53.1163C97.1965 53.0255 97.0364 53.0677 96.8947 53.1378C96.7408 53.214 96.6417 53.3119 96.5705 53.4678C96.5018 53.6187 96.6759 53.7658 96.8181 53.7063Z" fill="#263238"/>
<path d="M99.7738 56.1692C99.7278 56.2424 99.6871 56.3377 99.598 56.3671C99.5124 56.3954 99.4005 56.3806 99.3132 56.3687C99.3046 56.3675 99.2986 56.3779 99.3053 56.3842C99.3936 56.4648 99.5452 56.4924 99.6566 56.4441C99.7655 56.397 99.7981 56.2853 99.8008 56.1748C99.801 56.1593 99.7806 56.1587 99.7738 56.1692Z" fill="#263238"/>
<path d="M99.3412 55.4784C99.253 55.73 99.0748 55.8985 98.8619 55.9955C98.7669 56.0393 98.6629 56.068 98.5578 56.0831C98.5374 56.0876 98.5167 56.09 98.4974 56.0905C98.4785 56.0927 98.4614 56.0945 98.4403 56.0952C98.41 56.0979 98.388 56.0777 98.3765 56.0512L98.3761 56.0494C98.3741 56.0402 98.3725 56.0328 98.3723 56.0231C98.3723 56.0231 98.3723 56.0231 98.3718 56.0213L98.3671 55.9993C98.3154 55.8073 98.2638 55.509 98.2638 55.509C98.2016 55.5613 97.8804 55.8095 97.8619 55.7071C97.7115 54.8594 97.5443 53.9167 97.5735 53.0414C97.5731 53.0124 97.6167 53.0086 97.6209 53.0369C97.7977 53.846 97.8309 54.6804 97.9958 55.496C98.1003 55.4248 98.2683 55.299 98.3698 55.2767C98.3992 55.2781 98.4594 55.8551 98.4895 55.9396C98.4895 55.9396 98.4902 55.9434 98.4933 55.9483C98.828 55.9119 99.0492 55.7554 99.312 55.4618C99.3278 55.4427 99.3516 55.4549 99.3412 55.4784Z" fill="#263238"/>
<path d="M101.492 53.5842C101.492 53.5842 101.871 52.1462 102.495 52.2408C103.119 52.3354 103.127 54.2149 102.601 54.6655C102.075 55.1163 101.648 54.6374 101.648 54.6374L101.492 53.5842Z" fill="#EB9481"/>
<path d="M102.482 52.7783C102.491 52.7738 102.498 52.7868 102.491 52.7933C102.127 53.1235 102.048 53.6024 102.041 54.0711C102.11 53.8663 102.251 53.716 102.519 53.7895C102.533 53.7933 102.528 53.8146 102.516 53.8166C102.327 53.8434 102.212 53.9202 102.145 54.1039C102.098 54.234 102.086 54.3804 102.069 54.5172C102.063 54.5628 101.986 54.5677 101.985 54.5183C101.985 54.5147 101.985 54.5109 101.984 54.5071C101.773 53.9662 101.917 53.048 102.482 52.7783Z" fill="#263238"/>
<path d="M100.635 58.6861L102.014 60.5451L103.907 57.2402L104.859 57.8921C104.859 57.8921 103.428 62.7299 103.363 62.5455L102.037 60.9791L101.127 62.5487L100.409 59.3945L100.635 58.6861Z" fill="#FD7E50"/>
<path d="M100.69 61.0077C100.588 60.483 100.472 59.9572 100.395 59.4285C100.392 59.4096 100.419 59.3941 100.429 59.4143C100.663 59.8853 101.039 61.8943 101.165 62.3666C101.167 62.3644 101.168 62.3619 101.169 62.3597C101.207 62.2923 102.028 60.9633 102.043 60.977C102.303 61.2126 103.273 62.3522 103.347 62.4596C103.573 61.6917 104.472 58.8791 104.78 58.128C104.789 58.1064 104.821 58.1138 104.816 58.1379C104.647 58.9308 103.472 62.7091 103.438 62.708C103.421 62.73 102.22 61.3282 102.047 61.0493C101.921 61.3249 101.125 62.7905 101.101 62.7148C100.94 62.2038 100.791 61.5333 100.69 61.0077Z" fill="#263238"/>
<path d="M106.523 63.1088C106.559 67.4195 105.478 73.8824 104.937 75.4542C104.494 76.7431 100.381 80.1088 98.3496 81.4185C97.5896 81.9086 94.1092 75.8619 94.9322 75.3543C95.9196 74.7452 99.0996 72.5224 99.2045 72.2356C99.4143 71.6626 101.779 66.1933 103.539 62.8844C104.994 60.1468 106.51 61.607 106.523 63.1088Z" fill="#EB9481"/>
<path d="M92.1628 76.7969C90.4369 78.0174 90.1812 78.5956 88.1777 78.8523C86.8631 79.0205 86.4062 79.9324 87.6982 80.4133C89.8113 81.1999 92.3685 80.093 93.1445 79.454L92.1628 76.7969Z" fill="#EB9481"/>
<path d="M84.5919 80.4525C83.8426 80.563 83.2577 81.0906 83.038 81.764L84.602 81.5333L85.0296 82.3397L84.8529 83.2352L83.2878 83.4659C83.6936 84.0481 84.4057 84.3836 85.155 84.2731C86.2093 84.1177 86.9393 83.1364 86.7838 82.0812C86.6284 81.0268 85.6462 80.2971 84.5919 80.4525Z" fill="#A6A6A6"/>
<path d="M86.0555 83.0574L85.8047 81.3555L95.0969 79.986L95.3478 81.6879L86.0555 83.0574Z" fill="#A6A6A6"/>
<path d="M88.2401 82.2223L88.1367 81.5215L92.9362 80.8137L93.0395 81.5145L88.2401 82.2223Z" fill="#C7C7C7"/>
<path d="M97.452 80.5086C97.5764 81.3513 96.994 82.133 96.1513 82.2574C95.3106 82.3816 94.5274 81.8014 94.4027 80.9587C94.2783 80.116 94.8607 79.3343 95.7012 79.2101C96.5441 79.0859 97.3276 79.6658 97.452 80.5086ZM95.2268 80.837C95.2841 81.2251 95.6439 81.4924 96.03 81.4353C96.4181 81.378 96.6852 81.0182 96.6279 80.6301C96.5706 80.242 96.2108 79.9749 95.8227 80.0322C95.4366 80.0892 95.1695 80.4488 95.2268 80.837Z" fill="#A6A6A6"/>
<path d="M97.5983 74.459C97.5983 74.459 94.9893 75.1169 93.0215 76.2357C91.6605 77.0092 88.8877 79.0224 88.8125 83.6941C88.7945 84.8021 89.555 86.3937 90.2415 84.5945C90.7291 83.3165 90.652 82.3588 91.0709 81.667C91.0709 81.667 92.2784 83.5766 93.3891 83.551C93.8855 83.5398 95.2397 83.4769 96.2871 83.2776C96.2871 83.2776 96.305 83.038 96.2844 82.7307C96.2844 82.7307 97.3196 82.609 98.3672 81.4194L97.5983 74.459Z" fill="#EB9481"/>
<path d="M91.8314 77.1836C91.5608 77.9581 91.0145 79.6092 91.0377 81.1152C91.0631 82.7881 91.5633 86.0036 92.7979 85.9719C93.7034 85.9488 93.6202 84.7042 93.6202 84.7042C93.6202 84.7042 94.1072 85.9897 94.9203 85.79C95.6613 85.6078 95.5395 84.649 95.5395 84.649C95.5395 84.649 95.969 85.3781 96.6489 85.0652C97.4669 84.689 96.4328 83.2227 96.9319 82.1257C97.0438 81.8795 91.8314 77.1836 91.8314 77.1836Z" fill="#EB9481"/>
<path d="M92.803 80.7938C92.6678 81.564 92.8098 83.3916 93.5918 84.6885C93.6096 84.7179 93.6413 84.7204 93.6307 84.6901C93.0728 83.0794 92.8659 81.4784 92.8187 80.7938C92.8183 80.7846 92.8046 80.7852 92.803 80.7938Z" fill="#263238"/>
<path d="M94.4935 80.8179C94.4452 81.4944 94.6757 83.3717 95.5133 84.6585C95.5319 84.6873 95.564 84.6875 95.5521 84.6576C94.8998 82.9989 94.5971 81.4974 94.5092 80.8166C94.5081 80.8076 94.494 80.8092 94.4935 80.8179Z" fill="#263238"/>
<path d="M100.808 67.8761L106.591 69.3846C106.591 69.3846 107.113 64.2635 106.68 61.6789C106.247 59.0943 105.397 58.5714 103.559 61.687C101.72 64.8025 100.808 67.8761 100.808 67.8761Z" fill="#FD7E50"/>
<path d="M100.411 68.4842L100.879 67.1426L106.898 68.9094L106.602 70.2921L100.411 68.4842Z" fill="#FD7E50"/>
<path opacity="0.1" d="M100.411 68.4842L100.879 67.1426L106.898 68.9094L106.602 70.2921L100.411 68.4842Z" fill="black"/>
<path d="M107.023 64.9059C107.025 64.883 106.993 64.8758 106.989 64.8991C106.864 65.5514 106.781 66.2124 106.733 66.8775C106.71 67.2027 106.691 67.528 106.679 67.8541C106.666 68.1829 106.676 68.5124 106.666 68.8413C106.665 68.859 106.695 68.8608 106.696 68.8431C106.715 68.5192 106.759 68.1982 106.787 67.8754C106.809 67.6221 106.832 67.3689 106.855 67.1156C106.975 66.7762 107.079 66.4159 107.094 66.0514C107.094 66.0404 107.08 66.0372 107.077 66.048C107.031 66.2333 106.998 66.4227 106.953 66.6084C106.927 66.7165 106.9 66.8238 106.871 66.931C106.873 66.9141 106.874 66.8973 106.876 66.8806C106.937 66.2237 106.988 65.5656 107.023 64.9059Z" fill="#263238"/>
<path d="M31.8384 121.761H55.5718C56.9365 121.761 58.043 120.654 58.043 119.29V114.682C58.043 113.317 56.9365 112.211 55.5718 112.211H31.8386C30.4738 112.211 29.3674 113.317 29.3674 114.682V119.29C29.3674 120.654 30.4736 121.761 31.8384 121.761Z" fill="#37474F"/>
<g opacity="0.2">
<path d="M55.3656 113.673L52.408 116.631C52.211 116.827 52.211 117.147 52.4077 117.344L55.3656 120.303C55.5624 120.5 55.8811 120.5 56.0783 120.304C56.2757 120.107 56.276 119.788 56.079 119.59L53.8342 117.346C53.6375 117.149 53.6373 116.83 53.834 116.633L56.079 114.386C56.276 114.189 56.2757 113.869 56.0783 113.673L56.0781 113.673C55.8811 113.476 55.5624 113.476 55.3656 113.673Z" fill="black"/>
<path d="M51.858 113.673L48.9001 116.631C48.7034 116.827 48.7032 117.147 48.9001 117.344L51.858 120.303C52.0548 120.5 52.3735 120.5 52.5705 120.304C52.7679 120.107 52.7682 119.788 52.5712 119.59L50.3264 117.346C50.1297 117.149 50.1294 116.83 50.3262 116.633L52.5712 114.386C52.7682 114.189 52.7679 113.869 52.5705 113.673L52.5703 113.673C52.3735 113.476 52.0548 113.476 51.858 113.673Z" fill="black"/>
<path d="M48.3459 113.673L45.3882 116.631C45.1914 116.827 45.1912 117.147 45.3882 117.344L48.3461 120.303C48.5429 120.5 48.8616 120.5 49.0588 120.304C49.2562 120.107 49.2564 119.788 49.0595 119.59L46.8147 117.346C46.6179 117.149 46.6177 116.83 46.8145 116.633L49.0595 114.386C49.2564 114.189 49.2562 113.869 49.0588 113.673L49.0586 113.673C48.8613 113.476 48.5426 113.476 48.3459 113.673Z" fill="black"/>
<path d="M44.8344 113.673L41.8767 116.631C41.68 116.827 41.6798 117.147 41.8765 117.344L44.8344 120.303C45.0312 120.5 45.3499 120.5 45.5471 120.304C45.7445 120.107 45.7447 119.788 45.5475 119.591L43.3028 117.346C43.106 117.149 43.1058 116.83 43.3026 116.633L45.5475 114.386C45.7445 114.189 45.7443 113.87 45.5469 113.673L45.5467 113.673C45.3499 113.476 45.0312 113.476 44.8344 113.673Z" fill="black"/>
<path d="M41.3268 113.673L38.3692 116.631C38.1722 116.827 38.1722 117.147 38.3689 117.344L41.3268 120.303C41.5236 120.5 41.8423 120.5 42.0393 120.304C42.2367 120.107 42.2369 119.788 42.0397 119.59L39.795 117.346C39.5982 117.149 39.598 116.83 39.7948 116.633L42.0397 114.386C42.2367 114.189 42.2365 113.869 42.0391 113.673L42.0388 113.673C41.8423 113.476 41.5234 113.476 41.3268 113.673Z" fill="black"/>
<path d="M37.8112 113.673L34.8533 116.631C34.6565 116.827 34.6563 117.147 34.8533 117.344L37.8112 120.303C38.0079 120.5 38.3266 120.5 38.5236 120.304C38.7211 120.107 38.7213 119.788 38.5243 119.59L36.2795 117.346C36.0828 117.149 36.0826 116.83 36.2793 116.633L38.5243 114.386C38.7213 114.189 38.7211 113.869 38.5236 113.673L38.5234 113.673C38.3266 113.476 38.0079 113.476 37.8112 113.673Z" fill="black"/>
<path d="M34.299 113.673L31.3413 116.631C31.1446 116.827 31.1444 117.147 31.3413 117.344L34.2992 120.303C34.496 120.5 34.8147 120.5 35.0119 120.304C35.2093 120.107 35.2096 119.788 35.0126 119.59L32.7678 117.346C32.5711 117.149 32.5708 116.83 32.7676 116.633L35.0126 114.386C35.2096 114.189 35.2093 113.869 35.0119 113.673L35.0117 113.673C34.8145 113.476 34.4955 113.476 34.299 113.673Z" fill="black"/>
</g>
<path opacity="0.2" d="M29.367 119.288C29.367 120.654 30.472 121.761 31.8377 121.761H55.5723C56.9356 121.761 58.043 120.654 58.043 119.288V114.682C58.043 113.567 57.3062 112.626 56.2933 112.316C56.6369 113.812 57.3579 118.601 52.9286 119.771C47.6637 121.166 31.676 122.006 29.367 119.288Z" fill="black"/>
<path d="M34.1982 131.306H57.9314C59.2961 131.306 60.4023 130.199 60.4023 128.835V124.227C60.4023 122.862 59.2961 121.756 57.9314 121.756H34.1982C32.8334 121.756 31.727 122.862 31.727 124.227V128.835C31.727 130.199 32.8334 131.306 34.1982 131.306Z" fill="#37474F"/>
<g opacity="0.2">
<path d="M57.7174 123.216L54.7595 126.174C54.5628 126.37 54.5625 126.69 54.7595 126.887L57.7174 129.846C57.9142 130.043 58.2329 130.043 58.4299 129.847C58.6273 129.65 58.6275 129.331 58.4306 129.133L56.1858 126.889C55.989 126.692 55.9888 126.373 56.1856 126.176L58.4306 123.929C58.6275 123.732 58.6273 123.412 58.4299 123.216L58.4297 123.215C58.2329 123.019 57.9142 123.019 57.7174 123.216Z" fill="black"/>
<path d="M54.2053 123.216L51.2476 126.174C51.0508 126.37 51.0506 126.69 51.2476 126.887L54.2055 129.846C54.4022 130.043 54.721 130.043 54.9182 129.847C55.1156 129.65 55.1158 129.331 54.9188 129.133L52.6741 126.889C52.4773 126.692 52.4771 126.373 52.6739 126.176L54.9188 123.929C55.1158 123.732 55.1156 123.412 54.9182 123.216L54.9179 123.215C54.721 123.019 54.402 123.019 54.2053 123.216Z" fill="black"/>
<path d="M50.6979 123.216L47.74 126.174C47.5432 126.37 47.543 126.69 47.74 126.887L50.6979 129.846C50.8944 130.043 51.2134 130.043 51.4104 129.847C51.6078 129.65 51.608 129.331 51.411 129.133L49.1663 126.889C48.9695 126.692 48.9693 126.373 49.166 126.176L51.411 123.929C51.608 123.732 51.6078 123.412 51.4104 123.216L51.4101 123.215C51.2134 123.019 50.8946 123.019 50.6979 123.216Z" fill="black"/>
<path d="M47.182 123.216L44.2244 126.174C44.0274 126.37 44.0274 126.69 44.2244 126.887L47.1823 129.846C47.379 130.043 47.6977 130.043 47.8947 129.847C48.0922 129.65 48.0924 129.331 47.8954 129.133L45.6506 126.889C45.4539 126.692 45.4537 126.373 45.6504 126.176L47.8954 123.929C48.0924 123.732 48.0922 123.412 47.8947 123.216L47.8945 123.215C47.6975 123.019 47.3786 123.019 47.182 123.216Z" fill="black"/>
<path d="M43.6744 123.216L40.7165 126.174C40.5198 126.37 40.5196 126.69 40.7165 126.887L43.6744 129.846C43.8712 130.043 44.1899 130.043 44.3869 129.847C44.5843 129.65 44.5846 129.331 44.3876 129.133L42.1428 126.889C41.9461 126.692 41.9458 126.373 42.1426 126.176L44.3876 123.929C44.5846 123.732 44.5843 123.412 44.3869 123.216L44.3867 123.215C44.1899 123.019 43.8712 123.019 43.6744 123.216Z" fill="black"/>
<path d="M40.1627 123.216L37.2048 126.174C37.0081 126.37 37.0079 126.69 37.2048 126.887L40.1627 129.846C40.3593 130.043 40.6782 130.043 40.8752 129.847C41.0726 129.65 41.0729 129.331 40.8759 129.133L38.6311 126.889C38.4343 126.692 38.4341 126.373 38.6309 126.176L40.8759 123.929C41.0729 123.732 41.0726 123.412 40.8752 123.216L40.875 123.215C40.6782 123.019 40.3593 123.019 40.1627 123.216Z" fill="black"/>
<path d="M36.6508 123.216L33.6929 126.174C33.4959 126.37 33.4959 126.69 33.6929 126.887L36.6508 129.846C36.8476 130.043 37.1663 130.043 37.3635 129.847C37.5609 129.65 37.5612 129.331 37.364 129.133L35.1192 126.889C34.9224 126.692 34.9222 126.373 35.119 126.176L37.364 123.929C37.5609 123.732 37.5607 123.412 37.3633 123.216L37.3631 123.215C37.1663 123.019 36.8476 123.019 36.6508 123.216Z" fill="black"/>
</g>
<path opacity="0.2" d="M31.7263 128.833C31.7263 130.199 32.8314 131.306 34.1971 131.306H57.9316C59.295 131.306 60.4023 130.199 60.4023 128.833V124.226C60.4023 123.112 59.6656 122.171 58.6526 121.861C58.9963 123.357 59.7173 128.146 55.288 129.316C50.0231 130.711 34.0353 131.551 31.7263 128.833Z" fill="black"/>
</g>
</g>
<defs>
<linearGradient id="paint0_linear_12836_95715" x1="135" y1="0" x2="135" y2="150" gradientUnits="userSpaceOnUse">
<stop stop-color="#FFFDF3"/>
<stop offset="1" stop-color="white" stop-opacity="0.4"/>
</linearGradient>
<clipPath id="clip0_12836_95715">
<rect width="270" height="150" fill="white" transform="translate(0 0.125)"/>
</clipPath>
<clipPath id="clip1_12836_95715">
<rect width="190.839" height="116" fill="white" transform="matrix(-1 0 0 1 190.5 28.125)"/>
</clipPath>
</defs>
</svg>
