<svg width="30" height="31" viewBox="0 0 30 31" fill="none" xmlns="http://www.w3.org/2000/svg">
<rect y="0.125" width="30" height="30" rx="6.25" fill="#EAF4EF"/>
<path d="M23.5469 8.73787C23.5352 8.71678 23.5188 8.69568 23.5 8.67928C23.3828 8.56209 23.193 8.56209 23.0758 8.67928L19.0375 12.7176L17.4461 11.1262L21.4868 7.08553C21.5055 7.06678 21.5196 7.04803 21.5336 7.02693C21.618 6.88396 21.5711 6.70115 21.4282 6.61678C19.1266 5.2574 16.1125 5.56912 14.1321 7.54725C12.5618 9.11756 12.0414 11.3441 12.5735 13.3457L7.1205 18.7987C7.05019 18.869 7.05488 18.9838 7.12753 19.0565L11.1049 23.0338C11.1775 23.1065 11.2947 23.1112 11.3627 23.0408L16.8133 17.5902C18.8172 18.1246 21.0438 17.6066 22.6164 16.034C24.5946 14.0535 24.9063 11.0394 23.5469 8.73787ZM21.4235 14.8387C20.0618 16.2004 18.018 16.4629 16.3938 15.6262L16.1875 15.8324L16.1852 15.8301L11.1775 20.8401L9.32128 18.9838L13.3 15.0051C13.3 15.0051 13.3 15.0074 13.3024 15.0074L14.5399 13.7699C13.7032 12.1457 13.9657 10.1019 15.3274 8.74021C15.7666 8.30064 16.2955 7.96105 16.8779 7.74464C17.4604 7.52824 18.0827 7.44012 18.7024 7.48631L15.5875 10.5988C15.4468 10.7397 15.3678 10.9306 15.3678 11.1297C15.3678 11.3287 15.4468 11.5197 15.5875 11.6605L18.5055 14.5785C18.6464 14.7192 18.8373 14.7982 19.0364 14.7982C19.2354 14.7982 19.4264 14.7192 19.5672 14.5785L22.6797 11.466C22.7664 12.6801 22.3422 13.9222 21.4235 14.8387Z" fill="#2F945A"/>
</svg>
