<svg width="200" height="200" viewBox="0 0 200 200" fill="none" xmlns="http://www.w3.org/2000/svg">
<path d="M20.6152 164.192L40.4632 164.092L60.3072 164.056L99.9992 163.992L139.691 164.056L159.535 164.092L179.383 164.192L159.535 164.288L139.691 164.324L99.9992 164.392L60.3072 164.324L40.4632 164.288L20.6152 164.192Z" fill="#263238"/>
<path d="M41.3175 185.856C51.0995 185.856 59.0295 184.334 59.0295 182.456C59.0295 180.578 51.0995 179.056 41.3175 179.056C31.5354 179.056 23.6055 180.578 23.6055 182.456C23.6055 184.334 31.5354 185.856 41.3175 185.856Z" fill="#EBEBEB"/>
<path d="M107.185 188.976C145.407 188.976 176.393 185.937 176.393 182.188C176.393 178.439 145.407 175.4 107.185 175.4C68.962 175.4 37.9766 178.439 37.9766 182.188C37.9766 185.937 68.962 188.976 107.185 188.976Z" fill="#EBEBEB"/>
<path d="M72.5527 125.804L73.6647 132.476L81.2007 173.156H82.4127L76.9367 132.476L76.1247 125.804H72.5527Z" fill="#2F945A"/>
<path d="M76.1247 125.804H72.5527L73.6647 132.476H76.9367L76.1247 125.804Z" fill="#A6A6A6"/>
<path d="M48.8984 173.156H50.1144L57.6464 132.476L58.7584 125.804H55.1864L54.3784 132.476L48.8984 173.156Z" fill="#2F945A"/>
<path d="M55.185 125.804L54.377 132.476H57.645L58.757 125.804H55.185Z" fill="#2B8752"/>
<path d="M26.3008 173.156H27.5168L35.0488 132.476L36.1608 125.804H32.5888L31.7808 132.476L26.3008 173.156Z" fill="#2F945A"/>
<path d="M31.7812 132.476H35.0493L36.1613 125.804H32.5893L31.7812 132.476Z" fill="#2B8752"/>
<path d="M28.2292 128.94H83.4292V123.124H62.7652L52.0052 62.8358H22.7012L28.2292 128.94Z" fill="#74B790"/>
<path d="M28.4658 123.124H83.4298V128.94H28.2578L28.4658 123.124Z" fill="#2F945A"/>
<path d="M28.2292 128.94H31.2372L25.5692 62.8358H22.7012L28.2292 128.94Z" fill="#2F945A"/>
<path d="M77.7696 182.908C76.6216 182.752 47.7016 168.324 46.9696 167.108C46.8776 166.968 48.1216 164.328 49.8936 160.736C53.8936 152.604 61.8936 138.856 61.8936 138.856L79.3016 148.64L69.7016 166.792C69.7016 166.792 72.9016 170.688 75.5296 173.992C77.1296 176.028 78.5176 177.836 78.7696 178.392C79.4496 179.804 78.9176 183.068 77.7696 182.908Z" fill="#EDBC9C"/>
<path d="M77.7696 182.908C76.6216 182.752 47.7016 168.324 46.9696 167.108C46.8776 166.968 48.1216 164.328 49.8936 160.736C56.3216 165.796 74.2576 177.608 75.5456 176.368C76.0576 175.872 75.9456 174.968 75.5456 174.004C77.1456 176.04 78.5336 177.848 78.7856 178.404C79.4496 179.804 78.9176 183.068 77.7696 182.908Z" fill="#143E26"/>
<path d="M73.1567 165.2L52.9847 154.556C52.9847 154.556 68.3727 124.396 67.9687 123.872C66.5567 122.052 49.5167 122.88 42.1567 115.564C34.3647 107.82 40.3167 96.7919 40.3167 96.7919H60.6767C60.6767 96.7919 60.4887 102.316 61.3647 103.04C61.9447 103.524 91.8807 106.408 93.0527 114.308C95.0807 127.968 73.1567 165.2 73.1567 165.2Z" fill="#1A5132"/>
<path d="M74.4005 161.424C71.9765 159.96 69.4885 158.624 66.9925 157.264C64.4965 155.904 61.9885 154.608 59.4525 153.352C58.0205 152.644 56.5605 152 55.1245 151.296C55.116 151.294 55.1071 151.295 55.0992 151.299C55.0914 151.302 55.0849 151.309 55.0808 151.316C55.0767 151.324 55.0753 151.333 55.0767 151.341C55.0781 151.35 55.0822 151.358 55.0885 151.364C56.3445 152.04 57.5645 152.78 58.8165 153.46C60.0685 154.14 61.2885 154.8 62.5325 155.46C65.0325 156.788 67.5525 158.084 70.0605 159.396C71.4765 160.136 72.9085 160.836 74.3485 161.52C74.3612 161.527 74.3762 161.528 74.39 161.524C74.4039 161.52 74.4156 161.511 74.4225 161.498C74.4294 161.485 74.4309 161.47 74.4268 161.456C74.4227 161.442 74.4132 161.431 74.4005 161.424Z" fill="#143E26"/>
<path d="M76.0019 120.508C75.5019 119.472 74.1699 119.308 73.1819 119.072C70.4753 118.395 67.7686 117.721 65.0619 117.052C60.2619 115.852 55.3179 114.74 51.0219 112.2C48.9699 111 46.9739 109.452 45.9499 107.236C44.9259 105.02 44.9259 102.66 44.9099 100.32C44.9099 99.7439 44.9419 99.1639 44.9779 98.5879C44.9779 98.5399 44.9019 98.5399 44.8979 98.5879C44.7499 100.892 44.4979 103.196 45.0299 105.476C45.2691 106.581 45.7069 107.635 46.3219 108.584C46.9659 109.522 47.7559 110.351 48.6619 111.04C52.4619 114.024 57.2299 115.44 61.8419 116.64C64.4459 117.308 67.0619 117.94 69.6739 118.58L73.7099 119.568C74.3068 119.647 74.8752 119.871 75.3659 120.22C75.5563 120.409 75.7004 120.639 75.7872 120.893C75.8739 121.147 75.9008 121.418 75.8659 121.684C75.8103 122.234 75.6756 122.773 75.4659 123.284C75.2259 123.916 74.9699 124.544 74.7139 125.172C74.2179 126.396 73.7086 127.615 73.1859 128.828C72.1193 131.276 71.0233 133.705 69.8979 136.116C67.6339 140.916 65.2139 145.656 62.7499 150.36C62.4419 150.944 62.142 151.536 61.8419 152.124C61.8419 152.16 61.8779 152.188 61.8979 152.156C64.5379 147.504 67.0059 142.748 69.3539 137.944C71.702 133.14 73.9059 128.344 75.7939 123.364C76.1059 122.484 76.4219 121.404 76.0019 120.508Z" fill="#143E26"/>
<path d="M135.741 184C134.637 184.364 102.321 184.02 101.129 183.248C100.989 183.164 100.977 176.236 100.977 176.236C95.6731 164.188 90.8691 152.536 90.8691 152.536L113.461 152.508L121.461 173.024C121.461 173.024 126.057 175.12 129.861 176.956C132.193 178.08 134.225 179.108 134.689 179.484C135.893 180.456 136.841 183.624 135.741 184Z" fill="#EDBC9C"/>
<path d="M135.74 184C134.636 184.364 102.32 184.02 101.128 183.248C100.988 183.164 100.952 180.244 100.976 176.236C108.976 177.98 130.264 180.768 130.88 179.088C131.124 178.424 130.616 177.664 129.852 176.964C132.184 178.088 134.216 179.116 134.68 179.492C135.892 180.456 136.84 183.624 135.74 184Z" fill="#143E26"/>
<path d="M119.789 168.672L95.3888 168.492C95.3888 168.492 83.1168 136.892 81.1408 134.772C80.1368 133.696 73.4208 132.504 65.4048 130.744H65.3608C62.3968 130.092 59.2568 129.364 56.1608 128.532C48.1128 126.384 40.3728 123.56 36.8448 119.66C29.4728 111.508 36.8448 96.7798 36.8448 96.7798H57.6208C57.6208 96.7798 58.1368 103.18 56.5448 107.116C56.5448 107.116 71.8288 109.36 84.7008 113.536C91.9928 115.904 98.5088 118.892 101.033 122.448C105.969 129.396 119.789 168.672 119.789 168.672Z" fill="#1A5132"/>
<path d="M117.036 165.012C114.208 164.804 111.38 164.732 108.548 164.664C105.716 164.596 102.88 164.564 100.048 164.596C98.4478 164.596 96.8478 164.704 95.2478 164.728C95.2418 164.726 95.2354 164.725 95.2292 164.726C95.2229 164.727 95.217 164.73 95.2119 164.733C95.2067 164.737 95.2026 164.742 95.1997 164.748C95.1968 164.753 95.1953 164.76 95.1953 164.766C95.1953 164.772 95.1968 164.778 95.1997 164.784C95.2026 164.79 95.2067 164.795 95.2119 164.798C95.217 164.802 95.2229 164.804 95.2292 164.805C95.2354 164.806 95.2418 164.806 95.2478 164.804C96.6718 164.836 98.0958 164.944 99.5238 164.98C100.952 165.016 102.324 165.052 103.736 165.076C106.568 165.124 109.4 165.136 112.232 165.168C113.832 165.188 115.432 165.168 117.032 165.116C117.039 165.116 117.045 165.115 117.052 165.113C117.058 165.11 117.064 165.107 117.069 165.102C117.074 165.097 117.078 165.092 117.081 165.086C117.084 165.079 117.086 165.073 117.086 165.066C117.086 165.059 117.085 165.052 117.083 165.046C117.08 165.039 117.077 165.034 117.072 165.029C117.067 165.023 117.062 165.019 117.056 165.017C117.049 165.014 117.043 165.012 117.036 165.012Z" fill="#143E26"/>
<path d="M47.4328 99.8038C47.4042 99.8997 47.3653 99.9923 47.3168 100.08C47.3109 100.086 47.3077 100.095 47.3077 100.104C47.3077 100.113 47.3109 100.121 47.3168 100.128C47.0408 100.98 46.9168 101.884 46.6648 102.736C46.4173 103.647 45.86 104.443 45.0888 104.988C43.4888 106.108 41.5368 106.616 39.6648 107.08C39.6048 107.08 39.6248 107.18 39.6648 107.184C40.7507 107.189 41.8306 107.023 42.8648 106.692C43.8475 106.43 44.7745 105.993 45.6008 105.4C46.3661 104.822 46.912 104.001 47.1488 103.072C47.264 102.577 47.3534 102.076 47.4168 101.572C47.5235 100.993 47.5864 100.408 47.6048 99.8198C47.6069 99.797 47.5999 99.7743 47.5853 99.7567C47.5707 99.7391 47.5496 99.728 47.5268 99.7258C47.504 99.7237 47.4813 99.7307 47.4637 99.7454C47.446 99.76 47.4349 99.781 47.4328 99.8038Z" fill="#143E26"/>
<path d="M60.3533 105.684C59.0701 106.052 57.8203 106.529 56.6173 107.108L56.5573 107.136C56.5858 107.063 56.6047 106.986 56.6133 106.908C56.6133 106.82 56.6453 106.728 56.6573 106.64C56.6693 106.552 56.6813 106.452 56.6893 106.356V106.212C56.8432 106.205 56.9939 106.165 57.1317 106.097C57.2694 106.028 57.3913 105.931 57.4893 105.812C57.7405 105.463 57.9112 105.063 57.9893 104.64C58.1293 104.108 58.2613 103.572 58.3893 103.04C58.5173 102.508 58.6253 101.84 58.7213 101.236C58.8353 100.646 58.9035 100.048 58.9253 99.4479C58.9212 99.4292 58.9108 99.4125 58.8959 99.4006C58.881 99.3886 58.8624 99.3821 58.8433 99.3821C58.8242 99.3821 58.8057 99.3886 58.7908 99.4006C58.7759 99.4125 58.7655 99.4292 58.7613 99.4479C58.6213 99.9959 58.5573 100.568 58.4533 101.124C58.3493 101.68 58.2293 102.24 58.1013 102.796C57.9733 103.352 57.8333 103.904 57.7013 104.452C57.5693 105 57.4293 105.652 56.8613 105.808C55.6973 106.14 56.2213 103.524 56.2733 103.008C56.3893 101.808 56.4653 100.608 56.6733 99.4399C56.674 99.4306 56.6714 99.4213 56.6659 99.4138C56.6605 99.4062 56.6526 99.4008 56.6436 99.3984C56.6346 99.396 56.6251 99.3969 56.6166 99.4008C56.6082 99.4047 56.6013 99.4115 56.5973 99.4199C56.3453 100.5 56.0573 101.56 55.8653 102.656C55.7693 103.188 55.7013 103.732 55.6453 104.256C55.5469 104.72 55.583 105.203 55.7493 105.648C55.8216 105.799 55.9298 105.929 56.0645 106.028C56.1991 106.127 56.356 106.192 56.5213 106.216L56.4853 106.34C56.4573 106.424 56.4293 106.512 56.4093 106.6C56.3893 106.688 56.3653 106.776 56.3453 106.864C56.3056 106.967 56.2932 107.079 56.3093 107.188C56.3197 107.216 56.3394 107.24 56.3653 107.256C55.8653 107.472 55.3693 107.688 54.8773 107.916C54.2586 108.16 53.6595 108.452 53.0853 108.788C53.0173 108.82 53.0853 108.912 53.1333 108.9C53.7763 108.721 54.4048 108.494 55.0133 108.22C55.6373 107.98 56.2533 107.728 56.8693 107.472C58.0974 107.02 59.2855 106.466 60.4213 105.816C60.43 105.811 60.4377 105.805 60.444 105.798C60.4503 105.79 60.4551 105.782 60.458 105.772C60.461 105.763 60.4621 105.753 60.4613 105.744C60.4605 105.734 60.4578 105.725 60.4533 105.716C60.4489 105.707 60.4427 105.699 60.4353 105.693C60.4279 105.687 60.4192 105.682 60.41 105.679C60.4007 105.676 60.3909 105.675 60.3812 105.676C60.3715 105.677 60.362 105.679 60.3533 105.684Z" fill="#143E26"/>
<path d="M93.559 153.2C92.271 150.016 90.9096 146.864 89.475 143.744C88.0403 140.624 86.523 137.54 84.923 134.492C84.231 133.164 83.603 131.82 82.211 131.108C81.5715 130.8 80.901 130.562 80.211 130.396C79.411 130.18 78.611 129.972 77.779 129.764C71.163 128.096 64.475 126.716 57.903 124.872C54.615 123.952 51.359 122.912 48.179 121.672C45.599 120.664 43.023 119.492 40.875 117.708C39.8377 116.87 38.9515 115.861 38.255 114.724C37.455 113.36 35.539 109.652 38.359 98.4198C38.359 98.3718 38.303 98.3318 38.287 98.3798C36.039 106.38 36.515 110.74 36.927 112.328C37.2777 113.683 37.9056 114.951 38.771 116.052C40.435 118.176 42.771 119.652 45.171 120.8C48.0564 122.121 51.0319 123.236 54.075 124.136C60.627 126.188 67.347 127.628 74.019 129.208C75.675 129.608 77.327 130.008 78.975 130.408C80.447 130.784 82.175 131.084 83.223 132.28C83.7157 132.905 84.1295 133.589 84.455 134.316C84.8523 135.081 85.2443 135.846 85.631 136.612C86.431 138.188 87.2096 139.769 87.967 141.356C90.967 147.628 93.6976 154.02 96.159 160.532C96.463 161.332 96.763 162.132 97.071 162.932C97.095 162.992 97.191 162.964 97.171 162.9C96.115 159.648 94.851 156.4 93.559 153.2Z" fill="#143E26"/>
<path d="M84.6284 141.556C84.1888 140.051 83.5992 138.595 82.8684 137.208C82.2204 135.932 81.4924 134.408 80.0684 133.868C79.3093 133.612 78.536 133.399 77.7524 133.232C76.9364 133.024 76.1178 132.823 75.2964 132.628C73.6538 132.241 72.0058 131.873 70.3524 131.524C68.5124 131.124 66.6564 130.776 64.7884 130.576C64.7444 130.576 64.7404 130.64 64.7884 130.652C66.3684 131.112 67.9884 131.452 69.5884 131.852C71.1884 132.252 72.7124 132.592 74.2724 132.972C75.8324 133.352 77.4724 133.772 79.0724 134.172C79.7755 134.323 80.4233 134.664 80.9444 135.16C81.6604 135.864 84.1204 141.04 84.5164 141.812C84.6164 142.048 84.6924 141.788 84.6284 141.556Z" fill="#143E26"/>
<path d="M93.1262 116.568C91.2334 115.496 89.2514 114.59 87.2022 113.86C84.8702 113.06 82.4862 112.4 80.1102 111.752C75.2169 110.419 70.2716 109.305 65.2742 108.412C63.8529 108.145 62.4289 107.904 61.0022 107.688C59.6129 107.438 58.2107 107.266 56.8022 107.172C56.7502 107.172 56.7462 107.244 56.8022 107.256C58.0342 107.56 59.3062 107.752 60.5582 107.964C61.8102 108.176 63.0342 108.4 64.2702 108.636C66.7369 109.108 69.1969 109.623 71.6502 110.18C76.5062 111.284 81.3662 112.488 86.1102 113.988C88.4707 114.77 90.7827 115.692 93.0342 116.748C93.0569 116.753 93.0808 116.751 93.102 116.741C93.1231 116.731 93.1404 116.715 93.151 116.694C93.1616 116.673 93.165 116.65 93.1605 116.627C93.156 116.604 93.1439 116.583 93.1262 116.568Z" fill="#143E26"/>
<path d="M65.3653 83.4119C65.0973 83.4119 63.8573 83.3479 62.0373 83.2799C61.1766 81.3426 60.9403 79.1855 61.3613 77.1079C61.4493 76.6319 60.1373 79.3199 60.3453 83.2159C56.8293 83.0799 52.0493 82.8879 47.8773 82.6839C47.8773 81.0519 47.8453 79.5359 47.8453 79.5359C47.646 80.5958 47.3528 81.6359 46.9693 82.6439C46.3973 82.6199 45.8373 82.5839 45.3013 82.5599C45.47 80.2466 45.5127 77.9258 45.4293 75.6079C44.9723 77.9957 44.1278 80.2927 42.9293 82.4079C40.2813 82.2519 38.5293 82.0999 38.6613 81.9799C42.9573 77.6399 40.1893 74.8119 41.5853 70.8359C43.2573 66.0759 47.4853 65.5719 47.5853 61.9239C47.6813 58.9559 47.6493 53.5559 51.4653 52.6439C52.5403 51.7175 53.8643 51.1283 55.2721 50.9498C56.6799 50.7712 58.1091 51.0112 59.3813 51.6399C65.1533 54.2799 62.2373 63.2639 62.5213 65.1479C62.9213 67.8399 64.1213 68.8519 64.8853 71.9479C65.6493 75.0439 64.1293 77.0159 63.8413 79.0839C63.5533 81.1519 66.0293 83.4479 65.3653 83.4119Z" fill="#143E26"/>
<path d="M38.5859 81.3359C39.1841 80.5707 39.6716 79.725 40.0339 78.8239C40.3939 77.9399 40.3219 77.0079 40.1979 76.0439C40.0739 75.0799 39.9219 74.0999 39.8939 73.0839C39.853 72.0521 40.0189 71.0225 40.3819 70.0559C40.7666 69.0892 41.3689 68.2242 42.1419 67.5279C42.8899 66.8651 43.6928 66.2669 44.5419 65.7399C45.36 65.2351 46.1078 64.6245 46.7659 63.9239C47.4043 63.1924 47.8304 62.3002 47.9979 61.3439C47.9726 62.3516 47.6421 63.328 47.0499 64.1439C46.4352 64.9382 45.7044 65.6353 44.8819 66.2119C44.0971 66.7743 43.3489 67.3862 42.6419 68.0439C41.9721 68.6886 41.4495 69.4704 41.1099 70.3359C40.7923 71.2137 40.639 72.1425 40.6579 73.0759C40.6579 74.0279 40.7699 74.9919 40.8339 75.9839C40.8719 76.4885 40.8719 76.9953 40.8339 77.4999C40.7799 78.0159 40.635 78.5183 40.4059 78.9839C39.9427 79.8691 39.3265 80.6653 38.5859 81.3359Z" fill="#143E26"/>
<path d="M62.5179 55.2678C62.8562 56.4399 63.0509 57.6488 63.0979 58.8678C63.1739 60.0678 63.1859 61.2918 63.1899 62.4998V64.2998C63.1892 64.8811 63.2441 65.461 63.3539 66.0318C63.6298 67.1632 64.1111 68.2343 64.7739 69.1918C65.0987 69.7203 65.3887 70.2695 65.6419 70.8358C65.8893 71.418 66.0717 72.0257 66.1859 72.6478C66.2817 73.2645 66.3298 73.8877 66.3299 74.5118C66.3325 75.1398 66.2586 75.7657 66.1099 76.3758C65.9619 76.9838 65.7539 77.5758 65.5699 78.1198C65.3822 78.6791 65.2482 79.2551 65.1699 79.8398C65.1146 80.4279 65.2004 81.0206 65.4203 81.5688C65.6401 82.1171 65.9876 82.6049 66.4339 82.9918C65.9194 82.6394 65.5006 82.1647 65.2151 81.6103C64.9295 81.0559 64.7861 80.4393 64.7979 79.8158C64.8238 79.1973 64.915 78.5832 65.0699 77.9838C65.2099 77.3878 65.3979 76.8158 65.5019 76.2478C65.6913 75.0978 65.6723 73.9231 65.4459 72.7798C65.3266 72.2188 65.1524 71.6708 64.9259 71.1438C64.6804 70.6098 64.3998 70.0927 64.0859 69.5958C63.7635 69.0776 63.4671 68.5436 63.1979 67.9958C62.9251 67.4223 62.7275 66.8159 62.6099 66.1918C62.5089 65.5746 62.4687 64.9489 62.4899 64.3238C62.4899 63.7118 62.5219 63.1238 62.5499 62.5078C62.5979 61.3078 62.6659 60.1078 62.6859 58.9078C62.7549 57.6919 62.6986 56.4722 62.5179 55.2678Z" fill="#143E26"/>
<path d="M52.8497 74.272C57.0337 83.9999 62.0977 90.968 65.4817 91.2C71.5057 91.636 86.6057 80.836 86.9737 80.288C88.3777 78.184 80.8497 70.688 78.9737 70.228C78.5737 70.132 66.9737 80.036 66.0217 79.652C65.2217 79.328 63.4977 77.804 58.5017 72.792C55.0457 69.344 50.1737 68.056 52.8497 74.272Z" fill="#EDBC9C"/>
<path d="M82.9517 65.7478C84.7757 64.8718 86.7957 63.7198 88.9117 63.5318C91.0277 63.3438 93.0717 65.9318 93.1597 66.7318C93.2477 67.5318 92.9837 72.5838 90.8757 72.8118C88.7677 73.0398 89.6317 69.0838 89.5037 68.6558C89.3757 68.2278 89.2357 67.6758 88.8437 67.7598C88.4517 67.8438 81.8477 71.8958 81.8477 71.8958L82.9517 65.7478Z" fill="#EDBC9C"/>
<path d="M83.1172 66.0239C83.2372 66.0239 88.6452 63.1719 90.7572 62.9839C92.8692 62.7959 94.9212 65.3839 95.0052 66.1839C95.0892 66.9839 94.8332 72.0359 92.7252 72.2639C90.6172 72.4919 91.4772 68.5359 91.3492 68.1079C91.2212 67.6799 91.0852 67.1279 90.6892 67.2119C90.2932 67.2959 83.6932 71.3479 83.6932 71.3479L83.1172 66.0239Z" fill="#EDBC9C"/>
<path d="M92.0007 72.0798C91.7377 71.7284 91.5696 71.3151 91.5127 70.8798C91.4221 70.4338 91.3992 69.9767 91.4447 69.5238C91.5211 69.1281 91.5653 68.7267 91.5767 68.3238C91.5366 67.9358 91.399 67.5643 91.1767 67.2438C90.9847 66.9638 90.6847 67.0998 90.4287 67.2238C90.0524 67.4154 89.6877 67.6291 89.3367 67.8638C88.9567 68.1078 88.5807 68.3598 88.2047 68.6078C87.8041 68.8497 87.4193 69.1169 87.0527 69.4078C87.0287 69.4318 87.0527 69.4798 87.0847 69.4638C87.4341 69.2839 87.7732 69.085 88.1007 68.8678C88.5007 68.6358 88.8647 68.4078 89.2487 68.1838C89.6327 67.9598 89.9567 67.7478 90.3207 67.5438C90.4487 67.4758 90.7007 67.2998 90.8567 67.3198C91.0127 67.3398 91.1447 67.7198 91.1927 67.8478C91.322 68.2172 91.3401 68.6163 91.2447 68.9958C91.1715 69.3915 91.1394 69.7936 91.1487 70.1958C91.1515 70.5681 91.222 70.9368 91.3567 71.2838C91.5206 71.5916 91.7221 71.8778 91.9567 72.1358C91.9487 72.1638 92.0007 72.1118 92.0007 72.0798Z" fill="#143E26"/>
<path d="M77.0293 72.2759C77.0293 72.2759 82.2973 66.3239 83.3973 65.1319C85.6093 62.7319 95.4293 57.4439 96.8453 57.1319C98.2613 56.8199 99.0933 59.7079 92.4453 63.5079C88.9453 65.5079 88.5173 67.6878 88.7133 68.8478C88.9093 70.0078 90.2573 72.0479 92.2133 71.7959C94.1693 71.5439 95.1333 68.5318 96.9013 68.0158C98.6693 67.4998 97.8373 70.9359 96.7693 72.9839C95.637 74.9741 93.9608 76.6003 91.9373 77.6718C90.3093 78.4918 85.3013 81.3239 85.3013 81.3239L77.0293 72.2759Z" fill="#EDBC9C"/>
<path d="M94.5043 70.1558C93.8243 70.8078 93.0683 71.6398 92.1043 71.7838C91.1403 71.9278 90.3803 71.3478 89.8243 70.5838C89.2256 69.8329 88.9392 68.8804 89.0243 67.9238C89.161 67.0524 89.5456 66.2387 90.1323 65.5798C90.8497 64.7772 91.6813 64.0845 92.6003 63.5238C92.6403 63.4958 92.6003 63.4398 92.5523 63.4638C91.6923 63.9638 89.0083 65.4158 88.7163 67.9598C88.6415 68.9359 88.9435 69.9036 89.5603 70.6638C90.0803 71.3998 90.7923 72.0838 91.7523 72.0558C92.9243 72.0278 93.8203 70.9758 94.5763 70.1838C94.5963 70.1438 94.5363 70.1238 94.5043 70.1558Z" fill="#143E26"/>
<path d="M100.117 56.0359C100.526 55.6514 100.985 55.3231 101.481 55.0599C101.968 54.7829 102.49 54.573 103.033 54.4359C102.205 55.1969 101.204 55.7459 100.117 56.0359Z" fill="#143E26"/>
<path d="M97.7051 54.0958C97.722 53.5355 97.8135 52.98 97.9771 52.4438C98.1249 51.9044 98.3456 51.3876 98.6331 50.9078C98.6184 51.467 98.5269 52.0216 98.3611 52.5558C98.2123 53.0962 97.9917 53.6142 97.7051 54.0958Z" fill="#143E26"/>
<path d="M94.6254 54.4318C93.8672 53.6028 93.3186 52.6043 93.0254 51.5198C93.4096 51.9269 93.7366 52.3845 93.9974 52.8798C94.2751 53.3667 94.4864 53.8887 94.6254 54.4318Z" fill="#143E26"/>
<path d="M92.6841 56.8479C92.1251 56.8309 91.5709 56.7394 91.0361 56.5759C90.495 56.4274 89.9768 56.2054 89.4961 55.9159C90.622 55.9659 91.7194 56.2856 92.6961 56.8479H92.6841Z" fill="#143E26"/>
<path d="M98.5156 61.5278C98.8989 61.9357 99.2258 62.3931 99.4876 62.8878C99.7656 63.3742 99.9756 63.8964 100.112 64.4398C99.7275 64.0327 99.4005 63.5751 99.1396 63.0798C98.8633 62.5927 98.6534 62.0707 98.5156 61.5278Z" fill="#143E26"/>
<path d="M100.457 59.1118C101.583 59.1634 102.68 59.4829 103.657 60.0438C103.097 60.0269 102.541 59.9354 102.005 59.7718C101.462 59.6226 100.941 59.4006 100.457 59.1118Z" fill="#143E26"/>
<path d="M51.6604 72.3758C52.2964 75.1158 54.9124 80.2518 54.9124 80.2518L65.2004 78.0958C65.2004 78.0958 58.9404 71.4598 54.4764 69.2318C52.6884 68.3358 51.0164 69.5998 51.6604 72.3758Z" fill="#2F945A"/>
<path d="M51.6604 72.3758C52.2964 75.1158 54.9124 80.2518 54.9124 80.2518L65.2004 78.0958C65.2004 78.0958 58.9404 71.4598 54.4764 69.2318C52.6884 68.3358 51.0164 69.5998 51.6604 72.3758Z" fill="#2F945A"/>
<path d="M54.6892 78.8479C56.1972 78.4279 57.7052 78.028 59.2372 77.696C60.0012 77.528 60.7652 77.376 61.5332 77.232C62.3012 77.088 63.0812 77.0279 63.8452 76.8719C63.8892 76.8719 63.8972 76.932 63.8452 76.94C63.0732 77.052 62.3132 77.272 61.5492 77.424C60.7852 77.576 60.0212 77.7399 59.2572 77.9039C57.7332 78.2279 56.2052 78.552 54.6892 78.912C54.6572 78.924 54.6492 78.8599 54.6892 78.8479Z" fill="#143E26"/>
<path d="M58.265 73.0359C58.3786 72.7652 58.5279 72.511 58.709 72.2799C58.6637 72.5709 58.5803 72.8546 58.461 73.1239C58.3423 73.3954 58.1876 73.6497 58.001 73.8799C58.0516 73.5882 58.1404 73.3044 58.265 73.0359ZM54.061 72.2359C53.8293 72.0527 53.5736 71.9019 53.301 71.7879C53.032 71.6681 52.7481 71.5847 52.457 71.5399C52.6901 71.7202 52.9455 71.8695 53.217 71.9839C53.4865 72.1009 53.7703 72.1816 54.061 72.2239V72.2359ZM55.025 77.4759C55.3177 77.4392 55.6042 77.3639 55.877 77.2519C56.1529 77.1549 56.414 77.0203 56.653 76.8519C56.3601 76.8869 56.0733 76.9623 55.801 77.0759C55.5266 77.1709 55.2657 77.3013 55.025 77.4639V77.4759ZM60.021 78.3599C60.0539 78.6339 60.1211 78.9027 60.221 79.1599L60.429 79.1159C60.3306 78.8417 60.1932 78.583 60.021 78.3479V78.3599Z" fill="white"/>
<path d="M63.2937 78.4959L54.9137 80.2519C54.9137 80.2519 52.2977 75.1159 51.6617 72.3759C51.2937 70.7959 51.6617 69.7079 52.4097 69.2279L63.2937 78.4959Z" fill="#143E26"/>
<path d="M62.4657 99.2638C62.4657 99.2638 52.6937 101.6 34.1777 99.9998C34.1777 99.9998 41.4177 76.8918 47.2497 70.6598C49.9017 67.8238 52.4977 68.2598 54.6937 70.0798C55.2417 70.5358 62.0417 79.1678 62.6177 82.1758C63.1257 84.8318 60.9657 87.7758 60.9657 87.7758L62.4657 99.2638Z" fill="#2F945A"/>
<path d="M43.7217 89.2599C43.8358 88.9874 43.9865 88.7317 44.1697 88.4999C44.1235 88.7912 44.0388 89.075 43.9177 89.3439C43.8033 89.6154 43.654 89.8709 43.4737 90.1039C43.5186 89.8128 43.602 89.529 43.7217 89.2599ZM51.4417 80.1959C51.6233 79.963 51.7739 79.7076 51.8897 79.4359C52.0095 79.1668 52.0929 78.883 52.1377 78.5919C51.7815 79.0621 51.5429 79.6107 51.4417 80.1919V80.1959ZM37.1777 99.0679C37.358 98.8349 37.5073 98.5794 37.6217 98.3079C37.7428 98.039 37.8275 97.7552 37.8737 97.4639C37.69 97.6939 37.5392 97.9483 37.4257 98.2199C37.306 98.4904 37.2226 98.7755 37.1777 99.0679ZM54.8817 92.4519C55.0633 92.219 55.2139 91.9636 55.3297 91.6919C55.4495 91.4228 55.5329 91.139 55.5777 90.8479C55.2215 91.3181 54.9829 91.8667 54.8817 92.4479V92.4519ZM49.0977 70.7999C49.2803 70.5699 49.4297 70.3154 49.5417 70.0439C49.6646 69.7743 49.7494 69.4889 49.7937 69.1959C49.612 69.428 49.4626 69.6836 49.3497 69.9559C49.2292 70.225 49.1445 70.5088 49.0977 70.7999ZM50.5737 88.7999C50.3419 88.6179 50.0862 88.4685 49.8137 88.3559C49.5453 88.2344 49.2612 88.1509 48.9697 88.1079C49.2028 88.2882 49.4582 88.4375 49.7297 88.5519C49.9988 88.6717 50.2826 88.7551 50.5737 88.7999ZM59.8777 84.1479C59.6467 83.9668 59.3924 83.8175 59.1217 83.7039C58.8526 83.5834 58.5689 83.4987 58.2777 83.4519C58.5077 83.6357 58.7621 83.7865 59.0337 83.8999C59.3036 84.0151 59.5873 84.0944 59.8777 84.1359V84.1479ZM54.0617 72.2359C53.83 72.0527 53.5743 71.9019 53.3017 71.7879C53.0327 71.6681 52.7488 71.5847 52.4577 71.5399C52.6908 71.7202 52.9462 71.8695 53.2177 71.9839C53.4872 72.1009 53.771 72.1816 54.0617 72.2239V72.2359ZM54.5057 98.2359C54.2739 98.0539 54.0182 97.9045 53.7457 97.7919C53.4775 97.6698 53.1934 97.5863 52.9017 97.5439C53.1348 97.7242 53.3902 97.8735 53.6617 97.9879C53.9308 98.1077 54.2146 98.1911 54.5057 98.2359ZM44.4017 78.0919C43.9315 77.7357 43.3829 77.4971 42.8017 77.3959C43.0337 77.5789 43.2893 77.7296 43.5617 77.8439C43.8295 77.9634 44.112 78.0468 44.4017 78.0919ZM42.7617 95.7519C42.53 95.5687 42.2743 95.4179 42.0017 95.3039C41.7327 95.1841 41.4488 95.1007 41.1577 95.0559C41.3908 95.2362 41.6462 95.3855 41.9177 95.4999C42.1803 95.6193 42.4573 95.704 42.7417 95.7519H42.7617ZM47.3417 93.5679C47.6342 93.5325 47.9207 93.4585 48.1937 93.3479C48.4708 93.2432 48.7319 93.1005 48.9697 92.9239C48.3833 93.0051 47.825 93.226 47.3417 93.5679ZM59.0537 89.5999C59.3465 89.5662 59.6332 89.4921 59.9057 89.3799C60.1809 89.2813 60.4418 89.1468 60.6817 88.9799C60.389 89.0137 60.1023 89.0877 59.8297 89.1999C59.5546 89.2985 59.2937 89.433 59.0537 89.5999ZM46.1137 82.8559C46.4061 82.82 46.6925 82.7461 46.9657 82.6359C47.2411 82.5303 47.5009 82.3877 47.7377 82.2119C47.1523 82.2922 46.5951 82.5132 46.1137 82.8559ZM55.0257 77.4759C55.3184 77.4392 55.6049 77.3639 55.8777 77.2519C56.1536 77.1549 56.4147 77.0203 56.6537 76.8519C56.3608 76.887 56.074 76.9623 55.8017 77.0759C55.5273 77.1709 55.2664 77.3013 55.0257 77.4639V77.4759ZM37.5177 91.5999C37.8103 91.5627 38.0967 91.4874 38.3697 91.3759C38.6439 91.278 38.9036 91.1435 39.1417 90.9759C38.5581 91.0502 38.001 91.2643 37.5177 91.5999ZM40.7177 83.2599C40.7515 83.5527 40.8255 83.8394 40.9377 84.1119C41.0372 84.3854 41.1717 84.6449 41.3377 84.8839C41.304 84.5911 41.23 84.3044 41.1177 84.0319C41.0151 83.755 40.8766 83.4928 40.7057 83.2519L40.7177 83.2599ZM53.8537 84.4599C53.9311 85.0467 54.1508 85.6056 54.4937 86.0879C54.46 85.7951 54.3859 85.5084 54.2737 85.2359C54.1648 84.9605 54.0195 84.7008 53.8417 84.4639L53.8537 84.4599ZM58.8017 95.8599C58.8829 96.4463 59.1038 97.0047 59.4457 97.4879C59.4107 97.195 59.3353 96.9082 59.2217 96.6359C59.1176 96.3594 58.9763 96.0983 58.8017 95.8599ZM46.1337 97.7119C46.171 98.0045 46.2463 98.2909 46.3577 98.5639C46.4619 98.8392 46.6032 99.0989 46.7777 99.3359C46.7405 99.0434 46.6652 98.7569 46.5537 98.4839C46.4446 98.2078 46.2979 97.948 46.1177 97.7119H46.1337ZM47.4417 73.8599C47.479 74.1525 47.5543 74.4389 47.6657 74.7119C47.7636 74.9861 47.8982 75.2458 48.0657 75.4839C48.0285 75.1914 47.9532 74.9049 47.8417 74.6319C47.7388 74.3569 47.5989 74.0971 47.4257 73.8599H47.4417ZM60.0377 78.3479C60.075 78.6405 60.1503 78.9269 60.2617 79.1999C60.3596 79.4741 60.4942 79.7338 60.6617 79.9719C60.5815 79.3865 60.3605 78.8293 60.0177 78.3479H60.0377Z" fill="white"/>
<path d="M50.4316 69.4999C50.4556 70.0119 52.2076 73.6279 54.4676 73.9359C55.2036 74.0359 55.9236 70.0399 55.9236 70.0399L56.0436 69.7599L57.7316 65.7999L53.4556 61.7999L52.8316 61.2599C52.8316 61.2599 52.4316 62.3719 51.9716 63.7639C51.9476 63.8279 51.9276 63.8919 51.9036 63.9599C51.8796 64.0279 51.8476 64.1119 51.8236 64.1879C51.7516 64.3919 51.6756 64.5879 51.6076 64.8159C51.5396 65.0439 51.4996 65.1359 51.4516 65.3079C51.4036 65.4799 51.3476 65.6439 51.2956 65.8159C50.9233 67.0226 50.6346 68.2535 50.4316 69.4999Z" fill="#EDBC9C"/>
<path d="M51.9727 63.7559C52.1764 64.9912 52.646 66.1675 53.3491 67.2035C54.0522 68.2395 54.9719 69.1103 56.0447 69.7559L57.7327 65.7959L53.4567 61.7959L52.8327 61.2559C52.8327 61.2559 52.4447 62.3639 51.9727 63.7559Z" fill="#143E26"/>
<path d="M63.9717 58.9879C64.9557 66.4719 60.5837 67.9079 58.9717 68.1199C57.5037 68.3119 52.4877 68.7759 50.7357 61.4319C48.9837 54.0879 52.1477 51.2639 55.4797 50.6319C58.8117 49.9999 62.9837 51.4999 63.9717 58.9879Z" fill="#EDBC9C"/>
<path d="M61.1015 63.2718C60.9516 63.5638 60.73 63.813 60.4575 63.9958C60.3033 64.088 60.1247 64.1312 59.9455 64.1198C59.5455 64.0918 59.4855 63.7518 59.4975 63.4478C59.5073 63.2865 59.5355 63.1268 59.5815 62.9718C60.043 63.2318 60.5758 63.337 61.1015 63.2718Z" fill="#143E26"/>
<path d="M60.4575 64C60.3033 64.0921 60.1247 64.1354 59.9455 64.124C59.5455 64.096 59.4855 63.756 59.4975 63.452C59.6958 63.4221 59.8984 63.4599 60.0726 63.5593C60.2468 63.6588 60.3824 63.814 60.4575 64Z" fill="#FF99BA"/>
<path d="M62.744 57.8319C62.564 57.8319 62.4 57.7999 62.224 57.7839C62.0384 57.7897 61.8558 57.7349 61.704 57.6279C61.6632 57.5852 61.6379 57.5301 61.6321 57.4714C61.6263 57.4127 61.6404 57.3537 61.672 57.3039C61.7477 57.2121 61.8467 57.1424 61.9586 57.1023C62.0706 57.0622 62.1913 57.053 62.308 57.0759C62.5503 57.0866 62.7804 57.1846 62.956 57.3519C62.9929 57.3931 63.0172 57.4442 63.0258 57.4989C63.0345 57.5536 63.0272 57.6096 63.0048 57.6602C62.9825 57.7109 62.946 57.754 62.8997 57.7845C62.8534 57.8149 62.7994 57.8314 62.744 57.8319Z" fill="#143E26"/>
<path d="M57.6015 58.3999C57.7699 58.3549 57.9355 58.3001 58.0975 58.2359C58.2788 58.2026 58.4445 58.1114 58.5695 57.9759C58.6003 57.9248 58.6134 57.8651 58.6069 57.8058C58.6004 57.7466 58.5746 57.6911 58.5335 57.6479C58.4394 57.5763 58.3278 57.5311 58.2104 57.517C58.093 57.503 57.9739 57.5205 57.8655 57.5679C57.6309 57.6236 57.4264 57.7667 57.2935 57.9679C57.2617 58.0158 57.2452 58.0722 57.2461 58.1297C57.2471 58.1872 57.2655 58.2431 57.2988 58.2899C57.3322 58.3367 57.379 58.3723 57.4331 58.392C57.4871 58.4116 57.5459 58.4144 57.6015 58.3999Z" fill="#143E26"/>
<path d="M58.9894 60.0918C58.9894 60.0918 58.9494 60.1198 58.9534 60.1438C59.0374 60.6518 59.0494 61.2438 58.6094 61.4758C58.6094 61.4758 58.6094 61.5078 58.6094 61.5038C59.1694 61.3478 59.1494 60.5598 58.9894 60.0918Z" fill="#143E26"/>
<path d="M58.4605 59.6199C57.6325 59.6679 57.7885 61.3199 58.5565 61.2759C59.3245 61.2319 59.1565 59.5999 58.4605 59.6199Z" fill="#143E26"/>
<path d="M58.144 59.7399C58.008 59.8439 57.884 60.0239 57.712 60.0559C57.54 60.0879 57.344 59.9359 57.196 59.7839H57.168C57.192 60.0999 57.344 60.4159 57.688 60.4319C58.032 60.4479 58.2 60.1439 58.248 59.8199C58.26 59.7759 58.2 59.6959 58.144 59.7399Z" fill="#143E26"/>
<path d="M61.8214 59.7199C61.8214 59.6999 61.8654 59.7199 61.8654 59.7599C61.8934 60.2719 62.0134 60.8559 62.4894 60.9879V61.0159C61.9174 60.9839 61.7654 60.2079 61.8214 59.7199Z" fill="#143E26"/>
<path d="M62.2343 59.1439C63.0343 59.0119 63.2583 60.6559 62.5023 60.7799C61.7463 60.9039 61.5503 59.2559 62.2343 59.1439Z" fill="#143E26"/>
<path d="M62.5922 59.1999C62.7322 59.2719 62.8802 59.4159 63.0362 59.4039C63.1922 59.3919 63.3282 59.1999 63.4362 59.0039C63.4362 58.9839 63.4602 59.0039 63.4642 59.0039C63.5122 59.3199 63.4642 59.6599 63.1522 59.7599C62.8402 59.8599 62.6482 59.6039 62.5322 59.2999C62.5002 59.2759 62.5322 59.1999 62.5922 59.1999Z" fill="#143E26"/>
<path d="M59.3206 64.2999C59.4486 64.4159 59.5806 64.5719 59.7686 64.5799C59.9592 64.5681 60.1448 64.5148 60.3126 64.4239C60.3126 64.4239 60.3446 64.4239 60.3366 64.4519C60.2674 64.556 60.1715 64.6395 60.0589 64.6937C59.9463 64.7479 59.8211 64.7707 59.6966 64.7599C59.5908 64.7372 59.4941 64.6837 59.4186 64.6061C59.3431 64.5285 59.2923 64.4303 59.2726 64.3239C59.2646 64.2959 59.3006 64.2839 59.3206 64.2999Z" fill="#143E26"/>
<path d="M61.2658 62.2278C61.2658 62.2278 61.4498 62.9798 61.4898 63.3398C61.4898 63.3718 61.4058 63.3958 61.2858 63.4198C60.983 63.5094 60.6613 63.5134 60.3564 63.4315C60.0514 63.3496 59.775 63.185 59.5578 62.9558C59.5504 62.9495 59.5458 62.9404 59.545 62.9306C59.5443 62.9209 59.5474 62.9112 59.5538 62.9038C59.5602 62.8964 59.5692 62.8918 59.579 62.891C59.5887 62.8903 59.5984 62.8935 59.6058 62.8998C60.0951 63.163 60.6558 63.2625 61.2058 63.1838C61.2058 63.0798 60.8418 61.9038 60.8978 61.8958C61.1808 61.8905 61.4633 61.9228 61.7378 61.9918C61.3938 60.4158 60.8018 58.9038 60.4858 57.3278C60.4852 57.3169 60.4881 57.306 60.494 57.2968C60.4999 57.2876 60.5086 57.2805 60.5188 57.2765C60.529 57.2725 60.5402 57.2719 60.5508 57.2746C60.5614 57.2774 60.5708 57.2834 60.5778 57.2918C61.2615 58.8933 61.784 60.5588 62.1378 62.2638C62.1858 62.4638 61.4138 62.2718 61.2658 62.2278Z" fill="#143E26"/>
<path d="M51.3685 61.9399C52.1685 61.7559 53.9005 59.1719 53.3045 55.2519C53.3045 55.2519 53.5965 58.8079 53.4205 59.3679C53.2445 59.9279 54.3885 57.9159 53.9525 54.7479C55.0646 55.2909 56.2486 55.6721 57.4685 55.8799C59.0285 56.0439 59.9365 55.8799 60.0245 55.7519C60.1125 55.6239 57.8045 55.3039 57.0965 54.7199C57.0965 54.7199 61.3685 55.8959 63.2205 55.7279C63.4325 55.7279 62.9525 51.3279 59.8205 49.9559C56.6885 48.5839 52.5525 51.3319 51.5445 52.6959C51.5445 52.6959 50.1685 53.1359 48.9845 55.4959C47.8005 57.8559 50.5045 62.1359 51.3685 61.9399Z" fill="#143E26"/>
<path d="M57.8198 62.7479C57.3769 62.7462 56.9434 62.6204 56.5685 62.3847C56.1936 62.1489 55.8923 61.8128 55.6989 61.4144C55.5054 61.0161 55.4275 60.5714 55.4741 60.131C55.5206 59.6906 55.6897 59.2721 55.9622 58.923C56.2347 58.5739 56.5996 58.3082 57.0155 58.1561C57.4314 58.0039 57.8816 57.9715 58.3151 58.0624C58.7485 58.1533 59.1477 58.364 59.4675 58.6704C59.7872 58.9768 60.0146 59.3668 60.1238 59.7959C60.2766 60.4053 60.1819 61.0505 59.8603 61.5902C59.5387 62.1299 59.0165 62.5203 58.4078 62.6759C58.2154 62.7235 58.018 62.7477 57.8198 62.7479ZM57.8198 58.3239C57.6487 58.3244 57.4783 58.3445 57.3118 58.3839C56.8018 58.5097 56.359 58.8252 56.0735 59.266C55.7881 59.7069 55.6814 60.24 55.7752 60.7568C55.8691 61.2735 56.1565 61.7351 56.5788 62.0474C57.001 62.3597 57.5265 62.4993 58.0481 62.4377C58.5697 62.376 59.0482 62.1179 59.3861 61.7158C59.724 61.3137 59.896 60.7979 59.8669 60.2735C59.8377 59.7491 59.6098 59.2555 59.2295 58.8933C58.8491 58.531 58.345 58.3274 57.8198 58.3239Z" fill="white"/>
<path d="M63.2223 62.096C62.3183 62.096 61.4943 61.164 61.3543 59.936C61.2773 59.3497 61.385 58.7541 61.6623 58.232C61.7679 58.0005 61.9316 57.8003 62.1374 57.6507C62.3432 57.5012 62.5842 57.4074 62.8369 57.3784C63.0897 57.3494 63.3456 57.3862 63.58 57.4853C63.8143 57.5844 64.019 57.7424 64.1743 57.944C64.5664 58.3911 64.806 58.9515 64.8583 59.544C65.0103 60.844 64.3423 61.988 63.3783 62.1C63.3262 62.1026 63.2741 62.1013 63.2223 62.096ZM62.9943 57.696H62.8743C62.6739 57.7269 62.484 57.806 62.321 57.9266C62.1579 58.0471 62.0266 58.2054 61.9383 58.388C61.6938 58.8518 61.6001 59.3803 61.6703 59.9C61.7983 61.024 62.5463 61.864 63.3423 61.772C64.1383 61.68 64.6743 60.692 64.5423 59.568C64.4916 59.0467 64.279 58.5543 63.9343 58.16C63.8193 58.0199 63.6762 57.9056 63.5143 57.8243C63.3524 57.743 63.1752 57.6966 62.9943 57.688V57.696Z" fill="white"/>
<path d="M60.0776 60.08L59.8496 59.86C60.1696 59.52 60.9496 59.024 61.5976 59.572L61.3896 59.812C60.8016 59.32 60.1096 60.048 60.0776 60.08Z" fill="white"/>
<path d="M49.6573 61.8918L49.3613 61.7758C49.4173 61.6398 49.8933 60.4238 50.5853 60.2278C51.2773 60.0318 55.4933 59.9558 55.6733 59.9558V60.2718C54.4493 60.2958 51.1613 60.3918 50.6613 60.5318C50.1613 60.6718 49.7853 61.5558 49.6573 61.8918Z" fill="white"/>
<path d="M51.084 64.1959C51.1994 64.2337 51.3189 64.2579 51.44 64.2679C51.5579 64.2861 51.678 64.2861 51.796 64.2679C51.9485 64.246 52.0945 64.1914 52.224 64.1079C52.4739 63.9505 52.664 63.7139 52.764 63.4359L52.26 61.4359C52.26 61.4359 50.504 59.1559 49.46 59.7919C48.416 60.4279 49.808 63.7839 51.084 64.1959Z" fill="#EDBC9C"/>
<path d="M49.8848 60.7439C49.8848 60.7439 49.8848 60.7719 49.8848 60.7759C50.7808 61.0919 51.2808 61.8879 51.6408 62.7199C51.5861 62.6339 51.5134 62.5609 51.4276 62.506C51.3419 62.451 51.2451 62.4154 51.1442 62.4017C51.0433 62.388 50.9406 62.3965 50.8432 62.4266C50.7459 62.4567 50.6564 62.5076 50.5808 62.5759C50.5568 62.5759 50.5808 62.6279 50.6048 62.6199C50.7575 62.5659 50.923 62.5596 51.0795 62.6017C51.2359 62.6439 51.3758 62.7325 51.4808 62.8559C51.6534 63.0655 51.8023 63.2936 51.9248 63.5359C51.9688 63.6119 52.1088 63.5639 52.0768 63.4759V63.4559C52.0368 62.3319 51.0968 60.7999 49.8848 60.7439Z" fill="#143E26"/>
<path d="M51.1767 63.8718C51.1931 63.9397 51.2293 64.0011 51.2807 64.0483C51.332 64.0955 51.3963 64.1264 51.4652 64.137C51.5342 64.1477 51.6047 64.1376 51.6679 64.108C51.7311 64.0785 51.7841 64.0308 51.8202 63.9711C51.8563 63.9113 51.8738 63.8422 51.8705 63.7726C51.8672 63.7029 51.8433 63.6357 51.8017 63.5796C51.7602 63.5236 51.703 63.4811 51.6373 63.4576C51.5716 63.4342 51.5004 63.4308 51.4327 63.4478C51.3879 63.4586 51.3457 63.4782 51.3085 63.5054C51.2713 63.5326 51.2399 63.5669 51.2161 63.6063C51.1923 63.6458 51.1765 63.6896 51.1698 63.7351C51.163 63.7807 51.1654 63.8272 51.1767 63.8718Z" fill="white"/>
<path d="M50.4378 63.3759C50.4448 63.4075 50.4581 63.4374 50.477 63.4637C50.4958 63.49 50.5198 63.5122 50.5474 63.529C50.5751 63.5459 50.6059 63.5569 50.6379 63.5615C50.6699 63.5661 50.7025 63.5642 50.7338 63.5559C50.7659 63.5489 50.7963 63.5355 50.8231 63.5164C50.8499 63.4974 50.8725 63.4731 50.8897 63.4451C50.9069 63.4171 50.9183 63.3859 50.9231 63.3534C50.9279 63.3209 50.9261 63.2877 50.9178 63.2559C50.9009 63.1929 50.8601 63.1389 50.8041 63.1054C50.7482 63.0718 50.6814 63.0612 50.6178 63.0759C50.5861 63.0834 50.5561 63.0971 50.5298 63.1164C50.5035 63.1356 50.4812 63.1599 50.4645 63.1879C50.4477 63.2159 50.4367 63.2469 50.4321 63.2792C50.4275 63.3115 50.4295 63.3444 50.4378 63.3759Z" fill="white"/>
<path d="M46.0004 71.9999C41.0124 80.0679 34.5044 93.5319 38.2364 95.9999C44.4004 100.096 61.2244 101.116 65.0724 101.2C66.7324 101.236 68.9444 90.1799 67.7084 88.9039C66.4724 87.6279 48.8604 88.4039 48.6284 87.3399C48.4964 86.7359 49.3964 81.3639 50.4564 74.6839C51.6764 66.9759 47.4404 69.6879 46.0004 71.9999Z" fill="#EDBC9C"/>
<path d="M66.7539 86.5959C70.7539 86.0399 71.8819 86.5119 75.0179 84.2399C77.0739 82.7519 78.9099 83.4399 77.7339 85.7919C75.8139 89.6639 70.7899 91.4719 68.8699 91.5959L66.7539 86.5959Z" fill="#EDBC9C"/>
<path d="M56.0957 90.4598C56.0957 90.4598 60.6037 87.9558 64.8197 86.9398C67.7357 86.2318 74.2517 85.4078 80.4837 91.8358C81.9597 93.3598 82.9877 96.5798 79.6837 94.9678C77.3277 93.8238 76.1757 92.3838 74.6837 91.9678C74.6837 91.9678 75.5037 96.2198 73.9197 97.6398C72.536 98.8828 71.0656 100.026 69.5197 101.06C69.2653 100.819 69.0262 100.562 68.8037 100.292C68.8037 100.292 67.2037 101.492 64.1757 101.192L56.0957 90.4598Z" fill="#EDBC9C"/>
<path d="M67.7141 86.7118C69.1061 87.4358 72.0342 89.0278 73.9782 91.1598C76.1382 93.5318 79.6582 98.6798 77.8902 100.256C76.5942 101.408 75.0902 99.5638 75.0902 99.5638C75.0902 99.5638 76.0982 101.996 74.6902 102.764C73.4182 103.48 72.3302 101.984 72.3302 101.984C72.3302 101.984 72.6861 103.564 71.3261 104.02C69.6901 104.568 69.2101 101.16 67.0741 100.284C66.5901 100.108 67.7141 86.7118 67.7141 86.7118Z" fill="#EDBC9C"/>
<path d="M71.0007 93.0359C72.2007 93.9359 74.4007 96.6759 75.0007 99.5119C75.0007 99.5759 74.9727 99.6199 74.9487 99.5639C73.8917 97.2416 72.5565 95.0563 70.9727 93.0559C70.9727 93.0559 70.9887 93.0279 71.0007 93.0359Z" fill="#143E26"/>
<path d="M68.7415 95.332C69.6975 96.212 71.8375 99.136 72.3415 102.032C72.3415 102.096 72.3095 102.14 72.2855 102.084C71.3446 99.7095 70.1368 97.4497 68.6855 95.348C68.6855 95.348 68.7295 95.32 68.7415 95.332Z" fill="#143E26"/>
<path d="M61.1523 88.1198C62.9168 87.3607 64.7723 86.8337 66.6723 86.5518C67.6243 86.4238 68.5843 86.3638 69.5363 86.2638C70.4915 86.1896 71.4329 85.9906 72.3363 85.6718C73.2145 85.3045 74.0468 84.836 74.8163 84.2758C75.2128 83.9956 75.6331 83.7507 76.0723 83.5438C76.5291 83.3173 77.0571 83.2813 77.5403 83.4438C77.6682 83.4805 77.787 83.5431 77.8896 83.6278C77.9921 83.7124 78.0761 83.8173 78.1363 83.9358C78.2415 84.1759 78.2735 84.4417 78.2283 84.6998C78.1453 85.186 77.976 85.6533 77.7283 86.0798C77.2638 86.9367 76.6595 87.7099 75.9403 88.3678L75.9203 88.1758C77.2212 88.9043 78.4471 89.7591 79.5803 90.7278C80.1464 91.2218 80.6585 91.7742 81.1083 92.3758C81.6046 92.9657 81.9394 93.674 82.0803 94.4318C82.0985 94.6423 82.0641 94.8539 81.9803 95.0478C81.8882 95.248 81.73 95.4105 81.5323 95.5078C81.1459 95.6552 80.7188 95.6552 80.3323 95.5078C79.619 95.2471 78.9458 94.8876 78.3323 94.4398C77.7203 94.0078 77.1323 93.5438 76.5443 93.1198C76.2486 92.9024 75.9415 92.7008 75.6243 92.5158C75.326 92.3271 74.9971 92.1918 74.6523 92.1158L74.7683 91.9038C75.4508 92.7266 76.0851 93.588 76.6683 94.4838C77.2582 95.3814 77.7401 96.3454 78.1043 97.3558C78.305 97.8603 78.4395 98.3888 78.5043 98.9278C78.5307 99.2069 78.5008 99.4885 78.4163 99.7558C78.3182 100.029 78.1362 100.264 77.8963 100.428C77.666 100.589 77.3989 100.691 77.1193 100.722C76.8398 100.753 76.5568 100.714 76.2963 100.608C75.7922 100.389 75.3468 100.055 74.9963 99.6318L75.1483 99.5358C75.3627 100.023 75.4977 100.542 75.5483 101.072C75.5871 101.342 75.5682 101.618 75.4931 101.88C75.418 102.143 75.2882 102.387 75.1123 102.596C74.9225 102.797 74.6804 102.941 74.4133 103.011C74.1462 103.082 73.8646 103.077 73.6003 102.996C73.0942 102.816 72.6454 102.504 72.3003 102.092L72.4003 102C72.4578 102.319 72.451 102.647 72.3803 102.964C72.314 103.286 72.1424 103.578 71.8923 103.792C71.6396 103.998 71.3297 104.123 71.0043 104.148C70.8413 104.143 70.681 104.105 70.5331 104.036C70.3853 103.968 70.253 103.869 70.1443 103.748C69.7243 103.276 69.3519 102.764 69.0323 102.22C68.7088 101.675 68.3042 101.183 67.8323 100.76C68.3014 101.178 68.7058 101.663 69.0323 102.2C69.3579 102.737 69.7372 103.239 70.1643 103.7C70.2662 103.812 70.3895 103.902 70.5269 103.965C70.6644 104.028 70.8131 104.063 70.9643 104.068C71.2698 104.041 71.5592 103.919 71.7923 103.72C72.0054 103.5 72.1582 103.23 72.236 102.934C72.3138 102.638 72.3139 102.328 72.2363 102.032L72.1923 101.808L72.3483 101.972C72.6826 102.357 73.1113 102.65 73.5923 102.82C73.8295 102.891 74.0819 102.896 74.3214 102.832C74.5609 102.769 74.7779 102.64 74.9483 102.46C75.1086 102.267 75.227 102.043 75.2959 101.802C75.3647 101.561 75.3826 101.308 75.3483 101.06C75.2926 100.55 75.1576 100.052 74.9483 99.5838L74.7323 99.0718L75.1003 99.4718C75.4313 99.8712 75.8521 100.186 76.3283 100.392C76.5615 100.485 76.8143 100.519 77.0637 100.49C77.3132 100.46 77.5513 100.369 77.7563 100.224C77.9543 100.072 78.1064 99.8682 78.1961 99.6353C78.2857 99.4024 78.3093 99.1493 78.2643 98.9038C78.1976 98.3832 78.0631 97.8736 77.8643 97.3878C77.501 96.4004 77.0203 95.4604 76.4323 94.5878C75.8526 93.7031 75.2208 92.8536 74.5403 92.0438L74.3163 91.7758L74.6523 91.8318C75.0341 91.9079 75.3987 92.0529 75.7283 92.2598C76.0523 92.4478 76.3643 92.6598 76.6683 92.8718C77.2763 93.2998 77.8683 93.7638 78.4603 94.1798C79.0546 94.6113 79.708 94.9548 80.4003 95.1998C80.7108 95.3286 81.0572 95.3414 81.3763 95.2358C81.5182 95.161 81.6331 95.0435 81.7048 94.9001C81.7766 94.7566 81.8016 94.5942 81.7763 94.4358C81.6417 93.7315 81.3291 93.0733 80.8683 92.5238C80.4322 91.9415 79.9376 91.4054 79.3923 90.9238C78.2768 89.9622 77.0713 89.1102 75.7923 88.3798L75.6483 88.2958L75.7723 88.1878C76.4735 87.5524 77.0642 86.8049 77.5203 85.9758C77.7573 85.5731 77.9211 85.1316 78.0043 84.6718C78.0453 84.4551 78.0217 84.2312 77.9363 84.0278C77.8873 83.9324 77.8195 83.8478 77.737 83.779C77.6545 83.7103 77.5591 83.6589 77.4563 83.6278C77.0208 83.4807 76.5446 83.5123 76.1323 83.7158C75.7033 83.9159 75.2925 84.1528 74.9043 84.4238C74.1188 84.987 73.2705 85.4568 72.3763 85.8238C70.5403 86.5078 68.5763 86.4198 66.6843 86.6438C64.7848 86.8972 62.9256 87.3932 61.1523 88.1198Z" fill="#143E26"/>
<path d="M39.6328 82.2398L50.3048 81.1158C50.3048 81.1158 51.0368 75.7718 51.0248 72.7598C51.0248 68.7598 49.5248 67.8438 46.3208 71.5358C44.1768 73.9998 39.6328 82.2398 39.6328 82.2398Z" fill="#2F945A"/>
<path d="M49.3488 69.9438C49.4617 69.6716 49.611 69.4159 49.7928 69.1838C49.7484 69.4768 49.6636 69.7622 49.5408 70.0318C49.4288 70.3033 49.2793 70.5578 49.0968 70.7878C49.1435 70.4967 49.2282 70.2129 49.3488 69.9438ZM44.4008 78.0918C43.9306 77.7356 43.382 77.497 42.8008 77.3958C43.0327 77.5788 43.2884 77.7295 43.5608 77.8438C43.8286 77.9633 44.111 78.0467 44.4008 78.0918ZM47.4448 73.8598C47.482 74.1524 47.5573 74.4388 47.6688 74.7118C47.7667 74.986 47.9012 75.2457 48.0688 75.4838C48.0316 75.1913 47.9563 74.9049 47.8448 74.6318C47.7406 74.3566 47.5993 74.0968 47.4248 73.8598H47.4448Z" fill="white"/>
<path d="M49.0018 81.256C49.1178 81.224 50.2018 81.072 50.2898 81.084C50.3618 80.452 50.4218 79.82 50.4978 79.192C50.5378 78.876 50.5818 78.56 50.6298 78.248C50.6778 77.936 50.7258 77.5079 50.7738 77.2039C50.7738 77.1559 50.8458 77.1599 50.8418 77.2039C50.8178 77.6039 50.7898 77.908 50.7698 78.256C50.7498 78.604 50.7218 78.88 50.6898 79.188C50.6218 79.848 50.5738 80.548 50.4698 81.188C49.9845 81.2525 49.4953 81.2819 49.0058 81.276C48.9858 81.292 48.9858 81.26 49.0018 81.256Z" fill="#143E26"/>
<path d="M40.6121 81.1119C42.1521 80.8399 43.6921 80.5919 45.2481 80.4119C46.0241 80.3239 46.8001 80.2439 47.5761 80.1799C48.3521 80.1159 49.1401 80.1279 49.9161 80.0479C49.9561 80.0479 49.9601 80.1159 49.9161 80.1159C49.1401 80.1519 48.3601 80.2959 47.5841 80.3759C46.8081 80.4559 46.0321 80.5359 45.2561 80.6239C43.7041 80.7959 42.1561 80.9679 40.6081 81.1799C40.5721 81.1999 40.5681 81.1199 40.6121 81.1119Z" fill="#143E26"/>
<path d="M174.91 104.08H31.4941V109.18H174.91V104.08Z" fill="#2F945A"/>
<path d="M174.91 107.188H31.4941V109.18H174.91V107.188Z" fill="#2B8752"/>
<path d="M36.6401 180.74H34.5801L40.5801 109.18H45.8401L36.6401 180.74Z" fill="#2B8752"/>
<path d="M45.8377 109.18L45.2217 113.968H40.1777L40.5777 109.18H45.8377Z" fill="#2F945A"/>
<path d="M169.766 180.74H171.826L165.826 109.18H160.566L169.766 180.74Z" fill="#2B8752"/>
<path d="M160.566 109.18L161.182 113.968H166.226L165.826 109.18H160.566Z" fill="#2F945A"/>
<path d="M175.342 22.312H132.822V52.812H175.342V22.312Z" fill="white"/>
<path d="M175.443 52.9119H132.723V22.2119H175.443V52.9119ZM132.923 52.7119H175.243V22.3999H132.923V52.7119Z" fill="#EBEBEB"/>
<path d="M175.342 22.312H132.822V26.032H175.342V22.312Z" fill="#2F945A"/>
<path d="M175.443 26.1319H132.723V22.2119H175.443V26.1319ZM132.923 25.9319H175.243V22.3999H132.923V25.9319Z" fill="#EBEBEB"/>
<path d="M136.313 24.1999C136.313 24.385 136.259 24.566 136.156 24.7199C136.053 24.8739 135.907 24.9938 135.736 25.0647C135.565 25.1355 135.376 25.154 135.195 25.1179C135.013 25.0818 134.846 24.9927 134.716 24.8618C134.585 24.7309 134.496 24.5641 134.459 24.3825C134.423 24.201 134.442 24.0128 134.513 23.8417C134.583 23.6707 134.703 23.5245 134.857 23.4217C135.011 23.3188 135.192 23.2639 135.377 23.2639C135.626 23.2639 135.864 23.3625 136.039 23.5381C136.215 23.7136 136.313 23.9517 136.313 24.1999Z" fill="#0C6532"/>
<path d="M140.14 24.1999C140.14 24.3849 140.085 24.5657 139.982 24.7195C139.879 24.8734 139.733 24.9933 139.563 25.0643C139.392 25.1352 139.204 25.154 139.022 25.1182C138.841 25.0824 138.674 24.9937 138.543 24.8632C138.412 24.7327 138.323 24.5663 138.286 24.385C138.249 24.2037 138.267 24.0156 138.338 23.8445C138.408 23.6734 138.527 23.5269 138.681 23.4236C138.834 23.3203 139.015 23.2647 139.2 23.2639C139.323 23.2634 139.445 23.2872 139.559 23.334C139.673 23.3808 139.777 23.4497 139.864 23.5367C139.951 23.6236 140.021 23.727 140.068 23.8408C140.115 23.9546 140.14 24.0767 140.14 24.1999Z" fill="#EBEBEB"/>
<path d="M143.962 24.1999C143.962 24.385 143.907 24.566 143.804 24.7199C143.701 24.8739 143.555 24.9938 143.384 25.0647C143.213 25.1355 143.025 25.154 142.843 25.1179C142.662 25.0818 142.495 24.9927 142.364 24.8618C142.233 24.7309 142.144 24.5641 142.108 24.3825C142.072 24.201 142.09 24.0128 142.161 23.8417C142.232 23.6707 142.352 23.5245 142.506 23.4217C142.66 23.3188 142.841 23.2639 143.026 23.2639C143.274 23.2639 143.512 23.3625 143.688 23.5381C143.863 23.7136 143.962 23.9517 143.962 24.1999Z" fill="white"/>
<path d="M175.342 25.8319H132.822V26.2319H175.342V25.8319Z" fill="#EBEBEB"/>
<path d="M138.071 31.8718H136.703V32.3718H138.071V31.8718Z" fill="#EBEBEB"/>
<path d="M155.97 31.8718H139.062V32.3718H155.97V31.8718Z" fill="#EBEBEB"/>
<path d="M159.807 31.8718H156.811V32.3718H159.807V31.8718Z" fill="#2F945A"/>
<path d="M163.963 38.548H161.367V39.048H163.963V38.548Z" fill="#EBEBEB"/>
<path d="M169.119 31.8718H160.371V32.3718H169.119V31.8718Z" fill="#EAF4EF"/>
<path d="M139.434 33.204H138.066V33.704H139.434V33.204Z" fill="#EBEBEB"/>
<path d="M153.88 33.204H140.396V33.704H153.88V33.204Z" fill="#EAF4EF"/>
<path d="M160.751 38.548H156.459V39.048H160.751V38.548Z" fill="#EAF4EF"/>
<path d="M148.886 37.2119H139.062V37.7119H148.886V37.2119Z" fill="#EAF4EF"/>
<path d="M147.288 34.5399H140.396V35.0399H147.288V34.5399Z" fill="#2F945A"/>
<path d="M165.839 35.8759H158.947V36.3759H165.839V35.8759Z" fill="#EAF4EF"/>
<path d="M160.697 34.5399H148.057V35.0399H160.697V34.5399Z" fill="#EAF4EF"/>
<path d="M155.567 38.548H139.062V39.048H155.567V38.548Z" fill="#2F945A"/>
<path d="M171.468 33.204H160.084V33.704H171.468V33.204Z" fill="#2F945A"/>
<path d="M159.519 33.204H154.527V33.704H159.519V33.204Z" fill="#EBEBEB"/>
<path d="M169.899 34.5399H165.475V35.0399H169.899V34.5399Z" fill="#EBEBEB"/>
<path d="M139.434 34.5399H138.066V35.0399H139.434V34.5399Z" fill="#EBEBEB"/>
<path d="M138.071 35.8759H136.703V36.3759H138.071V35.8759Z" fill="#EAF4EF"/>
<path d="M147.139 35.8759H139.062V36.3759H147.139V35.8759Z" fill="#EBEBEB"/>
<path d="M148.472 39.8839H140.396V40.3839H148.472V39.8839Z" fill="#EBEBEB"/>
<path d="M167.486 41.2198H156.686V41.7198H167.486V41.2198Z" fill="#2F945A"/>
<path d="M158.459 39.8839H149.127V40.3839H158.459V39.8839Z" fill="#2F945A"/>
<path d="M155.983 41.2198H147.699V41.7198H155.983V41.2198Z" fill="#EBEBEB"/>
<path d="M142.732 41.2198H140.396V41.7198H142.732V41.2198Z" fill="#EAF4EF"/>
<path d="M159.807 37.2119H149.443V37.7119H159.807V37.2119Z" fill="#EBEBEB"/>
<path d="M170.187 37.2119H160.371V37.7119H170.187V37.2119Z" fill="#2F945A"/>
<path d="M157.911 35.8759H147.959V36.3759H157.911V35.8759Z" fill="#2F945A"/>
<path d="M138.071 37.2119H136.703V37.7119H138.071V37.2119Z" fill="#EBEBEB"/>
<path d="M138.071 38.548H136.703V39.048H138.071V38.548Z" fill="#EBEBEB"/>
<path d="M139.434 39.8839H138.066V40.3839H139.434V39.8839Z" fill="#EAF4EF"/>
<path d="M139.434 41.2198H138.066V41.7198H139.434V41.2198Z" fill="#EBEBEB"/>
<path d="M138.071 42.34H136.703V42.84H138.071V42.34Z" fill="#EBEBEB"/>
<path d="M158.282 42.34H139.062V42.84H158.282V42.34Z" fill="#EBEBEB"/>
<path d="M139.434 43.672H138.066V44.172H139.434V43.672Z" fill="#EBEBEB"/>
<path d="M153.88 43.672H140.396V44.172H153.88V43.672Z" fill="#EAF4EF"/>
<path d="M148.886 47.6799H139.062V48.1799H148.886V47.6799Z" fill="#EAF4EF"/>
<path d="M147.288 45.0079H140.396V45.5079H147.288V45.0079Z" fill="#2F945A"/>
<path d="M160.697 45.0079H148.057V45.5079H160.697V45.0079Z" fill="#EAF4EF"/>
<path d="M155.567 49.016H139.062V49.516H155.567V49.016Z" fill="#2F945A"/>
<path d="M171.468 43.672H160.084V44.172H171.468V43.672Z" fill="#2F945A"/>
<path d="M159.519 43.672H154.527V44.172H159.519V43.672Z" fill="#EBEBEB"/>
<path d="M169.899 45.0079H165.475V45.5079H169.899V45.0079Z" fill="#EBEBEB"/>
<path d="M139.434 45.0079H138.066V45.5079H139.434V45.0079Z" fill="#EBEBEB"/>
<path d="M138.071 46.344H136.703V46.844H138.071V46.344Z" fill="#EAF4EF"/>
<path d="M147.139 46.344H139.062V46.844H147.139V46.344Z" fill="#EBEBEB"/>
<path d="M159.807 47.6799H149.443V48.1799H159.807V47.6799Z" fill="#EBEBEB"/>
<path d="M157.911 46.344H147.959V46.844H157.911V46.344Z" fill="#2F945A"/>
<path d="M138.071 47.6799H136.703V48.1799H138.071V47.6799Z" fill="#EBEBEB"/>
<path d="M137.548 30.5559C137.561 30.5663 137.573 30.5794 137.581 30.5945C137.589 30.6096 137.594 30.6263 137.595 30.6434C137.596 30.6606 137.594 30.6778 137.588 30.6939C137.582 30.71 137.573 30.7246 137.56 30.7368C137.548 30.7489 137.534 30.7583 137.518 30.7644C137.501 30.7704 137.484 30.7729 137.467 30.7716C137.45 30.7704 137.433 30.7655 137.418 30.7573C137.403 30.7491 137.39 30.7377 137.38 30.7239L136.852 30.1919V30.1359C136.852 30.1359 136.852 30.1359 136.852 30.1159L137.38 29.5839C137.403 29.5666 137.431 29.5582 137.46 29.5602C137.489 29.5623 137.516 29.5747 137.536 29.5951C137.557 29.6155 137.569 29.6426 137.571 29.6714C137.573 29.7002 137.565 29.7288 137.548 29.7519L137.104 30.1999L137.548 30.5559Z" fill="#2F945A"/>
<path d="M138.023 30.6158L138.483 29.5238C138.488 29.5109 138.496 29.499 138.505 29.4891C138.515 29.4791 138.526 29.4713 138.539 29.466C138.552 29.4608 138.566 29.4582 138.579 29.4585C138.593 29.4588 138.607 29.462 138.619 29.4678C138.644 29.4784 138.663 29.4981 138.674 29.5226C138.684 29.5472 138.685 29.5749 138.675 29.5998L138.215 30.6958C138.207 30.7145 138.194 30.7304 138.177 30.7417C138.16 30.7531 138.14 30.7593 138.119 30.7598H138.079C138.066 30.7542 138.054 30.746 138.044 30.7356C138.034 30.7253 138.026 30.713 138.021 30.6996C138.016 30.6862 138.013 30.6719 138.014 30.6575C138.014 30.6431 138.017 30.6289 138.023 30.6158Z" fill="#2F945A"/>
<path d="M139.599 30.1759L139.071 30.7079C139.049 30.7305 139.019 30.7434 138.987 30.7439C138.964 30.7435 138.941 30.7363 138.922 30.7231C138.902 30.7099 138.887 30.6913 138.878 30.6696C138.869 30.6478 138.867 30.624 138.871 30.6009C138.876 30.5779 138.887 30.5566 138.903 30.5399L139.347 30.0919L138.903 29.6439C138.89 29.6335 138.878 29.6204 138.87 29.6053C138.862 29.5902 138.857 29.5735 138.856 29.5564C138.855 29.5392 138.857 29.522 138.863 29.5059C138.869 29.4898 138.878 29.4752 138.891 29.463C138.903 29.4508 138.917 29.4414 138.934 29.4354C138.95 29.4294 138.967 29.4269 138.984 29.4282C139.001 29.4294 139.018 29.4343 139.033 29.4425C139.048 29.4507 139.061 29.4621 139.071 29.4759L139.599 30.0079V30.0279V30.0759C139.599 30.0759 139.599 30.1679 139.599 30.1759Z" fill="#2F945A"/>
<path d="M173.146 101.524H172.666V101.2H172.826V101.04H173.146V101.524Z" fill="#EBEBEB"/>
<path d="M172.025 101.524H171.381V101.2H172.025V101.524ZM170.741 101.524H170.101V101.2H170.741V101.524ZM169.461 101.524H168.821V101.2H169.461V101.524ZM168.177 101.524H167.537V101.2H168.177V101.524ZM166.897 101.524H166.257V101.2H166.897V101.524ZM165.617 101.524H164.973V101.2H165.617V101.524ZM164.333 101.524H163.693V101.2H164.333V101.524ZM163.053 101.524H162.397V101.2H163.037L163.053 101.524ZM161.769 101.524H161.129V101.2H161.769V101.524ZM160.489 101.524H159.849V101.2H160.489V101.524ZM159.209 101.524H158.565V101.2H159.197L159.209 101.524ZM157.925 101.524H157.285V101.2H157.925V101.524ZM156.645 101.524H155.997V101.2H156.637L156.645 101.524ZM155.361 101.524H154.721V101.2H155.361V101.524ZM154.081 101.524H153.441V101.2H154.081V101.524ZM152.801 101.524H152.161V101.2H152.797L152.801 101.524ZM151.517 101.524H150.877V101.2H151.517V101.524Z" fill="#EBEBEB"/>
<path d="M150.238 101.524H149.758V101.04H150.078V101.2H150.238V101.524Z" fill="#EBEBEB"/>
<path d="M150.078 100.4H149.758V99.76H150.078V100.4ZM150.078 99.12H149.758V98.48H150.078V99.12ZM150.078 97.836H149.758V97.2H150.078V97.836ZM150.078 96.556H149.758V95.916H150.078V96.556ZM150.078 95.276H149.758V94.632H150.078V95.276ZM150.078 93.992H149.758V93.352H150.078V93.992ZM150.078 92.712H149.758V92.072H150.078V92.712ZM150.078 91.432H149.758V90.8H150.078V91.432ZM150.078 90.148H149.758V89.508H150.078V90.148ZM150.078 88.868H149.758V88.228H150.078V88.868ZM150.078 87.584H149.758V86.944H150.078V87.584ZM150.078 86.304H149.758V85.664H150.078V86.304ZM150.078 85.024H149.758V84.4H150.078V85.024ZM150.078 83.74H149.758V83.1H150.078V83.74ZM150.078 82.46H149.758V81.82H150.078V82.46ZM150.078 81.176H149.758V80.536H150.078V81.176ZM150.078 79.896H149.758V79.256H150.078V79.896Z" fill="#EBEBEB"/>
<path d="M150.078 78.616H149.758V78.132H150.238V78.456H150.078V78.616Z" fill="#EBEBEB"/>
<path d="M172.025 78.456H171.381V78.132H172.025V78.456ZM170.741 78.456H170.101V78.132H170.741V78.456ZM169.461 78.456H168.821V78.132H169.461V78.456ZM168.177 78.456H167.537V78.132H168.177V78.456ZM166.897 78.456H166.257V78.132H166.897V78.456ZM165.617 78.456H164.973V78.132H165.617V78.456ZM164.333 78.456H163.693V78.132H164.333V78.456ZM163.053 78.456H162.397V78.132H163.037L163.053 78.456ZM161.769 78.456H161.129V78.132H161.769V78.456ZM160.489 78.456H159.849V78.132H160.489V78.456ZM159.209 78.456H158.565V78.132H159.197L159.209 78.456ZM157.925 78.456H157.285V78.132H157.925V78.456ZM156.645 78.456H155.997V78.132H156.637L156.645 78.456ZM155.365 78.456H154.721V78.132H155.365V78.456ZM154.081 78.456H153.441V78.132H154.081V78.456ZM152.801 78.456H152.161V78.132H152.797L152.801 78.456ZM151.517 78.456H150.877V78.132H151.517V78.456Z" fill="#EBEBEB"/>
<path d="M173.146 78.616H172.826V78.456H172.666V78.132H173.146V78.616Z" fill="#EBEBEB"/>
<path d="M173.146 100.4H172.826V99.76H173.146V100.4ZM173.146 99.12H172.826V98.48H173.146V99.12ZM173.146 97.84H172.826V97.2H173.146V97.84ZM173.146 96.556H172.826V95.916H173.146V96.556ZM173.146 95.276H172.826V94.636H173.146V95.276ZM173.146 93.992H172.826V93.352H173.146V93.992ZM173.146 92.712H172.826V92.072H173.146V92.712ZM173.146 91.432H172.826V90.8H173.146V91.432ZM173.146 90.148H172.826V89.508H173.146V90.148ZM173.146 88.868H172.826V88.228H173.146V88.868ZM173.146 87.584H172.826V86.944H173.146V87.584ZM173.146 86.304H172.826V85.664H173.146V86.304ZM173.146 85.024H172.826V84.4H173.146V85.024ZM173.146 83.74H172.826V83.1H173.146V83.74ZM173.146 82.46H172.826V81.82H173.146V82.46ZM173.146 81.176H172.826V80.536H173.146V81.176ZM173.146 79.896H172.826V79.256H173.146V79.896Z" fill="#EBEBEB"/>
<path d="M151.355 99.924H148.479V102.8H151.355V99.924Z" fill="white"/>
<path d="M151.516 102.96H148.316V99.7599H151.516V102.96ZM148.644 102.64H151.2V100.084H148.648L148.644 102.64Z" fill="#EBEBEB"/>
<path d="M151.366 88.392H148.49V91.268H151.366V88.392Z" fill="white"/>
<path d="M151.516 91.424H148.316V88.224H151.516V91.424ZM148.644 91.104H151.2V88.552H148.648L148.644 91.104Z" fill="#EBEBEB"/>
<path d="M151.366 76.856H148.49V79.732H151.366V76.856Z" fill="white"/>
<path d="M151.516 79.892H148.316V76.692H151.516V79.892ZM148.644 79.572H151.2V77.016H148.648L148.644 79.572Z" fill="#EBEBEB"/>
<path d="M174.439 99.924H171.562V102.8H174.439V99.924Z" fill="white"/>
<path d="M174.583 102.96H171.383V99.7599H174.583V102.96ZM171.711 102.64H174.263V100.084H171.711V102.64Z" fill="#EBEBEB"/>
<path d="M174.439 88.392H171.562V91.268H174.439V88.392Z" fill="white"/>
<path d="M174.583 91.424H171.383V88.224H174.583V91.424ZM171.711 91.104H174.263V88.552H171.711V91.104Z" fill="#EBEBEB"/>
<path d="M174.439 76.856H171.562V79.732H174.439V76.856Z" fill="white"/>
<path d="M174.583 79.892H171.383V76.692H174.583V79.892ZM171.711 79.572H174.263V77.016H171.711V79.572Z" fill="#EBEBEB"/>
<path d="M162.903 76.856H160.027V79.732H162.903V76.856Z" fill="white"/>
<path d="M163.052 79.892H159.852V76.692H163.052V79.892ZM160.176 79.572H162.732V77.016H160.176V79.572Z" fill="#EBEBEB"/>
<path d="M162.892 99.924H160.016V102.8H162.892V99.924Z" fill="white"/>
<path d="M163.052 102.96H159.852V99.7599H163.052V102.96ZM160.176 102.64H162.732V100.084H160.176V102.64Z" fill="#EBEBEB"/>
<path d="M157.686 47.428H118.766V97.128H157.686V47.428Z" fill="white"/>
<path d="M157.786 97.2279H118.666V47.3279H157.786V97.2279ZM118.866 97.0279H157.598V47.5279H118.878L118.866 97.0279Z" fill="#EBEBEB"/>
<path d="M157.686 47.428H118.766V51.148H157.686V47.428Z" fill="#2F945A"/>
<path d="M157.786 51.2479H118.666V47.3279H157.786V51.2479ZM118.866 51.0479H157.598V47.5279H118.878L118.866 51.0479Z" fill="#EBEBEB"/>
<path d="M122.259 49.3159C122.259 49.501 122.204 49.682 122.101 49.8359C121.998 49.9898 121.852 50.1098 121.681 50.1806C121.51 50.2515 121.322 50.27 121.14 50.2339C120.959 50.1978 120.792 50.1086 120.661 49.9777C120.53 49.8468 120.441 49.6801 120.405 49.4985C120.369 49.3169 120.387 49.1287 120.458 48.9577C120.529 48.7867 120.649 48.6405 120.803 48.5376C120.957 48.4348 121.138 48.3799 121.323 48.3799C121.571 48.3799 121.809 48.4785 121.985 48.654C122.16 48.8296 122.259 49.0676 122.259 49.3159Z" fill="#0C6532"/>
<path d="M126.083 49.3159C126.083 49.501 126.028 49.682 125.925 49.8359C125.822 49.9898 125.676 50.1098 125.505 50.1806C125.334 50.2515 125.146 50.27 124.964 50.2339C124.783 50.1978 124.616 50.1086 124.485 49.9777C124.354 49.8468 124.265 49.6801 124.229 49.4985C124.193 49.3169 124.211 49.1287 124.282 48.9577C124.353 48.7867 124.473 48.6405 124.627 48.5376C124.781 48.4348 124.962 48.3799 125.147 48.3799C125.395 48.3799 125.633 48.4785 125.809 48.654C125.984 48.8296 126.083 49.0676 126.083 49.3159Z" fill="#EBEBEB"/>
<path d="M129.907 49.3159C129.907 49.501 129.852 49.682 129.749 49.8359C129.647 49.9898 129.5 50.1098 129.329 50.1806C129.158 50.2515 128.97 50.27 128.789 50.2339C128.607 50.1978 128.44 50.1086 128.309 49.9777C128.178 49.8468 128.089 49.6801 128.053 49.4985C128.017 49.3169 128.036 49.1287 128.106 48.9577C128.177 48.7867 128.297 48.6405 128.451 48.5376C128.605 48.4348 128.786 48.3799 128.971 48.3799C129.219 48.3799 129.457 48.4785 129.633 48.654C129.809 48.8296 129.907 49.0676 129.907 49.3159Z" fill="white"/>
<path d="M157.686 50.9479H118.766V51.3479H157.686V50.9479Z" fill="#EBEBEB"/>
<path d="M140.571 85.8239H121.479V87.6079H140.571V85.8239Z" fill="#EAF4EF"/>
<path d="M154.975 89.2878H121.479V90.3638H154.975V89.2878Z" fill="#EBEBEB"/>
<path d="M154.975 91.34H121.479V92.416H154.975V91.34Z" fill="#EBEBEB"/>
<path d="M154.975 93.3879H121.479V94.4639H154.975V93.3879Z" fill="#EBEBEB"/>
<path d="M121.511 83.6239H154.947V53.3679H121.511V83.6239Z" fill="white"/>
<path d="M155.046 83.728H121.406V53.272H155.046V83.728ZM121.606 83.528H154.846V53.472H121.598L121.606 83.528Z" fill="#EBEBEB"/>
<path d="M121.576 53.2998L121.441 53.4481L154.877 83.7023L155.012 83.554L121.576 53.2998Z" fill="#EBEBEB"/>
<path d="M154.874 53.3051L121.443 83.5652L121.578 83.7135L155.008 53.4534L154.874 53.3051Z" fill="#EBEBEB"/>
<path d="M96.9825 18.7799H58.0625V44.4799H96.9825V18.7799Z" fill="white"/>
<path d="M97.0829 44.5799H57.9629V18.6799H97.0829V44.5799ZM58.1629 44.3799H96.8829V18.8799H58.1629V44.3799Z" fill="#EBEBEB"/>
<path d="M96.9825 18.7799H58.0625V22.4999H96.9825V18.7799Z" fill="#2F945A"/>
<path d="M97.0829 22.5999H57.9629V18.6799H97.0829V22.5999ZM58.1629 22.3999H96.8829V18.8799H58.1629V22.3999Z" fill="#EBEBEB"/>
<path d="M61.5556 20.6639C61.5556 20.849 61.5007 21.03 61.3978 21.1839C61.295 21.3378 61.1488 21.4578 60.9778 21.5287C60.8068 21.5995 60.6186 21.618 60.437 21.5819C60.2554 21.5458 60.0886 21.4567 59.9577 21.3258C59.8268 21.1949 59.7377 21.0281 59.7016 20.8465C59.6655 20.6649 59.684 20.4767 59.7548 20.3057C59.8257 20.1347 59.9457 19.9885 60.0996 19.8856C60.2535 19.7828 60.4345 19.7279 60.6196 19.7279C60.8678 19.7279 61.1059 19.8265 61.2814 20.0021C61.457 20.1776 61.5556 20.4157 61.5556 20.6639Z" fill="#0C6532"/>
<path d="M65.3798 20.6639C65.3798 20.849 65.3249 21.03 65.2221 21.1839C65.1192 21.3378 64.973 21.4578 64.802 21.5287C64.631 21.5995 64.4428 21.618 64.2612 21.5819C64.0796 21.5458 63.9129 21.4567 63.782 21.3258C63.6511 21.1949 63.5619 21.0281 63.5258 20.8465C63.4897 20.6649 63.5082 20.4767 63.5791 20.3057C63.6499 20.1347 63.7699 19.9885 63.9238 19.8856C64.0777 19.7828 64.2587 19.7279 64.4438 19.7279C64.6921 19.7279 64.9301 19.8265 65.1057 20.0021C65.2812 20.1776 65.3798 20.4157 65.3798 20.6639Z" fill="#EBEBEB"/>
<path d="M69.1982 20.6639C69.1982 20.849 69.1433 21.03 69.0404 21.1839C68.9376 21.3378 68.7914 21.4578 68.6204 21.5287C68.4493 21.5995 68.2611 21.618 68.0796 21.5819C67.898 21.5458 67.7312 21.4567 67.6003 21.3258C67.4694 21.1949 67.3803 21.0281 67.3442 20.8465C67.308 20.6649 67.3266 20.4767 67.3974 20.3057C67.4683 20.1347 67.5882 19.9885 67.7422 19.8856C67.8961 19.7828 68.0771 19.7279 68.2622 19.7279C68.5104 19.7279 68.7485 19.8265 68.924 20.0021C69.0996 20.1776 69.1982 20.4157 69.1982 20.6639Z" fill="white"/>
<path d="M96.9825 22.2999H58.0625V22.6999H96.9825V22.2999Z" fill="#EBEBEB"/>
<path d="M71.6879 37.124C71.7856 37.2216 71.8631 37.3376 71.916 37.4653C71.9689 37.5929 71.9961 37.7298 71.9961 37.868C71.9961 38.0061 71.9689 38.143 71.916 38.2706C71.8631 38.3983 71.7856 38.5143 71.6879 38.612C71.4916 38.7996 71.2313 38.9054 70.9599 38.908C70.6783 38.9087 70.4068 38.803 70.1999 38.612L65.5559 33.9C65.5039 33.9 65.4879 33.852 65.4719 33.8C65.4573 33.7873 65.4411 33.7766 65.4239 33.768C65.3988 33.7274 65.3812 33.6827 65.3719 33.636C65.3591 33.6292 65.3481 33.6195 65.3397 33.6077C65.3314 33.5959 65.326 33.5823 65.3239 33.568C65.3239 33.536 65.3239 33.488 65.2919 33.468C65.2599 33.448 65.2559 33.404 65.2559 33.388V33.272C65.2559 33.24 65.2559 33.22 65.2559 33.172C65.2559 33.124 65.2559 33.108 65.2559 33.088V32.972C65.2559 32.94 65.2919 32.924 65.2919 32.908C65.2919 32.892 65.2919 32.824 65.3239 32.776C65.3559 32.728 65.3239 32.776 65.3239 32.744C65.3469 32.6907 65.375 32.6398 65.4079 32.592C65.4079 32.5835 65.4112 32.5753 65.4172 32.5693C65.4232 32.5633 65.4314 32.56 65.4399 32.56C65.4621 32.513 65.4967 32.4729 65.5399 32.444L70.1999 27.732C70.4006 27.5412 70.6669 27.4348 70.9439 27.4348C71.2208 27.4348 71.4871 27.5412 71.6879 27.732C71.7856 27.8296 71.8631 27.9456 71.916 28.0733C71.9689 28.201 71.9961 28.3378 71.9961 28.476C71.9961 28.6141 71.9689 28.751 71.916 28.8786C71.8631 29.0063 71.7856 29.1223 71.6879 29.22L67.7719 33.172L71.6879 37.124Z" fill="#EBEBEB"/>
<path d="M75.9018 37.6519L79.9498 27.9999C80.0457 27.7775 80.2259 27.6021 80.4507 27.5122C80.6756 27.4222 80.927 27.425 81.1498 27.5199C81.3667 27.6139 81.5373 27.7902 81.6243 28.0099C81.7113 28.2296 81.7075 28.4749 81.6138 28.6919L77.5698 38.3639C77.4981 38.5266 77.3803 38.6647 77.2311 38.7614C77.0819 38.8581 76.9076 38.909 76.7298 38.9079C76.6159 38.9105 76.5027 38.8886 76.3978 38.8439C76.2852 38.8005 76.1825 38.7348 76.096 38.6506C76.0095 38.5664 75.941 38.4655 75.8946 38.3541C75.8482 38.2426 75.825 38.1229 75.8262 38.0022C75.8275 37.8815 75.8532 37.7624 75.9018 37.6519Z" fill="#EBEBEB"/>
<path d="M89.623 33.768C89.5895 33.8115 89.5505 33.8505 89.507 33.884L84.847 38.612C84.6458 38.8018 84.3797 38.9076 84.103 38.9076C83.8264 38.9076 83.5602 38.8018 83.359 38.612C83.2613 38.5143 83.1838 38.3983 83.1309 38.2706C83.078 38.143 83.0508 38.0061 83.0508 37.868C83.0508 37.7298 83.078 37.5929 83.1309 37.4653C83.1838 37.3376 83.2613 37.2216 83.359 37.124L87.275 33.172L83.359 29.22C83.2613 29.1223 83.1838 29.0063 83.1309 28.8786C83.078 28.751 83.0508 28.6141 83.0508 28.476C83.0508 28.3378 83.078 28.201 83.1309 28.0733C83.1838 27.9456 83.2613 27.8296 83.359 27.732C83.5598 27.5412 83.8261 27.4348 84.103 27.4348C84.38 27.4348 84.6463 27.5412 84.847 27.732L89.491 32.444C89.5345 32.4775 89.5735 32.5164 89.607 32.56V32.592C89.6393 32.6401 89.6674 32.691 89.691 32.744C89.691 32.744 89.691 32.744 89.691 32.776C89.7018 32.8274 89.7193 32.8771 89.743 32.924C89.743 32.924 89.743 32.924 89.743 32.972V33.088C89.743 33.088 89.743 33.156 89.743 33.172C89.743 33.188 89.743 33.24 89.743 33.256V33.388C89.743 33.388 89.743 33.388 89.743 33.42C89.7223 33.468 89.7049 33.5175 89.691 33.568C89.691 33.568 89.691 33.568 89.691 33.62C89.691 33.672 89.659 33.7 89.623 33.768Z" fill="#EBEBEB"/>
<g opacity="0.7">
<path d="M128.904 63.1801V38.5521H80.9603V63.1801H128.904Z" fill="white"/>
<path d="M129.005 63.28H80.8613V38.452H129.005V63.28ZM81.0613 63.08H128.797V38.652H81.0613V63.08Z" fill="#EAF4EF"/>
<path d="M83.86 59.9761H104V41.7521H83.86V59.9761Z" fill="#2F945A"/>
<path opacity="0.1" d="M86.4608 45.7401C86.3712 46.1939 86.4298 46.6644 86.628 47.0823C86.8263 47.5002 87.1537 47.8433 87.5619 48.0608C87.97 48.2784 88.4374 48.3589 88.8948 48.2905C89.3523 48.2221 89.7756 48.0084 90.1022 47.6809C90.4289 47.3535 90.6416 46.9296 90.709 46.472C90.7763 46.0144 90.6947 45.5473 90.4762 45.1396C90.2576 44.732 89.9138 44.4054 89.4955 44.2081C89.0771 44.0109 88.6064 43.9534 88.1528 44.0441C87.7347 44.1278 87.3508 44.3336 87.0496 44.6355C86.7484 44.9374 86.5435 45.3218 86.4608 45.7401Z" fill="white"/>
<path opacity="0.2" d="M89.5293 56.052H104.001L96.7653 46.244L89.5293 56.052Z" fill="white"/>
<path d="M83.8613 56.0601H95.8093L89.8333 49.6721L83.8613 56.0601Z" fill="#2F945A"/>
<path opacity="0.1" d="M83.8613 56.0601H95.8093L89.8333 49.6721L83.8613 56.0601Z" fill="white"/>
<path d="M104.001 56.0521H83.8613V59.9801H104.001V56.0521Z" fill="#2F945A"/>
<path opacity="0.1" d="M104.001 56.0521H83.8613V59.9801H104.001V56.0521Z" fill="white"/>
<path d="M124.529 41.7561H107.373V43.0041H124.529V41.7561Z" fill="#EBEBEB"/>
<path d="M124.529 44.3401H107.373V45.5881H124.529V44.3401Z" fill="#EBEBEB"/>
<path d="M124.529 46.9241H107.373V48.1721H124.529V46.9241Z" fill="#EBEBEB"/>
<path d="M124.529 49.5081H107.373V50.7561H124.529V49.5081Z" fill="#EBEBEB"/>
<path d="M124.529 52.092H107.373V53.34H124.529V52.092Z" fill="#EBEBEB"/>
</g>
<path d="M88.7116 104.076H66.0156V102.312L88.7116 101.576V104.076Z" fill="#EAF4EF"/>
<path d="M106.547 104.044H91.5987C90.3187 104.044 92.1667 100.408 96.8307 99.0121C101.495 97.6161 108.019 102.68 106.547 104.044Z" fill="#74B790"/>
<path d="M100.677 104.044C100.648 103.625 100.69 103.205 100.801 102.8C100.913 102.392 101.078 102.001 101.293 101.636C101.513 101.27 101.791 100.943 102.117 100.668C102.438 100.393 102.812 100.187 103.217 100.064C102.9 100.316 102.605 100.593 102.333 100.892C102.071 101.187 101.838 101.505 101.637 101.844C101.236 102.539 100.914 103.277 100.677 104.044Z" fill="#BFDECC"/>
<path d="M102.449 100.584C102.906 100.69 103.35 100.845 103.773 101.048C104.201 101.246 104.611 101.482 104.997 101.752C105.392 102.024 105.744 102.353 106.041 102.728C106.359 103.094 106.539 103.559 106.549 104.044C106.393 103.619 106.138 103.238 105.805 102.932C105.483 102.619 105.135 102.334 104.765 102.08C104.029 101.548 103.237 101.088 102.449 100.584Z" fill="#BFDECC"/>
<path d="M117.291 97.0001H80.8945L86.6825 69.9041H123.079L117.291 97.0001Z" fill="#EAF4EF"/>
<path d="M118.64 97.0001H82.2441L88.0321 69.9041H124.428L118.64 97.0001Z" fill="#74B790"/>
<path d="M99.0083 87.288H98.1562L99.4523 81.208H100.304L99.0083 87.288Z" fill="#BFDECC"/>
<path d="M100.692 87.288H99.8398L101.136 81.208H101.988L100.692 87.288Z" fill="#BFDECC"/>
<path d="M102.375 87.288H101.523L102.819 81.208H103.671L102.375 87.288Z" fill="#BFDECC"/>
<path d="M104.065 87.288H103.209L104.505 81.208H105.357L104.065 87.288Z" fill="#BFDECC"/>
<path d="M105.749 87.288H104.893L106.189 81.208H107.045L105.749 87.288Z" fill="#BFDECC"/>
<path d="M107.432 87.288H106.576L107.872 81.208H108.728L107.432 87.288Z" fill="#BFDECC"/>
<path d="M109.116 87.288H108.26L109.556 81.208H110.412L109.116 87.288Z" fill="#BFDECC"/>
<path d="M108.347 104.08H90.4434V102.688L108.347 102.108V104.08Z" fill="#EAF4EF"/>
<path d="M113.213 104.076H103.601L97.8125 88.892H107.424L113.213 104.076Z" fill="#EAF4EF"/>
<path d="M114.796 104.076H105.184L99.3965 88.892H109.008L114.796 104.076Z" fill="#BFDECC"/>
<path d="M150.4 149.564C150.4 149.564 141.532 147.564 136.672 143.076C131.812 138.588 129.1 130.576 129.1 130.576C132.474 131.226 135.8 132.103 139.056 133.2C139.856 134.048 141.36 135.796 142.064 137.452C142.146 136.441 142.154 135.425 142.088 134.412C143.222 134.904 144.284 135.549 145.244 136.328C149.276 139.844 150.4 149.564 150.4 149.564Z" fill="#2F945A"/>
<path d="M134.648 134.476C133.448 133.636 132.208 132.832 131.004 131.988C130.992 131.977 130.985 131.962 130.983 131.946C130.981 131.93 130.984 131.914 130.993 131.9C131.001 131.886 131.014 131.875 131.029 131.869C131.044 131.864 131.06 131.863 131.076 131.868C133.364 133.232 135.616 134.692 137.792 136.22C138.552 136.752 139.3 137.308 140.036 137.872L139.884 137.608C139.616 137.164 139.336 136.728 139.056 136.292C138.5 135.402 137.87 134.56 137.172 133.776C137.148 133.748 137.192 133.708 137.216 133.736C137.908 134.536 138.596 135.336 139.216 136.164C139.516 136.564 139.792 136.964 140.056 137.408C140.196 137.628 140.328 137.852 140.456 138.076L140.588 138.304C141.736 139.204 142.852 140.144 143.916 141.136C144.576 141.752 145.208 142.384 145.82 143.04C145.48 141.968 145.18 140.884 144.78 139.84C144.78 139.804 144.828 139.792 144.84 139.84C145.24 140.948 145.64 142.06 145.948 143.2C146.628 143.931 147.275 144.692 147.888 145.484C147.888 145.436 147.868 145.388 147.856 145.34C147.756 144.94 147.652 144.504 147.54 144.092C147.324 143.292 147.088 142.492 146.816 141.692C146.312 140.061 145.509 138.538 144.448 137.2C144.424 137.168 144.468 137.128 144.492 137.156C146.224 139.208 147.24 141.668 147.888 144.248C147.98 144.628 148.072 145.004 148.156 145.384C148.204 145.584 148.256 145.784 148.292 145.996C148.56 146.36 148.82 146.724 149.072 147.1C150.584 149.411 151.842 151.879 152.824 154.46C153.934 157.358 154.883 160.314 155.668 163.316C155.668 163.376 155.596 163.396 155.576 163.34C153.84 158.14 152.072 152.888 149.104 148.252C148.476 147.272 147.796 146.328 147.076 145.416C145.607 145.322 144.157 145.034 142.764 144.56C141.242 144.047 139.791 143.346 138.444 142.472C137.677 141.953 136.938 141.395 136.228 140.8C136.224 140.798 136.22 140.795 136.217 140.791C136.214 140.787 136.212 140.783 136.211 140.778C136.21 140.773 136.21 140.768 136.212 140.764C136.213 140.759 136.215 140.755 136.218 140.751C136.221 140.747 136.225 140.744 136.229 140.742C136.234 140.74 136.238 140.739 136.243 140.74C136.248 140.74 136.253 140.741 136.257 140.743C136.261 140.745 136.265 140.748 136.268 140.752C137.506 141.748 138.873 142.571 140.332 143.2C141.764 143.854 143.262 144.354 144.8 144.692C145.456 144.836 146.12 144.94 146.8 145.032C145.978 144.021 145.105 143.053 144.184 142.132C143.884 141.836 143.576 141.548 143.268 141.26C142.234 140.536 141.136 139.909 139.988 139.384C138.536 138.68 137.108 137.936 135.668 137.204C134.868 136.804 134.068 136.368 133.232 135.972C133.2 135.952 133.232 135.904 133.264 135.92C134.724 136.624 136.204 137.28 137.664 137.956C139.052 138.588 140.464 139.224 141.78 139.956L141.948 140.056C140.748 139.012 139.504 138.012 138.232 137.052C137.052 136.18 135.86 135.312 134.648 134.476Z" fill="#263238"/>
<path d="M135.152 139.044C135.872 139.36 136.608 139.64 137.32 139.976C138.032 140.312 138.748 140.72 139.448 141.132C139.476 141.152 139.448 141.192 139.42 141.18C138.712 140.84 137.996 140.524 137.296 140.172C136.596 139.82 135.868 139.424 135.132 139.104C135.1 139.088 135.116 139.028 135.152 139.044Z" fill="#263238"/>
<path d="M179.2 104.88C177.562 106.994 176.635 109.571 176.552 112.244C176.52 113.044 176.648 114.144 176.74 115.444C173.448 117.2 170.968 120.4 170.968 120.4C172.848 119.272 175.424 118.8 176.816 119C176.771 119.89 176.657 120.775 176.476 121.648C175.864 121.612 174.676 121.696 172.716 122.392C173.881 122.38 175.036 122.609 176.108 123.064C174.528 128.096 169.828 133.26 156.856 135.464C155.478 129.294 156.29 122.837 159.152 117.2C163.04 109.548 179.2 104.88 179.2 104.88Z" fill="#2F945A"/>
<path d="M152.364 156.968C152.591 154.819 152.871 152.676 153.204 150.54C153.862 146.267 154.735 142.029 155.82 137.844C156.328 135.879 156.955 133.946 157.696 132.056C157.656 131.711 157.64 131.363 157.648 131.016C157.648 130.616 157.648 130.184 157.648 129.772C157.648 128.94 157.688 128.109 157.768 127.28C157.901 125.639 158.168 124.013 158.568 122.416C158.804 121.492 159.08 120.584 159.368 119.668C159.371 119.662 159.375 119.657 159.38 119.653C159.385 119.649 159.392 119.647 159.398 119.647C159.405 119.647 159.411 119.649 159.417 119.653C159.422 119.657 159.426 119.662 159.428 119.668C158.997 121.263 158.676 122.885 158.468 124.524C158.226 126.144 158.069 127.775 158 129.412C158 129.856 157.976 130.3 157.976 130.748C157.976 130.936 157.976 131.128 157.976 131.32C158.618 129.77 159.354 128.26 160.18 126.8C161.499 124.482 162.983 122.261 164.62 120.156C164.626 119.911 164.663 119.668 164.728 119.432C164.788 119.14 164.852 118.852 164.916 118.564C165.048 117.972 165.196 117.364 165.36 116.796C165.68 115.62 166.108 114.484 166.476 113.324C166.476 113.32 166.477 113.317 166.478 113.313C166.48 113.31 166.482 113.307 166.484 113.304C166.487 113.302 166.49 113.3 166.494 113.298C166.497 113.297 166.501 113.296 166.504 113.296C166.508 113.296 166.512 113.297 166.515 113.298C166.518 113.3 166.521 113.302 166.524 113.304C166.527 113.307 166.529 113.31 166.53 113.313C166.532 113.317 166.532 113.32 166.532 113.324C166.188 114.472 165.964 115.664 165.7 116.832C165.568 117.412 165.444 117.992 165.3 118.572C165.236 118.86 165.172 119.148 165.112 119.44V119.504C165.64 118.844 166.172 118.188 166.712 117.548C169.188 114.644 171.912 111.948 174.64 109.304C174.976 108.976 175.32 108.656 175.66 108.332C175.666 108.328 175.674 108.327 175.681 108.327C175.688 108.328 175.695 108.332 175.7 108.337C175.705 108.342 175.708 108.348 175.709 108.355C175.71 108.363 175.708 108.37 175.704 108.376C173.092 111.104 170.504 113.86 168.08 116.744C167.504 117.432 166.932 118.124 166.372 118.828C166.668 118.628 166.964 118.428 167.256 118.244C168.012 117.748 168.776 117.268 169.564 116.828C170.352 116.388 171.144 115.956 171.964 115.552C172.784 115.148 173.688 114.804 174.488 114.352C174.524 114.332 174.552 114.388 174.52 114.404C173.7 114.784 172.909 115.222 172.152 115.716C171.352 116.184 170.572 116.656 169.796 117.148C169.02 117.64 168.268 118.108 167.512 118.6C166.88 119 166.26 119.456 165.604 119.836C164.101 121.769 162.714 123.788 161.448 125.884C160.664 127.206 159.947 128.566 159.3 129.96L159.764 129.76L160.964 129.232C161.728 128.892 162.496 128.56 163.26 128.228C164.716 127.596 166.192 127.028 167.62 126.32C168.425 125.942 169.202 125.511 169.948 125.028C169.98 125.004 170.008 125.056 169.98 125.08C167.32 126.912 164.336 128.204 161.392 129.508L160.116 130.072C159.764 130.228 159.412 130.4 159.052 130.536C158.182 132.483 157.448 134.487 156.856 136.536C155.697 140.668 154.756 144.858 154.036 149.088C153.292 153.324 152.788 157.592 152.4 161.888C152.352 162.424 152.304 162.956 152.24 163.488C152.24 163.533 152.223 163.575 152.191 163.607C152.16 163.638 152.117 163.656 152.072 163.656C152.028 163.656 151.985 163.638 151.954 163.607C151.922 163.575 151.904 163.533 151.904 163.488C151.916 161.308 152.14 159.128 152.364 156.968Z" fill="#263238"/>
<path d="M160.255 121.14C160.495 119.82 160.847 118.532 161.203 117.24C161.203 117.2 161.267 117.22 161.259 117.24C160.931 118.508 160.695 119.8 160.459 121.088C160.223 122.376 159.999 123.716 159.815 125.036C159.815 125.056 159.779 125.06 159.779 125.036C159.866 123.73 160.025 122.429 160.255 121.14Z" fill="#263238"/>
<path d="M165.848 124.716C166.75 124.117 167.694 123.582 168.672 123.116C169.144 122.872 169.624 122.64 170.1 122.408C170.576 122.176 171.108 121.968 171.596 121.724C171.603 121.722 171.61 121.723 171.616 121.725C171.622 121.728 171.627 121.733 171.631 121.738C171.635 121.744 171.636 121.751 171.636 121.758C171.635 121.765 171.632 121.771 171.628 121.776C171.152 122.012 170.704 122.3 170.236 122.556C169.768 122.812 169.28 123.084 168.796 123.356C167.848 123.864 166.916 124.428 165.92 124.844C165.912 124.849 165.902 124.852 165.893 124.853C165.883 124.854 165.873 124.853 165.864 124.851C165.855 124.848 165.846 124.844 165.839 124.838C165.831 124.832 165.825 124.825 165.82 124.816C165.815 124.808 165.812 124.798 165.811 124.789C165.81 124.779 165.811 124.77 165.813 124.76C165.816 124.751 165.82 124.742 165.826 124.735C165.832 124.727 165.84 124.721 165.848 124.716Z" fill="#263238"/>
<path opacity="0.1" d="M150.252 134.204C150.252 134.204 142.048 132.244 138.28 126.74C134.68 121.484 133.52 112.524 133.424 111.736C133.572 112.456 135.268 120.288 140.852 123.936C145.128 126.732 149.264 129.028 150.252 134.204Z" fill="#263238"/>
<path d="M150.251 134.204C150.251 134.204 142.047 132.244 138.279 126.74C134.679 121.484 133.519 112.524 133.423 111.736C133.421 111.718 133.421 111.699 133.423 111.68C133.423 111.68 137.359 117.28 141.495 118.7C145.631 120.12 151.435 125.06 150.251 134.204Z" fill="#2F945A"/>
<path d="M134.871 114.764C135.605 116.272 136.453 117.721 137.407 119.1C138.364 120.411 139.501 121.581 140.783 122.576C141.895 123.46 143.075 124.264 144.203 125.128L144.175 125.088C143.963 124.776 143.739 124.468 143.503 124.172C143.035 123.572 142.523 123.004 142.007 122.444C140.987 121.336 139.943 120.252 139.031 119.056C138.522 118.396 138.081 117.685 137.715 116.936C137.715 116.9 137.755 116.88 137.771 116.936C139.103 119.708 141.771 121.484 143.659 123.824C143.928 124.158 144.181 124.505 144.415 124.864C144.604 125.122 144.762 125.401 144.887 125.696C145.926 126.528 146.865 127.477 147.687 128.524C147.616 127.984 147.507 127.449 147.359 126.924C147.167 126.195 146.874 125.496 146.487 124.848C146.467 124.816 146.519 124.78 146.539 124.812C146.936 125.462 147.257 126.156 147.495 126.88C147.668 127.456 147.769 128.051 147.795 128.652C148.2 129.203 148.57 129.779 148.903 130.376C148.867 130.2 148.835 130.024 148.799 129.848C148.639 129.048 148.459 128.216 148.247 127.412C147.86 125.773 147.193 124.212 146.275 122.8C146.273 122.793 146.274 122.787 146.276 122.78C146.279 122.774 146.283 122.769 146.289 122.765C146.295 122.761 146.302 122.76 146.309 122.76C146.315 122.761 146.322 122.764 146.327 122.768C147.267 124.163 148.003 125.685 148.515 127.288C148.775 128.088 148.983 128.912 149.167 129.74C149.259 130.14 149.339 130.54 149.415 130.94C149.455 131.148 149.503 131.364 149.535 131.58C150.35 133.365 150.984 135.228 151.427 137.14C152.241 140.556 152.833 144.02 153.199 147.512C153.621 151.168 153.809 154.848 153.763 158.528C153.763 158.988 153.731 159.448 153.703 159.912C153.703 160.028 153.519 160.048 153.515 159.912C153.435 158.092 153.387 156.272 153.279 154.452C153.171 152.632 153.011 150.816 152.819 149C152.438 145.437 151.86 141.899 151.087 138.4C150.423 135.4 149.559 132.38 147.919 129.752C147.104 128.445 146.107 127.26 144.959 126.232C143.811 125.2 142.559 124.296 141.359 123.34C140.13 122.407 139.014 121.333 138.035 120.14C137.032 118.815 136.159 117.396 135.427 115.904C135.235 115.532 135.027 115.164 134.839 114.792C134.799 114.764 134.851 114.732 134.871 114.764Z" fill="#263238"/>
<path d="M136.287 115.968C136.824 117.075 137.435 118.144 138.115 119.168C138.115 119.192 138.091 119.216 138.075 119.192C137.373 118.177 136.755 117.107 136.227 115.992C136.211 115.952 136.271 115.932 136.287 115.968Z" fill="#263238"/>
<path d="M180.36 130.576C180.36 130.576 180.492 142.236 173.52 145.6C166.548 148.964 162.808 146.164 158.072 147.292C158.256 147.016 161.636 142.156 167.016 140.816C172.556 139.428 178.684 135.432 180.36 130.576Z" fill="#2F945A"/>
<path opacity="0.1" d="M180.36 130.576C180.36 130.576 180.492 142.236 173.52 145.6C166.548 148.964 162.808 146.164 158.072 147.292C160.575 146.099 163.251 145.308 166 144.948C170.4 144.4 178.8 141.552 180.36 130.576Z" fill="black"/>
<path d="M157.6 147.5C158.429 146.744 159.362 146.111 160.372 145.62C160.524 145.548 160.676 145.492 160.828 145.428C160.901 145.334 160.98 145.245 161.064 145.16C161.27 144.94 161.489 144.732 161.72 144.536C162.155 144.158 162.624 143.819 163.12 143.524C164.276 142.844 165.544 142.368 166.72 141.74C166.723 141.738 166.727 141.737 166.731 141.737C166.734 141.736 166.738 141.737 166.742 141.738C166.746 141.739 166.749 141.741 166.752 141.743C166.755 141.746 166.758 141.749 166.76 141.752C166.761 141.756 166.763 141.759 166.763 141.763C166.763 141.767 166.763 141.771 166.762 141.775C166.761 141.778 166.759 141.782 166.756 141.785C166.754 141.788 166.751 141.79 166.748 141.792C166.164 142.096 165.6 142.428 165.032 142.76C164.464 143.092 163.916 143.392 163.376 143.736C162.891 144.048 162.43 144.394 161.996 144.772C161.876 144.88 161.756 144.996 161.64 145.116C162.41 144.855 163.197 144.645 163.996 144.488C165.272 144.232 166.564 144.048 167.836 143.776C168.46 143.644 169.077 143.477 169.684 143.276C170.264 142.812 170.84 142.348 171.388 141.844C172.053 141.238 172.657 140.568 173.192 139.844C173.216 139.812 173.268 139.844 173.244 139.876C172.398 141.021 171.44 142.078 170.384 143.032C170.684 142.916 170.984 142.796 171.276 142.66C173.669 141.585 175.722 139.877 177.216 137.72C177.24 137.688 177.292 137.72 177.268 137.748C176.002 139.601 174.368 141.172 172.468 142.364C171.513 142.959 170.493 143.441 169.428 143.8C168.193 144.185 166.932 144.483 165.656 144.692C164.404 144.897 163.169 145.191 161.96 145.572C160.848 145.949 159.803 146.5 158.864 147.204C157.089 148.588 155.662 150.368 154.696 152.4C153.376 155.044 152.748 158 152.396 160.924C152.396 161.048 152.188 161.048 152.196 160.924C152.524 156 153.836 150.904 157.6 147.5Z" fill="#263238"/>
<path d="M165.704 143.696C166.069 143.153 166.56 142.707 167.136 142.396C167.798 142.053 168.379 141.573 168.84 140.988C168.864 140.956 168.916 140.988 168.892 141.02C168.474 141.554 167.965 142.011 167.388 142.368C166.754 142.703 166.196 143.164 165.748 143.724C165.728 143.752 165.684 143.724 165.704 143.696Z" fill="#263238"/>
<path d="M162.005 156.104L161.689 162.516L160.717 182.104H146.089L145.117 162.516L144.801 156.104H162.005Z" fill="#37474F"/>
<path d="M162.005 156.104L161.689 162.516H145.117L144.801 156.104H162.005Z" fill="#263238"/>
<path d="M163.031 153.428H143.775V159.544H163.031V153.428Z" fill="#37474F"/>
</svg>
