<svg width="24" height="24" viewBox="0 0 24 24" fill="none" xmlns="http://www.w3.org/2000/svg">
<path d="M9.2964 15.9038L12.0002 14.2634L14.7041 15.9038L13.9868 12.8288L16.3848 10.7615L13.2291 10.4961L12.0002 7.59616L10.7714 10.4961L7.61563 10.7615L10.0137 12.8288L9.2964 15.9038ZM12.0002 22.6076L8.86178 19.5H4.50025V15.1384L1.39258 12L4.50025 8.86153V4.50001H8.86178L12.0002 1.39233L15.1387 4.50001H19.5002V8.86153L22.6079 12L19.5002 15.1384V19.5H15.1387L12.0002 22.6076ZM12.0002 20.5L14.5002 18H18.0002V14.5L20.5002 12L18.0002 9.49998V5.99998H14.5002L12.0002 3.49998L9.50023 5.99998H6.00023V9.49998L3.50023 12L6.00023 14.5V18H9.50023L12.0002 20.5Z" fill="#F0C22F"/>
</svg>
