<svg width="20" height="20" viewBox="0 0 20 20" fill="none" xmlns="http://www.w3.org/2000/svg">
<path d="M6.2885 14.5115L10 10.8L13.7115 14.5115L14.5115 13.7115L10.8 10L14.5115 6.2885L13.7115 5.4885L10 9.2L6.2885 5.4885L5.4885 6.2885L9.2 10L5.4885 13.7115L6.2885 14.5115ZM10.0017 19.5C8.69808 19.5 7.46975 19.2507 6.31675 18.752C5.16375 18.2533 4.1555 17.5724 3.292 16.7092C2.4285 15.8461 1.74725 14.8383 1.24825 13.6858C0.749417 12.5334 0.5 11.3054 0.5 10.0017C0.5 8.68775 0.749333 7.45267 1.248 6.2965C1.74667 5.14033 2.42758 4.13467 3.29075 3.2795C4.15392 2.42433 5.16175 1.74725 6.31425 1.24825C7.46658 0.749417 8.69458 0.5 9.99825 0.5C11.3123 0.5 12.5473 0.749333 13.7035 1.248C14.8597 1.74667 15.8653 2.42342 16.7205 3.27825C17.5757 4.13308 18.2528 5.13833 18.7518 6.294C19.2506 7.44967 19.5 8.68442 19.5 9.99825C19.5 11.3019 19.2507 12.5302 18.752 13.6832C18.2533 14.8362 17.5766 15.8445 16.7218 16.708C15.8669 17.5715 14.8617 18.2528 13.706 18.7518C12.5503 19.2506 11.3156 19.5 10.0017 19.5ZM10 18.3652C12.3282 18.3652 14.3044 17.5506 15.9288 15.9212C17.5531 14.2917 18.3652 12.318 18.3652 10C18.3652 7.67183 17.5531 5.69558 15.9288 4.07125C14.3044 2.44692 12.3282 1.63475 10 1.63475C7.682 1.63475 5.70825 2.44692 4.07875 4.07125C2.44942 5.69558 1.63475 7.67183 1.63475 10C1.63475 12.318 2.44942 14.2917 4.07875 15.9212C5.70825 17.5506 7.682 18.3652 10 18.3652Z" fill="#F24822"/>
</svg>
