<svg width="270" height="151" viewBox="0 0 270 151" fill="none" xmlns="http://www.w3.org/2000/svg">
<rect width="270" height="150" transform="translate(0 0.125)" fill="url(#paint0_linear_12859_54900)"/>
<path d="M203.944 61.1719H160.571C159.818 61.1719 159.207 60.5612 159.207 59.8078V31.3944C159.207 30.6411 159.818 30.0303 160.571 30.0303H203.944C204.698 30.0303 205.308 30.641 205.308 31.3944V59.8079C205.308 60.5612 204.698 61.1719 203.944 61.1719Z" fill="#F1F1F1"/>
<path d="M202.147 61.1719H158.774C158.021 61.1719 157.41 60.5612 157.41 59.8078V31.3944C157.41 30.6411 158.021 30.0303 158.774 30.0303H202.147C202.901 30.0303 203.511 30.641 203.511 31.3944V59.8079C203.511 60.5612 202.901 61.1719 202.147 61.1719Z" fill="#DBDBDB"/>
<path d="M162.322 35.8537C162.059 35.8537 161.844 35.6383 161.844 35.3751V34.7921C161.844 34.5288 162.059 34.3135 162.322 34.3135C162.586 34.3135 162.801 34.5289 162.801 34.7921V35.3751C162.801 35.6384 162.586 35.8537 162.322 35.8537Z" fill="#F1F1F1"/>
<path d="M168.365 35.8537C168.102 35.8537 167.887 35.6383 167.887 35.3751V34.7921C167.887 34.5288 168.102 34.3135 168.365 34.3135C168.629 34.3135 168.844 34.5289 168.844 34.7921V35.3751C168.844 35.6384 168.629 35.8537 168.365 35.8537Z" fill="#F1F1F1"/>
<path d="M174.416 35.8537C174.153 35.8537 173.938 35.6383 173.938 35.3751V34.7921C173.938 34.5288 174.153 34.3135 174.416 34.3135C174.679 34.3135 174.895 34.5289 174.895 34.7921V35.3751C174.895 35.6384 174.679 35.8537 174.416 35.8537Z" fill="#F1F1F1"/>
<path d="M180.459 35.8537C180.196 35.8537 179.98 35.6383 179.98 35.3751V34.7921C179.98 34.5288 180.196 34.3135 180.459 34.3135C180.722 34.3135 180.938 34.5289 180.938 34.7921V35.3751C180.938 35.6384 180.722 35.8537 180.459 35.8537Z" fill="#F1F1F1"/>
<path d="M186.506 35.8537C186.243 35.8537 186.027 35.6383 186.027 35.3751V34.7921C186.027 34.5288 186.243 34.3135 186.506 34.3135C186.769 34.3135 186.985 34.5289 186.985 34.7921V35.3751C186.985 35.6384 186.769 35.8537 186.506 35.8537Z" fill="#F1F1F1"/>
<path d="M192.549 35.8537C192.286 35.8537 192.07 35.6383 192.07 35.3751V34.7921C192.07 34.5288 192.286 34.3135 192.549 34.3135C192.812 34.3135 193.028 34.5289 193.028 34.7921V35.3751C193.028 35.6384 192.812 35.8537 192.549 35.8537Z" fill="#F1F1F1"/>
<path d="M198.6 35.8537C198.336 35.8537 198.121 35.6383 198.121 35.3751V34.7921C198.121 34.5288 198.337 34.3135 198.6 34.3135C198.863 34.3135 199.078 34.5289 199.078 34.7921V35.3751C199.078 35.6384 198.863 35.8537 198.6 35.8537Z" fill="#F1F1F1"/>
<path d="M162.322 41.1125C162.059 41.1125 161.844 40.897 161.844 40.6339V40.0509C161.844 39.7876 162.059 39.5723 162.322 39.5723C162.586 39.5723 162.801 39.7877 162.801 40.0509V40.6339C162.801 40.8972 162.586 41.1125 162.322 41.1125Z" fill="#F1F1F1"/>
<path d="M168.365 41.1125C168.102 41.1125 167.887 40.897 167.887 40.6339V40.0509C167.887 39.7876 168.102 39.5723 168.365 39.5723C168.629 39.5723 168.844 39.7877 168.844 40.0509V40.6339C168.844 40.8972 168.629 41.1125 168.365 41.1125Z" fill="#F1F1F1"/>
<path d="M174.416 41.1125C174.153 41.1125 173.938 40.897 173.938 40.6339V40.0509C173.938 39.7876 174.153 39.5723 174.416 39.5723C174.679 39.5723 174.895 39.7877 174.895 40.0509V40.6339C174.895 40.8972 174.679 41.1125 174.416 41.1125Z" fill="#F1F1F1"/>
<path d="M180.459 41.1125C180.196 41.1125 179.98 40.897 179.98 40.6339V40.0509C179.98 39.7876 180.196 39.5723 180.459 39.5723C180.722 39.5723 180.938 39.7877 180.938 40.0509V40.6339C180.938 40.8972 180.722 41.1125 180.459 41.1125Z" fill="#F1F1F1"/>
<path d="M186.506 41.1125C186.243 41.1125 186.027 40.897 186.027 40.6339V40.0509C186.027 39.7876 186.243 39.5723 186.506 39.5723C186.769 39.5723 186.985 39.7877 186.985 40.0509V40.6339C186.985 40.8972 186.769 41.1125 186.506 41.1125Z" fill="#F1F1F1"/>
<path d="M192.549 41.1125C192.286 41.1125 192.07 40.897 192.07 40.6339V40.0509C192.07 39.7876 192.286 39.5723 192.549 39.5723C192.812 39.5723 193.028 39.7877 193.028 40.0509V40.6339C193.028 40.8972 192.812 41.1125 192.549 41.1125Z" fill="#F1F1F1"/>
<path d="M198.6 41.1125C198.336 41.1125 198.121 40.897 198.121 40.6339V40.0509C198.121 39.7876 198.337 39.5723 198.6 39.5723C198.863 39.5723 199.078 39.7877 199.078 40.0509V40.6339C199.078 40.8972 198.863 41.1125 198.6 41.1125Z" fill="#F1F1F1"/>
<path d="M162.322 46.3703C162.059 46.3703 161.844 46.1549 161.844 45.8917V45.3087C161.844 45.0454 162.059 44.8301 162.322 44.8301C162.586 44.8301 162.801 45.0455 162.801 45.3087V45.8917C162.801 46.1549 162.586 46.3703 162.322 46.3703Z" fill="#F1F1F1"/>
<path d="M168.365 46.3703C168.102 46.3703 167.887 46.1549 167.887 45.8917V45.3087C167.887 45.0454 168.102 44.8301 168.365 44.8301C168.629 44.8301 168.844 45.0455 168.844 45.3087V45.8917C168.844 46.1549 168.629 46.3703 168.365 46.3703Z" fill="#F1F1F1"/>
<path d="M174.416 46.3703C174.153 46.3703 173.938 46.1549 173.938 45.8917V45.3087C173.938 45.0454 174.153 44.8301 174.416 44.8301C174.679 44.8301 174.895 45.0455 174.895 45.3087V45.8917C174.895 46.1549 174.679 46.3703 174.416 46.3703Z" fill="#F1F1F1"/>
<path d="M180.459 46.3703C180.196 46.3703 179.98 46.1549 179.98 45.8917V45.3087C179.98 45.0454 180.196 44.8301 180.459 44.8301C180.722 44.8301 180.938 45.0455 180.938 45.3087V45.8917C180.938 46.1549 180.722 46.3703 180.459 46.3703Z" fill="#F1F1F1"/>
<path d="M186.506 46.3703C186.243 46.3703 186.027 46.1549 186.027 45.8917V45.3087C186.027 45.0454 186.243 44.8301 186.506 44.8301C186.769 44.8301 186.985 45.0455 186.985 45.3087V45.8917C186.985 46.1549 186.769 46.3703 186.506 46.3703Z" fill="#F1F1F1"/>
<path d="M192.549 46.3703C192.286 46.3703 192.07 46.1549 192.07 45.8917V45.3087C192.07 45.0454 192.286 44.8301 192.549 44.8301C192.812 44.8301 193.028 45.0455 193.028 45.3087V45.8917C193.028 46.1549 192.812 46.3703 192.549 46.3703Z" fill="#F1F1F1"/>
<path d="M198.6 46.3703C198.336 46.3703 198.121 46.1549 198.121 45.8917V45.3087C198.121 45.0454 198.337 44.8301 198.6 44.8301C198.863 44.8301 199.078 45.0455 199.078 45.3087V45.8917C199.078 46.1549 198.863 46.3703 198.6 46.3703Z" fill="#F1F1F1"/>
<path d="M162.322 51.6301C162.059 51.6301 161.844 51.4146 161.844 51.1515V50.5684C161.844 50.3051 162.059 50.0898 162.322 50.0898C162.586 50.0898 162.801 50.3053 162.801 50.5684V51.1515C162.801 51.4146 162.586 51.6301 162.322 51.6301Z" fill="#F1F1F1"/>
<path d="M168.365 51.6301C168.102 51.6301 167.887 51.4146 167.887 51.1515V50.5684C167.887 50.3051 168.102 50.0898 168.365 50.0898C168.629 50.0898 168.844 50.3053 168.844 50.5684V51.1515C168.844 51.4146 168.629 51.6301 168.365 51.6301Z" fill="#F1F1F1"/>
<path d="M174.416 51.6301C174.153 51.6301 173.938 51.4146 173.938 51.1515V50.5684C173.938 50.3051 174.153 50.0898 174.416 50.0898C174.679 50.0898 174.895 50.3053 174.895 50.5684V51.1515C174.895 51.4146 174.679 51.6301 174.416 51.6301Z" fill="#F1F1F1"/>
<path d="M180.459 51.6301C180.196 51.6301 179.98 51.4146 179.98 51.1515V50.5684C179.98 50.3051 180.196 50.0898 180.459 50.0898C180.722 50.0898 180.938 50.3053 180.938 50.5684V51.1515C180.938 51.4146 180.722 51.6301 180.459 51.6301Z" fill="#F1F1F1"/>
<path d="M186.506 51.6301C186.243 51.6301 186.027 51.4146 186.027 51.1515V50.5684C186.027 50.3051 186.243 50.0898 186.506 50.0898C186.769 50.0898 186.985 50.3053 186.985 50.5684V51.1515C186.985 51.4146 186.769 51.6301 186.506 51.6301Z" fill="#F1F1F1"/>
<path d="M192.549 51.6301C192.286 51.6301 192.07 51.4146 192.07 51.1515V50.5684C192.07 50.3051 192.286 50.0898 192.549 50.0898C192.812 50.0898 193.028 50.3053 193.028 50.5684V51.1515C193.028 51.4146 192.812 51.6301 192.549 51.6301Z" fill="#F1F1F1"/>
<path d="M198.6 51.6301C198.336 51.6301 198.121 51.4146 198.121 51.1515V50.5684C198.121 50.3051 198.337 50.0898 198.6 50.0898C198.863 50.0898 199.078 50.3053 199.078 50.5684V51.1515C199.078 51.4146 198.863 51.6301 198.6 51.6301Z" fill="#F1F1F1"/>
<path d="M162.322 56.8888C162.059 56.8888 161.844 56.6734 161.844 56.4102V55.8272C161.844 55.5639 162.059 55.3486 162.322 55.3486C162.586 55.3486 162.801 55.5641 162.801 55.8272V56.4102C162.801 56.6734 162.586 56.8888 162.322 56.8888Z" fill="#F1F1F1"/>
<path d="M168.365 56.8888C168.102 56.8888 167.887 56.6734 167.887 56.4102V55.8272C167.887 55.5639 168.102 55.3486 168.365 55.3486C168.629 55.3486 168.844 55.5641 168.844 55.8272V56.4102C168.844 56.6734 168.629 56.8888 168.365 56.8888Z" fill="#F1F1F1"/>
<path d="M174.416 56.8888C174.153 56.8888 173.938 56.6734 173.938 56.4102V55.8272C173.938 55.5639 174.153 55.3486 174.416 55.3486C174.679 55.3486 174.895 55.5641 174.895 55.8272V56.4102C174.895 56.6734 174.679 56.8888 174.416 56.8888Z" fill="#F1F1F1"/>
<path d="M180.459 56.8888C180.196 56.8888 179.98 56.6734 179.98 56.4102V55.8272C179.98 55.5639 180.196 55.3486 180.459 55.3486C180.722 55.3486 180.938 55.5641 180.938 55.8272V56.4102C180.938 56.6734 180.722 56.8888 180.459 56.8888Z" fill="#F1F1F1"/>
<path d="M186.506 56.8888C186.243 56.8888 186.027 56.6734 186.027 56.4102V55.8272C186.027 55.5639 186.243 55.3486 186.506 55.3486C186.769 55.3486 186.985 55.5641 186.985 55.8272V56.4102C186.985 56.6734 186.769 56.8888 186.506 56.8888Z" fill="#F1F1F1"/>
<path d="M192.549 56.8888C192.286 56.8888 192.07 56.6734 192.07 56.4102V55.8272C192.07 55.5639 192.286 55.3486 192.549 55.3486C192.812 55.3486 193.028 55.5641 193.028 55.8272V56.4102C193.028 56.6734 192.812 56.8888 192.549 56.8888Z" fill="#F1F1F1"/>
<path d="M198.6 56.8888C198.336 56.8888 198.121 56.6734 198.121 56.4102V55.8272C198.121 55.5639 198.337 55.3486 198.6 55.3486C198.863 55.3486 199.078 55.5641 199.078 55.8272V56.4102C199.078 56.6734 198.863 56.8888 198.6 56.8888Z" fill="#F1F1F1"/>
<path d="M207.369 31.5192H154.257C154.023 31.5192 153.832 31.328 153.832 31.0942V27.0578C153.832 26.824 154.023 26.6328 154.257 26.6328H207.369C207.603 26.6328 207.794 26.824 207.794 27.0578V31.0942C207.794 31.328 207.603 31.5192 207.369 31.5192Z" fill="#F1F1F1"/>
<path d="M162.322 35.084C161.855 35.084 161.477 35.4625 161.477 35.9293C161.477 36.3962 161.855 36.7746 162.322 36.7746C162.789 36.7746 163.167 36.3961 163.167 35.9293C163.167 35.4624 162.789 35.084 162.322 35.084ZM162.322 36.1267C162.213 36.1267 162.124 36.0383 162.124 35.9293C162.124 35.8203 162.213 35.7319 162.322 35.7319C162.431 35.7319 162.519 35.8203 162.519 35.9293C162.519 36.0383 162.431 36.1267 162.322 36.1267Z" fill="white"/>
<path d="M162.636 38.4834L162.322 38.7137L162.008 38.5041V36.5332H162.636V37.02L162.43 37.1285L162.636 37.3279V37.4766L162.519 37.6388L162.636 37.7268V37.8839L162.519 38.0309L162.636 38.1121V38.4834Z" fill="white"/>
<path d="M174.416 45.6006C173.949 45.6006 173.57 45.9791 173.57 46.4459C173.57 46.9127 173.949 47.2912 174.416 47.2912C174.882 47.2912 175.261 46.9127 175.261 46.4459C175.261 45.9791 174.883 45.6006 174.416 45.6006ZM174.416 46.6433C174.307 46.6433 174.218 46.5549 174.218 46.4459C174.218 46.3369 174.307 46.2485 174.416 46.2485C174.525 46.2485 174.613 46.3369 174.613 46.4459C174.613 46.5551 174.525 46.6433 174.416 46.6433Z" fill="white"/>
<path d="M174.726 49.0008L174.412 49.2311L174.098 49.0216V47.0508H174.726V47.5375L174.52 47.646L174.726 47.8455V47.9941L174.609 48.1564L174.726 48.2443V48.4014L174.609 48.5485L174.726 48.6295V49.0008Z" fill="white"/>
<path d="M162.009 51.1602C161.542 51.1602 161.164 51.5387 161.164 52.0055C161.164 52.4724 161.543 52.8508 162.009 52.8508C162.476 52.8508 162.855 52.4722 162.855 52.0055C162.855 51.5387 162.476 51.1602 162.009 51.1602ZM162.009 52.2029C161.9 52.2029 161.812 52.1145 161.812 52.0055C161.812 51.8964 161.9 51.8081 162.009 51.8081C162.118 51.8081 162.207 51.8964 162.207 52.0055C162.207 52.1145 162.118 52.2029 162.009 52.2029Z" fill="white"/>
<path d="M162.324 54.5614L162.01 54.7916L161.695 54.5821V52.6113H162.324V53.098L162.118 53.2066L162.324 53.406V53.5547L162.207 53.7169L162.324 53.8047V53.9619L162.207 54.109L162.324 54.19V54.5614Z" fill="white"/>
<path d="M180.459 34.959C179.992 34.959 179.613 35.3375 179.613 35.8043C179.613 36.2712 179.992 36.6496 180.459 36.6496C180.925 36.6496 181.304 36.2711 181.304 35.8043C181.304 35.3375 180.926 34.959 180.459 34.959ZM180.459 36.0017C180.35 36.0017 180.261 35.9133 180.261 35.8043C180.261 35.6953 180.35 35.6069 180.459 35.6069C180.568 35.6069 180.656 35.6953 180.656 35.8043C180.656 35.9135 180.568 36.0017 180.459 36.0017Z" fill="white"/>
<path d="M180.777 38.3592L180.463 38.5895L180.148 38.38V36.4092H180.777V36.8959L180.571 37.0044L180.777 37.2039V37.3525L180.66 37.5148L180.777 37.6027V37.7598L180.66 37.9069L180.777 37.9879V38.3592Z" fill="white"/>
<path d="M137.88 106.298H60.7791C59.0802 106.298 57.7031 104.92 57.7031 103.222V35.2683C57.7031 33.5695 59.0802 32.1924 60.7791 32.1924H137.88C139.578 32.1924 140.956 33.5695 140.956 35.2683V103.222C140.956 104.92 139.579 106.298 137.88 106.298Z" fill="#F1F1F1"/>
<path d="M127.334 106.298H54.0373C52.3793 106.298 51.0352 104.954 51.0352 103.296V35.1945C51.0352 33.5365 52.3793 32.1924 54.0373 32.1924H127.334C128.992 32.1924 130.336 33.5365 130.336 35.1945V103.296C130.336 104.954 128.992 106.298 127.334 106.298Z" fill="white"/>
<path d="M73.9804 52.4466H58.884C57.6321 52.4466 56.6172 51.4317 56.6172 50.1798V39.3459C56.6172 38.094 57.6321 37.0791 58.884 37.0791H73.9804C75.2324 37.0791 76.2473 38.094 76.2473 39.3459V50.1798C76.2473 51.4317 75.2324 52.4466 73.9804 52.4466Z" fill="#F5F5F5"/>
<path d="M97.7109 52.4466H82.6145C81.3625 52.4466 80.3477 51.4317 80.3477 50.1798V39.3459C80.3477 38.094 81.3625 37.0791 82.6145 37.0791H97.7109C98.9629 37.0791 99.9777 38.094 99.9777 39.3459V50.1798C99.9777 51.4317 98.9629 52.4466 97.7109 52.4466Z" fill="#F5F5F5"/>
<path d="M121.445 52.4466H106.349C105.097 52.4466 104.082 51.4317 104.082 50.1798V39.3459C104.082 38.094 105.097 37.0791 106.349 37.0791H121.445C122.697 37.0791 123.712 38.094 123.712 39.3459V50.1798C123.712 51.4317 122.697 52.4466 121.445 52.4466Z" fill="#F5F5F5"/>
<path d="M73.9804 71.6908H58.884C57.6321 71.6908 56.6172 70.6759 56.6172 69.4239V58.5901C56.6172 57.3381 57.6321 56.3232 58.884 56.3232H73.9804C75.2324 56.3232 76.2473 57.3381 76.2473 58.5901V69.4239C76.2473 70.6759 75.2324 71.6908 73.9804 71.6908Z" fill="#F5F5F5"/>
<path d="M97.7109 71.6908H82.6145C81.3625 71.6908 80.3477 70.6759 80.3477 69.4239V58.5901C80.3477 57.3381 81.3625 56.3232 82.6145 56.3232H97.7109C98.9629 56.3232 99.9777 57.3381 99.9777 58.5901V69.4239C99.9777 70.6759 98.9629 71.6908 97.7109 71.6908Z" fill="#F5F5F5"/>
<path d="M121.445 71.6908H106.349C105.097 71.6908 104.082 70.6759 104.082 69.4239V58.5901C104.082 57.3381 105.097 56.3232 106.349 56.3232H121.445C122.697 56.3232 123.712 57.3381 123.712 58.5901V69.4239C123.712 70.6759 122.697 71.6908 121.445 71.6908Z" fill="#F5F5F5"/>
<path d="M73.9804 90.9349H58.884C57.6321 90.9349 56.6172 89.92 56.6172 88.6681V77.8342C56.6172 76.5823 57.6321 75.5674 58.884 75.5674H73.9804C75.2324 75.5674 76.2473 76.5823 76.2473 77.8342V88.6681C76.2473 89.92 75.2324 90.9349 73.9804 90.9349Z" fill="#F5F5F5"/>
<path d="M97.7109 90.9349H82.6145C81.3625 90.9349 80.3477 89.92 80.3477 88.6681V77.8342C80.3477 76.5823 81.3625 75.5674 82.6145 75.5674H97.7109C98.9629 75.5674 99.9777 76.5823 99.9777 77.8342V88.6681C99.9777 89.92 98.9629 90.9349 97.7109 90.9349Z" fill="#F5F5F5"/>
<path d="M121.445 90.9349H106.349C105.097 90.9349 104.082 89.92 104.082 88.6681V77.8342C104.082 76.5823 105.097 75.5674 106.349 75.5674H121.445C122.697 75.5674 123.712 76.5823 123.712 77.8342V88.6681C123.712 89.92 122.697 90.9349 121.445 90.9349Z" fill="#F5F5F5"/>
<path d="M183.435 68.7422L174.223 81.976H181.287L188.048 74.0136L183.435 68.7422Z" fill="#292B3A"/>
<path d="M201.26 44.5907C201.788 44.0061 202.758 44.4077 202.717 45.1941C202.692 45.6895 203.101 46.098 203.596 46.0726C204.382 46.0324 204.784 47.002 204.199 47.5296C203.831 47.862 203.831 48.4397 204.199 48.7721C204.784 49.2998 204.382 50.2693 203.596 50.2291C203.101 50.2038 202.692 50.6124 202.717 51.1075C202.758 51.894 201.788 52.2956 201.26 51.711C200.928 51.3429 200.35 51.3429 200.018 51.711C199.49 52.2956 198.521 51.894 198.561 51.1075C198.586 50.6122 198.178 50.2037 197.682 50.2291C196.896 50.2693 196.494 49.2997 197.079 48.7721C197.447 48.4397 197.447 47.862 197.079 47.5296C196.494 47.0019 196.896 46.0324 197.682 46.0726C198.178 46.0979 198.586 45.6893 198.561 45.1941C198.521 44.4077 199.49 44.0061 200.018 44.5907C200.35 44.9588 200.928 44.9588 201.26 44.5907Z" fill="#423547"/>
<path d="M199.91 49.888C200.778 49.7646 201.38 48.9527 201.256 48.0746C201.131 47.1965 200.326 46.5847 199.458 46.7082C198.59 46.8316 197.988 47.6435 198.113 48.5215C198.238 49.3996 199.042 50.0114 199.91 49.888Z" fill="#55577A"/>
<path d="M196.375 55.954C199.275 55.5415 201.288 52.8286 200.871 49.8944C200.453 46.9602 197.764 44.916 194.864 45.3284C191.964 45.7408 189.952 48.4538 190.369 51.388C190.786 54.3221 193.475 56.3664 196.375 55.954Z" fill="#4B3C51"/>
<path d="M192.622 121.731C193.208 118.985 193.154 117.745 193.154 117.745L199.611 94.3081L202.856 85.1299H186.182C186.182 85.1299 184.507 92.4068 184.396 94.3081C184.285 96.2094 182.219 120.417 182.219 120.417" fill="#42435E"/>
<path d="M197.872 122.996C196.795 117.495 194.397 110.536 192.242 102.415C192.211 102.433 188.047 85.1301 188.047 85.1301L203.194 84.7725C203.194 84.7725 205.62 88.7203 206.457 93.4725C206.754 97.2754 207.216 102.458 207.459 115.583C207.459 115.583 207.939 117.01 208.269 119.099" fill="#42435E"/>
<path d="M188.342 59.8146L195.23 58.3906L203.338 59.0163L204.844 64.8655L201.921 77.6697L201.902 80.209L202.594 82.6543C205.791 86.1606 198.011 87.436 192.162 87.3461C184.454 87.2275 185.838 84.1575 185.838 84.1575C185.838 84.1575 186.48 82.4647 186.64 80.1846C186.799 77.9045 186.476 75.0372 186.235 73.6958C186.235 73.6958 184.729 71.046 185.479 67.7911C186.367 63.9326 187.876 60.5711 188.342 59.8146Z" fill="#292B3A"/>
<path d="M204.845 64.8662L201.922 77.6704L201.902 80.2096L202.595 82.655C205.791 86.1613 198.011 87.4367 192.163 87.3467C184.455 87.2282 185.839 84.1582 185.839 84.1582C185.839 84.1582 186.481 82.4654 186.641 80.1853C186.8 77.9052 186.477 75.0379 186.236 73.6965C186.787 73.9261 186.484 72.7162 187.015 72.8711C194.068 74.9278 200.237 71.9338 204.845 64.8662Z" fill="#F5A700"/>
<path d="M193.537 62.3851C195.103 62.3851 197.844 61.3111 197.844 58.7976L197.669 52.3516H193.846L192.789 59.0167C192.789 59.0167 190.318 62.3851 193.537 62.3851Z" fill="#C98066"/>
<mask id="mask0_12859_54900" style="mask-type:luminance" maskUnits="userSpaceOnUse" x="191" y="52" width="7" height="11">
<path d="M193.537 62.3851C195.103 62.3851 197.844 61.3111 197.844 58.7976L197.669 52.3516H193.846L192.789 59.0167C192.789 59.0167 190.318 62.3851 193.537 62.3851Z" fill="white"/>
</mask>
<g mask="url(#mask0_12859_54900)">
<path d="M196.38 55.9662C196.38 55.9662 197.36 58.6784 191.359 58.9167L190.441 53.1594L195.875 51.6553L196.38 55.9662Z" fill="#A66249"/>
</g>
<path d="M190.316 50.1807L190.548 54.7898C190.548 56.319 191.742 57.5587 193.214 57.5587H194.006C196.149 57.5587 197.886 55.7543 197.886 53.5286V50.1805C197.886 48.0093 196.192 46.249 194.101 46.249C192.011 46.2493 190.316 48.0094 190.316 50.1807Z" fill="#C98066"/>
<path d="M196.813 50.8769C196.813 55.2355 198.634 51.6272 198.634 51.6272C198.634 51.6272 199.156 51.5643 199.523 51.7938C199.523 51.7938 200.482 48.0818 197.817 46.5356C196.176 45.5835 190.742 45.5922 190.45 49.1904C190.428 49.4556 191.144 48.9147 192.807 48.8122C195.892 48.6219 196.813 49.791 196.813 50.8769Z" fill="#4B3C51"/>
<path d="M199.178 52.8657C199.178 53.7031 198.697 54.3817 198.103 54.3817C197.509 54.3817 197.172 53.703 197.172 52.8657C197.172 52.0284 197.509 51.3496 198.103 51.3496C198.697 51.3496 199.178 52.0284 199.178 52.8657Z" fill="#C98066"/>
<path d="M200.151 58.6154C199.885 58.5988 199.644 58.7642 199.573 59.0111C196.509 69.6775 192.897 73.0502 192.538 73.9945C192.175 74.9511 191.809 89.5885 191.809 89.5885C191.809 89.5885 193.829 91.8189 205.888 91.9381C206.299 91.9422 206.615 91.5904 206.55 91.2008C206.178 88.98 203.996 83.8825 202.107 79.4109L203.664 71.3716C203.664 71.3716 205.431 59.0019 203.082 58.815C201.376 58.6791 200.923 58.6636 200.151 58.6154Z" fill="#2F945A"/>
<path d="M190.47 59.2095C190.627 59.1722 190.771 59.3044 190.739 59.4567C189.019 67.7154 188.381 71.8317 189.579 73.7616C189.917 74.3064 188.72 89.3385 188.72 89.3385C188.72 89.3385 185.26 91.3625 184.459 90.3529C184 89.7735 186.432 80.0091 186.432 80.0091L186.234 73.6957C186.234 73.6957 183.307 69.0958 183.198 68.0078C183.088 66.9198 186.308 61.1888 187.106 60.4357C187.684 59.8904 187.164 59.9981 190.47 59.2095Z" fill="#2F945A"/>
<path opacity="0.44" d="M186.144 72.8705C186.144 72.8705 184.731 71.0462 185.481 67.7912C185.872 66.0916 186.451 64.3338 187.016 62.834" stroke="#757575" stroke-width="0.40708" stroke-miterlimit="10" stroke-linecap="round" stroke-linejoin="round"/>
<path d="M191.262 52.9759C191.262 52.6457 191.49 52.3779 191.772 52.3779C192.055 52.3779 192.283 52.6457 192.283 52.9759" stroke="#4B3C51" stroke-width="0.304423" stroke-miterlimit="10" stroke-linecap="round" stroke-linejoin="round"/>
<path d="M193.898 52.9759C193.898 52.6457 194.127 52.3779 194.409 52.3779C194.691 52.3779 194.92 52.6457 194.92 52.9759" stroke="#4B3C51" stroke-width="0.304423" stroke-miterlimit="10" stroke-linecap="round" stroke-linejoin="round"/>
<path d="M192.578 46.25C192.578 46.25 189.789 46.8887 189.638 48.8632C189.579 49.6311 190.232 51.113 189.201 51.6645C188.5 52.0395 188.526 52.9676 188.677 53.038C188.86 53.1238 188.881 52.4346 189.635 52.1419C190.972 51.6235 190.919 50.5765 190.953 50.1714C191.056 48.944 193.032 48.8013 193.032 48.8013L192.578 46.25Z" fill="#4B3C51"/>
<path d="M198.95 68.7422L196.069 74.0765L188.944 79.6806L186.457 81.976H195.059C195.059 81.976 200.734 79.0331 201.562 78.0772C202.389 77.1211 203.563 74.0136 203.563 74.0136L198.95 68.7422Z" fill="#292B3A"/>
<path d="M200.641 64.1485C200.974 64.0954 203.084 58.8145 203.084 58.8145C203.084 58.8145 205.351 59.0851 206.409 62.1125C207.467 65.1398 203.654 74.6202 203.654 74.6202C201.94 74.9174 197.846 72.8703 196.406 71.4779L200.641 64.1485Z" fill="#2F945A"/>
<path d="M193.895 54.8418C193.895 54.8418 193.923 55.662 193.174 55.6966C192.396 55.7325 192.172 55.0492 192.172 55.0492" stroke="#A66249" stroke-width="0.424903" stroke-miterlimit="10" stroke-linecap="round" stroke-linejoin="round"/>
<path d="M191.039 51.7692C191.039 51.7692 191.254 51.4214 191.631 51.3895C191.812 51.3742 192.08 51.3964 192.282 51.6353" stroke="#4B3C51" stroke-width="0.324323" stroke-miterlimit="10" stroke-linecap="round" stroke-linejoin="round"/>
<path d="M195.106 51.7692C195.106 51.7692 194.891 51.4214 194.514 51.3895C194.333 51.3742 194.065 51.3964 193.863 51.6353" stroke="#4B3C51" stroke-width="0.324323" stroke-miterlimit="10" stroke-linecap="round" stroke-linejoin="round"/>
<path d="M225.454 138.969H56.4576C53.4909 138.969 51.0859 136.564 51.0859 133.597V81.9766H230.826V133.597C230.826 136.564 228.421 138.969 225.454 138.969Z" fill="white"/>
<path d="M230.826 125.117C212.016 96.6131 51.0859 96.3903 51.0859 96.3903V83.7822L230.826 83.5176V125.117Z" fill="#E7E7E7" fill-opacity="0.215686"/>
<path d="M233.294 88.1595H48.6216C47.1262 88.1595 45.9141 86.9473 45.9141 85.4519V84.6841C45.9141 83.1887 47.1262 81.9766 48.6216 81.9766H233.294C234.789 81.9766 236.002 83.1887 236.002 84.6841V85.4519C236.002 86.9472 234.789 88.1595 233.294 88.1595Z" fill="#2F945A"/>
<path d="M164.52 64.8654H162.154C162.05 64.8654 161.965 64.7806 161.965 64.6761V64.4618C161.965 64.3572 162.05 64.2725 162.154 64.2725H164.52C164.624 64.2725 164.709 64.3572 164.709 64.4618V64.6761C164.709 64.7806 164.624 64.8654 164.52 64.8654Z" fill="white"/>
<path d="M50.3047 90.1455C50.3047 90.1455 56.7959 103.284 56.9271 121.999" stroke="#9DCBB0" stroke-width="1.02484" stroke-miterlimit="10" stroke-linecap="round" stroke-linejoin="round"/>
<path d="M67.9527 104.562C67.9527 104.562 58.0383 106.655 60.0144 121.946" stroke="#BFDECC" stroke-width="1.02484" stroke-miterlimit="10" stroke-linecap="round" stroke-linejoin="round"/>
<path d="M49.9961 102.149C49.9961 102.149 54.5736 111.836 54.3795 121.945" stroke="#9DCBB0" stroke-width="1.02484" stroke-miterlimit="10" stroke-linecap="round" stroke-linejoin="round"/>
<path d="M62.4857 120.285H51.3674C50.3857 120.285 49.5898 121.081 49.5898 122.063V140.065C49.5898 142.069 51.2146 143.694 53.2188 143.694H60.6343C62.6386 143.694 64.2633 142.069 64.2633 140.065V122.063C64.2633 121.081 63.4675 120.285 62.4857 120.285Z" fill="#2F945A"/>
<mask id="mask1_12859_54900" style="mask-type:luminance" maskUnits="userSpaceOnUse" x="49" y="111" width="16" height="24">
<path d="M51.3697 134.408H62.4881C63.4698 134.408 64.2656 133.612 64.2656 132.63V114.629C64.2656 112.624 62.6409 111 60.6367 111H53.2211C51.2169 111 49.5922 112.624 49.5922 114.629V132.631C49.5922 133.612 50.388 134.408 51.3697 134.408Z" fill="white"/>
</mask>
<g mask="url(#mask1_12859_54900)">
<path d="M48.5543 129.207H65.2969V125.486H48.5543V129.207Z" fill="#9DCBB0"/>
</g>
<path d="M48.7295 108.716C48.5195 108.456 48.5602 108.075 48.8203 107.865C49.08 107.655 49.4616 107.696 49.6717 107.956L52.872 111.918C55.2635 108.342 55.0769 104.011 50.4533 102.185C48.9523 98.4967 44.6626 97.9172 40.7989 99.7249L43.0827 100.71C43.3897 100.843 43.531 101.199 43.3987 101.506C43.2999 101.735 43.0771 101.871 42.8425 101.871C42.7626 101.871 42.6813 101.856 42.6031 101.822L40.1957 100.783C39.7178 100.577 39.1662 100.64 38.747 100.948C38.1479 101.389 37.5764 101.891 37.0483 102.455C36.4662 103.076 35.9624 103.771 35.5326 104.512L37.7194 104.879C38.0491 104.935 38.2713 105.247 38.2161 105.576C38.1665 105.872 37.9101 106.082 37.6202 106.082C37.5866 106.082 37.553 106.079 37.519 106.073L36.0867 105.832C35.4095 105.718 34.7349 106.095 34.5017 106.741C33.9768 108.195 33.6903 109.703 33.625 111.093L35.0024 110.937C35.3306 110.905 35.6343 111.139 35.6716 111.471C35.709 111.803 35.4702 112.103 35.1377 112.14L34.1754 112.249C33.8612 112.284 33.6371 112.57 33.6701 112.884C33.806 114.179 34.172 115.257 34.7511 115.919C35.3018 116.549 36.3614 117.006 37.6997 117.27C38.0968 117.349 38.4482 116.994 38.3701 116.597L38.1229 115.342C38.0586 115.014 38.2719 114.696 38.6001 114.631C38.9268 114.568 39.2465 114.78 39.3108 115.108L39.785 117.517C41.1643 117.583 42.6774 117.489 44.1658 117.22C45.1178 117.048 45.6224 115.99 45.1713 115.135L43.9221 112.764C43.7661 112.468 43.8796 112.102 44.1752 111.947C44.4722 111.79 44.8374 111.904 44.9929 112.2L47.2023 116.391C48.1629 116.027 49.0586 115.573 49.8313 115.022C50.3131 114.679 50.763 114.306 51.1785 113.912C51.7352 113.384 51.803 112.521 51.3208 111.924L48.7295 108.716Z" fill="#2F945A"/>
<path d="M49.1996 102.634C45.3969 104.047 41.3001 107.8 38.0312 111.775" stroke="#9DCBB0" stroke-width="1.02484" stroke-miterlimit="10" stroke-linecap="round" stroke-linejoin="round"/>
<path d="M49.491 93.4592C49.5396 93.2076 49.7832 93.043 50.0348 93.0916C50.2862 93.1399 50.4508 93.3839 50.4024 93.6354L49.6628 97.4691C52.9402 97.1032 55.3861 94.8526 54.1702 91.2408C55.5897 88.5378 53.8089 85.7375 50.8396 84.367L51.391 86.1926C51.4652 86.4379 51.3264 86.6969 51.081 86.771C50.898 86.8262 50.7078 86.7632 50.5919 86.6258C50.5524 86.5789 50.5214 86.5236 50.5026 86.461L49.9213 84.5366C49.806 84.1546 49.4964 83.8626 49.1085 83.7693C48.554 83.6361 47.9771 83.5496 47.3858 83.5186C46.7342 83.4844 46.0775 83.533 45.4312 83.6473L46.2967 85.1107C46.4272 85.3312 46.3542 85.6158 46.1336 85.7463C45.9356 85.8635 45.6863 85.8167 45.5431 85.6468C45.5265 85.6272 45.5115 85.606 45.4981 85.5834L44.9313 84.625C44.6632 84.1719 44.1089 83.963 43.6151 84.1457C42.5039 84.5567 41.4782 85.1345 40.6319 85.7828L41.4038 86.5132C41.5849 86.6897 41.5981 86.983 41.4217 87.1693C41.2456 87.3553 40.9519 87.3635 40.7656 87.1872L40.2263 86.6768C40.0502 86.5101 39.7722 86.5198 39.6043 86.6947C38.9129 87.4143 38.4618 88.1618 38.36 88.8285C38.2633 89.4624 38.5194 90.3091 39.0259 91.2242C39.1762 91.4957 39.5579 91.5263 39.752 91.2841L40.3653 90.5189C40.5255 90.3192 40.8175 90.2869 41.0178 90.4471C41.2162 90.6075 41.2501 90.8996 41.0896 91.0995L39.9128 92.5679C40.5553 93.4093 41.3585 94.2494 42.252 94.9886C42.8235 95.4614 43.6927 95.2342 43.9712 94.5468L44.7425 92.643C44.8388 92.4052 45.1095 92.2907 45.3467 92.3871C45.5855 92.4835 45.699 92.7541 45.6027 92.9913L44.2385 96.3579C44.9271 96.7406 45.6354 97.0414 46.3404 97.2218C46.7799 97.3343 47.2205 97.4139 47.6568 97.4626C48.2415 97.528 48.7806 97.1411 48.892 96.5634L49.491 93.4592Z" fill="#2F945A"/>
<path d="M61.5489 94.1978C61.2505 94.047 61.1308 93.6828 61.2812 93.3844C61.4321 93.0859 61.7963 92.9664 62.0947 93.1168L65.7213 94.9486C64.883 90.6182 60.8005 87.4808 55.3084 89.7249C49.8162 87.4807 45.7338 90.6183 44.8955 94.9487L48.5218 93.1172C48.8202 92.9659 49.1844 93.0861 49.3348 93.3844C49.4856 93.6829 49.3659 94.047 49.0676 94.1978L45.6857 95.9059C45.0759 96.2139 44.713 96.8647 44.7818 97.5445C44.7885 97.6121 44.7962 97.6797 44.8047 97.7475C44.931 98.7549 45.3013 99.7976 45.838 100.82C45.9951 101.119 46.3809 101.21 46.6522 101.009L49.463 98.922C49.7316 98.7233 50.1108 98.7793 50.31 99.0473C50.5091 99.316 50.4533 99.6948 50.1847 99.8944L48.1615 101.397C47.3986 101.963 47.2645 103.063 47.8854 103.783C48.5053 104.501 49.1809 105.172 49.8768 105.77C50.3067 106.139 50.9658 106.037 51.275 105.562L51.8603 104.663C52.0439 104.382 52.4188 104.304 52.6978 104.485C52.9783 104.668 53.0573 105.043 52.8752 105.323L51.6969 107.133C53.013 107.977 54.2938 108.489 55.3084 108.489C56.323 108.489 57.6038 107.977 58.9197 107.133L57.7412 105.323C57.5591 105.043 57.6381 104.668 57.9186 104.485C58.1966 104.304 58.5727 104.382 58.7561 104.663L59.3416 105.562C59.6508 106.037 60.3099 106.14 60.7398 105.77C61.4357 105.172 62.1113 104.501 62.7312 103.783C63.3521 103.064 63.2182 101.964 62.4552 101.397L60.4318 99.8945C60.1631 99.6949 60.1073 99.3157 60.3064 99.0475C60.506 98.7793 60.8858 98.7235 61.1535 98.9222L63.9644 101.009C64.2355 101.211 64.6215 101.119 64.7786 100.82C65.3153 99.7979 65.6857 98.755 65.812 97.7475C65.8205 97.6799 65.8282 97.6122 65.835 97.5448C65.9036 96.8651 65.5407 96.2144 64.931 95.9063L61.5489 94.1978Z" fill="#9DCBB0"/>
<path d="M54.8895 90.8496C54.266 94.5024 54.3294 98.4937 54.8895 102.73V90.8496Z" fill="#9DCBB0"/>
<path d="M54.8895 90.8496C54.266 94.5024 54.3294 98.4937 54.8895 102.73" stroke="#BFDECC" stroke-width="1.02484" stroke-miterlimit="10" stroke-linecap="round" stroke-linejoin="round"/>
<path d="M92.6166 107.687C92.5044 107.168 91.9347 106.889 91.4494 107.105L90.4849 107.534C90.3509 107.593 90.2097 107.615 90.0735 107.603C89.7816 107.577 89.5117 107.398 89.3845 107.111C89.1973 106.691 89.3863 106.198 89.8068 106.011L91.8382 105.107C91.2108 103.474 90.2746 101.736 88.9566 100.22C88.6 99.8092 87.9732 99.7733 87.5794 100.148L85.2071 102.407C85.0273 102.579 84.7892 102.654 84.5596 102.634C84.3644 102.617 84.1745 102.531 84.0291 102.378C83.7113 102.045 83.7244 101.517 84.0583 101.2L87.0085 98.391C84.8632 96.7667 82.0367 95.7489 78.3656 96.0539C77.3494 96.0921 76.427 96.2698 75.5775 96.5629C75.1732 96.7025 74.8477 97.0078 74.6937 97.4068L73.727 99.9111C73.59 100.265 73.237 100.473 72.8769 100.441C72.8003 100.434 72.7241 100.417 72.6488 100.388C72.2195 100.222 72.0056 99.7401 72.1716 99.3101L72.5797 98.253C70.6806 99.7675 69.1205 101.908 67.4805 104.199C72.9008 103.842 87.5636 106.944 92.6911 110.907C92.9609 110.6 92.9749 109.346 92.6166 107.687Z" fill="#2F945A"/>
<path d="M91.8926 107.2C91.5998 106.588 90.868 106.321 90.2482 106.596L89.7936 106.798C89.6596 106.857 89.5184 106.879 89.3822 106.867C89.0903 106.841 88.8204 106.662 88.6926 106.375C88.506 105.954 88.6952 105.462 89.1157 105.274L90.3401 104.73C89.1463 103.06 87.6591 101.296 85.8986 99.7864C85.5376 99.4768 84.9851 99.5502 84.7004 99.9312L83.0767 102.105C82.8973 102.346 82.6132 102.462 82.3349 102.437C82.1857 102.424 82.0387 102.37 81.9098 102.275C81.5412 101.999 81.4655 101.477 81.7405 101.108L83.8695 98.2573C81.8534 96.941 79.5578 96.0283 76.9962 95.9145C76.2899 95.8839 75.6613 96.3591 75.4981 97.0469L74.4783 101.343C74.3809 101.751 74 102.017 73.5952 101.981C73.555 101.978 73.5143 101.972 73.4746 101.962C73.0265 101.855 72.7496 101.406 72.8556 100.958L74.0124 96.0852C66.3649 97.4003 66.8986 105.426 66.8986 105.426C75.9284 103.605 92.6919 110.907 92.6919 110.907C92.6919 110.907 92.8946 109.295 91.8926 107.2Z" fill="#9DCBB0"/>
<path d="M195.104 81.2808C195.104 81.6991 194.765 82.0381 194.347 82.0381H172.455C172.329 82.0381 172.227 81.6987 172.227 81.2808C172.227 80.8629 172.329 80.5234 172.455 80.5234H194.347C194.765 80.5234 195.104 80.8626 195.104 81.2808Z" fill="#F5F5F5"/>
<path d="M178.147 82.0626H156.281C154.948 82.0626 153.698 80.9707 153.491 79.6239L151.479 66.5891C151.271 65.2423 152.183 64.1504 153.516 64.1504H175.382C176.715 64.1504 177.964 65.2423 178.172 66.5891L180.184 79.6239C180.392 80.9707 179.48 82.0626 178.147 82.0626Z" fill="#3B474D"/>
<mask id="mask2_12859_54900" style="mask-type:luminance" maskUnits="userSpaceOnUse" x="151" y="64" width="30" height="19">
<path d="M178.147 82.0626H156.281C154.948 82.0626 153.698 80.9707 153.491 79.6239L151.479 66.5891C151.271 65.2423 152.183 64.1504 153.516 64.1504H175.382C176.715 64.1504 177.964 65.2423 178.172 66.5891L180.184 79.6239C180.392 80.9707 179.48 82.0626 178.147 82.0626Z" fill="white"/>
</mask>
<g mask="url(#mask2_12859_54900)">
<path d="M176.007 82.0628H151.039V64.1504C156.838 73.502 164.073 80.9299 176.007 82.0628Z" fill="#263238"/>
</g>
<path d="M166.744 73.198C166.744 73.7021 166.335 74.1107 165.831 74.1107C165.327 74.1107 164.918 73.7021 164.918 73.198C164.918 72.6938 165.327 72.2852 165.831 72.2852C166.335 72.285 166.744 72.6938 166.744 73.198Z" fill="white"/>
<path d="M185.85 81.4552H184.205C184.109 81.4552 184.031 81.3774 184.031 81.2813C184.031 81.1853 184.109 81.1074 184.205 81.1074H185.85C185.946 81.1074 186.024 81.1853 186.024 81.2813C186.024 81.3774 185.946 81.4552 185.85 81.4552Z" fill="#DBDBDB"/>
<path d="M183.389 81.4552H183.252C183.156 81.4552 183.078 81.3774 183.078 81.2813C183.078 81.1853 183.156 81.1074 183.252 81.1074H183.389C183.485 81.1074 183.563 81.1853 183.563 81.2813C183.563 81.3774 183.485 81.4552 183.389 81.4552Z" fill="#DBDBDB"/>
<path d="M188.264 81.4552H186.619C186.523 81.4552 186.445 81.3774 186.445 81.2813C186.445 81.1853 186.523 81.1074 186.619 81.1074H188.264C188.36 81.1074 188.438 81.1853 188.438 81.2813C188.438 81.3774 188.36 81.4552 188.264 81.4552Z" fill="#DBDBDB"/>
<path d="M218.365 81.1055H210.772C210.531 81.1055 210.336 81.3006 210.336 81.5411C210.336 81.7818 210.531 81.9767 210.772 81.9767H218.365C218.606 81.9767 218.801 81.7816 218.801 81.5411C218.801 81.3004 218.606 81.1055 218.365 81.1055Z" fill="#2F945A"/>
<path d="M215.215 78.3164H213.921C212.465 78.3164 211.285 79.4967 211.285 80.9527V81.1053H217.852V80.9527C217.852 79.4967 216.671 78.3164 215.215 78.3164Z" fill="#292B3A"/>
<path d="M214.723 77.9502H214.415C214.147 77.9502 213.93 78.1675 213.93 78.4356H215.209C215.209 78.1675 214.991 77.9502 214.723 77.9502Z" fill="#292B3A"/>
<path d="M214.812 77.4805H214.301V78.0632H214.812V77.4805Z" fill="#292B3A"/>
<path d="M215.173 77.4803H213.931C213.861 77.4803 213.805 77.4236 213.805 77.3544C213.805 77.2852 213.861 77.2285 213.931 77.2285H215.173C215.242 77.2285 215.298 77.2852 215.298 77.3544C215.298 77.4236 215.242 77.4803 215.173 77.4803Z" fill="#292B3A"/>
<path d="M140.956 26.6327C146.252 26.6327 150.545 22.3396 150.545 17.0439C150.545 11.7481 146.252 7.45508 140.956 7.45508C135.66 7.45508 131.367 11.7481 131.367 17.0439C131.367 22.3396 135.66 26.6327 140.956 26.6327Z" fill="#F1F1F1"/>
<path d="M140.956 24.5933C145.126 24.5933 148.506 21.213 148.506 17.0432C148.506 12.8735 145.126 9.49316 140.956 9.49316C136.787 9.49316 133.406 12.8735 133.406 17.0432C133.406 21.213 136.787 24.5933 140.956 24.5933Z" fill="#DBDBDB"/>
<path d="M140.954 12.3145V17.5807L138.023 20.9773" stroke="white" stroke-width="0.967272" stroke-miterlimit="10" stroke-linecap="round" stroke-linejoin="round"/>
<path d="M68.7246 138.964C69.6631 138.964 70.4238 139.725 70.4238 140.663C70.4238 141.602 69.6632 142.362 68.7246 142.362C67.7861 142.362 67.0254 141.602 67.0254 140.663C67.0255 139.725 67.7862 138.964 68.7246 138.964Z" fill="#141A1D" stroke="#263238" stroke-width="0.0506667"/>
<path d="M116.841 44.5029C117.403 45.6322 118.438 46.631 119.553 47.4785C120.681 48.3364 121.893 49.042 122.779 49.5732L122.794 49.582L122.808 49.5713C123.628 48.8879 124.127 48.0971 124.553 47.2852L125.726 47.8545L128.815 54.8574L131.463 80.1289C128.106 81.3298 123.474 81.6194 120.215 80.1289L115.319 47.0059L116.841 44.5029Z" fill="white" stroke="#263238" stroke-width="0.0506667"/>
<path d="M125.5 47.7285C126.594 48.5403 126.977 48.7752 128.062 49.3555V49.3564L128.066 49.3574C128.874 49.6192 130.099 49.7137 131.247 49.8203C131.822 49.8737 132.379 49.9306 132.856 50.0127C133.335 50.0949 133.731 50.202 133.987 50.3555C134.114 50.4315 134.242 50.5511 134.384 50.71C134.526 50.8688 134.682 51.0658 134.866 51.2949C135.235 51.7528 135.718 52.338 136.434 53.001C137.865 54.3271 140.226 55.9628 144.465 57.5215V57.5225C145.881 58.233 146.686 58.8103 147.179 59.3301C147.669 59.847 147.852 60.308 148.021 60.79V60.791C148.223 62.3133 147.948 63.335 147.397 64.0664C146.847 64.7984 146.018 65.2429 145.104 65.6055C143.672 65.8548 142.202 65.4431 140.718 64.8291C139.975 64.5219 139.229 64.1649 138.483 63.8154C137.738 63.4661 136.992 63.1236 136.249 62.8486L136.209 62.834L136.215 62.876C137.241 70.2341 140.297 79.8471 142.927 88.9834C142.614 89.1516 142.311 89.3296 142.01 89.5039C141.703 89.6814 141.399 89.8554 141.091 90.0137C140.474 90.3302 139.84 90.5822 139.136 90.668C138.643 90.728 138.084 90.5228 137.576 90.2012C137.068 89.8798 136.614 89.4449 136.331 89.0527L136.322 89.04L136.308 89.042L130.187 89.8857C130.798 83.4591 129.924 73.7557 128.738 65.5508C128.145 61.4412 127.473 57.7067 126.872 54.9473C126.571 53.5676 126.288 52.431 126.041 51.6133C125.917 51.2045 125.803 50.8747 125.699 50.6338C125.647 50.5134 125.597 50.4144 125.551 50.3389C125.509 50.2713 125.467 50.2221 125.428 50.1914C125.428 50.1889 125.429 50.186 125.429 50.1826C125.429 50.1697 125.43 50.1505 125.431 50.126C125.432 50.077 125.434 50.0063 125.438 49.9189C125.444 49.744 125.452 49.5024 125.461 49.2363C125.477 48.7255 125.494 48.1238 125.5 47.7285Z" fill="#2F945A" stroke="#263238" stroke-width="0.0506667"/>
<path d="M108.944 137.414C108.898 137.652 108.885 137.985 108.893 138.354C108.901 138.737 108.931 139.159 108.967 139.551C109.003 139.943 109.044 140.305 109.077 140.569C109.094 140.702 109.109 140.81 109.119 140.885C109.124 140.922 109.128 140.951 109.131 140.971C109.132 140.981 109.133 140.988 109.134 140.993V140.997C109.133 141 109.133 141.005 109.132 141.012C109.129 141.024 109.126 141.043 109.121 141.067C109.112 141.116 109.1 141.185 109.086 141.271C109.058 141.441 109.022 141.675 108.994 141.927C108.966 142.178 108.947 142.448 108.948 142.692C108.95 142.936 108.973 143.156 109.035 143.306C109.942 145.504 109.638 146.695 109.117 147.336C108.856 147.657 108.539 147.843 108.286 147.948C108.16 148.001 108.051 148.033 107.973 148.053C107.934 148.062 107.902 148.068 107.881 148.072C107.87 148.074 107.862 148.075 107.856 148.076C107.854 148.077 107.852 148.077 107.851 148.077H104.396C103.592 147.631 103.152 146.996 102.936 146.223C102.719 145.446 102.728 144.529 102.827 143.522C102.926 142.515 103.113 141.422 103.252 140.29C103.389 139.17 103.478 138.014 103.383 136.874L108.944 137.414Z" fill="#263238" stroke="#263238" stroke-width="0.0506667"/>
<path d="M133.082 138.302C134.374 140.295 136.284 141.253 138.144 141.995C139.076 142.367 139.995 142.684 140.819 143.051C141.64 143.416 142.365 143.829 142.913 144.39L143.306 146.238H125.346C125.063 145.032 125.246 143.846 125.475 142.677C125.702 141.511 125.974 140.361 125.866 139.234L133.082 138.302Z" fill="#263238" stroke="#263238" stroke-width="0.0506667"/>
<path d="M109.472 80.1484C112.932 80.1752 117.43 80.4431 121.407 80.5898C123.4 80.6633 125.261 80.7066 126.795 80.6738C128.305 80.6416 129.501 80.5332 130.19 80.3086L131.547 90.7676C132.233 98.8603 131.706 106.82 131.511 114.725C131.315 122.622 131.45 130.464 133.459 138.323C130.905 139.494 128.259 139.746 125.609 140.01C124.185 133.671 123.469 126.819 122.844 120.146C122.217 113.467 121.682 106.965 120.616 101.339L120.602 101.264L120.568 101.333C117.001 108.783 115.372 114.403 114.08 119.918C112.789 125.429 111.832 130.834 109.61 137.857C107.447 138.279 104.848 138.173 102.59 137.664C103.484 130.317 104.29 123.036 106.688 112.168C109.087 101.291 108.906 91.4078 109.472 80.1484Z" fill="#35374B" stroke="#263238" stroke-width="0.0506667"/>
<path d="M124.366 50.6504L123.692 52.541L123.688 52.54L123.691 52.5547C125.605 62.6737 127.053 72.3839 127.465 81.1875L125.559 84.0068L122.973 81.3496C123.203 71.8216 123.233 62.2636 122.159 52.5479L122.158 52.5381L122.151 52.5312L120.312 50.876L122.79 49.5801L124.366 50.6504Z" fill="#292B3A" stroke="#263238" stroke-width="0.0506667"/>
<path d="M116.841 44.5029C117.403 45.6322 118.438 46.631 119.553 47.4785C120.666 48.3249 121.86 49.023 122.743 49.5518L118.977 51.9395L115.915 46.0254L116.841 44.5029ZM125.449 47.6953L125.342 51.918L122.832 49.5547L122.84 49.5508L122.834 49.5469C123.639 48.8685 124.131 48.0874 124.553 47.2842L125.449 47.6953Z" fill="white" stroke="#263238" stroke-width="0.0506667"/>
<path d="M116.285 45.3281C116.741 48.069 117.637 51.2376 118.607 54.6953C119.584 58.1738 120.636 61.9466 121.393 65.874C122.906 73.7287 123.237 82.2015 119.417 90.1836C118.466 92.1716 117.928 93.584 116.18 94.5195C112.521 95.0382 110.27 94.0971 107.718 92.9287C108.386 84.9489 109.666 77.1461 109.116 68.7959L109.066 68.791C106.821 76.4823 106.025 81.543 106.893 89.7773L106.892 89.7783L106.896 89.7861C106.959 89.9191 106.986 90.1572 106.98 90.3799C106.978 90.4905 106.966 90.596 106.948 90.6807C106.939 90.7229 106.928 90.7597 106.916 90.7891C106.906 90.8138 106.893 90.8306 106.883 90.8428C106.177 90.7794 105.444 90.6906 104.664 90.835C103.881 90.9801 103.051 91.361 102.151 92.2383C102.121 92.2328 102.074 92.2128 102.019 92.1748C101.958 92.1332 101.891 92.0737 101.83 92C101.709 91.8524 101.616 91.6508 101.653 91.4248L101.629 91.4199L101.654 91.4248L101.653 91.417C99.9874 79.0074 101.127 65.828 104.517 52.5566C104.703 51.8402 104.882 51.4116 105.099 51.1182C105.315 50.8258 105.57 50.6644 105.917 50.4863L114.08 47.4834L114.081 47.4854L114.09 47.4775L116.285 45.3281Z" fill="#2F945A" stroke="#263238" stroke-width="0.0506667"/>
<path d="M128.075 49.1924C128.126 49.1932 128.173 49.2212 128.197 49.2656L129.118 50.9434C129.156 51.0116 129.131 51.0978 129.063 51.1357L128.608 51.3906L128.538 51.4297L128.618 51.4375L129.505 51.5264C129.571 51.533 129.624 51.5846 129.632 51.6504C130.422 58.2157 129.775 64.7624 129.732 71.2988C129.732 71.3364 129.717 71.373 129.69 71.3994C129.664 71.4257 129.627 71.4406 129.59 71.4404C129.552 71.4401 129.517 71.4242 129.49 71.3975C129.464 71.3708 129.449 71.3352 129.449 71.2979C129.491 64.7914 130.123 58.2943 129.362 51.8164L129.36 51.7969L129.34 51.7939L128.062 51.667C128.001 51.6609 127.95 51.6153 127.938 51.5547C127.925 51.4941 127.954 51.4326 128.008 51.4023L128.78 50.9688L128.803 50.957L128.79 50.9346L127.949 49.4023C127.912 49.3338 127.936 49.2477 128.005 49.21C128.026 49.1981 128.051 49.1921 128.075 49.1924Z" fill="#141A1D" stroke="#263238" stroke-width="0.0506667"/>
<path d="M134.404 57.207C135.15 58.1793 135.28 58.9942 135.074 59.6895C134.893 60.3016 134.449 60.8248 133.924 61.2822L133.694 61.4746L133.691 61.4785C133.206 62.0585 132.748 62.4674 132.203 62.7793C131.658 63.0913 131.023 63.3073 130.184 63.5L130.153 63.5068L130.167 63.5352C130.301 63.8268 130.25 64.0729 130.132 64.2178C130.013 64.3633 129.828 64.4073 129.682 64.3037C129.462 64.1477 129.216 63.9885 128.965 63.8271C128.714 63.6658 128.458 63.502 128.217 63.335C127.734 62.9998 127.317 62.6549 127.127 62.2998C126.96 61.9883 126.944 61.6206 126.999 61.2402C127.054 60.86 127.178 60.4703 127.289 60.1152C127.344 59.94 127.443 59.8539 127.554 59.8184C127.666 59.7824 127.794 59.7974 127.907 59.832L127.935 59.8398L127.939 59.8125C127.963 59.685 127.977 59.57 127.988 59.4658C128 59.3613 128.009 59.2678 128.024 59.1826C128.056 59.0139 128.112 58.8781 128.254 58.7529C128.694 58.4059 129.247 58.0663 129.766 57.8057C130.285 57.5446 130.767 57.3639 131.067 57.333C131.683 57.2696 133.224 57.2493 134.404 57.207Z" fill="#FFB380" stroke="#263238" stroke-width="0.0506667"/>
<path d="M135.306 57.0469C135.606 57.5305 135.833 58.0082 135.949 58.5439C136.066 59.0817 136.072 59.6789 135.933 60.3984L133.884 61.3828C134.501 60.8625 134.978 60.2833 135.149 59.6211C135.334 58.9099 135.165 58.111 134.462 57.1992L135.306 57.0469Z" fill="#11002B" stroke="#263238" stroke-width="0.0506667"/>
<path d="M134.038 56.7998C134.396 56.7998 134.719 56.8266 134.952 56.8691C135.069 56.8905 135.162 56.9151 135.226 56.9424C135.257 56.9561 135.28 56.9705 135.295 56.9834C135.309 56.9961 135.312 57.0055 135.312 57.0117C135.312 57.018 135.309 57.0281 135.295 57.041C135.28 57.0539 135.257 57.0674 135.226 57.0811C135.162 57.1083 135.069 57.1339 134.952 57.1553C134.719 57.1978 134.396 57.2236 134.038 57.2236C133.68 57.2236 133.356 57.1979 133.123 57.1553C133.006 57.1339 132.914 57.1083 132.851 57.0811C132.819 57.0674 132.796 57.0539 132.781 57.041C132.767 57.0281 132.764 57.018 132.764 57.0117C132.764 57.0055 132.767 56.9961 132.781 56.9834C132.796 56.9705 132.819 56.9561 132.851 56.9424C132.914 56.9152 133.007 56.8904 133.123 56.8691C133.356 56.8265 133.68 56.7998 134.038 56.7998Z" fill="white" stroke="#263238" stroke-width="0.0506667"/>
<path d="M133.945 56.7705C134.461 56.5458 135.03 56.3782 135.749 56.6025C136.624 57.2798 136.864 58.4949 136.782 60.3594C136.771 60.6176 136.579 60.9199 136.238 61.2012C135.9 61.4804 135.418 61.7347 134.836 61.9033L133.773 61.4912L135.967 60.4385L135.979 60.4326L135.98 60.4199C136.047 59.933 136.125 59.475 136.067 58.9414C136.009 58.4072 135.815 57.7981 135.341 57.0049L135.345 57.0029L135.332 56.9961L135.201 56.9346C135.06 56.8799 134.886 56.8441 134.693 56.8193C134.467 56.7903 134.212 56.7775 133.945 56.7705Z" fill="white" stroke="#263238" stroke-width="0.0506667"/>
<path d="M129.736 62.7383C129.767 62.7387 129.797 62.7521 129.817 62.7754C130.037 63.0272 130.21 63.262 130.293 63.4873C130.313 63.5432 130.284 63.6053 130.229 63.626C130.202 63.6358 130.172 63.6348 130.146 63.623C130.12 63.611 130.1 63.5885 130.09 63.5615C130.025 63.3871 129.864 63.1598 129.653 62.918C129.614 62.8728 129.619 62.8039 129.664 62.7646C129.684 62.7473 129.71 62.738 129.736 62.7383Z" fill="#FF9955" stroke="#263238" stroke-width="0.0506667"/>
<path d="M127.91 59.7061C127.962 59.7034 128.008 59.7407 128.017 59.792C128.143 60.5805 128.363 61.5411 128.511 61.9541C128.541 62.0374 128.614 62.1221 128.715 62.2031C128.816 62.2844 128.947 62.3645 129.098 62.4404C129.243 62.5139 129.404 62.5852 129.566 62.6562C129.729 62.7274 129.894 62.7985 130.048 62.873L130.046 62.877L130.061 62.876L131.145 62.8096H131.152L131.158 62.8047C131.291 62.7084 131.353 62.5896 131.356 62.459C131.36 62.3218 131.3 62.1725 131.179 62.0527C131.16 62.0338 131.15 62.0082 131.149 61.9814C131.149 61.9545 131.16 61.9283 131.179 61.9092C131.218 61.8696 131.282 61.8698 131.322 61.9092C131.478 62.0642 131.566 62.2638 131.561 62.4639C131.555 62.6634 131.45 62.8623 131.251 62.9932C131.236 63.0027 131.22 63.0086 131.202 63.0098L130.041 63.0801C130.024 63.0811 130.006 63.0781 129.99 63.0703C129.839 62.996 129.672 62.9239 129.503 62.8506C129.334 62.7771 129.164 62.7017 129.006 62.6221C128.688 62.4616 128.415 62.2901 128.319 62.0234C128.158 61.5741 127.944 60.6252 127.815 59.8242V59.8232C127.811 59.7968 127.818 59.7697 127.834 59.748C127.85 59.7264 127.873 59.7114 127.899 59.707C127.903 59.7065 127.907 59.7062 127.91 59.7061Z" fill="#FF9955" stroke="#263238" stroke-width="0.0506667"/>
<path d="M129.385 59.1299C129.433 59.1318 129.474 59.1678 129.481 59.2158L129.793 61.2588L129.79 61.2598L129.798 61.2705C129.985 61.5328 130.34 61.7075 130.735 61.793C131.138 61.88 131.577 61.878 131.886 61.8184H131.887C131.894 61.8168 131.901 61.8126 131.905 61.8096C131.911 61.8058 131.919 61.801 131.927 61.7949C131.942 61.7829 131.961 61.7658 131.981 61.7451C132.023 61.7033 132.071 61.6443 132.103 61.5752C132.165 61.4401 132.183 61.2835 132.117 61.166C132.09 61.1173 132.107 61.056 132.155 61.0283C132.179 61.0151 132.207 61.0114 132.232 61.0186C132.258 61.0258 132.281 61.043 132.294 61.0664C132.403 61.2598 132.369 61.4831 132.287 61.6602C132.204 61.8395 132.093 61.9812 131.931 62.0176H131.928C131.583 62.0845 131.127 62.0861 130.692 61.9922C130.257 61.8981 129.845 61.7096 129.615 61.3711C129.607 61.3587 129.601 61.3448 129.599 61.3301L129.28 59.2471C129.272 59.1917 129.31 59.1394 129.365 59.1309C129.371 59.1298 129.378 59.1297 129.385 59.1299Z" fill="#FF9955" stroke="#263238" stroke-width="0.0506667"/>
<path d="M132.587 58.5977C132.626 58.5972 132.661 58.6187 132.679 58.6533C132.691 58.6774 132.693 58.7059 132.685 58.7314C132.676 58.757 132.657 58.778 132.633 58.79L132.233 58.9902L132.214 59L132.221 59.0205L132.408 59.5488C132.417 59.5742 132.416 59.6026 132.404 59.627C132.393 59.6511 132.372 59.6697 132.347 59.6787C132.294 59.6973 132.236 59.6699 132.217 59.6172L131.992 58.9834C131.975 58.9352 131.996 58.8814 132.042 58.8584L132.542 58.6084C132.556 58.6016 132.572 58.5979 132.587 58.5977Z" fill="#FF9955" stroke="#263238" stroke-width="0.0506667"/>
<path d="M130.618 58.7764C130.664 58.7761 130.704 58.8059 130.717 58.8496L131.206 60.5283L131.208 60.5352L131.214 60.54C131.697 60.953 132.202 61.0106 132.656 61.043V61.0459L132.739 61.0127C132.9 60.9347 132.981 60.8008 133.002 60.665C133.026 60.5122 132.975 60.3543 132.876 60.2725C132.855 60.2553 132.842 60.2309 132.839 60.2041C132.836 60.1775 132.844 60.1506 132.861 60.1299C132.878 60.1091 132.904 60.0954 132.931 60.0928C132.957 60.0903 132.984 60.0991 133.005 60.1162V60.1152C133.347 60.3973 133.278 61.0775 132.707 61.2471C132.696 61.2504 132.684 61.2518 132.672 61.251C132.198 61.2179 131.6 61.1575 131.053 60.6738C131.038 60.6611 131.028 60.6443 131.022 60.626L130.521 58.9062C130.514 58.8804 130.517 58.8526 130.53 58.8291C130.537 58.8173 130.545 58.8071 130.556 58.7988L130.591 58.7803C130.6 58.7777 130.609 58.7765 130.618 58.7764Z" fill="#FF9955" stroke="#263238" stroke-width="0.0506667"/>
<path d="M106.164 89.7637C106.413 89.7637 106.661 89.7748 106.901 89.7988C106.961 89.9337 106.987 90.1644 106.981 90.3809C106.978 90.4916 106.967 90.5969 106.949 90.6816C106.94 90.7239 106.93 90.7607 106.918 90.79C106.908 90.8143 106.895 90.8306 106.885 90.8428C106.179 90.7794 105.446 90.6906 104.666 90.835C103.883 90.98 103.053 91.3613 102.153 92.2383C102.123 92.2329 102.075 92.2141 102.02 92.1758C101.959 92.1342 101.892 92.0737 101.831 92C101.711 91.8536 101.619 91.6543 101.653 91.4307C102.062 90.9006 102.742 90.4846 103.544 90.2002C104.348 89.9151 105.272 89.7637 106.164 89.7637Z" fill="white" stroke="#263238" stroke-width="0.0506667"/>
<path d="M76.5215 144.213C77.46 144.213 78.2206 144.974 78.2207 145.912C78.2207 146.851 77.46 147.611 76.5215 147.611C75.583 147.611 74.8223 146.851 74.8223 145.912C74.8223 144.974 75.583 144.213 76.5215 144.213Z" fill="#141A1D" stroke="#263238" stroke-width="0.0506667"/>
<path d="M91.3467 107.217C91.8136 107.19 92.3018 107.207 92.8604 107.365V107.366C95.8307 108.445 98.5396 110.181 100.984 112.421L101.471 112.876C101.99 113.343 102.328 114.034 102.204 114.727C98.5137 123.914 95.3142 133.78 90.7734 141.771C90.0274 142.465 89.2821 142.863 88.5352 143.163L80.7871 145.862C79.9072 146.096 79.0142 146.215 78.0088 145.664H78.0068C74.8768 144.217 71.7464 142.082 68.6152 139.169L68.6133 139.168L68.4229 139.01C68.0081 138.641 67.8016 138.268 67.7363 137.884C67.6618 137.445 67.7706 136.987 67.9707 136.498C71.7139 127.462 76.1842 118.888 81.3936 110.785L81.3945 110.786C82.0355 109.83 82.6763 109.449 83.5732 109.063C85.9876 108.305 88.4694 107.603 91.3477 107.218L91.3467 107.217Z" fill="#FD7E50" stroke="#263238" stroke-width="0.0506667"/>
<path d="M107.866 94.8193L107.948 94.832C108.132 94.8721 108.262 94.9873 108.331 95.1455C108.41 95.3272 108.41 95.5678 108.313 95.8184L100.229 115.108L98.5762 114.428L106.034 97.4043V97.4033L107.02 94.8193H107.866Z" fill="#141A1D" stroke="#263238" stroke-width="0.0506667"/>
<path d="M104.675 90.8906C105.467 90.7503 106.214 90.8385 106.874 90.8936C107.009 91.501 107.032 91.8349 107.019 92.0791C107.012 92.2024 106.996 92.3035 106.979 92.4062C106.964 92.5083 106.947 92.6125 106.941 92.7402C106.762 93.7867 106.931 94.5589 107.095 95.2549C107.258 95.9501 107.413 96.5661 107.217 97.3086C107.071 97.5404 106.869 97.6498 106.657 97.6562C106.444 97.6626 106.217 97.565 106.028 97.376L106.009 97.3564L105.991 97.3779C105.845 97.5622 105.685 97.7112 105.434 97.8252C105.182 97.9393 104.835 98.0188 104.315 98.0645C103.954 97.9265 103.572 97.5335 103.186 96.9873C102.799 96.4397 102.411 95.743 102.041 95.0098C101.963 94.571 102.065 94.1478 102.154 93.7002C102.243 93.2564 102.319 92.7911 102.187 92.2744C103.034 91.4037 103.878 91.0317 104.675 90.8906Z" fill="#FFB380" stroke="#263238" stroke-width="0.0506667"/>
<path d="M105.543 94.958C105.532 95.5878 105.574 95.9858 105.628 96.4834L104.607 96.5859C104.517 96.595 104.44 96.6422 104.374 96.71C104.308 96.7778 104.252 96.8674 104.203 96.9639C104.154 97.0606 104.112 97.1663 104.074 97.2656C104.036 97.3653 104.002 97.4588 103.97 97.5342L96.2852 115.449L95.0654 114.364L103.042 95.9912C103.202 95.6118 103.503 95.0945 104.07 95.0566L105.543 94.958Z" fill="#141A1D" stroke="#263238" stroke-width="0.0506667"/>
<path d="M89.543 110.66H89.5449L96.3252 109.46C96.3708 109.452 96.4109 109.426 96.4375 109.388C96.4641 109.35 96.4749 109.303 96.4668 109.257C96.4513 109.17 96.374 109.108 96.2861 109.112C96.2786 109.113 96.2711 109.114 96.2637 109.115L89.4766 110.317H89.4697L89.4707 110.318C88.8246 110.456 88.1101 110.702 87.3223 111.65C87.3166 111.657 87.3112 111.664 87.3066 111.672C81.7593 120.909 77.0375 131.108 72.624 142.223C72.5886 142.312 72.632 142.413 72.7217 142.449C72.7648 142.466 72.8128 142.466 72.8555 142.447C72.8981 142.429 72.9321 142.395 72.9492 142.352C77.3555 131.256 82.0672 121.08 87.5967 111.869L87.5986 111.865H87.5996C87.9693 111.422 88.2999 111.153 88.6162 110.979C88.9324 110.806 89.2334 110.727 89.543 110.661V110.66ZM89.543 110.66L89.5391 110.662C89.5393 110.662 89.5406 110.662 89.542 110.661L89.543 110.66Z" fill="#141A1D" stroke="#263238" stroke-width="0.0506667"/>
<path d="M98.1953 110.173C98.2831 110.169 98.3607 110.231 98.376 110.317C98.3841 110.363 98.3733 110.41 98.3467 110.448C98.32 110.486 98.2792 110.512 98.2334 110.521L91.4531 111.721H91.4521L91.4502 111.722C91.141 111.788 90.8402 111.866 90.5244 112.04C90.2082 112.214 89.8775 112.483 89.5078 112.926L89.5059 112.93C83.9765 122.14 79.1758 132.528 74.7695 143.624C74.7338 143.714 74.6318 143.758 74.542 143.723C74.4989 143.706 74.4647 143.671 74.4463 143.629C74.4279 143.586 74.4272 143.538 74.4443 143.495C78.8579 132.381 83.6674 121.97 89.2148 112.732H89.2158C89.2203 112.725 89.2249 112.718 89.2305 112.711C89.9199 111.881 90.5534 111.589 91.1338 111.437L91.3789 111.379C91.3809 111.379 91.3829 111.378 91.3848 111.378H91.3857L98.1729 110.176C98.1802 110.174 98.1879 110.173 98.1953 110.173Z" fill="#141A1D" stroke="#263238" stroke-width="0.0506667"/>
<path d="M94.165 114.005H94.1699C94.1736 114.005 94.1793 114.005 94.1865 114.006C94.201 114.007 94.2226 114.008 94.25 114.011C94.3049 114.016 94.384 114.024 94.4805 114.041C94.674 114.075 94.9373 114.141 95.2168 114.267C95.7753 114.518 96.4172 115.026 96.7021 115.984C96.7154 116.029 96.7106 116.077 96.6885 116.118C96.6664 116.159 96.6285 116.189 96.584 116.202C96.4913 116.23 96.3938 116.177 96.3662 116.084C96.1112 115.226 95.5661 114.808 95.0732 114.586C94.8271 114.475 94.5986 114.418 94.4316 114.388C94.3481 114.373 94.2799 114.365 94.2324 114.36C94.2088 114.358 94.1904 114.356 94.1777 114.355H94.1582C94.1118 114.354 94.0673 114.334 94.0352 114.301C94.0032 114.267 93.9855 114.223 93.9863 114.177C93.9883 114.08 94.0684 114.003 94.165 114.005Z" fill="#141A1D" stroke="#263238" stroke-width="0.0506667"/>
<path d="M97.9326 114.203C97.9408 114.203 97.9491 114.203 97.957 114.204H97.958C97.959 114.204 97.961 114.205 97.9629 114.205C97.9667 114.206 97.9723 114.206 97.9795 114.207C97.9946 114.209 98.0172 114.212 98.0459 114.217C98.1033 114.226 98.1867 114.24 98.2891 114.26C98.4939 114.3 98.7758 114.365 99.085 114.461C99.7047 114.654 100.441 114.97 100.913 115.519C100.976 115.592 100.968 115.703 100.895 115.766C100.821 115.829 100.71 115.82 100.647 115.747C100.254 115.289 99.5678 114.978 98.9814 114.795C98.6879 114.703 98.4208 114.642 98.2275 114.604C98.131 114.586 98.0523 114.573 97.998 114.564C97.9711 114.56 97.9499 114.557 97.9355 114.555C97.9284 114.554 97.9226 114.553 97.9189 114.553C97.9173 114.553 97.916 114.552 97.915 114.552H97.9131C97.867 114.546 97.8254 114.522 97.7969 114.485C97.7684 114.449 97.755 114.403 97.7607 114.356C97.7689 114.292 97.8124 114.239 97.8701 114.216L97.9326 114.203Z" fill="#141A1D" stroke="#263238" stroke-width="0.0506667"/>
<path d="M121.587 70.958C121.895 70.958 122.145 71.2076 122.146 71.5156C122.146 71.8238 121.895 72.0742 121.587 72.0742C121.279 72.0741 121.029 71.8237 121.029 71.5156C121.029 71.2077 121.279 70.9582 121.587 70.958Z" fill="#DDDDDD" stroke="#263238" stroke-width="0.0506667"/>
<path d="M121.603 78.0986C121.911 78.0986 122.161 78.3482 122.161 78.6562C122.161 78.9644 121.911 79.2148 121.603 79.2148C121.295 79.2147 121.045 78.9643 121.045 78.6562C121.045 78.3483 121.295 78.0988 121.603 78.0986Z" fill="#DDDDDD" stroke="#263238" stroke-width="0.0506667"/>
<path d="M128.968 40.7246L128.984 41.5879C128.783 42.3537 128.55 43.1818 128.3 43.9111C128.049 44.642 127.784 45.2719 127.523 45.6426C127.257 46.0213 127.178 46.3971 127.112 46.7324C127.046 47.0694 126.993 47.3607 126.783 47.584C125.962 48.4614 124.772 48.2013 124.098 47.9961L124.078 47.9893L124.068 48.0078C123.727 48.6369 123.27 49.0933 122.789 49.5186C119.981 47.9165 117.91 46.4366 116.948 44.6006C117.451 44.021 117.728 43.6071 117.906 43.2363C118.086 42.8628 118.164 42.5336 118.271 42.1279L118.275 42.1299L118.271 42.1143C117.753 40.3937 117.337 38.5856 117.263 36.8857C117.193 35.2921 117.424 33.7954 118.151 32.5537L118.303 32.3086C119.93 29.9235 121.797 29.0535 123.628 29.1592C125.461 29.2651 127.265 30.3494 128.763 31.8877L128.781 31.8701L128.763 31.8887L128.766 31.8906C129.11 32.1469 129.441 32.3679 129.716 32.6074C129.99 32.8463 130.207 33.1016 130.326 33.4248C130.564 34.0711 130.411 34.9997 129.501 36.6299L129.523 36.6426L129.498 36.6289V36.6416C129.455 38.0665 129.679 38.8552 128.97 40.7148L128.993 40.7246L128.968 40.7148V40.7246Z" fill="#FFB380" stroke="#263238" stroke-width="0.0506667"/>
<path d="M117.767 40.2422C117.834 40.4683 117.908 40.6693 117.981 40.8232C118.037 40.9395 118.093 41.0317 118.146 41.0869C118.173 41.1142 118.201 41.1341 118.229 41.1426C118.244 41.1468 118.258 41.1466 118.271 41.1445C118.27 41.1649 118.269 41.1925 118.268 41.2256C118.263 41.2997 118.258 41.4017 118.252 41.5117C118.244 41.6647 118.236 41.8343 118.229 41.9688C118.061 41.3997 117.903 40.822 117.767 40.2422ZM123.286 29.1504C125.236 29.1311 127.172 30.2533 128.764 31.8877V31.8887L128.767 31.8906C129.111 32.1469 129.442 32.3679 129.717 32.6074C129.991 32.8463 130.208 33.1016 130.327 33.4248C130.561 34.0623 130.415 34.9736 129.538 36.5625C129.523 36.4648 129.514 36.3524 129.507 36.2344C129.498 36.0861 129.488 35.9301 129.462 35.791C129.435 35.6523 129.391 35.5262 129.31 35.4404C129.247 35.3749 129.165 35.3346 129.058 35.3281L128.941 35.332L128.935 35.335C127.566 35.9579 126.047 35.6706 124.849 35.3125C124.549 35.223 124.269 35.1299 124.018 35.0449C123.766 34.9601 123.542 34.8831 123.353 34.8291C123.164 34.7752 123.006 34.7432 122.891 34.7471C122.833 34.749 122.783 34.7596 122.744 34.7842C122.705 34.8094 122.679 34.8475 122.669 34.8975C122.426 36.0511 121.908 36.8477 121.405 37.5635C120.927 38.2436 120.459 38.854 120.26 39.627C120.066 38.5162 119.61 37.8014 119.109 37.4873C118.85 37.3245 118.578 37.2694 118.326 37.3242C118.075 37.3792 117.846 37.5432 117.673 37.8135V37.8145C117.544 38.0281 117.5 38.3577 117.509 38.7236C117.513 38.8799 117.527 39.0437 117.548 39.209C117.4 38.4247 117.297 37.6445 117.264 36.8857C117.189 35.1858 117.457 33.595 118.304 32.3076C119.83 30.0716 121.567 29.1676 123.286 29.1504Z" fill="#35374B" stroke="#263238" stroke-width="0.0506667"/>
<path d="M106.674 96.6436C106.808 96.6475 106.933 96.6934 107.006 96.7861C107.047 96.8384 107.077 96.9358 107.096 97.0566C107.114 97.1728 107.121 97.307 107.124 97.4355C106.889 97.6916 106.559 97.7171 106.264 97.5527C106.237 97.4221 106.212 97.2669 106.204 97.1289C106.2 97.0579 106.2 96.992 106.207 96.9365C106.214 96.8804 106.227 96.8375 106.247 96.8105C106.325 96.704 106.501 96.6386 106.674 96.6436Z" fill="white" stroke="#263238" stroke-width="0.0506667"/>
<path d="M114.073 47.3184C114.102 47.3183 114.13 47.3266 114.153 47.3428C114.218 47.387 114.235 47.4755 114.19 47.54L113.262 48.8994L113.247 48.9209L113.27 48.9346L113.893 49.3311C113.94 49.361 113.965 49.4164 113.957 49.4717C113.949 49.5269 113.908 49.5718 113.854 49.5869L112.525 49.958L112.495 49.9668L112.51 49.9941C116.03 56.8604 118.997 63.4486 122.015 70.0605C122.047 70.1316 122.015 70.2155 121.944 70.248C121.873 70.2804 121.789 70.2496 121.757 70.1787C118.711 63.5068 115.724 56.865 112.166 49.9404C112.147 49.9026 112.145 49.8582 112.162 49.8193C112.179 49.7803 112.213 49.7507 112.254 49.7393L113.418 49.415L113.473 49.3994L113.425 49.3691L112.972 49.0811C112.939 49.0605 112.916 49.0278 112.908 48.9902C112.901 48.9526 112.909 48.9135 112.931 48.8818L113.956 47.3799C113.982 47.3414 114.027 47.3185 114.073 47.3184Z" fill="#141A1D" stroke="#263238" stroke-width="0.0506667"/>
<path d="M106.238 50.8887C106.289 50.8864 106.338 50.912 106.365 50.9551C109.309 55.6248 110.953 60.9243 109.231 67.7334C109.212 67.809 109.135 67.855 109.06 67.8359C109.023 67.8267 108.992 67.8028 108.973 67.7705C108.953 67.7382 108.948 67.6994 108.957 67.6631C110.661 60.9261 109.044 55.7355 106.125 51.1055C106.105 51.0738 106.099 51.0355 106.107 50.999C106.116 50.9624 106.138 50.9302 106.17 50.9102C106.19 50.8973 106.214 50.8898 106.238 50.8887Z" fill="#141A1D" stroke="#263238" stroke-width="0.0506667"/>
<path d="M105.957 69.9131C106.684 69.9226 107.475 70.0341 108.291 70.3145C108.365 70.3399 108.404 70.4202 108.379 70.4941C108.353 70.5681 108.273 70.6073 108.199 70.582C106.631 70.0429 105.156 70.1531 104.074 70.3975C103.534 70.5196 103.091 70.6754 102.783 70.8008C102.629 70.8635 102.509 70.9186 102.427 70.958C102.386 70.9777 102.355 70.994 102.334 71.0049C102.323 71.0103 102.315 71.0137 102.31 71.0166C102.307 71.018 102.305 71.0198 102.304 71.0205L102.303 71.0215H102.302C102.233 71.0592 102.147 71.0342 102.109 70.9658C102.072 70.8973 102.097 70.8112 102.165 70.7734L102.166 70.7725L102.184 70.7637C102.196 70.7572 102.214 70.7474 102.238 70.7354C102.286 70.7112 102.358 70.6771 102.45 70.6357C102.635 70.5529 102.904 70.4424 103.242 70.333C103.918 70.1141 104.866 69.8989 105.957 69.9131Z" fill="#141A1D" stroke="#263238" stroke-width="0.0506667"/>
<path d="M114.219 76.6309C114.26 76.6318 114.299 76.6514 114.325 76.6836C114.351 76.7157 114.362 76.7572 114.354 76.7979C114.285 77.174 114.246 77.5407 114.201 77.8867C114.157 78.233 114.108 78.5595 114.021 78.8594C113.847 79.4571 113.486 79.9534 112.732 80.1826H112.731L112.72 80.1855C111.491 80.4471 110.266 80.761 109.044 81.2529C109.009 81.2669 108.97 81.2667 108.936 81.252C108.901 81.2372 108.873 81.2096 108.859 81.1748C108.845 81.14 108.847 81.1009 108.861 81.0664C108.876 81.0318 108.904 81.0042 108.938 80.9902C110.178 80.491 111.416 80.1738 112.648 79.9111H112.651C112.989 79.8081 113.224 79.6628 113.395 79.4736C113.565 79.2847 113.669 79.0533 113.748 78.7812C113.819 78.5389 113.865 78.2597 113.907 77.958C113.949 77.6557 113.987 77.3303 114.041 76.9912L114.047 76.9551L114.011 76.9629C112.488 77.2955 111 77.5906 109.314 78.1367C109.279 78.1483 109.24 78.145 109.206 78.1279C109.173 78.1109 109.147 78.0816 109.136 78.0459C109.112 77.9715 109.152 77.8914 109.227 77.8672C111.019 77.2866 112.583 76.9875 114.185 76.6338C114.196 76.6313 114.207 76.6306 114.219 76.6309Z" fill="#141A1D" stroke="#263238" stroke-width="0.0506667"/>
<path d="M138.264 73.0889C138.33 73.0863 138.389 73.1302 138.406 73.1943C138.426 73.2698 138.381 73.3472 138.306 73.3672L135.835 74.0137L135.812 74.0205L135.816 74.0439C135.839 74.1432 135.87 74.3026 135.976 74.624C136.109 75.0298 136.314 75.5165 136.558 75.8086C136.657 75.9281 136.796 75.9908 136.977 76.0146C137.157 76.0384 137.377 76.0178 137.603 75.9697C138.054 75.8735 138.532 75.6694 138.832 75.54C138.904 75.5091 138.986 75.5417 139.018 75.6133C139.049 75.6851 139.016 75.7688 138.944 75.7998C138.644 75.9294 138.154 76.1421 137.662 76.2471C137.416 76.2996 137.169 76.3252 136.939 76.2949C136.71 76.2647 136.492 76.1728 136.34 75.9902C136.048 75.6401 135.846 75.1364 135.707 74.7129C135.638 74.5016 135.585 74.3103 135.55 74.1719C135.532 74.103 135.519 74.0474 135.51 74.0088C135.505 73.9895 135.502 73.974 135.5 73.9639C135.499 73.9589 135.499 73.9547 135.498 73.9521C135.498 73.951 135.497 73.9498 135.497 73.9492V73.9482C135.482 73.8746 135.527 73.8025 135.6 73.7832L138.233 73.0938C138.243 73.0912 138.253 73.0893 138.264 73.0889Z" fill="#141A1D" stroke="#263238" stroke-width="0.0506667"/>
<path d="M129.863 71.7812C129.934 71.7799 129.995 71.8308 130.006 71.9004C130.529 75.1187 130.714 77.4125 131.479 79.8887C132.243 82.3661 133.587 85.0262 136.426 88.9844C136.471 89.0479 136.456 89.137 136.393 89.1826C136.329 89.2279 136.241 89.2129 136.195 89.1494C133.347 85.1767 131.99 82.4801 131.216 79.9756C130.441 77.4698 130.248 75.1562 129.727 71.9453C129.714 71.8681 129.767 71.7957 129.844 71.7832C129.85 71.7822 129.857 71.7814 129.863 71.7812Z" fill="#141A1D" stroke="#263238" stroke-width="0.0506667"/>
<path d="M106.591 71.3057C107.146 71.2947 107.691 71.3808 108.221 71.5781C108.256 71.5912 108.284 71.6174 108.3 71.6514C108.315 71.6855 108.317 71.7246 108.304 71.7598C108.291 71.7949 108.265 71.8242 108.23 71.8398H108.229C108.195 71.8553 108.156 71.8569 108.121 71.8438C107.129 71.4742 106.087 71.5187 104.989 71.8828C104.954 71.8946 104.914 71.8918 104.881 71.875C104.847 71.8582 104.821 71.8286 104.81 71.793C104.785 71.7188 104.825 71.638 104.899 71.6133C105.471 71.4238 106.036 71.3167 106.591 71.3057Z" fill="#141A1D" stroke="#263238" stroke-width="0.0506667"/>
<path d="M105.441 58.3584C105.492 58.358 105.539 58.385 105.564 58.4287C105.604 58.4963 105.581 58.5826 105.514 58.6221C104.948 58.9524 104.362 59.6057 103.931 60.1729C103.715 60.4568 103.536 60.7192 103.411 60.9102C103.349 61.0057 103.3 61.0838 103.267 61.1377C103.25 61.1644 103.237 61.185 103.229 61.1992C103.224 61.2063 103.221 61.2121 103.219 61.2158C103.218 61.2176 103.216 61.2188 103.216 61.2197L103.215 61.2207V61.2217C103.196 61.2539 103.164 61.2777 103.128 61.2871C103.092 61.2963 103.053 61.2905 103.021 61.2715C102.988 61.2524 102.965 61.2208 102.956 61.1846C102.947 61.1482 102.952 61.1094 102.971 61.0771L102.972 61.0762C102.972 61.0752 102.974 61.0741 102.975 61.0723C102.977 61.0686 102.98 61.0629 102.984 61.0557C102.993 61.0411 103.006 61.0189 103.023 60.9912C103.058 60.9358 103.108 60.8558 103.172 60.7578C103.3 60.5615 103.484 60.2919 103.705 60.001C104.148 59.4185 104.738 58.7475 105.371 58.3779C105.392 58.3655 105.417 58.3587 105.441 58.3584Z" fill="#141A1D" stroke="#263238" stroke-width="0.0506667"/>
<path d="M125.698 85.2861C125.71 85.2857 125.722 85.287 125.733 85.2891C125.829 85.3056 125.893 85.396 125.876 85.4912C125.361 88.4528 124.952 91.52 124.231 94.3115C123.511 97.1028 122.478 99.6145 120.718 101.464C120.686 101.497 120.642 101.517 120.596 101.519C120.549 101.52 120.504 101.502 120.471 101.47C120.437 101.438 120.417 101.394 120.416 101.348C120.415 101.301 120.432 101.256 120.464 101.223H120.465C122.162 99.4394 123.17 96.9745 123.883 94.2158C124.596 91.4575 125.015 88.4006 125.531 85.4316C125.545 85.35 125.615 85.289 125.698 85.2861Z" fill="#141A1D" stroke="#263238" stroke-width="0.0506667"/>
<path d="M109.728 107.416H109.739C109.786 107.42 109.828 107.442 109.858 107.478C109.889 107.513 109.904 107.558 109.9 107.604V107.608L109.896 107.667C109.892 107.708 109.886 107.77 109.878 107.849C109.861 108.007 109.834 108.237 109.792 108.522C109.709 109.094 109.568 109.892 109.337 110.793C108.874 112.596 108.049 114.812 106.605 116.473C106.542 116.545 106.432 116.553 106.359 116.49C106.286 116.427 106.278 116.316 106.342 116.243C107.726 114.651 108.528 112.484 108.984 110.717C109.213 109.833 109.354 109.048 109.438 108.484C109.481 108.203 109.51 107.976 109.527 107.82C109.536 107.742 109.542 107.682 109.546 107.641L109.551 107.582C109.551 107.581 109.552 107.58 109.552 107.579V107.577C109.559 107.486 109.636 107.415 109.728 107.416Z" fill="#141A1D" stroke="#263238" stroke-width="0.0506667"/>
<path d="M130.938 113.566C130.954 113.567 130.97 113.569 130.985 113.573C131.03 113.587 131.068 113.617 131.09 113.658C131.112 113.699 131.117 113.748 131.104 113.792H131.103C131.102 113.793 131.103 113.794 131.103 113.795C131.102 113.797 131.1 113.801 131.099 113.806C131.096 113.815 131.092 113.828 131.087 113.846C131.076 113.881 131.06 113.933 131.039 114C130.997 114.134 130.935 114.328 130.856 114.566C130.699 115.044 130.472 115.701 130.197 116.42C129.646 117.859 128.908 119.542 128.104 120.566C128.044 120.642 127.934 120.655 127.858 120.596C127.822 120.567 127.798 120.525 127.792 120.479C127.787 120.433 127.799 120.386 127.828 120.35C128.579 119.394 129.326 117.719 129.871 116.295C130.144 115.583 130.367 114.932 130.523 114.459C130.601 114.223 130.663 114.03 130.704 113.897C130.725 113.832 130.74 113.78 130.751 113.745C130.756 113.728 130.761 113.714 130.764 113.705C130.765 113.701 130.766 113.697 130.767 113.694L130.768 113.692V113.691C130.79 113.616 130.86 113.565 130.938 113.566Z" fill="#141A1D" stroke="#263238" stroke-width="0.0506667"/>
<path d="M109.723 134.776C109.763 134.776 109.803 134.789 109.835 134.814C109.871 134.843 109.895 134.886 109.9 134.932C109.906 134.978 109.892 135.024 109.863 135.061C109.146 135.966 107.94 136.357 106.92 136.538C106.41 136.628 105.943 136.664 105.604 136.678C105.434 136.684 105.296 136.685 105.2 136.685C105.153 136.684 105.116 136.683 105.091 136.683C105.079 136.682 105.069 136.683 105.062 136.683C105.059 136.683 105.056 136.682 105.055 136.682H105.053C105.006 136.68 104.962 136.659 104.931 136.625C104.899 136.591 104.883 136.545 104.885 136.499C104.887 136.453 104.907 136.409 104.941 136.378C104.976 136.347 105.021 136.33 105.067 136.332H105.077C105.083 136.332 105.093 136.333 105.104 136.333C105.129 136.334 105.164 136.335 105.21 136.335C105.302 136.335 105.434 136.334 105.597 136.327C105.922 136.314 106.37 136.28 106.858 136.193C107.835 136.02 108.963 135.634 109.589 134.843C109.621 134.802 109.67 134.777 109.723 134.776Z" fill="#141A1D" stroke="#263238" stroke-width="0.0506667"/>
<path d="M131.925 134.918C131.999 134.918 132.066 134.965 132.091 135.035C132.106 135.079 132.103 135.127 132.083 135.169C132.063 135.211 132.027 135.242 131.983 135.258C131.662 135.37 131.292 135.61 130.923 135.903C130.554 136.197 130.184 136.548 129.86 136.885C129.537 137.221 129.257 137.542 129.059 137.779C128.959 137.898 128.88 137.995 128.825 138.062C128.798 138.096 128.777 138.124 128.763 138.142C128.756 138.15 128.751 138.157 128.747 138.162C128.745 138.164 128.744 138.166 128.743 138.167L128.741 138.169C128.682 138.245 128.573 138.26 128.496 138.201C128.42 138.142 128.405 138.032 128.464 137.955H128.465L128.466 137.954C128.467 137.953 128.468 137.951 128.47 137.948C128.473 137.944 128.479 137.937 128.486 137.928C128.501 137.909 128.522 137.881 128.55 137.847C128.605 137.777 128.687 137.678 128.788 137.557C128.991 137.314 129.277 136.985 129.607 136.642C130.27 135.952 131.096 135.198 131.868 134.928C131.886 134.921 131.905 134.918 131.925 134.918Z" fill="#141A1D" stroke="#263238" stroke-width="0.0506667"/>
<path d="M133.66 50.6055C133.711 50.606 133.758 50.6342 133.783 50.6787L133.784 50.6797C133.785 50.6807 133.785 50.6826 133.786 50.6846C133.788 50.6889 133.792 50.6955 133.797 50.7041C133.806 50.7212 133.82 50.7467 133.837 50.7803C133.872 50.8478 133.922 50.9482 133.984 51.0781C134.108 51.3379 134.278 51.717 134.461 52.1943C134.827 53.1491 135.247 54.4963 135.461 56.0654C135.471 56.1428 135.417 56.2149 135.34 56.2256C135.303 56.2307 135.264 56.22 135.234 56.1973H135.235C135.205 56.1745 135.186 56.1408 135.181 56.1035C134.97 54.5623 134.559 53.241 134.2 52.3047C134.021 51.8365 133.855 51.464 133.733 51.209C133.673 51.0816 133.623 50.9834 133.589 50.917C133.572 50.8841 133.559 50.8588 133.55 50.8418C133.545 50.8333 133.541 50.8266 133.539 50.8223C133.538 50.8201 133.537 50.8185 133.536 50.8174L133.535 50.8164V50.8154C133.497 50.747 133.523 50.6609 133.591 50.623C133.612 50.6114 133.636 50.6053 133.66 50.6055Z" fill="#141A1D" stroke="#263238" stroke-width="0.0506667"/>
<path d="M136.659 56.7334L136.681 56.7344H136.683C136.684 56.7345 136.686 56.7351 136.688 56.7354C136.693 56.736 136.701 56.7371 136.71 56.7383C136.729 56.7406 136.758 56.7436 136.794 56.748C136.867 56.757 136.973 56.7704 137.104 56.7861C137.365 56.8177 137.727 56.8608 138.125 56.9072C138.921 57.0001 139.868 57.1055 140.465 57.1582C141.051 57.2099 141.52 57.1617 142.039 57.1504C142.559 57.139 143.135 57.1649 143.942 57.3623C144.018 57.3811 144.065 57.4573 144.046 57.5332C144.027 57.6091 143.951 57.6552 143.875 57.6367C143.092 57.4453 142.54 57.4241 142.03 57.4365C141.52 57.449 141.055 57.4947 140.439 57.4404C139.835 57.3871 138.886 57.2814 138.089 57.1885C137.69 57.142 137.329 57.0989 137.068 57.0674C136.938 57.0516 136.832 57.0382 136.759 57.0293C136.722 57.0249 136.694 57.0219 136.675 57.0195C136.665 57.0184 136.658 57.0172 136.653 57.0166C136.651 57.0163 136.649 57.0158 136.647 57.0156H136.646C136.608 57.011 136.575 56.9915 136.552 56.9619C136.529 56.9323 136.518 56.8947 136.522 56.8574C136.531 56.7881 136.589 56.7354 136.659 56.7334Z" fill="#141A1D" stroke="#263238" stroke-width="0.0506667"/>
<path d="M137.014 53.8584C137.076 53.8574 137.132 53.8974 137.151 53.957C137.175 54.0313 137.134 54.1108 137.06 54.1348H137.059L137.056 54.1357C137.053 54.1365 137.05 54.1381 137.046 54.1396C137.037 54.1427 137.025 54.1477 137.01 54.1543C136.979 54.1675 136.934 54.1883 136.88 54.2188C136.772 54.2798 136.626 54.3798 136.475 54.5361C136.172 54.8494 135.858 55.3789 135.832 56.2842C135.83 56.3623 135.765 56.424 135.687 56.4219C135.649 56.4208 135.614 56.4042 135.588 56.377C135.562 56.3497 135.548 56.3138 135.549 56.2764C135.576 55.3085 135.925 54.6972 136.271 54.3389C136.445 54.1596 136.621 54.0406 136.753 53.9668C136.819 53.93 136.874 53.905 136.913 53.8887C136.932 53.8805 136.948 53.8739 136.958 53.8701L136.973 53.8652L137.014 53.8584Z" fill="#141A1D" stroke="#263238" stroke-width="0.0506667"/>
<path d="M135.038 61.9014C135.066 61.9013 135.093 61.9099 135.116 61.9258L136.315 62.7617C136.376 62.8044 136.391 62.8882 136.349 62.9492V62.9502C136.306 63.0109 136.222 63.0258 136.161 62.9834L134.962 62.1475C134.933 62.1271 134.913 62.0957 134.906 62.0605C134.9 62.0253 134.908 61.9884 134.929 61.959C134.954 61.9232 134.994 61.9017 135.038 61.9014Z" fill="#141A1D" stroke="#263238" stroke-width="0.0506667"/>
<path d="M116.927 47.8701C116.967 47.8704 117.005 47.8928 117.023 47.9287L118.997 51.7959L119.01 51.8213L119.033 51.8057L122.733 49.46C122.775 49.4335 122.829 49.4389 122.865 49.4727L125.222 51.6914L125.264 51.7305L125.265 51.6738L125.34 48.3887C125.341 48.36 125.353 48.3323 125.374 48.3125C125.395 48.2929 125.423 48.2825 125.451 48.2832C125.48 48.2839 125.508 48.2957 125.527 48.3164C125.547 48.337 125.557 48.365 125.557 48.3936L125.475 51.9785C125.474 52.0212 125.448 52.0597 125.408 52.0762C125.369 52.0926 125.323 52.084 125.292 52.0547L122.793 49.7012L122.778 49.6875L122.762 49.6982L119.025 52.0674C119 52.0838 118.968 52.0881 118.938 52.0801C118.909 52.072 118.884 52.0525 118.87 52.0254L116.83 48.0273C116.817 48.002 116.815 47.9725 116.823 47.9453C116.832 47.9181 116.852 47.8949 116.877 47.8818C116.892 47.874 116.91 47.8701 116.927 47.8701Z" fill="#141A1D" stroke="#263238" stroke-width="0.0506667"/>
<path d="M122.278 80.4346C122.286 80.4348 122.294 80.4353 122.301 80.4365C122.381 80.4506 122.435 80.5278 122.421 80.6084C122.099 82.4653 121.48 85.3824 120.486 88.1338C119.989 89.5095 119.401 90.8454 118.704 91.9863C118.007 93.1272 117.203 94.0723 116.272 94.6689C116.252 94.6824 116.227 94.6906 116.202 94.6924C113.772 94.8624 111.328 94.6925 108.884 93.6299C108.848 93.6142 108.82 93.5851 108.806 93.5488C108.791 93.5123 108.792 93.4716 108.808 93.4355C108.84 93.3606 108.927 93.326 109.002 93.3584C111.375 94.3902 113.747 94.56 116.134 94.3975V94.4014L116.146 94.3936C117.012 93.827 117.783 92.9124 118.459 91.8027C119.135 90.693 119.718 89.3865 120.207 88.0332C121.192 85.3083 121.809 82.4023 122.129 80.5576C122.141 80.4853 122.205 80.433 122.278 80.4346Z" fill="#141A1D" stroke="#263238" stroke-width="0.0506667"/>
<path d="M130.208 80.1279C130.284 80.1259 130.35 80.1821 130.359 80.2578L131.542 89.6846C131.547 89.7236 131.536 89.7638 131.512 89.7949C131.488 89.8258 131.452 89.8457 131.413 89.8506C131.332 89.8606 131.258 89.8028 131.248 89.7217L130.065 80.2949C130.055 80.2137 130.113 80.1392 130.194 80.1289C130.199 80.1283 130.203 80.1281 130.208 80.1279Z" fill="#141A1D" stroke="#263238" stroke-width="0.0506667"/>
<path d="M105.081 93.5898C105.109 93.5905 105.135 93.6018 105.154 93.6211C105.197 93.6631 105.197 93.7318 105.155 93.7744C104.919 94.0136 104.827 94.1509 104.806 94.2871C104.795 94.3554 104.803 94.4335 104.825 94.5312C104.847 94.629 104.884 94.7489 104.934 94.9014V94.9023C104.952 94.9591 104.921 95.0196 104.864 95.0381C104.807 95.0565 104.747 95.0255 104.729 94.9688C104.628 94.6603 104.56 94.4631 104.592 94.2549C104.623 94.0482 104.754 93.873 105.002 93.6221L105.001 93.6211C105.022 93.6 105.051 93.5891 105.081 93.5898Z" fill="#FF9955" stroke="#263238" stroke-width="0.0506667"/>
<path d="M104.653 93.0957C104.675 93.0957 104.695 93.1024 104.713 93.1143H104.714L104.716 93.1152C104.718 93.1164 104.72 93.1187 104.724 93.1211C104.73 93.1258 104.74 93.1325 104.753 93.1416C104.779 93.1601 104.815 93.1876 104.859 93.2227C104.948 93.2929 105.065 93.3943 105.183 93.5186C105.418 93.768 105.663 94.1116 105.663 94.5117C105.663 94.8644 105.666 95.486 105.725 96.0625C105.754 96.3505 105.797 96.6281 105.858 96.8516C105.889 96.9637 105.925 97.0624 105.964 97.1406C106.002 97.2183 106.044 97.2785 106.084 97.3135C106.106 97.3324 106.119 97.3592 106.121 97.3877C106.123 97.4163 106.113 97.4442 106.094 97.4658C106.054 97.5107 105.986 97.5158 105.941 97.4766C105.798 97.3519 105.716 97.1532 105.649 96.9092C105.583 96.6664 105.54 96.3798 105.51 96.084C105.45 95.4925 105.446 94.866 105.446 94.5117C105.446 94.2049 105.24 93.8947 105.025 93.667C104.917 93.5527 104.809 93.4601 104.729 93.3955C104.688 93.3633 104.655 93.3375 104.631 93.3203C104.619 93.3119 104.61 93.3052 104.604 93.3008C104.6 93.2986 104.597 93.297 104.596 93.2959L104.594 93.2949V93.2939H104.593C104.543 93.2607 104.53 93.1932 104.563 93.1436C104.584 93.1137 104.617 93.0957 104.653 93.0957Z" fill="#FF9955" stroke="#263238" stroke-width="0.0506667"/>
<defs>
<linearGradient id="paint0_linear_12859_54900" x1="135" y1="0" x2="135" y2="150" gradientUnits="userSpaceOnUse">
<stop stop-color="#FFFCFC"/>
<stop offset="1" stop-color="white" stop-opacity="0.4"/>
</linearGradient>
</defs>
</svg>
