<svg width="30" height="31" viewBox="0 0 30 31" fill="none" xmlns="http://www.w3.org/2000/svg">
<rect y="0.125" width="30" height="30" rx="6.25" fill="#EAF4EF"/>
<path d="M4.5 21.625V7.625H5.99995V17.125H14.25V9.625H22C22.9624 9.625 23.7864 9.96771 24.4718 10.6531C25.1572 11.3385 25.4999 12.1625 25.4999 13.125V21.625H24V18.625H5.99995V21.625H4.5ZM9.99882 15.6826C9.28804 15.6826 8.68426 15.4339 8.18748 14.9363C7.69069 14.4388 7.4423 13.8346 7.4423 13.1239C7.4423 12.4131 7.69107 11.8093 8.1886 11.3125C8.68615 10.8157 9.29031 10.5673 10.0011 10.5673C10.7119 10.5673 11.3156 10.8161 11.8124 11.3136C12.3092 11.8112 12.5576 12.4153 12.5576 13.1261C12.5576 13.8369 12.3088 14.4407 11.8113 14.9375C11.3138 15.4342 10.7096 15.6826 9.99882 15.6826ZM15.7499 17.125H24V13.125C24 12.575 23.8041 12.1041 23.4125 11.7125C23.0208 11.3208 22.5499 11.125 22 11.125H15.7499V17.125ZM9.99995 14.1827C10.2961 14.1827 10.5464 14.0804 10.7509 13.876C10.9554 13.6715 11.0577 13.4211 11.0577 13.125C11.0577 12.8288 10.9554 12.5785 10.7509 12.374C10.5464 12.1695 10.2961 12.0673 9.99995 12.0673C9.7038 12.0673 9.45347 12.1695 9.24898 12.374C9.04449 12.5785 8.94225 12.8288 8.94225 13.125C8.94225 13.4211 9.04449 13.6715 9.24898 13.876C9.45347 14.0804 9.7038 14.1827 9.99995 14.1827Z" fill="#2F945A"/>
</svg>
