<svg width="517" height="469" viewBox="0 0 517 469" fill="none" xmlns="http://www.w3.org/2000/svg">
<g clip-path="url(#clip0_12076_53322)">
<path d="M129.123 445.412C129.123 445.412 111.207 457.603 103.99 456.789C103.197 456.748 102.444 456.428 101.865 455.885C97.1637 451.033 93.3815 442.504 93.3815 442.504C93.3815 442.504 95.6267 439.4 102.543 447.642L106.928 443.619L97.8869 434.488C97.8869 434.488 102.995 430.434 111.674 435.603C111.373 434.97 105.783 422.795 110.002 406.22L88.9062 385.863L107.621 369.559L109.128 368.293C109.128 368.293 110.303 369.453 112.142 371.307C113.98 373.16 116.526 375.39 119.284 377.816C125.884 383.617 133.87 389.871 137.366 389.871C143.664 389.66 129.123 445.412 129.123 445.412Z" fill="#FFBE9D"/>
<mask id="mask0_12076_53322" style="mask-type:luminance" maskUnits="userSpaceOnUse" x="88" y="368" width="51" height="89">
<path d="M129.123 445.412C129.123 445.412 111.207 457.603 103.99 456.789C103.197 456.748 102.444 456.428 101.865 455.885C97.1637 451.033 93.3815 442.504 93.3815 442.504C93.3815 442.504 95.6267 439.4 102.543 447.642L106.928 443.619L97.8869 434.488C97.8869 434.488 102.995 430.434 111.674 435.603C111.373 434.97 105.783 422.795 110.002 406.22L88.9062 385.863L107.621 369.559L109.128 368.293C109.128 368.293 110.303 369.453 112.142 371.307C113.98 373.16 116.526 375.39 119.284 377.816C125.884 383.617 133.87 389.871 137.366 389.871C143.664 389.66 129.123 445.412 129.123 445.412Z" fill="white"/>
</mask>
<g mask="url(#mask0_12076_53322)">
<path opacity="0.4" d="M115.276 437.426C115.276 437.426 105.059 447.974 103.99 456.789C103.197 456.748 102.444 456.427 101.865 455.885C97.1637 451.033 93.3815 442.504 93.3815 442.504C93.3815 442.504 95.6267 439.4 102.543 447.642L106.928 443.619L97.8869 434.488C97.8869 434.488 102.995 430.434 111.674 435.603C111.373 434.97 105.783 422.795 110.002 406.22L88.9062 385.862L107.621 369.559L112.142 371.261C113.995 373.009 116.526 375.345 119.284 377.771C115.321 383.572 106.837 395.581 106.837 395.581L114.176 405.527C114.176 405.527 109.655 430.6 115.276 437.426Z" fill="#2F945A"/>
</g>
<path d="M129.123 445.412C129.123 445.412 111.207 457.603 103.99 456.789C103.197 456.748 102.444 456.428 101.865 455.885C97.1637 451.033 93.3815 442.504 93.3815 442.504C93.3815 442.504 95.6267 439.4 102.543 447.642L106.928 443.619L97.8869 434.488C97.8869 434.488 102.995 430.434 111.674 435.603C111.373 434.97 105.783 422.795 110.002 406.22L88.9062 385.863L107.621 369.559L109.128 368.293C109.128 368.293 110.303 369.453 112.142 371.307C113.98 373.16 116.526 375.39 119.284 377.816C125.884 383.617 133.87 389.871 137.366 389.871C143.664 389.66 129.123 445.412 129.123 445.412Z" stroke="#263238" stroke-width="1.50683" stroke-linecap="round" stroke-linejoin="round"/>
<path d="M106.984 443.62C107.978 440.652 109.585 437.926 111.701 435.619" stroke="#263238" stroke-width="1.50683" stroke-linecap="round" stroke-linejoin="round"/>
<path d="M441.186 303.505C438.36 307.628 434.943 311.314 431.045 314.444C398.106 341.718 322.162 355.129 322.162 355.129C322.162 355.129 319.616 358.941 315.698 364.366C308.676 374.115 297.179 389.093 287.806 396.597C283.844 399.776 280.272 401.614 277.545 401.117L291.8 453.75L298.173 476.594C298.173 476.594 232.687 505.224 120.684 472.495C120.684 472.495 119.404 457.879 120.353 454.76C120.353 454.609 120.443 454.459 120.504 454.293C121.644 452.216 123.132 450.351 124.903 448.778C124.903 448.778 124.271 439.375 123.954 429.807C123.593 423.707 123.668 417.589 124.18 411.499C124.979 406.677 128.505 395.014 130.283 389.288L131.323 385.958L125.747 333.762L124.15 318.694L124.06 317.91C124.06 317.805 124.06 317.684 124.06 317.533L123.186 309.472L94.3752 318.272C94.3752 318.272 95.882 321.647 97.9614 326.378C101.744 335.043 107.304 348.227 108.509 353.501C108.6 353.931 108.721 354.354 108.871 354.767C111.538 362.377 121.694 369.293 121.694 369.293L94.4053 401.177L86.3438 395.542C85.3118 396.305 84.2238 396.99 83.0891 397.591C77.785 400.469 66.6647 404.703 54.4594 398.239C49.1704 395.266 44.5775 391.197 40.9883 386.305C19.5914 358.519 10.2792 335.781 13.308 309.155C16.3367 282.53 136.159 200.363 159.937 201.222L195.302 209.027C196.071 208.394 198.135 206.767 199.732 206.842C206.167 207.173 206.332 214.647 206.332 214.647L285.591 227.516C285.591 227.516 293.804 223.402 295.235 223.462C296.27 223.532 297.271 223.859 298.148 224.415C299.024 224.97 299.748 225.735 300.253 226.642C300.253 226.642 320.776 214.346 327.376 217.209C349.104 226.581 457.234 279.124 441.186 303.505Z" fill="#2F945A"/>
<path opacity="0.2" d="M165.832 433.718C156.825 443.618 144.732 450.177 131.522 452.327C127.348 452.99 123.686 453.653 120.477 454.316C121.617 452.239 123.105 450.374 124.876 448.801C124.876 448.801 124.244 439.398 123.927 429.83C133.224 435.963 149.438 443.045 165.832 433.718Z" fill="black"/>
<path opacity="0.2" d="M130.25 389.359L131.29 386.029L125.715 333.832C134.048 345.781 163.762 386.481 184.24 390.88C205.652 395.461 148.408 403.583 130.25 389.359Z" fill="black"/>
<path opacity="0.2" d="M291.768 453.82C269.392 451.273 237.764 445.638 234.599 433.93C229.672 415.637 253.645 404.667 287.805 396.666C283.842 399.845 280.271 401.684 277.544 401.186L291.768 453.82Z" fill="black"/>
<path opacity="0.2" d="M431.028 314.455C398.089 341.729 322.145 355.139 322.145 355.139C322.145 355.139 319.599 358.952 315.681 364.376C304.508 337.699 302.801 308.002 310.844 280.22C310.844 280.22 316.691 311.863 340.981 319.397C340.981 319.397 322.386 305.55 328.926 272.219C328.926 272.219 335.27 311.396 376.542 322.276C396.567 327.655 416.171 321.808 431.028 314.455Z" fill="black"/>
<path opacity="0.2" d="M124.03 318.018L123.126 309.579L94.315 318.379C94.315 318.379 95.8219 321.755 97.9013 326.486C86.8864 325.356 65.9867 335.527 62.3402 324.437C57.9403 310.996 84.9426 315.622 84.9426 315.622L110.468 300.779C105.646 280.136 117.927 264.616 117.927 264.616L120.263 279.021C121.378 251.642 132.091 236.664 132.091 236.664C123.231 258.317 123.472 311.674 124.03 318.018Z" fill="black"/>
<path opacity="0.2" d="M121.68 369.332L94.3913 401.217L86.3297 395.581C85.2977 396.345 84.2097 397.03 83.075 397.63C77.771 400.508 66.6506 404.743 54.4453 398.278C63.2904 386.043 81.5682 368.036 103.282 361.09C97.9513 369.023 93.1492 377.298 88.9064 385.862L94.5118 391.377C94.5118 391.377 108.495 375.435 121.68 369.332Z" fill="black"/>
<path opacity="0.2" d="M187.934 228.902C187.934 231.72 186.156 263.559 209.361 272.043C232.566 280.526 253.149 266.181 253.149 266.181C253.149 266.181 217.573 300.507 195.89 282.154C174.207 263.8 187.934 228.902 187.934 228.902Z" fill="black"/>
<path d="M120.64 472.557C120.64 472.557 119.389 457.941 120.324 454.837C121.107 452.215 124.844 448.809 124.844 448.809C124.844 448.809 122.87 419.185 124.136 411.545C125.221 404.991 131.278 385.929 131.278 385.929L123.111 309.473L94.3007 318.288C94.3007 318.288 106.566 345.411 108.465 353.457C110.363 361.504 121.665 369.234 121.665 369.234L94.376 401.103L86.3145 395.483C86.3145 395.483 62.5067 414.107 41.0043 386.261C19.5018 358.415 10.265 335.737 13.2787 309.036C16.2923 282.335 136.16 200.258 159.938 201.102L195.303 208.923C196.057 208.29 198.136 206.662 199.718 206.738C206.152 207.069 206.318 214.543 206.318 214.543L285.577 227.411C285.577 227.411 293.804 223.298 295.236 223.358C296.268 223.43 297.267 223.759 298.14 224.314C299.014 224.869 299.735 225.633 300.239 226.537C300.239 226.537 320.762 214.257 327.361 217.105C349.06 226.477 457.175 279.02 441.142 303.401C418.374 338.058 322.103 355.1 322.103 355.1C322.103 355.1 290.083 403.318 277.47 401.088L298.099 476.565" stroke="#263238" stroke-width="1.50683" stroke-linecap="round" stroke-linejoin="round"/>
<path d="M357.42 308.793C393.795 332.812 423.118 328.382 446.067 297.462C446.067 297.462 465.173 272.825 463.817 246.23C462.461 219.635 456.117 132.992 373.317 155.142C359.68 158.789 327.871 201.387 325.204 213.095C323.969 218.444 311.206 245.672 298.805 273.865" fill="#2F945A"/>
<path d="M357.42 308.793C393.795 332.812 423.118 328.382 446.067 297.462C446.067 297.462 465.173 272.825 463.817 246.23C462.461 219.635 456.117 132.992 373.317 155.142C359.68 158.789 327.871 201.387 325.204 213.095C323.969 218.444 311.206 245.672 298.805 273.865" stroke="#263238" stroke-width="1.50683" stroke-linecap="round" stroke-linejoin="round"/>
<path d="M253.636 53.9847C253.636 53.9847 276.811 50.4738 292.904 64.8791C313.261 83.0966 336.12 132.219 303.572 213.618C303.572 213.618 255.49 181.703 173.428 203.07C173.428 203.07 180.495 183.979 168.094 123.871C162.488 96.6731 176.592 34.0193 253.636 53.9847Z" fill="#1F212C"/>
<path d="M223.886 258.512C258.181 264.072 294.616 226.1 294.616 226.1C294.616 226.1 275.977 223.81 274.304 215.055C268.955 187.435 290.472 153.275 290.472 153.275C290.472 153.275 207.205 155.581 221.761 174.371C224.469 177.809 226.686 181.607 228.346 185.657C233.394 198.058 229.853 207.416 227.216 209.766C227.024 209.923 226.817 210.059 226.598 210.173C221.565 212.464 200.876 209.043 200.876 209.043C200.876 209.043 192.589 253.434 223.886 258.512Z" fill="#FFBE9D" stroke="#263238" stroke-width="1.50683" stroke-linecap="round" stroke-linejoin="round"/>
<path d="M282.815 236.617C282.815 236.617 266.993 242.946 243.834 241.062L233.406 246.17" stroke="#263238" stroke-width="1.50683" stroke-linecap="round" stroke-linejoin="round"/>
<path d="M223.013 245.374L222.259 238.533C222.259 238.533 205.172 233.183 199.883 223.027" stroke="#263238" stroke-width="1.50683" stroke-linecap="round" stroke-linejoin="round"/>
<path d="M227.215 209.812C252.71 216.472 264.69 183.774 264.69 183.774C264.69 183.774 244.287 177.746 228.345 185.763C233.393 198.164 229.897 207.521 227.215 209.812Z" fill="#F2A583"/>
<path d="M291.952 136.111C298.145 101.288 291.258 59.504 238.248 62.9697C200.382 65.4409 200.698 106.954 203.199 119.355C207.419 140.195 201.376 148.392 207.871 165.901C212.542 178.483 223.376 192.557 236.139 197.831C243.989 201.07 275.768 178.769 278.119 168.568" fill="#FFBE9D"/>
<path d="M291.952 136.111C298.145 101.288 291.258 59.504 238.248 62.9697C200.382 65.4409 200.698 106.954 203.199 119.355C207.419 140.195 201.376 148.392 207.871 165.901C212.542 178.483 223.376 192.557 236.139 197.831C243.989 201.07 275.768 178.769 278.119 168.568" stroke="#263238" stroke-width="1.50683" stroke-linecap="round" stroke-linejoin="round"/>
<path d="M225.349 125.852C225.033 129.769 224.565 139.413 216.308 146.586C210.944 151.211 223.239 155.943 223.239 155.943" stroke="#263238" stroke-width="1.50683" stroke-linecap="round" stroke-linejoin="round"/>
<path d="M216.55 112.036C216.55 112.036 204.857 106.34 196.961 115.742" stroke="#263238" stroke-width="1.50683" stroke-linecap="round" stroke-linejoin="round"/>
<path d="M236.168 111.265C244.389 108.881 253.161 109.23 261.166 112.26" stroke="#263238" stroke-width="1.50683" stroke-linecap="round" stroke-linejoin="round"/>
<path d="M248.311 127.735C248.673 131.095 250.933 133.611 253.359 133.34C255.785 133.069 257.457 130.146 257.096 126.786C256.734 123.425 254.474 120.924 252.048 121.18C249.622 121.436 247.949 124.375 248.311 127.735Z" fill="#263238"/>
<path d="M223.812 167.018C233.109 165.735 242.023 162.478 249.956 157.465C249.956 157.465 251.056 172.081 238.82 175.11C229.433 177.445 225.802 166.732 225.802 166.732" stroke="#263238" stroke-width="1.50683" stroke-linecap="round" stroke-linejoin="round"/>
<path d="M258.196 76.2297C258.196 76.2297 254.851 117.502 291.271 132.495L308.343 92.8198L282.516 64.1901L243.625 52.9492C185.507 56.5807 160.494 92.6842 192.755 188.895C192.755 188.94 183.729 74.3612 258.196 76.2297Z" fill="#292B3A"/>
<path d="M283.29 134.245C282.777 129.604 294.516 117.791 298.478 125.37C305.244 138.299 300.317 149.479 293.325 154C290.191 155.974 286.213 159.681 283.425 156.185" fill="#FFBE9D"/>
<path d="M283.29 134.245C282.777 129.604 294.516 117.791 298.478 125.37C305.244 138.299 300.317 149.479 293.325 154C290.191 155.974 286.213 159.681 283.425 156.185" stroke="#263238" stroke-width="1.50683" stroke-linecap="round" stroke-linejoin="round"/>
<path d="M212.842 129.346C213.218 132.706 215.479 135.223 217.905 134.952C220.331 134.68 222.003 131.757 221.642 128.397C221.28 125.037 219.005 122.52 216.579 122.792C214.153 123.063 212.465 125.911 212.842 129.346Z" fill="#263238"/>
<g opacity="0.2">
<path d="M187.603 122.502C187.166 125.29 186.865 128.122 186.699 130.94" stroke="#FFBE9D" stroke-width="1.50683" stroke-linecap="round" stroke-linejoin="round"/>
<path d="M252.169 68.7239C222.726 67.9554 195.362 86.7154 188.883 116.174" stroke="#FFBE9D" stroke-width="1.50683" stroke-linecap="round" stroke-linejoin="round"/>
<path d="M246.913 60.3165C246.913 60.3165 204.451 50.3262 188.539 78.4888" stroke="#FFBE9D" stroke-width="1.50683" stroke-linecap="round" stroke-linejoin="round"/>
<path d="M281.359 109.379C283.92 113.024 287.002 116.273 290.506 119.023" stroke="#FFBE9D" stroke-width="1.50683" stroke-linecap="round" stroke-linejoin="round"/>
<path d="M264.516 65.8164C266.685 79.3045 271.247 92.2966 277.987 104.18" stroke="#FFBE9D" stroke-width="1.50683" stroke-linecap="round" stroke-linejoin="round"/>
<path d="M307.168 193.533C306.415 196.908 305.526 200.254 304.531 203.569" stroke="#FFBE9D" stroke-width="1.50683" stroke-linecap="round" stroke-linejoin="round"/>
<path d="M304.715 137.418C311.601 152.712 311.134 171.743 308.301 187.836" stroke="#FFBE9D" stroke-width="1.50683" stroke-linecap="round" stroke-linejoin="round"/>
<path d="M299.667 164.002C300.003 169.795 299.109 175.593 297.044 181.015C294.98 186.438 291.791 191.362 287.688 195.464" stroke="#FFBE9D" stroke-width="1.50683" stroke-linecap="round" stroke-linejoin="round"/>
<path d="M280.094 70.7422C287.311 80.5064 292.676 90.9789 301.039 99.8993C309.854 109.287 318.668 120.046 320.326 133.275" stroke="#FFBE9D" stroke-width="1.50683" stroke-linecap="round" stroke-linejoin="round"/>
<path d="M269.906 60.5879C271.974 61.9433 273.875 63.5364 275.572 65.3344" stroke="#FFBE9D" stroke-width="1.50683" stroke-linecap="round" stroke-linejoin="round"/>
</g>
<path d="M415.149 287.187C414.305 287.368 413.461 287.519 412.587 287.639C389.804 290.894 364.248 271.999 355.629 249.321C348.818 231.405 354.77 211.078 358.025 202.383C359.05 199.656 359.788 198.074 359.788 198.074C373.53 178.485 453.422 216.834 454.356 237.99C455.291 259.145 438.49 282.064 415.149 287.187Z" fill="#263238" stroke="#263238" stroke-width="1.50683" stroke-linecap="round" stroke-linejoin="round"/>
<path d="M440.147 240.853C440.147 240.853 435.627 274.485 412.587 287.639C389.804 290.894 364.248 271.999 355.629 249.321C348.818 231.405 354.77 211.078 358.025 202.383C384.952 186.999 440.147 240.853 440.147 240.853Z" fill="#FFBE9D"/>
<mask id="mask1_12076_53322" style="mask-type:luminance" maskUnits="userSpaceOnUse" x="352" y="199" width="89" height="90">
<path d="M440.139 240.853C440.139 240.853 435.619 274.485 412.579 287.639C389.796 290.894 364.24 271.999 355.621 249.321C348.811 231.405 354.763 211.078 358.017 202.383C384.944 186.999 440.139 240.853 440.139 240.853Z" fill="white"/>
</mask>
<g mask="url(#mask1_12076_53322)">
<path opacity="0.4" d="M440.139 240.853C440.139 240.853 435.619 274.485 412.579 287.639C389.796 290.894 364.24 271.999 355.621 249.321C348.811 231.405 354.763 211.078 358.017 202.383C384.944 186.999 440.139 240.853 440.139 240.853Z" fill="#FFBE9D"/>
</g>
<path d="M440.147 240.853C440.147 240.853 435.627 274.485 412.587 287.639C389.804 290.894 364.248 271.999 355.629 249.321C348.818 231.405 354.77 211.078 358.025 202.383C384.952 186.999 440.147 240.853 440.147 240.853Z" stroke="#263238" stroke-width="1.50683" stroke-linecap="round" stroke-linejoin="round"/>
<path d="M345.926 258.557C345.926 258.557 371.873 295.806 402.176 298.91C432.478 302.014 451.901 276.488 453.091 257.246" stroke="#263238" stroke-width="1.50683" stroke-linecap="round" stroke-linejoin="round"/>
<path d="M331.34 90.4697C333.615 84.0958 349.979 86.2355 355.178 106.126C360.376 126.016 380.794 174.37 380.794 174.37C380.794 174.37 462.162 54.7127 476.688 50.1018C491.214 45.4909 485.503 66.2248 466.02 94.9901C466.02 94.9901 484.268 91.7806 489.059 94.9901C493.851 98.1997 491.515 117.593 494.062 124.313C498.341 135.659 488.833 138.055 488.833 138.055C493.498 138.16 497.983 139.868 501.536 142.892C506.764 147.789 504.143 168.026 505.634 173.752C507.126 179.478 497.151 184.3 497.151 184.3C497.151 184.3 521.125 197.364 515.715 200.649C506.584 206.164 501.385 200.513 501.385 200.513C501.385 200.513 464.543 246.773 436.757 257.079C408.972 267.386 354.892 226.431 349.075 204.13C343.259 181.829 350.205 183.2 345.79 146.087C341.375 108.973 331.34 90.4697 331.34 90.4697Z" fill="#FFBE9D" stroke="#263238" stroke-width="1.50683" stroke-linecap="round" stroke-linejoin="round"/>
<path d="M449.965 16.9477L342.824 44.8759C339.023 45.8667 336.745 49.7512 337.735 53.5522L388.381 247.844C389.372 251.645 393.256 253.923 397.057 252.933L504.199 225.004C507.999 224.014 510.278 220.129 509.287 216.328L458.641 22.036C457.65 18.2351 453.766 15.957 449.965 16.9477Z" fill="white" stroke="#263238" stroke-width="1.50683" stroke-linecap="round" stroke-linejoin="round"/>
<path d="M388.583 39.2819C388.64 39.5025 388.654 39.7323 388.622 39.9581C388.591 40.1839 388.515 40.4013 388.4 40.5979C388.284 40.7945 388.131 40.9664 387.949 41.1039C387.767 41.2413 387.56 41.3416 387.34 41.399C387.119 41.4564 386.889 41.4697 386.663 41.4383C386.438 41.4069 386.22 41.3313 386.024 41.2159C385.827 41.1005 385.655 40.9474 385.518 40.7655C385.38 40.5837 385.28 40.3765 385.223 40.1559C385.161 39.9352 385.145 39.7045 385.174 39.4774C385.204 39.2503 385.278 39.0313 385.393 38.8334C385.508 38.6354 385.662 38.4625 385.845 38.3247C386.027 38.187 386.236 38.0872 386.458 38.0312C386.906 37.9166 387.38 37.9838 387.779 38.2182C388.177 38.4525 388.466 38.835 388.583 39.2819Z" fill="#2F945A" stroke="#263238" stroke-width="1.50683" stroke-linecap="round" stroke-linejoin="round"/>
<path d="M410.658 33.5255C410.694 33.6641 410.703 33.8084 410.683 33.9502C410.663 34.092 410.615 34.2284 410.542 34.3517C410.47 34.475 410.373 34.5826 410.258 34.6684C410.144 34.7541 410.013 34.8164 409.875 34.8515C409.667 34.9041 409.448 34.894 409.246 34.8225C409.044 34.751 408.868 34.6213 408.74 34.4498C408.611 34.2783 408.537 34.0726 408.525 33.8587C408.513 33.6448 408.565 33.4323 408.674 33.2478C408.783 33.0634 408.944 32.9154 409.137 32.8224C409.33 32.7294 409.547 32.6956 409.759 32.7253C409.971 32.755 410.17 32.8468 410.33 32.9893C410.49 33.1317 410.604 33.3183 410.658 33.5255Z" fill="#2F945A" stroke="#263238" stroke-width="1.50683" stroke-linecap="round" stroke-linejoin="round"/>
<path d="M405.38 36.2429L392.444 39.5767C392.186 39.6433 392.031 39.9067 392.097 40.165L392.165 40.4281C392.231 40.6864 392.495 40.8418 392.753 40.7752L405.689 37.4414C405.947 37.3748 406.102 37.1114 406.036 36.8531L405.968 36.59C405.901 36.3317 405.638 36.1763 405.38 36.2429Z" fill="#2F945A" stroke="#263238" stroke-width="1.50939" stroke-linecap="round" stroke-linejoin="round"/>
<path d="M455.426 24.0486L505.648 216.742C505.928 217.822 505.768 218.97 505.203 219.933C504.638 220.897 503.715 221.596 502.635 221.88L396.87 249.44C395.789 249.719 394.642 249.559 393.679 248.995C392.715 248.43 392.016 247.506 391.732 246.426L341.51 53.7331C341.23 52.6522 341.39 51.5044 341.955 50.5413C342.52 49.5782 343.443 48.8782 344.523 48.5948L366.237 42.9292C366.933 42.7464 367.669 42.7812 368.345 43.029C369.021 43.2769 369.605 43.7258 370.019 44.3155L371.601 46.5606C372.014 47.1503 372.598 47.5992 373.275 47.847C373.951 48.0949 374.687 48.1297 375.383 47.9469L423.044 35.5307C423.734 35.3505 424.353 34.9665 424.82 34.4288C425.288 33.8912 425.583 33.2248 425.666 32.517L425.952 29.7896C426.031 29.0804 426.324 28.412 426.793 27.8736C427.261 27.3352 427.883 26.9523 428.574 26.776L450.287 21.1103C451.358 20.8278 452.497 20.9776 453.458 21.5273C454.42 22.077 455.126 22.9826 455.426 24.0486Z" fill="white" stroke="#263238" stroke-width="1.50683" stroke-linecap="round" stroke-linejoin="round"/>
<g clip-path="url(#clip1_12076_53322)">
<mask id="mask2_12076_53322" style="mask-type:luminance" maskUnits="userSpaceOnUse" x="408" y="185" width="71" height="41">
<path d="M408.993 202.12L472.4 185.13L478.763 208.875L415.355 225.865L408.993 202.12Z" fill="white"/>
</mask>
<g mask="url(#mask2_12076_53322)">
<path d="M422.692 212.34C423.976 213.223 426.349 214.846 429.489 216.993L431.541 216.443C431.574 216.434 431.586 216.417 431.579 216.391L431.508 216.126L424.74 211.346C424.2 210.979 423.921 210.763 423.903 210.697L423.898 210.677C424.735 210.453 425.554 209.999 426.353 209.315C426.791 208.987 427.19 208.42 427.549 207.615C427.78 206.852 427.852 206.233 427.767 205.758L429.515 205.29C429.528 205.286 429.714 204.752 430.074 203.687C430.069 203.668 430.049 203.659 430.015 203.661L427.325 204.382C427.044 203.833 426.676 203.402 426.221 203.089L428.744 202.412C428.8 202.334 428.991 201.792 429.318 200.786L429.313 200.766L419.868 203.297C419.848 203.302 419.658 203.834 419.296 204.892L419.309 204.941L421.803 204.272C422.221 204.16 422.715 204.119 423.285 204.149C424.095 204.241 424.697 204.511 425.091 204.959L425.096 204.979L421.209 206.02C421.286 206.109 421.352 206.208 421.402 206.32C421.554 206.655 421.611 207.021 421.576 207.417L425.715 206.308C425.771 206.517 425.786 206.73 425.761 206.948C425.616 208.425 424.509 209.44 422.441 209.994C422.003 210.112 421.614 210.192 421.274 210.233L421.268 210.288L421.618 211.594C421.619 211.599 421.864 211.77 422.324 212.087L422.692 212.34Z" fill="#646464"/>
<path d="M416.159 212.433C417.026 211.964 417.695 211.49 418.166 211.009C418.786 210.369 419.19 209.738 419.38 209.117C419.57 208.496 419.58 207.974 419.41 207.55C419.307 207.292 419.142 207.116 418.916 207.021C418.689 206.927 418.425 206.94 418.124 207.06C417.497 207.311 416.966 207.91 416.529 208.858C416.092 209.806 415.969 210.997 416.159 212.433ZM416.275 212.91C416.355 213.234 416.435 213.498 416.516 213.701C416.735 214.248 417.115 214.635 417.656 214.865C418.196 215.093 418.743 215.097 419.296 214.876C419.738 214.699 420.127 214.439 420.464 214.093C420.799 213.749 421.245 213.105 421.802 212.163L422.102 212.352C421.225 214.379 420.125 215.656 418.804 216.185C417.907 216.544 417.118 216.532 416.438 216.148C415.756 215.765 415.28 215.233 415.007 214.551C414.641 213.636 414.548 212.586 414.73 211.401C414.912 210.216 415.323 209.188 415.964 208.315C416.605 207.441 417.378 206.824 418.281 206.463C418.931 206.202 419.467 206.141 419.886 206.28C420.305 206.418 420.587 206.669 420.732 207.032C420.936 207.542 420.929 208.111 420.71 208.74C420.419 209.562 419.829 210.369 418.941 211.159C418.354 211.687 417.465 212.27 416.275 212.91Z" fill="#646464"/>
<path d="M461.999 203.103L459.906 203.664L460.038 192.511L462.131 191.95L461.999 203.103Z" fill="#646464"/>
<path d="M458.212 193.344C458.015 193.186 457.764 193.146 457.46 193.228L445.952 196.311L445.926 198.497L448.02 197.936L448.019 197.933L456.395 195.689L456.369 198.024L447.993 200.268L447.991 200.263L445.898 200.824L445.82 207.479L447.914 206.918L447.968 202.451L457.382 199.928C457.675 199.85 457.926 199.677 458.134 199.409C458.34 199.142 458.444 198.851 458.449 198.538L458.501 194.071C458.506 193.746 458.409 193.503 458.212 193.344Z" fill="#646464"/>
<path d="M444.426 207.115C444.42 207.558 444.118 207.942 443.684 208.058L432.887 210.952C432.593 211.03 432.348 210.99 432.152 210.831C431.954 210.67 431.858 210.435 431.863 210.122L431.989 200.055L434.083 199.493L433.97 208.484L442.35 206.239L442.462 197.248L444.558 196.687L444.426 207.115Z" fill="#646464"/>
<path d="M465.74 191L469.783 195.49L465.605 202.182L465.74 191Z" fill="#008B44"/>
<path d="M463.881 191.501L467.923 195.991L463.742 202.684L463.881 191.501Z" fill="#F37920"/>
<path d="M432.824 213.877L433.03 213.822C433.295 213.751 433.3 213.61 433.214 213.288C433.097 212.854 432.958 212.891 432.681 212.965L432.586 212.99L432.824 213.877ZM431.592 212.575L432.474 212.339C433.379 212.096 433.792 212.149 434.043 213.085C434.183 213.609 434.2 214.191 433.46 214.389L432.995 214.513L433.375 215.933L432.551 216.154L431.592 212.575Z" fill="#646464"/>
<path d="M435.29 213.113L435.492 213.059C435.774 212.983 435.723 212.795 435.661 212.562C435.594 212.311 435.555 212.168 435.233 212.254L435.071 212.297L435.29 213.113ZM434.084 211.909L435.172 211.617C435.907 211.42 436.275 211.557 436.448 212.202C436.561 212.623 436.576 212.912 436.173 213.164L436.175 213.173C436.482 213.153 436.727 213.313 436.807 213.614L436.976 214.245C437.04 214.483 437.117 214.808 437.243 214.899L436.427 215.117C436.302 215.026 436.215 214.703 436.152 214.466L435.998 213.893C435.943 213.687 435.839 213.619 435.606 213.681L435.453 213.722L435.867 215.267L435.043 215.488L434.084 211.909Z" fill="#646464"/>
<path d="M436.588 211.237L438.42 210.746L438.605 211.436L437.597 211.706L437.788 212.419L438.67 212.182L438.855 212.872L437.973 213.108L438.186 213.906L439.235 213.625L439.419 214.315L437.547 214.816L436.588 211.237Z" fill="#646464"/>
<path d="M440.055 211.944L440.261 211.888C440.525 211.818 440.53 211.677 440.444 211.354C440.328 210.92 440.189 210.957 439.911 211.032L439.817 211.057L440.055 211.944ZM438.822 210.641L439.705 210.405C440.61 210.163 441.022 210.215 441.273 211.152C441.414 211.675 441.43 212.257 440.691 212.455L440.225 212.58L440.606 214L439.781 214.221L438.822 210.641Z" fill="#646464"/>
<path d="M442.568 212.11L442.98 211.999L442.318 210.299L442.309 210.302L442.568 212.11ZM441.618 209.891L442.711 209.598L444.342 212.998L443.477 213.23L443.231 212.614L442.653 212.769L442.738 213.428L441.914 213.648L441.618 209.891Z" fill="#646464"/>
<path d="M443.603 209.36L444.428 209.139L445.387 212.719L444.562 212.939L443.603 209.36Z" fill="#646464"/>
<path d="M446.47 211.773L446.6 211.739C446.819 211.68 446.919 211.552 446.863 211.342L446.394 209.59C446.337 209.379 446.186 209.319 445.967 209.378L445.837 209.412L446.47 211.773ZM444.849 209.024L446.077 208.695C446.78 208.507 447.082 208.863 447.23 209.414L447.686 211.116C447.861 211.77 447.471 212.158 447.036 212.275L445.809 212.604L444.849 209.024Z" fill="#646464"/>
<path d="M449.674 209.591L450.024 209.497L449.94 209.184C449.913 209.085 449.877 208.951 449.703 208.997C449.528 209.044 449.564 209.179 449.59 209.277L449.674 209.591ZM448.834 209.537C448.744 209.202 448.791 208.675 449.561 208.469C450.332 208.263 450.635 208.695 450.725 209.031L450.936 209.819L449.816 210.12L449.981 210.733C450.007 210.832 450.043 210.966 450.218 210.919C450.392 210.873 450.356 210.738 450.33 210.64L450.234 210.281L451.005 210.075L451.086 210.379C451.176 210.716 451.13 211.241 450.359 211.448C449.589 211.654 449.286 211.222 449.196 210.886L448.834 209.537Z" fill="#646464"/>
<path d="M451.111 209.206L452.29 208.89L452.467 209.553L451.289 209.869L451.111 209.206Z" fill="#646464"/>
<path d="M452.006 207.106L452.848 206.881L453.754 209.365L453.763 209.363L453.354 206.745L454.183 206.523L454.533 210.265L453.511 210.539L452.006 207.106Z" fill="#646464"/>
<path d="M455.949 208.914C455.974 209.008 456.037 209.241 456.274 209.177C456.512 209.113 456.449 208.881 456.424 208.786L455.95 207.017C455.917 206.896 455.862 206.69 455.625 206.753C455.387 206.817 455.442 207.023 455.475 207.144L455.949 208.914ZM454.67 207.437C454.483 206.738 454.841 206.282 455.454 206.117C456.068 205.953 456.606 206.169 456.793 206.868L457.229 208.494C457.399 209.13 457.098 209.638 456.445 209.813C455.79 209.988 455.276 209.699 455.106 209.063L454.67 207.437Z" fill="#646464"/>
<path d="M456.9 205.788L457.725 205.567L458.424 208.179C458.476 208.371 458.522 208.542 458.759 208.478C458.997 208.415 458.951 208.244 458.899 208.052L458.199 205.44L459.024 205.219L459.721 207.822C459.892 208.458 459.591 208.966 458.937 209.141C458.283 209.317 457.768 209.027 457.598 208.391L456.9 205.788Z" fill="#646464"/>
<path d="M459.666 206.093C459.479 205.394 459.837 204.938 460.45 204.774C461.064 204.609 461.602 204.825 461.789 205.524L461.878 205.856L461.054 206.076L460.946 205.673C460.913 205.552 460.858 205.346 460.621 205.41C460.383 205.473 460.439 205.679 460.471 205.8L460.945 207.57C460.97 207.664 461.033 207.897 461.27 207.833C461.508 207.77 461.445 207.537 461.42 207.443L461.28 206.918L462.104 206.698L462.225 207.15C462.396 207.786 462.095 208.294 461.441 208.469C460.786 208.645 460.272 208.355 460.102 207.719L459.666 206.093Z" fill="#646464"/>
<path d="M461.885 204.466L462.709 204.245L463.068 205.584L463.543 205.457L463.184 204.118L464.008 203.897L464.967 207.476L464.143 207.697L463.735 206.174L463.26 206.301L463.668 207.824L462.844 208.045L461.885 204.466Z" fill="#646464"/>
<path d="M464.373 203.792L466.205 203.301L466.39 203.991L465.382 204.261L465.573 204.973L466.455 204.737L466.64 205.427L465.758 205.663L465.972 206.461L467.02 206.18L467.205 206.869L465.332 207.371L464.373 203.792Z" fill="#646464"/>
<path d="M467.813 204.394L468.015 204.34C468.297 204.264 468.247 204.076 468.184 203.843C468.117 203.592 468.079 203.449 467.756 203.535L467.595 203.578L467.813 204.394ZM466.607 203.19L467.696 202.898C468.43 202.702 468.799 202.838 468.971 203.483C469.084 203.905 469.099 204.193 468.696 204.445L468.698 204.454C469.005 204.435 469.25 204.595 469.33 204.895L469.499 205.526C469.563 205.764 469.641 206.089 469.766 206.18L468.951 206.399C468.825 206.307 468.739 205.985 468.675 205.747L468.522 205.174C468.466 204.968 468.362 204.9 468.129 204.962L467.977 205.003L468.391 206.549L467.566 206.77L466.607 203.19Z" fill="#646464"/>
</g>
</g>
<path d="M407.15 88.0177L420.836 74.3313L418.403 71.934L407.15 83.1872L401.503 77.5403L399.118 79.9375L407.15 88.0177ZM410.002 98.5781C407.335 98.5781 404.819 98.0689 402.453 97.0505C400.087 96.0321 398.02 94.6393 396.253 92.8722C394.486 91.105 393.093 89.0388 392.074 86.6737C391.056 84.3085 390.547 81.7927 390.547 79.1263C390.547 76.4283 391.056 73.896 392.074 71.5296C393.093 69.1635 394.485 67.1047 396.251 65.3531C398.017 63.6013 400.083 62.2146 402.448 61.193C404.814 60.1711 407.331 59.6602 409.998 59.6602C412.696 59.6602 415.229 60.1708 417.597 61.1921C419.964 62.2133 422.023 63.5992 423.774 65.3498C425.525 67.1003 426.911 69.1588 427.932 71.5253C428.954 73.8917 429.465 76.4249 429.465 79.1249C429.465 81.7922 428.954 84.309 427.932 86.6751C426.91 89.0412 425.524 91.1074 423.772 92.8736C422.02 94.6398 419.962 96.0321 417.597 97.0505C415.232 98.0689 412.7 98.5781 410.002 98.5781Z" fill="#2F945A"/>
<g clip-path="url(#clip2_12076_53322)">
<path d="M454.114 96.1283L375.992 118.443L398.307 196.565L476.429 174.25L454.114 96.1283Z" fill="white"/>
<mask id="mask3_12076_53322" style="mask-type:luminance" maskUnits="userSpaceOnUse" x="389" y="107" width="80" height="76">
<path d="M392.545 149.533L390.18 150.209L390.855 152.574L393.22 151.898L392.545 149.533Z" fill="white"/>
<path d="M393.22 151.899L390.855 152.574L391.531 154.939L393.896 154.264L393.22 151.899Z" fill="white"/>
<path d="M393.896 154.26L391.531 154.936L392.207 157.301L394.572 156.625L393.896 154.26Z" fill="white"/>
<path d="M394.572 156.625L392.207 157.301L392.883 159.666L395.248 158.99L394.572 156.625Z" fill="white"/>
<path d="M395.924 161.358L393.559 162.033L394.234 164.398L396.599 163.723L395.924 161.358Z" fill="white"/>
<path d="M396.599 163.719L394.234 164.395L394.91 166.76L397.275 166.084L396.599 163.719Z" fill="white"/>
<path d="M397.275 166.084L394.91 166.76L395.586 169.125L397.951 168.449L397.275 166.084Z" fill="white"/>
<path d="M392.213 139.393L389.848 140.068L390.523 142.433L392.888 141.758L392.213 139.393Z" fill="white"/>
<path d="M394.24 146.49L391.875 147.166L392.551 149.531L394.916 148.855L394.24 146.49Z" fill="white"/>
<path d="M395.592 151.217L393.227 151.893L393.902 154.258L396.267 153.582L395.592 151.217Z" fill="white"/>
<path d="M396.943 155.949L394.578 156.625L395.254 158.99L397.619 158.314L396.943 155.949Z" fill="white"/>
<path d="M398.295 160.68L395.93 161.355L396.605 163.72L398.97 163.045L398.295 160.68Z" fill="white"/>
<path d="M400.318 167.77L397.953 168.445L398.629 170.81L400.994 170.135L400.318 167.77Z" fill="white"/>
<path d="M397.279 148.182L394.914 148.857L395.59 151.222L397.955 150.547L397.279 148.182Z" fill="white"/>
<path d="M398.627 152.908L396.262 153.584L396.937 155.949L399.302 155.273L398.627 152.908Z" fill="white"/>
<path d="M399.978 157.641L397.613 158.316L398.289 160.681L400.654 160.006L399.978 157.641Z" fill="white"/>
<path d="M401.33 162.367L398.965 163.043L399.64 165.408L402.005 164.732L401.33 162.367Z" fill="white"/>
<path d="M402.681 167.1L400.316 167.775L400.992 170.14L403.357 169.465L402.681 167.1Z" fill="white"/>
<path d="M396.943 138.041L394.578 138.717L395.254 141.082L397.619 140.406L396.943 138.041Z" fill="white"/>
<path d="M397.619 140.406L395.254 141.082L395.929 143.447L398.294 142.771L397.619 140.406Z" fill="white"/>
<path d="M398.97 145.139L396.605 145.814L397.281 148.179L399.646 147.504L398.97 145.139Z" fill="white"/>
<path d="M401.674 154.598L399.309 155.273L399.984 157.638L402.349 156.963L401.674 154.598Z" fill="white"/>
<path d="M402.349 156.963L399.984 157.639L400.66 160.004L403.025 159.328L402.349 156.963Z" fill="white"/>
<path d="M403.025 159.328L400.66 160.004L401.336 162.369L403.701 161.693L403.025 159.328Z" fill="white"/>
<path d="M404.377 164.057L402.012 164.732L402.687 167.097L405.052 166.422L404.377 164.057Z" fill="white"/>
<path d="M405.049 166.418L402.684 167.094L403.359 169.459L405.724 168.783L405.049 166.418Z" fill="white"/>
<path d="M399.306 137.367L396.941 138.043L397.617 140.408L399.982 139.732L399.306 137.367Z" fill="white"/>
<path d="M399.982 139.733L397.617 140.408L398.293 142.773L400.658 142.098L399.982 139.733Z" fill="white"/>
<path d="M400.658 142.098L398.293 142.773L398.969 145.138L401.334 144.463L400.658 142.098Z" fill="white"/>
<path d="M402.685 149.192L400.32 149.867L400.996 152.232L403.361 151.557L402.685 149.192Z" fill="white"/>
<path d="M403.361 151.557L400.996 152.232L401.672 154.597L404.037 153.922L403.361 151.557Z" fill="white"/>
<path d="M404.037 153.922L401.672 154.598L402.347 156.963L404.712 156.287L404.037 153.922Z" fill="white"/>
<path d="M405.385 158.651L403.02 159.326L403.695 161.691L406.06 161.016L405.385 158.651Z" fill="white"/>
<path d="M406.736 163.381L404.371 164.057L405.047 166.422L407.412 165.746L406.736 163.381Z" fill="white"/>
<path d="M403.01 141.426L400.645 142.102L401.32 144.467L403.685 143.791L403.01 141.426Z" fill="white"/>
<path d="M404.361 146.156L401.996 146.832L402.672 149.197L405.037 148.521L404.361 146.156Z" fill="white"/>
<path d="M405.037 148.524L402.672 149.199L403.347 151.564L405.712 150.889L405.037 148.524Z" fill="white"/>
<path d="M405.713 150.885L403.348 151.561L404.023 153.926L406.388 153.25L405.713 150.885Z" fill="white"/>
<path d="M407.064 155.615L404.699 156.291L405.375 158.656L407.74 157.98L407.064 155.615Z" fill="white"/>
<path d="M407.74 157.983L405.375 158.658L406.051 161.023L408.416 160.348L407.74 157.983Z" fill="white"/>
<path d="M408.416 160.344L406.051 161.02L406.726 163.385L409.091 162.709L408.416 160.344Z" fill="white"/>
<path d="M404.037 136.016L401.672 136.691L402.347 139.056L404.712 138.381L404.037 136.016Z" fill="white"/>
<path d="M405.388 140.746L403.023 141.422L403.699 143.787L406.064 143.111L405.388 140.746Z" fill="white"/>
<path d="M406.74 145.479L404.375 146.154L405.051 148.519L407.416 147.844L406.74 145.479Z" fill="white"/>
<path d="M408.092 150.209L405.727 150.885L406.402 153.25L408.767 152.574L408.092 150.209Z" fill="white"/>
<path d="M409.443 154.938L407.078 155.613L407.754 157.978L410.119 157.303L409.443 154.938Z" fill="white"/>
<path d="M410.791 159.664L408.426 160.34L409.101 162.705L411.466 162.029L410.791 159.664Z" fill="white"/>
<path d="M412.142 164.393L409.777 165.068L410.453 167.433L412.818 166.758L412.142 164.393Z" fill="white"/>
<path d="M406.408 135.338L404.043 136.014L404.719 138.379L407.084 137.703L406.408 135.338Z" fill="white"/>
<path d="M407.084 137.703L404.719 138.379L405.394 140.744L407.759 140.068L407.084 137.703Z" fill="white"/>
<path d="M409.107 144.797L406.742 145.473L407.418 147.838L409.783 147.162L409.107 144.797Z" fill="white"/>
<path d="M409.783 147.162L407.418 147.838L408.094 150.203L410.459 149.527L409.783 147.162Z" fill="white"/>
<path d="M410.459 149.53L408.094 150.205L408.769 152.57L411.134 151.895L410.459 149.53Z" fill="white"/>
<path d="M411.135 151.895L408.77 152.57L409.445 154.935L411.81 154.26L411.135 151.895Z" fill="white"/>
<path d="M411.81 154.26L409.445 154.936L410.121 157.301L412.486 156.625L411.81 154.26Z" fill="white"/>
<path d="M414.513 163.715L412.148 164.391L412.824 166.756L415.189 166.08L414.513 163.715Z" fill="white"/>
<path d="M404.033 118.11L401.668 118.785L402.344 121.15L404.709 120.475L404.033 118.11Z" fill="white"/>
<path d="M405.385 122.842L403.02 123.518L403.695 125.883L406.06 125.207L405.385 122.842Z" fill="white"/>
<path d="M406.06 125.207L403.695 125.883L404.371 128.248L406.736 127.572L406.06 125.207Z" fill="white"/>
<path d="M406.736 127.572L404.371 128.248L405.047 130.613L407.412 129.937L406.736 127.572Z" fill="white"/>
<path d="M407.412 129.938L405.047 130.613L405.722 132.978L408.087 132.303L407.412 129.938Z" fill="white"/>
<path d="M408.76 134.666L406.395 135.342L407.07 137.707L409.435 137.031L408.76 134.666Z" fill="white"/>
<path d="M410.111 139.397L407.746 140.072L408.422 142.437L410.787 141.762L410.111 139.397Z" fill="white"/>
<path d="M410.787 141.764L408.422 142.439L409.097 144.804L411.462 144.129L410.787 141.764Z" fill="white"/>
<path d="M411.463 144.129L409.098 144.805L409.773 147.17L412.138 146.494L411.463 144.129Z" fill="white"/>
<path d="M412.138 146.494L409.773 147.17L410.449 149.535L412.814 148.859L412.138 146.494Z" fill="white"/>
<path d="M414.166 153.588L411.801 154.264L412.476 156.629L414.841 155.953L414.166 153.588Z" fill="white"/>
<path d="M415.517 158.315L413.152 158.99L413.828 161.355L416.193 160.68L415.517 158.315Z" fill="white"/>
<path d="M416.193 160.682L413.828 161.357L414.504 163.722L416.869 163.047L416.193 160.682Z" fill="white"/>
<path d="M417.541 165.408L415.176 166.084L415.851 168.449L418.216 167.773L417.541 165.408Z" fill="white"/>
<path d="M418.217 167.774L415.852 168.449L416.527 170.814L418.892 170.139L418.217 167.774Z" fill="white"/>
<path d="M419.568 172.506L417.203 173.182L417.879 175.547L420.244 174.871L419.568 172.506Z" fill="white"/>
<path d="M420.244 174.871L417.879 175.547L418.554 177.912L420.919 177.236L420.244 174.871Z" fill="white"/>
<path d="M421.595 179.604L419.23 180.279L419.906 182.644L422.271 181.969L421.595 179.604Z" fill="white"/>
<path d="M407.744 122.166L405.379 122.842L406.054 125.207L408.419 124.531L407.744 122.166Z" fill="white"/>
<path d="M409.095 126.895L406.73 127.57L407.406 129.935L409.771 129.26L409.095 126.895Z" fill="white"/>
<path d="M411.799 136.354L409.434 137.029L410.109 139.394L412.474 138.719L411.799 136.354Z" fill="white"/>
<path d="M414.502 145.821L412.137 146.496L412.812 148.861L415.177 148.186L414.502 145.821Z" fill="white"/>
<path d="M415.178 148.182L412.812 148.857L413.488 151.222L415.853 150.547L415.178 148.182Z" fill="white"/>
<path d="M415.853 150.547L413.488 151.223L414.164 153.588L416.529 152.912L415.853 150.547Z" fill="white"/>
<path d="M417.205 155.28L414.84 155.955L415.515 158.32L417.88 157.645L417.205 155.28Z" fill="white"/>
<path d="M419.228 162.367L416.863 163.043L417.539 165.408L419.904 164.732L419.228 162.367Z" fill="white"/>
<path d="M420.58 167.1L418.215 167.775L418.89 170.14L421.255 169.465L420.58 167.1Z" fill="white"/>
<path d="M421.256 169.465L418.891 170.141L419.566 172.506L421.931 171.83L421.256 169.465Z" fill="white"/>
<path d="M421.931 171.83L419.566 172.506L420.242 174.871L422.607 174.195L421.931 171.83Z" fill="white"/>
<path d="M422.607 174.197L420.242 174.873L420.918 177.238L423.283 176.562L422.607 174.197Z" fill="white"/>
<path d="M423.959 178.924L421.594 179.6L422.269 181.965L424.634 181.289L423.959 178.924Z" fill="white"/>
<path d="M410.123 121.483L407.758 122.158L408.433 124.523L410.798 123.848L410.123 121.483Z" fill="white"/>
<path d="M410.799 123.854L408.434 124.529L409.109 126.894L411.474 126.219L410.799 123.854Z" fill="white"/>
<path d="M412.15 128.584L409.785 129.26L410.461 131.625L412.826 130.949L412.15 128.584Z" fill="white"/>
<path d="M412.826 130.946L410.461 131.621L411.136 133.986L413.501 133.311L412.826 130.946Z" fill="white"/>
<path d="M414.853 138.043L412.488 138.719L413.164 141.084L415.529 140.408L414.853 138.043Z" fill="white"/>
<path d="M416.877 145.137L414.512 145.812L415.187 148.178L417.552 147.502L416.877 145.137Z" fill="white"/>
<path d="M418.228 149.867L415.863 150.543L416.539 152.908L418.904 152.232L418.228 149.867Z" fill="white"/>
<path d="M419.58 154.6L417.215 155.275L417.89 157.64L420.255 156.965L419.58 154.6Z" fill="white"/>
<path d="M420.256 156.961L417.891 157.637L418.566 160.002L420.931 159.326L420.256 156.961Z" fill="white"/>
<path d="M421.607 161.69L419.242 162.365L419.918 164.73L422.283 164.055L421.607 161.69Z" fill="white"/>
<path d="M422.283 164.055L419.918 164.73L420.594 167.095L422.959 166.42L422.283 164.055Z" fill="white"/>
<path d="M422.959 166.42L420.594 167.096L421.269 169.461L423.634 168.785L422.959 166.42Z" fill="white"/>
<path d="M423.631 168.781L421.266 169.457L421.941 171.822L424.306 171.146L423.631 168.781Z" fill="white"/>
<path d="M424.306 171.149L421.941 171.824L422.617 174.189L424.982 173.514L424.306 171.149Z" fill="white"/>
<path d="M424.982 173.514L422.617 174.189L423.293 176.554L425.658 175.879L424.982 173.514Z" fill="white"/>
<path d="M411.135 116.08L408.77 116.756L409.445 119.121L411.81 118.445L411.135 116.08Z" fill="white"/>
<path d="M411.81 118.447L409.445 119.123L410.121 121.488L412.486 120.812L411.81 118.447Z" fill="white"/>
<path d="M415.861 132.637L413.496 133.312L414.172 135.678L416.537 135.002L415.861 132.637Z" fill="white"/>
<path d="M417.213 137.369L414.848 138.045L415.523 140.41L417.888 139.734L417.213 137.369Z" fill="white"/>
<path d="M417.888 139.735L415.523 140.41L416.199 142.775L418.564 142.1L417.888 139.735Z" fill="white"/>
<path d="M419.24 144.463L416.875 145.139L417.551 147.504L419.916 146.828L419.24 144.463Z" fill="white"/>
<path d="M421.943 153.922L419.578 154.598L420.254 156.963L422.619 156.287L421.943 153.922Z" fill="white"/>
<path d="M423.295 158.653L420.93 159.328L421.605 161.693L423.97 161.018L423.295 158.653Z" fill="white"/>
<path d="M423.97 161.018L421.605 161.693L422.281 164.058L424.646 163.383L423.97 161.018Z" fill="white"/>
<path d="M425.994 168.112L423.629 168.787L424.304 171.152L426.669 170.477L425.994 168.112Z" fill="white"/>
<path d="M427.345 172.84L424.98 173.516L425.656 175.881L428.021 175.205L427.345 172.84Z" fill="white"/>
<path d="M429.373 179.936L427.008 180.611L427.683 182.976L430.048 182.301L429.373 179.936Z" fill="white"/>
<path d="M413.494 115.41L411.129 116.086L411.804 118.451L414.169 117.775L413.494 115.41Z" fill="white"/>
<path d="M414.845 120.139L412.48 120.814L413.156 123.179L415.521 122.504L414.845 120.139Z" fill="white"/>
<path d="M416.197 124.869L413.832 125.545L414.508 127.91L416.873 127.234L416.197 124.869Z" fill="white"/>
<path d="M416.873 127.231L414.508 127.906L415.183 130.271L417.548 129.596L416.873 127.231Z" fill="white"/>
<path d="M417.549 129.602L415.184 130.277L415.859 132.642L418.224 131.967L417.549 129.602Z" fill="white"/>
<path d="M418.224 131.967L415.859 132.643L416.535 135.008L418.9 134.332L418.224 131.967Z" fill="white"/>
<path d="M418.9 134.332L416.535 135.008L417.211 137.373L419.576 136.697L418.9 134.332Z" fill="white"/>
<path d="M419.576 136.694L417.211 137.369L417.886 139.734L420.251 139.059L419.576 136.694Z" fill="white"/>
<path d="M420.252 139.061L417.887 139.736L418.562 142.101L420.927 141.426L420.252 139.061Z" fill="white"/>
<path d="M421.603 143.791L419.238 144.467L419.914 146.832L422.279 146.156L421.603 143.791Z" fill="white"/>
<path d="M422.955 148.52L420.59 149.195L421.265 151.56L423.63 150.885L422.955 148.52Z" fill="white"/>
<path d="M424.978 155.612L422.613 156.287L423.289 158.652L425.654 157.977L424.978 155.612Z" fill="white"/>
<path d="M425.654 157.979L423.289 158.654L423.965 161.019L426.33 160.344L425.654 157.979Z" fill="white"/>
<path d="M427.006 162.709L424.641 163.385L425.316 165.75L427.681 165.074L427.006 162.709Z" fill="white"/>
<path d="M427.681 165.071L425.316 165.746L425.992 168.111L428.357 167.436L427.681 165.071Z" fill="white"/>
<path d="M431.06 176.897L428.695 177.572L429.371 179.937L431.736 179.262L431.06 176.897Z" fill="white"/>
<path d="M416.533 117.098L414.168 117.773L414.844 120.138L417.209 119.463L416.533 117.098Z" fill="white"/>
<path d="M417.881 121.824L415.516 122.5L416.191 124.865L418.556 124.189L417.881 121.824Z" fill="white"/>
<path d="M418.556 124.192L416.191 124.867L416.867 127.232L419.232 126.557L418.556 124.192Z" fill="white"/>
<path d="M419.908 128.922L417.543 129.598L418.219 131.963L420.584 131.287L419.908 128.922Z" fill="white"/>
<path d="M420.584 131.287L418.219 131.963L418.894 134.328L421.259 133.652L420.584 131.287Z" fill="white"/>
<path d="M422.611 138.385L420.246 139.061L420.922 141.426L423.287 140.75L422.611 138.385Z" fill="white"/>
<path d="M425.314 147.844L422.949 148.52L423.625 150.885L425.99 150.209L425.314 147.844Z" fill="white"/>
<path d="M426.666 152.576L424.301 153.252L424.976 155.617L427.341 154.941L426.666 152.576Z" fill="white"/>
<path d="M427.342 154.938L424.977 155.613L425.652 157.978L428.017 157.303L427.342 154.938Z" fill="white"/>
<path d="M430.045 164.397L427.68 165.072L428.355 167.437L430.72 166.762L430.045 164.397Z" fill="white"/>
<path d="M431.396 169.127L429.031 169.803L429.707 172.168L432.072 171.492L431.396 169.127Z" fill="white"/>
<path d="M432.744 173.856L430.379 174.531L431.054 176.896L433.419 176.221L432.744 173.856Z" fill="white"/>
<path d="M417.556 111.688L415.191 112.363L415.867 114.728L418.232 114.053L417.556 111.688Z" fill="white"/>
<path d="M418.232 114.053L415.867 114.729L416.543 117.094L418.908 116.418L418.232 114.053Z" fill="white"/>
<path d="M419.584 118.783L417.219 119.459L417.894 121.824L420.259 121.148L419.584 118.783Z" fill="white"/>
<path d="M420.26 121.151L417.895 121.826L418.57 124.191L420.935 123.516L420.26 121.151Z" fill="white"/>
<path d="M421.611 125.877L419.246 126.553L419.922 128.918L422.287 128.242L421.611 125.877Z" fill="white"/>
<path d="M425.666 140.072L423.301 140.748L423.976 143.113L426.341 142.437L425.666 140.072Z" fill="white"/>
<path d="M427.017 144.799L424.652 145.475L425.328 147.84L427.693 147.164L427.017 144.799Z" fill="white"/>
<path d="M428.369 149.531L426.004 150.207L426.679 152.572L429.044 151.896L428.369 149.531Z" fill="white"/>
<path d="M429.045 151.897L426.68 152.572L427.355 154.937L429.72 154.262L429.045 151.897Z" fill="white"/>
<path d="M430.396 156.623L428.031 157.299L428.707 159.664L431.072 158.988L430.396 156.623Z" fill="white"/>
<path d="M431.068 158.987L428.703 159.662L429.379 162.027L431.744 161.352L431.068 158.987Z" fill="white"/>
<path d="M431.744 161.352L429.379 162.027L430.054 164.392L432.419 163.717L431.744 161.352Z" fill="white"/>
<path d="M432.42 163.717L430.055 164.393L430.73 166.758L433.095 166.082L432.42 163.717Z" fill="white"/>
<path d="M433.095 166.082L430.73 166.758L431.406 169.123L433.771 168.447L433.095 166.082Z" fill="white"/>
<path d="M434.447 170.815L432.082 171.49L432.758 173.855L435.123 173.18L434.447 170.815Z" fill="white"/>
<path d="M436.474 177.908L434.109 178.584L434.785 180.949L437.15 180.273L436.474 177.908Z" fill="white"/>
<path d="M419.92 111.012L417.555 111.688L418.23 114.053L420.595 113.377L419.92 111.012Z" fill="white"/>
<path d="M420.595 113.377L418.23 114.053L418.906 116.418L421.271 115.742L420.595 113.377Z" fill="white"/>
<path d="M421.271 115.748L418.906 116.424L419.582 118.789L421.947 118.113L421.271 115.748Z" fill="white"/>
<path d="M421.947 118.11L419.582 118.785L420.258 121.15L422.623 120.475L421.947 118.11Z" fill="white"/>
<path d="M422.623 120.475L420.258 121.15L420.933 123.515L423.298 122.84L422.623 120.475Z" fill="white"/>
<path d="M423.299 122.842L420.934 123.518L421.609 125.883L423.974 125.207L423.299 122.842Z" fill="white"/>
<path d="M424.65 127.569L422.285 128.244L422.961 130.609L425.326 129.934L424.65 127.569Z" fill="white"/>
<path d="M425.326 129.934L422.961 130.609L423.636 132.974L426.001 132.299L425.326 129.934Z" fill="white"/>
<path d="M426.002 132.301L423.637 132.977L424.312 135.342L426.677 134.666L426.002 132.301Z" fill="white"/>
<path d="M426.678 134.666L424.312 135.342L424.988 137.707L427.353 137.031L426.678 134.666Z" fill="white"/>
<path d="M430.053 146.49L427.688 147.166L428.363 149.531L430.728 148.855L430.053 146.49Z" fill="white"/>
<path d="M431.404 151.223L429.039 151.898L429.715 154.263L432.08 153.588L431.404 151.223Z" fill="white"/>
<path d="M432.08 153.584L429.715 154.26L430.39 156.625L432.755 155.949L432.08 153.584Z" fill="white"/>
<path d="M433.431 158.311L431.066 158.986L431.742 161.351L434.107 160.676L433.431 158.311Z" fill="white"/>
<path d="M436.135 167.774L433.77 168.449L434.445 170.814L436.81 170.139L436.135 167.774Z" fill="white"/>
<path d="M436.81 170.141L434.445 170.816L435.121 173.181L437.486 172.506L436.81 170.141Z" fill="white"/>
<path d="M437.486 172.506L435.121 173.182L435.797 175.547L438.162 174.871L437.486 172.506Z" fill="white"/>
<path d="M438.162 174.871L435.797 175.547L436.472 177.912L438.837 177.236L438.162 174.871Z" fill="white"/>
<path d="M422.283 110.338L419.918 111.014L420.594 113.379L422.959 112.703L422.283 110.338Z" fill="white"/>
<path d="M423.635 115.069L421.27 115.744L421.945 118.109L424.31 117.434L423.635 115.069Z" fill="white"/>
<path d="M426.334 124.528L423.969 125.203L424.644 127.568L427.009 126.893L426.334 124.528Z" fill="white"/>
<path d="M429.037 133.987L426.672 134.662L427.347 137.027L429.712 136.352L429.037 133.987Z" fill="white"/>
<path d="M430.388 138.723L428.023 139.398L428.699 141.763L431.064 141.088L430.388 138.723Z" fill="white"/>
<path d="M432.416 145.817L430.051 146.492L430.726 148.857L433.091 148.182L432.416 145.817Z" fill="white"/>
<path d="M433.092 148.182L430.727 148.857L431.402 151.222L433.767 150.547L433.092 148.182Z" fill="white"/>
<path d="M433.767 150.543L431.402 151.219L432.078 153.584L434.443 152.908L433.767 150.543Z" fill="white"/>
<path d="M435.791 157.637L433.426 158.312L434.101 160.678L436.466 160.002L435.791 157.637Z" fill="white"/>
<path d="M437.818 164.735L435.453 165.41L436.129 167.775L438.494 167.1L437.818 164.735Z" fill="white"/>
<path d="M438.494 167.1L436.129 167.775L436.804 170.14L439.169 169.465L438.494 167.1Z" fill="white"/>
<path d="M439.17 169.465L436.805 170.141L437.48 172.506L439.845 171.83L439.17 169.465Z" fill="white"/>
<path d="M424.646 109.666L422.281 110.342L422.957 112.707L425.322 112.031L424.646 109.666Z" fill="white"/>
<path d="M425.994 114.395L423.629 115.07L424.304 117.435L426.669 116.76L425.994 114.395Z" fill="white"/>
<path d="M426.67 116.76L424.305 117.436L424.98 119.801L427.345 119.125L426.67 116.76Z" fill="white"/>
<path d="M427.345 119.125L424.98 119.801L425.656 122.166L428.021 121.49L427.345 119.125Z" fill="white"/>
<path d="M428.021 121.492L425.656 122.168L426.332 124.533L428.697 123.857L428.021 121.492Z" fill="white"/>
<path d="M430.049 128.584L427.684 129.26L428.359 131.625L430.724 130.949L430.049 128.584Z" fill="white"/>
<path d="M431.4 133.317L429.035 133.992L429.711 136.357L432.076 135.682L431.4 133.317Z" fill="white"/>
<path d="M432.752 138.047L430.387 138.723L431.062 141.088L433.427 140.412L432.752 138.047Z" fill="white"/>
<path d="M433.428 140.414L431.062 141.09L431.738 143.455L434.103 142.779L433.428 140.414Z" fill="white"/>
<path d="M435.455 147.508L433.09 148.184L433.765 150.549L436.13 149.873L435.455 147.508Z" fill="white"/>
<path d="M436.803 152.235L434.438 152.91L435.113 155.275L437.478 154.6L436.803 152.235Z" fill="white"/>
<path d="M437.478 154.6L435.113 155.275L435.789 157.64L438.154 156.965L437.478 154.6Z" fill="white"/>
<path d="M438.154 156.961L435.789 157.637L436.465 160.002L438.83 159.326L438.154 156.961Z" fill="white"/>
<path d="M438.83 159.328L436.465 160.004L437.14 162.369L439.505 161.693L438.83 159.328Z" fill="white"/>
<path d="M440.857 166.426L438.492 167.102L439.168 169.467L441.533 168.791L440.857 166.426Z" fill="white"/>
<path d="M427.013 108.987L424.648 109.662L425.324 112.027L427.689 111.352L427.013 108.987Z" fill="white"/>
<path d="M427.689 111.352L425.324 112.027L426 114.392L428.365 113.717L427.689 111.352Z" fill="white"/>
<path d="M428.365 113.717L426 114.393L426.676 116.758L429.041 116.082L428.365 113.717Z" fill="white"/>
<path d="M429.041 116.084L426.676 116.76L427.351 119.125L429.716 118.449L429.041 116.084Z" fill="white"/>
<path d="M429.717 118.449L427.352 119.125L428.027 121.49L430.392 120.814L429.717 118.449Z" fill="white"/>
<path d="M430.392 120.815L428.027 121.49L428.703 123.855L431.068 123.18L430.392 120.815Z" fill="white"/>
<path d="M431.068 123.18L428.703 123.855L429.379 126.22L431.744 125.545L431.068 123.18Z" fill="white"/>
<path d="M431.744 125.547L429.379 126.223L430.054 128.588L432.419 127.912L431.744 125.547Z" fill="white"/>
<path d="M432.42 127.908L430.055 128.584L430.73 130.949L433.095 130.273L432.42 127.908Z" fill="white"/>
<path d="M433.095 130.274L430.73 130.949L431.406 133.314L433.771 132.639L433.095 130.274Z" fill="white"/>
<path d="M434.447 135.006L432.082 135.682L432.758 138.047L435.123 137.371L434.447 135.006Z" fill="white"/>
<path d="M437.15 144.469L434.785 145.145L435.461 147.51L437.826 146.834L437.15 144.469Z" fill="white"/>
<path d="M439.849 153.924L437.484 154.6L438.16 156.965L440.525 156.289L439.849 153.924Z" fill="white"/>
<path d="M444.58 170.479L442.215 171.154L442.89 173.519L445.255 172.844L444.58 170.479Z" fill="white"/>
<path d="M445.931 175.211L443.566 175.887L444.242 178.252L446.607 177.576L445.931 175.211Z" fill="white"/>
<path d="M429.385 108.313L427.02 108.988L427.695 111.353L430.06 110.678L429.385 108.313Z" fill="white"/>
<path d="M430.06 110.676L427.695 111.352L428.371 113.717L430.736 113.041L430.06 110.676Z" fill="white"/>
<path d="M430.736 113.041L428.371 113.717L429.047 116.082L431.412 115.406L430.736 113.041Z" fill="white"/>
<path d="M431.412 115.406L429.047 116.082L429.722 118.447L432.087 117.771L431.412 115.406Z" fill="white"/>
<path d="M432.76 120.135L430.395 120.811L431.07 123.176L433.435 122.5L432.76 120.135Z" fill="white"/>
<path d="M435.467 129.602L433.102 130.277L433.777 132.642L436.142 131.967L435.467 129.602Z" fill="white"/>
<path d="M436.814 134.328L434.449 135.004L435.125 137.369L437.49 136.693L436.814 134.328Z" fill="white"/>
<path d="M437.49 136.694L435.125 137.369L435.801 139.734L438.166 139.059L437.49 136.694Z" fill="white"/>
<path d="M441.545 150.881L439.18 151.557L439.855 153.922L442.22 153.246L441.545 150.881Z" fill="white"/>
<path d="M442.896 155.612L440.531 156.287L441.207 158.652L443.572 157.977L442.896 155.612Z" fill="white"/>
<path d="M443.572 157.979L441.207 158.654L441.883 161.019L444.248 160.344L443.572 157.979Z" fill="white"/>
<path d="M444.244 160.34L441.879 161.016L442.554 163.381L444.919 162.705L444.244 160.34Z" fill="white"/>
<path d="M446.947 169.799L444.582 170.475L445.258 172.84L447.623 172.164L446.947 169.799Z" fill="white"/>
<path d="M448.299 174.533L445.934 175.209L446.609 177.574L448.974 176.898L448.299 174.533Z" fill="white"/>
<path d="M431.744 107.635L429.379 108.311L430.054 110.676L432.419 110L431.744 107.635Z" fill="white"/>
<path d="M432.42 110L430.055 110.676L430.73 113.041L433.095 112.365L432.42 110Z" fill="white"/>
<path d="M433.095 112.365L430.73 113.041L431.406 115.406L433.771 114.73L433.095 112.365Z" fill="white"/>
<path d="M433.771 114.733L431.406 115.408L432.082 117.773L434.447 117.098L433.771 114.733Z" fill="white"/>
<path d="M435.799 121.828L433.434 122.504L434.109 124.869L436.474 124.193L435.799 121.828Z" fill="white"/>
<path d="M437.826 128.922L435.461 129.598L436.136 131.963L438.501 131.287L437.826 128.922Z" fill="white"/>
<path d="M438.502 131.287L436.137 131.963L436.812 134.328L439.177 133.652L438.502 131.287Z" fill="white"/>
<path d="M439.853 136.016L437.488 136.691L438.164 139.056L440.529 138.381L439.853 136.016Z" fill="white"/>
<path d="M440.529 138.381L438.164 139.057L438.84 141.422L441.205 140.746L440.529 138.381Z" fill="white"/>
<path d="M441.205 140.746L438.84 141.422L439.515 143.787L441.88 143.111L441.205 140.746Z" fill="white"/>
<path d="M441.881 143.114L439.516 143.789L440.191 146.154L442.556 145.479L441.881 143.114Z" fill="white"/>
<path d="M442.556 145.479L440.191 146.154L440.867 148.519L443.232 147.844L442.556 145.479Z" fill="white"/>
<path d="M443.232 147.844L440.867 148.52L441.543 150.885L443.908 150.209L443.232 147.844Z" fill="white"/>
<path d="M445.256 154.934L442.891 155.609L443.566 157.974L445.931 157.299L445.256 154.934Z" fill="white"/>
<path d="M445.931 157.299L443.566 157.975L444.242 160.34L446.607 159.664L445.931 157.299Z" fill="white"/>
<path d="M446.607 159.664L444.242 160.34L444.918 162.705L447.283 162.029L446.607 159.664Z" fill="white"/>
<path d="M447.283 162.031L444.918 162.707L445.594 165.072L447.959 164.396L447.283 162.031Z" fill="white"/>
<path d="M447.959 164.397L445.594 165.072L446.269 167.437L448.634 166.762L447.959 164.397Z" fill="white"/>
<path d="M448.635 166.762L446.27 167.438L446.945 169.803L449.31 169.127L448.635 166.762Z" fill="white"/>
<path d="M449.986 171.494L447.621 172.17L448.297 174.535L450.662 173.859L449.986 171.494Z" fill="white"/>
<path d="M439.502 125.885L437.137 126.561L437.812 128.926L440.177 128.25L439.502 125.885Z" fill="white"/>
<path d="M440.853 130.612L438.488 131.287L439.164 133.652L441.529 132.977L440.853 130.612Z" fill="white"/>
<path d="M441.529 132.977L439.164 133.652L439.84 136.017L442.205 135.342L441.529 132.977Z" fill="white"/>
<path d="M442.881 137.713L440.516 138.389L441.191 140.754L443.556 140.078L442.881 137.713Z" fill="white"/>
<path d="M444.232 142.44L441.867 143.115L442.543 145.48L444.908 144.805L444.232 142.44Z" fill="white"/>
<path d="M444.908 144.807L442.543 145.482L443.219 147.847L445.584 147.172L444.908 144.807Z" fill="white"/>
<path d="M446.26 149.533L443.895 150.209L444.57 152.574L446.935 151.898L446.26 149.533Z" fill="white"/>
<path d="M446.935 151.899L444.57 152.574L445.246 154.939L447.611 154.264L446.935 151.899Z" fill="white"/>
<path d="M447.611 154.262L445.246 154.938L445.922 157.303L448.287 156.627L447.611 154.262Z" fill="white"/>
<path d="M450.314 163.725L447.949 164.4L448.625 166.765L450.99 166.09L450.314 163.725Z" fill="white"/>
<path d="M450.99 166.09L448.625 166.766L449.301 169.131L451.666 168.455L450.99 166.09Z" fill="white"/>
<path d="M451.662 168.451L449.297 169.127L449.972 171.492L452.337 170.816L451.662 168.451Z" fill="white"/>
<path d="M443.224 129.94L440.859 130.615L441.535 132.98L443.9 132.305L443.224 129.94Z" fill="white"/>
<path d="M443.9 132.301L441.535 132.977L442.211 135.342L444.576 134.666L443.9 132.301Z" fill="white"/>
<path d="M445.252 137.031L442.887 137.707L443.562 140.072L445.927 139.396L445.252 137.031Z" fill="white"/>
<path d="M445.928 139.399L443.562 140.074L444.238 142.439L446.603 141.764L445.928 139.399Z" fill="white"/>
<path d="M446.603 141.764L444.238 142.439L444.914 144.804L447.279 144.129L446.603 141.764Z" fill="white"/>
<path d="M447.279 144.129L444.914 144.805L445.59 147.17L447.955 146.494L447.279 144.129Z" fill="white"/>
<path d="M447.955 146.494L445.59 147.17L446.265 149.535L448.63 148.859L447.955 146.494Z" fill="white"/>
<path d="M448.627 148.858L446.262 149.533L446.937 151.898L449.302 151.223L448.627 148.858Z" fill="white"/>
<path d="M449.303 151.223L446.938 151.898L447.613 154.263L449.978 153.588L449.303 151.223Z" fill="white"/>
<path d="M449.978 153.584L447.613 154.26L448.289 156.625L450.654 155.949L449.978 153.584Z" fill="white"/>
<path d="M451.33 158.317L448.965 158.992L449.64 161.357L452.005 160.682L451.33 158.317Z" fill="white"/>
<path d="M452.681 163.043L450.316 163.719L450.992 166.084L453.357 165.408L452.681 163.043Z" fill="white"/>
<path d="M454.033 167.776L451.668 168.451L452.344 170.816L454.709 170.141L454.033 167.776Z" fill="white"/>
<path d="M444.244 124.531L441.879 125.207L442.554 127.572L444.919 126.896L444.244 124.531Z" fill="white"/>
<path d="M445.595 129.262L443.23 129.938L443.906 132.303L446.271 131.627L445.595 129.262Z" fill="white"/>
<path d="M446.947 133.994L444.582 134.67L445.258 137.035L447.623 136.359L446.947 133.994Z" fill="white"/>
<path d="M448.97 141.086L446.605 141.762L447.281 144.127L449.646 143.451L448.97 141.086Z" fill="white"/>
<path d="M450.322 145.815L447.957 146.49L448.633 148.855L450.998 148.18L450.322 145.815Z" fill="white"/>
<path d="M451.674 150.545L449.309 151.221L449.984 153.586L452.349 152.91L451.674 150.545Z" fill="white"/>
<path d="M452.349 152.912L449.984 153.588L450.66 155.953L453.025 155.277L452.349 152.912Z" fill="white"/>
<path d="M455.053 162.371L452.688 163.047L453.363 165.412L455.728 164.736L455.053 162.371Z" fill="white"/>
<path d="M455.728 164.733L453.363 165.408L454.039 167.773L456.404 167.098L455.728 164.733Z" fill="white"/>
<path d="M457.08 169.463L454.715 170.139L455.39 172.504L457.755 171.828L457.08 169.463Z" fill="white"/>
<path d="M446.607 123.86L444.242 124.535L444.918 126.9L447.283 126.225L446.607 123.86Z" fill="white"/>
<path d="M447.283 126.225L444.918 126.9L445.594 129.265L447.959 128.59L447.283 126.225Z" fill="white"/>
<path d="M449.982 135.684L447.617 136.359L448.293 138.724L450.658 138.049L449.982 135.684Z" fill="white"/>
<path d="M452.01 142.778L449.645 143.453L450.32 145.818L452.685 145.143L452.01 142.778Z" fill="white"/>
<path d="M452.685 145.143L450.32 145.818L450.996 148.183L453.361 147.508L452.685 145.143Z" fill="white"/>
<path d="M453.361 147.506L450.996 148.182L451.672 150.547L454.037 149.871L453.361 147.506Z" fill="white"/>
<path d="M454.037 149.871L451.672 150.547L452.347 152.912L454.712 152.236L454.037 149.871Z" fill="white"/>
<path d="M454.713 152.237L452.348 152.912L453.023 155.277L455.388 154.602L454.713 152.237Z" fill="white"/>
<path d="M455.388 154.602L453.023 155.277L453.699 157.642L456.064 156.967L455.388 154.602Z" fill="white"/>
<path d="M456.064 156.969L453.699 157.645L454.375 160.01L456.74 159.334L456.064 156.969Z" fill="white"/>
<path d="M456.736 159.33L454.371 160.006L455.047 162.371L457.412 161.695L456.736 159.33Z" fill="white"/>
<path d="M457.412 161.696L455.047 162.371L455.722 164.736L458.087 164.061L457.412 161.696Z" fill="white"/>
<path d="M448.967 123.182L446.602 123.857L447.277 126.222L449.642 125.547L448.967 123.182Z" fill="white"/>
<path d="M450.994 130.278L448.629 130.953L449.304 133.318L451.669 132.643L450.994 130.278Z" fill="white"/>
<path d="M454.373 142.104L452.008 142.779L452.683 145.144L455.048 144.469L454.373 142.104Z" fill="white"/>
<path d="M455.049 144.469L452.684 145.145L453.359 147.51L455.724 146.834L455.049 144.469Z" fill="white"/>
<path d="M459.099 158.655L456.734 159.33L457.41 161.695L459.775 161.02L459.099 158.655Z" fill="white"/>
<path d="M461.803 168.114L459.438 168.789L460.113 171.154L462.478 170.479L461.803 168.114Z" fill="white"/>
<path d="M454.041 131.967L451.676 132.643L452.351 135.008L454.716 134.332L454.041 131.967Z" fill="white"/>
<path d="M455.388 136.696L453.023 137.371L453.699 139.736L456.064 139.061L455.388 136.696Z" fill="white"/>
<path d="M456.74 141.426L454.375 142.102L455.051 144.467L457.416 143.791L456.74 141.426Z" fill="white"/>
<path d="M458.092 146.155L455.727 146.83L456.402 149.195L458.767 148.52L458.092 146.155Z" fill="white"/>
<path d="M459.443 150.881L457.078 151.557L457.754 153.922L460.119 153.246L459.443 150.881Z" fill="white"/>
<path d="M460.119 153.246L457.754 153.922L458.429 156.287L460.794 155.611L460.119 153.246Z" fill="white"/>
<path d="M461.47 157.979L459.105 158.654L459.781 161.019L462.146 160.344L461.47 157.979Z" fill="white"/>
<path d="M462.146 160.344L459.781 161.02L460.457 163.385L462.822 162.709L462.146 160.344Z" fill="white"/>
<path d="M462.822 162.709L460.457 163.385L461.133 165.75L463.498 165.074L462.822 162.709Z" fill="white"/>
<path d="M464.17 167.438L461.805 168.113L462.48 170.478L464.845 169.803L464.17 167.438Z" fill="white"/>
<path d="M464.845 169.803L462.48 170.479L463.156 172.844L465.521 172.168L464.845 169.803Z" fill="white"/>
<path d="M453.705 121.828L451.34 122.504L452.015 124.869L454.38 124.193L453.705 121.828Z" fill="white"/>
<path d="M455.732 128.92L453.367 129.596L454.043 131.961L456.408 131.285L455.732 128.92Z" fill="white"/>
<path d="M456.408 131.287L454.043 131.963L454.719 134.328L457.084 133.652L456.408 131.287Z" fill="white"/>
<path d="M458.435 138.383L456.07 139.059L456.746 141.424L459.111 140.748L458.435 138.383Z" fill="white"/>
<path d="M461.81 150.205L459.445 150.881L460.121 153.246L462.486 152.57L461.81 150.205Z" fill="white"/>
<path d="M462.486 152.571L460.121 153.246L460.797 155.611L463.162 154.936L462.486 152.571Z" fill="white"/>
<path d="M463.162 154.936L460.797 155.611L461.472 157.976L463.837 157.301L463.162 154.936Z" fill="white"/>
<path d="M464.513 159.668L462.148 160.344L462.824 162.709L465.189 162.033L464.513 159.668Z" fill="white"/>
<path d="M465.189 162.033L462.824 162.709L463.5 165.074L465.865 164.398L465.189 162.033Z" fill="white"/>
<path d="M465.865 164.399L463.5 165.074L464.176 167.439L466.541 166.764L465.865 164.399Z" fill="white"/>
<path d="M467.217 169.127L464.852 169.803L465.527 172.168L467.892 171.492L467.217 169.127Z" fill="white"/>
<path d="M459.439 132.981L457.074 133.656L457.75 136.021L460.115 135.346L459.439 132.981Z" fill="white"/>
<path d="M460.115 135.346L457.75 136.021L458.426 138.386L460.791 137.711L460.115 135.346Z" fill="white"/>
<path d="M463.49 147.17L461.125 147.846L461.801 150.211L464.166 149.535L463.49 147.17Z" fill="white"/>
<path d="M464.166 149.531L461.801 150.207L462.476 152.572L464.841 151.896L464.166 149.531Z" fill="white"/>
<path d="M464.842 151.899L462.477 152.574L463.152 154.939L465.517 154.264L464.842 151.899Z" fill="white"/>
<path d="M466.193 156.629L463.828 157.305L464.504 159.67L466.869 158.994L466.193 156.629Z" fill="white"/>
<path d="M466.869 158.994L464.504 159.67L465.179 162.035L467.544 161.359L466.869 158.994Z" fill="white"/>
<path d="M468.22 163.723L465.855 164.398L466.531 166.763L468.896 166.088L468.22 163.723Z" fill="white"/>
</mask>
<g mask="url(#mask3_12076_53322)">
<path d="M450.659 102.235L382.074 121.826L401.665 190.411L470.25 170.82L450.659 102.235Z" fill="black"/>
</g>
<mask id="mask4_12076_53322" style="mask-type:luminance" maskUnits="userSpaceOnUse" x="382" y="117" width="22" height="22">
<path d="M384.439 121.153L382.074 121.828L382.75 124.193L385.115 123.518L384.439 121.153Z" fill="white"/>
<path d="M385.115 123.518L382.75 124.193L383.426 126.558L385.791 125.883L385.115 123.518Z" fill="white"/>
<path d="M385.791 125.879L383.426 126.555L384.101 128.92L386.466 128.244L385.791 125.879Z" fill="white"/>
<path d="M386.467 128.244L384.102 128.92L384.777 131.285L387.142 130.609L386.467 128.244Z" fill="white"/>
<path d="M387.142 130.612L384.777 131.287L385.453 133.652L387.818 132.977L387.142 130.612Z" fill="white"/>
<path d="M387.818 132.977L385.453 133.652L386.129 136.017L388.494 135.342L387.818 132.977Z" fill="white"/>
<path d="M388.494 135.342L386.129 136.018L386.804 138.383L389.169 137.707L388.494 135.342Z" fill="white"/>
<path d="M386.806 120.471L384.441 121.146L385.117 123.511L387.482 122.836L386.806 120.471Z" fill="white"/>
<path d="M390.861 134.666L388.496 135.342L389.172 137.707L391.537 137.031L390.861 134.666Z" fill="white"/>
<path d="M389.17 119.801L386.805 120.477L387.48 122.842L389.845 122.166L389.17 119.801Z" fill="white"/>
<path d="M393.224 133.99L390.859 134.666L391.535 137.031L393.9 136.355L393.224 133.99Z" fill="white"/>
<path d="M391.541 119.123L389.176 119.799L389.851 122.164L392.216 121.488L391.541 119.123Z" fill="white"/>
<path d="M395.595 133.315L393.23 133.99L393.906 136.355L396.271 135.68L395.595 133.315Z" fill="white"/>
<path d="M393.9 118.449L391.535 119.125L392.211 121.49L394.576 120.814L393.9 118.449Z" fill="white"/>
<path d="M397.955 132.635L395.59 133.311L396.265 135.676L398.63 135L397.955 132.635Z" fill="white"/>
<path d="M396.256 117.776L393.891 118.451L394.566 120.816L396.931 120.141L396.256 117.776Z" fill="white"/>
<path d="M400.31 131.967L397.945 132.643L398.621 135.008L400.986 134.332L400.31 131.967Z" fill="white"/>
<path d="M398.635 117.098L396.27 117.773L396.945 120.138L399.31 119.463L398.635 117.098Z" fill="white"/>
<path d="M399.31 119.463L396.945 120.139L397.621 122.504L399.986 121.828L399.31 119.463Z" fill="white"/>
<path d="M399.986 121.828L397.621 122.504L398.297 124.869L400.662 124.193L399.986 121.828Z" fill="white"/>
<path d="M400.662 124.194L398.297 124.869L398.972 127.234L401.337 126.559L400.662 124.194Z" fill="white"/>
<path d="M401.334 126.557L398.969 127.232L399.644 129.597L402.009 128.922L401.334 126.557Z" fill="white"/>
<path d="M402.01 128.922L399.645 129.598L400.32 131.963L402.685 131.287L402.01 128.922Z" fill="white"/>
<path d="M402.685 131.287L400.32 131.963L400.996 134.328L403.361 133.652L402.685 131.287Z" fill="white"/>
</mask>
<g mask="url(#mask4_12076_53322)">
<path d="M398.629 117.097L382.074 121.826L386.803 138.381L403.358 133.652L398.629 117.097Z" fill="black"/>
</g>
<mask id="mask5_12076_53322" style="mask-type:luminance" maskUnits="userSpaceOnUse" x="388" y="123" width="10" height="10">
<path d="M390.533 124.526L388.168 125.201L388.844 127.566L391.209 126.891L390.533 124.526Z" fill="white"/>
<path d="M391.209 126.891L388.844 127.566L389.519 129.931L391.884 129.256L391.209 126.891Z" fill="white"/>
<path d="M391.885 129.256L389.52 129.932L390.195 132.297L392.56 131.621L391.885 129.256Z" fill="white"/>
<path d="M392.896 123.85L390.531 124.525L391.207 126.89L393.572 126.215L392.896 123.85Z" fill="white"/>
<path d="M393.572 126.215L391.207 126.891L391.883 129.256L394.248 128.58L393.572 126.215Z" fill="white"/>
<path d="M394.248 128.582L391.883 129.258L392.558 131.623L394.923 130.947L394.248 128.582Z" fill="white"/>
<path d="M395.267 123.178L392.902 123.854L393.578 126.219L395.943 125.543L395.267 123.178Z" fill="white"/>
<path d="M395.943 125.543L393.578 126.219L394.254 128.584L396.619 127.908L395.943 125.543Z" fill="white"/>
<path d="M396.619 127.908L394.254 128.584L394.929 130.949L397.294 130.273L396.619 127.908Z" fill="white"/>
</mask>
<g mask="url(#mask5_12076_53322)">
<path d="M395.263 123.175L388.168 125.201L390.195 132.296L397.29 130.27L395.263 123.175Z" fill="black"/>
</g>
<mask id="mask6_12076_53322" style="mask-type:luminance" maskUnits="userSpaceOnUse" x="434" y="102" width="22" height="22">
<path d="M436.47 106.281L434.105 106.957L434.781 109.322L437.146 108.646L436.47 106.281Z" fill="white"/>
<path d="M437.146 108.647L434.781 109.322L435.457 111.687L437.822 111.012L437.146 108.647Z" fill="white"/>
<path d="M437.822 111.014L435.457 111.689L436.133 114.054L438.498 113.379L437.822 111.014Z" fill="white"/>
<path d="M438.498 113.379L436.133 114.055L436.808 116.42L439.173 115.744L438.498 113.379Z" fill="white"/>
<path d="M439.174 115.744L436.809 116.42L437.484 118.785L439.849 118.109L439.174 115.744Z" fill="white"/>
<path d="M439.849 118.112L437.484 118.787L438.16 121.152L440.525 120.477L439.849 118.112Z" fill="white"/>
<path d="M440.525 120.477L438.16 121.152L438.836 123.517L441.201 122.842L440.525 120.477Z" fill="white"/>
<path d="M438.834 105.612L436.469 106.287L437.144 108.652L439.509 107.977L438.834 105.612Z" fill="white"/>
<path d="M442.885 119.797L440.52 120.473L441.195 122.838L443.56 122.162L442.885 119.797Z" fill="white"/>
<path d="M441.205 104.934L438.84 105.609L439.515 107.974L441.88 107.299L441.205 104.934Z" fill="white"/>
<path d="M445.256 119.125L442.891 119.801L443.566 122.166L445.931 121.49L445.256 119.125Z" fill="white"/>
<path d="M443.556 104.262L441.191 104.938L441.867 107.303L444.232 106.627L443.556 104.262Z" fill="white"/>
<path d="M447.611 118.449L445.246 119.125L445.922 121.49L448.287 120.814L447.611 118.449Z" fill="white"/>
<path d="M445.935 103.582L443.57 104.258L444.246 106.623L446.611 105.947L445.935 103.582Z" fill="white"/>
<path d="M449.99 117.774L447.625 118.449L448.301 120.814L450.666 120.139L449.99 117.774Z" fill="white"/>
<path d="M448.295 102.905L445.93 103.58L446.605 105.945L448.97 105.27L448.295 102.905Z" fill="white"/>
<path d="M452.349 117.098L449.984 117.773L450.66 120.138L453.025 119.463L452.349 117.098Z" fill="white"/>
<path d="M450.658 102.229L448.293 102.904L448.969 105.269L451.334 104.594L450.658 102.229Z" fill="white"/>
<path d="M451.334 104.596L448.969 105.271L449.644 107.636L452.009 106.961L451.334 104.596Z" fill="white"/>
<path d="M452.01 106.961L449.645 107.637L450.32 110.002L452.685 109.326L452.01 106.961Z" fill="white"/>
<path d="M452.685 109.326L450.32 110.002L450.996 112.367L453.361 111.691L452.685 109.326Z" fill="white"/>
<path d="M453.361 111.692L450.996 112.367L451.672 114.732L454.037 114.057L453.361 111.692Z" fill="white"/>
<path d="M454.037 114.059L451.672 114.734L452.347 117.099L454.712 116.424L454.037 114.059Z" fill="white"/>
<path d="M454.713 116.42L452.348 117.096L453.023 119.461L455.388 118.785L454.713 116.42Z" fill="white"/>
</mask>
<g mask="url(#mask6_12076_53322)">
<path d="M450.661 102.232L434.105 106.961L438.834 123.516L455.389 118.787L450.661 102.232Z" fill="black"/>
</g>
<mask id="mask7_12076_53322" style="mask-type:luminance" maskUnits="userSpaceOnUse" x="440" y="108" width="10" height="10">
<path d="M442.553 109.666L440.188 110.342L440.863 112.707L443.228 112.031L442.553 109.666Z" fill="white"/>
<path d="M443.228 112.028L440.863 112.703L441.539 115.068L443.904 114.393L443.228 112.028Z" fill="white"/>
<path d="M443.904 114.393L441.539 115.068L442.215 117.433L444.58 116.758L443.904 114.393Z" fill="white"/>
<path d="M444.92 108.989L442.555 109.664L443.23 112.029L445.595 111.354L444.92 108.989Z" fill="white"/>
<path d="M445.595 111.356L443.23 112.031L443.906 114.396L446.271 113.721L445.595 111.356Z" fill="white"/>
<path d="M446.271 113.721L443.906 114.396L444.582 116.761L446.947 116.086L446.271 113.721Z" fill="white"/>
<path d="M447.283 108.315L444.918 108.99L445.594 111.355L447.959 110.68L447.283 108.315Z" fill="white"/>
<path d="M447.959 110.676L445.594 111.352L446.269 113.717L448.634 113.041L447.959 110.676Z" fill="white"/>
<path d="M448.635 113.041L446.27 113.717L446.945 116.082L449.31 115.406L448.635 113.041Z" fill="white"/>
</mask>
<g mask="url(#mask7_12076_53322)">
<path d="M447.283 108.315L440.188 110.342L442.214 117.437L449.309 115.41L447.283 108.315Z" fill="black"/>
</g>
<mask id="mask8_12076_53322" style="mask-type:luminance" maskUnits="userSpaceOnUse" x="396" y="169" width="23" height="22">
<path d="M399.303 173.182L396.938 173.857L397.613 176.222L399.978 175.547L399.303 173.182Z" fill="white"/>
<path d="M399.978 175.547L397.613 176.223L398.289 178.588L400.654 177.912L399.978 175.547Z" fill="white"/>
<path d="M400.654 177.912L398.289 178.588L398.965 180.953L401.33 180.277L400.654 177.912Z" fill="white"/>
<path d="M401.33 180.274L398.965 180.949L399.64 183.314L402.005 182.639L401.33 180.274Z" fill="white"/>
<path d="M402.006 182.641L399.641 183.316L400.316 185.681L402.681 185.006L402.006 182.641Z" fill="white"/>
<path d="M402.681 185.006L400.316 185.682L400.992 188.047L403.357 187.371L402.681 185.006Z" fill="white"/>
<path d="M403.357 187.371L400.992 188.047L401.668 190.412L404.033 189.736L403.357 187.371Z" fill="white"/>
<path d="M401.674 172.504L399.309 173.18L399.984 175.545L402.349 174.869L401.674 172.504Z" fill="white"/>
<path d="M405.724 186.692L403.359 187.367L404.035 189.732L406.4 189.057L405.724 186.692Z" fill="white"/>
<path d="M404.033 171.83L401.668 172.506L402.344 174.871L404.709 174.195L404.033 171.83Z" fill="white"/>
<path d="M408.088 186.02L405.723 186.695L406.398 189.06L408.763 188.385L408.088 186.02Z" fill="white"/>
<path d="M406.404 171.149L404.039 171.824L404.715 174.189L407.08 173.514L406.404 171.149Z" fill="white"/>
<path d="M410.459 185.344L408.094 186.02L408.769 188.385L411.134 187.709L410.459 185.344Z" fill="white"/>
<path d="M408.763 170.475L406.398 171.15L407.074 173.515L409.439 172.84L408.763 170.475Z" fill="white"/>
<path d="M412.818 184.664L410.453 185.34L411.129 187.705L413.494 187.029L412.818 184.664Z" fill="white"/>
<path d="M411.119 169.805L408.754 170.48L409.429 172.845L411.794 172.17L411.119 169.805Z" fill="white"/>
<path d="M415.174 183.996L412.809 184.672L413.484 187.037L415.849 186.361L415.174 183.996Z" fill="white"/>
<path d="M413.498 169.127L411.133 169.803L411.808 172.168L414.173 171.492L413.498 169.127Z" fill="white"/>
<path d="M414.17 171.489L411.805 172.164L412.48 174.529L414.845 173.854L414.17 171.489Z" fill="white"/>
<path d="M414.845 173.854L412.48 174.529L413.156 176.894L415.521 176.219L414.845 173.854Z" fill="white"/>
<path d="M415.521 176.219L413.156 176.895L413.832 179.26L416.197 178.584L415.521 176.219Z" fill="white"/>
<path d="M416.197 178.586L413.832 179.262L414.508 181.627L416.873 180.951L416.197 178.586Z" fill="white"/>
<path d="M416.873 180.951L414.508 181.627L415.183 183.992L417.548 183.316L416.873 180.951Z" fill="white"/>
<path d="M417.549 183.317L415.184 183.992L415.859 186.357L418.224 185.682L417.549 183.317Z" fill="white"/>
</mask>
<g mask="url(#mask8_12076_53322)">
<path d="M413.493 169.127L396.938 173.855L401.666 190.411L418.221 185.682L413.493 169.127Z" fill="black"/>
</g>
<mask id="mask9_12076_53322" style="mask-type:luminance" maskUnits="userSpaceOnUse" x="403" y="175" width="10" height="10">
<path d="M405.392 176.557L403.027 177.232L403.703 179.597L406.068 178.922L405.392 176.557Z" fill="white"/>
<path d="M406.068 178.922L403.703 179.598L404.379 181.963L406.744 181.287L406.068 178.922Z" fill="white"/>
<path d="M406.744 181.287L404.379 181.963L405.054 184.328L407.419 183.652L406.744 181.287Z" fill="white"/>
<path d="M407.756 175.881L405.391 176.557L406.066 178.922L408.431 178.246L407.756 175.881Z" fill="white"/>
<path d="M408.431 178.248L406.066 178.924L406.742 181.289L409.107 180.613L408.431 178.248Z" fill="white"/>
<path d="M409.107 180.614L406.742 181.289L407.418 183.654L409.783 182.979L409.107 180.614Z" fill="white"/>
<path d="M410.127 175.209L407.762 175.885L408.437 178.25L410.802 177.574L410.127 175.209Z" fill="white"/>
<path d="M410.803 177.574L408.438 178.25L409.113 180.615L411.478 179.939L410.803 177.574Z" fill="white"/>
<path d="M411.478 179.936L409.113 180.611L409.789 182.976L412.154 182.301L411.478 179.936Z" fill="white"/>
</mask>
<g mask="url(#mask9_12076_53322)">
<path d="M410.122 175.206L403.027 177.232L405.054 184.327L412.149 182.301L410.122 175.206Z" fill="black"/>
</g>
</g>
<path d="M322.146 355.205C322.146 355.205 303.853 312.638 313.105 261.014" stroke="#263238" stroke-width="1.50683" stroke-linecap="round" stroke-linejoin="round"/>
<path d="M277.512 401.188C277.512 401.188 240.534 412.489 236.828 421.002C233.121 429.516 253.403 422.343 253.403 422.343" stroke="#263238" stroke-width="1.50683" stroke-linecap="round" stroke-linejoin="round"/>
<path d="M300.252 226.643C300.252 226.643 266.197 260.395 243.414 269.391" stroke="#263238" stroke-width="1.50683" stroke-linecap="round" stroke-linejoin="round"/>
<path d="M188.67 217.574C188.67 217.574 182.462 263.141 205.622 271.745" stroke="#263238" stroke-width="1.50683" stroke-linecap="round" stroke-linejoin="round"/>
<path d="M123.129 309.579C123.129 309.579 122.948 249.849 134.807 231.375" stroke="#263238" stroke-width="1.50683" stroke-linecap="round" stroke-linejoin="round"/>
<path d="M118.695 248.719C118.695 248.719 115.365 285.817 122.854 297.917" stroke="#263238" stroke-width="1.50683" stroke-linecap="round" stroke-linejoin="round"/>
<path d="M94.3144 318.388C94.3144 318.388 68.4121 309.467 63.0478 320.527C57.6835 331.587 78.4928 321.778 78.4928 321.778" stroke="#263238" stroke-width="1.50683" stroke-linecap="round" stroke-linejoin="round"/>
<path d="M109.895 357.113C109.895 357.113 84.4594 371.443 83.1484 379.64" stroke="#263238" stroke-width="1.50683" stroke-linecap="round" stroke-linejoin="round"/>
<path d="M151.438 317.484C151.438 317.484 200.123 391.063 226.99 384.312" stroke="#263238" stroke-width="1.50683" stroke-linecap="round" stroke-linejoin="round"/>
<path d="M184.694 420.686C184.694 420.686 146.526 448.667 140.996 446.302" stroke="#263238" stroke-width="1.50683" stroke-linecap="round" stroke-linejoin="round"/>
<path opacity="0.2" d="M452.047 301.284C454.624 299.174 456.326 297.773 456.884 297.336C456.311 297.833 454.654 299.28 452.047 301.284Z" fill="black"/>
</g>
<defs>
<clipPath id="clip0_12076_53322">
<rect width="516.841" height="516.841" fill="white" transform="translate(0 -28.875)"/>
</clipPath>
<clipPath id="clip1_12076_53322">
<rect width="65.6441" height="24.5828" fill="white" transform="translate(409 202.115) rotate(-15)"/>
</clipPath>
<clipPath id="clip2_12076_53322">
<rect width="81.2461" height="81.2461" fill="white" transform="translate(376 118.441) rotate(-15.9418)"/>
</clipPath>
</defs>
</svg>
