<svg width="24" height="24" viewBox="0 0 24 24" fill="none" xmlns="http://www.w3.org/2000/svg">
<path d="M10.7061 15.2537L16.3291 9.65565L15.4004 8.7269L10.7061 13.3962L8.58114 11.2962L7.65239 12.2249L10.7061 15.2537ZM12.0021 21.0999C10.7548 21.0999 9.57806 20.8631 8.47189 20.3894C7.36572 19.9157 6.39756 19.264 5.56739 18.4342C4.73722 17.6043 4.08514 16.6366 3.61114 15.5309C3.13731 14.4252 2.90039 13.2488 2.90039 12.0017C2.90039 10.7377 3.13722 9.55674 3.61089 8.4589C4.08456 7.36107 4.73631 6.39707 5.56614 5.5669C6.39597 4.73674 7.36372 4.08465 8.46939 3.61065C9.57506 3.13682 10.7515 2.8999 11.9986 2.8999C13.2626 2.8999 14.4436 3.13674 15.5414 3.6104C16.6392 4.08407 17.6032 4.73582 18.4334 5.56565C19.2636 6.39549 19.9156 7.35907 20.3896 8.4564C20.8635 9.55374 21.1004 10.7343 21.1004 11.9982C21.1004 13.2455 20.8636 14.4222 20.3899 15.5284C19.9162 16.6346 19.2645 17.6027 18.4346 18.4329C17.6048 19.2631 16.6412 19.9152 15.5439 20.3892C14.4466 20.863 13.266 21.0999 12.0021 21.0999ZM12.0004 19.7999C14.1671 19.7999 16.0087 19.0416 17.5254 17.5249C19.0421 16.0082 19.8004 14.1666 19.8004 11.9999C19.8004 9.83324 19.0421 7.99157 17.5254 6.4749C16.0087 4.95824 14.1671 4.1999 12.0004 4.1999C9.83372 4.1999 7.99206 4.95824 6.47539 6.4749C4.95872 7.99157 4.20039 9.83324 4.20039 11.9999C4.20039 14.1666 4.95872 16.0082 6.47539 17.5249C7.99206 19.0416 9.83372 19.7999 12.0004 19.7999Z" fill="#2F945A"/>
</svg>
