<svg width="270" height="151" viewBox="0 0 270 151" fill="none" xmlns="http://www.w3.org/2000/svg">
<rect width="270" height="150" transform="translate(0 0.125)" fill="url(#paint0_linear_12836_98427)"/>
<path d="M110.878 56.8501H79.794L70.8586 54.2888L70.5547 54.2016V45.291L70.8586 45.3781L110.878 56.8501Z" fill="white"/>
<path d="M110.879 57.0038H79.7946C79.7803 57.0038 79.7662 57.0017 79.7524 56.9979L70.5131 54.3494C70.4475 54.3305 70.4023 54.2706 70.4023 54.2024V45.2917C70.4023 45.2436 70.4249 45.1984 70.4632 45.1695C70.5016 45.1407 70.5511 45.1313 70.5974 45.1446L110.921 56.7038C110.994 56.7248 111.041 56.7966 111.03 56.872C111.02 56.9476 110.955 57.0038 110.879 57.0038ZM79.8161 56.6979H109.791L70.7082 45.4947V54.0872L79.8161 56.6979Z" fill="#292929"/>
<path d="M129.303 15.6661C128.358 15.8978 126.382 16.5215 124.61 18.273C124.598 18.2849 124.586 18.2967 124.574 18.3087C123.198 19.6839 122.438 21.5581 122.438 23.5045V49.4702C122.438 53.5463 119.134 56.8502 115.057 56.8502H110.878L70.8586 45.3782L70.5547 45.2911V23.4678C70.5547 19.159 74.0477 15.666 78.3565 15.666H129.303V15.6661Z" fill="white"/>
<path d="M115.058 57.0046H110.879C110.865 57.0046 110.851 57.0026 110.837 56.9987L70.5131 45.4396C70.4475 45.4207 70.4023 45.3609 70.4023 45.2926V23.4694C70.4023 19.0831 73.9709 15.5146 78.3571 15.5146H129.303C129.381 15.5146 129.446 15.5725 129.455 15.6492C129.464 15.726 129.415 15.7977 129.34 15.8161C128.111 16.1175 126.312 16.8075 124.718 18.3833L124.683 18.4183C123.353 19.7467 122.591 21.6011 122.591 23.506V49.4716C122.591 53.6253 119.212 57.0046 115.058 57.0046ZM110.901 56.6987H115.058C119.043 56.6987 122.285 53.4567 122.285 49.4716V23.506C122.285 21.5205 123.08 19.5873 124.467 18.202L124.502 18.1664C125.751 16.9325 127.12 16.2254 128.261 15.8205H78.357C74.1394 15.8205 70.7081 19.2518 70.7081 23.4694V45.1774L110.901 56.6987Z" fill="#292929"/>
<path d="M111.055 56.5925V56.8509H63.5214C59.5353 56.8509 56.3047 53.6194 56.3047 49.6342V45.3789H105.754V49.6342C105.754 52.956 107.998 55.7539 111.055 56.5925Z" fill="white"/>
<path d="M111.052 57.0035H63.5181C59.4544 57.0035 56.1484 53.6975 56.1484 49.6338V45.3785C56.1484 45.294 56.2169 45.2256 56.3014 45.2256H105.751C105.835 45.2256 105.903 45.294 105.903 45.3785V49.6338C105.903 52.8058 108.037 55.6064 111.092 56.4445C111.158 56.4628 111.204 56.5231 111.204 56.5921V56.8505C111.204 56.935 111.136 57.0035 111.052 57.0035ZM56.4543 45.5315V49.6338C56.4543 53.5288 59.6231 56.6976 63.5181 56.6976H110.864C107.755 55.7748 105.598 52.892 105.598 49.6338V45.5315H56.4543Z" fill="#292929"/>
<path d="M78.4688 27.677C83.5979 27.7488 88.7271 27.8208 93.8563 27.8927V11.468C93.8563 10.0682 93.3095 8.72034 92.3198 7.73135C92.3113 7.72278 92.3027 7.71422 92.2942 7.70576C91.0198 6.44617 89.5986 5.99765 88.9192 5.83105H87.5935C84.9427 5.83105 82.7945 7.97992 82.7945 10.63V22.0287C82.7945 23.5781 82.1246 25.057 80.944 26.0601C80.935 26.0678 80.9288 26.0732 80.9198 26.0808C80.3911 26.5298 79.6212 27.074 78.4688 27.677Z" fill="white"/>
<path d="M93.8568 28.0454C93.8561 28.0454 93.8554 28.0454 93.8547 28.0454L78.4672 27.8296C78.3973 27.8286 78.3368 27.7803 78.3206 27.7122C78.3044 27.6442 78.3364 27.5737 78.3985 27.5412C79.3769 27.0293 80.192 26.4986 80.8213 25.9639L80.8455 25.9432C81.9873 24.9729 82.6422 23.546 82.6422 22.0283V10.6296C82.6422 7.89909 84.8636 5.67773 87.5941 5.67773H88.9198C88.9322 5.67773 88.9443 5.67926 88.9562 5.68212C89.8718 5.90673 91.2129 6.42121 92.4022 7.59658L92.4284 7.62289C93.4333 8.62717 94.0098 10.0285 94.0098 11.4677V27.8925C94.0098 27.9334 93.9934 27.9727 93.9642 28.0014C93.9355 28.0297 93.897 28.0454 93.8568 28.0454ZM79.0564 27.532L93.7039 27.7375V11.4677C93.7039 10.1091 93.1603 8.78664 92.2123 7.83924L92.1863 7.81324C91.0552 6.69548 89.7788 6.20139 88.9012 5.98361H87.594C85.0322 5.98361 82.9479 8.06783 82.9479 10.6296V22.0283C82.9479 23.6359 82.2538 25.1477 81.0435 26.1763L81.0194 26.1969C80.4875 26.6487 79.8289 27.0965 79.0564 27.532Z" fill="#292929"/>
<path d="M225.845 144.85H159.133C159.049 144.85 158.98 144.781 158.98 144.697C158.98 144.612 159.049 144.544 159.133 144.544H225.845C225.93 144.544 225.998 144.612 225.998 144.697C225.998 144.781 225.93 144.85 225.845 144.85Z" fill="#292929"/>
<path d="M146.715 144.802H43.7545C43.67 144.802 43.6016 144.733 43.6016 144.649C43.6016 144.565 43.67 144.496 43.7545 144.496H146.715C146.8 144.496 146.868 144.565 146.868 144.649C146.868 144.733 146.8 144.802 146.715 144.802Z" fill="#292929"/>
<path d="M140.662 144.697H83.7124C80.6265 144.697 78.125 142.196 78.125 139.11V27.2993C78.125 24.2135 80.6265 21.7119 83.7124 21.7119H140.662C143.748 21.7119 146.25 24.2135 146.25 27.2993V139.11C146.25 142.196 143.748 144.697 140.662 144.697Z" fill="white"/>
<path d="M140.659 144.85H83.7091C80.5438 144.85 77.9688 142.275 77.9688 139.11V27.2989C77.9688 24.1337 80.5438 21.5586 83.7091 21.5586H140.659C143.824 21.5586 146.4 24.1337 146.4 27.2989V139.11C146.399 142.275 143.824 144.85 140.659 144.85ZM83.7091 21.8644C80.7124 21.8644 78.2746 24.3023 78.2746 27.2988V139.11C78.2746 142.106 80.7125 144.544 83.7091 144.544H140.659C143.656 144.544 146.094 142.106 146.094 139.11V27.2989C146.094 24.3023 143.656 21.8645 140.659 21.8645H83.7091V21.8644Z" fill="#292929"/>
<path d="M138.579 141.359H85.7917C83.5157 141.359 81.6641 139.507 81.6641 137.231V29.1765C81.6641 26.9005 83.5157 25.0488 85.7917 25.0488H138.579C140.855 25.0488 142.706 26.9005 142.706 29.1765V137.231C142.706 139.507 140.855 141.359 138.579 141.359ZM85.7917 25.3547C83.6844 25.3547 81.9699 27.0691 81.9699 29.1765V137.231C81.9699 139.339 83.6844 141.053 85.7917 141.053H138.579C140.686 141.053 142.401 139.339 142.401 137.231V29.1765C142.401 27.0692 140.686 25.3547 138.579 25.3547H85.7917Z" fill="#292929"/>
<path d="M119.034 29.1973H103.746V29.5031H119.034V29.1973Z" fill="#292929"/>
<path d="M136.841 75.4978H87.537C86.0775 75.4978 84.8945 74.3148 84.8945 72.8553C84.8945 71.3959 86.0777 70.2129 87.537 70.2129H136.841C138.3 70.2129 139.483 71.396 139.483 72.8553C139.483 74.3148 138.3 75.4978 136.841 75.4978Z" fill="#292929"/>
<path d="M136.837 75.6503H87.5337C85.9923 75.6503 84.7383 74.3964 84.7383 72.855C84.7383 71.3136 85.9923 70.0596 87.5337 70.0596H136.837C138.379 70.0596 139.633 71.3136 139.633 72.855C139.633 74.3964 138.379 75.6503 136.837 75.6503ZM87.5337 70.3654C86.1609 70.3654 85.0442 71.4823 85.0442 72.855C85.0442 74.2276 86.161 75.3445 87.5337 75.3445H136.837C138.21 75.3445 139.327 74.2276 139.327 72.855C139.327 71.4823 138.21 70.3654 136.837 70.3654H87.5337Z" fill="#292929"/>
<path d="M131.17 11.4414C131.103 16.2746 131.037 63.8011 130.97 72.8321H93.8595V11.4675C93.8595 10.0675 93.3126 8.71963 92.3222 7.73145C92.3142 7.72237 92.3051 7.71442 92.2972 7.70535C91.0219 6.44596 89.6015 5.99786 88.9219 5.83105H125.56C128.658 5.83105 131.17 8.34299 131.17 11.4414Z" fill="white"/>
<path d="M130.966 72.9846H93.8562C93.7716 72.9846 93.7032 72.9162 93.7032 72.8317V11.4672C93.7032 10.1078 93.1593 8.78562 92.2108 7.83934C92.2083 7.8369 92.206 7.83435 92.2036 7.8317C92.1945 7.82242 92.1884 7.8163 92.1834 7.8108C91.0442 6.68712 89.7595 6.19456 88.8822 5.97922C88.807 5.96077 88.7575 5.8892 88.7667 5.81232C88.776 5.73544 88.8413 5.67773 88.9186 5.67773H125.557C128.735 5.67773 131.32 8.26308 131.32 11.441C131.32 11.4417 131.32 11.4424 131.32 11.4431C131.285 13.9837 131.249 28.57 131.214 42.6761C131.183 55.3967 131.151 68.5503 131.119 72.8328C131.119 72.9168 131.05 72.9846 130.966 72.9846ZM94.0091 72.6788H130.814C130.846 68.2453 130.878 55.2488 130.908 42.6754C130.943 28.5712 130.979 13.9865 131.014 11.4402C131.014 8.43152 128.566 5.98361 125.557 5.98361H89.9067C90.6835 6.28703 91.5786 6.78357 92.4013 7.59607C92.404 7.59872 92.4065 7.60148 92.409 7.60433C92.4185 7.61381 92.4245 7.62003 92.4297 7.62564C93.4335 8.6286 94.009 10.0285 94.009 11.4671L94.0091 72.6788Z" fill="#292929"/>
<path d="M98.2447 24.1175C98.2447 24.432 97.9898 24.6871 97.6751 24.6871C97.3605 24.6871 97.1055 24.4321 97.1055 24.1175C97.1055 23.8028 97.3605 23.5479 97.6751 23.5479C97.9898 23.5479 98.2447 23.803 98.2447 24.1175Z" fill="#292929"/>
<path d="M118.252 23.4514H101.044C100.959 23.4514 100.891 23.383 100.891 23.2984C100.891 23.2139 100.959 23.1455 101.044 23.1455H118.252C118.336 23.1455 118.405 23.2139 118.405 23.2984C118.405 23.383 118.336 23.4514 118.252 23.4514Z" fill="#292929"/>
<path d="M107.571 25.0901H101.044C100.959 25.0901 100.891 25.0216 100.891 24.9371C100.891 24.8526 100.959 24.7842 101.044 24.7842H107.571C107.656 24.7842 107.724 24.8526 107.724 24.9371C107.724 25.0216 107.656 25.0901 107.571 25.0901Z" fill="#292929"/>
<path d="M120.816 25.0901H109.09C109.006 25.0901 108.938 25.0216 108.938 24.9371C108.938 24.8526 109.006 24.7842 109.09 24.7842H120.816C120.901 24.7842 120.969 24.8526 120.969 24.9371C120.969 25.0216 120.901 25.0901 120.816 25.0901Z" fill="#292929"/>
<path d="M128.364 24.4551L127.901 23.6464V23.5385H127.954C128.041 23.5385 128.114 23.5304 128.173 23.514C128.233 23.4977 128.28 23.4707 128.315 23.4332C128.349 23.3956 128.369 23.3441 128.376 23.2788H127.901V23.1219H128.374C128.362 23.0615 128.339 23.0125 128.305 22.9749C128.271 22.9357 128.224 22.9071 128.165 22.8891C128.108 22.8712 128.038 22.8622 127.954 22.8622H127.901V22.7053H128.915V22.8622H128.452C128.49 22.8932 128.521 22.93 128.545 22.9725C128.57 23.0149 128.585 23.0648 128.592 23.1219H128.915V23.2788H128.597C128.585 23.398 128.539 23.4912 128.459 23.5582C128.381 23.6235 128.276 23.6652 128.146 23.6831L128.614 24.4551H128.364Z" fill="#292929"/>
<path d="M128.364 30.4873L127.901 29.6786V29.5708H127.954C128.041 29.5708 128.114 29.5626 128.173 29.5463C128.233 29.5299 128.28 29.503 128.315 29.4654C128.349 29.4278 128.369 29.3764 128.376 29.311H127.901V29.1542H128.374C128.362 29.0937 128.339 29.0447 128.305 29.0071C128.271 28.9679 128.224 28.9393 128.165 28.9214C128.108 28.9034 128.038 28.8944 127.954 28.8944H127.901V28.7376H128.915V28.8944H128.452C128.49 28.9254 128.521 28.9622 128.545 29.0047C128.57 29.0472 128.585 29.097 128.592 29.1542H128.915V29.311H128.597C128.585 29.4303 128.539 29.5234 128.459 29.5904C128.381 29.6557 128.276 29.6974 128.146 29.7154L128.614 30.4873H128.364Z" fill="#292929"/>
<path d="M128.364 37.8389L127.901 37.0302V36.9223H127.954C128.041 36.9223 128.114 36.9142 128.173 36.8978C128.233 36.8815 128.28 36.8545 128.315 36.817C128.349 36.7794 128.369 36.7279 128.376 36.6626H127.901V36.5057H128.374C128.362 36.4453 128.339 36.3963 128.305 36.3587C128.271 36.3195 128.224 36.2909 128.165 36.2729C128.108 36.255 128.038 36.246 127.954 36.246H127.901V36.0891H128.915V36.246H128.452C128.49 36.277 128.521 36.3138 128.545 36.3562C128.57 36.3987 128.585 36.4486 128.592 36.5057H128.915V36.6626H128.597C128.585 36.7818 128.539 36.875 128.459 36.9419C128.381 37.0073 128.276 37.049 128.146 37.0669L128.614 37.8389H128.364Z" fill="#292929"/>
<path d="M128.364 45.1914L127.901 44.3827V44.2749H127.954C128.041 44.2749 128.114 44.2667 128.173 44.2504C128.233 44.234 128.28 44.2071 128.315 44.1695C128.349 44.1319 128.369 44.0805 128.376 44.0151H127.901V43.8583H128.374C128.362 43.7978 128.339 43.7488 128.305 43.7112C128.271 43.672 128.224 43.6434 128.165 43.6255C128.108 43.6075 128.038 43.5985 127.954 43.5985H127.901V43.4417H128.915V43.5985H128.452C128.49 43.6295 128.521 43.6663 128.545 43.7088C128.57 43.7513 128.585 43.8011 128.592 43.8583H128.915V44.0151H128.597C128.585 44.1344 128.539 44.2275 128.459 44.2945C128.381 44.3598 128.276 44.4015 128.146 44.4195L128.614 45.1914H128.364Z" fill="#292929"/>
<path d="M98.2447 31.097C98.2447 31.4115 97.9898 31.6666 97.6751 31.6666C97.3605 31.6666 97.1055 31.4116 97.1055 31.097C97.1055 30.7823 97.3605 30.5273 97.6751 30.5273C97.9898 30.5273 98.2447 30.7823 98.2447 31.097Z" fill="#292929"/>
<path d="M118.252 30.4309H101.044C100.959 30.4309 100.891 30.3625 100.891 30.2779C100.891 30.1934 100.959 30.125 101.044 30.125H118.252C118.336 30.125 118.405 30.1934 118.405 30.2779C118.405 30.3624 118.336 30.4309 118.252 30.4309Z" fill="#292929"/>
<path d="M107.571 32.0676H101.044C100.959 32.0676 100.891 31.9992 100.891 31.9147C100.891 31.8301 100.959 31.7617 101.044 31.7617H107.571C107.656 31.7617 107.724 31.8301 107.724 31.9147C107.724 31.9992 107.656 32.0676 107.571 32.0676Z" fill="#292929"/>
<path d="M120.816 32.0676H109.09C109.006 32.0676 108.938 31.9992 108.938 31.9147C108.938 31.8301 109.006 31.7617 109.09 31.7617H120.816C120.901 31.7617 120.969 31.8301 120.969 31.9147C120.969 31.9992 120.901 32.0676 120.816 32.0676Z" fill="#292929"/>
<path d="M98.2447 38.5276C98.2447 38.8422 97.9898 39.0973 97.6751 39.0973C97.3605 39.0973 97.1055 38.8423 97.1055 38.5276C97.1055 38.2131 97.3605 37.958 97.6751 37.958C97.9898 37.9581 98.2447 38.2131 98.2447 38.5276Z" fill="#292929"/>
<path d="M118.252 37.8615H101.044C100.959 37.8615 100.891 37.7931 100.891 37.7086C100.891 37.6241 100.959 37.5557 101.044 37.5557H118.252C118.336 37.5557 118.405 37.6241 118.405 37.7086C118.405 37.7931 118.336 37.8615 118.252 37.8615Z" fill="#292929"/>
<path d="M107.571 39.4992H101.044C100.959 39.4992 100.891 39.4308 100.891 39.3463C100.891 39.2618 100.959 39.1934 101.044 39.1934H107.571C107.656 39.1934 107.724 39.2618 107.724 39.3463C107.724 39.4308 107.656 39.4992 107.571 39.4992Z" fill="#292929"/>
<path d="M120.816 39.4992H109.09C109.006 39.4992 108.938 39.4308 108.938 39.3463C108.938 39.2618 109.006 39.1934 109.09 39.1934H120.816C120.901 39.1934 120.969 39.2618 120.969 39.3463C120.969 39.4308 120.901 39.4992 120.816 39.4992Z" fill="#292929"/>
<path d="M98.2447 45.5052C98.2447 45.8197 97.9898 46.0748 97.6751 46.0748C97.3605 46.0748 97.1055 45.8198 97.1055 45.5052C97.1055 45.1905 97.3605 44.9355 97.6751 44.9355C97.9898 44.9355 98.2447 45.1905 98.2447 45.5052Z" fill="#292929"/>
<path d="M118.252 44.8391H101.044C100.959 44.8391 100.891 44.7707 100.891 44.6861C100.891 44.6016 100.959 44.5332 101.044 44.5332H118.252C118.336 44.5332 118.405 44.6016 118.405 44.6861C118.405 44.7706 118.336 44.8391 118.252 44.8391Z" fill="#292929"/>
<path d="M107.571 46.4768H101.044C100.959 46.4768 100.891 46.4084 100.891 46.3238C100.891 46.2393 100.959 46.1709 101.044 46.1709H107.571C107.656 46.1709 107.724 46.2393 107.724 46.3238C107.724 46.4084 107.656 46.4768 107.571 46.4768Z" fill="#292929"/>
<path d="M120.816 46.4768H109.09C109.006 46.4768 108.938 46.4084 108.938 46.3238C108.938 46.2393 109.006 46.1709 109.09 46.1709H120.816C120.901 46.1709 120.969 46.2393 120.969 46.3238C120.969 46.4084 120.901 46.4768 120.816 46.4768Z" fill="#292929"/>
<path d="M93.9722 125.823H92.6641V125.383H95.8307V125.823H94.5224V129.474H93.9722V125.823Z" fill="#292929"/>
<path d="M96.7344 125.383H98.0887C98.9695 125.383 99.6018 125.682 99.6018 126.534C99.6018 127.352 98.9694 127.745 98.0887 127.745H97.2846V129.474H96.7344V125.383ZM98.0096 127.323C98.6825 127.323 99.0529 127.065 99.0529 126.534C99.0529 125.996 98.6825 125.805 98.0096 125.805H97.2846V127.323H98.0096V127.323ZM97.9802 127.602L98.4114 127.333L99.7307 129.474H99.1069L97.9802 127.602Z" fill="#292929"/>
<path d="M101.478 125.383H102.099L103.562 129.474H102.979L102.225 127.189C102.07 126.732 101.931 126.283 101.792 125.811H101.766C101.632 126.285 101.493 126.732 101.338 127.189L100.576 129.474H100.016L101.478 125.383ZM100.785 127.812H102.776V128.228H100.785V127.812Z" fill="#292929"/>
<path d="M104.277 125.383H104.846L106.411 127.955L106.877 128.802H106.904C106.876 128.389 106.834 127.928 106.834 127.5V125.383H107.356V129.474H106.788L105.223 126.9L104.756 126.055H104.73C104.758 126.469 104.8 126.905 104.8 127.333V129.474H104.277V125.383Z" fill="#292929"/>
<path d="M108.359 128.941L108.689 128.584C109 128.889 109.432 129.091 109.882 129.091C110.449 129.091 110.786 128.823 110.786 128.426C110.786 128.008 110.472 127.875 110.064 127.706L109.443 127.447C109.04 127.284 108.567 126.995 108.567 126.393C108.567 125.768 109.143 125.308 109.929 125.308C110.441 125.308 110.898 125.518 111.202 125.815L110.91 126.149C110.645 125.912 110.328 125.765 109.929 125.765C109.444 125.765 109.123 125.997 109.123 126.363C109.123 126.757 109.5 126.904 109.838 127.04L110.455 127.292C110.955 127.496 111.346 127.778 111.346 128.386C111.346 129.032 110.781 129.549 109.872 129.549C109.265 129.549 108.737 129.314 108.359 128.941Z" fill="#292929"/>
<path d="M113.213 125.383H113.834L115.296 129.474H114.714L113.96 127.189C113.804 126.732 113.665 126.283 113.527 125.811H113.5C113.367 126.285 113.228 126.732 113.072 127.189L112.31 129.474H111.75L113.213 125.383ZM112.519 127.812H114.51V128.228H112.519V127.812Z" fill="#292929"/>
<path d="M115.723 127.432C115.723 126.112 116.544 125.308 117.642 125.308C118.167 125.308 118.578 125.549 118.831 125.812L118.529 126.151C118.302 125.921 118.016 125.765 117.651 125.765C116.834 125.765 116.291 126.399 116.291 127.418C116.291 128.446 116.81 129.091 117.63 129.091C118.043 129.091 118.356 128.921 118.632 128.631L118.934 128.958C118.592 129.333 118.169 129.549 117.607 129.549C116.53 129.549 115.723 128.761 115.723 127.432Z" fill="#292929"/>
<path d="M120.648 125.823H119.34V125.383H122.506V125.823H121.198V129.474H120.648V125.823Z" fill="#292929"/>
<path d="M123.41 125.383H123.96V129.474H123.41V125.383Z" fill="#292929"/>
<path d="M125.023 127.413C125.023 126.103 125.786 125.308 126.872 125.308C127.958 125.308 128.72 126.105 128.72 127.413C128.72 128.724 127.958 129.549 126.872 129.549C125.786 129.549 125.023 128.724 125.023 127.413ZM128.151 127.413C128.151 126.394 127.644 125.765 126.872 125.765C126.099 125.765 125.592 126.394 125.592 127.413C125.592 128.433 126.099 129.091 126.872 129.091C127.644 129.091 128.151 128.433 128.151 127.413Z" fill="#292929"/>
<path d="M129.785 125.383H130.353L131.919 127.955L132.385 128.802H132.412C132.384 128.389 132.342 127.928 132.342 127.5V125.383H132.864V129.474H132.296L130.731 126.9L130.264 126.055H130.238C130.265 126.469 130.308 126.905 130.308 127.333V129.474H129.785V125.383H129.785Z" fill="#292929"/>
<path d="M113.032 120.216C116.702 120.216 119.678 117.241 119.678 113.57C119.678 109.9 116.702 106.925 113.032 106.925C109.362 106.925 106.387 109.9 106.387 113.57C106.387 117.241 109.362 120.216 113.032 120.216Z" fill="#2F945A"/>
<path d="M112.52 115.742C112.484 115.742 112.448 115.729 112.42 115.705L110.014 113.643C109.95 113.588 109.943 113.491 109.998 113.427C110.053 113.363 110.149 113.356 110.213 113.411L112.503 115.373L116.757 110.335C116.812 110.27 116.908 110.262 116.973 110.316C117.037 110.371 117.045 110.467 116.991 110.532L112.637 115.688C112.611 115.719 112.573 115.738 112.532 115.742C112.528 115.742 112.524 115.742 112.52 115.742Z" fill="white"/>
<path d="M109.032 89.084L103.398 88.6807L108.38 93.8759L109.032 89.084Z" fill="white"/>
<path d="M108.268 93.9822L103.012 88.5L109.041 88.9318L109.019 89.2368L103.782 88.8618L108.489 93.7705L108.268 93.9822Z" fill="#292929"/>
<path d="M156.75 98.0531H109.081C108.294 98.0531 107.656 97.4154 107.656 96.6287V85.8766C107.656 85.0899 108.294 84.4521 109.081 84.4521H156.75C157.536 84.4521 158.174 85.0899 158.174 85.8766V96.6287C158.174 97.4154 157.536 98.0531 156.75 98.0531Z" fill="white"/>
<path d="M146.147 92.2451L145.452 91.0321V90.8703H145.533C145.663 90.8703 145.772 90.8581 145.86 90.8336C145.951 90.8091 146.022 90.7686 146.074 90.7123C146.125 90.6559 146.156 90.5787 146.166 90.4807H145.452V90.2454H146.162C146.145 90.1547 146.11 90.0812 146.059 90.0249C146.007 89.966 145.938 89.9232 145.849 89.8962C145.764 89.8692 145.658 89.8558 145.533 89.8558H145.452V89.6205H146.974V89.8558H146.28C146.336 89.9023 146.382 89.9575 146.419 90.0212C146.456 90.0849 146.479 90.1596 146.489 90.2454H146.974V90.4807H146.496C146.479 90.6596 146.411 90.7993 146.291 90.8997C146.173 90.9978 146.016 91.0602 145.82 91.0872L146.522 92.2451H146.147Z" fill="#292929"/>
<path d="M156.746 98.2047H109.077C108.208 98.2047 107.5 97.4971 107.5 96.6273V85.8752C107.5 85.0055 108.208 84.2979 109.077 84.2979H156.746C157.616 84.2979 158.324 85.0054 158.324 85.8752V96.6273C158.324 97.497 157.616 98.2047 156.746 98.2047ZM109.077 84.6037C108.376 84.6037 107.806 85.1742 107.806 85.8752V96.6273C107.806 97.3284 108.376 97.8988 109.077 97.8988H156.746C157.447 97.8988 158.018 97.3284 158.018 96.6273V85.8752C158.018 85.1742 157.447 84.6037 156.746 84.6037H109.077Z" fill="#292929"/>
<path d="M139.77 90.7939H141.075V91.1339H139.77V90.7939Z" fill="#292929"/>
<path d="M147.273 91.9459H148.105V89.4171H147.444V89.1321C147.774 89.0771 148.015 88.9938 148.216 88.8799H148.574V91.946H149.324V92.3149H147.273V91.9459Z" fill="#292929"/>
<path d="M150.023 90.5847C150.023 89.433 150.462 88.8154 151.187 88.8154C151.912 88.8154 152.351 89.435 152.351 90.5847C152.351 91.7364 151.913 92.3796 151.187 92.3796C150.462 92.3797 150.023 91.7365 150.023 90.5847ZM151.897 90.5847C151.897 89.5778 151.609 89.1723 151.187 89.1723C150.765 89.1723 150.478 89.5778 150.478 90.5847C150.478 91.5916 150.765 92.0227 151.187 92.0227C151.609 92.0227 151.897 91.5916 151.897 90.5847Z" fill="#292929"/>
<path d="M152.965 90.5847C152.965 89.433 153.403 88.8154 154.129 88.8154C154.854 88.8154 155.293 89.435 155.293 90.5847C155.293 91.7364 154.854 92.3796 154.129 92.3796C153.403 92.3797 152.965 91.7365 152.965 90.5847ZM154.838 90.5847C154.838 89.5778 154.551 89.1723 154.129 89.1723C153.707 89.1723 153.419 89.5778 153.419 90.5847C153.419 91.5916 153.707 92.0227 154.129 92.0227C154.551 92.0227 154.838 91.5916 154.838 90.5847Z" fill="#292929"/>
<path d="M125.554 86.8096H110.918V88.171H125.554V86.8096Z" fill="#2F945A"/>
<path d="M123.792 92.1555H110.915C110.83 92.1555 110.762 92.087 110.762 92.0025C110.762 91.9181 110.83 91.8496 110.915 91.8496H123.792C123.876 91.8496 123.945 91.9181 123.945 92.0025C123.945 92.087 123.876 92.1555 123.792 92.1555Z" fill="#292929"/>
<path d="M131.053 94.5383H110.915C110.83 94.5383 110.762 94.4698 110.762 94.3854C110.762 94.3009 110.83 94.2324 110.915 94.2324H131.053C131.137 94.2324 131.206 94.3009 131.206 94.3854C131.206 94.4698 131.137 94.5383 131.053 94.5383Z" fill="#292929"/>
<path d="M97.6979 18.3H96.1686C96.084 18.3 96.0156 18.2316 96.0156 18.1471C96.0156 18.0626 96.084 17.9941 96.1686 17.9941H97.6979C97.7825 17.9941 97.8509 18.0626 97.8509 18.1471C97.8509 18.2316 97.7824 18.3 97.6979 18.3Z" fill="#2F945A"/>
<path d="M124.679 18.3H121.307C121.222 18.3 121.154 18.2316 121.154 18.1471C121.154 18.0626 121.222 17.9941 121.307 17.9941H124.679C124.764 17.9941 124.832 18.0626 124.832 18.1471C124.832 18.2316 124.764 18.3 124.679 18.3ZM117.934 18.3H114.561C114.477 18.3 114.409 18.2316 114.409 18.1471C114.409 18.0626 114.477 17.9941 114.561 17.9941H117.934C118.019 17.9941 118.087 18.0626 118.087 18.1471C118.087 18.2316 118.019 18.3 117.934 18.3ZM111.189 18.3H107.816C107.732 18.3 107.663 18.2316 107.663 18.1471C107.663 18.0626 107.732 17.9941 107.816 17.9941H111.189C111.273 17.9941 111.342 18.0626 111.342 18.1471C111.342 18.2316 111.273 18.3 111.189 18.3ZM104.443 18.3H101.071C100.986 18.3 100.918 18.2316 100.918 18.1471C100.918 18.0626 100.986 17.9941 101.071 17.9941H104.444C104.528 17.9941 104.597 18.0626 104.597 18.1471C104.597 18.2316 104.528 18.3 104.443 18.3Z" fill="#2F945A"/>
<path d="M129.581 18.3H128.051C127.967 18.3 127.898 18.2316 127.898 18.1471C127.898 18.0626 127.967 17.9941 128.051 17.9941H129.581C129.665 17.9941 129.734 18.0626 129.734 18.1471C129.734 18.2316 129.665 18.3 129.581 18.3Z" fill="#2F945A"/>
<path d="M97.6979 51.7688H96.1686C96.084 51.7688 96.0156 51.7004 96.0156 51.6158C96.0156 51.5313 96.084 51.4629 96.1686 51.4629H97.6979C97.7825 51.4629 97.8509 51.5313 97.8509 51.6158C97.8509 51.7004 97.7824 51.7688 97.6979 51.7688Z" fill="#2F945A"/>
<path d="M124.679 51.7688H121.307C121.222 51.7688 121.154 51.7004 121.154 51.6158C121.154 51.5313 121.222 51.4629 121.307 51.4629H124.679C124.764 51.4629 124.832 51.5313 124.832 51.6158C124.832 51.7004 124.764 51.7688 124.679 51.7688ZM117.934 51.7688H114.561C114.477 51.7688 114.409 51.7004 114.409 51.6158C114.409 51.5313 114.477 51.4629 114.561 51.4629H117.934C118.019 51.4629 118.087 51.5313 118.087 51.6158C118.087 51.7004 118.019 51.7688 117.934 51.7688ZM111.189 51.7688H107.816C107.732 51.7688 107.663 51.7004 107.663 51.6158C107.663 51.5313 107.732 51.4629 107.816 51.4629H111.189C111.273 51.4629 111.342 51.5313 111.342 51.6158C111.342 51.7004 111.273 51.7688 111.189 51.7688ZM104.443 51.7688H101.071C100.986 51.7688 100.918 51.7004 100.918 51.6158C100.918 51.5313 100.986 51.4629 101.071 51.4629H104.444C104.528 51.4629 104.597 51.5313 104.597 51.6158C104.596 51.7004 104.528 51.7688 104.443 51.7688Z" fill="#2F945A"/>
<path d="M129.581 51.7688H128.051C127.967 51.7688 127.898 51.7004 127.898 51.6158C127.898 51.5313 127.967 51.4629 128.051 51.4629H129.581C129.665 51.4629 129.734 51.5313 129.734 51.6158C129.734 51.7004 129.665 51.7688 129.581 51.7688Z" fill="#2F945A"/>
<path d="M98.6919 60.5215H98.3516V67.6691H98.6919V60.5215Z" fill="#292929"/>
<path d="M99.9382 60.5215H99.4844V67.6691H99.9382V60.5215Z" fill="#292929"/>
<path d="M103.571 60.5215H103.117V67.6691H103.571V60.5215Z" fill="#292929"/>
<path d="M109.809 60.5215H109.355V67.6691H109.809V60.5215Z" fill="#292929"/>
<path d="M111.63 60.5215H111.062V67.6691H111.63V60.5215Z" fill="#292929"/>
<path d="M107.091 60.5215H106.637V67.6691H107.091V60.5215Z" fill="#292929"/>
<path d="M100.735 60.5215H100.508V67.6691H100.735V60.5215Z" fill="#292929"/>
<path d="M110.379 60.5215H110.152V67.6691H110.379V60.5215Z" fill="#292929"/>
<path d="M101.418 60.5215H101.191V67.6691H101.418V60.5215Z" fill="#292929"/>
<path d="M101.985 60.5215H101.758V67.6691H101.985V60.5215Z" fill="#292929"/>
<path d="M104.707 60.5215H104.48V67.6691H104.707V60.5215Z" fill="#292929"/>
<path d="M105.387 60.5215H105.16V67.6691H105.387V60.5215Z" fill="#292929"/>
<path d="M113.329 60.5215H113.102V67.6691H113.329V60.5215Z" fill="#292929"/>
<path d="M123.423 60.5215H122.855V67.6691H123.423V60.5215Z" fill="#292929"/>
<path d="M116.392 60.5215H115.824V67.6691H116.392V60.5215Z" fill="#292929"/>
<path d="M124.899 60.5215H124.672V67.6691H124.899V60.5215Z" fill="#292929"/>
<path d="M114.352 60.5215H114.125V67.6691H114.352V60.5215Z" fill="#292929"/>
<path d="M117.512 60.5215H117.285V67.6691H117.512V60.5215Z" fill="#292929"/>
<path d="M119.684 60.5215H119.117V67.6691H119.684V60.5215Z" fill="#292929"/>
<path d="M120.59 60.5215H120.363V67.6691H120.59V60.5215Z" fill="#292929"/>
<path d="M118.547 60.5215H118.32V67.6691H118.547V60.5215Z" fill="#292929"/>
<path d="M121.836 60.5215H121.609V67.6691H121.836V60.5215Z" fill="#292929"/>
<path d="M125.922 60.5215H125.695V67.6691H125.922V60.5215Z" fill="#292929"/>
<path d="M126.716 60.5215H126.262V67.6691H126.716V60.5215Z" fill="#292929"/>
<path d="M108.223 60.5215H107.996V67.6691H108.223V60.5215Z" fill="#292929"/>
<path d="M121.524 13.4943H103.484C102.764 13.4943 102.18 12.9102 102.18 12.1895C102.18 11.469 102.764 10.8848 103.484 10.8848H121.524C122.244 10.8848 122.829 11.4689 122.829 12.1895C122.829 12.9101 122.244 13.4943 121.524 13.4943Z" fill="white"/>
<path d="M121.528 13.6477H103.489C102.685 13.6477 102.031 12.9938 102.031 12.19C102.031 11.3863 102.685 10.7324 103.489 10.7324H121.528C122.332 10.7324 122.986 11.3863 122.986 12.19C122.986 12.9938 122.332 13.6477 121.528 13.6477ZM103.489 11.0383C102.854 11.0383 102.337 11.5549 102.337 12.19C102.337 12.8251 102.854 13.3418 103.489 13.3418H121.528C122.163 13.3418 122.68 12.8251 122.68 12.19C122.68 11.5549 122.163 11.0383 121.528 11.0383H103.489Z" fill="#292929"/>
<path d="M179.959 22.7486C179.022 22.6137 177.766 22.6046 176.703 23.2913C173.668 25.253 174.63 31.3354 174.998 33.6836C175.277 35.466 177.632 49.2108 188.177 53.1395C189.243 53.5364 195.282 55.6155 199.24 52.5662C199.833 52.1094 200.596 51.5217 201.047 50.5036C202.802 46.54 196.696 43.1231 191.191 32.7736C188.295 27.3293 187.335 23.3044 183.758 22.4385C182.277 22.08 180.907 22.4043 179.959 22.7486Z" fill="#292929"/>
<path d="M186.672 40.5068H186.43L184.245 32.8027L179.09 34.2646L180.861 40.5068H180.021L172.402 44.727L179.69 51.7045L191.009 46.2776L186.672 40.5068Z" fill="white"/>
<path d="M186.357 40.0753C185.653 37.6511 184.949 35.2269 184.245 32.8027L179.09 34.2645C179.652 36.279 180.214 38.2934 180.775 40.3079C177.984 41.7808 175.193 43.2539 172.402 44.7269L179.69 51.7044L191.009 46.2775C189.458 44.2101 187.908 42.1427 186.357 40.0753Z" fill="#FFBE9D"/>
<path d="M179.691 51.8592C179.652 51.8592 179.614 51.8446 179.585 51.8167L172.297 44.8392C172.262 44.8052 172.245 44.7562 172.252 44.7075C172.258 44.6589 172.288 44.6163 172.332 44.5934L180.596 40.2318L178.944 34.3073C178.921 34.2262 178.968 34.142 179.049 34.1191L184.204 32.6573C184.285 32.6341 184.369 32.6809 184.393 32.7618L186.497 40.0075L191.132 46.1874C191.16 46.224 191.169 46.271 191.158 46.3156C191.148 46.36 191.117 46.3972 191.076 46.4171L179.757 51.844C179.736 51.8543 179.713 51.8592 179.691 51.8592ZM172.662 44.7651L179.72 51.5227L190.776 46.222L186.236 40.1688C186.225 40.154 186.216 40.1374 186.211 40.1198L184.142 32.9931L179.28 34.3719L180.924 40.2685C180.943 40.3379 180.911 40.4113 180.848 40.4448L172.662 44.7651Z" fill="#292929"/>
<path d="M181.008 40.3096C179.809 40.3817 177.757 40.6282 175.504 41.6276C165.954 45.8622 161.289 59.8419 164.805 63.4128C165.709 64.3311 167.716 65.1321 172.868 63.4903L181.008 40.3096Z" fill="#2F945A"/>
<path d="M167.901 64.5849C166.468 64.585 165.397 64.2296 164.698 63.5188C163.539 62.3421 163.193 59.9978 163.746 57.0868C164.297 54.1889 165.695 50.9768 167.582 48.2742C169.765 45.1461 172.484 42.7989 175.443 41.4864C177.169 40.7213 179.039 40.2735 181.001 40.1556C181.085 40.1503 181.157 40.2147 181.163 40.299C181.168 40.3834 181.103 40.4558 181.019 40.4608C179.094 40.5767 177.259 41.0157 175.568 41.766C169.404 44.4991 165.107 51.5708 164.047 57.1439C163.512 59.9548 163.829 62.2001 164.916 63.3042C166.188 64.5967 168.848 64.6099 172.823 63.3434C172.904 63.3177 172.99 63.3622 173.015 63.4427C173.041 63.5232 172.996 63.6092 172.916 63.6349C170.928 64.2682 169.254 64.5848 167.901 64.5849Z" fill="#292929"/>
<path d="M165.747 58.8613L165.715 58.958L168.738 59.9658L168.771 59.869L165.747 58.8613Z" fill="#2F945A"/>
<path d="M171.703 94.2672C173.608 113.779 180.703 128.999 186.644 138.857C188.823 137.91 191.279 136.638 193.774 134.929C198.25 131.865 201.189 128.532 203.069 125.902C198.171 117.062 193.271 108.223 188.372 99.3839L193.566 77.2885L172.945 65.2725C171.542 72.9297 170.589 82.848 171.703 94.2672Z" fill="#292929"/>
<path d="M184.844 139.748C184.783 139.748 184.725 139.711 184.702 139.65C184.671 139.572 184.711 139.483 184.789 139.453C185.393 139.221 185.996 138.974 186.584 138.718C186.661 138.684 186.751 138.72 186.785 138.797C186.819 138.874 186.783 138.964 186.706 138.998C186.115 139.256 185.507 139.505 184.899 139.738C184.881 139.745 184.863 139.748 184.844 139.748Z" fill="#292929"/>
<path d="M190.163 144.814C190.112 144.814 190.065 144.789 190.037 144.748C188.726 142.846 187.465 140.891 186.288 138.936C186.265 138.899 186.259 138.853 186.273 138.811C186.286 138.769 186.317 138.735 186.357 138.717C188.883 137.619 191.273 136.302 193.462 134.804C197.14 132.285 200.255 129.26 202.719 125.813C202.75 125.771 202.798 125.745 202.852 125.75C202.905 125.752 202.952 125.782 202.977 125.828L206.271 131.771C206.44 132.076 206.471 132.439 206.356 132.765C205.576 134.999 203.13 140.494 197.282 143.248C195.082 144.285 192.687 144.812 190.163 144.814ZM186.64 138.928C187.774 140.804 188.985 142.68 190.243 144.508C192.692 144.495 195.016 143.978 197.152 142.972C202.894 140.267 205.3 134.862 206.068 132.664C206.154 132.419 206.13 132.148 206.003 131.919L202.827 126.187C200.365 129.582 197.273 132.565 193.635 135.056C191.477 136.534 189.124 137.836 186.64 138.928Z" fill="#292929"/>
<path d="M175.195 138.425H175.196C177.374 138.935 179.848 139.379 182.586 139.653C185.928 139.985 188.946 139.991 191.532 139.846C193.965 126.351 195.741 110.892 195.97 93.8031C196.093 84.6155 195.756 75.9611 195.117 67.9092L178.913 75.5073C179.327 76.1392 179.74 76.7723 180.154 77.4054C179.968 85.7819 179.572 94.5145 178.913 103.572C178.021 115.846 176.738 127.481 175.195 138.425Z" fill="#292929"/>
<path d="M188.311 140.088C186.394 140.088 184.475 139.993 182.574 139.804C180.086 139.555 177.593 139.141 175.165 138.573C175.083 138.554 175.032 138.472 175.051 138.389C175.07 138.307 175.152 138.256 175.235 138.275C177.65 138.841 180.129 139.252 182.605 139.5C185.521 139.79 188.481 139.857 191.406 139.699C194.13 124.558 195.615 109.116 195.821 93.8002C195.822 93.7158 195.888 93.6495 195.976 93.6494C196.06 93.6505 196.128 93.72 196.126 93.8045C195.92 109.177 194.426 124.676 191.686 139.872C191.673 139.942 191.614 139.994 191.544 139.998C190.47 140.058 189.391 140.088 188.311 140.088Z" fill="#292929"/>
<path d="M175.197 138.577H175.196C175.152 138.577 175.11 138.559 175.081 138.526C175.052 138.493 175.039 138.449 175.044 138.405C176.499 126.866 177.749 115.142 178.762 103.558C179.255 97.9059 179.703 92.1718 180.091 86.514L178.796 85.5429C178.729 85.4922 178.715 85.3962 178.765 85.3286C178.816 85.2612 178.912 85.2476 178.98 85.2981L180.341 86.3192C180.382 86.3504 180.405 86.4003 180.402 86.452C180.012 92.1387 179.563 97.903 179.066 103.584C178.054 115.168 176.804 126.891 175.349 138.43C175.346 138.512 175.28 138.577 175.197 138.577Z" fill="#263238"/>
<path d="M168.837 144.506C168.907 144.607 169.202 144.709 169.502 144.696C169.874 144.678 170.246 144.661 170.618 144.661H190.622C190.934 143.086 191.239 141.48 191.534 139.845C188.948 139.99 185.93 139.985 182.588 139.652C179.85 139.379 177.376 138.934 175.198 138.425H175.197C169.939 142.742 168.63 144.209 168.837 144.506Z" fill="white"/>
<path d="M169.448 144.849C169.163 144.849 168.824 144.758 168.709 144.593C168.561 144.38 168.699 144.004 169.858 142.864C170.897 141.841 172.66 140.308 175.098 138.306L175.14 138.271L175.231 138.275C177.646 138.841 180.126 139.253 182.601 139.5C185.557 139.794 188.559 139.859 191.523 139.692L191.716 139.681L191.682 139.872C191.391 141.484 191.084 143.105 190.77 144.691L190.746 144.814H170.616C170.247 144.814 169.87 144.831 169.506 144.848C169.487 144.849 169.468 144.849 169.448 144.849ZM168.966 144.425C169.019 144.47 169.234 144.553 169.492 144.542C169.86 144.526 170.24 144.508 170.616 144.508H190.494C190.787 143.026 191.074 141.514 191.346 140.008C188.43 140.162 185.478 140.093 182.57 139.804C180.107 139.558 177.639 139.15 175.234 138.59C169.61 143.211 168.966 144.21 168.966 144.425Z" fill="#292929"/>
<path d="M171.162 60.3105L170.442 64.2695C170.243 65.368 170.994 66.4129 172.099 66.5726L194.731 69.8463C194.821 69.8559 195.619 69.9259 196.204 69.3036C196.744 68.7287 196.68 68.0131 196.669 67.9081C196.41 64.0575 196.152 60.207 195.893 56.3564L171.162 60.3105Z" fill="#2F945A"/>
<path d="M170.824 58.0592C170.953 58.5211 170.594 58.9741 170.115 58.9555C168.098 58.8772 166.08 58.7988 164.063 58.7204C163.579 58.698 163.163 58.3695 163.03 57.9041L159.903 46.9922C159.764 46.5069 160.165 46.0373 160.666 46.0993L167.281 46.9183C167.565 46.9534 167.8 47.1559 167.876 47.4314C168.859 50.974 169.842 54.5166 170.824 58.0592Z" fill="#292929"/>
<path d="M194.886 70.0081C194.807 70.0081 194.748 70.0034 194.715 69.9999L172.078 66.7254C171.502 66.6421 170.998 66.3362 170.658 65.8638C170.319 65.3914 170.189 64.8161 170.293 64.2436L171.013 60.2846L171.314 60.3392L170.594 64.2982C170.505 64.7882 170.616 65.2808 170.907 65.6852C171.198 66.0894 171.629 66.3515 172.122 66.4227L194.753 69.6964C194.829 69.7041 195.564 69.7638 196.093 69.2003C196.572 68.6908 196.531 68.0491 196.518 67.9257L195.742 56.3682L196.047 56.3477L196.822 67.8993C196.844 68.0995 196.872 68.8182 196.316 69.4098C195.823 69.9342 195.199 70.0081 194.886 70.0081Z" fill="#292929"/>
<path d="M186.358 40.0771C192.422 40.0887 194.989 42.3274 195.972 43.4109C203.163 51.3413 193.674 72.6153 185.583 73.104C184.156 73.1901 183.001 72.6183 181.319 71.786C175.532 68.9222 173.011 63.7058 172.171 61.7073C171.323 61.6788 170.007 61.5332 168.527 60.932C167.08 60.3442 166.051 59.5548 165.426 58.9938L186.358 40.0771Z" fill="#2F945A"/>
<path d="M185.301 73.2649C183.96 73.2649 182.806 72.6937 181.248 71.9227C175.869 69.261 173.196 64.5122 172.065 61.8561C170.826 61.8033 169.615 61.5401 168.466 61.0734C167.309 60.6034 166.25 59.9419 165.32 59.1073C165.257 59.0509 165.252 58.9543 165.309 58.8914C165.365 58.8285 165.462 58.8234 165.525 58.8797C166.428 59.6907 167.457 60.3335 168.581 60.79C169.727 61.2555 170.936 61.5125 172.173 61.5542C172.232 61.5562 172.285 61.5927 172.309 61.6477C173.401 64.2462 176.033 69.0007 181.384 71.6485C183.07 72.4832 184.185 73.0345 185.57 72.951C187.403 72.8402 189.41 71.6227 191.373 69.4298C193.214 67.3743 194.92 64.5419 196.178 61.4546C197.547 58.097 198.322 54.5808 198.362 51.5537C198.407 48.1521 197.541 45.3718 195.855 43.5133C193.915 41.3733 190.63 40.2379 186.355 40.2297C186.27 40.2295 186.202 40.161 186.202 40.0765C186.202 39.9921 186.271 39.9238 186.355 39.9238H186.355C190.719 39.9321 194.082 41.1023 196.082 43.3077C197.82 45.2246 198.714 48.0774 198.668 51.5576C198.628 54.6221 197.844 58.1779 196.462 61.57C194.168 67.1986 189.917 72.9949 185.589 73.2562C185.492 73.2619 185.396 73.2649 185.301 73.2649Z" fill="#292929"/>
<path d="M179.611 59.6853L169.337 52.6162L169.903 54.7841L168.112 56.3393L166.887 60.0623L169.149 61.1934L172.259 61.7589L172.919 63.3612L175.087 66.6601L179.611 59.6853Z" fill="#FFBE9D"/>
<path d="M175.194 66.7442C175.166 66.7442 175.137 66.7365 175.112 66.72C175.04 66.6745 175.02 66.5799 175.065 66.5088L179.405 59.7333L169.293 52.7622C169.223 52.7143 169.206 52.6191 169.254 52.5495C169.302 52.4799 169.397 52.4625 169.466 52.5105L179.7 59.5654C179.768 59.6122 179.786 59.7044 179.742 59.7739L175.323 66.6739C175.294 66.7193 175.244 66.7442 175.194 66.7442Z" fill="#292929"/>
<path d="M184.032 61.4716C184.001 61.4716 183.97 61.4624 183.943 61.4432C183.874 61.3942 183.858 61.2987 183.907 61.2299L188.47 54.8283C188.811 54.3505 188.816 53.7046 188.484 53.2211L188.247 52.8772C188.2 52.8076 188.217 52.7123 188.287 52.6645C188.356 52.6169 188.452 52.6342 188.5 52.704L188.736 53.0479C189.141 53.6369 189.134 54.4238 188.719 55.0059L184.156 61.4075C184.127 61.4493 184.079 61.4716 184.032 61.4716Z" fill="#292929"/>
<path d="M187.289 64.8832C187.26 64.8832 187.231 64.875 187.205 64.8581L179.53 59.8188C179.459 59.7724 179.44 59.6776 179.486 59.6071C179.533 59.5364 179.627 59.5169 179.698 59.5631L187.373 64.6024C187.444 64.6488 187.463 64.7436 187.417 64.8142C187.388 64.8589 187.339 64.8832 187.289 64.8832Z" fill="#292929"/>
<path d="M173.952 55.8896C173.897 55.8896 173.844 55.8599 173.817 55.8079C173.503 55.2118 173.023 53.9828 173.337 52.4497C173.673 50.8108 174.735 49.8349 175.176 49.4913C175.242 49.4394 175.339 49.4512 175.391 49.5179C175.442 49.5845 175.431 49.6806 175.364 49.7325C174.95 50.0552 173.952 50.972 173.637 52.5111C173.33 54.0046 173.85 55.2144 174.087 55.6653C174.127 55.74 174.098 55.8325 174.023 55.8718C174 55.8839 173.976 55.8896 173.952 55.8896Z" fill="#292929"/>
<path d="M184.349 30.251C184.083 30.1655 183.934 30.3165 183.747 30.2684C183.313 30.1566 182.98 29.0056 183.335 24.6484C180.88 24.9069 178.424 25.1653 175.969 25.4237C175.065 31.2406 175.737 35.9839 178.063 37.0528C178.836 37.4083 179.667 37.2998 179.768 37.2854C181.158 37.0881 182.386 35.9451 183.246 34.197C183.906 34.284 184.656 33.613 184.977 32.6097C185.324 31.5293 185.043 30.4733 184.349 30.251Z" fill="#FFBE9D"/>
<path d="M179.343 37.4647C178.989 37.4647 178.483 37.4148 177.997 37.1913C175.687 36.1293 174.851 31.6111 175.817 25.3998L175.835 25.2835L183.5 24.4766L183.486 24.6604C183.098 29.4189 183.565 30.0635 183.784 30.1197C183.827 30.1311 183.873 30.1216 183.949 30.1038C184.057 30.0785 184.205 30.0441 184.395 30.1049C185.167 30.3526 185.493 31.497 185.122 32.656C184.798 33.6653 184.047 34.3732 183.335 34.3567C182.431 36.1474 181.174 37.2397 179.788 37.4364C179.727 37.4452 179.564 37.4647 179.343 37.4647ZM176.101 25.563C175.2 31.4837 175.991 35.9326 178.125 36.9135C178.837 37.2408 179.6 37.1543 179.745 37.1336C181.051 36.9483 182.245 35.8812 183.107 34.1291L183.156 34.0307L183.264 34.045C183.851 34.1217 184.539 33.4712 184.83 32.5626C185.15 31.5643 184.913 30.5923 184.301 30.3961C184.192 30.3612 184.112 30.3799 184.018 30.4016C183.928 30.4227 183.826 30.4464 183.707 30.4159C183.258 30.3004 182.793 29.5553 183.166 24.8192L176.101 25.563Z" fill="#292929"/>
<path d="M182.658 45.8933C181.875 45.8933 181.146 45.7404 180.515 45.4328C180.45 45.4017 180.381 45.366 180.312 45.3271C179.854 45.0706 179.442 44.7169 179.085 44.2758C178.228 43.2204 177.833 41.845 177.652 40.8772L177.953 40.8211C178.127 41.7541 178.506 43.0774 179.322 44.0833C179.655 44.4942 180.038 44.8229 180.461 45.0604C180.525 45.096 180.588 45.1285 180.648 45.1573C183.189 46.3965 187.702 44.9527 190.566 40.46L190.824 40.6243C189.473 42.7437 187.623 44.384 185.615 45.243C184.604 45.6755 183.593 45.8933 182.658 45.8933Z" fill="#292929"/>
<path d="M167.48 56.7842C165.579 56.669 164.584 56.7854 164.495 57.1331C164.38 57.5839 165.788 58.4237 168.72 59.6527L167.48 56.7842Z" fill="#FFBE9D"/>
<path d="M168.912 58.2947C165.064 56.6954 164.425 56.121 164.493 55.8914C164.562 55.6578 165.442 55.5202 169.842 56.3565L168.912 58.2947Z" fill="#FFBE9D"/>
<path d="M166.891 60.094C164.641 58.5907 164.309 58.1651 164.384 58.0449C164.461 57.9226 165.044 57.9798 167.752 59.1337L166.891 60.094Z" fill="#FFBE9D"/>
<path d="M166.889 60.2474C166.86 60.2474 166.83 60.239 166.804 60.2216C165.79 59.544 165.07 59.0208 164.664 58.6665C164.324 58.3705 164.137 58.1499 164.253 57.9643C164.355 57.8023 164.493 57.5799 167.811 58.9935C167.888 59.0266 167.925 59.1164 167.892 59.1942C167.858 59.2719 167.768 59.308 167.691 59.2749C165.52 58.3501 164.808 58.1733 164.575 58.1534C164.713 58.328 165.212 58.7899 166.974 59.9673C167.044 60.0142 167.063 60.1092 167.016 60.1795C166.987 60.2235 166.938 60.2474 166.889 60.2474Z" fill="#292929"/>
<path d="M177.923 24.3106C177.745 24.6722 177.125 26.0441 177.7 27.4652C178.498 29.437 181.255 30.6589 183.133 29.6877C184.291 29.0888 184.894 27.7694 184.919 26.6048C184.944 25.4527 184.398 24.6169 184.175 24.3105H177.923V24.3106Z" fill="#292929"/>
<path d="M170.232 54.8833C164.825 53.9095 163.94 54.107 163.875 54.3405C163.81 54.5752 164.473 55.209 169.767 57.209L170.232 54.8833Z" fill="#FFBE9D"/>
<path d="M180.502 24.8419C180.075 25.771 179.27 27.2018 177.809 28.5223C176.881 29.3607 175.959 29.9106 175.23 30.2688C175.23 29.1835 175.23 28.098 175.23 27.0127C175.592 26.0823 175.954 25.152 176.316 24.2217L180.502 24.8419Z" fill="#292929"/>
<path d="M183.18 33.1742C183.14 33.1742 183.099 33.158 183.069 33.1258C183.011 33.0642 183.014 32.9673 183.076 32.9096C183.242 32.7537 183.391 32.5797 183.519 32.3925C183.753 32.0489 183.915 31.6633 184 31.2465C184.016 31.1636 184.098 31.1104 184.18 31.1271C184.263 31.1439 184.316 31.2247 184.299 31.3075C184.207 31.7643 184.029 32.1874 183.772 32.5648C183.632 32.7706 183.468 32.9617 183.285 33.133C183.255 33.1604 183.218 33.1742 183.18 33.1742Z" fill="#292929"/>
<path d="M63.3443 65.652C63.2598 65.652 63.1914 65.5835 63.1914 65.499V51.69C63.1914 51.6055 63.2598 51.5371 63.3443 51.5371H69.734C69.8186 51.5371 69.887 51.6055 69.887 51.69C69.887 51.7746 69.8186 51.843 69.734 51.843H63.4973V65.499C63.4973 65.5835 63.4288 65.652 63.3443 65.652Z" fill="#292929"/>
<path d="M63.6055 71.6577C64.5025 71.5129 65.1122 70.6684 64.9673 69.7715C64.8225 68.8745 63.978 68.2648 63.0811 68.4096C62.1841 68.5545 61.5744 69.399 61.7193 70.2959C61.8641 71.1928 62.7086 71.8025 63.6055 71.6577Z" fill="#2F945A"/>
<path d="M63.3443 77.4679C64.2529 77.4679 64.9894 76.7314 64.9894 75.8228C64.9894 74.9143 64.2529 74.1777 63.3443 74.1777C62.4358 74.1777 61.6992 74.9143 61.6992 75.8228C61.6992 76.7314 62.4358 77.4679 63.3443 77.4679Z" fill="#2F945A"/>
<path d="M63.3443 84.048C64.2529 84.048 64.9894 83.3115 64.9894 82.4029C64.9894 81.4943 64.2529 80.7578 63.3443 80.7578C62.4358 80.7578 61.6992 81.4943 61.6992 82.4029C61.6992 83.3115 62.4358 84.048 63.3443 84.048Z" fill="#2F945A"/>
<path d="M101.948 102.457H63.3443C63.2598 102.457 63.1914 102.388 63.1914 102.304V87.8424C63.1914 87.758 63.2598 87.6895 63.3443 87.6895C63.4289 87.6895 63.4973 87.758 63.4973 87.8424V102.151H101.948C102.033 102.151 102.101 102.22 102.101 102.304C102.101 102.388 102.033 102.457 101.948 102.457Z" fill="#292929"/>
<path d="M169.768 57.3629C169.75 57.3629 169.732 57.3597 169.714 57.353C167.369 56.4672 165.696 55.7592 164.74 55.2485C163.952 54.8273 163.659 54.5526 163.729 54.3006C163.798 54.0505 164.183 53.9654 165.059 54.0073C166.113 54.0575 167.863 54.3019 170.261 54.7337C170.344 54.7486 170.399 54.8282 170.384 54.9113C170.369 54.9945 170.289 55.05 170.206 55.0348C165.002 54.0976 164.161 54.2838 164.029 54.3841C164.091 54.5402 164.731 55.1439 169.822 57.067C169.901 57.0969 169.941 57.1851 169.911 57.2642C169.888 57.3252 169.83 57.3629 169.768 57.3629Z" fill="#292929"/>
<path d="M168.912 58.4492C168.892 58.4492 168.872 58.4454 168.853 58.4375C164.157 56.4857 164.28 56.0717 164.346 55.8492C164.414 55.6205 164.541 55.1948 169.871 56.2077C169.954 56.2235 170.008 56.3036 169.992 56.3866C169.977 56.4696 169.896 56.524 169.813 56.5082C165.49 55.6864 164.764 55.849 164.645 55.9381C164.694 56.0727 165.184 56.5813 168.97 58.1549C169.049 58.1874 169.086 58.2769 169.053 58.3549C169.029 58.4137 168.972 58.4492 168.912 58.4492Z" fill="#292929"/>
<defs>
<linearGradient id="paint0_linear_12836_98427" x1="135" y1="0" x2="135" y2="150" gradientUnits="userSpaceOnUse">
<stop stop-color="#FAFFF2"/>
<stop offset="1" stop-color="white" stop-opacity="0.4"/>
</linearGradient>
</defs>
</svg>
