<svg width="30" height="31" viewBox="0 0 30 31" fill="none" xmlns="http://www.w3.org/2000/svg">
<rect y="0.125" width="30" height="30" rx="6.25" fill="#EAF4EF"/>
<path d="M22.4403 23.625C20.5557 23.625 18.6625 23.1868 16.7606 22.3105C14.8586 21.4342 13.1112 20.198 11.5183 18.6019C9.92532 17.0057 8.69071 15.2583 7.81442 13.3596C6.93814 11.4609 6.5 9.56923 6.5 7.68463C6.5 7.38188 6.6 7.12958 6.8 6.92775C7 6.72592 7.25 6.625 7.55 6.625H10.8115C11.0641 6.625 11.2868 6.70738 11.4798 6.87213C11.6727 7.03688 11.7955 7.2404 11.848 7.4827L12.4211 10.425C12.4609 10.6981 12.4525 10.9327 12.3961 11.1288C12.3397 11.325 12.2384 11.4897 12.0923 11.6231L9.78265 13.8711C10.1545 14.5519 10.5791 15.1958 11.0567 15.8029C11.5343 16.4099 12.0513 16.9897 12.6077 17.5423C13.1564 18.091 13.7397 18.6006 14.3577 19.0712C14.9756 19.5417 15.6429 19.9795 16.3596 20.3846L18.6038 18.1212C18.7602 17.9583 18.9497 17.8442 19.1721 17.7789C19.3945 17.7135 19.6256 17.6974 19.8654 17.7308L22.6423 18.2962C22.8948 18.3628 23.1009 18.4917 23.2605 18.6827C23.4201 18.8737 23.5 19.0904 23.5 19.3327V22.575C23.5 22.875 23.399 23.125 23.1972 23.325C22.9954 23.525 22.7431 23.625 22.4403 23.625ZM9.07305 12.4519L10.8577 10.7442C10.8897 10.7186 10.9106 10.6833 10.9202 10.6385C10.9298 10.5936 10.9282 10.5519 10.9154 10.5135L10.4807 8.27883C10.4679 8.22754 10.4455 8.18908 10.4135 8.16345C10.3814 8.1378 10.3397 8.12498 10.2885 8.12498H8.14997C8.11152 8.12498 8.07948 8.1378 8.05383 8.16345C8.02818 8.18908 8.01535 8.22113 8.01535 8.2596C8.06663 8.94293 8.17849 9.63717 8.35092 10.3423C8.52337 11.0474 8.76408 11.7506 9.07305 12.4519ZM17.773 21.0942C18.4359 21.4032 19.1272 21.6394 19.8471 21.8029C20.567 21.9663 21.2397 22.0634 21.8654 22.0942C21.9038 22.0942 21.9359 22.0814 21.9615 22.0558C21.9872 22.0301 22 21.998 22 21.9596V19.8558C22 19.8045 21.9872 19.7628 21.9615 19.7307C21.9359 19.6987 21.8974 19.6762 21.8461 19.6634L19.7461 19.2365C19.7077 19.2237 19.674 19.2221 19.6452 19.2317C19.6163 19.2413 19.5859 19.2622 19.5538 19.2942L17.773 21.0942Z" fill="#2F945A"/>
</svg>
