<svg width="25" height="24" viewBox="0 0 25 24" fill="none" xmlns="http://www.w3.org/2000/svg">
<path d="M12.2891 20.5C9.86223 20.5 7.83881 20.1573 6.21881 19.472C4.59898 18.7868 3.78906 17.9308 3.78906 16.9038V7C3.78906 6.03467 4.61856 5.21 6.27756 4.526C7.93656 3.842 9.9404 3.5 12.2891 3.5C14.6377 3.5 16.6416 3.842 18.3006 4.526C19.9596 5.21 20.7891 6.03467 20.7891 7V16.9038C20.7891 17.9308 19.9791 18.7868 18.3593 19.472C16.7393 20.1573 14.7159 20.5 12.2891 20.5ZM12.2891 8.95775C13.7467 8.95775 15.2144 8.75167 16.6921 8.3395C18.1696 7.92733 19.0256 7.48275 19.2603 7.00575C19.032 6.51608 18.1848 6.05933 16.7188 5.6355C15.2528 5.21183 13.7762 5 12.2891 5C10.8044 5 9.3329 5.20608 7.87456 5.61825C6.41623 6.03042 5.55756 6.48008 5.29856 6.96725C5.55123 7.46725 6.40348 7.924 7.85531 8.3375C9.30731 8.751 10.7852 8.95775 12.2891 8.95775ZM12.2891 13.9615C12.9827 13.9615 13.6577 13.9282 14.3141 13.8615C14.9704 13.7948 15.5976 13.6974 16.1958 13.5693C16.7938 13.4411 17.3537 13.2821 17.8756 13.0922C18.3974 12.9026 18.8686 12.6878 19.2891 12.448V8.9C18.8686 9.13967 18.3974 9.35442 17.8756 9.54425C17.3537 9.73392 16.7938 9.89283 16.1958 10.021C15.5976 10.1493 14.9704 10.2468 14.3141 10.3135C13.6577 10.3802 12.9827 10.4135 12.2891 10.4135C11.5827 10.4135 10.8946 10.3785 10.2246 10.3085C9.55473 10.2387 8.9224 10.1397 8.32756 10.0115C7.73273 9.88333 7.17856 9.726 6.66506 9.5395C6.15156 9.35283 5.6929 9.13967 5.28906 8.9V12.448C5.6929 12.6878 6.15156 12.901 6.66506 13.0875C7.17856 13.274 7.73273 13.4313 8.32756 13.5595C8.9224 13.6878 9.55473 13.7869 10.2246 13.8567C10.8946 13.9266 11.5827 13.9615 12.2891 13.9615ZM12.2891 19C13.1006 19 13.8974 18.9465 14.6796 18.8395C15.4616 18.7323 16.1731 18.5862 16.8141 18.401C17.4551 18.2157 17.9957 18.0006 18.4361 17.7557C18.8766 17.5109 19.1609 17.2538 19.2891 16.9845V13.948C18.8686 14.1878 18.3974 14.4026 17.8756 14.5922C17.3537 14.7821 16.7938 14.9411 16.1958 15.0693C15.5976 15.1974 14.9704 15.2948 14.3141 15.3615C13.6577 15.4282 12.9827 15.4615 12.2891 15.4615C11.5827 15.4615 10.8946 15.4266 10.2246 15.3567C9.55473 15.2869 8.9224 15.1878 8.32756 15.0595C7.73273 14.9313 7.17856 14.774 6.66506 14.5875C6.15156 14.401 5.6929 14.1878 5.28906 13.948V17C5.41723 17.2757 5.69898 17.5317 6.13431 17.7682C6.56948 18.0047 7.10756 18.2157 7.74856 18.401C8.38973 18.5862 9.1039 18.7323 9.89106 18.8395C10.6782 18.9465 11.4776 19 12.2891 19Z" fill="#2F945A"/>
<circle cx="8" cy="16.7148" r="5.25" fill="white" stroke="#2F945A" stroke-width="1.5"/>
</svg>
