<svg width="270" height="151" viewBox="0 0 270 151" fill="none" xmlns="http://www.w3.org/2000/svg">
<g clip-path="url(#clip0_12836_97645)">
<rect width="270" height="150" transform="translate(0 0.125)" fill="url(#paint0_linear_12836_97645)"/>
<path d="M155.153 135.316C154.69 134.546 153.763 134.344 153.081 134.867C152.399 135.389 152.221 136.436 152.683 137.206C153.145 137.977 154.073 138.178 154.755 137.656C155.437 137.134 155.615 136.086 155.153 135.316Z" fill="#263238" stroke="#263238" stroke-width="0.387357" stroke-linecap="round" stroke-linejoin="round"/>
<path d="M152.895 133.293L153.703 136.852L154.334 136.797L154.658 133.229L152.895 133.293Z" fill="#F4FCF8" stroke="#263238" stroke-width="0.387357" stroke-linecap="round" stroke-linejoin="round"/>
<path d="M146.379 135.316C145.917 134.546 144.989 134.344 144.307 134.867C143.625 135.389 143.447 136.436 143.909 137.206C144.372 137.977 145.299 138.178 145.981 137.656C146.663 137.134 146.842 136.086 146.379 135.316Z" fill="#263238" stroke="#263238" stroke-width="0.387357" stroke-linecap="round" stroke-linejoin="round"/>
<path d="M144.117 133.293L144.925 136.852L145.557 136.797L145.881 133.229L144.117 133.293Z" fill="#F4FCF8" stroke="#263238" stroke-width="0.387357" stroke-linecap="round" stroke-linejoin="round"/>
<path d="M155.351 93.8066L155.324 134.648" stroke="#263238" stroke-width="0.774715" stroke-linecap="round" stroke-linejoin="round"/>
<path d="M155.391 86.7969L155.348 93.8069" stroke="#263238" stroke-width="1.54943" stroke-linecap="round" stroke-linejoin="round"/>
<path d="M153.057 108.935L144.599 108.838C143.942 108.83 143.405 109.425 143.398 110.166L143.19 133.285C143.184 134.026 143.71 134.633 144.367 134.64L152.825 134.737C153.481 134.745 154.019 134.15 154.025 133.409L154.233 110.291C154.24 109.549 153.713 108.942 153.057 108.935Z" fill="#263238" stroke="#263238" stroke-width="0.387357" stroke-linecap="round" stroke-linejoin="round"/>
<path d="M141.935 133.343L144.366 133.399L144.546 113.448L141.575 113.387C140.728 113.377 140.034 114.145 140.026 115.101L139.883 130.979C139.871 132.272 140.79 133.33 141.935 133.343Z" fill="#263238" stroke="#263238" stroke-width="0.387357" stroke-linecap="round" stroke-linejoin="round"/>
<path d="M143.032 133.355L145.464 133.411L145.643 113.46L142.673 113.399C141.826 113.389 141.132 114.156 141.123 115.113L140.981 130.991C140.969 132.283 141.888 133.342 143.032 133.355Z" fill="#F4FCF8" stroke="#263238" stroke-width="0.387357" stroke-linecap="round" stroke-linejoin="round"/>
<path d="M154.315 108.948L145.856 108.852C145.2 108.844 144.663 109.439 144.656 110.18L144.448 133.298C144.441 134.039 144.968 134.646 145.625 134.654L154.083 134.751C154.739 134.758 155.277 134.164 155.283 133.422L155.491 110.304C155.498 109.563 154.971 108.956 154.315 108.948Z" fill="#F4FCF8" stroke="#263238" stroke-width="0.387357" stroke-linecap="round" stroke-linejoin="round"/>
<path d="M148.919 108.887L148.536 118.458C148.522 118.791 148.751 119.074 149.046 119.089L150.354 119.156C150.649 119.171 150.899 118.913 150.913 118.579L151.3 108.914L148.919 108.887Z" fill="#263238"/>
<path d="M146.907 122.35L152.799 122.527C153.372 122.544 153.826 123.084 153.81 123.732L153.644 130.785C153.629 131.433 153.151 131.945 152.577 131.928L146.685 131.751C146.112 131.734 145.658 131.194 145.673 130.546L145.84 123.492C145.855 122.844 146.333 122.332 146.907 122.35Z" fill="#263238" stroke="#263238" stroke-width="0.387357" stroke-linecap="round" stroke-linejoin="round"/>
<path d="M147.602 122.502L153.494 122.679C154.068 122.696 154.521 123.236 154.506 123.884L154.339 130.938C154.324 131.586 153.846 132.098 153.272 132.08L147.381 131.903C146.807 131.886 146.353 131.346 146.369 130.698L146.535 123.645C146.55 122.997 147.028 122.485 147.602 122.502Z" fill="#F4FCF8" stroke="#263238" stroke-width="0.387357" stroke-linecap="round" stroke-linejoin="round"/>
<path d="M123.28 51.524C123.28 51.524 122.946 54.4974 123.071 54.9222C123.196 55.3469 123.949 57.046 123.991 57.1876C124.032 57.3292 123.113 58.226 123.28 58.6507C123.447 59.0755 124.367 59.5947 124.367 59.5947C124.367 59.5947 126.623 62.5209 126.916 62.4737C127.209 62.4265 128.295 61.7658 128.295 61.7658L128.922 63.4177L135.149 60.4443L133.269 56.9517C133.269 56.9517 131.304 51.3352 129.465 49.5417C127.627 47.7482 124.032 49.4945 123.28 51.524Z" fill="#FFBE9D" stroke="#263238" stroke-width="0.387357" stroke-linecap="round" stroke-linejoin="round"/>
<path d="M126.914 62.4747L128.492 60.5586L128.293 61.7667L126.914 62.4747Z" fill="#263238" stroke="#263238" stroke-width="0.387357" stroke-linecap="round" stroke-linejoin="round"/>
<path d="M124.953 59.4088C124.953 59.4088 125.58 59.0784 125.329 58.1816" stroke="#263238" stroke-width="0.387357" stroke-linecap="round" stroke-linejoin="round"/>
<path d="M123.496 55.157C123.496 55.157 123.496 54.5434 124.123 54.8266" stroke="#263238" stroke-width="0.387357" stroke-linecap="round" stroke-linejoin="round"/>
<path d="M124.117 56.5293L124.619 57.5204" stroke="#263238" stroke-width="0.387357" stroke-linecap="round" stroke-linejoin="round"/>
<path d="M131.22 46.5212C129.758 45.4829 127.584 45.7188 126.539 46.5212C125.562 47.2719 123.89 49.1785 123.679 49.4212C123.68 49.4183 123.68 49.4136 123.681 49.4102C123.672 49.4218 123.665 49.4366 123.656 49.4475C123.656 49.4475 123.07 51.0917 123.28 51.5241C123.698 51.4769 125.035 50.533 124.951 51.0993C124.868 51.6657 124.324 52.6568 124.659 52.8456C124.993 53.0344 125.805 53.8747 125.805 53.8747C125.805 53.8747 125.954 54.7807 126.456 54.6864C126.957 54.592 127.334 53.6952 127.71 54.2615C128.086 54.8279 130.677 57.707 130.844 57.707C131.011 57.707 133.268 56.9518 133.268 56.9518C133.268 56.9518 133.435 54.0256 133.561 52.0905C133.686 50.1554 132.683 47.5596 131.22 46.5212Z" fill="#263238" stroke="#263238" stroke-width="0.387357" stroke-linecap="round" stroke-linejoin="round"/>
<path d="M126.707 55.5844C126.707 55.5844 126.372 52.8941 127.208 53.3661C128.044 53.8381 128.713 56.3395 128.504 56.9059C128.295 57.4723 127.793 57.0947 127.793 57.0947" fill="#FFBE9D"/>
<path d="M126.707 55.5844C126.707 55.5844 126.372 52.8941 127.208 53.3661C128.044 53.8381 128.713 56.3395 128.504 56.9059C128.295 57.4723 127.793 57.0947 127.793 57.0947" stroke="#263238" stroke-width="0.387357" stroke-linecap="round" stroke-linejoin="round"/>
<path d="M128.139 63.2034L127.223 66.1355C127.223 66.1355 130.023 64.4108 132.721 63.3759C135.419 62.3411 137.201 62.0536 137.201 62.0536L135.826 59.7539C135.826 59.7539 130.175 60.3863 128.139 63.2034Z" fill="#FFBE9D" stroke="#263238" stroke-width="0.387357" stroke-linecap="round" stroke-linejoin="round"/>
<path d="M113.793 70.0667L119.565 81.0046C119.608 81.0864 119.694 81.1268 119.776 81.1041L125.193 79.6013C125.317 79.5669 125.378 79.4078 125.314 79.2828L120.307 69.4717C120.271 69.401 120.203 69.3592 120.131 69.3636L113.947 69.7396C113.803 69.7484 113.719 69.9268 113.793 70.0667Z" fill="#263238" stroke="#263238" stroke-width="0.387357" stroke-linecap="round" stroke-linejoin="round"/>
<path d="M114.434 70.4964L119.628 80.3391L124.646 78.9472L120.156 70.1484L114.434 70.4964Z" fill="#878787" stroke="#263238" stroke-width="0.387357" stroke-linecap="round" stroke-linejoin="round"/>
<path d="M123.913 72.2871C123.913 72.2871 122.386 73.207 121.826 73.4944C121.266 73.7819 120.961 74.0119 121.317 74.3568C121.673 74.7018 122.895 73.8969 122.895 73.8969L123.863 73.4369L123.913 72.2871Z" fill="#FFBE9D" stroke="#263238" stroke-width="0.387357" stroke-linecap="round" stroke-linejoin="round"/>
<path d="M136.332 134.113L136.678 137.103C136.678 137.103 136.332 137.753 135.239 137.883C134.145 138.013 133.34 138.207 133.34 138.207L133.64 135.3L136.332 134.113Z" fill="#FFBE9D" stroke="#263238" stroke-width="0.387357" stroke-linecap="round" stroke-linejoin="round"/>
<path d="M136.678 137.101L136.628 136.668C135.598 137.12 134.352 137.266 133.433 137.305L133.34 138.206C133.34 138.206 134.146 138.011 135.239 137.881C136.332 137.751 136.678 137.101 136.678 137.101Z" fill="#FFBE9D" stroke="#263238" stroke-width="0.387357" stroke-linecap="round" stroke-linejoin="round"/>
<path d="M128.51 132.877L125.518 134.957C125.518 134.957 124.194 135.346 123.446 135.411C122.698 135.476 122.698 136.386 123.043 136.711C123.388 137.036 124.533 137.587 125.978 137.946C128.855 138.661 132.999 138.401 133.344 138.206C133.689 138.011 133.977 137.686 134.034 137.426C134.092 137.166 134.034 134.632 134.034 134.632C134.034 134.632 129.661 134.047 128.51 132.877Z" fill="#FFBE9D" stroke="#263238" stroke-width="0.387357" stroke-linecap="round" stroke-linejoin="round"/>
<path d="M125.574 137.102C123.887 136.524 123.194 136.052 122.917 135.734C122.741 136.047 122.819 136.502 123.042 136.712C123.387 137.037 124.532 137.588 125.977 137.947C128.854 138.662 132.998 138.402 133.343 138.207C133.666 138.024 133.936 137.729 134.017 137.479C132.092 137.664 127.982 137.928 125.574 137.102Z" fill="#FFBE9D" stroke="#263238" stroke-width="0.387357" stroke-linecap="round" stroke-linejoin="round"/>
<path d="M137.898 91.6836C137.898 91.6836 137.898 94.8881 136.952 96.609C136.007 98.3299 134.693 99.8728 134.693 100.11C134.693 100.348 133.432 111.444 133.432 112.038C133.432 112.631 133.379 114.352 133.695 115.242C134.01 116.132 135.218 121.77 135.954 126.814C136.69 131.858 136.374 133.104 136.374 133.104C136.374 133.104 136.69 133.994 136.69 134.232C136.69 134.469 136.532 135.122 136.532 135.122C136.532 135.122 135.691 135.419 134.903 135.419C134.115 135.419 133.642 135.3 133.642 135.3C133.642 135.3 133.589 134.35 133.747 133.876C133.905 133.401 133.8 132.095 133.8 131.799C133.8 131.502 131.803 116.132 131.803 114.946C131.803 113.759 131.75 101.178 131.75 101.178L131.277 92.4551C131.277 92.4551 134.01 92.3364 137.898 91.6836Z" fill="#2F945A" stroke="#263238" stroke-width="0.387357" stroke-linecap="round" stroke-linejoin="round"/>
<path d="M134.163 98.3872C134.163 98.3872 132.902 100.998 132.797 101.236C132.692 101.473 132.692 103.55 132.692 104.025C132.692 104.499 132.429 113.519 132.481 114.766C132.534 116.012 133.375 119.869 133.637 122.183C133.9 124.498 134.373 131.263 134.426 131.441C134.478 131.619 134.688 132.449 134.583 132.983C134.478 133.518 134.215 134.111 134.215 134.111C134.215 134.111 134.373 135.12 134.268 135.416C134.163 135.713 132.744 136.01 130.747 135.357C128.751 134.704 127.91 133.28 127.91 133.28C127.91 133.28 128.015 132.983 128.015 132.39C128.015 131.797 128.54 131.678 128.54 131.678L127.542 123.726C127.542 123.726 126.596 121.234 126.544 120.818C126.491 120.403 126.754 119.394 126.701 118.979C126.649 118.563 126.018 117.673 125.966 117.258C125.913 116.842 124.179 110.196 124.074 104.321C123.969 98.4465 124.165 92.9819 124.165 92.9819C124.165 92.9819 125.493 93.7585 129.591 93.4618C133.69 93.1651 135.319 93.1057 137.263 92.1562" fill="#2F945A"/>
<path d="M134.163 98.3872C134.163 98.3872 132.902 100.998 132.797 101.236C132.692 101.473 132.692 103.55 132.692 104.025C132.692 104.499 132.429 113.519 132.481 114.766C132.534 116.012 133.375 119.869 133.637 122.183C133.9 124.498 134.373 131.263 134.426 131.441C134.478 131.619 134.688 132.449 134.583 132.983C134.478 133.518 134.215 134.111 134.215 134.111C134.215 134.111 134.373 135.12 134.268 135.416C134.163 135.713 132.744 136.01 130.747 135.357C128.751 134.704 127.91 133.28 127.91 133.28C127.91 133.28 128.015 132.983 128.015 132.39C128.015 131.797 128.54 131.678 128.54 131.678L127.542 123.726C127.542 123.726 126.596 121.234 126.544 120.818C126.491 120.403 126.754 119.394 126.701 118.979C126.649 118.563 126.018 117.673 125.966 117.258C125.913 116.842 124.179 110.196 124.074 104.321C123.969 98.4465 124.165 92.9819 124.165 92.9819C124.165 92.9819 125.493 93.7585 129.591 93.4618C133.69 93.1651 135.319 93.1057 137.263 92.1562" stroke="#263238" stroke-width="0.387357" stroke-linecap="round" stroke-linejoin="round"/>
<path d="M129.84 128.014L130.176 131.968C130.176 131.968 129.716 132.293 129.888 132.942C130.061 133.592 130.176 133.982 130.176 133.982" stroke="#263238" stroke-width="0.387357" stroke-linecap="round" stroke-linejoin="round"/>
<path d="M126.824 108.191C126.864 108.479 126.907 108.758 126.954 109.027C127.874 114.356 128.91 118.386 128.968 118.581C129.025 118.775 128.277 119.49 128.565 119.88C128.853 120.27 129.198 120.465 129.198 120.465L129.727 126.683" stroke="#263238" stroke-width="0.387357" stroke-linecap="round" stroke-linejoin="round"/>
<path d="M126.49 94.5996C126.49 94.5996 126.155 101.214 126.627 106.466" stroke="#263238" stroke-width="0.387357" stroke-linecap="round" stroke-linejoin="round"/>
<path d="M125.169 94.4707C125.169 94.4707 124.997 96.8103 126.148 97.98" stroke="#263238" stroke-width="0.387357" stroke-linecap="round" stroke-linejoin="round"/>
<path d="M133.974 94.7949C132.651 95.4448 129.773 95.5098 129.773 95.5098L130.119 96.4846C130.119 96.4846 132.133 96.3546 132.938 96.0297" stroke="#263238" stroke-width="0.387357" stroke-linecap="round" stroke-linejoin="round"/>
<path d="M124.168 92.9839C124.168 92.9839 124.881 94.4787 130.43 94.1337C135.979 93.7888 138.117 92.7539 138.168 92.2365C138.219 91.7191 138.066 90.5117 138.066 90.5117C138.066 90.5117 127.579 91.3741 124.168 92.9839Z" fill="#C2C2C2" stroke="#263238" stroke-width="0.387357" stroke-linecap="round" stroke-linejoin="round"/>
<path d="M127.225 66.1347C127.225 66.1347 124.12 67.7445 124.069 68.2619C124.018 68.7793 122.389 82.6924 122.389 82.6924L119.945 79.4728C119.945 79.4728 119.996 78.323 119.843 77.863C119.69 77.4031 119.64 77.0582 119.283 76.8857C118.927 76.7132 117.756 76.3683 117.45 76.0808C117.145 75.7933 116.28 74.8735 116.076 75.2184C115.872 75.5634 115.465 76.1383 115.567 76.5407C115.669 76.9432 116.076 77.7481 116.076 77.978C116.076 78.208 116.076 79.9328 116.738 80.7377C117.4 81.5425 118.367 81.8875 118.367 81.8875C118.367 81.8875 119.945 86.6018 120.505 87.5217C121.065 88.4416 123.407 90.5688 123.407 90.5688C123.407 90.5688 122.847 92.0636 123 92.1786C123.152 92.2935 123.865 93.5008 124.069 93.5008C124.272 93.5008 130.381 92.351 130.84 92.2935C131.298 92.2361 135.88 92.2935 136.236 92.1211C136.592 91.9486 137.763 91.3737 138.018 91.1437C138.272 90.9137 138.679 90.5113 138.476 89.5914C138.272 88.6715 138.069 82.1749 138.069 81.6C138.069 81.0251 139.325 76.5402 139.545 74.701C140.336 68.0746 140.249 67.6854 140.266 66.8214C140.307 64.7817 138.875 63.7251 138.671 63.6101C138.467 63.4951 137.203 62.0527 137.203 62.0527C137.203 62.0527 132.672 62.4552 127.225 66.1347Z" fill="#C2C2C2" stroke="#263238" stroke-width="0.387357" stroke-linecap="round" stroke-linejoin="round"/>
<path d="M123.406 90.5682C123.406 90.5682 125.188 90.2232 125.494 89.9358C125.799 89.6483 128.497 80.737 128.599 80.2196C128.701 79.7022 128.854 73.4355 128.854 73.4355" stroke="#263238" stroke-width="0.387357" stroke-linecap="round" stroke-linejoin="round"/>
<path d="M128.801 77.3449L129.666 73.8379" stroke="#263238" stroke-width="0.387357" stroke-linecap="round" stroke-linejoin="round"/>
<path d="M122.183 86.1409C122.03 85.1636 122.386 82.6914 122.386 82.6914C122.386 82.6914 122.743 85.1061 123.404 86.0834" stroke="#263238" stroke-width="0.387357" stroke-linecap="round" stroke-linejoin="round"/>
<path d="M119.945 79.4713C119.945 79.4713 119.996 78.3215 119.843 77.8615C119.69 77.4016 119.64 77.0567 119.283 76.8842C118.927 76.7117 117.756 76.3668 117.45 76.0793C117.145 75.7919 116.28 74.872 116.076 75.2169C115.872 75.5618 115.465 76.1368 115.567 76.5393C115.669 76.9417 116.076 77.7466 116.076 77.9766C116.076 78.2065 116.076 79.9313 116.738 80.7362C117.4 81.5411 118.367 81.886 118.367 81.886C118.367 81.886 118.455 82.15 118.597 82.5624C118.907 81.716 119.536 80.6753 120.766 80.5534L119.945 79.4713Z" fill="#FFBE9D" stroke="#263238" stroke-width="0.387357" stroke-linecap="round" stroke-linejoin="round"/>
<path d="M119.125 83.6685C119.125 83.6685 119.481 82.2312 120.958 81.6562" stroke="#263238" stroke-width="0.387357" stroke-linecap="round" stroke-linejoin="round"/>
<path d="M130.836 92.2911L135.978 90.5664" stroke="#263238" stroke-width="0.387357" stroke-linecap="round" stroke-linejoin="round"/>
<path d="M136.94 77.0391C136.94 77.0391 133.686 81.0124 131.047 83.1977" stroke="#263238" stroke-width="0.387357" stroke-linecap="round" stroke-linejoin="round"/>
<path d="M135.276 80.0215C135.276 80.0215 132.813 82.8028 131.758 83.6969" stroke="#263238" stroke-width="0.387357" stroke-linecap="round" stroke-linejoin="round"/>
<path d="M137.203 62.0527C137.203 62.0527 139.612 65.6083 139.724 66.6899C139.837 67.7716 139.95 68.4078 139.95 68.4078L141.358 67.2625C141.358 67.2625 140.682 64.5266 139.893 63.6358C139.104 62.745 137.203 62.0527 137.203 62.0527Z" fill="#263238" stroke="#263238" stroke-width="0.387357" stroke-linecap="round" stroke-linejoin="round"/>
<path d="M141.189 66.0235C141.189 66.0235 139.179 65.91 137.872 67.0449C136.566 68.1798 135.963 71.925 135.662 73.9678C135.36 76.0106 135.059 85.2032 135.059 86.6786C135.059 88.1539 136.265 88.8349 136.767 89.0619C137.269 89.2888 140.184 88.4944 140.586 88.3809C140.988 88.2674 143.902 88.2675 144.706 86.2246C145.51 84.1818 145.611 80.5502 145.51 79.1883C145.41 77.8264 144.505 75.7836 144.505 75.7836C144.505 75.7836 144.706 70.4496 144.304 68.6337C143.902 66.8179 142.093 65.7965 141.189 66.0235Z" fill="#263238" stroke="#263238" stroke-width="0.387357" stroke-linecap="round" stroke-linejoin="round"/>
<path d="M144.504 75.7832C144.504 75.7832 137.183 77.6126 137.354 78.3867C137.525 79.1609 137.268 80.8059 137.354 81.0962C137.44 81.3865 145.509 79.1879 145.509 79.1879C145.509 79.1879 145.313 76.1795 144.504 75.7832Z" fill="#878787" stroke="#878787" stroke-width="0.387357" stroke-linecap="round" stroke-linejoin="round"/>
<path d="M143.442 67.2598C143.442 67.2598 139.758 67.5501 138.558 68.808C137.358 70.066 137.083 74.7012 137.016 75.872" stroke="#878787" stroke-width="0.387357" stroke-linecap="round" stroke-linejoin="round"/>
<path d="M137.353 82.5488C137.353 82.5488 137.095 86.7098 137.353 87.6774C137.61 88.6451 141.655 88.1619 143.179 87.1936" stroke="#878787" stroke-width="0.387357" stroke-linecap="round" stroke-linejoin="round"/>
<path d="M145.36 34.2309L142.48 41.8004L143.696 41.7069L147.791 35.2589L146.704 33.7637L145.36 34.2309Z" fill="#263238" stroke="#263238" stroke-width="0.387357" stroke-linecap="round" stroke-linejoin="round"/>
<path d="M183.942 21.8015L181.031 21.5083C180.501 21.4549 179.968 21.52 179.451 21.7013L149.326 32.2679L143.183 29.0906L141.52 29.8382L146.83 35.819L154.189 35.2583L181.753 26.2137C182.735 25.8917 183.666 25.3043 184.5 24.4818L185.235 23.7562C185.459 23.535 185.569 23.1371 185.512 22.7508C185.453 22.3498 185.228 22.0464 184.95 21.9934L183.942 21.8015Z" fill="white" stroke="#263238" stroke-width="0.387357" stroke-linecap="round" stroke-linejoin="round"/>
<path d="M152.784 35.3665C154.126 33.5893 156.038 31.1804 157.897 29.2626L149.326 32.2691L143.183 29.0918L141.52 29.8394L146.83 35.8202L152.784 35.3665Z" fill="white" stroke="#263238" stroke-width="0.387357" stroke-linecap="round" stroke-linejoin="round"/>
<path d="M145.359 34.2308L144.016 27.0352H145.231L148.303 33.9504L145.359 34.2308Z" fill="#263238" stroke="#263238" stroke-width="0.387357" stroke-linecap="round" stroke-linejoin="round"/>
<path d="M145.362 34.2324L144.172 34.3977L144.263 35.4263L146.834 35.8211L145.362 34.2324Z" fill="white" stroke="#263238" stroke-width="0.387357" stroke-linecap="round" stroke-linejoin="round"/>
<path d="M163.501 29.3018L163.145 24.5602L159.543 8.12695L161.811 9.36107L170.573 27.2883L163.501 29.3018Z" fill="#263238" stroke="#263238" stroke-width="0.387357" stroke-linecap="round" stroke-linejoin="round"/>
<path d="M165.995 18.4811C165.667 18.1116 165.566 16.7986 165.831 16.3324C166.216 15.6543 168.049 15.4112 168.577 15.8845C168.939 16.2099 169.046 17.599 168.741 18.0332C168.298 18.6649 166.473 19.0184 165.995 18.4811Z" fill="white" stroke="#263238" stroke-width="0.387357" stroke-linecap="round" stroke-linejoin="round"/>
<path d="M165.688 16.5742L164.293 17.1354L164.495 18.3168H165.81C165.81 18.3168 165.628 17.4898 165.688 16.5742Z" fill="white" stroke="#263238" stroke-width="0.387357" stroke-linecap="round" stroke-linejoin="round"/>
<path d="M169.273 24.3287C168.944 23.9593 168.844 22.6462 169.108 22.18C169.493 21.5019 171.326 21.2588 171.854 21.7322C172.217 22.0576 172.323 23.4466 172.018 23.8809C171.575 24.5125 169.75 24.8661 169.273 24.3287Z" fill="white" stroke="#263238" stroke-width="0.387357" stroke-linecap="round" stroke-linejoin="round"/>
<path d="M168.962 22.4238L167.566 22.985L167.769 24.1664H169.083C169.083 24.1664 168.901 23.3394 168.962 22.4238Z" fill="white" stroke="#263238" stroke-width="0.387357" stroke-linecap="round" stroke-linejoin="round"/>
<path d="M159.93 33.4939L162.987 34.0592L155.053 48.6986L154.086 48.8682L156.215 49.2073L169.876 30.9504L171.424 29.6504L159.93 33.4939Z" fill="#263238" stroke="#263238" stroke-width="0.387357" stroke-linecap="round" stroke-linejoin="round"/>
<path d="M167.093 36.8698C166.764 36.5003 166.664 35.1872 166.929 34.721C167.313 34.0429 169.147 33.7998 169.674 34.2732C170.037 34.5986 170.143 35.9876 169.839 36.4219C169.395 37.0536 167.571 37.4071 167.093 36.8698Z" fill="white" stroke="#263238" stroke-width="0.387357" stroke-linecap="round" stroke-linejoin="round"/>
<path d="M166.782 34.9629L165.387 35.5241L165.589 36.7055H166.903C166.903 36.7055 166.721 35.8785 166.782 34.9629Z" fill="white" stroke="#263238" stroke-width="0.387357" stroke-linecap="round" stroke-linejoin="round"/>
<path d="M161.558 43.7096C161.229 43.3402 161.129 42.0271 161.393 41.5609C161.778 40.8828 163.612 40.6397 164.139 41.113C164.502 41.4384 164.608 42.8274 164.303 43.2617C163.86 43.8934 162.036 44.247 161.558 43.7096Z" fill="white" stroke="#263238" stroke-width="0.387357" stroke-linecap="round" stroke-linejoin="round"/>
<path d="M161.251 41.8027L159.855 42.3639L160.058 43.5453H161.372C161.372 43.5453 161.19 42.7183 161.251 41.8027Z" fill="white" stroke="#263238" stroke-width="0.387357" stroke-linecap="round" stroke-linejoin="round"/>
<path d="M146.825 36.207C146.825 36.207 75.1746 48.5224 40.217 68.5604C5.25942 88.5985 66.7 75.6973 66.7 75.6973" stroke="#263238" stroke-width="0.387357" stroke-linecap="round" stroke-linejoin="round"/>
<path d="M71.6312 122.447C71.6312 122.447 70.7063 132.295 70.5742 132.668C70.4421 133.041 67.9979 133.041 67.8658 134.16C67.7336 135.279 68.13 135.726 68.5264 135.95C68.9227 136.174 70.4421 136.995 70.9045 137.144C71.3669 137.293 72.6221 137.442 72.9524 136.771C73.2827 136.099 73.0184 133.712 73.0184 133.712L75.3966 122.596L71.6312 122.447Z" fill="#FFBE9D" stroke="#263238" stroke-width="0.387357" stroke-linecap="round" stroke-linejoin="round"/>
<path d="M83.2254 120.684C83.2254 120.684 82.8032 132.714 82.539 133.908C82.2747 135.101 82.2087 135.997 82.4729 136.668C82.7371 137.339 83.728 137.339 84.1244 137.19C84.5208 137.041 87.1631 135.624 87.4274 135.176C87.6916 134.728 86.8989 134.281 86.5686 134.132C86.2383 133.982 85.1813 132.863 85.1153 132.639C85.0492 132.416 86.5284 122.474 86.5284 122.474L83.2254 120.684Z" fill="#FFBE9D" stroke="#263238" stroke-width="0.387357" stroke-linecap="round" stroke-linejoin="round"/>
<path d="M84.1244 137.19C84.5208 137.04 87.1632 135.623 87.4274 135.175C87.6916 134.728 86.8989 134.28 86.5686 134.131C86.2383 133.982 85.1814 132.863 85.1153 132.639C85.0989 132.583 85.2451 131.945 85.4739 131.017L82.7319 130.908C82.5251 132.388 82.6122 133.577 82.539 133.907C82.2747 135.101 82.2087 135.996 82.4729 136.667C82.7372 137.339 83.7281 137.339 84.1244 137.19Z" fill="#74B790" stroke="#263238" stroke-width="0.387357" stroke-linecap="round" stroke-linejoin="round"/>
<path d="M70.9234 129.693C70.7597 131.284 70.6198 132.54 70.5742 132.669C70.4421 133.042 67.9979 133.042 67.8658 134.161C67.7336 135.28 68.13 135.727 68.5264 135.951C68.9227 136.175 70.4421 136.995 70.9045 137.145C71.3669 137.294 72.6221 137.443 72.9524 136.772C73.2826 136.1 73.0184 133.713 73.0184 133.713L73.824 129.948L70.9234 129.693Z" fill="#74B790" stroke="#263238" stroke-width="0.387357" stroke-linecap="round" stroke-linejoin="round"/>
<path d="M73.0529 136.417C72.5272 136.534 71.7039 136.611 70.9029 136.249C69.9919 135.838 68.6103 135.036 67.8398 134.578C67.8413 135.395 68.1822 135.757 68.5247 135.951C68.9211 136.175 70.4405 136.995 70.9029 137.144C71.3653 137.294 72.6204 137.443 72.9507 136.771C72.995 136.681 73.0279 136.559 73.0529 136.417Z" fill="#74B790" stroke="#263238" stroke-width="0.387357" stroke-linecap="round" stroke-linejoin="round"/>
<path d="M87.4327 135.174C87.59 134.907 87.3722 134.641 87.1008 134.438C86.3366 135.046 85.1175 135.996 84.5921 136.293C84.048 136.6 83.0064 136.52 82.4062 136.44C82.4271 136.518 82.4498 136.594 82.4782 136.666C82.7424 137.337 83.7333 137.337 84.1297 137.188C84.526 137.039 87.1684 135.621 87.4327 135.174Z" fill="#74B790" stroke="#263238" stroke-width="0.387357" stroke-linecap="round" stroke-linejoin="round"/>
<path d="M75.6675 87.6829C75.6675 87.6829 74.8748 89.6972 74.4784 95.6653C74.082 101.633 73.8178 108.721 73.1572 111.63C72.4966 114.54 71.1094 122.447 71.1094 122.447L75.8657 123.417L78.1777 111.854L83.5286 92.2336L82.3101 124.229L86.8682 124.677L89.9364 102.379C89.9364 102.379 92.1163 93.5018 92.1824 90.4432C92.2485 87.3845 91.4558 86.5639 91.4558 86.5639L83.5286 84.7734L75.6675 87.6829Z" fill="#263238" stroke="#263238" stroke-width="0.387357" stroke-linecap="round" stroke-linejoin="round"/>
<path d="M76.1262 85.7199L75.668 87.6815C75.668 87.6815 81.8115 86.637 84.4539 86.4132C87.0963 86.1894 91.7865 87.1592 91.7865 87.1592L90.8382 84.7426C90.8382 84.7426 87.9551 83.8768 84.7181 83.8022C81.4812 83.7276 78.8388 84.2498 78.3104 84.399C77.7819 84.5482 76.1262 85.7199 76.1262 85.7199Z" fill="white" stroke="#263238" stroke-width="0.387357" stroke-linecap="round" stroke-linejoin="round"/>
<path d="M77.3747 60.4199C77.3747 60.4199 72.4707 63.0261 71.4129 64.9807C70.3552 66.9354 65.7396 78.4461 66.1243 79.532C66.5089 80.6179 68.7205 83.007 68.7205 83.007L71.2206 81.2695L70.5475 78.0118L73.7207 70.4103C73.7207 70.4103 75.3554 78.9891 75.4515 79.9664C75.5477 80.9437 74.9707 83.8757 75.2592 84.7444C75.5477 85.6132 75.8362 85.8303 76.1246 85.7217C76.4131 85.6132 80.4517 84.3101 82.1826 84.3101C83.9134 84.3101 90.2598 85.5046 90.8367 84.7444C91.4137 83.9843 91.029 83.3327 90.8367 83.007C90.6444 82.6812 88.2405 73.0166 88.2405 73.0166C88.2405 73.0166 89.4905 64.7636 88.9135 63.8948C88.3366 63.0261 82.9518 60.7457 82.9518 60.7457L77.3747 60.4199Z" fill="white" stroke="#263238" stroke-width="0.387357" stroke-linecap="round" stroke-linejoin="round"/>
<path d="M79.9922 80.6681L85.2015 78.4922" stroke="#263238" stroke-width="0.387357" stroke-linecap="round" stroke-linejoin="round"/>
<path d="M78.2734 81.3881L79.3241 80.9492" stroke="#263238" stroke-width="0.387357" stroke-linecap="round" stroke-linejoin="round"/>
<path d="M77.1328 80.8507L80.3609 79.3496" stroke="#263238" stroke-width="0.387357" stroke-linecap="round" stroke-linejoin="round"/>
<path d="M72.0938 66.8438L73.7183 70.4106L72.146 68.7922" stroke="#263238" stroke-width="0.387357" stroke-linecap="round" stroke-linejoin="round"/>
<path d="M88.9147 63.8945L93.1457 79.0974L95.165 80.9434L93.1457 83.8754C93.1457 83.8754 89.8763 80.8348 89.3955 80.2919C88.9147 79.7489 86.7031 71.2788 86.7031 71.2788" fill="white"/>
<path d="M88.9147 63.8945L93.1457 79.0974L95.165 80.9434L93.1457 83.8754C93.1457 83.8754 89.8763 80.8348 89.3955 80.2919C88.9147 79.7489 86.7031 71.2788 86.7031 71.2788" stroke="#263238" stroke-width="0.387357" stroke-linecap="round" stroke-linejoin="round"/>
<path d="M104.008 87.906V85.668H97.4023V87.6822" stroke="#263238" stroke-width="1.16207" stroke-miterlimit="10"/>
<path d="M97.4023 87.6836V108.274H104.008V87.9074" stroke="#263238" stroke-width="0.774715" stroke-miterlimit="10"/>
<path d="M95.1638 80.9453L100.54 83.415C100.54 83.415 101.484 83.8027 101.656 83.948C101.827 84.0934 102.342 84.6265 102.342 84.6265H101.87C101.87 84.6265 103.072 86.4197 102.943 86.6136C102.814 86.8074 102.9 86.9044 102.514 86.9044C102.128 86.9044 101.784 86.662 101.784 86.662C101.784 86.662 101.098 86.8074 100.497 86.6136C99.8962 86.4197 98.48 84.8689 98.48 84.8689L93.1445 83.8773L95.1638 80.9453Z" fill="#FFBE9D" stroke="#263238" stroke-width="0.387357" stroke-linecap="round" stroke-linejoin="round"/>
<path d="M96.1013 132.295H95.5956C95.4349 132.295 95.3047 132.442 95.3047 132.623V134.679C95.3047 134.86 95.4349 135.007 95.5956 135.007H96.1013C96.262 135.007 96.3922 134.86 96.3922 134.679V132.623C96.3922 132.442 96.262 132.295 96.1013 132.295Z" fill="#263238" stroke="#263238" stroke-width="0.387357" stroke-linecap="round" stroke-linejoin="round"/>
<path d="M96.416 130.84H95.293V133.824H96.416V130.84Z" fill="#74B790" stroke="#263238" stroke-width="0.387357" stroke-linecap="round" stroke-linejoin="round"/>
<path d="M105.621 135.006H106.127C106.288 135.006 106.418 134.859 106.418 134.677V132.622C106.418 132.441 106.288 132.294 106.127 132.294H105.621C105.461 132.294 105.33 132.441 105.33 132.622V134.677C105.33 134.859 105.461 135.006 105.621 135.006Z" fill="#263238" stroke="#263238" stroke-width="0.387357" stroke-linecap="round" stroke-linejoin="round"/>
<path d="M105.275 133.787H106.398V130.803H105.275V133.787Z" fill="#74B790" stroke="#263238" stroke-width="0.387357" stroke-linecap="round" stroke-linejoin="round"/>
<path d="M105.355 107.826H96.2488C94.9507 107.826 93.8984 109.015 93.8984 110.48V129.194C93.8984 130.66 94.9507 131.848 96.2488 131.848H105.355C106.653 131.848 107.705 130.66 107.705 129.194V110.48C107.705 109.015 106.653 107.826 105.355 107.826Z" fill="#C2C2C2" stroke="#263238" stroke-width="0.387357" stroke-linecap="round" stroke-linejoin="round"/>
<path d="M105.122 109.438H96.4817C95.055 109.438 93.8984 110.744 93.8984 112.355V128.93C93.8984 130.541 95.055 131.847 96.4817 131.847H105.122C106.548 131.847 107.705 130.541 107.705 128.93V112.355C107.705 110.744 106.548 109.438 105.122 109.438Z" fill="#FD7E50" stroke="#263238" stroke-width="0.387357" stroke-linecap="round" stroke-linejoin="round"/>
<path d="M95.6328 112.74V128.535" stroke="#263238" stroke-width="0.387357" stroke-linecap="round" stroke-linejoin="round"/>
<path d="M98.2227 112.74V128.535" stroke="#263238" stroke-width="0.387357" stroke-linecap="round" stroke-linejoin="round"/>
<path d="M100.801 112.74V128.535" stroke="#263238" stroke-width="0.387357" stroke-linecap="round" stroke-linejoin="round"/>
<path d="M103.383 112.74V128.535" stroke="#263238" stroke-width="0.387357" stroke-linecap="round" stroke-linejoin="round"/>
<path d="M105.965 112.74V128.535" stroke="#263238" stroke-width="0.387357" stroke-linecap="round" stroke-linejoin="round"/>
<path d="M71.2228 81.2676L74.6537 87.6038L75.4452 88.0011L74.9615 90.4842C74.9615 90.4842 73.3784 89.5903 73.1585 89.0937C72.9386 88.5971 68.7227 83.005 68.7227 83.005L71.2228 81.2676Z" fill="#FFBE9D" stroke="#263238" stroke-width="0.387357" stroke-linecap="round" stroke-linejoin="round"/>
<path d="M76.6557 59.5552L74.8125 71.3503C74.8125 71.3503 77.0243 74.6807 80.7106 74.6807C84.3969 74.6807 86.24 72.5992 86.24 72.5992L84.6426 58.7227C84.6426 58.7227 85 52.625 80.5 52.625C76 52.625 76.6557 59.5552 76.6557 59.5552Z" fill="#263238" stroke="#263238" stroke-width="0.387357" stroke-linecap="round" stroke-linejoin="round"/>
</g>
<defs>
<linearGradient id="paint0_linear_12836_97645" x1="135" y1="0" x2="135" y2="150" gradientUnits="userSpaceOnUse">
<stop stop-color="#FFFDF3"/>
<stop offset="1" stop-color="white" stop-opacity="0.4"/>
</linearGradient>
<clipPath id="clip0_12836_97645">
<rect width="270" height="150" fill="white" transform="translate(0 0.125)"/>
</clipPath>
</defs>
</svg>
