<svg width="24" height="24" viewBox="0 0 24 24" fill="none" xmlns="http://www.w3.org/2000/svg">
<path d="M7.2306 20.5C6.73344 20.5 6.30785 20.323 5.95385 19.969C5.59985 19.615 5.42285 19.1894 5.42285 18.6923V8C5.42285 7.50283 5.59985 7.07725 5.95385 6.72325C6.30785 6.36925 6.73344 6.19225 7.2306 6.19225H9.3076V4.30775C9.3076 3.81058 9.4846 3.385 9.8386 3.031C10.1926 2.677 10.6182 2.5 11.1154 2.5H12.8844C13.3815 2.5 13.8071 2.677 14.1611 3.031C14.5151 3.385 14.6921 3.81058 14.6921 4.30775V6.19225H16.7691C17.2663 6.19225 17.6919 6.36925 18.0459 6.72325C18.3999 7.07725 18.5769 7.50283 18.5769 8V18.6923C18.5769 19.1894 18.3999 19.615 18.0459 19.969C17.6919 20.323 17.2663 20.5 16.7691 20.5V20.6152C16.7691 20.8602 16.6829 21.0689 16.5104 21.2413C16.338 21.4138 16.1294 21.5 15.8844 21.5C15.6395 21.5 15.4309 21.4138 15.2586 21.2413C15.0861 21.0689 14.9999 20.8602 14.9999 20.6152V20.5H8.99985V20.6152C8.99985 20.8602 8.9136 21.0689 8.7411 21.2413C8.56877 21.4138 8.36018 21.5 8.11535 21.5C7.87035 21.5 7.66168 21.4138 7.48935 21.2413C7.31685 21.0689 7.2306 20.8602 7.2306 20.6152V20.5ZM7.2306 19H16.7691C16.8588 19 16.9325 18.9712 16.9904 18.9135C17.048 18.8558 17.0769 18.7821 17.0769 18.6923V8C17.0769 7.91017 17.048 7.83642 16.9904 7.77875C16.9325 7.72108 16.8588 7.69225 16.7691 7.69225H7.2306C7.14094 7.69225 7.06719 7.72108 7.00935 7.77875C6.95169 7.83642 6.92285 7.91017 6.92285 8V18.6923C6.92285 18.7821 6.95169 18.8558 7.00935 18.9135C7.06719 18.9712 7.14094 19 7.2306 19ZM9.3076 17.6152H10.8076V9.077H9.3076V17.6152ZM13.1921 17.6152H14.6921V9.077H13.1921V17.6152ZM10.8076 6.19225H13.1921V4.30775C13.1921 4.21792 13.1633 4.14417 13.1056 4.0865C13.0479 4.02883 12.9742 4 12.8844 4H11.1154C11.0255 4 10.9518 4.02883 10.8941 4.0865C10.8364 4.14417 10.8076 4.21792 10.8076 4.30775V6.19225Z" fill="white"/>
</svg>
