<svg width="30" height="31" viewBox="0 0 30 31" fill="none" xmlns="http://www.w3.org/2000/svg">
<rect y="0.125" width="30" height="30" rx="6.25" fill="#EAF4EF"/>
<path d="M10.1086 20.033L7.37974 18.5177L7.98552 17.9215L10.3836 18.2715L14.7893 13.8561L7.05859 9.65422L7.86244 8.84077L17.3605 11.2946L20.0893 8.53117C20.3009 8.31963 20.5486 8.21387 20.8326 8.21387C21.1165 8.21387 21.3643 8.31963 21.5758 8.53117C21.7874 8.74912 21.8931 9.00168 21.8931 9.28884C21.8931 9.57603 21.7874 9.82538 21.5758 10.0369L18.8662 12.7907L21.3008 22.2792L20.497 23.0926L16.2855 15.3619L11.8989 19.758L12.2393 22.1561L11.624 22.7715L10.1086 20.033Z" fill="#2F945A"/>
</svg>
