<svg width="24" height="24" viewBox="0 0 24 24" fill="none" xmlns="http://www.w3.org/2000/svg">
<path d="M7.10859 16.9077L4.37974 15.3923L4.98552 14.7962L7.38359 15.1462L11.7893 10.7308L4.05859 6.52885L4.86244 5.7154L14.3605 8.16925L17.0893 5.4058C17.3009 5.19427 17.5486 5.0885 17.8326 5.0885C18.1165 5.0885 18.3643 5.19427 18.5758 5.4058C18.7874 5.62375 18.8931 5.87631 18.8931 6.16348C18.8931 6.45066 18.7874 6.70002 18.5758 6.91155L15.8662 9.66538L18.3008 19.1538L17.497 19.9673L13.2855 12.2365L8.89894 16.6327L9.23934 19.0308L8.62397 19.6461L7.10859 16.9077Z" fill="#4A4E69"/>
</svg>
