<svg width="24" height="25" viewBox="0 0 24 25" fill="none" xmlns="http://www.w3.org/2000/svg">
<path d="M11.25 16.2885V7.88843L8.78462 10.3538L7.7308 9.26923L12 5.00003L16.2692 9.26923L15.2153 10.3538L12.7499 7.88843V16.2885H11.25ZM6.3077 20C5.80257 20 5.375 19.825 5.025 19.475C4.675 19.125 4.5 18.6974 4.5 18.1923V15.4808H5.99997V18.1923C5.99997 18.2692 6.03202 18.3397 6.09612 18.4039C6.16024 18.468 6.23077 18.5 6.3077 18.5H17.6922C17.7692 18.5 17.8397 18.468 17.9038 18.4039C17.9679 18.3397 18 18.2692 18 18.1923V15.4808H19.5V18.1923C19.5 18.6974 19.325 19.125 18.975 19.475C18.625 19.825 18.1974 20 17.6922 20H6.3077Z" fill="#2F945A"/>
</svg>
