<svg width="20" height="19" viewBox="0 0 20 19" fill="none" xmlns="http://www.w3.org/2000/svg">
<path d="M10.0016 19C8.68772 19 7.45268 18.7506 6.29655 18.252C5.1404 17.7533 4.13472 17.0766 3.2795 16.2217C2.42427 15.3669 1.74721 14.3616 1.24833 13.206C0.749442 12.0504 0.5 10.8156 0.5 9.50167C0.5 8.18774 0.749375 6.95271 1.24812 5.79657C1.74688 4.64042 2.42375 3.63474 3.27875 2.77952C4.13375 1.92429 5.13917 1.24723 6.295 0.748349C7.45082 0.249466 8.68581 2.28882e-05 9.99998 2.28882e-05C11.0534 2.28882e-05 12.0501 0.158356 12.99 0.475023C13.93 0.79169 14.7923 1.23336 15.5769 1.80002L14.4923 2.90962C13.8462 2.46476 13.1462 2.1186 12.3925 1.87115C11.6388 1.62372 10.8413 1.5 9.99998 1.5C7.78331 1.5 5.89581 2.27917 4.33748 3.8375C2.77914 5.39583 1.99998 7.28333 1.99998 9.5C1.99998 11.7167 2.77914 13.6042 4.33748 15.1625C5.89581 16.7208 7.78331 17.5 9.99998 17.5C12.2166 17.5 14.1041 16.7208 15.6625 15.1625C17.2208 13.6042 18 11.7167 18 9.5C18 9.14872 17.9769 8.8013 17.9308 8.45775C17.8846 8.11422 17.8154 7.78022 17.7231 7.45575L18.9346 6.23462C19.1179 6.74872 19.258 7.27758 19.3548 7.8212C19.4516 8.36482 19.5 8.92442 19.5 9.5C19.5 10.8142 19.2506 12.0492 18.752 13.205C18.2533 14.3608 17.5765 15.3662 16.7217 16.2212C15.8669 17.0762 14.8616 17.7531 13.706 18.2519C12.5504 18.7506 11.3156 19 10.0016 19ZM8.58075 13.7538L4.67693 9.85L5.73075 8.79617L8.58075 11.6462L18.4461 1.76542L19.5 2.81925L8.58075 13.7538Z" fill="#2F945A"/>
</svg>
