<svg width="41" height="40" viewBox="0 0 41 40" fill="none" xmlns="http://www.w3.org/2000/svg">
<path d="M8.06858 32.5C7.23747 32.5 6.52747 32.2057 5.93858 31.6171C5.34997 31.0282 5.05566 30.3182 5.05566 29.4871V24.92C5.05566 24.6464 5.13428 24.4039 5.2915 24.1925C5.44844 23.9808 5.6583 23.8365 5.92108 23.7596C6.65191 23.4199 7.24594 22.9156 7.70316 22.2467C8.16039 21.5781 8.389 20.8292 8.389 20C8.389 19.1708 8.16039 18.4219 7.70316 17.7533C7.24594 17.0844 6.65191 16.5801 5.92108 16.2404C5.6583 16.1635 5.44844 16.0192 5.2915 15.8075C5.13428 15.5961 5.05566 15.3536 5.05566 15.08V10.5129C5.05566 9.68181 5.34997 8.97181 5.93858 8.38292C6.52747 7.79431 7.23747 7.5 8.06858 7.5H33.7094C34.5405 7.5 35.2505 7.79431 35.8394 8.38292C36.428 8.97181 36.7223 9.68181 36.7223 10.5129V15.08C36.7223 15.3536 36.6437 15.5961 36.4865 15.8075C36.3296 16.0192 36.1197 16.1635 35.8569 16.2404C35.1261 16.5801 34.5321 17.0844 34.0748 17.7533C33.6176 18.4219 33.389 19.1708 33.389 20C33.389 20.8292 33.6176 21.5781 34.0748 22.2467C34.5321 22.9156 35.1261 23.4199 35.8569 23.7596C36.1197 23.8365 36.3296 23.9808 36.4865 24.1925C36.6437 24.4039 36.7223 24.6464 36.7223 24.92V29.4871C36.7223 30.3182 36.428 31.0282 35.8394 31.6171C35.2505 32.2057 34.5405 32.5 33.7094 32.5H8.06858ZM8.06858 30H33.7094C33.8591 30 33.9821 29.9519 34.0782 29.8558C34.1743 29.7597 34.2223 29.6368 34.2223 29.4871V25.75C33.1946 25.1389 32.3821 24.3264 31.7848 23.3125C31.1876 22.2986 30.889 21.1944 30.889 20C30.889 18.8056 31.1876 17.7014 31.7848 16.6875C32.3821 15.6736 33.1946 14.8611 34.2223 14.25V10.5129C34.2223 10.3632 34.1743 10.2403 34.0782 10.1442C33.9821 10.0481 33.8591 10 33.7094 10H8.06858C7.91886 10 7.79594 10.0481 7.69983 10.1442C7.60372 10.2403 7.55566 10.3632 7.55566 10.5129V14.25C8.58344 14.8611 9.39594 15.6736 9.99316 16.6875C10.5904 17.7014 10.889 18.8056 10.889 20C10.889 21.1944 10.5904 22.2986 9.99316 23.3125C9.39594 24.3264 8.58344 25.1389 7.55566 25.75V29.4871C7.55566 29.6368 7.60372 29.7597 7.69983 29.8558C7.79594 29.9519 7.91886 30 8.06858 30Z" fill="#2F945A"/>
<path d="M14.2197 26.6644L16.9648 13.3311L22.455 19.9977L14.2197 26.6644Z" stroke="#2F945A" stroke-width="2"/>
<path d="M21.2774 18.4291L22.2578 13.3311L27.748 19.9977L19.5127 26.6644L20.4931 21.5663" stroke="#2F945A" stroke-width="2"/>
</svg>
