<svg width="19" height="18" viewBox="0 0 19 18" fill="none" xmlns="http://www.w3.org/2000/svg">
<path d="M9.28534 12.4903C9.44484 12.4903 9.57841 12.4364 9.68603 12.3285C9.79378 12.2207 9.84766 12.0871 9.84766 11.9276C9.84766 11.7681 9.79372 11.6346 9.68584 11.5269C9.57797 11.4192 9.44434 11.3653 9.28497 11.3653C9.12547 11.3653 8.99191 11.4193 8.88428 11.5271C8.77653 11.635 8.72266 11.7687 8.72266 11.9282C8.72266 12.0876 8.77659 12.2211 8.88447 12.3289C8.99234 12.4365 9.12597 12.4903 9.28534 12.4903ZM9.28534 9.5625C9.44484 9.5625 9.57841 9.50856 9.68603 9.40069C9.79378 9.29281 9.84766 9.15919 9.84766 8.99981C9.84766 8.84031 9.79372 8.70675 9.68584 8.59912C9.57797 8.49137 9.44434 8.4375 9.28497 8.4375C9.12547 8.4375 8.99191 8.49144 8.88428 8.59931C8.77653 8.70719 8.72266 8.84081 8.72266 9.00019C8.72266 9.15969 8.77659 9.29325 8.88447 9.40088C8.99234 9.50863 9.12597 9.5625 9.28534 9.5625ZM9.28534 6.63469C9.44484 6.63469 9.57841 6.58075 9.68603 6.47287C9.79378 6.365 9.84766 6.23131 9.84766 6.07181C9.84766 5.91244 9.79372 5.77888 9.68584 5.67113C9.57797 5.5635 9.44434 5.50969 9.28497 5.50969C9.12547 5.50969 8.99191 5.56362 8.88428 5.6715C8.77653 5.77925 8.72266 5.91287 8.72266 6.07237C8.72266 6.23187 8.77659 6.36544 8.88447 6.47306C8.99234 6.58081 9.12597 6.63469 9.28534 6.63469ZM15.0543 14.625H3.51597C3.14309 14.625 2.82391 14.4923 2.55841 14.2268C2.29291 13.9613 2.16016 13.6421 2.16016 13.2692V10.803C2.58716 10.7213 2.94391 10.5118 3.23041 10.1747C3.51691 9.83769 3.66016 9.44613 3.66016 9C3.66016 8.55388 3.51691 8.16231 3.23041 7.82531C2.94391 7.48819 2.58716 7.27875 2.16016 7.197V4.73081C2.16016 4.35794 2.29291 4.03875 2.55841 3.77325C2.82391 3.50775 3.14309 3.375 3.51597 3.375H15.0543C15.4272 3.375 15.7464 3.50775 16.0119 3.77325C16.2774 4.03875 16.4102 4.35794 16.4102 4.73081V7.197C15.9832 7.27875 15.6264 7.48819 15.3399 7.82531C15.0534 8.16231 14.9102 8.55388 14.9102 9C14.9102 9.44613 15.0534 9.83769 15.3399 10.1747C15.6264 10.5118 15.9832 10.7213 16.4102 10.803V13.2692C16.4102 13.6421 16.2774 13.9613 16.0119 14.2268C15.7464 14.4923 15.4272 14.625 15.0543 14.625ZM15.0543 13.5C15.1217 13.5 15.177 13.4784 15.2203 13.4351C15.2635 13.3919 15.2852 13.3366 15.2852 13.2692V11.5875C14.8227 11.3125 14.457 10.9469 14.1883 10.4906C13.9195 10.0344 13.7852 9.5375 13.7852 9C13.7852 8.4625 13.9195 7.96563 14.1883 7.50938C14.457 7.05313 14.8227 6.6875 15.2852 6.4125V4.73081C15.2852 4.66344 15.2635 4.60813 15.2203 4.56488C15.177 4.52163 15.1217 4.5 15.0543 4.5H3.51597C3.44859 4.5 3.39328 4.52163 3.35003 4.56488C3.30678 4.60813 3.28516 4.66344 3.28516 4.73081V6.4125C3.74766 6.6875 4.11328 7.05313 4.38203 7.50938C4.65078 7.96563 4.78516 8.4625 4.78516 9C4.78516 9.5375 4.65078 10.0344 4.38203 10.4906C4.11328 10.9469 3.74766 11.3125 3.28516 11.5875V13.2692C3.28516 13.3366 3.30678 13.3919 3.35003 13.4351C3.39328 13.4784 3.44859 13.5 3.51597 13.5H15.0543Z" fill="#367AFF"/>
</svg>
