<svg width="394" height="221" viewBox="0 0 394 221" fill="none" xmlns="http://www.w3.org/2000/svg">
<g clip-path="url(#clip0_12717_66576)">
<rect width="394" height="220" transform="translate(0 0.125)" fill="url(#paint0_linear_12717_66576)"/>
<g clip-path="url(#clip1_12717_66576)">
<path d="M184.611 118.682H70.0039V204.362H184.611V118.682Z" fill="white" stroke="#E0F7FF" stroke-width="0.425709" stroke-miterlimit="10"/>
<path d="M184.611 145.373H70.0039V149.276H184.611V145.373Z" fill="white" stroke="#E0F7FF" stroke-width="0.425709" stroke-miterlimit="10"/>
<path d="M74.6859 170.781C74.6859 170.781 80.6407 163.228 89.3439 163.686C98.0471 164.144 99.6457 171.015 99.6457 171.015H71.9375L74.6859 170.781Z" fill="white" stroke="#E0F7FF" stroke-width="0.425709" stroke-miterlimit="10"/>
<path d="M82.2539 171.697C82.2539 171.697 83.8434 163.686 89.3401 163.686L82.2539 171.697Z" fill="white"/>
<path d="M82.2539 171.697C82.2539 171.697 83.8434 163.686 89.3401 163.686" stroke="#E0F7FF" stroke-width="0.425709" stroke-miterlimit="10"/>
<path d="M90.7188 171.241C90.7188 171.241 91.4058 165.061 96.2155 165.977L90.7188 171.241Z" fill="white"/>
<path d="M90.7188 171.241C90.7188 171.241 91.4058 165.061 96.2155 165.977" stroke="#E0F7FF" stroke-width="0.425709" stroke-miterlimit="10"/>
<path d="M114.307 170.781C114.307 170.781 120.262 163.228 128.965 163.686C137.668 164.144 139.267 171.015 139.267 171.015H111.559L114.307 170.781Z" fill="white" stroke="#E0F7FF" stroke-width="0.425709" stroke-miterlimit="10"/>
<path d="M121.863 171.697C121.863 171.697 123.467 163.686 128.963 163.686L121.863 171.697Z" fill="white"/>
<path d="M121.863 171.697C121.863 171.697 123.467 163.686 128.963 163.686" stroke="#E0F7FF" stroke-width="0.425709" stroke-miterlimit="10"/>
<path d="M130.336 171.241C130.336 171.241 131.023 165.061 135.833 165.977L130.336 171.241Z" fill="white"/>
<path d="M130.336 171.241C130.336 171.241 131.023 165.061 135.833 165.977" stroke="#E0F7FF" stroke-width="0.425709" stroke-miterlimit="10"/>
<path d="M153.928 170.781C153.928 170.781 159.883 163.228 168.586 163.686C177.289 164.144 178.888 171.015 178.888 171.015H151.18L153.928 170.781Z" fill="white" stroke="#E0F7FF" stroke-width="0.425709" stroke-miterlimit="10"/>
<path d="M161.473 171.697C161.473 171.697 163.094 163.686 168.591 163.686L161.473 171.697Z" fill="white"/>
<path d="M161.473 171.697C161.473 171.697 163.094 163.686 168.591 163.686" stroke="#E0F7FF" stroke-width="0.425709" stroke-miterlimit="10"/>
<path d="M169.961 171.241C169.961 171.241 170.648 165.061 175.458 165.977L169.961 171.241Z" fill="white"/>
<path d="M169.961 171.241C169.961 171.241 170.648 165.061 175.458 165.977" stroke="#E0F7FF" stroke-width="0.425709" stroke-miterlimit="10"/>
<path d="M184.611 171.02H70.0039V174.922H184.611V171.02Z" fill="white" stroke="#E0F7FF" stroke-width="0.425709" stroke-miterlimit="10"/>
<path d="M184.611 118.682H70.0039V122.575H184.611V118.682Z" fill="white" stroke="#E0F7FF" stroke-width="0.425709" stroke-miterlimit="10"/>
<path d="M184.611 193.012H70.0039V204.367H184.611V193.012Z" fill="white" stroke="#E0F7FF" stroke-width="0.425709" stroke-miterlimit="10"/>
<path d="M91.8703 131.865H76.3008V145.603H91.8703V131.865Z" fill="white" stroke="#E0F7FF" stroke-width="0.425709" stroke-miterlimit="10"/>
<path d="M91.8703 131.865H76.3008V133.885H91.8703V131.865Z" fill="white" stroke="#E0F7FF" stroke-width="0.425709" stroke-miterlimit="10"/>
<path d="M153.689 131.865H105.84V145.603H153.689V131.865Z" fill="white" stroke="#E0F7FF" stroke-width="0.425709" stroke-miterlimit="10"/>
<path d="M153.689 131.865H105.84V133.885H153.689V131.865Z" fill="white" stroke="#E0F7FF" stroke-width="0.425709" stroke-miterlimit="10"/>
<path d="M141.093 131.865H128.043V145.603H141.093V131.865Z" fill="white" stroke="#E0F7FF" stroke-width="0.425709" stroke-miterlimit="10"/>
<path d="M141.093 131.865H128.043V133.885H141.093V131.865Z" fill="white" stroke="#E0F7FF" stroke-width="0.425709" stroke-miterlimit="10"/>
<path d="M269.073 47.8789H194.473V147.979H269.073V47.8789Z" fill="white" stroke="#E0F7FF" stroke-width="0.425709" stroke-miterlimit="10"/>
<path d="M202.969 73.375H229.262" stroke="#E0F7FF" stroke-width="0.425709" stroke-miterlimit="10"/>
<path d="M202.969 84.707H229.262" stroke="#E0F7FF" stroke-width="0.425709" stroke-miterlimit="10"/>
<path d="M202.969 96.0391H229.262" stroke="#E0F7FF" stroke-width="0.425709" stroke-miterlimit="10"/>
<path d="M202.969 107.371H229.262" stroke="#E0F7FF" stroke-width="0.425709" stroke-miterlimit="10"/>
<path d="M202.969 118.705H229.262" stroke="#E0F7FF" stroke-width="0.425709" stroke-miterlimit="10"/>
<path d="M202.969 130.037H229.262" stroke="#E0F7FF" stroke-width="0.425709" stroke-miterlimit="10"/>
<path d="M234.754 73.373H261.047" stroke="#E0F7FF" stroke-width="0.425709" stroke-miterlimit="10"/>
<path d="M234.754 84.707H261.047" stroke="#E0F7FF" stroke-width="0.425709" stroke-miterlimit="10"/>
<path d="M234.754 96.0391H261.047" stroke="#E0F7FF" stroke-width="0.425709" stroke-miterlimit="10"/>
<path d="M234.754 107.371H261.047" stroke="#E0F7FF" stroke-width="0.425709" stroke-miterlimit="10"/>
<path d="M234.754 118.705H261.047" stroke="#E0F7FF" stroke-width="0.425709" stroke-miterlimit="10"/>
<path d="M234.754 130.037H261.047" stroke="#E0F7FF" stroke-width="0.425709" stroke-miterlimit="10"/>
<path d="M219.187 66.3109C218.545 66.3409 217.908 66.1817 217.355 65.8529C216.913 65.5694 216.581 65.1425 216.416 64.6436C216.224 64.0648 216.133 63.4575 216.146 62.848V59.1377C216.133 58.5161 216.224 57.8967 216.416 57.3054C216.58 56.8098 216.913 56.387 217.355 56.1099C217.914 55.8004 218.549 55.6543 219.187 55.6885C219.791 55.6571 220.393 55.7851 220.933 56.0595C221.351 56.291 221.676 56.6623 221.849 57.1084C222.031 57.6117 222.12 58.1443 222.11 58.6796V59.5499H220.067V58.5788C220.068 58.3552 220.054 58.1318 220.026 57.9101C220.01 57.7214 219.936 57.5422 219.815 57.397C219.736 57.3232 219.641 57.2674 219.539 57.2334C219.436 57.1994 219.327 57.188 219.219 57.2001C219.109 57.1906 218.997 57.2036 218.892 57.2382C218.786 57.2728 218.689 57.3284 218.606 57.4016C218.474 57.5507 218.389 57.7357 218.363 57.933C218.328 58.1727 218.312 58.4145 218.312 58.6567V63.361C218.308 63.6164 218.333 63.8715 218.386 64.1214C218.416 64.3129 218.509 64.4887 218.651 64.6207C218.813 64.7457 219.015 64.8076 219.219 64.7947C219.325 64.8059 219.431 64.7941 219.532 64.7601C219.632 64.7261 219.724 64.6707 219.801 64.5978C219.925 64.4463 220.002 64.2614 220.021 64.0664C220.051 63.8324 220.066 63.5969 220.067 63.361V62.3441H222.11V63.2007C222.121 63.7461 222.034 64.2892 221.853 64.8039C221.693 65.2594 221.383 65.6471 220.974 65.9032C220.43 66.208 219.81 66.3496 219.187 66.3109Z" fill="white"/>
<path d="M225.606 66.2974C225.132 66.3124 224.661 66.2151 224.232 66.0134C223.866 65.831 223.568 65.5376 223.38 65.1752C223.177 64.7462 223.08 64.2751 223.096 63.801V61.1396C223.079 60.6655 223.176 60.1942 223.38 59.7654C223.568 59.403 223.866 59.1096 224.232 58.9272C224.658 58.737 225.12 58.6387 225.587 58.6387C226.055 58.6387 226.517 58.737 226.943 58.9272C227.309 59.1106 227.609 59.4037 227.8 59.7654C228.011 60.1919 228.111 60.6643 228.093 61.1396V63.801C228.111 64.2763 228.01 64.7484 227.8 65.1752C227.609 65.537 227.309 65.83 226.943 66.0134C226.525 66.2095 226.067 66.3066 225.606 66.2974ZM225.606 64.9965C225.674 65.0009 225.742 64.991 225.806 64.9673C225.87 64.9436 225.928 64.9068 225.977 64.8591C226.069 64.7557 226.127 64.6259 226.142 64.4881C226.169 64.3093 226.181 64.1284 226.178 63.9476V61.016C226.182 60.832 226.169 60.6481 226.142 60.4663C226.123 60.3295 226.066 60.2008 225.977 60.0953C225.928 60.0476 225.87 60.0107 225.806 59.987C225.742 59.9634 225.674 59.9534 225.606 59.9578C225.538 59.9516 225.469 59.9606 225.405 59.9844C225.34 60.0082 225.282 60.0461 225.235 60.0953C225.145 60.2012 225.084 60.3293 225.061 60.4663C225.029 60.6478 225.014 60.8318 225.015 61.016V63.9476C225.014 64.1287 225.03 64.3096 225.061 64.4881C225.081 64.6263 225.141 64.7554 225.235 64.8591C225.284 64.9102 225.344 64.9492 225.411 64.9731C225.478 64.9969 225.549 65.005 225.619 64.9965H225.606Z" fill="white"/>
<path d="M229.582 66.1748V60.0963H228.84V58.7817H229.582V58.2687C229.575 57.8809 229.621 57.4941 229.719 57.1189C229.798 56.8079 229.991 56.538 230.26 56.3631C230.645 56.1592 231.08 56.0671 231.515 56.0974H231.996C232.142 56.0974 232.312 56.1249 232.5 56.1524V57.5816L232.275 57.5358C232.196 57.5314 232.116 57.5314 232.037 57.5358C231.963 57.5286 231.889 57.5395 231.82 57.5674C231.752 57.5954 231.691 57.6395 231.643 57.6961C231.545 57.8448 231.5 58.0224 231.515 58.2V58.7909H232.5V60.1055H231.515V66.184L229.582 66.1748ZM233.201 66.1748V60.0963H232.459V58.7817H233.201V58.2687C233.194 57.8809 233.24 57.4941 233.338 57.1189C233.417 56.8079 233.61 56.538 233.879 56.3631C234.264 56.1592 234.699 56.0671 235.134 56.0974H235.615C235.761 56.0974 235.931 56.1249 236.118 56.1524V57.5816L235.894 57.5358C235.815 57.5314 235.735 57.5314 235.656 57.5358C235.582 57.5286 235.508 57.5395 235.439 57.5674C235.371 57.5954 235.31 57.6395 235.262 57.6961C235.164 57.8448 235.118 58.0224 235.134 58.2V58.7909H236.118V60.1055H235.134V66.184L233.201 66.1748Z" fill="white"/>
<path d="M239.247 66.2983C238.771 66.3168 238.298 66.2143 237.872 66.0005C237.509 65.8018 237.218 65.492 237.043 65.1165C236.844 64.6766 236.747 64.1974 236.759 63.7148V61.2367C236.744 60.7493 236.841 60.265 237.043 59.8212C237.224 59.4496 237.52 59.1461 237.886 58.9555C238.311 58.7403 238.784 58.6363 239.26 58.6532C239.738 58.6314 240.212 58.7373 240.635 58.9601C240.986 59.1724 241.258 59.4943 241.409 59.8762C241.585 60.3331 241.669 60.8204 241.656 61.3099V62.6017H238.669V64.0354C238.664 64.2124 238.688 64.3891 238.743 64.5576C238.773 64.6737 238.843 64.7757 238.94 64.8462C239.036 64.9004 239.145 64.9288 239.256 64.9288C239.366 64.9288 239.475 64.9004 239.572 64.8462C239.667 64.7864 239.738 64.6934 239.769 64.5851C239.816 64.4371 239.838 64.2823 239.833 64.127V63.4262H241.624V64.04C241.644 64.3523 241.6 64.6655 241.495 64.9602C241.389 65.2548 241.224 65.5247 241.01 65.7532C240.516 66.1586 239.883 66.3543 239.247 66.2983ZM238.669 61.6581H239.833V60.9298C239.84 60.7549 239.818 60.5801 239.769 60.4121C239.743 60.2954 239.672 60.1935 239.572 60.1282C239.469 60.0692 239.351 60.0406 239.233 60.0457C239.122 60.041 239.012 60.0732 238.921 60.1373C238.827 60.2186 238.762 60.3277 238.734 60.4488C238.685 60.6559 238.664 60.8683 238.669 61.0809V61.6581Z" fill="white"/>
<path d="M245.129 66.2983C244.654 66.3168 244.181 66.2143 243.755 66.0005C243.392 65.8018 243.101 65.492 242.926 65.1165C242.727 64.6766 242.63 64.1974 242.642 63.7148V61.2367C242.627 60.7493 242.724 60.265 242.926 59.8212C243.107 59.4496 243.402 59.1461 243.769 58.9555C244.194 58.7409 244.667 58.6369 245.143 58.6532C245.62 58.6314 246.095 58.7373 246.517 58.9601C246.869 59.1724 247.141 59.4943 247.291 59.8762C247.468 60.3331 247.552 60.8204 247.539 61.3099V62.6017H244.571V64.0354C244.567 64.2123 244.592 64.3886 244.644 64.5576C244.676 64.673 244.745 64.7745 244.841 64.8462C244.938 64.9039 245.049 64.9325 245.162 64.9286C245.271 64.9315 245.379 64.9029 245.473 64.8462C245.568 64.7848 245.639 64.6926 245.675 64.5851C245.72 64.4367 245.741 64.2821 245.739 64.127V63.4262H247.525V64.04C247.547 64.3525 247.504 64.6663 247.399 64.9613C247.293 65.2563 247.127 65.526 246.911 65.7532C246.665 65.9567 246.38 66.1096 246.075 66.2031C245.769 66.2966 245.448 66.329 245.129 66.2983ZM244.552 61.6581H245.72V60.9298C245.725 60.755 245.703 60.5806 245.656 60.4121C245.625 60.2965 245.553 60.1959 245.455 60.1282C245.352 60.0692 245.234 60.0406 245.116 60.0457C245.005 60.0417 244.895 60.0739 244.804 60.1373C244.71 60.2186 244.644 60.3277 244.616 60.4488C244.568 60.6559 244.547 60.8683 244.552 61.0809V61.6581Z" fill="white"/>
<path d="M331.862 81.4414H274.188V147.975H331.862V81.4414Z" fill="white" stroke="#E0F7FF" stroke-width="0.425709" stroke-miterlimit="10"/>
<path d="M280.758 90.3047H301.087" stroke="#E0F7FF" stroke-width="0.425709" stroke-miterlimit="10"/>
<path d="M280.758 99.0664H301.087" stroke="#E0F7FF" stroke-width="0.425709" stroke-miterlimit="10"/>
<path d="M280.758 107.826H301.087" stroke="#E0F7FF" stroke-width="0.425709" stroke-miterlimit="10"/>
<path d="M280.758 116.588H301.087" stroke="#E0F7FF" stroke-width="0.425709" stroke-miterlimit="10"/>
<path d="M280.758 125.348H301.087" stroke="#E0F7FF" stroke-width="0.425709" stroke-miterlimit="10"/>
<path d="M280.758 134.109H301.087" stroke="#E0F7FF" stroke-width="0.425709" stroke-miterlimit="10"/>
<path d="M305.336 90.3047H325.66" stroke="#E0F7FF" stroke-width="0.425709" stroke-miterlimit="10"/>
<path d="M305.336 99.0664H325.66" stroke="#E0F7FF" stroke-width="0.425709" stroke-miterlimit="10"/>
<path d="M305.336 107.826H325.66" stroke="#E0F7FF" stroke-width="0.425709" stroke-miterlimit="10"/>
<path d="M305.336 116.588H325.66" stroke="#E0F7FF" stroke-width="0.425709" stroke-miterlimit="10"/>
<path d="M305.336 125.348H325.66" stroke="#E0F7FF" stroke-width="0.425709" stroke-miterlimit="10"/>
<path d="M305.336 134.109H325.66" stroke="#E0F7FF" stroke-width="0.425709" stroke-miterlimit="10"/>
<path d="M317.771 34.3483L312.224 26.4238H290.512L284.964 34.3483C282.028 38.5491 280.525 43.5848 280.679 48.7078C280.832 53.8307 282.634 58.7674 285.816 62.7848L288.386 66.0233H314.354L316.923 62.7848C320.105 58.7669 321.906 53.8299 322.059 48.707C322.212 43.5841 320.708 38.5486 317.771 34.3483Z" fill="white" stroke="#263238" stroke-width="0.425709" stroke-linecap="round" stroke-linejoin="round"/>
<path d="M284.957 34.3496H295.154" stroke="#263238" stroke-width="0.425709" stroke-linecap="round" stroke-linejoin="round"/>
<path d="M306.429 37.5977H297.836" stroke="#263238" stroke-width="0.425709" stroke-linecap="round" stroke-linejoin="round"/>
<path d="M321.726 52.6309H301.594" stroke="#263238" stroke-width="0.425709" stroke-linecap="round" stroke-linejoin="round"/>
<path d="M284.953 52.3613H292.74" stroke="#263238" stroke-width="0.425709" stroke-linecap="round" stroke-linejoin="round"/>
<path d="M311.8 48.334H305.625" stroke="#263238" stroke-width="0.425709" stroke-linecap="round" stroke-linejoin="round"/>
<path d="M293.004 58.2656H298.377" stroke="#263238" stroke-width="0.425709" stroke-linecap="round" stroke-linejoin="round"/>
<path d="M313.406 29.0098H308.844" stroke="#263238" stroke-width="0.425709" stroke-linecap="round" stroke-linejoin="round"/>
<path d="M301.359 26.3884V-4.34766" stroke="#2F945A" stroke-width="0.425709" stroke-linecap="round" stroke-linejoin="round"/>
<path d="M315.868 170.838C316.985 171.329 319.725 171.269 319.729 171.269C319.734 171.269 319.138 169.473 319.088 169.363C318.488 168.108 316.587 166.029 315.039 166.239C314.782 166.279 314.536 166.373 314.318 166.514C314.1 166.656 313.915 166.842 313.775 167.061C313.634 167.28 313.542 167.526 313.504 167.783C313.466 168.04 313.483 168.303 313.555 168.553C313.797 169.625 314.91 170.422 315.868 170.838Z" fill="#263238"/>
<path d="M343.57 171.443C343.593 171.443 344.069 169.61 344.087 169.5C344.28 168.126 343.836 165.341 342.434 164.659C342.198 164.55 341.941 164.492 341.681 164.49C341.42 164.488 341.163 164.542 340.925 164.647C340.687 164.752 340.474 164.907 340.301 165.101C340.127 165.295 339.997 165.524 339.919 165.772C339.543 166.812 340.02 168.062 340.583 168.955C341.28 169.99 343.57 171.443 343.57 171.443Z" fill="#263238"/>
<path d="M316.813 178.776C317.976 178.945 320.423 178.235 320.615 178.18C321.017 179.578 321.513 180.948 322.099 182.28C322.433 183.059 322.8 183.833 323.171 184.607C322.946 184.282 322.745 183.988 322.713 183.952C321.797 182.898 319.419 181.396 317.981 182.005C317.744 182.111 317.532 182.267 317.36 182.461C317.187 182.656 317.058 182.885 316.981 183.133C316.904 183.382 316.88 183.643 316.912 183.901C316.944 184.159 317.031 184.408 317.166 184.63C317.697 185.596 318.966 186.073 319.997 186.224C321.027 186.375 323.139 185.816 323.693 185.656C323.84 185.953 323.982 186.247 324.128 186.54C324.838 187.951 325.548 189.357 326.208 190.754C326.437 191.249 326.666 191.739 326.858 192.234C326.661 191.945 326.492 191.702 326.464 191.666C325.548 190.612 323.171 189.11 321.733 189.723C321.495 189.829 321.283 189.985 321.11 190.179C320.937 190.373 320.807 190.602 320.73 190.85C320.652 191.099 320.628 191.361 320.66 191.619C320.691 191.877 320.778 192.126 320.913 192.348C321.444 193.31 322.713 193.791 323.743 193.938C324.774 194.084 326.684 193.585 327.339 193.402C327.541 193.91 327.747 194.423 327.916 194.927C328.026 195.275 328.159 195.605 328.251 195.958C328.342 196.31 328.443 196.654 328.539 196.997C328.7 197.666 328.869 198.372 328.997 199.008C329.098 199.466 329.185 199.897 329.277 200.332C329.052 199.842 328.59 198.885 328.544 198.807C327.802 197.629 325.677 195.783 324.16 196.168C323.909 196.237 323.676 196.359 323.476 196.525C323.275 196.692 323.113 196.899 322.999 197.133C322.885 197.367 322.822 197.622 322.815 197.883C322.807 198.143 322.855 198.402 322.956 198.642C323.336 199.677 324.518 200.341 325.512 200.644C326.611 200.978 329.034 200.671 329.341 200.644C329.483 201.367 329.62 202.073 329.735 202.741C329.817 203.2 329.886 203.63 329.955 204.052H330.926C330.839 203.593 330.747 203.09 330.646 202.572C330.5 201.835 330.33 201.051 330.147 200.245C330.879 199.955 331.592 199.62 332.282 199.242C333.083 200.108 335.131 201.12 335.397 201.248C335.117 201.935 334.838 202.599 334.568 203.222L334.201 204.052H335.223C335.287 203.896 335.355 203.74 335.42 203.593C335.704 202.902 335.997 202.151 336.29 201.381C336.583 201.441 338.983 201.931 340.105 201.679C341.122 201.45 342.35 200.873 342.803 199.869C342.921 199.638 342.987 199.384 342.999 199.124C343.01 198.865 342.966 198.606 342.87 198.364C342.774 198.123 342.628 197.905 342.441 197.725C342.254 197.544 342.031 197.406 341.787 197.318C340.307 196.819 338.049 198.5 337.206 199.608C337.156 199.672 336.707 200.451 336.432 200.946C336.551 200.63 336.665 200.327 336.785 199.998C337.023 199.356 337.243 198.706 337.472 198.01C337.577 197.666 337.678 197.323 337.783 196.974C337.888 196.626 337.966 196.255 338.058 195.893C338.259 195.051 338.424 194.185 338.566 193.305C339.134 193.512 341.145 194.222 342.19 194.139C343.234 194.057 344.53 193.681 345.135 192.765C345.286 192.553 345.39 192.312 345.44 192.057C345.49 191.802 345.486 191.54 345.427 191.287C345.368 191.034 345.256 190.796 345.098 190.59C344.94 190.384 344.741 190.213 344.512 190.09C343.138 189.371 340.637 190.69 339.647 191.675C339.588 191.734 338.96 192.522 338.621 192.957C338.704 192.43 338.791 191.908 338.855 191.368C339.047 189.824 339.194 188.248 339.345 186.682C339.391 186.201 339.446 185.724 339.496 185.243C339.698 185.321 342.071 186.205 343.239 186.123C344.278 186.05 345.579 185.665 346.184 184.749C346.335 184.537 346.44 184.295 346.491 184.04C346.541 183.785 346.537 183.522 346.478 183.268C346.419 183.015 346.307 182.777 346.149 182.57C345.991 182.363 345.79 182.192 345.561 182.069C344.187 181.355 341.686 182.674 340.701 183.659C340.623 183.732 339.721 184.863 339.505 185.161C339.615 184.107 339.739 183.059 339.899 182.028C340.115 180.635 340.421 179.258 340.815 177.905C340.907 177.937 343.385 178.872 344.581 178.789C345.621 178.716 346.921 178.331 347.526 177.415C347.677 177.204 347.781 176.962 347.831 176.708C347.881 176.453 347.877 176.19 347.818 175.937C347.759 175.684 347.647 175.447 347.489 175.24C347.331 175.034 347.132 174.863 346.903 174.74C345.529 174.021 343.028 175.34 342.043 176.325C341.974 176.389 341.287 177.241 340.967 177.667L340.889 177.626C341.317 176.276 341.865 174.967 342.524 173.714C342.881 173.018 343.262 172.372 343.642 171.754C344.1 171.978 346.12 172.967 347.205 173.009C348.291 173.05 349.583 172.816 350.284 171.964C350.46 171.77 350.593 171.54 350.673 171.291C350.753 171.041 350.779 170.776 350.748 170.516C350.717 170.255 350.631 170.004 350.494 169.78C350.358 169.556 350.175 169.363 349.958 169.216C348.662 168.35 346.042 169.39 344.952 170.256C344.892 170.306 344.343 170.851 343.949 171.254C344.127 170.979 344.301 170.691 344.48 170.43C345.13 169.445 345.79 168.597 346.381 167.828C346.72 167.402 347.031 167.022 347.329 166.669C347.879 166.669 350.078 166.591 351.053 166.138C352.029 165.684 353.073 164.869 353.302 163.792C353.37 163.54 353.382 163.275 353.339 163.017C353.296 162.759 353.198 162.513 353.051 162.296C352.905 162.079 352.714 161.896 352.491 161.759C352.268 161.622 352.018 161.534 351.759 161.502C350.206 161.337 348.36 163.463 347.792 164.736C347.746 164.846 347.173 166.655 347.205 166.655H347.238C346.944 166.99 346.633 167.347 346.321 167.75C345.717 168.497 345.039 169.344 344.361 170.32C343.62 171.36 342.94 172.441 342.323 173.558C341.63 174.81 341.049 176.121 340.586 177.475V177.525C340.586 177.067 340.586 175.789 340.559 175.693C340.38 174.319 339.221 171.744 337.687 171.46C337.43 171.418 337.167 171.431 336.916 171.498C336.664 171.565 336.43 171.685 336.229 171.849C336.027 172.014 335.863 172.22 335.747 172.453C335.631 172.686 335.566 172.941 335.557 173.201C335.465 174.296 336.262 175.395 337.041 176.091C337.916 176.875 340.348 177.63 340.541 177.69C340.103 179.079 339.76 180.496 339.515 181.932C339.363 182.765 339.24 183.613 339.125 184.46C339.125 184.066 339.125 183.714 339.125 183.663C338.947 182.289 337.788 179.715 336.253 179.431C335.996 179.388 335.733 179.4 335.482 179.466C335.23 179.532 334.995 179.652 334.793 179.816C334.591 179.98 334.427 180.186 334.31 180.419C334.194 180.652 334.129 180.907 334.119 181.167C334.032 182.266 334.829 183.365 335.603 184.062C336.377 184.758 338.452 185.436 338.997 185.624L338.873 186.604C338.685 188.17 338.507 189.737 338.282 191.262C338.205 191.803 338.108 192.33 338.012 192.856C338.012 192.508 338.012 192.211 338.012 192.165C337.833 190.791 336.675 188.216 335.14 187.932C334.883 187.89 334.62 187.903 334.369 187.97C334.118 188.037 333.883 188.157 333.682 188.321C333.48 188.486 333.316 188.692 333.2 188.925C333.084 189.158 333.02 189.413 333.01 189.673C332.918 190.768 333.715 191.872 334.49 192.563C335.264 193.255 337.137 193.887 337.788 194.098C337.673 194.634 337.563 195.174 337.426 195.692C337.325 196.04 337.256 196.384 337.137 196.732C337.018 197.08 336.913 197.419 336.803 197.758C336.569 198.404 336.345 199.068 336.088 199.691C335.919 200.126 335.754 200.538 335.584 200.95C335.671 200.419 335.813 199.366 335.818 199.274C335.797 198.049 335.466 196.85 334.856 195.788C334.858 195.65 334.849 195.512 334.829 195.376C334.798 195.118 334.714 194.869 334.58 194.646C334.446 194.423 334.267 194.231 334.053 194.083C333.839 193.935 333.597 193.834 333.341 193.786C333.085 193.739 332.823 193.747 332.57 193.809C331.059 194.212 330.106 196.86 330.033 198.252C330.033 198.335 330.083 199.233 330.124 199.796C330.051 199.466 329.978 199.15 329.895 198.811C329.74 198.143 329.561 197.483 329.373 196.773C329.272 196.429 329.167 196.086 329.062 195.738C328.956 195.39 328.819 195.037 328.695 194.684C328.397 193.869 328.058 193.053 327.692 192.243C328.278 192.105 330.344 191.578 331.173 190.942C332.002 190.305 332.877 189.27 332.868 188.17C332.878 187.91 332.832 187.651 332.733 187.41C332.635 187.169 332.486 186.952 332.297 186.773C332.108 186.594 331.883 186.458 331.637 186.372C331.391 186.287 331.13 186.255 330.871 186.279C329.323 186.448 327.971 188.917 327.692 190.282C327.692 190.369 327.582 191.372 327.541 191.922C327.321 191.436 327.083 190.951 326.863 190.465C326.167 189.091 325.425 187.676 324.683 186.288L324.018 185.005C324.224 184.955 326.693 184.382 327.623 183.672C328.448 183.036 329.327 182 329.318 180.896C329.328 180.636 329.282 180.377 329.183 180.136C329.085 179.895 328.936 179.678 328.747 179.499C328.558 179.32 328.333 179.183 328.087 179.098C327.841 179.013 327.58 178.981 327.321 179.005C325.773 179.174 324.426 181.648 324.142 183.013C324.142 183.113 323.991 184.556 323.977 184.927C323.487 183.984 323.006 183.045 322.575 182.097C321.984 180.819 321.474 179.505 321.05 178.162C321.146 178.139 323.73 177.553 324.678 176.82C325.507 176.188 326.382 175.152 326.373 174.048C326.382 173.789 326.336 173.53 326.238 173.289C326.14 173.049 325.992 172.832 325.803 172.653C325.615 172.474 325.39 172.337 325.145 172.252C324.9 172.166 324.639 172.134 324.38 172.157C322.827 172.326 321.481 174.8 321.174 176.165C321.174 176.252 321.055 177.351 321.023 177.878H320.931C320.544 176.515 320.278 175.12 320.139 173.709C320.052 172.931 320.01 172.189 319.987 171.46C320.482 171.401 322.736 171.103 323.652 170.544C324.568 169.985 325.525 169.069 325.64 167.975C325.678 167.717 325.66 167.455 325.589 167.205C325.517 166.955 325.393 166.723 325.225 166.524C325.057 166.326 324.848 166.165 324.614 166.054C324.379 165.942 324.123 165.882 323.863 165.877C322.301 165.877 320.693 168.167 320.262 169.509C320.262 169.578 320.084 170.338 319.978 170.883C319.978 170.558 319.978 170.219 319.978 169.903C319.978 168.721 320.056 167.64 320.129 166.697C320.175 166.156 320.23 165.666 320.285 165.208C320.743 164.896 322.539 163.618 323.098 162.711C323.656 161.804 324.082 160.536 323.675 159.505C323.59 159.259 323.454 159.034 323.275 158.846C323.097 158.657 322.88 158.508 322.639 158.409C322.399 158.31 322.14 158.264 321.88 158.273C321.621 158.281 321.366 158.346 321.133 158.461C319.758 159.175 319.383 161.969 319.612 163.343C319.612 163.463 320.157 165.286 320.18 165.267H320.207C320.143 165.725 320.084 166.183 320.029 166.697C319.932 167.654 319.836 168.739 319.809 169.903C319.763 171.18 319.794 172.459 319.9 173.732C320.01 175.159 320.247 176.572 320.61 177.956V178.006C320.363 177.617 319.644 176.563 319.575 176.49C318.659 175.436 316.282 173.934 314.848 174.543C314.61 174.649 314.398 174.804 314.225 174.999C314.052 175.193 313.923 175.422 313.845 175.67C313.768 175.919 313.744 176.181 313.775 176.439C313.807 176.697 313.893 176.946 314.028 177.168C314.514 178.148 315.782 178.624 316.813 178.776Z" fill="#263238"/>
<path d="M348.426 204.484H52.7148" stroke="#263238" stroke-width="0.425709" stroke-miterlimit="10"/>
<path d="M255.055 84.5534C255.055 84.5534 258.115 79.8857 259.722 79.8078C261.33 79.73 267.212 83.509 269.305 88.511C271.398 93.5131 270.267 96.9668 267.473 98.4922C264.679 100.018 263.208 100.746 261.761 100.105C260.889 99.717 260.096 99.1702 259.425 98.4922C259.425 98.4922 260.551 101.241 261.921 101.635C263.291 102.028 264.014 103.082 262.164 103.082C260.313 103.082 257.817 100.425 258.137 97.7685C258.458 95.1117 255.055 84.5534 255.055 84.5534Z" fill="#263238" stroke="#263238" stroke-width="0.425709" stroke-miterlimit="10"/>
<path d="M218.685 179.149C218.685 179.149 203.629 195.69 202.781 196.642C202.13 197.338 201.42 197.977 200.66 198.552C200.66 198.552 189.74 195.479 187.619 195.264C185.498 195.048 179.988 199.908 178.714 201.594C178.008 202.478 177.469 203.484 177.125 204.562C178.183 204.883 190.271 204.883 192.924 204.883C195.576 204.883 204.586 203.61 205.328 203.289C206.07 202.968 223.032 193.857 223.032 193.857L222.606 179.543C222.606 179.543 220.38 178.691 218.685 179.149Z" fill="white" stroke="#263238" stroke-width="0.425709" stroke-miterlimit="10"/>
<path d="M189.846 197.256C189.846 197.256 184.973 200.861 184.015 201.924C183.058 202.986 181.789 204.672 181.789 204.672" stroke="#263238" stroke-width="0.425709" stroke-miterlimit="10"/>
<path d="M186.447 196.41C186.447 196.41 181.142 200.12 180.492 201.499C179.841 202.878 179.008 204.788 179.008 204.788" stroke="#263238" stroke-width="0.425709" stroke-miterlimit="10"/>
<path d="M192.814 199.271C192.627 199.827 192.378 200.36 192.072 200.861C191.651 201.498 188.046 202.45 186.241 203.513C184.436 204.576 186.241 205.529 188.99 205.313C191.738 205.098 195.563 205.313 197.262 204.466C198.962 203.618 200.973 201.392 200.973 201.392" fill="white"/>
<path d="M192.814 199.271C192.627 199.827 192.378 200.36 192.072 200.861C191.651 201.498 188.046 202.45 186.241 203.513C184.436 204.576 186.241 205.529 188.99 205.313C191.738 205.098 195.563 205.313 197.262 204.466C198.962 203.618 200.973 201.392 200.973 201.392" stroke="#263238" stroke-width="0.425709" stroke-miterlimit="10"/>
<path d="M220.799 171.916C220.799 171.916 218.253 171.284 218.051 172.237C217.849 173.19 216.356 178.81 216.993 179.566C217.63 180.322 221.445 181.687 221.977 181.582C222.508 181.476 220.799 171.916 220.799 171.916Z" fill="#2F945A" stroke="#263238" stroke-width="0.425709" stroke-miterlimit="10"/>
<path d="M235.314 126.427C235.314 126.427 230.733 129.698 226.359 132.382C221.984 135.066 220.307 135.405 220.307 137.1C220.307 138.795 219.946 165.903 219.946 165.903C219.946 165.903 219.46 170.745 220.793 175.224C222.126 179.704 222.488 204.508 222.488 204.508H271.862L270.168 188.05C270.168 188.05 275.98 137.585 274.748 135.529C273.516 133.472 259.279 125.941 259.279 125.941L235.314 126.427Z" fill="white" stroke="#263238" stroke-width="0.425709" stroke-miterlimit="10"/>
<path d="M222.487 204.485H271.861L270.166 188.027C270.166 188.027 270.624 184.257 271.206 178.742L254.918 178.952C254.918 178.952 251.652 160.676 252.499 154.263C253.346 147.85 258.307 126.064 258.307 126.064L255.522 126.426L247.277 153.054L227.429 151.221L235.175 127.503L234.328 127.384C234.328 127.384 225.624 145.899 223.073 154.006C221.671 158.468 220.604 162.742 219.926 165.687V165.866C219.926 165.866 219.441 170.707 220.774 175.187C222.106 179.667 222.487 204.485 222.487 204.485Z" fill="#292B3A" stroke="#263238" stroke-width="0.425709" stroke-miterlimit="10"/>
<path d="M229.147 204.485C229.486 194.156 230.448 163.461 229.967 162.009C229.638 161.033 231.387 156.008 233.059 151.753L232.601 151.707C231.227 155.211 229.129 160.905 229.546 162.151C229.963 163.397 229.225 188.718 228.703 204.485H229.147Z" fill="#828282"/>
<path d="M233.929 162.66C233.929 161.061 235.702 155.202 236.677 152.097L236.219 152.051C235.23 155.202 233.471 160.997 233.471 162.66C233.471 164.322 232.555 191.059 232.051 204.499H232.509C232.99 191.027 233.929 164.322 233.929 162.66Z" fill="#828282"/>
<path d="M237.684 163.799C237.826 162.663 238.952 155.628 239.479 152.348L239.021 152.307C238.49 155.609 237.372 162.613 237.23 163.758C237.061 165.1 235.293 196.862 234.871 204.498H235.329C235.751 196.904 237.519 165.109 237.684 163.799Z" fill="#828282"/>
<path d="M243.319 152.688L242.865 152.646L239.242 204.485H239.7L243.319 152.688Z" fill="#828282"/>
<path d="M234.058 128.006C233.445 129.32 231.919 132.614 230.165 136.553C227.417 143.36 223.752 152.718 221.572 159.227C220.898 161.696 220.353 163.936 219.946 165.7V165.865C219.848 167.058 219.83 168.256 219.891 169.451C219.987 167.853 220.083 166.621 220.17 165.892C220.889 160.015 233.994 128.331 234.127 128.024L234.058 128.006Z" fill="#828282"/>
<path d="M226.961 161.366C227.085 160.633 228.463 156.593 230.264 151.495L229.806 151.449C228.019 156.52 226.65 160.537 226.526 161.288C226.233 163.038 225.404 191.145 225.023 204.484H225.482C225.839 191.177 226.682 163.061 226.961 161.366Z" fill="#828282"/>
<path d="M222.311 196.789C222.627 184.201 223.259 164.267 224.143 160.629C224.602 158.719 226.333 153.864 228.381 148.385L231.39 139.174C228.138 147.625 224.409 157.565 223.699 160.52C222.962 163.579 222.403 177.514 222.055 189.377C222.174 191.947 222.242 194.517 222.311 196.789Z" fill="#828282"/>
<path d="M260.607 178.879L260.148 178.883L261.495 204.485H261.953L260.607 178.879Z" fill="#828282"/>
<path d="M245.023 178.064C244.886 170.767 246.132 158.967 246.828 153.008L246.37 152.967C245.674 158.922 244.428 170.753 244.565 178.073C244.712 186.144 245.106 199.478 245.257 204.485H245.715C245.564 199.488 245.17 186.14 245.023 178.064Z" fill="#828282"/>
<path d="M264.47 178.828L264.012 178.833L266.545 204.484H267.007L264.47 178.828Z" fill="#828282"/>
<path d="M256.42 178.93L255.957 178.939L257.07 204.485H257.528L256.42 178.93Z" fill="#828282"/>
<path d="M252.17 161.134C252.164 159.847 252.228 158.561 252.362 157.282C252.338 156.273 252.384 155.265 252.499 154.263C252.683 152.889 253.058 150.759 253.539 148.308C254.749 140.521 256.489 131.561 257.57 126.17L257.112 126.234C255.28 135.432 251.592 154.68 251.734 161.152C251.899 168.733 253.232 197.719 253.567 204.494H254.025C253.672 197.747 252.335 168.715 252.17 161.134Z" fill="#828282"/>
<path d="M249.343 155.921C250.324 151.308 251.886 141.959 253.145 134.117L252.174 137.273C251.024 144.309 249.742 151.84 248.894 155.825C247.3 163.328 248.436 195.195 248.784 204.485H249.243C248.876 195.227 247.758 163.383 249.343 155.921Z" fill="#828282"/>
<path d="M245.271 133.521C245.271 133.521 247.63 141.767 248.271 141.446C248.913 141.125 260.268 126.788 260.378 125.808C260.488 124.827 256.736 120.238 256.736 120.238C255.948 119.912 255.119 119.694 254.272 119.592C253.415 119.592 236.806 122.592 236.38 123.128C235.954 123.664 234.772 126.554 233.916 127.951C233.059 129.349 226.953 135.555 227.7 135.661C228.446 135.766 236.485 132.986 236.485 132.986L239.234 141.295C239.234 141.295 243.118 137.804 243.764 136.948C244.41 136.091 245.271 133.521 245.271 133.521Z" fill="#2F945A" stroke="#263238" stroke-width="0.425709" stroke-miterlimit="10"/>
<path d="M236.148 121.374C236.148 121.374 237.014 125.084 237.633 129.784C238.251 134.483 239.24 141.295 239.24 141.295C239.24 141.295 246.542 130.526 247.027 130.155C247.513 129.784 254.947 121.122 254.947 121.122L255.451 108.607C255.451 108.607 251.865 114.92 248.397 117.769C244.929 120.618 236.148 121.374 236.148 121.374Z" fill="white" stroke="#263238" stroke-width="0.425709" stroke-miterlimit="10"/>
<path d="M248.399 117.77C248.399 117.77 244.9 123.138 242.22 125.648C239.54 128.158 237.639 129.771 237.639 129.771L236.375 123.129L248.399 117.77Z" fill="#263238" stroke="#263238" stroke-width="0.425709" stroke-miterlimit="10"/>
<path d="M246.689 188.026L242.09 186.574L241.848 189.236L246.689 188.026Z" fill="white" stroke="#263238" stroke-width="0.425709" stroke-miterlimit="10"/>
<path d="M243.063 183.707L242.655 188.97L241.817 199.872L241.455 204.531H228.588L228.226 199.872L227.388 188.97L226.98 183.707H243.063Z" fill="#2F945A" stroke="#263238" stroke-width="0.425709" stroke-miterlimit="10"/>
<path d="M244.198 181.229H225.555V184.687H244.198V181.229Z" fill="white" stroke="#263238" stroke-width="0.425709" stroke-miterlimit="10"/>
<path d="M242.461 179.721H227.578V181.15H242.461V179.721Z" fill="white" stroke="#263238" stroke-width="0.425709" stroke-miterlimit="10"/>
<path d="M242.654 188.971H227.387L228.225 199.873H241.816" fill="white"/>
<path d="M242.654 188.971H227.387L228.225 199.873H241.816" stroke="#263238" stroke-width="0.425709" stroke-miterlimit="10"/>
<path d="M259.039 155.472L268.237 175.943H284.09C284.09 175.943 277.311 144.964 277.068 142.903C276.826 140.841 277.435 135.885 275.859 135.038C274.283 134.19 270.17 132.857 270.17 132.857" fill="white"/>
<path d="M259.039 155.472L268.237 175.943H284.09C284.09 175.943 277.311 144.964 277.068 142.903C276.826 140.841 277.435 135.885 275.859 135.038C274.283 134.19 270.17 132.857 270.17 132.857" stroke="#263238" stroke-width="0.425709" stroke-miterlimit="10"/>
<path d="M262.302 162.732C262.302 162.732 258.065 159.952 256.855 157.652L262.302 162.732Z" fill="white"/>
<path d="M262.302 162.732C262.302 162.732 258.065 159.952 256.855 157.652" stroke="#263238" stroke-width="0.425709" stroke-miterlimit="10"/>
<path d="M268.957 179.676C268.957 179.676 256.37 189.845 255.041 190.326C253.713 190.807 252.256 191.297 252.256 191.297C252.256 191.297 247.781 189.116 246.691 188.026C245.601 186.936 234.951 190.93 234.951 190.93L231.199 194.32C231.199 194.32 231.685 195.529 232.651 195.529C233.618 195.529 236.774 192.992 236.774 192.992L241.354 192.749L235.061 196.981L233.366 200.495C233.366 200.495 234.699 201.823 235.789 200.128C236.249 199.327 236.82 198.595 237.484 197.952L243.402 196.427C243.402 196.427 240.475 199.4 239.87 199.762C239.266 200.124 236.206 201.699 236.778 202.364C237.236 202.909 237.727 202.794 238.45 202.551C239.174 202.309 241.872 201.594 241.872 201.594C241.872 201.594 244.895 201.837 245.743 201.837C246.59 201.837 249.618 199.899 249.618 199.899L254.579 196.995C254.579 196.995 272.613 190.944 275.879 189.011C279.145 187.078 284.353 183.441 284.124 182.113C283.895 180.784 268.957 179.676 268.957 179.676Z" fill="white" stroke="#263238" stroke-width="0.425709" stroke-miterlimit="10"/>
<path d="M241.875 201.595C241.875 201.595 245.627 200.267 246.959 198.814" stroke="#263238" stroke-width="0.425709" stroke-miterlimit="10"/>
<path d="M266.539 175.563L267.524 177.501L268.129 180.043C268.129 180.043 271.761 180.767 275.027 181.371C278.293 181.976 285.434 183.662 285.434 183.662C285.808 183.285 286.09 182.827 286.259 182.323C286.427 181.819 286.477 181.284 286.405 180.758C286.162 178.925 286.405 174.464 285.677 173.254C284.949 172.045 269.924 172.535 266.539 175.563Z" fill="#2F945A" stroke="#263238" stroke-width="0.425709" stroke-miterlimit="10"/>
<path d="M268.297 177.528C268.297 177.528 271.677 175.416 278.338 175.311" stroke="#263238" stroke-width="0.425709" stroke-miterlimit="10"/>
<path d="M281.949 177.422C282.508 177.546 283.035 177.688 283.511 177.843" stroke="#263238" stroke-width="0.425709" stroke-miterlimit="10"/>
<path d="M275.797 176.58C275.797 176.58 278.018 176.722 280.341 177.111" stroke="#263238" stroke-width="0.425709" stroke-miterlimit="10"/>
<path d="M231.335 110.311C230.65 110.31 229.98 110.512 229.41 110.892C228.839 111.272 228.395 111.812 228.132 112.445C227.869 113.078 227.8 113.774 227.933 114.446C228.066 115.118 228.396 115.736 228.88 116.221C229.364 116.705 229.981 117.036 230.653 117.17C231.325 117.304 232.021 117.235 232.654 116.973C233.287 116.711 233.828 116.267 234.209 115.698C234.59 115.128 234.793 114.459 234.793 113.774C234.793 112.856 234.429 111.976 233.78 111.326C233.132 110.677 232.252 110.312 231.335 110.311ZM231.335 116.302C230.834 116.303 230.345 116.155 229.929 115.878C229.512 115.601 229.188 115.206 228.995 114.744C228.803 114.282 228.753 113.774 228.85 113.283C228.947 112.792 229.187 112.341 229.541 111.987C229.894 111.633 230.345 111.392 230.835 111.294C231.326 111.196 231.834 111.246 232.297 111.437C232.759 111.628 233.154 111.952 233.432 112.368C233.71 112.784 233.859 113.273 233.859 113.774C233.859 114.443 233.593 115.086 233.12 115.56C232.646 116.034 232.005 116.301 231.335 116.302Z" stroke="#263238" stroke-width="0.425709" stroke-miterlimit="10"/>
<path d="M228.262 99.64C228.262 99.64 228.972 109.456 229.544 112.301C230.117 115.145 236.227 123.258 237.51 123.826C238.792 124.324 240.214 124.324 241.495 123.826C242.773 123.4 251.311 117.99 252.163 116.002C253.015 114.014 254.298 110.899 254.298 110.899C254.298 110.899 257.995 110.043 258.421 107.908C258.672 106.308 258.719 104.683 258.563 103.071L258.989 97.9497C258.989 97.9497 256.854 89.416 251.307 87.8494C245.76 86.2828 237.789 88.9854 234.519 91.8346C231.248 94.6837 228.262 99.64 228.262 99.64Z" fill="white" stroke="#263238" stroke-width="0.425709" stroke-miterlimit="10"/>
<path d="M233.629 99.4473C233.629 99.4473 235.003 101.38 235.319 102.75" stroke="#263238" stroke-width="0.425709" stroke-miterlimit="10"/>
<path d="M234.133 110.234C234.581 110.66 235.113 110.988 235.695 111.195C236.278 111.403 236.897 111.486 237.513 111.439" stroke="#263238" stroke-width="0.425709" stroke-miterlimit="10"/>
<path d="M236.062 115.382C236.062 115.382 240.57 116.674 243.469 113.211" stroke="#263238" stroke-width="0.425709" stroke-miterlimit="10"/>
<path d="M239.441 99.1258C239.441 99.1258 243.147 97.4356 245.639 99.2083" stroke="#263238" stroke-width="0.425709" stroke-miterlimit="10"/>
<path d="M233.006 99.0433C233.006 99.0433 230.831 98.0813 229.461 99.6891" stroke="#263238" stroke-width="0.425709" stroke-miterlimit="10"/>
<path d="M242.74 104.678C243.096 104.678 243.385 104.102 243.385 103.391C243.385 102.68 243.096 102.104 242.74 102.104C242.383 102.104 242.094 102.68 242.094 103.391C242.094 104.102 242.383 104.678 242.74 104.678Z" fill="#263238"/>
<path d="M232.44 102.908C232.44 103.618 232.152 104.195 231.794 104.195C231.437 104.195 231.148 103.618 231.148 102.908C231.148 102.198 231.437 101.621 231.794 101.621C232.152 101.621 232.44 102.194 232.44 102.908Z" fill="#263238"/>
<path d="M256.904 110.311C256.219 110.311 255.55 110.514 254.98 110.894C254.411 111.275 253.967 111.816 253.705 112.448C253.443 113.081 253.374 113.777 253.508 114.449C253.642 115.121 253.971 115.738 254.456 116.222C254.94 116.706 255.557 117.036 256.229 117.17C256.901 117.304 257.597 117.235 258.23 116.973C258.862 116.711 259.403 116.267 259.784 115.697C260.164 115.128 260.367 114.458 260.367 113.773C260.367 112.855 260.002 111.974 259.353 111.325C258.704 110.675 257.823 110.311 256.904 110.311ZM256.904 116.302C256.404 116.302 255.915 116.154 255.5 115.876C255.084 115.598 254.76 115.203 254.568 114.741C254.377 114.279 254.327 113.771 254.424 113.28C254.522 112.79 254.763 112.339 255.116 111.986C255.47 111.632 255.921 111.391 256.411 111.294C256.902 111.196 257.41 111.246 257.872 111.437C258.334 111.629 258.729 111.953 259.007 112.369C259.285 112.785 259.433 113.273 259.433 113.773C259.433 114.444 259.166 115.087 258.692 115.561C258.218 116.036 257.575 116.302 256.904 116.302Z" fill="white" stroke="#263238" stroke-width="0.425709" stroke-miterlimit="10"/>
<path d="M246.045 91.1005L228.263 99.6388C228.263 99.6388 222.574 95.5162 222.574 91.5265C222.574 87.5367 231.965 79.1588 240.64 78.5816C249.316 78.0045 251.739 79.8642 254.158 81.7102C256.576 83.5562 264.258 89.9553 263.264 94.6596C262.27 99.3639 258.569 103.051 258.569 103.051C258.569 103.051 258.427 100.349 256.86 101.059C255.294 101.769 255.578 103.908 254.442 103.766C253.306 103.624 252.609 101.476 252.609 101.476C252.609 101.476 245.477 95.2276 246.045 91.1005Z" fill="#263238" stroke="#263238" stroke-width="0.425709" stroke-miterlimit="10"/>
<path d="M316.365 162.92H256.656V204.521H316.365V162.92Z" fill="#6E6E6E" stroke="#263238" stroke-width="0.425709" stroke-linecap="round" stroke-linejoin="round"/>
<path d="M313.337 168.5H259.68V204.522H313.337V168.5Z" fill="white" stroke="#263238" stroke-width="0.425709" stroke-linecap="round" stroke-linejoin="round"/>
<path d="M295.233 186.51H277.781V204.521H295.233V186.51Z" fill="#6E6E6E" stroke="#263238" stroke-width="0.425709" stroke-linecap="round" stroke-linejoin="round"/>
<path d="M259.679 168.499L256.656 162.92H316.365L313.337 168.499H259.679Z" fill="#D1D1D1" stroke="#263238" stroke-width="0.425709" stroke-linecap="round" stroke-linejoin="round"/>
<path d="M194.255 208.197H167.243L164.398 174.836H191.41L194.255 208.197Z" fill="white" stroke="#263238" stroke-width="0.425709" stroke-miterlimit="10"/>
<path d="M188.781 208.196H161.77L164.82 168.803H191.832L188.781 208.196Z" fill="white" stroke="#263238" stroke-width="0.425709" stroke-miterlimit="10"/>
<path d="M167.734 175.716C167.513 175.725 167.294 175.672 167.102 175.565C166.933 175.458 166.806 175.296 166.744 175.107C166.667 174.877 166.636 174.634 166.653 174.392L167.335 174.264C167.326 174.409 167.333 174.555 167.358 174.699C167.375 174.807 167.421 174.908 167.491 174.992C167.564 175.062 167.66 175.101 167.761 175.101C167.862 175.101 167.959 175.062 168.031 174.992C168.093 174.908 168.128 174.807 168.132 174.703C168.154 174.545 168.121 174.384 168.041 174.245C167.954 174.113 167.851 173.991 167.734 173.883L167.23 173.425C167.095 173.302 166.985 173.154 166.905 172.99C166.822 172.803 166.79 172.598 166.813 172.395C166.817 172.248 166.851 172.103 166.913 171.969C166.974 171.835 167.062 171.715 167.17 171.616C167.403 171.425 167.699 171.327 167.999 171.341C168.169 171.333 168.338 171.365 168.494 171.433C168.616 171.487 168.72 171.577 168.792 171.689C168.864 171.803 168.915 171.929 168.943 172.06C168.973 172.211 168.986 172.365 168.98 172.518L168.306 172.633C168.318 172.514 168.318 172.394 168.306 172.276C168.298 172.185 168.263 172.099 168.206 172.028C168.173 171.996 168.134 171.972 168.092 171.956C168.049 171.94 168.004 171.934 167.958 171.937C167.907 171.934 167.855 171.943 167.808 171.963C167.76 171.983 167.718 172.013 167.683 172.051C167.614 172.13 167.573 172.23 167.569 172.335C167.553 172.458 167.574 172.582 167.628 172.693C167.694 172.798 167.774 172.894 167.867 172.977L168.361 173.435C168.527 173.583 168.666 173.758 168.774 173.952C168.887 174.176 168.933 174.427 168.906 174.676C168.892 174.868 168.83 175.054 168.728 175.216C168.628 175.374 168.489 175.503 168.325 175.592C168.141 175.682 167.938 175.725 167.734 175.716Z" fill="black"/>
<path d="M170.422 175.715C170.169 175.732 169.917 175.668 169.703 175.532C169.535 175.409 169.416 175.23 169.368 175.028C169.313 174.786 169.296 174.538 169.318 174.291L169.437 172.765C169.453 172.505 169.509 172.248 169.602 172.005C169.681 171.799 169.826 171.625 170.014 171.51C170.242 171.383 170.501 171.322 170.761 171.336C170.997 171.323 171.233 171.373 171.443 171.483C171.601 171.581 171.717 171.734 171.769 171.913C171.826 172.125 171.844 172.345 171.824 172.564L171.796 172.921H171.045L171.072 172.555C171.081 172.445 171.081 172.335 171.072 172.225C171.072 172.14 171.043 172.058 170.99 171.991C170.953 171.958 170.909 171.933 170.862 171.918C170.815 171.903 170.764 171.898 170.715 171.904C170.607 171.898 170.499 171.93 170.413 171.996C170.346 172.065 170.299 172.15 170.275 172.243C170.25 172.359 170.233 172.477 170.225 172.596L170.078 174.456C170.064 174.582 170.064 174.709 170.078 174.836C170.087 174.924 170.127 175.005 170.193 175.065C170.269 175.118 170.361 175.144 170.454 175.138C170.505 175.144 170.557 175.138 170.606 175.122C170.655 175.107 170.7 175.081 170.738 175.046C170.801 174.979 170.844 174.895 170.862 174.804C170.885 174.69 170.9 174.576 170.907 174.46L170.94 174.075H171.686V174.414C171.67 174.646 171.617 174.873 171.53 175.088C171.452 175.276 171.318 175.436 171.146 175.546C170.925 175.669 170.674 175.728 170.422 175.715Z" fill="black"/>
<path d="M171.898 175.655L173.085 171.381H173.918L174.441 175.655H173.722L173.625 174.67H172.883L172.631 175.655H171.898ZM173.002 174.17H173.58L173.428 172.379L173.002 174.17Z" fill="black"/>
<path d="M174.852 175.655L175.181 171.381H175.726L176.578 173.818L176.766 171.381H177.412L177.078 175.655H176.56L175.713 173.103L175.516 175.655H174.852Z" fill="black"/>
<path d="M179.02 175.655L179.354 171.381H180.128L179.991 173.172H180.861L180.998 171.381H181.782L181.447 175.655H180.669L180.815 173.726H179.945L179.798 175.655H179.02Z" fill="black"/>
<path d="M182.102 175.655L182.431 171.381H184.227L184.186 171.931H183.173L183.077 173.158H183.874L183.833 173.703H183.036L182.926 175.119H183.948L183.906 175.655H182.102Z" fill="black"/>
<path d="M184.359 175.656L184.694 171.382H185.715C185.96 171.375 186.205 171.409 186.439 171.483C186.62 171.543 186.772 171.668 186.865 171.835C186.966 172.046 187.002 172.282 186.97 172.513C186.959 172.669 186.93 172.823 186.883 172.971C186.847 173.101 186.783 173.222 186.695 173.324C186.605 173.425 186.492 173.502 186.366 173.548L186.801 175.651H186.018L185.651 173.695H185.294L185.143 175.651L184.359 175.656ZM185.33 173.209H185.573C185.699 173.215 185.824 173.191 185.94 173.141C186.034 173.099 186.109 173.024 186.15 172.93C186.201 172.812 186.23 172.687 186.237 172.559C186.265 172.394 186.236 172.224 186.155 172.078C186.1 172.013 186.029 171.963 185.948 171.934C185.868 171.905 185.781 171.898 185.697 171.913H185.413L185.33 173.209Z" fill="black"/>
<path d="M187.309 175.655L187.643 171.381H189.434L189.393 171.931H188.38L188.284 173.158H189.081L189.04 173.703H188.243L188.133 175.119H189.159L189.113 175.655H187.309Z" fill="black"/>
<path d="M169.132 205.549L169.421 201.853H168.738L168.784 201.275H170.914L170.873 201.853H170.2L169.916 205.549H169.132Z" fill="black"/>
<path d="M172.109 205.608C171.861 205.622 171.614 205.563 171.399 205.438C171.228 205.324 171.104 205.151 171.051 204.953C170.988 204.709 170.97 204.456 170.996 204.206L171.119 202.608C171.133 202.352 171.192 202.101 171.293 201.865C171.381 201.671 171.529 201.511 171.715 201.407C171.94 201.288 172.193 201.231 172.448 201.243C172.698 201.228 172.948 201.285 173.167 201.407C173.334 201.513 173.458 201.676 173.515 201.865C173.583 202.107 173.605 202.358 173.579 202.608L173.455 204.211C173.439 204.467 173.379 204.718 173.277 204.953C173.187 205.152 173.04 205.321 172.855 205.438C172.627 205.562 172.368 205.621 172.109 205.608ZM172.155 205.035C172.259 205.041 172.363 205.01 172.448 204.948C172.519 204.888 172.569 204.806 172.59 204.715C172.622 204.61 172.642 204.503 172.649 204.394L172.8 202.424C172.812 202.318 172.812 202.21 172.8 202.104C172.793 202.019 172.756 201.939 172.695 201.879C172.616 201.817 172.516 201.788 172.416 201.797C172.313 201.791 172.211 201.82 172.127 201.879C172.057 201.937 172.007 202.016 171.985 202.104C171.954 202.208 171.934 202.316 171.926 202.424L171.774 204.394C171.763 204.501 171.763 204.608 171.774 204.715C171.781 204.803 171.818 204.885 171.88 204.948C171.957 205.011 172.055 205.042 172.155 205.035Z" fill="black"/>
<path d="M175.203 205.548L175.538 201.275H176.793C177.006 201.265 177.218 201.314 177.406 201.417C177.56 201.513 177.674 201.66 177.727 201.833C177.793 202.045 177.815 202.268 177.791 202.488C177.782 202.726 177.714 202.957 177.594 203.162C177.495 203.327 177.346 203.457 177.168 203.533C176.974 203.615 176.765 203.656 176.554 203.652H176.133L175.986 205.548H175.203ZM176.174 203.102H176.472C176.586 203.106 176.7 203.085 176.806 203.043C176.889 203.002 176.953 202.932 176.985 202.846C177.026 202.729 177.051 202.607 177.058 202.484C177.07 202.359 177.07 202.233 177.058 202.108C177.053 202.065 177.038 202.023 177.015 201.986C176.993 201.949 176.962 201.917 176.925 201.893C176.816 201.839 176.694 201.815 176.573 201.824H176.28L176.174 203.102Z" fill="black"/>
<path d="M177.547 205.549L178.733 201.275H179.585L180.107 205.549H179.384L179.292 204.564H178.532L178.28 205.549H177.547ZM178.646 204.07H179.228L179.077 202.274L178.646 204.07Z" fill="black"/>
<path d="M180.958 205.549L181.086 203.918L180.422 201.275H181.15L181.549 202.97L182.176 201.275H182.886L181.828 203.918L181.7 205.549H180.958Z" fill="black"/>
<path d="M174.895 194.29C174.932 193.772 174.973 193.25 175.014 192.728H175.788C175.788 192.462 175.83 192.206 175.848 191.945H175.074L175.133 191.166H176.695C176.718 190.9 176.737 190.644 176.76 190.387H177.534C177.534 190.648 177.497 190.905 177.474 191.161H178.257C178.299 190.639 178.335 190.122 178.376 189.604H180.717C180.717 189.861 180.676 190.122 180.658 190.383H181.413C181.413 190.122 181.455 189.865 181.473 189.604H180.699L180.758 188.821H179.215C179.256 188.299 179.297 187.786 179.334 187.268H176.993C176.993 187.529 176.952 187.786 176.934 188.047H175.381C175.34 188.569 175.298 189.082 175.257 189.609H176.031C176.031 189.87 175.99 190.126 175.972 190.387H175.198C175.175 190.653 175.156 190.91 175.133 191.166H174.355C174.378 190.905 174.396 190.648 174.414 190.387H172.078C172.078 190.122 172.115 189.87 172.138 189.609H174.474L174.932 183.365H175.715C175.656 184.116 175.601 184.868 175.541 185.619V185.701H176.32C176.356 185.188 176.398 184.671 176.439 184.149H177.218C177.176 184.666 177.135 185.184 177.098 185.711H177.877C177.877 185.967 177.841 186.228 177.818 186.489H181.72C181.72 186.755 181.679 187.007 181.656 187.268H182.44L182.38 188.056H181.606C181.606 188.321 181.565 188.578 181.546 188.839H182.33C182.288 189.357 182.247 189.874 182.206 190.401H182.989C182.948 190.919 182.907 191.436 182.866 191.963H182.101C182.059 192.485 182.023 192.998 181.981 193.525H182.756L182.696 194.304H184.253C184.231 194.565 184.212 194.821 184.194 195.082H181.872L181.748 196.64H180.955C180.978 196.388 180.997 196.131 181.02 195.866H179.453C179.453 195.609 179.494 195.353 179.517 195.087H178.738C178.738 194.826 178.775 194.569 178.798 194.308H180.351L180.41 193.53H176.517L176.457 194.304H174.895V194.29ZM179.755 191.949C179.755 191.693 179.796 191.432 179.815 191.175H179.041C179.018 191.436 178.999 191.693 178.981 191.949H179.755C179.755 192.21 179.719 192.467 179.696 192.728H181.253C181.253 192.467 181.29 192.21 181.313 191.949H179.755ZM178.207 191.977H177.433C177.433 192.238 177.392 192.494 177.373 192.751H178.147C178.152 192.467 178.17 192.215 178.207 191.977ZM180.076 188.065H180.845C180.845 187.804 180.887 187.547 180.905 187.295H180.135C180.099 187.529 180.08 187.786 180.062 188.042L180.076 188.065Z" fill="#263238"/>
<path d="M168.539 185.701C168.683 183.869 168.823 182.052 168.96 180.25H174.416C174.272 182.064 174.132 183.881 173.995 185.701H168.539ZM169.684 181.029L169.382 184.922H173.275L173.578 181.029H169.684Z" fill="#263238"/>
<path d="M184.92 185.706H179.465C179.607 183.873 179.744 182.073 179.886 180.25H185.342C185.201 182.064 185.061 183.882 184.92 185.706ZM184.504 181.029H180.61L180.308 184.922H184.201L184.504 181.029Z" fill="#263238"/>
<path d="M168.131 191.17H173.587L173.17 196.625H167.719C167.841 194.812 167.978 192.993 168.131 191.17ZM172.712 191.976H168.818L168.516 195.87H172.409L172.712 191.976Z" fill="#263238"/>
<path d="M175.741 183.369C175.782 182.852 175.823 182.334 175.865 181.807H175.086C175.127 181.285 175.164 180.772 175.205 180.25H179.099C179.057 180.768 179.021 181.281 178.979 181.803H178.21C178.187 182.064 178.169 182.32 178.146 182.586H178.92C178.879 183.108 178.837 183.621 178.801 184.144H178.022C178.022 183.887 178.063 183.631 178.082 183.369H177.294C177.317 183.108 177.335 182.852 177.353 182.591H176.575C176.575 182.843 176.538 183.099 176.515 183.365H175.732L175.741 183.369ZM176.657 181.803H177.431C177.431 181.542 177.472 181.285 177.491 181.029H176.721C176.685 181.285 176.666 181.542 176.643 181.803H176.657Z" fill="#263238"/>
<path d="M172.312 187.268C172.312 187.524 172.275 187.781 172.253 188.046H173.81C173.81 188.307 173.773 188.564 173.75 188.825H171.414C171.373 189.347 171.336 189.865 171.295 190.387H168.176L168.299 188.834H169.069C169.069 189.091 169.032 189.343 169.009 189.604H170.576L170.755 187.268H172.312Z" fill="#263238"/>
<path d="M174.894 194.289C174.894 194.546 174.858 194.802 174.835 195.068H175.613C175.613 195.329 175.572 195.585 175.554 195.846H176.332C176.332 196.112 176.291 196.369 176.273 196.63H173.941C174.001 195.851 174.061 195.077 174.12 194.289H174.894Z" fill="#263238"/>
<path d="M170.755 187.266H169.198C169.175 187.527 169.156 187.784 169.138 188.045H168.359C168.401 187.527 168.437 187.014 168.478 186.492H170.815L170.755 187.266Z" fill="#263238"/>
<path d="M184.675 188.824H183.901C183.942 188.307 183.979 187.794 184.02 187.272H183.246C183.269 187.006 183.287 186.749 183.31 186.488H184.858L184.675 188.824Z" fill="#263238"/>
<path d="M172.32 187.266L172.38 186.492H173.937C173.914 186.749 173.896 187.001 173.873 187.266H172.32Z" fill="#263238"/>
<path d="M183 190.392L183.06 189.613H183.834C183.834 189.87 183.797 190.126 183.774 190.387H183V190.392Z" fill="#263238"/>
<path d="M183.708 191.17H184.478C184.478 191.431 184.441 191.683 184.418 191.944H183.648C183.708 191.688 183.708 191.436 183.708 191.17Z" fill="#263238"/>
<path d="M177.902 185.71L177.962 184.932H178.736C178.736 185.188 178.695 185.445 178.676 185.706H177.902V185.71Z" fill="#263238"/>
<path d="M175.001 192.728H174.223C174.246 192.471 174.264 192.215 174.287 191.949H175.061C175.038 192.21 175.02 192.471 175.001 192.733V192.728Z" fill="#263238"/>
<path d="M182.758 193.51C182.781 193.254 182.799 192.997 182.817 192.736H183.596C183.573 192.988 183.555 193.245 183.537 193.51H182.758Z" fill="#263238"/>
<path d="M182.401 188.049H183.175C183.175 188.306 183.138 188.563 183.115 188.828H182.332C182.332 188.567 182.373 188.306 182.392 188.045L182.401 188.049Z" fill="#263238"/>
<path d="M177.891 195.846H177.117C177.117 195.589 177.158 195.333 177.177 195.076H177.951C177.928 195.328 177.91 195.585 177.891 195.846Z" fill="#263238"/>
<path d="M179.455 195.852C179.455 196.108 179.414 196.365 179.395 196.626H178.621C178.621 196.369 178.658 196.117 178.681 195.852H179.455Z" fill="#263238"/>
<path d="M184.074 196.63H183.305C183.305 196.369 183.341 196.117 183.364 195.855H184.134C184.115 196.098 184.097 196.369 184.074 196.63Z" fill="#263238"/>
<path d="M178.38 189.608H177.605C177.605 189.352 177.642 189.095 177.665 188.834H178.439C178.439 189.09 178.398 189.352 178.38 189.608Z" fill="#263238"/>
<path d="M172.554 184.144H170.223C170.282 183.365 170.342 182.591 170.406 181.812H172.737C172.678 182.587 172.618 183.361 172.554 184.144Z" fill="#263238"/>
<path d="M181.145 184.143L181.323 181.807H183.659L183.476 184.143H181.145Z" fill="#263238"/>
<path d="M169.379 195.069L169.558 192.732H171.889L171.71 195.069H169.379Z" fill="#263238"/>
<path d="M171.37 178.4H167.957L167.664 182.17" stroke="#2F945A" stroke-width="0.425709" stroke-miterlimit="10"/>
<path d="M183.793 178.4H187.21L186.917 182.17" stroke="#2F945A" stroke-width="0.425709" stroke-miterlimit="10"/>
<path d="M169.835 198.246H166.418L166.711 194.477" stroke="#2F945A" stroke-width="0.425709" stroke-miterlimit="10"/>
<path d="M182.258 198.246H185.67L185.964 194.477" stroke="#2F945A" stroke-width="0.425709" stroke-miterlimit="10"/>
<path d="M145.265 166.867C145.265 166.867 148.929 162.625 149.58 162.309C150.23 161.993 158.81 157.797 158.81 157.797L156.418 169.94L143.281 176.046L145.265 166.867Z" fill="white" stroke="#263238" stroke-width="0.425709" stroke-miterlimit="10"/>
<path d="M174.023 144.843L162.357 142.685C161.407 142.51 160.494 143.138 160.318 144.088L155.159 171.982C154.983 172.933 155.611 173.846 156.561 174.021L168.227 176.179C169.177 176.355 170.09 175.727 170.266 174.777L175.426 146.882C175.601 145.932 174.974 145.019 174.023 144.843Z" fill="white" stroke="#263238" stroke-width="0.425709" stroke-miterlimit="10"/>
<path d="M163.843 161.785L164.049 160.695L164.54 160.791C164.576 160.603 164.608 160.424 164.645 160.246L164.155 160.149C164.187 159.966 164.224 159.783 164.256 159.6L165.245 159.788C165.282 159.604 165.314 159.426 165.346 159.247L165.841 159.339C165.808 159.522 165.772 159.701 165.74 159.879L166.234 159.971L166.436 158.885H166.5L167.92 159.151C167.883 159.334 167.851 159.513 167.815 159.696L168.305 159.788C168.342 159.604 168.374 159.426 168.41 159.247L167.916 159.155C167.952 158.972 167.984 158.794 168.021 158.606L167.031 158.418L167.238 157.332L165.758 157.071C165.721 157.255 165.689 157.433 165.653 157.616L164.672 157.429L164.466 158.519L164.952 158.61C164.92 158.794 164.883 158.972 164.851 159.155L164.361 159.064C164.324 159.247 164.292 159.426 164.256 159.609L163.765 159.513C163.798 159.33 163.83 159.151 163.866 158.968L162.387 158.688C162.419 158.505 162.455 158.326 162.487 158.143L163.967 158.423L164.792 154.066L165.286 154.158C165.185 154.68 165.089 155.207 164.989 155.729V155.789L165.479 155.88L165.685 154.799L166.179 154.891L165.973 155.981L166.468 156.073C166.431 156.251 166.399 156.43 166.363 156.618L168.832 157.076C168.8 157.259 168.763 157.438 168.731 157.616L169.226 157.713C169.189 157.9 169.157 158.079 169.12 158.262L168.63 158.171C168.593 158.354 168.561 158.533 168.529 158.716L169.019 158.812L168.813 159.902L169.308 159.998C169.239 160.356 169.175 160.717 169.102 161.084L168.612 160.992L168.406 162.083L168.9 162.179C168.868 162.362 168.836 162.541 168.8 162.724L169.784 162.912C169.752 163.095 169.716 163.273 169.684 163.457L168.204 163.173L167.998 164.263L167.503 164.171C167.54 163.993 167.572 163.814 167.609 163.626L166.619 163.438C166.651 163.26 166.688 163.077 166.72 162.893L166.23 162.802C166.267 162.618 166.299 162.44 166.331 162.257L167.315 162.44C167.352 162.257 167.384 162.078 167.416 161.899L164.956 161.441C164.92 161.62 164.888 161.799 164.851 161.982L163.862 161.794L163.843 161.785ZM167.114 160.713C167.151 160.534 167.183 160.351 167.219 160.172L166.729 160.076C166.692 160.259 166.66 160.438 166.624 160.617L167.119 160.713C167.082 160.892 167.05 161.075 167.013 161.253L167.998 161.441C168.03 161.258 168.067 161.079 168.099 160.901L167.114 160.713ZM166.124 160.53L165.639 160.433C165.602 160.617 165.57 160.795 165.534 160.974L166.024 161.066C166.056 160.887 166.092 160.708 166.124 160.53ZM167.632 157.987L168.122 158.079C168.158 157.896 168.19 157.717 168.222 157.539L167.737 157.447C167.7 157.621 167.668 157.804 167.632 157.987Z" fill="#263238"/>
<path d="M160.531 154.945C160.772 153.675 161.012 152.406 161.25 151.139L164.704 151.794C164.461 153.063 164.246 154.327 163.98 155.6L160.531 154.945ZM161.644 151.775C161.47 152.691 161.301 153.608 161.131 154.496L163.591 154.954C163.765 154.038 163.935 153.122 164.109 152.233L161.644 151.775Z" fill="#263238"/>
<path d="M170.903 156.911L167.449 156.247C167.692 154.973 167.93 153.709 168.168 152.436L171.622 153.091C171.379 154.373 171.141 155.637 170.903 156.911ZM171.027 153.553L168.562 153.095C168.388 154.011 168.217 154.918 168.049 155.816L170.514 156.274C170.685 155.367 170.856 154.46 171.027 153.553Z" fill="#263238"/>
<path d="M159.802 158.768L163.251 159.423C163.013 160.691 162.77 161.96 162.532 163.229L159.078 162.579C159.344 161.31 159.573 160.041 159.802 158.768ZM162.656 159.876L160.191 159.418C160.017 160.334 159.846 161.24 159.678 162.134L162.138 162.592C162.326 161.685 162.495 160.783 162.669 159.876H162.656Z" fill="#263238"/>
<path d="M165.3 154.158L165.506 153.068L165.016 152.976C165.084 152.61 165.153 152.252 165.222 151.891L167.686 152.349L167.48 153.434L166.99 153.343C166.958 153.526 166.921 153.705 166.889 153.888L167.375 153.979L167.169 155.07L166.678 154.973C166.715 154.795 166.747 154.616 166.784 154.433L166.289 154.341L166.39 153.796L165.9 153.705C165.863 153.883 165.831 154.062 165.794 154.245L165.3 154.153V154.158ZM166 153.159L166.491 153.251C166.527 153.068 166.559 152.889 166.591 152.711L166.106 152.619L166 153.159Z" fill="#263238"/>
<path d="M162.791 156.508C162.759 156.687 162.722 156.865 162.69 157.053L163.675 157.241C163.643 157.42 163.606 157.598 163.574 157.782L162.094 157.502L161.888 158.592L159.914 158.217L160.12 157.136L160.61 157.227L160.51 157.763L161.499 157.951C161.6 157.411 161.705 156.865 161.806 156.32L162.795 156.508H162.791Z" fill="#263238"/>
<path d="M163.844 161.787C163.812 161.966 163.775 162.149 163.743 162.332L164.233 162.424C164.201 162.607 164.165 162.786 164.132 162.969L164.623 163.06C164.591 163.248 164.554 163.427 164.522 163.605L163.047 163.326C163.148 162.786 163.248 162.245 163.354 161.695L163.844 161.787Z" fill="#263238"/>
<path d="M161.807 156.32L160.822 156.132C160.785 156.315 160.753 156.494 160.717 156.677L160.227 156.581L160.433 155.5L161.908 155.779C161.876 155.958 161.839 156.141 161.807 156.32Z" fill="#263238"/>
<path d="M170.49 159.091L170 159C170.068 158.638 170.132 158.276 170.201 157.914L169.711 157.818C169.748 157.635 169.78 157.456 169.812 157.277L170.797 157.461C170.691 158.006 170.59 158.537 170.49 159.091Z" fill="#263238"/>
<path d="M162.801 156.509C162.834 156.331 162.866 156.152 162.902 155.969L163.887 156.157C163.85 156.331 163.818 156.514 163.782 156.697L162.797 156.509H162.801Z" fill="#263238"/>
<path d="M169.298 159.998C169.33 159.82 169.362 159.636 169.398 159.453L169.888 159.549C169.856 159.728 169.82 159.907 169.788 160.09L169.293 159.998H169.298Z" fill="#263238"/>
<path d="M169.683 160.641L170.173 160.732C170.136 160.911 170.104 161.09 170.072 161.273L169.582 161.177C169.614 160.998 169.651 160.828 169.683 160.641Z" fill="#263238"/>
<path d="M166.457 156.074L166.558 155.533L167.053 155.625C167.016 155.803 166.984 155.982 166.947 156.165L166.457 156.074Z" fill="#263238"/>
<path d="M164.045 160.695L163.555 160.604C163.587 160.42 163.623 160.242 163.655 160.059L164.15 160.155C164.114 160.338 164.077 160.521 164.045 160.7V160.695Z" fill="#263238"/>
<path d="M168.887 162.201C168.919 162.018 168.952 161.839 168.988 161.656L169.478 161.752C169.446 161.927 169.41 162.105 169.378 162.293L168.883 162.197L168.887 162.201Z" fill="#263238"/>
<path d="M169.109 158.271L169.599 158.362C169.567 158.541 169.535 158.72 169.498 158.908L169.008 158.811L169.109 158.262V158.271Z" fill="#263238"/>
<path d="M165.611 163.245L165.121 163.154C165.153 162.975 165.19 162.797 165.222 162.613L165.712 162.705C165.68 162.884 165.643 163.062 165.611 163.245Z" fill="#263238"/>
<path d="M166.603 163.433C166.567 163.617 166.535 163.795 166.498 163.979L166.008 163.887C166.044 163.708 166.077 163.53 166.113 163.342L166.603 163.438V163.433Z" fill="#263238"/>
<path d="M169.46 164.542L168.965 164.446C168.997 164.267 169.034 164.089 169.066 163.91L169.556 164.002C169.524 164.18 169.492 164.359 169.46 164.542Z" fill="#263238"/>
<path d="M166.435 158.89L165.945 158.798C165.982 158.615 166.014 158.436 166.051 158.258L166.541 158.349C166.504 158.528 166.472 158.711 166.435 158.89Z" fill="#263238"/>
<path d="M163.205 154.328L161.73 154.049C161.831 153.504 161.932 152.963 162.037 152.418L163.512 152.697C163.412 153.238 163.306 153.783 163.205 154.328Z" fill="#263238"/>
<path d="M168.641 155.355C168.741 154.81 168.847 154.269 168.948 153.729L170.422 154.008C170.322 154.548 170.216 155.089 170.116 155.634L168.641 155.355Z" fill="#263238"/>
<path d="M160.289 161.676C160.39 161.131 160.491 160.59 160.596 160.045L162.071 160.324C161.97 160.865 161.865 161.41 161.764 161.955L160.289 161.676Z" fill="#263238"/>
<path d="M162.935 150.123L160.773 149.711L160.273 152.345" stroke="#2F945A" stroke-width="0.425709" stroke-miterlimit="10"/>
<path d="M170.797 151.611L172.954 152.019L172.46 154.648" stroke="#2F945A" stroke-width="0.425709" stroke-miterlimit="10"/>
<path d="M160.31 163.979L158.152 163.567L158.647 160.938" stroke="#2F945A" stroke-width="0.425709" stroke-miterlimit="10"/>
<path d="M168.168 165.468L170.33 165.875L170.829 163.246" stroke="#2F945A" stroke-width="0.425709" stroke-miterlimit="10"/>
<path d="M175.033 149.075L175.436 146.881C175.479 146.655 175.477 146.423 175.43 146.198C175.383 145.973 175.291 145.759 175.161 145.57C175.03 145.38 174.864 145.218 174.671 145.094C174.477 144.969 174.261 144.884 174.035 144.843L162.368 142.685C161.912 142.601 161.441 142.701 161.059 142.964C160.676 143.227 160.414 143.631 160.33 144.087L159.922 146.281L175.033 149.075Z" fill="#263238" stroke="#263238" stroke-width="0.425709" stroke-miterlimit="10"/>
<path d="M155.425 170.625L155.173 171.976C155.131 172.204 155.135 172.438 155.185 172.664C155.234 172.89 155.327 173.104 155.46 173.294C155.592 173.484 155.761 173.646 155.956 173.771C156.152 173.895 156.369 173.979 156.598 174.019L168.264 176.177C168.491 176.218 168.723 176.215 168.948 176.167C169.173 176.119 169.386 176.027 169.575 175.896C169.764 175.766 169.926 175.599 170.051 175.406C170.176 175.213 170.261 174.997 170.303 174.77L170.555 173.396L155.425 170.625Z" fill="#263238" stroke="#263238" stroke-width="0.425709" stroke-miterlimit="10"/>
<path d="M151.631 165.293C151.631 165.293 155.717 165.902 156.977 166.136C158.236 166.369 163.289 164.844 163.719 165.646C164.15 166.447 163.522 167.478 162.345 168.289C161.168 169.099 156.39 169.938 156.39 169.938C155.363 171.582 153.805 172.827 151.975 173.465C149.057 174.381 144.453 174.244 144.453 174.244" fill="white"/>
<path d="M151.631 165.293C151.631 165.293 155.717 165.902 156.977 166.136C158.236 166.369 163.289 164.844 163.719 165.646C164.15 166.447 163.522 167.478 162.345 168.289C161.168 169.099 156.39 169.938 156.39 169.938C155.363 171.582 153.805 172.827 151.975 173.465C149.057 174.381 144.453 174.244 144.453 174.244" stroke="#263238" stroke-width="0.425709" stroke-miterlimit="10"/>
<path d="M84.9363 220.467H153.646C153.811 218.228 154.401 206.377 150.054 190.267C145.217 172.339 145.217 154.997 145.217 154.997C145.217 154.997 148.492 147.599 144.365 141.479C140.238 135.359 134.815 133.623 134.815 133.623C134.815 133.623 105.1 124.407 99.5439 125.117C99.5439 125.117 85.6005 136.926 84.4645 137.641C83.3285 138.355 80.1953 143.188 80.1953 146.032C80.1953 148.877 85.7425 188.857 86.457 193.978C87.1166 198.682 85.2386 217.522 84.9363 220.467Z" fill="#2F945A" stroke="#263238" stroke-width="0.425709" stroke-miterlimit="10"/>
<path d="M94.4258 150.43C94.4258 150.43 99.9729 172.055 105.809 179.879" stroke="#263238" stroke-width="0.425709" stroke-miterlimit="10"/>
<path d="M100.254 172.623C100.254 172.623 103.808 180.021 107.794 183.438" stroke="#263238" stroke-width="0.425709" stroke-miterlimit="10"/>
<path d="M150.293 88.4539C150.293 88.4539 150.151 97.6152 149.281 98.7191C148.41 99.823 147.045 101.5 147.123 102.42C147.201 103.341 149.161 109.03 149.262 109.823C149.363 110.615 146.083 112.159 146.083 112.159C146.083 112.159 140.724 122.845 140.174 123.642C139.625 124.439 138.342 124.316 136.872 124.018C135.401 123.72 132.749 122.03 132.749 122.03L127.587 131.722C127.587 131.722 119.259 124.893 115.508 122.337C111.756 119.781 107.125 117.161 107.125 117.161L111.967 110.377C111.967 110.377 114.225 107.468 114.82 102.548C115.416 97.6289 116.726 91.042 127.037 85.9941C137.348 80.9463 147.485 86.3331 150.293 88.4539Z" fill="white" stroke="#263238" stroke-width="0.425709" stroke-miterlimit="10"/>
<path d="M142.716 88.2203C142.716 88.2203 143.242 92.7185 142.496 93.8636C141.749 95.0088 135.364 95.9295 135.341 96.6991C135.318 97.4686 135.341 101.344 134.177 101.248C133.014 101.151 132.734 101.344 132.414 101.023C132.093 100.703 132.734 97.4686 130.05 97.9679C127.366 98.4672 124.883 102.494 124.934 104.839C124.984 107.184 127.1 108.884 127.1 108.884C127.1 108.884 126.876 110.006 122.455 111.449C118.035 112.892 112.813 111.852 111.943 110.386C111.073 108.92 108.503 90.0617 107.958 85.0459C107.413 80.0302 111.576 70.7819 118.855 68.6152C126.134 66.4486 134.681 67.6396 134.681 67.6396C134.681 67.6396 139.079 65.0286 142.926 66.5677C146.774 68.1068 147.649 72.6737 147.649 72.6737C147.649 72.6737 154.804 72.4217 156.723 77.0665C158.642 81.7112 157.222 86.8553 154.717 89.0677C152.211 91.2802 147.883 88.999 145.968 88.2295C145.459 87.99 144.905 87.865 144.343 87.8634C143.781 87.8619 143.225 87.9837 142.716 88.2203Z" fill="#1F212C" stroke="#263238" stroke-width="0.425709" stroke-miterlimit="10"/>
<path d="M149.265 98.7048C149.265 98.7048 147.176 96.2175 144.867 98.7323" stroke="#263238" stroke-width="0.425709" stroke-miterlimit="10"/>
<path d="M146.057 101.999C145.91 102.718 145.489 103.24 145.113 103.167C144.738 103.093 144.545 102.443 144.687 101.724C144.829 101.005 145.255 100.482 145.631 100.556C146.007 100.629 146.181 101.279 146.057 101.999Z" fill="#263238"/>
<path d="M142.857 114.734C142.857 114.734 141.194 115.306 139.824 113.094" stroke="#263238" stroke-width="0.425709" stroke-miterlimit="10"/>
<path d="M132.743 122.017C131.668 120.966 130.778 119.741 130.11 118.393C129.193 116.405 128.277 114.541 128.277 114.541C128.277 114.541 128.378 121.797 128.653 123.661C128.883 125.003 129.225 126.324 129.674 127.61L132.743 122.017Z" fill="#263238" stroke="#263238" stroke-width="0.425709" stroke-miterlimit="10"/>
<path d="M103.523 119.926C103.523 119.926 105.168 116.885 106.057 116.761C106.945 116.637 121.003 120.178 124.173 121.955C127.343 123.733 130.508 128.162 130.508 128.162L103.523 119.926Z" fill="white" stroke="#263238" stroke-width="0.425709" stroke-miterlimit="10"/>
<path d="M103 118.787C103 118.787 110.979 120.816 119.467 123.368C127.955 125.919 131.505 128.562 132.013 129.323C132.522 130.083 134.799 133.628 134.799 133.628C134.799 133.628 127.703 132.254 114.401 129.194C101.099 126.134 98.4375 125.773 98.4375 125.773C98.4375 125.773 102.381 119.799 103 118.787Z" fill="#2F945A" stroke="#263238" stroke-width="0.425709" stroke-miterlimit="10"/>
<path d="M118.188 155.124C118.188 155.124 123.309 184.44 123.735 187.848C124.161 191.256 123.309 200.216 123.735 207.197C124.058 211.687 124.811 216.135 125.984 220.481H151.177C150.966 219.299 148.887 207.454 148.493 201.375C148.062 194.962 147.92 170.644 147.068 164.671C146.216 158.697 146.519 154.982 146.519 154.982C146.519 154.982 148.351 145.45 146.235 140.897C144.118 136.344 135.562 134.942 133.867 134.777" fill="#2F945A"/>
<path d="M118.188 155.124C118.188 155.124 123.309 184.44 123.735 187.848C124.161 191.256 123.309 200.216 123.735 207.197C124.058 211.687 124.811 216.135 125.984 220.481H151.177C150.966 219.299 148.887 207.454 148.493 201.375C148.062 194.962 147.92 170.644 147.068 164.671C146.216 158.697 146.519 154.982 146.519 154.982C146.519 154.982 148.351 145.45 146.235 140.897C144.118 136.344 135.562 134.942 133.867 134.777" stroke="#263238" stroke-width="0.425709" stroke-miterlimit="10"/>
<path d="M130.244 139.037C130.244 139.037 123.158 144.364 121.367 155.019L130.244 139.037Z" fill="#2F945A"/>
<path d="M130.244 139.037C130.244 139.037 123.158 144.364 121.367 155.019" stroke="#263238" stroke-width="0.425709" stroke-miterlimit="10"/>
<path d="M76 48.125H148C159.046 48.125 168 57.0793 168 68.125V136.125" stroke="#BFDECC" stroke-dasharray="6 6"/>
</g>
<rect x="30.168" y="30.625" width="43" height="43" rx="21.5" fill="white"/>
<rect x="30.168" y="30.625" width="43" height="43" rx="21.5" stroke="#2F945A"/>
<path d="M45.9757 61.6249C45.477 61.6249 45.051 61.4483 44.6978 61.0951C44.3446 60.7419 44.168 60.3159 44.168 59.8172V50.4327C44.168 49.9339 44.3446 49.508 44.6978 49.1548C45.051 48.8016 45.477 48.6249 45.9757 48.6249H47.168V46.6249C47.168 45.3762 47.6058 44.3141 48.4814 43.4385C49.3571 42.5628 50.4192 42.125 51.6679 42.125C52.9166 42.125 53.9788 42.5628 54.8545 43.4385C55.7301 44.3141 56.1679 45.3762 56.1679 46.6249V48.6249H57.3602C57.8589 48.6249 58.2849 48.8016 58.6381 49.1548C58.9913 49.508 59.1679 49.9339 59.1679 50.4327V59.8172C59.1679 60.3159 58.9913 60.7419 58.6381 61.0951C58.2849 61.4483 57.8589 61.6249 57.3602 61.6249H45.9757ZM45.9757 60.1249H57.3602C57.45 60.1249 57.5237 60.0961 57.5814 60.0384C57.6391 59.9807 57.6679 59.9069 57.6679 59.8172V50.4327C57.6679 50.3429 57.6391 50.2692 57.5814 50.2115C57.5237 50.1538 57.45 50.1249 57.3602 50.1249H45.9757C45.8859 50.1249 45.8122 50.1538 45.7545 50.2115C45.6968 50.2692 45.6679 50.3429 45.6679 50.4327V59.8172C45.6679 59.9069 45.6968 59.9807 45.7545 60.0384C45.8122 60.0961 45.8859 60.1249 45.9757 60.1249ZM51.6679 56.8749C52.1538 56.8749 52.567 56.7047 52.9073 56.3643C53.2477 56.024 53.4179 55.6108 53.4179 55.1249C53.4179 54.639 53.2477 54.2259 52.9073 53.8855C52.567 53.5451 52.1538 53.375 51.6679 53.375C51.182 53.375 50.7689 53.5451 50.4285 53.8855C50.0882 54.2259 49.918 54.639 49.918 55.1249C49.918 55.6108 50.0882 56.024 50.4285 56.3643C50.7689 56.7047 51.182 56.8749 51.6679 56.8749ZM48.6679 48.6249H54.6679V46.6249C54.6679 45.7916 54.3763 45.0833 53.7929 44.4999C53.2096 43.9166 52.5013 43.6249 51.6679 43.6249C50.8346 43.6249 50.1263 43.9166 49.5429 44.4999C48.9596 45.0833 48.6679 45.7916 48.6679 46.6249V48.6249Z" fill="#2F945A"/>
</g>
<defs>
<linearGradient id="paint0_linear_12717_66576" x1="197" y1="0" x2="197" y2="220" gradientUnits="userSpaceOnUse">
<stop stop-color="#F5FBFE"/>
<stop offset="1" stop-color="white" stop-opacity="0.4"/>
</linearGradient>
<clipPath id="clip0_12717_66576">
<rect width="394" height="220" fill="white" transform="translate(0 0.125)"/>
</clipPath>
<clipPath id="clip1_12717_66576">
<rect width="343.547" height="210.074" fill="white" transform="translate(25.668 10.125)"/>
</clipPath>
</defs>
</svg>
