<svg width="45" height="44" viewBox="0 0 45 44" fill="none" xmlns="http://www.w3.org/2000/svg">
<rect x="1" y="0.5" width="43" height="43" rx="21.5" fill="white"/>
<rect x="1" y="0.5" width="43" height="43" rx="21.5" stroke="#BFDECC"/>
<path d="M22.673 31.4808C21.5448 31.3439 20.4243 31.0437 19.3115 30.58C18.1987 30.1163 17.1987 29.4464 16.3115 28.5703C15.4243 27.6939 14.6971 26.5853 14.1298 25.2443C13.5626 23.9033 13.2565 22.2898 13.2115 20.404L13.1923 19.5L14.077 19.5193C14.85 19.5384 15.7009 19.6804 16.6298 19.9453C17.5586 20.2099 18.3858 20.5718 19.1115 21.0308C19.2538 19.6873 19.6359 18.2918 20.2578 16.8443C20.8796 15.3969 21.627 14.1604 22.5 13.1348C23.373 14.1604 24.1204 15.4002 24.7423 16.854C25.3641 18.3078 25.7462 19.7065 25.8885 21.05C26.5948 20.6103 27.406 20.2501 28.322 19.9693C29.238 19.6884 30.0986 19.5384 30.9038 19.5193L31.8078 19.5L31.7885 20.423C31.7628 22.1295 31.5096 23.6196 31.0288 24.8933C30.5481 26.1669 29.8994 27.2483 29.0828 28.1375C28.2661 29.0265 27.3116 29.7428 26.2193 30.2865C25.1269 30.83 23.9448 31.2281 22.673 31.4808ZM22.6423 29.95C22.4589 27.1833 21.6381 25.0917 20.1798 23.675C18.7214 22.2583 16.9089 21.3833 14.7423 21.05C14.9256 23.9 15.7714 26.025 17.2798 27.425C18.7881 28.825 20.5756 29.6667 22.6423 29.95ZM22.5 24.254C22.7372 23.8617 23.0333 23.4536 23.3885 23.0298C23.7437 22.6061 24.0975 22.2462 24.45 21.95C24.4295 20.9615 24.2484 19.9298 23.9068 18.8548C23.5651 17.7798 23.0962 16.741 22.5 15.7385C21.9038 16.741 21.4349 17.7798 21.0933 18.8548C20.7516 19.9298 20.5705 20.9615 20.55 21.95C20.9025 22.2462 21.2573 22.6061 21.6145 23.0298C21.9715 23.4536 22.2667 23.8617 22.5 24.254ZM24.1423 29.5578C24.8423 29.3256 25.5384 29.0051 26.2308 28.5963C26.9231 28.1873 27.5552 27.6488 28.127 26.9808C28.6987 26.3128 29.1775 25.4935 29.5635 24.523C29.9493 23.5525 30.1808 22.3948 30.2578 21.05C28.6654 21.2833 27.2583 21.8282 26.0365 22.6845C24.8147 23.541 23.9063 24.6103 23.3115 25.8923C23.5115 26.4256 23.6792 26.9865 23.8145 27.575C23.9497 28.1635 24.0589 28.8244 24.1423 29.5578Z" fill="#2F945A"/>
</svg>
