<svg width="25" height="24" viewBox="0 0 25 24" fill="none" xmlns="http://www.w3.org/2000/svg">
<g clip-path="url(#clip0_4121_27858)">
<path d="M18.2584 13.7909C18.2116 13.7685 16.462 12.9069 16.151 12.795C16.0241 12.7494 15.8881 12.7049 15.7435 12.7049C15.5073 12.7049 15.3088 12.8227 15.1542 13.0539C14.9794 13.3137 14.4503 13.9322 14.2868 14.117C14.2655 14.1413 14.2363 14.1705 14.2189 14.1705C14.2032 14.1705 13.9324 14.059 13.8505 14.0234C11.9736 13.2081 10.5489 11.2475 10.3536 10.9169C10.3257 10.8693 10.3245 10.8477 10.3243 10.8477C10.3311 10.8226 10.3942 10.7593 10.4268 10.7266C10.5221 10.6324 10.6254 10.5081 10.7253 10.3878C10.7726 10.3309 10.8199 10.2738 10.8664 10.2201C11.0114 10.0515 11.0759 9.92054 11.1507 9.76891L11.1899 9.69013C11.3726 9.32724 11.2166 9.02101 11.1661 8.92213C11.1248 8.83937 10.386 7.05636 10.3074 6.86904C10.1186 6.41701 9.86897 6.20654 9.52214 6.20654C9.48996 6.20654 9.52214 6.20654 9.38718 6.21223C9.22284 6.21917 8.3279 6.33698 7.93222 6.58641C7.5126 6.85096 6.80273 7.69423 6.80273 9.17724C6.80273 10.512 7.64975 11.7722 8.01341 12.2515C8.02245 12.2636 8.03905 12.2881 8.06312 12.3233C9.45583 14.3573 11.192 15.8646 12.952 16.5677C14.6464 17.2445 15.4488 17.3228 15.905 17.3228H15.905C16.0967 17.3228 16.2502 17.3077 16.3855 17.2944L16.4714 17.2862C17.0567 17.2343 18.3431 16.5678 18.6357 15.7546C18.8662 15.1142 18.9269 14.4145 18.7736 14.1605C18.6686 13.9878 18.4875 13.901 18.2584 13.7909Z" fill="white"/>
<path d="M12.713 0C6.21307 0 0.924969 5.24836 0.924969 11.6995C0.924969 13.786 1.48336 15.8284 2.54115 17.6159L0.516501 23.5883C0.478787 23.6996 0.506839 23.8227 0.589203 23.9066C0.648657 23.9673 0.729307 24 0.81167 24C0.843229 24 0.875021 23.9952 0.906034 23.9854L7.13357 22.0064C8.83772 22.917 10.7638 23.3976 12.7131 23.3976C19.2124 23.3977 24.5 18.1498 24.5 11.6995C24.5 5.24836 19.2124 0 12.713 0ZM12.713 20.9606C10.8788 20.9606 9.10227 20.4309 7.57515 19.4289C7.5238 19.3951 7.46419 19.3778 7.40419 19.3778C7.37247 19.3778 7.34068 19.3826 7.30975 19.3925L4.19014 20.3841L5.1972 17.413C5.22977 17.3169 5.21349 17.2108 5.15349 17.1288C3.99058 15.5398 3.37585 13.6625 3.37585 11.6995C3.37585 6.59221 7.56448 2.43709 12.7129 2.43709C17.8608 2.43709 22.0489 6.59221 22.0489 11.6995C22.049 16.8061 17.8609 20.9606 12.713 20.9606Z" fill="white"/>
</g>
<defs>
<clipPath id="clip0_4121_27858">
<rect width="24" height="24" fill="white" transform="translate(0.5)"/>
</clipPath>
</defs>
</svg>
